{
 "cells": [
  {
   "cell_type": "code",
   "execution_count": 10,
   "metadata": {},
   "outputs": [],
   "source": [
    "from mido import MidiFile\n",
    "import os\n",
    "import pretty_midi\n",
    "\n",
    "mid = MidiFile('Bhairavi01.midi', clip=True)"
   ]
  },
  {
   "cell_type": "code",
   "execution_count": 11,
   "metadata": {},
   "outputs": [
    {
     "name": "stdout",
     "output_type": "stream",
     "text": [
      "<midi file 'Bhairavi01.midi' type 0, 1 tracks, 64097 messages>\n"
     ]
    }
   ],
   "source": [
    "print(mid)"
   ]
  },
  {
   "cell_type": "code",
   "execution_count": 12,
   "metadata": {},
   "outputs": [
    {
     "name": "stdout",
     "output_type": "stream",
     "text": [
      "<midi track '' 64097 messages>\n"
     ]
    }
   ],
   "source": [
    "for track in mid.tracks:\n",
    "    print(track)"
   ]
  },
  {
   "cell_type": "markdown",
   "metadata": {},
   "source": [
    "Run this cell to see the messages associated with each midi file. "
   ]
  },
  {
   "cell_type": "code",
   "execution_count": 13,
   "metadata": {},
   "outputs": [
    {
     "name": "stdout",
     "output_type": "stream",
     "text": [
      "<meta message set_tempo tempo=500000 time=0>\n",
      "program_change channel=0 program=0 time=0\n",
      "note_on channel=0 note=78 velocity=25 time=0\n",
      "note_on channel=0 note=80 velocity=28 time=0\n",
      "note_on channel=0 note=82 velocity=35 time=0\n",
      "note_on channel=0 note=84 velocity=34 time=0\n",
      "note_on channel=0 note=86 velocity=22 time=0\n",
      "note_on channel=0 note=88 velocity=45 time=0\n",
      "note_on channel=0 note=90 velocity=40 time=0\n",
      "note_on channel=0 note=92 velocity=35 time=0\n",
      "note_on channel=0 note=93 velocity=29 time=0\n",
      "note_on channel=0 note=95 velocity=28 time=0\n",
      "note_off channel=0 note=86 velocity=64 time=4\n",
      "note_on channel=0 note=87 velocity=27 time=3\n",
      "note_on channel=0 note=91 velocity=14 time=5\n",
      "note_off channel=0 note=78 velocity=64 time=3\n",
      "note_on channel=0 note=83 velocity=31 time=3\n",
      "note_off channel=0 note=95 velocity=64 time=1\n",
      "note_off channel=0 note=82 velocity=64 time=1\n",
      "note_on channel=0 note=75 velocity=15 time=1\n",
      "note_off channel=0 note=91 velocity=64 time=1\n",
      "note_on channel=0 note=91 velocity=14 time=8\n",
      "note_on channel=0 note=78 velocity=9 time=2\n",
      "note_off channel=0 note=75 velocity=64 time=3\n",
      "note_off channel=0 note=78 velocity=64 time=0\n",
      "note_off channel=0 note=84 velocity=64 time=0\n",
      "note_on channel=0 note=82 velocity=26 time=2\n",
      "note_off channel=0 note=83 velocity=64 time=2\n",
      "note_on channel=0 note=84 velocity=12 time=2\n",
      "note_off channel=0 note=87 velocity=64 time=1\n",
      "note_off channel=0 note=91 velocity=64 time=0\n",
      "note_on channel=0 note=77 velocity=16 time=1\n",
      "note_on channel=0 note=91 velocity=12 time=0\n",
      "note_on channel=0 note=78 velocity=16 time=4\n",
      "note_off channel=0 note=91 velocity=64 time=0\n",
      "note_off channel=0 note=77 velocity=64 time=1\n",
      "note_on channel=0 note=91 velocity=15 time=0\n",
      "note_on channel=0 note=75 velocity=15 time=1\n",
      "note_off channel=0 note=78 velocity=64 time=2\n",
      "note_on channel=0 note=85 velocity=30 time=0\n",
      "note_off channel=0 note=80 velocity=64 time=3\n",
      "note_on channel=0 note=78 velocity=11 time=2\n",
      "note_off channel=0 note=78 velocity=64 time=3\n",
      "note_on channel=0 note=80 velocity=9 time=4\n",
      "note_off channel=0 note=84 velocity=64 time=2\n",
      "note_off channel=0 note=93 velocity=64 time=0\n",
      "note_on channel=0 note=83 velocity=55 time=3\n",
      "note_off channel=0 note=80 velocity=64 time=1\n",
      "note_off channel=0 note=82 velocity=64 time=0\n",
      "note_off channel=0 note=75 velocity=64 time=1\n",
      "note_on channel=0 note=84 velocity=14 time=0\n",
      "note_off channel=0 note=91 velocity=64 time=5\n",
      "note_on channel=0 note=75 velocity=12 time=1\n",
      "note_on channel=0 note=91 velocity=22 time=0\n",
      "note_off channel=0 note=75 velocity=64 time=7\n",
      "note_on channel=0 note=80 velocity=40 time=0\n",
      "note_on channel=0 note=48 velocity=53 time=2\n",
      "note_on channel=0 note=75 velocity=39 time=0\n",
      "note_off channel=0 note=84 velocity=64 time=1\n",
      "note_on channel=0 note=78 velocity=33 time=1\n",
      "note_off channel=0 note=80 velocity=64 time=0\n",
      "note_on channel=0 note=46 velocity=63 time=1\n",
      "note_off channel=0 note=48 velocity=64 time=0\n",
      "note_on channel=0 note=80 velocity=61 time=0\n",
      "note_on channel=0 note=84 velocity=57 time=0\n",
      "note_off channel=0 note=85 velocity=64 time=0\n",
      "note_on channel=0 note=65 velocity=23 time=1\n",
      "note_on channel=0 note=87 velocity=58 time=0\n",
      "note_on channel=0 note=101 velocity=32 time=0\n",
      "note_on channel=0 note=69 velocity=25 time=1\n",
      "note_on channel=0 note=73 velocity=33 time=0\n",
      "note_off channel=0 note=75 velocity=64 time=0\n",
      "note_on channel=0 note=76 velocity=38 time=0\n",
      "note_off channel=0 note=78 velocity=64 time=0\n",
      "note_on channel=0 note=79 velocity=63 time=0\n",
      "note_off channel=0 note=80 velocity=64 time=0\n",
      "note_on channel=0 note=81 velocity=35 time=0\n",
      "note_off channel=0 note=83 velocity=64 time=0\n",
      "note_on channel=0 note=85 velocity=43 time=0\n",
      "note_on channel=0 note=57 velocity=43 time=1\n",
      "note_on channel=0 note=83 velocity=75 time=0\n",
      "note_off channel=0 note=84 velocity=64 time=0\n",
      "note_on channel=0 note=45 velocity=66 time=1\n",
      "note_off channel=0 note=46 velocity=64 time=0\n",
      "note_on channel=0 note=64 velocity=17 time=0\n",
      "note_off channel=0 note=65 velocity=64 time=0\n",
      "note_off channel=0 note=79 velocity=64 time=1\n",
      "note_on channel=0 note=79 velocity=58 time=1\n",
      "note_off channel=0 note=88 velocity=64 time=0\n",
      "note_off channel=0 note=92 velocity=64 time=0\n",
      "note_off channel=0 note=64 velocity=64 time=1\n",
      "note_on channel=0 note=65 velocity=30 time=0\n",
      "note_off channel=0 note=57 velocity=64 time=1\n",
      "note_on channel=0 note=58 velocity=44 time=0\n",
      "note_off channel=0 note=69 velocity=64 time=0\n",
      "note_off channel=0 note=73 velocity=64 time=0\n",
      "note_on channel=0 note=74 velocity=49 time=0\n",
      "note_off channel=0 note=76 velocity=64 time=0\n",
      "note_on channel=0 note=77 velocity=34 time=0\n",
      "note_off channel=0 note=81 velocity=64 time=0\n",
      "note_on channel=0 note=84 velocity=43 time=0\n",
      "note_off channel=0 note=45 velocity=64 time=1\n",
      "note_on channel=0 note=46 velocity=61 time=0\n",
      "note_off channel=0 note=79 velocity=64 time=0\n",
      "note_on channel=0 note=80 velocity=61 time=0\n",
      "note_on channel=0 note=88 velocity=17 time=0\n",
      "note_off channel=0 note=91 velocity=64 time=0\n",
      "note_off channel=0 note=85 velocity=64 time=1\n",
      "note_off channel=0 note=65 velocity=64 time=1\n",
      "note_on channel=0 note=66 velocity=50 time=0\n",
      "note_off channel=0 note=77 velocity=64 time=0\n",
      "note_on channel=0 note=78 velocity=62 time=0\n",
      "note_off channel=0 note=84 velocity=64 time=0\n",
      "note_on channel=0 note=85 velocity=47 time=0\n",
      "note_on channel=0 note=100 velocity=18 time=0\n",
      "note_off channel=0 note=46 velocity=64 time=1\n",
      "note_on channel=0 note=47 velocity=50 time=0\n",
      "note_off channel=0 note=58 velocity=64 time=0\n",
      "note_off channel=0 note=74 velocity=64 time=0\n",
      "note_on channel=0 note=75 velocity=61 time=0\n",
      "note_off channel=0 note=88 velocity=64 time=1\n",
      "note_on channel=0 note=88 velocity=14 time=1\n",
      "note_on channel=0 note=81 velocity=37 time=1\n",
      "note_off channel=0 note=80 velocity=64 time=1\n",
      "note_on channel=0 note=73 velocity=19 time=1\n",
      "note_on channel=0 note=91 velocity=36 time=0\n",
      "note_off channel=0 note=88 velocity=64 time=1\n",
      "note_off channel=0 note=100 velocity=64 time=0\n",
      "note_off channel=0 note=47 velocity=64 time=1\n",
      "note_on channel=0 note=48 velocity=57 time=0\n",
      "note_on channel=0 note=80 velocity=12 time=0\n",
      "note_off channel=0 note=73 velocity=64 time=1\n",
      "note_on channel=0 note=88 velocity=18 time=0\n",
      "note_on channel=0 note=72 velocity=46 time=1\n",
      "note_off channel=0 note=75 velocity=64 time=0\n",
      "note_on channel=0 note=76 velocity=64 time=0\n",
      "note_on channel=0 note=79 velocity=60 time=0\n",
      "note_off channel=0 note=85 velocity=64 time=0\n",
      "note_on channel=0 note=86 velocity=36 time=0\n",
      "note_off channel=0 note=90 velocity=64 time=0\n",
      "note_off channel=0 note=66 velocity=64 time=1\n",
      "note_on channel=0 note=67 velocity=49 time=0\n",
      "note_off channel=0 note=78 velocity=64 time=0\n",
      "note_off channel=0 note=80 velocity=64 time=0\n",
      "note_off channel=0 note=81 velocity=64 time=1\n",
      "note_on channel=0 note=82 velocity=35 time=0\n",
      "note_off channel=0 note=88 velocity=64 time=1\n",
      "note_off channel=0 note=82 velocity=64 time=3\n",
      "note_off channel=0 note=86 velocity=64 time=0\n",
      "note_on channel=0 note=86 velocity=35 time=1\n",
      "note_on channel=0 note=90 velocity=13 time=0\n",
      "note_off channel=0 note=48 velocity=64 time=1\n",
      "note_on channel=0 note=49 velocity=68 time=0\n",
      "note_off channel=0 note=67 velocity=64 time=0\n",
      "note_on channel=0 note=68 velocity=48 time=0\n",
      "note_off channel=0 note=72 velocity=64 time=0\n",
      "note_off channel=0 note=79 velocity=64 time=0\n",
      "note_on channel=0 note=80 velocity=56 time=0\n",
      "note_on channel=0 note=82 velocity=45 time=0\n",
      "note_off channel=0 note=83 velocity=64 time=0\n",
      "note_on channel=0 note=85 velocity=45 time=0\n",
      "note_off channel=0 note=101 velocity=64 time=0\n",
      "note_off channel=0 note=86 velocity=64 time=1\n",
      "note_on channel=0 note=95 velocity=15 time=2\n",
      "note_off channel=0 note=90 velocity=64 time=3\n",
      "note_off channel=0 note=76 velocity=64 time=1\n",
      "note_on channel=0 note=89 velocity=25 time=1\n",
      "note_off channel=0 note=95 velocity=64 time=3\n",
      "note_on channel=0 note=77 velocity=17 time=1\n",
      "note_off channel=0 note=82 velocity=64 time=0\n",
      "note_on channel=0 note=83 velocity=47 time=0\n",
      "note_on channel=0 note=82 velocity=30 time=5\n",
      "note_off channel=0 note=83 velocity=64 time=0\n",
      "note_off channel=0 note=82 velocity=64 time=3\n",
      "note_on channel=0 note=83 velocity=43 time=0\n",
      "note_off channel=0 note=89 velocity=64 time=0\n",
      "note_off channel=0 note=77 velocity=64 time=1\n",
      "note_on channel=0 note=89 velocity=33 time=0\n",
      "note_on channel=0 note=77 velocity=23 time=3\n",
      "note_off channel=0 note=83 velocity=64 time=0\n",
      "note_on channel=0 note=83 velocity=40 time=2\n",
      "note_off channel=0 note=85 velocity=64 time=1\n",
      "note_on channel=0 note=93 velocity=11 time=1\n",
      "note_on channel=0 note=85 velocity=20 time=2\n",
      "note_on channel=0 note=90 velocity=10 time=0\n",
      "note_off channel=0 note=93 velocity=64 time=1\n",
      "note_off channel=0 note=77 velocity=64 time=1\n",
      "note_off channel=0 note=90 velocity=64 time=1\n",
      "note_off channel=0 note=68 velocity=64 time=2\n",
      "note_on channel=0 note=77 velocity=12 time=2\n",
      "note_on channel=0 note=68 velocity=36 time=2\n",
      "note_on channel=0 note=90 velocity=9 time=1\n",
      "note_off channel=0 note=85 velocity=64 time=3\n",
      "note_off channel=0 note=90 velocity=64 time=0\n",
      "note_on channel=0 note=90 velocity=13 time=5\n",
      "note_off channel=0 note=90 velocity=64 time=5\n",
      "note_on channel=0 note=85 velocity=9 time=5\n",
      "note_on channel=0 note=90 velocity=11 time=0\n",
      "note_off channel=0 note=80 velocity=64 time=1\n",
      "note_off channel=0 note=83 velocity=64 time=0\n",
      "note_off channel=0 note=68 velocity=64 time=2\n",
      "note_off channel=0 note=77 velocity=64 time=1\n",
      "note_on channel=0 note=80 velocity=23 time=0\n",
      "note_on channel=0 note=83 velocity=34 time=0\n",
      "note_off channel=0 note=85 velocity=64 time=0\n",
      "note_on channel=0 note=68 velocity=29 time=2\n",
      "note_on channel=0 note=75 velocity=16 time=1\n",
      "note_off channel=0 note=90 velocity=64 time=0\n",
      "note_on channel=0 note=78 velocity=22 time=7\n",
      "note_on channel=0 note=84 velocity=35 time=0\n",
      "note_on channel=0 note=82 velocity=26 time=2\n",
      "note_off channel=0 note=83 velocity=64 time=0\n",
      "note_off channel=0 note=89 velocity=64 time=1\n",
      "note_off channel=0 note=80 velocity=64 time=1\n",
      "note_on channel=0 note=88 velocity=44 time=0\n",
      "note_on channel=0 note=85 velocity=18 time=1\n",
      "note_on channel=0 note=83 velocity=29 time=2\n",
      "note_off channel=0 note=82 velocity=64 time=1\n",
      "note_off channel=0 note=78 velocity=64 time=3\n",
      "note_on channel=0 note=78 velocity=25 time=1\n",
      "note_off channel=0 note=85 velocity=64 time=1\n",
      "note_off channel=0 note=68 velocity=64 time=1\n",
      "note_on channel=0 note=82 velocity=26 time=0\n",
      "note_off channel=0 note=83 velocity=64 time=0\n",
      "note_on channel=0 note=68 velocity=24 time=2\n",
      "note_off channel=0 note=78 velocity=64 time=10\n",
      "note_on channel=0 note=78 velocity=11 time=1\n",
      "note_off channel=0 note=68 velocity=64 time=1\n",
      "note_off channel=0 note=87 velocity=64 time=1\n",
      "note_on channel=0 note=87 velocity=29 time=1\n",
      "note_off channel=0 note=75 velocity=64 time=1\n",
      "note_off channel=0 note=78 velocity=64 time=2\n",
      "note_on channel=0 note=77 velocity=17 time=3\n",
      "note_on channel=0 note=90 velocity=42 time=2\n",
      "note_on channel=0 note=75 velocity=16 time=4\n",
      "note_on channel=0 note=78 velocity=28 time=0\n",
      "note_off channel=0 note=77 velocity=64 time=1\n",
      "note_on channel=0 note=68 velocity=21 time=3\n",
      "note_on channel=0 note=80 velocity=23 time=0\n",
      "note_off channel=0 note=87 velocity=64 time=1\n",
      "note_on channel=0 note=87 velocity=36 time=5\n",
      "note_off channel=0 note=75 velocity=64 time=2\n",
      "note_on channel=0 note=75 velocity=27 time=3\n",
      "note_on channel=0 note=95 velocity=24 time=5\n",
      "note_off channel=0 note=78 velocity=64 time=4\n",
      "note_off channel=0 note=80 velocity=64 time=0\n",
      "note_on channel=0 note=80 velocity=34 time=3\n",
      "note_on channel=0 note=83 velocity=21 time=2\n",
      "note_off channel=0 note=82 velocity=64 time=1\n",
      "note_off channel=0 note=68 velocity=64 time=1\n",
      "note_on channel=0 note=78 velocity=22 time=0\n",
      "note_on channel=0 note=82 velocity=12 time=0\n",
      "note_off channel=0 note=82 velocity=64 time=4\n",
      "note_on channel=0 note=82 velocity=36 time=3\n",
      "note_off channel=0 note=83 velocity=64 time=1\n",
      "note_on channel=0 note=92 velocity=34 time=5\n",
      "note_off channel=0 note=87 velocity=64 time=3\n",
      "note_on channel=0 note=87 velocity=28 time=3\n",
      "note_off channel=0 note=91 velocity=64 time=0\n",
      "note_off channel=0 note=75 velocity=64 time=1\n",
      "note_on channel=0 note=91 velocity=16 time=2\n",
      "note_on channel=0 note=83 velocity=30 time=1\n",
      "note_off channel=0 note=95 velocity=64 time=1\n",
      "note_off channel=0 note=83 velocity=64 time=1\n",
      "note_on channel=0 note=75 velocity=14 time=2\n",
      "note_on channel=0 note=95 velocity=32 time=3\n",
      "note_off channel=0 note=78 velocity=64 time=2\n",
      "note_on channel=0 note=83 velocity=30 time=1\n",
      "note_off channel=0 note=82 velocity=64 time=1\n",
      "note_off channel=0 note=91 velocity=64 time=3\n",
      "note_on channel=0 note=93 velocity=19 time=2\n",
      "note_on channel=0 note=91 velocity=9 time=1\n",
      "note_off channel=0 note=75 velocity=64 time=3\n",
      "note_off channel=0 note=91 velocity=64 time=1\n",
      "note_on channel=0 note=91 velocity=15 time=1\n",
      "note_on channel=0 note=82 velocity=28 time=3\n",
      "note_off channel=0 note=83 velocity=64 time=1\n",
      "note_off channel=0 note=84 velocity=64 time=1\n",
      "note_on channel=0 note=84 velocity=12 time=5\n",
      "note_off channel=0 note=87 velocity=64 time=0\n",
      "note_off channel=0 note=93 velocity=64 time=1\n",
      "note_on channel=0 note=75 velocity=16 time=4\n",
      "note_off channel=0 note=49 velocity=64 time=1\n",
      "note_on channel=0 note=78 velocity=16 time=0\n",
      "note_off channel=0 note=78 velocity=64 time=4\n",
      "note_off channel=0 note=80 velocity=64 time=1\n",
      "note_on channel=0 note=85 velocity=24 time=1\n",
      "note_on channel=0 note=77 velocity=13 time=1\n",
      "note_on channel=0 note=93 velocity=16 time=0\n",
      "note_off channel=0 note=77 velocity=64 time=10\n",
      "note_off channel=0 note=84 velocity=64 time=0\n",
      "note_off channel=0 note=93 velocity=64 time=1\n",
      "note_off channel=0 note=82 velocity=64 time=3\n",
      "note_on channel=0 note=80 velocity=22 time=1\n",
      "note_on channel=0 note=82 velocity=30 time=0\n",
      "note_off channel=0 note=91 velocity=64 time=1\n",
      "note_on channel=0 note=83 velocity=71 time=1\n",
      "note_on channel=0 note=84 velocity=16 time=0\n",
      "note_on channel=0 note=91 velocity=20 time=0\n",
      "note_off channel=0 note=82 velocity=64 time=1\n",
      "note_off channel=0 note=75 velocity=64 time=1\n",
      "note_on channel=0 note=75 velocity=13 time=3\n",
      "note_off channel=0 note=80 velocity=64 time=6\n",
      "note_on channel=0 note=87 velocity=60 time=0\n",
      "note_off channel=0 note=75 velocity=64 time=1\n",
      "note_on channel=0 note=80 velocity=20 time=2\n",
      "note_off channel=0 note=95 velocity=64 time=4\n",
      "note_on channel=0 note=75 velocity=38 time=2\n",
      "note_on channel=0 note=81 velocity=42 time=0\n",
      "note_on channel=0 note=48 velocity=55 time=1\n",
      "note_off channel=0 note=80 velocity=64 time=0\n",
      "note_off channel=0 note=84 velocity=64 time=0\n",
      "note_off channel=0 note=92 velocity=64 time=0\n",
      "note_on channel=0 note=78 velocity=21 time=1\n",
      "note_on channel=0 note=84 velocity=30 time=0\n",
      "note_on channel=0 note=46 velocity=54 time=1\n",
      "note_off channel=0 note=48 velocity=64 time=0\n",
      "note_on channel=0 note=80 velocity=49 time=0\n",
      "note_off channel=0 note=81 velocity=64 time=0\n",
      "note_off channel=0 note=85 velocity=64 time=0\n",
      "note_off channel=0 note=84 velocity=64 time=1\n",
      "note_on channel=0 note=45 velocity=67 time=1\n",
      "note_off channel=0 note=46 velocity=64 time=0\n",
      "note_on channel=0 note=73 velocity=35 time=0\n",
      "note_on channel=0 note=76 velocity=44 time=0\n",
      "note_off channel=0 note=78 velocity=64 time=0\n",
      "note_on channel=0 note=79 velocity=59 time=0\n",
      "note_on channel=0 note=82 velocity=20 time=0\n",
      "note_on channel=0 note=85 velocity=40 time=0\n",
      "note_on channel=0 note=101 velocity=47 time=0\n",
      "note_on channel=0 note=64 velocity=19 time=1\n",
      "note_off channel=0 note=75 velocity=64 time=0\n",
      "note_off channel=0 note=80 velocity=64 time=0\n",
      "note_on channel=0 note=92 velocity=21 time=0\n",
      "note_on channel=0 note=81 velocity=37 time=1\n",
      "note_off channel=0 note=82 velocity=64 time=1\n",
      "note_off channel=0 note=64 velocity=64 time=2\n",
      "note_on channel=0 note=65 velocity=29 time=0\n",
      "note_off channel=0 note=91 velocity=64 time=0\n",
      "note_on channel=0 note=58 velocity=48 time=1\n",
      "note_off channel=0 note=73 velocity=64 time=0\n",
      "note_on channel=0 note=74 velocity=53 time=0\n",
      "note_off channel=0 note=76 velocity=64 time=0\n",
      "note_on channel=0 note=77 velocity=39 time=0\n",
      "note_off channel=0 note=81 velocity=64 time=0\n",
      "note_on channel=0 note=82 velocity=36 time=0\n",
      "note_on channel=0 note=84 velocity=38 time=0\n",
      "note_off channel=0 note=45 velocity=64 time=1\n",
      "note_on channel=0 note=46 velocity=62 time=0\n",
      "note_off channel=0 note=79 velocity=64 time=0\n",
      "note_on channel=0 note=80 velocity=62 time=0\n",
      "note_off channel=0 note=85 velocity=64 time=0\n",
      "note_off channel=0 note=88 velocity=64 time=0\n",
      "note_on channel=0 note=71 velocity=42 time=1\n",
      "note_off channel=0 note=82 velocity=64 time=0\n",
      "note_on channel=0 note=88 velocity=37 time=0\n",
      "note_off channel=0 note=90 velocity=64 time=0\n",
      "note_off channel=0 note=65 velocity=64 time=1\n",
      "note_on channel=0 note=66 velocity=42 time=0\n",
      "note_off channel=0 note=77 velocity=64 time=0\n",
      "note_on channel=0 note=78 velocity=55 time=0\n",
      "note_off channel=0 note=84 velocity=64 time=0\n",
      "note_on channel=0 note=85 velocity=32 time=0\n",
      "note_on channel=0 note=91 velocity=22 time=0\n",
      "note_off channel=0 note=46 velocity=64 time=1\n",
      "note_on channel=0 note=47 velocity=50 time=0\n",
      "note_off channel=0 note=58 velocity=64 time=0\n",
      "note_off channel=0 note=74 velocity=64 time=0\n",
      "note_on channel=0 note=75 velocity=54 time=0\n",
      "note_on channel=0 note=93 velocity=19 time=0\n",
      "note_on channel=0 note=81 velocity=30 time=1\n",
      "note_off channel=0 note=88 velocity=64 time=0\n",
      "note_on channel=0 note=89 velocity=50 time=0\n",
      "note_off channel=0 note=47 velocity=64 time=1\n",
      "note_on channel=0 note=60 velocity=48 time=0\n",
      "note_off channel=0 note=80 velocity=64 time=0\n",
      "note_on channel=0 note=88 velocity=52 time=0\n",
      "note_on channel=0 note=49 velocity=69 time=1\n",
      "note_off channel=0 note=66 velocity=64 time=0\n",
      "note_on channel=0 note=67 velocity=50 time=0\n",
      "note_off channel=0 note=71 velocity=64 time=0\n",
      "note_on channel=0 note=72 velocity=53 time=0\n",
      "note_on channel=0 note=76 velocity=57 time=0\n",
      "note_off channel=0 note=81 velocity=64 time=0\n",
      "note_on channel=0 note=82 velocity=42 time=0\n",
      "note_off channel=0 note=75 velocity=64 time=1\n",
      "note_off channel=0 note=83 velocity=64 time=0\n",
      "note_off channel=0 note=85 velocity=64 time=0\n",
      "note_off channel=0 note=89 velocity=64 time=0\n",
      "note_on channel=0 note=95 velocity=23 time=0\n",
      "note_off channel=0 note=60 velocity=64 time=1\n",
      "note_on channel=0 note=75 velocity=48 time=0\n",
      "note_on channel=0 note=80 velocity=48 time=0\n",
      "note_on channel=0 note=85 velocity=35 time=0\n",
      "note_off channel=0 note=91 velocity=64 time=0\n",
      "note_off channel=0 note=67 velocity=64 time=1\n",
      "note_on channel=0 note=68 velocity=39 time=0\n",
      "note_off channel=0 note=72 velocity=64 time=0\n",
      "note_off channel=0 note=76 velocity=64 time=0\n",
      "note_on channel=0 note=77 velocity=40 time=0\n",
      "note_off channel=0 note=78 velocity=64 time=0\n",
      "note_on channel=0 note=83 velocity=52 time=0\n",
      "note_off channel=0 note=88 velocity=64 time=0\n",
      "note_on channel=0 note=89 velocity=62 time=0\n",
      "note_on channel=0 note=91 velocity=50 time=0\n",
      "note_on channel=0 note=76 velocity=29 time=1\n",
      "note_off channel=0 note=82 velocity=64 time=0\n",
      "note_off channel=0 note=93 velocity=64 time=0\n",
      "note_on channel=0 note=94 velocity=26 time=0\n",
      "note_off channel=0 note=68 velocity=64 time=1\n",
      "note_on channel=0 note=69 velocity=49 time=0\n",
      "note_on channel=0 note=74 velocity=71 time=0\n",
      "note_off channel=0 note=75 velocity=64 time=0\n",
      "note_off channel=0 note=77 velocity=64 time=0\n",
      "note_on channel=0 note=78 velocity=47 time=0\n",
      "note_on channel=0 note=88 velocity=46 time=0\n",
      "note_off channel=0 note=92 velocity=64 time=0\n",
      "note_on channel=0 note=93 velocity=33 time=0\n",
      "note_off channel=0 note=76 velocity=64 time=1\n",
      "note_on channel=0 note=77 velocity=57 time=1\n",
      "note_off channel=0 note=78 velocity=64 time=0\n",
      "note_off channel=0 note=80 velocity=64 time=0\n",
      "note_off channel=0 note=85 velocity=64 time=0\n",
      "note_off channel=0 note=87 velocity=64 time=0\n",
      "note_off channel=0 note=89 velocity=64 time=0\n",
      "note_on channel=0 note=90 velocity=61 time=0\n",
      "note_off channel=0 note=49 velocity=64 time=1\n",
      "note_on channel=0 note=50 velocity=70 time=0\n",
      "note_off channel=0 note=77 velocity=64 time=1\n",
      "note_on channel=0 note=78 velocity=53 time=0\n",
      "note_on channel=0 note=89 velocity=61 time=1\n",
      "note_on channel=0 note=85 velocity=25 time=1\n",
      "note_on channel=0 note=87 velocity=44 time=0\n",
      "note_off channel=0 note=90 velocity=64 time=0\n",
      "note_off channel=0 note=93 velocity=64 time=0\n",
      "note_on channel=0 note=49 velocity=68 time=1\n",
      "note_off channel=0 note=50 velocity=64 time=0\n",
      "note_on channel=0 note=68 velocity=44 time=0\n",
      "note_off channel=0 note=69 velocity=64 time=0\n",
      "note_off channel=0 note=74 velocity=64 time=0\n",
      "note_on channel=0 note=93 velocity=22 time=1\n",
      "note_off channel=0 note=94 velocity=64 time=0\n",
      "note_on channel=0 note=77 velocity=52 time=1\n",
      "note_on channel=0 note=90 velocity=61 time=0\n",
      "note_off channel=0 note=78 velocity=64 time=1\n",
      "note_off channel=0 note=83 velocity=64 time=0\n",
      "note_off channel=0 note=95 velocity=64 time=0\n",
      "note_on channel=0 note=83 velocity=59 time=1\n",
      "note_off channel=0 note=88 velocity=64 time=1\n",
      "note_off channel=0 note=68 velocity=64 time=1\n",
      "note_on channel=0 note=69 velocity=45 time=0\n",
      "note_on channel=0 note=88 velocity=36 time=0\n",
      "note_off channel=0 note=93 velocity=64 time=0\n",
      "note_on channel=0 note=94 velocity=16 time=0\n",
      "note_on channel=0 note=74 velocity=71 time=1\n",
      "note_off channel=0 note=49 velocity=64 time=1\n",
      "note_on channel=0 note=50 velocity=68 time=0\n",
      "note_off channel=0 note=77 velocity=64 time=0\n",
      "note_on channel=0 note=78 velocity=53 time=0\n",
      "note_off channel=0 note=87 velocity=64 time=0\n",
      "note_on channel=0 note=84 velocity=27 time=1\n",
      "note_off channel=0 note=85 velocity=64 time=0\n",
      "note_on channel=0 note=61 velocity=61 time=3\n",
      "note_on channel=0 note=77 velocity=49 time=0\n",
      "note_off channel=0 note=78 velocity=64 time=0\n",
      "note_off channel=0 note=84 velocity=64 time=0\n",
      "note_on channel=0 note=85 velocity=31 time=0\n",
      "note_off channel=0 note=90 velocity=64 time=0\n",
      "note_on channel=0 note=92 velocity=38 time=0\n",
      "note_on channel=0 note=68 velocity=43 time=1\n",
      "note_off channel=0 note=69 velocity=64 time=0\n",
      "note_off channel=0 note=74 velocity=64 time=0\n",
      "note_on channel=0 note=80 velocity=47 time=0\n",
      "note_on channel=0 note=87 velocity=64 time=0\n",
      "note_on channel=0 note=90 velocity=47 time=0\n",
      "note_off channel=0 note=94 velocity=64 time=0\n",
      "note_on channel=0 note=49 velocity=65 time=1\n",
      "note_off channel=0 note=50 velocity=64 time=0\n",
      "note_off channel=0 note=88 velocity=64 time=0\n",
      "note_off channel=0 note=91 velocity=64 time=1\n",
      "note_on channel=0 note=94 velocity=20 time=0\n",
      "note_on channel=0 note=91 velocity=23 time=1\n",
      "note_off channel=0 note=94 velocity=64 time=2\n",
      "note_off channel=0 note=77 velocity=64 time=1\n",
      "note_on channel=0 note=77 velocity=47 time=1\n",
      "note_on channel=0 note=82 velocity=45 time=0\n",
      "note_off channel=0 note=83 velocity=64 time=0\n",
      "note_on channel=0 note=84 velocity=9 time=1\n",
      "note_on channel=0 note=95 velocity=24 time=0\n",
      "note_off channel=0 note=82 velocity=64 time=2\n",
      "note_on channel=0 note=83 velocity=60 time=0\n",
      "note_off channel=0 note=84 velocity=64 time=1\n",
      "note_off channel=0 note=85 velocity=64 time=4\n",
      "note_off channel=0 note=91 velocity=64 time=2\n",
      "note_on channel=0 note=76 velocity=52 time=1\n",
      "note_off channel=0 note=77 velocity=64 time=0\n",
      "note_on channel=0 note=79 velocity=45 time=0\n",
      "note_off channel=0 note=80 velocity=64 time=0\n",
      "note_on channel=0 note=82 velocity=44 time=0\n",
      "note_off channel=0 note=83 velocity=64 time=0\n",
      "note_off channel=0 note=95 velocity=64 time=0\n",
      "note_on channel=0 note=48 velocity=61 time=1\n",
      "note_off channel=0 note=49 velocity=64 time=0\n",
      "note_on channel=0 note=67 velocity=46 time=0\n",
      "note_off channel=0 note=68 velocity=64 time=0\n",
      "note_on channel=0 note=86 velocity=15 time=0\n",
      "note_off channel=0 note=92 velocity=64 time=0\n",
      "note_on channel=0 note=75 velocity=48 time=1\n",
      "note_on channel=0 note=83 velocity=54 time=0\n",
      "note_on channel=0 note=45 velocity=64 time=1\n",
      "note_off channel=0 note=48 velocity=64 time=0\n",
      "note_off channel=0 note=76 velocity=64 time=0\n",
      "note_on channel=0 note=77 velocity=27 time=0\n",
      "note_off channel=0 note=90 velocity=64 time=0\n",
      "note_off channel=0 note=101 velocity=64 time=0\n",
      "note_off channel=0 note=75 velocity=64 time=1\n",
      "note_on channel=0 note=80 velocity=32 time=0\n",
      "note_off channel=0 note=82 velocity=64 time=0\n",
      "note_off channel=0 note=86 velocity=64 time=0\n",
      "note_off channel=0 note=87 velocity=64 time=0\n",
      "note_off channel=0 note=89 velocity=64 time=0\n",
      "note_off channel=0 note=61 velocity=64 time=1\n",
      "note_off channel=0 note=67 velocity=64 time=0\n",
      "note_on channel=0 note=68 velocity=22 time=0\n",
      "note_off channel=0 note=79 velocity=64 time=1\n",
      "note_on channel=0 note=87 velocity=13 time=0\n",
      "note_on channel=0 note=81 velocity=24 time=1\n",
      "note_on channel=0 note=58 velocity=39 time=1\n",
      "note_on channel=0 note=65 velocity=20 time=0\n",
      "note_on channel=0 note=74 velocity=53 time=0\n",
      "note_on channel=0 note=79 velocity=32 time=1\n",
      "note_off channel=0 note=80 velocity=64 time=0\n",
      "note_on channel=0 note=84 velocity=23 time=0\n",
      "note_on channel=0 note=88 velocity=56 time=0\n",
      "note_off channel=0 note=81 velocity=64 time=1\n",
      "note_off channel=0 note=45 velocity=64 time=1\n",
      "note_on channel=0 note=46 velocity=57 time=0\n",
      "note_on channel=0 note=71 velocity=38 time=0\n",
      "note_off channel=0 note=77 velocity=64 time=0\n",
      "note_on channel=0 note=78 velocity=61 time=0\n",
      "note_on channel=0 note=80 velocity=50 time=0\n",
      "note_off channel=0 note=87 velocity=64 time=0\n",
      "note_off channel=0 note=65 velocity=64 time=1\n",
      "note_on channel=0 note=66 velocity=35 time=0\n",
      "note_off channel=0 note=79 velocity=64 time=0\n",
      "note_off channel=0 note=84 velocity=64 time=0\n",
      "note_on channel=0 note=85 velocity=36 time=0\n",
      "note_off channel=0 note=46 velocity=64 time=1\n",
      "note_on channel=0 note=47 velocity=52 time=0\n",
      "note_off channel=0 note=58 velocity=64 time=0\n",
      "note_off channel=0 note=74 velocity=64 time=0\n",
      "note_on channel=0 note=75 velocity=69 time=0\n",
      "note_on channel=0 note=86 velocity=36 time=0\n",
      "note_off channel=0 note=68 velocity=64 time=1\n",
      "note_on channel=0 note=94 velocity=18 time=0\n",
      "note_off channel=0 note=86 velocity=64 time=1\n",
      "note_on channel=0 note=93 velocity=23 time=0\n",
      "note_off channel=0 note=93 velocity=64 time=6\n",
      "note_off channel=0 note=94 velocity=64 time=0\n",
      "note_on channel=0 note=101 velocity=32 time=0\n",
      "note_on channel=0 note=93 velocity=14 time=1\n",
      "note_on channel=0 note=58 velocity=43 time=1\n",
      "note_on channel=0 note=65 velocity=31 time=0\n",
      "note_off channel=0 note=66 velocity=64 time=0\n",
      "note_on channel=0 note=74 velocity=56 time=0\n",
      "note_off channel=0 note=75 velocity=64 time=0\n",
      "note_off channel=0 note=71 velocity=64 time=1\n",
      "note_on channel=0 note=94 velocity=16 time=0\n",
      "note_off channel=0 note=47 velocity=64 time=1\n",
      "note_on channel=0 note=82 velocity=56 time=0\n",
      "note_off channel=0 note=83 velocity=64 time=0\n",
      "note_on channel=0 note=47 velocity=48 time=1\n",
      "note_on channel=0 note=77 velocity=54 time=0\n",
      "note_off channel=0 note=78 velocity=64 time=0\n",
      "note_on channel=0 note=84 velocity=33 time=0\n",
      "note_off channel=0 note=85 velocity=64 time=0\n",
      "note_on channel=0 note=46 velocity=57 time=2\n",
      "note_off channel=0 note=47 velocity=64 time=0\n",
      "note_on channel=0 note=102 velocity=16 time=3\n",
      "note_on channel=0 note=85 velocity=9 time=2\n",
      "note_off channel=0 note=85 velocity=64 time=3\n",
      "note_on channel=0 note=83 velocity=29 time=1\n",
      "note_on channel=0 note=85 velocity=13 time=0\n",
      "note_on channel=0 note=90 velocity=30 time=0\n",
      "note_on channel=0 note=87 velocity=61 time=1\n",
      "note_on channel=0 note=79 velocity=60 time=1\n",
      "note_off channel=0 note=80 velocity=64 time=0\n",
      "note_off channel=0 note=94 velocity=64 time=0\n",
      "note_off channel=0 note=102 velocity=64 time=0\n",
      "note_off channel=0 note=83 velocity=64 time=1\n",
      "note_off channel=0 note=88 velocity=64 time=0\n",
      "note_off channel=0 note=93 velocity=64 time=0\n",
      "note_on channel=0 note=73 velocity=42 time=1\n",
      "note_off channel=0 note=74 velocity=64 time=0\n",
      "note_on channel=0 note=75 velocity=12 time=0\n",
      "note_off channel=0 note=85 velocity=64 time=0\n",
      "note_on channel=0 note=57 velocity=44 time=2\n",
      "note_off channel=0 note=58 velocity=64 time=0\n",
      "note_off channel=0 note=77 velocity=64 time=0\n",
      "note_off channel=0 note=82 velocity=64 time=0\n",
      "note_on channel=0 note=64 velocity=20 time=1\n",
      "note_off channel=0 note=65 velocity=64 time=0\n",
      "note_off channel=0 note=75 velocity=64 time=0\n",
      "note_on channel=0 note=77 velocity=44 time=0\n",
      "note_off channel=0 note=101 velocity=64 time=0\n",
      "note_on channel=0 note=45 velocity=61 time=1\n",
      "note_off channel=0 note=46 velocity=64 time=0\n",
      "note_on channel=0 note=76 velocity=62 time=0\n",
      "note_on channel=0 note=81 velocity=45 time=0\n",
      "note_off channel=0 note=77 velocity=64 time=2\n",
      "note_on channel=0 note=101 velocity=20 time=0\n",
      "note_on channel=0 note=83 velocity=39 time=1\n",
      "note_off channel=0 note=79 velocity=64 time=4\n",
      "note_on channel=0 note=82 velocity=22 time=0\n",
      "note_on channel=0 note=86 velocity=39 time=0\n",
      "note_off channel=0 note=87 velocity=64 time=0\n",
      "note_on channel=0 note=92 velocity=15 time=0\n",
      "note_off channel=0 note=64 velocity=64 time=1\n",
      "note_on channel=0 note=79 velocity=40 time=0\n",
      "note_off channel=0 note=73 velocity=64 time=1\n",
      "note_on channel=0 note=64 velocity=19 time=1\n",
      "note_on channel=0 note=73 velocity=39 time=0\n",
      "note_off channel=0 note=82 velocity=64 time=0\n",
      "note_on channel=0 note=87 velocity=22 time=0\n",
      "note_on channel=0 note=78 velocity=29 time=1\n",
      "note_off channel=0 note=79 velocity=64 time=1\n",
      "note_on channel=0 note=89 velocity=14 time=0\n",
      "note_on channel=0 note=79 velocity=34 time=1\n",
      "note_off channel=0 note=90 velocity=64 time=0\n",
      "note_off channel=0 note=78 velocity=64 time=1\n",
      "note_off channel=0 note=87 velocity=64 time=0\n",
      "note_on channel=0 note=90 velocity=11 time=0\n",
      "note_off channel=0 note=89 velocity=64 time=1\n",
      "note_on channel=0 note=78 velocity=44 time=1\n",
      "note_off channel=0 note=79 velocity=64 time=0\n",
      "note_on channel=0 note=87 velocity=27 time=1\n",
      "note_off channel=0 note=92 velocity=64 time=0\n",
      "note_off channel=0 note=78 velocity=64 time=1\n",
      "note_off channel=0 note=90 velocity=64 time=0\n",
      "note_on channel=0 note=78 velocity=41 time=1\n",
      "note_off channel=0 note=87 velocity=64 time=1\n",
      "note_off channel=0 note=101 velocity=64 time=0\n",
      "note_on channel=0 note=87 velocity=32 time=1\n",
      "note_on channel=0 note=89 velocity=11 time=1\n",
      "note_off channel=0 note=87 velocity=64 time=3\n",
      "note_on channel=0 note=101 velocity=34 time=0\n",
      "note_off channel=0 note=89 velocity=64 time=1\n",
      "note_off channel=0 note=78 velocity=64 time=1\n",
      "note_on channel=0 note=79 velocity=48 time=0\n",
      "note_off channel=0 note=84 velocity=64 time=0\n",
      "note_off channel=0 note=86 velocity=64 time=0\n",
      "note_on channel=0 note=87 velocity=41 time=0\n",
      "note_off channel=0 note=64 velocity=64 time=1\n",
      "note_on channel=0 note=65 velocity=25 time=0\n",
      "note_on channel=0 note=75 velocity=35 time=0\n",
      "note_on channel=0 note=84 velocity=46 time=0\n",
      "note_off channel=0 note=57 velocity=64 time=1\n",
      "note_on channel=0 note=58 velocity=41 time=0\n",
      "note_off channel=0 note=76 velocity=64 time=0\n",
      "note_on channel=0 note=77 velocity=41 time=0\n",
      "note_off channel=0 note=81 velocity=64 time=0\n",
      "note_on channel=0 note=82 velocity=55 time=0\n",
      "note_off channel=0 note=83 velocity=64 time=0\n",
      "note_off channel=0 note=45 velocity=64 time=1\n",
      "note_on channel=0 note=46 velocity=53 time=0\n",
      "note_off channel=0 note=73 velocity=64 time=0\n",
      "note_on channel=0 note=74 velocity=59 time=0\n",
      "note_off channel=0 note=75 velocity=64 time=0\n",
      "note_on channel=0 note=90 velocity=42 time=0\n",
      "note_on channel=0 note=92 velocity=27 time=1\n",
      "note_off channel=0 note=65 velocity=64 time=1\n",
      "note_on channel=0 note=66 velocity=31 time=0\n",
      "note_on channel=0 note=71 velocity=33 time=0\n",
      "note_off channel=0 note=77 velocity=64 time=0\n",
      "note_on channel=0 note=78 velocity=57 time=0\n",
      "note_off channel=0 note=46 velocity=64 time=1\n",
      "note_on channel=0 note=47 velocity=40 time=0\n",
      "note_off channel=0 note=58 velocity=64 time=0\n",
      "note_off channel=0 note=74 velocity=64 time=0\n",
      "note_on channel=0 note=75 velocity=64 time=0\n",
      "note_off channel=0 note=79 velocity=64 time=0\n",
      "note_off channel=0 note=82 velocity=64 time=0\n",
      "note_on channel=0 note=83 velocity=53 time=0\n",
      "note_on channel=0 note=85 velocity=24 time=0\n",
      "note_off channel=0 note=87 velocity=64 time=0\n",
      "note_on channel=0 note=80 velocity=38 time=2\n",
      "note_on channel=0 note=82 velocity=50 time=1\n",
      "note_on channel=0 note=46 velocity=49 time=1\n",
      "note_off channel=0 note=47 velocity=64 time=0\n",
      "note_off channel=0 note=83 velocity=64 time=0\n",
      "note_on channel=0 note=93 velocity=21 time=0\n",
      "note_on channel=0 note=65 velocity=25 time=1\n",
      "note_off channel=0 note=66 velocity=64 time=0\n",
      "note_off channel=0 note=71 velocity=64 time=0\n",
      "note_on channel=0 note=74 velocity=60 time=0\n",
      "note_off channel=0 note=75 velocity=64 time=0\n",
      "note_off channel=0 note=85 velocity=64 time=0\n",
      "note_on channel=0 note=89 velocity=56 time=0\n",
      "note_off channel=0 note=90 velocity=64 time=1\n",
      "note_on channel=0 note=77 velocity=53 time=1\n",
      "note_off channel=0 note=78 velocity=64 time=0\n",
      "note_on channel=0 note=83 velocity=30 time=2\n",
      "note_on channel=0 note=90 velocity=45 time=0\n",
      "note_on channel=0 note=68 velocity=13 time=1\n",
      "note_off channel=0 note=77 velocity=64 time=0\n",
      "note_on channel=0 note=78 velocity=45 time=0\n",
      "note_on channel=0 note=77 velocity=57 time=2\n",
      "note_off channel=0 note=78 velocity=64 time=0\n",
      "note_on channel=0 note=79 velocity=49 time=0\n",
      "note_off channel=0 note=80 velocity=64 time=0\n",
      "note_on channel=0 note=87 velocity=55 time=0\n",
      "note_on channel=0 note=95 velocity=31 time=0\n",
      "note_off channel=0 note=68 velocity=64 time=1\n",
      "note_on channel=0 note=88 velocity=61 time=0\n",
      "note_on channel=0 note=45 velocity=52 time=1\n",
      "note_off channel=0 note=46 velocity=64 time=0\n",
      "note_on channel=0 note=73 velocity=52 time=0\n",
      "note_off channel=0 note=74 velocity=64 time=0\n",
      "note_off channel=0 note=82 velocity=64 time=0\n",
      "note_on channel=0 note=78 velocity=34 time=1\n",
      "note_off channel=0 note=89 velocity=64 time=0\n",
      "note_off channel=0 note=45 velocity=64 time=1\n",
      "note_on channel=0 note=57 velocity=41 time=0\n",
      "note_on channel=0 note=64 velocity=20 time=0\n",
      "note_off channel=0 note=65 velocity=64 time=0\n",
      "note_on channel=0 note=76 velocity=56 time=0\n",
      "note_off channel=0 note=77 velocity=64 time=0\n",
      "note_on channel=0 note=81 velocity=50 time=0\n",
      "note_on channel=0 note=45 velocity=57 time=1\n",
      "note_off channel=0 note=78 velocity=64 time=0\n",
      "note_off channel=0 note=93 velocity=64 time=0\n",
      "note_off channel=0 note=101 velocity=64 time=0\n",
      "note_off channel=0 note=83 velocity=64 time=1\n",
      "note_on channel=0 note=83 velocity=54 time=1\n",
      "note_off channel=0 note=84 velocity=64 time=0\n",
      "note_off channel=0 note=92 velocity=64 time=0\n",
      "note_on channel=0 note=101 velocity=16 time=0\n",
      "note_on channel=0 note=92 velocity=26 time=1\n",
      "note_on channel=0 note=94 velocity=16 time=2\n",
      "note_off channel=0 note=92 velocity=64 time=3\n",
      "note_on channel=0 note=82 velocity=23 time=1\n",
      "note_on channel=0 note=92 velocity=26 time=1\n",
      "note_off channel=0 note=64 velocity=64 time=1\n",
      "note_off channel=0 note=82 velocity=64 time=1\n",
      "note_off channel=0 note=92 velocity=64 time=1\n",
      "note_off channel=0 note=73 velocity=64 time=1\n",
      "note_on channel=0 note=86 velocity=24 time=0\n",
      "note_on channel=0 note=89 velocity=31 time=0\n",
      "note_on channel=0 note=78 velocity=51 time=1\n",
      "note_off channel=0 note=79 velocity=64 time=0\n",
      "note_on channel=0 note=84 velocity=52 time=0\n",
      "note_on channel=0 note=92 velocity=13 time=0\n",
      "note_off channel=0 note=94 velocity=64 time=0\n",
      "note_off channel=0 note=101 velocity=64 time=0\n",
      "note_on channel=0 note=68 velocity=35 time=1\n",
      "note_on channel=0 note=72 velocity=21 time=0\n",
      "note_off channel=0 note=88 velocity=64 time=0\n",
      "note_on channel=0 note=56 velocity=40 time=1\n",
      "note_off channel=0 note=57 velocity=64 time=0\n",
      "note_on channel=0 note=75 velocity=49 time=0\n",
      "note_off channel=0 note=76 velocity=64 time=0\n",
      "note_on channel=0 note=80 velocity=39 time=0\n",
      "note_on channel=0 note=82 velocity=55 time=0\n",
      "note_off channel=0 note=83 velocity=64 time=0\n",
      "note_on channel=0 note=88 velocity=34 time=0\n",
      "note_on channel=0 note=44 velocity=58 time=1\n",
      "note_off channel=0 note=45 velocity=64 time=0\n",
      "note_on channel=0 note=63 velocity=30 time=0\n",
      "note_off channel=0 note=81 velocity=64 time=0\n",
      "note_on channel=0 note=85 velocity=31 time=0\n",
      "note_off channel=0 note=86 velocity=64 time=0\n",
      "note_off channel=0 note=92 velocity=64 time=0\n",
      "note_off channel=0 note=89 velocity=64 time=1\n",
      "note_off channel=0 note=78 velocity=64 time=1\n",
      "note_on channel=0 note=78 velocity=46 time=1\n",
      "note_off channel=0 note=85 velocity=64 time=0\n",
      "note_off channel=0 note=68 velocity=64 time=1\n",
      "note_on channel=0 note=69 velocity=24 time=0\n",
      "note_off channel=0 note=72 velocity=64 time=0\n",
      "note_on channel=0 note=73 velocity=39 time=0\n",
      "note_on channel=0 note=101 velocity=16 time=0\n",
      "note_off channel=0 note=56 velocity=64 time=1\n",
      "note_on channel=0 note=57 velocity=39 time=0\n",
      "note_off channel=0 note=63 velocity=64 time=0\n",
      "note_off channel=0 note=75 velocity=64 time=0\n",
      "note_on channel=0 note=76 velocity=45 time=0\n",
      "note_on channel=0 note=79 velocity=72 time=0\n",
      "note_on channel=0 note=83 velocity=42 time=0\n",
      "note_on channel=0 note=85 velocity=47 time=0\n",
      "note_off channel=0 note=44 velocity=64 time=1\n",
      "note_on channel=0 note=45 velocity=54 time=0\n",
      "note_on channel=0 note=65 velocity=23 time=0\n",
      "note_off channel=0 note=80 velocity=64 time=0\n",
      "note_off channel=0 note=69 velocity=64 time=1\n",
      "note_off channel=0 note=73 velocity=64 time=0\n",
      "note_off channel=0 note=76 velocity=64 time=0\n",
      "note_on channel=0 note=77 velocity=38 time=0\n",
      "note_off channel=0 note=88 velocity=64 time=0\n",
      "note_on channel=0 note=89 velocity=38 time=0\n",
      "note_on channel=0 note=92 velocity=43 time=0\n",
      "note_off channel=0 note=45 velocity=64 time=1\n",
      "note_off channel=0 note=57 velocity=64 time=0\n",
      "note_on channel=0 note=58 velocity=33 time=0\n",
      "note_on channel=0 note=73 velocity=43 time=0\n",
      "note_off channel=0 note=78 velocity=64 time=0\n",
      "note_on channel=0 note=81 velocity=46 time=0\n",
      "note_off channel=0 note=82 velocity=64 time=0\n",
      "note_on channel=0 note=45 velocity=58 time=1\n",
      "note_on channel=0 note=64 velocity=24 time=0\n",
      "note_off channel=0 note=65 velocity=64 time=0\n",
      "note_on channel=0 note=69 velocity=22 time=0\n",
      "note_on channel=0 note=76 velocity=47 time=0\n",
      "note_off channel=0 note=77 velocity=64 time=0\n",
      "note_off channel=0 note=89 velocity=64 time=0\n",
      "note_off channel=0 note=58 velocity=64 time=1\n",
      "note_off channel=0 note=84 velocity=64 time=0\n",
      "note_on channel=0 note=78 velocity=56 time=1\n",
      "note_off channel=0 note=81 velocity=64 time=0\n",
      "note_on channel=0 note=89 velocity=30 time=0\n",
      "note_off channel=0 note=101 velocity=64 time=0\n",
      "note_on channel=0 note=56 velocity=38 time=1\n",
      "note_on channel=0 note=63 velocity=32 time=0\n",
      "note_off channel=0 note=64 velocity=64 time=0\n",
      "note_on channel=0 note=72 velocity=12 time=0\n",
      "note_off channel=0 note=73 velocity=64 time=0\n",
      "note_on channel=0 note=75 velocity=48 time=0\n",
      "note_off channel=0 note=79 velocity=64 time=0\n",
      "note_on channel=0 note=80 velocity=48 time=0\n",
      "note_on channel=0 note=82 velocity=62 time=0\n",
      "note_off channel=0 note=83 velocity=64 time=0\n",
      "note_on channel=0 note=84 velocity=53 time=0\n",
      "note_off channel=0 note=69 velocity=64 time=1\n",
      "note_off channel=0 note=76 velocity=64 time=0\n",
      "note_on channel=0 note=44 velocity=58 time=1\n",
      "note_off channel=0 note=45 velocity=64 time=0\n",
      "note_off channel=0 note=85 velocity=64 time=0\n",
      "note_on channel=0 note=86 velocity=47 time=0\n",
      "note_on channel=0 note=91 velocity=13 time=0\n",
      "note_off channel=0 note=44 velocity=64 time=2\n",
      "note_on channel=0 note=45 velocity=56 time=0\n",
      "note_off channel=0 note=63 velocity=64 time=0\n",
      "note_on channel=0 note=64 velocity=33 time=0\n",
      "note_off channel=0 note=72 velocity=64 time=0\n",
      "note_off channel=0 note=75 velocity=64 time=0\n",
      "note_on channel=0 note=76 velocity=42 time=0\n",
      "note_on channel=0 note=81 velocity=36 time=0\n",
      "note_on channel=0 note=85 velocity=31 time=0\n",
      "note_off channel=0 note=87 velocity=64 time=0\n",
      "note_off channel=0 note=56 velocity=64 time=1\n",
      "note_on channel=0 note=73 velocity=34 time=0\n",
      "note_on channel=0 note=83 velocity=39 time=0\n",
      "note_off channel=0 note=89 velocity=64 time=0\n",
      "note_off channel=0 note=91 velocity=64 time=0\n",
      "note_on channel=0 note=101 velocity=52 time=0\n",
      "note_off channel=0 note=78 velocity=64 time=1\n",
      "note_on channel=0 note=79 velocity=62 time=0\n",
      "note_off channel=0 note=80 velocity=64 time=0\n",
      "note_off channel=0 note=64 velocity=64 time=1\n",
      "note_on channel=0 note=65 velocity=24 time=0\n",
      "note_off channel=0 note=76 velocity=64 time=0\n",
      "note_on channel=0 note=77 velocity=59 time=0\n",
      "note_off channel=0 note=81 velocity=64 time=0\n",
      "note_off channel=0 note=86 velocity=64 time=0\n",
      "note_on channel=0 note=87 velocity=52 time=0\n",
      "note_on channel=0 note=58 velocity=40 time=1\n",
      "note_off channel=0 note=73 velocity=64 time=0\n",
      "note_on channel=0 note=74 velocity=50 time=0\n",
      "note_off channel=0 note=45 velocity=64 time=1\n",
      "note_on channel=0 note=46 velocity=49 time=0\n",
      "note_off channel=0 note=83 velocity=64 time=0\n",
      "note_on channel=0 note=88 velocity=53 time=0\n",
      "note_off channel=0 note=90 velocity=64 time=0\n",
      "note_off channel=0 note=95 velocity=64 time=0\n",
      "note_on channel=0 note=80 velocity=40 time=1\n",
      "note_off channel=0 note=85 velocity=64 time=0\n",
      "note_on channel=0 note=86 velocity=53 time=0\n",
      "note_off channel=0 note=87 velocity=64 time=0\n",
      "note_on channel=0 note=90 velocity=28 time=0\n",
      "note_off channel=0 note=46 velocity=64 time=1\n",
      "note_on channel=0 note=47 velocity=41 time=0\n",
      "note_off channel=0 note=65 velocity=64 time=0\n",
      "note_on channel=0 note=66 velocity=47 time=0\n",
      "note_on channel=0 note=71 velocity=35 time=0\n",
      "note_off channel=0 note=77 velocity=64 time=0\n",
      "note_on channel=0 note=78 velocity=60 time=0\n",
      "note_off channel=0 note=79 velocity=64 time=0\n",
      "note_on channel=0 note=81 velocity=30 time=0\n",
      "note_off channel=0 note=82 velocity=64 time=0\n",
      "note_on channel=0 note=83 velocity=63 time=0\n",
      "note_on channel=0 note=85 velocity=36 time=0\n",
      "note_off channel=0 note=58 velocity=64 time=1\n",
      "note_off channel=0 note=74 velocity=64 time=0\n",
      "note_on channel=0 note=75 velocity=62 time=0\n",
      "note_off channel=0 note=84 velocity=64 time=0\n",
      "note_off channel=0 note=86 velocity=64 time=0\n",
      "note_on channel=0 note=87 velocity=63 time=0\n",
      "note_on channel=0 note=94 velocity=15 time=0\n",
      "note_off channel=0 note=88 velocity=64 time=1\n",
      "note_on channel=0 note=89 velocity=48 time=0\n",
      "note_off channel=0 note=47 velocity=64 time=1\n",
      "note_on channel=0 note=48 velocity=52 time=0\n",
      "note_off channel=0 note=81 velocity=64 time=0\n",
      "note_off channel=0 note=71 velocity=64 time=1\n",
      "note_on channel=0 note=72 velocity=45 time=0\n",
      "note_on channel=0 note=79 velocity=67 time=0\n",
      "note_off channel=0 note=90 velocity=64 time=0\n",
      "note_off channel=0 note=94 velocity=64 time=0\n",
      "note_off channel=0 note=66 velocity=64 time=1\n",
      "note_on channel=0 note=67 velocity=50 time=0\n",
      "note_on channel=0 note=76 velocity=52 time=0\n",
      "note_off channel=0 note=78 velocity=64 time=0\n",
      "note_off channel=0 note=80 velocity=64 time=0\n",
      "note_on channel=0 note=82 velocity=60 time=0\n",
      "note_off channel=0 note=87 velocity=64 time=0\n",
      "note_on channel=0 note=88 velocity=62 time=0\n",
      "note_off channel=0 note=75 velocity=64 time=1\n",
      "note_off channel=0 note=89 velocity=64 time=0\n",
      "note_on channel=0 note=90 velocity=54 time=0\n",
      "note_on channel=0 note=75 velocity=37 time=1\n",
      "note_on channel=0 note=93 velocity=35 time=0\n",
      "note_off channel=0 note=83 velocity=64 time=1\n",
      "note_off channel=0 note=85 velocity=64 time=0\n",
      "note_on channel=0 note=86 velocity=37 time=0\n",
      "note_off channel=0 note=48 velocity=64 time=2\n",
      "note_on channel=0 note=49 velocity=61 time=0\n",
      "note_off channel=0 note=72 velocity=64 time=0\n",
      "note_off channel=0 note=75 velocity=64 time=0\n",
      "note_on channel=0 note=87 velocity=52 time=0\n",
      "note_off channel=0 note=67 velocity=64 time=1\n",
      "note_on channel=0 note=68 velocity=45 time=0\n",
      "note_off channel=0 note=79 velocity=64 time=0\n",
      "note_on channel=0 note=80 velocity=59 time=0\n",
      "note_off channel=0 note=86 velocity=64 time=0\n",
      "note_on channel=0 note=75 velocity=25 time=1\n",
      "note_off channel=0 note=76 velocity=64 time=0\n",
      "note_on channel=0 note=77 velocity=49 time=0\n",
      "note_off channel=0 note=88 velocity=64 time=0\n",
      "note_on channel=0 note=89 velocity=67 time=0\n",
      "note_on channel=0 note=95 velocity=21 time=0\n",
      "note_off channel=0 note=82 velocity=64 time=2\n",
      "note_on channel=0 note=83 velocity=66 time=0\n",
      "note_off channel=0 note=93 velocity=64 time=2\n",
      "note_on channel=0 note=93 velocity=41 time=1\n",
      "note_off channel=0 note=75 velocity=64 time=1\n",
      "note_on channel=0 note=76 velocity=46 time=0\n",
      "note_off channel=0 note=77 velocity=64 time=0\n",
      "note_on channel=0 note=72 velocity=35 time=1\n",
      "note_on channel=0 note=82 velocity=61 time=0\n",
      "note_off channel=0 note=83 velocity=64 time=0\n",
      "note_on channel=0 note=88 velocity=56 time=0\n",
      "note_off channel=0 note=89 velocity=64 time=0\n",
      "note_on channel=0 note=67 velocity=49 time=1\n",
      "note_off channel=0 note=68 velocity=64 time=0\n",
      "note_on channel=0 note=86 velocity=32 time=0\n",
      "note_on channel=0 note=91 velocity=35 time=0\n",
      "note_on channel=0 note=60 velocity=44 time=1\n",
      "note_off channel=0 note=72 velocity=64 time=0\n",
      "note_on channel=0 note=79 velocity=67 time=0\n",
      "note_off channel=0 note=80 velocity=64 time=0\n",
      "note_on channel=0 note=48 velocity=54 time=1\n",
      "note_off channel=0 note=49 velocity=64 time=0\n",
      "note_on channel=0 note=72 velocity=44 time=0\n",
      "note_on channel=0 note=83 velocity=67 time=1\n",
      "note_off channel=0 note=76 velocity=64 time=2\n",
      "note_off channel=0 note=95 velocity=64 time=0\n",
      "note_on channel=0 note=47 velocity=36 time=1\n",
      "note_off channel=0 note=48 velocity=64 time=0\n",
      "note_on channel=0 note=81 velocity=46 time=0\n",
      "note_off channel=0 note=82 velocity=64 time=0\n",
      "note_off channel=0 note=87 velocity=64 time=0\n",
      "note_on channel=0 note=89 velocity=65 time=0\n",
      "note_on channel=0 note=59 velocity=39 time=1\n",
      "note_off channel=0 note=60 velocity=64 time=0\n",
      "note_on channel=0 note=75 velocity=67 time=0\n",
      "note_on channel=0 note=78 velocity=74 time=0\n",
      "note_off channel=0 note=79 velocity=64 time=0\n",
      "note_on channel=0 note=66 velocity=46 time=1\n",
      "note_off channel=0 note=67 velocity=64 time=0\n",
      "note_on channel=0 note=71 velocity=43 time=0\n",
      "note_off channel=0 note=72 velocity=64 time=0\n",
      "note_on channel=0 note=82 velocity=34 time=0\n",
      "note_on channel=0 note=85 velocity=42 time=0\n",
      "note_off channel=0 note=86 velocity=64 time=0\n",
      "note_off channel=0 note=82 velocity=64 time=2\n",
      "note_off channel=0 note=88 velocity=64 time=0\n",
      "note_off channel=0 note=91 velocity=64 time=0\n",
      "note_on channel=0 note=91 velocity=32 time=1\n",
      "note_on channel=0 note=80 velocity=35 time=1\n",
      "note_on channel=0 note=88 velocity=66 time=0\n",
      "note_off channel=0 note=89 velocity=64 time=0\n",
      "note_off channel=0 note=81 velocity=64 time=1\n",
      "note_on channel=0 note=46 velocity=34 time=1\n",
      "note_off channel=0 note=47 velocity=64 time=0\n",
      "note_on channel=0 note=84 velocity=13 time=1\n",
      "note_off channel=0 note=46 velocity=64 time=2\n",
      "note_on channel=0 note=47 velocity=46 time=0\n",
      "note_off channel=0 note=84 velocity=64 time=1\n",
      "note_off channel=0 note=75 velocity=64 time=1\n",
      "note_on channel=0 note=46 velocity=40 time=1\n",
      "note_off channel=0 note=47 velocity=64 time=0\n",
      "note_on channel=0 note=75 velocity=59 time=0\n",
      "note_on channel=0 note=84 velocity=25 time=1\n",
      "note_off channel=0 note=80 velocity=64 time=1\n",
      "note_off channel=0 note=46 velocity=64 time=1\n",
      "note_on channel=0 note=47 velocity=42 time=0\n",
      "note_on channel=0 note=74 velocity=54 time=0\n",
      "note_off channel=0 note=75 velocity=64 time=0\n",
      "note_on channel=0 note=80 velocity=33 time=0\n",
      "note_off channel=0 note=85 velocity=64 time=0\n",
      "note_on channel=0 note=85 velocity=48 time=1\n",
      "note_off channel=0 note=47 velocity=64 time=1\n",
      "note_off channel=0 note=74 velocity=64 time=0\n",
      "note_on channel=0 note=75 velocity=70 time=0\n",
      "note_on channel=0 note=47 velocity=36 time=1\n",
      "note_off channel=0 note=59 velocity=64 time=0\n",
      "note_on channel=0 note=59 velocity=39 time=1\n",
      "note_off channel=0 note=84 velocity=64 time=0\n",
      "note_off channel=0 note=80 velocity=64 time=1\n",
      "note_on channel=0 note=80 velocity=20 time=1\n",
      "note_on channel=0 note=96 velocity=12 time=1\n",
      "note_off channel=0 note=47 velocity=64 time=4\n",
      "note_off channel=0 note=80 velocity=64 time=1\n",
      "note_on channel=0 note=81 velocity=31 time=0\n",
      "note_off channel=0 note=88 velocity=64 time=0\n",
      "note_on channel=0 note=89 velocity=57 time=0\n",
      "note_on channel=0 note=94 velocity=16 time=1\n",
      "note_on channel=0 note=88 velocity=57 time=1\n",
      "note_off channel=0 note=89 velocity=64 time=0\n",
      "note_off channel=0 note=101 velocity=64 time=1\n",
      "note_off channel=0 note=94 velocity=64 time=1\n",
      "note_on channel=0 note=47 velocity=34 time=1\n",
      "note_off channel=0 note=96 velocity=64 time=0\n",
      "note_on channel=0 note=94 velocity=16 time=1\n",
      "note_off channel=0 note=47 velocity=64 time=1\n",
      "note_on channel=0 note=47 velocity=43 time=1\n",
      "note_on channel=0 note=101 velocity=17 time=0\n",
      "note_off channel=0 note=81 velocity=64 time=1\n",
      "note_off channel=0 note=94 velocity=64 time=1\n",
      "note_off channel=0 note=93 velocity=64 time=1\n",
      "note_off channel=0 note=101 velocity=64 time=0\n",
      "note_on channel=0 note=28 velocity=30 time=1\n",
      "note_on channel=0 note=93 velocity=32 time=0\n",
      "note_on channel=0 note=96 velocity=19 time=0\n",
      "note_off channel=0 note=28 velocity=64 time=2\n",
      "note_off channel=0 note=47 velocity=64 time=0\n",
      "note_off channel=0 note=59 velocity=64 time=0\n",
      "note_on channel=0 note=35 velocity=47 time=1\n",
      "note_off channel=0 note=71 velocity=64 time=0\n",
      "note_on channel=0 note=80 velocity=49 time=0\n",
      "note_off channel=0 note=83 velocity=64 time=1\n",
      "note_on channel=0 note=94 velocity=32 time=0\n",
      "note_on channel=0 note=101 velocity=24 time=0\n",
      "note_off channel=0 note=35 velocity=64 time=1\n",
      "note_on channel=0 note=70 velocity=19 time=0\n",
      "note_on channel=0 note=74 velocity=52 time=0\n",
      "note_off channel=0 note=75 velocity=64 time=0\n",
      "note_on channel=0 note=83 velocity=67 time=0\n",
      "note_off channel=0 note=91 velocity=64 time=0\n",
      "note_on channel=0 note=34 velocity=65 time=1\n",
      "note_on channel=0 note=47 velocity=75 time=0\n",
      "note_on channel=0 note=62 velocity=37 time=0\n",
      "note_off channel=0 note=66 velocity=64 time=0\n",
      "note_on channel=0 note=77 velocity=59 time=0\n",
      "note_off channel=0 note=78 velocity=64 time=0\n",
      "note_on channel=0 note=91 velocity=41 time=0\n",
      "note_off channel=0 note=34 velocity=64 time=1\n",
      "note_on channel=0 note=45 velocity=74 time=0\n",
      "note_off channel=0 note=47 velocity=64 time=0\n",
      "note_off channel=0 note=62 velocity=64 time=1\n",
      "note_on channel=0 note=66 velocity=45 time=0\n",
      "note_off channel=0 note=70 velocity=64 time=0\n",
      "note_off channel=0 note=90 velocity=64 time=0\n",
      "note_off channel=0 note=93 velocity=64 time=0\n",
      "note_off channel=0 note=96 velocity=64 time=0\n",
      "note_on channel=0 note=21 velocity=44 time=1\n",
      "note_off channel=0 note=45 velocity=64 time=0\n",
      "note_on channel=0 note=55 velocity=39 time=0\n",
      "note_off channel=0 note=77 velocity=64 time=0\n",
      "note_on channel=0 note=78 velocity=60 time=0\n",
      "note_off channel=0 note=91 velocity=64 time=0\n",
      "note_on channel=0 note=93 velocity=27 time=0\n",
      "note_off channel=0 note=94 velocity=64 time=0\n",
      "note_off channel=0 note=101 velocity=64 time=0\n",
      "note_on channel=0 note=71 velocity=40 time=1\n",
      "note_off channel=0 note=74 velocity=64 time=0\n",
      "note_on channel=0 note=75 velocity=63 time=0\n",
      "note_off channel=0 note=85 velocity=64 time=0\n",
      "note_on channel=0 note=91 velocity=32 time=0\n",
      "note_on channel=0 note=94 velocity=11 time=0\n",
      "note_off channel=0 note=21 velocity=64 time=1\n",
      "note_on channel=0 note=30 velocity=50 time=0\n",
      "note_off channel=0 note=55 velocity=64 time=0\n",
      "note_on channel=0 note=81 velocity=33 time=0\n",
      "note_on channel=0 note=85 velocity=33 time=0\n",
      "note_off channel=0 note=88 velocity=64 time=0\n",
      "note_on channel=0 note=89 velocity=45 time=0\n",
      "note_on channel=0 note=60 velocity=39 time=1\n",
      "note_on channel=0 note=88 velocity=29 time=0\n",
      "note_off channel=0 note=91 velocity=64 time=0\n",
      "note_off channel=0 note=30 velocity=64 time=1\n",
      "note_off channel=0 note=66 velocity=64 time=0\n",
      "note_on channel=0 note=67 velocity=48 time=0\n",
      "note_off channel=0 note=71 velocity=64 time=0\n",
      "note_on channel=0 note=72 velocity=44 time=0\n",
      "note_on channel=0 note=79 velocity=56 time=0\n",
      "note_off channel=0 note=80 velocity=64 time=0\n",
      "note_off channel=0 note=81 velocity=64 time=0\n",
      "note_on channel=0 note=49 velocity=47 time=1\n",
      "note_on channel=0 note=76 velocity=41 time=0\n",
      "note_off channel=0 note=88 velocity=64 time=0\n",
      "note_off channel=0 note=49 velocity=64 time=2\n",
      "note_off channel=0 note=60 velocity=64 time=0\n",
      "note_on channel=0 note=61 velocity=44 time=0\n",
      "note_off channel=0 note=72 velocity=64 time=0\n",
      "note_off channel=0 note=75 velocity=64 time=0\n",
      "note_off channel=0 note=78 velocity=64 time=0\n",
      "note_off channel=0 note=94 velocity=64 time=0\n",
      "note_on channel=0 note=49 velocity=56 time=1\n",
      "note_off channel=0 note=67 velocity=64 time=0\n",
      "note_on channel=0 note=68 velocity=42 time=0\n",
      "note_on channel=0 note=82 velocity=55 time=0\n",
      "note_off channel=0 note=83 velocity=64 time=0\n",
      "note_off channel=0 note=89 velocity=64 time=0\n",
      "note_on channel=0 note=75 velocity=30 time=1\n",
      "note_off channel=0 note=76 velocity=64 time=0\n",
      "note_on channel=0 note=77 velocity=42 time=0\n",
      "note_on channel=0 note=89 velocity=42 time=0\n",
      "note_off channel=0 note=79 velocity=64 time=1\n",
      "note_on channel=0 note=72 velocity=48 time=1\n",
      "note_off channel=0 note=75 velocity=64 time=0\n",
      "note_on channel=0 note=76 velocity=45 time=0\n",
      "note_off channel=0 note=77 velocity=64 time=0\n",
      "note_on channel=0 note=79 velocity=52 time=0\n",
      "note_off channel=0 note=89 velocity=64 time=0\n",
      "note_on channel=0 note=48 velocity=54 time=1\n",
      "note_off channel=0 note=49 velocity=64 time=0\n",
      "note_off channel=0 note=61 velocity=64 time=0\n",
      "note_on channel=0 note=67 velocity=45 time=0\n",
      "note_off channel=0 note=68 velocity=64 time=0\n",
      "note_off channel=0 note=85 velocity=64 time=1\n",
      "note_on channel=0 note=89 velocity=47 time=0\n",
      "note_on channel=0 note=81 velocity=33 time=1\n",
      "note_off channel=0 note=82 velocity=64 time=0\n",
      "note_on channel=0 note=83 velocity=56 time=0\n",
      "note_on channel=0 note=85 velocity=38 time=0\n",
      "note_on channel=0 note=7 velocity=32 time=1\n",
      "note_on channel=0 note=47 velocity=28 time=1\n",
      "note_off channel=0 note=48 velocity=64 time=0\n",
      "note_on channel=0 note=59 velocity=29 time=0\n",
      "note_on channel=0 note=87 velocity=49 time=0\n",
      "note_off channel=0 note=7 velocity=64 time=1\n",
      "note_off channel=0 note=67 velocity=64 time=0\n",
      "note_off channel=0 note=72 velocity=64 time=0\n",
      "note_on channel=0 note=75 velocity=63 time=0\n",
      "note_off channel=0 note=76 velocity=64 time=0\n",
      "note_on channel=0 note=77 velocity=17 time=1\n",
      "note_off channel=0 note=59 velocity=64 time=1\n",
      "note_on channel=0 note=66 velocity=45 time=0\n",
      "note_on channel=0 note=71 velocity=44 time=0\n",
      "note_on channel=0 note=59 velocity=45 time=1\n",
      "note_off channel=0 note=77 velocity=64 time=1\n",
      "note_on channel=0 note=78 velocity=63 time=0\n",
      "note_off channel=0 note=47 velocity=64 time=1\n",
      "note_off channel=0 note=79 velocity=64 time=0\n",
      "note_off channel=0 note=81 velocity=64 time=0\n",
      "note_on channel=0 note=91 velocity=31 time=0\n",
      "note_on channel=0 note=48 velocity=37 time=1\n",
      "note_on channel=0 note=81 velocity=22 time=0\n",
      "note_off channel=0 note=89 velocity=64 time=1\n",
      "note_off channel=0 note=48 velocity=64 time=1\n",
      "note_on channel=0 note=88 velocity=49 time=1\n",
      "note_on channel=0 note=50 velocity=48 time=3\n",
      "note_on channel=0 note=94 velocity=13 time=0\n",
      "note_off channel=0 note=50 velocity=64 time=2\n",
      "note_off channel=0 note=59 velocity=64 time=0\n",
      "note_on channel=0 note=80 velocity=24 time=0\n",
      "note_off channel=0 note=81 velocity=64 time=0\n",
      "note_on channel=0 note=47 velocity=38 time=1\n",
      "note_off channel=0 note=80 velocity=64 time=2\n",
      "note_on channel=0 note=81 velocity=27 time=0\n",
      "note_off channel=0 note=88 velocity=64 time=0\n",
      "note_on channel=0 note=88 velocity=48 time=1\n",
      "note_on channel=0 note=80 velocity=43 time=2\n",
      "note_off channel=0 note=81 velocity=64 time=0\n",
      "note_off channel=0 note=94 velocity=64 time=1\n",
      "note_off channel=0 note=47 velocity=64 time=1\n",
      "note_off channel=0 note=85 velocity=64 time=1\n",
      "note_off channel=0 note=93 velocity=64 time=0\n",
      "note_off channel=0 note=71 velocity=64 time=2\n",
      "note_off channel=0 note=87 velocity=64 time=0\n",
      "note_off channel=0 note=66 velocity=64 time=1\n",
      "note_off channel=0 note=88 velocity=64 time=0\n",
      "note_on channel=0 note=93 velocity=20 time=1\n",
      "note_off channel=0 note=78 velocity=64 time=2\n",
      "note_off channel=0 note=75 velocity=64 time=1\n",
      "note_off channel=0 note=92 velocity=64 time=1\n",
      "note_on channel=0 note=87 velocity=22 time=3\n",
      "note_off channel=0 note=91 velocity=64 time=2\n",
      "note_on channel=0 note=85 velocity=10 time=2\n",
      "note_on channel=0 note=91 velocity=37 time=3\n",
      "note_on channel=0 note=75 velocity=17 time=4\n",
      "note_off channel=0 note=85 velocity=64 time=0\n",
      "note_on channel=0 note=68 velocity=21 time=1\n",
      "note_off channel=0 note=93 velocity=64 time=1\n",
      "note_off channel=0 note=83 velocity=64 time=4\n",
      "note_on channel=0 note=83 velocity=31 time=2\n",
      "note_on channel=0 note=84 velocity=13 time=0\n",
      "note_off channel=0 note=87 velocity=64 time=3\n",
      "note_on channel=0 note=85 velocity=31 time=2\n",
      "note_on channel=0 note=48 velocity=50 time=3\n",
      "note_off channel=0 note=84 velocity=64 time=0\n",
      "note_off channel=0 note=75 velocity=64 time=2\n",
      "note_on channel=0 note=82 velocity=54 time=0\n",
      "note_off channel=0 note=48 velocity=64 time=1\n",
      "note_on channel=0 note=84 velocity=48 time=0\n",
      "note_on channel=0 note=45 velocity=66 time=1\n",
      "note_off channel=0 note=83 velocity=64 time=0\n",
      "note_on channel=0 note=86 velocity=20 time=0\n",
      "note_on channel=0 note=56 velocity=38 time=2\n",
      "note_on channel=0 note=63 velocity=31 time=0\n",
      "note_on channel=0 note=78 velocity=36 time=0\n",
      "note_on channel=0 note=72 velocity=25 time=1\n",
      "note_off channel=0 note=85 velocity=64 time=0\n",
      "note_on channel=0 note=44 velocity=67 time=1\n",
      "note_off channel=0 note=45 velocity=64 time=0\n",
      "note_off channel=0 note=86 velocity=64 time=0\n",
      "note_on channel=0 note=100 velocity=29 time=0\n",
      "note_on channel=0 note=86 velocity=58 time=1\n",
      "note_on channel=0 note=101 velocity=45 time=0\n",
      "note_off channel=0 note=68 velocity=64 time=1\n",
      "note_on channel=0 note=69 velocity=26 time=0\n",
      "note_on channel=0 note=76 velocity=49 time=0\n",
      "note_off channel=0 note=56 velocity=64 time=1\n",
      "note_on channel=0 note=57 velocity=44 time=0\n",
      "note_off channel=0 note=63 velocity=64 time=0\n",
      "note_off channel=0 note=72 velocity=64 time=0\n",
      "note_on channel=0 note=73 velocity=43 time=0\n",
      "note_off channel=0 note=80 velocity=64 time=0\n",
      "note_on channel=0 note=81 velocity=33 time=0\n",
      "note_off channel=0 note=82 velocity=64 time=0\n",
      "note_on channel=0 note=83 velocity=59 time=0\n",
      "note_on channel=0 note=102 velocity=31 time=0\n",
      "note_off channel=0 note=44 velocity=64 time=1\n",
      "note_on channel=0 note=45 velocity=66 time=0\n",
      "note_on channel=0 note=79 velocity=66 time=0\n",
      "note_off channel=0 note=84 velocity=64 time=0\n",
      "note_on channel=0 note=85 velocity=43 time=0\n",
      "note_on channel=0 note=65 velocity=32 time=1\n",
      "note_off channel=0 note=78 velocity=64 time=0\n",
      "note_off channel=0 note=86 velocity=64 time=0\n",
      "note_on channel=0 note=87 velocity=64 time=0\n",
      "note_off channel=0 note=69 velocity=64 time=1\n",
      "note_on channel=0 note=84 velocity=43 time=0\n",
      "note_off channel=0 note=85 velocity=64 time=0\n",
      "note_on channel=0 note=86 velocity=39 time=0\n",
      "note_on channel=0 note=93 velocity=35 time=0\n",
      "note_off channel=0 note=45 velocity=64 time=1\n",
      "note_on channel=0 note=47 velocity=62 time=0\n",
      "note_off channel=0 note=57 velocity=64 time=0\n",
      "note_off channel=0 note=73 velocity=64 time=0\n",
      "note_on channel=0 note=74 velocity=45 time=0\n",
      "note_off channel=0 note=79 velocity=64 time=0\n",
      "note_on channel=0 note=80 velocity=58 time=0\n",
      "note_off channel=0 note=81 velocity=64 time=0\n",
      "note_off channel=0 note=65 velocity=64 time=1\n",
      "note_on channel=0 note=66 velocity=46 time=0\n",
      "note_off channel=0 note=76 velocity=64 time=0\n",
      "note_on channel=0 note=78 velocity=49 time=0\n",
      "note_on channel=0 note=85 velocity=33 time=0\n",
      "note_off channel=0 note=74 velocity=64 time=1\n",
      "note_on channel=0 note=75 velocity=44 time=0\n",
      "note_on channel=0 note=81 velocity=43 time=0\n",
      "note_off channel=0 note=84 velocity=64 time=0\n",
      "note_off channel=0 note=86 velocity=64 time=0\n",
      "note_on channel=0 note=89 velocity=50 time=0\n",
      "note_off channel=0 note=78 velocity=64 time=1\n",
      "note_on channel=0 note=79 velocity=63 time=0\n",
      "note_off channel=0 note=80 velocity=64 time=0\n",
      "note_on channel=0 note=88 velocity=61 time=0\n",
      "note_off channel=0 note=47 velocity=64 time=1\n",
      "note_on channel=0 note=60 velocity=44 time=0\n",
      "note_off channel=0 note=66 velocity=64 time=0\n",
      "note_on channel=0 note=67 velocity=49 time=0\n",
      "note_off channel=0 note=75 velocity=64 time=0\n",
      "note_on channel=0 note=76 velocity=54 time=0\n",
      "note_on channel=0 note=84 velocity=38 time=0\n",
      "note_on channel=0 note=86 velocity=29 time=0\n",
      "note_off channel=0 note=87 velocity=64 time=0\n",
      "note_off channel=0 note=81 velocity=64 time=1\n",
      "note_on channel=0 note=82 velocity=59 time=0\n",
      "note_off channel=0 note=83 velocity=64 time=0\n",
      "note_off channel=0 note=85 velocity=64 time=0\n",
      "note_off channel=0 note=89 velocity=64 time=0\n",
      "note_on channel=0 note=90 velocity=67 time=0\n",
      "note_on channel=0 note=48 velocity=60 time=1\n",
      "note_off channel=0 note=86 velocity=64 time=0\n",
      "note_on channel=0 note=87 velocity=54 time=0\n",
      "note_on channel=0 note=14 velocity=20 time=1\n",
      "note_off channel=0 note=60 velocity=64 time=0\n",
      "note_on channel=0 note=61 velocity=54 time=0\n",
      "note_off channel=0 note=67 velocity=64 time=0\n",
      "note_on channel=0 note=68 velocity=47 time=0\n",
      "note_off channel=0 note=79 velocity=64 time=0\n",
      "note_on channel=0 note=80 velocity=58 time=0\n",
      "note_off channel=0 note=84 velocity=64 time=0\n",
      "note_off channel=0 note=48 velocity=64 time=1\n",
      "note_on channel=0 note=49 velocity=66 time=0\n",
      "note_on channel=0 note=75 velocity=28 time=0\n",
      "note_off channel=0 note=76 velocity=64 time=0\n",
      "note_on channel=0 note=77 velocity=32 time=0\n",
      "note_on channel=0 note=89 velocity=61 time=0\n",
      "note_off channel=0 note=91 velocity=64 time=0\n",
      "note_off channel=0 note=88 velocity=64 time=1\n",
      "note_off channel=0 note=14 velocity=64 time=1\n",
      "note_on channel=0 note=91 velocity=45 time=1\n",
      "note_on channel=0 note=95 velocity=17 time=0\n",
      "note_on channel=0 note=84 velocity=44 time=1\n",
      "note_on channel=0 note=88 velocity=55 time=0\n",
      "note_off channel=0 note=89 velocity=64 time=0\n",
      "note_on channel=0 note=67 velocity=51 time=1\n",
      "note_off channel=0 note=68 velocity=64 time=0\n",
      "note_on channel=0 note=72 velocity=50 time=0\n",
      "note_on channel=0 note=76 velocity=65 time=0\n",
      "note_off channel=0 note=77 velocity=64 time=0\n",
      "note_on channel=0 note=79 velocity=59 time=0\n",
      "note_off channel=0 note=80 velocity=64 time=0\n",
      "note_on channel=0 note=48 velocity=64 time=1\n",
      "note_off channel=0 note=49 velocity=64 time=0\n",
      "note_off channel=0 note=61 velocity=64 time=0\n",
      "note_off channel=0 note=75 velocity=64 time=0\n",
      "note_on channel=0 note=92 velocity=31 time=1\n",
      "note_off channel=0 note=93 velocity=64 time=0\n",
      "note_on channel=0 note=81 velocity=33 time=1\n",
      "note_off channel=0 note=82 velocity=64 time=0\n",
      "note_off channel=0 note=87 velocity=64 time=0\n",
      "note_on channel=0 note=89 velocity=63 time=0\n",
      "note_off channel=0 note=90 velocity=64 time=0\n",
      "note_on channel=0 note=86 velocity=18 time=1\n",
      "note_on channel=0 note=90 velocity=65 time=0\n",
      "note_off channel=0 note=92 velocity=64 time=0\n",
      "note_off channel=0 note=95 velocity=64 time=0\n",
      "note_off channel=0 note=102 velocity=64 time=0\n",
      "note_off channel=0 note=48 velocity=64 time=1\n",
      "note_on channel=0 note=59 velocity=38 time=0\n",
      "note_on channel=0 note=66 velocity=45 time=0\n",
      "note_off channel=0 note=67 velocity=64 time=0\n",
      "note_on channel=0 note=71 velocity=44 time=0\n",
      "note_off channel=0 note=72 velocity=64 time=0\n",
      "note_on channel=0 note=75 velocity=59 time=0\n",
      "note_off channel=0 note=76 velocity=64 time=0\n",
      "note_on channel=0 note=77 velocity=32 time=0\n",
      "note_on channel=0 note=78 velocity=62 time=0\n",
      "note_off channel=0 note=79 velocity=64 time=0\n",
      "note_on channel=0 note=83 velocity=53 time=0\n",
      "note_on channel=0 note=85 velocity=26 time=1\n",
      "note_off channel=0 note=88 velocity=64 time=0\n",
      "note_on channel=0 note=47 velocity=37 time=1\n",
      "note_off channel=0 note=77 velocity=64 time=0\n",
      "note_off channel=0 note=86 velocity=64 time=0\n",
      "note_on channel=0 note=88 velocity=60 time=0\n",
      "note_off channel=0 note=89 velocity=64 time=0\n",
      "note_on channel=0 note=92 velocity=36 time=0\n",
      "note_on channel=0 note=80 velocity=45 time=1\n",
      "note_off channel=0 note=81 velocity=64 time=1\n",
      "note_on channel=0 note=86 velocity=32 time=0\n",
      "note_off channel=0 note=47 velocity=64 time=1\n",
      "note_off channel=0 note=66 velocity=64 time=0\n",
      "note_on channel=0 note=74 velocity=45 time=0\n",
      "note_off channel=0 note=75 velocity=64 time=0\n",
      "note_off channel=0 note=78 velocity=64 time=0\n",
      "note_off channel=0 note=85 velocity=64 time=0\n",
      "note_on channel=0 note=87 velocity=46 time=0\n",
      "note_on channel=0 note=66 velocity=39 time=1\n",
      "note_on channel=0 note=78 velocity=55 time=0\n",
      "note_off channel=0 note=92 velocity=64 time=0\n",
      "note_off channel=0 note=71 velocity=64 time=1\n",
      "note_on channel=0 note=72 velocity=45 time=0\n",
      "note_off channel=0 note=74 velocity=64 time=0\n",
      "note_on channel=0 note=82 velocity=49 time=0\n",
      "note_on channel=0 note=89 velocity=57 time=0\n",
      "note_on channel=0 note=49 velocity=62 time=1\n",
      "note_off channel=0 note=59 velocity=64 time=0\n",
      "note_on channel=0 note=60 velocity=41 time=0\n",
      "note_off channel=0 note=66 velocity=64 time=0\n",
      "note_on channel=0 note=67 velocity=46 time=0\n",
      "note_on channel=0 note=76 velocity=55 time=0\n",
      "note_on channel=0 note=79 velocity=59 time=0\n",
      "note_off channel=0 note=80 velocity=64 time=0\n",
      "note_off channel=0 note=84 velocity=64 time=0\n",
      "note_on channel=0 note=85 velocity=30 time=0\n",
      "note_off channel=0 note=90 velocity=64 time=0\n",
      "note_off channel=0 note=89 velocity=64 time=1\n",
      "note_off channel=0 note=60 velocity=64 time=1\n",
      "note_off channel=0 note=67 velocity=64 time=0\n",
      "note_on channel=0 note=68 velocity=43 time=0\n",
      "note_off channel=0 note=72 velocity=64 time=0\n",
      "note_on channel=0 note=75 velocity=32 time=0\n",
      "note_off channel=0 note=76 velocity=64 time=0\n",
      "note_on channel=0 note=77 velocity=44 time=0\n",
      "note_off channel=0 note=83 velocity=64 time=0\n",
      "note_on channel=0 note=84 velocity=41 time=0\n",
      "note_off channel=0 note=86 velocity=64 time=0\n",
      "note_off channel=0 note=88 velocity=64 time=0\n",
      "note_on channel=0 note=89 velocity=57 time=0\n",
      "note_off channel=0 note=78 velocity=64 time=1\n",
      "note_on channel=0 note=86 velocity=32 time=0\n",
      "note_off channel=0 note=91 velocity=64 time=0\n",
      "note_on channel=0 note=76 velocity=59 time=1\n",
      "note_off channel=0 note=85 velocity=64 time=0\n",
      "note_on channel=0 note=95 velocity=24 time=0\n",
      "note_on channel=0 note=60 velocity=46 time=1\n",
      "note_on channel=0 note=67 velocity=49 time=0\n",
      "note_off channel=0 note=68 velocity=64 time=0\n",
      "note_on channel=0 note=72 velocity=46 time=0\n",
      "note_off channel=0 note=75 velocity=64 time=0\n",
      "note_off channel=0 note=77 velocity=64 time=0\n",
      "note_on channel=0 note=80 velocity=47 time=0\n",
      "note_off channel=0 note=49 velocity=64 time=1\n",
      "note_on channel=0 note=78 velocity=64 time=0\n",
      "note_off channel=0 note=79 velocity=64 time=0\n",
      "note_on channel=0 note=59 velocity=35 time=1\n",
      "note_off channel=0 note=60 velocity=64 time=0\n",
      "note_on channel=0 note=66 velocity=45 time=0\n",
      "note_off channel=0 note=67 velocity=64 time=0\n",
      "note_on channel=0 note=71 velocity=45 time=0\n",
      "note_off channel=0 note=72 velocity=64 time=0\n",
      "note_on channel=0 note=75 velocity=62 time=0\n",
      "note_off channel=0 note=76 velocity=64 time=0\n",
      "note_on channel=0 note=83 velocity=49 time=0\n",
      "note_on channel=0 note=85 velocity=31 time=0\n",
      "note_off channel=0 note=86 velocity=64 time=1\n",
      "note_on channel=0 note=88 velocity=63 time=0\n",
      "note_off channel=0 note=89 velocity=64 time=0\n",
      "note_on channel=0 note=47 velocity=47 time=1\n",
      "note_off channel=0 note=82 velocity=64 time=0\n",
      "note_on channel=0 note=86 velocity=29 time=0\n",
      "note_off channel=0 note=86 velocity=64 time=2\n",
      "note_on channel=0 note=86 velocity=29 time=1\n",
      "note_on channel=0 note=58 velocity=39 time=3\n",
      "note_off channel=0 note=59 velocity=64 time=0\n",
      "note_on channel=0 note=46 velocity=52 time=1\n",
      "note_off channel=0 note=47 velocity=64 time=0\n",
      "note_on channel=0 note=65 velocity=21 time=0\n",
      "note_off channel=0 note=66 velocity=64 time=0\n",
      "note_off channel=0 note=71 velocity=64 time=0\n",
      "note_on channel=0 note=74 velocity=54 time=0\n",
      "note_off channel=0 note=75 velocity=64 time=0\n",
      "note_on channel=0 note=77 velocity=67 time=0\n",
      "note_on channel=0 note=82 velocity=59 time=0\n",
      "note_off channel=0 note=83 velocity=64 time=0\n",
      "note_off channel=0 note=78 velocity=64 time=1\n",
      "note_off channel=0 note=85 velocity=64 time=0\n",
      "note_off channel=0 note=87 velocity=64 time=0\n",
      "note_on channel=0 note=93 velocity=21 time=0\n",
      "note_on channel=0 note=68 velocity=10 time=1\n",
      "note_off channel=0 note=95 velocity=64 time=0\n",
      "note_off channel=0 note=86 velocity=64 time=1\n",
      "note_off channel=0 note=100 velocity=64 time=0\n",
      "note_off channel=0 note=58 velocity=64 time=3\n",
      "note_on channel=0 note=59 velocity=38 time=0\n",
      "note_off channel=0 note=65 velocity=64 time=0\n",
      "note_on channel=0 note=66 velocity=41 time=0\n",
      "note_off channel=0 note=68 velocity=64 time=0\n",
      "note_on channel=0 note=71 velocity=42 time=0\n",
      "note_off channel=0 note=77 velocity=64 time=0\n",
      "note_on channel=0 note=78 velocity=72 time=0\n",
      "note_off channel=0 note=82 velocity=64 time=0\n",
      "note_on channel=0 note=83 velocity=56 time=0\n",
      "note_off channel=0 note=46 velocity=64 time=1\n",
      "note_on channel=0 note=47 velocity=46 time=0\n",
      "note_off channel=0 note=74 velocity=64 time=0\n",
      "note_on channel=0 note=75 velocity=63 time=0\n",
      "note_on channel=0 note=85 velocity=27 time=0\n",
      "note_on channel=0 note=94 velocity=31 time=0\n",
      "note_on channel=0 note=82 velocity=33 time=2\n",
      "note_off channel=0 note=84 velocity=64 time=1\n",
      "note_on channel=0 note=89 velocity=55 time=0\n",
      "note_off channel=0 note=82 velocity=64 time=1\n",
      "note_on channel=0 note=84 velocity=37 time=0\n",
      "note_off channel=0 note=85 velocity=64 time=0\n",
      "note_on channel=0 note=85 velocity=41 time=1\n",
      "note_off channel=0 note=89 velocity=64 time=0\n",
      "note_off channel=0 note=47 velocity=64 time=6\n",
      "note_off channel=0 note=88 velocity=64 time=0\n",
      "note_on channel=0 note=89 velocity=61 time=0\n",
      "note_on channel=0 note=47 velocity=30 time=1\n",
      "note_off channel=0 note=84 velocity=64 time=0\n",
      "note_on channel=0 note=84 velocity=34 time=1\n",
      "note_on channel=0 note=88 velocity=64 time=0\n",
      "note_off channel=0 note=89 velocity=64 time=0\n",
      "note_on channel=0 note=46 velocity=38 time=1\n",
      "note_off channel=0 note=47 velocity=64 time=0\n",
      "note_off channel=0 note=93 velocity=64 time=0\n",
      "note_off channel=0 note=46 velocity=64 time=2\n",
      "note_on channel=0 note=47 velocity=42 time=0\n",
      "note_on channel=0 note=93 velocity=44 time=1\n",
      "note_off channel=0 note=94 velocity=64 time=0\n",
      "note_off channel=0 note=66 velocity=64 time=1\n",
      "note_on channel=0 note=74 velocity=41 time=0\n",
      "note_off channel=0 note=75 velocity=64 time=0\n",
      "note_off channel=0 note=78 velocity=64 time=0\n",
      "note_off channel=0 note=47 velocity=64 time=1\n",
      "note_on channel=0 note=66 velocity=43 time=0\n",
      "note_on channel=0 note=78 velocity=51 time=0\n",
      "note_off channel=0 note=74 velocity=64 time=1\n",
      "note_on channel=0 note=86 velocity=32 time=0\n",
      "note_on channel=0 note=49 velocity=59 time=1\n",
      "note_off channel=0 note=59 velocity=64 time=0\n",
      "note_on channel=0 note=60 velocity=40 time=0\n",
      "note_off channel=0 note=71 velocity=64 time=0\n",
      "note_on channel=0 note=72 velocity=43 time=0\n",
      "note_on channel=0 note=76 velocity=55 time=0\n",
      "note_on channel=0 note=79 velocity=56 time=0\n",
      "note_off channel=0 note=80 velocity=64 time=0\n",
      "note_off channel=0 note=85 velocity=64 time=0\n",
      "note_off channel=0 note=66 velocity=64 time=1\n",
      "note_on channel=0 note=67 velocity=44 time=0\n",
      "note_off channel=0 note=78 velocity=64 time=0\n",
      "note_on channel=0 note=82 velocity=52 time=0\n",
      "note_off channel=0 note=83 velocity=64 time=0\n",
      "note_on channel=0 note=90 velocity=57 time=0\n",
      "note_off channel=0 note=60 velocity=64 time=2\n",
      "note_off channel=0 note=67 velocity=64 time=0\n",
      "note_on channel=0 note=68 velocity=40 time=0\n",
      "note_on channel=0 note=75 velocity=34 time=0\n",
      "note_off channel=0 note=76 velocity=64 time=0\n",
      "note_on channel=0 note=77 velocity=40 time=0\n",
      "note_off channel=0 note=79 velocity=64 time=0\n",
      "note_on channel=0 note=80 velocity=48 time=0\n",
      "note_on channel=0 note=85 velocity=31 time=0\n",
      "note_off channel=0 note=88 velocity=64 time=0\n",
      "note_on channel=0 note=89 velocity=52 time=0\n",
      "note_off channel=0 note=72 velocity=64 time=1\n",
      "note_off channel=0 note=84 velocity=64 time=0\n",
      "note_off channel=0 note=86 velocity=64 time=0\n",
      "note_on channel=0 note=91 velocity=29 time=0\n",
      "note_on channel=0 note=72 velocity=49 time=1\n",
      "note_on channel=0 note=76 velocity=60 time=0\n",
      "note_off channel=0 note=77 velocity=64 time=0\n",
      "note_on channel=0 note=67 velocity=46 time=1\n",
      "note_off channel=0 note=68 velocity=64 time=0\n",
      "note_off channel=0 note=75 velocity=64 time=0\n",
      "note_on channel=0 note=79 velocity=49 time=0\n",
      "note_off channel=0 note=80 velocity=64 time=0\n",
      "note_off channel=0 note=89 velocity=64 time=0\n",
      "note_on channel=0 note=48 velocity=55 time=1\n",
      "note_off channel=0 note=49 velocity=64 time=0\n",
      "note_off channel=0 note=85 velocity=64 time=0\n",
      "note_on channel=0 note=81 velocity=35 time=1\n",
      "note_off channel=0 note=82 velocity=64 time=0\n",
      "note_on channel=0 note=83 velocity=63 time=0\n",
      "note_on channel=0 note=85 velocity=38 time=0\n",
      "note_on channel=0 note=89 velocity=62 time=0\n",
      "note_off channel=0 note=90 velocity=64 time=0\n",
      "note_off channel=0 note=48 velocity=64 time=1\n",
      "note_on channel=0 note=59 velocity=36 time=0\n",
      "note_on channel=0 note=90 velocity=42 time=0\n",
      "note_on channel=0 note=66 velocity=45 time=1\n",
      "note_off channel=0 note=67 velocity=64 time=0\n",
      "note_on channel=0 note=75 velocity=61 time=0\n",
      "note_off channel=0 note=76 velocity=64 time=0\n",
      "note_on channel=0 note=80 velocity=42 time=0\n",
      "note_on channel=0 note=48 velocity=33 time=1\n",
      "note_on channel=0 note=71 velocity=44 time=0\n",
      "note_off channel=0 note=72 velocity=64 time=0\n",
      "note_on channel=0 note=78 velocity=70 time=0\n",
      "note_off channel=0 note=79 velocity=64 time=0\n",
      "note_off channel=0 note=81 velocity=64 time=1\n",
      "note_off channel=0 note=91 velocity=64 time=0\n",
      "note_on channel=0 note=94 velocity=19 time=0\n",
      "note_off channel=0 note=48 velocity=64 time=1\n",
      "note_on channel=0 note=47 velocity=29 time=2\n",
      "note_on channel=0 note=91 velocity=24 time=1\n",
      "note_on channel=0 note=88 velocity=52 time=1\n",
      "note_off channel=0 note=89 velocity=64 time=1\n",
      "note_off channel=0 note=88 velocity=64 time=1\n",
      "note_on channel=0 note=89 velocity=64 time=0\n",
      "note_off channel=0 note=91 velocity=64 time=0\n",
      "note_on channel=0 note=91 velocity=33 time=1\n",
      "note_off channel=0 note=94 velocity=64 time=0\n",
      "note_off channel=0 note=47 velocity=64 time=2\n",
      "note_on channel=0 note=88 velocity=71 time=0\n",
      "note_off channel=0 note=89 velocity=64 time=0\n",
      "note_on channel=0 note=47 velocity=33 time=1\n",
      "note_on channel=0 note=92 velocity=44 time=1\n",
      "note_off channel=0 note=47 velocity=64 time=1\n",
      "note_off channel=0 note=88 velocity=64 time=0\n",
      "note_on channel=0 note=89 velocity=69 time=0\n",
      "note_on channel=0 note=47 velocity=34 time=1\n",
      "note_on channel=0 note=88 velocity=69 time=4\n",
      "note_off channel=0 note=89 velocity=64 time=0\n",
      "note_on channel=0 note=46 velocity=30 time=1\n",
      "note_off channel=0 note=47 velocity=64 time=0\n",
      "note_off channel=0 note=46 velocity=64 time=2\n",
      "note_off channel=0 note=80 velocity=64 time=0\n",
      "note_on channel=0 note=84 velocity=46 time=0\n",
      "note_on channel=0 note=80 velocity=52 time=1\n",
      "note_off channel=0 note=101 velocity=64 time=0\n",
      "note_on channel=0 note=47 velocity=35 time=1\n",
      "note_off channel=0 note=59 velocity=64 time=1\n",
      "note_off channel=0 note=71 velocity=64 time=0\n",
      "note_off channel=0 note=85 velocity=64 time=0\n",
      "note_on channel=0 note=46 velocity=48 time=1\n",
      "note_off channel=0 note=47 velocity=64 time=0\n",
      "note_on channel=0 note=82 velocity=38 time=0\n",
      "note_off channel=0 note=83 velocity=64 time=0\n",
      "note_on channel=0 note=85 velocity=23 time=0\n",
      "note_on channel=0 note=83 velocity=43 time=1\n",
      "note_off channel=0 note=66 velocity=64 time=1\n",
      "note_off channel=0 note=78 velocity=64 time=0\n",
      "note_off channel=0 note=82 velocity=64 time=0\n",
      "note_off channel=0 note=46 velocity=64 time=1\n",
      "note_on channel=0 note=47 velocity=51 time=0\n",
      "note_off channel=0 note=88 velocity=64 time=0\n",
      "note_on channel=0 note=60 velocity=34 time=1\n",
      "note_on channel=0 note=67 velocity=32 time=0\n",
      "note_off channel=0 note=75 velocity=64 time=0\n",
      "note_off channel=0 note=47 velocity=64 time=1\n",
      "note_on channel=0 note=76 velocity=29 time=0\n",
      "note_on channel=0 note=82 velocity=55 time=0\n",
      "note_off channel=0 note=83 velocity=64 time=0\n",
      "note_on channel=0 note=49 velocity=57 time=1\n",
      "note_off channel=0 note=85 velocity=64 time=0\n",
      "note_on channel=0 note=86 velocity=38 time=0\n",
      "note_off channel=0 note=60 velocity=64 time=1\n",
      "note_on channel=0 note=75 velocity=20 time=0\n",
      "note_on channel=0 note=79 velocity=54 time=0\n",
      "note_off channel=0 note=80 velocity=64 time=0\n",
      "note_on channel=0 note=88 velocity=35 time=0\n",
      "note_on channel=0 note=85 velocity=43 time=1\n",
      "note_on channel=0 note=87 velocity=57 time=0\n",
      "note_off channel=0 note=49 velocity=64 time=1\n",
      "note_off channel=0 note=79 velocity=64 time=0\n",
      "note_on channel=0 note=80 velocity=59 time=0\n",
      "note_on channel=0 note=49 velocity=67 time=1\n",
      "note_off channel=0 note=67 velocity=64 time=0\n",
      "note_on channel=0 note=68 velocity=37 time=0\n",
      "note_off channel=0 note=86 velocity=64 time=0\n",
      "note_off channel=0 note=88 velocity=64 time=0\n",
      "note_on channel=0 note=89 velocity=43 time=0\n",
      "note_off channel=0 note=76 velocity=64 time=1\n",
      "note_off channel=0 note=82 velocity=64 time=0\n",
      "note_on channel=0 note=83 velocity=58 time=0\n",
      "note_off channel=0 note=91 velocity=64 time=1\n",
      "note_on channel=0 note=82 velocity=46 time=1\n",
      "note_off channel=0 note=83 velocity=64 time=0\n",
      "note_off channel=0 note=82 velocity=64 time=2\n",
      "note_on channel=0 note=83 velocity=52 time=0\n",
      "note_on channel=0 note=91 velocity=31 time=0\n",
      "note_on channel=0 note=77 velocity=44 time=3\n",
      "note_on channel=0 note=88 velocity=39 time=0\n",
      "note_off channel=0 note=75 velocity=64 time=1\n",
      "note_off channel=0 note=83 velocity=64 time=0\n",
      "note_off channel=0 note=89 velocity=64 time=0\n",
      "note_off channel=0 note=91 velocity=64 time=0\n",
      "note_on channel=0 note=95 velocity=25 time=0\n",
      "note_on channel=0 note=83 velocity=57 time=1\n",
      "note_off channel=0 note=88 velocity=64 time=0\n",
      "note_on channel=0 note=89 velocity=48 time=0\n",
      "note_on channel=0 note=91 velocity=41 time=0\n",
      "note_off channel=0 note=84 velocity=64 time=3\n",
      "note_on channel=0 note=84 velocity=18 time=6\n",
      "note_on channel=0 note=78 velocity=18 time=3\n",
      "note_on channel=0 note=75 velocity=18 time=2\n",
      "note_off channel=0 note=77 velocity=64 time=0\n",
      "note_on channel=0 note=82 velocity=41 time=0\n",
      "note_off channel=0 note=83 velocity=64 time=0\n",
      "note_off channel=0 note=91 velocity=64 time=0\n",
      "note_on channel=0 note=83 velocity=44 time=1\n",
      "note_on channel=0 note=91 velocity=20 time=0\n",
      "note_on channel=0 note=77 velocity=39 time=1\n",
      "note_off channel=0 note=82 velocity=64 time=0\n",
      "note_off channel=0 note=85 velocity=64 time=0\n",
      "note_off channel=0 note=78 velocity=64 time=1\n",
      "note_off channel=0 note=91 velocity=64 time=3\n",
      "note_on channel=0 note=85 velocity=35 time=1\n",
      "note_on channel=0 note=91 velocity=27 time=0\n",
      "note_off channel=0 note=91 velocity=64 time=4\n",
      "note_on channel=0 note=82 velocity=38 time=8\n",
      "note_off channel=0 note=83 velocity=64 time=0\n",
      "note_on channel=0 note=83 velocity=57 time=1\n",
      "note_off channel=0 note=82 velocity=64 time=1\n",
      "note_off channel=0 note=95 velocity=64 time=2\n",
      "note_off channel=0 note=85 velocity=64 time=1\n",
      "note_on channel=0 note=85 velocity=37 time=1\n",
      "note_off channel=0 note=75 velocity=64 time=14\n",
      "note_on channel=0 note=91 velocity=38 time=0\n",
      "note_on channel=0 note=75 velocity=24 time=6\n",
      "note_off channel=0 note=77 velocity=64 time=0\n",
      "note_on channel=0 note=77 velocity=32 time=2\n",
      "note_off channel=0 note=90 velocity=64 time=0\n",
      "note_on channel=0 note=90 velocity=34 time=2\n",
      "note_off channel=0 note=91 velocity=64 time=0\n",
      "note_off channel=0 note=93 velocity=64 time=1\n",
      "note_off channel=0 note=85 velocity=64 time=2\n",
      "note_off channel=0 note=92 velocity=64 time=0\n",
      "note_off channel=0 note=90 velocity=64 time=1\n",
      "note_on channel=0 note=91 velocity=38 time=0\n",
      "note_on channel=0 note=90 velocity=31 time=2\n",
      "note_on channel=0 note=93 velocity=16 time=1\n",
      "note_off channel=0 note=84 velocity=64 time=4\n",
      "note_off channel=0 note=90 velocity=64 time=3\n",
      "note_off channel=0 note=75 velocity=64 time=9\n",
      "note_off channel=0 note=93 velocity=64 time=3\n",
      "note_on channel=0 note=75 velocity=9 time=8\n",
      "note_on channel=0 note=93 velocity=23 time=4\n",
      "note_off channel=0 note=75 velocity=64 time=1\n",
      "note_on channel=0 note=90 velocity=20 time=13\n",
      "note_off channel=0 note=90 velocity=64 time=3\n",
      "note_on channel=0 note=75 velocity=14 time=2\n",
      "note_off channel=0 note=83 velocity=64 time=0\n",
      "note_on channel=0 note=83 velocity=46 time=1\n",
      "note_off channel=0 note=87 velocity=64 time=8\n",
      "note_off channel=0 note=93 velocity=64 time=1\n",
      "note_on channel=0 note=87 velocity=23 time=3\n",
      "note_on channel=0 note=93 velocity=10 time=1\n",
      "note_off channel=0 note=93 velocity=64 time=4\n",
      "note_off channel=0 note=75 velocity=64 time=2\n",
      "note_on channel=0 note=75 velocity=22 time=11\n",
      "note_on channel=0 note=93 velocity=13 time=1\n",
      "note_off channel=0 note=93 velocity=64 time=4\n",
      "note_off channel=0 note=87 velocity=64 time=2\n",
      "note_on channel=0 note=84 velocity=32 time=2\n",
      "note_on channel=0 note=87 velocity=32 time=0\n",
      "note_on channel=0 note=93 velocity=16 time=0\n",
      "note_on channel=0 note=82 velocity=20 time=1\n",
      "note_off channel=0 note=83 velocity=64 time=0\n",
      "note_on channel=0 note=90 velocity=18 time=3\n",
      "note_off channel=0 note=93 velocity=64 time=1\n",
      "note_off channel=0 note=75 velocity=64 time=1\n",
      "note_off channel=0 note=82 velocity=64 time=1\n",
      "note_on channel=0 note=83 velocity=28 time=0\n",
      "note_on channel=0 note=88 velocity=28 time=3\n",
      "note_off channel=0 note=89 velocity=64 time=1\n",
      "note_off channel=0 note=77 velocity=64 time=1\n",
      "note_on channel=0 note=86 velocity=18 time=0\n",
      "note_on channel=0 note=77 velocity=27 time=1\n",
      "note_on channel=0 note=72 velocity=11 time=2\n",
      "note_off channel=0 note=86 velocity=64 time=1\n",
      "note_off channel=0 note=80 velocity=64 time=1\n",
      "note_on channel=0 note=82 velocity=29 time=0\n",
      "note_off channel=0 note=83 velocity=64 time=0\n",
      "note_on channel=0 note=86 velocity=20 time=0\n",
      "note_off channel=0 note=88 velocity=64 time=0\n",
      "note_on channel=0 note=92 velocity=16 time=0\n",
      "note_on channel=0 note=83 velocity=26 time=1\n",
      "note_on channel=0 note=88 velocity=25 time=0\n",
      "note_off channel=0 note=82 velocity=64 time=1\n",
      "note_off channel=0 note=90 velocity=64 time=1\n",
      "note_on channel=0 note=75 velocity=32 time=2\n",
      "note_off channel=0 note=88 velocity=64 time=0\n",
      "note_off channel=0 note=72 velocity=64 time=1\n",
      "note_on channel=0 note=82 velocity=24 time=0\n",
      "note_off channel=0 note=86 velocity=64 time=0\n",
      "note_on channel=0 note=78 velocity=11 time=1\n",
      "note_off channel=0 note=83 velocity=64 time=0\n",
      "note_on channel=0 note=86 velocity=20 time=0\n",
      "note_off channel=0 note=92 velocity=64 time=0\n",
      "note_off channel=0 note=77 velocity=64 time=1\n",
      "note_on channel=0 note=83 velocity=24 time=1\n",
      "note_on channel=0 note=88 velocity=16 time=0\n",
      "note_off channel=0 note=82 velocity=64 time=1\n",
      "note_on channel=0 note=77 velocity=26 time=1\n",
      "note_off channel=0 note=78 velocity=64 time=0\n",
      "note_on channel=0 note=82 velocity=15 time=0\n",
      "note_off channel=0 note=86 velocity=64 time=0\n",
      "note_off channel=0 note=88 velocity=64 time=1\n",
      "note_off channel=0 note=82 velocity=64 time=2\n",
      "note_on channel=0 note=85 velocity=19 time=3\n",
      "note_on channel=0 note=90 velocity=40 time=3\n",
      "note_off channel=0 note=87 velocity=64 time=2\n",
      "note_on channel=0 note=82 velocity=17 time=4\n",
      "note_off channel=0 note=77 velocity=64 time=1\n",
      "note_on channel=0 note=78 velocity=21 time=0\n",
      "note_off channel=0 note=83 velocity=64 time=1\n",
      "note_off channel=0 note=85 velocity=64 time=0\n",
      "note_on channel=0 note=88 velocity=18 time=0\n",
      "note_off channel=0 note=75 velocity=64 time=2\n",
      "note_off channel=0 note=78 velocity=64 time=0\n",
      "note_on channel=0 note=92 velocity=26 time=1\n",
      "note_on channel=0 note=77 velocity=34 time=2\n",
      "note_on channel=0 note=80 velocity=37 time=0\n",
      "note_off channel=0 note=82 velocity=64 time=0\n",
      "note_on channel=0 note=83 velocity=24 time=0\n",
      "note_on channel=0 note=93 velocity=41 time=2\n",
      "note_on channel=0 note=86 velocity=21 time=1\n",
      "note_off channel=0 note=88 velocity=64 time=0\n",
      "note_on channel=0 note=75 velocity=33 time=1\n",
      "note_on channel=0 note=82 velocity=23 time=0\n",
      "note_off channel=0 note=83 velocity=64 time=1\n",
      "note_off channel=0 note=86 velocity=64 time=4\n",
      "note_on channel=0 note=83 velocity=37 time=2\n",
      "note_off channel=0 note=82 velocity=64 time=1\n",
      "note_on channel=0 note=87 velocity=33 time=1\n",
      "note_on channel=0 note=88 velocity=12 time=0\n",
      "note_off channel=0 note=88 velocity=64 time=3\n",
      "note_off channel=0 note=92 velocity=64 time=1\n",
      "note_off channel=0 note=77 velocity=64 time=10\n",
      "note_on channel=0 note=77 velocity=32 time=1\n",
      "note_on channel=0 note=86 velocity=27 time=5\n",
      "note_off channel=0 note=87 velocity=64 time=3\n",
      "note_on channel=0 note=72 velocity=13 time=2\n",
      "note_on channel=0 note=82 velocity=30 time=0\n",
      "note_off channel=0 note=83 velocity=64 time=1\n",
      "note_off channel=0 note=91 velocity=64 time=0\n",
      "note_off channel=0 note=77 velocity=64 time=1\n",
      "note_on channel=0 note=83 velocity=45 time=2\n",
      "note_off channel=0 note=82 velocity=64 time=1\n",
      "note_on channel=0 note=91 velocity=30 time=0\n",
      "note_on channel=0 note=77 velocity=27 time=1\n",
      "note_on channel=0 note=85 velocity=23 time=1\n",
      "note_off channel=0 note=86 velocity=64 time=0\n",
      "note_off channel=0 note=72 velocity=64 time=4\n",
      "note_off channel=0 note=77 velocity=64 time=4\n",
      "note_off channel=0 note=85 velocity=64 time=3\n",
      "note_on channel=0 note=77 velocity=34 time=3\n",
      "note_on channel=0 note=88 velocity=34 time=1\n",
      "note_on channel=0 note=86 velocity=15 time=3\n",
      "note_off channel=0 note=84 velocity=64 time=6\n",
      "note_on channel=0 note=85 velocity=29 time=0\n",
      "note_off channel=0 note=86 velocity=64 time=1\n",
      "note_off channel=0 note=68 velocity=64 time=1\n",
      "note_off channel=0 note=75 velocity=64 time=2\n",
      "note_on channel=0 note=75 velocity=33 time=4\n",
      "note_on channel=0 note=82 velocity=32 time=5\n",
      "note_off channel=0 note=83 velocity=64 time=0\n",
      "note_on channel=0 note=56 velocity=21 time=1\n",
      "note_off channel=0 note=91 velocity=64 time=0\n",
      "note_on channel=0 note=84 velocity=11 time=6\n",
      "note_off channel=0 note=56 velocity=64 time=1\n",
      "note_on channel=0 note=83 velocity=28 time=11\n",
      "note_off channel=0 note=84 velocity=64 time=0\n",
      "note_off channel=0 note=82 velocity=64 time=1\n",
      "note_off channel=0 note=80 velocity=64 time=1\n",
      "note_on channel=0 note=82 velocity=30 time=1\n",
      "note_on channel=0 note=91 velocity=23 time=0\n",
      "note_off channel=0 note=83 velocity=64 time=1\n",
      "note_on channel=0 note=83 velocity=68 time=1\n",
      "note_on channel=0 note=84 velocity=16 time=0\n",
      "note_off channel=0 note=82 velocity=64 time=1\n",
      "note_on channel=0 note=80 velocity=44 time=3\n",
      "note_off channel=0 note=91 velocity=64 time=0\n",
      "note_on channel=0 note=91 velocity=21 time=1\n",
      "note_off channel=0 note=91 velocity=64 time=3\n",
      "note_on channel=0 note=91 velocity=27 time=1\n",
      "note_off channel=0 note=77 velocity=64 time=2\n",
      "note_on channel=0 note=87 velocity=38 time=2\n",
      "note_on channel=0 note=77 velocity=22 time=3\n",
      "note_on channel=0 note=73 velocity=25 time=5\n",
      "note_off channel=0 note=93 velocity=64 time=1\n",
      "note_on channel=0 note=68 velocity=10 time=3\n",
      "note_off channel=0 note=77 velocity=64 time=1\n",
      "note_off channel=0 note=90 velocity=64 time=0\n",
      "note_off channel=0 note=49 velocity=64 time=2\n",
      "note_off channel=0 note=84 velocity=64 time=3\n",
      "note_on channel=0 note=77 velocity=16 time=4\n",
      "note_off channel=0 note=68 velocity=64 time=4\n",
      "note_off channel=0 note=77 velocity=64 time=12\n",
      "note_off channel=0 note=88 velocity=64 time=1\n",
      "note_off channel=0 note=85 velocity=64 time=3\n",
      "note_off channel=0 note=75 velocity=64 time=7\n",
      "note_on channel=0 note=93 velocity=19 time=8\n",
      "note_off channel=0 note=73 velocity=64 time=4\n",
      "note_on channel=0 note=75 velocity=17 time=2\n",
      "note_on channel=0 note=68 velocity=14 time=2\n",
      "note_on channel=0 note=85 velocity=50 time=0\n",
      "note_on channel=0 note=45 velocity=69 time=1\n",
      "note_off channel=0 note=75 velocity=64 time=0\n",
      "note_on channel=0 note=64 velocity=20 time=1\n",
      "note_on channel=0 note=73 velocity=34 time=0\n",
      "note_on channel=0 note=76 velocity=39 time=0\n",
      "note_on channel=0 note=79 velocity=36 time=0\n",
      "note_off channel=0 note=80 velocity=64 time=0\n",
      "note_on channel=0 note=81 velocity=49 time=0\n",
      "note_on channel=0 note=88 velocity=45 time=1\n",
      "note_on channel=0 note=100 velocity=47 time=0\n",
      "note_off channel=0 note=68 velocity=64 time=1\n",
      "note_on channel=0 note=78 velocity=41 time=0\n",
      "note_off channel=0 note=79 velocity=64 time=0\n",
      "note_on channel=0 note=86 velocity=48 time=1\n",
      "note_on channel=0 note=89 velocity=23 time=1\n",
      "note_on channel=0 note=80 velocity=30 time=1\n",
      "note_off channel=0 note=87 velocity=64 time=0\n",
      "note_off channel=0 note=78 velocity=64 time=1\n",
      "note_on channel=0 note=79 velocity=70 time=0\n",
      "note_off channel=0 note=81 velocity=64 time=0\n",
      "note_on channel=0 note=87 velocity=60 time=0\n",
      "note_on channel=0 note=92 velocity=35 time=0\n",
      "note_on channel=0 note=101 velocity=51 time=0\n",
      "note_off channel=0 note=80 velocity=64 time=1\n",
      "note_on channel=0 note=81 velocity=53 time=0\n",
      "note_off channel=0 note=86 velocity=64 time=0\n",
      "note_on channel=0 note=94 velocity=11 time=0\n",
      "note_off channel=0 note=89 velocity=64 time=1\n",
      "note_on channel=0 note=90 velocity=17 time=0\n",
      "note_off channel=0 note=64 velocity=64 time=1\n",
      "note_on channel=0 note=65 velocity=26 time=0\n",
      "note_on channel=0 note=102 velocity=22 time=0\n",
      "note_on channel=0 note=58 velocity=47 time=1\n",
      "note_on channel=0 note=89 velocity=63 time=0\n",
      "note_off channel=0 note=94 velocity=64 time=0\n",
      "note_off channel=0 note=76 velocity=64 time=1\n",
      "note_on channel=0 note=77 velocity=46 time=0\n",
      "note_off channel=0 note=81 velocity=64 time=0\n",
      "note_on channel=0 note=82 velocity=53 time=0\n",
      "note_off channel=0 note=88 velocity=64 time=0\n",
      "note_off channel=0 note=91 velocity=64 time=0\n",
      "note_off channel=0 note=93 velocity=64 time=0\n",
      "note_off channel=0 note=73 velocity=64 time=1\n",
      "note_on channel=0 note=74 velocity=43 time=0\n",
      "note_off channel=0 note=45 velocity=64 time=1\n",
      "note_on channel=0 note=46 velocity=61 time=0\n",
      "note_on channel=0 note=103 velocity=12 time=0\n",
      "note_on channel=0 note=84 velocity=33 time=1\n",
      "note_off channel=0 note=85 velocity=64 time=0\n",
      "note_on channel=0 note=86 velocity=46 time=0\n",
      "note_off channel=0 note=82 velocity=64 time=1\n",
      "note_on channel=0 note=82 velocity=46 time=1\n",
      "note_on channel=0 note=85 velocity=46 time=2\n",
      "note_off channel=0 note=86 velocity=64 time=0\n",
      "note_on channel=0 note=73 velocity=46 time=1\n",
      "note_off channel=0 note=74 velocity=64 time=0\n",
      "note_off channel=0 note=73 velocity=64 time=2\n",
      "note_on channel=0 note=74 velocity=51 time=0\n",
      "note_off channel=0 note=85 velocity=64 time=0\n",
      "note_off channel=0 note=79 velocity=64 time=1\n",
      "note_on channel=0 note=80 velocity=55 time=0\n",
      "note_off channel=0 note=83 velocity=64 time=0\n",
      "note_off channel=0 note=87 velocity=64 time=0\n",
      "note_on channel=0 note=93 velocity=14 time=0\n",
      "note_off channel=0 note=103 velocity=64 time=0\n",
      "note_on channel=0 note=87 velocity=34 time=1\n",
      "note_off channel=0 note=90 velocity=64 time=0\n",
      "note_on channel=0 note=88 velocity=22 time=1\n",
      "note_on channel=0 note=90 velocity=45 time=0\n",
      "note_off channel=0 note=80 velocity=64 time=1\n",
      "note_off channel=0 note=87 velocity=64 time=0\n",
      "note_on channel=0 note=80 velocity=41 time=1\n",
      "note_on channel=0 note=87 velocity=43 time=0\n",
      "note_off channel=0 note=88 velocity=64 time=1\n",
      "note_on channel=0 note=79 velocity=44 time=1\n",
      "note_off channel=0 note=74 velocity=64 time=1\n"
     ]
    },
    {
     "name": "stdout",
     "output_type": "stream",
     "text": [
      "note_off channel=0 note=80 velocity=64 time=0\n",
      "note_on channel=0 note=83 velocity=36 time=0\n",
      "note_off channel=0 note=93 velocity=64 time=0\n",
      "note_on channel=0 note=81 velocity=53 time=1\n",
      "note_off channel=0 note=82 velocity=64 time=0\n",
      "note_on channel=0 note=85 velocity=39 time=0\n",
      "note_on channel=0 note=88 velocity=51 time=0\n",
      "note_on channel=0 note=57 velocity=48 time=1\n",
      "note_off channel=0 note=58 velocity=64 time=0\n",
      "note_on channel=0 note=64 velocity=24 time=0\n",
      "note_off channel=0 note=65 velocity=64 time=0\n",
      "note_on channel=0 note=73 velocity=45 time=0\n",
      "note_on channel=0 note=75 velocity=30 time=0\n",
      "note_on channel=0 note=76 velocity=58 time=0\n",
      "note_off channel=0 note=84 velocity=64 time=0\n",
      "note_off channel=0 note=89 velocity=64 time=0\n",
      "note_on channel=0 note=94 velocity=10 time=0\n",
      "note_on channel=0 note=45 velocity=61 time=1\n",
      "note_off channel=0 note=46 velocity=64 time=0\n",
      "note_off channel=0 note=77 velocity=64 time=0\n",
      "note_off channel=0 note=75 velocity=64 time=3\n",
      "note_off channel=0 note=92 velocity=64 time=0\n",
      "note_on channel=0 note=89 velocity=45 time=2\n",
      "note_off channel=0 note=90 velocity=64 time=0\n",
      "note_on channel=0 note=92 velocity=22 time=0\n",
      "note_off channel=0 note=83 velocity=64 time=1\n",
      "note_on channel=0 note=86 velocity=21 time=0\n",
      "note_off channel=0 note=73 velocity=64 time=1\n",
      "note_off channel=0 note=79 velocity=64 time=0\n",
      "note_on channel=0 note=83 velocity=44 time=0\n",
      "note_off channel=0 note=87 velocity=64 time=0\n",
      "note_off channel=0 note=88 velocity=64 time=0\n",
      "note_on channel=0 note=73 velocity=31 time=1\n",
      "note_on channel=0 note=87 velocity=23 time=0\n",
      "note_on channel=0 note=88 velocity=68 time=0\n",
      "note_off channel=0 note=86 velocity=64 time=1\n",
      "note_on channel=0 note=78 velocity=42 time=1\n",
      "note_on channel=0 note=79 velocity=45 time=1\n",
      "note_on channel=0 note=86 velocity=51 time=0\n",
      "note_off channel=0 note=94 velocity=64 time=0\n",
      "note_off channel=0 note=78 velocity=64 time=1\n",
      "note_on channel=0 note=84 velocity=31 time=0\n",
      "note_off channel=0 note=87 velocity=64 time=0\n",
      "note_on channel=0 note=90 velocity=28 time=0\n",
      "note_on channel=0 note=78 velocity=42 time=1\n",
      "note_off channel=0 note=79 velocity=64 time=0\n",
      "note_on channel=0 note=94 velocity=15 time=1\n",
      "note_off channel=0 note=73 velocity=64 time=1\n",
      "note_off channel=0 note=85 velocity=64 time=0\n",
      "note_on channel=0 note=85 velocity=47 time=1\n",
      "note_on channel=0 note=73 velocity=26 time=1\n",
      "note_off channel=0 note=84 velocity=64 time=2\n",
      "note_off channel=0 note=92 velocity=64 time=0\n",
      "note_off channel=0 note=78 velocity=64 time=1\n",
      "note_on channel=0 note=84 velocity=30 time=0\n",
      "note_on channel=0 note=78 velocity=51 time=1\n",
      "note_on channel=0 note=72 velocity=14 time=2\n",
      "note_off channel=0 note=73 velocity=64 time=0\n",
      "note_off channel=0 note=78 velocity=64 time=0\n",
      "note_on channel=0 note=79 velocity=57 time=0\n",
      "note_off channel=0 note=89 velocity=64 time=0\n",
      "note_on channel=0 note=92 velocity=24 time=0\n",
      "note_off channel=0 note=84 velocity=64 time=2\n",
      "note_off channel=0 note=86 velocity=64 time=0\n",
      "note_on channel=0 note=87 velocity=51 time=0\n",
      "note_off channel=0 note=64 velocity=64 time=1\n",
      "note_on channel=0 note=65 velocity=23 time=0\n",
      "note_on channel=0 note=77 velocity=55 time=0\n",
      "note_on channel=0 note=84 velocity=45 time=0\n",
      "note_off channel=0 note=94 velocity=64 time=0\n",
      "note_off channel=0 note=57 velocity=64 time=1\n",
      "note_on channel=0 note=58 velocity=44 time=0\n",
      "note_off channel=0 note=72 velocity=64 time=0\n",
      "note_on channel=0 note=74 velocity=46 time=0\n",
      "note_off channel=0 note=76 velocity=64 time=0\n",
      "note_off channel=0 note=81 velocity=64 time=0\n",
      "note_on channel=0 note=82 velocity=60 time=0\n",
      "note_off channel=0 note=83 velocity=64 time=0\n",
      "note_off channel=0 note=92 velocity=64 time=1\n",
      "note_off channel=0 note=45 velocity=64 time=1\n",
      "note_on channel=0 note=46 velocity=52 time=0\n",
      "note_on channel=0 note=80 velocity=45 time=0\n",
      "note_off channel=0 note=85 velocity=64 time=0\n",
      "note_off channel=0 note=90 velocity=64 time=0\n",
      "note_off channel=0 note=87 velocity=64 time=1\n",
      "note_off channel=0 note=79 velocity=64 time=1\n",
      "note_on channel=0 note=90 velocity=32 time=1\n",
      "note_on channel=0 note=79 velocity=52 time=1\n",
      "note_off channel=0 note=80 velocity=64 time=0\n",
      "note_on channel=0 note=87 velocity=63 time=0\n",
      "note_on channel=0 note=69 velocity=33 time=1\n",
      "note_on channel=0 note=73 velocity=45 time=0\n",
      "note_off channel=0 note=74 velocity=64 time=0\n",
      "note_on channel=0 note=81 velocity=48 time=0\n",
      "note_off channel=0 note=82 velocity=64 time=0\n",
      "note_on channel=0 note=92 velocity=25 time=0\n",
      "note_on channel=0 note=57 velocity=46 time=1\n",
      "note_off channel=0 note=58 velocity=64 time=0\n",
      "note_on channel=0 note=64 velocity=23 time=0\n",
      "note_off channel=0 note=65 velocity=64 time=0\n",
      "note_on channel=0 note=83 velocity=63 time=0\n",
      "note_off channel=0 note=84 velocity=64 time=0\n",
      "note_on channel=0 note=45 velocity=57 time=1\n",
      "note_off channel=0 note=46 velocity=64 time=0\n",
      "note_on channel=0 note=76 velocity=55 time=2\n",
      "note_off channel=0 note=77 velocity=64 time=0\n",
      "note_on channel=0 note=82 velocity=33 time=0\n",
      "note_on channel=0 note=86 velocity=49 time=0\n",
      "note_on channel=0 note=89 velocity=27 time=0\n",
      "note_off channel=0 note=82 velocity=64 time=2\n",
      "note_off channel=0 note=90 velocity=64 time=0\n",
      "note_off channel=0 note=79 velocity=64 time=1\n",
      "note_off channel=0 note=89 velocity=64 time=0\n",
      "note_on channel=0 note=90 velocity=62 time=0\n",
      "note_on channel=0 note=89 velocity=33 time=1\n",
      "note_off channel=0 note=102 velocity=64 time=0\n",
      "note_on channel=0 note=78 velocity=54 time=1\n",
      "note_on channel=0 note=84 velocity=42 time=2\n",
      "note_off channel=0 note=87 velocity=64 time=0\n",
      "note_off channel=0 note=78 velocity=64 time=2\n",
      "note_on channel=0 note=78 velocity=38 time=1\n",
      "note_off channel=0 note=89 velocity=64 time=0\n",
      "note_off channel=0 note=92 velocity=64 time=0\n",
      "note_off channel=0 note=73 velocity=64 time=1\n",
      "note_on channel=0 note=92 velocity=22 time=0\n",
      "note_on channel=0 note=73 velocity=29 time=1\n",
      "note_off channel=0 note=78 velocity=64 time=1\n",
      "note_on channel=0 note=44 velocity=55 time=1\n",
      "note_off channel=0 note=45 velocity=64 time=0\n",
      "note_on channel=0 note=78 velocity=53 time=0\n",
      "note_on channel=0 note=91 velocity=33 time=0\n",
      "note_off channel=0 note=92 velocity=64 time=0\n",
      "note_off channel=0 note=57 velocity=64 time=1\n",
      "note_on channel=0 note=63 velocity=26 time=0\n",
      "note_off channel=0 note=64 velocity=64 time=0\n",
      "note_off channel=0 note=69 velocity=64 time=0\n",
      "note_on channel=0 note=72 velocity=31 time=0\n",
      "note_off channel=0 note=73 velocity=64 time=0\n",
      "note_on channel=0 note=80 velocity=63 time=0\n",
      "note_off channel=0 note=81 velocity=64 time=0\n",
      "note_on channel=0 note=82 velocity=62 time=0\n",
      "note_off channel=0 note=83 velocity=64 time=0\n",
      "note_on channel=0 note=75 velocity=50 time=1\n",
      "note_off channel=0 note=76 velocity=64 time=0\n",
      "note_on channel=0 note=87 velocity=63 time=1\n",
      "note_on channel=0 note=95 velocity=14 time=0\n",
      "note_on channel=0 note=77 velocity=47 time=2\n",
      "note_off channel=0 note=78 velocity=64 time=0\n",
      "note_on channel=0 note=85 velocity=48 time=0\n",
      "note_off channel=0 note=86 velocity=64 time=0\n",
      "note_off channel=0 note=72 velocity=64 time=1\n",
      "note_off channel=0 note=88 velocity=64 time=0\n",
      "note_on channel=0 note=72 velocity=32 time=1\n",
      "note_off channel=0 note=77 velocity=64 time=0\n",
      "note_on channel=0 note=78 velocity=56 time=0\n",
      "note_on channel=0 note=88 velocity=58 time=0\n",
      "note_off channel=0 note=101 velocity=64 time=0\n",
      "note_off channel=0 note=95 velocity=64 time=2\n",
      "note_on channel=0 note=57 velocity=48 time=1\n",
      "note_off channel=0 note=63 velocity=64 time=0\n",
      "note_on channel=0 note=64 velocity=24 time=0\n",
      "note_off channel=0 note=72 velocity=64 time=0\n",
      "note_on channel=0 note=73 velocity=20 time=0\n",
      "note_on channel=0 note=76 velocity=42 time=0\n",
      "note_on channel=0 note=81 velocity=45 time=0\n",
      "note_off channel=0 note=82 velocity=64 time=0\n",
      "note_on channel=0 note=83 velocity=58 time=0\n",
      "note_off channel=0 note=84 velocity=64 time=0\n",
      "note_on channel=0 note=94 velocity=21 time=0\n",
      "note_on channel=0 note=101 velocity=16 time=0\n",
      "note_off channel=0 note=44 velocity=64 time=1\n",
      "note_on channel=0 note=45 velocity=53 time=0\n",
      "note_on channel=0 note=72 velocity=34 time=0\n",
      "note_off channel=0 note=75 velocity=64 time=0\n",
      "note_on channel=0 note=79 velocity=49 time=0\n",
      "note_off channel=0 note=80 velocity=64 time=0\n",
      "note_off channel=0 note=87 velocity=64 time=0\n",
      "note_on channel=0 note=92 velocity=30 time=0\n",
      "note_on channel=0 note=99 velocity=17 time=0\n",
      "note_off channel=0 note=78 velocity=64 time=1\n",
      "note_on channel=0 note=82 velocity=61 time=0\n",
      "note_on channel=0 note=87 velocity=58 time=0\n",
      "note_on channel=0 note=78 velocity=54 time=2\n",
      "note_off channel=0 note=79 velocity=64 time=0\n",
      "note_on channel=0 note=63 velocity=21 time=1\n",
      "note_off channel=0 note=64 velocity=64 time=0\n",
      "note_off channel=0 note=73 velocity=64 time=0\n",
      "note_on channel=0 note=75 velocity=51 time=0\n",
      "note_off channel=0 note=76 velocity=64 time=0\n",
      "note_on channel=0 note=80 velocity=64 time=0\n",
      "note_off channel=0 note=81 velocity=64 time=0\n",
      "note_off channel=0 note=83 velocity=64 time=0\n",
      "note_on channel=0 note=86 velocity=43 time=0\n",
      "note_off channel=0 note=87 velocity=64 time=0\n",
      "note_on channel=0 note=44 velocity=53 time=1\n",
      "note_off channel=0 note=45 velocity=64 time=0\n",
      "note_off channel=0 note=57 velocity=64 time=0\n",
      "note_off channel=0 note=85 velocity=64 time=0\n",
      "note_on channel=0 note=87 velocity=64 time=0\n",
      "note_on channel=0 note=93 velocity=29 time=1\n",
      "note_off channel=0 note=94 velocity=64 time=0\n",
      "note_off channel=0 note=101 velocity=64 time=0\n",
      "note_on channel=0 note=85 velocity=48 time=1\n",
      "note_off channel=0 note=86 velocity=64 time=0\n",
      "note_off channel=0 note=99 velocity=64 time=0\n",
      "note_on channel=0 note=57 velocity=44 time=3\n",
      "note_off channel=0 note=72 velocity=64 time=0\n",
      "note_on channel=0 note=73 velocity=29 time=0\n",
      "note_off channel=0 note=82 velocity=64 time=0\n",
      "note_on channel=0 note=83 velocity=63 time=0\n",
      "note_off channel=0 note=85 velocity=64 time=0\n",
      "note_on channel=0 note=86 velocity=38 time=0\n",
      "note_off channel=0 note=87 velocity=64 time=0\n",
      "note_off channel=0 note=44 velocity=64 time=1\n",
      "note_on channel=0 note=45 velocity=52 time=0\n",
      "note_off channel=0 note=63 velocity=64 time=0\n",
      "note_on channel=0 note=77 velocity=35 time=0\n",
      "note_off channel=0 note=78 velocity=64 time=0\n",
      "note_on channel=0 note=79 velocity=64 time=0\n",
      "note_on channel=0 note=87 velocity=62 time=0\n",
      "note_off channel=0 note=80 velocity=64 time=1\n",
      "note_on channel=0 note=82 velocity=57 time=0\n",
      "note_on channel=0 note=85 velocity=44 time=0\n",
      "note_off channel=0 note=86 velocity=64 time=0\n",
      "note_on channel=0 note=101 velocity=53 time=0\n",
      "note_off channel=0 note=57 velocity=64 time=1\n",
      "note_on channel=0 note=58 velocity=39 time=0\n",
      "note_off channel=0 note=73 velocity=64 time=0\n",
      "note_off channel=0 note=83 velocity=64 time=0\n",
      "note_on channel=0 note=84 velocity=38 time=0\n",
      "note_off channel=0 note=92 velocity=64 time=0\n",
      "note_off channel=0 note=45 velocity=64 time=1\n",
      "note_on channel=0 note=66 velocity=45 time=0\n",
      "note_off channel=0 note=77 velocity=64 time=0\n",
      "note_on channel=0 note=78 velocity=63 time=0\n",
      "note_on channel=0 note=47 velocity=45 time=1\n",
      "note_off channel=0 note=58 velocity=64 time=0\n",
      "note_off channel=0 note=79 velocity=64 time=0\n",
      "note_off channel=0 note=82 velocity=64 time=0\n",
      "note_on channel=0 note=83 velocity=63 time=0\n",
      "note_on channel=0 note=81 velocity=49 time=1\n",
      "note_off channel=0 note=88 velocity=64 time=0\n",
      "note_on channel=0 note=89 velocity=58 time=0\n",
      "note_on channel=0 note=94 velocity=22 time=0\n",
      "note_off channel=0 note=47 velocity=64 time=1\n",
      "note_on channel=0 note=48 velocity=52 time=0\n",
      "note_off channel=0 note=84 velocity=64 time=0\n",
      "note_on channel=0 note=88 velocity=57 time=0\n",
      "note_on channel=0 note=92 velocity=38 time=0\n",
      "note_on channel=0 note=72 velocity=52 time=1\n",
      "note_off channel=0 note=78 velocity=64 time=0\n",
      "note_on channel=0 note=79 velocity=68 time=0\n",
      "note_off channel=0 note=83 velocity=64 time=0\n",
      "note_off channel=0 note=93 velocity=64 time=0\n",
      "note_off channel=0 note=66 velocity=64 time=1\n",
      "note_on channel=0 note=67 velocity=46 time=0\n",
      "note_off channel=0 note=75 velocity=64 time=0\n",
      "note_on channel=0 note=76 velocity=52 time=0\n",
      "note_on channel=0 note=78 velocity=49 time=0\n",
      "note_off channel=0 note=94 velocity=64 time=0\n",
      "note_off channel=0 note=81 velocity=64 time=1\n",
      "note_on channel=0 note=82 velocity=61 time=0\n",
      "note_on channel=0 note=75 velocity=32 time=1\n",
      "note_off channel=0 note=78 velocity=64 time=0\n",
      "note_off channel=0 note=85 velocity=64 time=0\n",
      "note_off channel=0 note=89 velocity=64 time=1\n",
      "note_on channel=0 note=61 velocity=56 time=1\n",
      "note_off channel=0 note=67 velocity=64 time=0\n",
      "note_on channel=0 note=68 velocity=47 time=0\n",
      "note_off channel=0 note=72 velocity=64 time=0\n",
      "note_off channel=0 note=76 velocity=64 time=0\n",
      "note_on channel=0 note=77 velocity=39 time=0\n",
      "note_off channel=0 note=79 velocity=64 time=0\n",
      "note_on channel=0 note=80 velocity=61 time=0\n",
      "note_off channel=0 note=91 velocity=64 time=0\n",
      "note_off channel=0 note=48 velocity=64 time=1\n",
      "note_on channel=0 note=49 velocity=59 time=0\n",
      "note_on channel=0 note=89 velocity=62 time=0\n",
      "note_off channel=0 note=82 velocity=64 time=1\n",
      "note_on channel=0 note=83 velocity=62 time=0\n",
      "note_on channel=0 note=91 velocity=43 time=0\n",
      "note_off channel=0 note=88 velocity=64 time=2\n",
      "note_off channel=0 note=91 velocity=64 time=1\n",
      "note_off channel=0 note=77 velocity=64 time=1\n",
      "note_on channel=0 note=82 velocity=60 time=1\n",
      "note_off channel=0 note=83 velocity=64 time=0\n",
      "note_on channel=0 note=88 velocity=69 time=1\n",
      "note_off channel=0 note=89 velocity=64 time=0\n",
      "note_on channel=0 note=95 velocity=35 time=0\n",
      "note_off channel=0 note=75 velocity=64 time=1\n",
      "note_on channel=0 note=76 velocity=49 time=0\n",
      "note_on channel=0 note=91 velocity=44 time=0\n",
      "note_on channel=0 note=60 velocity=49 time=1\n",
      "note_off channel=0 note=61 velocity=64 time=0\n",
      "note_on channel=0 note=67 velocity=46 time=0\n",
      "note_off channel=0 note=68 velocity=64 time=0\n",
      "note_on channel=0 note=72 velocity=59 time=0\n",
      "note_on channel=0 note=79 velocity=54 time=0\n",
      "note_on channel=0 note=86 velocity=31 time=0\n",
      "note_on channel=0 note=48 velocity=49 time=1\n",
      "note_off channel=0 note=49 velocity=64 time=0\n",
      "note_off channel=0 note=80 velocity=64 time=0\n",
      "note_on channel=0 note=89 velocity=55 time=0\n",
      "note_off channel=0 note=87 velocity=64 time=1\n",
      "note_off channel=0 note=90 velocity=64 time=0\n",
      "note_on channel=0 note=81 velocity=49 time=1\n",
      "note_off channel=0 note=82 velocity=64 time=0\n",
      "note_off channel=0 note=48 velocity=64 time=1\n",
      "note_on channel=0 note=59 velocity=37 time=0\n",
      "note_off channel=0 note=60 velocity=64 time=0\n",
      "note_on channel=0 note=80 velocity=39 time=0\n",
      "note_on channel=0 note=87 velocity=26 time=0\n",
      "note_on channel=0 note=90 velocity=63 time=0\n",
      "note_on channel=0 note=71 velocity=50 time=1\n",
      "note_off channel=0 note=72 velocity=64 time=0\n",
      "note_on channel=0 note=75 velocity=69 time=0\n",
      "note_off channel=0 note=76 velocity=64 time=0\n",
      "note_on channel=0 note=78 velocity=67 time=0\n",
      "note_off channel=0 note=79 velocity=64 time=0\n",
      "note_on channel=0 note=82 velocity=42 time=0\n",
      "note_on channel=0 note=84 velocity=34 time=0\n",
      "note_off channel=0 note=91 velocity=64 time=0\n",
      "note_on channel=0 note=47 velocity=34 time=1\n",
      "note_on channel=0 note=66 velocity=45 time=0\n",
      "note_off channel=0 note=67 velocity=64 time=0\n",
      "note_off channel=0 note=80 velocity=64 time=0\n",
      "note_on channel=0 note=85 velocity=39 time=0\n",
      "note_off channel=0 note=86 velocity=64 time=0\n",
      "note_off channel=0 note=87 velocity=64 time=1\n",
      "note_on channel=0 note=91 velocity=41 time=1\n",
      "note_on channel=0 note=80 velocity=49 time=1\n",
      "note_off channel=0 note=82 velocity=64 time=0\n",
      "note_on channel=0 note=83 velocity=57 time=0\n",
      "note_off channel=0 note=89 velocity=64 time=0\n",
      "note_off channel=0 note=81 velocity=64 time=1\n",
      "note_off channel=0 note=92 velocity=64 time=0\n",
      "note_off channel=0 note=47 velocity=64 time=1\n",
      "note_on channel=0 note=47 velocity=40 time=1\n",
      "note_on channel=0 note=94 velocity=25 time=4\n",
      "note_off channel=0 note=47 velocity=64 time=2\n",
      "note_on channel=0 note=47 velocity=38 time=1\n",
      "note_on channel=0 note=93 velocity=38 time=0\n",
      "note_off channel=0 note=84 velocity=64 time=4\n",
      "note_on channel=0 note=84 velocity=39 time=1\n",
      "note_off channel=0 note=47 velocity=64 time=1\n",
      "note_on channel=0 note=47 velocity=35 time=1\n",
      "note_off channel=0 note=94 velocity=64 time=1\n",
      "note_on channel=0 note=70 velocity=30 time=1\n",
      "note_off channel=0 note=71 velocity=64 time=0\n",
      "note_on channel=0 note=86 velocity=12 time=0\n",
      "note_on channel=0 note=58 velocity=38 time=1\n",
      "note_off channel=0 note=59 velocity=64 time=0\n",
      "note_off channel=0 note=66 velocity=64 time=0\n",
      "note_on channel=0 note=74 velocity=56 time=0\n",
      "note_off channel=0 note=75 velocity=64 time=0\n",
      "note_on channel=0 note=77 velocity=55 time=0\n",
      "note_off channel=0 note=78 velocity=64 time=0\n",
      "note_on channel=0 note=82 velocity=61 time=0\n",
      "note_off channel=0 note=83 velocity=64 time=0\n",
      "note_on channel=0 note=46 velocity=43 time=1\n",
      "note_off channel=0 note=47 velocity=64 time=0\n",
      "note_off channel=0 note=85 velocity=64 time=0\n",
      "note_off channel=0 note=93 velocity=64 time=0\n",
      "note_on channel=0 note=66 velocity=38 time=1\n",
      "note_off channel=0 note=86 velocity=64 time=0\n",
      "note_on channel=0 note=93 velocity=38 time=0\n",
      "note_off channel=0 note=46 velocity=64 time=1\n",
      "note_on channel=0 note=47 velocity=45 time=0\n",
      "note_off channel=0 note=58 velocity=64 time=0\n",
      "note_off channel=0 note=70 velocity=64 time=0\n",
      "note_off channel=0 note=77 velocity=64 time=0\n",
      "note_on channel=0 note=78 velocity=65 time=0\n",
      "note_off channel=0 note=82 velocity=64 time=0\n",
      "note_on channel=0 note=83 velocity=60 time=0\n",
      "note_off channel=0 note=84 velocity=64 time=0\n",
      "note_on channel=0 note=85 velocity=43 time=0\n",
      "note_off channel=0 note=74 velocity=64 time=1\n",
      "note_on channel=0 note=75 velocity=57 time=0\n",
      "note_off channel=0 note=80 velocity=64 time=0\n",
      "note_on channel=0 note=81 velocity=51 time=0\n",
      "note_off channel=0 note=47 velocity=64 time=1\n",
      "note_on channel=0 note=84 velocity=24 time=0\n",
      "note_off channel=0 note=88 velocity=64 time=0\n",
      "note_on channel=0 note=89 velocity=57 time=0\n",
      "note_off channel=0 note=91 velocity=64 time=0\n",
      "note_on channel=0 note=92 velocity=33 time=0\n",
      "note_on channel=0 note=49 velocity=33 time=1\n",
      "note_on channel=0 note=60 velocity=44 time=0\n",
      "note_off channel=0 note=66 velocity=64 time=0\n",
      "note_on channel=0 note=67 velocity=45 time=0\n",
      "note_on channel=0 note=72 velocity=51 time=0\n",
      "note_on channel=0 note=79 velocity=59 time=0\n",
      "note_off channel=0 note=83 velocity=64 time=0\n",
      "note_on channel=0 note=88 velocity=62 time=0\n",
      "note_off channel=0 note=75 velocity=64 time=1\n",
      "note_off channel=0 note=78 velocity=64 time=0\n",
      "note_off channel=0 note=81 velocity=64 time=0\n",
      "note_on channel=0 note=82 velocity=55 time=0\n",
      "note_off channel=0 note=85 velocity=64 time=0\n",
      "note_on channel=0 note=86 velocity=29 time=0\n",
      "note_off channel=0 note=89 velocity=64 time=0\n",
      "note_on channel=0 note=48 velocity=51 time=1\n",
      "note_off channel=0 note=49 velocity=64 time=0\n",
      "note_on channel=0 note=75 velocity=47 time=0\n",
      "note_on channel=0 note=78 velocity=49 time=0\n",
      "note_off channel=0 note=79 velocity=64 time=1\n",
      "note_on channel=0 note=80 velocity=54 time=0\n",
      "note_off channel=0 note=84 velocity=64 time=0\n",
      "note_on channel=0 note=85 velocity=31 time=0\n",
      "note_on channel=0 note=76 velocity=50 time=1\n",
      "note_off channel=0 note=78 velocity=64 time=0\n",
      "note_on channel=0 note=79 velocity=52 time=0\n",
      "note_off channel=0 note=86 velocity=64 time=0\n",
      "note_on channel=0 note=78 velocity=35 time=1\n",
      "note_off channel=0 note=80 velocity=64 time=0\n",
      "note_off channel=0 note=85 velocity=64 time=0\n",
      "note_off channel=0 note=75 velocity=64 time=1\n",
      "note_off channel=0 note=78 velocity=64 time=1\n",
      "note_on channel=0 note=89 velocity=62 time=0\n",
      "note_on channel=0 note=47 velocity=33 time=2\n",
      "note_off channel=0 note=48 velocity=64 time=0\n",
      "note_off channel=0 note=60 velocity=64 time=0\n",
      "note_on channel=0 note=77 velocity=29 time=0\n",
      "note_on channel=0 note=80 velocity=29 time=0\n",
      "note_on channel=0 note=81 velocity=49 time=0\n",
      "note_off channel=0 note=82 velocity=64 time=0\n",
      "note_on channel=0 note=85 velocity=45 time=0\n",
      "note_off channel=0 note=101 velocity=64 time=0\n",
      "note_on channel=0 note=66 velocity=41 time=1\n",
      "note_off channel=0 note=67 velocity=64 time=0\n",
      "note_on channel=0 note=71 velocity=46 time=0\n",
      "note_off channel=0 note=72 velocity=64 time=0\n",
      "note_on channel=0 note=75 velocity=58 time=0\n",
      "note_off channel=0 note=76 velocity=64 time=0\n",
      "note_on channel=0 note=78 velocity=63 time=0\n",
      "note_off channel=0 note=79 velocity=64 time=0\n",
      "note_on channel=0 note=82 velocity=38 time=0\n",
      "note_on channel=0 note=83 velocity=71 time=0\n",
      "note_off channel=0 note=80 velocity=64 time=1\n",
      "note_on channel=0 note=87 velocity=65 time=0\n",
      "note_off channel=0 note=47 velocity=64 time=1\n",
      "note_on channel=0 note=48 velocity=36 time=0\n",
      "note_off channel=0 note=77 velocity=64 time=0\n",
      "note_off channel=0 note=88 velocity=64 time=0\n",
      "note_on channel=0 note=88 velocity=68 time=1\n",
      "note_on channel=0 note=91 velocity=34 time=0\n",
      "note_off channel=0 note=48 velocity=64 time=1\n",
      "note_off channel=0 note=89 velocity=64 time=0\n",
      "note_on channel=0 note=77 velocity=31 time=1\n",
      "note_on channel=0 note=47 velocity=41 time=2\n",
      "note_off channel=0 note=77 velocity=64 time=0\n",
      "note_off channel=0 note=82 velocity=64 time=1\n",
      "note_off channel=0 note=100 velocity=64 time=0\n",
      "note_off channel=0 note=47 velocity=64 time=4\n",
      "note_on channel=0 note=48 velocity=35 time=2\n",
      "note_on channel=0 note=101 velocity=34 time=0\n",
      "note_off channel=0 note=48 velocity=64 time=3\n",
      "note_on channel=0 note=47 velocity=33 time=2\n",
      "note_off channel=0 note=88 velocity=64 time=0\n",
      "note_on channel=0 note=89 velocity=61 time=0\n",
      "note_on channel=0 note=94 velocity=15 time=1\n",
      "note_off channel=0 note=91 velocity=64 time=3\n",
      "note_on channel=0 note=73 velocity=13 time=1\n",
      "note_on channel=0 note=91 velocity=27 time=0\n",
      "note_off channel=0 note=47 velocity=64 time=3\n",
      "note_on channel=0 note=100 velocity=24 time=1\n",
      "note_on channel=0 note=48 velocity=36 time=1\n",
      "note_off channel=0 note=73 velocity=64 time=2\n",
      "note_on channel=0 note=47 velocity=40 time=1\n",
      "note_off channel=0 note=48 velocity=64 time=0\n",
      "note_on channel=0 note=80 velocity=66 time=0\n",
      "note_off channel=0 note=81 velocity=64 time=0\n",
      "note_on channel=0 note=88 velocity=43 time=0\n",
      "note_off channel=0 note=89 velocity=64 time=0\n",
      "note_off channel=0 note=94 velocity=64 time=0\n",
      "note_off channel=0 note=100 velocity=64 time=0\n",
      "note_off channel=0 note=71 velocity=64 time=1\n",
      "note_off channel=0 note=101 velocity=64 time=0\n",
      "note_on channel=0 note=46 velocity=44 time=1\n",
      "note_off channel=0 note=47 velocity=64 time=0\n",
      "note_on channel=0 note=89 velocity=31 time=0\n",
      "note_off channel=0 note=88 velocity=64 time=1\n",
      "note_off channel=0 note=66 velocity=64 time=1\n",
      "note_off channel=0 note=78 velocity=64 time=0\n",
      "note_off channel=0 note=89 velocity=64 time=0\n",
      "note_off channel=0 note=46 velocity=64 time=1\n",
      "note_off channel=0 note=75 velocity=64 time=0\n",
      "note_on channel=0 note=78 velocity=12 time=0\n",
      "note_on channel=0 note=84 velocity=19 time=0\n",
      "note_on channel=0 note=49 velocity=67 time=2\n",
      "note_on channel=0 note=68 velocity=42 time=1\n",
      "note_on channel=0 note=77 velocity=40 time=0\n",
      "note_off channel=0 note=78 velocity=64 time=0\n",
      "note_off channel=0 note=84 velocity=64 time=0\n",
      "note_on channel=0 note=89 velocity=57 time=0\n",
      "note_on channel=0 note=84 velocity=17 time=1\n",
      "note_on channel=0 note=75 velocity=30 time=1\n",
      "note_off channel=0 note=95 velocity=64 time=0\n",
      "note_off channel=0 note=92 velocity=64 time=3\n",
      "note_off channel=0 note=91 velocity=64 time=2\n",
      "note_on channel=0 note=91 velocity=43 time=2\n",
      "note_off channel=0 note=93 velocity=64 time=1\n",
      "note_off channel=0 note=90 velocity=64 time=2\n",
      "note_off channel=0 note=84 velocity=64 time=3\n",
      "note_on channel=0 note=90 velocity=16 time=6\n",
      "note_off channel=0 note=90 velocity=64 time=3\n",
      "note_on channel=0 note=90 velocity=29 time=2\n",
      "note_on channel=0 note=93 velocity=19 time=0\n",
      "note_off channel=0 note=83 velocity=64 time=3\n",
      "note_off channel=0 note=75 velocity=64 time=1\n",
      "note_on channel=0 note=83 velocity=57 time=4\n",
      "note_off channel=0 note=90 velocity=64 time=1\n",
      "note_on channel=0 note=75 velocity=14 time=3\n",
      "note_on channel=0 note=90 velocity=29 time=4\n",
      "note_off channel=0 note=93 velocity=64 time=4\n",
      "note_on channel=0 note=93 velocity=26 time=3\n",
      "note_off channel=0 note=75 velocity=64 time=2\n",
      "note_off channel=0 note=90 velocity=64 time=0\n",
      "note_on channel=0 note=90 velocity=25 time=1\n",
      "note_on channel=0 note=82 velocity=46 time=2\n",
      "note_off channel=0 note=83 velocity=64 time=0\n",
      "note_off channel=0 note=82 velocity=64 time=2\n",
      "note_on channel=0 note=83 velocity=65 time=0\n",
      "note_off channel=0 note=90 velocity=64 time=2\n",
      "note_on channel=0 note=90 velocity=28 time=2\n",
      "note_off channel=0 note=91 velocity=64 time=0\n",
      "note_on channel=0 note=100 velocity=29 time=0\n",
      "note_on channel=0 note=76 velocity=38 time=1\n",
      "note_off channel=0 note=77 velocity=64 time=0\n",
      "note_on channel=0 note=82 velocity=68 time=1\n",
      "note_off channel=0 note=83 velocity=64 time=0\n",
      "note_on channel=0 note=88 velocity=50 time=0\n",
      "note_off channel=0 note=89 velocity=64 time=0\n",
      "note_on channel=0 note=91 velocity=29 time=1\n",
      "note_on channel=0 note=60 velocity=42 time=2\n",
      "note_on channel=0 note=67 velocity=40 time=0\n",
      "note_off channel=0 note=68 velocity=64 time=0\n",
      "note_off channel=0 note=80 velocity=64 time=0\n",
      "note_off channel=0 note=85 velocity=64 time=0\n",
      "note_off channel=0 note=87 velocity=64 time=0\n",
      "note_on channel=0 note=48 velocity=53 time=1\n",
      "note_off channel=0 note=49 velocity=64 time=0\n",
      "note_on channel=0 note=80 velocity=77 time=0\n",
      "note_on channel=0 note=87 velocity=55 time=0\n",
      "note_off channel=0 note=60 velocity=64 time=1\n",
      "note_on channel=0 note=61 velocity=48 time=0\n",
      "note_on channel=0 note=75 velocity=20 time=0\n",
      "note_off channel=0 note=91 velocity=64 time=0\n",
      "note_off channel=0 note=48 velocity=64 time=1\n",
      "note_on channel=0 note=49 velocity=62 time=0\n",
      "note_off channel=0 note=67 velocity=64 time=0\n",
      "note_on channel=0 note=68 velocity=45 time=0\n",
      "note_on channel=0 note=91 velocity=29 time=0\n",
      "note_off channel=0 note=76 velocity=64 time=3\n",
      "note_on channel=0 note=77 velocity=26 time=0\n",
      "note_off channel=0 note=91 velocity=64 time=0\n",
      "note_off channel=0 note=88 velocity=64 time=1\n",
      "note_on channel=0 note=88 velocity=54 time=1\n",
      "note_off channel=0 note=77 velocity=64 time=1\n",
      "note_off channel=0 note=88 velocity=64 time=1\n",
      "note_on channel=0 note=89 velocity=55 time=0\n",
      "note_on channel=0 note=77 velocity=29 time=1\n",
      "note_off channel=0 note=82 velocity=64 time=6\n",
      "note_on channel=0 note=83 velocity=67 time=0\n",
      "note_on channel=0 note=91 velocity=44 time=2\n",
      "note_off channel=0 note=90 velocity=64 time=1\n",
      "note_off channel=0 note=100 velocity=64 time=1\n",
      "note_off channel=0 note=75 velocity=64 time=1\n",
      "note_on channel=0 note=90 velocity=36 time=1\n",
      "note_on channel=0 note=75 velocity=30 time=6\n",
      "note_off channel=0 note=90 velocity=64 time=0\n",
      "note_on channel=0 note=84 velocity=43 time=9\n",
      "note_off channel=0 note=93 velocity=64 time=0\n",
      "note_on channel=0 note=90 velocity=25 time=1\n",
      "note_off channel=0 note=77 velocity=64 time=3\n",
      "note_on channel=0 note=88 velocity=34 time=3\n",
      "note_on channel=0 note=77 velocity=33 time=1\n",
      "note_on channel=0 note=94 velocity=20 time=0\n",
      "note_off channel=0 note=75 velocity=64 time=1\n",
      "note_off channel=0 note=77 velocity=64 time=1\n",
      "note_on channel=0 note=77 velocity=33 time=1\n",
      "note_off channel=0 note=94 velocity=64 time=0\n",
      "note_on channel=0 note=94 velocity=16 time=1\n",
      "note_off channel=0 note=77 velocity=64 time=1\n",
      "note_on channel=0 note=77 velocity=38 time=1\n",
      "note_off channel=0 note=88 velocity=64 time=2\n",
      "note_on channel=0 note=93 velocity=11 time=0\n",
      "note_off channel=0 note=94 velocity=64 time=0\n",
      "note_off channel=0 note=90 velocity=64 time=6\n",
      "note_off channel=0 note=93 velocity=64 time=0\n",
      "note_on channel=0 note=75 velocity=31 time=1\n",
      "note_on channel=0 note=78 velocity=24 time=0\n",
      "note_on channel=0 note=88 velocity=35 time=0\n",
      "note_off channel=0 note=77 velocity=64 time=1\n",
      "note_on channel=0 note=93 velocity=11 time=2\n",
      "note_on channel=0 note=77 velocity=21 time=1\n",
      "note_off channel=0 note=78 velocity=64 time=0\n",
      "note_off channel=0 note=88 velocity=64 time=0\n",
      "note_on channel=0 note=90 velocity=51 time=1\n",
      "note_on channel=0 note=82 velocity=48 time=1\n",
      "note_off channel=0 note=83 velocity=64 time=0\n",
      "note_on channel=0 note=86 velocity=23 time=0\n",
      "note_on channel=0 note=88 velocity=40 time=0\n",
      "note_off channel=0 note=93 velocity=64 time=0\n",
      "note_off channel=0 note=89 velocity=64 time=1\n",
      "note_on channel=0 note=85 velocity=18 time=1\n",
      "note_off channel=0 note=77 velocity=64 time=1\n",
      "note_on channel=0 note=78 velocity=14 time=0\n",
      "note_off channel=0 note=82 velocity=64 time=0\n",
      "note_on channel=0 note=82 velocity=48 time=1\n",
      "note_on channel=0 note=77 velocity=20 time=1\n",
      "note_off channel=0 note=82 velocity=64 time=1\n",
      "note_on channel=0 note=83 velocity=37 time=0\n",
      "note_off channel=0 note=78 velocity=64 time=1\n",
      "note_on channel=0 note=78 velocity=21 time=1\n",
      "note_on channel=0 note=82 velocity=43 time=0\n",
      "note_off channel=0 note=83 velocity=64 time=0\n",
      "note_off channel=0 note=77 velocity=64 time=1\n",
      "note_off channel=0 note=85 velocity=64 time=0\n",
      "note_off channel=0 note=88 velocity=64 time=0\n",
      "note_on channel=0 note=88 velocity=56 time=1\n",
      "note_on channel=0 note=77 velocity=36 time=2\n",
      "note_off channel=0 note=78 velocity=64 time=0\n",
      "note_off channel=0 note=86 velocity=64 time=0\n",
      "note_off channel=0 note=75 velocity=64 time=7\n",
      "note_on channel=0 note=78 velocity=31 time=1\n",
      "note_on channel=0 note=83 velocity=46 time=0\n",
      "note_off channel=0 note=82 velocity=64 time=1\n",
      "note_off channel=0 note=78 velocity=64 time=1\n",
      "note_on channel=0 note=78 velocity=31 time=1\n",
      "note_on channel=0 note=86 velocity=22 time=0\n",
      "note_on channel=0 note=93 velocity=25 time=0\n",
      "note_off channel=0 note=77 velocity=64 time=1\n",
      "note_off channel=0 note=68 velocity=64 time=1\n",
      "note_on channel=0 note=75 velocity=36 time=2\n",
      "note_on channel=0 note=82 velocity=33 time=3\n",
      "note_off channel=0 note=83 velocity=64 time=0\n",
      "note_off channel=0 note=61 velocity=64 time=2\n",
      "note_off channel=0 note=80 velocity=64 time=0\n",
      "note_on channel=0 note=95 velocity=31 time=0\n",
      "note_off channel=0 note=49 velocity=64 time=4\n",
      "note_off channel=0 note=78 velocity=64 time=1\n",
      "note_on channel=0 note=83 velocity=38 time=0\n",
      "note_off channel=0 note=82 velocity=64 time=1\n",
      "note_on channel=0 note=73 velocity=11 time=2\n",
      "note_off channel=0 note=86 velocity=64 time=0\n",
      "note_on channel=0 note=77 velocity=18 time=3\n",
      "note_on channel=0 note=80 velocity=42 time=1\n",
      "note_off channel=0 note=73 velocity=64 time=1\n",
      "note_off channel=0 note=77 velocity=64 time=2\n",
      "note_on channel=0 note=72 velocity=12 time=2\n",
      "note_on channel=0 note=78 velocity=23 time=0\n",
      "note_on channel=0 note=77 velocity=28 time=5\n",
      "note_off channel=0 note=78 velocity=64 time=1\n",
      "note_on channel=0 note=82 velocity=44 time=0\n",
      "note_on channel=0 note=86 velocity=22 time=0\n",
      "note_on channel=0 note=92 velocity=46 time=0\n",
      "note_off channel=0 note=83 velocity=64 time=1\n",
      "note_off channel=0 note=77 velocity=64 time=1\n",
      "note_off channel=0 note=91 velocity=64 time=1\n",
      "note_on channel=0 note=78 velocity=29 time=1\n",
      "note_on channel=0 note=83 velocity=37 time=0\n",
      "note_off channel=0 note=87 velocity=64 time=1\n",
      "note_on channel=0 note=77 velocity=30 time=1\n",
      "note_off channel=0 note=83 velocity=64 time=0\n",
      "note_off channel=0 note=78 velocity=64 time=2\n",
      "note_on channel=0 note=78 velocity=23 time=1\n",
      "note_off channel=0 note=77 velocity=64 time=1\n",
      "note_on channel=0 note=91 velocity=15 time=0\n",
      "note_on channel=0 note=77 velocity=24 time=2\n",
      "note_off channel=0 note=86 velocity=64 time=0\n",
      "note_off channel=0 note=78 velocity=64 time=1\n",
      "note_off channel=0 note=77 velocity=64 time=2\n",
      "note_on channel=0 note=83 velocity=73 time=1\n",
      "note_off channel=0 note=82 velocity=64 time=1\n",
      "note_on channel=0 note=85 velocity=60 time=0\n",
      "note_off channel=0 note=91 velocity=64 time=0\n",
      "note_on channel=0 note=91 velocity=36 time=1\n",
      "note_off channel=0 note=72 velocity=64 time=2\n",
      "note_off channel=0 note=93 velocity=64 time=0\n",
      "note_on channel=0 note=52 velocity=72 time=2\n",
      "note_on channel=0 note=67 velocity=16 time=0\n",
      "note_on channel=0 note=71 velocity=47 time=1\n",
      "note_off channel=0 note=95 velocity=64 time=0\n",
      "note_off channel=0 note=75 velocity=64 time=1\n",
      "note_on channel=0 note=76 velocity=57 time=0\n",
      "note_on channel=0 note=93 velocity=33 time=0\n",
      "note_on channel=0 note=101 velocity=57 time=0\n",
      "note_off channel=0 note=67 velocity=64 time=1\n",
      "note_on channel=0 note=73 velocity=21 time=0\n",
      "note_off channel=0 note=80 velocity=64 time=0\n",
      "note_on channel=0 note=99 velocity=23 time=0\n",
      "note_on channel=0 note=80 velocity=56 time=1\n",
      "note_off channel=0 note=73 velocity=64 time=2\n",
      "note_on channel=0 note=79 velocity=64 time=0\n",
      "note_on channel=0 note=98 velocity=20 time=0\n",
      "note_off channel=0 note=99 velocity=64 time=0\n",
      "note_on channel=0 note=63 velocity=56 time=1\n",
      "note_on channel=0 note=70 velocity=54 time=0\n",
      "note_off channel=0 note=71 velocity=64 time=0\n",
      "note_on channel=0 note=73 velocity=18 time=0\n",
      "note_off channel=0 note=80 velocity=64 time=0\n",
      "note_on channel=0 note=82 velocity=70 time=0\n",
      "note_off channel=0 note=83 velocity=64 time=0\n",
      "note_on channel=0 note=99 velocity=52 time=0\n",
      "note_on channel=0 note=51 velocity=68 time=1\n",
      "note_off channel=0 note=52 velocity=64 time=0\n",
      "note_on channel=0 note=75 velocity=81 time=0\n",
      "note_off channel=0 note=76 velocity=64 time=0\n",
      "note_on channel=0 note=100 velocity=69 time=0\n",
      "note_on channel=0 note=89 velocity=63 time=2\n",
      "note_on channel=0 note=80 velocity=29 time=1\n",
      "note_off channel=0 note=90 velocity=64 time=0\n",
      "note_on channel=0 note=103 velocity=41 time=0\n",
      "note_on channel=0 note=90 velocity=72 time=1\n",
      "note_on channel=0 note=77 velocity=21 time=1\n",
      "note_off channel=0 note=80 velocity=64 time=0\n",
      "note_on channel=0 note=83 velocity=44 time=1\n",
      "note_off channel=0 note=84 velocity=64 time=0\n",
      "note_off channel=0 note=88 velocity=64 time=0\n",
      "note_off channel=0 note=82 velocity=64 time=1\n",
      "note_on channel=0 note=80 velocity=20 time=1\n",
      "note_off channel=0 note=70 velocity=64 time=2\n",
      "note_off channel=0 note=77 velocity=64 time=0\n",
      "note_on channel=0 note=82 velocity=46 time=0\n",
      "note_on channel=0 note=84 velocity=54 time=0\n",
      "note_off channel=0 note=93 velocity=64 time=0\n",
      "note_off channel=0 note=98 velocity=64 time=0\n",
      "note_on channel=0 note=50 velocity=70 time=1\n",
      "note_off channel=0 note=51 velocity=64 time=0\n",
      "note_on channel=0 note=70 velocity=50 time=0\n",
      "note_off channel=0 note=73 velocity=64 time=0\n",
      "note_on channel=0 note=78 velocity=72 time=0\n",
      "note_off channel=0 note=85 velocity=64 time=0\n",
      "note_on channel=0 note=93 velocity=44 time=0\n",
      "note_off channel=0 note=103 velocity=64 time=0\n",
      "note_off channel=0 note=79 velocity=64 time=1\n",
      "note_off channel=0 note=83 velocity=64 time=0\n",
      "note_off channel=0 note=63 velocity=64 time=2\n",
      "note_on channel=0 note=69 velocity=52 time=0\n",
      "note_off channel=0 note=70 velocity=64 time=0\n",
      "note_on channel=0 note=74 velocity=74 time=0\n",
      "note_off channel=0 note=75 velocity=64 time=0\n",
      "note_off channel=0 note=82 velocity=64 time=0\n",
      "note_on channel=0 note=88 velocity=74 time=0\n",
      "note_off channel=0 note=89 velocity=64 time=0\n",
      "note_on channel=0 note=97 velocity=22 time=0\n",
      "note_on channel=0 note=103 velocity=45 time=0\n",
      "note_on channel=0 note=82 velocity=36 time=2\n",
      "note_off channel=0 note=91 velocity=64 time=2\n",
      "note_on channel=0 note=95 velocity=37 time=0\n",
      "note_on channel=0 note=85 velocity=28 time=1\n",
      "note_on channel=0 note=87 velocity=21 time=2\n",
      "note_on channel=0 note=91 velocity=13 time=0\n",
      "note_off channel=0 note=95 velocity=64 time=0\n",
      "note_on channel=0 note=95 velocity=41 time=1\n",
      "note_off channel=0 note=97 velocity=64 time=1\n",
      "note_off channel=0 note=91 velocity=64 time=2\n",
      "note_on channel=0 note=91 velocity=19 time=7\n",
      "note_off channel=0 note=95 velocity=64 time=0\n",
      "note_on channel=0 note=95 velocity=43 time=1\n",
      "note_off channel=0 note=95 velocity=64 time=3\n",
      "note_on channel=0 note=95 velocity=40 time=1\n",
      "note_off channel=0 note=91 velocity=64 time=2\n",
      "note_off channel=0 note=95 velocity=64 time=0\n",
      "note_on channel=0 note=95 velocity=38 time=1\n",
      "note_on channel=0 note=83 velocity=67 time=1\n",
      "note_off channel=0 note=80 velocity=64 time=1\n",
      "note_off channel=0 note=82 velocity=64 time=0\n",
      "note_on channel=0 note=94 velocity=38 time=1\n",
      "note_off channel=0 note=95 velocity=64 time=0\n",
      "note_off channel=0 note=87 velocity=64 time=1\n",
      "note_on channel=0 note=91 velocity=54 time=4\n",
      "note_off channel=0 note=103 velocity=64 time=2\n",
      "note_on channel=0 note=61 velocity=57 time=1\n",
      "note_off channel=0 note=85 velocity=64 time=0\n",
      "note_on channel=0 note=89 velocity=66 time=0\n",
      "note_off channel=0 note=90 velocity=64 time=0\n",
      "note_on channel=0 note=68 velocity=42 time=1\n",
      "note_off channel=0 note=69 velocity=64 time=0\n",
      "note_off channel=0 note=74 velocity=64 time=0\n",
      "note_off channel=0 note=78 velocity=64 time=0\n",
      "note_on channel=0 note=80 velocity=57 time=0\n",
      "note_off channel=0 note=84 velocity=64 time=0\n",
      "note_on channel=0 note=90 velocity=43 time=0\n",
      "note_off channel=0 note=93 velocity=64 time=0\n",
      "note_on channel=0 note=78 velocity=50 time=1\n",
      "note_on channel=0 note=96 velocity=21 time=0\n",
      "note_on channel=0 note=49 velocity=69 time=1\n",
      "note_off channel=0 note=50 velocity=64 time=0\n",
      "note_on channel=0 note=75 velocity=30 time=1\n",
      "note_off channel=0 note=88 velocity=64 time=0\n",
      "note_off channel=0 note=90 velocity=64 time=0\n",
      "note_on channel=0 note=77 velocity=62 time=1\n",
      "note_off channel=0 note=78 velocity=64 time=0\n",
      "note_on channel=0 note=88 velocity=48 time=0\n",
      "note_on channel=0 note=90 velocity=57 time=0\n",
      "note_off channel=0 note=68 velocity=64 time=1\n",
      "note_on channel=0 note=69 velocity=37 time=0\n",
      "note_off channel=0 note=75 velocity=64 time=0\n",
      "note_off channel=0 note=80 velocity=64 time=0\n",
      "note_on channel=0 note=81 velocity=40 time=0\n",
      "note_off channel=0 note=89 velocity=64 time=0\n",
      "note_off channel=0 note=49 velocity=64 time=1\n",
      "note_on channel=0 note=50 velocity=70 time=0\n",
      "note_off channel=0 note=61 velocity=64 time=0\n",
      "note_on channel=0 note=74 velocity=65 time=0\n",
      "note_off channel=0 note=77 velocity=64 time=0\n",
      "note_on channel=0 note=78 velocity=65 time=0\n",
      "note_on channel=0 note=80 velocity=19 time=0\n",
      "note_on channel=0 note=84 velocity=35 time=0\n",
      "note_on channel=0 note=87 velocity=55 time=0\n",
      "note_off channel=0 note=94 velocity=64 time=0\n",
      "note_on channel=0 note=63 velocity=50 time=1\n",
      "note_off channel=0 note=91 velocity=64 time=0\n",
      "note_off channel=0 note=69 velocity=64 time=1\n",
      "note_on channel=0 note=70 velocity=41 time=0\n",
      "note_off channel=0 note=74 velocity=64 time=0\n",
      "note_on channel=0 note=75 velocity=66 time=0\n",
      "note_on channel=0 note=79 velocity=55 time=0\n",
      "note_off channel=0 note=81 velocity=64 time=0\n",
      "note_on channel=0 note=89 velocity=57 time=0\n",
      "note_off channel=0 note=90 velocity=64 time=0\n",
      "note_on channel=0 note=94 velocity=25 time=0\n",
      "note_off channel=0 note=96 velocity=64 time=0\n",
      "note_off channel=0 note=50 velocity=64 time=1\n",
      "note_on channel=0 note=77 velocity=46 time=0\n",
      "note_off channel=0 note=78 velocity=64 time=0\n",
      "note_off channel=0 note=80 velocity=64 time=0\n",
      "note_off channel=0 note=88 velocity=64 time=0\n",
      "note_on channel=0 note=82 velocity=67 time=1\n",
      "note_on channel=0 note=88 velocity=27 time=0\n",
      "note_on channel=0 note=51 velocity=56 time=1\n",
      "note_off channel=0 note=83 velocity=64 time=0\n",
      "note_off channel=0 note=75 velocity=64 time=1\n",
      "note_on channel=0 note=73 velocity=20 time=1\n",
      "note_on channel=0 note=75 velocity=71 time=0\n",
      "note_off channel=0 note=82 velocity=64 time=0\n",
      "note_off channel=0 note=88 velocity=64 time=0\n",
      "note_off channel=0 note=99 velocity=64 time=0\n",
      "note_on channel=0 note=82 velocity=43 time=1\n",
      "note_off channel=0 note=92 velocity=64 time=1\n",
      "note_on channel=0 note=95 velocity=37 time=0\n",
      "note_off channel=0 note=77 velocity=64 time=1\n",
      "note_off channel=0 note=82 velocity=64 time=0\n",
      "note_on channel=0 note=83 velocity=46 time=0\n",
      "note_off channel=0 note=84 velocity=64 time=0\n",
      "note_on channel=0 note=92 velocity=36 time=0\n",
      "note_on channel=0 note=50 velocity=49 time=1\n",
      "note_off channel=0 note=51 velocity=64 time=0\n",
      "note_on channel=0 note=68 velocity=13 time=0\n",
      "note_off channel=0 note=70 velocity=64 time=1\n",
      "note_off channel=0 note=73 velocity=64 time=0\n",
      "note_on channel=0 note=82 velocity=41 time=0\n",
      "note_on channel=0 note=70 velocity=33 time=1\n",
      "note_on channel=0 note=80 velocity=20 time=0\n",
      "note_off channel=0 note=83 velocity=64 time=0\n",
      "note_on channel=0 note=84 velocity=58 time=0\n",
      "note_off channel=0 note=50 velocity=64 time=1\n",
      "note_on channel=0 note=51 velocity=54 time=0\n",
      "note_off channel=0 note=68 velocity=64 time=0\n",
      "note_on channel=0 note=83 velocity=51 time=0\n",
      "note_on channel=0 note=90 velocity=59 time=2\n",
      "note_on channel=0 note=78 velocity=78 time=1\n",
      "note_off channel=0 note=79 velocity=64 time=0\n",
      "note_on channel=0 note=50 velocity=64 time=1\n",
      "note_off channel=0 note=51 velocity=64 time=0\n",
      "note_off channel=0 note=63 velocity=64 time=0\n",
      "note_on channel=0 note=81 velocity=57 time=0\n",
      "note_off channel=0 note=82 velocity=64 time=0\n",
      "note_on channel=0 note=88 velocity=70 time=0\n",
      "note_off channel=0 note=89 velocity=64 time=0\n",
      "note_on channel=0 note=69 velocity=44 time=1\n",
      "note_off channel=0 note=70 velocity=64 time=0\n",
      "note_on channel=0 note=74 velocity=65 time=0\n",
      "note_off channel=0 note=75 velocity=64 time=0\n",
      "note_on channel=0 note=85 velocity=11 time=0\n",
      "note_off channel=0 note=94 velocity=64 time=0\n",
      "note_off channel=0 note=80 velocity=64 time=10\n",
      "note_on channel=0 note=80 velocity=27 time=2\n",
      "note_on channel=0 note=91 velocity=29 time=4\n",
      "note_off channel=0 note=92 velocity=64 time=1\n",
      "note_off channel=0 note=80 velocity=64 time=1\n",
      "note_on channel=0 note=92 velocity=32 time=0\n",
      "note_off channel=0 note=91 velocity=64 time=1\n",
      "note_off channel=0 note=85 velocity=64 time=2\n",
      "note_on channel=0 note=80 velocity=29 time=1\n",
      "note_on channel=0 note=103 velocity=9 time=0\n",
      "note_on channel=0 note=91 velocity=38 time=1\n",
      "note_off channel=0 note=92 velocity=64 time=2\n",
      "note_off channel=0 note=80 velocity=64 time=1\n",
      "note_on channel=0 note=94 velocity=27 time=0\n",
      "note_off channel=0 note=95 velocity=64 time=0\n",
      "note_off channel=0 note=83 velocity=64 time=1\n",
      "note_off channel=0 note=87 velocity=64 time=0\n",
      "note_on channel=0 note=95 velocity=21 time=0\n",
      "note_on channel=0 note=83 velocity=64 time=1\n",
      "note_off channel=0 note=84 velocity=64 time=0\n",
      "note_off channel=0 note=103 velocity=64 time=0\n",
      "note_on channel=0 note=97 velocity=10 time=2\n",
      "note_off channel=0 note=90 velocity=64 time=1\n",
      "note_off channel=0 note=91 velocity=64 time=1\n",
      "note_on channel=0 note=84 velocity=53 time=1\n",
      "note_on channel=0 note=92 velocity=25 time=0\n",
      "note_off channel=0 note=95 velocity=64 time=0\n",
      "note_on channel=0 note=80 velocity=28 time=1\n",
      "note_off channel=0 note=94 velocity=64 time=0\n",
      "note_off channel=0 note=97 velocity=64 time=0\n",
      "note_on channel=0 note=63 velocity=50 time=1\n",
      "note_off channel=0 note=81 velocity=64 time=0\n",
      "note_on channel=0 note=87 velocity=61 time=0\n",
      "note_on channel=0 note=91 velocity=38 time=0\n",
      "note_off channel=0 note=69 velocity=64 time=1\n",
      "note_on channel=0 note=70 velocity=34 time=0\n",
      "note_off channel=0 note=74 velocity=64 time=0\n",
      "note_on channel=0 note=75 velocity=70 time=0\n",
      "note_on channel=0 note=79 velocity=69 time=0\n",
      "note_on channel=0 note=89 velocity=59 time=0\n",
      "note_on channel=0 note=94 velocity=22 time=0\n",
      "note_off channel=0 note=50 velocity=64 time=1\n",
      "note_off channel=0 note=78 velocity=64 time=0\n",
      "note_on channel=0 note=85 velocity=31 time=0\n",
      "note_off channel=0 note=92 velocity=64 time=0\n",
      "note_on channel=0 note=52 velocity=45 time=1\n",
      "note_on channel=0 note=78 velocity=54 time=0\n",
      "note_off channel=0 note=80 velocity=64 time=0\n",
      "note_on channel=0 note=51 velocity=48 time=2\n",
      "note_off channel=0 note=52 velocity=64 time=0\n",
      "note_off channel=0 note=78 velocity=64 time=0\n",
      "note_on channel=0 note=82 velocity=60 time=0\n",
      "note_off channel=0 note=83 velocity=64 time=0\n",
      "note_off channel=0 note=88 velocity=64 time=1\n",
      "note_off channel=0 note=82 velocity=64 time=2\n",
      "note_on channel=0 note=83 velocity=41 time=0\n",
      "note_off channel=0 note=84 velocity=64 time=0\n",
      "note_on channel=0 note=92 velocity=35 time=0\n",
      "note_on channel=0 note=50 velocity=46 time=1\n",
      "note_off channel=0 note=51 velocity=64 time=0\n",
      "note_on channel=0 note=82 velocity=41 time=0\n",
      "note_on channel=0 note=102 velocity=19 time=0\n",
      "note_on channel=0 note=68 velocity=10 time=1\n",
      "note_off channel=0 note=70 velocity=64 time=0\n",
      "note_on channel=0 note=84 velocity=56 time=0\n",
      "note_off channel=0 note=85 velocity=64 time=0\n",
      "note_off channel=0 note=79 velocity=64 time=1\n",
      "note_off channel=0 note=50 velocity=64 time=1\n",
      "note_on channel=0 note=51 velocity=52 time=0\n",
      "note_on channel=0 note=70 velocity=31 time=0\n",
      "note_on channel=0 note=79 velocity=58 time=0\n",
      "note_on channel=0 note=80 velocity=27 time=0\n",
      "note_off channel=0 note=83 velocity=64 time=0\n",
      "note_off channel=0 note=68 velocity=64 time=1\n",
      "note_on channel=0 note=90 velocity=50 time=0\n",
      "note_on channel=0 note=78 velocity=70 time=1\n",
      "note_off channel=0 note=79 velocity=64 time=0\n",
      "note_off channel=0 note=100 velocity=64 time=0\n",
      "note_off channel=0 note=102 velocity=64 time=0\n",
      "note_on channel=0 note=50 velocity=66 time=1\n",
      "note_off channel=0 note=51 velocity=64 time=0\n",
      "note_off channel=0 note=63 velocity=64 time=0\n",
      "note_on channel=0 note=81 velocity=64 time=0\n",
      "note_off channel=0 note=82 velocity=64 time=0\n",
      "note_on channel=0 note=83 velocity=42 time=0\n",
      "note_on channel=0 note=86 velocity=51 time=0\n",
      "note_off channel=0 note=87 velocity=64 time=0\n",
      "note_on channel=0 note=88 velocity=62 time=0\n",
      "note_off channel=0 note=89 velocity=64 time=0\n",
      "note_off channel=0 note=94 velocity=64 time=0\n",
      "note_on channel=0 note=69 velocity=40 time=1\n",
      "note_off channel=0 note=70 velocity=64 time=0\n",
      "note_on channel=0 note=74 velocity=59 time=0\n",
      "note_off channel=0 note=75 velocity=64 time=0\n",
      "note_off channel=0 note=91 velocity=64 time=2\n",
      "note_off channel=0 note=80 velocity=64 time=6\n",
      "note_on channel=0 note=80 velocity=29 time=1\n",
      "note_off channel=0 note=80 velocity=64 time=2\n",
      "note_on channel=0 note=80 velocity=33 time=1\n",
      "note_off channel=0 note=80 velocity=64 time=5\n",
      "note_on channel=0 note=87 velocity=14 time=0\n",
      "note_on channel=0 note=94 velocity=23 time=2\n",
      "note_off channel=0 note=83 velocity=64 time=1\n",
      "note_on channel=0 note=91 velocity=40 time=0\n",
      "note_off channel=0 note=92 velocity=64 time=0\n",
      "note_off channel=0 note=87 velocity=64 time=1\n",
      "note_on channel=0 note=83 velocity=70 time=1\n",
      "note_off channel=0 note=84 velocity=64 time=0\n",
      "note_on channel=0 note=89 velocity=44 time=1\n",
      "note_off channel=0 note=90 velocity=64 time=0\n",
      "note_on channel=0 note=61 velocity=47 time=1\n",
      "note_on channel=0 note=68 velocity=40 time=1\n",
      "note_off channel=0 note=69 velocity=64 time=0\n",
      "note_off channel=0 note=74 velocity=64 time=0\n",
      "note_on channel=0 note=85 velocity=55 time=0\n",
      "note_off channel=0 note=86 velocity=64 time=0\n",
      "note_on channel=0 note=92 velocity=20 time=0\n",
      "note_off channel=0 note=101 velocity=64 time=0\n",
      "note_on channel=0 note=75 velocity=32 time=1\n",
      "note_on channel=0 note=80 velocity=63 time=0\n",
      "note_off channel=0 note=81 velocity=64 time=0\n",
      "note_on channel=0 note=49 velocity=72 time=1\n",
      "note_off channel=0 note=50 velocity=64 time=0\n",
      "note_on channel=0 note=77 velocity=54 time=2\n",
      "note_off channel=0 note=78 velocity=64 time=0\n",
      "note_off channel=0 note=68 velocity=64 time=1\n",
      "note_on channel=0 note=69 velocity=40 time=0\n",
      "note_off channel=0 note=92 velocity=64 time=0\n",
      "note_on channel=0 note=93 velocity=24 time=0\n",
      "note_off channel=0 note=61 velocity=64 time=1\n",
      "note_on channel=0 note=62 velocity=43 time=0\n",
      "note_on channel=0 note=74 velocity=56 time=0\n",
      "note_off channel=0 note=80 velocity=64 time=0\n",
      "note_on channel=0 note=81 velocity=63 time=0\n",
      "note_off channel=0 note=49 velocity=64 time=1\n",
      "note_on channel=0 note=50 velocity=72 time=0\n",
      "note_off channel=0 note=75 velocity=64 time=0\n",
      "note_off channel=0 note=77 velocity=64 time=0\n",
      "note_on channel=0 note=78 velocity=66 time=0\n",
      "note_off channel=0 note=85 velocity=64 time=0\n",
      "note_off channel=0 note=89 velocity=64 time=0\n",
      "note_on channel=0 note=84 velocity=52 time=1\n",
      "note_on channel=0 note=92 velocity=33 time=1\n",
      "note_off channel=0 note=94 velocity=64 time=0\n",
      "note_off channel=0 note=62 velocity=64 time=1\n",
      "note_on channel=0 note=63 velocity=48 time=0\n",
      "note_off channel=0 note=69 velocity=64 time=1\n",
      "note_on channel=0 note=70 velocity=26 time=0\n",
      "note_on channel=0 note=89 velocity=55 time=0\n",
      "note_off channel=0 note=50 velocity=64 time=1\n",
      "note_on channel=0 note=51 velocity=53 time=0\n",
      "note_off channel=0 note=74 velocity=64 time=0\n",
      "note_on channel=0 note=75 velocity=62 time=0\n",
      "note_on channel=0 note=79 velocity=67 time=0\n",
      "note_on channel=0 note=82 velocity=43 time=0\n",
      "note_off channel=0 note=93 velocity=64 time=0\n",
      "note_off channel=0 note=83 velocity=64 time=1\n",
      "note_off channel=0 note=84 velocity=64 time=0\n",
      "note_on channel=0 note=85 velocity=51 time=0\n",
      "note_off channel=0 note=51 velocity=64 time=1\n",
      "note_on channel=0 note=52 velocity=53 time=0\n",
      "note_off channel=0 note=78 velocity=64 time=0\n",
      "note_off channel=0 note=81 velocity=64 time=0\n",
      "note_on channel=0 note=83 velocity=65 time=0\n",
      "note_on channel=0 note=84 velocity=49 time=0\n",
      "note_off channel=0 note=88 velocity=64 time=0\n",
      "note_on channel=0 note=93 velocity=20 time=0\n",
      "note_off channel=0 note=70 velocity=64 time=1\n",
      "note_on channel=0 note=70 velocity=30 time=1\n",
      "note_off channel=0 note=82 velocity=64 time=0\n",
      "note_on channel=0 note=90 velocity=48 time=0\n",
      "note_on channel=0 note=88 velocity=41 time=1\n",
      "note_off channel=0 note=89 velocity=64 time=0\n",
      "note_off channel=0 note=63 velocity=64 time=1\n",
      "note_off channel=0 note=70 velocity=64 time=0\n",
      "note_on channel=0 note=70 velocity=25 time=1\n",
      "note_on channel=0 note=51 velocity=56 time=1\n",
      "note_off channel=0 note=52 velocity=64 time=0\n",
      "note_on channel=0 note=82 velocity=55 time=0\n",
      "note_off channel=0 note=83 velocity=64 time=0\n",
      "note_on channel=0 note=89 velocity=52 time=0\n",
      "note_off channel=0 note=90 velocity=64 time=0\n",
      "note_off channel=0 note=85 velocity=64 time=1\n",
      "note_on channel=0 note=95 velocity=22 time=0\n",
      "note_on channel=0 note=85 velocity=30 time=1\n",
      "note_off channel=0 note=93 velocity=64 time=0\n",
      "note_on channel=0 note=50 velocity=52 time=1\n",
      "note_off channel=0 note=51 velocity=64 time=0\n",
      "note_on channel=0 note=78 velocity=57 time=0\n",
      "note_off channel=0 note=79 velocity=64 time=0\n",
      "note_off channel=0 note=88 velocity=64 time=0\n",
      "note_on channel=0 note=69 velocity=33 time=1\n",
      "note_off channel=0 note=70 velocity=64 time=0\n",
      "note_on channel=0 note=81 velocity=47 time=0\n",
      "note_on channel=0 note=88 velocity=45 time=0\n",
      "note_off channel=0 note=82 velocity=64 time=1\n",
      "note_off channel=0 note=85 velocity=64 time=0\n",
      "note_on channel=0 note=86 velocity=34 time=0\n",
      "note_off channel=0 note=89 velocity=64 time=0\n",
      "note_off channel=0 note=50 velocity=64 time=1\n",
      "note_on channel=0 note=51 velocity=57 time=0\n",
      "note_off channel=0 note=69 velocity=64 time=0\n",
      "note_on channel=0 note=74 velocity=49 time=0\n",
      "note_off channel=0 note=75 velocity=64 time=0\n",
      "note_on channel=0 note=72 velocity=11 time=1\n",
      "note_on channel=0 note=80 velocity=30 time=0\n",
      "note_off channel=0 note=88 velocity=64 time=0\n",
      "note_on channel=0 note=89 velocity=55 time=0\n",
      "note_off channel=0 note=74 velocity=64 time=1\n",
      "note_on channel=0 note=75 velocity=58 time=0\n",
      "note_off channel=0 note=81 velocity=64 time=0\n",
      "note_on channel=0 note=82 velocity=54 time=0\n",
      "note_on channel=0 note=87 velocity=60 time=0\n",
      "note_on channel=0 note=85 velocity=29 time=1\n",
      "note_off channel=0 note=78 velocity=64 time=1\n",
      "note_on channel=0 note=79 velocity=60 time=0\n",
      "note_off channel=0 note=80 velocity=64 time=0\n",
      "note_off channel=0 note=86 velocity=64 time=0\n",
      "note_off channel=0 note=92 velocity=64 time=0\n",
      "note_on channel=0 note=93 velocity=14 time=0\n",
      "note_off channel=0 note=51 velocity=64 time=1\n",
      "note_on channel=0 note=52 velocity=66 time=0\n",
      "note_off channel=0 note=72 velocity=64 time=0\n",
      "note_off channel=0 note=85 velocity=64 time=0\n",
      "note_on channel=0 note=70 velocity=29 time=1\n",
      "note_off channel=0 note=95 velocity=64 time=0\n",
      "note_off channel=0 note=82 velocity=64 time=1\n",
      "note_on channel=0 note=83 velocity=72 time=0\n",
      "note_on channel=0 note=85 velocity=45 time=0\n",
      "note_on channel=0 note=88 velocity=47 time=0\n",
      "note_off channel=0 note=89 velocity=64 time=0\n",
      "note_on channel=0 note=90 velocity=59 time=0\n",
      "note_off channel=0 note=70 velocity=64 time=1\n",
      "note_on channel=0 note=71 velocity=43 time=0\n",
      "note_off channel=0 note=75 velocity=64 time=1\n",
      "note_on channel=0 note=76 velocity=66 time=0\n",
      "note_off channel=0 note=79 velocity=64 time=0\n",
      "note_on channel=0 note=80 velocity=54 time=0\n",
      "note_off channel=0 note=87 velocity=64 time=0\n",
      "note_on channel=0 note=87 velocity=32 time=1\n",
      "note_off channel=0 note=93 velocity=64 time=1\n",
      "note_on channel=0 note=79 velocity=50 time=1\n",
      "note_off channel=0 note=80 velocity=64 time=0\n",
      "note_off channel=0 note=87 velocity=64 time=0\n",
      "note_on channel=0 note=73 velocity=15 time=2\n",
      "note_off channel=0 note=79 velocity=64 time=0\n",
      "note_on channel=0 note=79 velocity=45 time=1\n",
      "note_on channel=0 note=78 velocity=25 time=2\n",
      "note_off channel=0 note=79 velocity=64 time=0\n",
      "note_on channel=0 note=80 velocity=62 time=0\n",
      "note_on channel=0 note=87 velocity=40 time=0\n",
      "note_off channel=0 note=84 velocity=64 time=4\n",
      "note_off channel=0 note=85 velocity=64 time=0\n",
      "note_on channel=0 note=86 velocity=46 time=0\n",
      "note_on channel=0 note=84 velocity=31 time=1\n",
      "note_on channel=0 note=93 velocity=14 time=0\n",
      "note_off channel=0 note=84 velocity=64 time=2\n",
      "note_off channel=0 note=88 velocity=64 time=3\n",
      "note_on channel=0 note=84 velocity=36 time=3\n",
      "note_off channel=0 note=87 velocity=64 time=0\n",
      "note_off channel=0 note=78 velocity=64 time=1\n",
      "note_on channel=0 note=78 velocity=31 time=1\n",
      "note_off channel=0 note=84 velocity=64 time=0\n",
      "note_on channel=0 note=84 velocity=31 time=1\n",
      "note_off channel=0 note=93 velocity=64 time=1\n",
      "note_off channel=0 note=78 velocity=64 time=2\n",
      "note_on channel=0 note=93 velocity=28 time=0\n",
      "note_on channel=0 note=78 velocity=30 time=1\n",
      "note_off channel=0 note=84 velocity=64 time=1\n",
      "note_on channel=0 note=82 velocity=29 time=2\n",
      "note_on channel=0 note=87 velocity=42 time=1\n",
      "note_off channel=0 note=73 velocity=64 time=2\n",
      "note_on channel=0 note=73 velocity=14 time=1\n",
      "note_off channel=0 note=82 velocity=64 time=1\n",
      "note_off channel=0 note=78 velocity=64 time=4\n",
      "note_off channel=0 note=93 velocity=64 time=3\n",
      "note_on channel=0 note=101 velocity=28 time=1\n",
      "note_off channel=0 note=73 velocity=64 time=2\n",
      "note_on channel=0 note=78 velocity=22 time=3\n",
      "note_on channel=0 note=93 velocity=34 time=2\n",
      "note_off channel=0 note=78 velocity=64 time=2\n",
      "note_on channel=0 note=78 velocity=28 time=1\n",
      "note_off channel=0 note=91 velocity=64 time=6\n",
      "note_on channel=0 note=85 velocity=41 time=1\n",
      "note_off channel=0 note=86 velocity=64 time=0\n",
      "note_on channel=0 note=84 velocity=36 time=1\n",
      "note_off channel=0 note=78 velocity=64 time=1\n",
      "note_off channel=0 note=87 velocity=64 time=0\n",
      "note_on channel=0 note=70 velocity=33 time=1\n",
      "note_off channel=0 note=71 velocity=64 time=0\n",
      "note_on channel=0 note=79 velocity=64 time=0\n",
      "note_off channel=0 note=80 velocity=64 time=0\n",
      "note_on channel=0 note=75 velocity=48 time=1\n",
      "note_on channel=0 note=89 velocity=54 time=0\n",
      "note_off channel=0 note=90 velocity=64 time=0\n",
      "note_on channel=0 note=51 velocity=52 time=1\n",
      "note_off channel=0 note=52 velocity=64 time=0\n",
      "note_on channel=0 note=82 velocity=60 time=0\n",
      "note_off channel=0 note=83 velocity=64 time=0\n",
      "note_on channel=0 note=87 velocity=51 time=0\n",
      "note_off channel=0 note=76 velocity=64 time=1\n",
      "note_off channel=0 note=85 velocity=64 time=0\n",
      "note_on channel=0 note=86 velocity=22 time=0\n",
      "note_on channel=0 note=80 velocity=32 time=1\n",
      "note_off channel=0 note=51 velocity=64 time=1\n",
      "note_on channel=0 note=85 velocity=26 time=0\n",
      "note_on channel=0 note=51 velocity=40 time=1\n",
      "note_off channel=0 note=80 velocity=64 time=0\n",
      "note_off channel=0 note=86 velocity=64 time=0\n",
      "note_off channel=0 note=51 velocity=64 time=2\n",
      "note_on channel=0 note=52 velocity=65 time=0\n",
      "note_on channel=0 note=78 velocity=21 time=0\n",
      "note_off channel=0 note=85 velocity=64 time=0\n",
      "note_on channel=0 note=90 velocity=63 time=0\n",
      "note_off channel=0 note=75 velocity=64 time=1\n",
      "note_on channel=0 note=76 velocity=66 time=0\n",
      "note_off channel=0 note=82 velocity=64 time=0\n",
      "note_on channel=0 note=83 velocity=70 time=0\n",
      "note_on channel=0 note=85 velocity=41 time=0\n",
      "note_off channel=0 note=89 velocity=64 time=0\n",
      "note_off channel=0 note=70 velocity=64 time=1\n",
      "note_on channel=0 note=71 velocity=45 time=0\n",
      "note_off channel=0 note=78 velocity=64 time=1\n",
      "note_on channel=0 note=80 velocity=64 time=0\n",
      "note_off channel=0 note=84 velocity=64 time=0\n",
      "note_off channel=0 note=79 velocity=64 time=1\n",
      "note_on channel=0 note=86 velocity=42 time=0\n",
      "note_off channel=0 note=85 velocity=64 time=1\n",
      "note_off channel=0 note=93 velocity=64 time=1\n",
      "note_on channel=0 note=73 velocity=12 time=3\n",
      "note_on channel=0 note=91 velocity=16 time=0\n",
      "note_on channel=0 note=84 velocity=33 time=3\n",
      "note_off channel=0 note=73 velocity=64 time=1\n",
      "note_off channel=0 note=91 velocity=64 time=0\n",
      "note_on channel=0 note=93 velocity=39 time=0\n",
      "note_on channel=0 note=73 velocity=14 time=1\n",
      "note_off channel=0 note=84 velocity=64 time=0\n",
      "note_on channel=0 note=84 velocity=27 time=1\n",
      "note_on channel=0 note=91 velocity=40 time=2\n",
      "note_off channel=0 note=80 velocity=64 time=1\n",
      "note_on channel=0 note=85 velocity=40 time=0\n",
      "note_off channel=0 note=86 velocity=64 time=0\n",
      "note_on channel=0 note=80 velocity=60 time=1\n",
      "note_on channel=0 note=79 velocity=65 time=2\n",
      "note_off channel=0 note=80 velocity=64 time=0\n",
      "note_off channel=0 note=87 velocity=64 time=0\n",
      "note_off channel=0 note=84 velocity=64 time=1\n",
      "note_on channel=0 note=87 velocity=53 time=0\n",
      "note_on channel=0 note=75 velocity=68 time=1\n",
      "note_off channel=0 note=76 velocity=64 time=0\n",
      "note_on channel=0 note=82 velocity=62 time=0\n",
      "note_off channel=0 note=83 velocity=64 time=0\n",
      "note_on channel=0 note=51 velocity=52 time=1\n",
      "note_off channel=0 note=52 velocity=64 time=0\n",
      "note_on channel=0 note=70 velocity=32 time=0\n",
      "note_off channel=0 note=71 velocity=64 time=0\n",
      "note_on channel=0 note=89 velocity=45 time=1\n",
      "note_off channel=0 note=82 velocity=64 time=1\n",
      "note_on channel=0 note=83 velocity=60 time=0\n",
      "note_off channel=0 note=89 velocity=64 time=1\n",
      "note_on channel=0 note=82 velocity=62 time=1\n",
      "note_off channel=0 note=83 velocity=64 time=0\n",
      "note_on channel=0 note=89 velocity=54 time=0\n",
      "note_off channel=0 note=90 velocity=64 time=0\n",
      "note_on channel=0 note=77 velocity=29 time=1\n",
      "note_on channel=0 note=84 velocity=12 time=0\n",
      "note_on channel=0 note=90 velocity=62 time=0\n",
      "note_off channel=0 note=89 velocity=64 time=1\n",
      "note_on channel=0 note=89 velocity=57 time=1\n",
      "note_off channel=0 note=90 velocity=64 time=1\n",
      "note_on channel=0 note=90 velocity=54 time=1\n",
      "note_off channel=0 note=73 velocity=64 time=1\n",
      "note_off channel=0 note=84 velocity=64 time=1\n",
      "note_on channel=0 note=80 velocity=21 time=1\n",
      "note_off channel=0 note=70 velocity=64 time=1\n",
      "note_off channel=0 note=101 velocity=64 time=0\n",
      "note_on channel=0 note=84 velocity=25 time=1\n",
      "note_off channel=0 note=85 velocity=64 time=1\n",
      "note_on channel=0 note=85 velocity=33 time=1\n",
      "note_off channel=0 note=79 velocity=64 time=1\n",
      "note_off channel=0 note=84 velocity=64 time=0\n",
      "note_on channel=0 note=79 velocity=59 time=1\n",
      "note_on channel=0 note=70 velocity=26 time=1\n",
      "note_off channel=0 note=82 velocity=64 time=1\n",
      "note_on channel=0 note=84 velocity=50 time=0\n",
      "note_on channel=0 note=82 velocity=46 time=1\n",
      "note_off channel=0 note=51 velocity=64 time=1\n",
      "note_off channel=0 note=80 velocity=64 time=0\n",
      "note_off channel=0 note=85 velocity=64 time=0\n",
      "note_on channel=0 note=51 velocity=51 time=1\n",
      "note_off channel=0 note=91 velocity=64 time=0\n",
      "note_on channel=0 note=80 velocity=20 time=1\n",
      "note_on channel=0 note=78 velocity=64 time=1\n",
      "note_off channel=0 note=79 velocity=64 time=0\n",
      "note_on channel=0 note=85 velocity=27 time=0\n",
      "note_on channel=0 note=88 velocity=52 time=1\n",
      "note_off channel=0 note=89 velocity=64 time=0\n",
      "note_on channel=0 note=50 velocity=53 time=1\n",
      "note_off channel=0 note=51 velocity=64 time=0\n",
      "note_off channel=0 note=82 velocity=64 time=0\n",
      "note_on channel=0 note=91 velocity=18 time=0\n",
      "note_on channel=0 note=69 velocity=31 time=1\n",
      "note_off channel=0 note=70 velocity=64 time=0\n",
      "note_on channel=0 note=74 velocity=58 time=0\n",
      "note_off channel=0 note=75 velocity=64 time=0\n",
      "note_on channel=0 note=82 velocity=48 time=0\n",
      "note_on channel=0 note=81 velocity=51 time=1\n",
      "note_off channel=0 note=82 velocity=64 time=1\n",
      "note_off channel=0 note=50 velocity=64 time=1\n",
      "note_on channel=0 note=50 velocity=58 time=1\n",
      "note_on channel=0 note=83 velocity=50 time=0\n",
      "note_off channel=0 note=91 velocity=64 time=0\n",
      "note_off channel=0 note=77 velocity=64 time=1\n",
      "note_on channel=0 note=77 velocity=17 time=1\n",
      "note_off channel=0 note=80 velocity=64 time=2\n",
      "note_off channel=0 note=77 velocity=64 time=1\n",
      "note_on channel=0 note=91 velocity=25 time=13\n",
      "note_on channel=0 note=94 velocity=13 time=2\n",
      "note_off channel=0 note=84 velocity=64 time=2\n",
      "note_on channel=0 note=84 velocity=42 time=1\n",
      "note_off channel=0 note=91 velocity=64 time=3\n",
      "note_on channel=0 note=92 velocity=28 time=0\n",
      "note_on channel=0 note=63 velocity=38 time=1\n",
      "note_on channel=0 note=80 velocity=32 time=0\n",
      "note_off channel=0 note=94 velocity=64 time=0\n",
      "note_off channel=0 note=50 velocity=64 time=2\n",
      "note_on channel=0 note=51 velocity=53 time=0\n",
      "note_off channel=0 note=69 velocity=64 time=0\n",
      "note_off channel=0 note=81 velocity=64 time=0\n",
      "note_off channel=0 note=85 velocity=64 time=0\n",
      "note_on channel=0 note=89 velocity=46 time=0\n",
      "note_off channel=0 note=93 velocity=64 time=0\n",
      "note_off channel=0 note=74 velocity=64 time=1\n",
      "note_on channel=0 note=75 velocity=57 time=0\n",
      "note_on channel=0 note=79 velocity=41 time=0\n",
      "note_on channel=0 note=85 velocity=24 time=0\n",
      "note_off channel=0 note=88 velocity=64 time=0\n",
      "note_off channel=0 note=78 velocity=64 time=1\n",
      "note_off channel=0 note=90 velocity=64 time=0\n",
      "note_on channel=0 note=73 velocity=26 time=1\n",
      "note_on channel=0 note=78 velocity=37 time=0\n",
      "note_off channel=0 note=79 velocity=64 time=0\n",
      "note_on channel=0 note=79 velocity=39 time=1\n",
      "note_off channel=0 note=78 velocity=64 time=1\n",
      "note_off channel=0 note=84 velocity=64 time=0\n",
      "note_on channel=0 note=93 velocity=9 time=0\n",
      "note_off channel=0 note=85 velocity=64 time=2\n",
      "note_on channel=0 note=77 velocity=15 time=1\n",
      "note_off channel=0 note=93 velocity=64 time=2\n",
      "note_on channel=0 note=70 velocity=25 time=1\n",
      "note_off channel=0 note=79 velocity=64 time=0\n",
      "note_on channel=0 note=79 velocity=47 time=1\n",
      "note_on channel=0 note=84 velocity=44 time=0\n",
      "note_off channel=0 note=73 velocity=64 time=1\n",
      "note_on channel=0 note=82 velocity=40 time=0\n",
      "note_on channel=0 note=90 velocity=47 time=1\n",
      "note_off channel=0 note=92 velocity=64 time=0\n",
      "note_on channel=0 note=78 velocity=59 time=2\n",
      "note_off channel=0 note=79 velocity=64 time=0\n",
      "note_on channel=0 note=62 velocity=26 time=1\n",
      "note_off channel=0 note=63 velocity=64 time=0\n",
      "note_on channel=0 note=74 velocity=53 time=0\n",
      "note_off channel=0 note=75 velocity=64 time=0\n",
      "note_on channel=0 note=88 velocity=44 time=0\n",
      "note_off channel=0 note=89 velocity=64 time=0\n",
      "note_on channel=0 note=50 velocity=60 time=1\n",
      "note_off channel=0 note=51 velocity=64 time=0\n",
      "note_on channel=0 note=69 velocity=34 time=0\n",
      "note_off channel=0 note=70 velocity=64 time=0\n",
      "note_on channel=0 note=81 velocity=40 time=0\n",
      "note_off channel=0 note=82 velocity=64 time=0\n",
      "note_on channel=0 note=85 velocity=13 time=0\n",
      "note_off channel=0 note=77 velocity=64 time=1\n",
      "note_off channel=0 note=85 velocity=64 time=7\n",
      "note_off channel=0 note=80 velocity=64 time=22\n",
      "note_off channel=0 note=84 velocity=64 time=3\n",
      "note_on channel=0 note=80 velocity=46 time=3\n",
      "note_on channel=0 note=84 velocity=39 time=1\n",
      "note_off channel=0 note=62 velocity=64 time=2\n",
      "note_off channel=0 note=81 velocity=64 time=5\n",
      "note_off channel=0 note=83 velocity=64 time=0\n",
      "note_on channel=0 note=83 velocity=55 time=1\n",
      "note_on channel=0 note=61 velocity=42 time=1\n",
      "note_off channel=0 note=84 velocity=64 time=0\n",
      "note_on channel=0 note=89 velocity=39 time=0\n",
      "note_off channel=0 note=90 velocity=64 time=0\n",
      "note_off channel=0 note=74 velocity=64 time=1\n",
      "note_off channel=0 note=78 velocity=64 time=0\n",
      "note_on channel=0 note=85 velocity=36 time=0\n",
      "note_off channel=0 note=87 velocity=64 time=0\n",
      "note_on channel=0 note=49 velocity=64 time=1\n",
      "note_off channel=0 note=50 velocity=64 time=0\n",
      "note_off channel=0 note=88 velocity=64 time=0\n",
      "note_on channel=0 note=68 velocity=39 time=1\n",
      "note_off channel=0 note=69 velocity=64 time=0\n",
      "note_on channel=0 note=75 velocity=14 time=0\n",
      "note_on channel=0 note=87 velocity=46 time=0\n",
      "note_on channel=0 note=77 velocity=37 time=1\n",
      "note_off channel=0 note=80 velocity=64 time=2\n",
      "note_on channel=0 note=80 velocity=42 time=1\n",
      "note_off channel=0 note=75 velocity=64 time=1\n",
      "note_on channel=0 note=90 velocity=26 time=5\n",
      "note_off channel=0 note=77 velocity=64 time=1\n",
      "note_on channel=0 note=88 velocity=33 time=1\n",
      "note_off channel=0 note=89 velocity=64 time=0\n",
      "note_off channel=0 note=88 velocity=64 time=2\n",
      "note_on channel=0 note=89 velocity=37 time=0\n",
      "note_on channel=0 note=77 velocity=26 time=1\n",
      "note_off channel=0 note=90 velocity=64 time=2\n",
      "note_on channel=0 note=75 velocity=29 time=2\n",
      "note_off channel=0 note=80 velocity=64 time=3\n",
      "note_on channel=0 note=80 velocity=40 time=1\n",
      "note_off channel=0 note=77 velocity=64 time=3\n",
      "note_on channel=0 note=78 velocity=17 time=0\n",
      "note_on channel=0 note=84 velocity=36 time=1\n",
      "note_on channel=0 note=77 velocity=31 time=1\n",
      "note_off channel=0 note=78 velocity=64 time=1\n",
      "note_on channel=0 note=90 velocity=21 time=0\n",
      "note_on channel=0 note=93 velocity=15 time=5\n",
      "note_off channel=0 note=75 velocity=64 time=1\n",
      "note_off channel=0 note=80 velocity=64 time=0\n",
      "note_on channel=0 note=88 velocity=32 time=0\n",
      "note_on channel=0 note=80 velocity=41 time=2\n",
      "note_on channel=0 note=82 velocity=24 time=1\n",
      "note_on channel=0 note=78 velocity=24 time=1\n",
      "note_off channel=0 note=83 velocity=64 time=0\n",
      "note_off channel=0 note=77 velocity=64 time=1\n",
      "note_on channel=0 note=83 velocity=40 time=0\n",
      "note_on channel=0 note=77 velocity=31 time=1\n",
      "note_off channel=0 note=93 velocity=64 time=0\n",
      "note_off channel=0 note=82 velocity=64 time=1\n",
      "note_off channel=0 note=85 velocity=64 time=0\n",
      "note_off channel=0 note=68 velocity=64 time=1\n",
      "note_off channel=0 note=78 velocity=64 time=0\n",
      "note_on channel=0 note=78 velocity=25 time=1\n",
      "note_off channel=0 note=77 velocity=64 time=1\n",
      "note_off channel=0 note=90 velocity=64 time=0\n",
      "note_on channel=0 note=68 velocity=24 time=1\n",
      "note_on channel=0 note=72 velocity=10 time=3\n",
      "note_on channel=0 note=75 velocity=29 time=0\n",
      "note_on channel=0 note=77 velocity=26 time=0\n",
      "note_off channel=0 note=78 velocity=64 time=1\n",
      "note_off channel=0 note=88 velocity=64 time=0\n",
      "note_on channel=0 note=88 velocity=31 time=1\n",
      "note_on channel=0 note=78 velocity=15 time=1\n",
      "note_off channel=0 note=89 velocity=64 time=0\n",
      "note_off channel=0 note=77 velocity=64 time=1\n",
      "note_on channel=0 note=89 velocity=33 time=0\n",
      "note_off channel=0 note=72 velocity=64 time=1\n",
      "note_on channel=0 note=82 velocity=27 time=1\n",
      "note_off channel=0 note=83 velocity=64 time=1\n",
      "note_on channel=0 note=77 velocity=20 time=2\n",
      "note_off channel=0 note=78 velocity=64 time=0\n",
      "note_off channel=0 note=88 velocity=64 time=0\n",
      "note_on channel=0 note=83 velocity=30 time=1\n",
      "note_off channel=0 note=82 velocity=64 time=1\n",
      "note_on channel=0 note=88 velocity=39 time=2\n",
      "note_on channel=0 note=90 velocity=46 time=0\n",
      "note_on channel=0 note=78 velocity=31 time=2\n",
      "note_off channel=0 note=77 velocity=64 time=1\n",
      "note_on channel=0 note=82 velocity=32 time=0\n",
      "note_off channel=0 note=83 velocity=64 time=1\n",
      "note_off channel=0 note=89 velocity=64 time=2\n",
      "note_off channel=0 note=80 velocity=64 time=2\n",
      "note_on channel=0 note=83 velocity=48 time=1\n",
      "note_on channel=0 note=89 velocity=39 time=0\n",
      "note_on channel=0 note=80 velocity=38 time=1\n",
      "note_off channel=0 note=82 velocity=64 time=0\n",
      "note_off channel=0 note=68 velocity=64 time=3\n",
      "note_off channel=0 note=75 velocity=64 time=0\n",
      "note_off channel=0 note=87 velocity=64 time=0\n",
      "note_on channel=0 note=77 velocity=35 time=3\n",
      "note_off channel=0 note=78 velocity=64 time=0\n",
      "note_on channel=0 note=78 velocity=32 time=1\n",
      "note_off channel=0 note=77 velocity=64 time=1\n",
      "note_on channel=0 note=75 velocity=33 time=2\n",
      "note_on channel=0 note=87 velocity=44 time=0\n",
      "note_on channel=0 note=85 velocity=30 time=2\n",
      "note_off channel=0 note=88 velocity=64 time=0\n",
      "note_on channel=0 note=93 velocity=38 time=0\n",
      "note_on channel=0 note=77 velocity=30 time=6\n",
      "note_off channel=0 note=78 velocity=64 time=0\n",
      "note_on channel=0 note=68 velocity=25 time=2\n",
      "note_off channel=0 note=85 velocity=64 time=2\n",
      "note_on channel=0 note=88 velocity=34 time=1\n",
      "note_off channel=0 note=89 velocity=64 time=0\n",
      "note_off channel=0 note=88 velocity=64 time=3\n",
      "note_on channel=0 note=89 velocity=36 time=0\n",
      "note_on channel=0 note=72 velocity=18 time=6\n",
      "note_off channel=0 note=89 velocity=64 time=1\n",
      "note_on channel=0 note=82 velocity=36 time=2\n",
      "note_off channel=0 note=77 velocity=64 time=1\n",
      "note_off channel=0 note=83 velocity=64 time=0\n",
      "note_on channel=0 note=85 velocity=24 time=0\n",
      "note_on channel=0 note=77 velocity=35 time=1\n",
      "note_on channel=0 note=89 velocity=40 time=0\n",
      "note_off channel=0 note=72 velocity=64 time=3\n",
      "note_on channel=0 note=92 velocity=40 time=1\n",
      "note_off channel=0 note=80 velocity=64 time=2\n",
      "note_on channel=0 note=83 velocity=54 time=0\n",
      "note_off channel=0 note=85 velocity=64 time=0\n",
      "note_on channel=0 note=80 velocity=41 time=2\n",
      "note_off channel=0 note=82 velocity=64 time=0\n",
      "note_on channel=0 note=86 velocity=18 time=3\n",
      "note_off channel=0 note=77 velocity=64 time=1\n",
      "note_on channel=0 note=77 velocity=28 time=1\n",
      "note_off channel=0 note=86 velocity=64 time=7\n",
      "note_off channel=0 note=77 velocity=64 time=6\n",
      "note_on channel=0 note=82 velocity=34 time=0\n",
      "note_on channel=0 note=88 velocity=45 time=0\n",
      "note_off channel=0 note=83 velocity=64 time=1\n",
      "note_off channel=0 note=68 velocity=64 time=1\n",
      "note_off channel=0 note=89 velocity=64 time=1\n",
      "note_on channel=0 note=95 velocity=28 time=0\n",
      "note_on channel=0 note=68 velocity=24 time=1\n",
      "note_on channel=0 note=77 velocity=18 time=1\n",
      "note_on channel=0 note=83 velocity=49 time=2\n",
      "note_on channel=0 note=91 velocity=28 time=0\n",
      "note_off channel=0 note=82 velocity=64 time=1\n",
      "note_off channel=0 note=91 velocity=64 time=2\n",
      "note_on channel=0 note=91 velocity=11 time=1\n"
     ]
    },
    {
     "name": "stdout",
     "output_type": "stream",
     "text": [
      "note_off channel=0 note=77 velocity=64 time=2\n",
      "note_off channel=0 note=84 velocity=64 time=0\n",
      "note_off channel=0 note=75 velocity=64 time=2\n",
      "note_off channel=0 note=91 velocity=64 time=1\n",
      "note_on channel=0 note=84 velocity=14 time=2\n",
      "note_on channel=0 note=77 velocity=34 time=2\n",
      "note_on channel=0 note=75 velocity=30 time=1\n",
      "note_on channel=0 note=82 velocity=38 time=0\n",
      "note_off channel=0 note=83 velocity=64 time=0\n",
      "note_on channel=0 note=91 velocity=28 time=7\n",
      "note_off channel=0 note=80 velocity=64 time=2\n",
      "note_off channel=0 note=82 velocity=64 time=4\n",
      "note_on channel=0 note=83 velocity=32 time=0\n",
      "note_on channel=0 note=82 velocity=37 time=1\n",
      "note_off channel=0 note=83 velocity=64 time=1\n",
      "note_off channel=0 note=91 velocity=64 time=1\n",
      "note_on channel=0 note=80 velocity=29 time=1\n",
      "note_off channel=0 note=84 velocity=64 time=6\n",
      "note_on channel=0 note=91 velocity=27 time=0\n",
      "note_on channel=0 note=84 velocity=18 time=4\n",
      "note_on channel=0 note=83 velocity=54 time=1\n",
      "note_off channel=0 note=82 velocity=64 time=1\n",
      "note_off channel=0 note=95 velocity=64 time=0\n",
      "note_off channel=0 note=87 velocity=64 time=2\n",
      "note_off channel=0 note=91 velocity=64 time=0\n",
      "note_on channel=0 note=87 velocity=43 time=3\n",
      "note_on channel=0 note=91 velocity=24 time=0\n",
      "note_off channel=0 note=88 velocity=64 time=1\n",
      "note_on channel=0 note=88 velocity=24 time=1\n",
      "note_off channel=0 note=77 velocity=64 time=2\n",
      "note_on channel=0 note=78 velocity=15 time=0\n",
      "note_off channel=0 note=91 velocity=64 time=0\n",
      "note_on channel=0 note=77 velocity=18 time=3\n",
      "note_off channel=0 note=78 velocity=64 time=0\n",
      "note_on channel=0 note=91 velocity=25 time=1\n",
      "note_off channel=0 note=93 velocity=64 time=10\n",
      "note_off channel=0 note=84 velocity=64 time=1\n",
      "note_off channel=0 note=91 velocity=64 time=0\n",
      "note_off channel=0 note=92 velocity=64 time=1\n",
      "note_on channel=0 note=91 velocity=23 time=1\n",
      "note_off channel=0 note=77 velocity=64 time=1\n",
      "note_off channel=0 note=90 velocity=64 time=1\n",
      "note_off channel=0 note=88 velocity=64 time=5\n",
      "note_on channel=0 note=88 velocity=16 time=1\n",
      "note_on channel=0 note=77 velocity=13 time=2\n",
      "note_off channel=0 note=80 velocity=64 time=0\n",
      "note_on channel=0 note=80 velocity=53 time=2\n",
      "note_off channel=0 note=68 velocity=64 time=1\n",
      "note_off channel=0 note=61 velocity=64 time=1\n",
      "note_off channel=0 note=49 velocity=64 time=4\n",
      "note_on channel=0 note=50 velocity=32 time=0\n",
      "note_off channel=0 note=50 velocity=64 time=3\n",
      "note_on channel=0 note=90 velocity=9 time=1\n",
      "note_off channel=0 note=77 velocity=64 time=1\n",
      "note_off channel=0 note=88 velocity=64 time=4\n",
      "note_off channel=0 note=90 velocity=64 time=2\n",
      "note_off channel=0 note=75 velocity=64 time=6\n",
      "note_on channel=0 note=50 velocity=17 time=1\n",
      "note_on channel=0 note=93 velocity=13 time=5\n",
      "note_off channel=0 note=50 velocity=64 time=5\n",
      "note_on channel=0 note=50 velocity=12 time=1\n",
      "note_off channel=0 note=93 velocity=64 time=0\n",
      "note_off channel=0 note=50 velocity=64 time=3\n",
      "note_on channel=0 note=68 velocity=36 time=2\n",
      "note_off channel=0 note=83 velocity=64 time=2\n",
      "note_on channel=0 note=83 velocity=29 time=3\n",
      "note_on channel=0 note=82 velocity=58 time=3\n",
      "note_off channel=0 note=83 velocity=64 time=0\n",
      "note_on channel=0 note=61 velocity=48 time=1\n",
      "note_on channel=0 note=72 velocity=53 time=0\n",
      "note_on channel=0 note=76 velocity=53 time=0\n",
      "note_on channel=0 note=85 velocity=29 time=0\n",
      "note_on channel=0 note=49 velocity=65 time=1\n",
      "note_on channel=0 note=67 velocity=53 time=1\n",
      "note_off channel=0 note=68 velocity=64 time=0\n",
      "note_on channel=0 note=84 velocity=67 time=0\n",
      "note_off channel=0 note=85 velocity=64 time=0\n",
      "note_on channel=0 note=101 velocity=61 time=0\n",
      "note_on channel=0 note=60 velocity=53 time=1\n",
      "note_off channel=0 note=61 velocity=64 time=0\n",
      "note_on channel=0 note=79 velocity=69 time=0\n",
      "note_on channel=0 note=86 velocity=52 time=0\n",
      "note_on channel=0 note=95 velocity=20 time=0\n",
      "note_on channel=0 note=48 velocity=61 time=1\n",
      "note_off channel=0 note=49 velocity=64 time=0\n",
      "note_off channel=0 note=80 velocity=64 time=0\n",
      "note_on channel=0 note=83 velocity=48 time=0\n",
      "note_on channel=0 note=89 velocity=23 time=0\n",
      "note_on channel=0 note=102 velocity=51 time=0\n",
      "note_on channel=0 note=80 velocity=36 time=1\n",
      "note_on channel=0 note=81 velocity=65 time=0\n",
      "note_off channel=0 note=82 velocity=64 time=0\n",
      "note_on channel=0 note=92 velocity=48 time=0\n",
      "note_on channel=0 note=100 velocity=59 time=0\n",
      "note_on channel=0 note=47 velocity=42 time=1\n",
      "note_off channel=0 note=48 velocity=64 time=0\n",
      "note_off channel=0 note=87 velocity=64 time=0\n",
      "note_on channel=0 note=75 velocity=51 time=1\n",
      "note_off channel=0 note=76 velocity=64 time=0\n",
      "note_off channel=0 note=47 velocity=64 time=2\n",
      "note_on channel=0 note=48 velocity=62 time=0\n",
      "note_off channel=0 note=75 velocity=64 time=0\n",
      "note_on channel=0 note=76 velocity=71 time=0\n",
      "note_off channel=0 note=81 velocity=64 time=1\n",
      "note_on channel=0 note=82 velocity=58 time=0\n",
      "note_off channel=0 note=80 velocity=64 time=1\n",
      "note_off channel=0 note=89 velocity=64 time=0\n",
      "note_on channel=0 note=90 velocity=53 time=0\n",
      "note_on channel=0 note=93 velocity=35 time=0\n",
      "note_off channel=0 note=83 velocity=64 time=1\n",
      "note_off channel=0 note=91 velocity=64 time=0\n",
      "note_on channel=0 note=99 velocity=16 time=0\n",
      "note_on channel=0 note=103 velocity=20 time=0\n",
      "note_off channel=0 note=84 velocity=64 time=1\n",
      "note_on channel=0 note=85 velocity=47 time=0\n",
      "note_on channel=0 note=87 velocity=61 time=0\n",
      "note_off channel=0 note=48 velocity=64 time=1\n",
      "note_on channel=0 note=49 velocity=69 time=0\n",
      "note_off channel=0 note=60 velocity=64 time=0\n",
      "note_off channel=0 note=86 velocity=64 time=0\n",
      "note_off channel=0 note=67 velocity=64 time=1\n",
      "note_on channel=0 note=68 velocity=53 time=0\n",
      "note_off channel=0 note=72 velocity=64 time=0\n",
      "note_off channel=0 note=79 velocity=64 time=0\n",
      "note_on channel=0 note=80 velocity=66 time=0\n",
      "note_on channel=0 note=89 velocity=69 time=0\n",
      "note_off channel=0 note=99 velocity=64 time=1\n",
      "note_off channel=0 note=76 velocity=64 time=1\n",
      "note_on channel=0 note=77 velocity=72 time=0\n",
      "note_off channel=0 note=95 velocity=64 time=0\n",
      "note_on channel=0 note=96 velocity=24 time=0\n",
      "note_on channel=0 note=91 velocity=48 time=4\n",
      "note_on channel=0 note=75 velocity=30 time=1\n",
      "note_off channel=0 note=82 velocity=64 time=0\n",
      "note_on channel=0 note=83 velocity=63 time=0\n",
      "note_off channel=0 note=103 velocity=64 time=0\n",
      "note_off channel=0 note=90 velocity=64 time=2\n",
      "note_off channel=0 note=93 velocity=64 time=1\n",
      "note_on channel=0 note=94 velocity=33 time=0\n",
      "note_on channel=0 note=90 velocity=73 time=3\n",
      "note_off channel=0 note=75 velocity=64 time=1\n",
      "note_on channel=0 note=93 velocity=32 time=0\n",
      "note_off channel=0 note=94 velocity=64 time=0\n",
      "note_off channel=0 note=83 velocity=64 time=1\n",
      "note_on channel=0 note=94 velocity=29 time=0\n",
      "note_on channel=0 note=72 velocity=58 time=1\n",
      "note_on channel=0 note=83 velocity=50 time=0\n",
      "note_on channel=0 note=88 velocity=53 time=0\n",
      "note_off channel=0 note=96 velocity=64 time=0\n",
      "note_on channel=0 note=60 velocity=53 time=1\n",
      "note_on channel=0 note=76 velocity=69 time=0\n",
      "note_on channel=0 note=79 velocity=65 time=0\n",
      "note_off channel=0 note=80 velocity=64 time=0\n",
      "note_off channel=0 note=89 velocity=64 time=0\n",
      "note_on channel=0 note=67 velocity=49 time=1\n",
      "note_off channel=0 note=68 velocity=64 time=0\n",
      "note_off channel=0 note=77 velocity=64 time=0\n",
      "note_on channel=0 note=82 velocity=44 time=0\n",
      "note_on channel=0 note=86 velocity=29 time=0\n",
      "note_off channel=0 note=93 velocity=64 time=0\n",
      "note_on channel=0 note=48 velocity=49 time=1\n",
      "note_off channel=0 note=49 velocity=64 time=0\n",
      "note_off channel=0 note=83 velocity=64 time=0\n",
      "note_off channel=0 note=85 velocity=64 time=1\n",
      "note_on channel=0 note=93 velocity=38 time=1\n",
      "note_off channel=0 note=60 velocity=64 time=1\n",
      "note_on channel=0 note=61 velocity=55 time=0\n",
      "note_off channel=0 note=67 velocity=64 time=0\n",
      "note_on channel=0 note=68 velocity=50 time=0\n",
      "note_off channel=0 note=72 velocity=64 time=0\n",
      "note_off channel=0 note=82 velocity=64 time=0\n",
      "note_on channel=0 note=83 velocity=56 time=0\n",
      "note_off channel=0 note=87 velocity=64 time=0\n",
      "note_off channel=0 note=88 velocity=64 time=0\n",
      "note_on channel=0 note=89 velocity=53 time=0\n",
      "note_off channel=0 note=48 velocity=64 time=1\n",
      "note_on channel=0 note=49 velocity=62 time=0\n",
      "note_off channel=0 note=76 velocity=64 time=0\n",
      "note_on channel=0 note=82 velocity=34 time=0\n",
      "note_on channel=0 note=87 velocity=50 time=0\n",
      "note_on channel=0 note=88 velocity=30 time=0\n",
      "note_off channel=0 note=68 velocity=64 time=1\n",
      "note_on channel=0 note=69 velocity=35 time=0\n",
      "note_on channel=0 note=74 velocity=64 time=0\n",
      "note_on channel=0 note=78 velocity=61 time=0\n",
      "note_off channel=0 note=79 velocity=64 time=0\n",
      "note_off channel=0 note=86 velocity=64 time=0\n",
      "note_off channel=0 note=49 velocity=64 time=1\n",
      "note_on channel=0 note=50 velocity=64 time=0\n",
      "note_on channel=0 note=63 velocity=51 time=0\n",
      "note_off channel=0 note=82 velocity=64 time=0\n",
      "note_on channel=0 note=84 velocity=44 time=0\n",
      "note_off channel=0 note=88 velocity=64 time=0\n",
      "note_off channel=0 note=61 velocity=64 time=1\n",
      "note_on channel=0 note=71 velocity=50 time=0\n",
      "note_off channel=0 note=74 velocity=64 time=0\n",
      "note_on channel=0 note=75 velocity=64 time=0\n",
      "note_on channel=0 note=79 velocity=43 time=0\n",
      "note_off channel=0 note=83 velocity=64 time=0\n",
      "note_off channel=0 note=50 velocity=64 time=1\n",
      "note_on channel=0 note=52 velocity=52 time=0\n",
      "note_off channel=0 note=69 velocity=64 time=0\n",
      "note_on channel=0 note=76 velocity=78 time=0\n",
      "note_on channel=0 note=80 velocity=52 time=0\n",
      "note_on channel=0 note=83 velocity=71 time=0\n",
      "note_off channel=0 note=89 velocity=64 time=0\n",
      "note_off channel=0 note=92 velocity=64 time=0\n",
      "note_off channel=0 note=94 velocity=64 time=0\n",
      "note_off channel=0 note=63 velocity=64 time=1\n",
      "note_on channel=0 note=64 velocity=53 time=0\n",
      "note_off channel=0 note=75 velocity=64 time=0\n",
      "note_off channel=0 note=78 velocity=64 time=0\n",
      "note_off channel=0 note=79 velocity=64 time=0\n",
      "note_off channel=0 note=84 velocity=64 time=0\n",
      "note_on channel=0 note=86 velocity=45 time=0\n",
      "note_off channel=0 note=52 velocity=64 time=1\n",
      "note_on channel=0 note=79 velocity=40 time=0\n",
      "note_on channel=0 note=82 velocity=26 time=0\n",
      "note_off channel=0 note=93 velocity=64 time=0\n",
      "note_on channel=0 note=94 velocity=37 time=0\n",
      "note_on channel=0 note=52 velocity=62 time=1\n",
      "note_on channel=0 note=78 velocity=31 time=1\n",
      "note_off channel=0 note=79 velocity=64 time=0\n",
      "note_on channel=0 note=93 velocity=37 time=0\n",
      "note_off channel=0 note=94 velocity=64 time=0\n",
      "note_off channel=0 note=82 velocity=64 time=1\n",
      "note_on channel=0 note=70 velocity=43 time=1\n",
      "note_on channel=0 note=79 velocity=58 time=0\n",
      "note_off channel=0 note=80 velocity=64 time=0\n",
      "note_on channel=0 note=84 velocity=78 time=0\n",
      "note_on channel=0 note=85 velocity=38 time=0\n",
      "note_off channel=0 note=86 velocity=64 time=0\n",
      "note_off channel=0 note=91 velocity=64 time=0\n",
      "note_off channel=0 note=71 velocity=64 time=1\n",
      "note_on channel=0 note=82 velocity=53 time=0\n",
      "note_off channel=0 note=83 velocity=64 time=0\n",
      "note_on channel=0 note=89 velocity=65 time=0\n",
      "note_off channel=0 note=90 velocity=64 time=0\n",
      "note_on channel=0 note=51 velocity=56 time=1\n",
      "note_off channel=0 note=52 velocity=64 time=0\n",
      "note_off channel=0 note=64 velocity=64 time=0\n",
      "note_on channel=0 note=75 velocity=81 time=0\n",
      "note_off channel=0 note=76 velocity=64 time=0\n",
      "note_off channel=0 note=78 velocity=64 time=1\n",
      "note_on channel=0 note=72 velocity=14 time=1\n",
      "note_off channel=0 note=93 velocity=64 time=1\n",
      "note_on channel=0 note=50 velocity=50 time=1\n",
      "note_off channel=0 note=51 velocity=64 time=0\n",
      "note_on channel=0 note=86 velocity=25 time=0\n",
      "note_off channel=0 note=72 velocity=64 time=1\n",
      "note_on channel=0 note=78 velocity=75 time=0\n",
      "note_off channel=0 note=85 velocity=64 time=0\n",
      "note_on channel=0 note=72 velocity=11 time=1\n",
      "note_off channel=0 note=79 velocity=64 time=0\n",
      "note_on channel=0 note=80 velocity=25 time=0\n",
      "note_off channel=0 note=50 velocity=64 time=1\n",
      "note_on channel=0 note=51 velocity=54 time=0\n",
      "note_on channel=0 note=81 velocity=51 time=1\n",
      "note_on channel=0 note=62 velocity=47 time=1\n",
      "note_on channel=0 note=69 velocity=46 time=0\n",
      "note_off channel=0 note=70 velocity=64 time=0\n",
      "note_off channel=0 note=82 velocity=64 time=0\n",
      "note_on channel=0 note=88 velocity=65 time=0\n",
      "note_on channel=0 note=50 velocity=64 time=1\n",
      "note_off channel=0 note=51 velocity=64 time=0\n",
      "note_off channel=0 note=72 velocity=64 time=0\n",
      "note_on channel=0 note=74 velocity=72 time=0\n",
      "note_off channel=0 note=81 velocity=64 time=0\n",
      "note_on channel=0 note=82 velocity=51 time=0\n",
      "note_off channel=0 note=86 velocity=64 time=0\n",
      "note_off channel=0 note=89 velocity=64 time=0\n",
      "note_off channel=0 note=75 velocity=64 time=1\n",
      "note_on channel=0 note=81 velocity=92 time=0\n",
      "note_off channel=0 note=82 velocity=64 time=1\n",
      "note_on channel=0 note=97 velocity=15 time=0\n",
      "note_off channel=0 note=80 velocity=64 time=2\n",
      "note_on channel=0 note=82 velocity=33 time=0\n",
      "note_on channel=0 note=94 velocity=34 time=1\n",
      "note_on channel=0 note=91 velocity=36 time=1\n",
      "note_on channel=0 note=92 velocity=35 time=4\n",
      "note_off channel=0 note=91 velocity=64 time=1\n",
      "note_on channel=0 note=91 velocity=45 time=1\n",
      "note_off channel=0 note=92 velocity=64 time=0\n",
      "note_off channel=0 note=97 velocity=64 time=1\n",
      "note_off channel=0 note=87 velocity=64 time=3\n",
      "note_off channel=0 note=82 velocity=64 time=2\n",
      "note_on channel=0 note=73 velocity=23 time=1\n",
      "note_off channel=0 note=74 velocity=64 time=0\n",
      "note_on channel=0 note=95 velocity=36 time=0\n",
      "note_on channel=0 note=97 velocity=16 time=0\n",
      "note_on channel=0 note=83 velocity=82 time=1\n",
      "note_off channel=0 note=84 velocity=64 time=0\n",
      "note_off channel=0 note=73 velocity=64 time=3\n",
      "note_on channel=0 note=92 velocity=14 time=0\n",
      "note_on channel=0 note=82 velocity=35 time=4\n",
      "note_on channel=0 note=73 velocity=33 time=1\n",
      "note_off channel=0 note=82 velocity=64 time=1\n",
      "note_off channel=0 note=92 velocity=64 time=0\n",
      "note_off channel=0 note=73 velocity=64 time=1\n",
      "note_on channel=0 note=92 velocity=30 time=0\n",
      "note_on channel=0 note=96 velocity=12 time=0\n",
      "note_off channel=0 note=97 velocity=64 time=0\n",
      "note_on channel=0 note=61 velocity=54 time=1\n",
      "note_off channel=0 note=62 velocity=64 time=0\n",
      "note_on channel=0 note=68 velocity=42 time=0\n",
      "note_off channel=0 note=69 velocity=64 time=0\n",
      "note_on channel=0 note=80 velocity=85 time=1\n",
      "note_off channel=0 note=81 velocity=64 time=0\n",
      "note_on channel=0 note=82 velocity=30 time=0\n",
      "note_on channel=0 note=85 velocity=63 time=0\n",
      "note_on channel=0 note=49 velocity=65 time=1\n",
      "note_off channel=0 note=50 velocity=64 time=0\n",
      "note_on channel=0 note=75 velocity=27 time=0\n",
      "note_on channel=0 note=77 velocity=52 time=1\n",
      "note_off channel=0 note=78 velocity=64 time=0\n",
      "note_off channel=0 note=82 velocity=64 time=0\n",
      "note_on channel=0 note=93 velocity=29 time=0\n",
      "note_off channel=0 note=61 velocity=64 time=1\n",
      "note_off channel=0 note=68 velocity=64 time=0\n",
      "note_on channel=0 note=69 velocity=46 time=0\n",
      "note_off channel=0 note=80 velocity=64 time=0\n",
      "note_on channel=0 note=81 velocity=88 time=0\n",
      "note_on channel=0 note=82 velocity=29 time=0\n",
      "note_off channel=0 note=92 velocity=64 time=0\n",
      "note_on channel=0 note=74 velocity=54 time=1\n",
      "note_off channel=0 note=85 velocity=64 time=0\n",
      "note_on channel=0 note=86 velocity=62 time=0\n",
      "note_off channel=0 note=49 velocity=64 time=1\n",
      "note_on channel=0 note=50 velocity=65 time=0\n",
      "note_off channel=0 note=75 velocity=64 time=0\n",
      "note_off channel=0 note=82 velocity=64 time=0\n",
      "note_off channel=0 note=102 velocity=64 time=0\n",
      "note_on channel=0 note=78 velocity=77 time=1\n",
      "note_off channel=0 note=96 velocity=64 time=0\n",
      "note_off channel=0 note=77 velocity=64 time=1\n",
      "note_off channel=0 note=83 velocity=64 time=0\n",
      "note_on channel=0 note=84 velocity=79 time=0\n",
      "note_on channel=0 note=87 velocity=84 time=0\n",
      "note_off channel=0 note=95 velocity=64 time=1\n",
      "note_on channel=0 note=97 velocity=17 time=0\n",
      "note_off channel=0 note=94 velocity=64 time=3\n",
      "note_on channel=0 note=95 velocity=33 time=0\n",
      "note_on channel=0 note=61 velocity=60 time=1\n",
      "note_on channel=0 note=83 velocity=73 time=0\n",
      "note_off channel=0 note=84 velocity=64 time=0\n",
      "note_off channel=0 note=97 velocity=64 time=0\n",
      "note_on channel=0 note=68 velocity=40 time=1\n",
      "note_off channel=0 note=69 velocity=64 time=0\n",
      "note_on channel=0 note=77 velocity=67 time=0\n",
      "note_off channel=0 note=78 velocity=64 time=0\n",
      "note_on channel=0 note=80 velocity=86 time=0\n",
      "note_off channel=0 note=81 velocity=64 time=0\n",
      "note_off channel=0 note=86 velocity=64 time=0\n",
      "note_on channel=0 note=49 velocity=65 time=1\n",
      "note_off channel=0 note=50 velocity=64 time=0\n",
      "note_off channel=0 note=74 velocity=64 time=0\n",
      "note_on channel=0 note=81 velocity=41 time=0\n",
      "note_on channel=0 note=84 velocity=40 time=0\n",
      "note_on channel=0 note=86 velocity=51 time=0\n",
      "note_off channel=0 note=88 velocity=64 time=0\n",
      "note_on channel=0 note=97 velocity=11 time=0\n",
      "note_on channel=0 note=75 velocity=29 time=2\n",
      "note_off channel=0 note=81 velocity=64 time=0\n",
      "note_on channel=0 note=85 velocity=57 time=1\n",
      "note_off channel=0 note=86 velocity=64 time=0\n",
      "note_off channel=0 note=84 velocity=64 time=1\n",
      "note_off channel=0 note=93 velocity=64 time=0\n",
      "note_on channel=0 note=94 velocity=21 time=0\n",
      "note_off channel=0 note=68 velocity=64 time=1\n",
      "note_on channel=0 note=69 velocity=39 time=0\n",
      "note_on channel=0 note=88 velocity=60 time=0\n",
      "note_on channel=0 note=93 velocity=34 time=0\n",
      "note_off channel=0 note=97 velocity=64 time=0\n",
      "note_on channel=0 note=74 velocity=58 time=1\n",
      "note_off channel=0 note=75 velocity=64 time=0\n",
      "note_off channel=0 note=77 velocity=64 time=0\n",
      "note_on channel=0 note=78 velocity=72 time=0\n",
      "note_off channel=0 note=80 velocity=64 time=0\n",
      "note_on channel=0 note=81 velocity=72 time=0\n",
      "note_on channel=0 note=96 velocity=22 time=0\n",
      "note_off channel=0 note=49 velocity=64 time=1\n",
      "note_on channel=0 note=50 velocity=66 time=0\n",
      "note_off channel=0 note=61 velocity=64 time=0\n",
      "note_on channel=0 note=84 velocity=65 time=0\n",
      "note_on channel=0 note=92 velocity=50 time=0\n",
      "note_off channel=0 note=94 velocity=64 time=0\n",
      "note_on channel=0 note=63 velocity=51 time=1\n",
      "note_off channel=0 note=74 velocity=64 time=0\n",
      "note_on channel=0 note=75 velocity=61 time=0\n",
      "note_off channel=0 note=81 velocity=64 time=0\n",
      "note_on channel=0 note=82 velocity=54 time=0\n",
      "note_off channel=0 note=85 velocity=64 time=0\n",
      "note_on channel=0 note=89 velocity=56 time=0\n",
      "note_off channel=0 note=69 velocity=64 time=1\n",
      "note_on channel=0 note=79 velocity=74 time=0\n",
      "note_off channel=0 note=83 velocity=64 time=0\n",
      "note_on channel=0 note=86 velocity=55 time=0\n",
      "note_off channel=0 note=88 velocity=64 time=0\n",
      "note_off channel=0 note=100 velocity=64 time=0\n",
      "note_off channel=0 note=50 velocity=64 time=1\n",
      "note_on channel=0 note=52 velocity=65 time=0\n",
      "note_off channel=0 note=78 velocity=64 time=0\n",
      "note_off channel=0 note=82 velocity=64 time=0\n",
      "note_on channel=0 note=83 velocity=75 time=0\n",
      "note_on channel=0 note=88 velocity=70 time=0\n",
      "note_off channel=0 note=63 velocity=64 time=1\n",
      "note_on channel=0 note=71 velocity=58 time=0\n",
      "note_on channel=0 note=76 velocity=81 time=0\n",
      "note_on channel=0 note=85 velocity=59 time=0\n",
      "note_off channel=0 note=86 velocity=64 time=0\n",
      "note_off channel=0 note=89 velocity=64 time=0\n",
      "note_on channel=0 note=90 velocity=58 time=0\n",
      "note_off channel=0 note=91 velocity=64 time=0\n",
      "note_off channel=0 note=75 velocity=64 time=1\n",
      "note_on channel=0 note=80 velocity=75 time=0\n",
      "note_off channel=0 note=84 velocity=64 time=0\n",
      "note_off channel=0 note=79 velocity=64 time=1\n",
      "note_off channel=0 note=85 velocity=64 time=0\n",
      "note_on channel=0 note=86 velocity=50 time=0\n",
      "note_off channel=0 note=93 velocity=64 time=0\n",
      "note_on channel=0 note=94 velocity=35 time=0\n",
      "note_off channel=0 note=96 velocity=64 time=1\n",
      "note_on channel=0 note=65 velocity=50 time=1\n",
      "note_off channel=0 note=87 velocity=64 time=0\n",
      "note_on channel=0 note=93 velocity=36 time=0\n",
      "note_on channel=0 note=96 velocity=28 time=0\n",
      "note_on channel=0 note=42 velocity=9 time=1\n",
      "note_off channel=0 note=71 velocity=64 time=0\n",
      "note_on channel=0 note=72 velocity=71 time=0\n",
      "note_on channel=0 note=82 velocity=44 time=0\n",
      "note_on channel=0 note=84 velocity=71 time=0\n",
      "note_off channel=0 note=88 velocity=64 time=0\n",
      "note_on channel=0 note=89 velocity=77 time=0\n",
      "note_on channel=0 note=91 velocity=54 time=0\n",
      "note_on channel=0 note=97 velocity=17 time=0\n",
      "note_on channel=0 note=77 velocity=78 time=1\n",
      "note_on channel=0 note=81 velocity=50 time=0\n",
      "note_off channel=0 note=83 velocity=64 time=0\n",
      "note_off channel=0 note=95 velocity=64 time=0\n",
      "note_on channel=0 note=100 velocity=33 time=0\n",
      "note_off channel=0 note=52 velocity=64 time=1\n",
      "note_on channel=0 note=53 velocity=62 time=0\n",
      "note_off channel=0 note=90 velocity=64 time=0\n",
      "note_off channel=0 note=42 velocity=64 time=1\n",
      "note_off channel=0 note=76 velocity=64 time=0\n",
      "note_off channel=0 note=81 velocity=64 time=0\n",
      "note_on channel=0 note=87 velocity=65 time=0\n",
      "note_off channel=0 note=97 velocity=64 time=0\n",
      "note_off channel=0 note=86 velocity=64 time=1\n",
      "note_off channel=0 note=94 velocity=64 time=0\n",
      "note_on channel=0 note=95 velocity=38 time=0\n",
      "note_on channel=0 note=81 velocity=63 time=1\n",
      "note_on channel=0 note=90 velocity=66 time=0\n",
      "note_off channel=0 note=80 velocity=64 time=3\n",
      "note_off channel=0 note=95 velocity=64 time=0\n",
      "note_on channel=0 note=86 velocity=19 time=1\n",
      "note_on channel=0 note=97 velocity=11 time=0\n",
      "note_on channel=0 note=85 velocity=16 time=1\n",
      "note_off channel=0 note=82 velocity=64 time=1\n",
      "note_on channel=0 note=83 velocity=43 time=0\n",
      "note_off channel=0 note=86 velocity=64 time=1\n",
      "note_on channel=0 note=75 velocity=19 time=1\n",
      "note_off channel=0 note=83 velocity=64 time=2\n",
      "note_on channel=0 note=95 velocity=42 time=0\n",
      "note_off channel=0 note=75 velocity=64 time=1\n",
      "note_on channel=0 note=80 velocity=75 time=0\n",
      "note_off channel=0 note=81 velocity=64 time=0\n",
      "note_on channel=0 note=83 velocity=82 time=0\n",
      "note_on channel=0 note=86 velocity=51 time=0\n",
      "note_off channel=0 note=100 velocity=64 time=0\n",
      "note_on channel=0 note=52 velocity=65 time=1\n",
      "note_off channel=0 note=53 velocity=64 time=0\n",
      "note_off channel=0 note=65 velocity=64 time=0\n",
      "note_on channel=0 note=76 velocity=77 time=0\n",
      "note_off channel=0 note=77 velocity=64 time=0\n",
      "note_off channel=0 note=84 velocity=64 time=0\n",
      "note_off channel=0 note=96 velocity=64 time=0\n",
      "note_on channel=0 note=71 velocity=62 time=1\n",
      "note_off channel=0 note=72 velocity=64 time=0\n",
      "note_on channel=0 note=82 velocity=38 time=0\n",
      "note_off channel=0 note=85 velocity=64 time=0\n",
      "note_off channel=0 note=89 velocity=64 time=0\n",
      "note_off channel=0 note=91 velocity=64 time=0\n",
      "note_off channel=0 note=93 velocity=64 time=0\n",
      "note_off channel=0 note=97 velocity=64 time=0\n",
      "note_off channel=0 note=82 velocity=64 time=2\n",
      "note_on channel=0 note=73 velocity=17 time=1\n",
      "note_on channel=0 note=94 velocity=33 time=0\n",
      "note_on channel=0 note=93 velocity=39 time=4\n",
      "note_off channel=0 note=94 velocity=64 time=0\n",
      "note_off channel=0 note=73 velocity=64 time=5\n",
      "note_on channel=0 note=73 velocity=13 time=1\n",
      "note_off channel=0 note=73 velocity=64 time=4\n",
      "note_off channel=0 note=93 velocity=64 time=2\n",
      "note_on channel=0 note=94 velocity=34 time=0\n",
      "note_off channel=0 note=87 velocity=64 time=4\n",
      "note_on channel=0 note=93 velocity=35 time=0\n",
      "note_off channel=0 note=94 velocity=64 time=0\n",
      "note_on channel=0 note=79 velocity=76 time=2\n",
      "note_off channel=0 note=80 velocity=64 time=0\n",
      "note_on channel=0 note=85 velocity=44 time=0\n",
      "note_off channel=0 note=86 velocity=64 time=0\n",
      "note_on channel=0 note=77 velocity=30 time=1\n",
      "note_off channel=0 note=83 velocity=64 time=0\n",
      "note_on channel=0 note=89 velocity=58 time=0\n",
      "note_off channel=0 note=90 velocity=64 time=0\n",
      "note_off channel=0 note=76 velocity=64 time=1\n",
      "note_on channel=0 note=83 velocity=66 time=0\n",
      "note_on channel=0 note=99 velocity=28 time=0\n",
      "note_on channel=0 note=76 velocity=67 time=1\n",
      "note_off channel=0 note=77 velocity=64 time=0\n",
      "note_off channel=0 note=89 velocity=64 time=0\n",
      "note_on channel=0 note=90 velocity=55 time=0\n",
      "note_off channel=0 note=79 velocity=64 time=1\n",
      "note_on channel=0 note=80 velocity=70 time=0\n",
      "note_on channel=0 note=65 velocity=39 time=1\n",
      "note_off channel=0 note=71 velocity=64 time=0\n",
      "note_on channel=0 note=72 velocity=60 time=0\n",
      "note_on channel=0 note=82 velocity=39 time=0\n",
      "note_on channel=0 note=87 velocity=53 time=0\n",
      "note_on channel=0 note=91 velocity=36 time=0\n",
      "note_off channel=0 note=52 velocity=64 time=1\n",
      "note_on channel=0 note=53 velocity=67 time=0\n",
      "note_on channel=0 note=81 velocity=60 time=0\n",
      "note_on channel=0 note=89 velocity=66 time=0\n",
      "note_off channel=0 note=90 velocity=64 time=0\n",
      "note_off channel=0 note=92 velocity=64 time=0\n",
      "note_off channel=0 note=65 velocity=64 time=1\n",
      "note_on channel=0 note=66 velocity=51 time=0\n",
      "note_on channel=0 note=78 velocity=68 time=0\n",
      "note_on channel=0 note=79 velocity=51 time=0\n",
      "note_off channel=0 note=80 velocity=64 time=0\n",
      "note_off channel=0 note=83 velocity=64 time=0\n",
      "note_on channel=0 note=86 velocity=30 time=0\n",
      "note_off channel=0 note=89 velocity=64 time=0\n",
      "note_on channel=0 note=92 velocity=39 time=0\n",
      "note_off channel=0 note=53 velocity=64 time=1\n",
      "note_on channel=0 note=54 velocity=62 time=0\n",
      "note_off channel=0 note=72 velocity=64 time=0\n",
      "note_on channel=0 note=73 velocity=54 time=0\n",
      "note_on channel=0 note=84 velocity=55 time=0\n",
      "note_off channel=0 note=99 velocity=64 time=0\n",
      "note_off channel=0 note=76 velocity=64 time=1\n",
      "note_off channel=0 note=86 velocity=64 time=0\n",
      "note_off channel=0 note=91 velocity=64 time=0\n",
      "note_off channel=0 note=73 velocity=64 time=1\n",
      "note_off channel=0 note=79 velocity=64 time=0\n",
      "note_off channel=0 note=82 velocity=64 time=0\n",
      "note_on channel=0 note=83 velocity=42 time=0\n",
      "note_on channel=0 note=73 velocity=48 time=1\n",
      "note_on channel=0 note=75 velocity=26 time=0\n",
      "note_off channel=0 note=78 velocity=64 time=0\n",
      "note_off channel=0 note=81 velocity=64 time=0\n",
      "note_off channel=0 note=87 velocity=64 time=0\n",
      "note_on channel=0 note=78 velocity=61 time=1\n",
      "note_on channel=0 note=82 velocity=49 time=0\n",
      "note_off channel=0 note=83 velocity=64 time=0\n",
      "note_on channel=0 note=87 velocity=57 time=0\n",
      "note_on channel=0 note=91 velocity=38 time=0\n",
      "note_off channel=0 note=101 velocity=64 time=1\n",
      "note_on channel=0 note=65 velocity=34 time=1\n",
      "note_off channel=0 note=66 velocity=64 time=0\n",
      "note_on channel=0 note=72 velocity=56 time=0\n",
      "note_off channel=0 note=73 velocity=64 time=0\n",
      "note_on channel=0 note=81 velocity=63 time=0\n",
      "note_on channel=0 note=89 velocity=60 time=0\n",
      "note_on channel=0 note=53 velocity=64 time=1\n",
      "note_off channel=0 note=54 velocity=64 time=0\n",
      "note_on channel=0 note=77 velocity=46 time=0\n",
      "note_off channel=0 note=78 velocity=64 time=1\n",
      "note_off channel=0 note=75 velocity=64 time=1\n",
      "note_on channel=0 note=52 velocity=66 time=1\n",
      "note_off channel=0 note=53 velocity=64 time=0\n",
      "note_off channel=0 note=65 velocity=64 time=0\n",
      "note_on channel=0 note=76 velocity=60 time=0\n",
      "note_off channel=0 note=77 velocity=64 time=0\n",
      "note_on channel=0 note=80 velocity=63 time=0\n",
      "note_off channel=0 note=81 velocity=64 time=0\n",
      "note_on channel=0 note=83 velocity=71 time=0\n",
      "note_off channel=0 note=84 velocity=64 time=0\n",
      "note_on channel=0 note=86 velocity=43 time=0\n",
      "note_on channel=0 note=88 velocity=65 time=0\n",
      "note_off channel=0 note=89 velocity=64 time=0\n",
      "note_on channel=0 note=71 velocity=50 time=1\n",
      "note_off channel=0 note=72 velocity=64 time=0\n",
      "note_off channel=0 note=82 velocity=64 time=0\n",
      "note_on channel=0 note=82 velocity=30 time=1\n",
      "note_on channel=0 note=101 velocity=25 time=0\n",
      "note_off channel=0 note=91 velocity=64 time=1\n",
      "note_off channel=0 note=82 velocity=64 time=1\n",
      "note_off channel=0 note=93 velocity=64 time=0\n",
      "note_on channel=0 note=82 velocity=38 time=1\n",
      "note_on channel=0 note=93 velocity=18 time=1\n",
      "note_off channel=0 note=95 velocity=64 time=1\n",
      "note_on channel=0 note=73 velocity=12 time=1\n",
      "note_off channel=0 note=82 velocity=64 time=0\n",
      "note_off channel=0 note=93 velocity=64 time=1\n",
      "note_off channel=0 note=85 velocity=64 time=1\n",
      "note_on channel=0 note=93 velocity=22 time=0\n",
      "note_off channel=0 note=73 velocity=64 time=3\n",
      "note_on channel=0 note=91 velocity=23 time=0\n",
      "note_on channel=0 note=75 velocity=29 time=2\n",
      "note_on channel=0 note=84 velocity=11 time=0\n",
      "note_on channel=0 note=85 velocity=48 time=0\n",
      "note_off channel=0 note=86 velocity=64 time=0\n",
      "note_off channel=0 note=101 velocity=64 time=0\n",
      "note_off channel=0 note=76 velocity=64 time=1\n",
      "note_on channel=0 note=78 velocity=11 time=0\n",
      "note_off channel=0 note=71 velocity=64 time=2\n",
      "note_on channel=0 note=77 velocity=19 time=2\n",
      "note_off channel=0 note=78 velocity=64 time=0\n",
      "note_off channel=0 note=84 velocity=64 time=0\n",
      "note_off channel=0 note=93 velocity=64 time=4\n",
      "note_on channel=0 note=73 velocity=26 time=1\n",
      "note_off channel=0 note=92 velocity=64 time=2\n",
      "note_off channel=0 note=52 velocity=64 time=1\n",
      "note_on channel=0 note=52 velocity=12 time=1\n",
      "note_off channel=0 note=77 velocity=64 time=1\n",
      "note_off channel=0 note=52 velocity=64 time=2\n",
      "note_off channel=0 note=91 velocity=64 time=4\n",
      "note_on channel=0 note=77 velocity=23 time=4\n",
      "note_on channel=0 note=91 velocity=34 time=1\n",
      "note_on channel=0 note=72 velocity=50 time=4\n",
      "note_on channel=0 note=78 velocity=59 time=0\n",
      "note_off channel=0 note=88 velocity=64 time=0\n",
      "note_on channel=0 note=53 velocity=66 time=1\n",
      "note_off channel=0 note=73 velocity=64 time=0\n",
      "note_on channel=0 note=76 velocity=50 time=0\n",
      "note_off channel=0 note=77 velocity=64 time=0\n",
      "note_on channel=0 note=84 velocity=69 time=0\n",
      "note_on channel=0 note=100 velocity=43 time=0\n",
      "note_on channel=0 note=101 velocity=49 time=0\n",
      "note_off channel=0 note=80 velocity=64 time=1\n",
      "note_on channel=0 note=94 velocity=16 time=0\n",
      "note_on channel=0 note=102 velocity=41 time=0\n",
      "note_off channel=0 note=75 velocity=64 time=1\n",
      "note_on channel=0 note=80 velocity=67 time=0\n",
      "note_on channel=0 note=51 velocity=68 time=1\n",
      "note_off channel=0 note=53 velocity=64 time=0\n",
      "note_on channel=0 note=69 velocity=44 time=0\n",
      "note_on channel=0 note=81 velocity=66 time=0\n",
      "note_on channel=0 note=86 velocity=33 time=0\n",
      "note_on channel=0 note=50 velocity=67 time=1\n",
      "note_off channel=0 note=51 velocity=64 time=0\n",
      "note_off channel=0 note=72 velocity=64 time=0\n",
      "note_on channel=0 note=74 velocity=48 time=0\n",
      "note_off channel=0 note=80 velocity=64 time=0\n",
      "note_off channel=0 note=83 velocity=64 time=0\n",
      "note_on channel=0 note=49 velocity=72 time=1\n",
      "note_off channel=0 note=50 velocity=64 time=0\n",
      "note_off channel=0 note=76 velocity=64 time=0\n",
      "note_on channel=0 note=83 velocity=74 time=0\n",
      "note_off channel=0 note=84 velocity=64 time=0\n",
      "note_off channel=0 note=86 velocity=64 time=0\n",
      "note_off channel=0 note=85 velocity=64 time=1\n",
      "note_on channel=0 note=86 velocity=57 time=0\n",
      "note_off channel=0 note=49 velocity=64 time=1\n",
      "note_on channel=0 note=50 velocity=78 time=0\n",
      "note_on channel=0 note=84 velocity=69 time=0\n",
      "note_off channel=0 note=69 velocity=64 time=1\n",
      "note_off channel=0 note=74 velocity=64 time=0\n",
      "note_on channel=0 note=89 velocity=30 time=0\n",
      "note_off channel=0 note=50 velocity=64 time=1\n",
      "note_on channel=0 note=64 velocity=50 time=0\n",
      "note_on channel=0 note=76 velocity=66 time=0\n",
      "note_on channel=0 note=80 velocity=74 time=0\n",
      "note_off channel=0 note=81 velocity=64 time=0\n",
      "note_on channel=0 note=53 velocity=74 time=1\n",
      "note_on channel=0 note=72 velocity=63 time=0\n",
      "note_off channel=0 note=78 velocity=64 time=0\n",
      "note_off channel=0 note=84 velocity=64 time=0\n",
      "note_on channel=0 note=85 velocity=52 time=0\n",
      "note_off channel=0 note=86 velocity=64 time=0\n",
      "note_off channel=0 note=89 velocity=64 time=0\n",
      "note_on channel=0 note=96 velocity=15 time=0\n",
      "note_on channel=0 note=78 velocity=56 time=1\n",
      "note_off channel=0 note=80 velocity=64 time=0\n",
      "note_on channel=0 note=81 velocity=70 time=0\n",
      "note_on channel=0 note=84 velocity=63 time=0\n",
      "note_off channel=0 note=94 velocity=64 time=0\n",
      "note_off channel=0 note=64 velocity=64 time=1\n",
      "note_on channel=0 note=66 velocity=47 time=0\n",
      "note_on channel=0 note=75 velocity=20 time=0\n",
      "note_off channel=0 note=76 velocity=64 time=0\n",
      "note_on channel=0 note=80 velocity=37 time=0\n",
      "note_off channel=0 note=85 velocity=64 time=0\n",
      "note_on channel=0 note=86 velocity=42 time=0\n",
      "note_off channel=0 note=72 velocity=64 time=1\n",
      "note_on channel=0 note=73 velocity=59 time=0\n",
      "note_off channel=0 note=81 velocity=64 time=0\n",
      "note_off channel=0 note=84 velocity=64 time=0\n",
      "note_off channel=0 note=96 velocity=64 time=0\n",
      "note_off channel=0 note=53 velocity=64 time=1\n",
      "note_on channel=0 note=54 velocity=66 time=0\n",
      "note_on channel=0 note=81 velocity=63 time=0\n",
      "note_off channel=0 note=100 velocity=64 time=0\n",
      "note_on channel=0 note=65 velocity=42 time=1\n",
      "note_off channel=0 note=66 velocity=64 time=0\n",
      "note_on channel=0 note=72 velocity=58 time=0\n",
      "note_off channel=0 note=73 velocity=64 time=0\n",
      "note_off channel=0 note=75 velocity=64 time=0\n",
      "note_off channel=0 note=80 velocity=64 time=0\n",
      "note_off channel=0 note=86 velocity=64 time=0\n",
      "note_on channel=0 note=89 velocity=42 time=0\n",
      "note_on channel=0 note=53 velocity=68 time=1\n",
      "note_off channel=0 note=54 velocity=64 time=0\n",
      "note_on channel=0 note=77 velocity=62 time=0\n",
      "note_off channel=0 note=78 velocity=64 time=0\n",
      "note_on channel=0 note=80 velocity=66 time=0\n",
      "note_on channel=0 note=90 velocity=27 time=0\n",
      "note_on channel=0 note=52 velocity=70 time=1\n",
      "note_off channel=0 note=53 velocity=64 time=0\n",
      "note_off channel=0 note=65 velocity=64 time=0\n",
      "note_on channel=0 note=71 velocity=44 time=0\n",
      "note_off channel=0 note=72 velocity=64 time=0\n",
      "note_on channel=0 note=73 velocity=29 time=0\n",
      "note_on channel=0 note=76 velocity=58 time=0\n",
      "note_off channel=0 note=81 velocity=64 time=0\n",
      "note_off channel=0 note=77 velocity=64 time=1\n",
      "note_on channel=0 note=78 velocity=45 time=0\n",
      "note_on channel=0 note=85 velocity=49 time=0\n",
      "note_off channel=0 note=89 velocity=64 time=0\n",
      "note_on channel=0 note=93 velocity=16 time=0\n",
      "note_on channel=0 note=63 velocity=43 time=1\n",
      "note_off channel=0 note=71 velocity=64 time=0\n",
      "note_on channel=0 note=79 velocity=56 time=0\n",
      "note_on channel=0 note=71 velocity=41 time=1\n",
      "note_off channel=0 note=76 velocity=64 time=0\n",
      "note_on channel=0 note=77 velocity=39 time=0\n",
      "note_off channel=0 note=78 velocity=64 time=0\n",
      "note_off channel=0 note=80 velocity=64 time=0\n",
      "note_off channel=0 note=63 velocity=64 time=1\n",
      "note_on channel=0 note=76 velocity=57 time=0\n",
      "note_on channel=0 note=80 velocity=56 time=1\n",
      "note_off channel=0 note=87 velocity=64 time=0\n",
      "note_off channel=0 note=77 velocity=64 time=1\n",
      "note_off channel=0 note=79 velocity=64 time=0\n",
      "note_off channel=0 note=93 velocity=64 time=0\n",
      "note_off channel=0 note=102 velocity=64 time=0\n",
      "note_on channel=0 note=86 velocity=26 time=2\n",
      "note_off channel=0 note=85 velocity=64 time=1\n",
      "note_on channel=0 note=65 velocity=40 time=1\n",
      "note_off channel=0 note=73 velocity=64 time=0\n",
      "note_on channel=0 note=87 velocity=46 time=0\n",
      "note_off channel=0 note=71 velocity=64 time=1\n",
      "note_on channel=0 note=72 velocity=53 time=0\n",
      "note_off channel=0 note=90 velocity=64 time=0\n",
      "note_on channel=0 note=93 velocity=22 time=0\n",
      "note_off channel=0 note=76 velocity=64 time=1\n",
      "note_on channel=0 note=81 velocity=51 time=0\n",
      "note_off channel=0 note=52 velocity=64 time=1\n",
      "note_on channel=0 note=53 velocity=66 time=0\n",
      "note_off channel=0 note=80 velocity=64 time=0\n",
      "note_on channel=0 note=80 velocity=35 time=1\n",
      "note_off channel=0 note=86 velocity=64 time=0\n",
      "note_off channel=0 note=53 velocity=64 time=2\n",
      "note_on channel=0 note=54 velocity=59 time=0\n",
      "note_on channel=0 note=100 velocity=15 time=0\n",
      "note_off channel=0 note=65 velocity=64 time=1\n",
      "note_off channel=0 note=101 velocity=64 time=0\n",
      "note_on channel=0 note=102 velocity=28 time=0\n",
      "note_off channel=0 note=72 velocity=64 time=1\n",
      "note_on channel=0 note=73 velocity=53 time=0\n",
      "note_on channel=0 note=90 velocity=17 time=0\n",
      "note_on channel=0 note=53 velocity=61 time=1\n",
      "note_off channel=0 note=54 velocity=64 time=0\n",
      "note_on channel=0 note=78 velocity=60 time=0\n",
      "note_off channel=0 note=91 velocity=64 time=0\n",
      "note_on channel=0 note=91 velocity=32 time=1\n",
      "note_off channel=0 note=100 velocity=64 time=0\n",
      "note_off channel=0 note=53 velocity=64 time=1\n",
      "note_on channel=0 note=54 velocity=61 time=0\n",
      "note_off channel=0 note=81 velocity=64 time=0\n",
      "note_on channel=0 note=82 velocity=49 time=0\n",
      "note_off channel=0 note=93 velocity=64 time=1\n",
      "note_off channel=0 note=90 velocity=64 time=2\n",
      "note_off channel=0 note=82 velocity=64 time=3\n",
      "note_off channel=0 note=102 velocity=64 time=3\n",
      "note_off channel=0 note=73 velocity=64 time=1\n",
      "note_off channel=0 note=87 velocity=64 time=4\n",
      "note_on channel=0 note=45 velocity=17 time=3\n",
      "note_on channel=0 note=73 velocity=19 time=0\n",
      "note_on channel=0 note=75 velocity=15 time=0\n",
      "note_off channel=0 note=45 velocity=64 time=5\n",
      "note_on channel=0 note=87 velocity=16 time=2\n",
      "note_off channel=0 note=73 velocity=64 time=3\n",
      "note_on channel=0 note=73 velocity=11 time=4\n",
      "note_on channel=0 note=85 velocity=15 time=0\n",
      "note_off channel=0 note=75 velocity=64 time=1\n",
      "note_off channel=0 note=87 velocity=64 time=0\n",
      "note_on channel=0 note=75 velocity=25 time=2\n",
      "note_off channel=0 note=73 velocity=64 time=2\n",
      "note_on channel=0 note=87 velocity=40 time=4\n",
      "note_on channel=0 note=84 velocity=35 time=1\n",
      "note_on channel=0 note=88 velocity=43 time=0\n",
      "note_off channel=0 note=78 velocity=64 time=3\n",
      "note_on channel=0 note=82 velocity=26 time=1\n",
      "note_off channel=0 note=85 velocity=64 time=0\n",
      "note_off channel=0 note=83 velocity=64 time=1\n",
      "note_on channel=0 note=86 velocity=16 time=2\n",
      "note_off channel=0 note=82 velocity=64 time=2\n",
      "note_on channel=0 note=82 velocity=36 time=1\n",
      "note_off channel=0 note=86 velocity=64 time=0\n",
      "note_on channel=0 note=73 velocity=17 time=2\n",
      "note_on channel=0 note=86 velocity=24 time=2\n",
      "note_off channel=0 note=73 velocity=64 time=3\n",
      "note_on channel=0 note=77 velocity=17 time=0\n",
      "note_on channel=0 note=72 velocity=11 time=1\n",
      "note_off channel=0 note=77 velocity=64 time=3\n",
      "note_off channel=0 note=72 velocity=64 time=3\n",
      "note_on channel=0 note=77 velocity=17 time=1\n",
      "note_off channel=0 note=77 velocity=64 time=4\n",
      "note_off channel=0 note=75 velocity=64 time=3\n",
      "note_on channel=0 note=75 velocity=37 time=5\n",
      "note_on channel=0 note=73 velocity=21 time=3\n",
      "note_off channel=0 note=86 velocity=64 time=2\n",
      "note_on channel=0 note=77 velocity=31 time=5\n",
      "note_off channel=0 note=87 velocity=64 time=0\n",
      "note_off channel=0 note=77 velocity=64 time=6\n",
      "note_on channel=0 note=95 velocity=28 time=4\n",
      "note_on channel=0 note=87 velocity=42 time=1\n",
      "note_on channel=0 note=93 velocity=25 time=0\n",
      "note_off channel=0 note=80 velocity=64 time=1\n",
      "note_on channel=0 note=86 velocity=22 time=0\n",
      "note_on channel=0 note=92 velocity=34 time=1\n",
      "note_off channel=0 note=86 velocity=64 time=3\n",
      "note_on channel=0 note=86 velocity=20 time=1\n",
      "note_on channel=0 note=77 velocity=17 time=1\n",
      "note_on channel=0 note=80 velocity=35 time=0\n",
      "note_on channel=0 note=72 velocity=16 time=2\n",
      "note_off channel=0 note=73 velocity=64 time=0\n",
      "note_on channel=0 note=83 velocity=31 time=3\n",
      "note_off channel=0 note=82 velocity=64 time=1\n",
      "note_off channel=0 note=86 velocity=64 time=0\n",
      "note_off channel=0 note=77 velocity=64 time=1\n",
      "note_on channel=0 note=77 velocity=23 time=5\n",
      "note_off channel=0 note=77 velocity=64 time=4\n",
      "note_on channel=0 note=82 velocity=43 time=0\n",
      "note_off channel=0 note=83 velocity=64 time=1\n",
      "note_on channel=0 note=77 velocity=29 time=1\n",
      "note_on channel=0 note=86 velocity=26 time=1\n",
      "note_off channel=0 note=77 velocity=64 time=2\n",
      "note_off channel=0 note=91 velocity=64 time=0\n",
      "note_on channel=0 note=77 velocity=31 time=1\n",
      "note_off channel=0 note=87 velocity=64 time=2\n",
      "note_off channel=0 note=72 velocity=64 time=1\n",
      "note_on channel=0 note=72 velocity=14 time=1\n",
      "note_off channel=0 note=77 velocity=64 time=3\n",
      "note_off channel=0 note=95 velocity=64 time=3\n",
      "note_on channel=0 note=85 velocity=20 time=2\n",
      "note_off channel=0 note=86 velocity=64 time=0\n",
      "note_on channel=0 note=91 velocity=16 time=0\n",
      "note_on channel=0 note=83 velocity=35 time=1\n",
      "note_off channel=0 note=82 velocity=64 time=1\n",
      "note_on channel=0 note=82 velocity=41 time=1\n",
      "note_off channel=0 note=83 velocity=64 time=0\n",
      "note_on channel=0 note=73 velocity=21 time=1\n",
      "note_off channel=0 note=72 velocity=64 time=1\n",
      "note_on channel=0 note=83 velocity=42 time=1\n",
      "note_off channel=0 note=82 velocity=64 time=1\n",
      "note_off channel=0 note=93 velocity=64 time=1\n",
      "note_off channel=0 note=91 velocity=64 time=2\n",
      "note_on channel=0 note=91 velocity=19 time=1\n",
      "note_on channel=0 note=93 velocity=26 time=0\n",
      "note_off channel=0 note=85 velocity=64 time=2\n",
      "note_on channel=0 note=77 velocity=30 time=4\n",
      "note_on channel=0 note=86 velocity=13 time=0\n",
      "note_off channel=0 note=75 velocity=64 time=4\n",
      "note_off channel=0 note=84 velocity=64 time=1\n",
      "note_off channel=0 note=86 velocity=64 time=0\n",
      "note_on channel=0 note=84 velocity=13 time=6\n",
      "note_on channel=0 note=82 velocity=36 time=2\n",
      "note_on channel=0 note=75 velocity=29 time=1\n",
      "note_off channel=0 note=83 velocity=64 time=0\n",
      "note_off channel=0 note=73 velocity=64 time=4\n",
      "note_on channel=0 note=85 velocity=26 time=1\n",
      "note_on channel=0 note=87 velocity=76 time=13\n",
      "note_on channel=0 note=73 velocity=11 time=1\n",
      "note_off channel=0 note=84 velocity=64 time=1\n",
      "note_off channel=0 note=82 velocity=64 time=4\n",
      "note_on channel=0 note=83 velocity=51 time=0\n",
      "note_on channel=0 note=84 velocity=17 time=2\n",
      "note_off channel=0 note=80 velocity=64 time=3\n",
      "note_on channel=0 note=80 velocity=14 time=3\n",
      "note_off channel=0 note=80 velocity=64 time=4\n",
      "note_off channel=0 note=73 velocity=64 time=1\n",
      "note_off channel=0 note=77 velocity=64 time=0\n",
      "note_off channel=0 note=91 velocity=64 time=0\n",
      "note_on channel=0 note=91 velocity=31 time=1\n",
      "note_on channel=0 note=80 velocity=17 time=3\n",
      "note_on channel=0 note=77 velocity=15 time=1\n",
      "note_on channel=0 note=73 velocity=26 time=1\n",
      "note_off channel=0 note=77 velocity=64 time=2\n",
      "note_off channel=0 note=80 velocity=64 time=0\n",
      "note_on channel=0 note=77 velocity=16 time=1\n",
      "note_on channel=0 note=80 velocity=41 time=1\n",
      "note_on channel=0 note=44 velocity=11 time=1\n",
      "note_off channel=0 note=92 velocity=64 time=0\n",
      "note_off channel=0 note=93 velocity=64 time=2\n",
      "note_off channel=0 note=44 velocity=64 time=1\n",
      "note_on channel=0 note=53 velocity=31 time=1\n",
      "note_off channel=0 note=54 velocity=64 time=0\n",
      "note_off channel=0 note=84 velocity=64 time=0\n",
      "note_off channel=0 note=77 velocity=64 time=1\n",
      "note_off channel=0 note=53 velocity=64 time=2\n",
      "note_on channel=0 note=77 velocity=14 time=7\n",
      "note_on channel=0 note=93 velocity=10 time=5\n",
      "note_off channel=0 note=93 velocity=64 time=4\n",
      "note_on channel=0 note=90 velocity=23 time=1\n",
      "note_off channel=0 note=77 velocity=64 time=6\n",
      "note_off channel=0 note=88 velocity=64 time=1\n",
      "note_off channel=0 note=85 velocity=64 time=3\n",
      "note_on channel=0 note=82 velocity=58 time=6\n",
      "note_on channel=0 note=85 velocity=78 time=0\n",
      "note_on channel=0 note=51 velocity=60 time=1\n",
      "note_on channel=0 note=70 velocity=40 time=0\n",
      "note_off channel=0 note=75 velocity=64 time=0\n",
      "note_on channel=0 note=79 velocity=77 time=0\n",
      "note_off channel=0 note=80 velocity=64 time=0\n",
      "note_on channel=0 note=100 velocity=45 time=0\n",
      "note_on channel=0 note=101 velocity=64 time=0\n",
      "note_on channel=0 note=75 velocity=65 time=1\n",
      "note_off channel=0 note=83 velocity=64 time=0\n",
      "note_on channel=0 note=89 velocity=40 time=0\n",
      "note_off channel=0 note=90 velocity=64 time=0\n",
      "note_on channel=0 note=93 velocity=29 time=0\n",
      "note_on channel=0 note=102 velocity=56 time=1\n",
      "note_on channel=0 note=95 velocity=16 time=1\n",
      "note_off channel=0 note=82 velocity=64 time=4\n",
      "note_on channel=0 note=83 velocity=76 time=0\n",
      "note_on channel=0 note=96 velocity=16 time=0\n",
      "note_off channel=0 note=73 velocity=64 time=3\n",
      "note_off channel=0 note=95 velocity=64 time=0\n",
      "note_off channel=0 note=51 velocity=64 time=2\n",
      "note_on channel=0 note=52 velocity=75 time=0\n",
      "note_off channel=0 note=75 velocity=64 time=0\n",
      "note_on channel=0 note=76 velocity=80 time=0\n",
      "note_off channel=0 note=89 velocity=64 time=0\n",
      "note_on channel=0 note=90 velocity=35 time=0\n",
      "note_on channel=0 note=92 velocity=34 time=0\n",
      "note_off channel=0 note=70 velocity=64 time=1\n",
      "note_on channel=0 note=71 velocity=60 time=0\n",
      "note_off channel=0 note=79 velocity=64 time=0\n",
      "note_on channel=0 note=80 velocity=77 time=0\n",
      "note_off channel=0 note=91 velocity=64 time=0\n",
      "note_on channel=0 note=79 velocity=45 time=2\n",
      "note_on channel=0 note=86 velocity=51 time=0\n",
      "note_off channel=0 note=93 velocity=64 time=0\n",
      "note_on channel=0 note=94 velocity=25 time=0\n",
      "note_off channel=0 note=96 velocity=64 time=0\n",
      "note_off channel=0 note=79 velocity=64 time=2\n",
      "note_off channel=0 note=85 velocity=64 time=0\n",
      "note_on channel=0 note=91 velocity=27 time=0\n",
      "note_on channel=0 note=65 velocity=51 time=1\n",
      "note_off channel=0 note=71 velocity=64 time=1\n",
      "note_on channel=0 note=72 velocity=69 time=0\n",
      "note_off channel=0 note=83 velocity=64 time=0\n",
      "note_on channel=0 note=89 velocity=63 time=0\n",
      "note_off channel=0 note=90 velocity=64 time=0\n",
      "note_off channel=0 note=100 velocity=64 time=0\n",
      "note_off channel=0 note=52 velocity=64 time=1\n",
      "note_on channel=0 note=53 velocity=73 time=0\n",
      "note_off channel=0 note=76 velocity=64 time=0\n",
      "note_on channel=0 note=77 velocity=69 time=0\n",
      "note_on channel=0 note=81 velocity=66 time=0\n",
      "note_on channel=0 note=68 velocity=10 time=1\n",
      "note_off channel=0 note=80 velocity=64 time=0\n",
      "note_on channel=0 note=83 velocity=45 time=0\n",
      "note_off channel=0 note=87 velocity=64 time=0\n",
      "note_off channel=0 note=92 velocity=64 time=0\n",
      "note_on channel=0 note=87 velocity=62 time=1\n",
      "note_off channel=0 note=94 velocity=64 time=0\n",
      "note_off channel=0 note=86 velocity=64 time=1\n",
      "note_on channel=0 note=88 velocity=31 time=0\n",
      "note_off channel=0 note=91 velocity=64 time=0\n",
      "note_off channel=0 note=53 velocity=64 time=1\n",
      "note_on channel=0 note=54 velocity=62 time=0\n",
      "note_off channel=0 note=68 velocity=64 time=0\n",
      "note_on channel=0 note=80 velocity=35 time=0\n",
      "note_on channel=0 note=91 velocity=35 time=1\n",
      "note_on channel=0 note=53 velocity=67 time=1\n",
      "note_off channel=0 note=54 velocity=64 time=0\n",
      "note_off channel=0 note=88 velocity=64 time=0\n",
      "note_off channel=0 note=102 velocity=64 time=0\n",
      "note_off channel=0 note=77 velocity=64 time=1\n",
      "note_on channel=0 note=78 velocity=53 time=0\n",
      "note_off channel=0 note=65 velocity=64 time=1\n",
      "note_on channel=0 note=66 velocity=50 time=0\n",
      "note_off channel=0 note=72 velocity=64 time=0\n",
      "note_on channel=0 note=73 velocity=68 time=0\n",
      "note_off channel=0 note=89 velocity=64 time=0\n",
      "note_on channel=0 note=90 velocity=60 time=0\n",
      "note_off channel=0 note=53 velocity=64 time=1\n",
      "note_on channel=0 note=54 velocity=66 time=0\n",
      "note_on channel=0 note=77 velocity=62 time=0\n",
      "note_off channel=0 note=78 velocity=64 time=0\n",
      "note_on channel=0 note=92 velocity=37 time=0\n",
      "note_off channel=0 note=101 velocity=64 time=0\n",
      "note_on channel=0 note=75 velocity=33 time=1\n",
      "note_off channel=0 note=91 velocity=64 time=0\n",
      "note_off channel=0 note=77 velocity=64 time=1\n",
      "note_on channel=0 note=78 velocity=79 time=0\n",
      "note_on channel=0 note=53 velocity=66 time=1\n",
      "note_off channel=0 note=54 velocity=64 time=0\n",
      "note_off channel=0 note=53 velocity=64 time=1\n",
      "note_on channel=0 note=54 velocity=64 time=0\n",
      "note_on channel=0 note=101 velocity=49 time=0\n",
      "note_on channel=0 note=94 velocity=35 time=1\n",
      "note_off channel=0 note=81 velocity=64 time=2\n",
      "note_on channel=0 note=82 velocity=54 time=0\n",
      "note_on channel=0 note=91 velocity=45 time=1\n",
      "note_off channel=0 note=83 velocity=64 time=1\n",
      "note_off channel=0 note=87 velocity=64 time=0\n",
      "note_on channel=0 note=88 velocity=29 time=0\n",
      "note_on channel=0 note=83 velocity=35 time=1\n",
      "note_on channel=0 note=87 velocity=40 time=3\n",
      "note_off channel=0 note=88 velocity=64 time=0\n",
      "note_off channel=0 note=92 velocity=64 time=2\n",
      "note_off channel=0 note=80 velocity=64 time=5\n",
      "note_on channel=0 note=92 velocity=38 time=2\n",
      "note_off channel=0 note=87 velocity=64 time=3\n",
      "note_on channel=0 note=88 velocity=33 time=0\n",
      "note_off channel=0 note=82 velocity=64 time=1\n",
      "note_on channel=0 note=82 velocity=43 time=1\n",
      "note_on channel=0 note=84 velocity=25 time=1\n",
      "note_on channel=0 note=80 velocity=13 time=1\n",
      "note_on channel=0 note=87 velocity=70 time=1\n",
      "note_off channel=0 note=92 velocity=64 time=1\n",
      "note_on channel=0 note=65 velocity=44 time=1\n",
      "note_off channel=0 note=66 velocity=64 time=0\n",
      "note_off channel=0 note=80 velocity=64 time=0\n",
      "note_on channel=0 note=81 velocity=63 time=0\n",
      "note_off channel=0 note=82 velocity=64 time=0\n",
      "note_off channel=0 note=84 velocity=64 time=0\n",
      "note_on channel=0 note=92 velocity=41 time=0\n",
      "note_off channel=0 note=94 velocity=64 time=0\n",
      "note_on channel=0 note=53 velocity=63 time=1\n",
      "note_off channel=0 note=54 velocity=64 time=0\n",
      "note_off channel=0 note=75 velocity=64 time=0\n",
      "note_on channel=0 note=84 velocity=70 time=0\n",
      "note_off channel=0 note=88 velocity=64 time=0\n",
      "note_on channel=0 note=89 velocity=73 time=0\n",
      "note_off channel=0 note=90 velocity=64 time=0\n",
      "note_on channel=0 note=72 velocity=65 time=1\n",
      "note_off channel=0 note=73 velocity=64 time=0\n",
      "note_off channel=0 note=83 velocity=64 time=0\n",
      "note_on channel=0 note=94 velocity=25 time=0\n",
      "note_on channel=0 note=77 velocity=74 time=1\n",
      "note_off channel=0 note=78 velocity=64 time=0\n",
      "note_on channel=0 note=64 velocity=43 time=1\n",
      "note_off channel=0 note=65 velocity=64 time=0\n",
      "note_on channel=0 note=76 velocity=74 time=0\n",
      "note_off channel=0 note=77 velocity=64 time=0\n",
      "note_on channel=0 note=80 velocity=65 time=0\n",
      "note_off channel=0 note=81 velocity=64 time=0\n",
      "note_on channel=0 note=83 velocity=74 time=0\n",
      "note_off channel=0 note=84 velocity=64 time=0\n",
      "note_on channel=0 note=86 velocity=48 time=0\n",
      "note_on channel=0 note=90 velocity=45 time=0\n",
      "note_on channel=0 note=100 velocity=36 time=0\n",
      "note_on channel=0 note=52 velocity=62 time=1\n",
      "note_off channel=0 note=53 velocity=64 time=0\n",
      "note_off channel=0 note=72 velocity=64 time=0\n",
      "note_on channel=0 note=82 velocity=26 time=0\n",
      "note_off channel=0 note=64 velocity=64 time=1\n",
      "note_on channel=0 note=65 velocity=47 time=0\n",
      "note_on channel=0 note=72 velocity=65 time=0\n",
      "note_on channel=0 note=77 velocity=73 time=0\n",
      "note_off channel=0 note=83 velocity=64 time=0\n",
      "note_on channel=0 note=84 velocity=68 time=0\n",
      "note_off channel=0 note=90 velocity=64 time=0\n",
      "note_off channel=0 note=100 velocity=64 time=0\n",
      "note_off channel=0 note=52 velocity=64 time=1\n",
      "note_on channel=0 note=53 velocity=62 time=0\n",
      "note_off channel=0 note=76 velocity=64 time=0\n",
      "note_on channel=0 note=93 velocity=27 time=0\n",
      "note_on channel=0 note=100 velocity=19 time=0\n",
      "note_on channel=0 note=81 velocity=47 time=1\n",
      "note_off channel=0 note=86 velocity=64 time=0\n",
      "note_off channel=0 note=80 velocity=64 time=1\n",
      "note_off channel=0 note=82 velocity=64 time=0\n",
      "note_on channel=0 note=88 velocity=53 time=0\n",
      "note_off channel=0 note=94 velocity=64 time=0\n",
      "note_on channel=0 note=95 velocity=34 time=0\n",
      "note_off channel=0 note=53 velocity=64 time=1\n",
      "note_on channel=0 note=54 velocity=64 time=0\n",
      "note_off channel=0 note=65 velocity=64 time=0\n",
      "note_on channel=0 note=80 velocity=28 time=0\n",
      "note_on channel=0 note=82 velocity=39 time=0\n",
      "note_on channel=0 note=85 velocity=29 time=0\n",
      "note_off channel=0 note=92 velocity=64 time=0\n",
      "note_off channel=0 note=72 velocity=64 time=1\n",
      "note_on channel=0 note=73 velocity=65 time=0\n",
      "note_off channel=0 note=81 velocity=64 time=0\n",
      "note_on channel=0 note=86 velocity=22 time=0\n",
      "note_off channel=0 note=89 velocity=64 time=0\n",
      "note_on channel=0 note=90 velocity=71 time=0\n",
      "note_off channel=0 note=100 velocity=64 time=0\n",
      "note_on channel=0 note=78 velocity=79 time=1\n",
      "note_off channel=0 note=85 velocity=64 time=0\n",
      "note_off channel=0 note=93 velocity=64 time=0\n",
      "note_off channel=0 note=77 velocity=64 time=1\n",
      "note_off channel=0 note=86 velocity=64 time=2\n",
      "note_on channel=0 note=75 velocity=31 time=5\n",
      "note_off channel=0 note=84 velocity=64 time=2\n",
      "note_off channel=0 note=82 velocity=64 time=3\n",
      "note_on channel=0 note=92 velocity=36 time=0\n",
      "note_on channel=0 note=82 velocity=43 time=1\n",
      "note_on channel=0 note=93 velocity=32 time=0\n",
      "note_off channel=0 note=101 velocity=64 time=0\n",
      "note_on channel=0 note=81 velocity=65 time=1\n",
      "note_off channel=0 note=82 velocity=64 time=1\n",
      "note_on channel=0 note=65 velocity=41 time=1\n",
      "note_on channel=0 note=86 velocity=16 time=0\n",
      "note_off channel=0 note=91 velocity=64 time=0\n",
      "note_on channel=0 note=101 velocity=58 time=0\n",
      "note_on channel=0 note=53 velocity=65 time=1\n",
      "note_off channel=0 note=54 velocity=64 time=0\n",
      "note_on channel=0 note=72 velocity=63 time=0\n",
      "note_off channel=0 note=73 velocity=64 time=0\n",
      "note_off channel=0 note=80 velocity=64 time=0\n",
      "note_on channel=0 note=84 velocity=68 time=0\n",
      "note_on channel=0 note=89 velocity=76 time=0\n",
      "note_off channel=0 note=90 velocity=64 time=0\n",
      "note_on channel=0 note=102 velocity=62 time=0\n",
      "note_on channel=0 note=80 velocity=10 time=1\n",
      "note_on channel=0 note=91 velocity=39 time=0\n",
      "note_off channel=0 note=92 velocity=64 time=0\n",
      "note_on channel=0 note=82 velocity=32 time=1\n",
      "note_on channel=0 note=77 velocity=54 time=2\n",
      "note_off channel=0 note=78 velocity=64 time=0\n",
      "note_off channel=0 note=80 velocity=64 time=0\n",
      "note_off channel=0 note=88 velocity=64 time=0\n",
      "note_on channel=0 note=90 velocity=32 time=1\n",
      "note_off channel=0 note=77 velocity=64 time=1\n",
      "note_on channel=0 note=78 velocity=49 time=0\n",
      "note_off channel=0 note=86 velocity=64 time=0\n",
      "note_off channel=0 note=82 velocity=64 time=1\n",
      "note_on channel=0 note=77 velocity=62 time=1\n",
      "note_off channel=0 note=78 velocity=64 time=0\n",
      "note_on channel=0 note=82 velocity=35 time=0\n",
      "note_off channel=0 note=95 velocity=64 time=0\n",
      "note_off channel=0 note=90 velocity=64 time=1\n",
      "note_on channel=0 note=90 velocity=65 time=1\n",
      "note_on channel=0 note=92 velocity=48 time=1\n",
      "note_off channel=0 note=93 velocity=64 time=0\n",
      "note_on channel=0 note=52 velocity=70 time=1\n",
      "note_off channel=0 note=53 velocity=64 time=0\n",
      "note_off channel=0 note=75 velocity=64 time=0\n",
      "note_on channel=0 note=80 velocity=67 time=0\n",
      "note_off channel=0 note=81 velocity=64 time=0\n",
      "note_on channel=0 note=86 velocity=54 time=0\n",
      "note_off channel=0 note=87 velocity=64 time=0\n",
      "note_on channel=0 note=99 velocity=12 time=0\n",
      "note_off channel=0 note=65 velocity=64 time=1\n",
      "note_on channel=0 note=71 velocity=55 time=0\n",
      "note_off channel=0 note=72 velocity=64 time=0\n",
      "note_on channel=0 note=76 velocity=72 time=0\n",
      "note_off channel=0 note=77 velocity=64 time=0\n",
      "note_on channel=0 note=83 velocity=76 time=0\n",
      "note_off channel=0 note=84 velocity=64 time=0\n",
      "note_on channel=0 note=88 velocity=75 time=0\n",
      "note_off channel=0 note=89 velocity=64 time=0\n",
      "note_off channel=0 note=82 velocity=64 time=3\n",
      "note_on channel=0 note=82 velocity=36 time=1\n",
      "note_off channel=0 note=99 velocity=64 time=1\n",
      "note_off channel=0 note=82 velocity=64 time=1\n",
      "note_on channel=0 note=73 velocity=16 time=1\n",
      "note_on channel=0 note=78 velocity=32 time=0\n",
      "note_on channel=0 note=87 velocity=56 time=3\n",
      "note_off channel=0 note=78 velocity=64 time=3\n",
      "note_on channel=0 note=97 velocity=9 time=0\n",
      "note_off channel=0 note=73 velocity=64 time=2\n",
      "note_off channel=0 note=97 velocity=64 time=1\n",
      "note_on channel=0 note=93 velocity=39 time=4\n",
      "note_on channel=0 note=96 velocity=13 time=1\n",
      "note_on channel=0 note=73 velocity=11 time=1\n",
      "note_off channel=0 note=93 velocity=64 time=2\n",
      "note_off channel=0 note=96 velocity=64 time=0\n",
      "note_off channel=0 note=73 velocity=64 time=1\n",
      "note_off channel=0 note=91 velocity=64 time=0\n",
      "note_on channel=0 note=93 velocity=43 time=0\n",
      "note_on channel=0 note=91 velocity=18 time=1\n",
      "note_on channel=0 note=96 velocity=19 time=0\n",
      "note_on channel=0 note=78 velocity=23 time=2\n",
      "note_off channel=0 note=91 velocity=64 time=1\n",
      "note_on channel=0 note=84 velocity=34 time=3\n",
      "note_on channel=0 note=85 velocity=50 time=2\n",
      "note_off channel=0 note=86 velocity=64 time=0\n",
      "note_off channel=0 note=78 velocity=64 time=2\n",
      "note_off channel=0 note=84 velocity=64 time=0\n",
      "note_off channel=0 note=85 velocity=64 time=1\n",
      "note_on channel=0 note=86 velocity=43 time=0\n",
      "note_off channel=0 note=96 velocity=64 time=0\n",
      "note_on channel=0 note=94 velocity=19 time=1\n",
      "note_on channel=0 note=65 velocity=44 time=1\n",
      "note_on channel=0 note=82 velocity=42 time=0\n",
      "note_off channel=0 note=88 velocity=64 time=0\n",
      "note_on channel=0 note=89 velocity=66 time=0\n",
      "note_on channel=0 note=91 velocity=51 time=0\n",
      "note_off channel=0 note=71 velocity=64 time=1\n",
      "note_on channel=0 note=72 velocity=63 time=0\n",
      "note_off channel=0 note=76 velocity=64 time=0\n",
      "note_on channel=0 note=77 velocity=57 time=0\n",
      "note_off channel=0 note=80 velocity=64 time=0\n",
      "note_on channel=0 note=81 velocity=52 time=0\n",
      "note_off channel=0 note=83 velocity=64 time=0\n",
      "note_on channel=0 note=88 velocity=39 time=0\n",
      "note_off channel=0 note=52 velocity=64 time=1\n",
      "note_on channel=0 note=53 velocity=66 time=0\n",
      "note_on channel=0 note=80 velocity=26 time=0\n",
      "note_off channel=0 note=86 velocity=64 time=0\n",
      "note_off channel=0 note=90 velocity=64 time=0\n",
      "note_off channel=0 note=94 velocity=64 time=0\n",
      "note_on channel=0 note=86 velocity=50 time=1\n",
      "note_off channel=0 note=88 velocity=64 time=0\n",
      "note_off channel=0 note=53 velocity=64 time=2\n",
      "note_on channel=0 note=53 velocity=59 time=1\n",
      "note_off channel=0 note=80 velocity=64 time=0\n",
      "note_on channel=0 note=83 velocity=74 time=1\n",
      "note_on channel=0 note=90 velocity=64 time=0\n",
      "note_on channel=0 note=52 velocity=67 time=1\n",
      "note_off channel=0 note=53 velocity=64 time=0\n",
      "note_off channel=0 note=65 velocity=64 time=0\n",
      "note_on channel=0 note=80 velocity=53 time=0\n",
      "note_off channel=0 note=81 velocity=64 time=0\n",
      "note_off channel=0 note=82 velocity=64 time=0\n",
      "note_on channel=0 note=71 velocity=51 time=1\n",
      "note_off channel=0 note=72 velocity=64 time=0\n",
      "note_on channel=0 note=76 velocity=64 time=0\n",
      "note_off channel=0 note=77 velocity=64 time=0\n",
      "note_on channel=0 note=82 velocity=42 time=0\n",
      "note_off channel=0 note=89 velocity=64 time=0\n",
      "note_off channel=0 note=91 velocity=64 time=1\n",
      "note_on channel=0 note=85 velocity=15 time=2\n",
      "note_off channel=0 note=82 velocity=64 time=3\n",
      "note_off channel=0 note=85 velocity=64 time=0\n",
      "note_off channel=0 note=93 velocity=64 time=1\n",
      "note_on channel=0 note=93 velocity=34 time=1\n",
      "note_on channel=0 note=91 velocity=18 time=1\n",
      "note_on channel=0 note=73 velocity=12 time=3\n",
      "note_off channel=0 note=91 velocity=64 time=1\n",
      "note_off channel=0 note=93 velocity=64 time=1\n",
      "note_off channel=0 note=73 velocity=64 time=2\n",
      "note_on channel=0 note=73 velocity=15 time=1\n",
      "note_on channel=0 note=93 velocity=43 time=0\n",
      "note_on channel=0 note=103 velocity=29 time=1\n",
      "note_on channel=0 note=96 velocity=16 time=4\n",
      "note_on channel=0 note=91 velocity=42 time=1\n",
      "note_on channel=0 note=79 velocity=55 time=2\n",
      "note_off channel=0 note=80 velocity=64 time=0\n",
      "note_on channel=0 note=82 velocity=54 time=0\n",
      "note_off channel=0 note=83 velocity=64 time=0\n",
      "note_on channel=0 note=85 velocity=51 time=0\n",
      "note_off channel=0 note=86 velocity=64 time=0\n",
      "note_on channel=0 note=51 velocity=57 time=1\n",
      "note_off channel=0 note=52 velocity=64 time=0\n",
      "note_on channel=0 note=70 velocity=21 time=0\n",
      "note_off channel=0 note=71 velocity=64 time=0\n",
      "note_on channel=0 note=75 velocity=65 time=0\n",
      "note_on channel=0 note=89 velocity=72 time=0\n",
      "note_off channel=0 note=90 velocity=64 time=0\n",
      "note_off channel=0 note=96 velocity=64 time=0\n",
      "note_on channel=0 note=100 velocity=31 time=0\n",
      "note_off channel=0 note=73 velocity=64 time=1\n",
      "note_off channel=0 note=76 velocity=64 time=0\n",
      "note_on channel=0 note=77 velocity=27 time=0\n",
      "note_on channel=0 note=80 velocity=32 time=0\n",
      "note_on channel=0 note=83 velocity=48 time=0\n",
      "note_on channel=0 note=90 velocity=52 time=0\n",
      "note_off channel=0 note=82 velocity=64 time=1\n",
      "note_on channel=0 note=94 velocity=26 time=0\n",
      "note_on channel=0 note=50 velocity=37 time=1\n",
      "note_off channel=0 note=51 velocity=64 time=0\n",
      "note_off channel=0 note=70 velocity=64 time=0\n",
      "note_off channel=0 note=80 velocity=64 time=0\n",
      "note_on channel=0 note=82 velocity=54 time=0\n",
      "note_off channel=0 note=83 velocity=64 time=0\n",
      "note_off channel=0 note=50 velocity=64 time=2\n",
      "note_off channel=0 note=90 velocity=64 time=0\n",
      "note_on channel=0 note=96 velocity=22 time=0\n",
      "note_on channel=0 note=52 velocity=59 time=1\n",
      "note_on channel=0 note=70 velocity=26 time=0\n",
      "note_on channel=0 note=73 velocity=10 time=0\n",
      "note_off channel=0 note=94 velocity=64 time=0\n",
      "note_off channel=0 note=103 velocity=64 time=0\n",
      "note_off channel=0 note=82 velocity=64 time=1\n",
      "note_on channel=0 note=83 velocity=68 time=0\n",
      "note_on channel=0 note=84 velocity=12 time=0\n",
      "note_on channel=0 note=88 velocity=46 time=0\n",
      "note_off channel=0 note=77 velocity=64 time=1\n",
      "note_off channel=0 note=100 velocity=64 time=0\n",
      "note_off channel=0 note=70 velocity=64 time=1\n",
      "note_on channel=0 note=71 velocity=24 time=0\n",
      "note_off channel=0 note=79 velocity=64 time=0\n",
      "note_off channel=0 note=87 velocity=64 time=0\n",
      "note_off channel=0 note=89 velocity=64 time=0\n",
      "note_on channel=0 note=90 velocity=60 time=0\n",
      "note_off channel=0 note=75 velocity=64 time=1\n",
      "note_on channel=0 note=76 velocity=50 time=0\n",
      "note_on channel=0 note=79 velocity=42 time=0\n",
      "note_off channel=0 note=73 velocity=64 time=1\n",
      "note_off channel=0 note=84 velocity=64 time=0\n",
      "note_off channel=0 note=79 velocity=64 time=1\n",
      "note_on channel=0 note=80 velocity=45 time=0\n",
      "note_on channel=0 note=84 velocity=12 time=0\n",
      "note_off channel=0 note=80 velocity=64 time=3\n",
      "note_on channel=0 note=77 velocity=29 time=1\n",
      "note_on channel=0 note=79 velocity=40 time=1\n",
      "note_off channel=0 note=79 velocity=64 time=2\n",
      "note_on channel=0 note=80 velocity=43 time=0\n",
      "note_off channel=0 note=77 velocity=64 time=1\n",
      "note_on channel=0 note=79 velocity=54 time=1\n",
      "note_off channel=0 note=80 velocity=64 time=0\n",
      "note_on channel=0 note=75 velocity=65 time=2\n",
      "note_off channel=0 note=76 velocity=64 time=0\n",
      "note_on channel=0 note=77 velocity=22 time=0\n",
      "note_on channel=0 note=70 velocity=31 time=1\n",
      "note_off channel=0 note=71 velocity=64 time=0\n",
      "note_off channel=0 note=52 velocity=64 time=1\n",
      "note_on channel=0 note=89 velocity=48 time=0\n",
      "note_off channel=0 note=90 velocity=64 time=0\n",
      "note_on channel=0 note=51 velocity=52 time=2\n",
      "note_off channel=0 note=89 velocity=64 time=0\n",
      "note_on channel=0 note=90 velocity=60 time=0\n",
      "note_off channel=0 note=77 velocity=64 time=1\n",
      "note_on channel=0 note=82 velocity=64 time=0\n",
      "note_off channel=0 note=83 velocity=64 time=0\n",
      "note_off channel=0 note=84 velocity=64 time=0\n",
      "note_on channel=0 note=77 velocity=21 time=1\n",
      "note_on channel=0 note=89 velocity=64 time=0\n",
      "note_off channel=0 note=90 velocity=64 time=0\n",
      "note_off channel=0 note=51 velocity=64 time=1\n",
      "note_on channel=0 note=51 velocity=56 time=1\n",
      "note_on channel=0 note=73 velocity=11 time=2\n",
      "note_on channel=0 note=90 velocity=51 time=1\n",
      "note_on channel=0 note=83 velocity=60 time=1\n",
      "note_off channel=0 note=88 velocity=64 time=0\n",
      "note_off channel=0 note=96 velocity=64 time=0\n",
      "note_off channel=0 note=70 velocity=64 time=2\n",
      "note_off channel=0 note=73 velocity=64 time=1\n",
      "note_off channel=0 note=82 velocity=64 time=0\n",
      "note_on channel=0 note=84 velocity=55 time=0\n",
      "note_on channel=0 note=82 velocity=48 time=1\n",
      "note_off channel=0 note=93 velocity=64 time=0\n",
      "note_on channel=0 note=70 velocity=29 time=1\n",
      "note_off channel=0 note=85 velocity=64 time=0\n",
      "note_on channel=0 note=80 velocity=14 time=1\n",
      "note_off channel=0 note=92 velocity=64 time=1\n",
      "note_on channel=0 note=92 velocity=49 time=1\n",
      "note_off channel=0 note=77 velocity=64 time=1\n",
      "note_off channel=0 note=91 velocity=64 time=0\n",
      "note_off channel=0 note=80 velocity=64 time=1\n",
      "note_on channel=0 note=62 velocity=27 time=3\n",
      "note_on channel=0 note=74 velocity=56 time=0\n",
      "note_off channel=0 note=75 velocity=64 time=0\n",
      "note_on channel=0 note=78 velocity=62 time=0\n",
      "note_off channel=0 note=79 velocity=64 time=0\n",
      "note_on channel=0 note=88 velocity=58 time=0\n",
      "note_off channel=0 note=89 velocity=64 time=0\n",
      "note_on channel=0 note=69 velocity=35 time=1\n",
      "note_off channel=0 note=70 velocity=64 time=0\n",
      "note_on channel=0 note=80 velocity=17 time=0\n",
      "note_on channel=0 note=81 velocity=46 time=0\n",
      "note_off channel=0 note=82 velocity=64 time=0\n",
      "note_on channel=0 note=85 velocity=20 time=0\n",
      "note_on channel=0 note=50 velocity=61 time=1\n",
      "note_off channel=0 note=51 velocity=64 time=0\n",
      "note_on channel=0 note=91 velocity=26 time=5\n",
      "note_off channel=0 note=80 velocity=64 time=1\n",
      "note_on channel=0 note=94 velocity=21 time=0\n",
      "note_off channel=0 note=92 velocity=64 time=4\n",
      "note_on channel=0 note=92 velocity=30 time=3\n",
      "note_off channel=0 note=91 velocity=64 time=2\n",
      "note_off channel=0 note=94 velocity=64 time=0\n",
      "note_on channel=0 note=94 velocity=20 time=2\n",
      "note_on channel=0 note=91 velocity=31 time=5\n",
      "note_off channel=0 note=84 velocity=64 time=4\n",
      "note_on channel=0 note=84 velocity=45 time=1\n",
      "note_off channel=0 note=91 velocity=64 time=3\n",
      "note_on channel=0 note=80 velocity=15 time=2\n",
      "note_on channel=0 note=91 velocity=37 time=1\n",
      "note_off channel=0 note=94 velocity=64 time=0\n",
      "note_off channel=0 note=62 velocity=64 time=1\n",
      "note_on channel=0 note=63 velocity=42 time=0\n",
      "note_off channel=0 note=85 velocity=64 time=0\n",
      "note_off channel=0 note=92 velocity=64 time=0\n",
      "note_off channel=0 note=50 velocity=64 time=1\n",
      "note_on channel=0 note=51 velocity=51 time=0\n",
      "note_off channel=0 note=69 velocity=64 time=0\n",
      "note_off channel=0 note=74 velocity=64 time=0\n",
      "note_on channel=0 note=75 velocity=54 time=0\n",
      "note_on channel=0 note=79 velocity=46 time=0\n",
      "note_off channel=0 note=80 velocity=64 time=0\n",
      "note_off channel=0 note=81 velocity=64 time=0\n",
      "note_on channel=0 note=89 velocity=48 time=0\n",
      "note_off channel=0 note=90 velocity=64 time=0\n",
      "note_on channel=0 note=92 velocity=13 time=0\n",
      "note_off channel=0 note=84 velocity=64 time=1\n",
      "note_off channel=0 note=51 velocity=64 time=1\n",
      "note_on channel=0 note=52 velocity=48 time=0\n",
      "note_off channel=0 note=101 velocity=64 time=0\n",
      "note_off channel=0 note=102 velocity=64 time=0\n",
      "note_on channel=0 note=70 velocity=20 time=1\n",
      "note_on channel=0 note=73 velocity=20 time=0\n",
      "note_off channel=0 note=78 velocity=64 time=0\n",
      "note_on channel=0 note=85 velocity=32 time=0\n",
      "note_off channel=0 note=88 velocity=64 time=1\n",
      "note_on channel=0 note=51 velocity=48 time=1\n",
      "note_off channel=0 note=52 velocity=64 time=0\n",
      "note_on channel=0 note=94 velocity=13 time=0\n",
      "note_on channel=0 note=82 velocity=33 time=1\n",
      "note_off channel=0 note=92 velocity=64 time=0\n",
      "note_on channel=0 note=80 velocity=28 time=1\n",
      "note_on channel=0 note=84 velocity=50 time=0\n",
      "note_off channel=0 note=85 velocity=64 time=0\n",
      "note_on channel=0 note=102 velocity=30 time=0\n",
      "note_on channel=0 note=50 velocity=54 time=1\n",
      "note_off channel=0 note=51 velocity=64 time=0\n",
      "note_off channel=0 note=73 velocity=64 time=0\n",
      "note_on channel=0 note=78 velocity=52 time=0\n",
      "note_off channel=0 note=79 velocity=64 time=0\n",
      "note_off channel=0 note=70 velocity=64 time=1\n",
      "note_on channel=0 note=93 velocity=28 time=0\n",
      "note_off channel=0 note=94 velocity=64 time=0\n",
      "note_off channel=0 note=63 velocity=64 time=1\n",
      "note_on channel=0 note=81 velocity=37 time=0\n",
      "note_off channel=0 note=82 velocity=64 time=0\n",
      "note_on channel=0 note=88 velocity=51 time=0\n",
      "note_off channel=0 note=89 velocity=64 time=0\n",
      "note_on channel=0 note=101 velocity=22 time=0\n",
      "note_off channel=0 note=50 velocity=64 time=1\n",
      "note_on channel=0 note=69 velocity=35 time=0\n",
      "note_on channel=0 note=74 velocity=52 time=0\n",
      "note_off channel=0 note=75 velocity=64 time=0\n",
      "note_on channel=0 note=50 velocity=58 time=1\n",
      "note_off channel=0 note=91 velocity=64 time=8\n",
      "note_on channel=0 note=91 velocity=24 time=1\n",
      "note_off channel=0 note=101 velocity=64 time=6\n",
      "note_off channel=0 note=80 velocity=64 time=1\n",
      "note_off channel=0 note=91 velocity=64 time=0\n",
      "note_on channel=0 note=91 velocity=35 time=2\n",
      "note_on channel=0 note=94 velocity=11 time=0\n",
      "note_off channel=0 note=83 velocity=64 time=1\n",
      "note_on channel=0 note=83 velocity=40 time=5\n",
      "note_off channel=0 note=102 velocity=64 time=2\n",
      "note_off channel=0 note=94 velocity=64 time=1\n",
      "note_on channel=0 note=80 velocity=40 time=4\n",
      "note_on channel=0 note=63 velocity=31 time=2\n",
      "note_off channel=0 note=69 velocity=64 time=1\n",
      "note_on channel=0 note=70 velocity=25 time=0\n",
      "note_off channel=0 note=81 velocity=64 time=0\n",
      "note_on channel=0 note=82 velocity=30 time=0\n",
      "note_off channel=0 note=88 velocity=64 time=0\n",
      "note_on channel=0 note=89 velocity=35 time=0\n",
      "note_off channel=0 note=93 velocity=64 time=0\n",
      "note_off channel=0 note=50 velocity=64 time=1\n",
      "note_on channel=0 note=51 velocity=45 time=0\n",
      "note_on channel=0 note=75 velocity=39 time=0\n",
      "note_off channel=0 note=74 velocity=64 time=1\n",
      "note_off channel=0 note=78 velocity=64 time=0\n",
      "note_on channel=0 note=74 velocity=43 time=1\n",
      "note_off channel=0 note=75 velocity=64 time=0\n",
      "note_on channel=0 note=78 velocity=48 time=0\n",
      "note_on channel=0 note=50 velocity=59 time=1\n",
      "note_off channel=0 note=51 velocity=64 time=0\n",
      "note_off channel=0 note=63 velocity=64 time=0\n",
      "note_on channel=0 note=69 velocity=32 time=0\n",
      "note_off channel=0 note=70 velocity=64 time=0\n",
      "note_off channel=0 note=82 velocity=64 time=0\n",
      "note_on channel=0 note=88 velocity=33 time=0\n",
      "note_off channel=0 note=89 velocity=64 time=0\n",
      "note_off channel=0 note=83 velocity=64 time=3\n",
      "note_on channel=0 note=89 velocity=38 time=0\n",
      "note_on channel=0 note=61 velocity=43 time=1\n",
      "note_on channel=0 note=68 velocity=34 time=0\n",
      "note_off channel=0 note=69 velocity=64 time=0\n",
      "note_on channel=0 note=75 velocity=32 time=0\n",
      "note_on channel=0 note=83 velocity=49 time=0\n",
      "note_off channel=0 note=84 velocity=64 time=0\n",
      "note_on channel=0 note=85 velocity=22 time=0\n",
      "note_on channel=0 note=49 velocity=62 time=1\n",
      "note_off channel=0 note=50 velocity=64 time=0\n",
      "note_off channel=0 note=74 velocity=64 time=0\n",
      "note_on channel=0 note=87 velocity=43 time=1\n",
      "note_off channel=0 note=88 velocity=64 time=1\n",
      "note_off channel=0 note=78 velocity=64 time=2\n",
      "note_on channel=0 note=82 velocity=38 time=0\n",
      "note_off channel=0 note=83 velocity=64 time=0\n",
      "note_off channel=0 note=85 velocity=64 time=2\n",
      "note_off channel=0 note=82 velocity=64 time=1\n",
      "note_on channel=0 note=83 velocity=43 time=0\n",
      "note_on channel=0 note=93 velocity=13 time=6\n",
      "note_on channel=0 note=78 velocity=23 time=1\n",
      "note_on channel=0 note=84 velocity=36 time=1\n",
      "note_on channel=0 note=85 velocity=19 time=3\n",
      "note_on channel=0 note=77 velocity=30 time=1\n",
      "note_on channel=0 note=88 velocity=45 time=0\n",
      "note_off channel=0 note=78 velocity=64 time=1\n",
      "note_off channel=0 note=89 velocity=64 time=0\n"
     ]
    },
    {
     "name": "stdout",
     "output_type": "stream",
     "text": [
      "note_off channel=0 note=77 velocity=64 time=2\n",
      "note_on channel=0 note=82 velocity=33 time=0\n",
      "note_off channel=0 note=93 velocity=64 time=0\n",
      "note_off channel=0 note=75 velocity=64 time=1\n",
      "note_on channel=0 note=77 velocity=31 time=0\n",
      "note_off channel=0 note=83 velocity=64 time=0\n",
      "note_off channel=0 note=85 velocity=64 time=0\n",
      "note_on channel=0 note=72 velocity=10 time=4\n",
      "note_off channel=0 note=77 velocity=64 time=0\n",
      "note_on channel=0 note=86 velocity=24 time=1\n",
      "note_on channel=0 note=78 velocity=29 time=1\n",
      "note_on channel=0 note=77 velocity=26 time=2\n",
      "note_off channel=0 note=80 velocity=64 time=1\n",
      "note_off channel=0 note=78 velocity=64 time=1\n",
      "note_on channel=0 note=78 velocity=21 time=1\n",
      "note_off channel=0 note=77 velocity=64 time=1\n",
      "note_on channel=0 note=75 velocity=31 time=1\n",
      "note_on channel=0 note=77 velocity=23 time=1\n",
      "note_off channel=0 note=72 velocity=64 time=1\n",
      "note_off channel=0 note=78 velocity=64 time=0\n",
      "note_off channel=0 note=86 velocity=64 time=0\n",
      "note_on channel=0 note=86 velocity=22 time=1\n",
      "note_off channel=0 note=77 velocity=64 time=1\n",
      "note_on channel=0 note=78 velocity=29 time=2\n",
      "note_on channel=0 note=80 velocity=39 time=2\n",
      "note_on channel=0 note=83 velocity=33 time=2\n",
      "note_off channel=0 note=82 velocity=64 time=1\n",
      "note_on channel=0 note=82 velocity=36 time=2\n",
      "note_on channel=0 note=90 velocity=47 time=0\n",
      "note_off channel=0 note=83 velocity=64 time=1\n",
      "note_on channel=0 note=83 velocity=29 time=3\n",
      "note_off channel=0 note=86 velocity=64 time=1\n",
      "note_off channel=0 note=83 velocity=64 time=1\n",
      "note_off channel=0 note=68 velocity=64 time=3\n",
      "note_off channel=0 note=75 velocity=64 time=4\n",
      "note_on channel=0 note=77 velocity=32 time=1\n",
      "note_off channel=0 note=78 velocity=64 time=0\n",
      "note_off channel=0 note=87 velocity=64 time=0\n",
      "note_on channel=0 note=78 velocity=35 time=1\n",
      "note_on channel=0 note=83 velocity=37 time=0\n",
      "note_off channel=0 note=77 velocity=64 time=1\n",
      "note_off channel=0 note=82 velocity=64 time=0\n",
      "note_on channel=0 note=86 velocity=23 time=2\n",
      "note_on channel=0 note=75 velocity=34 time=2\n",
      "note_on channel=0 note=82 velocity=34 time=4\n",
      "note_off channel=0 note=83 velocity=64 time=0\n",
      "note_on channel=0 note=87 velocity=44 time=0\n",
      "note_on channel=0 note=93 velocity=41 time=1\n",
      "note_on channel=0 note=68 velocity=16 time=4\n",
      "note_on channel=0 note=77 velocity=22 time=1\n",
      "note_off channel=0 note=78 velocity=64 time=0\n",
      "note_on channel=0 note=83 velocity=31 time=1\n",
      "note_off channel=0 note=86 velocity=64 time=1\n",
      "note_on channel=0 note=86 velocity=12 time=1\n",
      "note_off channel=0 note=82 velocity=64 time=2\n",
      "note_off channel=0 note=86 velocity=64 time=2\n",
      "note_off channel=0 note=77 velocity=64 time=4\n",
      "note_on channel=0 note=77 velocity=32 time=1\n",
      "note_on channel=0 note=86 velocity=22 time=5\n",
      "note_on channel=0 note=82 velocity=37 time=2\n",
      "note_off channel=0 note=83 velocity=64 time=1\n",
      "note_on channel=0 note=72 velocity=13 time=1\n",
      "note_on channel=0 note=83 velocity=39 time=0\n",
      "note_off channel=0 note=86 velocity=64 time=0\n",
      "note_off channel=0 note=82 velocity=64 time=1\n",
      "note_on channel=0 note=86 velocity=25 time=0\n",
      "note_off channel=0 note=91 velocity=64 time=0\n",
      "note_on channel=0 note=78 velocity=29 time=1\n",
      "note_off channel=0 note=77 velocity=64 time=1\n",
      "note_on channel=0 note=82 velocity=43 time=0\n",
      "note_off channel=0 note=83 velocity=64 time=1\n",
      "note_on channel=0 note=77 velocity=31 time=1\n",
      "note_off channel=0 note=78 velocity=64 time=1\n",
      "note_off channel=0 note=77 velocity=64 time=2\n",
      "note_on channel=0 note=91 velocity=21 time=0\n",
      "note_off channel=0 note=82 velocity=64 time=1\n",
      "note_on channel=0 note=83 velocity=42 time=0\n",
      "note_on channel=0 note=78 velocity=25 time=1\n",
      "note_on channel=0 note=82 velocity=47 time=0\n",
      "note_off channel=0 note=83 velocity=64 time=1\n",
      "note_on channel=0 note=77 velocity=20 time=1\n",
      "note_on channel=0 note=83 velocity=39 time=0\n",
      "note_off channel=0 note=86 velocity=64 time=1\n",
      "note_off channel=0 note=78 velocity=64 time=1\n",
      "note_off channel=0 note=83 velocity=64 time=0\n",
      "note_on channel=0 note=86 velocity=16 time=0\n",
      "note_on channel=0 note=78 velocity=15 time=1\n",
      "note_off channel=0 note=72 velocity=64 time=1\n",
      "note_off channel=0 note=77 velocity=64 time=0\n",
      "note_off channel=0 note=82 velocity=64 time=0\n",
      "note_on channel=0 note=83 velocity=40 time=0\n",
      "note_on channel=0 note=85 velocity=21 time=2\n",
      "note_off channel=0 note=86 velocity=64 time=0\n",
      "note_off channel=0 note=91 velocity=64 time=0\n",
      "note_off channel=0 note=68 velocity=64 time=1\n",
      "note_on channel=0 note=77 velocity=19 time=0\n",
      "note_off channel=0 note=78 velocity=64 time=0\n",
      "note_on channel=0 note=91 velocity=26 time=0\n",
      "note_on channel=0 note=68 velocity=18 time=2\n",
      "note_on channel=0 note=82 velocity=35 time=0\n",
      "note_off channel=0 note=83 velocity=64 time=0\n",
      "note_off channel=0 note=82 velocity=64 time=8\n",
      "note_on channel=0 note=83 velocity=44 time=0\n",
      "note_off channel=0 note=68 velocity=64 time=2\n",
      "note_off channel=0 note=84 velocity=64 time=3\n",
      "note_on channel=0 note=68 velocity=15 time=2\n",
      "note_off channel=0 note=75 velocity=64 time=1\n",
      "note_off channel=0 note=77 velocity=64 time=0\n",
      "note_on channel=0 note=77 velocity=27 time=2\n",
      "note_off channel=0 note=80 velocity=64 time=2\n",
      "note_on channel=0 note=84 velocity=14 time=0\n",
      "note_off channel=0 note=49 velocity=64 time=1\n",
      "note_on channel=0 note=49 velocity=55 time=1\n",
      "note_on channel=0 note=75 velocity=25 time=0\n",
      "note_on channel=0 note=82 velocity=38 time=0\n",
      "note_off channel=0 note=83 velocity=64 time=0\n",
      "note_off channel=0 note=68 velocity=64 time=1\n",
      "note_off channel=0 note=87 velocity=64 time=0\n",
      "note_on channel=0 note=92 velocity=33 time=0\n",
      "note_off channel=0 note=82 velocity=64 time=4\n",
      "note_on channel=0 note=83 velocity=36 time=0\n",
      "note_off channel=0 note=85 velocity=64 time=0\n",
      "note_on channel=0 note=82 velocity=40 time=1\n",
      "note_off channel=0 note=83 velocity=64 time=1\n",
      "note_on channel=0 note=83 velocity=52 time=1\n",
      "note_off channel=0 note=82 velocity=64 time=1\n",
      "note_on channel=0 note=85 velocity=25 time=0\n",
      "note_off channel=0 note=77 velocity=64 time=5\n",
      "note_on channel=0 note=77 velocity=15 time=1\n",
      "note_on channel=0 note=80 velocity=30 time=4\n",
      "note_off channel=0 note=91 velocity=64 time=0\n",
      "note_on channel=0 note=91 velocity=19 time=1\n",
      "note_off channel=0 note=84 velocity=64 time=3\n",
      "note_on channel=0 note=82 velocity=29 time=4\n",
      "note_off channel=0 note=91 velocity=64 time=0\n",
      "note_on channel=0 note=84 velocity=17 time=1\n",
      "note_on channel=0 note=91 velocity=22 time=0\n",
      "note_off channel=0 note=83 velocity=64 time=1\n",
      "note_off channel=0 note=85 velocity=64 time=1\n",
      "note_off channel=0 note=49 velocity=64 time=2\n",
      "note_off channel=0 note=82 velocity=64 time=0\n",
      "note_on channel=0 note=49 velocity=45 time=1\n",
      "note_on channel=0 note=82 velocity=29 time=0\n",
      "note_off channel=0 note=61 velocity=64 time=1\n",
      "note_off channel=0 note=49 velocity=64 time=1\n",
      "note_on channel=0 note=50 velocity=39 time=0\n",
      "note_off channel=0 note=77 velocity=64 time=0\n",
      "note_on channel=0 note=83 velocity=63 time=0\n",
      "note_on channel=0 note=87 velocity=54 time=0\n",
      "note_off channel=0 note=82 velocity=64 time=1\n",
      "note_on channel=0 note=78 velocity=11 time=1\n",
      "note_off channel=0 note=50 velocity=64 time=1\n",
      "note_off channel=0 note=91 velocity=64 time=2\n",
      "note_on channel=0 note=77 velocity=23 time=1\n",
      "note_off channel=0 note=78 velocity=64 time=0\n",
      "note_off channel=0 note=75 velocity=64 time=2\n",
      "note_on channel=0 note=85 velocity=27 time=0\n",
      "note_on channel=0 note=91 velocity=14 time=0\n",
      "note_on channel=0 note=75 velocity=31 time=4\n",
      "note_on channel=0 note=73 velocity=27 time=5\n",
      "note_off channel=0 note=93 velocity=64 time=0\n",
      "note_off channel=0 note=77 velocity=64 time=2\n",
      "note_on channel=0 note=77 velocity=24 time=2\n",
      "note_off channel=0 note=90 velocity=64 time=1\n",
      "note_off channel=0 note=92 velocity=64 time=1\n",
      "note_off channel=0 note=84 velocity=64 time=1\n",
      "note_off channel=0 note=91 velocity=64 time=0\n",
      "note_on channel=0 note=50 velocity=21 time=1\n",
      "note_off channel=0 note=50 velocity=64 time=3\n",
      "note_on channel=0 note=91 velocity=42 time=2\n",
      "note_on channel=0 note=90 velocity=13 time=9\n",
      "note_off channel=0 note=75 velocity=64 time=1\n",
      "note_off channel=0 note=88 velocity=64 time=5\n",
      "note_on channel=0 note=75 velocity=12 time=3\n",
      "note_off channel=0 note=73 velocity=64 time=3\n",
      "note_off channel=0 note=75 velocity=64 time=0\n",
      "note_off channel=0 note=80 velocity=64 time=0\n",
      "note_on channel=0 note=81 velocity=46 time=0\n",
      "note_on channel=0 note=82 velocity=48 time=0\n",
      "note_on channel=0 note=88 velocity=15 time=0\n",
      "note_on channel=0 note=60 velocity=37 time=1\n",
      "note_on channel=0 note=84 velocity=36 time=0\n",
      "note_on channel=0 note=101 velocity=11 time=0\n",
      "note_off channel=0 note=77 velocity=64 time=1\n",
      "note_off channel=0 note=90 velocity=64 time=0\n",
      "note_on channel=0 note=58 velocity=32 time=1\n",
      "note_off channel=0 note=60 velocity=64 time=0\n",
      "note_on channel=0 note=77 velocity=27 time=0\n",
      "note_on channel=0 note=80 velocity=45 time=0\n",
      "note_off channel=0 note=81 velocity=64 time=0\n",
      "note_off channel=0 note=82 velocity=64 time=0\n",
      "note_off channel=0 note=88 velocity=64 time=0\n",
      "note_on channel=0 note=45 velocity=68 time=1\n",
      "note_on channel=0 note=64 velocity=16 time=0\n",
      "note_on channel=0 note=75 velocity=16 time=0\n",
      "note_off channel=0 note=84 velocity=64 time=0\n",
      "note_on channel=0 note=88 velocity=53 time=0\n",
      "note_off channel=0 note=101 velocity=64 time=0\n",
      "note_off channel=0 note=58 velocity=64 time=1\n",
      "note_off channel=0 note=80 velocity=64 time=0\n",
      "note_on channel=0 note=81 velocity=45 time=0\n",
      "note_on channel=0 note=73 velocity=22 time=1\n",
      "note_off channel=0 note=85 velocity=64 time=0\n",
      "note_on channel=0 note=101 velocity=30 time=0\n",
      "note_on channel=0 note=79 velocity=39 time=1\n",
      "note_off channel=0 note=64 velocity=64 time=1\n",
      "note_on channel=0 note=74 velocity=32 time=0\n",
      "note_on channel=0 note=90 velocity=20 time=0\n",
      "note_off channel=0 note=73 velocity=64 time=1\n",
      "note_off channel=0 note=75 velocity=64 time=0\n",
      "note_off channel=0 note=79 velocity=64 time=0\n",
      "note_off channel=0 note=81 velocity=64 time=0\n",
      "note_on channel=0 note=84 velocity=40 time=0\n",
      "note_off channel=0 note=45 velocity=64 time=1\n",
      "note_off channel=0 note=74 velocity=64 time=0\n",
      "note_off channel=0 note=77 velocity=64 time=0\n",
      "note_on channel=0 note=79 velocity=63 time=0\n",
      "note_on channel=0 note=81 velocity=60 time=0\n",
      "note_on channel=0 note=85 velocity=40 time=0\n",
      "note_on channel=0 note=92 velocity=41 time=0\n",
      "note_on channel=0 note=60 velocity=48 time=1\n",
      "note_on channel=0 note=67 velocity=44 time=0\n",
      "note_on channel=0 note=76 velocity=50 time=0\n",
      "note_off channel=0 note=84 velocity=64 time=0\n",
      "note_on channel=0 note=89 velocity=61 time=0\n",
      "note_off channel=0 note=90 velocity=64 time=0\n",
      "note_on channel=0 note=49 velocity=68 time=1\n",
      "note_on channel=0 note=84 velocity=44 time=0\n",
      "note_on channel=0 note=90 velocity=40 time=0\n",
      "note_off channel=0 note=60 velocity=64 time=1\n",
      "note_off channel=0 note=67 velocity=64 time=0\n",
      "note_on channel=0 note=68 velocity=42 time=0\n",
      "note_off channel=0 note=76 velocity=64 time=0\n",
      "note_on channel=0 note=77 velocity=51 time=0\n",
      "note_off channel=0 note=79 velocity=64 time=0\n",
      "note_on channel=0 note=80 velocity=63 time=0\n",
      "note_off channel=0 note=81 velocity=64 time=0\n",
      "note_on channel=0 note=79 velocity=43 time=1\n",
      "note_off channel=0 note=84 velocity=64 time=0\n",
      "note_off channel=0 note=79 velocity=64 time=2\n",
      "note_on channel=0 note=84 velocity=59 time=0\n",
      "note_off channel=0 note=87 velocity=64 time=0\n",
      "note_off channel=0 note=91 velocity=64 time=0\n",
      "note_on channel=0 note=94 velocity=19 time=0\n",
      "note_on channel=0 note=67 velocity=46 time=1\n",
      "note_off channel=0 note=68 velocity=64 time=0\n",
      "note_on channel=0 note=72 velocity=47 time=0\n",
      "note_on channel=0 note=76 velocity=54 time=0\n",
      "note_off channel=0 note=77 velocity=64 time=0\n",
      "note_on channel=0 note=79 velocity=51 time=0\n",
      "note_on channel=0 note=82 velocity=40 time=0\n",
      "note_on channel=0 note=87 velocity=36 time=0\n",
      "note_on channel=0 note=60 velocity=50 time=1\n",
      "note_off channel=0 note=80 velocity=64 time=0\n",
      "note_off channel=0 note=101 velocity=64 time=0\n",
      "note_on channel=0 note=48 velocity=52 time=1\n",
      "note_off channel=0 note=49 velocity=64 time=0\n",
      "note_on channel=0 note=81 velocity=44 time=0\n",
      "note_off channel=0 note=82 velocity=64 time=0\n",
      "note_off channel=0 note=85 velocity=64 time=0\n",
      "note_on channel=0 note=86 velocity=31 time=0\n",
      "note_off channel=0 note=87 velocity=64 time=0\n",
      "note_off channel=0 note=90 velocity=64 time=0\n",
      "note_off channel=0 note=94 velocity=64 time=0\n",
      "note_off channel=0 note=79 velocity=64 time=2\n",
      "note_off channel=0 note=48 velocity=64 time=1\n",
      "note_on channel=0 note=79 velocity=62 time=0\n",
      "note_on channel=0 note=85 velocity=30 time=0\n",
      "note_on channel=0 note=87 velocity=39 time=0\n",
      "note_off channel=0 note=89 velocity=64 time=0\n",
      "note_on channel=0 note=90 velocity=53 time=0\n",
      "note_on channel=0 note=94 velocity=19 time=0\n",
      "note_off channel=0 note=60 velocity=64 time=1\n",
      "note_on channel=0 note=61 velocity=50 time=0\n",
      "note_off channel=0 note=67 velocity=64 time=0\n",
      "note_off channel=0 note=72 velocity=64 time=0\n",
      "note_on channel=0 note=74 velocity=61 time=0\n",
      "note_off channel=0 note=76 velocity=64 time=0\n",
      "note_on channel=0 note=77 velocity=44 time=0\n",
      "note_off channel=0 note=81 velocity=64 time=0\n",
      "note_off channel=0 note=84 velocity=64 time=0\n",
      "note_off channel=0 note=86 velocity=64 time=0\n",
      "note_on channel=0 note=89 velocity=47 time=0\n",
      "note_on channel=0 note=50 velocity=62 time=1\n",
      "note_on channel=0 note=69 velocity=28 time=0\n",
      "note_off channel=0 note=61 velocity=64 time=1\n",
      "note_off channel=0 note=77 velocity=64 time=0\n",
      "note_on channel=0 note=78 velocity=53 time=0\n",
      "note_off channel=0 note=79 velocity=64 time=0\n",
      "note_on channel=0 note=82 velocity=53 time=0\n",
      "note_off channel=0 note=83 velocity=64 time=0\n",
      "note_on channel=0 note=84 velocity=29 time=0\n",
      "note_off channel=0 note=85 velocity=64 time=0\n",
      "note_off channel=0 note=87 velocity=64 time=0\n",
      "note_on channel=0 note=63 velocity=49 time=1\n",
      "note_off channel=0 note=74 velocity=64 time=0\n",
      "note_on channel=0 note=75 velocity=59 time=0\n",
      "note_on channel=0 note=79 velocity=46 time=0\n",
      "note_on channel=0 note=85 velocity=34 time=0\n",
      "note_off channel=0 note=50 velocity=64 time=1\n",
      "note_on channel=0 note=52 velocity=51 time=0\n",
      "note_off channel=0 note=69 velocity=64 time=0\n",
      "note_on channel=0 note=71 velocity=42 time=0\n",
      "note_off channel=0 note=78 velocity=64 time=0\n",
      "note_off channel=0 note=84 velocity=64 time=0\n",
      "note_off channel=0 note=92 velocity=64 time=0\n",
      "note_off channel=0 note=82 velocity=64 time=1\n",
      "note_on channel=0 note=83 velocity=60 time=0\n",
      "note_on channel=0 note=92 velocity=43 time=0\n",
      "note_off channel=0 note=94 velocity=64 time=0\n",
      "note_on channel=0 note=51 velocity=62 time=1\n",
      "note_off channel=0 note=52 velocity=64 time=0\n",
      "note_off channel=0 note=63 velocity=64 time=0\n",
      "note_on channel=0 note=64 velocity=46 time=0\n",
      "note_off channel=0 note=79 velocity=64 time=0\n",
      "note_on channel=0 note=80 velocity=38 time=0\n",
      "note_off channel=0 note=88 velocity=64 time=0\n",
      "note_off channel=0 note=89 velocity=64 time=0\n",
      "note_on channel=0 note=79 velocity=44 time=1\n",
      "note_on channel=0 note=88 velocity=30 time=0\n",
      "note_on channel=0 note=91 velocity=46 time=0\n",
      "note_off channel=0 note=92 velocity=64 time=0\n",
      "note_off channel=0 note=64 velocity=64 time=1\n",
      "note_on channel=0 note=70 velocity=30 time=0\n",
      "note_off channel=0 note=71 velocity=64 time=0\n",
      "note_off channel=0 note=80 velocity=64 time=0\n",
      "note_on channel=0 note=82 velocity=44 time=0\n",
      "note_off channel=0 note=83 velocity=64 time=0\n",
      "note_on channel=0 note=89 velocity=36 time=0\n",
      "note_off channel=0 note=75 velocity=64 time=1\n",
      "note_on channel=0 note=84 velocity=39 time=0\n",
      "note_on channel=0 note=92 velocity=34 time=0\n",
      "note_off channel=0 note=51 velocity=64 time=1\n",
      "note_on channel=0 note=69 velocity=34 time=0\n",
      "note_off channel=0 note=70 velocity=64 time=0\n",
      "note_on channel=0 note=78 velocity=53 time=0\n",
      "note_on channel=0 note=80 velocity=46 time=0\n",
      "note_off channel=0 note=89 velocity=64 time=0\n",
      "note_on channel=0 note=74 velocity=63 time=1\n",
      "note_off channel=0 note=79 velocity=64 time=0\n",
      "note_off channel=0 note=82 velocity=64 time=0\n",
      "note_on channel=0 note=89 velocity=46 time=0\n",
      "note_on channel=0 note=94 velocity=23 time=0\n",
      "note_on channel=0 note=50 velocity=64 time=1\n",
      "note_on channel=0 note=61 velocity=53 time=0\n",
      "note_on channel=0 note=75 velocity=53 time=0\n",
      "note_on channel=0 note=83 velocity=49 time=0\n",
      "note_off channel=0 note=84 velocity=64 time=0\n",
      "note_on channel=0 note=68 velocity=34 time=1\n",
      "note_off channel=0 note=69 velocity=64 time=0\n",
      "note_off channel=0 note=74 velocity=64 time=0\n",
      "note_on channel=0 note=77 velocity=46 time=0\n",
      "note_off channel=0 note=88 velocity=64 time=0\n",
      "note_off channel=0 note=91 velocity=64 time=0\n",
      "note_on channel=0 note=49 velocity=62 time=1\n",
      "note_off channel=0 note=50 velocity=64 time=0\n",
      "note_off channel=0 note=78 velocity=64 time=0\n",
      "note_on channel=0 note=82 velocity=45 time=0\n",
      "note_on channel=0 note=84 velocity=39 time=0\n",
      "note_off channel=0 note=85 velocity=64 time=0\n",
      "note_on channel=0 note=88 velocity=40 time=0\n",
      "note_off channel=0 note=89 velocity=64 time=0\n",
      "note_on channel=0 note=67 velocity=48 time=1\n",
      "note_off channel=0 note=68 velocity=64 time=0\n",
      "note_on channel=0 note=72 velocity=51 time=0\n",
      "note_off channel=0 note=75 velocity=64 time=0\n",
      "note_on channel=0 note=76 velocity=54 time=0\n",
      "note_off channel=0 note=77 velocity=64 time=0\n",
      "note_on channel=0 note=79 velocity=49 time=0\n",
      "note_off channel=0 note=80 velocity=64 time=0\n",
      "note_off channel=0 note=83 velocity=64 time=0\n",
      "note_off channel=0 note=92 velocity=64 time=0\n",
      "note_on channel=0 note=60 velocity=46 time=1\n",
      "note_off channel=0 note=61 velocity=64 time=0\n",
      "note_on channel=0 note=83 velocity=72 time=0\n",
      "note_on channel=0 note=89 velocity=49 time=0\n",
      "note_off channel=0 note=90 velocity=64 time=0\n",
      "note_on channel=0 note=92 velocity=29 time=0\n",
      "note_off channel=0 note=49 velocity=64 time=1\n",
      "note_on channel=0 note=78 velocity=56 time=0\n",
      "note_on channel=0 note=80 velocity=29 time=0\n",
      "note_on channel=0 note=81 velocity=43 time=0\n",
      "note_off channel=0 note=82 velocity=64 time=0\n",
      "note_off channel=0 note=84 velocity=64 time=0\n",
      "note_on channel=0 note=59 velocity=36 time=1\n",
      "note_off channel=0 note=60 velocity=64 time=0\n",
      "note_on channel=0 note=66 velocity=39 time=0\n",
      "note_off channel=0 note=67 velocity=64 time=0\n",
      "note_on channel=0 note=71 velocity=42 time=0\n",
      "note_off channel=0 note=72 velocity=64 time=0\n",
      "note_on channel=0 note=75 velocity=54 time=0\n",
      "note_off channel=0 note=76 velocity=64 time=0\n",
      "note_off channel=0 note=79 velocity=64 time=0\n",
      "note_on channel=0 note=85 velocity=40 time=0\n",
      "note_off channel=0 note=88 velocity=64 time=0\n",
      "note_off channel=0 note=80 velocity=64 time=1\n",
      "note_on channel=0 note=88 velocity=46 time=0\n",
      "note_on channel=0 note=91 velocity=43 time=0\n",
      "note_on channel=0 note=80 velocity=64 time=1\n",
      "note_off channel=0 note=81 velocity=64 time=0\n",
      "note_off channel=0 note=89 velocity=64 time=0\n",
      "note_on channel=0 note=46 velocity=45 time=1\n",
      "note_off channel=0 note=59 velocity=64 time=0\n",
      "note_off channel=0 note=71 velocity=64 time=0\n",
      "note_on channel=0 note=93 velocity=22 time=0\n",
      "note_off channel=0 note=94 velocity=64 time=0\n",
      "note_on channel=0 note=65 velocity=20 time=1\n",
      "note_off channel=0 note=66 velocity=64 time=0\n",
      "note_on channel=0 note=82 velocity=64 time=0\n",
      "note_off channel=0 note=83 velocity=64 time=0\n",
      "note_on channel=0 note=84 velocity=40 time=0\n",
      "note_off channel=0 note=85 velocity=64 time=0\n",
      "note_on channel=0 note=89 velocity=31 time=0\n",
      "note_off channel=0 note=46 velocity=64 time=1\n",
      "note_on channel=0 note=74 velocity=42 time=0\n",
      "note_off channel=0 note=75 velocity=64 time=0\n",
      "note_off channel=0 note=78 velocity=64 time=0\n",
      "note_on channel=0 note=46 velocity=45 time=1\n",
      "note_on channel=0 note=78 velocity=50 time=2\n",
      "note_off channel=0 note=92 velocity=64 time=0\n",
      "note_off channel=0 note=46 velocity=64 time=1\n",
      "note_on channel=0 note=47 velocity=50 time=0\n",
      "note_off channel=0 note=65 velocity=64 time=0\n",
      "note_on channel=0 note=66 velocity=33 time=0\n",
      "note_off channel=0 note=84 velocity=64 time=0\n",
      "note_on channel=0 note=85 velocity=55 time=0\n",
      "note_on channel=0 note=87 velocity=55 time=0\n",
      "note_off channel=0 note=89 velocity=64 time=0\n",
      "note_off channel=0 note=82 velocity=64 time=1\n",
      "note_on channel=0 note=83 velocity=65 time=0\n",
      "note_off channel=0 note=74 velocity=64 time=1\n",
      "note_off channel=0 note=80 velocity=64 time=0\n",
      "note_on channel=0 note=81 velocity=51 time=0\n",
      "note_on channel=0 note=89 velocity=35 time=0\n",
      "note_on channel=0 note=92 velocity=18 time=0\n",
      "note_off channel=0 note=47 velocity=64 time=1\n",
      "note_on channel=0 note=60 velocity=40 time=0\n",
      "note_off channel=0 note=66 velocity=64 time=0\n",
      "note_on channel=0 note=67 velocity=41 time=0\n",
      "note_on channel=0 note=72 velocity=40 time=0\n",
      "note_on channel=0 note=76 velocity=47 time=0\n",
      "note_off channel=0 note=83 velocity=64 time=0\n",
      "note_on channel=0 note=84 velocity=50 time=0\n",
      "note_on channel=0 note=49 velocity=64 time=1\n",
      "note_off channel=0 note=78 velocity=64 time=0\n",
      "note_on channel=0 note=80 velocity=70 time=0\n",
      "note_on channel=0 note=83 velocity=69 time=0\n",
      "note_off channel=0 note=88 velocity=64 time=0\n",
      "note_on channel=0 note=94 velocity=25 time=0\n",
      "note_off channel=0 note=60 velocity=64 time=1\n",
      "note_off channel=0 note=67 velocity=64 time=0\n",
      "note_on channel=0 note=68 velocity=37 time=0\n",
      "note_off channel=0 note=72 velocity=64 time=0\n",
      "note_on channel=0 note=75 velocity=43 time=0\n",
      "note_off channel=0 note=76 velocity=64 time=0\n",
      "note_on channel=0 note=77 velocity=45 time=0\n",
      "note_off channel=0 note=81 velocity=64 time=0\n",
      "note_on channel=0 note=88 velocity=58 time=0\n",
      "note_off channel=0 note=93 velocity=64 time=0\n",
      "note_on channel=0 note=74 velocity=53 time=1\n",
      "note_on channel=0 note=79 velocity=37 time=0\n",
      "note_off channel=0 note=68 velocity=64 time=1\n",
      "note_on channel=0 note=69 velocity=41 time=0\n",
      "note_off channel=0 note=75 velocity=64 time=0\n",
      "note_off channel=0 note=77 velocity=64 time=0\n",
      "note_off channel=0 note=84 velocity=64 time=0\n",
      "note_off channel=0 note=92 velocity=64 time=0\n",
      "note_on channel=0 note=93 velocity=26 time=0\n",
      "note_on channel=0 note=102 velocity=16 time=0\n",
      "note_on channel=0 note=62 velocity=45 time=1\n",
      "note_on channel=0 note=77 velocity=53 time=0\n",
      "note_off channel=0 note=79 velocity=64 time=0\n",
      "note_on channel=0 note=81 velocity=59 time=0\n",
      "note_off channel=0 note=89 velocity=64 time=0\n",
      "note_off channel=0 note=80 velocity=64 time=1\n",
      "note_off channel=0 note=85 velocity=64 time=0\n",
      "note_off channel=0 note=87 velocity=64 time=0\n",
      "note_off channel=0 note=62 velocity=64 time=1\n",
      "note_on channel=0 note=68 velocity=41 time=0\n",
      "note_off channel=0 note=69 velocity=64 time=0\n",
      "note_off channel=0 note=74 velocity=64 time=0\n",
      "note_on channel=0 note=75 velocity=30 time=0\n",
      "note_on channel=0 note=80 velocity=69 time=0\n",
      "note_off channel=0 note=81 velocity=64 time=0\n",
      "note_on channel=0 note=87 velocity=58 time=0\n",
      "note_off channel=0 note=94 velocity=64 time=0\n",
      "note_on channel=0 note=85 velocity=45 time=1\n",
      "note_on channel=0 note=90 velocity=40 time=0\n",
      "note_off channel=0 note=75 velocity=64 time=1\n",
      "note_on channel=0 note=78 velocity=43 time=0\n",
      "note_on channel=0 note=82 velocity=59 time=0\n",
      "note_off channel=0 note=102 velocity=64 time=0\n",
      "note_on channel=0 note=67 velocity=42 time=1\n",
      "note_off channel=0 note=68 velocity=64 time=0\n",
      "note_on channel=0 note=76 velocity=54 time=0\n",
      "note_off channel=0 note=77 velocity=64 time=0\n",
      "note_on channel=0 note=79 velocity=67 time=0\n",
      "note_off channel=0 note=83 velocity=64 time=0\n",
      "note_on channel=0 note=84 velocity=37 time=0\n",
      "note_off channel=0 note=85 velocity=64 time=0\n",
      "note_on channel=0 note=60 velocity=47 time=1\n",
      "note_off channel=0 note=80 velocity=64 time=0\n",
      "note_off channel=0 note=82 velocity=64 time=0\n",
      "note_on channel=0 note=83 velocity=65 time=0\n",
      "note_on channel=0 note=85 velocity=47 time=0\n",
      "note_off channel=0 note=87 velocity=64 time=0\n",
      "note_off channel=0 note=67 velocity=64 time=1\n",
      "note_on channel=0 note=68 velocity=43 time=0\n",
      "note_on channel=0 note=73 velocity=40 time=0\n",
      "note_off channel=0 note=78 velocity=64 time=0\n",
      "note_off channel=0 note=79 velocity=64 time=0\n",
      "note_on channel=0 note=80 velocity=71 time=0\n",
      "note_off channel=0 note=84 velocity=64 time=0\n",
      "note_on channel=0 note=87 velocity=63 time=0\n",
      "note_off channel=0 note=60 velocity=64 time=1\n",
      "note_off channel=0 note=76 velocity=64 time=0\n",
      "note_on channel=0 note=77 velocity=43 time=0\n",
      "note_on channel=0 note=89 velocity=48 time=0\n",
      "note_off channel=0 note=90 velocity=64 time=0\n",
      "note_off channel=0 note=68 velocity=64 time=1\n",
      "note_on channel=0 note=69 velocity=27 time=0\n",
      "note_off channel=0 note=73 velocity=64 time=0\n",
      "note_on channel=0 note=74 velocity=52 time=0\n",
      "note_on channel=0 note=78 velocity=57 time=0\n",
      "note_on channel=0 note=94 velocity=13 time=0\n",
      "note_off channel=0 note=49 velocity=64 time=1\n",
      "note_on channel=0 note=50 velocity=63 time=0\n",
      "note_off channel=0 note=77 velocity=64 time=0\n",
      "note_on channel=0 note=81 velocity=54 time=0\n",
      "note_on channel=0 note=84 velocity=57 time=0\n",
      "note_off channel=0 note=74 velocity=64 time=1\n",
      "note_on channel=0 note=75 velocity=53 time=0\n",
      "note_on channel=0 note=86 velocity=44 time=0\n",
      "note_off channel=0 note=50 velocity=64 time=1\n",
      "note_off channel=0 note=69 velocity=64 time=0\n",
      "note_on channel=0 note=76 velocity=54 time=0\n",
      "note_off channel=0 note=78 velocity=64 time=0\n",
      "note_off channel=0 note=81 velocity=64 time=0\n",
      "note_off channel=0 note=85 velocity=64 time=0\n",
      "note_on channel=0 note=53 velocity=63 time=1\n",
      "note_on channel=0 note=72 velocity=53 time=0\n",
      "note_off channel=0 note=75 velocity=64 time=0\n",
      "note_on channel=0 note=79 velocity=56 time=0\n",
      "note_off channel=0 note=80 velocity=64 time=0\n",
      "note_on channel=0 note=81 velocity=68 time=0\n",
      "note_off channel=0 note=83 velocity=64 time=0\n",
      "note_off channel=0 note=86 velocity=64 time=0\n",
      "note_on channel=0 note=92 velocity=31 time=0\n",
      "note_off channel=0 note=76 velocity=64 time=1\n",
      "note_on channel=0 note=78 velocity=64 time=0\n",
      "note_off channel=0 note=53 velocity=64 time=1\n",
      "note_on channel=0 note=54 velocity=58 time=0\n",
      "note_off channel=0 note=72 velocity=64 time=0\n",
      "note_off channel=0 note=79 velocity=64 time=0\n",
      "note_on channel=0 note=80 velocity=40 time=0\n",
      "note_on channel=0 note=85 velocity=47 time=0\n",
      "note_off channel=0 note=93 velocity=64 time=0\n",
      "note_on channel=0 note=74 velocity=65 time=1\n",
      "note_off channel=0 note=81 velocity=64 time=0\n",
      "note_on channel=0 note=83 velocity=63 time=0\n",
      "note_off channel=0 note=89 velocity=64 time=0\n",
      "note_on channel=0 note=93 velocity=18 time=0\n",
      "note_off channel=0 note=54 velocity=64 time=1\n",
      "note_on channel=0 note=55 velocity=61 time=0\n",
      "note_on channel=0 note=81 velocity=31 time=0\n",
      "note_off channel=0 note=94 velocity=64 time=0\n",
      "note_off channel=0 note=80 velocity=64 time=1\n",
      "note_off channel=0 note=78 velocity=64 time=1\n",
      "note_off channel=0 note=81 velocity=64 time=0\n",
      "note_on channel=0 note=82 velocity=46 time=0\n",
      "note_on channel=0 note=54 velocity=60 time=1\n",
      "note_off channel=0 note=55 velocity=64 time=0\n",
      "note_on channel=0 note=73 velocity=57 time=0\n",
      "note_off channel=0 note=74 velocity=64 time=0\n",
      "note_on channel=0 note=78 velocity=66 time=0\n",
      "note_off channel=0 note=83 velocity=64 time=0\n",
      "note_off channel=0 note=85 velocity=64 time=0\n",
      "note_off channel=0 note=87 velocity=64 time=0\n",
      "note_on channel=0 note=90 velocity=69 time=0\n",
      "note_off channel=0 note=93 velocity=64 time=0\n",
      "note_on channel=0 note=81 velocity=65 time=1\n",
      "note_off channel=0 note=84 velocity=64 time=0\n",
      "note_on channel=0 note=87 velocity=59 time=0\n",
      "note_on channel=0 note=89 velocity=52 time=0\n",
      "note_on channel=0 note=53 velocity=61 time=1\n",
      "note_off channel=0 note=54 velocity=64 time=0\n",
      "note_on channel=0 note=72 velocity=59 time=0\n",
      "note_off channel=0 note=73 velocity=64 time=0\n",
      "note_off channel=0 note=82 velocity=64 time=0\n",
      "note_off channel=0 note=88 velocity=64 time=0\n",
      "note_on channel=0 note=64 velocity=39 time=1\n",
      "note_on channel=0 note=82 velocity=34 time=0\n",
      "note_on channel=0 note=88 velocity=55 time=0\n",
      "note_off channel=0 note=89 velocity=64 time=0\n",
      "note_on channel=0 note=52 velocity=67 time=1\n",
      "note_off channel=0 note=53 velocity=64 time=0\n",
      "note_on channel=0 note=76 velocity=59 time=0\n",
      "note_off channel=0 note=78 velocity=64 time=0\n",
      "note_on channel=0 note=80 velocity=80 time=0\n",
      "note_off channel=0 note=81 velocity=64 time=0\n",
      "note_on channel=0 note=83 velocity=62 time=0\n",
      "note_on channel=0 note=86 velocity=50 time=0\n",
      "note_on channel=0 note=71 velocity=54 time=1\n",
      "note_off channel=0 note=72 velocity=64 time=0\n",
      "note_off channel=0 note=82 velocity=64 time=1\n",
      "note_off channel=0 note=92 velocity=64 time=1\n",
      "note_on channel=0 note=93 velocity=28 time=0\n",
      "note_on channel=0 note=78 velocity=21 time=1\n",
      "note_off channel=0 note=91 velocity=64 time=1\n",
      "note_on channel=0 note=91 velocity=23 time=1\n",
      "note_off channel=0 note=78 velocity=64 time=1\n",
      "note_off channel=0 note=93 velocity=64 time=1\n",
      "note_on channel=0 note=94 velocity=22 time=0\n",
      "note_on channel=0 note=82 velocity=35 time=5\n",
      "note_off channel=0 note=64 velocity=64 time=1\n",
      "note_on channel=0 note=65 velocity=38 time=0\n",
      "note_off channel=0 note=52 velocity=64 time=1\n",
      "note_on channel=0 note=53 velocity=67 time=0\n",
      "note_off channel=0 note=71 velocity=64 time=0\n",
      "note_on channel=0 note=72 velocity=53 time=0\n",
      "note_on channel=0 note=78 velocity=58 time=0\n",
      "note_off channel=0 note=82 velocity=64 time=0\n",
      "note_on channel=0 note=84 velocity=53 time=0\n",
      "note_on channel=0 note=89 velocity=48 time=0\n",
      "note_off channel=0 note=94 velocity=64 time=0\n",
      "note_off channel=0 note=65 velocity=64 time=1\n",
      "note_on channel=0 note=66 velocity=48 time=0\n",
      "note_on channel=0 note=75 velocity=34 time=0\n",
      "note_off channel=0 note=76 velocity=64 time=0\n",
      "note_on channel=0 note=81 velocity=61 time=0\n",
      "note_off channel=0 note=86 velocity=64 time=0\n",
      "note_off channel=0 note=53 velocity=64 time=1\n",
      "note_on channel=0 note=74 velocity=58 time=0\n",
      "note_on channel=0 note=85 velocity=45 time=0\n",
      "note_off channel=0 note=66 velocity=64 time=1\n",
      "note_off channel=0 note=72 velocity=64 time=0\n",
      "note_off channel=0 note=75 velocity=64 time=0\n",
      "note_on channel=0 note=79 velocity=65 time=0\n",
      "note_off channel=0 note=80 velocity=64 time=0\n",
      "note_off channel=0 note=81 velocity=64 time=0\n",
      "note_on channel=0 note=56 velocity=55 time=1\n",
      "note_off channel=0 note=74 velocity=64 time=0\n",
      "note_on channel=0 note=75 velocity=62 time=0\n",
      "note_off channel=0 note=78 velocity=64 time=0\n",
      "note_off channel=0 note=79 velocity=64 time=0\n",
      "note_on channel=0 note=80 velocity=69 time=0\n",
      "note_on channel=0 note=82 velocity=48 time=0\n",
      "note_off channel=0 note=88 velocity=64 time=0\n",
      "note_on channel=0 note=73 velocity=32 time=1\n",
      "note_on channel=0 note=79 velocity=39 time=0\n",
      "note_off channel=0 note=85 velocity=64 time=0\n",
      "note_on channel=0 note=86 velocity=29 time=0\n",
      "note_off channel=0 note=87 velocity=64 time=0\n",
      "note_on channel=0 note=88 velocity=64 time=0\n",
      "note_off channel=0 note=89 velocity=64 time=0\n",
      "note_off channel=0 note=56 velocity=64 time=1\n",
      "note_on channel=0 note=57 velocity=59 time=0\n",
      "note_off channel=0 note=75 velocity=64 time=0\n",
      "note_on channel=0 note=76 velocity=71 time=0\n",
      "note_off channel=0 note=80 velocity=64 time=0\n",
      "note_on channel=0 note=81 velocity=67 time=0\n",
      "note_off channel=0 note=83 velocity=64 time=0\n",
      "note_on channel=0 note=85 velocity=47 time=1\n",
      "note_on channel=0 note=78 velocity=32 time=1\n",
      "note_off channel=0 note=79 velocity=64 time=0\n",
      "note_off channel=0 note=84 velocity=64 time=0\n",
      "note_off channel=0 note=86 velocity=64 time=0\n",
      "note_on channel=0 note=87 velocity=50 time=0\n",
      "note_on channel=0 note=56 velocity=60 time=1\n",
      "note_off channel=0 note=57 velocity=64 time=0\n",
      "note_on channel=0 note=75 velocity=73 time=0\n",
      "note_on channel=0 note=80 velocity=70 time=0\n",
      "note_off channel=0 note=81 velocity=64 time=0\n",
      "note_on channel=0 note=84 velocity=53 time=0\n",
      "note_off channel=0 note=85 velocity=64 time=0\n",
      "note_off channel=0 note=91 velocity=64 time=0\n",
      "note_off channel=0 note=73 velocity=64 time=1\n",
      "note_off channel=0 note=76 velocity=64 time=0\n",
      "note_on channel=0 note=89 velocity=60 time=0\n",
      "note_on channel=0 note=91 velocity=44 time=0\n",
      "note_on channel=0 note=67 velocity=58 time=1\n",
      "note_off channel=0 note=78 velocity=64 time=0\n",
      "note_on channel=0 note=79 velocity=69 time=0\n",
      "note_off channel=0 note=80 velocity=64 time=0\n",
      "note_off channel=0 note=82 velocity=64 time=0\n",
      "note_on channel=0 note=83 velocity=55 time=0\n",
      "note_off channel=0 note=84 velocity=64 time=0\n",
      "note_on channel=0 note=93 velocity=27 time=0\n",
      "note_off channel=0 note=56 velocity=64 time=1\n",
      "note_on channel=0 note=74 velocity=69 time=0\n",
      "note_off channel=0 note=75 velocity=64 time=0\n",
      "note_on channel=0 note=82 velocity=69 time=0\n",
      "note_on channel=0 note=84 velocity=35 time=0\n",
      "note_on channel=0 note=85 velocity=61 time=0\n",
      "note_on channel=0 note=54 velocity=62 time=1\n",
      "note_off channel=0 note=83 velocity=64 time=0\n",
      "note_on channel=0 note=73 velocity=62 time=1\n",
      "note_off channel=0 note=74 velocity=64 time=0\n",
      "note_on channel=0 note=78 velocity=81 time=0\n",
      "note_off channel=0 note=87 velocity=64 time=0\n",
      "note_off channel=0 note=89 velocity=64 time=0\n",
      "note_on channel=0 note=92 velocity=44 time=0\n",
      "note_off channel=0 note=93 velocity=64 time=0\n",
      "note_off channel=0 note=54 velocity=64 time=1\n",
      "note_on channel=0 note=66 velocity=57 time=0\n",
      "note_off channel=0 note=67 velocity=64 time=0\n",
      "note_off channel=0 note=79 velocity=64 time=0\n",
      "note_on channel=0 note=54 velocity=59 time=1\n",
      "note_on channel=0 note=98 velocity=19 time=0\n",
      "note_on channel=0 note=95 velocity=32 time=2\n",
      "note_on channel=0 note=80 velocity=28 time=1\n",
      "note_off channel=0 note=91 velocity=64 time=1\n",
      "note_on channel=0 note=99 velocity=35 time=0\n",
      "note_off channel=0 note=84 velocity=64 time=1\n",
      "note_off channel=0 note=73 velocity=64 time=1\n",
      "note_on channel=0 note=75 velocity=66 time=0\n",
      "note_on channel=0 note=73 velocity=25 time=1\n",
      "note_on channel=0 note=91 velocity=22 time=0\n",
      "note_off channel=0 note=80 velocity=64 time=2\n",
      "note_on channel=0 note=84 velocity=18 time=2\n",
      "note_off channel=0 note=99 velocity=64 time=0\n",
      "note_on channel=0 note=93 velocity=31 time=1\n",
      "note_off channel=0 note=73 velocity=64 time=1\n",
      "note_off channel=0 note=84 velocity=64 time=1\n",
      "note_off channel=0 note=98 velocity=64 time=0\n",
      "note_on channel=0 note=73 velocity=35 time=1\n",
      "note_off channel=0 note=92 velocity=64 time=1\n",
      "note_off channel=0 note=54 velocity=64 time=2\n",
      "note_on channel=0 note=84 velocity=39 time=0\n",
      "note_on channel=0 note=52 velocity=52 time=1\n",
      "note_off channel=0 note=66 velocity=64 time=1\n",
      "note_off channel=0 note=85 velocity=64 time=1\n",
      "note_off channel=0 note=52 velocity=64 time=1\n",
      "note_off channel=0 note=73 velocity=64 time=0\n",
      "note_on channel=0 note=80 velocity=68 time=0\n",
      "note_on channel=0 note=83 velocity=56 time=0\n",
      "note_on channel=0 note=72 velocity=14 time=1\n",
      "note_off channel=0 note=82 velocity=64 time=0\n",
      "note_on channel=0 note=85 velocity=17 time=0\n",
      "note_on channel=0 note=77 velocity=21 time=1\n",
      "note_off channel=0 note=78 velocity=64 time=0\n",
      "note_on channel=0 note=55 velocity=59 time=2\n",
      "note_off channel=0 note=85 velocity=64 time=0\n",
      "note_on channel=0 note=78 velocity=27 time=1\n",
      "note_off channel=0 note=77 velocity=64 time=1\n",
      "note_off channel=0 note=55 velocity=64 time=1\n",
      "note_on channel=0 note=68 velocity=45 time=0\n",
      "note_off channel=0 note=84 velocity=64 time=0\n",
      "note_on channel=0 note=101 velocity=25 time=0\n",
      "note_on channel=0 note=56 velocity=56 time=2\n",
      "note_on channel=0 note=86 velocity=24 time=0\n",
      "note_on channel=0 note=77 velocity=29 time=3\n",
      "note_off channel=0 note=78 velocity=64 time=0\n",
      "note_on channel=0 note=84 velocity=59 time=1\n",
      "note_off channel=0 note=86 velocity=64 time=0\n",
      "note_on channel=0 note=82 velocity=42 time=1\n",
      "note_on channel=0 note=86 velocity=27 time=0\n",
      "note_off channel=0 note=91 velocity=64 time=0\n",
      "note_off channel=0 note=83 velocity=64 time=1\n",
      "note_off channel=0 note=101 velocity=64 time=0\n",
      "note_off channel=0 note=77 velocity=64 time=1\n",
      "note_on channel=0 note=77 velocity=30 time=1\n",
      "note_on channel=0 note=78 velocity=28 time=1\n",
      "note_off channel=0 note=77 velocity=64 time=1\n",
      "note_on channel=0 note=77 velocity=27 time=2\n",
      "note_off channel=0 note=78 velocity=64 time=1\n",
      "note_on channel=0 note=49 velocity=16 time=2\n",
      "note_off channel=0 note=77 velocity=64 time=0\n",
      "note_on channel=0 note=77 velocity=19 time=1\n",
      "note_off channel=0 note=86 velocity=64 time=1\n",
      "note_off channel=0 note=49 velocity=64 time=1\n",
      "note_on channel=0 note=91 velocity=20 time=0\n",
      "note_off channel=0 note=77 velocity=64 time=2\n",
      "note_on channel=0 note=83 velocity=45 time=1\n",
      "note_on channel=0 note=101 velocity=23 time=0\n",
      "note_off channel=0 note=82 velocity=64 time=1\n",
      "note_off channel=0 note=72 velocity=64 time=2\n",
      "note_on channel=0 note=73 velocity=15 time=1\n",
      "note_off channel=0 note=91 velocity=64 time=0\n",
      "note_on channel=0 note=91 velocity=20 time=1\n",
      "note_off channel=0 note=101 velocity=64 time=1\n",
      "note_on channel=0 note=77 velocity=19 time=8\n",
      "note_off channel=0 note=77 velocity=64 time=5\n",
      "note_on channel=0 note=77 velocity=30 time=1\n",
      "note_off channel=0 note=73 velocity=64 time=5\n",
      "note_on channel=0 note=82 velocity=34 time=1\n",
      "note_off channel=0 note=83 velocity=64 time=0\n",
      "note_off channel=0 note=80 velocity=64 time=3\n",
      "note_on channel=0 note=85 velocity=23 time=4\n",
      "note_on channel=0 note=89 velocity=42 time=0\n",
      "note_on channel=0 note=17 velocity=17 time=1\n",
      "note_off channel=0 note=90 velocity=64 time=0\n",
      "note_off channel=0 note=89 velocity=64 time=1\n",
      "note_on channel=0 note=90 velocity=53 time=0\n",
      "note_off channel=0 note=17 velocity=64 time=2\n",
      "note_on channel=0 note=83 velocity=48 time=15\n",
      "note_off channel=0 note=82 velocity=64 time=1\n",
      "note_on channel=0 note=73 velocity=10 time=1\n",
      "note_off channel=0 note=95 velocity=64 time=1\n",
      "note_off channel=0 note=73 velocity=64 time=4\n",
      "note_off channel=0 note=91 velocity=64 time=3\n",
      "note_on channel=0 note=91 velocity=22 time=1\n",
      "note_off channel=0 note=77 velocity=64 time=1\n",
      "note_on channel=0 note=78 velocity=12 time=0\n",
      "note_on channel=0 note=77 velocity=21 time=6\n",
      "note_off channel=0 note=78 velocity=64 time=0\n",
      "note_on channel=0 note=73 velocity=26 time=6\n",
      "note_off channel=0 note=93 velocity=64 time=0\n",
      "note_off channel=0 note=84 velocity=64 time=4\n",
      "note_off channel=0 note=77 velocity=64 time=1\n",
      "note_on channel=0 note=84 velocity=29 time=0\n",
      "note_off channel=0 note=90 velocity=64 time=2\n",
      "note_off channel=0 note=91 velocity=64 time=1\n",
      "note_on channel=0 note=92 velocity=31 time=1\n",
      "note_off channel=0 note=85 velocity=64 time=2\n",
      "note_on channel=0 note=77 velocity=13 time=3\n",
      "note_on channel=0 note=90 velocity=12 time=1\n",
      "note_on channel=0 note=91 velocity=33 time=0\n",
      "note_off channel=0 note=90 velocity=64 time=5\n",
      "note_on channel=0 note=90 velocity=17 time=4\n",
      "note_off channel=0 note=92 velocity=64 time=3\n",
      "note_off channel=0 note=77 velocity=64 time=2\n",
      "note_off channel=0 note=88 velocity=64 time=4\n",
      "note_off channel=0 note=90 velocity=64 time=1\n",
      "note_on channel=0 note=93 velocity=11 time=9\n",
      "note_off channel=0 note=73 velocity=64 time=7\n",
      "note_off channel=0 note=93 velocity=64 time=5\n",
      "note_off channel=0 note=83 velocity=64 time=5\n",
      "note_on channel=0 note=83 velocity=37 time=2\n",
      "note_off channel=0 note=84 velocity=64 time=21\n",
      "note_off channel=0 note=83 velocity=64 time=1\n",
      "note_on channel=0 note=83 velocity=27 time=4\n",
      "note_on channel=0 note=84 velocity=35 time=0\n",
      "note_on channel=0 note=85 velocity=15 time=3\n",
      "note_on channel=0 note=90 velocity=25 time=2\n",
      "note_on channel=0 note=78 velocity=28 time=3\n",
      "note_on channel=0 note=88 velocity=42 time=0\n",
      "note_on channel=0 note=82 velocity=30 time=8\n",
      "note_off channel=0 note=83 velocity=64 time=1\n",
      "note_off channel=0 note=85 velocity=64 time=0\n",
      "note_on channel=0 note=86 velocity=25 time=0\n",
      "note_on channel=0 note=72 velocity=11 time=6\n",
      "note_on channel=0 note=77 velocity=27 time=4\n",
      "note_off channel=0 note=78 velocity=64 time=1\n",
      "note_on channel=0 note=95 velocity=9 time=0\n",
      "note_off channel=0 note=77 velocity=64 time=2\n",
      "note_on channel=0 note=77 velocity=25 time=1\n",
      "note_off channel=0 note=95 velocity=64 time=2\n",
      "note_off channel=0 note=90 velocity=64 time=1\n",
      "note_off channel=0 note=72 velocity=64 time=4\n",
      "note_on channel=0 note=73 velocity=18 time=0\n",
      "note_on channel=0 note=55 velocity=50 time=1\n",
      "note_off channel=0 note=56 velocity=64 time=0\n",
      "note_off channel=0 note=68 velocity=64 time=0\n",
      "note_off channel=0 note=77 velocity=64 time=3\n",
      "note_on channel=0 note=78 velocity=29 time=0\n",
      "note_on channel=0 note=90 velocity=47 time=0\n",
      "note_off channel=0 note=55 velocity=64 time=2\n",
      "note_on channel=0 note=56 velocity=30 time=0\n",
      "note_off channel=0 note=91 velocity=64 time=6\n",
      "note_off channel=0 note=56 velocity=64 time=1\n",
      "note_off channel=0 note=86 velocity=64 time=1\n",
      "note_on channel=0 note=91 velocity=19 time=2\n",
      "note_off channel=0 note=75 velocity=64 time=3\n",
      "note_off channel=0 note=82 velocity=64 time=1\n",
      "note_on channel=0 note=83 velocity=30 time=0\n",
      "note_on channel=0 note=77 velocity=36 time=1\n",
      "note_on channel=0 note=82 velocity=34 time=0\n",
      "note_off channel=0 note=78 velocity=64 time=1\n",
      "note_off channel=0 note=83 velocity=64 time=0\n",
      "note_on channel=0 note=78 velocity=32 time=1\n",
      "note_on channel=0 note=83 velocity=33 time=0\n",
      "note_on channel=0 note=86 velocity=22 time=0\n",
      "note_off channel=0 note=77 velocity=64 time=1\n",
      "note_off channel=0 note=82 velocity=64 time=0\n",
      "note_on channel=0 note=93 velocity=30 time=1\n",
      "note_on channel=0 note=75 velocity=32 time=1\n",
      "note_on channel=0 note=82 velocity=34 time=0\n",
      "note_off channel=0 note=83 velocity=64 time=1\n",
      "note_on channel=0 note=87 velocity=45 time=2\n",
      "note_on channel=0 note=95 velocity=37 time=0\n",
      "note_off channel=0 note=78 velocity=64 time=8\n",
      "note_on channel=0 note=83 velocity=34 time=0\n",
      "note_off channel=0 note=82 velocity=64 time=1\n",
      "note_off channel=0 note=86 velocity=64 time=2\n",
      "note_on channel=0 note=80 velocity=43 time=3\n",
      "note_on channel=0 note=72 velocity=39 time=1\n",
      "note_on channel=0 note=78 velocity=21 time=0\n",
      "note_off channel=0 note=73 velocity=64 time=1\n",
      "note_off channel=0 note=91 velocity=64 time=0\n",
      "note_off channel=0 note=88 velocity=64 time=2\n",
      "note_off channel=0 note=78 velocity=64 time=1\n",
      "note_on channel=0 note=88 velocity=33 time=0\n",
      "note_on channel=0 note=91 velocity=11 time=0\n",
      "note_on channel=0 note=78 velocity=26 time=1\n",
      "note_on channel=0 note=82 velocity=74 time=1\n",
      "note_on channel=0 note=77 velocity=31 time=3\n",
      "note_off channel=0 note=78 velocity=64 time=0\n",
      "note_on channel=0 note=86 velocity=21 time=0\n",
      "note_off channel=0 note=83 velocity=64 time=1\n",
      "note_on channel=0 note=92 velocity=45 time=0\n",
      "note_off channel=0 note=86 velocity=64 time=3\n",
      "note_on channel=0 note=86 velocity=20 time=1\n",
      "note_on channel=0 note=78 velocity=29 time=1\n",
      "note_off channel=0 note=91 velocity=64 time=0\n",
      "note_off channel=0 note=77 velocity=64 time=1\n",
      "note_off channel=0 note=87 velocity=64 time=0\n",
      "note_on channel=0 note=77 velocity=28 time=1\n",
      "note_on channel=0 note=87 velocity=52 time=1\n",
      "note_off channel=0 note=78 velocity=64 time=1\n",
      "note_off channel=0 note=77 velocity=64 time=2\n",
      "note_on channel=0 note=77 velocity=19 time=1\n",
      "note_off channel=0 note=77 velocity=64 time=4\n",
      "note_on channel=0 note=77 velocity=43 time=1\n",
      "note_on channel=0 note=85 velocity=76 time=2\n",
      "note_on channel=0 note=91 velocity=38 time=0\n",
      "note_on channel=0 note=53 velocity=62 time=1\n",
      "note_on channel=0 note=66 velocity=39 time=0\n",
      "note_off channel=0 note=75 velocity=64 time=0\n",
      "note_on channel=0 note=83 velocity=37 time=0\n",
      "note_off channel=0 note=84 velocity=64 time=0\n",
      "note_off channel=0 note=86 velocity=64 time=0\n",
      "note_on channel=0 note=101 velocity=33 time=0\n",
      "note_off channel=0 note=72 velocity=64 time=1\n",
      "note_on channel=0 note=73 velocity=68 time=0\n",
      "note_off channel=0 note=77 velocity=64 time=0\n",
      "note_on channel=0 note=78 velocity=49 time=0\n",
      "note_on channel=0 note=102 velocity=52 time=0\n",
      "note_off channel=0 note=53 velocity=64 time=1\n",
      "note_on channel=0 note=54 velocity=67 time=0\n",
      "note_off channel=0 note=83 velocity=64 time=0\n",
      "note_on channel=0 note=75 velocity=28 time=1\n",
      "note_off channel=0 note=93 velocity=64 time=1\n",
      "note_off channel=0 note=66 velocity=64 time=2\n",
      "note_on channel=0 note=77 velocity=59 time=0\n",
      "note_off channel=0 note=78 velocity=64 time=0\n",
      "note_on channel=0 note=81 velocity=73 time=0\n",
      "note_off channel=0 note=82 velocity=64 time=0\n",
      "note_off channel=0 note=101 velocity=64 time=0\n",
      "note_off channel=0 note=81 velocity=64 time=2\n",
      "note_on channel=0 note=82 velocity=69 time=0\n",
      "note_on channel=0 note=101 velocity=47 time=0\n",
      "note_on channel=0 note=100 velocity=36 time=1\n",
      "note_off channel=0 note=77 velocity=64 time=1\n",
      "note_on channel=0 note=78 velocity=66 time=0\n",
      "note_on channel=0 note=93 velocity=29 time=0\n",
      "note_off channel=0 note=88 velocity=64 time=1\n",
      "note_on channel=0 note=88 velocity=49 time=1\n",
      "note_off channel=0 note=54 velocity=64 time=1\n",
      "note_on channel=0 note=55 velocity=66 time=0\n",
      "note_off channel=0 note=73 velocity=64 time=0\n",
      "note_on channel=0 note=74 velocity=58 time=0\n",
      "note_off channel=0 note=75 velocity=64 time=0\n",
      "note_off channel=0 note=82 velocity=64 time=0\n",
      "note_on channel=0 note=83 velocity=61 time=0\n",
      "note_off channel=0 note=102 velocity=64 time=0\n",
      "note_off channel=0 note=85 velocity=64 time=1\n",
      "note_off channel=0 note=101 velocity=64 time=0\n",
      "note_off channel=0 note=78 velocity=64 time=1\n",
      "note_on channel=0 note=79 velocity=63 time=0\n",
      "note_on channel=0 note=82 velocity=44 time=0\n",
      "note_off channel=0 note=100 velocity=64 time=0\n",
      "note_on channel=0 note=101 velocity=45 time=0\n",
      "note_off channel=0 note=80 velocity=64 time=2\n",
      "note_on channel=0 note=89 velocity=30 time=0\n",
      "note_off channel=0 note=93 velocity=64 time=1\n",
      "note_off channel=0 note=82 velocity=64 time=1\n",
      "note_on channel=0 note=85 velocity=22 time=0\n",
      "note_on channel=0 note=93 velocity=40 time=0\n",
      "note_off channel=0 note=89 velocity=64 time=1\n",
      "note_off channel=0 note=55 velocity=64 time=1\n",
      "note_on channel=0 note=56 velocity=66 time=0\n",
      "note_off channel=0 note=74 velocity=64 time=0\n",
      "note_on channel=0 note=75 velocity=47 time=0\n",
      "note_off channel=0 note=79 velocity=64 time=0\n",
      "note_on channel=0 note=80 velocity=38 time=0\n",
      "note_on channel=0 note=77 velocity=21 time=1\n",
      "note_on channel=0 note=82 velocity=40 time=0\n",
      "note_on channel=0 note=84 velocity=56 time=0\n",
      "note_off channel=0 note=83 velocity=64 time=1\n",
      "note_on channel=0 note=79 velocity=30 time=1\n",
      "note_off channel=0 note=80 velocity=64 time=0\n",
      "note_off channel=0 note=82 velocity=64 time=1\n",
      "note_off channel=0 note=79 velocity=64 time=1\n",
      "note_on channel=0 note=82 velocity=45 time=0\n",
      "note_on channel=0 note=83 velocity=51 time=0\n",
      "note_off channel=0 note=84 velocity=64 time=0\n",
      "note_off channel=0 note=85 velocity=64 time=2\n",
      "note_on channel=0 note=86 velocity=13 time=0\n",
      "note_off channel=0 note=101 velocity=64 time=1\n",
      "note_off channel=0 note=83 velocity=64 time=1\n",
      "note_on channel=0 note=84 velocity=56 time=0\n",
      "note_off channel=0 note=87 velocity=64 time=0\n",
      "note_on channel=0 note=74 velocity=39 time=1\n",
      "note_off channel=0 note=75 velocity=64 time=0\n",
      "note_on channel=0 note=87 velocity=18 time=0\n",
      "note_off channel=0 note=77 velocity=64 time=1\n",
      "note_off channel=0 note=74 velocity=64 time=1\n",
      "note_on channel=0 note=75 velocity=62 time=0\n",
      "note_on channel=0 note=77 velocity=23 time=0\n",
      "note_on channel=0 note=83 velocity=48 time=1\n",
      "note_off channel=0 note=91 velocity=64 time=0\n",
      "note_off channel=0 note=82 velocity=64 time=1\n",
      "note_on channel=0 note=85 velocity=23 time=0\n",
      "note_off channel=0 note=86 velocity=64 time=0\n",
      "note_off channel=0 note=87 velocity=64 time=6\n",
      "note_on channel=0 note=73 velocity=16 time=9\n",
      "note_off channel=0 note=77 velocity=64 time=0\n",
      "note_on channel=0 note=82 velocity=36 time=4\n",
      "note_off channel=0 note=83 velocity=64 time=1\n",
      "note_off channel=0 note=85 velocity=64 time=0\n",
      "note_on channel=0 note=91 velocity=12 time=2\n",
      "note_off channel=0 note=91 velocity=64 time=4\n",
      "note_on channel=0 note=91 velocity=14 time=1\n",
      "note_off channel=0 note=82 velocity=64 time=1\n",
      "note_on channel=0 note=83 velocity=39 time=0\n",
      "note_off channel=0 note=91 velocity=64 time=5\n",
      "note_off channel=0 note=73 velocity=64 time=1\n",
      "note_on channel=0 note=77 velocity=16 time=1\n",
      "note_on channel=0 note=85 velocity=23 time=0\n",
      "note_on channel=0 note=91 velocity=16 time=3\n",
      "note_on channel=0 note=73 velocity=34 time=2\n",
      "note_on channel=0 note=82 velocity=28 time=1\n",
      "note_off channel=0 note=77 velocity=64 time=1\n",
      "note_off channel=0 note=83 velocity=64 time=0\n",
      "note_off channel=0 note=95 velocity=64 time=0\n",
      "note_off channel=0 note=93 velocity=64 time=1\n",
      "note_on channel=0 note=83 velocity=49 time=2\n",
      "note_off channel=0 note=90 velocity=64 time=0\n",
      "note_off channel=0 note=92 velocity=64 time=0\n",
      "note_off channel=0 note=82 velocity=64 time=1\n",
      "note_on channel=0 note=77 velocity=21 time=1\n",
      "note_on channel=0 note=102 velocity=27 time=0\n",
      "note_off channel=0 note=91 velocity=64 time=6\n",
      "note_on channel=0 note=90 velocity=37 time=2\n",
      "note_off channel=0 note=88 velocity=64 time=9\n",
      "note_on channel=0 note=91 velocity=12 time=4\n",
      "note_off channel=0 note=85 velocity=64 time=11\n",
      "note_on channel=0 note=100 velocity=15 time=1\n",
      "note_on channel=0 note=93 velocity=15 time=3\n",
      "note_off channel=0 note=100 velocity=64 time=4\n",
      "note_off channel=0 note=93 velocity=64 time=5\n",
      "note_off channel=0 note=73 velocity=64 time=4\n",
      "note_off channel=0 note=91 velocity=64 time=0\n",
      "note_off channel=0 note=102 velocity=64 time=0\n",
      "note_on channel=0 note=89 velocity=31 time=1\n",
      "note_off channel=0 note=90 velocity=64 time=0\n",
      "note_off channel=0 note=83 velocity=64 time=5\n",
      "note_on channel=0 note=67 velocity=45 time=1\n",
      "note_on channel=0 note=83 velocity=32 time=0\n",
      "note_off channel=0 note=84 velocity=64 time=0\n",
      "note_on channel=0 note=55 velocity=67 time=1\n",
      "note_off channel=0 note=56 velocity=64 time=0\n",
      "note_on channel=0 note=91 velocity=23 time=0\n",
      "note_off channel=0 note=67 velocity=64 time=2\n",
      "note_on channel=0 note=68 velocity=21 time=0\n",
      "note_on channel=0 note=73 velocity=27 time=0\n",
      "note_off channel=0 note=89 velocity=64 time=0\n",
      "note_off channel=0 note=55 velocity=64 time=1\n",
      "note_on channel=0 note=81 velocity=13 time=0\n",
      "note_off channel=0 note=91 velocity=64 time=0\n",
      "note_on channel=0 note=53 velocity=63 time=1\n",
      "note_off channel=0 note=77 velocity=64 time=0\n",
      "note_on channel=0 note=91 velocity=19 time=0\n",
      "note_off channel=0 note=73 velocity=64 time=1\n",
      "note_on channel=0 note=77 velocity=29 time=0\n",
      "note_off channel=0 note=53 velocity=64 time=1\n",
      "note_on channel=0 note=54 velocity=61 time=0\n",
      "note_off channel=0 note=68 velocity=64 time=0\n",
      "note_on channel=0 note=73 velocity=49 time=0\n",
      "note_off channel=0 note=75 velocity=64 time=0\n",
      "note_off channel=0 note=81 velocity=64 time=0\n",
      "note_on channel=0 note=90 velocity=24 time=0\n",
      "note_off channel=0 note=77 velocity=64 time=2\n",
      "note_on channel=0 note=78 velocity=40 time=0\n",
      "note_on channel=0 note=82 velocity=24 time=7\n",
      "note_on channel=0 note=88 velocity=20 time=1\n",
      "note_off channel=0 note=90 velocity=64 time=0\n",
      "note_off channel=0 note=83 velocity=64 time=2\n",
      "note_off channel=0 note=91 velocity=64 time=1\n",
      "note_on channel=0 note=81 velocity=41 time=1\n",
      "note_off channel=0 note=82 velocity=64 time=0\n",
      "note_on channel=0 note=87 velocity=31 time=0\n",
      "note_off channel=0 note=88 velocity=64 time=0\n",
      "note_on channel=0 note=65 velocity=26 time=1\n",
      "note_on channel=0 note=77 velocity=61 time=0\n",
      "note_on channel=0 note=101 velocity=16 time=0\n",
      "note_on channel=0 note=53 velocity=59 time=1\n",
      "note_off channel=0 note=54 velocity=64 time=0\n",
      "note_on channel=0 note=72 velocity=49 time=0\n",
      "note_off channel=0 note=73 velocity=64 time=0\n",
      "note_off channel=0 note=78 velocity=64 time=0\n",
      "note_on channel=0 note=84 velocity=52 time=0\n",
      "note_off channel=0 note=101 velocity=64 time=2\n",
      "note_on channel=0 note=64 velocity=27 time=1\n",
      "note_off channel=0 note=65 velocity=64 time=0\n",
      "note_on channel=0 note=80 velocity=53 time=0\n",
      "note_off channel=0 note=81 velocity=64 time=0\n",
      "note_on channel=0 note=86 velocity=58 time=0\n",
      "note_off channel=0 note=87 velocity=64 time=0\n",
      "note_on channel=0 note=88 velocity=54 time=0\n",
      "note_on channel=0 note=91 velocity=29 time=0\n",
      "note_on channel=0 note=52 velocity=64 time=1\n",
      "note_off channel=0 note=53 velocity=64 time=0\n",
      "note_on channel=0 note=71 velocity=46 time=0\n",
      "note_off channel=0 note=72 velocity=64 time=0\n",
      "note_on channel=0 note=76 velocity=68 time=0\n",
      "note_off channel=0 note=77 velocity=64 time=0\n",
      "note_on channel=0 note=83 velocity=61 time=0\n",
      "note_off channel=0 note=84 velocity=64 time=0\n",
      "note_on channel=0 note=90 velocity=12 time=0\n",
      "note_on channel=0 note=101 velocity=32 time=1\n",
      "note_on channel=0 note=93 velocity=10 time=8\n",
      "note_off channel=0 note=90 velocity=64 time=1\n",
      "note_on channel=0 note=78 velocity=10 time=2\n",
      "note_off channel=0 note=78 velocity=64 time=3\n",
      "note_off channel=0 note=64 velocity=64 time=4\n",
      "note_off channel=0 note=93 velocity=64 time=0\n",
      "note_off channel=0 note=71 velocity=64 time=1\n",
      "note_on channel=0 note=72 velocity=52 time=0\n",
      "note_off channel=0 note=76 velocity=64 time=0\n",
      "note_on channel=0 note=77 velocity=60 time=0\n",
      "note_off channel=0 note=80 velocity=64 time=0\n",
      "note_on channel=0 note=81 velocity=55 time=0\n",
      "note_off channel=0 note=83 velocity=64 time=0\n",
      "note_off channel=0 note=52 velocity=64 time=1\n",
      "note_on channel=0 note=66 velocity=37 time=0\n",
      "note_on channel=0 note=78 velocity=37 time=0\n",
      "note_on channel=0 note=85 velocity=36 time=0\n",
      "note_on channel=0 note=87 velocity=38 time=0\n",
      "note_off channel=0 note=72 velocity=64 time=1\n",
      "note_on channel=0 note=73 velocity=41 time=0\n",
      "note_on channel=0 note=83 velocity=45 time=0\n",
      "note_on channel=0 note=55 velocity=53 time=1\n",
      "note_off channel=0 note=66 velocity=64 time=0\n",
      "note_on channel=0 note=74 velocity=48 time=0\n",
      "note_off channel=0 note=78 velocity=64 time=0\n",
      "note_on channel=0 note=80 velocity=47 time=0\n",
      "note_off channel=0 note=81 velocity=64 time=0\n",
      "note_off channel=0 note=73 velocity=64 time=1\n",
      "note_off channel=0 note=55 velocity=64 time=1\n",
      "note_on channel=0 note=56 velocity=55 time=0\n",
      "note_off channel=0 note=74 velocity=64 time=0\n",
      "note_on channel=0 note=75 velocity=48 time=0\n",
      "note_on channel=0 note=82 velocity=22 time=0\n",
      "note_off channel=0 note=85 velocity=64 time=0\n",
      "note_on channel=0 note=79 velocity=41 time=1\n",
      "note_off channel=0 note=83 velocity=64 time=0\n",
      "note_off channel=0 note=56 velocity=64 time=1\n",
      "note_on channel=0 note=72 velocity=13 time=0\n",
      "note_off channel=0 note=80 velocity=64 time=0\n",
      "note_on channel=0 note=83 velocity=44 time=0\n",
      "note_on channel=0 note=67 velocity=46 time=1\n",
      "note_on channel=0 note=74 velocity=47 time=0\n",
      "note_off channel=0 note=88 velocity=64 time=0\n",
      "note_on channel=0 note=102 velocity=26 time=0\n",
      "note_on channel=0 note=55 velocity=58 time=1\n",
      "note_off channel=0 note=75 velocity=64 time=0\n",
      "note_on channel=0 note=80 velocity=37 time=0\n",
      "note_off channel=0 note=82 velocity=64 time=0\n",
      "note_off channel=0 note=87 velocity=64 time=0\n",
      "note_on channel=0 note=82 velocity=61 time=1\n",
      "note_off channel=0 note=83 velocity=64 time=0\n",
      "note_on channel=0 note=88 velocity=52 time=0\n",
      "note_on channel=0 note=66 velocity=44 time=1\n",
      "note_off channel=0 note=67 velocity=64 time=0\n",
      "note_off channel=0 note=72 velocity=64 time=0\n",
      "note_on channel=0 note=73 velocity=49 time=0\n",
      "note_off channel=0 note=74 velocity=64 time=0\n",
      "note_off channel=0 note=77 velocity=64 time=0\n",
      "note_off channel=0 note=79 velocity=64 time=0\n",
      "note_off channel=0 note=86 velocity=64 time=0\n",
      "note_on channel=0 note=54 velocity=55 time=1\n",
      "note_off channel=0 note=55 velocity=64 time=0\n",
      "note_on channel=0 note=75 velocity=20 time=6\n",
      "note_on channel=0 note=77 velocity=19 time=1\n",
      "note_on channel=0 note=83 velocity=30 time=1\n",
      "note_off channel=0 note=91 velocity=64 time=1\n",
      "note_off channel=0 note=77 velocity=64 time=1\n",
      "note_off channel=0 note=83 velocity=64 time=2\n",
      "note_on channel=0 note=84 velocity=15 time=7\n",
      "note_off channel=0 note=75 velocity=64 time=4\n",
      "note_on channel=0 note=85 velocity=49 time=5\n",
      "note_on channel=0 note=77 velocity=29 time=1\n",
      "note_on channel=0 note=78 velocity=56 time=1\n",
      "note_off channel=0 note=84 velocity=64 time=0\n",
      "note_off channel=0 note=77 velocity=64 time=1\n",
      "note_on channel=0 note=91 velocity=16 time=3\n",
      "note_on channel=0 note=83 velocity=15 time=5\n",
      "note_on channel=0 note=75 velocity=16 time=1\n",
      "note_off channel=0 note=80 velocity=64 time=0\n",
      "note_on channel=0 note=87 velocity=27 time=0\n",
      "note_off channel=0 note=101 velocity=64 time=0\n",
      "note_on channel=0 note=53 velocity=57 time=1\n",
      "note_off channel=0 note=54 velocity=64 time=0\n",
      "note_on channel=0 note=72 velocity=50 time=0\n",
      "note_on channel=0 note=77 velocity=50 time=0\n",
      "note_on channel=0 note=81 velocity=32 time=0\n",
      "note_off channel=0 note=82 velocity=64 time=0\n",
      "note_on channel=0 note=84 velocity=51 time=0\n",
      "note_off channel=0 note=102 velocity=64 time=0\n",
      "note_off channel=0 note=66 velocity=64 time=1\n",
      "note_off channel=0 note=73 velocity=64 time=0\n",
      "note_off channel=0 note=83 velocity=64 time=0\n",
      "note_on channel=0 note=73 velocity=33 time=1\n",
      "note_off channel=0 note=75 velocity=64 time=0\n",
      "note_off channel=0 note=78 velocity=64 time=0\n",
      "note_on channel=0 note=80 velocity=57 time=0\n",
      "note_off channel=0 note=81 velocity=64 time=0\n",
      "note_off channel=0 note=85 velocity=64 time=0\n",
      "note_on channel=0 note=86 velocity=45 time=0\n",
      "note_off channel=0 note=88 velocity=64 time=0\n",
      "note_on channel=0 note=52 velocity=61 time=1\n",
      "note_off channel=0 note=53 velocity=64 time=0\n",
      "note_on channel=0 note=71 velocity=38 time=0\n",
      "note_off channel=0 note=72 velocity=64 time=0\n",
      "note_on channel=0 note=76 velocity=56 time=0\n",
      "note_off channel=0 note=77 velocity=64 time=0\n",
      "note_on channel=0 note=78 velocity=29 time=0\n",
      "note_on channel=0 note=83 velocity=66 time=0\n",
      "note_off channel=0 note=84 velocity=64 time=0\n",
      "note_on channel=0 note=101 velocity=28 time=0\n",
      "note_off channel=0 note=87 velocity=64 time=1\n",
      "note_off channel=0 note=78 velocity=64 time=1\n",
      "note_on channel=0 note=93 velocity=39 time=0\n",
      "note_off channel=0 note=73 velocity=64 time=8\n",
      "note_off channel=0 note=91 velocity=64 time=10\n",
      "note_off channel=0 note=71 velocity=64 time=2\n",
      "note_on channel=0 note=72 velocity=27 time=0\n",
      "note_off channel=0 note=101 velocity=64 time=2\n",
      "note_off channel=0 note=52 velocity=64 time=1\n",
      "note_off channel=0 note=86 velocity=64 time=0\n",
      "note_off channel=0 note=76 velocity=64 time=1\n",
      "note_on channel=0 note=77 velocity=22 time=0\n",
      "note_on channel=0 note=86 velocity=25 time=1\n",
      "note_off channel=0 note=77 velocity=64 time=2\n",
      "note_on channel=0 note=53 velocity=56 time=1\n",
      "note_on channel=0 note=77 velocity=21 time=1\n",
      "note_on channel=0 note=82 velocity=33 time=0\n",
      "note_off channel=0 note=83 velocity=64 time=0\n",
      "note_on channel=0 note=91 velocity=20 time=0\n",
      "note_off channel=0 note=53 velocity=64 time=1\n",
      "note_on channel=0 note=67 velocity=45 time=0\n",
      "note_on channel=0 note=74 velocity=47 time=0\n",
      "note_on channel=0 note=83 velocity=59 time=0\n",
      "note_on channel=0 note=55 velocity=62 time=1\n",
      "note_on channel=0 note=85 velocity=23 time=0\n",
      "note_on channel=0 note=88 velocity=11 time=0\n",
      "note_off channel=0 note=82 velocity=64 time=1\n",
      "note_off channel=0 note=86 velocity=64 time=0\n",
      "note_on channel=0 note=101 velocity=22 time=0\n",
      "note_on channel=0 note=79 velocity=48 time=1\n",
      "note_off channel=0 note=77 velocity=64 time=1\n",
      "note_off channel=0 note=80 velocity=64 time=0\n",
      "note_off channel=0 note=85 velocity=64 time=0\n",
      "note_on channel=0 note=102 velocity=20 time=0\n",
      "note_off channel=0 note=72 velocity=64 time=2\n",
      "note_off channel=0 note=88 velocity=64 time=0\n",
      "note_on channel=0 note=85 velocity=17 time=2\n",
      "note_on channel=0 note=89 velocity=29 time=0\n",
      "note_on channel=0 note=80 velocity=53 time=2\n",
      "note_off channel=0 note=79 velocity=64 time=1\n",
      "note_off channel=0 note=102 velocity=64 time=0\n",
      "note_off channel=0 note=74 velocity=64 time=1\n",
      "note_on channel=0 note=75 velocity=57 time=0\n",
      "note_off channel=0 note=91 velocity=64 time=0\n",
      "note_off channel=0 note=55 velocity=64 time=1\n",
      "note_on channel=0 note=56 velocity=54 time=0\n",
      "note_off channel=0 note=67 velocity=64 time=0\n",
      "note_on channel=0 note=73 velocity=20 time=1\n",
      "note_on channel=0 note=84 velocity=43 time=0\n",
      "note_on channel=0 note=100 velocity=12 time=1\n",
      "note_off channel=0 note=101 velocity=64 time=0\n",
      "note_on channel=0 note=102 velocity=30 time=0\n",
      "note_off channel=0 note=85 velocity=64 time=1\n",
      "note_on channel=0 note=88 velocity=13 time=0\n",
      "note_off channel=0 note=89 velocity=64 time=0\n",
      "note_on channel=0 note=90 velocity=41 time=0\n",
      "note_off channel=0 note=73 velocity=64 time=1\n",
      "note_on channel=0 note=73 velocity=34 time=1\n",
      "note_on channel=0 note=77 velocity=28 time=0\n",
      "note_on channel=0 note=86 velocity=12 time=2\n",
      "note_off channel=0 note=86 velocity=64 time=3\n",
      "note_on channel=0 note=86 velocity=15 time=2\n",
      "note_on channel=0 note=49 velocity=13 time=1\n",
      "note_off channel=0 note=86 velocity=64 time=2\n",
      "note_off channel=0 note=49 velocity=64 time=1\n",
      "note_on channel=0 note=86 velocity=10 time=1\n",
      "note_on channel=0 note=91 velocity=14 time=1\n",
      "note_off channel=0 note=88 velocity=64 time=1\n",
      "note_off channel=0 note=100 velocity=64 time=1\n",
      "note_off channel=0 note=83 velocity=64 time=2\n",
      "note_off channel=0 note=86 velocity=64 time=0\n",
      "note_on channel=0 note=83 velocity=49 time=5\n",
      "note_off channel=0 note=102 velocity=64 time=23\n",
      "note_on channel=0 note=50 velocity=20 time=2\n",
      "note_off channel=0 note=50 velocity=64 time=3\n",
      "note_off channel=0 note=77 velocity=64 time=1\n",
      "note_off channel=0 note=75 velocity=64 time=1\n",
      "note_on channel=0 note=75 velocity=44 time=2\n",
      "note_off channel=0 note=91 velocity=64 time=1\n",
      "note_on channel=0 note=77 velocity=15 time=1\n",
      "note_off channel=0 note=90 velocity=64 time=7\n",
      "note_off channel=0 note=77 velocity=64 time=3\n",
      "note_on channel=0 note=90 velocity=21 time=0\n",
      "note_off channel=0 note=93 velocity=64 time=0\n",
      "note_on channel=0 note=93 velocity=11 time=7\n",
      "note_on channel=0 note=91 velocity=22 time=4\n",
      "note_on channel=0 note=77 velocity=13 time=1\n",
      "note_off channel=0 note=77 velocity=64 time=14\n",
      "note_off channel=0 note=93 velocity=64 time=2\n",
      "note_on channel=0 note=93 velocity=23 time=7\n",
      "note_off channel=0 note=84 velocity=64 time=5\n",
      "note_on channel=0 note=84 velocity=10 time=7\n",
      "note_off channel=0 note=91 velocity=64 time=1\n",
      "note_off channel=0 note=73 velocity=64 time=6\n",
      "note_off channel=0 note=83 velocity=64 time=0\n",
      "note_off channel=0 note=84 velocity=64 time=0\n",
      "note_off channel=0 note=75 velocity=64 time=5\n",
      "note_on channel=0 note=83 velocity=28 time=0\n",
      "note_on channel=0 note=84 velocity=13 time=0\n",
      "note_off channel=0 note=93 velocity=64 time=0\n",
      "note_on channel=0 note=91 velocity=21 time=4\n",
      "note_on channel=0 note=75 velocity=26 time=4\n",
      "note_off channel=0 note=91 velocity=64 time=8\n",
      "note_on channel=0 note=91 velocity=21 time=5\n",
      "note_off channel=0 note=90 velocity=64 time=1\n",
      "note_off channel=0 note=84 velocity=64 time=1\n",
      "note_on channel=0 note=55 velocity=49 time=1\n",
      "note_off channel=0 note=56 velocity=64 time=0\n",
      "note_off channel=0 note=80 velocity=64 time=2\n",
      "note_on channel=0 note=85 velocity=25 time=2\n",
      "note_off channel=0 note=55 velocity=64 time=2\n",
      "note_on channel=0 note=56 velocity=32 time=0\n",
      "note_on channel=0 note=55 velocity=23 time=4\n",
      "note_off channel=0 note=56 velocity=64 time=0\n",
      "note_on channel=0 note=78 velocity=20 time=2\n",
      "note_on channel=0 note=84 velocity=31 time=0\n",
      "note_off channel=0 note=55 velocity=64 time=1\n",
      "note_on channel=0 note=80 velocity=29 time=1\n",
      "note_on channel=0 note=88 velocity=33 time=1\n",
      "note_on channel=0 note=82 velocity=43 time=2\n",
      "note_off channel=0 note=75 velocity=64 time=1\n",
      "note_off channel=0 note=83 velocity=64 time=0\n",
      "note_on channel=0 note=86 velocity=31 time=0\n",
      "note_off channel=0 note=85 velocity=64 time=1\n",
      "note_off channel=0 note=78 velocity=64 time=2\n",
      "note_on channel=0 note=78 velocity=21 time=1\n",
      "note_on channel=0 note=77 velocity=23 time=3\n",
      "note_off channel=0 note=78 velocity=64 time=1\n",
      "note_off channel=0 note=77 velocity=64 time=2\n",
      "note_on channel=0 note=72 velocity=10 time=1\n",
      "note_on channel=0 note=77 velocity=21 time=0\n",
      "note_off channel=0 note=72 velocity=64 time=4\n",
      "note_on channel=0 note=75 velocity=29 time=0\n",
      "note_on channel=0 note=73 velocity=10 time=1\n",
      "note_off channel=0 note=77 velocity=64 time=2\n",
      "note_off channel=0 note=73 velocity=64 time=1\n",
      "note_on channel=0 note=77 velocity=13 time=0\n",
      "note_off channel=0 note=91 velocity=64 time=3\n",
      "note_off channel=0 note=77 velocity=64 time=1\n",
      "note_on channel=0 note=78 velocity=26 time=1\n",
      "note_on channel=0 note=91 velocity=28 time=1\n",
      "note_on channel=0 note=73 velocity=24 time=1\n",
      "note_on channel=0 note=90 velocity=38 time=4\n",
      "note_off channel=0 note=86 velocity=64 time=5\n",
      "note_off channel=0 note=75 velocity=64 time=6\n",
      "note_on channel=0 note=77 velocity=29 time=1\n",
      "note_on channel=0 note=86 velocity=47 time=0\n",
      "note_off channel=0 note=78 velocity=64 time=1\n",
      "note_on channel=0 note=78 velocity=28 time=1\n",
      "note_off channel=0 note=77 velocity=64 time=1\n",
      "note_on channel=0 note=75 velocity=17 time=4\n",
      "note_off channel=0 note=80 velocity=64 time=4\n",
      "note_off channel=0 note=78 velocity=64 time=1\n",
      "note_on channel=0 note=87 velocity=51 time=0\n",
      "note_on channel=0 note=63 velocity=36 time=1\n",
      "note_on channel=0 note=70 velocity=30 time=0\n",
      "note_off channel=0 note=75 velocity=64 time=0\n",
      "note_on channel=0 note=76 velocity=41 time=0\n",
      "note_on channel=0 note=83 velocity=63 time=0\n",
      "note_off channel=0 note=84 velocity=64 time=0\n",
      "note_on channel=0 note=93 velocity=22 time=0\n",
      "note_on channel=0 note=101 velocity=60 time=0\n",
      "note_on channel=0 note=51 velocity=65 time=1\n",
      "note_off channel=0 note=73 velocity=64 time=0\n",
      "note_on channel=0 note=77 velocity=70 time=0\n",
      "note_on channel=0 note=80 velocity=48 time=0\n",
      "note_on channel=0 note=84 velocity=54 time=0\n",
      "note_on channel=0 note=50 velocity=66 time=1\n",
      "note_off channel=0 note=51 velocity=64 time=0\n",
      "note_off channel=0 note=63 velocity=64 time=0\n",
      "note_off channel=0 note=70 velocity=64 time=0\n",
      "note_on channel=0 note=73 velocity=39 time=0\n",
      "note_off channel=0 note=76 velocity=64 time=0\n",
      "note_on channel=0 note=78 velocity=40 time=0\n",
      "note_off channel=0 note=82 velocity=64 time=0\n",
      "note_on channel=0 note=49 velocity=74 time=1\n",
      "note_off channel=0 note=50 velocity=64 time=0\n",
      "note_on channel=0 note=68 velocity=45 time=0\n",
      "note_off channel=0 note=80 velocity=64 time=0\n",
      "note_on channel=0 note=81 velocity=47 time=0\n",
      "note_off channel=0 note=86 velocity=64 time=0\n",
      "note_off channel=0 note=78 velocity=64 time=1\n",
      "note_on channel=0 note=79 velocity=29 time=0\n",
      "note_on channel=0 note=80 velocity=47 time=0\n",
      "note_off channel=0 note=84 velocity=64 time=0\n",
      "note_on channel=0 note=85 velocity=58 time=0\n",
      "note_off channel=0 note=88 velocity=64 time=0\n",
      "note_on channel=0 note=88 velocity=26 time=1\n",
      "note_off channel=0 note=91 velocity=64 time=0\n",
      "note_off channel=0 note=93 velocity=64 time=0\n",
      "note_off channel=0 note=79 velocity=64 time=1\n",
      "note_off channel=0 note=81 velocity=64 time=0\n",
      "note_on channel=0 note=91 velocity=31 time=0\n",
      "note_on channel=0 note=93 velocity=34 time=0\n",
      "note_on channel=0 note=100 velocity=27 time=0\n",
      "note_off channel=0 note=68 velocity=64 time=1\n",
      "note_on channel=0 note=69 velocity=45 time=0\n",
      "note_off channel=0 note=73 velocity=64 time=0\n",
      "note_on channel=0 note=75 velocity=58 time=0\n",
      "note_off channel=0 note=49 velocity=64 time=1\n",
      "note_on channel=0 note=50 velocity=78 time=0\n",
      "note_on channel=0 note=82 velocity=47 time=0\n",
      "note_off channel=0 note=83 velocity=64 time=0\n",
      "note_on channel=0 note=84 velocity=67 time=0\n",
      "note_off channel=0 note=88 velocity=64 time=0\n",
      "note_on channel=0 note=63 velocity=51 time=1\n",
      "note_off channel=0 note=69 velocity=64 time=0\n",
      "note_on channel=0 note=70 velocity=38 time=0\n",
      "note_on channel=0 note=73 velocity=17 time=0\n",
      "note_on channel=0 note=79 velocity=57 time=0\n",
      "note_off channel=0 note=80 velocity=64 time=0\n",
      "note_on channel=0 note=88 velocity=43 time=0\n",
      "note_off channel=0 note=90 velocity=64 time=0\n",
      "note_off channel=0 note=77 velocity=64 time=1\n",
      "note_off channel=0 note=82 velocity=64 time=0\n",
      "note_on channel=0 note=83 velocity=52 time=0\n",
      "note_off channel=0 note=84 velocity=64 time=0\n",
      "note_on channel=0 note=90 velocity=42 time=0\n",
      "note_off channel=0 note=50 velocity=64 time=1\n",
      "note_off channel=0 note=63 velocity=64 time=0\n",
      "note_on channel=0 note=64 velocity=54 time=0\n",
      "note_off channel=0 note=70 velocity=64 time=0\n",
      "note_on channel=0 note=71 velocity=29 time=0\n",
      "note_off channel=0 note=75 velocity=64 time=0\n",
      "note_on channel=0 note=76 velocity=63 time=0\n",
      "note_on channel=0 note=78 velocity=42 time=0\n",
      "note_off channel=0 note=79 velocity=64 time=0\n",
      "note_on channel=0 note=79 velocity=48 time=1\n",
      "note_on channel=0 note=82 velocity=28 time=0\n",
      "note_off channel=0 note=91 velocity=64 time=0\n",
      "note_on channel=0 note=92 velocity=31 time=0\n",
      "note_on channel=0 note=51 velocity=64 time=1\n",
      "note_off channel=0 note=64 velocity=64 time=0\n",
      "note_on channel=0 note=70 velocity=40 time=0\n",
      "note_off channel=0 note=71 velocity=64 time=0\n",
      "note_on channel=0 note=75 velocity=59 time=0\n",
      "note_off channel=0 note=78 velocity=64 time=0\n",
      "note_on channel=0 note=80 velocity=47 time=0\n",
      "note_on channel=0 note=89 velocity=43 time=0\n",
      "note_off channel=0 note=73 velocity=64 time=1\n",
      "note_off channel=0 note=76 velocity=64 time=0\n",
      "note_on channel=0 note=78 velocity=57 time=0\n",
      "note_off channel=0 note=79 velocity=64 time=0\n",
      "note_off channel=0 note=88 velocity=64 time=0\n",
      "note_off channel=0 note=51 velocity=64 time=1\n",
      "note_on channel=0 note=81 velocity=38 time=0\n",
      "note_off channel=0 note=83 velocity=64 time=0\n",
      "note_on channel=0 note=84 velocity=52 time=0\n",
      "note_on channel=0 note=88 velocity=52 time=0\n",
      "note_off channel=0 note=89 velocity=64 time=0\n",
      "note_off channel=0 note=100 velocity=64 time=0\n",
      "note_on channel=0 note=62 velocity=33 time=1\n",
      "note_on channel=0 note=69 velocity=40 time=0\n",
      "note_off channel=0 note=70 velocity=64 time=0\n",
      "note_off channel=0 note=82 velocity=64 time=0\n",
      "note_off channel=0 note=87 velocity=64 time=0\n",
      "note_on channel=0 note=51 velocity=64 time=1\n",
      "note_off channel=0 note=62 velocity=64 time=1\n",
      "note_off channel=0 note=81 velocity=64 time=0\n",
      "note_on channel=0 note=82 velocity=58 time=0\n",
      "note_on channel=0 note=91 velocity=37 time=0\n",
      "note_off channel=0 note=69 velocity=64 time=1\n",
      "note_off channel=0 note=85 velocity=64 time=0\n",
      "note_on channel=0 note=89 velocity=29 time=0\n",
      "note_off channel=0 note=51 velocity=64 time=1\n",
      "note_on channel=0 note=64 velocity=43 time=0\n",
      "note_off channel=0 note=75 velocity=64 time=0\n",
      "note_on channel=0 note=81 velocity=57 time=0\n",
      "note_off channel=0 note=84 velocity=64 time=0\n",
      "note_off channel=0 note=88 velocity=64 time=0\n",
      "note_on channel=0 note=53 velocity=64 time=1\n",
      "note_on channel=0 note=72 velocity=57 time=0\n",
      "note_on channel=0 note=77 velocity=71 time=0\n",
      "note_off channel=0 note=78 velocity=64 time=0\n",
      "note_on channel=0 note=79 velocity=46 time=0\n",
      "note_off channel=0 note=80 velocity=64 time=0\n",
      "note_on channel=0 note=86 velocity=40 time=0\n"
     ]
    },
    {
     "name": "stdout",
     "output_type": "stream",
     "text": [
      "note_on channel=0 note=87 velocity=39 time=0\n",
      "note_off channel=0 note=89 velocity=64 time=1\n",
      "note_off channel=0 note=64 velocity=64 time=1\n",
      "note_off channel=0 note=72 velocity=64 time=0\n",
      "note_off channel=0 note=79 velocity=64 time=0\n",
      "note_on channel=0 note=80 velocity=52 time=0\n",
      "note_on channel=0 note=85 velocity=50 time=0\n",
      "note_on channel=0 note=88 velocity=60 time=0\n",
      "note_off channel=0 note=53 velocity=64 time=1\n",
      "note_on channel=0 note=55 velocity=61 time=0\n",
      "note_on channel=0 note=67 velocity=61 time=0\n",
      "note_on channel=0 note=74 velocity=59 time=0\n",
      "note_off channel=0 note=81 velocity=64 time=0\n",
      "note_off channel=0 note=87 velocity=64 time=0\n",
      "note_off channel=0 note=90 velocity=64 time=0\n",
      "note_off channel=0 note=92 velocity=64 time=0\n",
      "note_on channel=0 note=78 velocity=46 time=1\n",
      "note_off channel=0 note=67 velocity=64 time=1\n",
      "note_on channel=0 note=68 velocity=65 time=0\n",
      "note_off channel=0 note=74 velocity=64 time=0\n",
      "note_on channel=0 note=75 velocity=69 time=0\n",
      "note_off channel=0 note=77 velocity=64 time=0\n",
      "note_on channel=0 note=79 velocity=49 time=0\n",
      "note_off channel=0 note=80 velocity=64 time=0\n",
      "note_on channel=0 note=84 velocity=58 time=0\n",
      "note_off channel=0 note=86 velocity=64 time=0\n",
      "note_off channel=0 note=88 velocity=64 time=0\n",
      "note_on channel=0 note=92 velocity=40 time=0\n",
      "note_off channel=0 note=55 velocity=64 time=1\n",
      "note_on channel=0 note=56 velocity=59 time=0\n",
      "note_off channel=0 note=78 velocity=64 time=0\n",
      "note_on channel=0 note=80 velocity=72 time=0\n",
      "note_on channel=0 note=88 velocity=38 time=0\n",
      "note_on channel=0 note=90 velocity=65 time=0\n",
      "note_off channel=0 note=85 velocity=64 time=1\n",
      "note_on channel=0 note=86 velocity=47 time=0\n",
      "note_off channel=0 note=88 velocity=64 time=2\n",
      "note_off channel=0 note=56 velocity=64 time=1\n",
      "note_on channel=0 note=57 velocity=60 time=0\n",
      "note_off channel=0 note=68 velocity=64 time=0\n",
      "note_on channel=0 note=72 velocity=11 time=0\n",
      "note_on channel=0 note=78 velocity=27 time=0\n",
      "note_off channel=0 note=91 velocity=64 time=0\n",
      "note_on channel=0 note=95 velocity=31 time=0\n",
      "note_off channel=0 note=79 velocity=64 time=1\n",
      "note_on channel=0 note=100 velocity=34 time=0\n",
      "note_on channel=0 note=68 velocity=54 time=1\n",
      "note_on channel=0 note=91 velocity=32 time=0\n",
      "note_off channel=0 note=95 velocity=64 time=0\n",
      "note_on channel=0 note=56 velocity=64 time=1\n",
      "note_off channel=0 note=57 velocity=64 time=0\n",
      "note_on channel=0 note=88 velocity=28 time=0\n",
      "note_off channel=0 note=72 velocity=64 time=1\n",
      "note_off channel=0 note=100 velocity=64 time=0\n",
      "note_off channel=0 note=88 velocity=64 time=2\n",
      "note_on channel=0 note=89 velocity=29 time=0\n",
      "note_off channel=0 note=93 velocity=64 time=0\n",
      "note_on channel=0 note=55 velocity=67 time=1\n",
      "note_off channel=0 note=56 velocity=64 time=0\n",
      "note_off channel=0 note=78 velocity=64 time=0\n",
      "note_on channel=0 note=79 velocity=39 time=0\n",
      "note_off channel=0 note=80 velocity=64 time=0\n",
      "note_off channel=0 note=84 velocity=64 time=0\n",
      "note_on channel=0 note=93 velocity=24 time=0\n",
      "note_off channel=0 note=68 velocity=64 time=1\n",
      "note_on channel=0 note=66 velocity=34 time=1\n",
      "note_on channel=0 note=73 velocity=37 time=0\n",
      "note_on channel=0 note=83 velocity=32 time=0\n",
      "note_on channel=0 note=84 velocity=35 time=0\n",
      "note_off channel=0 note=86 velocity=64 time=0\n",
      "note_on channel=0 note=88 velocity=25 time=0\n",
      "note_off channel=0 note=89 velocity=64 time=0\n",
      "note_off channel=0 note=55 velocity=64 time=1\n",
      "note_on channel=0 note=77 velocity=37 time=0\n",
      "note_on channel=0 note=80 velocity=35 time=0\n",
      "note_on channel=0 note=81 velocity=37 time=0\n",
      "note_off channel=0 note=82 velocity=64 time=0\n",
      "note_off channel=0 note=101 velocity=64 time=0\n",
      "note_on channel=0 note=53 velocity=64 time=1\n",
      "note_off channel=0 note=73 velocity=64 time=0\n",
      "note_on channel=0 note=82 velocity=52 time=0\n",
      "note_off channel=0 note=83 velocity=64 time=0\n",
      "note_on channel=0 note=86 velocity=25 time=0\n",
      "note_off channel=0 note=66 velocity=64 time=1\n",
      "note_off channel=0 note=81 velocity=64 time=0\n",
      "note_off channel=0 note=93 velocity=64 time=0\n",
      "note_on channel=0 note=101 velocity=33 time=0\n",
      "note_off channel=0 note=53 velocity=64 time=1\n",
      "note_on channel=0 note=54 velocity=65 time=0\n",
      "note_on channel=0 note=67 velocity=45 time=0\n",
      "note_on channel=0 note=74 velocity=39 time=1\n",
      "note_off channel=0 note=75 velocity=64 time=0\n",
      "note_off channel=0 note=79 velocity=64 time=0\n",
      "note_off channel=0 note=54 velocity=64 time=1\n",
      "note_on channel=0 note=55 velocity=63 time=0\n",
      "note_off channel=0 note=77 velocity=64 time=0\n",
      "note_on channel=0 note=79 velocity=48 time=0\n",
      "note_on channel=0 note=83 velocity=57 time=0\n",
      "note_off channel=0 note=84 velocity=64 time=0\n",
      "note_on channel=0 note=87 velocity=57 time=0\n",
      "note_off channel=0 note=88 velocity=64 time=1\n",
      "note_on channel=0 note=89 velocity=30 time=0\n",
      "note_on channel=0 note=100 velocity=23 time=0\n",
      "note_off channel=0 note=67 velocity=64 time=1\n",
      "note_on channel=0 note=68 velocity=56 time=0\n",
      "note_off channel=0 note=74 velocity=64 time=0\n",
      "note_on channel=0 note=75 velocity=74 time=0\n",
      "note_off channel=0 note=80 velocity=64 time=0\n",
      "note_off channel=0 note=90 velocity=64 time=0\n",
      "note_on channel=0 note=80 velocity=66 time=1\n",
      "note_off channel=0 note=83 velocity=64 time=0\n",
      "note_on channel=0 note=84 velocity=64 time=0\n",
      "note_on channel=0 note=88 velocity=50 time=0\n",
      "note_off channel=0 note=89 velocity=64 time=0\n",
      "note_on channel=0 note=90 velocity=45 time=0\n",
      "note_off channel=0 note=55 velocity=64 time=1\n",
      "note_on channel=0 note=56 velocity=58 time=0\n",
      "note_off channel=0 note=91 velocity=64 time=0\n",
      "note_on channel=0 note=95 velocity=38 time=0\n",
      "note_off channel=0 note=79 velocity=64 time=1\n",
      "note_off channel=0 note=100 velocity=64 time=0\n",
      "note_on channel=0 note=93 velocity=23 time=2\n",
      "note_off channel=0 note=101 velocity=64 time=0\n",
      "note_on channel=0 note=91 velocity=22 time=1\n",
      "note_off channel=0 note=86 velocity=64 time=2\n",
      "note_on channel=0 note=73 velocity=10 time=2\n",
      "note_on channel=0 note=101 velocity=46 time=0\n",
      "note_off channel=0 note=56 velocity=64 time=1\n",
      "note_off channel=0 note=92 velocity=64 time=0\n",
      "note_on channel=0 note=56 velocity=60 time=1\n",
      "note_on channel=0 note=86 velocity=15 time=0\n",
      "note_on channel=0 note=77 velocity=22 time=2\n",
      "note_off channel=0 note=73 velocity=64 time=2\n",
      "note_off channel=0 note=86 velocity=64 time=0\n",
      "note_off channel=0 note=87 velocity=64 time=0\n",
      "note_off channel=0 note=91 velocity=64 time=0\n",
      "note_off channel=0 note=77 velocity=64 time=1\n",
      "note_off channel=0 note=68 velocity=64 time=1\n",
      "note_on channel=0 note=69 velocity=56 time=0\n",
      "note_off channel=0 note=80 velocity=64 time=2\n",
      "note_on channel=0 note=91 velocity=24 time=0\n",
      "note_off channel=0 note=56 velocity=64 time=1\n",
      "note_on channel=0 note=57 velocity=60 time=0\n",
      "note_off channel=0 note=75 velocity=64 time=1\n",
      "note_on channel=0 note=76 velocity=30 time=0\n",
      "note_off channel=0 note=91 velocity=64 time=1\n",
      "note_on channel=0 note=75 velocity=36 time=1\n",
      "note_off channel=0 note=76 velocity=64 time=1\n",
      "note_on channel=0 note=76 velocity=60 time=2\n",
      "note_off channel=0 note=75 velocity=64 time=1\n",
      "note_on channel=0 note=91 velocity=13 time=1\n",
      "note_on channel=0 note=80 velocity=33 time=1\n",
      "note_off channel=0 note=80 velocity=64 time=3\n",
      "note_on channel=0 note=81 velocity=62 time=0\n",
      "note_off channel=0 note=91 velocity=64 time=2\n",
      "note_off channel=0 note=84 velocity=64 time=4\n",
      "note_on channel=0 note=85 velocity=60 time=0\n",
      "note_off channel=0 note=76 velocity=64 time=2\n",
      "note_on channel=0 note=76 velocity=41 time=1\n",
      "note_off channel=0 note=93 velocity=64 time=8\n",
      "note_on channel=0 note=75 velocity=33 time=3\n",
      "note_off channel=0 note=76 velocity=64 time=0\n",
      "note_off channel=0 note=75 velocity=64 time=2\n",
      "note_on channel=0 note=76 velocity=70 time=0\n",
      "note_on channel=0 note=78 velocity=10 time=1\n",
      "note_on channel=0 note=83 velocity=30 time=0\n",
      "note_off channel=0 note=82 velocity=64 time=1\n",
      "note_off channel=0 note=78 velocity=64 time=2\n",
      "note_on channel=0 note=82 velocity=33 time=0\n",
      "note_off channel=0 note=83 velocity=64 time=1\n",
      "note_on channel=0 note=83 velocity=28 time=3\n",
      "note_off channel=0 note=82 velocity=64 time=2\n",
      "note_on channel=0 note=82 velocity=27 time=2\n",
      "note_off channel=0 note=83 velocity=64 time=0\n",
      "note_off channel=0 note=95 velocity=64 time=1\n",
      "note_off channel=0 note=82 velocity=64 time=3\n",
      "note_on channel=0 note=82 velocity=19 time=1\n",
      "note_on channel=0 note=73 velocity=20 time=1\n",
      "note_on channel=0 note=87 velocity=26 time=4\n",
      "note_off channel=0 note=82 velocity=64 time=1\n",
      "note_on channel=0 note=83 velocity=27 time=0\n",
      "note_off channel=0 note=87 velocity=64 time=3\n",
      "note_on channel=0 note=87 velocity=26 time=1\n",
      "note_off channel=0 note=87 velocity=64 time=4\n",
      "note_on channel=0 note=91 velocity=10 time=9\n",
      "note_off channel=0 note=91 velocity=64 time=14\n",
      "note_off channel=0 note=73 velocity=64 time=9\n",
      "note_on channel=0 note=84 velocity=41 time=2\n",
      "note_off channel=0 note=85 velocity=64 time=0\n",
      "note_on channel=0 note=56 velocity=55 time=1\n",
      "note_off channel=0 note=57 velocity=64 time=0\n",
      "note_off channel=0 note=69 velocity=64 time=0\n",
      "note_on channel=0 note=87 velocity=33 time=0\n",
      "note_on channel=0 note=80 velocity=53 time=1\n",
      "note_off channel=0 note=81 velocity=64 time=0\n",
      "note_off channel=0 note=88 velocity=64 time=0\n",
      "note_on channel=0 note=82 velocity=15 time=1\n",
      "note_off channel=0 note=83 velocity=64 time=0\n",
      "note_off channel=0 note=56 velocity=64 time=1\n",
      "note_on channel=0 note=57 velocity=55 time=0\n",
      "note_off channel=0 note=80 velocity=64 time=1\n",
      "note_on channel=0 note=81 velocity=59 time=0\n",
      "note_off channel=0 note=84 velocity=64 time=1\n",
      "note_on channel=0 note=85 velocity=34 time=0\n",
      "note_on channel=0 note=103 velocity=22 time=0\n",
      "note_off channel=0 note=82 velocity=64 time=1\n",
      "note_off channel=0 note=90 velocity=64 time=0\n",
      "note_on channel=0 note=91 velocity=21 time=0\n",
      "note_on channel=0 note=90 velocity=40 time=3\n",
      "note_off channel=0 note=103 velocity=64 time=0\n",
      "note_on channel=0 note=84 velocity=38 time=1\n",
      "note_off channel=0 note=85 velocity=64 time=0\n",
      "note_off channel=0 note=87 velocity=64 time=0\n",
      "note_on channel=0 note=56 velocity=53 time=1\n",
      "note_off channel=0 note=57 velocity=64 time=0\n",
      "note_on channel=0 note=87 velocity=27 time=0\n",
      "note_on channel=0 note=75 velocity=60 time=2\n",
      "note_off channel=0 note=76 velocity=64 time=0\n",
      "note_on channel=0 note=100 velocity=16 time=0\n",
      "note_off channel=0 note=101 velocity=64 time=0\n",
      "note_off channel=0 note=81 velocity=64 time=1\n",
      "note_on channel=0 note=83 velocity=17 time=1\n",
      "note_off channel=0 note=100 velocity=64 time=3\n",
      "note_off channel=0 note=87 velocity=64 time=7\n",
      "note_off channel=0 note=91 velocity=64 time=4\n",
      "note_on channel=0 note=55 velocity=38 time=1\n",
      "note_off channel=0 note=56 velocity=64 time=0\n",
      "note_off channel=0 note=84 velocity=64 time=2\n",
      "note_off channel=0 note=90 velocity=64 time=0\n",
      "note_off channel=0 note=55 velocity=64 time=2\n",
      "note_on channel=0 note=56 velocity=31 time=0\n",
      "note_off channel=0 note=75 velocity=64 time=1\n",
      "note_on channel=0 note=91 velocity=41 time=1\n",
      "note_off channel=0 note=83 velocity=64 time=1\n",
      "note_on channel=0 note=75 velocity=20 time=1\n",
      "note_off channel=0 note=56 velocity=64 time=1\n",
      "note_on channel=0 note=85 velocity=17 time=1\n",
      "note_on channel=0 note=78 velocity=24 time=2\n",
      "note_on channel=0 note=82 velocity=32 time=0\n",
      "note_on channel=0 note=88 velocity=22 time=0\n",
      "note_on channel=0 note=49 velocity=18 time=1\n",
      "note_on channel=0 note=87 velocity=26 time=0\n",
      "note_off channel=0 note=49 velocity=64 time=3\n",
      "note_on channel=0 note=84 velocity=21 time=0\n",
      "note_off channel=0 note=85 velocity=64 time=4\n",
      "note_on channel=0 note=86 velocity=68 time=2\n",
      "note_off channel=0 note=78 velocity=64 time=8\n",
      "note_on channel=0 note=78 velocity=22 time=1\n",
      "note_on channel=0 note=74 velocity=69 time=3\n",
      "note_on channel=0 note=83 velocity=83 time=0\n",
      "note_on channel=0 note=55 velocity=70 time=1\n",
      "note_on channel=0 note=67 velocity=70 time=0\n",
      "note_off channel=0 note=75 velocity=64 time=0\n",
      "note_off channel=0 note=78 velocity=64 time=0\n",
      "note_off channel=0 note=82 velocity=64 time=0\n",
      "note_off channel=0 note=84 velocity=64 time=0\n",
      "note_off channel=0 note=88 velocity=64 time=0\n",
      "note_on channel=0 note=89 velocity=71 time=0\n",
      "note_on channel=0 note=93 velocity=44 time=1\n",
      "note_on channel=0 note=102 velocity=55 time=0\n",
      "note_on channel=0 note=103 velocity=43 time=0\n",
      "note_on channel=0 note=99 velocity=34 time=1\n",
      "note_on channel=0 note=101 velocity=74 time=0\n",
      "note_on channel=0 note=79 velocity=73 time=1\n",
      "note_on channel=0 note=97 velocity=27 time=1\n",
      "note_on channel=0 note=82 velocity=30 time=2\n",
      "note_off channel=0 note=99 velocity=64 time=0\n",
      "note_on channel=0 note=100 velocity=54 time=0\n",
      "note_off channel=0 note=103 velocity=64 time=1\n",
      "note_off channel=0 note=82 velocity=64 time=1\n",
      "note_on channel=0 note=82 velocity=43 time=1\n",
      "note_on channel=0 note=77 velocity=19 time=1\n",
      "note_off channel=0 note=87 velocity=64 time=1\n",
      "note_off channel=0 note=77 velocity=64 time=2\n",
      "note_on channel=0 note=78 velocity=18 time=0\n",
      "note_off channel=0 note=79 velocity=64 time=0\n",
      "note_on channel=0 note=80 velocity=53 time=0\n",
      "note_on channel=0 note=87 velocity=27 time=1\n",
      "note_off channel=0 note=80 velocity=64 time=1\n",
      "note_off channel=0 note=67 velocity=64 time=2\n",
      "note_on channel=0 note=68 velocity=65 time=0\n",
      "note_off channel=0 note=93 velocity=64 time=0\n",
      "note_on channel=0 note=94 velocity=44 time=0\n",
      "note_off channel=0 note=55 velocity=64 time=1\n",
      "note_on channel=0 note=56 velocity=66 time=0\n",
      "note_off channel=0 note=74 velocity=64 time=0\n",
      "note_on channel=0 note=75 velocity=83 time=0\n",
      "note_off channel=0 note=87 velocity=64 time=0\n",
      "note_on channel=0 note=88 velocity=33 time=0\n",
      "note_on channel=0 note=80 velocity=69 time=1\n",
      "note_off channel=0 note=86 velocity=64 time=0\n",
      "note_off channel=0 note=78 velocity=64 time=1\n",
      "note_off channel=0 note=83 velocity=64 time=0\n",
      "note_on channel=0 note=84 velocity=65 time=0\n",
      "note_on channel=0 note=78 velocity=32 time=1\n",
      "note_off channel=0 note=102 velocity=64 time=0\n",
      "note_off channel=0 note=91 velocity=64 time=8\n",
      "note_off channel=0 note=89 velocity=64 time=1\n",
      "note_on channel=0 note=90 velocity=70 time=0\n",
      "note_off channel=0 note=101 velocity=64 time=1\n",
      "note_on channel=0 note=86 velocity=27 time=1\n",
      "note_on channel=0 note=91 velocity=14 time=3\n",
      "note_off channel=0 note=86 velocity=64 time=1\n",
      "note_on channel=0 note=86 velocity=33 time=1\n",
      "note_off channel=0 note=97 velocity=64 time=0\n",
      "note_on channel=0 note=93 velocity=30 time=2\n",
      "note_on channel=0 note=95 velocity=18 time=1\n",
      "note_off channel=0 note=78 velocity=64 time=5\n",
      "note_on channel=0 note=73 velocity=9 time=1\n",
      "note_on channel=0 note=77 velocity=19 time=1\n",
      "note_off channel=0 note=86 velocity=64 time=0\n",
      "note_on channel=0 note=98 velocity=12 time=0\n",
      "note_off channel=0 note=73 velocity=64 time=3\n",
      "note_on channel=0 note=97 velocity=9 time=0\n",
      "note_off channel=0 note=98 velocity=64 time=0\n",
      "note_on channel=0 note=85 velocity=22 time=2\n",
      "note_off channel=0 note=77 velocity=64 time=2\n",
      "note_on channel=0 note=78 velocity=22 time=0\n",
      "note_off channel=0 note=97 velocity=64 time=1\n",
      "note_off channel=0 note=91 velocity=64 time=2\n",
      "note_off channel=0 note=78 velocity=64 time=1\n",
      "note_off channel=0 note=85 velocity=64 time=0\n",
      "note_on channel=0 note=78 velocity=23 time=1\n",
      "note_on channel=0 note=49 velocity=17 time=1\n",
      "note_on channel=0 note=86 velocity=36 time=0\n",
      "note_on channel=0 note=77 velocity=29 time=2\n",
      "note_off channel=0 note=78 velocity=64 time=1\n",
      "note_off channel=0 note=49 velocity=64 time=1\n",
      "note_on channel=0 note=78 velocity=26 time=0\n",
      "note_off channel=0 note=94 velocity=64 time=0\n",
      "note_off channel=0 note=77 velocity=64 time=1\n",
      "note_on channel=0 note=77 velocity=29 time=2\n",
      "note_off channel=0 note=78 velocity=64 time=1\n",
      "note_on channel=0 note=78 velocity=22 time=4\n",
      "note_on channel=0 note=89 velocity=59 time=0\n",
      "note_off channel=0 note=77 velocity=64 time=1\n",
      "note_off channel=0 note=90 velocity=64 time=0\n",
      "note_on channel=0 note=91 velocity=27 time=0\n",
      "note_off channel=0 note=78 velocity=64 time=3\n",
      "note_on channel=0 note=78 velocity=16 time=1\n",
      "note_off channel=0 note=89 velocity=64 time=1\n",
      "note_on channel=0 note=90 velocity=57 time=0\n",
      "note_off channel=0 note=100 velocity=64 time=1\n",
      "note_off channel=0 note=78 velocity=64 time=2\n",
      "note_off channel=0 note=56 velocity=64 time=1\n",
      "note_on channel=0 note=57 velocity=34 time=0\n",
      "note_on channel=0 note=78 velocity=13 time=0\n",
      "note_on channel=0 note=56 velocity=36 time=2\n",
      "note_off channel=0 note=57 velocity=64 time=0\n",
      "note_off channel=0 note=86 velocity=64 time=1\n",
      "note_on channel=0 note=101 velocity=35 time=0\n",
      "note_on channel=0 note=55 velocity=60 time=1\n",
      "note_off channel=0 note=56 velocity=64 time=0\n",
      "note_on channel=0 note=77 velocity=15 time=0\n",
      "note_off channel=0 note=78 velocity=64 time=0\n",
      "note_on channel=0 note=89 velocity=61 time=0\n",
      "note_off channel=0 note=93 velocity=64 time=0\n",
      "note_on channel=0 note=79 velocity=63 time=1\n",
      "note_off channel=0 note=82 velocity=64 time=0\n",
      "note_on channel=0 note=83 velocity=50 time=0\n",
      "note_off channel=0 note=84 velocity=64 time=0\n",
      "note_on channel=0 note=86 velocity=50 time=0\n",
      "note_off channel=0 note=88 velocity=64 time=0\n",
      "note_off channel=0 note=95 velocity=64 time=0\n",
      "note_off channel=0 note=68 velocity=64 time=1\n",
      "note_off channel=0 note=80 velocity=64 time=0\n",
      "note_off channel=0 note=75 velocity=64 time=1\n",
      "note_on channel=0 note=93 velocity=39 time=0\n",
      "note_on channel=0 note=74 velocity=64 time=1\n",
      "note_on channel=0 note=87 velocity=48 time=0\n",
      "note_off channel=0 note=91 velocity=64 time=1\n",
      "note_on channel=0 note=100 velocity=10 time=2\n",
      "note_off channel=0 note=90 velocity=64 time=1\n",
      "note_off channel=0 note=55 velocity=64 time=1\n",
      "note_on channel=0 note=56 velocity=54 time=0\n",
      "note_off channel=0 note=74 velocity=64 time=0\n",
      "note_on channel=0 note=75 velocity=65 time=0\n",
      "note_off channel=0 note=79 velocity=64 time=0\n",
      "note_on channel=0 note=80 velocity=65 time=0\n",
      "note_on channel=0 note=82 velocity=31 time=0\n",
      "note_on channel=0 note=88 velocity=76 time=0\n",
      "note_on channel=0 note=68 velocity=58 time=1\n",
      "note_off channel=0 note=83 velocity=64 time=0\n",
      "note_on channel=0 note=84 velocity=53 time=0\n",
      "note_off channel=0 note=89 velocity=64 time=0\n",
      "note_on channel=0 note=90 velocity=36 time=0\n",
      "note_off channel=0 note=101 velocity=64 time=0\n",
      "note_off channel=0 note=77 velocity=64 time=1\n",
      "note_on channel=0 note=91 velocity=51 time=0\n",
      "note_off channel=0 note=100 velocity=64 time=0\n",
      "note_off channel=0 note=68 velocity=64 time=1\n",
      "note_on channel=0 note=69 velocity=60 time=0\n",
      "note_on channel=0 note=79 velocity=31 time=0\n",
      "note_on channel=0 note=89 velocity=43 time=0\n",
      "note_off channel=0 note=56 velocity=64 time=1\n",
      "note_on channel=0 note=57 velocity=56 time=0\n",
      "note_off channel=0 note=75 velocity=64 time=0\n",
      "note_on channel=0 note=76 velocity=91 time=0\n",
      "note_off channel=0 note=80 velocity=64 time=0\n",
      "note_on channel=0 note=81 velocity=66 time=0\n",
      "note_off channel=0 note=84 velocity=64 time=0\n",
      "note_on channel=0 note=85 velocity=60 time=0\n",
      "note_off channel=0 note=90 velocity=64 time=0\n",
      "note_off channel=0 note=79 velocity=64 time=1\n",
      "note_off channel=0 note=82 velocity=64 time=0\n",
      "note_off channel=0 note=86 velocity=64 time=0\n",
      "note_on channel=0 note=90 velocity=48 time=0\n",
      "note_off channel=0 note=89 velocity=64 time=1\n",
      "note_on channel=0 note=73 velocity=9 time=1\n",
      "note_on channel=0 note=80 velocity=34 time=0\n",
      "note_off channel=0 note=57 velocity=64 time=2\n",
      "note_off channel=0 note=80 velocity=64 time=0\n",
      "note_off channel=0 note=85 velocity=64 time=1\n",
      "note_off channel=0 note=87 velocity=64 time=0\n",
      "note_on channel=0 note=56 velocity=53 time=1\n",
      "note_on channel=0 note=85 velocity=60 time=0\n",
      "note_on channel=0 note=68 velocity=54 time=1\n",
      "note_off channel=0 note=69 velocity=64 time=0\n",
      "note_on channel=0 note=80 velocity=63 time=0\n",
      "note_off channel=0 note=81 velocity=64 time=0\n",
      "note_on channel=0 note=82 velocity=42 time=0\n",
      "note_on channel=0 note=84 velocity=54 time=0\n",
      "note_on channel=0 note=87 velocity=39 time=0\n",
      "note_off channel=0 note=73 velocity=64 time=1\n",
      "note_on channel=0 note=75 velocity=77 time=1\n",
      "note_off channel=0 note=76 velocity=64 time=0\n",
      "note_off channel=0 note=85 velocity=64 time=1\n",
      "note_on channel=0 note=78 velocity=20 time=2\n",
      "note_on channel=0 note=76 velocity=84 time=1\n",
      "note_off channel=0 note=56 velocity=64 time=1\n",
      "note_on channel=0 note=57 velocity=54 time=0\n",
      "note_off channel=0 note=68 velocity=64 time=0\n",
      "note_on channel=0 note=69 velocity=55 time=0\n",
      "note_on channel=0 note=101 velocity=11 time=0\n",
      "note_off channel=0 note=75 velocity=64 time=1\n",
      "note_off channel=0 note=78 velocity=64 time=0\n",
      "note_off channel=0 note=82 velocity=64 time=0\n",
      "note_off channel=0 note=84 velocity=64 time=0\n",
      "note_on channel=0 note=85 velocity=51 time=0\n",
      "note_on channel=0 note=82 velocity=58 time=1\n",
      "note_off channel=0 note=88 velocity=64 time=0\n",
      "note_on channel=0 note=89 velocity=64 time=0\n",
      "note_off channel=0 note=57 velocity=64 time=1\n",
      "note_off channel=0 note=69 velocity=64 time=0\n",
      "note_on channel=0 note=70 velocity=51 time=0\n",
      "note_off channel=0 note=76 velocity=64 time=0\n",
      "note_on channel=0 note=77 velocity=86 time=0\n",
      "note_off channel=0 note=85 velocity=64 time=0\n",
      "note_on channel=0 note=86 velocity=47 time=0\n",
      "note_off channel=0 note=87 velocity=64 time=0\n",
      "note_on channel=0 note=88 velocity=41 time=0\n",
      "note_off channel=0 note=90 velocity=64 time=0\n",
      "note_on channel=0 note=59 velocity=52 time=1\n",
      "note_off channel=0 note=70 velocity=64 time=1\n",
      "note_on channel=0 note=75 velocity=37 time=0\n",
      "note_on channel=0 note=87 velocity=43 time=0\n",
      "note_on channel=0 note=90 velocity=66 time=0\n",
      "note_off channel=0 note=101 velocity=64 time=0\n",
      "note_on channel=0 note=83 velocity=47 time=1\n",
      "note_off channel=0 note=89 velocity=64 time=0\n",
      "note_off channel=0 note=77 velocity=64 time=2\n",
      "note_on channel=0 note=78 velocity=67 time=0\n",
      "note_off channel=0 note=82 velocity=64 time=0\n",
      "note_on channel=0 note=85 velocity=48 time=0\n",
      "note_off channel=0 note=86 velocity=64 time=0\n",
      "note_on channel=0 note=77 velocity=83 time=1\n",
      "note_off channel=0 note=78 velocity=64 time=0\n",
      "note_on channel=0 note=58 velocity=50 time=1\n",
      "note_off channel=0 note=59 velocity=64 time=0\n",
      "note_on channel=0 note=82 velocity=51 time=0\n",
      "note_on channel=0 note=101 velocity=28 time=0\n",
      "note_on channel=0 note=70 velocity=53 time=1\n",
      "note_off channel=0 note=75 velocity=64 time=0\n",
      "note_off channel=0 note=83 velocity=64 time=0\n",
      "note_off channel=0 note=88 velocity=64 time=0\n",
      "note_off channel=0 note=90 velocity=64 time=0\n",
      "note_on channel=0 note=57 velocity=53 time=1\n",
      "note_off channel=0 note=58 velocity=64 time=0\n",
      "note_on channel=0 note=81 velocity=59 time=0\n",
      "note_off channel=0 note=85 velocity=64 time=0\n",
      "note_on channel=0 note=86 velocity=52 time=0\n",
      "note_on channel=0 note=90 velocity=48 time=0\n",
      "note_off channel=0 note=70 velocity=64 time=1\n",
      "note_on channel=0 note=76 velocity=72 time=0\n",
      "note_off channel=0 note=77 velocity=64 time=0\n",
      "note_on channel=0 note=78 velocity=62 time=0\n",
      "note_off channel=0 note=80 velocity=64 time=0\n",
      "note_off channel=0 note=82 velocity=64 time=0\n",
      "note_on channel=0 note=85 velocity=58 time=0\n",
      "note_on channel=0 note=56 velocity=54 time=1\n",
      "note_off channel=0 note=57 velocity=64 time=0\n",
      "note_on channel=0 note=75 velocity=63 time=0\n",
      "note_on channel=0 note=80 velocity=63 time=0\n",
      "note_off channel=0 note=81 velocity=64 time=0\n",
      "note_on channel=0 note=82 velocity=38 time=0\n",
      "note_on channel=0 note=89 velocity=57 time=0\n",
      "note_off channel=0 note=76 velocity=64 time=1\n",
      "note_off channel=0 note=78 velocity=64 time=0\n",
      "note_on channel=0 note=83 velocity=54 time=0\n",
      "note_off channel=0 note=90 velocity=64 time=0\n",
      "note_on channel=0 note=55 velocity=54 time=1\n",
      "note_off channel=0 note=56 velocity=64 time=0\n",
      "note_on channel=0 note=77 velocity=34 time=0\n",
      "note_on channel=0 note=79 velocity=56 time=0\n",
      "note_off channel=0 note=80 velocity=64 time=0\n",
      "note_off channel=0 note=86 velocity=64 time=0\n",
      "note_on channel=0 note=90 velocity=46 time=0\n",
      "note_on channel=0 note=68 velocity=56 time=1\n",
      "note_off channel=0 note=75 velocity=64 time=0\n",
      "note_on channel=0 note=80 velocity=70 time=1\n",
      "note_on channel=0 note=84 velocity=43 time=0\n",
      "note_off channel=0 note=101 velocity=64 time=0\n",
      "note_off channel=0 note=55 velocity=64 time=1\n",
      "note_on channel=0 note=76 velocity=88 time=0\n",
      "note_off channel=0 note=79 velocity=64 time=0\n",
      "note_off channel=0 note=83 velocity=64 time=0\n",
      "note_on channel=0 note=57 velocity=56 time=1\n",
      "note_off channel=0 note=68 velocity=64 time=0\n",
      "note_on channel=0 note=69 velocity=56 time=0\n",
      "note_off channel=0 note=77 velocity=64 time=0\n",
      "note_off channel=0 note=80 velocity=64 time=0\n",
      "note_on channel=0 note=81 velocity=72 time=0\n",
      "note_off channel=0 note=82 velocity=64 time=0\n",
      "note_off channel=0 note=89 velocity=64 time=0\n",
      "note_off channel=0 note=84 velocity=64 time=1\n",
      "note_off channel=0 note=87 velocity=64 time=2\n",
      "note_on channel=0 note=101 velocity=26 time=1\n",
      "note_on channel=0 note=82 velocity=33 time=1\n",
      "note_on channel=0 note=56 velocity=50 time=1\n",
      "note_off channel=0 note=57 velocity=64 time=0\n",
      "note_off channel=0 note=69 velocity=64 time=0\n",
      "note_on channel=0 note=80 velocity=62 time=0\n",
      "note_off channel=0 note=81 velocity=64 time=0\n",
      "note_on channel=0 note=84 velocity=46 time=0\n",
      "note_on channel=0 note=87 velocity=37 time=0\n",
      "note_on channel=0 note=89 velocity=62 time=1\n",
      "note_off channel=0 note=90 velocity=64 time=0\n",
      "note_on channel=0 note=67 velocity=54 time=1\n",
      "note_on channel=0 note=79 velocity=60 time=0\n",
      "note_on channel=0 note=83 velocity=56 time=0\n",
      "note_off channel=0 note=84 velocity=64 time=0\n",
      "note_off channel=0 note=85 velocity=64 time=0\n",
      "note_on channel=0 note=86 velocity=36 time=0\n",
      "note_on channel=0 note=55 velocity=57 time=1\n",
      "note_off channel=0 note=56 velocity=64 time=0\n",
      "note_on channel=0 note=74 velocity=60 time=0\n",
      "note_off channel=0 note=80 velocity=64 time=0\n",
      "note_on channel=0 note=85 velocity=11 time=0\n",
      "note_off channel=0 note=76 velocity=64 time=1\n",
      "note_on channel=0 note=77 velocity=16 time=0\n",
      "note_off channel=0 note=87 velocity=64 time=0\n",
      "note_off channel=0 note=93 velocity=64 time=0\n",
      "note_off channel=0 note=82 velocity=64 time=1\n",
      "note_on channel=0 note=87 velocity=39 time=0\n",
      "note_off channel=0 note=55 velocity=64 time=1\n",
      "note_on channel=0 note=56 velocity=56 time=0\n",
      "note_off channel=0 note=67 velocity=64 time=0\n",
      "note_off channel=0 note=74 velocity=64 time=0\n",
      "note_on channel=0 note=75 velocity=56 time=0\n",
      "note_off channel=0 note=79 velocity=64 time=0\n",
      "note_on channel=0 note=80 velocity=59 time=0\n",
      "note_on channel=0 note=82 velocity=30 time=0\n",
      "note_off channel=0 note=83 velocity=64 time=0\n",
      "note_on channel=0 note=84 velocity=48 time=0\n",
      "note_off channel=0 note=77 velocity=64 time=1\n",
      "note_on channel=0 note=83 velocity=52 time=0\n",
      "note_off channel=0 note=85 velocity=64 time=0\n",
      "note_on channel=0 note=90 velocity=43 time=0\n",
      "note_on channel=0 note=93 velocity=21 time=0\n",
      "note_off channel=0 note=56 velocity=64 time=1\n",
      "note_on channel=0 note=69 velocity=42 time=0\n",
      "note_off channel=0 note=75 velocity=64 time=0\n",
      "note_off channel=0 note=80 velocity=64 time=0\n",
      "note_off channel=0 note=82 velocity=64 time=0\n",
      "note_on channel=0 note=85 velocity=38 time=0\n",
      "note_on channel=0 note=58 velocity=48 time=1\n",
      "note_on channel=0 note=77 velocity=71 time=0\n",
      "note_on channel=0 note=79 velocity=30 time=0\n",
      "note_on channel=0 note=88 velocity=37 time=0\n",
      "note_off channel=0 note=69 velocity=64 time=1\n",
      "note_on channel=0 note=71 velocity=34 time=0\n",
      "note_on channel=0 note=81 velocity=29 time=0\n",
      "note_off channel=0 note=90 velocity=64 time=0\n",
      "note_off channel=0 note=58 velocity=64 time=1\n",
      "note_on channel=0 note=59 velocity=46 time=0\n",
      "note_on channel=0 note=68 velocity=17 time=0\n",
      "note_off channel=0 note=79 velocity=64 time=0\n",
      "note_off channel=0 note=84 velocity=64 time=0\n",
      "note_on channel=0 note=90 velocity=49 time=0\n",
      "note_off channel=0 note=91 velocity=64 time=0\n",
      "note_off channel=0 note=71 velocity=64 time=1\n",
      "note_on channel=0 note=72 velocity=56 time=0\n",
      "note_off channel=0 note=77 velocity=64 time=0\n",
      "note_on channel=0 note=78 velocity=52 time=0\n",
      "note_on channel=0 note=80 velocity=28 time=0\n",
      "note_off channel=0 note=81 velocity=64 time=0\n",
      "note_on channel=0 note=82 velocity=21 time=0\n",
      "note_off channel=0 note=86 velocity=64 time=0\n",
      "note_off channel=0 note=89 velocity=64 time=0\n",
      "note_on channel=0 note=56 velocity=34 time=1\n",
      "note_off channel=0 note=59 velocity=64 time=0\n",
      "note_on channel=0 note=60 velocity=48 time=0\n",
      "note_on channel=0 note=79 velocity=38 time=0\n",
      "note_off channel=0 note=83 velocity=64 time=0\n",
      "note_on channel=0 note=91 velocity=43 time=0\n",
      "note_on channel=0 note=89 velocity=47 time=1\n",
      "note_off channel=0 note=56 velocity=64 time=1\n",
      "note_off channel=0 note=68 velocity=64 time=0\n",
      "note_off channel=0 note=78 velocity=64 time=0\n",
      "note_off channel=0 note=79 velocity=64 time=0\n",
      "note_off channel=0 note=82 velocity=64 time=0\n",
      "note_on channel=0 note=83 velocity=54 time=0\n",
      "note_off channel=0 note=88 velocity=64 time=0\n",
      "note_off channel=0 note=90 velocity=64 time=0\n",
      "note_off channel=0 note=60 velocity=64 time=1\n",
      "note_off channel=0 note=80 velocity=64 time=0\n",
      "note_on channel=0 note=90 velocity=42 time=0\n",
      "note_off channel=0 note=91 velocity=64 time=0\n",
      "note_on channel=0 note=58 velocity=52 time=1\n",
      "note_off channel=0 note=72 velocity=64 time=0\n",
      "note_on channel=0 note=77 velocity=76 time=0\n",
      "note_on channel=0 note=79 velocity=51 time=0\n",
      "note_on channel=0 note=80 velocity=24 time=0\n",
      "note_on channel=0 note=86 velocity=34 time=0\n",
      "note_on channel=0 note=82 velocity=56 time=1\n",
      "note_off channel=0 note=85 velocity=64 time=0\n",
      "note_on channel=0 note=57 velocity=50 time=1\n",
      "note_off channel=0 note=58 velocity=64 time=0\n",
      "note_on channel=0 note=69 velocity=50 time=0\n",
      "note_on channel=0 note=85 velocity=46 time=0\n",
      "note_off channel=0 note=86 velocity=64 time=0\n",
      "note_on channel=0 note=88 velocity=66 time=0\n",
      "note_off channel=0 note=101 velocity=64 time=0\n",
      "note_on channel=0 note=76 velocity=79 time=1\n",
      "note_off channel=0 note=77 velocity=64 time=0\n",
      "note_on channel=0 note=81 velocity=53 time=0\n",
      "note_off channel=0 note=83 velocity=64 time=0\n",
      "note_off channel=0 note=87 velocity=64 time=0\n",
      "note_off channel=0 note=89 velocity=64 time=0\n",
      "note_on channel=0 note=73 velocity=21 time=1\n",
      "note_off channel=0 note=80 velocity=64 time=0\n",
      "note_off channel=0 note=82 velocity=64 time=0\n",
      "note_off channel=0 note=93 velocity=64 time=0\n",
      "note_off channel=0 note=79 velocity=64 time=1\n",
      "note_on channel=0 note=80 velocity=28 time=0\n",
      "note_on channel=0 note=87 velocity=37 time=0\n",
      "note_off channel=0 note=90 velocity=64 time=0\n",
      "note_off channel=0 note=81 velocity=64 time=2\n",
      "note_on channel=0 note=48 velocity=17 time=1\n",
      "note_on channel=0 note=81 velocity=51 time=0\n",
      "note_off channel=0 note=80 velocity=64 time=1\n",
      "note_on channel=0 note=101 velocity=33 time=0\n",
      "note_on channel=0 note=90 velocity=40 time=1\n",
      "note_on channel=0 note=102 velocity=40 time=0\n",
      "note_off channel=0 note=48 velocity=64 time=1\n",
      "note_on channel=0 note=56 velocity=54 time=0\n",
      "note_off channel=0 note=57 velocity=64 time=0\n",
      "note_off channel=0 note=69 velocity=64 time=0\n",
      "note_on channel=0 note=80 velocity=55 time=0\n",
      "note_on channel=0 note=83 velocity=30 time=0\n",
      "note_on channel=0 note=84 velocity=45 time=0\n",
      "note_on channel=0 note=48 velocity=17 time=1\n",
      "note_off channel=0 note=85 velocity=64 time=0\n",
      "note_off channel=0 note=81 velocity=64 time=1\n",
      "note_off channel=0 note=88 velocity=64 time=0\n",
      "note_off channel=0 note=56 velocity=64 time=1\n",
      "note_on channel=0 note=57 velocity=57 time=0\n",
      "note_off channel=0 note=87 velocity=64 time=0\n",
      "note_off channel=0 note=80 velocity=64 time=1\n",
      "note_on channel=0 note=81 velocity=52 time=0\n",
      "note_off channel=0 note=84 velocity=64 time=0\n",
      "note_on channel=0 note=85 velocity=49 time=0\n",
      "note_on channel=0 note=87 velocity=41 time=0\n",
      "note_off channel=0 note=102 velocity=64 time=0\n",
      "note_off channel=0 note=90 velocity=64 time=1\n",
      "note_on channel=0 note=91 velocity=36 time=0\n",
      "note_off channel=0 note=48 velocity=64 time=1\n",
      "note_off channel=0 note=101 velocity=64 time=0\n",
      "note_on channel=0 note=102 velocity=38 time=0\n",
      "note_on channel=0 note=80 velocity=33 time=2\n",
      "note_on channel=0 note=101 velocity=31 time=1\n",
      "note_off channel=0 note=102 velocity=64 time=0\n",
      "note_off channel=0 note=80 velocity=64 time=1\n",
      "note_on channel=0 note=90 velocity=42 time=0\n",
      "note_on channel=0 note=80 velocity=48 time=1\n",
      "note_off channel=0 note=81 velocity=64 time=0\n",
      "note_on channel=0 note=84 velocity=59 time=0\n",
      "note_off channel=0 note=91 velocity=64 time=0\n",
      "note_on channel=0 note=56 velocity=55 time=1\n",
      "note_off channel=0 note=57 velocity=64 time=0\n",
      "note_on channel=0 note=75 velocity=62 time=1\n",
      "note_off channel=0 note=83 velocity=64 time=0\n",
      "note_off channel=0 note=73 velocity=64 time=1\n",
      "note_off channel=0 note=76 velocity=64 time=0\n",
      "note_on channel=0 note=89 velocity=42 time=0\n",
      "note_off channel=0 note=90 velocity=64 time=0\n",
      "note_on channel=0 note=73 velocity=16 time=1\n",
      "note_on channel=0 note=83 velocity=29 time=1\n",
      "note_off channel=0 note=89 velocity=64 time=0\n",
      "note_on channel=0 note=90 velocity=48 time=0\n",
      "note_on channel=0 note=91 velocity=10 time=0\n",
      "note_off channel=0 note=101 velocity=64 time=0\n",
      "note_off channel=0 note=85 velocity=64 time=1\n",
      "note_off channel=0 note=73 velocity=64 time=1\n",
      "note_on channel=0 note=73 velocity=13 time=1\n",
      "note_on channel=0 note=49 velocity=12 time=3\n",
      "note_off channel=0 note=49 velocity=64 time=3\n",
      "note_on channel=0 note=103 velocity=12 time=0\n",
      "note_off channel=0 note=73 velocity=64 time=1\n",
      "note_off channel=0 note=80 velocity=64 time=1\n",
      "note_off channel=0 note=90 velocity=64 time=0\n",
      "note_on channel=0 note=80 velocity=54 time=1\n",
      "note_on channel=0 note=90 velocity=34 time=0\n",
      "note_off channel=0 note=90 velocity=64 time=5\n",
      "note_on channel=0 note=73 velocity=9 time=1\n",
      "note_on channel=0 note=90 velocity=49 time=0\n",
      "note_off channel=0 note=103 velocity=64 time=1\n",
      "note_off channel=0 note=56 velocity=64 time=3\n",
      "note_on channel=0 note=57 velocity=44 time=0\n",
      "note_off channel=0 note=73 velocity=64 time=2\n",
      "note_on channel=0 note=56 velocity=61 time=1\n",
      "note_off channel=0 note=57 velocity=64 time=0\n",
      "note_on channel=0 note=69 velocity=42 time=2\n",
      "note_off channel=0 note=87 velocity=64 time=0\n",
      "note_on channel=0 note=88 velocity=30 time=0\n",
      "note_on channel=0 note=101 velocity=15 time=0\n",
      "note_off channel=0 note=88 velocity=64 time=2\n",
      "note_off channel=0 note=69 velocity=64 time=1\n",
      "note_off channel=0 note=75 velocity=64 time=0\n",
      "note_on channel=0 note=76 velocity=36 time=0\n",
      "note_off channel=0 note=91 velocity=64 time=0\n",
      "note_off channel=0 note=101 velocity=64 time=0\n",
      "note_off channel=0 note=83 velocity=64 time=1\n",
      "note_on channel=0 note=82 velocity=15 time=1\n",
      "note_on channel=0 note=87 velocity=18 time=0\n",
      "note_off channel=0 note=90 velocity=64 time=0\n",
      "note_off channel=0 note=56 velocity=64 time=1\n",
      "note_on channel=0 note=68 velocity=37 time=0\n",
      "note_on channel=0 note=75 velocity=26 time=1\n",
      "note_off channel=0 note=76 velocity=64 time=0\n",
      "note_off channel=0 note=84 velocity=64 time=0\n",
      "note_on channel=0 note=52 velocity=60 time=2\n",
      "note_on channel=0 note=78 velocity=15 time=0\n",
      "note_on channel=0 note=91 velocity=22 time=0\n",
      "note_off channel=0 note=68 velocity=64 time=1\n",
      "note_off channel=0 note=82 velocity=64 time=0\n",
      "note_on channel=0 note=83 velocity=35 time=0\n",
      "note_off channel=0 note=52 velocity=64 time=1\n",
      "note_off channel=0 note=75 velocity=64 time=0\n",
      "note_on channel=0 note=54 velocity=67 time=1\n",
      "note_on channel=0 note=67 velocity=39 time=0\n",
      "note_on channel=0 note=74 velocity=30 time=0\n",
      "note_off channel=0 note=78 velocity=64 time=0\n",
      "note_off channel=0 note=54 velocity=64 time=1\n",
      "note_on channel=0 note=55 velocity=67 time=0\n",
      "note_off channel=0 note=87 velocity=64 time=2\n",
      "note_on channel=0 note=75 velocity=16 time=1\n",
      "note_on channel=0 note=88 velocity=17 time=0\n",
      "note_on channel=0 note=90 velocity=15 time=0\n",
      "note_on channel=0 note=54 velocity=62 time=1\n",
      "note_off channel=0 note=55 velocity=64 time=0\n",
      "note_off channel=0 note=67 velocity=64 time=0\n",
      "note_on channel=0 note=73 velocity=50 time=0\n",
      "note_off channel=0 note=74 velocity=64 time=0\n",
      "note_on channel=0 note=77 velocity=40 time=1\n",
      "note_on channel=0 note=53 velocity=60 time=1\n",
      "note_off channel=0 note=54 velocity=64 time=0\n",
      "note_off channel=0 note=88 velocity=64 time=0\n",
      "note_off channel=0 note=90 velocity=64 time=0\n",
      "note_on channel=0 note=66 velocity=21 time=2\n",
      "note_on channel=0 note=82 velocity=17 time=0\n",
      "note_off channel=0 note=53 velocity=64 time=1\n",
      "note_on channel=0 note=54 velocity=60 time=0\n",
      "note_off channel=0 note=77 velocity=64 time=0\n",
      "note_on channel=0 note=78 velocity=39 time=0\n",
      "note_off channel=0 note=82 velocity=64 time=2\n",
      "note_off channel=0 note=91 velocity=64 time=0\n",
      "note_on channel=0 note=53 velocity=65 time=1\n",
      "note_off channel=0 note=54 velocity=64 time=0\n",
      "note_off channel=0 note=66 velocity=64 time=0\n",
      "note_on channel=0 note=72 velocity=54 time=0\n",
      "note_off channel=0 note=73 velocity=64 time=0\n",
      "note_off channel=0 note=75 velocity=64 time=1\n",
      "note_on channel=0 note=77 velocity=51 time=0\n",
      "note_off channel=0 note=78 velocity=64 time=0\n",
      "note_on channel=0 note=91 velocity=31 time=1\n",
      "note_off channel=0 note=83 velocity=64 time=1\n",
      "note_on channel=0 note=66 velocity=26 time=4\n",
      "note_on channel=0 note=85 velocity=35 time=0\n",
      "note_off channel=0 note=53 velocity=64 time=1\n",
      "note_on channel=0 note=54 velocity=57 time=0\n",
      "note_off channel=0 note=72 velocity=64 time=0\n",
      "note_on channel=0 note=73 velocity=59 time=0\n",
      "note_on channel=0 note=82 velocity=29 time=0\n",
      "note_on channel=0 note=90 velocity=37 time=0\n",
      "note_on channel=0 note=87 velocity=14 time=1\n",
      "note_off channel=0 note=54 velocity=64 time=1\n",
      "note_off channel=0 note=77 velocity=64 time=0\n",
      "note_on channel=0 note=78 velocity=29 time=0\n",
      "note_on channel=0 note=54 velocity=58 time=1\n",
      "note_on channel=0 note=75 velocity=21 time=1\n",
      "note_off channel=0 note=80 velocity=64 time=0\n",
      "note_on channel=0 note=83 velocity=14 time=1\n",
      "note_off channel=0 note=82 velocity=64 time=1\n",
      "note_off channel=0 note=87 velocity=64 time=0\n",
      "note_on channel=0 note=82 velocity=29 time=4\n",
      "note_off channel=0 note=83 velocity=64 time=1\n",
      "note_on channel=0 note=88 velocity=38 time=0\n",
      "note_on channel=0 note=80 velocity=36 time=1\n",
      "note_off channel=0 note=82 velocity=64 time=0\n",
      "note_on channel=0 note=87 velocity=38 time=0\n",
      "note_on channel=0 note=82 velocity=37 time=1\n",
      "note_on channel=0 note=84 velocity=26 time=3\n",
      "note_off channel=0 note=75 velocity=64 time=1\n",
      "note_on channel=0 note=86 velocity=17 time=1\n",
      "note_off channel=0 note=86 velocity=64 time=3\n",
      "note_off channel=0 note=82 velocity=64 time=1\n",
      "note_on channel=0 note=86 velocity=30 time=0\n",
      "note_on channel=0 note=77 velocity=23 time=1\n",
      "note_off channel=0 note=78 velocity=64 time=0\n",
      "note_on channel=0 note=82 velocity=44 time=0\n",
      "note_off channel=0 note=90 velocity=64 time=4\n",
      "note_on channel=0 note=90 velocity=32 time=1\n",
      "note_on channel=0 note=78 velocity=27 time=4\n",
      "note_off channel=0 note=85 velocity=64 time=0\n",
      "note_off channel=0 note=77 velocity=64 time=1\n",
      "note_off channel=0 note=90 velocity=64 time=2\n",
      "note_on channel=0 note=75 velocity=25 time=1\n",
      "note_on channel=0 note=90 velocity=38 time=1\n",
      "note_on channel=0 note=77 velocity=13 time=4\n",
      "note_off channel=0 note=78 velocity=64 time=0\n",
      "note_off channel=0 note=77 velocity=64 time=3\n",
      "note_off channel=0 note=86 velocity=64 time=6\n",
      "note_on channel=0 note=86 velocity=15 time=1\n",
      "note_on channel=0 note=78 velocity=36 time=1\n",
      "note_off channel=0 note=86 velocity=64 time=3\n",
      "note_off channel=0 note=75 velocity=64 time=5\n",
      "note_off channel=0 note=87 velocity=64 time=0\n",
      "note_on channel=0 note=86 velocity=27 time=6\n",
      "note_off channel=0 note=78 velocity=64 time=2\n",
      "note_on channel=0 note=75 velocity=28 time=1\n",
      "note_on channel=0 note=78 velocity=31 time=0\n",
      "note_on channel=0 note=87 velocity=38 time=2\n",
      "note_off channel=0 note=80 velocity=64 time=3\n",
      "note_off channel=0 note=84 velocity=64 time=2\n",
      "note_off channel=0 note=78 velocity=64 time=1\n",
      "note_on channel=0 note=93 velocity=12 time=1\n",
      "note_off channel=0 note=86 velocity=64 time=4\n",
      "note_on channel=0 note=84 velocity=23 time=1\n",
      "note_on channel=0 note=80 velocity=42 time=1\n",
      "note_on channel=0 note=78 velocity=33 time=6\n",
      "note_on channel=0 note=95 velocity=26 time=2\n",
      "note_on channel=0 note=86 velocity=31 time=2\n",
      "note_off channel=0 note=91 velocity=64 time=4\n",
      "note_off channel=0 note=78 velocity=64 time=1\n",
      "note_on channel=0 note=78 velocity=33 time=1\n",
      "note_off channel=0 note=87 velocity=64 time=1\n",
      "note_on channel=0 note=65 velocity=22 time=1\n",
      "note_off channel=0 note=66 velocity=64 time=0\n",
      "note_on channel=0 note=53 velocity=56 time=1\n",
      "note_off channel=0 note=54 velocity=64 time=0\n",
      "note_on channel=0 note=72 velocity=48 time=0\n",
      "note_off channel=0 note=73 velocity=64 time=0\n",
      "note_on channel=0 note=77 velocity=45 time=1\n",
      "note_off channel=0 note=78 velocity=64 time=0\n",
      "note_on channel=0 note=78 velocity=38 time=1\n",
      "note_on channel=0 note=87 velocity=29 time=0\n",
      "note_on channel=0 note=64 velocity=20 time=1\n",
      "note_off channel=0 note=65 velocity=64 time=0\n",
      "note_off channel=0 note=75 velocity=64 time=0\n",
      "note_off channel=0 note=86 velocity=64 time=0\n",
      "note_off channel=0 note=93 velocity=64 time=0\n",
      "note_on channel=0 note=52 velocity=57 time=1\n",
      "note_off channel=0 note=53 velocity=64 time=0\n",
      "note_on channel=0 note=76 velocity=33 time=0\n",
      "note_off channel=0 note=77 velocity=64 time=0\n",
      "note_on channel=0 note=86 velocity=27 time=0\n",
      "note_on channel=0 note=91 velocity=17 time=1\n",
      "note_off channel=0 note=72 velocity=64 time=1\n",
      "note_off channel=0 note=64 velocity=64 time=2\n",
      "note_on channel=0 note=51 velocity=55 time=1\n",
      "note_off channel=0 note=52 velocity=64 time=0\n",
      "note_on channel=0 note=73 velocity=25 time=1\n",
      "note_on channel=0 note=75 velocity=19 time=0\n",
      "note_off channel=0 note=51 velocity=64 time=1\n",
      "note_on channel=0 note=61 velocity=35 time=0\n",
      "note_on channel=0 note=68 velocity=18 time=0\n",
      "note_off channel=0 note=76 velocity=64 time=0\n",
      "note_on channel=0 note=77 velocity=17 time=0\n",
      "note_off channel=0 note=78 velocity=64 time=0\n",
      "note_off channel=0 note=86 velocity=64 time=0\n",
      "note_on channel=0 note=50 velocity=58 time=1\n",
      "note_on channel=0 note=49 velocity=55 time=2\n",
      "note_off channel=0 note=50 velocity=64 time=0\n",
      "note_off channel=0 note=91 velocity=64 time=5\n",
      "note_on channel=0 note=60 velocity=23 time=1\n",
      "note_off channel=0 note=61 velocity=64 time=0\n",
      "note_off channel=0 note=73 velocity=64 time=0\n",
      "note_on channel=0 note=67 velocity=18 time=1\n",
      "note_off channel=0 note=68 velocity=64 time=0\n",
      "note_on channel=0 note=48 velocity=33 time=1\n",
      "note_off channel=0 note=49 velocity=64 time=0\n",
      "note_on channel=0 note=73 velocity=28 time=0\n",
      "note_off channel=0 note=48 velocity=64 time=2\n",
      "note_off channel=0 note=77 velocity=64 time=1\n",
      "note_off channel=0 note=84 velocity=64 time=0\n",
      "note_on channel=0 note=93 velocity=26 time=0\n",
      "note_on channel=0 note=49 velocity=48 time=1\n",
      "note_on channel=0 note=77 velocity=18 time=2\n",
      "note_off channel=0 note=60 velocity=64 time=1\n",
      "note_off channel=0 note=67 velocity=64 time=0\n",
      "note_on channel=0 note=68 velocity=24 time=0\n",
      "note_on channel=0 note=86 velocity=9 time=1\n",
      "note_off channel=0 note=75 velocity=64 time=1\n",
      "note_off channel=0 note=73 velocity=64 time=1\n",
      "note_off channel=0 note=77 velocity=64 time=1\n",
      "note_off channel=0 note=86 velocity=64 time=0\n",
      "note_on channel=0 note=77 velocity=21 time=1\n",
      "note_on channel=0 note=91 velocity=15 time=2\n",
      "note_off channel=0 note=87 velocity=64 time=1\n",
      "note_off channel=0 note=49 velocity=64 time=4\n",
      "note_off channel=0 note=77 velocity=64 time=0\n",
      "note_on channel=0 note=49 velocity=53 time=1\n",
      "note_on channel=0 note=77 velocity=26 time=0\n",
      "note_on channel=0 note=75 velocity=20 time=1\n",
      "note_off channel=0 note=77 velocity=64 time=15\n",
      "note_on channel=0 note=77 velocity=15 time=4\n",
      "note_off channel=0 note=77 velocity=64 time=4\n",
      "note_off channel=0 note=95 velocity=64 time=0\n",
      "note_off channel=0 note=80 velocity=64 time=2\n",
      "note_on channel=0 note=77 velocity=16 time=1\n",
      "note_off channel=0 note=68 velocity=64 time=1\n",
      "note_off channel=0 note=75 velocity=64 time=0\n",
      "note_off channel=0 note=93 velocity=64 time=0\n",
      "note_on channel=0 note=80 velocity=15 time=1\n",
      "note_off channel=0 note=91 velocity=64 time=2\n",
      "note_on channel=0 note=75 velocity=25 time=1\n",
      "note_off channel=0 note=77 velocity=64 time=2\n",
      "note_off channel=0 note=80 velocity=64 time=0\n",
      "note_on channel=0 note=80 velocity=58 time=3\n",
      "note_on channel=0 note=91 velocity=12 time=0\n",
      "note_off channel=0 note=49 velocity=64 time=1\n",
      "note_on channel=0 note=77 velocity=17 time=2\n",
      "note_on channel=0 note=85 velocity=16 time=0\n",
      "note_off channel=0 note=82 velocity=64 time=2\n",
      "note_on channel=0 note=82 velocity=29 time=1\n",
      "note_off channel=0 note=90 velocity=64 time=1\n",
      "note_on channel=0 note=87 velocity=37 time=1\n",
      "note_on channel=0 note=73 velocity=25 time=1\n",
      "note_off channel=0 note=88 velocity=64 time=0\n",
      "note_off channel=0 note=77 velocity=64 time=3\n",
      "note_off channel=0 note=85 velocity=64 time=3\n",
      "note_off channel=0 note=91 velocity=64 time=1\n",
      "note_off channel=0 note=82 velocity=64 time=2\n",
      "note_on channel=0 note=83 velocity=33 time=0\n",
      "note_on channel=0 note=91 velocity=13 time=7\n",
      "note_on channel=0 note=77 velocity=11 time=2\n",
      "note_off channel=0 note=77 velocity=64 time=7\n",
      "note_on channel=0 note=82 velocity=43 time=10\n",
      "note_on channel=0 note=58 velocity=41 time=1\n",
      "note_on channel=0 note=65 velocity=16 time=1\n",
      "note_on channel=0 note=77 velocity=43 time=0\n",
      "note_on channel=0 note=84 velocity=60 time=0\n",
      "note_on channel=0 note=86 velocity=35 time=0\n",
      "note_on channel=0 note=46 velocity=64 time=2\n",
      "note_on channel=0 note=101 velocity=46 time=0\n",
      "note_off channel=0 note=73 velocity=64 time=1\n",
      "note_off channel=0 note=75 velocity=64 time=0\n",
      "note_off channel=0 note=91 velocity=64 time=0\n",
      "note_on channel=0 note=100 velocity=29 time=0\n",
      "note_off channel=0 note=82 velocity=64 time=1\n",
      "note_on channel=0 note=88 velocity=50 time=0\n",
      "note_off channel=0 note=58 velocity=64 time=1\n",
      "note_on channel=0 note=59 velocity=41 time=0\n",
      "note_off channel=0 note=65 velocity=64 time=0\n",
      "note_on channel=0 note=75 velocity=32 time=0\n",
      "note_on channel=0 note=78 velocity=29 time=0\n",
      "note_off channel=0 note=83 velocity=64 time=0\n",
      "note_on channel=0 note=85 velocity=41 time=0\n",
      "note_off channel=0 note=86 velocity=64 time=0\n",
      "note_off channel=0 note=46 velocity=64 time=1\n",
      "note_on channel=0 note=47 velocity=53 time=0\n",
      "note_off channel=0 note=77 velocity=64 time=0\n",
      "note_off channel=0 note=80 velocity=64 time=0\n",
      "note_on channel=0 note=81 velocity=53 time=0\n",
      "note_on channel=0 note=102 velocity=51 time=0\n",
      "note_off channel=0 note=59 velocity=64 time=1\n",
      "note_on channel=0 note=60 velocity=52 time=0\n",
      "note_on channel=0 note=67 velocity=39 time=0\n",
      "note_off channel=0 note=75 velocity=64 time=0\n",
      "note_on channel=0 note=76 velocity=65 time=0\n",
      "note_off channel=0 note=78 velocity=64 time=0\n",
      "note_on channel=0 note=89 velocity=18 time=0\n",
      "note_on channel=0 note=91 velocity=33 time=0\n",
      "note_on channel=0 note=95 velocity=26 time=0\n",
      "note_off channel=0 note=47 velocity=64 time=1\n",
      "note_on channel=0 note=78 velocity=15 time=0\n",
      "note_on channel=0 note=82 velocity=40 time=0\n",
      "note_on channel=0 note=83 velocity=35 time=0\n",
      "note_on channel=0 note=86 velocity=50 time=0\n",
      "note_on channel=0 note=80 velocity=38 time=1\n",
      "note_off channel=0 note=81 velocity=64 time=0\n",
      "note_off channel=0 note=85 velocity=64 time=0\n",
      "note_off channel=0 note=87 velocity=64 time=0\n",
      "note_on channel=0 note=90 velocity=24 time=0\n",
      "note_on channel=0 note=48 velocity=43 time=1\n",
      "note_on channel=0 note=79 velocity=39 time=0\n",
      "note_on channel=0 note=87 velocity=17 time=0\n",
      "note_off channel=0 note=89 velocity=64 time=0\n",
      "note_off channel=0 note=78 velocity=64 time=1\n",
      "note_on channel=0 note=89 velocity=36 time=1\n",
      "note_off channel=0 note=90 velocity=64 time=0\n",
      "note_off channel=0 note=79 velocity=64 time=1\n",
      "note_off channel=0 note=83 velocity=64 time=0\n",
      "note_off channel=0 note=87 velocity=64 time=0\n",
      "note_on channel=0 note=93 velocity=20 time=0\n",
      "note_off channel=0 note=48 velocity=64 time=1\n",
      "note_on channel=0 note=83 velocity=25 time=0\n",
      "note_on channel=0 note=79 velocity=57 time=1\n",
      "note_off channel=0 note=82 velocity=64 time=0\n",
      "note_off channel=0 note=95 velocity=64 time=0\n",
      "note_on channel=0 note=48 velocity=48 time=1\n",
      "note_on channel=0 note=82 velocity=37 time=0\n",
      "note_off channel=0 note=93 velocity=64 time=0\n",
      "note_off channel=0 note=83 velocity=64 time=1\n",
      "note_on channel=0 note=87 velocity=37 time=0\n",
      "note_off channel=0 note=89 velocity=64 time=0\n",
      "note_on channel=0 note=90 velocity=31 time=0\n",
      "note_on channel=0 note=93 velocity=18 time=0\n",
      "note_off channel=0 note=67 velocity=64 time=1\n",
      "note_on channel=0 note=68 velocity=44 time=0\n",
      "note_off channel=0 note=80 velocity=64 time=0\n",
      "note_off channel=0 note=48 velocity=64 time=1\n",
      "note_on channel=0 note=49 velocity=63 time=0\n",
      "note_on channel=0 note=73 velocity=47 time=0\n",
      "note_off channel=0 note=84 velocity=64 time=0\n",
      "note_off channel=0 note=60 velocity=64 time=1\n",
      "note_on channel=0 note=83 velocity=46 time=0\n",
      "note_on channel=0 note=89 velocity=44 time=0\n",
      "note_on channel=0 note=92 velocity=29 time=0\n",
      "note_off channel=0 note=76 velocity=64 time=1\n",
      "note_on channel=0 note=77 velocity=58 time=0\n",
      "note_on channel=0 note=80 velocity=48 time=0\n",
      "note_off channel=0 note=82 velocity=64 time=0\n",
      "note_off channel=0 note=86 velocity=64 time=0\n",
      "note_off channel=0 note=90 velocity=64 time=1\n",
      "note_off channel=0 note=93 velocity=64 time=0\n",
      "note_off channel=0 note=68 velocity=64 time=1\n",
      "note_on channel=0 note=69 velocity=38 time=0\n",
      "note_off channel=0 note=73 velocity=64 time=0\n",
      "note_on channel=0 note=74 velocity=51 time=0\n",
      "note_off channel=0 note=79 velocity=64 time=0\n",
      "note_on channel=0 note=81 velocity=40 time=0\n",
      "note_on channel=0 note=90 velocity=39 time=0\n",
      "note_off channel=0 note=91 velocity=64 time=0\n",
      "note_off channel=0 note=49 velocity=64 time=1\n",
      "note_on channel=0 note=50 velocity=64 time=0\n",
      "note_off channel=0 note=83 velocity=64 time=0\n",
      "note_on channel=0 note=84 velocity=39 time=0\n",
      "note_off channel=0 note=89 velocity=64 time=0\n",
      "note_on channel=0 note=95 velocity=16 time=0\n",
      "note_on channel=0 note=63 velocity=44 time=1\n",
      "note_off channel=0 note=69 velocity=64 time=0\n",
      "note_off channel=0 note=74 velocity=64 time=0\n",
      "note_on channel=0 note=75 velocity=57 time=0\n",
      "note_on channel=0 note=78 velocity=39 time=0\n",
      "note_off channel=0 note=81 velocity=64 time=0\n",
      "note_on channel=0 note=83 velocity=45 time=0\n",
      "note_off channel=0 note=90 velocity=64 time=0\n",
      "note_on channel=0 note=103 velocity=15 time=0\n",
      "note_on channel=0 note=71 velocity=33 time=1\n",
      "note_off channel=0 note=77 velocity=64 time=0\n",
      "note_off channel=0 note=84 velocity=64 time=0\n",
      "note_on channel=0 note=85 velocity=30 time=0\n",
      "note_on channel=0 note=86 velocity=29 time=0\n",
      "note_off channel=0 note=88 velocity=64 time=0\n",
      "note_on channel=0 note=90 velocity=57 time=0\n",
      "note_off channel=0 note=50 velocity=64 time=1\n",
      "note_on channel=0 note=53 velocity=61 time=0\n",
      "note_off channel=0 note=63 velocity=64 time=0\n",
      "note_off channel=0 note=78 velocity=64 time=0\n",
      "note_on channel=0 note=82 velocity=29 time=0\n",
      "note_on channel=0 note=88 velocity=38 time=0\n",
      "note_off channel=0 note=71 velocity=64 time=1\n",
      "note_on channel=0 note=72 velocity=60 time=0\n",
      "note_off channel=0 note=75 velocity=64 time=0\n",
      "note_on channel=0 note=77 velocity=74 time=0\n",
      "note_on channel=0 note=91 velocity=58 time=0\n",
      "note_off channel=0 note=95 velocity=64 time=0\n",
      "note_off channel=0 note=103 velocity=64 time=0\n",
      "note_off channel=0 note=85 velocity=64 time=1\n",
      "note_off channel=0 note=88 velocity=64 time=0\n",
      "note_off channel=0 note=92 velocity=64 time=0\n",
      "note_on channel=0 note=93 velocity=29 time=0\n",
      "note_on channel=0 note=66 velocity=39 time=1\n",
      "note_on channel=0 note=85 velocity=44 time=0\n",
      "note_off channel=0 note=90 velocity=64 time=0\n",
      "note_off channel=0 note=72 velocity=64 time=1\n",
      "note_on channel=0 note=73 velocity=59 time=0\n",
      "note_on channel=0 note=90 velocity=59 time=0\n",
      "note_off channel=0 note=93 velocity=64 time=0\n",
      "note_on channel=0 note=94 velocity=30 time=0\n",
      "note_off channel=0 note=100 velocity=64 time=0\n",
      "note_off channel=0 note=53 velocity=64 time=1\n",
      "note_on channel=0 note=54 velocity=57 time=0\n",
      "note_off channel=0 note=86 velocity=64 time=0\n",
      "note_off channel=0 note=77 velocity=64 time=1\n",
      "note_on channel=0 note=78 velocity=53 time=0\n",
      "note_on channel=0 note=53 velocity=62 time=1\n",
      "note_off channel=0 note=54 velocity=64 time=0\n",
      "note_off channel=0 note=82 velocity=64 time=0\n",
      "note_off channel=0 note=94 velocity=64 time=0\n",
      "note_off channel=0 note=66 velocity=64 time=1\n",
      "note_on channel=0 note=72 velocity=54 time=0\n",
      "note_off channel=0 note=73 velocity=64 time=0\n",
      "note_on channel=0 note=77 velocity=63 time=0\n",
      "note_on channel=0 note=84 velocity=54 time=0\n",
      "note_off channel=0 note=78 velocity=64 time=1\n",
      "note_off channel=0 note=83 velocity=64 time=0\n",
      "note_on channel=0 note=86 velocity=40 time=0\n",
      "note_on channel=0 note=88 velocity=54 time=0\n",
      "note_on channel=0 note=52 velocity=66 time=1\n",
      "note_off channel=0 note=53 velocity=64 time=0\n",
      "note_on channel=0 note=71 velocity=33 time=0\n",
      "note_off channel=0 note=72 velocity=64 time=0\n",
      "note_on channel=0 note=76 velocity=68 time=0\n",
      "note_on channel=0 note=83 velocity=64 time=0\n",
      "note_off channel=0 note=84 velocity=64 time=0\n",
      "note_off channel=0 note=85 velocity=64 time=0\n",
      "note_off channel=0 note=91 velocity=64 time=0\n",
      "note_on channel=0 note=93 velocity=28 time=0\n",
      "note_off channel=0 note=77 velocity=64 time=1\n",
      "note_on channel=0 note=91 velocity=32 time=0\n",
      "note_on channel=0 note=96 velocity=17 time=0\n",
      "note_on channel=0 note=85 velocity=42 time=1\n",
      "note_off channel=0 note=86 velocity=64 time=0\n",
      "note_off channel=0 note=87 velocity=64 time=0\n",
      "note_on channel=0 note=77 velocity=29 time=1\n",
      "note_off channel=0 note=77 velocity=64 time=2\n",
      "note_off channel=0 note=91 velocity=64 time=0\n",
      "note_off channel=0 note=85 velocity=64 time=1\n",
      "note_on channel=0 note=86 velocity=48 time=0\n",
      "note_off channel=0 note=71 velocity=64 time=1\n",
      "note_on channel=0 note=91 velocity=14 time=0\n",
      "note_on channel=0 note=71 velocity=28 time=1\n",
      "note_off channel=0 note=93 velocity=64 time=0\n",
      "note_on channel=0 note=94 velocity=30 time=0\n",
      "note_off channel=0 note=96 velocity=64 time=1\n",
      "note_on channel=0 note=87 velocity=15 time=1\n",
      "note_off channel=0 note=91 velocity=64 time=1\n",
      "note_on channel=0 note=103 velocity=19 time=0\n",
      "note_on channel=0 note=93 velocity=26 time=1\n",
      "note_off channel=0 note=94 velocity=64 time=0\n",
      "note_on channel=0 note=96 velocity=18 time=0\n",
      "note_off channel=0 note=71 velocity=64 time=1\n",
      "note_off channel=0 note=87 velocity=64 time=0\n",
      "note_on channel=0 note=75 velocity=30 time=1\n",
      "note_on channel=0 note=79 velocity=38 time=0\n",
      "note_off channel=0 note=80 velocity=64 time=0\n",
      "note_off channel=0 note=83 velocity=64 time=0\n",
      "note_on channel=0 note=85 velocity=44 time=0\n",
      "note_off channel=0 note=86 velocity=64 time=0\n",
      "note_on channel=0 note=91 velocity=47 time=0\n",
      "note_off channel=0 note=103 velocity=64 time=0\n",
      "note_on channel=0 note=83 velocity=52 time=1\n",
      "note_on channel=0 note=72 velocity=51 time=1\n",
      "note_off channel=0 note=75 velocity=64 time=0\n",
      "note_off channel=0 note=79 velocity=64 time=0\n",
      "note_on channel=0 note=65 velocity=35 time=1\n",
      "note_on channel=0 note=81 velocity=31 time=0\n",
      "note_on channel=0 note=87 velocity=26 time=0\n",
      "note_on channel=0 note=89 velocity=54 time=0\n",
      "note_off channel=0 note=52 velocity=64 time=1\n",
      "note_on channel=0 note=53 velocity=68 time=0\n",
      "note_on channel=0 note=77 velocity=53 time=0\n",
      "note_off channel=0 note=85 velocity=64 time=0\n",
      "note_off channel=0 note=65 velocity=64 time=1\n",
      "note_off channel=0 note=72 velocity=64 time=0\n",
      "note_on channel=0 note=73 velocity=49 time=0\n",
      "note_on channel=0 note=86 velocity=37 time=0\n",
      "note_off channel=0 note=96 velocity=64 time=0\n",
      "note_off channel=0 note=53 velocity=64 time=1\n",
      "note_on channel=0 note=55 velocity=58 time=0\n",
      "note_on channel=0 note=74 velocity=45 time=0\n",
      "note_off channel=0 note=76 velocity=64 time=0\n",
      "note_off channel=0 note=88 velocity=64 time=0\n",
      "note_off channel=0 note=101 velocity=64 time=0\n",
      "note_off channel=0 note=77 velocity=64 time=1\n",
      "note_on channel=0 note=78 velocity=33 time=0\n",
      "note_off channel=0 note=81 velocity=64 time=0\n",
      "note_off channel=0 note=87 velocity=64 time=0\n",
      "note_on channel=0 note=88 velocity=34 time=0\n",
      "note_off channel=0 note=90 velocity=64 time=0\n",
      "note_on channel=0 note=68 velocity=53 time=1\n",
      "note_off channel=0 note=73 velocity=64 time=0\n",
      "note_off channel=0 note=74 velocity=64 time=0\n",
      "note_on channel=0 note=75 velocity=53 time=0\n",
      "note_off channel=0 note=93 velocity=64 time=0\n",
      "note_on channel=0 note=94 velocity=18 time=0\n",
      "note_off channel=0 note=102 velocity=64 time=0\n",
      "note_off channel=0 note=55 velocity=64 time=1\n",
      "note_on channel=0 note=56 velocity=54 time=0\n",
      "note_on channel=0 note=84 velocity=53 time=0\n",
      "note_on channel=0 note=90 velocity=58 time=0\n",
      "note_on channel=0 note=82 velocity=43 time=1\n",
      "note_off channel=0 note=83 velocity=64 time=0\n",
      "note_on channel=0 note=85 velocity=14 time=0\n",
      "note_off channel=0 note=86 velocity=64 time=1\n",
      "note_off channel=0 note=90 velocity=64 time=0\n",
      "note_on channel=0 note=55 velocity=63 time=1\n",
      "note_off channel=0 note=56 velocity=64 time=0\n",
      "note_on channel=0 note=79 velocity=35 time=0\n",
      "note_on channel=0 note=83 velocity=40 time=0\n",
      "note_on channel=0 note=86 velocity=39 time=0\n",
      "note_off channel=0 note=88 velocity=64 time=0\n",
      "note_off channel=0 note=94 velocity=64 time=0\n",
      "note_off channel=0 note=68 velocity=64 time=1\n",
      "note_off channel=0 note=78 velocity=64 time=0\n",
      "note_on channel=0 note=80 velocity=47 time=0\n",
      "note_off channel=0 note=84 velocity=64 time=0\n",
      "note_off channel=0 note=85 velocity=64 time=0\n",
      "note_on channel=0 note=88 velocity=50 time=0\n",
      "note_on channel=0 note=90 velocity=69 time=0\n",
      "note_on channel=0 note=73 velocity=63 time=1\n",
      "note_on channel=0 note=78 velocity=58 time=0\n",
      "note_off channel=0 note=79 velocity=64 time=0\n",
      "note_on channel=0 note=66 velocity=43 time=1\n",
      "note_off channel=0 note=75 velocity=64 time=0\n",
      "note_off channel=0 note=83 velocity=64 time=0\n",
      "note_off channel=0 note=89 velocity=64 time=0\n",
      "note_on channel=0 note=54 velocity=57 time=1\n",
      "note_off channel=0 note=55 velocity=64 time=0\n",
      "note_off channel=0 note=86 velocity=64 time=1\n",
      "note_on channel=0 note=95 velocity=25 time=0\n",
      "note_off channel=0 note=82 velocity=64 time=1\n",
      "note_off channel=0 note=88 velocity=64 time=0\n",
      "note_off channel=0 note=66 velocity=64 time=1\n",
      "note_on channel=0 note=82 velocity=46 time=0\n",
      "note_on channel=0 note=88 velocity=52 time=0\n",
      "note_on channel=0 note=93 velocity=31 time=0\n",
      "note_on channel=0 note=53 velocity=58 time=1\n",
      "note_off channel=0 note=54 velocity=64 time=0\n",
      "note_on channel=0 note=66 velocity=38 time=0\n",
      "note_on channel=0 note=86 velocity=30 time=0\n",
      "note_on channel=0 note=81 velocity=43 time=1\n",
      "note_off channel=0 note=82 velocity=64 time=0\n",
      "note_off channel=0 note=53 velocity=64 time=1\n",
      "note_on channel=0 note=54 velocity=58 time=0\n",
      "note_off channel=0 note=81 velocity=64 time=3\n",
      "note_on channel=0 note=82 velocity=42 time=0\n",
      "note_off channel=0 note=91 velocity=64 time=0\n",
      "note_on channel=0 note=81 velocity=45 time=1\n",
      "note_off channel=0 note=82 velocity=64 time=1\n",
      "note_off channel=0 note=81 velocity=64 time=1\n",
      "note_on channel=0 note=82 velocity=45 time=0\n",
      "note_on channel=0 note=101 velocity=21 time=2\n",
      "note_off channel=0 note=82 velocity=64 time=2\n",
      "note_on channel=0 note=82 velocity=48 time=1\n",
      "note_off channel=0 note=93 velocity=64 time=0\n",
      "note_on channel=0 note=75 velocity=31 time=1\n",
      "note_off channel=0 note=86 velocity=64 time=0\n",
      "note_off channel=0 note=82 velocity=64 time=1\n",
      "note_on channel=0 note=82 velocity=50 time=1\n",
      "note_on channel=0 note=84 velocity=15 time=0\n",
      "note_on channel=0 note=87 velocity=43 time=4\n",
      "note_off channel=0 note=95 velocity=64 time=0\n",
      "note_off channel=0 note=54 velocity=64 time=2\n",
      "note_on channel=0 note=55 velocity=56 time=0\n",
      "note_off channel=0 note=66 velocity=64 time=0\n",
      "note_on channel=0 note=74 velocity=43 time=0\n",
      "note_off channel=0 note=78 velocity=64 time=0\n",
      "note_off channel=0 note=90 velocity=64 time=0\n",
      "note_on channel=0 note=91 velocity=45 time=0\n",
      "note_off channel=0 note=73 velocity=64 time=1\n",
      "note_off channel=0 note=75 velocity=64 time=0\n",
      "note_off channel=0 note=84 velocity=64 time=0\n",
      "note_on channel=0 note=68 velocity=54 time=1\n",
      "note_off channel=0 note=74 velocity=64 time=0\n",
      "note_on channel=0 note=75 velocity=42 time=0\n",
      "note_on channel=0 note=84 velocity=48 time=0\n",
      "note_on channel=0 note=90 velocity=63 time=0\n",
      "note_off channel=0 note=101 velocity=64 time=0\n",
      "note_off channel=0 note=55 velocity=64 time=1\n",
      "note_on channel=0 note=56 velocity=56 time=0\n",
      "note_on channel=0 note=89 velocity=35 time=0\n",
      "note_off channel=0 note=88 velocity=64 time=1\n",
      "note_off channel=0 note=91 velocity=64 time=0\n",
      "note_off channel=0 note=56 velocity=64 time=1\n",
      "note_off channel=0 note=89 velocity=64 time=0\n",
      "note_on channel=0 note=56 velocity=54 time=1\n",
      "note_off channel=0 note=87 velocity=64 time=0\n",
      "note_on channel=0 note=91 velocity=59 time=0\n",
      "note_on channel=0 note=74 velocity=47 time=1\n",
      "note_off channel=0 note=75 velocity=64 time=0\n",
      "note_on channel=0 note=83 velocity=39 time=0\n",
      "note_off channel=0 note=84 velocity=64 time=0\n",
      "note_on channel=0 note=87 velocity=28 time=0\n",
      "note_on channel=0 note=93 velocity=27 time=0\n",
      "note_on channel=0 note=55 velocity=67 time=1\n",
      "note_off channel=0 note=56 velocity=64 time=0\n",
      "note_off channel=0 note=68 velocity=64 time=0\n",
      "note_on channel=0 note=89 velocity=52 time=0\n",
      "note_off channel=0 note=90 velocity=64 time=0\n",
      "note_on channel=0 note=75 velocity=53 time=1\n",
      "note_on channel=0 note=84 velocity=30 time=0\n",
      "note_on channel=0 note=78 velocity=25 time=1\n",
      "note_off channel=0 note=83 velocity=64 time=0\n",
      "note_on channel=0 note=88 velocity=36 time=0\n",
      "note_off channel=0 note=89 velocity=64 time=1\n",
      "note_off channel=0 note=74 velocity=64 time=1\n",
      "note_on channel=0 note=83 velocity=43 time=0\n",
      "note_on channel=0 note=89 velocity=56 time=0\n",
      "note_off channel=0 note=80 velocity=64 time=1\n",
      "note_off channel=0 note=84 velocity=64 time=0\n",
      "note_off channel=0 note=88 velocity=64 time=0\n",
      "note_on channel=0 note=68 velocity=58 time=1\n",
      "note_off channel=0 note=78 velocity=64 time=0\n",
      "note_on channel=0 note=88 velocity=39 time=0\n",
      "note_off channel=0 note=93 velocity=64 time=0\n",
      "note_off channel=0 note=55 velocity=64 time=1\n",
      "note_on channel=0 note=56 velocity=57 time=0\n",
      "note_on channel=0 note=74 velocity=40 time=0\n",
      "note_on channel=0 note=78 velocity=37 time=0\n",
      "note_off channel=0 note=83 velocity=64 time=0\n",
      "note_on channel=0 note=84 velocity=41 time=0\n",
      "note_off channel=0 note=89 velocity=64 time=0\n",
      "note_on channel=0 note=90 velocity=62 time=0\n",
      "note_off channel=0 note=74 velocity=64 time=2\n",
      "note_on channel=0 note=89 velocity=52 time=1\n",
      "note_on channel=0 note=55 velocity=69 time=1\n",
      "note_off channel=0 note=56 velocity=64 time=0\n",
      "note_on channel=0 note=83 velocity=46 time=0\n",
      "note_off channel=0 note=84 velocity=64 time=0\n",
      "note_off channel=0 note=88 velocity=64 time=0\n",
      "note_off channel=0 note=90 velocity=64 time=0\n",
      "note_on channel=0 note=102 velocity=9 time=0\n",
      "note_off channel=0 note=68 velocity=64 time=1\n",
      "note_off channel=0 note=82 velocity=64 time=0\n",
      "note_on channel=0 note=90 velocity=53 time=0\n",
      "note_on channel=0 note=93 velocity=15 time=0\n",
      "note_on channel=0 note=74 velocity=40 time=1\n",
      "note_on channel=0 note=82 velocity=49 time=0\n",
      "note_off channel=0 note=75 velocity=64 time=1\n",
      "note_off channel=0 note=83 velocity=64 time=0\n",
      "note_on channel=0 note=84 velocity=25 time=0\n",
      "note_off channel=0 note=102 velocity=64 time=0\n",
      "note_off channel=0 note=87 velocity=64 time=1\n",
      "note_on channel=0 note=88 velocity=32 time=0\n",
      "note_off channel=0 note=89 velocity=64 time=0\n",
      "note_off channel=0 note=91 velocity=64 time=0\n",
      "note_on channel=0 note=54 velocity=61 time=1\n",
      "note_off channel=0 note=55 velocity=64 time=0\n",
      "note_on channel=0 note=73 velocity=56 time=0\n",
      "note_off channel=0 note=74 velocity=64 time=0\n",
      "note_on channel=0 note=91 velocity=26 time=0\n",
      "note_off channel=0 note=93 velocity=64 time=0\n",
      "note_on channel=0 note=86 velocity=33 time=2\n",
      "note_off channel=0 note=86 velocity=64 time=2\n",
      "note_on channel=0 note=87 velocity=39 time=0\n",
      "note_on channel=0 note=75 velocity=30 time=1\n",
      "note_on channel=0 note=86 velocity=25 time=6\n",
      "note_off channel=0 note=82 velocity=64 time=1\n",
      "note_on channel=0 note=83 velocity=21 time=0\n",
      "note_on channel=0 note=82 velocity=51 time=1\n",
      "note_off channel=0 note=86 velocity=64 time=1\n",
      "note_on channel=0 note=80 velocity=44 time=1\n",
      "note_off channel=0 note=83 velocity=64 time=4\n",
      "note_on channel=0 note=77 velocity=17 time=1\n",
      "note_off channel=0 note=78 velocity=64 time=0\n",
      "note_on channel=0 note=95 velocity=24 time=0\n",
      "note_off channel=0 note=77 velocity=64 time=3\n",
      "note_off channel=0 note=91 velocity=64 time=0\n",
      "note_on channel=0 note=77 velocity=16 time=1\n",
      "note_on channel=0 note=86 velocity=30 time=0\n",
      "note_on channel=0 note=78 velocity=42 time=2\n",
      "note_off channel=0 note=77 velocity=64 time=1\n",
      "note_off channel=0 note=87 velocity=64 time=3\n",
      "note_off channel=0 note=86 velocity=64 time=1\n",
      "note_on channel=0 note=86 velocity=31 time=1\n",
      "note_on channel=0 note=93 velocity=15 time=0\n",
      "note_off channel=0 note=88 velocity=64 time=4\n",
      "note_off channel=0 note=75 velocity=64 time=2\n",
      "note_off channel=0 note=86 velocity=64 time=0\n",
      "note_on channel=0 note=87 velocity=29 time=0\n",
      "note_on channel=0 note=86 velocity=25 time=1\n",
      "note_off channel=0 note=86 velocity=64 time=3\n",
      "note_on channel=0 note=91 velocity=9 time=2\n",
      "note_on channel=0 note=88 velocity=11 time=3\n",
      "note_on channel=0 note=75 velocity=18 time=1\n",
      "note_off channel=0 note=78 velocity=64 time=0\n",
      "note_off channel=0 note=90 velocity=64 time=0\n",
      "note_off channel=0 note=91 velocity=64 time=0\n",
      "note_on channel=0 note=65 velocity=24 time=1\n",
      "note_on channel=0 note=90 velocity=48 time=0\n",
      "note_on channel=0 note=91 velocity=11 time=0\n",
      "note_on channel=0 note=53 velocity=55 time=1\n",
      "note_off channel=0 note=54 velocity=64 time=0\n",
      "note_on channel=0 note=77 velocity=29 time=0\n",
      "note_off channel=0 note=93 velocity=64 time=0\n",
      "note_off channel=0 note=73 velocity=64 time=1\n",
      "note_off channel=0 note=65 velocity=64 time=1\n",
      "note_on channel=0 note=73 velocity=23 time=0\n",
      "note_on channel=0 note=76 velocity=25 time=0\n",
      "note_off channel=0 note=77 velocity=64 time=0\n",
      "note_off channel=0 note=88 velocity=64 time=0\n",
      "note_off channel=0 note=53 velocity=64 time=1\n",
      "note_on channel=0 note=70 velocity=26 time=0\n",
      "note_off channel=0 note=75 velocity=64 time=0\n",
      "note_on channel=0 note=88 velocity=35 time=0\n",
      "note_off channel=0 note=91 velocity=64 time=0\n",
      "note_on channel=0 note=63 velocity=30 time=1\n",
      "note_on channel=0 note=52 velocity=50 time=1\n",
      "note_off channel=0 note=73 velocity=64 time=0\n",
      "note_off channel=0 note=76 velocity=64 time=0\n",
      "note_off channel=0 note=63 velocity=64 time=2\n",
      "note_off channel=0 note=70 velocity=64 time=1\n",
      "note_on channel=0 note=71 velocity=14 time=0\n",
      "note_off channel=0 note=84 velocity=64 time=2\n",
      "note_off channel=0 note=71 velocity=64 time=1\n",
      "note_on channel=0 note=91 velocity=19 time=1\n",
      "note_on channel=0 note=85 velocity=18 time=2\n",
      "note_off channel=0 note=52 velocity=64 time=3\n",
      "note_on channel=0 note=78 velocity=13 time=0\n",
      "note_off channel=0 note=78 velocity=64 time=3\n",
      "note_off channel=0 note=85 velocity=64 time=1\n",
      "note_on channel=0 note=86 velocity=9 time=0\n",
      "note_off channel=0 note=87 velocity=64 time=2\n",
      "note_on channel=0 note=78 velocity=23 time=1\n",
      "note_off channel=0 note=80 velocity=64 time=1\n",
      "note_off channel=0 note=86 velocity=64 time=1\n",
      "note_on channel=0 note=92 velocity=42 time=0\n",
      "note_on channel=0 note=75 velocity=19 time=1\n",
      "note_on channel=0 note=77 velocity=24 time=0\n",
      "note_on channel=0 note=93 velocity=23 time=0\n",
      "note_off channel=0 note=78 velocity=64 time=1\n",
      "note_off channel=0 note=77 velocity=64 time=2\n",
      "note_on channel=0 note=77 velocity=21 time=1\n",
      "note_on channel=0 note=85 velocity=38 time=0\n",
      "note_on channel=0 note=80 velocity=56 time=3\n",
      "note_off channel=0 note=91 velocity=64 time=1\n",
      "note_on channel=0 note=91 velocity=22 time=1\n",
      "note_on channel=0 note=83 velocity=34 time=3\n",
      "note_on channel=0 note=87 velocity=54 time=0\n",
      "note_off channel=0 note=83 velocity=64 time=2\n",
      "note_off channel=0 note=91 velocity=64 time=2\n",
      "note_off channel=0 note=77 velocity=64 time=1\n",
      "note_on channel=0 note=83 velocity=31 time=0\n",
      "note_on channel=0 note=91 velocity=27 time=0\n",
      "note_off channel=0 note=82 velocity=64 time=1\n",
      "note_on channel=0 note=78 velocity=38 time=1\n",
      "note_on channel=0 note=81 velocity=53 time=0\n",
      "note_off channel=0 note=83 velocity=64 time=0\n",
      "note_on channel=0 note=69 velocity=31 time=1\n",
      "note_off channel=0 note=75 velocity=64 time=0\n",
      "note_on channel=0 note=77 velocity=59 time=0\n",
      "note_on channel=0 note=83 velocity=71 time=0\n",
      "note_on channel=0 note=84 velocity=56 time=0\n",
      "note_off channel=0 note=85 velocity=64 time=0\n",
      "note_off channel=0 note=88 velocity=64 time=0\n",
      "note_off channel=0 note=93 velocity=64 time=0\n",
      "note_on channel=0 note=94 velocity=19 time=0\n",
      "note_on channel=0 note=100 velocity=45 time=0\n",
      "note_on channel=0 note=101 velocity=55 time=0\n",
      "note_on channel=0 note=85 velocity=60 time=1\n",
      "note_on channel=0 note=88 velocity=54 time=0\n",
      "note_on channel=0 note=49 velocity=70 time=1\n",
      "note_on channel=0 note=68 velocity=38 time=0\n",
      "note_off channel=0 note=69 velocity=64 time=0\n",
      "note_off channel=0 note=81 velocity=64 time=0\n",
      "note_on channel=0 note=82 velocity=38 time=0\n",
      "note_off channel=0 note=84 velocity=64 time=0\n",
      "note_on channel=0 note=93 velocity=29 time=0\n",
      "note_on channel=0 note=98 velocity=14 time=0\n",
      "note_on channel=0 note=72 velocity=51 time=1\n",
      "note_on channel=0 note=76 velocity=61 time=0\n",
      "note_off channel=0 note=77 velocity=64 time=0\n",
      "note_off channel=0 note=78 velocity=64 time=0\n",
      "note_on channel=0 note=81 velocity=33 time=0\n",
      "note_on channel=0 note=96 velocity=10 time=0\n",
      "note_off channel=0 note=68 velocity=64 time=1\n",
      "note_on channel=0 note=79 velocity=46 time=0\n",
      "note_off channel=0 note=80 velocity=64 time=0\n",
      "note_off channel=0 note=91 velocity=64 time=0\n",
      "note_on channel=0 note=68 velocity=43 time=1\n",
      "note_off channel=0 note=72 velocity=64 time=0\n",
      "note_off channel=0 note=76 velocity=64 time=0\n",
      "note_on channel=0 note=77 velocity=62 time=0\n",
      "note_on channel=0 note=80 velocity=58 time=0\n",
      "note_off channel=0 note=81 velocity=64 time=0\n",
      "note_off channel=0 note=94 velocity=64 time=0\n",
      "note_off channel=0 note=79 velocity=64 time=1\n",
      "note_off channel=0 note=68 velocity=64 time=1\n",
      "note_on channel=0 note=69 velocity=34 time=0\n",
      "note_off channel=0 note=80 velocity=64 time=0\n",
      "note_on channel=0 note=81 velocity=58 time=0\n",
      "note_off channel=0 note=82 velocity=64 time=0\n",
      "note_off channel=0 note=85 velocity=64 time=0\n",
      "note_on channel=0 note=86 velocity=47 time=0\n",
      "note_off channel=0 note=88 velocity=64 time=0\n",
      "note_on channel=0 note=94 velocity=21 time=0\n"
     ]
    },
    {
     "name": "stdout",
     "output_type": "stream",
     "text": [
      "note_on channel=0 note=97 velocity=9 time=0\n",
      "note_off channel=0 note=49 velocity=64 time=1\n",
      "note_on channel=0 note=50 velocity=70 time=0\n",
      "note_on channel=0 note=63 velocity=47 time=0\n",
      "note_on channel=0 note=75 velocity=55 time=0\n",
      "note_on channel=0 note=82 velocity=54 time=0\n",
      "note_on channel=0 note=85 velocity=49 time=0\n",
      "note_on channel=0 note=88 velocity=61 time=0\n",
      "note_off channel=0 note=69 velocity=64 time=1\n",
      "note_on channel=0 note=71 velocity=37 time=0\n",
      "note_off channel=0 note=77 velocity=64 time=0\n",
      "note_on channel=0 note=80 velocity=51 time=0\n",
      "note_off channel=0 note=81 velocity=64 time=0\n",
      "note_off channel=0 note=50 velocity=64 time=1\n",
      "note_off channel=0 note=63 velocity=64 time=0\n",
      "note_on channel=0 note=64 velocity=50 time=0\n",
      "note_off channel=0 note=75 velocity=64 time=0\n",
      "note_on channel=0 note=76 velocity=76 time=0\n",
      "note_off channel=0 note=82 velocity=64 time=0\n",
      "note_off channel=0 note=94 velocity=64 time=0\n",
      "note_off channel=0 note=97 velocity=64 time=0\n",
      "note_on channel=0 note=79 velocity=36 time=1\n",
      "note_on channel=0 note=82 velocity=41 time=0\n",
      "note_off channel=0 note=93 velocity=64 time=0\n",
      "note_off channel=0 note=96 velocity=64 time=0\n",
      "note_on channel=0 note=52 velocity=62 time=1\n",
      "note_off channel=0 note=98 velocity=64 time=0\n",
      "note_off channel=0 note=79 velocity=64 time=1\n",
      "note_off channel=0 note=85 velocity=64 time=0\n",
      "note_on channel=0 note=91 velocity=45 time=0\n",
      "note_on channel=0 note=63 velocity=47 time=1\n",
      "note_off channel=0 note=64 velocity=64 time=0\n",
      "note_on channel=0 note=70 velocity=32 time=0\n",
      "note_off channel=0 note=71 velocity=64 time=0\n",
      "note_on channel=0 note=93 velocity=29 time=0\n",
      "note_on channel=0 note=51 velocity=58 time=1\n",
      "note_off channel=0 note=52 velocity=64 time=0\n",
      "note_on channel=0 note=75 velocity=56 time=0\n",
      "note_on channel=0 note=84 velocity=43 time=0\n",
      "note_on channel=0 note=89 velocity=53 time=0\n",
      "note_off channel=0 note=90 velocity=64 time=0\n",
      "note_on channel=0 note=69 velocity=36 time=1\n",
      "note_off channel=0 note=70 velocity=64 time=0\n",
      "note_off channel=0 note=82 velocity=64 time=0\n",
      "note_on channel=0 note=90 velocity=57 time=0\n",
      "note_off channel=0 note=91 velocity=64 time=0\n",
      "note_on channel=0 note=50 velocity=47 time=1\n",
      "note_off channel=0 note=51 velocity=64 time=0\n",
      "note_off channel=0 note=63 velocity=64 time=0\n",
      "note_on channel=0 note=82 velocity=42 time=0\n",
      "note_off channel=0 note=69 velocity=64 time=1\n",
      "note_off channel=0 note=83 velocity=64 time=0\n",
      "note_off channel=0 note=86 velocity=64 time=0\n",
      "note_on channel=0 note=91 velocity=35 time=0\n",
      "note_off channel=0 note=50 velocity=64 time=1\n",
      "note_on channel=0 note=64 velocity=45 time=0\n",
      "note_off channel=0 note=75 velocity=64 time=0\n",
      "note_on channel=0 note=83 velocity=55 time=0\n",
      "note_off channel=0 note=87 velocity=64 time=0\n",
      "note_on channel=0 note=53 velocity=59 time=1\n",
      "note_on channel=0 note=72 velocity=51 time=0\n",
      "note_on channel=0 note=75 velocity=39 time=0\n",
      "note_on channel=0 note=79 velocity=45 time=0\n",
      "note_off channel=0 note=80 velocity=64 time=0\n",
      "note_on channel=0 note=81 velocity=45 time=0\n",
      "note_off channel=0 note=82 velocity=64 time=0\n",
      "note_off channel=0 note=84 velocity=64 time=0\n",
      "note_on channel=0 note=86 velocity=41 time=0\n",
      "note_on channel=0 note=87 velocity=48 time=0\n",
      "note_off channel=0 note=88 velocity=64 time=0\n",
      "note_off channel=0 note=64 velocity=64 time=1\n",
      "note_off channel=0 note=76 velocity=64 time=0\n",
      "note_on channel=0 note=77 velocity=63 time=0\n",
      "note_on channel=0 note=88 velocity=45 time=0\n",
      "note_on channel=0 note=66 velocity=47 time=1\n",
      "note_off channel=0 note=72 velocity=64 time=0\n",
      "note_on channel=0 note=73 velocity=52 time=0\n",
      "note_off channel=0 note=75 velocity=64 time=0\n",
      "note_on channel=0 note=80 velocity=33 time=0\n",
      "note_off channel=0 note=81 velocity=64 time=0\n",
      "note_on channel=0 note=82 velocity=42 time=0\n",
      "note_off channel=0 note=83 velocity=64 time=0\n",
      "note_off channel=0 note=91 velocity=64 time=0\n",
      "note_off channel=0 note=93 velocity=64 time=0\n",
      "note_off channel=0 note=53 velocity=64 time=1\n",
      "note_off channel=0 note=79 velocity=64 time=0\n",
      "note_off channel=0 note=89 velocity=64 time=0\n",
      "note_off channel=0 note=90 velocity=64 time=0\n",
      "note_on channel=0 note=91 velocity=65 time=0\n",
      "note_on channel=0 note=93 velocity=39 time=0\n",
      "note_off channel=0 note=95 velocity=64 time=0\n",
      "note_on channel=0 note=55 velocity=61 time=1\n",
      "note_off channel=0 note=66 velocity=64 time=0\n",
      "note_off channel=0 note=73 velocity=64 time=0\n",
      "note_on channel=0 note=74 velocity=49 time=0\n",
      "note_off channel=0 note=77 velocity=64 time=0\n",
      "note_on channel=0 note=78 velocity=54 time=0\n",
      "note_off channel=0 note=82 velocity=64 time=0\n",
      "note_on channel=0 note=83 velocity=32 time=0\n",
      "note_off channel=0 note=92 velocity=64 time=0\n",
      "note_on channel=0 note=82 velocity=37 time=1\n",
      "note_on channel=0 note=54 velocity=61 time=1\n",
      "note_off channel=0 note=55 velocity=64 time=0\n",
      "note_on channel=0 note=77 velocity=62 time=0\n",
      "note_on channel=0 note=92 velocity=46 time=0\n",
      "note_off channel=0 note=93 velocity=64 time=0\n",
      "note_on channel=0 note=73 velocity=58 time=1\n",
      "note_off channel=0 note=74 velocity=64 time=0\n",
      "note_off channel=0 note=78 velocity=64 time=0\n",
      "note_on channel=0 note=79 velocity=42 time=0\n",
      "note_off channel=0 note=83 velocity=64 time=0\n",
      "note_off channel=0 note=91 velocity=64 time=0\n",
      "note_on channel=0 note=95 velocity=34 time=0\n",
      "note_on channel=0 note=75 velocity=29 time=1\n",
      "note_on channel=0 note=81 velocity=41 time=0\n",
      "note_off channel=0 note=82 velocity=64 time=0\n",
      "note_off channel=0 note=88 velocity=64 time=0\n",
      "note_on channel=0 note=91 velocity=44 time=0\n",
      "note_on channel=0 note=53 velocity=57 time=1\n",
      "note_off channel=0 note=54 velocity=64 time=0\n",
      "note_off channel=0 note=86 velocity=64 time=0\n",
      "note_on channel=0 note=90 velocity=68 time=1\n",
      "note_off channel=0 note=53 velocity=64 time=1\n",
      "note_on channel=0 note=54 velocity=55 time=0\n",
      "note_off channel=0 note=79 velocity=64 time=0\n",
      "note_off channel=0 note=81 velocity=64 time=0\n",
      "note_on channel=0 note=82 velocity=41 time=0\n",
      "note_on channel=0 note=88 velocity=40 time=0\n",
      "note_off channel=0 note=91 velocity=64 time=0\n",
      "note_on channel=0 note=96 velocity=18 time=0\n",
      "note_on channel=0 note=67 velocity=51 time=1\n",
      "note_off channel=0 note=77 velocity=64 time=0\n",
      "note_on channel=0 note=78 velocity=64 time=0\n",
      "note_on channel=0 note=91 velocity=62 time=0\n",
      "note_off channel=0 note=92 velocity=64 time=0\n",
      "note_on channel=0 note=93 velocity=30 time=0\n",
      "note_off channel=0 note=95 velocity=64 time=0\n",
      "note_off channel=0 note=54 velocity=64 time=1\n",
      "note_on channel=0 note=55 velocity=55 time=0\n",
      "note_off channel=0 note=75 velocity=64 time=0\n",
      "note_off channel=0 note=80 velocity=64 time=0\n",
      "note_on channel=0 note=86 velocity=26 time=0\n",
      "note_on channel=0 note=92 velocity=37 time=0\n",
      "note_on channel=0 note=56 velocity=56 time=1\n",
      "note_off channel=0 note=67 velocity=64 time=0\n",
      "note_on channel=0 note=75 velocity=49 time=0\n",
      "note_on channel=0 note=84 velocity=43 time=0\n",
      "note_off channel=0 note=88 velocity=64 time=0\n",
      "note_off channel=0 note=93 velocity=64 time=0\n",
      "note_off channel=0 note=55 velocity=64 time=1\n",
      "note_off channel=0 note=73 velocity=64 time=0\n",
      "note_off channel=0 note=78 velocity=64 time=0\n",
      "note_on channel=0 note=81 velocity=50 time=0\n",
      "note_off channel=0 note=100 velocity=64 time=0\n",
      "note_off channel=0 note=56 velocity=64 time=1\n",
      "note_on channel=0 note=57 velocity=62 time=0\n",
      "note_off channel=0 note=75 velocity=64 time=0\n",
      "note_on channel=0 note=76 velocity=58 time=0\n",
      "note_off channel=0 note=82 velocity=64 time=0\n",
      "note_on channel=0 note=85 velocity=52 time=0\n",
      "note_off channel=0 note=91 velocity=64 time=0\n",
      "note_off channel=0 note=92 velocity=64 time=0\n",
      "note_on channel=0 note=95 velocity=27 time=0\n",
      "note_off channel=0 note=96 velocity=64 time=0\n",
      "note_on channel=0 note=79 velocity=30 time=1\n",
      "note_off channel=0 note=84 velocity=64 time=0\n",
      "note_on channel=0 note=91 velocity=73 time=0\n",
      "note_on channel=0 note=73 velocity=20 time=1\n",
      "note_off channel=0 note=86 velocity=64 time=0\n",
      "note_off channel=0 note=90 velocity=64 time=1\n",
      "note_off channel=0 note=101 velocity=64 time=0\n",
      "note_on channel=0 note=56 velocity=62 time=1\n",
      "note_off channel=0 note=57 velocity=64 time=0\n",
      "note_on channel=0 note=75 velocity=53 time=0\n",
      "note_off channel=0 note=79 velocity=64 time=0\n",
      "note_off channel=0 note=81 velocity=64 time=0\n",
      "note_on channel=0 note=83 velocity=54 time=0\n",
      "note_off channel=0 note=85 velocity=64 time=0\n",
      "note_on channel=0 note=90 velocity=52 time=0\n",
      "note_off channel=0 note=73 velocity=64 time=1\n",
      "note_off channel=0 note=76 velocity=64 time=0\n",
      "note_on channel=0 note=86 velocity=17 time=0\n",
      "note_on channel=0 note=89 velocity=56 time=0\n",
      "note_on channel=0 note=93 velocity=33 time=0\n",
      "note_on channel=0 note=55 velocity=62 time=1\n",
      "note_off channel=0 note=56 velocity=64 time=0\n",
      "note_on channel=0 note=74 velocity=55 time=0\n",
      "note_off channel=0 note=75 velocity=64 time=0\n",
      "note_on channel=0 note=85 velocity=45 time=0\n",
      "note_off channel=0 note=86 velocity=64 time=2\n",
      "note_off channel=0 note=90 velocity=64 time=0\n",
      "note_off channel=0 note=74 velocity=64 time=1\n",
      "note_on channel=0 note=75 velocity=59 time=0\n",
      "note_off channel=0 note=95 velocity=64 time=0\n",
      "note_off channel=0 note=55 velocity=64 time=1\n",
      "note_on channel=0 note=56 velocity=61 time=0\n",
      "note_on channel=0 note=77 velocity=14 time=0\n",
      "note_off channel=0 note=83 velocity=64 time=0\n",
      "note_on channel=0 note=84 velocity=53 time=0\n",
      "note_off channel=0 note=89 velocity=64 time=0\n",
      "note_on channel=0 note=90 velocity=58 time=0\n",
      "note_off channel=0 note=93 velocity=64 time=0\n",
      "note_on channel=0 note=94 velocity=26 time=0\n",
      "note_on channel=0 note=83 velocity=46 time=4\n",
      "note_on channel=0 note=55 velocity=69 time=1\n",
      "note_off channel=0 note=56 velocity=64 time=0\n",
      "note_off channel=0 note=84 velocity=64 time=0\n",
      "note_on channel=0 note=89 velocity=43 time=0\n",
      "note_on channel=0 note=74 velocity=43 time=1\n",
      "note_off channel=0 note=90 velocity=64 time=0\n",
      "note_on channel=0 note=93 velocity=27 time=0\n",
      "note_on channel=0 note=78 velocity=48 time=1\n",
      "note_on channel=0 note=82 velocity=42 time=0\n",
      "note_off channel=0 note=83 velocity=64 time=0\n",
      "note_on channel=0 note=88 velocity=36 time=0\n",
      "note_on channel=0 note=66 velocity=43 time=1\n",
      "note_on channel=0 note=73 velocity=60 time=0\n",
      "note_off channel=0 note=74 velocity=64 time=0\n",
      "note_off channel=0 note=89 velocity=64 time=0\n",
      "note_on channel=0 note=90 velocity=62 time=0\n",
      "note_on channel=0 note=54 velocity=62 time=1\n",
      "note_off channel=0 note=55 velocity=64 time=0\n",
      "note_off channel=0 note=75 velocity=64 time=0\n",
      "note_off channel=0 note=77 velocity=64 time=0\n",
      "note_off channel=0 note=87 velocity=64 time=0\n",
      "note_off channel=0 note=93 velocity=64 time=0\n",
      "note_on channel=0 note=75 velocity=11 time=2\n",
      "note_on channel=0 note=83 velocity=18 time=1\n",
      "note_on channel=0 note=87 velocity=25 time=0\n",
      "note_off channel=0 note=91 velocity=64 time=1\n",
      "note_off channel=0 note=88 velocity=64 time=1\n",
      "note_on channel=0 note=91 velocity=15 time=0\n",
      "note_off channel=0 note=87 velocity=64 time=1\n",
      "note_off channel=0 note=83 velocity=64 time=1\n",
      "note_on channel=0 note=87 velocity=33 time=0\n",
      "note_on channel=0 note=65 velocity=31 time=1\n",
      "note_off channel=0 note=66 velocity=64 time=0\n",
      "note_on channel=0 note=83 velocity=32 time=0\n",
      "note_off channel=0 note=91 velocity=64 time=0\n",
      "note_on channel=0 note=93 velocity=26 time=0\n",
      "note_off channel=0 note=94 velocity=64 time=0\n",
      "note_on channel=0 note=81 velocity=31 time=1\n",
      "note_off channel=0 note=82 velocity=64 time=0\n",
      "note_off channel=0 note=54 velocity=64 time=1\n",
      "note_off channel=0 note=65 velocity=64 time=0\n",
      "note_on channel=0 note=66 velocity=35 time=0\n",
      "note_off channel=0 note=75 velocity=64 time=0\n",
      "note_on channel=0 note=54 velocity=58 time=1\n",
      "note_off channel=0 note=78 velocity=64 time=2\n",
      "note_off channel=0 note=81 velocity=64 time=0\n",
      "note_on channel=0 note=82 velocity=32 time=0\n",
      "note_on channel=0 note=78 velocity=52 time=1\n",
      "note_off channel=0 note=93 velocity=64 time=0\n",
      "note_off channel=0 note=87 velocity=64 time=2\n",
      "note_on channel=0 note=87 velocity=41 time=3\n",
      "note_on channel=0 note=53 velocity=57 time=1\n",
      "note_off channel=0 note=54 velocity=64 time=0\n",
      "note_off channel=0 note=66 velocity=64 time=0\n",
      "note_off channel=0 note=82 velocity=64 time=0\n",
      "note_on channel=0 note=91 velocity=24 time=0\n",
      "note_on channel=0 note=93 velocity=22 time=0\n",
      "note_on channel=0 note=72 velocity=59 time=1\n",
      "note_off channel=0 note=73 velocity=64 time=0\n",
      "note_off channel=0 note=85 velocity=64 time=0\n",
      "note_on channel=0 note=89 velocity=54 time=0\n",
      "note_off channel=0 note=90 velocity=64 time=0\n",
      "note_on channel=0 note=66 velocity=43 time=1\n",
      "note_on channel=0 note=77 velocity=51 time=0\n",
      "note_off channel=0 note=78 velocity=64 time=0\n",
      "note_on channel=0 note=82 velocity=32 time=0\n",
      "note_off channel=0 note=53 velocity=64 time=1\n",
      "note_on channel=0 note=54 velocity=57 time=0\n",
      "note_off channel=0 note=72 velocity=64 time=0\n",
      "note_on channel=0 note=73 velocity=55 time=0\n",
      "note_off channel=0 note=83 velocity=64 time=0\n",
      "note_off channel=0 note=89 velocity=64 time=0\n",
      "note_on channel=0 note=90 velocity=47 time=0\n",
      "note_off channel=0 note=93 velocity=64 time=0\n",
      "note_on channel=0 note=83 velocity=36 time=1\n",
      "note_on channel=0 note=88 velocity=33 time=0\n",
      "note_off channel=0 note=77 velocity=64 time=1\n",
      "note_off channel=0 note=82 velocity=64 time=0\n",
      "note_off channel=0 note=91 velocity=64 time=0\n",
      "note_on channel=0 note=93 velocity=13 time=0\n",
      "note_off channel=0 note=54 velocity=64 time=1\n",
      "note_on channel=0 note=55 velocity=60 time=0\n",
      "note_off channel=0 note=66 velocity=64 time=0\n",
      "note_off channel=0 note=73 velocity=64 time=0\n",
      "note_on channel=0 note=74 velocity=36 time=0\n",
      "note_on channel=0 note=91 velocity=40 time=0\n",
      "note_on channel=0 note=73 velocity=51 time=3\n",
      "note_off channel=0 note=74 velocity=64 time=0\n",
      "note_on channel=0 note=78 velocity=31 time=0\n",
      "note_off channel=0 note=91 velocity=64 time=0\n",
      "note_on channel=0 note=54 velocity=59 time=1\n",
      "note_off channel=0 note=55 velocity=64 time=0\n",
      "note_off channel=0 note=83 velocity=64 time=0\n",
      "note_off channel=0 note=93 velocity=64 time=0\n",
      "note_on channel=0 note=65 velocity=30 time=1\n",
      "note_on channel=0 note=84 velocity=36 time=0\n",
      "note_off channel=0 note=88 velocity=64 time=0\n",
      "note_on channel=0 note=89 velocity=38 time=0\n",
      "note_off channel=0 note=90 velocity=64 time=0\n",
      "note_on channel=0 note=91 velocity=39 time=0\n",
      "note_off channel=0 note=54 velocity=64 time=1\n",
      "note_off channel=0 note=73 velocity=64 time=0\n",
      "note_off channel=0 note=78 velocity=64 time=0\n",
      "note_on channel=0 note=90 velocity=61 time=0\n",
      "note_on channel=0 note=52 velocity=58 time=1\n",
      "note_off channel=0 note=65 velocity=64 time=0\n",
      "note_on channel=0 note=71 velocity=40 time=0\n",
      "note_on channel=0 note=76 velocity=49 time=0\n",
      "note_on channel=0 note=83 velocity=58 time=0\n",
      "note_off channel=0 note=84 velocity=64 time=0\n",
      "note_off channel=0 note=91 velocity=64 time=0\n",
      "note_on channel=0 note=68 velocity=12 time=1\n",
      "note_on channel=0 note=78 velocity=23 time=0\n",
      "note_off channel=0 note=89 velocity=64 time=0\n",
      "note_on channel=0 note=93 velocity=29 time=0\n",
      "note_on channel=0 note=85 velocity=45 time=1\n",
      "note_off channel=0 note=87 velocity=64 time=0\n",
      "note_on channel=0 note=96 velocity=20 time=0\n",
      "note_off channel=0 note=71 velocity=64 time=1\n",
      "note_on channel=0 note=91 velocity=26 time=0\n",
      "note_on channel=0 note=71 velocity=21 time=1\n",
      "note_off channel=0 note=78 velocity=64 time=0\n",
      "note_on channel=0 note=75 velocity=38 time=2\n",
      "note_off channel=0 note=76 velocity=64 time=0\n",
      "note_off channel=0 note=71 velocity=64 time=2\n",
      "note_on channel=0 note=94 velocity=22 time=0\n",
      "note_on channel=0 note=51 velocity=49 time=1\n",
      "note_off channel=0 note=52 velocity=64 time=0\n",
      "note_off channel=0 note=75 velocity=64 time=0\n",
      "note_on channel=0 note=76 velocity=65 time=0\n",
      "note_on channel=0 note=101 velocity=23 time=0\n",
      "note_on channel=0 note=70 velocity=24 time=1\n",
      "note_on channel=0 note=87 velocity=30 time=0\n",
      "note_on channel=0 note=89 velocity=53 time=0\n",
      "note_off channel=0 note=90 velocity=64 time=0\n",
      "note_off channel=0 note=51 velocity=64 time=1\n",
      "note_on channel=0 note=52 velocity=46 time=0\n",
      "note_off channel=0 note=94 velocity=64 time=0\n",
      "note_off channel=0 note=89 velocity=64 time=1\n",
      "note_on channel=0 note=90 velocity=58 time=0\n",
      "note_off channel=0 note=52 velocity=64 time=1\n",
      "note_on channel=0 note=64 velocity=45 time=0\n",
      "note_off channel=0 note=70 velocity=64 time=0\n",
      "note_off channel=0 note=87 velocity=64 time=0\n",
      "note_on channel=0 note=52 velocity=64 time=1\n",
      "note_off channel=0 note=91 velocity=64 time=0\n",
      "note_off channel=0 note=85 velocity=64 time=2\n",
      "note_on channel=0 note=86 velocity=43 time=0\n",
      "note_on channel=0 note=71 velocity=45 time=1\n",
      "note_off channel=0 note=93 velocity=64 time=1\n",
      "note_on channel=0 note=94 velocity=30 time=0\n",
      "note_off channel=0 note=68 velocity=64 time=2\n",
      "note_off channel=0 note=96 velocity=64 time=0\n",
      "note_off channel=0 note=64 velocity=64 time=1\n",
      "note_on channel=0 note=65 velocity=38 time=0\n",
      "note_on channel=0 note=91 velocity=37 time=0\n",
      "note_on channel=0 note=96 velocity=11 time=0\n",
      "note_off channel=0 note=101 velocity=64 time=0\n",
      "note_off channel=0 note=71 velocity=64 time=1\n",
      "note_on channel=0 note=72 velocity=54 time=0\n",
      "note_off channel=0 note=76 velocity=64 time=0\n",
      "note_on channel=0 note=77 velocity=58 time=0\n",
      "note_on channel=0 note=81 velocity=34 time=0\n",
      "note_off channel=0 note=83 velocity=64 time=0\n",
      "note_on channel=0 note=87 velocity=43 time=0\n",
      "note_on channel=0 note=89 velocity=61 time=0\n",
      "note_off channel=0 note=90 velocity=64 time=0\n",
      "note_off channel=0 note=52 velocity=64 time=1\n",
      "note_on channel=0 note=53 velocity=62 time=0\n",
      "note_off channel=0 note=94 velocity=64 time=0\n",
      "note_on channel=0 note=95 velocity=19 time=0\n",
      "note_on channel=0 note=90 velocity=56 time=1\n",
      "note_off channel=0 note=53 velocity=64 time=1\n",
      "note_on channel=0 note=54 velocity=57 time=0\n",
      "note_off channel=0 note=65 velocity=64 time=0\n",
      "note_on channel=0 note=85 velocity=37 time=0\n",
      "note_off channel=0 note=86 velocity=64 time=0\n",
      "note_off channel=0 note=89 velocity=64 time=0\n",
      "note_off channel=0 note=91 velocity=64 time=0\n",
      "note_on channel=0 note=92 velocity=19 time=0\n",
      "note_off channel=0 note=96 velocity=64 time=0\n",
      "note_on channel=0 note=103 velocity=15 time=0\n",
      "note_off channel=0 note=72 velocity=64 time=1\n",
      "note_on channel=0 note=73 velocity=59 time=0\n",
      "note_off channel=0 note=81 velocity=64 time=0\n",
      "note_on channel=0 note=82 velocity=31 time=0\n",
      "note_on channel=0 note=75 velocity=25 time=1\n",
      "note_off channel=0 note=77 velocity=64 time=0\n",
      "note_on channel=0 note=78 velocity=46 time=0\n",
      "note_on channel=0 note=88 velocity=13 time=0\n",
      "note_on channel=0 note=53 velocity=61 time=1\n",
      "note_off channel=0 note=54 velocity=64 time=0\n",
      "note_on channel=0 note=81 velocity=32 time=1\n",
      "note_off channel=0 note=82 velocity=64 time=0\n",
      "note_off channel=0 note=53 velocity=64 time=1\n",
      "note_on channel=0 note=65 velocity=32 time=0\n",
      "note_on channel=0 note=84 velocity=34 time=0\n",
      "note_off channel=0 note=85 velocity=64 time=0\n",
      "note_off channel=0 note=88 velocity=64 time=0\n",
      "note_off channel=0 note=103 velocity=64 time=0\n",
      "note_on channel=0 note=53 velocity=67 time=1\n",
      "note_on channel=0 note=72 velocity=54 time=0\n",
      "note_off channel=0 note=73 velocity=64 time=0\n",
      "note_on channel=0 note=89 velocity=37 time=0\n",
      "note_on channel=0 note=91 velocity=34 time=0\n",
      "note_on channel=0 note=77 velocity=48 time=1\n",
      "note_off channel=0 note=78 velocity=64 time=0\n",
      "note_off channel=0 note=90 velocity=64 time=0\n",
      "note_off channel=0 note=92 velocity=64 time=0\n",
      "note_off channel=0 note=95 velocity=64 time=0\n",
      "note_off channel=0 note=65 velocity=64 time=1\n",
      "note_off channel=0 note=75 velocity=64 time=0\n",
      "note_on channel=0 note=80 velocity=20 time=0\n",
      "note_off channel=0 note=84 velocity=64 time=0\n",
      "note_on channel=0 note=86 velocity=19 time=0\n",
      "note_off channel=0 note=89 velocity=64 time=0\n",
      "note_on channel=0 note=90 velocity=16 time=0\n",
      "note_off channel=0 note=53 velocity=64 time=1\n",
      "note_on channel=0 note=75 velocity=35 time=0\n",
      "note_off channel=0 note=77 velocity=64 time=0\n",
      "note_off channel=0 note=81 velocity=64 time=0\n",
      "note_on channel=0 note=82 velocity=29 time=0\n",
      "note_off channel=0 note=72 velocity=64 time=1\n",
      "note_on channel=0 note=69 velocity=19 time=1\n",
      "note_off channel=0 note=80 velocity=64 time=0\n",
      "note_on channel=0 note=84 velocity=19 time=0\n",
      "note_on channel=0 note=80 velocity=34 time=1\n",
      "note_off channel=0 note=86 velocity=64 time=0\n",
      "note_on channel=0 note=88 velocity=56 time=0\n",
      "note_off channel=0 note=90 velocity=64 time=0\n",
      "note_on channel=0 note=50 velocity=72 time=1\n",
      "note_on channel=0 note=63 velocity=33 time=0\n",
      "note_on channel=0 note=79 velocity=20 time=0\n",
      "note_on channel=0 note=90 velocity=58 time=0\n",
      "note_off channel=0 note=50 velocity=64 time=1\n",
      "note_on channel=0 note=51 velocity=73 time=0\n",
      "note_off channel=0 note=69 velocity=64 time=0\n",
      "note_on channel=0 note=85 velocity=59 time=0\n",
      "note_on channel=0 note=78 velocity=21 time=1\n",
      "note_on channel=0 note=93 velocity=34 time=0\n",
      "note_off channel=0 note=51 velocity=64 time=1\n",
      "note_on channel=0 note=52 velocity=57 time=0\n",
      "note_off channel=0 note=63 velocity=64 time=0\n",
      "note_on channel=0 note=71 velocity=28 time=0\n",
      "note_off channel=0 note=79 velocity=64 time=0\n",
      "note_on channel=0 note=83 velocity=55 time=0\n",
      "note_on channel=0 note=76 velocity=53 time=1\n",
      "note_off channel=0 note=82 velocity=64 time=0\n",
      "note_on channel=0 note=101 velocity=49 time=0\n",
      "note_off channel=0 note=52 velocity=64 time=1\n",
      "note_off channel=0 note=75 velocity=64 time=0\n",
      "note_on channel=0 note=52 velocity=62 time=1\n",
      "note_off channel=0 note=80 velocity=64 time=0\n",
      "note_off channel=0 note=87 velocity=64 time=0\n",
      "note_on channel=0 note=96 velocity=23 time=0\n",
      "note_on channel=0 note=80 velocity=41 time=1\n",
      "note_off channel=0 note=84 velocity=64 time=0\n",
      "note_off channel=0 note=78 velocity=64 time=1\n",
      "note_on channel=0 note=78 velocity=20 time=1\n",
      "note_off channel=0 note=85 velocity=64 time=0\n",
      "note_on channel=0 note=86 velocity=56 time=0\n",
      "note_on channel=0 note=84 velocity=13 time=3\n",
      "note_on channel=0 note=85 velocity=51 time=0\n",
      "note_off channel=0 note=86 velocity=64 time=0\n",
      "note_off channel=0 note=91 velocity=64 time=0\n",
      "note_off channel=0 note=78 velocity=64 time=1\n",
      "note_on channel=0 note=91 velocity=42 time=0\n",
      "note_on channel=0 note=75 velocity=42 time=3\n",
      "note_off channel=0 note=76 velocity=64 time=0\n",
      "note_off channel=0 note=52 velocity=64 time=1\n",
      "note_on channel=0 note=52 velocity=48 time=1\n",
      "note_on channel=0 note=70 velocity=41 time=0\n",
      "note_off channel=0 note=71 velocity=64 time=0\n",
      "note_on channel=0 note=94 velocity=25 time=0\n",
      "note_on channel=0 note=63 velocity=49 time=1\n",
      "note_off channel=0 note=75 velocity=64 time=0\n",
      "note_on channel=0 note=76 velocity=46 time=0\n",
      "note_on channel=0 note=82 velocity=45 time=0\n",
      "note_off channel=0 note=83 velocity=64 time=0\n",
      "note_on channel=0 note=87 velocity=65 time=0\n",
      "note_off channel=0 note=88 velocity=64 time=0\n",
      "note_on channel=0 note=89 velocity=59 time=0\n",
      "note_off channel=0 note=90 velocity=64 time=0\n",
      "note_on channel=0 note=100 velocity=24 time=0\n",
      "note_on channel=0 note=51 velocity=44 time=1\n",
      "note_off channel=0 note=52 velocity=64 time=0\n",
      "note_on channel=0 note=75 velocity=60 time=1\n",
      "note_off channel=0 note=76 velocity=64 time=0\n",
      "note_on channel=0 note=79 velocity=29 time=1\n",
      "note_off channel=0 note=82 velocity=64 time=0\n",
      "note_on channel=0 note=83 velocity=32 time=0\n",
      "note_off channel=0 note=80 velocity=64 time=1\n",
      "note_off channel=0 note=84 velocity=64 time=0\n",
      "note_on channel=0 note=80 velocity=26 time=1\n",
      "note_on channel=0 note=82 velocity=49 time=0\n",
      "note_off channel=0 note=83 velocity=64 time=0\n",
      "note_on channel=0 note=95 velocity=22 time=0\n",
      "note_off channel=0 note=96 velocity=64 time=0\n",
      "note_on channel=0 note=50 velocity=47 time=1\n",
      "note_off channel=0 note=51 velocity=64 time=0\n",
      "note_off channel=0 note=79 velocity=64 time=0\n",
      "note_on channel=0 note=86 velocity=51 time=0\n",
      "note_on channel=0 note=92 velocity=35 time=0\n",
      "note_off channel=0 note=93 velocity=64 time=0\n",
      "note_on channel=0 note=84 velocity=65 time=2\n",
      "note_off channel=0 note=85 velocity=64 time=0\n",
      "note_off channel=0 note=50 velocity=64 time=1\n",
      "note_on channel=0 note=51 velocity=57 time=0\n",
      "note_on channel=0 note=79 velocity=34 time=0\n",
      "note_on channel=0 note=90 velocity=56 time=2\n",
      "note_off channel=0 note=100 velocity=64 time=0\n",
      "note_on channel=0 note=62 velocity=43 time=1\n",
      "note_off channel=0 note=63 velocity=64 time=0\n",
      "note_on channel=0 note=78 velocity=60 time=0\n",
      "note_off channel=0 note=79 velocity=64 time=0\n",
      "note_on channel=0 note=88 velocity=67 time=0\n",
      "note_off channel=0 note=89 velocity=64 time=0\n",
      "note_off channel=0 note=91 velocity=64 time=0\n",
      "note_on channel=0 note=69 velocity=48 time=1\n",
      "note_off channel=0 note=70 velocity=64 time=0\n",
      "note_on channel=0 note=74 velocity=59 time=0\n",
      "note_off channel=0 note=75 velocity=64 time=0\n",
      "note_on channel=0 note=91 velocity=17 time=0\n",
      "note_on channel=0 note=93 velocity=38 time=0\n",
      "note_off channel=0 note=94 velocity=64 time=0\n",
      "note_on channel=0 note=50 velocity=61 time=1\n",
      "note_off channel=0 note=51 velocity=64 time=0\n",
      "note_off channel=0 note=82 velocity=64 time=0\n",
      "note_off channel=0 note=87 velocity=64 time=1\n",
      "note_on channel=0 note=87 velocity=22 time=1\n",
      "note_on channel=0 note=82 velocity=34 time=1\n",
      "note_off channel=0 note=91 velocity=64 time=0\n",
      "note_on channel=0 note=103 velocity=21 time=0\n",
      "note_off channel=0 note=80 velocity=64 time=2\n",
      "note_off channel=0 note=95 velocity=64 time=0\n",
      "note_on channel=0 note=91 velocity=35 time=2\n",
      "note_off channel=0 note=92 velocity=64 time=0\n",
      "note_off channel=0 note=87 velocity=64 time=3\n",
      "note_off channel=0 note=74 velocity=64 time=1\n",
      "note_on channel=0 note=97 velocity=15 time=0\n",
      "note_on channel=0 note=83 velocity=65 time=1\n",
      "note_off channel=0 note=84 velocity=64 time=0\n",
      "note_off channel=0 note=103 velocity=64 time=0\n",
      "note_on channel=0 note=96 velocity=29 time=1\n",
      "note_off channel=0 note=83 velocity=64 time=1\n",
      "note_on channel=0 note=84 velocity=66 time=0\n",
      "note_on channel=0 note=74 velocity=53 time=2\n",
      "note_on channel=0 note=80 velocity=24 time=2\n",
      "note_off channel=0 note=97 velocity=64 time=0\n",
      "note_on channel=0 note=92 velocity=25 time=1\n",
      "note_off channel=0 note=91 velocity=64 time=1\n",
      "note_off channel=0 note=80 velocity=64 time=2\n",
      "note_on channel=0 note=91 velocity=15 time=0\n",
      "note_on channel=0 note=95 velocity=25 time=0\n",
      "note_off channel=0 note=91 velocity=64 time=3\n",
      "note_off channel=0 note=95 velocity=64 time=0\n",
      "note_on channel=0 note=87 velocity=26 time=2\n",
      "note_off channel=0 note=82 velocity=64 time=2\n",
      "note_on channel=0 note=94 velocity=28 time=1\n",
      "note_on channel=0 note=91 velocity=47 time=2\n",
      "note_off channel=0 note=92 velocity=64 time=0\n",
      "note_on channel=0 note=82 velocity=23 time=1\n",
      "note_on channel=0 note=95 velocity=25 time=3\n",
      "note_off channel=0 note=74 velocity=64 time=1\n",
      "note_on channel=0 note=75 velocity=30 time=0\n",
      "note_on channel=0 note=97 velocity=19 time=1\n",
      "note_off channel=0 note=96 velocity=64 time=1\n",
      "note_on channel=0 note=83 velocity=62 time=1\n",
      "note_off channel=0 note=84 velocity=64 time=0\n",
      "note_on channel=0 note=74 velocity=48 time=1\n",
      "note_off channel=0 note=75 velocity=64 time=1\n",
      "note_off channel=0 note=82 velocity=64 time=0\n",
      "note_off channel=0 note=87 velocity=64 time=0\n",
      "note_off channel=0 note=90 velocity=64 time=0\n",
      "note_on channel=0 note=96 velocity=17 time=0\n",
      "note_off channel=0 note=97 velocity=64 time=0\n",
      "note_on channel=0 note=82 velocity=38 time=1\n",
      "note_on channel=0 note=80 velocity=40 time=1\n",
      "note_off channel=0 note=83 velocity=64 time=0\n",
      "note_on channel=0 note=84 velocity=61 time=0\n",
      "note_off channel=0 note=94 velocity=64 time=0\n",
      "note_off channel=0 note=62 velocity=64 time=2\n",
      "note_on channel=0 note=63 velocity=46 time=0\n",
      "note_on channel=0 note=87 velocity=54 time=0\n",
      "note_on channel=0 note=89 velocity=60 time=0\n",
      "note_off channel=0 note=50 velocity=64 time=1\n",
      "note_off channel=0 note=69 velocity=64 time=0\n",
      "note_on channel=0 note=70 velocity=30 time=0\n",
      "note_off channel=0 note=74 velocity=64 time=0\n",
      "note_on channel=0 note=75 velocity=58 time=0\n",
      "note_on channel=0 note=85 velocity=45 time=0\n",
      "note_on channel=0 note=52 velocity=38 time=1\n",
      "note_off channel=0 note=78 velocity=64 time=0\n",
      "note_off channel=0 note=84 velocity=64 time=0\n",
      "note_off channel=0 note=86 velocity=64 time=0\n",
      "note_off channel=0 note=70 velocity=64 time=1\n",
      "note_on channel=0 note=84 velocity=16 time=0\n",
      "note_off channel=0 note=95 velocity=64 time=0\n",
      "note_on channel=0 note=51 velocity=45 time=1\n",
      "note_off channel=0 note=52 velocity=64 time=0\n",
      "note_on channel=0 note=83 velocity=38 time=0\n",
      "note_off channel=0 note=89 velocity=64 time=0\n",
      "note_on channel=0 note=90 velocity=62 time=0\n",
      "note_on channel=0 note=70 velocity=37 time=1\n",
      "note_on channel=0 note=78 velocity=29 time=0\n",
      "note_off channel=0 note=82 velocity=64 time=0\n",
      "note_off channel=0 note=88 velocity=64 time=0\n",
      "note_off channel=0 note=51 velocity=64 time=1\n",
      "note_on channel=0 note=52 velocity=39 time=0\n",
      "note_on channel=0 note=82 velocity=48 time=0\n",
      "note_off channel=0 note=83 velocity=64 time=0\n",
      "note_off channel=0 note=78 velocity=64 time=1\n",
      "note_on channel=0 note=79 velocity=33 time=0\n",
      "note_off channel=0 note=84 velocity=64 time=0\n",
      "note_on channel=0 note=89 velocity=61 time=0\n",
      "note_off channel=0 note=52 velocity=64 time=1\n",
      "note_on channel=0 note=78 velocity=27 time=0\n",
      "note_off channel=0 note=90 velocity=64 time=0\n",
      "note_off channel=0 note=96 velocity=64 time=0\n",
      "note_on channel=0 note=72 velocity=9 time=1\n",
      "note_on channel=0 note=86 velocity=29 time=0\n",
      "note_on channel=0 note=90 velocity=58 time=0\n",
      "note_off channel=0 note=93 velocity=64 time=1\n",
      "note_on channel=0 note=51 velocity=44 time=1\n",
      "note_off channel=0 note=79 velocity=64 time=0\n",
      "note_off channel=0 note=72 velocity=64 time=1\n",
      "note_on channel=0 note=79 velocity=40 time=0\n",
      "note_on channel=0 note=84 velocity=59 time=0\n",
      "note_off channel=0 note=85 velocity=64 time=0\n",
      "note_off channel=0 note=78 velocity=64 time=1\n",
      "note_off channel=0 note=51 velocity=64 time=4\n",
      "note_off channel=0 note=79 velocity=64 time=0\n",
      "note_on channel=0 note=51 velocity=47 time=1\n",
      "note_on channel=0 note=62 velocity=40 time=0\n",
      "note_off channel=0 note=63 velocity=64 time=0\n",
      "note_on channel=0 note=69 velocity=42 time=1\n",
      "note_off channel=0 note=70 velocity=64 time=0\n",
      "note_on channel=0 note=78 velocity=52 time=0\n",
      "note_on channel=0 note=88 velocity=63 time=0\n",
      "note_off channel=0 note=91 velocity=64 time=0\n",
      "note_on channel=0 note=74 velocity=53 time=1\n",
      "note_off channel=0 note=89 velocity=64 time=0\n",
      "note_on channel=0 note=91 velocity=21 time=0\n",
      "note_on channel=0 note=93 velocity=26 time=0\n",
      "note_on channel=0 note=50 velocity=54 time=1\n",
      "note_off channel=0 note=51 velocity=64 time=0\n",
      "note_off channel=0 note=75 velocity=64 time=0\n",
      "note_off channel=0 note=86 velocity=64 time=1\n",
      "note_off channel=0 note=82 velocity=64 time=1\n",
      "note_off channel=0 note=87 velocity=64 time=0\n",
      "note_on channel=0 note=82 velocity=35 time=1\n",
      "note_off channel=0 note=91 velocity=64 time=0\n",
      "note_on channel=0 note=97 velocity=12 time=5\n",
      "note_on channel=0 note=87 velocity=19 time=1\n",
      "note_on channel=0 note=91 velocity=20 time=1\n",
      "note_off channel=0 note=97 velocity=64 time=1\n",
      "note_on channel=0 note=95 velocity=16 time=2\n",
      "note_off channel=0 note=95 velocity=64 time=3\n",
      "note_off channel=0 note=91 velocity=64 time=2\n",
      "note_off channel=0 note=80 velocity=64 time=1\n",
      "note_on channel=0 note=91 velocity=18 time=0\n",
      "note_off channel=0 note=91 velocity=64 time=3\n",
      "note_off channel=0 note=87 velocity=64 time=1\n",
      "note_on channel=0 note=91 velocity=20 time=0\n",
      "note_on channel=0 note=95 velocity=33 time=5\n",
      "note_on channel=0 note=80 velocity=20 time=3\n",
      "note_on channel=0 note=92 velocity=21 time=0\n",
      "note_on channel=0 note=85 velocity=16 time=1\n",
      "note_off channel=0 note=80 velocity=64 time=6\n",
      "note_off channel=0 note=91 velocity=64 time=4\n",
      "note_off channel=0 note=85 velocity=64 time=1\n",
      "note_on channel=0 note=91 velocity=39 time=0\n",
      "note_on channel=0 note=85 velocity=15 time=1\n",
      "note_off channel=0 note=92 velocity=64 time=0\n",
      "note_on channel=0 note=92 velocity=16 time=1\n",
      "note_off channel=0 note=85 velocity=64 time=3\n",
      "note_on channel=0 note=75 velocity=13 time=2\n",
      "note_off channel=0 note=74 velocity=64 time=1\n",
      "note_on channel=0 note=85 velocity=15 time=0\n",
      "note_off channel=0 note=75 velocity=64 time=2\n",
      "note_off channel=0 note=95 velocity=64 time=0\n",
      "note_on channel=0 note=86 velocity=44 time=1\n",
      "note_off channel=0 note=85 velocity=64 time=1\n",
      "note_off channel=0 note=82 velocity=64 time=5\n",
      "note_on channel=0 note=83 velocity=56 time=0\n",
      "note_off channel=0 note=84 velocity=64 time=1\n",
      "note_on channel=0 note=89 velocity=54 time=3\n",
      "note_off channel=0 note=90 velocity=64 time=0\n",
      "note_off channel=0 note=92 velocity=64 time=0\n",
      "note_on channel=0 note=61 velocity=50 time=1\n",
      "note_off channel=0 note=62 velocity=64 time=0\n",
      "note_on channel=0 note=68 velocity=29 time=0\n",
      "note_off channel=0 note=69 velocity=64 time=0\n",
      "note_on channel=0 note=75 velocity=29 time=0\n",
      "note_on channel=0 note=80 velocity=29 time=0\n",
      "note_on channel=0 note=87 velocity=41 time=0\n",
      "note_on channel=0 note=92 velocity=36 time=0\n",
      "note_off channel=0 note=93 velocity=64 time=0\n",
      "note_on channel=0 note=102 velocity=24 time=0\n",
      "note_on channel=0 note=49 velocity=57 time=1\n",
      "note_off channel=0 note=50 velocity=64 time=0\n",
      "note_on channel=0 note=77 velocity=51 time=0\n",
      "note_off channel=0 note=78 velocity=64 time=0\n",
      "note_on channel=0 note=85 velocity=42 time=0\n",
      "note_off channel=0 note=86 velocity=64 time=0\n",
      "note_off channel=0 note=88 velocity=64 time=0\n",
      "note_on channel=0 note=88 velocity=44 time=2\n",
      "note_on channel=0 note=82 velocity=30 time=1\n",
      "note_off channel=0 note=49 velocity=64 time=1\n",
      "note_on channel=0 note=50 velocity=57 time=0\n",
      "note_off channel=0 note=68 velocity=64 time=0\n",
      "note_on channel=0 note=69 velocity=36 time=0\n",
      "note_off channel=0 note=80 velocity=64 time=0\n",
      "note_off channel=0 note=85 velocity=64 time=0\n",
      "note_on channel=0 note=86 velocity=34 time=0\n",
      "note_on channel=0 note=90 velocity=48 time=0\n",
      "note_off channel=0 note=61 velocity=64 time=1\n",
      "note_on channel=0 note=74 velocity=46 time=0\n",
      "note_off channel=0 note=83 velocity=64 time=0\n",
      "note_on channel=0 note=84 velocity=44 time=0\n",
      "note_off channel=0 note=75 velocity=64 time=1\n",
      "note_on channel=0 note=78 velocity=37 time=0\n",
      "note_off channel=0 note=91 velocity=64 time=0\n",
      "note_on channel=0 note=95 velocity=13 time=0\n",
      "note_off channel=0 note=77 velocity=64 time=1\n",
      "note_off channel=0 note=82 velocity=64 time=1\n",
      "note_off channel=0 note=87 velocity=64 time=0\n",
      "note_off channel=0 note=89 velocity=64 time=0\n",
      "note_off channel=0 note=69 velocity=64 time=1\n",
      "note_on channel=0 note=80 velocity=12 time=0\n",
      "note_on channel=0 note=85 velocity=14 time=0\n",
      "note_off channel=0 note=86 velocity=64 time=0\n",
      "note_on channel=0 note=89 velocity=24 time=0\n",
      "note_on channel=0 note=69 velocity=38 time=1\n",
      "note_on channel=0 note=82 velocity=30 time=0\n",
      "note_on channel=0 note=87 velocity=24 time=1\n",
      "note_off channel=0 note=92 velocity=64 time=0\n",
      "note_off channel=0 note=80 velocity=64 time=1\n",
      "note_off channel=0 note=89 velocity=64 time=0\n",
      "note_off channel=0 note=95 velocity=64 time=0\n",
      "note_off channel=0 note=101 velocity=64 time=0\n",
      "note_on channel=0 note=91 velocity=37 time=1\n",
      "note_on channel=0 note=83 velocity=43 time=1\n",
      "note_off channel=0 note=84 velocity=64 time=0\n",
      "note_on channel=0 note=73 velocity=44 time=1\n",
      "note_off channel=0 note=85 velocity=64 time=0\n",
      "note_on channel=0 note=89 velocity=51 time=0\n",
      "note_off channel=0 note=90 velocity=64 time=0\n",
      "note_on channel=0 note=61 velocity=49 time=1\n",
      "note_off channel=0 note=74 velocity=64 time=0\n",
      "note_off channel=0 note=82 velocity=64 time=0\n",
      "note_on channel=0 note=92 velocity=24 time=0\n",
      "note_on channel=0 note=94 velocity=25 time=0\n",
      "note_on channel=0 note=49 velocity=59 time=1\n",
      "note_off channel=0 note=50 velocity=64 time=0\n",
      "note_on channel=0 note=68 velocity=35 time=0\n",
      "note_off channel=0 note=69 velocity=64 time=0\n",
      "note_on channel=0 note=77 velocity=32 time=0\n",
      "note_off channel=0 note=78 velocity=64 time=0\n",
      "note_off channel=0 note=88 velocity=64 time=0\n",
      "note_on channel=0 note=75 velocity=27 time=1\n",
      "note_on channel=0 note=80 velocity=37 time=0\n",
      "note_off channel=0 note=87 velocity=64 time=0\n",
      "note_on channel=0 note=87 velocity=37 time=1\n",
      "note_on channel=0 note=93 velocity=26 time=4\n",
      "note_off channel=0 note=94 velocity=64 time=0\n",
      "note_off channel=0 note=92 velocity=64 time=3\n",
      "note_on channel=0 note=90 velocity=37 time=5\n",
      "note_off channel=0 note=102 velocity=64 time=0\n",
      "note_off channel=0 note=90 velocity=64 time=4\n",
      "note_off channel=0 note=80 velocity=64 time=3\n",
      "note_on channel=0 note=80 velocity=39 time=4\n",
      "note_off channel=0 note=93 velocity=64 time=1\n",
      "note_on channel=0 note=94 velocity=10 time=0\n",
      "note_off channel=0 note=94 velocity=64 time=4\n",
      "note_on channel=0 note=90 velocity=27 time=1\n",
      "note_off channel=0 note=75 velocity=64 time=2\n",
      "note_off channel=0 note=90 velocity=64 time=4\n",
      "note_off channel=0 note=73 velocity=64 time=2\n",
      "note_off channel=0 note=83 velocity=64 time=5\n",
      "note_on channel=0 note=83 velocity=14 time=5\n",
      "note_off channel=0 note=87 velocity=64 time=1\n",
      "note_on channel=0 note=87 velocity=21 time=4\n",
      "note_off channel=0 note=83 velocity=64 time=2\n",
      "note_on channel=0 note=90 velocity=21 time=9\n",
      "note_on channel=0 note=75 velocity=27 time=1\n",
      "note_off channel=0 note=77 velocity=64 time=1\n",
      "note_on channel=0 note=83 velocity=22 time=0\n",
      "note_off channel=0 note=91 velocity=64 time=0\n",
      "note_off channel=0 note=87 velocity=64 time=4\n",
      "note_off channel=0 note=83 velocity=64 time=5\n",
      "note_off channel=0 note=89 velocity=64 time=2\n",
      "note_off channel=0 note=80 velocity=64 time=3\n",
      "note_on channel=0 note=91 velocity=25 time=1\n",
      "note_on channel=0 note=83 velocity=19 time=1\n",
      "note_off channel=0 note=90 velocity=64 time=3\n",
      "note_on channel=0 note=90 velocity=20 time=2\n",
      "note_on channel=0 note=78 velocity=21 time=1\n",
      "note_on channel=0 note=82 velocity=31 time=0\n",
      "note_off channel=0 note=83 velocity=64 time=0\n",
      "note_on channel=0 note=87 velocity=39 time=2\n",
      "note_on channel=0 note=88 velocity=43 time=1\n",
      "note_on channel=0 note=84 velocity=28 time=4\n",
      "note_on channel=0 note=86 velocity=36 time=0\n",
      "note_off channel=0 note=75 velocity=64 time=2\n",
      "note_off channel=0 note=78 velocity=64 time=0\n",
      "note_on channel=0 note=78 velocity=28 time=1\n",
      "note_off channel=0 note=90 velocity=64 time=5\n",
      "note_off channel=0 note=78 velocity=64 time=2\n",
      "note_on channel=0 note=78 velocity=27 time=1\n",
      "note_on channel=0 note=77 velocity=26 time=2\n",
      "note_off channel=0 note=78 velocity=64 time=2\n",
      "note_on channel=0 note=78 velocity=20 time=1\n",
      "note_off channel=0 note=77 velocity=64 time=1\n",
      "note_on channel=0 note=75 velocity=29 time=1\n",
      "note_on channel=0 note=77 velocity=19 time=1\n",
      "note_off channel=0 note=78 velocity=64 time=1\n",
      "note_on channel=0 note=78 velocity=26 time=1\n",
      "note_off channel=0 note=77 velocity=64 time=1\n",
      "note_off channel=0 note=91 velocity=64 time=4\n",
      "note_on channel=0 note=91 velocity=11 time=8\n",
      "note_on channel=0 note=90 velocity=34 time=1\n",
      "note_off channel=0 note=86 velocity=64 time=2\n",
      "note_off channel=0 note=87 velocity=64 time=1\n",
      "note_on channel=0 note=77 velocity=32 time=3\n",
      "note_off channel=0 note=75 velocity=64 time=1\n",
      "note_off channel=0 note=78 velocity=64 time=0\n",
      "note_off channel=0 note=91 velocity=64 time=0\n",
      "note_on channel=0 note=78 velocity=32 time=1\n",
      "note_off channel=0 note=77 velocity=64 time=1\n",
      "note_on channel=0 note=86 velocity=28 time=1\n",
      "note_on channel=0 note=75 velocity=23 time=5\n",
      "note_on channel=0 note=91 velocity=18 time=1\n",
      "note_on channel=0 note=87 velocity=31 time=1\n",
      "note_off channel=0 note=84 velocity=64 time=2\n",
      "note_on channel=0 note=93 velocity=10 time=0\n",
      "note_off channel=0 note=68 velocity=64 time=2\n",
      "note_on channel=0 note=95 velocity=20 time=1\n",
      "note_off channel=0 note=78 velocity=64 time=4\n",
      "note_on channel=0 note=83 velocity=36 time=1\n",
      "note_off channel=0 note=82 velocity=64 time=1\n",
      "note_on channel=0 note=84 velocity=27 time=1\n",
      "note_off channel=0 note=93 velocity=64 time=0\n",
      "note_on channel=0 note=77 velocity=17 time=1\n",
      "note_on channel=0 note=80 velocity=34 time=0\n",
      "note_off channel=0 note=86 velocity=64 time=0\n",
      "note_on channel=0 note=78 velocity=21 time=4\n",
      "note_off channel=0 note=77 velocity=64 time=1\n",
      "note_on channel=0 note=85 velocity=21 time=0\n",
      "note_off channel=0 note=85 velocity=64 time=3\n",
      "note_on channel=0 note=86 velocity=32 time=2\n",
      "note_on channel=0 note=93 velocity=26 time=0\n",
      "note_on channel=0 note=82 velocity=38 time=2\n",
      "note_off channel=0 note=86 velocity=64 time=0\n",
      "note_on channel=0 note=86 velocity=37 time=1\n",
      "note_off channel=0 note=91 velocity=64 time=0\n",
      "note_off channel=0 note=83 velocity=64 time=1\n",
      "note_off channel=0 note=87 velocity=64 time=2\n",
      "note_off channel=0 note=78 velocity=64 time=2\n",
      "note_on channel=0 note=78 velocity=19 time=1\n",
      "note_off channel=0 note=75 velocity=64 time=2\n",
      "note_on channel=0 note=87 velocity=20 time=0\n",
      "note_on channel=0 note=91 velocity=23 time=1\n",
      "note_off channel=0 note=95 velocity=64 time=1\n",
      "note_off channel=0 note=78 velocity=64 time=8\n",
      "note_on channel=0 note=85 velocity=18 time=2\n",
      "note_off channel=0 note=86 velocity=64 time=0\n",
      "note_on channel=0 note=68 velocity=10 time=1\n",
      "note_on channel=0 note=75 velocity=18 time=2\n",
      "note_off channel=0 note=91 velocity=64 time=1\n",
      "note_on channel=0 note=91 velocity=17 time=1\n",
      "note_on channel=0 note=95 velocity=32 time=6\n",
      "note_off channel=0 note=68 velocity=64 time=2\n",
      "note_on channel=0 note=83 velocity=22 time=0\n",
      "note_off channel=0 note=82 velocity=64 time=1\n",
      "note_off channel=0 note=84 velocity=64 time=0\n",
      "note_on channel=0 note=82 velocity=26 time=2\n",
      "note_off channel=0 note=85 velocity=64 time=0\n",
      "note_off channel=0 note=83 velocity=64 time=1\n",
      "note_off channel=0 note=75 velocity=64 time=1\n",
      "note_on channel=0 note=83 velocity=29 time=0\n",
      "note_off channel=0 note=82 velocity=64 time=1\n",
      "note_on channel=0 note=77 velocity=14 time=1\n",
      "note_off channel=0 note=61 velocity=64 time=2\n",
      "note_on channel=0 note=82 velocity=40 time=0\n",
      "note_off channel=0 note=83 velocity=64 time=0\n",
      "note_off channel=0 note=87 velocity=64 time=0\n",
      "note_off channel=0 note=77 velocity=64 time=2\n",
      "note_on channel=0 note=86 velocity=10 time=0\n",
      "note_off channel=0 note=80 velocity=64 time=1\n",
      "note_on channel=0 note=78 velocity=19 time=2\n",
      "note_off channel=0 note=91 velocity=64 time=0\n",
      "note_on channel=0 note=91 velocity=10 time=1\n",
      "note_on channel=0 note=75 velocity=23 time=1\n",
      "note_on channel=0 note=77 velocity=21 time=1\n",
      "note_off channel=0 note=49 velocity=64 time=1\n",
      "note_on channel=0 note=50 velocity=28 time=0\n",
      "note_off channel=0 note=78 velocity=64 time=0\n",
      "note_off channel=0 note=91 velocity=64 time=1\n",
      "note_off channel=0 note=77 velocity=64 time=1\n",
      "note_on channel=0 note=91 velocity=28 time=0\n",
      "note_on channel=0 note=77 velocity=20 time=1\n",
      "note_off channel=0 note=86 velocity=64 time=0\n",
      "note_off channel=0 note=50 velocity=64 time=1\n",
      "note_on channel=0 note=83 velocity=40 time=0\n",
      "note_off channel=0 note=82 velocity=64 time=1\n",
      "note_on channel=0 note=85 velocity=22 time=0\n",
      "note_on channel=0 note=92 velocity=24 time=2\n",
      "note_on channel=0 note=80 velocity=35 time=2\n",
      "note_off channel=0 note=77 velocity=64 time=1\n",
      "note_on channel=0 note=82 velocity=29 time=6\n",
      "note_off channel=0 note=82 velocity=64 time=2\n",
      "note_on channel=0 note=82 velocity=33 time=1\n",
      "note_off channel=0 note=83 velocity=64 time=1\n",
      "note_off channel=0 note=85 velocity=64 time=0\n",
      "note_on channel=0 note=68 velocity=10 time=1\n",
      "note_off channel=0 note=68 velocity=64 time=3\n",
      "note_off channel=0 note=93 velocity=64 time=3\n",
      "note_on channel=0 note=44 velocity=16 time=1\n",
      "note_off channel=0 note=44 velocity=64 time=3\n",
      "note_on channel=0 note=78 velocity=13 time=0\n",
      "note_on channel=0 note=83 velocity=32 time=0\n",
      "note_off channel=0 note=82 velocity=64 time=1\n",
      "note_off channel=0 note=75 velocity=64 time=5\n",
      "note_on channel=0 note=77 velocity=18 time=0\n",
      "note_off channel=0 note=78 velocity=64 time=0\n",
      "note_on channel=0 note=85 velocity=23 time=0\n",
      "note_on channel=0 note=82 velocity=28 time=2\n",
      "note_off channel=0 note=83 velocity=64 time=1\n",
      "note_off channel=0 note=95 velocity=64 time=0\n",
      "note_on channel=0 note=75 velocity=29 time=1\n",
      "note_off channel=0 note=77 velocity=64 time=3\n",
      "note_on channel=0 note=68 velocity=15 time=3\n",
      "note_off channel=0 note=90 velocity=64 time=1\n",
      "note_off channel=0 note=92 velocity=64 time=0\n",
      "note_on channel=0 note=77 velocity=17 time=1\n",
      "note_on channel=0 note=83 velocity=40 time=3\n",
      "note_off channel=0 note=82 velocity=64 time=1\n",
      "note_off channel=0 note=91 velocity=64 time=5\n",
      "note_on channel=0 note=91 velocity=17 time=9\n",
      "note_off channel=0 note=88 velocity=64 time=1\n",
      "note_off channel=0 note=68 velocity=64 time=1\n",
      "note_off channel=0 note=75 velocity=64 time=0\n",
      "note_on channel=0 note=75 velocity=13 time=9\n",
      "note_off channel=0 note=85 velocity=64 time=3\n",
      "note_on channel=0 note=68 velocity=41 time=8\n",
      "note_off channel=0 note=75 velocity=64 time=2\n",
      "note_on channel=0 note=85 velocity=10 time=0\n",
      "note_off channel=0 note=77 velocity=64 time=2\n",
      "note_on channel=0 note=75 velocity=17 time=8\n",
      "note_off channel=0 note=85 velocity=64 time=2\n",
      "note_off channel=0 note=83 velocity=64 time=2\n",
      "note_on channel=0 note=83 velocity=33 time=5\n",
      "note_on channel=0 note=93 velocity=15 time=2\n",
      "note_off channel=0 note=93 velocity=64 time=5\n",
      "note_off channel=0 note=75 velocity=64 time=7\n",
      "note_on channel=0 note=90 velocity=31 time=0\n",
      "note_on channel=0 note=74 velocity=51 time=1\n",
      "note_on channel=0 note=82 velocity=45 time=0\n",
      "note_on channel=0 note=85 velocity=38 time=0\n",
      "note_on channel=0 note=87 velocity=29 time=0\n",
      "note_on channel=0 note=89 velocity=39 time=0\n",
      "note_on channel=0 note=92 velocity=50 time=0\n",
      "note_off channel=0 note=83 velocity=64 time=1\n",
      "note_on channel=0 note=84 velocity=44 time=0\n",
      "note_on channel=0 note=93 velocity=61 time=0\n",
      "note_on channel=0 note=95 velocity=41 time=0\n",
      "note_on channel=0 note=100 velocity=49 time=0\n",
      "note_on channel=0 note=49 velocity=66 time=1\n",
      "note_on channel=0 note=60 velocity=55 time=0\n",
      "note_on channel=0 note=73 velocity=47 time=0\n",
      "note_off channel=0 note=74 velocity=64 time=0\n",
      "note_off channel=0 note=85 velocity=64 time=0\n",
      "note_on channel=0 note=101 velocity=42 time=0\n",
      "note_on channel=0 note=102 velocity=43 time=0\n",
      "note_on channel=0 note=48 velocity=69 time=1\n",
      "note_off channel=0 note=49 velocity=64 time=0\n",
      "note_on channel=0 note=67 velocity=45 time=0\n",
      "note_off channel=0 note=68 velocity=64 time=0\n",
      "note_on channel=0 note=75 velocity=54 time=0\n",
      "note_on channel=0 note=77 velocity=24 time=0\n",
      "note_off channel=0 note=80 velocity=64 time=0\n",
      "note_off channel=0 note=91 velocity=64 time=0\n",
      "note_off channel=0 note=73 velocity=64 time=1\n",
      "note_on channel=0 note=81 velocity=47 time=0\n",
      "note_off channel=0 note=82 velocity=64 time=0\n",
      "note_on channel=0 note=83 velocity=51 time=0\n",
      "note_off channel=0 note=84 velocity=64 time=0\n",
      "note_on channel=0 note=59 velocity=51 time=1\n",
      "note_off channel=0 note=60 velocity=64 time=0\n",
      "note_on channel=0 note=78 velocity=42 time=0\n",
      "note_off channel=0 note=48 velocity=64 time=1\n",
      "note_off channel=0 note=67 velocity=64 time=0\n",
      "note_off channel=0 note=77 velocity=64 time=0\n",
      "note_on channel=0 note=82 velocity=47 time=0\n",
      "note_off channel=0 note=90 velocity=64 time=0\n",
      "note_on channel=0 note=91 velocity=59 time=0\n",
      "note_off channel=0 note=59 velocity=64 time=1\n",
      "note_on channel=0 note=60 velocity=57 time=0\n",
      "note_on channel=0 note=67 velocity=48 time=0\n",
      "note_on channel=0 note=76 velocity=44 time=0\n",
      "note_off channel=0 note=78 velocity=64 time=0\n",
      "note_on channel=0 note=79 velocity=49 time=0\n",
      "note_off channel=0 note=83 velocity=64 time=0\n",
      "note_on channel=0 note=90 velocity=40 time=0\n",
      "note_on channel=0 note=49 velocity=68 time=1\n",
      "note_off channel=0 note=75 velocity=64 time=0\n",
      "note_off channel=0 note=81 velocity=64 time=0\n",
      "note_off channel=0 note=89 velocity=64 time=0\n",
      "note_off channel=0 note=92 velocity=64 time=0\n",
      "note_off channel=0 note=67 velocity=64 time=1\n",
      "note_off channel=0 note=79 velocity=64 time=0\n",
      "note_on channel=0 note=80 velocity=41 time=0\n",
      "note_on channel=0 note=85 velocity=35 time=0\n",
      "note_on channel=0 note=92 velocity=58 time=0\n",
      "note_on channel=0 note=98 velocity=12 time=0\n",
      "note_off channel=0 note=60 velocity=64 time=1\n",
      "note_on channel=0 note=67 velocity=45 time=0\n",
      "note_on channel=0 note=72 velocity=47 time=1\n",
      "note_off channel=0 note=80 velocity=64 time=0\n",
      "note_off channel=0 note=85 velocity=64 time=0\n",
      "note_off channel=0 note=91 velocity=64 time=0\n",
      "note_on channel=0 note=48 velocity=67 time=1\n",
      "note_off channel=0 note=49 velocity=64 time=0\n",
      "note_on channel=0 note=83 velocity=31 time=0\n",
      "note_off channel=0 note=87 velocity=64 time=0\n",
      "note_off channel=0 note=90 velocity=64 time=0\n",
      "note_off channel=0 note=98 velocity=64 time=0\n",
      "note_on channel=0 note=75 velocity=60 time=1\n",
      "note_off channel=0 note=76 velocity=64 time=0\n",
      "note_on channel=0 note=81 velocity=22 time=0\n",
      "note_on channel=0 note=90 velocity=62 time=0\n",
      "note_on channel=0 note=96 velocity=14 time=0\n",
      "note_off channel=0 note=48 velocity=64 time=1\n",
      "note_on channel=0 note=59 velocity=44 time=0\n",
      "note_on channel=0 note=66 velocity=45 time=0\n",
      "note_off channel=0 note=67 velocity=64 time=0\n",
      "note_on channel=0 note=71 velocity=48 time=0\n",
      "note_off channel=0 note=72 velocity=64 time=0\n",
      "note_on channel=0 note=85 velocity=22 time=0\n",
      "note_on channel=0 note=80 velocity=50 time=1\n",
      "note_off channel=0 note=83 velocity=64 time=0\n",
      "note_on channel=0 note=91 velocity=43 time=0\n",
      "note_off channel=0 note=92 velocity=64 time=0\n",
      "note_off channel=0 note=59 velocity=64 time=1\n",
      "note_on channel=0 note=60 velocity=54 time=0\n",
      "note_off channel=0 note=82 velocity=64 time=0\n",
      "note_on channel=0 note=84 velocity=17 time=0\n",
      "note_on channel=0 note=92 velocity=68 time=0\n",
      "note_on channel=0 note=49 velocity=76 time=1\n",
      "note_off channel=0 note=66 velocity=64 time=0\n",
      "note_on channel=0 note=67 velocity=49 time=0\n",
      "note_off channel=0 note=71 velocity=64 time=0\n",
      "note_off channel=0 note=81 velocity=64 time=0\n",
      "note_on channel=0 note=82 velocity=37 time=0\n",
      "note_off channel=0 note=85 velocity=64 time=0\n",
      "note_on channel=0 note=86 velocity=25 time=0\n",
      "note_off channel=0 note=60 velocity=64 time=1\n",
      "note_on channel=0 note=78 velocity=23 time=0\n",
      "note_off channel=0 note=100 velocity=64 time=0\n",
      "note_off channel=0 note=67 velocity=64 time=1\n",
      "note_on channel=0 note=83 velocity=34 time=0\n",
      "note_on channel=0 note=60 velocity=46 time=1\n",
      "note_on channel=0 note=67 velocity=40 time=0\n",
      "note_off channel=0 note=82 velocity=64 time=0\n",
      "note_off channel=0 note=96 velocity=64 time=0\n",
      "note_on channel=0 note=82 velocity=24 time=1\n",
      "note_off channel=0 note=101 velocity=64 time=0\n",
      "note_on channel=0 note=68 velocity=46 time=1\n",
      "note_off channel=0 note=83 velocity=64 time=0\n",
      "note_off channel=0 note=93 velocity=64 time=0\n",
      "note_on channel=0 note=94 velocity=49 time=0\n",
      "note_on channel=0 note=101 velocity=48 time=0\n",
      "note_off channel=0 note=60 velocity=64 time=1\n",
      "note_off channel=0 note=67 velocity=64 time=0\n",
      "note_off channel=0 note=75 velocity=64 time=0\n",
      "note_off channel=0 note=68 velocity=64 time=1\n",
      "note_on channel=0 note=74 velocity=71 time=0\n",
      "note_on channel=0 note=83 velocity=49 time=0\n",
      "note_off channel=0 note=84 velocity=64 time=0\n",
      "note_on channel=0 note=85 velocity=29 time=0\n",
      "note_off channel=0 note=86 velocity=64 time=0\n",
      "note_on channel=0 note=96 velocity=23 time=0\n",
      "note_on channel=0 note=68 velocity=47 time=1\n",
      "note_off channel=0 note=82 velocity=64 time=0\n",
      "note_on channel=0 note=73 velocity=72 time=1\n",
      "note_off channel=0 note=74 velocity=64 time=0\n",
      "note_on channel=0 note=77 velocity=39 time=0\n",
      "note_off channel=0 note=78 velocity=64 time=0\n",
      "note_on channel=0 note=86 velocity=29 time=0\n",
      "note_off channel=0 note=85 velocity=64 time=1\n",
      "note_off channel=0 note=91 velocity=64 time=0\n",
      "note_on channel=0 note=93 velocity=49 time=0\n",
      "note_on channel=0 note=82 velocity=56 time=1\n",
      "note_off channel=0 note=83 velocity=64 time=0\n",
      "note_on channel=0 note=88 velocity=43 time=1\n",
      "note_off channel=0 note=95 velocity=64 time=0\n",
      "note_on channel=0 note=95 velocity=31 time=1\n",
      "note_off channel=0 note=96 velocity=64 time=0\n",
      "note_on channel=0 note=60 velocity=56 time=1\n",
      "note_on channel=0 note=76 velocity=25 time=0\n",
      "note_on channel=0 note=84 velocity=35 time=0\n",
      "note_on channel=0 note=91 velocity=61 time=0\n",
      "note_off channel=0 note=92 velocity=64 time=0\n",
      "note_on channel=0 note=67 velocity=53 time=1\n",
      "note_off channel=0 note=68 velocity=64 time=0\n",
      "note_off channel=0 note=77 velocity=64 time=0\n",
      "note_off channel=0 note=80 velocity=64 time=0\n",
      "note_on channel=0 note=48 velocity=67 time=1\n",
      "note_off channel=0 note=49 velocity=64 time=0\n",
      "note_off channel=0 note=73 velocity=64 time=0\n",
      "note_on channel=0 note=80 velocity=29 time=0\n",
      "note_on channel=0 note=85 velocity=33 time=0\n",
      "note_off channel=0 note=86 velocity=64 time=0\n",
      "note_on channel=0 note=92 velocity=60 time=0\n",
      "note_off channel=0 note=93 velocity=64 time=0\n",
      "note_on channel=0 note=81 velocity=35 time=1\n",
      "note_off channel=0 note=82 velocity=64 time=0\n",
      "note_on channel=0 note=93 velocity=52 time=0\n",
      "note_off channel=0 note=94 velocity=64 time=0\n",
      "note_on channel=0 note=47 velocity=49 time=1\n",
      "note_off channel=0 note=48 velocity=64 time=0\n",
      "note_off channel=0 note=60 velocity=64 time=0\n",
      "note_on channel=0 note=75 velocity=54 time=0\n",
      "note_off channel=0 note=76 velocity=64 time=0\n",
      "note_on channel=0 note=77 velocity=22 time=0\n",
      "note_on channel=0 note=78 velocity=31 time=0\n",
      "note_on channel=0 note=82 velocity=32 time=0\n",
      "note_on channel=0 note=83 velocity=36 time=0\n",
      "note_off channel=0 note=84 velocity=64 time=0\n",
      "note_off channel=0 note=85 velocity=64 time=0\n",
      "note_on channel=0 note=94 velocity=38 time=0\n",
      "note_on channel=0 note=66 velocity=47 time=1\n",
      "note_off channel=0 note=67 velocity=64 time=0\n",
      "note_on channel=0 note=71 velocity=51 time=0\n",
      "note_off channel=0 note=80 velocity=64 time=0\n",
      "note_on channel=0 note=85 velocity=34 time=0\n",
      "note_on channel=0 note=89 velocity=38 time=0\n",
      "note_off channel=0 note=91 velocity=64 time=0\n",
      "note_on channel=0 note=84 velocity=17 time=1\n",
      "note_off channel=0 note=88 velocity=64 time=0\n",
      "note_on channel=0 note=91 velocity=68 time=0\n",
      "note_off channel=0 note=92 velocity=64 time=0\n",
      "note_on channel=0 note=80 velocity=39 time=1\n",
      "note_on channel=0 note=88 velocity=42 time=0\n",
      "note_off channel=0 note=78 velocity=64 time=1\n",
      "note_off channel=0 note=81 velocity=64 time=0\n",
      "note_off channel=0 note=89 velocity=64 time=0\n",
      "note_off channel=0 note=47 velocity=64 time=2\n",
      "note_off channel=0 note=77 velocity=64 time=0\n",
      "note_off channel=0 note=82 velocity=64 time=0\n",
      "note_off channel=0 note=84 velocity=64 time=0\n",
      "note_on channel=0 note=47 velocity=43 time=1\n",
      "note_on channel=0 note=86 velocity=29 time=0\n",
      "note_off channel=0 note=80 velocity=64 time=1\n",
      "note_on channel=0 note=81 velocity=36 time=0\n",
      "note_on channel=0 note=82 velocity=54 time=1\n",
      "note_off channel=0 note=47 velocity=64 time=1\n",
      "note_on channel=0 note=48 velocity=42 time=0\n",
      "note_off channel=0 note=86 velocity=64 time=0\n",
      "note_off channel=0 note=91 velocity=64 time=1\n",
      "note_on channel=0 note=92 velocity=61 time=0\n",
      "note_on channel=0 note=47 velocity=44 time=1\n",
      "note_off channel=0 note=48 velocity=64 time=0\n",
      "note_off channel=0 note=85 velocity=64 time=0\n",
      "note_on channel=0 note=80 velocity=42 time=1\n",
      "note_off channel=0 note=81 velocity=64 time=0\n",
      "note_off channel=0 note=83 velocity=64 time=0\n",
      "note_on channel=0 note=85 velocity=31 time=0\n",
      "note_on channel=0 note=91 velocity=55 time=0\n",
      "note_off channel=0 note=92 velocity=64 time=0\n",
      "note_off channel=0 note=85 velocity=64 time=2\n",
      "note_off channel=0 note=71 velocity=64 time=1\n",
      "note_off channel=0 note=93 velocity=64 time=0\n",
      "note_off channel=0 note=47 velocity=64 time=1\n",
      "note_on channel=0 note=48 velocity=56 time=0\n",
      "note_off channel=0 note=95 velocity=64 time=0\n",
      "note_off channel=0 note=101 velocity=64 time=0\n",
      "note_off channel=0 note=66 velocity=64 time=1\n",
      "note_on channel=0 note=84 velocity=24 time=0\n",
      "note_off channel=0 note=91 velocity=64 time=0\n",
      "note_off channel=0 note=94 velocity=64 time=0\n",
      "note_on channel=0 note=67 velocity=48 time=2\n",
      "note_on channel=0 note=86 velocity=14 time=1\n",
      "note_on channel=0 note=91 velocity=61 time=0\n",
      "note_on channel=0 note=93 velocity=39 time=0\n",
      "note_on channel=0 note=95 velocity=37 time=0\n",
      "note_on channel=0 note=101 velocity=40 time=0\n",
      "note_on channel=0 note=96 velocity=27 time=1\n",
      "note_on channel=0 note=73 velocity=57 time=1\n",
      "note_off channel=0 note=48 velocity=64 time=1\n",
      "note_on channel=0 note=49 velocity=70 time=0\n",
      "note_off channel=0 note=67 velocity=64 time=0\n",
      "note_on channel=0 note=68 velocity=46 time=0\n",
      "note_off channel=0 note=86 velocity=64 time=0\n",
      "note_off channel=0 note=91 velocity=64 time=0\n",
      "note_on channel=0 note=92 velocity=54 time=0\n",
      "note_on channel=0 note=83 velocity=53 time=1\n",
      "note_off channel=0 note=82 velocity=64 time=1\n",
      "note_off channel=0 note=88 velocity=64 time=0\n",
      "note_on channel=0 note=89 velocity=57 time=0\n",
      "note_on channel=0 note=77 velocity=36 time=3\n",
      "note_on channel=0 note=82 velocity=60 time=0\n",
      "note_off channel=0 note=83 velocity=64 time=0\n",
      "note_off channel=0 note=84 velocity=64 time=0\n",
      "note_off channel=0 note=95 velocity=64 time=0\n",
      "note_off channel=0 note=75 velocity=64 time=1\n",
      "note_on channel=0 note=78 velocity=31 time=1\n",
      "note_off channel=0 note=80 velocity=64 time=0\n",
      "note_on channel=0 note=88 velocity=53 time=0\n",
      "note_off channel=0 note=89 velocity=64 time=0\n",
      "note_on channel=0 note=84 velocity=21 time=1\n",
      "note_off channel=0 note=77 velocity=64 time=2\n",
      "note_on channel=0 note=89 velocity=66 time=0\n",
      "note_on channel=0 note=95 velocity=32 time=0\n",
      "note_off channel=0 note=82 velocity=64 time=1\n",
      "note_on channel=0 note=83 velocity=50 time=0\n",
      "note_off channel=0 note=88 velocity=64 time=0\n",
      "note_on channel=0 note=103 velocity=27 time=0\n",
      "note_on channel=0 note=91 velocity=53 time=1\n",
      "note_off channel=0 note=91 velocity=64 time=2\n",
      "note_off channel=0 note=103 velocity=64 time=0\n",
      "note_on channel=0 note=77 velocity=29 time=1\n",
      "note_off channel=0 note=84 velocity=64 time=0\n",
      "note_on channel=0 note=91 velocity=47 time=0\n",
      "note_on channel=0 note=94 velocity=26 time=0\n",
      "note_off channel=0 note=95 velocity=64 time=0\n",
      "note_on channel=0 note=82 velocity=59 time=1\n",
      "note_off channel=0 note=83 velocity=64 time=0\n",
      "note_on channel=0 note=86 velocity=25 time=0\n",
      "note_on channel=0 note=88 velocity=56 time=0\n",
      "note_off channel=0 note=89 velocity=64 time=0\n",
      "note_off channel=0 note=92 velocity=64 time=0\n",
      "note_on channel=0 note=95 velocity=31 time=0\n",
      "note_off channel=0 note=96 velocity=64 time=0\n",
      "note_on channel=0 note=60 velocity=52 time=1\n",
      "note_on channel=0 note=67 velocity=52 time=0\n",
      "note_off channel=0 note=68 velocity=64 time=0\n",
      "note_on channel=0 note=76 velocity=31 time=0\n",
      "note_off channel=0 note=77 velocity=64 time=0\n",
      "note_on channel=0 note=84 velocity=41 time=0\n",
      "note_on channel=0 note=48 velocity=60 time=1\n",
      "note_off channel=0 note=49 velocity=64 time=0\n",
      "note_on channel=0 note=92 velocity=40 time=0\n",
      "note_off channel=0 note=93 velocity=64 time=0\n",
      "note_off channel=0 note=73 velocity=64 time=1\n",
      "note_off channel=0 note=86 velocity=64 time=0\n",
      "note_on channel=0 note=89 velocity=54 time=0\n",
      "note_off channel=0 note=90 velocity=64 time=0\n",
      "note_on channel=0 note=86 velocity=37 time=1\n",
      "note_on channel=0 note=87 velocity=36 time=0\n",
      "note_on channel=0 note=90 velocity=54 time=0\n",
      "note_off channel=0 note=60 velocity=64 time=2\n",
      "note_on channel=0 note=61 velocity=51 time=0\n",
      "note_off channel=0 note=67 velocity=64 time=0\n",
      "note_on channel=0 note=73 velocity=57 time=0\n",
      "note_on channel=0 note=83 velocity=52 time=0\n",
      "note_off channel=0 note=88 velocity=64 time=0\n",
      "note_off channel=0 note=48 velocity=64 time=1\n",
      "note_on channel=0 note=69 velocity=37 time=0\n",
      "note_off channel=0 note=84 velocity=64 time=0\n",
      "note_off channel=0 note=86 velocity=64 time=0\n",
      "note_on channel=0 note=50 velocity=66 time=1\n",
      "note_off channel=0 note=73 velocity=64 time=0\n",
      "note_on channel=0 note=74 velocity=58 time=0\n",
      "note_off channel=0 note=76 velocity=64 time=0\n",
      "note_off channel=0 note=78 velocity=64 time=0\n",
      "note_on channel=0 note=79 velocity=30 time=0\n",
      "note_off channel=0 note=83 velocity=64 time=0\n",
      "note_on channel=0 note=84 velocity=45 time=0\n",
      "note_off channel=0 note=95 velocity=64 time=0\n",
      "note_off channel=0 note=61 velocity=64 time=1\n",
      "note_on channel=0 note=63 velocity=48 time=0\n",
      "note_off channel=0 note=69 velocity=64 time=0\n",
      "note_on channel=0 note=70 velocity=25 time=0\n",
      "note_on channel=0 note=88 velocity=48 time=0\n",
      "note_off channel=0 note=92 velocity=64 time=0\n",
      "note_on channel=0 note=95 velocity=28 time=0\n",
      "note_off channel=0 note=50 velocity=64 time=1\n",
      "note_on channel=0 note=83 velocity=35 time=0\n",
      "note_off channel=0 note=84 velocity=64 time=0\n",
      "note_off channel=0 note=89 velocity=64 time=0\n",
      "note_off channel=0 note=94 velocity=64 time=0\n",
      "note_on channel=0 note=53 velocity=69 time=1\n",
      "note_off channel=0 note=63 velocity=64 time=0\n",
      "note_off channel=0 note=74 velocity=64 time=0\n",
      "note_off channel=0 note=79 velocity=64 time=0\n",
      "note_off channel=0 note=82 velocity=64 time=0\n",
      "note_on channel=0 note=75 velocity=31 time=1\n",
      "note_on channel=0 note=78 velocity=34 time=0\n",
      "note_on channel=0 note=81 velocity=38 time=0\n",
      "note_on channel=0 note=84 velocity=33 time=0\n",
      "note_on channel=0 note=85 velocity=60 time=0\n",
      "note_off channel=0 note=70 velocity=64 time=1\n",
      "note_off channel=0 note=101 velocity=64 time=0\n",
      "note_off channel=0 note=53 velocity=64 time=1\n",
      "note_on channel=0 note=54 velocity=69 time=0\n",
      "note_on channel=0 note=80 velocity=34 time=0\n",
      "note_off channel=0 note=81 velocity=64 time=0\n",
      "note_on channel=0 note=82 velocity=80 time=0\n",
      "note_off channel=0 note=83 velocity=64 time=0\n",
      "note_on channel=0 note=73 velocity=57 time=1\n",
      "note_on channel=0 note=77 velocity=35 time=4\n",
      "note_off channel=0 note=78 velocity=64 time=0\n",
      "note_off channel=0 note=102 velocity=64 time=0\n",
      "note_off channel=0 note=84 velocity=64 time=1\n",
      "note_on channel=0 note=93 velocity=31 time=0\n",
      "note_on channel=0 note=53 velocity=68 time=1\n",
      "note_off channel=0 note=54 velocity=64 time=0\n",
      "note_off channel=0 note=77 velocity=64 time=0\n",
      "note_on channel=0 note=78 velocity=32 time=0\n",
      "note_off channel=0 note=80 velocity=64 time=0\n",
      "note_on channel=0 note=81 velocity=61 time=0\n",
      "note_off channel=0 note=82 velocity=64 time=0\n",
      "note_on channel=0 note=84 velocity=70 time=0\n",
      "note_off channel=0 note=85 velocity=64 time=0\n",
      "note_on channel=0 note=72 velocity=55 time=2\n",
      "note_off channel=0 note=73 velocity=64 time=0\n",
      "note_off channel=0 note=78 velocity=64 time=0\n",
      "note_on channel=0 note=86 velocity=43 time=0\n",
      "note_off channel=0 note=88 velocity=64 time=0\n",
      "note_on channel=0 note=89 velocity=34 time=0\n",
      "note_on channel=0 note=94 velocity=23 time=0\n",
      "note_on channel=0 note=97 velocity=22 time=0\n",
      "note_on channel=0 note=82 velocity=42 time=2\n",
      "note_off channel=0 note=91 velocity=64 time=0\n",
      "note_on channel=0 note=52 velocity=67 time=1\n",
      "note_off channel=0 note=53 velocity=64 time=0\n",
      "note_on channel=0 note=80 velocity=61 time=0\n",
      "note_off channel=0 note=81 velocity=64 time=0\n",
      "note_off channel=0 note=89 velocity=64 time=0\n",
      "note_off channel=0 note=93 velocity=64 time=0\n",
      "note_on channel=0 note=101 velocity=27 time=1\n",
      "note_on channel=0 note=71 velocity=60 time=1\n",
      "note_off channel=0 note=72 velocity=64 time=0\n",
      "note_off channel=0 note=75 velocity=64 time=0\n",
      "note_off channel=0 note=84 velocity=64 time=0\n",
      "note_on channel=0 note=78 velocity=29 time=1\n",
      "note_off channel=0 note=87 velocity=64 time=0\n",
      "note_on channel=0 note=88 velocity=53 time=0\n",
      "note_on channel=0 note=87 velocity=24 time=5\n",
      "note_on channel=0 note=84 velocity=20 time=3\n",
      "note_off channel=0 note=94 velocity=64 time=0\n",
      "note_off channel=0 note=97 velocity=64 time=0\n",
      "note_on channel=0 note=63 velocity=43 time=1\n",
      "note_on channel=0 note=70 velocity=35 time=0\n",
      "note_off channel=0 note=71 velocity=64 time=0\n",
      "note_off channel=0 note=95 velocity=64 time=0\n",
      "note_off channel=0 note=52 velocity=64 time=1\n",
      "note_off channel=0 note=78 velocity=64 time=0\n",
      "note_on channel=0 note=52 velocity=47 time=1\n",
      "note_on channel=0 note=78 velocity=17 time=0\n",
      "note_off channel=0 note=88 velocity=64 time=0\n",
      "note_on channel=0 note=91 velocity=41 time=0\n",
      "note_off channel=0 note=101 velocity=64 time=0\n",
      "note_on channel=0 note=88 velocity=45 time=1\n",
      "note_off channel=0 note=63 velocity=64 time=1\n",
      "note_on channel=0 note=51 velocity=44 time=1\n",
      "note_off channel=0 note=52 velocity=64 time=0\n",
      "note_off channel=0 note=78 velocity=64 time=1\n",
      "note_off channel=0 note=51 velocity=64 time=1\n",
      "note_off channel=0 note=70 velocity=64 time=0\n",
      "note_on channel=0 note=75 velocity=25 time=1\n",
      "note_on channel=0 note=85 velocity=16 time=0\n",
      "note_off channel=0 note=86 velocity=64 time=0\n",
      "note_on channel=0 note=83 velocity=41 time=1\n",
      "note_off channel=0 note=82 velocity=64 time=1\n",
      "note_on channel=0 note=55 velocity=64 time=4\n",
      "note_on channel=0 note=93 velocity=74 time=0\n",
      "note_on channel=0 note=67 velocity=82 time=1\n",
      "note_on channel=0 note=74 velocity=68 time=0\n",
      "note_off channel=0 note=75 velocity=64 time=0\n",
      "note_off channel=0 note=85 velocity=64 time=0\n",
      "note_on channel=0 note=82 velocity=54 time=1\n",
      "note_off channel=0 note=83 velocity=64 time=0\n",
      "note_on channel=0 note=94 velocity=79 time=0\n",
      "note_on channel=0 note=96 velocity=57 time=0\n",
      "note_on channel=0 note=99 velocity=27 time=0\n",
      "note_on channel=0 note=101 velocity=60 time=0\n",
      "note_on channel=0 note=54 velocity=66 time=1\n",
      "note_off channel=0 note=55 velocity=64 time=0\n",
      "note_on channel=0 note=78 velocity=21 time=0\n",
      "note_on channel=0 note=73 velocity=78 time=1\n",
      "note_off channel=0 note=74 velocity=64 time=0\n",
      "note_on channel=0 note=66 velocity=79 time=1\n",
      "note_off channel=0 note=67 velocity=64 time=0\n",
      "note_off channel=0 note=91 velocity=64 time=0\n",
      "note_on channel=0 note=92 velocity=68 time=0\n",
      "note_off channel=0 note=93 velocity=64 time=0\n",
      "note_off channel=0 note=84 velocity=64 time=3\n",
      "note_on channel=0 note=95 velocity=23 time=5\n",
      "note_on channel=0 note=77 velocity=22 time=3\n",
      "note_off channel=0 note=78 velocity=64 time=1\n",
      "note_off channel=0 note=87 velocity=64 time=0\n",
      "note_off channel=0 note=99 velocity=64 time=3\n",
      "note_on channel=0 note=91 velocity=22 time=1\n",
      "note_off channel=0 note=77 velocity=64 time=1\n",
      "note_off channel=0 note=95 velocity=64 time=0\n",
      "note_on channel=0 note=95 velocity=46 time=1\n",
      "note_on channel=0 note=77 velocity=27 time=1\n",
      "note_off channel=0 note=91 velocity=64 time=0\n",
      "note_on channel=0 note=75 velocity=21 time=1\n",
      "note_on channel=0 note=91 velocity=46 time=3\n",
      "note_off channel=0 note=96 velocity=64 time=0\n",
      "note_on channel=0 note=53 velocity=70 time=1\n",
      "note_off channel=0 note=54 velocity=64 time=0\n",
      "note_off channel=0 note=101 velocity=64 time=0\n",
      "note_off channel=0 note=77 velocity=64 time=1\n",
      "note_on channel=0 note=77 velocity=63 time=1\n",
      "note_off channel=0 note=94 velocity=64 time=0\n",
      "note_off channel=0 note=66 velocity=64 time=1\n",
      "note_on channel=0 note=84 velocity=68 time=0\n",
      "note_on channel=0 note=66 velocity=65 time=2\n",
      "note_off channel=0 note=75 velocity=64 time=0\n",
      "note_off channel=0 note=80 velocity=64 time=0\n",
      "note_on channel=0 note=81 velocity=80 time=0\n",
      "note_on channel=0 note=87 velocity=57 time=0\n",
      "note_off channel=0 note=92 velocity=64 time=0\n",
      "note_on channel=0 note=98 velocity=36 time=1\n",
      "note_off channel=0 note=66 velocity=64 time=1\n",
      "note_on channel=0 note=75 velocity=35 time=0\n",
      "note_off channel=0 note=82 velocity=64 time=0\n",
      "note_off channel=0 note=88 velocity=64 time=0\n",
      "note_off channel=0 note=90 velocity=64 time=0\n",
      "note_off channel=0 note=73 velocity=64 time=1\n",
      "note_on channel=0 note=97 velocity=37 time=0\n",
      "note_on channel=0 note=64 velocity=46 time=1\n",
      "note_on channel=0 note=72 velocity=60 time=0\n",
      "note_off channel=0 note=75 velocity=64 time=0\n",
      "note_on channel=0 note=80 velocity=82 time=0\n",
      "note_off channel=0 note=81 velocity=64 time=0\n",
      "note_on channel=0 note=85 velocity=30 time=0\n",
      "note_on channel=0 note=86 velocity=55 time=0\n",
      "note_on channel=0 note=89 velocity=72 time=0\n",
      "note_on channel=0 note=94 velocity=42 time=0\n",
      "note_on channel=0 note=52 velocity=66 time=1\n",
      "note_off channel=0 note=53 velocity=64 time=0\n",
      "note_off channel=0 note=87 velocity=64 time=0\n",
      "note_on channel=0 note=88 velocity=71 time=0\n",
      "note_on channel=0 note=90 velocity=36 time=0\n",
      "note_off channel=0 note=64 velocity=64 time=1\n",
      "note_on channel=0 note=65 velocity=52 time=0\n",
      "note_on channel=0 note=93 velocity=38 time=0\n",
      "note_off channel=0 note=95 velocity=64 time=0\n",
      "note_off channel=0 note=52 velocity=64 time=1\n",
      "note_on channel=0 note=53 velocity=67 time=0\n",
      "note_off channel=0 note=80 velocity=64 time=0\n",
      "note_on channel=0 note=81 velocity=82 time=0\n",
      "note_off channel=0 note=86 velocity=64 time=0\n",
      "note_on channel=0 note=87 velocity=68 time=0\n",
      "note_off channel=0 note=90 velocity=64 time=0\n",
      "note_off channel=0 note=85 velocity=64 time=1\n",
      "note_off channel=0 note=89 velocity=64 time=0\n",
      "note_on channel=0 note=90 velocity=54 time=0\n",
      "note_on channel=0 note=95 velocity=25 time=0\n",
      "note_off channel=0 note=53 velocity=64 time=1\n",
      "note_on channel=0 note=54 velocity=72 time=0\n",
      "note_off channel=0 note=65 velocity=64 time=0\n",
      "note_on channel=0 note=73 velocity=67 time=0\n",
      "note_on channel=0 note=80 velocity=47 time=0\n",
      "note_off channel=0 note=81 velocity=64 time=0\n",
      "note_on channel=0 note=82 velocity=83 time=0\n",
      "note_off channel=0 note=84 velocity=64 time=0\n",
      "note_off channel=0 note=88 velocity=64 time=0\n",
      "note_on channel=0 note=89 velocity=70 time=0\n",
      "note_off channel=0 note=72 velocity=64 time=1\n",
      "note_on channel=0 note=79 velocity=79 time=0\n",
      "note_on channel=0 note=67 velocity=66 time=1\n",
      "note_off channel=0 note=73 velocity=64 time=0\n",
      "note_on channel=0 note=74 velocity=74 time=0\n",
      "note_off channel=0 note=77 velocity=64 time=0\n",
      "note_off channel=0 note=80 velocity=64 time=0\n",
      "note_on channel=0 note=81 velocity=46 time=0\n",
      "note_off channel=0 note=82 velocity=64 time=0\n",
      "note_on channel=0 note=83 velocity=79 time=0\n",
      "note_on channel=0 note=88 velocity=72 time=0\n",
      "note_off channel=0 note=89 velocity=64 time=0\n",
      "note_off channel=0 note=94 velocity=64 time=0\n",
      "note_off channel=0 note=54 velocity=64 time=1\n",
      "note_on channel=0 note=55 velocity=68 time=0\n",
      "note_on channel=0 note=77 velocity=39 time=0\n",
      "note_on channel=0 note=89 velocity=67 time=0\n",
      "note_off channel=0 note=79 velocity=64 time=1\n",
      "note_on channel=0 note=80 velocity=82 time=0\n",
      "note_off channel=0 note=81 velocity=64 time=0\n",
      "note_on channel=0 note=82 velocity=43 time=0\n",
      "note_on channel=0 note=85 velocity=31 time=0\n",
      "note_off channel=0 note=93 velocity=64 time=0\n",
      "note_off channel=0 note=98 velocity=64 time=0\n",
      "note_off channel=0 note=55 velocity=64 time=1\n",
      "note_on channel=0 note=56 velocity=60 time=0\n",
      "note_off channel=0 note=67 velocity=64 time=0\n",
      "note_off channel=0 note=74 velocity=64 time=0\n",
      "note_on channel=0 note=75 velocity=80 time=0\n",
      "note_off channel=0 note=83 velocity=64 time=0\n"
     ]
    },
    {
     "name": "stdout",
     "output_type": "stream",
     "text": [
      "note_on channel=0 note=84 velocity=74 time=0\n",
      "note_off channel=0 note=88 velocity=64 time=0\n",
      "note_off channel=0 note=90 velocity=64 time=0\n",
      "note_off channel=0 note=95 velocity=64 time=0\n",
      "note_on channel=0 note=100 velocity=19 time=0\n",
      "note_on channel=0 note=88 velocity=32 time=1\n",
      "note_off channel=0 note=97 velocity=64 time=0\n",
      "note_off channel=0 note=77 velocity=64 time=1\n",
      "note_on channel=0 note=83 velocity=74 time=0\n",
      "note_off channel=0 note=84 velocity=64 time=0\n",
      "note_on channel=0 note=55 velocity=68 time=1\n",
      "note_off channel=0 note=56 velocity=64 time=0\n",
      "note_on channel=0 note=79 velocity=80 time=0\n",
      "note_off channel=0 note=80 velocity=64 time=0\n",
      "note_off channel=0 note=82 velocity=64 time=0\n",
      "note_off channel=0 note=85 velocity=64 time=0\n",
      "note_on channel=0 note=86 velocity=55 time=0\n",
      "note_off channel=0 note=87 velocity=64 time=0\n",
      "note_on channel=0 note=90 velocity=35 time=0\n",
      "note_on channel=0 note=93 velocity=40 time=0\n",
      "note_off channel=0 note=100 velocity=64 time=0\n",
      "note_on channel=0 note=74 velocity=75 time=1\n",
      "note_off channel=0 note=75 velocity=64 time=0\n",
      "note_off channel=0 note=88 velocity=64 time=0\n",
      "note_on channel=0 note=99 velocity=9 time=0\n",
      "note_on channel=0 note=88 velocity=75 time=2\n",
      "note_off channel=0 note=90 velocity=64 time=0\n",
      "note_off channel=0 note=89 velocity=64 time=1\n",
      "note_on channel=0 note=90 velocity=53 time=0\n",
      "note_on channel=0 note=85 velocity=19 time=1\n",
      "note_off channel=0 note=99 velocity=64 time=0\n",
      "note_off channel=0 note=88 velocity=64 time=1\n",
      "note_on channel=0 note=89 velocity=72 time=0\n",
      "note_on channel=0 note=87 velocity=40 time=2\n",
      "note_off channel=0 note=55 velocity=64 time=1\n",
      "note_off channel=0 note=74 velocity=64 time=0\n",
      "note_on channel=0 note=75 velocity=67 time=0\n",
      "note_on channel=0 note=80 velocity=68 time=0\n",
      "note_on channel=0 note=84 velocity=53 time=0\n",
      "note_off channel=0 note=85 velocity=64 time=0\n",
      "note_off channel=0 note=91 velocity=64 time=0\n",
      "note_on channel=0 note=57 velocity=60 time=1\n",
      "note_off channel=0 note=79 velocity=64 time=0\n",
      "note_off channel=0 note=80 velocity=64 time=0\n",
      "note_on channel=0 note=68 velocity=29 time=1\n",
      "note_on channel=0 note=77 velocity=45 time=0\n",
      "note_on channel=0 note=82 velocity=64 time=0\n",
      "note_off channel=0 note=84 velocity=64 time=0\n",
      "note_on channel=0 note=85 velocity=63 time=0\n",
      "note_off channel=0 note=86 velocity=64 time=0\n",
      "note_off channel=0 note=87 velocity=64 time=0\n",
      "note_on channel=0 note=88 velocity=29 time=0\n",
      "note_on channel=0 note=91 velocity=39 time=0\n",
      "note_off channel=0 note=57 velocity=64 time=1\n",
      "note_on channel=0 note=70 velocity=55 time=0\n",
      "note_on channel=0 note=80 velocity=33 time=0\n",
      "note_off channel=0 note=83 velocity=64 time=0\n",
      "note_off channel=0 note=90 velocity=64 time=0\n",
      "note_on channel=0 note=59 velocity=50 time=1\n",
      "note_off channel=0 note=68 velocity=64 time=0\n",
      "note_off channel=0 note=77 velocity=64 time=0\n",
      "note_on channel=0 note=78 velocity=55 time=0\n",
      "note_off channel=0 note=82 velocity=64 time=0\n",
      "note_on channel=0 note=83 velocity=59 time=0\n",
      "note_off channel=0 note=88 velocity=64 time=0\n",
      "note_on channel=0 note=90 velocity=57 time=0\n",
      "note_off channel=0 note=93 velocity=64 time=0\n",
      "note_off channel=0 note=70 velocity=64 time=1\n",
      "note_on channel=0 note=71 velocity=55 time=0\n",
      "note_off channel=0 note=80 velocity=64 time=0\n",
      "note_on channel=0 note=81 velocity=26 time=0\n",
      "note_off channel=0 note=91 velocity=64 time=0\n",
      "note_on channel=0 note=93 velocity=28 time=0\n",
      "note_off channel=0 note=75 velocity=64 time=1\n",
      "note_on channel=0 note=76 velocity=31 time=0\n",
      "note_on channel=0 note=86 velocity=31 time=1\n",
      "note_on channel=0 note=58 velocity=54 time=1\n",
      "note_off channel=0 note=59 velocity=64 time=0\n",
      "note_off channel=0 note=71 velocity=64 time=0\n",
      "note_off channel=0 note=76 velocity=64 time=0\n",
      "note_off channel=0 note=81 velocity=64 time=0\n",
      "note_on channel=0 note=91 velocity=46 time=0\n",
      "note_on channel=0 note=57 velocity=70 time=2\n",
      "note_off channel=0 note=58 velocity=64 time=0\n",
      "note_on channel=0 note=76 velocity=49 time=0\n",
      "note_on channel=0 note=81 velocity=52 time=0\n",
      "note_off channel=0 note=86 velocity=64 time=0\n",
      "note_off channel=0 note=89 velocity=64 time=1\n",
      "note_on channel=0 note=101 velocity=10 time=0\n",
      "note_off channel=0 note=78 velocity=64 time=1\n",
      "note_off channel=0 note=83 velocity=64 time=1\n",
      "note_off channel=0 note=91 velocity=64 time=1\n",
      "note_on channel=0 note=68 velocity=49 time=1\n",
      "note_on channel=0 note=75 velocity=66 time=1\n",
      "note_off channel=0 note=76 velocity=64 time=0\n",
      "note_on channel=0 note=80 velocity=63 time=0\n",
      "note_off channel=0 note=81 velocity=64 time=0\n",
      "note_on channel=0 note=84 velocity=62 time=0\n",
      "note_off channel=0 note=85 velocity=64 time=0\n",
      "note_off channel=0 note=93 velocity=64 time=0\n",
      "note_off channel=0 note=101 velocity=64 time=0\n",
      "note_on channel=0 note=56 velocity=70 time=1\n",
      "note_off channel=0 note=57 velocity=64 time=0\n",
      "note_on channel=0 note=85 velocity=25 time=2\n",
      "note_on channel=0 note=89 velocity=56 time=0\n",
      "note_on channel=0 note=103 velocity=18 time=0\n",
      "note_on channel=0 note=83 velocity=41 time=2\n",
      "note_off channel=0 note=89 velocity=64 time=0\n",
      "note_off channel=0 note=85 velocity=64 time=1\n",
      "note_off channel=0 note=103 velocity=64 time=0\n",
      "note_off channel=0 note=68 velocity=64 time=1\n",
      "note_on channel=0 note=69 velocity=46 time=0\n",
      "note_on channel=0 note=93 velocity=24 time=0\n",
      "note_off channel=0 note=56 velocity=64 time=1\n",
      "note_on channel=0 note=57 velocity=72 time=0\n",
      "note_off channel=0 note=75 velocity=64 time=1\n",
      "note_on channel=0 note=76 velocity=51 time=0\n",
      "note_off channel=0 note=80 velocity=64 time=0\n",
      "note_off channel=0 note=84 velocity=64 time=0\n",
      "note_on channel=0 note=85 velocity=52 time=0\n",
      "note_off channel=0 note=90 velocity=64 time=0\n",
      "note_on channel=0 note=91 velocity=52 time=0\n",
      "note_on channel=0 note=90 velocity=58 time=1\n",
      "note_on channel=0 note=75 velocity=59 time=2\n",
      "note_off channel=0 note=76 velocity=64 time=0\n",
      "note_off channel=0 note=93 velocity=64 time=0\n",
      "note_on channel=0 note=56 velocity=69 time=1\n",
      "note_off channel=0 note=57 velocity=64 time=0\n",
      "note_off channel=0 note=69 velocity=64 time=0\n",
      "note_on channel=0 note=84 velocity=44 time=0\n",
      "note_off channel=0 note=85 velocity=64 time=0\n",
      "note_on channel=0 note=85 velocity=16 time=1\n",
      "note_off channel=0 note=91 velocity=64 time=0\n",
      "note_on channel=0 note=103 velocity=25 time=1\n",
      "note_on channel=0 note=91 velocity=19 time=2\n",
      "note_on channel=0 note=94 velocity=18 time=0\n",
      "note_on channel=0 note=49 velocity=12 time=1\n",
      "note_off channel=0 note=85 velocity=64 time=2\n",
      "note_off channel=0 note=103 velocity=64 time=0\n",
      "note_off channel=0 note=49 velocity=64 time=1\n",
      "note_on channel=0 note=65 velocity=47 time=1\n",
      "note_on channel=0 note=85 velocity=16 time=0\n",
      "note_on channel=0 note=89 velocity=34 time=0\n",
      "note_on channel=0 note=71 velocity=31 time=1\n",
      "note_on channel=0 note=103 velocity=27 time=1\n",
      "note_off channel=0 note=91 velocity=64 time=1\n",
      "note_on channel=0 note=67 velocity=62 time=1\n",
      "note_off channel=0 note=90 velocity=64 time=0\n",
      "note_on channel=0 note=91 velocity=36 time=0\n",
      "note_off channel=0 note=56 velocity=64 time=1\n",
      "note_off channel=0 note=103 velocity=64 time=0\n",
      "note_on channel=0 note=54 velocity=67 time=1\n",
      "note_on channel=0 note=64 velocity=69 time=0\n",
      "note_off channel=0 note=65 velocity=64 time=0\n",
      "note_off channel=0 note=84 velocity=64 time=0\n",
      "note_on channel=0 note=90 velocity=40 time=0\n",
      "note_off channel=0 note=94 velocity=64 time=0\n",
      "note_on channel=0 note=45 velocity=73 time=1\n",
      "note_off channel=0 note=67 velocity=64 time=0\n",
      "note_on channel=0 note=68 velocity=56 time=0\n",
      "note_on channel=0 note=73 velocity=36 time=0\n",
      "note_on channel=0 note=79 velocity=41 time=0\n",
      "note_on channel=0 note=81 velocity=30 time=0\n",
      "note_on channel=0 note=63 velocity=64 time=1\n",
      "note_off channel=0 note=64 velocity=64 time=0\n",
      "note_off channel=0 note=71 velocity=64 time=0\n",
      "note_on channel=0 note=80 velocity=80 time=0\n",
      "note_on channel=0 note=44 velocity=72 time=1\n",
      "note_off channel=0 note=45 velocity=64 time=0\n",
      "note_off channel=0 note=68 velocity=64 time=0\n",
      "note_on channel=0 note=69 velocity=38 time=0\n",
      "note_off channel=0 note=79 velocity=64 time=0\n",
      "note_off channel=0 note=81 velocity=64 time=0\n",
      "note_off channel=0 note=90 velocity=64 time=0\n",
      "note_off channel=0 note=63 velocity=64 time=2\n",
      "note_off channel=0 note=69 velocity=64 time=0\n",
      "note_off channel=0 note=54 velocity=64 time=1\n",
      "note_on channel=0 note=55 velocity=69 time=0\n",
      "note_on channel=0 note=102 velocity=49 time=1\n",
      "note_on channel=0 note=43 velocity=64 time=1\n",
      "note_off channel=0 note=44 velocity=64 time=0\n",
      "note_on channel=0 note=68 velocity=63 time=0\n",
      "note_off channel=0 note=55 velocity=64 time=1\n",
      "note_on channel=0 note=56 velocity=69 time=0\n",
      "note_on channel=0 note=65 velocity=34 time=0\n",
      "note_on channel=0 note=42 velocity=56 time=1\n",
      "note_off channel=0 note=43 velocity=64 time=0\n",
      "note_on channel=0 note=62 velocity=39 time=0\n",
      "note_on channel=0 note=100 velocity=28 time=0\n",
      "note_off channel=0 note=65 velocity=64 time=1\n",
      "note_on channel=0 note=98 velocity=20 time=0\n",
      "note_off channel=0 note=42 velocity=64 time=1\n",
      "note_on channel=0 note=43 velocity=55 time=0\n",
      "note_on channel=0 note=61 velocity=47 time=0\n",
      "note_off channel=0 note=62 velocity=64 time=0\n",
      "note_on channel=0 note=65 velocity=30 time=0\n",
      "note_off channel=0 note=89 velocity=64 time=0\n",
      "note_off channel=0 note=43 velocity=64 time=2\n",
      "note_on channel=0 note=48 velocity=57 time=1\n",
      "note_on channel=0 note=89 velocity=63 time=1\n",
      "note_on channel=0 note=47 velocity=65 time=1\n",
      "note_off channel=0 note=48 velocity=64 time=0\n",
      "note_off channel=0 note=65 velocity=64 time=1\n",
      "note_off channel=0 note=47 velocity=64 time=1\n",
      "note_on channel=0 note=65 velocity=20 time=0\n",
      "note_on channel=0 note=49 velocity=70 time=1\n",
      "note_on channel=0 note=71 velocity=13 time=0\n",
      "note_off channel=0 note=49 velocity=64 time=1\n",
      "note_on channel=0 note=55 velocity=74 time=0\n",
      "note_off channel=0 note=56 velocity=64 time=0\n",
      "note_off channel=0 note=55 velocity=64 time=1\n",
      "note_on channel=0 note=56 velocity=66 time=0\n",
      "note_off channel=0 note=85 velocity=64 time=0\n",
      "note_on channel=0 note=55 velocity=70 time=2\n",
      "note_off channel=0 note=56 velocity=64 time=0\n",
      "note_off channel=0 note=65 velocity=64 time=0\n",
      "note_off channel=0 note=98 velocity=64 time=0\n",
      "note_off channel=0 note=55 velocity=64 time=1\n",
      "note_on channel=0 note=56 velocity=67 time=0\n",
      "note_off channel=0 note=61 velocity=64 time=0\n",
      "note_off channel=0 note=100 velocity=64 time=0\n",
      "note_on channel=0 note=84 velocity=13 time=3\n",
      "note_on channel=0 note=64 velocity=68 time=1\n",
      "note_off channel=0 note=71 velocity=64 time=0\n",
      "note_off channel=0 note=73 velocity=64 time=0\n",
      "note_on channel=0 note=85 velocity=21 time=0\n",
      "note_on channel=0 note=90 velocity=36 time=0\n",
      "note_on channel=0 note=45 velocity=71 time=1\n",
      "note_on channel=0 note=73 velocity=33 time=0\n",
      "note_off channel=0 note=56 velocity=64 time=1\n",
      "note_off channel=0 note=84 velocity=64 time=0\n",
      "note_on channel=0 note=44 velocity=72 time=1\n",
      "note_off channel=0 note=45 velocity=64 time=0\n",
      "note_on channel=0 note=63 velocity=58 time=0\n",
      "note_off channel=0 note=64 velocity=64 time=0\n",
      "note_off channel=0 note=90 velocity=64 time=1\n",
      "note_on channel=0 note=71 velocity=45 time=1\n",
      "note_on channel=0 note=100 velocity=11 time=0\n",
      "note_off channel=0 note=44 velocity=64 time=1\n",
      "note_on channel=0 note=45 velocity=70 time=0\n",
      "note_on channel=0 note=61 velocity=52 time=1\n",
      "note_off channel=0 note=63 velocity=64 time=0\n",
      "note_on channel=0 note=98 velocity=11 time=0\n",
      "note_off channel=0 note=45 velocity=64 time=1\n",
      "note_on channel=0 note=43 velocity=63 time=1\n",
      "note_off channel=0 note=100 velocity=64 time=0\n",
      "note_off channel=0 note=43 velocity=64 time=3\n",
      "note_on channel=0 note=65 velocity=17 time=2\n",
      "note_on channel=0 note=48 velocity=63 time=2\n",
      "note_off channel=0 note=65 velocity=64 time=1\n",
      "note_off channel=0 note=98 velocity=64 time=0\n",
      "note_on channel=0 note=47 velocity=66 time=1\n",
      "note_off channel=0 note=48 velocity=64 time=0\n",
      "note_off channel=0 note=47 velocity=64 time=1\n",
      "note_on channel=0 note=48 velocity=66 time=0\n",
      "note_off channel=0 note=48 velocity=64 time=2\n",
      "note_on channel=0 note=57 velocity=70 time=0\n",
      "note_on channel=0 note=55 velocity=70 time=1\n",
      "note_off channel=0 note=57 velocity=64 time=0\n",
      "note_off channel=0 note=55 velocity=64 time=1\n",
      "note_on channel=0 note=56 velocity=68 time=0\n",
      "note_off channel=0 note=61 velocity=64 time=1\n",
      "note_on channel=0 note=61 velocity=14 time=1\n",
      "note_off channel=0 note=73 velocity=64 time=3\n",
      "note_on channel=0 note=48 velocity=82 time=1\n",
      "note_off channel=0 note=61 velocity=64 time=0\n",
      "note_on channel=0 note=62 velocity=43 time=0\n",
      "note_on channel=0 note=84 velocity=25 time=0\n",
      "note_off channel=0 note=85 velocity=64 time=0\n",
      "note_off channel=0 note=75 velocity=64 time=1\n",
      "note_on channel=0 note=76 velocity=36 time=0\n",
      "note_on channel=0 note=82 velocity=29 time=0\n",
      "note_off channel=0 note=83 velocity=64 time=0\n",
      "note_on channel=0 note=85 velocity=26 time=0\n",
      "note_on channel=0 note=93 velocity=15 time=0\n",
      "note_off channel=0 note=62 velocity=64 time=1\n",
      "note_on channel=0 note=73 velocity=24 time=0\n",
      "note_on channel=0 note=75 velocity=32 time=0\n",
      "note_on channel=0 note=63 velocity=40 time=1\n",
      "note_off channel=0 note=68 velocity=64 time=0\n",
      "note_off channel=0 note=76 velocity=64 time=0\n",
      "note_off channel=0 note=82 velocity=64 time=0\n",
      "note_off channel=0 note=85 velocity=64 time=1\n",
      "note_off channel=0 note=93 velocity=64 time=0\n",
      "note_off channel=0 note=48 velocity=64 time=1\n",
      "note_on channel=0 note=65 velocity=18 time=0\n",
      "note_on channel=0 note=85 velocity=27 time=0\n",
      "note_off channel=0 note=63 velocity=64 time=1\n",
      "note_on channel=0 note=82 velocity=32 time=0\n",
      "note_on channel=0 note=88 velocity=32 time=0\n",
      "note_on channel=0 note=61 velocity=16 time=1\n",
      "note_on channel=0 note=78 velocity=22 time=0\n",
      "note_on channel=0 note=45 velocity=53 time=2\n",
      "note_off channel=0 note=89 velocity=64 time=0\n",
      "note_off channel=0 note=61 velocity=64 time=1\n",
      "note_off channel=0 note=84 velocity=64 time=0\n",
      "note_on channel=0 note=61 velocity=17 time=1\n",
      "note_off channel=0 note=65 velocity=64 time=0\n",
      "note_off channel=0 note=78 velocity=64 time=0\n",
      "note_on channel=0 note=44 velocity=45 time=1\n",
      "note_off channel=0 note=45 velocity=64 time=0\n",
      "note_on channel=0 note=78 velocity=25 time=0\n",
      "note_off channel=0 note=85 velocity=64 time=0\n",
      "note_on channel=0 note=86 velocity=32 time=0\n",
      "note_off channel=0 note=44 velocity=64 time=5\n",
      "note_off channel=0 note=61 velocity=64 time=3\n",
      "note_on channel=0 note=55 velocity=69 time=2\n",
      "note_off channel=0 note=56 velocity=64 time=0\n",
      "note_on channel=0 note=84 velocity=13 time=0\n",
      "note_off channel=0 note=102 velocity=64 time=0\n",
      "note_off channel=0 note=73 velocity=64 time=1\n",
      "note_on channel=0 note=74 velocity=29 time=1\n",
      "note_on channel=0 note=85 velocity=31 time=0\n",
      "note_off channel=0 note=86 velocity=64 time=0\n",
      "note_off channel=0 note=75 velocity=64 time=1\n",
      "note_on channel=0 note=86 velocity=32 time=0\n",
      "note_on channel=0 note=101 velocity=28 time=0\n",
      "note_on channel=0 note=73 velocity=35 time=1\n",
      "note_off channel=0 note=74 velocity=64 time=0\n",
      "note_on channel=0 note=75 velocity=42 time=0\n",
      "note_off channel=0 note=85 velocity=64 time=0\n",
      "note_off channel=0 note=82 velocity=64 time=1\n",
      "note_on channel=0 note=82 velocity=44 time=1\n",
      "note_on channel=0 note=54 velocity=67 time=1\n",
      "note_off channel=0 note=55 velocity=64 time=0\n",
      "note_off channel=0 note=73 velocity=64 time=0\n",
      "note_on channel=0 note=74 velocity=30 time=0\n",
      "note_off channel=0 note=88 velocity=64 time=0\n",
      "note_on channel=0 note=89 velocity=63 time=0\n",
      "note_on channel=0 note=95 velocity=35 time=0\n",
      "note_on channel=0 note=61 velocity=42 time=1\n",
      "note_off channel=0 note=78 velocity=64 time=0\n",
      "note_off channel=0 note=84 velocity=64 time=0\n",
      "note_on channel=0 note=85 velocity=35 time=0\n",
      "note_on channel=0 note=46 velocity=65 time=1\n",
      "note_on channel=0 note=69 velocity=42 time=0\n",
      "note_off channel=0 note=74 velocity=64 time=0\n",
      "note_off channel=0 note=82 velocity=64 time=0\n",
      "note_on channel=0 note=84 velocity=30 time=0\n",
      "note_off channel=0 note=86 velocity=64 time=0\n",
      "note_off channel=0 note=101 velocity=64 time=0\n",
      "note_on channel=0 note=45 velocity=70 time=1\n",
      "note_off channel=0 note=46 velocity=64 time=0\n",
      "note_on channel=0 note=53 velocity=69 time=0\n",
      "note_off channel=0 note=54 velocity=64 time=0\n",
      "note_off channel=0 note=71 velocity=64 time=0\n",
      "note_on channel=0 note=82 velocity=36 time=0\n",
      "note_on channel=0 note=90 velocity=36 time=0\n",
      "note_on channel=0 note=44 velocity=71 time=1\n",
      "note_off channel=0 note=45 velocity=64 time=0\n",
      "note_on channel=0 note=71 velocity=50 time=0\n",
      "note_on channel=0 note=52 velocity=62 time=1\n",
      "note_off channel=0 note=53 velocity=64 time=0\n",
      "note_on channel=0 note=67 velocity=34 time=0\n",
      "note_off channel=0 note=69 velocity=64 time=0\n",
      "note_on channel=0 note=77 velocity=22 time=0\n",
      "note_on channel=0 note=88 velocity=42 time=0\n",
      "note_off channel=0 note=61 velocity=64 time=1\n",
      "note_on channel=0 note=63 velocity=38 time=0\n",
      "note_on channel=0 note=68 velocity=24 time=0\n",
      "note_off channel=0 note=84 velocity=64 time=0\n",
      "note_off channel=0 note=95 velocity=64 time=0\n",
      "note_on channel=0 note=43 velocity=67 time=1\n",
      "note_off channel=0 note=44 velocity=64 time=0\n",
      "note_off channel=0 note=52 velocity=64 time=0\n",
      "note_off channel=0 note=67 velocity=64 time=0\n",
      "note_on channel=0 note=73 velocity=31 time=0\n",
      "note_off channel=0 note=85 velocity=64 time=0\n",
      "note_on channel=0 note=52 velocity=71 time=1\n",
      "note_off channel=0 note=63 velocity=64 time=0\n",
      "note_on channel=0 note=86 velocity=22 time=1\n",
      "note_off channel=0 note=89 velocity=64 time=0\n",
      "note_off channel=0 note=43 velocity=64 time=1\n",
      "note_on channel=0 note=43 velocity=44 time=1\n",
      "note_off channel=0 note=43 velocity=64 time=2\n",
      "note_on channel=0 note=84 velocity=20 time=0\n",
      "note_off channel=0 note=86 velocity=64 time=2\n",
      "note_on channel=0 note=78 velocity=27 time=1\n",
      "note_off channel=0 note=68 velocity=64 time=1\n",
      "note_off channel=0 note=77 velocity=64 time=0\n",
      "note_off channel=0 note=75 velocity=64 time=5\n",
      "note_on channel=0 note=77 velocity=29 time=1\n",
      "note_off channel=0 note=78 velocity=64 time=0\n",
      "note_off channel=0 note=82 velocity=64 time=0\n",
      "note_on channel=0 note=78 velocity=34 time=1\n",
      "note_on channel=0 note=86 velocity=24 time=0\n",
      "note_off channel=0 note=77 velocity=64 time=1\n",
      "note_on channel=0 note=77 velocity=32 time=1\n",
      "note_on channel=0 note=82 velocity=38 time=1\n",
      "note_off channel=0 note=78 velocity=64 time=1\n",
      "note_on channel=0 note=78 velocity=30 time=1\n",
      "note_off channel=0 note=86 velocity=64 time=1\n",
      "note_on channel=0 note=51 velocity=73 time=1\n",
      "note_off channel=0 note=52 velocity=64 time=0\n",
      "note_on channel=0 note=64 velocity=62 time=0\n",
      "note_on channel=0 note=67 velocity=58 time=0\n",
      "note_off channel=0 note=77 velocity=64 time=0\n",
      "note_off channel=0 note=82 velocity=64 time=0\n",
      "note_on channel=0 note=86 velocity=30 time=0\n",
      "note_off channel=0 note=90 velocity=64 time=0\n",
      "note_on channel=0 note=45 velocity=73 time=1\n",
      "note_off channel=0 note=51 velocity=64 time=0\n",
      "note_on channel=0 note=52 velocity=63 time=0\n",
      "note_on channel=0 note=77 velocity=30 time=0\n",
      "note_off channel=0 note=78 velocity=64 time=0\n",
      "note_on channel=0 note=82 velocity=41 time=0\n",
      "note_on channel=0 note=90 velocity=38 time=0\n",
      "note_on channel=0 note=44 velocity=73 time=1\n",
      "note_off channel=0 note=45 velocity=64 time=0\n",
      "note_on channel=0 note=78 velocity=30 time=0\n",
      "note_off channel=0 note=52 velocity=64 time=1\n",
      "note_on channel=0 note=63 velocity=53 time=0\n",
      "note_off channel=0 note=64 velocity=64 time=0\n",
      "note_off channel=0 note=67 velocity=64 time=0\n",
      "note_off channel=0 note=77 velocity=64 time=0\n",
      "note_on channel=0 note=52 velocity=70 time=1\n",
      "note_off channel=0 note=71 velocity=64 time=0\n",
      "note_on channel=0 note=83 velocity=23 time=0\n",
      "note_on channel=0 note=71 velocity=48 time=1\n",
      "note_off channel=0 note=84 velocity=64 time=0\n",
      "note_off channel=0 note=44 velocity=64 time=1\n",
      "note_off channel=0 note=63 velocity=64 time=0\n",
      "note_off channel=0 note=80 velocity=64 time=0\n",
      "note_on channel=0 note=61 velocity=47 time=1\n",
      "note_on channel=0 note=80 velocity=33 time=0\n",
      "note_on channel=0 note=43 velocity=55 time=2\n",
      "note_off channel=0 note=78 velocity=64 time=0\n",
      "note_on channel=0 note=68 velocity=13 time=1\n",
      "note_on channel=0 note=42 velocity=49 time=1\n",
      "note_off channel=0 note=43 velocity=64 time=0\n",
      "note_off channel=0 note=83 velocity=64 time=0\n",
      "note_off channel=0 note=42 velocity=64 time=2\n",
      "note_off channel=0 note=82 velocity=64 time=0\n",
      "note_off channel=0 note=73 velocity=64 time=1\n",
      "note_off channel=0 note=80 velocity=64 time=0\n",
      "note_on channel=0 note=84 velocity=22 time=0\n",
      "note_off channel=0 note=68 velocity=64 time=1\n",
      "note_on channel=0 note=80 velocity=83 time=0\n",
      "note_on channel=0 note=89 velocity=29 time=0\n",
      "note_on channel=0 note=65 velocity=29 time=1\n",
      "note_off channel=0 note=86 velocity=64 time=0\n",
      "note_off channel=0 note=88 velocity=64 time=0\n",
      "note_off channel=0 note=61 velocity=64 time=2\n",
      "note_off channel=0 note=65 velocity=64 time=0\n",
      "note_on channel=0 note=68 velocity=19 time=0\n",
      "note_off channel=0 note=89 velocity=64 time=0\n",
      "note_off channel=0 note=52 velocity=64 time=1\n",
      "note_on channel=0 note=53 velocity=69 time=0\n",
      "note_on channel=0 note=62 velocity=29 time=0\n",
      "note_on channel=0 note=78 velocity=22 time=0\n",
      "note_on channel=0 note=89 velocity=29 time=0\n",
      "note_on channel=0 note=51 velocity=73 time=1\n",
      "note_off channel=0 note=53 velocity=64 time=0\n",
      "note_off channel=0 note=62 velocity=64 time=1\n",
      "note_on channel=0 note=64 velocity=34 time=0\n",
      "note_on channel=0 note=82 velocity=38 time=0\n",
      "note_off channel=0 note=89 velocity=64 time=0\n",
      "note_on channel=0 note=93 velocity=10 time=0\n",
      "note_on channel=0 note=101 velocity=41 time=0\n",
      "note_off channel=0 note=51 velocity=64 time=1\n",
      "note_on channel=0 note=102 velocity=42 time=0\n",
      "note_on channel=0 note=52 velocity=69 time=1\n",
      "note_on channel=0 note=63 velocity=54 time=0\n",
      "note_off channel=0 note=64 velocity=64 time=0\n",
      "note_off channel=0 note=78 velocity=64 time=0\n",
      "note_on channel=0 note=88 velocity=29 time=0\n",
      "note_on channel=0 note=70 velocity=47 time=1\n",
      "note_off channel=0 note=71 velocity=64 time=0\n",
      "note_on channel=0 note=78 velocity=26 time=0\n",
      "note_on channel=0 note=97 velocity=24 time=0\n",
      "note_on channel=0 note=98 velocity=29 time=0\n",
      "note_on channel=0 note=51 velocity=60 time=1\n",
      "note_off channel=0 note=52 velocity=64 time=0\n",
      "note_off channel=0 note=68 velocity=64 time=0\n",
      "note_off channel=0 note=82 velocity=64 time=0\n",
      "note_on channel=0 note=83 velocity=34 time=0\n",
      "note_off channel=0 note=88 velocity=64 time=0\n",
      "note_on channel=0 note=89 velocity=41 time=0\n",
      "note_on channel=0 note=100 velocity=26 time=0\n",
      "note_on channel=0 note=82 velocity=47 time=1\n",
      "note_off channel=0 note=93 velocity=64 time=0\n",
      "note_off channel=0 note=83 velocity=64 time=1\n",
      "note_on channel=0 note=85 velocity=30 time=0\n",
      "note_on channel=0 note=77 velocity=36 time=1\n",
      "note_off channel=0 note=78 velocity=64 time=0\n",
      "note_on channel=0 note=86 velocity=35 time=0\n",
      "note_on channel=0 note=45 velocity=72 time=1\n",
      "note_off channel=0 note=51 velocity=64 time=0\n",
      "note_off channel=0 note=63 velocity=64 time=0\n",
      "note_on channel=0 note=67 velocity=56 time=0\n",
      "note_off channel=0 note=85 velocity=64 time=0\n",
      "note_off channel=0 note=90 velocity=64 time=0\n",
      "note_off channel=0 note=100 velocity=64 time=0\n",
      "note_on channel=0 note=51 velocity=66 time=1\n",
      "note_off channel=0 note=70 velocity=64 time=0\n",
      "note_on channel=0 note=71 velocity=42 time=0\n",
      "note_on channel=0 note=78 velocity=28 time=0\n",
      "note_on channel=0 note=90 velocity=46 time=0\n",
      "note_off channel=0 note=67 velocity=64 time=1\n",
      "note_on channel=0 note=44 velocity=72 time=1\n",
      "note_off channel=0 note=45 velocity=64 time=0\n",
      "note_off channel=0 note=51 velocity=64 time=0\n",
      "note_on channel=0 note=52 velocity=62 time=0\n",
      "note_on channel=0 note=63 velocity=56 time=0\n",
      "note_on channel=0 note=70 velocity=38 time=1\n",
      "note_off channel=0 note=71 velocity=64 time=0\n",
      "note_off channel=0 note=78 velocity=64 time=0\n",
      "note_off channel=0 note=91 velocity=64 time=0\n",
      "note_off channel=0 note=52 velocity=64 time=1\n",
      "note_on channel=0 note=100 velocity=26 time=0\n",
      "note_off channel=0 note=44 velocity=64 time=1\n",
      "note_on channel=0 note=41 velocity=50 time=1\n",
      "note_on channel=0 note=51 velocity=64 time=0\n",
      "note_off channel=0 note=63 velocity=64 time=0\n",
      "note_on channel=0 note=75 velocity=12 time=0\n",
      "note_off channel=0 note=41 velocity=64 time=2\n",
      "note_on channel=0 note=43 velocity=55 time=0\n",
      "note_off channel=0 note=70 velocity=64 time=0\n",
      "note_on channel=0 note=71 velocity=37 time=0\n",
      "note_off channel=0 note=100 velocity=64 time=0\n",
      "note_off channel=0 note=51 velocity=64 time=1\n",
      "note_on channel=0 note=52 velocity=71 time=0\n",
      "note_on channel=0 note=61 velocity=51 time=0\n",
      "note_on channel=0 note=65 velocity=56 time=0\n",
      "note_on channel=0 note=91 velocity=26 time=0\n",
      "note_on channel=0 note=93 velocity=13 time=0\n",
      "note_off channel=0 note=71 velocity=64 time=1\n",
      "note_off channel=0 note=75 velocity=64 time=0\n",
      "note_on channel=0 note=42 velocity=49 time=1\n",
      "note_off channel=0 note=43 velocity=64 time=0\n",
      "note_off channel=0 note=52 velocity=64 time=0\n",
      "note_on channel=0 note=53 velocity=69 time=0\n",
      "note_off channel=0 note=89 velocity=64 time=0\n",
      "note_off channel=0 note=53 velocity=64 time=1\n",
      "note_on channel=0 note=54 velocity=66 time=0\n",
      "note_off channel=0 note=65 velocity=64 time=0\n",
      "note_on channel=0 note=71 velocity=20 time=0\n",
      "note_off channel=0 note=97 velocity=64 time=0\n",
      "note_off channel=0 note=102 velocity=64 time=0\n",
      "note_off channel=0 note=42 velocity=64 time=1\n",
      "note_off channel=0 note=54 velocity=64 time=0\n",
      "note_on channel=0 note=55 velocity=68 time=0\n",
      "note_on channel=0 note=67 velocity=69 time=0\n",
      "note_on channel=0 note=74 velocity=35 time=0\n",
      "note_off channel=0 note=101 velocity=64 time=0\n",
      "note_on channel=0 note=48 velocity=60 time=1\n",
      "note_on channel=0 note=65 velocity=36 time=1\n",
      "note_off channel=0 note=98 velocity=64 time=0\n",
      "note_on channel=0 note=47 velocity=68 time=1\n",
      "note_off channel=0 note=48 velocity=64 time=0\n",
      "note_off channel=0 note=55 velocity=64 time=0\n",
      "note_off channel=0 note=82 velocity=64 time=0\n",
      "note_on channel=0 note=83 velocity=47 time=0\n",
      "note_on channel=0 note=88 velocity=36 time=0\n",
      "note_off channel=0 note=47 velocity=64 time=1\n",
      "note_on channel=0 note=48 velocity=67 time=0\n",
      "note_on channel=0 note=55 velocity=64 time=0\n",
      "note_off channel=0 note=65 velocity=64 time=0\n",
      "note_off channel=0 note=91 velocity=64 time=0\n",
      "note_off channel=0 note=48 velocity=64 time=1\n",
      "note_on channel=0 note=49 velocity=66 time=0\n",
      "note_on channel=0 note=91 velocity=37 time=0\n",
      "note_off channel=0 note=93 velocity=64 time=0\n",
      "note_on channel=0 note=101 velocity=12 time=0\n",
      "note_off channel=0 note=49 velocity=64 time=1\n",
      "note_on channel=0 note=50 velocity=73 time=0\n",
      "note_off channel=0 note=55 velocity=64 time=0\n",
      "note_off channel=0 note=74 velocity=64 time=0\n",
      "note_on channel=0 note=82 velocity=37 time=0\n",
      "note_off channel=0 note=50 velocity=64 time=1\n",
      "note_on channel=0 note=53 velocity=79 time=0\n",
      "note_on channel=0 note=66 velocity=61 time=0\n",
      "note_off channel=0 note=67 velocity=64 time=0\n",
      "note_on channel=0 note=75 velocity=43 time=0\n",
      "note_on channel=0 note=85 velocity=38 time=0\n",
      "note_off channel=0 note=86 velocity=64 time=0\n",
      "note_on channel=0 note=98 velocity=9 time=0\n",
      "note_off channel=0 note=53 velocity=64 time=2\n",
      "note_on channel=0 note=54 velocity=71 time=0\n",
      "note_off channel=0 note=82 velocity=64 time=0\n",
      "note_on channel=0 note=99 velocity=14 time=0\n",
      "note_off channel=0 note=101 velocity=64 time=1\n",
      "note_on channel=0 note=53 velocity=69 time=1\n",
      "note_off channel=0 note=54 velocity=64 time=0\n",
      "note_off channel=0 note=61 velocity=64 time=0\n",
      "note_off channel=0 note=66 velocity=64 time=0\n",
      "note_off channel=0 note=71 velocity=64 time=0\n",
      "note_off channel=0 note=98 velocity=64 time=1\n",
      "note_off channel=0 note=99 velocity=64 time=0\n",
      "note_off channel=0 note=53 velocity=64 time=2\n",
      "note_off channel=0 note=88 velocity=64 time=0\n",
      "note_on channel=0 note=89 velocity=70 time=0\n",
      "note_on channel=0 note=48 velocity=83 time=1\n",
      "note_off channel=0 note=77 velocity=64 time=0\n",
      "note_off channel=0 note=84 velocity=64 time=0\n",
      "note_on channel=0 note=93 velocity=46 time=0\n",
      "note_on channel=0 note=67 velocity=41 time=1\n",
      "note_on channel=0 note=69 velocity=18 time=0\n",
      "note_on channel=0 note=73 velocity=68 time=0\n",
      "note_on channel=0 note=81 velocity=29 time=0\n",
      "note_on channel=0 note=98 velocity=11 time=0\n",
      "note_on channel=0 note=63 velocity=42 time=1\n",
      "note_on channel=0 note=77 velocity=28 time=0\n",
      "note_off channel=0 note=91 velocity=64 time=0\n",
      "note_on channel=0 note=56 velocity=48 time=1\n",
      "note_on channel=0 note=71 velocity=30 time=0\n",
      "note_off channel=0 note=81 velocity=64 time=0\n",
      "note_on channel=0 note=82 velocity=54 time=0\n",
      "note_off channel=0 note=83 velocity=64 time=0\n",
      "note_on channel=0 note=91 velocity=25 time=0\n",
      "note_off channel=0 note=48 velocity=64 time=1\n",
      "note_off channel=0 note=67 velocity=64 time=0\n",
      "note_off channel=0 note=69 velocity=64 time=0\n",
      "note_off channel=0 note=75 velocity=64 time=0\n",
      "note_on channel=0 note=88 velocity=49 time=0\n",
      "note_off channel=0 note=90 velocity=64 time=0\n",
      "note_off channel=0 note=56 velocity=64 time=1\n",
      "note_off channel=0 note=63 velocity=64 time=0\n",
      "note_on channel=0 note=70 velocity=28 time=0\n",
      "note_off channel=0 note=71 velocity=64 time=0\n",
      "note_off channel=0 note=77 velocity=64 time=0\n",
      "note_on channel=0 note=78 velocity=67 time=0\n",
      "note_on channel=0 note=87 velocity=25 time=0\n",
      "note_off channel=0 note=98 velocity=64 time=0\n",
      "note_on channel=0 note=54 velocity=69 time=1\n",
      "note_on channel=0 note=95 velocity=33 time=0\n",
      "note_off channel=0 note=88 velocity=64 time=1\n",
      "note_on channel=0 note=45 velocity=54 time=1\n",
      "note_on channel=0 note=81 velocity=49 time=0\n",
      "note_off channel=0 note=82 velocity=64 time=0\n",
      "note_on channel=0 note=88 velocity=48 time=0\n",
      "note_off channel=0 note=91 velocity=64 time=0\n",
      "note_on channel=0 note=98 velocity=10 time=0\n",
      "note_on channel=0 note=65 velocity=50 time=1\n",
      "note_off channel=0 note=70 velocity=64 time=0\n",
      "note_off channel=0 note=89 velocity=64 time=0\n",
      "note_on channel=0 note=53 velocity=73 time=1\n",
      "note_off channel=0 note=54 velocity=64 time=0\n",
      "note_on channel=0 note=84 velocity=38 time=0\n",
      "note_off channel=0 note=85 velocity=64 time=0\n",
      "note_on channel=0 note=101 velocity=28 time=0\n",
      "note_on channel=0 note=44 velocity=44 time=1\n",
      "note_off channel=0 note=45 velocity=64 time=0\n",
      "note_on channel=0 note=97 velocity=27 time=1\n",
      "note_off channel=0 note=53 velocity=64 time=1\n",
      "note_on channel=0 note=54 velocity=73 time=0\n",
      "note_off channel=0 note=65 velocity=64 time=0\n",
      "note_off channel=0 note=84 velocity=64 time=0\n",
      "note_on channel=0 note=89 velocity=47 time=0\n",
      "note_off channel=0 note=98 velocity=64 time=0\n",
      "note_on channel=0 note=82 velocity=64 time=1\n",
      "note_on channel=0 note=91 velocity=59 time=0\n",
      "note_off channel=0 note=93 velocity=64 time=0\n",
      "note_on channel=0 note=43 velocity=27 time=1\n",
      "note_off channel=0 note=44 velocity=64 time=0\n",
      "note_off channel=0 note=81 velocity=64 time=0\n",
      "note_off channel=0 note=88 velocity=64 time=0\n",
      "note_on channel=0 note=75 velocity=25 time=1\n",
      "note_on channel=0 note=71 velocity=19 time=2\n",
      "note_on channel=0 note=88 velocity=65 time=0\n",
      "note_off channel=0 note=89 velocity=64 time=1\n",
      "note_off channel=0 note=43 velocity=64 time=1\n",
      "note_off channel=0 note=87 velocity=64 time=1\n",
      "note_off channel=0 note=71 velocity=64 time=1\n",
      "note_on channel=0 note=87 velocity=31 time=0\n",
      "note_on channel=0 note=42 velocity=16 time=1\n",
      "note_on channel=0 note=77 velocity=37 time=0\n",
      "note_off channel=0 note=101 velocity=64 time=0\n",
      "note_on channel=0 note=65 velocity=38 time=1\n",
      "note_on channel=0 note=53 velocity=76 time=1\n",
      "note_off channel=0 note=54 velocity=64 time=0\n",
      "note_off channel=0 note=97 velocity=64 time=0\n",
      "note_off channel=0 note=78 velocity=64 time=1\n",
      "note_off channel=0 note=42 velocity=64 time=1\n",
      "note_on channel=0 note=52 velocity=72 time=0\n",
      "note_off channel=0 note=53 velocity=64 time=0\n",
      "note_off channel=0 note=65 velocity=64 time=0\n",
      "note_on channel=0 note=51 velocity=71 time=1\n",
      "note_off channel=0 note=52 velocity=64 time=0\n",
      "note_on channel=0 note=71 velocity=46 time=1\n",
      "note_on channel=0 note=76 velocity=44 time=0\n",
      "note_on channel=0 note=89 velocity=69 time=0\n",
      "note_on channel=0 note=93 velocity=41 time=0\n",
      "note_off channel=0 note=51 velocity=64 time=1\n",
      "note_on channel=0 note=52 velocity=74 time=0\n",
      "note_off channel=0 note=75 velocity=64 time=0\n",
      "note_off channel=0 note=77 velocity=64 time=0\n",
      "note_on channel=0 note=84 velocity=35 time=0\n",
      "note_on channel=0 note=102 velocity=30 time=0\n",
      "note_on channel=0 note=45 velocity=69 time=1\n",
      "note_on channel=0 note=51 velocity=71 time=0\n",
      "note_off channel=0 note=52 velocity=64 time=0\n",
      "note_on channel=0 note=67 velocity=41 time=0\n",
      "note_on channel=0 note=44 velocity=71 time=1\n",
      "note_off channel=0 note=45 velocity=64 time=0\n",
      "note_off channel=0 note=71 velocity=64 time=0\n",
      "note_off channel=0 note=76 velocity=64 time=0\n",
      "note_off channel=0 note=87 velocity=64 time=0\n",
      "note_off channel=0 note=95 velocity=64 time=0\n",
      "note_off channel=0 note=51 velocity=64 time=1\n",
      "note_on channel=0 note=52 velocity=64 time=0\n",
      "note_on channel=0 note=71 velocity=51 time=0\n",
      "note_off channel=0 note=84 velocity=64 time=0\n",
      "note_on channel=0 note=95 velocity=31 time=0\n",
      "note_off channel=0 note=82 velocity=64 time=1\n",
      "note_on channel=0 note=83 velocity=73 time=0\n",
      "note_on channel=0 note=90 velocity=59 time=0\n",
      "note_on channel=0 note=43 velocity=68 time=1\n",
      "note_off channel=0 note=44 velocity=64 time=0\n",
      "note_on channel=0 note=51 velocity=65 time=0\n",
      "note_off channel=0 note=52 velocity=64 time=0\n",
      "note_off channel=0 note=89 velocity=64 time=0\n",
      "note_off channel=0 note=67 velocity=64 time=1\n",
      "note_off channel=0 note=51 velocity=64 time=1\n",
      "note_on channel=0 note=52 velocity=71 time=0\n",
      "note_on channel=0 note=68 velocity=27 time=0\n",
      "note_on channel=0 note=86 velocity=36 time=2\n",
      "note_off channel=0 note=91 velocity=64 time=1\n",
      "note_off channel=0 note=43 velocity=64 time=1\n",
      "note_off channel=0 note=86 velocity=64 time=0\n",
      "note_on channel=0 note=96 velocity=11 time=0\n",
      "note_on channel=0 note=63 velocity=50 time=1\n",
      "note_on channel=0 note=91 velocity=42 time=0\n",
      "note_on channel=0 note=70 velocity=45 time=1\n",
      "note_off channel=0 note=71 velocity=64 time=0\n",
      "note_on channel=0 note=79 velocity=51 time=0\n",
      "note_on channel=0 note=82 velocity=64 time=0\n",
      "note_off channel=0 note=83 velocity=64 time=0\n",
      "note_off channel=0 note=90 velocity=64 time=0\n",
      "note_off channel=0 note=63 velocity=64 time=1\n",
      "note_off channel=0 note=80 velocity=64 time=0\n",
      "note_on channel=0 note=90 velocity=66 time=0\n",
      "note_off channel=0 note=95 velocity=64 time=0\n",
      "note_on channel=0 note=51 velocity=62 time=1\n",
      "note_off channel=0 note=52 velocity=64 time=0\n",
      "note_on channel=0 note=80 velocity=41 time=0\n",
      "note_on channel=0 note=89 velocity=53 time=0\n",
      "note_on channel=0 note=75 velocity=66 time=1\n",
      "note_on channel=0 note=77 velocity=31 time=0\n",
      "note_on channel=0 note=92 velocity=43 time=0\n",
      "note_off channel=0 note=93 velocity=64 time=0\n",
      "note_on channel=0 note=95 velocity=32 time=0\n",
      "note_off channel=0 note=96 velocity=64 time=0\n",
      "note_on channel=0 note=50 velocity=68 time=1\n",
      "note_off channel=0 note=51 velocity=64 time=0\n",
      "note_on channel=0 note=84 velocity=56 time=1\n",
      "note_off channel=0 note=88 velocity=64 time=0\n",
      "note_off channel=0 note=73 velocity=64 time=1\n",
      "note_on channel=0 note=78 velocity=46 time=0\n",
      "note_off channel=0 note=79 velocity=64 time=0\n",
      "note_off channel=0 note=91 velocity=64 time=0\n",
      "note_on channel=0 note=81 velocity=51 time=1\n",
      "note_off channel=0 note=82 velocity=64 time=0\n",
      "note_on channel=0 note=83 velocity=55 time=0\n",
      "note_on channel=0 note=88 velocity=62 time=0\n",
      "note_off channel=0 note=89 velocity=64 time=0\n",
      "note_on channel=0 note=101 velocity=20 time=0\n",
      "note_on channel=0 note=65 velocity=41 time=1\n",
      "note_off channel=0 note=70 velocity=64 time=0\n",
      "note_on channel=0 note=74 velocity=64 time=0\n",
      "note_off channel=0 note=75 velocity=64 time=0\n",
      "note_off channel=0 note=77 velocity=64 time=0\n",
      "note_off channel=0 note=68 velocity=64 time=1\n",
      "note_on channel=0 note=69 velocity=50 time=0\n",
      "note_off channel=0 note=80 velocity=64 time=1\n",
      "note_on channel=0 note=87 velocity=39 time=1\n",
      "note_on channel=0 note=97 velocity=18 time=1\n",
      "note_on channel=0 note=85 velocity=28 time=3\n",
      "note_on channel=0 note=94 velocity=35 time=0\n",
      "note_off channel=0 note=95 velocity=64 time=0\n",
      "note_on channel=0 note=63 velocity=87 time=1\n",
      "note_off channel=0 note=65 velocity=64 time=0\n",
      "note_on channel=0 note=57 velocity=43 time=1\n",
      "note_on channel=0 note=71 velocity=40 time=0\n",
      "note_on channel=0 note=89 velocity=45 time=0\n",
      "note_off channel=0 note=92 velocity=64 time=0\n",
      "note_off channel=0 note=69 velocity=64 time=1\n",
      "note_off channel=0 note=57 velocity=64 time=1\n",
      "note_on channel=0 note=91 velocity=41 time=0\n",
      "note_on channel=0 note=69 velocity=29 time=1\n",
      "note_off channel=0 note=71 velocity=64 time=1\n",
      "note_on channel=0 note=92 velocity=40 time=2\n",
      "note_on channel=0 note=71 velocity=16 time=1\n",
      "note_off channel=0 note=91 velocity=64 time=0\n",
      "note_on channel=0 note=91 velocity=51 time=1\n",
      "note_off channel=0 note=71 velocity=64 time=2\n",
      "note_off channel=0 note=92 velocity=64 time=1\n",
      "note_off channel=0 note=83 velocity=64 time=1\n",
      "note_off channel=0 note=88 velocity=64 time=6\n",
      "note_off channel=0 note=91 velocity=64 time=1\n",
      "note_on channel=0 note=92 velocity=63 time=0\n",
      "note_off channel=0 note=69 velocity=64 time=1\n",
      "note_on channel=0 note=77 velocity=34 time=0\n",
      "note_off channel=0 note=94 velocity=64 time=0\n",
      "note_on channel=0 note=95 velocity=33 time=0\n",
      "note_on channel=0 note=71 velocity=26 time=1\n",
      "note_on channel=0 note=94 velocity=47 time=0\n",
      "note_off channel=0 note=97 velocity=64 time=0\n",
      "note_off channel=0 note=50 velocity=64 time=1\n",
      "note_on channel=0 note=51 velocity=53 time=0\n",
      "note_off channel=0 note=78 velocity=64 time=0\n",
      "note_off channel=0 note=81 velocity=64 time=0\n",
      "note_on channel=0 note=83 velocity=52 time=0\n",
      "note_off channel=0 note=90 velocity=64 time=0\n",
      "note_on channel=0 note=91 velocity=50 time=0\n",
      "note_off channel=0 note=74 velocity=64 time=1\n",
      "note_on channel=0 note=78 velocity=24 time=0\n",
      "note_on channel=0 note=81 velocity=24 time=0\n",
      "note_on channel=0 note=69 velocity=38 time=1\n",
      "note_off channel=0 note=91 velocity=64 time=0\n",
      "note_on channel=0 note=50 velocity=61 time=1\n",
      "note_off channel=0 note=51 velocity=64 time=0\n",
      "note_off channel=0 note=71 velocity=64 time=0\n",
      "note_on channel=0 note=71 velocity=34 time=1\n",
      "note_on channel=0 note=74 velocity=37 time=0\n",
      "note_off channel=0 note=78 velocity=64 time=0\n",
      "note_off channel=0 note=84 velocity=64 time=0\n",
      "note_off channel=0 note=94 velocity=64 time=0\n",
      "note_off channel=0 note=101 velocity=64 time=0\n",
      "note_off channel=0 note=69 velocity=64 time=1\n",
      "note_on channel=0 note=80 velocity=39 time=0\n",
      "note_off channel=0 note=81 velocity=64 time=0\n",
      "note_off channel=0 note=92 velocity=64 time=0\n",
      "note_on channel=0 note=94 velocity=12 time=0\n",
      "note_off channel=0 note=71 velocity=64 time=1\n",
      "note_on channel=0 note=78 velocity=37 time=0\n",
      "note_off channel=0 note=102 velocity=64 time=0\n",
      "note_on channel=0 note=49 velocity=70 time=1\n",
      "note_off channel=0 note=50 velocity=64 time=0\n",
      "note_on channel=0 note=57 velocity=44 time=0\n",
      "note_on channel=0 note=62 velocity=70 time=0\n",
      "note_off channel=0 note=63 velocity=64 time=0\n",
      "note_on channel=0 note=71 velocity=50 time=0\n",
      "note_off channel=0 note=77 velocity=64 time=0\n",
      "note_on channel=0 note=98 velocity=19 time=0\n",
      "note_on channel=0 note=68 velocity=44 time=1\n",
      "note_on channel=0 note=82 velocity=42 time=0\n",
      "note_off channel=0 note=83 velocity=64 time=0\n",
      "note_off channel=0 note=94 velocity=64 time=0\n",
      "note_off channel=0 note=95 velocity=64 time=0\n",
      "note_on channel=0 note=102 velocity=28 time=0\n",
      "note_off channel=0 note=62 velocity=64 time=1\n",
      "note_on channel=0 note=63 velocity=79 time=0\n",
      "note_on channel=0 note=77 velocity=25 time=0\n",
      "note_off channel=0 note=78 velocity=64 time=0\n",
      "note_off channel=0 note=57 velocity=64 time=1\n",
      "note_off channel=0 note=82 velocity=64 time=0\n",
      "note_off channel=0 note=74 velocity=64 time=1\n",
      "note_off channel=0 note=87 velocity=64 time=0\n",
      "note_on channel=0 note=91 velocity=24 time=0\n",
      "note_on channel=0 note=99 velocity=16 time=0\n",
      "note_off channel=0 note=89 velocity=64 time=1\n",
      "note_on channel=0 note=100 velocity=21 time=1\n",
      "note_on channel=0 note=73 velocity=24 time=3\n",
      "note_off channel=0 note=91 velocity=64 time=2\n",
      "note_on channel=0 note=91 velocity=17 time=2\n",
      "note_on channel=0 note=87 velocity=33 time=1\n",
      "note_off channel=0 note=85 velocity=64 time=1\n",
      "note_off channel=0 note=99 velocity=64 time=0\n",
      "note_off channel=0 note=91 velocity=64 time=1\n",
      "note_off channel=0 note=100 velocity=64 time=0\n",
      "note_off channel=0 note=73 velocity=64 time=5\n",
      "note_off channel=0 note=102 velocity=64 time=0\n",
      "note_off channel=0 note=98 velocity=64 time=1\n",
      "note_off channel=0 note=68 velocity=64 time=1\n",
      "note_on channel=0 note=68 velocity=24 time=1\n",
      "note_off channel=0 note=80 velocity=64 time=2\n",
      "note_on channel=0 note=73 velocity=29 time=2\n",
      "note_on channel=0 note=80 velocity=78 time=0\n",
      "note_on channel=0 note=85 velocity=43 time=0\n",
      "note_on channel=0 note=89 velocity=71 time=0\n",
      "note_on channel=0 note=91 velocity=39 time=0\n",
      "note_on channel=0 note=95 velocity=40 time=0\n",
      "note_off channel=0 note=49 velocity=64 time=1\n",
      "note_off channel=0 note=77 velocity=64 time=0\n",
      "note_off channel=0 note=68 velocity=64 time=1\n",
      "note_on channel=0 note=77 velocity=31 time=0\n",
      "note_on channel=0 note=93 velocity=22 time=0\n",
      "note_off channel=0 note=71 velocity=64 time=1\n",
      "note_off channel=0 note=73 velocity=64 time=0\n",
      "note_on channel=0 note=74 velocity=47 time=0\n",
      "note_on channel=0 note=100 velocity=18 time=0\n",
      "note_on channel=0 note=49 velocity=58 time=1\n",
      "note_on channel=0 note=94 velocity=37 time=0\n",
      "note_on channel=0 note=60 velocity=50 time=1\n",
      "note_off channel=0 note=63 velocity=64 time=0\n",
      "note_on channel=0 note=67 velocity=47 time=0\n",
      "note_on channel=0 note=76 velocity=38 time=0\n",
      "note_off channel=0 note=77 velocity=64 time=0\n",
      "note_on channel=0 note=82 velocity=37 time=0\n",
      "note_on channel=0 note=84 velocity=36 time=0\n",
      "note_on channel=0 note=88 velocity=45 time=0\n",
      "note_off channel=0 note=93 velocity=64 time=0\n",
      "note_on channel=0 note=48 velocity=59 time=1\n",
      "note_off channel=0 note=49 velocity=64 time=0\n",
      "note_on channel=0 note=72 velocity=58 time=0\n",
      "note_off channel=0 note=74 velocity=64 time=0\n",
      "note_on channel=0 note=79 velocity=52 time=0\n",
      "note_off channel=0 note=87 velocity=64 time=1\n",
      "note_off channel=0 note=89 velocity=64 time=0\n",
      "note_on channel=0 note=90 velocity=58 time=0\n",
      "note_on channel=0 note=75 velocity=30 time=1\n",
      "note_off channel=0 note=76 velocity=64 time=0\n",
      "note_off channel=0 note=79 velocity=64 time=0\n",
      "note_on channel=0 note=93 velocity=30 time=0\n",
      "note_off channel=0 note=91 velocity=64 time=1\n",
      "note_off channel=0 note=48 velocity=64 time=1\n",
      "note_on channel=0 note=49 velocity=65 time=0\n",
      "note_off channel=0 note=60 velocity=64 time=0\n",
      "note_off channel=0 note=67 velocity=64 time=0\n",
      "note_off channel=0 note=72 velocity=64 time=0\n",
      "note_on channel=0 note=74 velocity=58 time=0\n",
      "note_off channel=0 note=75 velocity=64 time=0\n",
      "note_off channel=0 note=82 velocity=64 time=0\n",
      "note_on channel=0 note=83 velocity=44 time=0\n",
      "note_off channel=0 note=84 velocity=64 time=0\n",
      "note_on channel=0 note=89 velocity=45 time=0\n",
      "note_off channel=0 note=90 velocity=64 time=0\n",
      "note_on channel=0 note=91 velocity=61 time=0\n",
      "note_on channel=0 note=76 velocity=29 time=1\n",
      "note_on channel=0 note=78 velocity=43 time=0\n",
      "note_on channel=0 note=84 velocity=21 time=0\n",
      "note_off channel=0 note=49 velocity=64 time=1\n",
      "note_on channel=0 note=50 velocity=70 time=0\n",
      "note_on channel=0 note=71 velocity=39 time=0\n",
      "note_on channel=0 note=87 velocity=28 time=0\n",
      "note_off channel=0 note=88 velocity=64 time=0\n",
      "note_on channel=0 note=63 velocity=49 time=1\n",
      "note_on channel=0 note=73 velocity=34 time=0\n",
      "note_off channel=0 note=74 velocity=64 time=0\n",
      "note_on channel=0 note=75 velocity=58 time=0\n",
      "note_off channel=0 note=76 velocity=64 time=0\n",
      "note_on channel=0 note=77 velocity=25 time=0\n",
      "note_off channel=0 note=78 velocity=64 time=0\n",
      "note_on channel=0 note=82 velocity=29 time=0\n",
      "note_off channel=0 note=93 velocity=64 time=0\n",
      "note_off channel=0 note=100 velocity=64 time=0\n",
      "note_on channel=0 note=102 velocity=28 time=0\n",
      "note_off channel=0 note=83 velocity=64 time=1\n",
      "note_off channel=0 note=84 velocity=64 time=0\n",
      "note_off channel=0 note=50 velocity=64 time=1\n",
      "note_on channel=0 note=51 velocity=44 time=0\n",
      "note_on channel=0 note=78 velocity=29 time=0\n",
      "note_off channel=0 note=73 velocity=64 time=1\n",
      "note_on channel=0 note=81 velocity=39 time=0\n",
      "note_off channel=0 note=82 velocity=64 time=0\n",
      "note_off channel=0 note=85 velocity=64 time=0\n",
      "note_off channel=0 note=89 velocity=64 time=0\n",
      "note_on channel=0 note=93 velocity=52 time=0\n",
      "note_off channel=0 note=94 velocity=64 time=0\n",
      "note_on channel=0 note=50 velocity=68 time=1\n",
      "note_off channel=0 note=51 velocity=64 time=0\n",
      "note_off channel=0 note=63 velocity=64 time=0\n",
      "note_on channel=0 note=65 velocity=36 time=0\n",
      "note_on channel=0 note=69 velocity=42 time=0\n",
      "note_off channel=0 note=71 velocity=64 time=0\n",
      "note_on channel=0 note=74 velocity=54 time=0\n",
      "note_off channel=0 note=75 velocity=64 time=0\n",
      "note_off channel=0 note=77 velocity=64 time=0\n",
      "note_on channel=0 note=83 velocity=35 time=0\n",
      "note_off channel=0 note=87 velocity=64 time=0\n",
      "note_on channel=0 note=89 velocity=23 time=0\n",
      "note_off channel=0 note=91 velocity=64 time=0\n",
      "note_on channel=0 note=94 velocity=43 time=0\n",
      "note_on channel=0 note=61 velocity=50 time=1\n",
      "note_on channel=0 note=71 velocity=33 time=0\n",
      "note_off channel=0 note=78 velocity=64 time=0\n",
      "note_off channel=0 note=81 velocity=64 time=0\n",
      "note_on channel=0 note=91 velocity=52 time=0\n",
      "note_off channel=0 note=93 velocity=64 time=0\n",
      "note_on channel=0 note=68 velocity=39 time=1\n",
      "note_off channel=0 note=69 velocity=64 time=0\n",
      "note_on channel=0 note=73 velocity=56 time=0\n",
      "note_off channel=0 note=74 velocity=64 time=0\n",
      "note_on channel=0 note=49 velocity=68 time=2\n",
      "note_off channel=0 note=50 velocity=64 time=0\n",
      "note_off channel=0 note=68 velocity=64 time=0\n",
      "note_on channel=0 note=69 velocity=44 time=0\n",
      "note_off channel=0 note=89 velocity=64 time=0\n",
      "note_on channel=0 note=90 velocity=21 time=0\n",
      "note_on channel=0 note=93 velocity=64 time=0\n",
      "note_off channel=0 note=102 velocity=64 time=0\n",
      "note_off channel=0 note=49 velocity=64 time=1\n",
      "note_on channel=0 note=50 velocity=70 time=0\n",
      "note_off channel=0 note=61 velocity=64 time=0\n",
      "note_off channel=0 note=73 velocity=64 time=0\n",
      "note_on channel=0 note=74 velocity=60 time=0\n",
      "note_off channel=0 note=83 velocity=64 time=0\n",
      "note_off channel=0 note=71 velocity=64 time=1\n",
      "note_off channel=0 note=80 velocity=64 time=0\n",
      "note_off channel=0 note=95 velocity=64 time=0\n",
      "note_on channel=0 note=71 velocity=53 time=1\n",
      "note_on channel=0 note=80 velocity=48 time=0\n",
      "note_on channel=0 note=84 velocity=14 time=0\n",
      "note_on channel=0 note=92 velocity=52 time=0\n",
      "note_off channel=0 note=69 velocity=64 time=1\n",
      "note_on channel=0 note=60 velocity=37 time=1\n",
      "note_off channel=0 note=91 velocity=64 time=0\n",
      "note_off channel=0 note=94 velocity=64 time=0\n",
      "note_off channel=0 note=84 velocity=64 time=1\n",
      "note_off channel=0 note=90 velocity=64 time=0\n",
      "note_on channel=0 note=49 velocity=59 time=1\n",
      "note_off channel=0 note=50 velocity=64 time=0\n",
      "note_off channel=0 note=60 velocity=64 time=0\n",
      "note_on channel=0 note=68 velocity=61 time=0\n",
      "note_on channel=0 note=91 velocity=48 time=0\n",
      "note_off channel=0 note=92 velocity=64 time=0\n",
      "note_off channel=0 note=65 velocity=64 time=1\n",
      "note_on channel=0 note=90 velocity=53 time=0\n",
      "note_on channel=0 note=48 velocity=54 time=1\n",
      "note_off channel=0 note=49 velocity=64 time=0\n",
      "note_on channel=0 note=57 velocity=60 time=0\n",
      "note_on channel=0 note=62 velocity=65 time=0\n",
      "note_on channel=0 note=73 velocity=52 time=0\n",
      "note_off channel=0 note=74 velocity=64 time=0\n",
      "note_on channel=0 note=75 velocity=34 time=0\n",
      "note_on channel=0 note=77 velocity=39 time=0\n",
      "note_on channel=0 note=89 velocity=44 time=0\n",
      "note_on channel=0 note=94 velocity=27 time=0\n",
      "note_on channel=0 note=96 velocity=17 time=0\n",
      "note_off channel=0 note=91 velocity=64 time=1\n",
      "note_on channel=0 note=92 velocity=62 time=0\n",
      "note_off channel=0 note=48 velocity=64 time=1\n",
      "note_on channel=0 note=49 velocity=67 time=1\n",
      "note_off channel=0 note=57 velocity=64 time=0\n",
      "note_off channel=0 note=62 velocity=64 time=0\n",
      "note_off channel=0 note=75 velocity=64 time=0\n",
      "note_off channel=0 note=94 velocity=64 time=0\n",
      "note_off channel=0 note=90 velocity=64 time=1\n",
      "note_on channel=0 note=91 velocity=63 time=0\n",
      "note_off channel=0 note=96 velocity=64 time=0\n",
      "note_on channel=0 note=65 velocity=40 time=2\n",
      "note_off channel=0 note=92 velocity=64 time=1\n",
      "note_on channel=0 note=60 velocity=46 time=1\n",
      "note_off channel=0 note=68 velocity=64 time=0\n",
      "note_on channel=0 note=75 velocity=34 time=0\n",
      "note_off channel=0 note=89 velocity=64 time=0\n",
      "note_on channel=0 note=90 velocity=33 time=0\n",
      "note_off channel=0 note=49 velocity=64 time=1\n",
      "note_off channel=0 note=73 velocity=64 time=0\n",
      "note_off channel=0 note=77 velocity=64 time=0\n",
      "note_on channel=0 note=78 velocity=37 time=0\n",
      "note_on channel=0 note=88 velocity=20 time=0\n",
      "note_on channel=0 note=94 velocity=24 time=0\n",
      "note_on channel=0 note=59 velocity=41 time=1\n",
      "note_off channel=0 note=60 velocity=64 time=0\n",
      "note_off channel=0 note=65 velocity=64 time=0\n",
      "note_on channel=0 note=66 velocity=36 time=0\n",
      "note_on channel=0 note=68 velocity=35 time=0\n",
      "note_on channel=0 note=73 velocity=32 time=0\n",
      "note_off channel=0 note=93 velocity=64 time=1\n",
      "note_off channel=0 note=71 velocity=64 time=1\n",
      "note_off channel=0 note=75 velocity=64 time=0\n",
      "note_on channel=0 note=47 velocity=51 time=1\n",
      "note_on channel=0 note=71 velocity=47 time=0\n",
      "note_off channel=0 note=73 velocity=64 time=0\n",
      "note_on channel=0 note=75 velocity=51 time=0\n",
      "note_on channel=0 note=93 velocity=51 time=0\n",
      "note_off channel=0 note=66 velocity=64 time=1\n",
      "note_on channel=0 note=101 velocity=24 time=0\n",
      "note_off channel=0 note=68 velocity=64 time=1\n",
      "note_off channel=0 note=71 velocity=64 time=0\n",
      "note_on channel=0 note=84 velocity=35 time=0\n",
      "note_off channel=0 note=88 velocity=64 time=0\n",
      "note_on channel=0 note=89 velocity=33 time=0\n",
      "note_off channel=0 note=47 velocity=64 time=1\n",
      "note_on channel=0 note=53 velocity=35 time=0\n",
      "note_off channel=0 note=59 velocity=64 time=0\n",
      "note_on channel=0 note=73 velocity=23 time=0\n",
      "note_off channel=0 note=91 velocity=64 time=0\n",
      "note_on channel=0 note=47 velocity=39 time=1\n",
      "note_on channel=0 note=66 velocity=43 time=0\n",
      "note_on channel=0 note=71 velocity=51 time=0\n",
      "note_on channel=0 note=91 velocity=50 time=0\n",
      "note_off channel=0 note=53 velocity=64 time=1\n",
      "note_off channel=0 note=89 velocity=64 time=0\n",
      "note_off channel=0 note=73 velocity=64 time=1\n",
      "note_on channel=0 note=82 velocity=33 time=0\n",
      "note_off channel=0 note=84 velocity=64 time=1\n",
      "note_on channel=0 note=81 velocity=21 time=1\n",
      "note_on channel=0 note=88 velocity=22 time=0\n",
      "note_off channel=0 note=91 velocity=64 time=0\n",
      "note_off channel=0 note=66 velocity=64 time=1\n",
      "note_on channel=0 note=68 velocity=39 time=0\n",
      "note_on channel=0 note=66 velocity=40 time=1\n",
      "note_off channel=0 note=78 velocity=64 time=0\n",
      "note_on channel=0 note=84 velocity=26 time=0\n",
      "note_on channel=0 note=86 velocity=25 time=0\n",
      "note_off channel=0 note=90 velocity=64 time=0\n",
      "note_on channel=0 note=91 velocity=79 time=0\n",
      "note_off channel=0 note=47 velocity=64 time=1\n",
      "note_on channel=0 note=48 velocity=62 time=0\n",
      "note_off channel=0 note=94 velocity=64 time=0\n",
      "note_off channel=0 note=66 velocity=64 time=1\n",
      "note_off channel=0 note=68 velocity=64 time=0\n",
      "note_off channel=0 note=81 velocity=64 time=0\n",
      "note_off channel=0 note=93 velocity=64 time=0\n",
      "note_on channel=0 note=68 velocity=51 time=1\n",
      "note_on channel=0 note=65 velocity=54 time=1\n",
      "note_off channel=0 note=75 velocity=64 time=0\n",
      "note_off channel=0 note=88 velocity=64 time=0\n",
      "note_on channel=0 note=89 velocity=39 time=0\n",
      "note_off channel=0 note=101 velocity=64 time=0\n",
      "note_on channel=0 note=90 velocity=52 time=1\n",
      "note_off channel=0 note=71 velocity=64 time=1\n",
      "note_on channel=0 note=74 velocity=33 time=0\n",
      "note_off channel=0 note=86 velocity=64 time=0\n",
      "note_on channel=0 note=93 velocity=35 time=0\n",
      "note_on channel=0 note=47 velocity=67 time=1\n",
      "note_off channel=0 note=48 velocity=64 time=0\n",
      "note_on channel=0 note=64 velocity=71 time=0\n",
      "note_off channel=0 note=65 velocity=64 time=0\n",
      "note_off channel=0 note=68 velocity=64 time=0\n",
      "note_on channel=0 note=45 velocity=67 time=1\n",
      "note_off channel=0 note=47 velocity=64 time=0\n",
      "note_on channel=0 note=68 velocity=48 time=0\n",
      "note_on channel=0 note=73 velocity=62 time=0\n",
      "note_off channel=0 note=74 velocity=64 time=0\n",
      "note_off channel=0 note=82 velocity=64 time=0\n",
      "note_on channel=0 note=83 velocity=50 time=0\n",
      "note_on channel=0 note=88 velocity=28 time=0\n",
      "note_on channel=0 note=92 velocity=54 time=0\n",
      "note_on channel=0 note=44 velocity=73 time=1\n",
      "note_off channel=0 note=45 velocity=64 time=0\n",
      "note_off channel=0 note=89 velocity=64 time=0\n",
      "note_on channel=0 note=61 velocity=52 time=1\n",
      "note_off channel=0 note=64 velocity=64 time=0\n",
      "note_off channel=0 note=68 velocity=64 time=0\n",
      "note_off channel=0 note=84 velocity=64 time=0\n",
      "note_on channel=0 note=89 velocity=57 time=0\n",
      "note_off channel=0 note=90 velocity=64 time=0\n",
      "note_off channel=0 note=93 velocity=64 time=0\n",
      "note_on channel=0 note=94 velocity=39 time=0\n",
      "note_on channel=0 note=43 velocity=71 time=1\n",
      "note_off channel=0 note=44 velocity=64 time=0\n",
      "note_on channel=0 note=49 velocity=71 time=0\n",
      "note_on channel=0 note=65 velocity=68 time=0\n",
      "note_on channel=0 note=68 velocity=46 time=0\n",
      "note_off channel=0 note=43 velocity=64 time=1\n",
      "note_on channel=0 note=48 velocity=80 time=0\n",
      "note_off channel=0 note=49 velocity=64 time=0\n",
      "note_on channel=0 note=71 velocity=17 time=0\n",
      "note_off channel=0 note=88 velocity=64 time=0\n",
      "note_off channel=0 note=48 velocity=64 time=1\n",
      "note_on channel=0 note=49 velocity=73 time=0\n",
      "note_off channel=0 note=61 velocity=64 time=1\n",
      "note_off channel=0 note=71 velocity=64 time=1\n",
      "note_on channel=0 note=75 velocity=23 time=2\n",
      "note_on channel=0 note=82 velocity=37 time=0\n",
      "note_on channel=0 note=84 velocity=28 time=0\n",
      "note_on channel=0 note=87 velocity=24 time=0\n",
      "note_off channel=0 note=83 velocity=64 time=1\n",
      "note_on channel=0 note=86 velocity=27 time=0\n",
      "note_off channel=0 note=94 velocity=64 time=0\n",
      "note_on channel=0 note=78 velocity=23 time=1\n",
      "note_off channel=0 note=73 velocity=64 time=1\n",
      "note_off channel=0 note=92 velocity=64 time=0\n",
      "note_off channel=0 note=49 velocity=64 time=1\n",
      "note_on channel=0 note=48 velocity=65 time=1\n",
      "note_off channel=0 note=78 velocity=64 time=0\n",
      "note_on channel=0 note=47 velocity=66 time=2\n",
      "note_off channel=0 note=48 velocity=64 time=0\n",
      "note_off channel=0 note=47 velocity=64 time=1\n",
      "note_off channel=0 note=91 velocity=64 time=0\n",
      "note_on channel=0 note=49 velocity=68 time=1\n",
      "note_on channel=0 note=88 velocity=30 time=0\n",
      "note_off channel=0 note=89 velocity=64 time=0\n",
      "note_off channel=0 note=49 velocity=64 time=1\n",
      "note_on channel=0 note=52 velocity=69 time=0\n",
      "note_off channel=0 note=52 velocity=64 time=1\n",
      "note_on channel=0 note=53 velocity=63 time=0\n",
      "note_on channel=0 note=73 velocity=17 time=0\n",
      "note_on channel=0 note=90 velocity=18 time=1\n",
      "note_on channel=0 note=93 velocity=13 time=0\n",
      "note_off channel=0 note=87 velocity=64 time=1\n",
      "note_off channel=0 note=53 velocity=64 time=1\n",
      "note_on channel=0 note=61 velocity=38 time=0\n",
      "note_on channel=0 note=85 velocity=17 time=0\n",
      "note_off channel=0 note=86 velocity=64 time=0\n",
      "note_on channel=0 note=53 velocity=49 time=1\n",
      "note_on channel=0 note=83 velocity=29 time=0\n",
      "note_off channel=0 note=82 velocity=64 time=1\n",
      "note_off channel=0 note=93 velocity=64 time=0\n",
      "note_on channel=0 note=78 velocity=34 time=1\n",
      "note_on channel=0 note=82 velocity=42 time=0\n",
      "note_off channel=0 note=83 velocity=64 time=0\n",
      "note_off channel=0 note=53 velocity=64 time=1\n",
      "note_on channel=0 note=71 velocity=26 time=0\n",
      "note_off channel=0 note=73 velocity=64 time=0\n",
      "note_off channel=0 note=88 velocity=64 time=0\n",
      "note_on channel=0 note=89 velocity=35 time=0\n",
      "note_off channel=0 note=61 velocity=64 time=1\n",
      "note_off channel=0 note=68 velocity=64 time=0\n",
      "note_on channel=0 note=73 velocity=49 time=0\n",
      "note_on channel=0 note=45 velocity=69 time=1\n",
      "note_on channel=0 note=53 velocity=40 time=0\n",
      "note_on channel=0 note=64 velocity=72 time=0\n",
      "note_off channel=0 note=65 velocity=64 time=0\n",
      "note_off channel=0 note=75 velocity=64 time=0\n",
      "note_off channel=0 note=78 velocity=64 time=0\n",
      "note_off channel=0 note=82 velocity=64 time=0\n",
      "note_on channel=0 note=83 velocity=40 time=0\n",
      "note_on channel=0 note=87 velocity=51 time=0\n",
      "note_on channel=0 note=88 velocity=34 time=0\n",
      "note_off channel=0 note=90 velocity=64 time=0\n",
      "note_on channel=0 note=44 velocity=72 time=1\n",
      "note_off channel=0 note=45 velocity=64 time=0\n",
      "note_on channel=0 note=63 velocity=60 time=0\n",
      "note_off channel=0 note=71 velocity=64 time=0\n",
      "note_on channel=0 note=78 velocity=36 time=0\n",
      "note_on channel=0 note=82 velocity=40 time=0\n",
      "note_on channel=0 note=90 velocity=40 time=0\n",
      "note_off channel=0 note=53 velocity=64 time=1\n",
      "note_on channel=0 note=55 velocity=64 time=0\n",
      "note_off channel=0 note=64 velocity=64 time=0\n",
      "note_on channel=0 note=69 velocity=36 time=0\n",
      "note_off channel=0 note=83 velocity=64 time=0\n",
      "note_off channel=0 note=85 velocity=64 time=0\n",
      "note_off channel=0 note=89 velocity=64 time=0\n",
      "note_on channel=0 note=91 velocity=44 time=0\n",
      "note_off channel=0 note=63 velocity=64 time=1\n",
      "note_on channel=0 note=67 velocity=73 time=1\n",
      "note_off channel=0 note=69 velocity=64 time=0\n",
      "note_on channel=0 note=85 velocity=63 time=0\n",
      "note_off channel=0 note=44 velocity=64 time=1\n",
      "note_on channel=0 note=54 velocity=72 time=0\n",
      "note_off channel=0 note=55 velocity=64 time=0\n",
      "note_on channel=0 note=61 velocity=61 time=0\n",
      "note_on channel=0 note=71 velocity=14 time=0\n",
      "note_off channel=0 note=78 velocity=64 time=0\n",
      "note_off channel=0 note=82 velocity=64 time=0\n",
      "note_on channel=0 note=83 velocity=69 time=0\n",
      "note_on channel=0 note=93 velocity=18 time=0\n",
      "note_off channel=0 note=73 velocity=64 time=1\n",
      "note_on channel=0 note=74 velocity=59 time=0\n",
      "note_on channel=0 note=94 velocity=21 time=0\n",
      "note_on channel=0 note=101 velocity=14 time=0\n",
      "note_off channel=0 note=54 velocity=64 time=1\n",
      "note_on channel=0 note=55 velocity=75 time=0\n",
      "note_on channel=0 note=78 velocity=60 time=0\n",
      "note_off channel=0 note=80 velocity=64 time=0\n",
      "note_on channel=0 note=82 velocity=74 time=0\n",
      "note_off channel=0 note=83 velocity=64 time=0\n",
      "note_on channel=0 note=54 velocity=74 time=1\n",
      "note_off channel=0 note=55 velocity=64 time=0\n",
      "note_off channel=0 note=67 velocity=64 time=0\n",
      "note_on channel=0 note=73 velocity=62 time=0\n",
      "note_off channel=0 note=74 velocity=64 time=0\n",
      "note_off channel=0 note=91 velocity=64 time=0\n",
      "note_off channel=0 note=93 velocity=64 time=0\n",
      "note_off channel=0 note=71 velocity=64 time=1\n",
      "note_off channel=0 note=84 velocity=64 time=0\n",
      "note_on channel=0 note=89 velocity=34 time=0\n",
      "note_off channel=0 note=101 velocity=64 time=0\n",
      "note_on channel=0 note=42 velocity=50 time=1\n",
      "note_on channel=0 note=72 velocity=64 time=0\n",
      "note_on channel=0 note=81 velocity=48 time=0\n",
      "note_off channel=0 note=90 velocity=64 time=0\n",
      "note_on channel=0 note=91 velocity=48 time=0\n",
      "note_off channel=0 note=94 velocity=64 time=0\n",
      "note_on channel=0 note=102 velocity=11 time=0\n",
      "note_on channel=0 note=53 velocity=74 time=1\n",
      "note_off channel=0 note=54 velocity=64 time=0\n",
      "note_off channel=0 note=73 velocity=64 time=0\n",
      "note_on channel=0 note=77 velocity=50 time=0\n",
      "note_off channel=0 note=78 velocity=64 time=0\n",
      "note_off channel=0 note=82 velocity=64 time=0\n",
      "note_off channel=0 note=85 velocity=64 time=0\n",
      "note_off channel=0 note=88 velocity=64 time=0\n",
      "note_on channel=0 note=90 velocity=58 time=0\n",
      "note_on channel=0 note=94 velocity=36 time=0\n",
      "note_on channel=0 note=82 velocity=40 time=1\n",
      "note_on channel=0 note=85 velocity=32 time=0\n",
      "note_on channel=0 note=88 velocity=57 time=0\n",
      "note_on channel=0 note=92 velocity=43 time=0\n",
      "note_on channel=0 note=98 velocity=19 time=0\n",
      "note_on channel=0 note=52 velocity=74 time=1\n",
      "note_off channel=0 note=53 velocity=64 time=0\n",
      "note_on channel=0 note=76 velocity=36 time=0\n",
      "note_on channel=0 note=80 velocity=77 time=0\n",
      "note_off channel=0 note=81 velocity=64 time=0\n",
      "note_on channel=0 note=83 velocity=45 time=0\n",
      "note_on channel=0 note=86 velocity=36 time=0\n",
      "note_off channel=0 note=89 velocity=64 time=0\n",
      "note_on channel=0 note=101 velocity=34 time=0\n",
      "note_off channel=0 note=102 velocity=64 time=0\n",
      "note_off channel=0 note=42 velocity=64 time=1\n",
      "note_on channel=0 note=43 velocity=47 time=0\n",
      "note_on channel=0 note=71 velocity=67 time=0\n",
      "note_off channel=0 note=72 velocity=64 time=0\n",
      "note_off channel=0 note=77 velocity=64 time=0\n",
      "note_on channel=0 note=78 velocity=25 time=0\n",
      "note_off channel=0 note=91 velocity=64 time=0\n",
      "note_off channel=0 note=85 velocity=64 time=1\n",
      "note_on channel=0 note=42 velocity=47 time=1\n",
      "note_off channel=0 note=43 velocity=64 time=0\n",
      "note_off channel=0 note=86 velocity=64 time=0\n",
      "note_off channel=0 note=78 velocity=64 time=1\n",
      "note_off channel=0 note=82 velocity=64 time=0\n",
      "note_on channel=0 note=75 velocity=36 time=1\n",
      "note_on channel=0 note=82 velocity=31 time=0\n",
      "note_on channel=0 note=86 velocity=28 time=0\n",
      "note_off channel=0 note=82 velocity=64 time=2\n",
      "note_off channel=0 note=71 velocity=64 time=1\n",
      "note_off channel=0 note=76 velocity=64 time=0\n",
      "note_on channel=0 note=82 velocity=37 time=0\n",
      "note_on channel=0 note=89 velocity=66 time=0\n",
      "note_off channel=0 note=94 velocity=64 time=0\n",
      "note_off channel=0 note=42 velocity=64 time=1\n",
      "note_off channel=0 note=83 velocity=64 time=0\n",
      "note_off channel=0 note=86 velocity=64 time=0\n",
      "note_on channel=0 note=42 velocity=45 time=1\n",
      "note_on channel=0 note=71 velocity=30 time=0\n",
      "note_off channel=0 note=88 velocity=64 time=0\n",
      "note_off channel=0 note=101 velocity=64 time=1\n",
      "note_on channel=0 note=51 velocity=48 time=1\n",
      "note_off channel=0 note=52 velocity=64 time=0\n",
      "note_off channel=0 note=92 velocity=64 time=0\n",
      "note_off channel=0 note=42 velocity=64 time=1\n",
      "note_on channel=0 note=84 velocity=25 time=0\n",
      "note_off channel=0 note=98 velocity=64 time=0\n",
      "note_off channel=0 note=51 velocity=64 time=1\n",
      "note_on channel=0 note=78 velocity=38 time=0\n",
      "note_on channel=0 note=85 velocity=42 time=0\n",
      "note_off channel=0 note=71 velocity=64 time=1\n",
      "note_on channel=0 note=76 velocity=39 time=0\n",
      "note_off channel=0 note=90 velocity=64 time=0\n",
      "note_on channel=0 note=47 velocity=77 time=1\n",
      "note_on channel=0 note=64 velocity=56 time=0\n",
      "note_off channel=0 note=75 velocity=64 time=0\n",
      "note_on channel=0 note=95 velocity=49 time=0\n",
      "note_off channel=0 note=47 velocity=64 time=1\n",
      "note_on channel=0 note=48 velocity=79 time=0\n",
      "note_on channel=0 note=67 velocity=80 time=0\n",
      "note_on channel=0 note=75 velocity=38 time=0\n",
      "note_off channel=0 note=76 velocity=64 time=0\n",
      "note_on channel=0 note=91 velocity=59 time=0\n",
      "note_on channel=0 note=93 velocity=74 time=0\n",
      "note_off channel=0 note=61 velocity=64 time=1\n",
      "note_off channel=0 note=64 velocity=64 time=0\n",
      "note_off channel=0 note=78 velocity=64 time=0\n",
      "note_on channel=0 note=102 velocity=55 time=0\n",
      "note_off channel=0 note=48 velocity=64 time=1\n",
      "note_on channel=0 note=55 velocity=68 time=0\n",
      "note_on channel=0 note=61 velocity=32 time=0\n",
      "note_on channel=0 note=74 velocity=70 time=0\n",
      "note_off channel=0 note=75 velocity=64 time=0\n",
      "note_on channel=0 note=78 velocity=28 time=0\n",
      "note_off channel=0 note=82 velocity=64 time=0\n",
      "note_on channel=0 note=83 velocity=60 time=0\n",
      "note_on channel=0 note=98 velocity=31 time=0\n",
      "note_on channel=0 note=100 velocity=39 time=1\n",
      "note_off channel=0 note=61 velocity=64 time=1\n",
      "note_on channel=0 note=88 velocity=33 time=0\n",
      "note_on channel=0 note=94 velocity=67 time=0\n",
      "note_off channel=0 note=95 velocity=64 time=0\n",
      "note_off channel=0 note=102 velocity=64 time=0\n",
      "note_on channel=0 note=82 velocity=59 time=1\n",
      "note_off channel=0 note=83 velocity=64 time=0\n",
      "note_off channel=0 note=85 velocity=64 time=0\n",
      "note_on channel=0 note=102 velocity=29 time=0\n",
      "note_on channel=0 note=66 velocity=74 time=1\n",
      "note_off channel=0 note=67 velocity=64 time=0\n",
      "note_on channel=0 note=71 velocity=25 time=0\n",
      "note_on channel=0 note=73 velocity=69 time=0\n",
      "note_off channel=0 note=74 velocity=64 time=0\n",
      "note_on channel=0 note=96 velocity=27 time=0\n",
      "note_off channel=0 note=98 velocity=64 time=0\n",
      "note_on channel=0 note=54 velocity=64 time=1\n",
      "note_off channel=0 note=55 velocity=64 time=0\n",
      "note_on channel=0 note=86 velocity=31 time=1\n",
      "note_off channel=0 note=89 velocity=64 time=0\n",
      "note_on channel=0 note=95 velocity=41 time=0\n",
      "note_on channel=0 note=77 velocity=19 time=1\n",
      "note_off channel=0 note=78 velocity=64 time=0\n",
      "note_off channel=0 note=100 velocity=64 time=0\n",
      "note_off channel=0 note=102 velocity=64 time=0\n",
      "note_on channel=0 note=44 velocity=29 time=1\n",
      "note_off channel=0 note=54 velocity=64 time=0\n",
      "note_on channel=0 note=55 velocity=35 time=0\n",
      "note_off channel=0 note=73 velocity=64 time=0\n",
      "note_on channel=0 note=74 velocity=39 time=0\n",
      "note_on channel=0 note=75 velocity=25 time=0\n",
      "note_off channel=0 note=86 velocity=64 time=0\n",
      "note_off channel=0 note=91 velocity=64 time=0\n",
      "note_off channel=0 note=94 velocity=64 time=0\n",
      "note_off channel=0 note=96 velocity=64 time=0\n",
      "note_on channel=0 note=83 velocity=30 time=1\n",
      "note_off channel=0 note=66 velocity=64 time=1\n",
      "note_on channel=0 note=73 velocity=32 time=0\n",
      "note_off channel=0 note=74 velocity=64 time=0\n",
      "note_off channel=0 note=77 velocity=64 time=0\n",
      "note_on channel=0 note=89 velocity=81 time=0\n",
      "note_off channel=0 note=55 velocity=64 time=1\n",
      "note_on channel=0 note=65 velocity=36 time=0\n",
      "note_on channel=0 note=68 velocity=50 time=0\n",
      "note_on channel=0 note=77 velocity=37 time=0\n",
      "note_off channel=0 note=83 velocity=64 time=0\n",
      "note_off channel=0 note=88 velocity=64 time=0\n",
      "note_on channel=0 note=54 velocity=25 time=1\n",
      "note_off channel=0 note=87 velocity=64 time=0\n",
      "note_on channel=0 note=91 velocity=20 time=0\n",
      "note_on channel=0 note=43 velocity=9 time=1\n",
      "note_off channel=0 note=44 velocity=64 time=0\n",
      "note_on channel=0 note=86 velocity=34 time=0\n",
      "note_on channel=0 note=53 velocity=31 time=2\n",
      "note_off channel=0 note=54 velocity=64 time=0\n",
      "note_on channel=0 note=85 velocity=34 time=0\n",
      "note_off channel=0 note=86 velocity=64 time=0\n",
      "note_on channel=0 note=87 velocity=47 time=0\n",
      "note_off channel=0 note=43 velocity=64 time=1\n",
      "note_off channel=0 note=71 velocity=64 time=0\n",
      "note_on channel=0 note=86 velocity=32 time=0\n",
      "note_off channel=0 note=85 velocity=64 time=1\n",
      "note_off channel=0 note=53 velocity=64 time=1\n",
      "note_on channel=0 note=90 velocity=9 time=1\n",
      "note_off channel=0 note=91 velocity=64 time=0\n",
      "note_on channel=0 note=53 velocity=23 time=1\n",
      "note_off channel=0 note=73 velocity=64 time=1\n",
      "note_on channel=0 note=85 velocity=35 time=2\n",
      "note_off channel=0 note=86 velocity=64 time=0\n",
      "note_off channel=0 note=53 velocity=64 time=1\n",
      "note_off channel=0 note=93 velocity=64 time=0\n",
      "note_on channel=0 note=55 velocity=76 time=1\n",
      "note_off channel=0 note=65 velocity=64 time=0\n",
      "note_on channel=0 note=76 velocity=45 time=0\n",
      "note_off channel=0 note=77 velocity=64 time=0\n",
      "note_off channel=0 note=84 velocity=64 time=0\n",
      "note_off channel=0 note=90 velocity=64 time=0\n",
      "note_on channel=0 note=91 velocity=72 time=0\n",
      "note_on channel=0 note=93 velocity=50 time=0\n",
      "note_off channel=0 note=68 velocity=64 time=1\n",
      "note_off channel=0 note=75 velocity=64 time=0\n",
      "note_on channel=0 note=96 velocity=17 time=0\n",
      "note_on channel=0 note=102 velocity=49 time=0\n",
      "note_on channel=0 note=45 velocity=70 time=1\n",
      "note_on channel=0 note=71 velocity=22 time=0\n",
      "note_on channel=0 note=74 velocity=75 time=0\n",
      "note_on channel=0 note=44 velocity=69 time=1\n",
      "note_off channel=0 note=45 velocity=64 time=0\n",
      "note_on channel=0 note=61 velocity=30 time=0\n",
      "note_off channel=0 note=76 velocity=64 time=0\n",
      "note_on channel=0 note=77 velocity=28 time=0\n",
      "note_off channel=0 note=82 velocity=64 time=0\n",
      "note_on channel=0 note=83 velocity=78 time=0\n",
      "note_on channel=0 note=98 velocity=28 time=0\n",
      "note_on channel=0 note=79 velocity=85 time=1\n",
      "note_off channel=0 note=80 velocity=64 time=0\n",
      "note_on channel=0 note=94 velocity=53 time=0\n",
      "note_on channel=0 note=100 velocity=41 time=0\n",
      "note_off channel=0 note=71 velocity=64 time=1\n",
      "note_off channel=0 note=87 velocity=64 time=0\n",
      "note_on channel=0 note=43 velocity=65 time=1\n",
      "note_off channel=0 note=44 velocity=64 time=0\n",
      "note_on channel=0 note=87 velocity=73 time=0\n",
      "note_off channel=0 note=93 velocity=64 time=0\n",
      "note_off channel=0 note=55 velocity=64 time=1\n",
      "note_on channel=0 note=56 velocity=70 time=0\n",
      "note_off channel=0 note=61 velocity=64 time=0\n",
      "note_on channel=0 note=73 velocity=32 time=0\n",
      "note_off channel=0 note=74 velocity=64 time=0\n",
      "note_on channel=0 note=75 velocity=79 time=0\n",
      "note_off channel=0 note=79 velocity=64 time=0\n",
      "note_on channel=0 note=80 velocity=87 time=0\n",
      "note_off channel=0 note=83 velocity=64 time=0\n",
      "note_on channel=0 note=84 velocity=67 time=0\n",
      "note_on channel=0 note=65 velocity=30 time=1\n",
      "note_on channel=0 note=90 velocity=77 time=0\n",
      "note_off channel=0 note=95 velocity=64 time=0\n",
      "note_off channel=0 note=73 velocity=64 time=1\n",
      "note_on channel=0 note=83 velocity=30 time=0\n",
      "note_on channel=0 note=88 velocity=36 time=0\n",
      "note_off channel=0 note=89 velocity=64 time=0\n",
      "note_off channel=0 note=100 velocity=64 time=0\n",
      "note_on channel=0 note=82 velocity=29 time=1\n",
      "note_on channel=0 note=89 velocity=77 time=0\n",
      "note_on channel=0 note=95 velocity=36 time=0\n",
      "note_off channel=0 note=96 velocity=64 time=0\n",
      "note_off channel=0 note=98 velocity=64 time=0\n",
      "note_off channel=0 note=83 velocity=64 time=1\n",
      "note_off channel=0 note=88 velocity=64 time=0\n",
      "note_on channel=0 note=71 velocity=10 time=1\n",
      "note_off channel=0 note=82 velocity=64 time=0\n",
      "note_off channel=0 note=90 velocity=64 time=0\n",
      "note_off channel=0 note=43 velocity=64 time=1\n",
      "note_on channel=0 note=55 velocity=70 time=0\n",
      "note_off channel=0 note=56 velocity=64 time=0\n",
      "note_off channel=0 note=65 velocity=64 time=0\n",
      "note_on channel=0 note=79 velocity=71 time=0\n",
      "note_on channel=0 note=83 velocity=68 time=0\n",
      "note_off channel=0 note=85 velocity=64 time=0\n",
      "note_on channel=0 note=93 velocity=37 time=0\n",
      "note_on channel=0 note=74 velocity=75 time=1\n",
      "note_off channel=0 note=75 velocity=64 time=0\n",
      "note_off channel=0 note=80 velocity=64 time=0\n",
      "note_on channel=0 note=80 velocity=68 time=1\n",
      "note_off channel=0 note=84 velocity=64 time=0\n",
      "note_off channel=0 note=94 velocity=64 time=0\n",
      "note_off channel=0 note=71 velocity=64 time=1\n",
      "note_off channel=0 note=79 velocity=64 time=0\n"
     ]
    },
    {
     "name": "stdout",
     "output_type": "stream",
     "text": [
      "note_off channel=0 note=55 velocity=64 time=1\n",
      "note_on channel=0 note=56 velocity=69 time=0\n",
      "note_off channel=0 note=74 velocity=64 time=0\n",
      "note_on channel=0 note=75 velocity=57 time=0\n",
      "note_off channel=0 note=77 velocity=64 time=0\n",
      "note_on channel=0 note=84 velocity=39 time=0\n",
      "note_on channel=0 note=90 velocity=60 time=0\n",
      "note_off channel=0 note=91 velocity=64 time=0\n",
      "note_off channel=0 note=56 velocity=64 time=1\n",
      "note_on channel=0 note=69 velocity=39 time=0\n",
      "note_on channel=0 note=82 velocity=35 time=0\n",
      "note_on channel=0 note=85 velocity=41 time=0\n",
      "note_on channel=0 note=91 velocity=51 time=0\n",
      "note_on channel=0 note=58 velocity=61 time=1\n",
      "note_on channel=0 note=77 velocity=67 time=0\n",
      "note_off channel=0 note=83 velocity=64 time=0\n",
      "note_off channel=0 note=84 velocity=64 time=0\n",
      "note_on channel=0 note=88 velocity=36 time=0\n",
      "note_off channel=0 note=90 velocity=64 time=0\n",
      "note_off channel=0 note=69 velocity=64 time=1\n",
      "note_on channel=0 note=83 velocity=34 time=0\n",
      "note_on channel=0 note=90 velocity=64 time=0\n",
      "note_off channel=0 note=91 velocity=64 time=0\n",
      "note_off channel=0 note=93 velocity=64 time=0\n",
      "note_off channel=0 note=102 velocity=64 time=0\n",
      "note_off channel=0 note=58 velocity=64 time=1\n",
      "note_on channel=0 note=59 velocity=58 time=0\n",
      "note_off channel=0 note=77 velocity=64 time=0\n",
      "note_on channel=0 note=78 velocity=69 time=0\n",
      "note_off channel=0 note=85 velocity=64 time=0\n",
      "note_on channel=0 note=93 velocity=40 time=0\n",
      "note_off channel=0 note=88 velocity=64 time=1\n",
      "note_off channel=0 note=75 velocity=64 time=1\n",
      "note_on channel=0 note=85 velocity=42 time=0\n",
      "note_on channel=0 note=70 velocity=36 time=1\n",
      "note_off channel=0 note=82 velocity=64 time=0\n",
      "note_on channel=0 note=57 velocity=71 time=1\n",
      "note_off channel=0 note=59 velocity=64 time=0\n",
      "note_on channel=0 note=77 velocity=60 time=0\n",
      "note_off channel=0 note=78 velocity=64 time=0\n",
      "note_on channel=0 note=82 velocity=36 time=0\n",
      "note_on channel=0 note=91 velocity=66 time=0\n",
      "note_off channel=0 note=70 velocity=64 time=1\n",
      "note_on channel=0 note=76 velocity=58 time=0\n",
      "note_off channel=0 note=80 velocity=64 time=0\n",
      "note_off channel=0 note=83 velocity=64 time=0\n",
      "note_off channel=0 note=77 velocity=64 time=1\n",
      "note_off channel=0 note=89 velocity=64 time=0\n",
      "note_on channel=0 note=89 velocity=51 time=1\n",
      "note_on channel=0 note=64 velocity=71 time=2\n",
      "note_on channel=0 note=80 velocity=39 time=0\n",
      "note_on channel=0 note=45 velocity=72 time=1\n",
      "note_on channel=0 note=67 velocity=54 time=0\n",
      "note_on channel=0 note=73 velocity=30 time=0\n",
      "note_on channel=0 note=63 velocity=63 time=1\n",
      "note_off channel=0 note=64 velocity=64 time=0\n",
      "note_off channel=0 note=91 velocity=64 time=0\n",
      "note_on channel=0 note=44 velocity=72 time=1\n",
      "note_off channel=0 note=45 velocity=64 time=0\n",
      "note_off channel=0 note=57 velocity=64 time=0\n",
      "note_off channel=0 note=67 velocity=64 time=0\n",
      "note_off channel=0 note=76 velocity=64 time=0\n",
      "note_on channel=0 note=84 velocity=46 time=0\n",
      "note_on channel=0 note=92 velocity=44 time=0\n",
      "note_off channel=0 note=63 velocity=64 time=2\n",
      "note_on channel=0 note=76 velocity=45 time=1\n",
      "note_on channel=0 note=75 velocity=63 time=1\n",
      "note_off channel=0 note=89 velocity=64 time=0\n",
      "note_on channel=0 note=43 velocity=64 time=1\n",
      "note_off channel=0 note=44 velocity=64 time=0\n",
      "note_on channel=0 note=69 velocity=50 time=0\n",
      "note_off channel=0 note=76 velocity=64 time=0\n",
      "note_off channel=0 note=85 velocity=64 time=0\n",
      "note_on channel=0 note=89 velocity=34 time=0\n",
      "note_off channel=0 note=92 velocity=64 time=0\n",
      "note_on channel=0 note=57 velocity=73 time=1\n",
      "note_on channel=0 note=61 velocity=46 time=0\n",
      "note_on channel=0 note=71 velocity=45 time=0\n",
      "note_on channel=0 note=88 velocity=37 time=0\n",
      "note_off channel=0 note=80 velocity=64 time=1\n",
      "note_on channel=0 note=85 velocity=37 time=0\n",
      "note_off channel=0 note=89 velocity=64 time=0\n",
      "note_on channel=0 note=42 velocity=53 time=1\n",
      "note_off channel=0 note=43 velocity=64 time=0\n",
      "note_on channel=0 note=56 velocity=74 time=1\n",
      "note_off channel=0 note=57 velocity=64 time=0\n",
      "note_off channel=0 note=42 velocity=64 time=1\n",
      "note_off channel=0 note=69 velocity=64 time=0\n",
      "note_on channel=0 note=92 velocity=55 time=0\n",
      "note_on channel=0 note=80 velocity=74 time=1\n",
      "note_on channel=0 note=48 velocity=57 time=1\n",
      "note_off channel=0 note=73 velocity=64 time=0\n",
      "note_on channel=0 note=47 velocity=63 time=2\n",
      "note_off channel=0 note=48 velocity=64 time=0\n",
      "note_on channel=0 note=55 velocity=65 time=0\n",
      "note_off channel=0 note=56 velocity=64 time=0\n",
      "note_on channel=0 note=89 velocity=29 time=0\n",
      "note_off channel=0 note=90 velocity=64 time=1\n",
      "note_off channel=0 note=93 velocity=64 time=0\n",
      "note_on channel=0 note=94 velocity=42 time=0\n",
      "note_off channel=0 note=47 velocity=64 time=1\n",
      "note_off channel=0 note=84 velocity=64 time=0\n",
      "note_on channel=0 note=90 velocity=32 time=0\n",
      "note_on channel=0 note=50 velocity=68 time=1\n",
      "note_off channel=0 note=55 velocity=64 time=0\n",
      "note_on channel=0 note=56 velocity=70 time=0\n",
      "note_on channel=0 note=65 velocity=28 time=0\n",
      "note_off channel=0 note=89 velocity=64 time=0\n",
      "note_on channel=0 note=103 velocity=15 time=0\n",
      "note_off channel=0 note=50 velocity=64 time=1\n",
      "note_on channel=0 note=55 velocity=72 time=0\n",
      "note_off channel=0 note=56 velocity=64 time=0\n",
      "note_off channel=0 note=61 velocity=64 time=0\n",
      "note_on channel=0 note=68 velocity=71 time=0\n",
      "note_off channel=0 note=82 velocity=64 time=0\n",
      "note_off channel=0 note=55 velocity=64 time=1\n",
      "note_on channel=0 note=56 velocity=63 time=0\n",
      "note_on channel=0 note=61 velocity=19 time=1\n",
      "note_on channel=0 note=84 velocity=27 time=0\n",
      "note_off channel=0 note=103 velocity=64 time=0\n",
      "note_on channel=0 note=55 velocity=69 time=1\n",
      "note_off channel=0 note=56 velocity=64 time=0\n",
      "note_off channel=0 note=95 velocity=64 time=0\n",
      "note_off channel=0 note=90 velocity=64 time=1\n",
      "note_off channel=0 note=55 velocity=64 time=1\n",
      "note_off channel=0 note=65 velocity=64 time=0\n",
      "note_on channel=0 note=90 velocity=35 time=0\n",
      "note_on channel=0 note=55 velocity=74 time=1\n",
      "note_off channel=0 note=68 velocity=64 time=0\n",
      "note_on channel=0 note=73 velocity=32 time=1\n",
      "note_on channel=0 note=89 velocity=29 time=0\n",
      "note_off channel=0 note=94 velocity=64 time=0\n",
      "note_off channel=0 note=61 velocity=64 time=1\n",
      "note_on channel=0 note=54 velocity=69 time=1\n",
      "note_off channel=0 note=55 velocity=64 time=0\n",
      "note_on channel=0 note=64 velocity=71 time=0\n",
      "note_on channel=0 note=77 velocity=28 time=0\n",
      "note_off channel=0 note=84 velocity=64 time=0\n",
      "note_off channel=0 note=87 velocity=64 time=0\n",
      "note_off channel=0 note=89 velocity=64 time=0\n",
      "note_on channel=0 note=45 velocity=71 time=1\n",
      "note_on channel=0 note=68 velocity=42 time=0\n",
      "note_on channel=0 note=82 velocity=29 time=0\n",
      "note_off channel=0 note=88 velocity=64 time=0\n",
      "note_on channel=0 note=91 velocity=24 time=0\n",
      "note_on channel=0 note=44 velocity=72 time=1\n",
      "note_off channel=0 note=45 velocity=64 time=0\n",
      "note_on channel=0 note=63 velocity=60 time=0\n",
      "note_off channel=0 note=64 velocity=64 time=0\n",
      "note_on channel=0 note=67 velocity=59 time=0\n",
      "note_off channel=0 note=54 velocity=64 time=1\n",
      "note_on channel=0 note=55 velocity=72 time=0\n",
      "note_off channel=0 note=68 velocity=64 time=0\n",
      "note_on channel=0 note=88 velocity=18 time=0\n",
      "note_off channel=0 note=63 velocity=64 time=1\n",
      "note_on channel=0 note=84 velocity=9 time=0\n",
      "note_on channel=0 note=99 velocity=33 time=0\n",
      "note_on channel=0 note=101 velocity=39 time=0\n",
      "note_off channel=0 note=44 velocity=64 time=1\n",
      "note_on channel=0 note=45 velocity=68 time=0\n",
      "note_off channel=0 note=55 velocity=64 time=0\n",
      "note_on channel=0 note=56 velocity=71 time=0\n",
      "note_on channel=0 note=97 velocity=42 time=0\n",
      "note_on channel=0 note=100 velocity=45 time=0\n",
      "note_off channel=0 note=67 velocity=64 time=1\n",
      "note_on channel=0 note=68 velocity=71 time=0\n",
      "note_on channel=0 note=44 velocity=64 time=1\n",
      "note_off channel=0 note=45 velocity=64 time=0\n",
      "note_on channel=0 note=95 velocity=9 time=0\n",
      "note_off channel=0 note=101 velocity=64 time=0\n",
      "note_on channel=0 note=102 velocity=48 time=0\n",
      "note_on channel=0 note=61 velocity=52 time=1\n",
      "note_on channel=0 note=43 velocity=54 time=1\n",
      "note_off channel=0 note=44 velocity=64 time=0\n",
      "note_off channel=0 note=77 velocity=64 time=0\n",
      "note_off channel=0 note=88 velocity=64 time=0\n",
      "note_on channel=0 note=88 velocity=12 time=1\n",
      "note_off channel=0 note=43 velocity=64 time=1\n",
      "note_off channel=0 note=82 velocity=64 time=0\n",
      "note_off channel=0 note=84 velocity=64 time=0\n",
      "note_off channel=0 note=97 velocity=64 time=0\n",
      "note_on channel=0 note=89 velocity=15 time=1\n",
      "note_on channel=0 note=97 velocity=40 time=0\n",
      "note_on channel=0 note=65 velocity=20 time=1\n",
      "note_off channel=0 note=88 velocity=64 time=1\n",
      "note_off channel=0 note=95 velocity=64 time=0\n",
      "note_off channel=0 note=92 velocity=64 time=1\n",
      "note_on channel=0 note=47 velocity=64 time=1\n",
      "note_off channel=0 note=65 velocity=64 time=0\n",
      "note_on channel=0 note=65 velocity=47 time=1\n",
      "note_off channel=0 note=75 velocity=64 time=0\n",
      "note_on channel=0 note=87 velocity=46 time=0\n",
      "note_off channel=0 note=47 velocity=64 time=1\n",
      "note_off channel=0 note=56 velocity=64 time=0\n",
      "note_on channel=0 note=96 velocity=11 time=0\n",
      "note_on channel=0 note=49 velocity=67 time=1\n",
      "note_on channel=0 note=75 velocity=43 time=0\n",
      "note_off channel=0 note=89 velocity=64 time=0\n",
      "note_off channel=0 note=91 velocity=64 time=0\n",
      "note_off channel=0 note=49 velocity=64 time=1\n",
      "note_on channel=0 note=52 velocity=69 time=0\n",
      "note_off channel=0 note=90 velocity=64 time=0\n",
      "note_off channel=0 note=52 velocity=64 time=1\n",
      "note_on channel=0 note=55 velocity=67 time=0\n",
      "note_on channel=0 note=88 velocity=29 time=0\n",
      "note_off channel=0 note=55 velocity=64 time=1\n",
      "note_on channel=0 note=56 velocity=55 time=0\n",
      "note_off channel=0 note=61 velocity=64 time=1\n",
      "note_off channel=0 note=56 velocity=64 time=1\n",
      "note_on channel=0 note=90 velocity=13 time=0\n",
      "note_on channel=0 note=56 velocity=53 time=1\n",
      "note_off channel=0 note=96 velocity=64 time=2\n",
      "note_off channel=0 note=97 velocity=64 time=0\n",
      "note_off channel=0 note=99 velocity=64 time=0\n",
      "note_on channel=0 note=48 velocity=82 time=1\n",
      "note_on channel=0 note=78 velocity=40 time=0\n",
      "note_on channel=0 note=84 velocity=31 time=0\n",
      "note_on channel=0 note=89 velocity=68 time=0\n",
      "note_off channel=0 note=73 velocity=64 time=1\n",
      "note_on channel=0 note=82 velocity=31 time=0\n",
      "note_off channel=0 note=88 velocity=64 time=0\n",
      "note_on channel=0 note=64 velocity=49 time=1\n",
      "note_off channel=0 note=65 velocity=64 time=0\n",
      "note_on channel=0 note=77 velocity=30 time=0\n",
      "note_off channel=0 note=90 velocity=64 time=0\n",
      "note_on channel=0 note=73 velocity=24 time=1\n",
      "note_off channel=0 note=78 velocity=64 time=0\n",
      "note_off channel=0 note=82 velocity=64 time=0\n",
      "note_off channel=0 note=64 velocity=64 time=1\n",
      "note_off channel=0 note=84 velocity=64 time=0\n",
      "note_off channel=0 note=48 velocity=64 time=1\n",
      "note_on channel=0 note=65 velocity=32 time=0\n",
      "note_on channel=0 note=45 velocity=54 time=3\n",
      "note_off channel=0 note=102 velocity=64 time=1\n",
      "note_off channel=0 note=56 velocity=64 time=2\n",
      "note_off channel=0 note=89 velocity=64 time=0\n",
      "note_on channel=0 note=44 velocity=42 time=1\n",
      "note_off channel=0 note=45 velocity=64 time=0\n",
      "note_on channel=0 note=56 velocity=56 time=0\n",
      "note_off channel=0 note=87 velocity=64 time=0\n",
      "note_on channel=0 note=102 velocity=47 time=2\n",
      "note_off channel=0 note=73 velocity=64 time=1\n",
      "note_on channel=0 note=43 velocity=29 time=1\n",
      "note_off channel=0 note=44 velocity=64 time=0\n",
      "note_on channel=0 note=101 velocity=38 time=1\n",
      "note_off channel=0 note=102 velocity=64 time=0\n",
      "note_off channel=0 note=43 velocity=64 time=1\n",
      "note_on channel=0 note=55 velocity=75 time=0\n",
      "note_off channel=0 note=56 velocity=64 time=0\n",
      "note_on channel=0 note=79 velocity=33 time=0\n",
      "note_off channel=0 note=65 velocity=64 time=1\n",
      "note_off channel=0 note=68 velocity=64 time=0\n",
      "note_on channel=0 note=74 velocity=31 time=0\n",
      "note_off channel=0 note=80 velocity=64 time=0\n",
      "note_on channel=0 note=98 velocity=26 time=0\n",
      "note_on channel=0 note=80 velocity=23 time=1\n",
      "note_on channel=0 note=78 velocity=29 time=1\n",
      "note_off channel=0 note=79 velocity=64 time=0\n",
      "note_on channel=0 note=66 velocity=68 time=1\n",
      "note_off channel=0 note=74 velocity=64 time=0\n",
      "note_off channel=0 note=98 velocity=64 time=0\n",
      "note_on channel=0 note=54 velocity=72 time=1\n",
      "note_off channel=0 note=55 velocity=64 time=0\n",
      "note_on channel=0 note=73 velocity=32 time=0\n",
      "note_off channel=0 note=85 velocity=64 time=1\n",
      "note_off channel=0 note=80 velocity=64 time=1\n",
      "note_off channel=0 note=77 velocity=64 time=1\n",
      "note_on channel=0 note=98 velocity=17 time=0\n",
      "note_on channel=0 note=80 velocity=72 time=1\n",
      "note_on channel=0 note=82 velocity=18 time=0\n",
      "note_on channel=0 note=53 velocity=68 time=2\n",
      "note_off channel=0 note=54 velocity=64 time=0\n",
      "note_on channel=0 note=64 velocity=45 time=0\n",
      "note_on channel=0 note=89 velocity=66 time=0\n",
      "note_off channel=0 note=100 velocity=64 time=0\n",
      "note_off channel=0 note=66 velocity=64 time=1\n",
      "note_off channel=0 note=78 velocity=64 time=0\n",
      "note_off channel=0 note=82 velocity=64 time=0\n",
      "note_on channel=0 note=84 velocity=40 time=0\n",
      "note_on channel=0 note=45 velocity=70 time=1\n",
      "note_on channel=0 note=52 velocity=65 time=0\n",
      "note_off channel=0 note=53 velocity=64 time=0\n",
      "note_on channel=0 note=67 velocity=37 time=0\n",
      "note_on channel=0 note=69 velocity=40 time=0\n",
      "note_off channel=0 note=71 velocity=64 time=0\n",
      "note_off channel=0 note=73 velocity=64 time=0\n",
      "note_on channel=0 note=77 velocity=34 time=0\n",
      "note_on channel=0 note=85 velocity=31 time=0\n",
      "note_off channel=0 note=98 velocity=64 time=0\n",
      "note_on channel=0 note=51 velocity=67 time=1\n",
      "note_off channel=0 note=52 velocity=64 time=0\n",
      "note_on channel=0 note=71 velocity=35 time=0\n",
      "note_on channel=0 note=90 velocity=13 time=0\n",
      "note_on channel=0 note=100 velocity=9 time=0\n",
      "note_on channel=0 note=44 velocity=71 time=1\n",
      "note_off channel=0 note=45 velocity=64 time=0\n",
      "note_off channel=0 note=51 velocity=64 time=0\n",
      "note_on channel=0 note=52 velocity=72 time=0\n",
      "note_off channel=0 note=69 velocity=64 time=0\n",
      "note_off channel=0 note=77 velocity=64 time=0\n",
      "note_off channel=0 note=84 velocity=64 time=1\n",
      "note_on channel=0 note=98 velocity=31 time=0\n",
      "note_off channel=0 note=67 velocity=64 time=1\n",
      "note_on channel=0 note=68 velocity=26 time=0\n",
      "note_on channel=0 note=43 velocity=65 time=1\n",
      "note_off channel=0 note=44 velocity=64 time=0\n",
      "note_on channel=0 note=91 velocity=20 time=0\n",
      "note_off channel=0 note=100 velocity=64 time=0\n",
      "note_off channel=0 note=71 velocity=64 time=1\n",
      "note_off channel=0 note=75 velocity=64 time=0\n",
      "note_off channel=0 note=90 velocity=64 time=0\n",
      "note_off channel=0 note=64 velocity=64 time=2\n",
      "note_on channel=0 note=70 velocity=38 time=0\n",
      "note_off channel=0 note=101 velocity=64 time=0\n",
      "note_off channel=0 note=43 velocity=64 time=1\n",
      "note_on channel=0 note=51 velocity=66 time=0\n",
      "note_off channel=0 note=52 velocity=64 time=0\n",
      "note_on channel=0 note=75 velocity=16 time=0\n",
      "note_on channel=0 note=77 velocity=10 time=2\n",
      "note_off channel=0 note=91 velocity=64 time=0\n",
      "note_on channel=0 note=50 velocity=46 time=1\n",
      "note_off channel=0 note=51 velocity=64 time=0\n",
      "note_off channel=0 note=70 velocity=64 time=0\n",
      "note_on channel=0 note=70 velocity=41 time=1\n",
      "note_off channel=0 note=85 velocity=64 time=0\n",
      "note_off channel=0 note=50 velocity=64 time=1\n",
      "note_on channel=0 note=97 velocity=20 time=0\n",
      "note_on channel=0 note=52 velocity=54 time=1\n",
      "note_off channel=0 note=77 velocity=64 time=0\n",
      "note_on channel=0 note=51 velocity=56 time=2\n",
      "note_off channel=0 note=52 velocity=64 time=0\n",
      "note_on channel=0 note=79 velocity=16 time=0\n",
      "note_off channel=0 note=51 velocity=64 time=3\n",
      "note_on channel=0 note=52 velocity=66 time=0\n",
      "note_off channel=0 note=79 velocity=64 time=0\n",
      "note_on channel=0 note=91 velocity=25 time=0\n",
      "note_off channel=0 note=98 velocity=64 time=0\n",
      "note_off channel=0 note=75 velocity=64 time=1\n",
      "note_on channel=0 note=77 velocity=23 time=0\n",
      "note_off channel=0 note=97 velocity=64 time=1\n",
      "note_on channel=0 note=65 velocity=65 time=1\n",
      "note_off channel=0 note=70 velocity=64 time=0\n",
      "note_on channel=0 note=71 velocity=23 time=1\n",
      "note_on channel=0 note=75 velocity=20 time=3\n",
      "note_off channel=0 note=68 velocity=64 time=1\n",
      "note_off channel=0 note=71 velocity=64 time=0\n",
      "note_on channel=0 note=45 velocity=71 time=1\n",
      "note_on channel=0 note=64 velocity=71 time=0\n",
      "note_off channel=0 note=65 velocity=64 time=0\n",
      "note_off channel=0 note=77 velocity=64 time=0\n",
      "note_on channel=0 note=79 velocity=37 time=0\n",
      "note_off channel=0 note=80 velocity=64 time=0\n",
      "note_off channel=0 note=89 velocity=64 time=0\n",
      "note_on channel=0 note=90 velocity=34 time=0\n",
      "note_off channel=0 note=52 velocity=64 time=1\n",
      "note_off channel=0 note=75 velocity=64 time=0\n",
      "note_on channel=0 note=89 velocity=43 time=0\n",
      "note_on channel=0 note=44 velocity=72 time=1\n",
      "note_off channel=0 note=45 velocity=64 time=0\n",
      "note_on channel=0 note=63 velocity=60 time=0\n",
      "note_off channel=0 note=64 velocity=64 time=0\n",
      "note_on channel=0 note=73 velocity=15 time=0\n",
      "note_off channel=0 note=79 velocity=64 time=0\n",
      "note_on channel=0 note=80 velocity=38 time=0\n",
      "note_off channel=0 note=91 velocity=64 time=0\n",
      "note_on channel=0 note=77 velocity=26 time=1\n",
      "note_off channel=0 note=90 velocity=64 time=0\n",
      "note_on channel=0 note=91 velocity=23 time=0\n",
      "note_on channel=0 note=65 velocity=43 time=1\n",
      "note_on channel=0 note=71 velocity=53 time=0\n",
      "note_off channel=0 note=63 velocity=64 time=1\n",
      "note_off channel=0 note=44 velocity=64 time=1\n",
      "note_on channel=0 note=61 velocity=52 time=0\n",
      "note_off channel=0 note=91 velocity=64 time=0\n",
      "note_on channel=0 note=43 velocity=55 time=3\n",
      "note_on channel=0 note=85 velocity=29 time=0\n",
      "note_on channel=0 note=91 velocity=29 time=1\n",
      "note_on channel=0 note=42 velocity=49 time=1\n",
      "note_off channel=0 note=43 velocity=64 time=0\n",
      "note_off channel=0 note=73 velocity=64 time=1\n",
      "note_off channel=0 note=42 velocity=64 time=2\n",
      "note_on channel=0 note=47 velocity=65 time=2\n",
      "note_off channel=0 note=47 velocity=64 time=2\n",
      "note_off channel=0 note=61 velocity=64 time=0\n",
      "note_on channel=0 note=62 velocity=30 time=0\n",
      "note_on channel=0 note=49 velocity=70 time=1\n",
      "note_off channel=0 note=80 velocity=64 time=0\n",
      "note_off channel=0 note=49 velocity=64 time=1\n",
      "note_on channel=0 note=52 velocity=68 time=0\n",
      "note_on channel=0 note=90 velocity=36 time=0\n",
      "note_off channel=0 note=91 velocity=64 time=0\n",
      "note_off channel=0 note=52 velocity=64 time=1\n",
      "note_on channel=0 note=53 velocity=59 time=0\n",
      "note_off channel=0 note=53 velocity=64 time=2\n",
      "note_on channel=0 note=80 velocity=76 time=0\n",
      "note_off channel=0 note=62 velocity=64 time=1\n",
      "note_on channel=0 note=91 velocity=31 time=0\n",
      "note_on channel=0 note=93 velocity=36 time=0\n",
      "note_on channel=0 note=52 velocity=58 time=1\n",
      "note_on channel=0 note=99 velocity=44 time=0\n",
      "note_on channel=0 note=100 velocity=54 time=0\n",
      "note_off channel=0 note=65 velocity=64 time=1\n",
      "note_off channel=0 note=77 velocity=64 time=0\n",
      "note_on channel=0 note=94 velocity=44 time=0\n",
      "note_off channel=0 note=52 velocity=64 time=1\n",
      "note_on channel=0 note=78 velocity=29 time=0\n",
      "note_off channel=0 note=94 velocity=64 time=1\n",
      "note_on channel=0 note=95 velocity=51 time=0\n",
      "note_on channel=0 note=45 velocity=69 time=1\n",
      "note_on channel=0 note=64 velocity=69 time=0\n",
      "note_on channel=0 note=77 velocity=37 time=0\n",
      "note_off channel=0 note=78 velocity=64 time=0\n",
      "note_on channel=0 note=82 velocity=27 time=0\n",
      "note_on channel=0 note=84 velocity=19 time=0\n",
      "note_on channel=0 note=94 velocity=58 time=0\n",
      "note_on channel=0 note=103 velocity=43 time=0\n",
      "note_off channel=0 note=64 velocity=64 time=1\n",
      "note_on channel=0 note=68 velocity=54 time=0\n",
      "note_on channel=0 note=70 velocity=38 time=0\n",
      "note_off channel=0 note=71 velocity=64 time=0\n",
      "note_on channel=0 note=98 velocity=45 time=0\n",
      "note_on channel=0 note=102 velocity=48 time=0\n",
      "note_on channel=0 note=44 velocity=72 time=1\n",
      "note_off channel=0 note=45 velocity=64 time=0\n",
      "note_on channel=0 note=64 velocity=70 time=0\n",
      "note_on channel=0 note=78 velocity=37 time=0\n",
      "note_on channel=0 note=96 velocity=40 time=0\n",
      "note_on channel=0 note=52 velocity=81 time=1\n",
      "note_off channel=0 note=68 velocity=64 time=0\n",
      "note_off channel=0 note=77 velocity=64 time=0\n",
      "note_off channel=0 note=70 velocity=64 time=1\n",
      "note_on channel=0 note=71 velocity=50 time=0\n",
      "note_off channel=0 note=94 velocity=64 time=0\n",
      "note_on channel=0 note=101 velocity=48 time=0\n",
      "note_on channel=0 note=68 velocity=24 time=1\n",
      "note_off channel=0 note=82 velocity=64 time=0\n",
      "note_off channel=0 note=44 velocity=64 time=1\n",
      "note_off channel=0 note=85 velocity=64 time=0\n",
      "note_on channel=0 note=41 velocity=49 time=1\n",
      "note_off channel=0 note=68 velocity=64 time=1\n",
      "note_on channel=0 note=82 velocity=39 time=0\n",
      "note_on channel=0 note=86 velocity=30 time=0\n",
      "note_off channel=0 note=90 velocity=64 time=0\n",
      "note_off channel=0 note=41 velocity=64 time=1\n",
      "note_on channel=0 note=43 velocity=53 time=0\n",
      "note_off channel=0 note=93 velocity=64 time=0\n",
      "note_on channel=0 note=97 velocity=38 time=0\n",
      "note_off channel=0 note=64 velocity=64 time=1\n",
      "note_off channel=0 note=71 velocity=64 time=0\n",
      "note_on channel=0 note=72 velocity=47 time=0\n",
      "note_off channel=0 note=86 velocity=64 time=0\n",
      "note_off channel=0 note=52 velocity=64 time=1\n",
      "note_on channel=0 note=53 velocity=77 time=0\n",
      "note_on channel=0 note=66 velocity=65 time=0\n",
      "note_on channel=0 note=86 velocity=30 time=0\n",
      "note_off channel=0 note=91 velocity=64 time=0\n",
      "note_on channel=0 note=42 velocity=47 time=1\n",
      "note_off channel=0 note=43 velocity=64 time=0\n",
      "note_off channel=0 note=53 velocity=64 time=0\n",
      "note_on channel=0 note=54 velocity=69 time=0\n",
      "note_on channel=0 note=61 velocity=49 time=0\n",
      "note_off channel=0 note=66 velocity=64 time=0\n",
      "note_on channel=0 note=67 velocity=75 time=0\n",
      "note_off channel=0 note=72 velocity=64 time=0\n",
      "note_on channel=0 note=77 velocity=30 time=0\n",
      "note_off channel=0 note=78 velocity=64 time=0\n",
      "note_off channel=0 note=54 velocity=64 time=1\n",
      "note_on channel=0 note=56 velocity=70 time=0\n",
      "note_off channel=0 note=42 velocity=64 time=1\n",
      "note_off channel=0 note=67 velocity=64 time=0\n",
      "note_on channel=0 note=88 velocity=28 time=0\n",
      "note_off channel=0 note=99 velocity=64 time=0\n",
      "note_on channel=0 note=48 velocity=60 time=1\n",
      "note_off channel=0 note=56 velocity=64 time=0\n",
      "note_on channel=0 note=57 velocity=74 time=0\n",
      "note_off channel=0 note=86 velocity=64 time=0\n",
      "note_off channel=0 note=89 velocity=64 time=0\n",
      "note_off channel=0 note=95 velocity=64 time=0\n",
      "note_off channel=0 note=96 velocity=64 time=0\n",
      "note_off channel=0 note=100 velocity=64 time=0\n",
      "note_off channel=0 note=103 velocity=64 time=0\n",
      "note_on channel=0 note=86 velocity=30 time=1\n",
      "note_on channel=0 note=47 velocity=67 time=1\n",
      "note_off channel=0 note=48 velocity=64 time=0\n",
      "note_on channel=0 note=68 velocity=68 time=0\n",
      "note_off channel=0 note=97 velocity=64 time=0\n",
      "note_off channel=0 note=47 velocity=64 time=1\n",
      "note_on channel=0 note=56 velocity=72 time=0\n",
      "note_off channel=0 note=57 velocity=64 time=0\n",
      "note_on channel=0 note=49 velocity=68 time=1\n",
      "note_on channel=0 note=55 velocity=68 time=0\n",
      "note_off channel=0 note=56 velocity=64 time=0\n",
      "note_on channel=0 note=67 velocity=72 time=0\n",
      "note_off channel=0 note=68 velocity=64 time=0\n",
      "note_off channel=0 note=49 velocity=64 time=1\n",
      "note_on channel=0 note=50 velocity=68 time=0\n",
      "note_off channel=0 note=55 velocity=64 time=0\n",
      "note_on channel=0 note=75 velocity=44 time=0\n",
      "note_on channel=0 note=78 velocity=35 time=0\n",
      "note_off channel=0 note=98 velocity=64 time=0\n",
      "note_off channel=0 note=50 velocity=64 time=1\n",
      "note_on channel=0 note=66 velocity=70 time=0\n",
      "note_off channel=0 note=67 velocity=64 time=0\n",
      "note_off channel=0 note=77 velocity=64 time=0\n",
      "note_on channel=0 note=97 velocity=30 time=0\n",
      "note_on channel=0 note=98 velocity=32 time=0\n",
      "note_on channel=0 note=55 velocity=68 time=1\n",
      "note_on channel=0 note=71 velocity=21 time=0\n",
      "note_on channel=0 note=53 velocity=66 time=1\n",
      "note_off channel=0 note=55 velocity=64 time=0\n",
      "note_off channel=0 note=61 velocity=64 time=0\n",
      "note_off channel=0 note=53 velocity=64 time=1\n",
      "note_on channel=0 note=54 velocity=62 time=0\n",
      "note_on channel=0 note=77 velocity=31 time=0\n",
      "note_off channel=0 note=78 velocity=64 time=0\n",
      "note_on channel=0 note=91 velocity=15 time=1\n",
      "note_on channel=0 note=53 velocity=58 time=1\n",
      "note_off channel=0 note=54 velocity=64 time=0\n",
      "note_off channel=0 note=71 velocity=64 time=0\n",
      "note_on channel=0 note=71 velocity=36 time=1\n",
      "note_on channel=0 note=89 velocity=66 time=0\n",
      "note_off channel=0 note=97 velocity=64 time=0\n",
      "note_on channel=0 note=68 velocity=37 time=1\n",
      "note_off channel=0 note=101 velocity=64 time=0\n",
      "note_off channel=0 note=102 velocity=64 time=0\n",
      "note_on channel=0 note=48 velocity=83 time=1\n",
      "note_off channel=0 note=53 velocity=64 time=0\n",
      "note_off channel=0 note=66 velocity=64 time=0\n",
      "note_off channel=0 note=71 velocity=64 time=0\n",
      "note_off channel=0 note=77 velocity=64 time=0\n",
      "note_off channel=0 note=84 velocity=64 time=0\n",
      "note_on channel=0 note=85 velocity=43 time=0\n",
      "note_on channel=0 note=95 velocity=30 time=0\n",
      "note_off channel=0 note=98 velocity=64 time=0\n",
      "note_on channel=0 note=102 velocity=14 time=0\n",
      "note_on channel=0 note=64 velocity=47 time=1\n",
      "note_on channel=0 note=67 velocity=55 time=0\n",
      "note_off channel=0 note=68 velocity=64 time=0\n",
      "note_on channel=0 note=71 velocity=22 time=0\n",
      "note_off channel=0 note=86 velocity=64 time=0\n",
      "note_off channel=0 note=91 velocity=64 time=0\n",
      "note_on channel=0 note=92 velocity=76 time=0\n",
      "note_on channel=0 note=94 velocity=58 time=0\n",
      "note_on channel=0 note=77 velocity=34 time=1\n",
      "note_off channel=0 note=88 velocity=64 time=0\n",
      "note_on channel=0 note=91 velocity=18 time=0\n",
      "note_on channel=0 note=93 velocity=27 time=0\n",
      "note_on channel=0 note=63 velocity=40 time=1\n",
      "note_off channel=0 note=64 velocity=64 time=0\n",
      "note_on channel=0 note=69 velocity=21 time=0\n",
      "note_on channel=0 note=83 velocity=30 time=0\n",
      "note_off channel=0 note=102 velocity=64 time=0\n",
      "note_off channel=0 note=48 velocity=64 time=1\n",
      "note_on channel=0 note=73 velocity=63 time=0\n",
      "note_off channel=0 note=82 velocity=64 time=0\n",
      "note_on channel=0 note=84 velocity=36 time=0\n",
      "note_on channel=0 note=90 velocity=58 time=0\n",
      "note_off channel=0 note=63 velocity=64 time=1\n",
      "note_off channel=0 note=71 velocity=64 time=0\n",
      "note_on channel=0 note=82 velocity=40 time=0\n",
      "note_on channel=0 note=88 velocity=36 time=0\n",
      "note_off channel=0 note=91 velocity=64 time=0\n",
      "note_on channel=0 note=54 velocity=74 time=1\n",
      "note_on channel=0 note=61 velocity=22 time=0\n",
      "note_off channel=0 note=67 velocity=64 time=0\n",
      "note_off channel=0 note=69 velocity=64 time=0\n",
      "note_off channel=0 note=77 velocity=64 time=0\n",
      "note_on channel=0 note=78 velocity=68 time=0\n",
      "note_on channel=0 note=98 velocity=24 time=0\n",
      "note_off channel=0 note=83 velocity=64 time=1\n",
      "note_off channel=0 note=89 velocity=64 time=0\n",
      "note_off channel=0 note=93 velocity=64 time=0\n",
      "note_on channel=0 note=101 velocity=43 time=0\n",
      "note_on channel=0 note=103 velocity=25 time=1\n",
      "note_on channel=0 note=45 velocity=54 time=1\n",
      "note_off channel=0 note=61 velocity=64 time=0\n",
      "note_on channel=0 note=71 velocity=18 time=0\n",
      "note_off channel=0 note=82 velocity=64 time=0\n",
      "note_on channel=0 note=82 velocity=50 time=1\n",
      "note_on channel=0 note=44 velocity=43 time=1\n",
      "note_off channel=0 note=45 velocity=64 time=0\n",
      "note_on channel=0 note=61 velocity=10 time=3\n",
      "note_off channel=0 note=98 velocity=64 time=0\n",
      "note_off channel=0 note=82 velocity=64 time=1\n",
      "note_on channel=0 note=83 velocity=43 time=0\n",
      "note_off channel=0 note=44 velocity=64 time=2\n",
      "note_off channel=0 note=61 velocity=64 time=0\n",
      "note_off channel=0 note=75 velocity=64 time=2\n",
      "note_off channel=0 note=95 velocity=64 time=1\n",
      "note_off channel=0 note=71 velocity=64 time=1\n",
      "note_on channel=0 note=77 velocity=35 time=1\n",
      "note_on channel=0 note=87 velocity=34 time=0\n",
      "note_on channel=0 note=53 velocity=76 time=1\n",
      "note_off channel=0 note=54 velocity=64 time=0\n",
      "note_on channel=0 note=89 velocity=68 time=0\n",
      "note_off channel=0 note=103 velocity=64 time=0\n",
      "note_off channel=0 note=94 velocity=64 time=1\n",
      "note_on channel=0 note=98 velocity=14 time=0\n",
      "note_off channel=0 note=101 velocity=64 time=0\n",
      "note_on channel=0 note=64 velocity=42 time=1\n",
      "note_off channel=0 note=85 velocity=64 time=0\n",
      "note_off channel=0 note=88 velocity=64 time=0\n",
      "note_on channel=0 note=52 velocity=73 time=1\n",
      "note_off channel=0 note=53 velocity=64 time=0\n",
      "note_on channel=0 note=91 velocity=45 time=0\n",
      "note_on channel=0 note=51 velocity=71 time=1\n",
      "note_off channel=0 note=52 velocity=64 time=0\n",
      "note_off channel=0 note=64 velocity=64 time=0\n",
      "note_off channel=0 note=77 velocity=64 time=0\n",
      "note_off channel=0 note=92 velocity=64 time=0\n",
      "note_on channel=0 note=71 velocity=40 time=1\n",
      "note_on channel=0 note=79 velocity=45 time=0\n",
      "note_on channel=0 note=82 velocity=34 time=0\n",
      "note_off channel=0 note=83 velocity=64 time=0\n",
      "note_off channel=0 note=51 velocity=64 time=1\n",
      "note_on channel=0 note=52 velocity=67 time=0\n",
      "note_off channel=0 note=90 velocity=64 time=0\n",
      "note_on channel=0 note=93 velocity=32 time=0\n",
      "note_on channel=0 note=102 velocity=18 time=0\n",
      "note_off channel=0 note=71 velocity=64 time=1\n",
      "note_off channel=0 note=79 velocity=64 time=0\n",
      "note_on channel=0 note=86 velocity=41 time=0\n",
      "note_on channel=0 note=45 velocity=70 time=1\n",
      "note_on channel=0 note=51 velocity=68 time=0\n",
      "note_off channel=0 note=52 velocity=64 time=0\n",
      "note_on channel=0 note=67 velocity=42 time=0\n",
      "note_on channel=0 note=69 velocity=42 time=0\n",
      "note_on channel=0 note=71 velocity=55 time=0\n",
      "note_off channel=0 note=73 velocity=64 time=0\n",
      "note_off channel=0 note=78 velocity=64 time=0\n",
      "note_off channel=0 note=82 velocity=64 time=0\n",
      "note_on channel=0 note=83 velocity=64 time=0\n",
      "note_on channel=0 note=88 velocity=66 time=0\n",
      "note_on channel=0 note=90 velocity=54 time=0\n",
      "note_on channel=0 note=44 velocity=71 time=1\n",
      "note_off channel=0 note=45 velocity=64 time=0\n",
      "note_on channel=0 note=76 velocity=49 time=0\n",
      "note_on channel=0 note=85 velocity=48 time=0\n",
      "note_off channel=0 note=86 velocity=64 time=0\n",
      "note_off channel=0 note=51 velocity=64 time=1\n",
      "note_on channel=0 note=52 velocity=78 time=0\n",
      "note_off channel=0 note=84 velocity=64 time=0\n",
      "note_off channel=0 note=87 velocity=64 time=0\n",
      "note_off channel=0 note=93 velocity=64 time=0\n",
      "note_on channel=0 note=94 velocity=36 time=0\n",
      "note_off channel=0 note=69 velocity=64 time=1\n",
      "note_on channel=0 note=82 velocity=25 time=0\n",
      "note_on channel=0 note=86 velocity=38 time=0\n",
      "note_on channel=0 note=43 velocity=66 time=1\n",
      "note_off channel=0 note=44 velocity=64 time=0\n",
      "note_off channel=0 note=67 velocity=64 time=0\n",
      "note_on channel=0 note=68 velocity=22 time=0\n",
      "note_on channel=0 note=73 velocity=10 time=0\n",
      "note_off channel=0 note=85 velocity=64 time=0\n",
      "note_off channel=0 note=102 velocity=64 time=0\n",
      "note_off channel=0 note=43 velocity=64 time=1\n",
      "note_on channel=0 note=44 velocity=65 time=0\n",
      "note_on channel=0 note=85 velocity=35 time=0\n",
      "note_off channel=0 note=86 velocity=64 time=0\n",
      "note_on channel=0 note=43 velocity=63 time=1\n",
      "note_off channel=0 note=44 velocity=64 time=0\n",
      "note_off channel=0 note=91 velocity=64 time=0\n",
      "note_off channel=0 note=98 velocity=64 time=0\n",
      "note_off channel=0 note=73 velocity=64 time=1\n",
      "note_on channel=0 note=86 velocity=49 time=0\n",
      "note_off channel=0 note=89 velocity=64 time=0\n",
      "note_off channel=0 note=82 velocity=64 time=1\n",
      "note_off channel=0 note=85 velocity=64 time=0\n",
      "note_on channel=0 note=89 velocity=61 time=0\n",
      "note_on channel=0 note=93 velocity=33 time=0\n",
      "note_off channel=0 note=94 velocity=64 time=0\n",
      "note_off channel=0 note=43 velocity=64 time=1\n",
      "note_on channel=0 note=63 velocity=52 time=0\n",
      "note_on channel=0 note=91 velocity=39 time=0\n",
      "note_off channel=0 note=76 velocity=64 time=1\n",
      "note_on channel=0 note=85 velocity=56 time=0\n",
      "note_off channel=0 note=86 velocity=64 time=0\n",
      "note_off channel=0 note=68 velocity=64 time=1\n",
      "note_on channel=0 note=70 velocity=42 time=0\n",
      "note_off channel=0 note=71 velocity=64 time=0\n",
      "note_on channel=0 note=82 velocity=64 time=0\n",
      "note_off channel=0 note=83 velocity=64 time=0\n",
      "note_on channel=0 note=84 velocity=17 time=0\n",
      "note_off channel=0 note=90 velocity=64 time=0\n",
      "note_on channel=0 note=96 velocity=21 time=0\n",
      "note_on channel=0 note=77 velocity=32 time=1\n",
      "note_on channel=0 note=51 velocity=63 time=1\n",
      "note_off channel=0 note=52 velocity=64 time=0\n",
      "note_on channel=0 note=75 velocity=67 time=0\n",
      "note_on channel=0 note=79 velocity=50 time=0\n",
      "note_off channel=0 note=96 velocity=64 time=1\n",
      "note_off channel=0 note=84 velocity=64 time=1\n",
      "note_on channel=0 note=90 velocity=68 time=0\n",
      "note_off channel=0 note=93 velocity=64 time=0\n",
      "note_on channel=0 note=50 velocity=69 time=1\n",
      "note_off channel=0 note=51 velocity=64 time=0\n",
      "note_on channel=0 note=83 velocity=28 time=0\n",
      "note_off channel=0 note=88 velocity=64 time=0\n",
      "note_on channel=0 note=78 velocity=50 time=1\n",
      "note_off channel=0 note=79 velocity=64 time=0\n",
      "note_on channel=0 note=84 velocity=47 time=0\n",
      "note_off channel=0 note=70 velocity=64 time=1\n",
      "note_on channel=0 note=71 velocity=33 time=0\n",
      "note_on channel=0 note=81 velocity=48 time=0\n",
      "note_off channel=0 note=82 velocity=64 time=0\n",
      "note_off channel=0 note=91 velocity=64 time=0\n",
      "note_off channel=0 note=63 velocity=64 time=1\n",
      "note_off channel=0 note=77 velocity=64 time=0\n",
      "note_off channel=0 note=85 velocity=64 time=0\n",
      "note_on channel=0 note=86 velocity=34 time=0\n",
      "note_on channel=0 note=88 velocity=58 time=0\n",
      "note_on channel=0 note=69 velocity=35 time=1\n",
      "note_off channel=0 note=71 velocity=64 time=0\n",
      "note_on channel=0 note=74 velocity=63 time=0\n",
      "note_off channel=0 note=75 velocity=64 time=0\n",
      "note_off channel=0 note=83 velocity=64 time=0\n",
      "note_off channel=0 note=89 velocity=64 time=0\n",
      "note_on channel=0 note=82 velocity=39 time=1\n",
      "note_on channel=0 note=71 velocity=43 time=1\n",
      "note_off channel=0 note=81 velocity=64 time=1\n",
      "note_on channel=0 note=91 velocity=33 time=0\n",
      "note_on channel=0 note=97 velocity=9 time=0\n",
      "note_on channel=0 note=77 velocity=43 time=1\n",
      "note_off channel=0 note=78 velocity=64 time=2\n",
      "note_on channel=0 note=83 velocity=54 time=0\n",
      "note_off channel=0 note=97 velocity=64 time=0\n",
      "note_on channel=0 note=68 velocity=44 time=1\n",
      "note_on channel=0 note=78 velocity=47 time=0\n",
      "note_off channel=0 note=82 velocity=64 time=0\n",
      "note_on channel=0 note=85 velocity=29 time=0\n",
      "note_on channel=0 note=89 velocity=46 time=0\n",
      "note_on channel=0 note=57 velocity=44 time=1\n",
      "note_on channel=0 note=63 velocity=86 time=0\n",
      "note_off channel=0 note=69 velocity=64 time=0\n",
      "note_off channel=0 note=77 velocity=64 time=0\n",
      "note_off channel=0 note=84 velocity=64 time=0\n",
      "note_off channel=0 note=86 velocity=64 time=0\n",
      "note_on channel=0 note=77 velocity=35 time=1\n",
      "note_on channel=0 note=84 velocity=54 time=0\n",
      "note_on channel=0 note=87 velocity=34 time=0\n",
      "note_on channel=0 note=81 velocity=51 time=1\n",
      "note_off channel=0 note=85 velocity=64 time=0\n",
      "note_off channel=0 note=57 velocity=64 time=1\n",
      "note_off channel=0 note=68 velocity=64 time=0\n",
      "note_on channel=0 note=82 velocity=41 time=0\n",
      "note_off channel=0 note=89 velocity=64 time=0\n",
      "note_off channel=0 note=83 velocity=64 time=1\n",
      "note_off channel=0 note=80 velocity=64 time=1\n",
      "note_off channel=0 note=91 velocity=64 time=0\n",
      "note_off channel=0 note=77 velocity=64 time=1\n",
      "note_on channel=0 note=80 velocity=38 time=0\n",
      "note_on channel=0 note=69 velocity=32 time=2\n",
      "note_off channel=0 note=80 velocity=64 time=0\n",
      "note_off channel=0 note=82 velocity=64 time=2\n",
      "note_on channel=0 note=103 velocity=11 time=0\n",
      "note_off channel=0 note=69 velocity=64 time=1\n",
      "note_on channel=0 note=80 velocity=34 time=0\n",
      "note_on channel=0 note=82 velocity=36 time=0\n",
      "note_on channel=0 note=69 velocity=31 time=1\n",
      "note_off channel=0 note=80 velocity=64 time=1\n",
      "note_on channel=0 note=80 velocity=89 time=1\n",
      "note_on channel=0 note=85 velocity=16 time=0\n",
      "note_off channel=0 note=69 velocity=64 time=1\n",
      "note_on channel=0 note=77 velocity=25 time=0\n",
      "note_off channel=0 note=82 velocity=64 time=0\n",
      "note_on channel=0 note=95 velocity=50 time=0\n",
      "note_on channel=0 note=82 velocity=40 time=2\n",
      "note_off channel=0 note=71 velocity=64 time=1\n",
      "note_off channel=0 note=81 velocity=64 time=0\n",
      "note_off channel=0 note=103 velocity=64 time=0\n",
      "note_off channel=0 note=50 velocity=64 time=1\n",
      "note_on channel=0 note=51 velocity=55 time=0\n",
      "note_on channel=0 note=68 velocity=32 time=0\n",
      "note_on channel=0 note=71 velocity=38 time=0\n",
      "note_off channel=0 note=78 velocity=64 time=0\n",
      "note_on channel=0 note=79 velocity=36 time=0\n",
      "note_off channel=0 note=85 velocity=64 time=0\n",
      "note_off channel=0 note=88 velocity=64 time=0\n",
      "note_on channel=0 note=89 velocity=39 time=0\n",
      "note_on channel=0 note=91 velocity=64 time=0\n",
      "note_on channel=0 note=94 velocity=40 time=0\n",
      "note_off channel=0 note=74 velocity=64 time=1\n",
      "note_on channel=0 note=88 velocity=48 time=0\n",
      "note_off channel=0 note=89 velocity=64 time=1\n",
      "note_on channel=0 note=78 velocity=30 time=1\n",
      "note_off channel=0 note=79 velocity=64 time=0\n",
      "note_on channel=0 note=85 velocity=19 time=0\n",
      "note_off channel=0 note=88 velocity=64 time=0\n",
      "note_on channel=0 note=50 velocity=63 time=1\n",
      "note_off channel=0 note=51 velocity=64 time=0\n",
      "note_off channel=0 note=71 velocity=64 time=0\n",
      "note_on channel=0 note=88 velocity=48 time=0\n",
      "note_on channel=0 note=93 velocity=40 time=0\n",
      "note_off channel=0 note=68 velocity=64 time=1\n",
      "note_on channel=0 note=69 velocity=34 time=0\n",
      "note_on channel=0 note=71 velocity=41 time=0\n",
      "note_off channel=0 note=77 velocity=64 time=0\n",
      "note_off channel=0 note=78 velocity=64 time=0\n",
      "note_on channel=0 note=73 velocity=41 time=1\n",
      "note_on channel=0 note=49 velocity=74 time=1\n",
      "note_off channel=0 note=50 velocity=64 time=0\n",
      "note_on channel=0 note=68 velocity=40 time=0\n",
      "note_off channel=0 note=69 velocity=64 time=0\n",
      "note_on channel=0 note=83 velocity=57 time=0\n",
      "note_on channel=0 note=97 velocity=33 time=0\n",
      "note_off channel=0 note=82 velocity=64 time=1\n",
      "note_off channel=0 note=85 velocity=64 time=0\n",
      "note_off channel=0 note=91 velocity=64 time=1\n",
      "note_off channel=0 note=94 velocity=64 time=0\n",
      "note_on channel=0 note=61 velocity=78 time=1\n",
      "note_off channel=0 note=63 velocity=64 time=0\n",
      "note_on channel=0 note=67 velocity=35 time=0\n",
      "note_off channel=0 note=68 velocity=64 time=0\n",
      "note_on channel=0 note=69 velocity=42 time=0\n",
      "note_off channel=0 note=73 velocity=64 time=0\n",
      "note_on channel=0 note=77 velocity=41 time=0\n",
      "note_on channel=0 note=57 velocity=47 time=1\n",
      "note_off channel=0 note=71 velocity=64 time=0\n",
      "note_on channel=0 note=78 velocity=35 time=0\n",
      "note_off channel=0 note=88 velocity=64 time=0\n",
      "note_on channel=0 note=91 velocity=34 time=0\n",
      "note_off channel=0 note=67 velocity=64 time=1\n",
      "note_on channel=0 note=88 velocity=47 time=0\n",
      "note_off channel=0 note=61 velocity=64 time=1\n",
      "note_on channel=0 note=63 velocity=78 time=0\n",
      "note_off channel=0 note=78 velocity=64 time=0\n",
      "note_off channel=0 note=84 velocity=64 time=0\n",
      "note_off channel=0 note=57 velocity=64 time=1\n",
      "note_off channel=0 note=69 velocity=64 time=0\n",
      "note_on channel=0 note=71 velocity=48 time=1\n",
      "note_on channel=0 note=98 velocity=18 time=2\n",
      "note_on channel=0 note=68 velocity=41 time=1\n",
      "note_on channel=0 note=82 velocity=37 time=0\n",
      "note_off channel=0 note=97 velocity=64 time=0\n",
      "note_off channel=0 note=91 velocity=64 time=1\n",
      "note_on channel=0 note=91 velocity=34 time=1\n",
      "note_off channel=0 note=98 velocity=64 time=1\n",
      "note_on channel=0 note=97 velocity=20 time=1\n",
      "note_off channel=0 note=87 velocity=64 time=2\n",
      "note_on channel=0 note=73 velocity=37 time=1\n",
      "note_off channel=0 note=83 velocity=64 time=4\n",
      "note_on channel=0 note=98 velocity=15 time=0\n",
      "note_off channel=0 note=68 velocity=64 time=1\n",
      "note_on channel=0 note=67 velocity=45 time=1\n",
      "note_off channel=0 note=97 velocity=64 time=0\n",
      "note_off channel=0 note=73 velocity=64 time=1\n",
      "note_off channel=0 note=67 velocity=64 time=1\n",
      "note_on channel=0 note=68 velocity=33 time=0\n",
      "note_off channel=0 note=98 velocity=64 time=0\n",
      "note_off channel=0 note=82 velocity=64 time=3\n",
      "note_on channel=0 note=82 velocity=42 time=1\n",
      "note_off channel=0 note=49 velocity=64 time=2\n",
      "note_on channel=0 note=51 velocity=63 time=0\n",
      "note_on channel=0 note=67 velocity=35 time=0\n",
      "note_off channel=0 note=68 velocity=64 time=0\n",
      "note_on channel=0 note=87 velocity=27 time=0\n",
      "note_on channel=0 note=89 velocity=68 time=0\n",
      "note_on channel=0 note=78 velocity=44 time=1\n",
      "note_off channel=0 note=82 velocity=64 time=0\n",
      "note_off channel=0 note=88 velocity=64 time=0\n",
      "note_off channel=0 note=67 velocity=64 time=1\n",
      "note_on channel=0 note=82 velocity=61 time=0\n",
      "note_on channel=0 note=49 velocity=76 time=1\n",
      "note_off channel=0 note=51 velocity=64 time=0\n",
      "note_on channel=0 note=68 velocity=51 time=0\n",
      "note_off channel=0 note=71 velocity=64 time=0\n",
      "note_on channel=0 note=73 velocity=66 time=0\n",
      "note_on channel=0 note=84 velocity=46 time=0\n",
      "note_on channel=0 note=100 velocity=19 time=0\n",
      "note_on channel=0 note=60 velocity=52 time=1\n",
      "note_on channel=0 note=71 velocity=49 time=0\n",
      "note_on channel=0 note=76 velocity=55 time=0\n",
      "note_off channel=0 note=78 velocity=64 time=0\n",
      "note_off channel=0 note=90 velocity=64 time=0\n",
      "note_on channel=0 note=67 velocity=46 time=1\n",
      "note_off channel=0 note=68 velocity=64 time=0\n",
      "note_off channel=0 note=77 velocity=64 time=0\n",
      "note_off channel=0 note=63 velocity=64 time=1\n",
      "note_on channel=0 note=90 velocity=64 time=0\n",
      "note_off channel=0 note=95 velocity=64 time=0\n",
      "note_off channel=0 note=60 velocity=64 time=1\n",
      "note_off channel=0 note=84 velocity=64 time=0\n",
      "note_off channel=0 note=91 velocity=64 time=0\n",
      "note_on channel=0 note=96 velocity=18 time=0\n",
      "note_off channel=0 note=67 velocity=64 time=1\n",
      "note_off channel=0 note=89 velocity=64 time=0\n",
      "note_on channel=0 note=91 velocity=52 time=0\n",
      "note_on channel=0 note=62 velocity=46 time=1\n",
      "note_on channel=0 note=78 velocity=39 time=0\n",
      "note_on channel=0 note=81 velocity=48 time=0\n",
      "note_off channel=0 note=82 velocity=64 time=0\n",
      "note_on channel=0 note=86 velocity=12 time=0\n",
      "note_off channel=0 note=49 velocity=64 time=1\n",
      "note_on channel=0 note=50 velocity=78 time=0\n",
      "note_off channel=0 note=73 velocity=64 time=0\n",
      "note_on channel=0 note=74 velocity=57 time=0\n",
      "note_off channel=0 note=76 velocity=64 time=0\n",
      "note_on channel=0 note=84 velocity=41 time=0\n",
      "note_off channel=0 note=87 velocity=64 time=0\n",
      "note_off channel=0 note=100 velocity=64 time=0\n",
      "note_off channel=0 note=62 velocity=64 time=1\n",
      "note_on channel=0 note=63 velocity=51 time=0\n",
      "note_off channel=0 note=78 velocity=64 time=0\n",
      "note_off channel=0 note=81 velocity=64 time=0\n",
      "note_on channel=0 note=82 velocity=55 time=0\n",
      "note_on channel=0 note=89 velocity=43 time=0\n",
      "note_off channel=0 note=91 velocity=64 time=0\n",
      "note_off channel=0 note=93 velocity=64 time=0\n",
      "note_on channel=0 note=70 velocity=49 time=1\n",
      "note_off channel=0 note=71 velocity=64 time=0\n",
      "note_on channel=0 note=73 velocity=37 time=0\n",
      "note_off channel=0 note=86 velocity=64 time=0\n",
      "note_on channel=0 note=87 velocity=19 time=0\n",
      "note_on channel=0 note=91 velocity=61 time=0\n",
      "note_off channel=0 note=50 velocity=64 time=1\n",
      "note_on channel=0 note=51 velocity=56 time=0\n",
      "note_on channel=0 note=68 velocity=45 time=0\n",
      "note_off channel=0 note=74 velocity=64 time=0\n",
      "note_on channel=0 note=83 velocity=47 time=0\n",
      "note_on channel=0 note=88 velocity=25 time=0\n",
      "note_on channel=0 note=62 velocity=48 time=1\n",
      "note_off channel=0 note=63 velocity=64 time=0\n",
      "note_off channel=0 note=70 velocity=64 time=0\n",
      "note_on channel=0 note=71 velocity=39 time=0\n",
      "note_off channel=0 note=73 velocity=64 time=0\n",
      "note_off channel=0 note=82 velocity=64 time=0\n",
      "note_on channel=0 note=93 velocity=59 time=0\n",
      "note_on channel=0 note=50 velocity=77 time=1\n",
      "note_off channel=0 note=51 velocity=64 time=0\n",
      "note_on channel=0 note=65 velocity=26 time=0\n",
      "note_on channel=0 note=74 velocity=57 time=0\n",
      "note_off channel=0 note=84 velocity=64 time=0\n",
      "note_on channel=0 note=85 velocity=35 time=0\n",
      "note_off channel=0 note=89 velocity=64 time=0\n",
      "note_off channel=0 note=91 velocity=64 time=0\n",
      "note_on channel=0 note=94 velocity=35 time=0\n",
      "note_on channel=0 note=101 velocity=33 time=0\n",
      "note_on channel=0 note=78 velocity=21 time=1\n",
      "note_on channel=0 note=82 velocity=37 time=0\n",
      "note_off channel=0 note=88 velocity=64 time=0\n",
      "note_on channel=0 note=91 velocity=68 time=0\n",
      "note_on channel=0 note=100 velocity=16 time=0\n",
      "note_on channel=0 note=61 velocity=45 time=1\n",
      "note_off channel=0 note=62 velocity=64 time=0\n",
      "note_off channel=0 note=71 velocity=64 time=0\n",
      "note_on channel=0 note=73 velocity=56 time=0\n",
      "note_off channel=0 note=74 velocity=64 time=0\n",
      "note_on channel=0 note=88 velocity=24 time=0\n",
      "note_off channel=0 note=93 velocity=64 time=0\n",
      "note_on channel=0 note=71 velocity=31 time=1\n",
      "note_off channel=0 note=82 velocity=64 time=0\n",
      "note_off channel=0 note=87 velocity=64 time=0\n",
      "note_on channel=0 note=93 velocity=62 time=0\n",
      "note_off channel=0 note=78 velocity=64 time=1\n",
      "note_off channel=0 note=61 velocity=64 time=1\n",
      "note_off channel=0 note=73 velocity=64 time=0\n",
      "note_on channel=0 note=74 velocity=57 time=0\n",
      "note_on channel=0 note=78 velocity=27 time=0\n",
      "note_off channel=0 note=96 velocity=64 time=0\n",
      "note_off channel=0 note=100 velocity=64 time=0\n",
      "note_on channel=0 note=84 velocity=31 time=2\n",
      "note_off channel=0 note=65 velocity=64 time=1\n",
      "note_on channel=0 note=75 velocity=32 time=0\n",
      "note_on channel=0 note=49 velocity=74 time=1\n",
      "note_off channel=0 note=50 velocity=64 time=0\n",
      "note_on channel=0 note=65 velocity=32 time=0\n",
      "note_off channel=0 note=74 velocity=64 time=0\n",
      "note_off channel=0 note=84 velocity=64 time=0\n",
      "note_off channel=0 note=94 velocity=64 time=0\n",
      "note_off channel=0 note=101 velocity=64 time=0\n",
      "note_on channel=0 note=84 velocity=34 time=1\n",
      "note_on channel=0 note=60 velocity=58 time=1\n",
      "note_on channel=0 note=79 velocity=55 time=0\n",
      "note_on channel=0 note=101 velocity=35 time=0\n",
      "note_on channel=0 note=48 velocity=70 time=1\n",
      "note_off channel=0 note=49 velocity=64 time=0\n",
      "note_off channel=0 note=65 velocity=64 time=0\n",
      "note_on channel=0 note=67 velocity=61 time=0\n",
      "note_off channel=0 note=68 velocity=64 time=0\n",
      "note_off channel=0 note=78 velocity=64 time=0\n",
      "note_on channel=0 note=89 velocity=29 time=0\n",
      "note_on channel=0 note=94 velocity=38 time=0\n",
      "note_on channel=0 note=100 velocity=31 time=0\n",
      "note_off channel=0 note=71 velocity=64 time=1\n",
      "note_off channel=0 note=75 velocity=64 time=0\n",
      "note_on channel=0 note=76 velocity=54 time=0\n",
      "note_on channel=0 note=82 velocity=48 time=0\n",
      "note_on channel=0 note=71 velocity=51 time=1\n",
      "note_off channel=0 note=80 velocity=64 time=0\n",
      "note_off channel=0 note=83 velocity=64 time=0\n",
      "note_off channel=0 note=88 velocity=64 time=0\n",
      "note_off channel=0 note=93 velocity=64 time=0\n",
      "note_on channel=0 note=57 velocity=60 time=1\n",
      "note_off channel=0 note=60 velocity=64 time=0\n",
      "note_on channel=0 note=61 velocity=72 time=0\n",
      "note_off channel=0 note=89 velocity=64 time=0\n",
      "note_on channel=0 note=93 velocity=54 time=0\n",
      "note_on channel=0 note=98 velocity=10 time=0\n",
      "note_off channel=0 note=67 velocity=64 time=1\n",
      "note_on channel=0 note=68 velocity=55 time=0\n",
      "note_off channel=0 note=84 velocity=64 time=0\n",
      "note_on channel=0 note=89 velocity=36 time=0\n",
      "note_off channel=0 note=48 velocity=64 time=1\n",
      "note_on channel=0 note=49 velocity=73 time=0\n",
      "note_off channel=0 note=79 velocity=64 time=0\n",
      "note_on channel=0 note=87 velocity=32 time=0\n",
      "note_on channel=0 note=92 velocity=63 time=0\n",
      "note_off channel=0 note=57 velocity=64 time=1\n",
      "note_off channel=0 note=61 velocity=64 time=0\n",
      "note_on channel=0 note=62 velocity=53 time=0\n",
      "note_on channel=0 note=70 velocity=29 time=0\n",
      "note_off channel=0 note=71 velocity=64 time=0\n",
      "note_off channel=0 note=98 velocity=64 time=0\n",
      "note_on channel=0 note=65 velocity=33 time=1\n",
      "note_off channel=0 note=76 velocity=64 time=0\n",
      "note_on channel=0 note=79 velocity=45 time=0\n",
      "note_on channel=0 note=84 velocity=31 time=0\n",
      "note_off channel=0 note=85 velocity=64 time=0\n",
      "note_off channel=0 note=92 velocity=64 time=0\n",
      "note_on channel=0 note=48 velocity=70 time=1\n",
      "note_off channel=0 note=49 velocity=64 time=0\n",
      "note_off channel=0 note=62 velocity=64 time=0\n",
      "note_on channel=0 note=76 velocity=35 time=0\n",
      "note_off channel=0 note=101 velocity=64 time=0\n",
      "note_off channel=0 note=65 velocity=64 time=1\n",
      "note_on channel=0 note=67 velocity=46 time=0\n",
      "note_off channel=0 note=68 velocity=64 time=0\n",
      "note_off channel=0 note=70 velocity=64 time=0\n",
      "note_on channel=0 note=83 velocity=42 time=0\n",
      "note_off channel=0 note=84 velocity=64 time=0\n",
      "note_off channel=0 note=90 velocity=64 time=0\n",
      "note_off channel=0 note=100 velocity=64 time=0\n",
      "note_on channel=0 note=59 velocity=44 time=1\n",
      "note_on channel=0 note=68 velocity=35 time=0\n",
      "note_off channel=0 note=79 velocity=64 time=0\n",
      "note_off channel=0 note=82 velocity=64 time=0\n",
      "note_on channel=0 note=46 velocity=48 time=1\n",
      "note_off channel=0 note=48 velocity=64 time=0\n",
      "note_off channel=0 note=67 velocity=64 time=0\n",
      "note_on channel=0 note=73 velocity=32 time=0\n",
      "note_on channel=0 note=90 velocity=38 time=0\n",
      "note_on channel=0 note=92 velocity=52 time=0\n",
      "note_off channel=0 note=94 velocity=64 time=0\n",
      "note_on channel=0 note=65 velocity=48 time=1\n",
      "note_off channel=0 note=76 velocity=64 time=0\n",
      "note_on channel=0 note=96 velocity=17 time=0\n",
      "note_off channel=0 note=46 velocity=64 time=1\n",
      "note_on channel=0 note=47 velocity=52 time=0\n",
      "note_off channel=0 note=59 velocity=64 time=0\n",
      "note_on channel=0 note=71 velocity=38 time=0\n",
      "note_off channel=0 note=73 velocity=64 time=0\n",
      "note_on channel=0 note=78 velocity=27 time=0\n",
      "note_on channel=0 note=75 velocity=29 time=2\n",
      "note_on channel=0 note=81 velocity=38 time=0\n",
      "note_off channel=0 note=92 velocity=64 time=0\n",
      "note_on channel=0 note=94 velocity=27 time=0\n",
      "note_off channel=0 note=90 velocity=64 time=1\n",
      "note_on channel=0 note=72 velocity=29 time=1\n",
      "note_on channel=0 note=76 velocity=31 time=0\n",
      "note_on channel=0 note=80 velocity=41 time=0\n",
      "note_on channel=0 note=90 velocity=38 time=0\n",
      "note_off channel=0 note=68 velocity=64 time=1\n",
      "note_on channel=0 note=69 velocity=36 time=0\n",
      "note_off channel=0 note=71 velocity=64 time=0\n",
      "note_off channel=0 note=75 velocity=64 time=0\n",
      "note_off channel=0 note=81 velocity=64 time=0\n",
      "note_off channel=0 note=83 velocity=64 time=0\n",
      "note_off channel=0 note=65 velocity=64 time=1\n",
      "note_off channel=0 note=72 velocity=64 time=0\n",
      "note_on channel=0 note=75 velocity=32 time=0\n",
      "note_on channel=0 note=83 velocity=44 time=0\n",
      "note_off channel=0 note=90 velocity=64 time=0\n",
      "note_on channel=0 note=66 velocity=47 time=1\n",
      "note_off channel=0 note=69 velocity=64 time=0\n",
      "note_off channel=0 note=76 velocity=64 time=0\n",
      "note_on channel=0 note=77 velocity=23 time=0\n",
      "note_off channel=0 note=78 velocity=64 time=0\n",
      "note_off channel=0 note=80 velocity=64 time=1\n",
      "note_on channel=0 note=81 velocity=26 time=0\n",
      "note_off channel=0 note=89 velocity=64 time=0\n",
      "note_on channel=0 note=90 velocity=28 time=0\n",
      "note_off channel=0 note=47 velocity=64 time=1\n",
      "note_off channel=0 note=96 velocity=64 time=0\n",
      "note_on channel=0 note=47 velocity=44 time=1\n",
      "note_off channel=0 note=66 velocity=64 time=0\n",
      "note_on channel=0 note=66 velocity=46 time=1\n",
      "note_off channel=0 note=91 velocity=64 time=0\n",
      "note_on channel=0 note=92 velocity=29 time=0\n",
      "note_on channel=0 note=91 velocity=62 time=1\n",
      "note_off channel=0 note=94 velocity=64 time=0\n",
      "note_off channel=0 note=47 velocity=64 time=1\n",
      "note_on channel=0 note=48 velocity=56 time=0\n",
      "note_on channel=0 note=60 velocity=56 time=0\n",
      "note_off channel=0 note=83 velocity=64 time=0\n",
      "note_on channel=0 note=88 velocity=19 time=0\n",
      "note_off channel=0 note=92 velocity=64 time=0\n",
      "note_on channel=0 note=102 velocity=43 time=0\n",
      "note_off channel=0 note=66 velocity=64 time=1\n",
      "note_on channel=0 note=67 velocity=42 time=0\n",
      "note_off channel=0 note=87 velocity=64 time=0\n",
      "note_on channel=0 note=65 velocity=60 time=1\n",
      "note_off channel=0 note=81 velocity=64 time=0\n",
      "note_on channel=0 note=82 velocity=54 time=1\n",
      "note_off channel=0 note=90 velocity=64 time=0\n",
      "note_off channel=0 note=67 velocity=64 time=1\n",
      "note_on channel=0 note=68 velocity=40 time=0\n",
      "note_on channel=0 note=73 velocity=35 time=0\n",
      "note_on channel=0 note=90 velocity=68 time=0\n",
      "note_on channel=0 note=92 velocity=31 time=0\n",
      "note_on channel=0 note=76 velocity=45 time=1\n",
      "note_off channel=0 note=77 velocity=64 time=0\n",
      "note_on channel=0 note=84 velocity=29 time=0\n",
      "note_off channel=0 note=93 velocity=64 time=0\n",
      "note_on channel=0 note=95 velocity=22 time=0\n",
      "note_off channel=0 note=48 velocity=64 time=1\n",
      "note_on channel=0 note=67 velocity=59 time=0\n",
      "note_off channel=0 note=68 velocity=64 time=0\n",
      "note_off channel=0 note=75 velocity=64 time=0\n",
      "note_on channel=0 note=80 velocity=52 time=0\n",
      "note_on channel=0 note=89 velocity=62 time=0\n",
      "note_off channel=0 note=92 velocity=64 time=0\n",
      "note_on channel=0 note=93 velocity=36 time=0\n",
      "note_on channel=0 note=46 velocity=66 time=1\n",
      "note_off channel=0 note=60 velocity=64 time=0\n",
      "note_on channel=0 note=64 velocity=69 time=0\n",
      "note_off channel=0 note=65 velocity=64 time=0\n",
      "note_on channel=0 note=44 velocity=75 time=1\n",
      "note_off channel=0 note=46 velocity=64 time=0\n",
      "note_on channel=0 note=63 velocity=63 time=0\n",
      "note_off channel=0 note=64 velocity=64 time=0\n",
      "note_off channel=0 note=67 velocity=64 time=0\n",
      "note_on channel=0 note=68 velocity=53 time=0\n",
      "note_on channel=0 note=79 velocity=43 time=0\n",
      "note_off channel=0 note=80 velocity=64 time=0\n",
      "note_on channel=0 note=87 velocity=38 time=0\n",
      "note_off channel=0 note=88 velocity=64 time=0\n",
      "note_on channel=0 note=72 velocity=33 time=1\n",
      "note_off channel=0 note=73 velocity=64 time=0\n",
      "note_off channel=0 note=84 velocity=64 time=0\n",
      "note_on channel=0 note=85 velocity=47 time=0\n",
      "note_on channel=0 note=92 velocity=44 time=0\n",
      "note_on channel=0 note=61 velocity=60 time=1\n",
      "note_off channel=0 note=76 velocity=64 time=0\n",
      "note_on channel=0 note=77 velocity=38 time=0\n",
      "note_off channel=0 note=79 velocity=64 time=0\n",
      "note_off channel=0 note=91 velocity=64 time=0\n",
      "note_off channel=0 note=95 velocity=64 time=0\n",
      "note_on channel=0 note=43 velocity=71 time=1\n",
      "note_off channel=0 note=44 velocity=64 time=0\n",
      "note_on channel=0 note=49 velocity=66 time=0\n",
      "note_off channel=0 note=63 velocity=64 time=0\n",
      "note_off channel=0 note=68 velocity=64 time=0\n",
      "note_off channel=0 note=72 velocity=64 time=0\n",
      "note_on channel=0 note=96 velocity=12 time=0\n",
      "note_off channel=0 note=43 velocity=64 time=1\n",
      "note_on channel=0 note=48 velocity=79 time=0\n",
      "note_off channel=0 note=49 velocity=64 time=0\n",
      "note_on channel=0 note=68 velocity=33 time=0\n",
      "note_on channel=0 note=71 velocity=26 time=1\n",
      "note_off channel=0 note=82 velocity=64 time=0\n",
      "note_off channel=0 note=48 velocity=64 time=1\n",
      "note_on channel=0 note=49 velocity=71 time=0\n",
      "note_on channel=0 note=82 velocity=50 time=0\n",
      "note_on channel=0 note=95 velocity=28 time=1\n",
      "note_on channel=0 note=48 velocity=69 time=1\n",
      "note_off channel=0 note=49 velocity=64 time=0\n",
      "note_off channel=0 note=82 velocity=64 time=0\n",
      "note_on channel=0 note=83 velocity=51 time=0\n",
      "note_off channel=0 note=48 velocity=64 time=1\n",
      "note_on channel=0 note=49 velocity=67 time=0\n",
      "note_on channel=0 note=82 velocity=50 time=2\n",
      "note_off channel=0 note=83 velocity=64 time=0\n",
      "note_off channel=0 note=95 velocity=64 time=0\n",
      "note_on channel=0 note=48 velocity=64 time=1\n",
      "note_off channel=0 note=49 velocity=64 time=0\n",
      "note_off channel=0 note=68 velocity=64 time=0\n",
      "note_off channel=0 note=96 velocity=64 time=0\n",
      "note_off channel=0 note=61 velocity=64 time=1\n",
      "note_on channel=0 note=68 velocity=43 time=0\n",
      "note_on channel=0 note=76 velocity=34 time=0\n",
      "note_off channel=0 note=77 velocity=64 time=0\n",
      "note_on channel=0 note=79 velocity=31 time=0\n",
      "note_on channel=0 note=91 velocity=56 time=0\n",
      "note_off channel=0 note=92 velocity=64 time=0\n",
      "note_on channel=0 note=95 velocity=19 time=0\n",
      "note_on channel=0 note=83 velocity=39 time=1\n",
      "note_on channel=0 note=84 velocity=26 time=0\n",
      "note_off channel=0 note=48 velocity=64 time=1\n",
      "note_on channel=0 note=67 velocity=50 time=0\n",
      "note_off channel=0 note=68 velocity=64 time=0\n",
      "note_off channel=0 note=71 velocity=64 time=0\n",
      "note_on channel=0 note=48 velocity=63 time=1\n",
      "note_on channel=0 note=61 velocity=57 time=0\n",
      "note_on channel=0 note=72 velocity=37 time=0\n",
      "note_off channel=0 note=83 velocity=64 time=1\n",
      "note_on channel=0 note=92 velocity=31 time=0\n",
      "note_off channel=0 note=48 velocity=64 time=1\n",
      "note_on channel=0 note=74 velocity=52 time=0\n",
      "note_off channel=0 note=79 velocity=64 time=0\n",
      "note_off channel=0 note=82 velocity=64 time=0\n",
      "note_on channel=0 note=83 velocity=48 time=0\n",
      "note_off channel=0 note=84 velocity=64 time=0\n",
      "note_on channel=0 note=53 velocity=71 time=1\n",
      "note_off channel=0 note=72 velocity=64 time=0\n",
      "note_off channel=0 note=76 velocity=64 time=0\n",
      "note_on channel=0 note=78 velocity=33 time=0\n",
      "note_on channel=0 note=80 velocity=38 time=0\n",
      "note_on channel=0 note=63 velocity=40 time=1\n",
      "note_off channel=0 note=67 velocity=64 time=0\n",
      "note_on channel=0 note=68 velocity=28 time=0\n",
      "note_on channel=0 note=70 velocity=35 time=0\n",
      "note_on channel=0 note=88 velocity=34 time=0\n",
      "note_off channel=0 note=92 velocity=64 time=0\n",
      "note_on channel=0 note=51 velocity=64 time=1\n",
      "note_off channel=0 note=53 velocity=64 time=0\n",
      "note_off channel=0 note=61 velocity=64 time=0\n",
      "note_off channel=0 note=78 velocity=64 time=0\n",
      "note_off channel=0 note=63 velocity=64 time=1\n",
      "note_off channel=0 note=70 velocity=64 time=0\n",
      "note_off channel=0 note=74 velocity=64 time=0\n",
      "note_on channel=0 note=75 velocity=27 time=0\n",
      "note_on channel=0 note=77 velocity=25 time=0\n",
      "note_off channel=0 note=80 velocity=64 time=0\n",
      "note_on channel=0 note=81 velocity=35 time=0\n",
      "note_off channel=0 note=88 velocity=64 time=0\n",
      "note_off channel=0 note=102 velocity=64 time=0\n",
      "note_off channel=0 note=51 velocity=64 time=1\n",
      "note_on channel=0 note=66 velocity=73 time=0\n",
      "note_off channel=0 note=68 velocity=64 time=0\n",
      "note_off channel=0 note=90 velocity=64 time=0\n",
      "note_on channel=0 note=90 velocity=34 time=1\n",
      "note_on channel=0 note=54 velocity=60 time=1\n",
      "note_on channel=0 note=80 velocity=43 time=0\n",
      "note_off channel=0 note=81 velocity=64 time=0\n",
      "note_on channel=0 note=82 velocity=55 time=0\n",
      "note_off channel=0 note=83 velocity=64 time=0\n",
      "note_off channel=0 note=87 velocity=64 time=0\n",
      "note_off channel=0 note=91 velocity=64 time=0\n",
      "note_off channel=0 note=93 velocity=64 time=0\n",
      "note_off channel=0 note=95 velocity=64 time=0\n",
      "note_on channel=0 note=73 velocity=55 time=1\n",
      "note_off channel=0 note=77 velocity=64 time=0\n",
      "note_on channel=0 note=64 velocity=70 time=1\n",
      "note_off channel=0 note=75 velocity=64 time=0\n",
      "note_on channel=0 note=88 velocity=22 time=0\n",
      "note_on channel=0 note=71 velocity=32 time=1\n",
      "note_on channel=0 note=77 velocity=32 time=0\n",
      "note_off channel=0 note=89 velocity=64 time=0\n",
      "note_on channel=0 note=45 velocity=70 time=1\n",
      "note_off channel=0 note=66 velocity=64 time=0\n",
      "note_on channel=0 note=67 velocity=67 time=0\n",
      "note_on channel=0 note=44 velocity=72 time=1\n",
      "note_off channel=0 note=45 velocity=64 time=0\n",
      "note_on channel=0 note=63 velocity=60 time=0\n",
      "note_off channel=0 note=64 velocity=64 time=0\n",
      "note_on channel=0 note=66 velocity=60 time=0\n",
      "note_off channel=0 note=67 velocity=64 time=0\n",
      "note_off channel=0 note=77 velocity=64 time=0\n",
      "note_on channel=0 note=87 velocity=42 time=0\n",
      "note_off channel=0 note=88 velocity=64 time=0\n",
      "note_on channel=0 note=91 velocity=39 time=0\n",
      "note_on channel=0 note=53 velocity=62 time=1\n",
      "note_off channel=0 note=54 velocity=64 time=0\n",
      "note_off channel=0 note=71 velocity=64 time=0\n",
      "note_on channel=0 note=77 velocity=44 time=0\n",
      "note_on channel=0 note=81 velocity=53 time=0\n",
      "note_off channel=0 note=82 velocity=64 time=0\n",
      "note_on channel=0 note=83 velocity=49 time=0\n",
      "note_off channel=0 note=63 velocity=64 time=1\n",
      "note_off channel=0 note=66 velocity=64 time=0\n",
      "note_off channel=0 note=80 velocity=64 time=0\n",
      "note_on channel=0 note=84 velocity=45 time=0\n",
      "note_off channel=0 note=85 velocity=64 time=0\n",
      "note_off channel=0 note=90 velocity=64 time=0\n",
      "note_on channel=0 note=72 velocity=53 time=1\n",
      "note_off channel=0 note=73 velocity=64 time=0\n",
      "note_on channel=0 note=85 velocity=21 time=0\n",
      "note_off channel=0 note=44 velocity=64 time=1\n",
      "note_on channel=0 note=68 velocity=24 time=0\n",
      "note_on channel=0 note=92 velocity=31 time=0\n",
      "note_on channel=0 note=94 velocity=27 time=0\n",
      "note_on channel=0 note=41 velocity=49 time=1\n",
      "note_on channel=0 note=76 velocity=45 time=0\n",
      "note_on channel=0 note=80 velocity=76 time=0\n",
      "note_off channel=0 note=84 velocity=64 time=0\n",
      "note_on channel=0 note=86 velocity=30 time=0\n",
      "note_on channel=0 note=90 velocity=63 time=0\n",
      "note_on channel=0 note=52 velocity=69 time=1\n",
      "note_off channel=0 note=53 velocity=64 time=0\n",
      "note_on channel=0 note=71 velocity=60 time=0\n",
      "note_off channel=0 note=72 velocity=64 time=0\n",
      "note_off channel=0 note=77 velocity=64 time=0\n",
      "note_off channel=0 note=81 velocity=64 time=0\n",
      "note_off channel=0 note=87 velocity=64 time=0\n",
      "note_off channel=0 note=41 velocity=64 time=1\n",
      "note_on channel=0 note=43 velocity=55 time=0\n",
      "note_on channel=0 note=61 velocity=61 time=0\n",
      "note_off channel=0 note=68 velocity=64 time=1\n",
      "note_off channel=0 note=85 velocity=64 time=0\n",
      "note_on channel=0 note=42 velocity=50 time=1\n",
      "note_off channel=0 note=43 velocity=64 time=0\n",
      "note_on channel=0 note=68 velocity=24 time=1\n",
      "note_on channel=0 note=73 velocity=64 time=0\n",
      "note_off channel=0 note=86 velocity=64 time=2\n",
      "note_on channel=0 note=89 velocity=20 time=0\n",
      "note_on channel=0 note=65 velocity=45 time=1\n",
      "note_on channel=0 note=87 velocity=36 time=0\n",
      "note_off channel=0 note=71 velocity=64 time=3\n",
      "note_off channel=0 note=89 velocity=64 time=0\n",
      "note_off channel=0 note=94 velocity=64 time=0\n",
      "note_on channel=0 note=75 velocity=47 time=1\n",
      "note_off channel=0 note=76 velocity=64 time=0\n",
      "note_off channel=0 note=90 velocity=64 time=0\n",
      "note_off channel=0 note=42 velocity=64 time=3\n",
      "note_on channel=0 note=43 velocity=44 time=0\n",
      "note_on channel=0 note=51 velocity=49 time=0\n",
      "note_off channel=0 note=52 velocity=64 time=0\n",
      "note_off channel=0 note=92 velocity=64 time=0\n",
      "note_on channel=0 note=42 velocity=43 time=2\n",
      "note_off channel=0 note=43 velocity=64 time=0\n",
      "note_off channel=0 note=51 velocity=64 time=0\n",
      "note_off channel=0 note=68 velocity=64 time=2\n",
      "note_on channel=0 note=89 velocity=74 time=0\n",
      "note_off channel=0 note=42 velocity=64 time=1\n",
      "note_off channel=0 note=65 velocity=64 time=0\n",
      "note_on channel=0 note=82 velocity=34 time=0\n",
      "note_on channel=0 note=90 velocity=24 time=0\n",
      "note_off channel=0 note=91 velocity=64 time=0\n",
      "note_on channel=0 note=94 velocity=64 time=0\n",
      "note_on channel=0 note=53 velocity=68 time=1\n",
      "note_on channel=0 note=78 velocity=36 time=0\n",
      "note_on channel=0 note=95 velocity=49 time=0\n",
      "note_on channel=0 note=103 velocity=22 time=0\n",
      "note_on channel=0 note=45 velocity=65 time=1\n",
      "note_on channel=0 note=81 velocity=42 time=0\n",
      "note_off channel=0 note=82 velocity=64 time=0\n",
      "note_on channel=0 note=102 velocity=32 time=0\n",
      "note_off channel=0 note=45 velocity=64 time=1\n",
      "note_on channel=0 note=47 velocity=79 time=0\n",
      "note_off channel=0 note=53 velocity=64 time=0\n",
      "note_on channel=0 note=54 velocity=65 time=0\n",
      "note_off channel=0 note=61 velocity=64 time=0\n",
      "note_on channel=0 note=93 velocity=60 time=0\n",
      "note_off channel=0 note=94 velocity=64 time=0\n",
      "note_on channel=0 note=100 velocity=35 time=0\n",
      "note_off channel=0 note=47 velocity=64 time=1\n",
      "note_on channel=0 note=48 velocity=78 time=0\n",
      "note_off channel=0 note=54 velocity=64 time=0\n",
      "note_on channel=0 note=63 velocity=50 time=0\n",
      "note_off channel=0 note=90 velocity=64 time=0\n",
      "note_on channel=0 note=91 velocity=66 time=0\n",
      "note_on channel=0 note=94 velocity=15 time=0\n",
      "note_off channel=0 note=102 velocity=64 time=0\n",
      "note_off channel=0 note=103 velocity=64 time=0\n",
      "note_on channel=0 note=53 velocity=65 time=1\n",
      "note_on channel=0 note=68 velocity=27 time=0\n",
      "note_off channel=0 note=81 velocity=64 time=0\n",
      "note_off channel=0 note=87 velocity=64 time=0\n",
      "note_off channel=0 note=48 velocity=64 time=1\n",
      "note_off channel=0 note=63 velocity=64 time=0\n",
      "note_on channel=0 note=72 velocity=58 time=0\n",
      "note_off channel=0 note=73 velocity=64 time=0\n",
      "note_off channel=0 note=78 velocity=64 time=0\n",
      "note_off channel=0 note=53 velocity=64 time=1\n",
      "note_on channel=0 note=73 velocity=34 time=0\n",
      "note_on channel=0 note=87 velocity=76 time=0\n",
      "note_off channel=0 note=94 velocity=64 time=0\n",
      "note_off channel=0 note=100 velocity=64 time=0\n",
      "note_on channel=0 note=49 velocity=48 time=2\n",
      "note_off channel=0 note=68 velocity=64 time=0\n",
      "note_off channel=0 note=72 velocity=64 time=0\n",
      "note_off channel=0 note=93 velocity=64 time=0\n",
      "note_off channel=0 note=73 velocity=64 time=1\n",
      "note_off channel=0 note=95 velocity=64 time=0\n",
      "note_off channel=0 note=49 velocity=64 time=1\n",
      "note_on channel=0 note=73 velocity=20 time=0\n",
      "note_on channel=0 note=53 velocity=36 time=1\n",
      "note_on channel=0 note=93 velocity=16 time=1\n",
      "note_off channel=0 note=53 velocity=64 time=1\n",
      "note_on channel=0 note=84 velocity=41 time=1\n",
      "note_on channel=0 note=53 velocity=30 time=2\n",
      "note_on channel=0 note=78 velocity=23 time=0\n",
      "note_on channel=0 note=71 velocity=19 time=2\n",
      "note_on channel=0 note=86 velocity=30 time=0\n",
      "note_off channel=0 note=53 velocity=64 time=1\n",
      "note_on channel=0 note=77 velocity=26 time=0\n",
      "note_off channel=0 note=78 velocity=64 time=1\n",
      "note_on channel=0 note=82 velocity=26 time=0\n",
      "note_off channel=0 note=83 velocity=64 time=1\n",
      "note_off channel=0 note=77 velocity=64 time=1\n",
      "note_off channel=0 note=93 velocity=64 time=0\n",
      "note_on channel=0 note=77 velocity=42 time=1\n",
      "note_on channel=0 note=85 velocity=32 time=1\n",
      "note_off channel=0 note=86 velocity=64 time=0\n",
      "note_on channel=0 note=86 velocity=45 time=1\n",
      "note_off channel=0 note=73 velocity=64 time=1\n",
      "note_off channel=0 note=85 velocity=64 time=0\n",
      "note_on channel=0 note=55 velocity=67 time=4\n",
      "note_on channel=0 note=67 velocity=70 time=0\n",
      "note_off channel=0 note=71 velocity=64 time=0\n",
      "note_off channel=0 note=80 velocity=64 time=0\n",
      "note_off channel=0 note=82 velocity=64 time=0\n",
      "note_on channel=0 note=83 velocity=78 time=0\n",
      "note_on channel=0 note=102 velocity=38 time=0\n",
      "note_off channel=0 note=75 velocity=64 time=1\n",
      "note_on channel=0 note=80 velocity=77 time=0\n",
      "note_on channel=0 note=88 velocity=47 time=0\n",
      "note_on channel=0 note=45 velocity=70 time=1\n",
      "note_on channel=0 note=54 velocity=69 time=0\n",
      "note_off channel=0 note=55 velocity=64 time=0\n",
      "note_on channel=0 note=74 velocity=70 time=0\n",
      "note_off channel=0 note=77 velocity=64 time=0\n",
      "note_on channel=0 note=93 velocity=50 time=0\n",
      "note_on channel=0 note=44 velocity=72 time=1\n",
      "note_off channel=0 note=45 velocity=64 time=0\n",
      "note_off channel=0 note=54 velocity=64 time=0\n",
      "note_on channel=0 note=55 velocity=75 time=0\n",
      "note_on channel=0 note=61 velocity=32 time=0\n",
      "note_on channel=0 note=77 velocity=32 time=0\n",
      "note_on channel=0 note=71 velocity=45 time=1\n",
      "note_on channel=0 note=85 velocity=40 time=0\n",
      "note_off channel=0 note=88 velocity=64 time=0\n",
      "note_off channel=0 note=84 velocity=64 time=1\n",
      "note_on channel=0 note=43 velocity=67 time=1\n",
      "note_off channel=0 note=44 velocity=64 time=0\n",
      "note_off channel=0 note=55 velocity=64 time=1\n",
      "note_on channel=0 note=56 velocity=67 time=0\n",
      "note_off channel=0 note=67 velocity=64 time=0\n",
      "note_off channel=0 note=74 velocity=64 time=0\n",
      "note_on channel=0 note=75 velocity=79 time=0\n",
      "note_on channel=0 note=82 velocity=35 time=0\n",
      "note_off channel=0 note=86 velocity=64 time=0\n",
      "note_off channel=0 note=93 velocity=64 time=0\n",
      "note_on channel=0 note=94 velocity=48 time=0\n",
      "note_on channel=0 note=96 velocity=30 time=0\n",
      "note_off channel=0 note=102 velocity=64 time=0\n",
      "note_off channel=0 note=83 velocity=64 time=1\n",
      "note_on channel=0 note=84 velocity=70 time=0\n",
      "note_on channel=0 note=88 velocity=28 time=0\n",
      "note_on channel=0 note=102 velocity=48 time=0\n",
      "note_off channel=0 note=61 velocity=64 time=1\n",
      "note_off channel=0 note=89 velocity=64 time=0\n",
      "note_on channel=0 note=90 velocity=71 time=0\n",
      "note_on channel=0 note=61 velocity=20 time=1\n",
      "note_off channel=0 note=91 velocity=64 time=0\n",
      "note_on channel=0 note=86 velocity=30 time=1\n",
      "note_off channel=0 note=88 velocity=64 time=0\n",
      "note_on channel=0 note=89 velocity=76 time=0\n",
      "note_off channel=0 note=90 velocity=64 time=0\n",
      "note_on channel=0 note=91 velocity=36 time=0\n",
      "note_on channel=0 note=55 velocity=70 time=1\n",
      "note_off channel=0 note=56 velocity=64 time=0\n",
      "note_on channel=0 note=83 velocity=71 time=0\n",
      "note_off channel=0 note=84 velocity=64 time=0\n",
      "note_off channel=0 note=85 velocity=64 time=0\n",
      "note_on channel=0 note=93 velocity=49 time=0\n",
      "note_off channel=0 note=94 velocity=64 time=0\n",
      "note_off channel=0 note=82 velocity=64 time=1\n",
      "note_on channel=0 note=74 velocity=49 time=1\n",
      "note_off channel=0 note=80 velocity=64 time=0\n",
      "note_off channel=0 note=96 velocity=64 time=0\n",
      "note_off channel=0 note=43 velocity=64 time=1\n",
      "note_off channel=0 note=55 velocity=64 time=0\n",
      "note_on channel=0 note=56 velocity=67 time=0\n",
      "note_off channel=0 note=61 velocity=64 time=0\n",
      "note_on channel=0 note=90 velocity=61 time=0\n",
      "note_off channel=0 note=102 velocity=64 time=0\n",
      "note_off channel=0 note=75 velocity=64 time=1\n",
      "note_on channel=0 note=76 velocity=65 time=0\n",
      "note_off channel=0 note=77 velocity=64 time=0\n",
      "note_off channel=0 note=86 velocity=64 time=0\n",
      "note_off channel=0 note=89 velocity=64 time=0\n",
      "note_off channel=0 note=93 velocity=64 time=0\n",
      "note_off channel=0 note=56 velocity=64 time=1\n",
      "note_on channel=0 note=65 velocity=48 time=0\n",
      "note_on channel=0 note=69 velocity=44 time=0\n",
      "note_on channel=0 note=85 velocity=49 time=0\n",
      "note_on channel=0 note=89 velocity=50 time=0\n",
      "note_off channel=0 note=91 velocity=64 time=0\n",
      "note_on channel=0 note=58 velocity=59 time=1\n",
      "note_on channel=0 note=73 velocity=38 time=0\n",
      "note_off channel=0 note=74 velocity=64 time=0\n",
      "note_on channel=0 note=75 velocity=58 time=0\n",
      "note_off channel=0 note=76 velocity=64 time=0\n",
      "note_on channel=0 note=77 velocity=62 time=0\n",
      "note_on channel=0 note=82 velocity=33 time=0\n",
      "note_on channel=0 note=84 velocity=29 time=0\n",
      "note_on channel=0 note=91 velocity=48 time=0\n",
      "note_on channel=0 note=68 velocity=20 time=1\n",
      "note_off channel=0 note=69 velocity=64 time=0\n",
      "note_off channel=0 note=85 velocity=64 time=0\n",
      "note_on channel=0 note=86 velocity=32 time=0\n",
      "note_off channel=0 note=58 velocity=64 time=1\n",
      "note_on channel=0 note=59 velocity=60 time=0\n",
      "note_on channel=0 note=78 velocity=63 time=0\n",
      "note_off channel=0 note=82 velocity=64 time=0\n",
      "note_on channel=0 note=85 velocity=52 time=0\n",
      "note_off channel=0 note=89 velocity=64 time=0\n",
      "note_off channel=0 note=77 velocity=64 time=1\n"
     ]
    },
    {
     "name": "stdout",
     "output_type": "stream",
     "text": [
      "note_on channel=0 note=82 velocity=47 time=0\n",
      "note_off channel=0 note=83 velocity=64 time=0\n",
      "note_on channel=0 note=58 velocity=59 time=1\n",
      "note_off channel=0 note=59 velocity=64 time=0\n",
      "note_off channel=0 note=68 velocity=64 time=0\n",
      "note_off channel=0 note=71 velocity=64 time=0\n",
      "note_off channel=0 note=75 velocity=64 time=0\n",
      "note_on channel=0 note=89 velocity=44 time=0\n",
      "note_off channel=0 note=90 velocity=64 time=0\n",
      "note_off channel=0 note=86 velocity=64 time=1\n",
      "note_on channel=0 note=57 velocity=69 time=1\n",
      "note_off channel=0 note=58 velocity=64 time=0\n",
      "note_on channel=0 note=76 velocity=72 time=0\n",
      "note_off channel=0 note=78 velocity=64 time=0\n",
      "note_on channel=0 note=77 velocity=49 time=1\n",
      "note_off channel=0 note=84 velocity=64 time=0\n",
      "note_off channel=0 note=89 velocity=64 time=0\n",
      "note_on channel=0 note=90 velocity=77 time=0\n",
      "note_off channel=0 note=91 velocity=64 time=0\n",
      "note_on channel=0 note=71 velocity=31 time=1\n",
      "note_on channel=0 note=84 velocity=57 time=0\n",
      "note_off channel=0 note=85 velocity=64 time=0\n",
      "note_on channel=0 note=56 velocity=66 time=1\n",
      "note_off channel=0 note=57 velocity=64 time=0\n",
      "note_off channel=0 note=77 velocity=64 time=0\n",
      "note_on channel=0 note=78 velocity=44 time=0\n",
      "note_off channel=0 note=56 velocity=64 time=1\n",
      "note_on channel=0 note=57 velocity=69 time=0\n",
      "note_off channel=0 note=84 velocity=64 time=0\n",
      "note_on channel=0 note=85 velocity=56 time=0\n",
      "note_off channel=0 note=87 velocity=64 time=0\n",
      "note_on channel=0 note=45 velocity=70 time=2\n",
      "note_on channel=0 note=64 velocity=71 time=0\n",
      "note_off channel=0 note=65 velocity=64 time=0\n",
      "note_off channel=0 note=71 velocity=64 time=0\n",
      "note_off channel=0 note=78 velocity=64 time=0\n",
      "note_on channel=0 note=80 velocity=59 time=0\n",
      "note_on channel=0 note=56 velocity=71 time=1\n",
      "note_off channel=0 note=57 velocity=64 time=0\n",
      "note_on channel=0 note=84 velocity=50 time=0\n",
      "note_off channel=0 note=85 velocity=64 time=0\n",
      "note_on channel=0 note=91 velocity=15 time=0\n",
      "note_on channel=0 note=44 velocity=72 time=1\n",
      "note_off channel=0 note=45 velocity=64 time=0\n",
      "note_on channel=0 note=63 velocity=62 time=0\n",
      "note_off channel=0 note=64 velocity=64 time=0\n",
      "note_on channel=0 note=71 velocity=35 time=0\n",
      "note_on channel=0 note=83 velocity=37 time=1\n",
      "note_on channel=0 note=86 velocity=21 time=0\n",
      "note_on channel=0 note=87 velocity=43 time=0\n",
      "note_off channel=0 note=82 velocity=64 time=1\n",
      "note_off channel=0 note=63 velocity=64 time=1\n",
      "note_on channel=0 note=61 velocity=50 time=1\n",
      "note_off channel=0 note=71 velocity=64 time=0\n",
      "note_on channel=0 note=78 velocity=33 time=0\n",
      "note_on channel=0 note=82 velocity=37 time=0\n",
      "note_on channel=0 note=85 velocity=39 time=0\n",
      "note_off channel=0 note=86 velocity=64 time=0\n",
      "note_off channel=0 note=56 velocity=64 time=1\n",
      "note_on channel=0 note=57 velocity=71 time=0\n",
      "note_off channel=0 note=83 velocity=64 time=0\n",
      "note_off channel=0 note=91 velocity=64 time=0\n",
      "note_on channel=0 note=93 velocity=33 time=0\n",
      "note_on channel=0 note=43 velocity=63 time=1\n",
      "note_off channel=0 note=44 velocity=64 time=0\n",
      "note_off channel=0 note=82 velocity=64 time=0\n",
      "note_on channel=0 note=91 velocity=67 time=0\n",
      "note_on channel=0 note=92 velocity=69 time=0\n",
      "note_on channel=0 note=95 velocity=17 time=0\n",
      "note_on channel=0 note=82 velocity=36 time=1\n",
      "note_off channel=0 note=84 velocity=64 time=0\n",
      "note_off channel=0 note=43 velocity=64 time=1\n",
      "note_off channel=0 note=87 velocity=64 time=0\n",
      "note_on channel=0 note=86 velocity=32 time=1\n",
      "note_on channel=0 note=84 velocity=44 time=1\n",
      "note_off channel=0 note=85 velocity=64 time=0\n",
      "note_off channel=0 note=91 velocity=64 time=0\n",
      "note_on channel=0 note=56 velocity=66 time=1\n",
      "note_off channel=0 note=57 velocity=64 time=0\n",
      "note_on channel=0 note=68 velocity=70 time=0\n",
      "note_off channel=0 note=86 velocity=64 time=1\n",
      "note_off channel=0 note=93 velocity=64 time=0\n",
      "note_on channel=0 note=48 velocity=59 time=1\n",
      "note_off channel=0 note=76 velocity=64 time=0\n",
      "note_on channel=0 note=86 velocity=30 time=0\n",
      "note_on channel=0 note=89 velocity=38 time=0\n",
      "note_off channel=0 note=95 velocity=64 time=0\n",
      "note_on channel=0 note=71 velocity=38 time=1\n",
      "note_off channel=0 note=73 velocity=64 time=0\n",
      "note_on channel=0 note=75 velocity=60 time=0\n",
      "note_off channel=0 note=78 velocity=64 time=0\n",
      "note_on channel=0 note=83 velocity=44 time=0\n",
      "note_off channel=0 note=84 velocity=64 time=0\n",
      "note_off channel=0 note=90 velocity=64 time=0\n",
      "note_off channel=0 note=48 velocity=64 time=1\n",
      "note_on channel=0 note=55 velocity=62 time=0\n",
      "note_off channel=0 note=56 velocity=64 time=0\n",
      "note_off channel=0 note=80 velocity=64 time=0\n",
      "note_on channel=0 note=91 velocity=19 time=0\n",
      "note_off channel=0 note=82 velocity=64 time=1\n",
      "note_on channel=0 note=93 velocity=32 time=0\n",
      "note_off channel=0 note=55 velocity=64 time=1\n",
      "note_on channel=0 note=56 velocity=68 time=0\n",
      "note_on channel=0 note=65 velocity=32 time=0\n",
      "note_on channel=0 note=84 velocity=37 time=0\n",
      "note_off channel=0 note=89 velocity=64 time=0\n",
      "note_on channel=0 note=90 velocity=37 time=0\n",
      "note_on channel=0 note=50 velocity=68 time=1\n",
      "note_off channel=0 note=91 velocity=64 time=0\n",
      "note_off channel=0 note=50 velocity=64 time=1\n",
      "note_on channel=0 note=55 velocity=67 time=0\n",
      "note_off channel=0 note=56 velocity=64 time=0\n",
      "note_on channel=0 note=91 velocity=16 time=0\n",
      "note_on channel=0 note=94 velocity=32 time=0\n",
      "note_off channel=0 note=55 velocity=64 time=1\n",
      "note_on channel=0 note=56 velocity=60 time=0\n",
      "note_on channel=0 note=55 velocity=63 time=2\n",
      "note_off channel=0 note=56 velocity=64 time=0\n",
      "note_off channel=0 note=61 velocity=64 time=0\n",
      "note_off channel=0 note=65 velocity=64 time=0\n",
      "note_on channel=0 note=78 velocity=16 time=0\n",
      "note_off channel=0 note=86 velocity=64 time=0\n",
      "note_off channel=0 note=90 velocity=64 time=0\n",
      "note_on channel=0 note=90 velocity=37 time=1\n",
      "note_off channel=0 note=55 velocity=64 time=1\n",
      "note_off channel=0 note=68 velocity=64 time=0\n",
      "note_on channel=0 note=80 velocity=34 time=0\n",
      "note_off channel=0 note=94 velocity=64 time=0\n",
      "note_on channel=0 note=55 velocity=70 time=1\n",
      "note_on channel=0 note=66 velocity=46 time=0\n",
      "note_on channel=0 note=64 velocity=71 time=2\n",
      "note_off channel=0 note=66 velocity=64 time=0\n",
      "note_on channel=0 note=77 velocity=34 time=0\n",
      "note_off channel=0 note=78 velocity=64 time=0\n",
      "note_on channel=0 note=89 velocity=35 time=0\n",
      "note_on channel=0 note=45 velocity=71 time=1\n",
      "note_off channel=0 note=55 velocity=64 time=0\n",
      "note_on channel=0 note=82 velocity=43 time=0\n",
      "note_off channel=0 note=83 velocity=64 time=1\n",
      "note_on channel=0 note=44 velocity=71 time=1\n",
      "note_off channel=0 note=45 velocity=64 time=0\n",
      "note_on channel=0 note=55 velocity=70 time=0\n",
      "note_on channel=0 note=63 velocity=58 time=0\n",
      "note_off channel=0 note=64 velocity=64 time=0\n",
      "note_off channel=0 note=71 velocity=64 time=0\n",
      "note_off channel=0 note=77 velocity=64 time=0\n",
      "note_on channel=0 note=78 velocity=30 time=0\n",
      "note_off channel=0 note=80 velocity=64 time=0\n",
      "note_on channel=0 note=83 velocity=30 time=0\n",
      "note_on channel=0 note=88 velocity=28 time=0\n",
      "note_off channel=0 note=89 velocity=64 time=0\n",
      "note_off channel=0 note=91 velocity=64 time=0\n",
      "note_on channel=0 note=101 velocity=13 time=0\n",
      "note_on channel=0 note=102 velocity=38 time=0\n",
      "note_on channel=0 note=71 velocity=40 time=1\n",
      "note_on channel=0 note=62 velocity=26 time=1\n",
      "note_on channel=0 note=68 velocity=75 time=0\n",
      "note_off channel=0 note=83 velocity=64 time=0\n",
      "note_on channel=0 note=86 velocity=36 time=0\n",
      "note_off channel=0 note=44 velocity=64 time=1\n",
      "note_on channel=0 note=45 velocity=69 time=0\n",
      "note_off channel=0 note=55 velocity=64 time=0\n",
      "note_on channel=0 note=56 velocity=67 time=0\n",
      "note_off channel=0 note=63 velocity=64 time=0\n",
      "note_off channel=0 note=101 velocity=64 time=0\n",
      "note_on channel=0 note=65 velocity=35 time=1\n",
      "note_off channel=0 note=92 velocity=64 time=0\n",
      "note_on channel=0 note=44 velocity=64 time=1\n",
      "note_off channel=0 note=45 velocity=64 time=0\n",
      "note_off channel=0 note=62 velocity=64 time=0\n",
      "note_on channel=0 note=97 velocity=22 time=0\n",
      "note_on channel=0 note=61 velocity=52 time=1\n",
      "note_off channel=0 note=65 velocity=64 time=0\n",
      "note_on channel=0 note=43 velocity=54 time=1\n",
      "note_off channel=0 note=44 velocity=64 time=0\n",
      "note_on channel=0 note=65 velocity=31 time=0\n",
      "note_off channel=0 note=43 velocity=64 time=2\n",
      "note_on channel=0 note=80 velocity=77 time=0\n",
      "note_off channel=0 note=65 velocity=64 time=2\n",
      "note_on channel=0 note=48 velocity=57 time=1\n",
      "note_on channel=0 note=65 velocity=28 time=0\n",
      "note_on channel=0 note=91 velocity=22 time=0\n",
      "note_off channel=0 note=56 velocity=64 time=1\n",
      "note_on channel=0 note=47 velocity=64 time=1\n",
      "note_off channel=0 note=48 velocity=64 time=0\n",
      "note_on channel=0 note=56 velocity=57 time=0\n",
      "note_off channel=0 note=102 velocity=64 time=0\n",
      "note_off channel=0 note=65 velocity=64 time=1\n",
      "note_off channel=0 note=97 velocity=64 time=0\n",
      "note_off channel=0 note=47 velocity=64 time=1\n",
      "note_on channel=0 note=65 velocity=35 time=0\n",
      "note_on channel=0 note=49 velocity=68 time=1\n",
      "note_off channel=0 note=56 velocity=64 time=0\n",
      "note_off channel=0 note=49 velocity=64 time=1\n",
      "note_on channel=0 note=52 velocity=65 time=0\n",
      "note_off channel=0 note=52 velocity=64 time=1\n",
      "note_off channel=0 note=61 velocity=64 time=2\n",
      "note_off channel=0 note=78 velocity=64 time=1\n",
      "note_on channel=0 note=85 velocity=43 time=0\n",
      "note_off channel=0 note=86 velocity=64 time=0\n",
      "note_on channel=0 note=56 velocity=56 time=2\n",
      "note_off channel=0 note=75 velocity=64 time=0\n",
      "note_on channel=0 note=73 velocity=31 time=2\n",
      "note_on channel=0 note=75 velocity=48 time=0\n",
      "note_off channel=0 note=88 velocity=64 time=0\n",
      "note_on channel=0 note=89 velocity=64 time=0\n",
      "note_off channel=0 note=93 velocity=64 time=0\n",
      "note_on channel=0 note=95 velocity=38 time=0\n",
      "note_on channel=0 note=48 velocity=83 time=1\n",
      "note_off channel=0 note=56 velocity=64 time=0\n",
      "note_on channel=0 note=64 velocity=50 time=0\n",
      "note_off channel=0 note=65 velocity=64 time=0\n",
      "note_on channel=0 note=78 velocity=32 time=0\n",
      "note_off channel=0 note=90 velocity=64 time=0\n",
      "note_on channel=0 note=56 velocity=60 time=1\n",
      "note_off channel=0 note=73 velocity=64 time=0\n",
      "note_off channel=0 note=82 velocity=64 time=0\n",
      "note_off channel=0 note=64 velocity=64 time=1\n",
      "note_on channel=0 note=73 velocity=30 time=0\n",
      "note_on channel=0 note=88 velocity=33 time=0\n",
      "note_on channel=0 note=90 velocity=34 time=0\n",
      "note_off channel=0 note=48 velocity=64 time=1\n",
      "note_on channel=0 note=65 velocity=43 time=0\n",
      "note_off channel=0 note=78 velocity=64 time=0\n",
      "note_on channel=0 note=82 velocity=32 time=0\n",
      "note_off channel=0 note=91 velocity=64 time=0\n",
      "note_off channel=0 note=95 velocity=64 time=0\n",
      "note_on channel=0 note=91 velocity=33 time=1\n",
      "note_on channel=0 note=48 velocity=60 time=1\n",
      "note_on channel=0 note=93 velocity=35 time=0\n",
      "note_off channel=0 note=88 velocity=64 time=1\n",
      "note_off channel=0 note=48 velocity=64 time=1\n",
      "note_on channel=0 note=88 velocity=39 time=0\n",
      "note_off channel=0 note=89 velocity=64 time=1\n",
      "note_off channel=0 note=75 velocity=64 time=1\n",
      "note_on channel=0 note=44 velocity=43 time=1\n",
      "note_on channel=0 note=75 velocity=27 time=0\n",
      "note_off channel=0 note=84 velocity=64 time=0\n",
      "note_off channel=0 note=85 velocity=64 time=0\n",
      "note_on channel=0 note=61 velocity=16 time=3\n",
      "note_on channel=0 note=101 velocity=41 time=1\n",
      "note_on channel=0 note=43 velocity=31 time=1\n",
      "note_off channel=0 note=44 velocity=64 time=0\n",
      "note_on channel=0 note=77 velocity=47 time=0\n",
      "note_on channel=0 note=55 velocity=71 time=1\n",
      "note_off channel=0 note=56 velocity=64 time=0\n",
      "note_off channel=0 note=71 velocity=64 time=0\n",
      "note_off channel=0 note=65 velocity=64 time=1\n",
      "note_off channel=0 note=68 velocity=64 time=0\n",
      "note_off channel=0 note=43 velocity=64 time=1\n",
      "note_off channel=0 note=75 velocity=64 time=0\n",
      "note_on channel=0 note=43 velocity=11 time=1\n",
      "note_on channel=0 note=66 velocity=58 time=0\n",
      "note_on channel=0 note=54 velocity=67 time=1\n",
      "note_off channel=0 note=55 velocity=64 time=0\n",
      "note_off channel=0 note=73 velocity=64 time=0\n",
      "note_off channel=0 note=91 velocity=64 time=0\n",
      "note_on channel=0 note=98 velocity=28 time=0\n",
      "note_on channel=0 note=68 velocity=31 time=1\n",
      "note_on channel=0 note=73 velocity=42 time=0\n",
      "note_on channel=0 note=91 velocity=21 time=0\n",
      "note_on channel=0 note=65 velocity=49 time=1\n",
      "note_off channel=0 note=66 velocity=64 time=0\n",
      "note_off channel=0 note=43 velocity=64 time=1\n",
      "note_on channel=0 note=53 velocity=70 time=2\n",
      "note_off channel=0 note=54 velocity=64 time=0\n",
      "note_on channel=0 note=64 velocity=49 time=0\n",
      "note_off channel=0 note=65 velocity=64 time=0\n",
      "note_on channel=0 note=75 velocity=44 time=0\n",
      "note_off channel=0 note=73 velocity=64 time=1\n",
      "note_on channel=0 note=83 velocity=35 time=0\n",
      "note_off channel=0 note=61 velocity=64 time=1\n",
      "note_on channel=0 note=71 velocity=43 time=0\n",
      "note_off channel=0 note=82 velocity=64 time=0\n",
      "note_off channel=0 note=91 velocity=64 time=0\n",
      "note_on channel=0 note=52 velocity=70 time=1\n",
      "note_off channel=0 note=53 velocity=64 time=0\n",
      "note_off channel=0 note=88 velocity=64 time=0\n",
      "note_on channel=0 note=89 velocity=62 time=0\n",
      "note_on channel=0 note=95 velocity=39 time=0\n",
      "note_on channel=0 note=96 velocity=14 time=0\n",
      "note_on channel=0 note=61 velocity=46 time=1\n",
      "note_off channel=0 note=64 velocity=64 time=0\n",
      "note_on channel=0 note=65 velocity=60 time=0\n",
      "note_off channel=0 note=68 velocity=64 time=0\n",
      "note_on channel=0 note=69 velocity=41 time=0\n",
      "note_off channel=0 note=83 velocity=64 time=0\n",
      "note_on channel=0 note=45 velocity=69 time=1\n",
      "note_on channel=0 note=82 velocity=36 time=0\n",
      "note_on channel=0 note=84 velocity=42 time=0\n",
      "note_on channel=0 note=91 velocity=28 time=0\n",
      "note_off channel=0 note=90 velocity=64 time=1\n",
      "note_on channel=0 note=44 velocity=70 time=1\n",
      "note_off channel=0 note=45 velocity=64 time=0\n",
      "note_off channel=0 note=52 velocity=64 time=0\n",
      "note_on channel=0 note=53 velocity=71 time=0\n",
      "note_off channel=0 note=71 velocity=64 time=0\n",
      "note_on channel=0 note=72 velocity=39 time=0\n",
      "note_off channel=0 note=69 velocity=64 time=1\n",
      "note_on channel=0 note=88 velocity=34 time=0\n",
      "note_off channel=0 note=95 velocity=64 time=0\n",
      "note_on channel=0 note=43 velocity=67 time=1\n",
      "note_off channel=0 note=44 velocity=64 time=0\n",
      "note_off channel=0 note=53 velocity=64 time=0\n",
      "note_on channel=0 note=54 velocity=63 time=0\n",
      "note_off channel=0 note=84 velocity=64 time=0\n",
      "note_on channel=0 note=90 velocity=26 time=0\n",
      "note_off channel=0 note=91 velocity=64 time=0\n",
      "note_off channel=0 note=96 velocity=64 time=0\n",
      "note_off channel=0 note=65 velocity=64 time=1\n",
      "note_off channel=0 note=72 velocity=64 time=0\n",
      "note_on channel=0 note=91 velocity=19 time=0\n",
      "note_on channel=0 note=102 velocity=36 time=0\n",
      "note_off channel=0 note=61 velocity=64 time=1\n",
      "note_on channel=0 note=83 velocity=31 time=0\n",
      "note_on channel=0 note=53 velocity=66 time=1\n",
      "note_off channel=0 note=54 velocity=64 time=0\n",
      "note_on channel=0 note=71 velocity=13 time=0\n",
      "note_off channel=0 note=82 velocity=64 time=0\n",
      "note_off channel=0 note=89 velocity=64 time=0\n",
      "note_off channel=0 note=53 velocity=64 time=1\n",
      "note_on channel=0 note=54 velocity=64 time=0\n",
      "note_on channel=0 note=82 velocity=33 time=0\n",
      "note_off channel=0 note=83 velocity=64 time=0\n",
      "note_off channel=0 note=91 velocity=64 time=1\n",
      "note_off channel=0 note=43 velocity=64 time=1\n",
      "note_on channel=0 note=44 velocity=35 time=0\n",
      "note_off channel=0 note=71 velocity=64 time=0\n",
      "note_off channel=0 note=44 velocity=64 time=2\n",
      "note_on channel=0 note=91 velocity=21 time=0\n",
      "note_off channel=0 note=98 velocity=64 time=0\n",
      "note_off channel=0 note=77 velocity=64 time=2\n",
      "note_off channel=0 note=88 velocity=64 time=0\n",
      "note_on channel=0 note=98 velocity=22 time=0\n",
      "note_on channel=0 note=77 velocity=24 time=2\n",
      "note_off channel=0 note=77 velocity=64 time=3\n",
      "note_off channel=0 note=98 velocity=64 time=0\n",
      "note_on channel=0 note=77 velocity=18 time=1\n",
      "note_on channel=0 note=100 velocity=10 time=3\n",
      "note_off channel=0 note=102 velocity=64 time=0\n",
      "note_off channel=0 note=54 velocity=64 time=1\n",
      "note_on channel=0 note=55 velocity=64 time=0\n",
      "note_on channel=0 note=79 velocity=25 time=0\n",
      "note_on channel=0 note=67 velocity=64 time=1\n",
      "note_off channel=0 note=80 velocity=64 time=0\n",
      "note_off channel=0 note=101 velocity=64 time=0\n",
      "note_off channel=0 note=100 velocity=64 time=1\n",
      "note_on channel=0 note=54 velocity=67 time=1\n",
      "note_off channel=0 note=55 velocity=64 time=0\n",
      "note_on channel=0 note=71 velocity=23 time=0\n",
      "note_off channel=0 note=77 velocity=64 time=0\n",
      "note_on channel=0 note=101 velocity=55 time=0\n",
      "note_on channel=0 note=66 velocity=70 time=1\n",
      "note_off channel=0 note=67 velocity=64 time=0\n",
      "note_off channel=0 note=75 velocity=64 time=0\n",
      "note_off channel=0 note=79 velocity=64 time=0\n",
      "note_on channel=0 note=80 velocity=37 time=0\n",
      "note_on channel=0 note=83 velocity=34 time=0\n",
      "note_on channel=0 note=45 velocity=71 time=1\n",
      "note_on channel=0 note=64 velocity=73 time=0\n",
      "note_on channel=0 note=77 velocity=37 time=0\n",
      "note_off channel=0 note=82 velocity=64 time=0\n",
      "note_off channel=0 note=91 velocity=64 time=0\n",
      "note_on channel=0 note=63 velocity=67 time=1\n",
      "note_off channel=0 note=64 velocity=64 time=0\n",
      "note_off channel=0 note=66 velocity=64 time=0\n",
      "note_off channel=0 note=71 velocity=64 time=0\n",
      "note_on channel=0 note=82 velocity=30 time=0\n",
      "note_off channel=0 note=83 velocity=64 time=0\n",
      "note_on channel=0 note=44 velocity=73 time=1\n",
      "note_off channel=0 note=45 velocity=64 time=0\n",
      "note_on channel=0 note=53 velocity=64 time=0\n",
      "note_off channel=0 note=54 velocity=64 time=0\n",
      "note_on channel=0 note=72 velocity=35 time=0\n",
      "note_off channel=0 note=77 velocity=64 time=0\n",
      "note_on channel=0 note=83 velocity=31 time=0\n",
      "note_on channel=0 note=77 velocity=30 time=1\n",
      "note_off channel=0 note=82 velocity=64 time=0\n",
      "note_off channel=0 note=53 velocity=64 time=1\n",
      "note_on channel=0 note=62 velocity=34 time=0\n",
      "note_off channel=0 note=63 velocity=64 time=0\n",
      "note_on channel=0 note=68 velocity=15 time=0\n",
      "note_on channel=0 note=100 velocity=11 time=0\n",
      "note_on channel=0 note=64 velocity=43 time=1\n",
      "note_on channel=0 note=71 velocity=33 time=0\n",
      "note_off channel=0 note=72 velocity=64 time=0\n",
      "note_on channel=0 note=91 velocity=61 time=0\n",
      "note_off channel=0 note=44 velocity=64 time=1\n",
      "note_on channel=0 note=52 velocity=66 time=0\n",
      "note_off channel=0 note=62 velocity=64 time=0\n",
      "note_on channel=0 note=73 velocity=38 time=0\n",
      "note_off channel=0 note=68 velocity=64 time=1\n",
      "note_off channel=0 note=100 velocity=64 time=1\n",
      "note_on channel=0 note=43 velocity=56 time=1\n",
      "note_on channel=0 note=100 velocity=11 time=1\n",
      "note_on channel=0 note=102 velocity=31 time=0\n",
      "note_off channel=0 note=43 velocity=64 time=1\n",
      "note_off channel=0 note=64 velocity=64 time=0\n",
      "note_on channel=0 note=43 velocity=45 time=1\n",
      "note_on channel=0 note=61 velocity=50 time=0\n",
      "note_on channel=0 note=75 velocity=31 time=0\n",
      "note_off channel=0 note=77 velocity=64 time=0\n",
      "note_off channel=0 note=52 velocity=64 time=1\n",
      "note_on channel=0 note=88 velocity=15 time=0\n",
      "note_on channel=0 note=97 velocity=29 time=0\n",
      "note_on channel=0 note=15 velocity=34 time=1\n",
      "note_off channel=0 note=43 velocity=64 time=0\n",
      "note_on channel=0 note=52 velocity=63 time=0\n",
      "note_off channel=0 note=80 velocity=64 time=0\n",
      "note_off channel=0 note=93 velocity=64 time=0\n",
      "note_off channel=0 note=100 velocity=64 time=0\n",
      "note_off channel=0 note=61 velocity=64 time=1\n",
      "note_on channel=0 note=80 velocity=34 time=0\n",
      "note_on channel=0 note=96 velocity=19 time=0\n",
      "note_off channel=0 note=15 velocity=64 time=1\n",
      "note_off channel=0 note=75 velocity=64 time=0\n",
      "note_on channel=0 note=77 velocity=22 time=1\n",
      "note_off channel=0 note=90 velocity=64 time=0\n",
      "note_on channel=0 note=50 velocity=69 time=1\n",
      "note_off channel=0 note=52 velocity=64 time=0\n",
      "note_on channel=0 note=68 velocity=20 time=0\n",
      "note_on channel=0 note=100 velocity=36 time=0\n",
      "note_off channel=0 note=50 velocity=64 time=2\n",
      "note_on channel=0 note=52 velocity=66 time=0\n",
      "note_off channel=0 note=77 velocity=64 time=0\n",
      "note_on channel=0 note=93 velocity=15 time=0\n",
      "note_off channel=0 note=52 velocity=64 time=1\n",
      "note_on channel=0 note=53 velocity=70 time=0\n",
      "note_off channel=0 note=71 velocity=64 time=1\n",
      "note_off channel=0 note=53 velocity=64 time=1\n",
      "note_on channel=0 note=77 velocity=35 time=0\n",
      "note_off channel=0 note=68 velocity=64 time=1\n",
      "note_on channel=0 note=71 velocity=45 time=0\n",
      "note_on channel=0 note=90 velocity=17 time=0\n",
      "note_off channel=0 note=93 velocity=64 time=0\n",
      "note_off channel=0 note=96 velocity=64 time=0\n",
      "note_on channel=0 note=52 velocity=68 time=1\n",
      "note_on channel=0 note=65 velocity=48 time=0\n",
      "note_on channel=0 note=68 velocity=13 time=0\n",
      "note_off channel=0 note=88 velocity=64 time=0\n",
      "note_on channel=0 note=75 velocity=31 time=1\n",
      "note_off channel=0 note=73 velocity=64 time=1\n",
      "note_off channel=0 note=90 velocity=64 time=0\n",
      "note_off channel=0 note=52 velocity=64 time=1\n",
      "note_on channel=0 note=53 velocity=67 time=0\n",
      "note_on channel=0 note=64 velocity=69 time=0\n",
      "note_off channel=0 note=65 velocity=64 time=0\n",
      "note_off channel=0 note=68 velocity=64 time=0\n",
      "note_off channel=0 note=83 velocity=64 time=0\n",
      "note_on channel=0 note=84 velocity=17 time=0\n",
      "note_on channel=0 note=90 velocity=35 time=0\n",
      "note_on channel=0 note=96 velocity=22 time=0\n",
      "note_on channel=0 note=98 velocity=10 time=0\n",
      "note_off channel=0 note=100 velocity=64 time=0\n",
      "note_on channel=0 note=45 velocity=71 time=1\n",
      "note_on channel=0 note=67 velocity=58 time=0\n",
      "note_off channel=0 note=71 velocity=64 time=0\n",
      "note_on channel=0 note=72 velocity=43 time=0\n",
      "note_off channel=0 note=80 velocity=64 time=0\n",
      "note_on channel=0 note=81 velocity=34 time=0\n",
      "note_on channel=0 note=100 velocity=32 time=0\n",
      "note_on channel=0 note=63 velocity=69 time=1\n",
      "note_off channel=0 note=64 velocity=64 time=0\n",
      "note_off channel=0 note=77 velocity=64 time=0\n",
      "note_on channel=0 note=80 velocity=75 time=0\n",
      "note_on channel=0 note=83 velocity=49 time=0\n",
      "note_on channel=0 note=44 velocity=72 time=1\n",
      "note_off channel=0 note=45 velocity=64 time=0\n",
      "note_off channel=0 note=67 velocity=64 time=0\n",
      "note_off channel=0 note=72 velocity=64 time=1\n",
      "note_on channel=0 note=73 velocity=42 time=0\n",
      "note_on channel=0 note=77 velocity=24 time=0\n",
      "note_on channel=0 note=78 velocity=23 time=0\n",
      "note_off channel=0 note=84 velocity=64 time=0\n",
      "note_off channel=0 note=97 velocity=64 time=0\n",
      "note_off channel=0 note=53 velocity=64 time=1\n",
      "note_on channel=0 note=54 velocity=65 time=0\n",
      "note_off channel=0 note=63 velocity=64 time=0\n",
      "note_off channel=0 note=81 velocity=64 time=0\n",
      "note_off channel=0 note=90 velocity=64 time=0\n",
      "note_on channel=0 note=97 velocity=21 time=0\n",
      "note_on channel=0 note=88 velocity=17 time=1\n",
      "note_off channel=0 note=98 velocity=64 time=0\n",
      "note_off channel=0 note=44 velocity=64 time=1\n",
      "note_off channel=0 note=78 velocity=64 time=0\n",
      "note_on channel=0 note=98 velocity=11 time=0\n",
      "note_off channel=0 note=102 velocity=64 time=0\n",
      "note_off channel=0 note=54 velocity=64 time=1\n",
      "note_on channel=0 note=55 velocity=65 time=0\n",
      "note_on channel=0 note=67 velocity=66 time=0\n",
      "note_off channel=0 note=97 velocity=64 time=0\n",
      "note_off channel=0 note=100 velocity=64 time=0\n",
      "note_off channel=0 note=88 velocity=64 time=1\n",
      "note_off channel=0 note=96 velocity=64 time=0\n",
      "note_on channel=0 note=43 velocity=55 time=1\n",
      "note_on channel=0 note=61 velocity=48 time=0\n",
      "note_on channel=0 note=100 velocity=21 time=0\n",
      "note_off channel=0 note=55 velocity=64 time=2\n",
      "note_on channel=0 note=56 velocity=63 time=0\n",
      "note_on channel=0 note=65 velocity=37 time=0\n",
      "note_off channel=0 note=67 velocity=64 time=0\n",
      "note_on channel=0 note=68 velocity=69 time=0\n",
      "note_off channel=0 note=98 velocity=64 time=0\n",
      "note_on channel=0 note=42 velocity=48 time=1\n",
      "note_off channel=0 note=43 velocity=64 time=0\n",
      "note_off channel=0 note=73 velocity=64 time=1\n",
      "note_off channel=0 note=42 velocity=64 time=1\n",
      "note_on channel=0 note=48 velocity=53 time=0\n",
      "note_on channel=0 note=89 velocity=66 time=0\n",
      "note_on channel=0 note=47 velocity=67 time=2\n",
      "note_off channel=0 note=48 velocity=64 time=0\n",
      "note_off channel=0 note=47 velocity=64 time=2\n",
      "note_on channel=0 note=48 velocity=68 time=0\n",
      "note_on channel=0 note=55 velocity=65 time=0\n",
      "note_off channel=0 note=56 velocity=64 time=0\n",
      "note_on channel=0 note=87 velocity=50 time=0\n",
      "note_on channel=0 note=90 velocity=18 time=0\n",
      "note_off channel=0 note=55 velocity=64 time=1\n",
      "note_off channel=0 note=75 velocity=64 time=0\n",
      "note_on channel=0 note=17 velocity=35 time=1\n",
      "note_off channel=0 note=48 velocity=64 time=0\n",
      "note_on channel=0 note=52 velocity=68 time=0\n",
      "note_on channel=0 note=75 velocity=22 time=0\n",
      "note_off channel=0 note=52 velocity=64 time=1\n",
      "note_on channel=0 note=55 velocity=74 time=0\n",
      "note_off channel=0 note=17 velocity=64 time=1\n",
      "note_off channel=0 note=55 velocity=64 time=0\n",
      "note_on channel=0 note=56 velocity=63 time=0\n",
      "note_off channel=0 note=90 velocity=64 time=0\n",
      "note_off channel=0 note=65 velocity=64 time=1\n",
      "note_off channel=0 note=61 velocity=64 time=1\n",
      "note_off channel=0 note=100 velocity=64 time=0\n",
      "note_off channel=0 note=56 velocity=64 time=1\n",
      "note_off channel=0 note=101 velocity=64 time=0\n",
      "note_on channel=0 note=56 velocity=58 time=1\n",
      "note_off channel=0 note=75 velocity=64 time=0\n",
      "note_on channel=0 note=93 velocity=18 time=0\n",
      "note_on channel=0 note=75 velocity=44 time=2\n",
      "note_off channel=0 note=56 velocity=64 time=1\n",
      "note_off channel=0 note=77 velocity=64 time=0\n",
      "note_on channel=0 note=85 velocity=38 time=0\n",
      "note_on channel=0 note=48 velocity=81 time=1\n",
      "note_on channel=0 note=56 velocity=56 time=0\n",
      "note_on channel=0 note=63 velocity=41 time=1\n",
      "note_on channel=0 note=77 velocity=23 time=0\n",
      "note_on channel=0 note=73 velocity=25 time=1\n",
      "note_on channel=0 note=46 velocity=59 time=1\n",
      "note_off channel=0 note=48 velocity=64 time=0\n",
      "note_on channel=0 note=62 velocity=22 time=0\n",
      "note_off channel=0 note=63 velocity=64 time=0\n",
      "note_on channel=0 note=84 velocity=18 time=1\n",
      "note_off channel=0 note=46 velocity=64 time=1\n",
      "note_off channel=0 note=62 velocity=64 time=1\n",
      "note_on channel=0 note=71 velocity=38 time=0\n",
      "note_off channel=0 note=75 velocity=64 time=0\n",
      "note_on channel=0 note=75 velocity=26 time=2\n",
      "note_on channel=0 note=61 velocity=50 time=1\n",
      "note_on channel=0 note=44 velocity=46 time=1\n",
      "note_on channel=0 note=65 velocity=11 time=0\n",
      "note_off channel=0 note=84 velocity=64 time=1\n",
      "note_off channel=0 note=93 velocity=64 time=0\n",
      "note_off channel=0 note=44 velocity=64 time=1\n",
      "note_on channel=0 note=102 velocity=25 time=0\n",
      "note_off channel=0 note=56 velocity=64 time=1\n",
      "note_on channel=0 note=56 velocity=40 time=1\n",
      "note_off channel=0 note=89 velocity=64 time=1\n",
      "note_off channel=0 note=56 velocity=64 time=1\n",
      "note_off channel=0 note=65 velocity=64 time=0\n",
      "note_on channel=0 note=65 velocity=11 time=1\n",
      "note_off channel=0 note=102 velocity=64 time=0\n",
      "note_off channel=0 note=68 velocity=64 time=1\n",
      "note_off channel=0 note=85 velocity=64 time=0\n",
      "note_on channel=0 note=56 velocity=43 time=1\n",
      "note_off channel=0 note=75 velocity=64 time=0\n",
      "note_off channel=0 note=56 velocity=64 time=2\n",
      "note_on channel=0 note=68 velocity=27 time=0\n",
      "note_on channel=0 note=55 velocity=36 time=3\n",
      "note_off channel=0 note=55 velocity=64 time=2\n",
      "note_off channel=0 note=73 velocity=64 time=0\n",
      "note_on channel=0 note=89 velocity=62 time=1\n",
      "note_off channel=0 note=65 velocity=64 time=1\n",
      "note_on channel=0 note=66 velocity=38 time=0\n",
      "note_on channel=0 note=76 velocity=38 time=0\n",
      "note_off channel=0 note=77 velocity=64 time=0\n",
      "note_off channel=0 note=80 velocity=64 time=0\n",
      "note_on channel=0 note=85 velocity=30 time=0\n",
      "note_on channel=0 note=93 velocity=14 time=0\n",
      "note_off channel=0 note=68 velocity=64 time=1\n",
      "note_on channel=0 note=69 velocity=40 time=0\n",
      "note_on channel=0 note=77 velocity=33 time=0\n",
      "note_on channel=0 note=80 velocity=71 time=0\n",
      "note_on channel=0 note=84 velocity=36 time=0\n",
      "note_on channel=0 note=45 velocity=69 time=1\n",
      "note_off channel=0 note=66 velocity=64 time=0\n",
      "note_on channel=0 note=67 velocity=39 time=0\n",
      "note_on channel=0 note=75 velocity=31 time=0\n",
      "note_off channel=0 note=76 velocity=64 time=0\n",
      "note_on channel=0 note=44 velocity=71 time=1\n",
      "note_off channel=0 note=45 velocity=64 time=0\n",
      "note_off channel=0 note=93 velocity=64 time=0\n",
      "note_off channel=0 note=69 velocity=64 time=1\n",
      "note_off channel=0 note=75 velocity=64 time=0\n",
      "note_off channel=0 note=77 velocity=64 time=1\n",
      "note_off channel=0 note=84 velocity=64 time=0\n",
      "note_on channel=0 note=43 velocity=67 time=1\n",
      "note_off channel=0 note=44 velocity=64 time=0\n",
      "note_off channel=0 note=61 velocity=64 time=0\n",
      "note_off channel=0 note=87 velocity=64 time=0\n",
      "note_off channel=0 note=67 velocity=64 time=1\n",
      "note_on channel=0 note=73 velocity=16 time=0\n",
      "note_on channel=0 note=61 velocity=20 time=1\n",
      "note_on channel=0 note=75 velocity=27 time=1\n",
      "note_off channel=0 note=83 velocity=64 time=1\n",
      "note_off channel=0 note=89 velocity=64 time=0\n",
      "note_off channel=0 note=43 velocity=64 time=3\n",
      "note_on channel=0 note=83 velocity=40 time=0\n",
      "note_on channel=0 note=49 velocity=22 time=1\n",
      "note_off channel=0 note=85 velocity=64 time=0\n",
      "note_on channel=0 note=68 velocity=9 time=4\n",
      "note_on channel=0 note=85 velocity=20 time=0\n",
      "note_on channel=0 note=89 velocity=14 time=0\n",
      "note_off channel=0 note=49 velocity=64 time=2\n",
      "note_off channel=0 note=73 velocity=64 time=0\n",
      "note_off channel=0 note=61 velocity=64 time=3\n",
      "note_on channel=0 note=87 velocity=34 time=0\n",
      "note_on channel=0 note=88 velocity=16 time=1\n",
      "note_off channel=0 note=89 velocity=64 time=0\n",
      "note_off channel=0 note=68 velocity=64 time=1\n",
      "note_on channel=0 note=84 velocity=39 time=0\n",
      "note_on channel=0 note=65 velocity=16 time=1\n",
      "note_on channel=0 note=70 velocity=30 time=0\n",
      "note_off channel=0 note=71 velocity=64 time=0\n",
      "note_on channel=0 note=73 velocity=41 time=0\n",
      "note_on channel=0 note=77 velocity=37 time=0\n",
      "note_off channel=0 note=85 velocity=64 time=0\n",
      "note_on channel=0 note=90 velocity=42 time=0\n",
      "note_on channel=0 note=51 velocity=64 time=2\n",
      "note_on channel=0 note=62 velocity=81 time=1\n",
      "note_off channel=0 note=65 velocity=64 time=0\n",
      "note_on channel=0 note=69 velocity=48 time=0\n",
      "note_off channel=0 note=70 velocity=64 time=0\n",
      "note_on channel=0 note=71 velocity=57 time=0\n",
      "note_on channel=0 note=78 velocity=29 time=0\n",
      "note_on channel=0 note=82 velocity=53 time=0\n",
      "note_on channel=0 note=89 velocity=48 time=0\n",
      "note_on channel=0 note=49 velocity=68 time=1\n",
      "note_off channel=0 note=51 velocity=64 time=0\n",
      "note_off channel=0 note=75 velocity=64 time=0\n",
      "note_off channel=0 note=83 velocity=64 time=0\n",
      "note_off channel=0 note=88 velocity=64 time=0\n",
      "note_off channel=0 note=62 velocity=64 time=1\n",
      "note_on channel=0 note=63 velocity=90 time=0\n",
      "note_off channel=0 note=69 velocity=64 time=0\n",
      "note_off channel=0 note=73 velocity=64 time=0\n",
      "note_off channel=0 note=78 velocity=64 time=0\n",
      "note_off channel=0 note=82 velocity=64 time=0\n",
      "note_off channel=0 note=84 velocity=64 time=0\n",
      "note_off channel=0 note=49 velocity=64 time=1\n",
      "note_on channel=0 note=50 velocity=80 time=0\n",
      "note_off channel=0 note=71 velocity=64 time=0\n",
      "note_on channel=0 note=72 velocity=43 time=0\n",
      "note_on channel=0 note=78 velocity=39 time=0\n",
      "note_on channel=0 note=82 velocity=45 time=0\n",
      "note_on channel=0 note=99 velocity=45 time=0\n",
      "note_on channel=0 note=100 velocity=48 time=0\n",
      "note_on channel=0 note=70 velocity=54 time=1\n",
      "note_off channel=0 note=77 velocity=64 time=0\n",
      "note_off channel=0 note=90 velocity=64 time=0\n",
      "note_on channel=0 note=94 velocity=46 time=0\n",
      "note_on channel=0 note=102 velocity=35 time=0\n",
      "note_off channel=0 note=72 velocity=64 time=1\n",
      "note_on channel=0 note=73 velocity=23 time=0\n",
      "note_on channel=0 note=77 velocity=35 time=0\n",
      "note_off channel=0 note=78 velocity=64 time=0\n",
      "note_on channel=0 note=85 velocity=39 time=0\n",
      "note_on channel=0 note=98 velocity=34 time=0\n",
      "note_on channel=0 note=101 velocity=49 time=0\n",
      "note_off channel=0 note=50 velocity=64 time=1\n",
      "note_on channel=0 note=84 velocity=21 time=0\n",
      "note_on channel=0 note=88 velocity=29 time=0\n",
      "note_on channel=0 note=93 velocity=71 time=0\n",
      "note_on channel=0 note=96 velocity=55 time=0\n",
      "note_on channel=0 note=52 velocity=58 time=1\n",
      "note_off channel=0 note=70 velocity=64 time=0\n",
      "note_on channel=0 note=79 velocity=26 time=0\n",
      "note_off channel=0 note=80 velocity=64 time=0\n",
      "note_off channel=0 note=85 velocity=64 time=0\n",
      "note_on channel=0 note=86 velocity=32 time=0\n",
      "note_on channel=0 note=70 velocity=60 time=1\n",
      "note_off channel=0 note=94 velocity=64 time=0\n",
      "note_on channel=0 note=95 velocity=60 time=0\n",
      "note_off channel=0 note=99 velocity=64 time=0\n",
      "note_on channel=0 note=51 velocity=61 time=1\n",
      "note_off channel=0 note=52 velocity=64 time=0\n",
      "note_on channel=0 note=85 velocity=37 time=0\n",
      "note_off channel=0 note=86 velocity=64 time=0\n",
      "note_off channel=0 note=87 velocity=64 time=0\n",
      "note_off channel=0 note=89 velocity=64 time=0\n",
      "note_on channel=0 note=90 velocity=13 time=0\n",
      "note_off channel=0 note=79 velocity=64 time=1\n",
      "note_off channel=0 note=51 velocity=64 time=1\n",
      "note_on channel=0 note=52 velocity=63 time=0\n",
      "note_off channel=0 note=85 velocity=64 time=0\n",
      "note_on channel=0 note=86 velocity=22 time=0\n",
      "note_on channel=0 note=87 velocity=68 time=1\n",
      "note_off channel=0 note=91 velocity=64 time=0\n",
      "note_on channel=0 note=79 velocity=16 time=1\n",
      "note_on channel=0 note=51 velocity=63 time=1\n",
      "note_off channel=0 note=52 velocity=64 time=0\n",
      "note_off channel=0 note=86 velocity=64 time=0\n",
      "note_off channel=0 note=95 velocity=64 time=0\n",
      "note_off channel=0 note=100 velocity=64 time=0\n",
      "note_off channel=0 note=90 velocity=64 time=1\n",
      "note_off channel=0 note=51 velocity=64 time=1\n",
      "note_on channel=0 note=52 velocity=61 time=0\n",
      "note_off channel=0 note=70 velocity=64 time=0\n",
      "note_on channel=0 note=71 velocity=55 time=0\n",
      "note_off channel=0 note=73 velocity=64 time=0\n",
      "note_on channel=0 note=86 velocity=24 time=0\n",
      "note_off channel=0 note=93 velocity=64 time=1\n",
      "note_off channel=0 note=52 velocity=64 time=1\n",
      "note_off channel=0 note=79 velocity=64 time=0\n",
      "note_on channel=0 note=80 velocity=33 time=0\n",
      "note_off channel=0 note=98 velocity=64 time=0\n",
      "note_on channel=0 note=103 velocity=9 time=0\n",
      "note_on channel=0 note=52 velocity=79 time=1\n",
      "note_on channel=0 note=68 velocity=21 time=0\n",
      "note_off channel=0 note=82 velocity=64 time=1\n",
      "note_off channel=0 note=96 velocity=64 time=1\n",
      "note_off channel=0 note=101 velocity=64 time=0\n",
      "note_off channel=0 note=103 velocity=64 time=0\n",
      "note_off channel=0 note=102 velocity=64 time=2\n",
      "note_off channel=0 note=86 velocity=64 time=4\n",
      "note_off channel=0 note=52 velocity=64 time=1\n",
      "note_on channel=0 note=53 velocity=80 time=0\n",
      "note_off channel=0 note=68 velocity=64 time=0\n",
      "note_on channel=0 note=102 velocity=30 time=0\n",
      "note_off channel=0 note=53 velocity=64 time=1\n",
      "note_on channel=0 note=54 velocity=74 time=0\n",
      "note_on channel=0 note=74 velocity=34 time=0\n",
      "note_off channel=0 note=84 velocity=64 time=0\n",
      "note_on channel=0 note=96 velocity=41 time=0\n",
      "note_on channel=0 note=100 velocity=51 time=0\n",
      "note_on channel=0 note=101 velocity=46 time=0\n",
      "note_on channel=0 note=103 velocity=12 time=0\n",
      "note_off channel=0 note=54 velocity=64 time=1\n",
      "note_on channel=0 note=55 velocity=72 time=0\n",
      "note_on channel=0 note=67 velocity=81 time=0\n",
      "note_on channel=0 note=84 velocity=61 time=0\n",
      "note_on channel=0 note=89 velocity=73 time=0\n",
      "note_on channel=0 note=93 velocity=64 time=0\n",
      "note_on channel=0 note=95 velocity=58 time=0\n",
      "note_on channel=0 note=98 velocity=20 time=0\n",
      "note_on channel=0 note=62 velocity=69 time=1\n",
      "note_off channel=0 note=63 velocity=64 time=0\n",
      "note_off channel=0 note=74 velocity=64 time=0\n",
      "note_on channel=0 note=75 velocity=77 time=0\n",
      "note_off channel=0 note=88 velocity=64 time=0\n",
      "note_on channel=0 note=90 velocity=31 time=0\n",
      "note_off channel=0 note=80 velocity=64 time=1\n",
      "note_on channel=0 note=82 velocity=35 time=0\n",
      "note_on channel=0 note=92 velocity=68 time=0\n",
      "note_on channel=0 note=97 velocity=28 time=0\n",
      "note_off channel=0 note=103 velocity=64 time=0\n",
      "note_off channel=0 note=55 velocity=64 time=1\n",
      "note_on channel=0 note=56 velocity=68 time=0\n",
      "note_off channel=0 note=62 velocity=64 time=0\n",
      "note_on channel=0 note=63 velocity=79 time=0\n",
      "note_off channel=0 note=67 velocity=64 time=0\n",
      "note_on channel=0 note=68 velocity=78 time=0\n",
      "note_on channel=0 note=88 velocity=31 time=0\n",
      "note_off channel=0 note=90 velocity=64 time=0\n",
      "note_off channel=0 note=96 velocity=64 time=0\n",
      "note_off channel=0 note=98 velocity=64 time=0\n",
      "note_off channel=0 note=102 velocity=64 time=0\n",
      "note_on channel=0 note=103 velocity=26 time=0\n",
      "note_on channel=0 note=94 velocity=49 time=1\n",
      "note_off channel=0 note=77 velocity=64 time=1\n",
      "note_off channel=0 note=88 velocity=64 time=0\n",
      "note_off channel=0 note=93 velocity=64 time=0\n",
      "note_off channel=0 note=97 velocity=64 time=0\n",
      "note_on channel=0 note=83 velocity=70 time=1\n",
      "note_off channel=0 note=84 velocity=64 time=0\n",
      "note_on channel=0 note=97 velocity=22 time=0\n",
      "note_on channel=0 note=102 velocity=19 time=0\n",
      "note_off channel=0 note=103 velocity=64 time=0\n",
      "note_on channel=0 note=55 velocity=68 time=1\n",
      "note_off channel=0 note=56 velocity=64 time=0\n",
      "note_on channel=0 note=78 velocity=15 time=1\n",
      "note_on channel=0 note=88 velocity=40 time=0\n",
      "note_off channel=0 note=55 velocity=64 time=1\n",
      "note_on channel=0 note=56 velocity=70 time=0\n",
      "note_off channel=0 note=83 velocity=64 time=2\n",
      "note_on channel=0 note=84 velocity=69 time=0\n",
      "note_off channel=0 note=102 velocity=64 time=0\n",
      "note_off channel=0 note=78 velocity=64 time=1\n",
      "note_off channel=0 note=82 velocity=64 time=0\n",
      "note_off channel=0 note=95 velocity=64 time=0\n",
      "note_on channel=0 note=82 velocity=31 time=1\n",
      "note_on channel=0 note=83 velocity=67 time=0\n",
      "note_off channel=0 note=84 velocity=64 time=0\n",
      "note_on channel=0 note=77 velocity=23 time=2\n",
      "note_on channel=0 note=86 velocity=22 time=0\n",
      "note_off channel=0 note=88 velocity=64 time=0\n",
      "note_off channel=0 note=83 velocity=64 time=1\n",
      "note_on channel=0 note=84 velocity=64 time=0\n",
      "note_on channel=0 note=88 velocity=34 time=0\n",
      "note_off channel=0 note=97 velocity=64 time=0\n",
      "note_off channel=0 note=101 velocity=64 time=0\n",
      "note_on channel=0 note=78 velocity=19 time=2\n",
      "note_off channel=0 note=88 velocity=64 time=0\n",
      "note_off channel=0 note=100 velocity=64 time=0\n",
      "note_on channel=0 note=55 velocity=68 time=1\n",
      "note_off channel=0 note=56 velocity=64 time=0\n",
      "note_off channel=0 note=77 velocity=64 time=0\n",
      "note_off channel=0 note=82 velocity=64 time=0\n",
      "note_on channel=0 note=90 velocity=31 time=0\n",
      "note_on channel=0 note=91 velocity=34 time=0\n",
      "note_off channel=0 note=92 velocity=64 time=0\n",
      "note_off channel=0 note=94 velocity=64 time=0\n",
      "note_on channel=0 note=82 velocity=32 time=2\n",
      "note_off channel=0 note=84 velocity=64 time=0\n",
      "note_off channel=0 note=86 velocity=64 time=0\n",
      "note_off channel=0 note=55 velocity=64 time=1\n",
      "note_on channel=0 note=56 velocity=41 time=0\n",
      "note_on channel=0 note=84 velocity=29 time=0\n",
      "note_on channel=0 note=86 velocity=28 time=0\n",
      "note_off channel=0 note=82 velocity=64 time=1\n",
      "note_off channel=0 note=68 velocity=64 time=2\n",
      "note_on channel=0 note=68 velocity=64 time=1\n",
      "note_off channel=0 note=87 velocity=64 time=0\n",
      "note_off channel=0 note=56 velocity=64 time=1\n",
      "note_off channel=0 note=75 velocity=64 time=0\n",
      "note_off channel=0 note=78 velocity=64 time=0\n",
      "note_on channel=0 note=80 velocity=85 time=0\n",
      "note_off channel=0 note=84 velocity=64 time=0\n",
      "note_on channel=0 note=87 velocity=54 time=0\n",
      "note_on channel=0 note=95 velocity=47 time=0\n",
      "note_on channel=0 note=75 velocity=80 time=1\n",
      "note_on channel=0 note=88 velocity=50 time=0\n",
      "note_off channel=0 note=89 velocity=64 time=0\n",
      "note_on channel=0 note=84 velocity=71 time=1\n",
      "note_on channel=0 note=85 velocity=35 time=0\n",
      "note_off channel=0 note=86 velocity=64 time=0\n",
      "note_on channel=0 note=89 velocity=69 time=0\n",
      "note_on channel=0 note=102 velocity=43 time=0\n",
      "note_on channel=0 note=56 velocity=66 time=1\n",
      "note_on channel=0 note=73 velocity=33 time=0\n",
      "note_on channel=0 note=94 velocity=40 time=0\n",
      "note_off channel=0 note=71 velocity=64 time=1\n",
      "note_off channel=0 note=88 velocity=64 time=0\n",
      "note_off channel=0 note=90 velocity=64 time=0\n",
      "note_on channel=0 note=77 velocity=26 time=1\n",
      "note_on channel=0 note=82 velocity=18 time=0\n",
      "note_on channel=0 note=90 velocity=81 time=0\n",
      "note_on channel=0 note=100 velocity=26 time=0\n",
      "note_off channel=0 note=63 velocity=64 time=2\n",
      "note_on channel=0 note=83 velocity=24 time=0\n",
      "note_off channel=0 note=89 velocity=64 time=0\n",
      "note_on channel=0 note=65 velocity=43 time=1\n",
      "note_off channel=0 note=82 velocity=64 time=0\n",
      "note_on channel=0 note=89 velocity=37 time=0\n",
      "note_on channel=0 note=98 velocity=22 time=0\n",
      "note_on channel=0 note=61 velocity=24 time=1\n",
      "note_off channel=0 note=100 velocity=64 time=0\n",
      "note_on channel=0 note=93 velocity=76 time=1\n",
      "note_on channel=0 note=100 velocity=34 time=0\n",
      "note_on channel=0 note=71 velocity=12 time=1\n",
      "note_off channel=0 note=95 velocity=64 time=2\n",
      "note_off channel=0 note=85 velocity=64 time=2\n",
      "note_on channel=0 note=82 velocity=31 time=1\n",
      "note_on channel=0 note=88 velocity=25 time=0\n",
      "note_off channel=0 note=89 velocity=64 time=0\n",
      "note_off channel=0 note=83 velocity=64 time=1\n",
      "note_off channel=0 note=91 velocity=64 time=1\n",
      "note_on channel=0 note=91 velocity=28 time=1\n",
      "note_off channel=0 note=65 velocity=64 time=1\n",
      "note_on channel=0 note=67 velocity=58 time=1\n",
      "note_off channel=0 note=68 velocity=64 time=0\n",
      "note_off channel=0 note=71 velocity=64 time=0\n",
      "note_off channel=0 note=77 velocity=64 time=0\n",
      "note_off channel=0 note=98 velocity=64 time=0\n",
      "note_on channel=0 note=54 velocity=50 time=1\n",
      "note_off channel=0 note=56 velocity=64 time=0\n",
      "note_off channel=0 note=73 velocity=64 time=0\n",
      "note_on channel=0 note=85 velocity=30 time=0\n",
      "note_off channel=0 note=102 velocity=64 time=0\n",
      "note_on channel=0 note=65 velocity=33 time=1\n",
      "note_on channel=0 note=86 velocity=29 time=0\n",
      "note_off channel=0 note=91 velocity=64 time=0\n",
      "note_off channel=0 note=100 velocity=64 time=0\n",
      "note_off channel=0 note=54 velocity=64 time=1\n",
      "note_off channel=0 note=67 velocity=64 time=0\n",
      "note_on channel=0 note=68 velocity=24 time=0\n",
      "note_off channel=0 note=85 velocity=64 time=0\n",
      "note_on channel=0 note=91 velocity=30 time=0\n",
      "note_on channel=0 note=56 velocity=41 time=1\n",
      "note_off channel=0 note=86 velocity=64 time=0\n",
      "note_off channel=0 note=88 velocity=64 time=0\n",
      "note_on channel=0 note=89 velocity=43 time=0\n",
      "note_on channel=0 note=86 velocity=30 time=1\n",
      "note_off channel=0 note=94 velocity=64 time=0\n",
      "note_off channel=0 note=87 velocity=64 time=1\n",
      "note_on channel=0 note=85 velocity=51 time=1\n",
      "note_off channel=0 note=61 velocity=64 time=1\n",
      "note_on channel=0 note=70 velocity=64 time=0\n",
      "note_off channel=0 note=75 velocity=64 time=0\n",
      "note_off channel=0 note=56 velocity=64 time=1\n",
      "note_off channel=0 note=65 velocity=64 time=0\n",
      "note_off channel=0 note=68 velocity=64 time=0\n",
      "note_on channel=0 note=76 velocity=74 time=0\n",
      "note_off channel=0 note=86 velocity=64 time=0\n",
      "note_on channel=0 note=57 velocity=71 time=1\n",
      "note_on channel=0 note=72 velocity=41 time=0\n",
      "note_off channel=0 note=80 velocity=64 time=0\n",
      "note_on channel=0 note=81 velocity=46 time=0\n",
      "note_off channel=0 note=82 velocity=64 time=0\n",
      "note_on channel=0 note=83 velocity=30 time=0\n",
      "note_off channel=0 note=91 velocity=64 time=0\n",
      "note_on channel=0 note=100 velocity=33 time=0\n",
      "note_on channel=0 note=101 velocity=61 time=0\n",
      "note_on channel=0 note=61 velocity=67 time=1\n",
      "note_off channel=0 note=70 velocity=64 time=0\n",
      "note_on channel=0 note=80 velocity=50 time=0\n",
      "note_on channel=0 note=91 velocity=81 time=0\n",
      "note_on channel=0 note=98 velocity=19 time=0\n",
      "note_on channel=0 note=49 velocity=43 time=1\n",
      "note_off channel=0 note=72 velocity=64 time=0\n",
      "note_off channel=0 note=81 velocity=64 time=0\n",
      "note_on channel=0 note=82 velocity=37 time=0\n",
      "note_off channel=0 note=83 velocity=64 time=0\n",
      "note_on channel=0 note=83 velocity=30 time=1\n",
      "note_on channel=0 note=87 velocity=18 time=0\n",
      "note_off channel=0 note=61 velocity=64 time=1\n",
      "note_on channel=0 note=62 velocity=56 time=0\n",
      "note_off channel=0 note=82 velocity=64 time=0\n",
      "note_off channel=0 note=84 velocity=64 time=0\n",
      "note_off channel=0 note=49 velocity=64 time=1\n",
      "note_on channel=0 note=84 velocity=26 time=0\n",
      "note_off channel=0 note=62 velocity=64 time=1\n",
      "note_on channel=0 note=82 velocity=31 time=0\n",
      "note_off channel=0 note=80 velocity=64 time=1\n",
      "note_off channel=0 note=83 velocity=64 time=0\n",
      "note_off channel=0 note=91 velocity=64 time=0\n",
      "note_on channel=0 note=83 velocity=57 time=1\n",
      "note_off channel=0 note=87 velocity=64 time=0\n",
      "note_on channel=0 note=92 velocity=12 time=0\n",
      "note_off channel=0 note=82 velocity=64 time=1\n",
      "note_off channel=0 note=84 velocity=64 time=0\n",
      "note_off channel=0 note=92 velocity=64 time=2\n",
      "note_on channel=0 note=71 velocity=34 time=2\n",
      "note_on channel=0 note=82 velocity=43 time=0\n",
      "note_on channel=0 note=91 velocity=15 time=0\n",
      "note_off channel=0 note=100 velocity=64 time=1\n",
      "note_on channel=0 note=78 velocity=16 time=1\n",
      "note_on channel=0 note=80 velocity=44 time=0\n",
      "note_on channel=0 note=61 velocity=34 time=1\n",
      "note_off channel=0 note=82 velocity=64 time=0\n",
      "note_on channel=0 note=84 velocity=34 time=0\n",
      "note_off channel=0 note=85 velocity=64 time=1\n",
      "note_off channel=0 note=61 velocity=64 time=1\n",
      "note_off channel=0 note=71 velocity=64 time=0\n",
      "note_off channel=0 note=78 velocity=64 time=0\n",
      "note_off channel=0 note=91 velocity=64 time=0\n",
      "note_on channel=0 note=71 velocity=22 time=1\n",
      "note_off channel=0 note=80 velocity=64 time=0\n",
      "note_on channel=0 note=85 velocity=16 time=0\n",
      "note_off channel=0 note=89 velocity=64 time=0\n",
      "note_on channel=0 note=87 velocity=33 time=2\n",
      "note_off channel=0 note=71 velocity=64 time=1\n",
      "note_on channel=0 note=71 velocity=30 time=1\n",
      "note_off channel=0 note=84 velocity=64 time=0\n",
      "note_on channel=0 note=86 velocity=15 time=0\n",
      "note_on channel=0 note=68 velocity=63 time=1\n",
      "note_off channel=0 note=85 velocity=64 time=0\n",
      "note_on channel=0 note=91 velocity=30 time=0\n",
      "note_on channel=0 note=56 velocity=65 time=1\n",
      "note_off channel=0 note=57 velocity=64 time=0\n",
      "note_off channel=0 note=98 velocity=64 time=0\n",
      "note_on channel=0 note=67 velocity=64 time=1\n",
      "note_off channel=0 note=68 velocity=64 time=0\n",
      "note_on channel=0 note=80 velocity=51 time=0\n",
      "note_on channel=0 note=92 velocity=74 time=0\n",
      "note_on channel=0 note=55 velocity=59 time=1\n",
      "note_off channel=0 note=56 velocity=64 time=0\n",
      "note_on channel=0 note=82 velocity=27 time=0\n",
      "note_off channel=0 note=86 velocity=64 time=0\n",
      "note_on channel=0 note=65 velocity=34 time=1\n",
      "note_off channel=0 note=67 velocity=64 time=0\n",
      "note_on channel=0 note=68 velocity=68 time=0\n",
      "note_on channel=0 note=84 velocity=49 time=0\n",
      "note_on channel=0 note=94 velocity=27 time=0\n",
      "note_off channel=0 note=55 velocity=64 time=1\n",
      "note_on channel=0 note=56 velocity=66 time=0\n",
      "note_on channel=0 note=75 velocity=63 time=0\n",
      "note_off channel=0 note=76 velocity=64 time=0\n",
      "note_on channel=0 note=77 velocity=36 time=0\n",
      "note_off channel=0 note=83 velocity=64 time=0\n",
      "note_on channel=0 note=85 velocity=14 time=0\n",
      "note_on channel=0 note=64 velocity=69 time=1\n",
      "note_off channel=0 note=65 velocity=64 time=0\n",
      "note_off channel=0 note=71 velocity=64 time=0\n",
      "note_off channel=0 note=101 velocity=64 time=0\n",
      "note_on channel=0 note=45 velocity=71 time=1\n",
      "note_on channel=0 note=71 velocity=36 time=0\n",
      "note_on channel=0 note=63 velocity=62 time=1\n",
      "note_off channel=0 note=64 velocity=64 time=0\n",
      "note_on channel=0 note=73 velocity=29 time=0\n",
      "note_on channel=0 note=44 velocity=73 time=1\n",
      "note_off channel=0 note=45 velocity=64 time=0\n",
      "note_off channel=0 note=85 velocity=64 time=0\n",
      "note_off channel=0 note=91 velocity=64 time=1\n",
      "note_on channel=0 note=101 velocity=33 time=0\n",
      "note_off channel=0 note=63 velocity=64 time=1\n",
      "note_off channel=0 note=68 velocity=64 time=0\n",
      "note_on channel=0 note=91 velocity=30 time=0\n",
      "note_on channel=0 note=61 velocity=50 time=1\n",
      "note_off channel=0 note=87 velocity=64 time=0\n",
      "note_off channel=0 note=94 velocity=64 time=0\n",
      "note_off channel=0 note=44 velocity=64 time=1\n",
      "note_off channel=0 note=91 velocity=64 time=0\n",
      "note_off channel=0 note=101 velocity=64 time=0\n",
      "note_off channel=0 note=73 velocity=64 time=1\n",
      "note_off channel=0 note=82 velocity=64 time=0\n",
      "note_on channel=0 note=83 velocity=48 time=0\n",
      "note_on channel=0 note=55 velocity=64 time=1\n",
      "note_off channel=0 note=56 velocity=64 time=0\n",
      "note_on channel=0 note=67 velocity=65 time=0\n",
      "note_off channel=0 note=80 velocity=64 time=0\n",
      "note_on channel=0 note=89 velocity=39 time=0\n",
      "note_on channel=0 note=91 velocity=38 time=0\n",
      "note_on channel=0 note=74 velocity=66 time=1\n",
      "note_off channel=0 note=75 velocity=64 time=0\n",
      "note_on channel=0 note=54 velocity=78 time=1\n",
      "note_off channel=0 note=55 velocity=64 time=0\n",
      "note_on channel=0 note=73 velocity=68 time=0\n",
      "note_off channel=0 note=74 velocity=64 time=0\n",
      "note_on channel=0 note=78 velocity=32 time=0\n",
      "note_on channel=0 note=82 velocity=51 time=0\n",
      "note_off channel=0 note=83 velocity=64 time=0\n",
      "note_off channel=0 note=84 velocity=64 time=0\n",
      "note_on channel=0 note=88 velocity=36 time=0\n",
      "note_off channel=0 note=89 velocity=64 time=0\n",
      "note_on channel=0 note=42 velocity=48 time=1\n",
      "note_off channel=0 note=67 velocity=64 time=0\n",
      "note_on channel=0 note=80 velocity=25 time=0\n",
      "note_off channel=0 note=77 velocity=64 time=1\n",
      "note_off channel=0 note=91 velocity=64 time=0\n",
      "note_off channel=0 note=42 velocity=64 time=1\n",
      "note_on channel=0 note=89 velocity=44 time=0\n",
      "note_off channel=0 note=90 velocity=64 time=0\n",
      "note_on channel=0 note=48 velocity=67 time=1\n",
      "note_off channel=0 note=71 velocity=64 time=0\n",
      "note_on channel=0 note=75 velocity=10 time=0\n",
      "note_on channel=0 note=84 velocity=30 time=0\n",
      "note_on channel=0 note=90 velocity=55 time=0\n",
      "note_on channel=0 note=77 velocity=27 time=1\n",
      "note_off channel=0 note=89 velocity=64 time=0\n",
      "note_off channel=0 note=75 velocity=64 time=2\n",
      "note_on channel=0 note=87 velocity=23 time=0\n",
      "note_off channel=0 note=92 velocity=64 time=0\n",
      "note_off channel=0 note=48 velocity=64 time=1\n",
      "note_on channel=0 note=53 velocity=68 time=0\n",
      "note_off channel=0 note=54 velocity=64 time=0\n",
      "note_on channel=0 note=67 velocity=38 time=0\n",
      "note_off channel=0 note=78 velocity=64 time=0\n",
      "note_off channel=0 note=80 velocity=64 time=0\n",
      "note_off channel=0 note=82 velocity=64 time=0\n",
      "note_on channel=0 note=83 velocity=51 time=0\n",
      "note_on channel=0 note=49 velocity=66 time=1\n",
      "note_off channel=0 note=53 velocity=64 time=0\n",
      "note_on channel=0 note=54 velocity=67 time=0\n",
      "note_on channel=0 note=64 velocity=46 time=0\n",
      "note_off channel=0 note=49 velocity=64 time=1\n",
      "note_on channel=0 note=50 velocity=71 time=0\n",
      "note_off channel=0 note=54 velocity=64 time=0\n",
      "note_off channel=0 note=61 velocity=64 time=0\n",
      "note_off channel=0 note=67 velocity=64 time=0\n",
      "note_on channel=0 note=68 velocity=19 time=0\n",
      "note_off channel=0 note=84 velocity=64 time=0\n",
      "note_off channel=0 note=50 velocity=64 time=1\n",
      "note_on channel=0 note=51 velocity=66 time=0\n",
      "note_on channel=0 note=79 velocity=36 time=0\n",
      "note_off channel=0 note=51 velocity=64 time=1\n",
      "note_on channel=0 note=52 velocity=75 time=0\n",
      "note_on channel=0 note=63 velocity=40 time=1\n",
      "note_off channel=0 note=64 velocity=64 time=0\n",
      "note_off channel=0 note=73 velocity=64 time=0\n",
      "note_on channel=0 note=82 velocity=44 time=0\n",
      "note_off channel=0 note=83 velocity=64 time=0\n",
      "note_on channel=0 note=71 velocity=41 time=1\n",
      "note_on channel=0 note=73 velocity=20 time=0\n",
      "note_on channel=0 note=83 velocity=54 time=0\n",
      "note_on channel=0 note=51 velocity=69 time=1\n",
      "note_off channel=0 note=52 velocity=64 time=0\n",
      "note_off channel=0 note=63 velocity=64 time=0\n",
      "note_on channel=0 note=64 velocity=46 time=0\n",
      "note_off channel=0 note=68 velocity=64 time=0\n",
      "note_off channel=0 note=77 velocity=64 time=0\n",
      "note_off channel=0 note=79 velocity=64 time=0\n",
      "note_on channel=0 note=80 velocity=44 time=0\n",
      "note_off channel=0 note=82 velocity=64 time=0\n",
      "note_off channel=0 note=87 velocity=64 time=0\n",
      "note_off channel=0 note=51 velocity=64 time=1\n",
      "note_on channel=0 note=52 velocity=69 time=0\n",
      "note_on channel=0 note=65 velocity=59 time=1\n",
      "note_on channel=0 note=79 velocity=49 time=0\n",
      "note_off channel=0 note=80 velocity=64 time=0\n",
      "note_on channel=0 note=51 velocity=65 time=1\n",
      "note_off channel=0 note=52 velocity=64 time=0\n",
      "note_off channel=0 note=64 velocity=64 time=0\n",
      "note_off channel=0 note=73 velocity=64 time=0\n",
      "note_on channel=0 note=85 velocity=48 time=0\n",
      "note_off channel=0 note=51 velocity=64 time=1\n",
      "note_on channel=0 note=67 velocity=58 time=0\n",
      "note_on channel=0 note=70 velocity=56 time=0\n",
      "note_off channel=0 note=71 velocity=64 time=0\n",
      "note_on channel=0 note=73 velocity=35 time=0\n",
      "note_on channel=0 note=82 velocity=58 time=0\n",
      "note_off channel=0 note=83 velocity=64 time=0\n",
      "note_on channel=0 note=45 velocity=71 time=1\n",
      "note_off channel=0 note=65 velocity=64 time=0\n",
      "note_on channel=0 note=80 velocity=89 time=0\n",
      "note_off channel=0 note=88 velocity=64 time=0\n",
      "note_on channel=0 note=89 velocity=43 time=0\n",
      "note_on channel=0 note=44 velocity=72 time=1\n",
      "note_off channel=0 note=45 velocity=64 time=0\n",
      "note_on channel=0 note=63 velocity=48 time=0\n",
      "note_on channel=0 note=87 velocity=12 time=0\n",
      "note_off channel=0 note=67 velocity=64 time=1\n",
      "note_off channel=0 note=63 velocity=64 time=1\n",
      "note_on channel=0 note=64 velocity=48 time=0\n",
      "note_off channel=0 note=79 velocity=64 time=1\n",
      "note_off channel=0 note=82 velocity=64 time=0\n",
      "note_on channel=0 note=83 velocity=63 time=0\n",
      "note_off channel=0 note=44 velocity=64 time=1\n",
      "note_off channel=0 note=87 velocity=64 time=0\n",
      "note_on channel=0 note=51 velocity=69 time=1\n",
      "note_off channel=0 note=70 velocity=64 time=0\n",
      "note_on channel=0 note=71 velocity=54 time=0\n",
      "note_off channel=0 note=51 velocity=64 time=1\n",
      "note_on channel=0 note=52 velocity=77 time=0\n",
      "note_on channel=0 note=61 velocity=70 time=1\n",
      "note_off channel=0 note=64 velocity=64 time=1\n",
      "note_on channel=0 note=88 velocity=42 time=0\n",
      "note_on channel=0 note=42 velocity=57 time=1\n",
      "note_off channel=0 note=90 velocity=64 time=2\n",
      "note_on channel=0 note=90 velocity=47 time=1\n",
      "note_off channel=0 note=42 velocity=64 time=3\n",
      "note_on channel=0 note=77 velocity=42 time=0\n",
      "note_on channel=0 note=42 velocity=53 time=1\n",
      "note_off channel=0 note=88 velocity=64 time=1\n",
      "note_off channel=0 note=93 velocity=64 time=2\n",
      "note_on channel=0 note=51 velocity=65 time=2\n",
      "note_off channel=0 note=52 velocity=64 time=0\n",
      "note_off channel=0 note=51 velocity=64 time=2\n",
      "note_on channel=0 note=68 velocity=14 time=0\n",
      "note_on channel=0 note=88 velocity=32 time=1\n",
      "note_off channel=0 note=89 velocity=64 time=0\n",
      "note_on channel=0 note=91 velocity=16 time=0\n",
      "note_on channel=0 note=101 velocity=37 time=0\n",
      "note_off channel=0 note=42 velocity=64 time=1\n",
      "note_on channel=0 note=64 velocity=71 time=0\n",
      "note_on channel=0 note=96 velocity=32 time=0\n",
      "note_on channel=0 note=98 velocity=53 time=0\n",
      "note_off channel=0 note=68 velocity=64 time=1\n",
      "note_on channel=0 note=75 velocity=44 time=0\n",
      "note_on channel=0 note=84 velocity=31 time=0\n",
      "note_on channel=0 note=89 velocity=69 time=0\n",
      "note_off channel=0 note=90 velocity=64 time=0\n",
      "note_on channel=0 note=102 velocity=29 time=0\n",
      "note_on channel=0 note=47 velocity=84 time=1\n",
      "note_off channel=0 note=73 velocity=64 time=0\n",
      "note_on channel=0 note=78 velocity=44 time=0\n",
      "note_on channel=0 note=67 velocity=46 time=1\n",
      "note_off channel=0 note=71 velocity=64 time=0\n",
      "note_off channel=0 note=88 velocity=64 time=0\n",
      "note_off channel=0 note=91 velocity=64 time=0\n",
      "note_off channel=0 note=47 velocity=64 time=1\n",
      "note_on channel=0 note=48 velocity=84 time=0\n",
      "note_off channel=0 note=61 velocity=64 time=0\n",
      "note_off channel=0 note=78 velocity=64 time=0\n",
      "note_on channel=0 note=82 velocity=32 time=0\n",
      "note_off channel=0 note=83 velocity=64 time=0\n",
      "note_on channel=0 note=88 velocity=12 time=0\n",
      "note_on channel=0 note=91 velocity=32 time=0\n",
      "note_off channel=0 note=48 velocity=64 time=1\n",
      "note_on channel=0 note=50 velocity=78 time=0\n",
      "note_off channel=0 note=64 velocity=64 time=0\n",
      "note_off channel=0 note=67 velocity=64 time=0\n",
      "note_on channel=0 note=73 velocity=23 time=0\n",
      "note_off channel=0 note=75 velocity=64 time=0\n",
      "note_on channel=0 note=83 velocity=44 time=0\n",
      "note_off channel=0 note=50 velocity=64 time=1\n",
      "note_on channel=0 note=52 velocity=77 time=0\n",
      "note_on channel=0 note=61 velocity=42 time=0\n",
      "note_on channel=0 note=68 velocity=30 time=0\n",
      "note_on channel=0 note=71 velocity=58 time=0\n",
      "note_off channel=0 note=82 velocity=64 time=0\n",
      "note_on channel=0 note=87 velocity=34 time=0\n",
      "note_on channel=0 note=65 velocity=33 time=1\n",
      "note_off channel=0 note=88 velocity=64 time=0\n",
      "note_on channel=0 note=93 velocity=9 time=0\n",
      "note_on channel=0 note=75 velocity=48 time=1\n",
      "note_off channel=0 note=65 velocity=64 time=1\n",
      "note_off channel=0 note=85 velocity=64 time=1\n",
      "note_off channel=0 note=96 velocity=64 time=0\n",
      "note_off channel=0 note=84 velocity=64 time=1\n",
      "note_off channel=0 note=91 velocity=64 time=1\n",
      "note_on channel=0 note=43 velocity=34 time=3\n",
      "note_on channel=0 note=65 velocity=29 time=0\n",
      "note_off channel=0 note=98 velocity=64 time=0\n",
      "note_off channel=0 note=101 velocity=64 time=2\n",
      "note_off channel=0 note=102 velocity=64 time=0\n",
      "note_off channel=0 note=43 velocity=64 time=1\n",
      "note_off channel=0 note=65 velocity=64 time=0\n",
      "note_on channel=0 note=65 velocity=16 time=2\n",
      "note_off channel=0 note=52 velocity=64 time=2\n",
      "note_off channel=0 note=89 velocity=64 time=1\n",
      "note_on channel=0 note=91 velocity=19 time=0\n",
      "note_off channel=0 note=93 velocity=64 time=0\n",
      "note_on channel=0 note=53 velocity=41 time=1\n",
      "note_off channel=0 note=65 velocity=64 time=2\n",
      "note_on channel=0 note=89 velocity=67 time=1\n",
      "note_off channel=0 note=53 velocity=64 time=1\n",
      "note_off channel=0 note=77 velocity=64 time=1\n",
      "note_off channel=0 note=61 velocity=64 time=1\n",
      "note_on channel=0 note=62 velocity=53 time=0\n",
      "note_off channel=0 note=68 velocity=64 time=0\n",
      "note_on channel=0 note=95 velocity=48 time=0\n",
      "note_on channel=0 note=66 velocity=46 time=1\n",
      "note_on channel=0 note=69 velocity=51 time=0\n",
      "note_on channel=0 note=84 velocity=44 time=0\n",
      "note_on channel=0 note=97 velocity=23 time=0\n",
      "note_on channel=0 note=98 velocity=15 time=0\n",
      "note_on channel=0 note=45 velocity=77 time=1\n",
      "note_off channel=0 note=71 velocity=64 time=0\n",
      "note_off channel=0 note=73 velocity=64 time=0\n",
      "note_on channel=0 note=77 velocity=42 time=0\n",
      "note_on channel=0 note=85 velocity=31 time=0\n",
      "note_on channel=0 note=94 velocity=12 time=0\n",
      "note_off channel=0 note=62 velocity=64 time=1\n",
      "note_on channel=0 note=63 velocity=43 time=0\n",
      "note_off channel=0 note=66 velocity=64 time=0\n",
      "note_on channel=0 note=71 velocity=44 time=0\n",
      "note_on channel=0 note=44 velocity=77 time=1\n",
      "note_off channel=0 note=45 velocity=64 time=0\n",
      "note_on channel=0 note=67 velocity=35 time=0\n",
      "note_on channel=0 note=78 velocity=25 time=0\n",
      "note_off channel=0 note=97 velocity=64 time=0\n",
      "note_off channel=0 note=98 velocity=64 time=0\n",
      "note_off channel=0 note=69 velocity=64 time=1\n",
      "note_on channel=0 note=73 velocity=15 time=0\n",
      "note_off channel=0 note=84 velocity=64 time=0\n",
      "note_off channel=0 note=87 velocity=64 time=0\n",
      "note_off channel=0 note=95 velocity=64 time=0\n",
      "note_off channel=0 note=77 velocity=64 time=1\n",
      "note_on channel=0 note=43 velocity=72 time=1\n",
      "note_off channel=0 note=44 velocity=64 time=0\n",
      "note_on channel=0 note=61 velocity=34 time=0\n",
      "note_off channel=0 note=63 velocity=64 time=0\n",
      "note_off channel=0 note=67 velocity=64 time=0\n",
      "note_on channel=0 note=77 velocity=39 time=0\n",
      "note_off channel=0 note=78 velocity=64 time=0\n",
      "note_off channel=0 note=94 velocity=64 time=0\n",
      "note_on channel=0 note=70 velocity=38 time=1\n",
      "note_off channel=0 note=71 velocity=64 time=0\n",
      "note_off channel=0 note=73 velocity=64 time=0\n",
      "note_off channel=0 note=75 velocity=64 time=0\n",
      "note_on channel=0 note=93 velocity=15 time=0\n",
      "note_on channel=0 note=65 velocity=39 time=1\n",
      "note_on channel=0 note=73 velocity=34 time=0\n",
      "note_on channel=0 note=68 velocity=32 time=1\n",
      "note_on channel=0 note=75 velocity=24 time=0\n",
      "note_off channel=0 note=61 velocity=64 time=1\n",
      "note_on channel=0 note=90 velocity=17 time=0\n",
      "note_off channel=0 note=70 velocity=64 time=1\n",
      "note_on channel=0 note=71 velocity=51 time=0\n",
      "note_off channel=0 note=89 velocity=64 time=0\n",
      "note_off channel=0 note=43 velocity=64 time=1\n",
      "note_on channel=0 note=44 velocity=32 time=0\n",
      "note_off channel=0 note=83 velocity=64 time=0\n",
      "note_off channel=0 note=91 velocity=64 time=1\n",
      "note_off channel=0 note=44 velocity=64 time=3\n",
      "note_on channel=0 note=78 velocity=13 time=0\n",
      "note_on channel=0 note=83 velocity=55 time=2\n",
      "note_off channel=0 note=78 velocity=64 time=2\n",
      "note_off channel=0 note=85 velocity=64 time=0\n",
      "note_off channel=0 note=93 velocity=64 time=2\n",
      "note_on channel=0 note=51 velocity=51 time=1\n",
      "note_off channel=0 note=68 velocity=64 time=1\n",
      "note_off channel=0 note=90 velocity=64 time=0\n",
      "note_on channel=0 note=50 velocity=69 time=1\n",
      "note_off channel=0 note=51 velocity=64 time=0\n",
      "note_on channel=0 note=61 velocity=51 time=0\n",
      "note_on channel=0 note=49 velocity=90 time=2\n",
      "note_off channel=0 note=50 velocity=64 time=0\n",
      "note_on channel=0 note=90 velocity=61 time=1\n",
      "note_off channel=0 note=61 velocity=64 time=1\n",
      "note_on channel=0 note=64 velocity=78 time=0\n",
      "note_off channel=0 note=65 velocity=64 time=0\n",
      "note_off channel=0 note=73 velocity=64 time=0\n",
      "note_off channel=0 note=75 velocity=64 time=0\n",
      "note_on channel=0 note=93 velocity=49 time=0\n",
      "note_on channel=0 note=97 velocity=17 time=0\n",
      "note_on channel=0 note=73 velocity=67 time=1\n",
      "note_on channel=0 note=94 velocity=32 time=0\n",
      "note_on channel=0 note=98 velocity=11 time=0\n",
      "note_on channel=0 note=101 velocity=34 time=0\n",
      "note_on channel=0 note=48 velocity=88 time=1\n",
      "note_off channel=0 note=49 velocity=64 time=0\n",
      "note_on channel=0 note=68 velocity=56 time=0\n",
      "note_on channel=0 note=78 velocity=25 time=0\n",
      "note_on channel=0 note=87 velocity=27 time=0\n",
      "note_on channel=0 note=89 velocity=48 time=0\n",
      "note_on channel=0 note=44 velocity=71 time=1\n",
      "note_off channel=0 note=48 velocity=64 time=0\n",
      "note_on channel=0 note=49 velocity=87 time=0\n",
      "note_on channel=0 note=63 velocity=70 time=0\n",
      "note_off channel=0 note=64 velocity=64 time=0\n",
      "note_off channel=0 note=94 velocity=64 time=0\n",
      "note_on channel=0 note=100 velocity=33 time=0\n",
      "note_off channel=0 note=44 velocity=64 time=1\n",
      "note_off channel=0 note=63 velocity=64 time=0\n",
      "note_off channel=0 note=68 velocity=64 time=0\n",
      "note_off channel=0 note=77 velocity=64 time=0\n",
      "note_on channel=0 note=96 velocity=17 time=0\n",
      "note_off channel=0 note=98 velocity=64 time=0\n",
      "note_on channel=0 note=68 velocity=29 time=1\n",
      "note_off channel=0 note=90 velocity=64 time=0\n",
      "note_on channel=0 note=91 velocity=64 time=0\n",
      "note_off channel=0 note=49 velocity=64 time=1\n",
      "note_on channel=0 note=50 velocity=85 time=0\n",
      "note_off channel=0 note=78 velocity=64 time=0\n",
      "note_off channel=0 note=93 velocity=64 time=0\n",
      "note_on channel=0 note=94 velocity=48 time=0\n",
      "note_off channel=0 note=97 velocity=64 time=0\n",
      "note_on channel=0 note=48 velocity=89 time=1\n",
      "note_off channel=0 note=50 velocity=64 time=0\n",
      "note_on channel=0 note=65 velocity=36 time=0\n",
      "note_off channel=0 note=48 velocity=64 time=1\n",
      "note_on channel=0 note=49 velocity=85 time=0\n",
      "note_off channel=0 note=68 velocity=64 time=0\n",
      "note_on channel=0 note=75 velocity=15 time=0\n",
      "note_on channel=0 note=90 velocity=42 time=1\n",
      "note_on channel=0 note=93 velocity=72 time=0\n",
      "note_on channel=0 note=67 velocity=50 time=1\n",
      "note_off channel=0 note=96 velocity=64 time=0\n",
      "note_on channel=0 note=76 velocity=28 time=1\n",
      "note_on channel=0 note=82 velocity=38 time=0\n",
      "note_on channel=0 note=84 velocity=20 time=0\n",
      "note_on channel=0 note=62 velocity=59 time=1\n",
      "note_off channel=0 note=65 velocity=64 time=0\n",
      "note_off channel=0 note=67 velocity=64 time=0\n",
      "note_on channel=0 note=68 velocity=57 time=0\n",
      "note_off channel=0 note=75 velocity=64 time=0\n",
      "note_off channel=0 note=83 velocity=64 time=0\n",
      "note_off channel=0 note=87 velocity=64 time=0\n",
      "note_on channel=0 note=65 velocity=39 time=1\n",
      "note_on channel=0 note=87 velocity=11 time=0\n",
      "note_off channel=0 note=62 velocity=64 time=1\n",
      "note_off channel=0 note=84 velocity=64 time=0\n",
      "note_on channel=0 note=99 velocity=16 time=0\n",
      "note_off channel=0 note=73 velocity=64 time=1\n",
      "note_on channel=0 note=74 velocity=58 time=0\n",
      "note_off channel=0 note=76 velocity=64 time=0\n",
      "note_on channel=0 note=84 velocity=25 time=0\n",
      "note_off channel=0 note=65 velocity=64 time=1\n",
      "note_on channel=0 note=48 velocity=81 time=1\n",
      "note_off channel=0 note=49 velocity=64 time=0\n",
      "note_off channel=0 note=68 velocity=64 time=0\n",
      "note_off channel=0 note=91 velocity=64 time=0\n",
      "note_on channel=0 note=53 velocity=85 time=1\n",
      "note_off channel=0 note=71 velocity=64 time=0\n",
      "note_on channel=0 note=72 velocity=57 time=0\n",
      "note_off channel=0 note=74 velocity=64 time=0\n",
      "note_on channel=0 note=75 velocity=27 time=0\n",
      "note_on channel=0 note=78 velocity=15 time=0\n",
      "note_on channel=0 note=81 velocity=11 time=0\n",
      "note_off channel=0 note=87 velocity=64 time=0\n",
      "note_off channel=0 note=90 velocity=64 time=0\n",
      "note_on channel=0 note=91 velocity=38 time=0\n",
      "note_off channel=0 note=48 velocity=64 time=1\n",
      "note_off channel=0 note=84 velocity=64 time=0\n",
      "note_off channel=0 note=100 velocity=64 time=0\n",
      "note_on channel=0 note=71 velocity=55 time=1\n",
      "note_off channel=0 note=72 velocity=64 time=0\n",
      "note_off channel=0 note=82 velocity=64 time=0\n",
      "note_on channel=0 note=83 velocity=59 time=0\n",
      "note_off channel=0 note=94 velocity=64 time=0\n",
      "note_on channel=0 note=68 velocity=46 time=1\n",
      "note_off channel=0 note=81 velocity=64 time=0\n",
      "note_on channel=0 note=90 velocity=30 time=0\n",
      "note_off channel=0 note=91 velocity=64 time=0\n",
      "note_off channel=0 note=99 velocity=64 time=0\n",
      "note_off channel=0 note=53 velocity=64 time=1\n",
      "note_on channel=0 note=54 velocity=77 time=0\n",
      "note_on channel=0 note=67 velocity=74 time=0\n",
      "note_off channel=0 note=71 velocity=64 time=0\n",
      "note_on channel=0 note=91 velocity=51 time=0\n",
      "note_off channel=0 note=101 velocity=64 time=0\n",
      "note_off channel=0 note=54 velocity=64 time=1\n",
      "note_on channel=0 note=55 velocity=71 time=0\n",
      "note_off channel=0 note=68 velocity=64 time=0\n",
      "note_on channel=0 note=71 velocity=43 time=0\n",
      "note_on channel=0 note=74 velocity=77 time=0\n",
      "note_off channel=0 note=75 velocity=64 time=0\n",
      "note_off channel=0 note=78 velocity=64 time=0\n",
      "note_off channel=0 note=55 velocity=64 time=2\n",
      "note_off channel=0 note=80 velocity=64 time=0\n",
      "note_on channel=0 note=55 velocity=72 time=1\n",
      "note_on channel=0 note=80 velocity=30 time=0\n",
      "note_on channel=0 note=99 velocity=12 time=0\n",
      "note_on channel=0 note=54 velocity=76 time=1\n",
      "note_off channel=0 note=55 velocity=64 time=0\n",
      "note_on channel=0 note=85 velocity=37 time=0\n",
      "note_off channel=0 note=90 velocity=64 time=0\n",
      "note_on channel=0 note=94 velocity=35 time=0\n",
      "note_on channel=0 note=100 velocity=21 time=0\n",
      "note_on channel=0 note=73 velocity=77 time=1\n",
      "note_off channel=0 note=74 velocity=64 time=0\n",
      "note_on channel=0 note=78 velocity=54 time=0\n",
      "note_on channel=0 note=82 velocity=55 time=0\n",
      "note_off channel=0 note=83 velocity=64 time=0\n",
      "note_on channel=0 note=90 velocity=64 time=0\n",
      "note_off channel=0 note=91 velocity=64 time=0\n",
      "note_on channel=0 note=92 velocity=71 time=0\n",
      "note_on channel=0 note=95 velocity=41 time=0\n",
      "note_on channel=0 note=103 velocity=16 time=0\n",
      "note_off channel=0 note=67 velocity=64 time=1\n",
      "note_on channel=0 note=68 velocity=64 time=0\n",
      "note_off channel=0 note=71 velocity=64 time=0\n",
      "note_on channel=0 note=79 velocity=37 time=0\n",
      "note_on channel=0 note=83 velocity=39 time=0\n",
      "note_on channel=0 note=87 velocity=23 time=0\n",
      "note_off channel=0 note=89 velocity=64 time=0\n",
      "note_off channel=0 note=94 velocity=64 time=0\n",
      "note_on channel=0 note=53 velocity=79 time=1\n",
      "note_off channel=0 note=54 velocity=64 time=0\n",
      "note_off channel=0 note=80 velocity=64 time=0\n",
      "note_on channel=0 note=81 velocity=43 time=0\n",
      "note_off channel=0 note=82 velocity=64 time=0\n",
      "note_on channel=0 note=84 velocity=47 time=0\n",
      "note_on channel=0 note=89 velocity=48 time=0\n",
      "note_on channel=0 note=91 velocity=69 time=0\n",
      "note_on channel=0 note=45 velocity=77 time=1\n",
      "note_on channel=0 note=64 velocity=78 time=0\n",
      "note_off channel=0 note=79 velocity=64 time=0\n",
      "note_off channel=0 note=85 velocity=64 time=0\n",
      "note_on channel=0 note=94 velocity=38 time=0\n",
      "note_off channel=0 note=95 velocity=64 time=0\n",
      "note_off channel=0 note=99 velocity=64 time=0\n",
      "note_on channel=0 note=63 velocity=68 time=1\n",
      "note_off channel=0 note=64 velocity=64 time=0\n",
      "note_off channel=0 note=73 velocity=64 time=0\n",
      "note_on channel=0 note=76 velocity=36 time=0\n",
      "note_off channel=0 note=78 velocity=64 time=0\n",
      "note_on channel=0 note=79 velocity=43 time=0\n",
      "note_off channel=0 note=83 velocity=64 time=0\n",
      "note_on channel=0 note=95 velocity=20 time=0\n",
      "note_off channel=0 note=100 velocity=64 time=0\n",
      "note_off channel=0 note=103 velocity=64 time=0\n",
      "note_on channel=0 note=44 velocity=79 time=1\n",
      "note_off channel=0 note=45 velocity=64 time=0\n",
      "note_on channel=0 note=52 velocity=72 time=0\n",
      "note_off channel=0 note=53 velocity=64 time=0\n",
      "note_on channel=0 note=71 velocity=66 time=0\n",
      "note_on channel=0 note=73 velocity=50 time=0\n",
      "note_off channel=0 note=81 velocity=64 time=0\n",
      "note_on channel=0 note=88 velocity=55 time=0\n",
      "note_off channel=0 note=76 velocity=64 time=1\n",
      "note_off channel=0 note=84 velocity=64 time=0\n",
      "note_on channel=0 note=86 velocity=30 time=0\n",
      "note_off channel=0 note=87 velocity=64 time=0\n",
      "note_off channel=0 note=93 velocity=64 time=0\n",
      "note_off channel=0 note=73 velocity=64 time=1\n",
      "note_off channel=0 note=79 velocity=64 time=0\n",
      "note_off channel=0 note=89 velocity=64 time=0\n",
      "note_off channel=0 note=91 velocity=64 time=0\n",
      "note_on channel=0 note=93 velocity=30 time=0\n",
      "note_off channel=0 note=44 velocity=64 time=1\n",
      "note_on channel=0 note=45 velocity=76 time=0\n",
      "note_off channel=0 note=63 velocity=64 time=0\n",
      "note_off channel=0 note=71 velocity=64 time=0\n",
      "note_on channel=0 note=72 velocity=63 time=0\n",
      "note_on channel=0 note=77 velocity=48 time=0\n",
      "note_on channel=0 note=81 velocity=41 time=0\n",
      "note_off channel=0 note=88 velocity=64 time=0\n",
      "note_on channel=0 note=89 velocity=60 time=0\n",
      "note_on channel=0 note=91 velocity=60 time=0\n",
      "note_off channel=0 note=92 velocity=64 time=0\n",
      "note_off channel=0 note=95 velocity=64 time=0\n",
      "note_off channel=0 note=52 velocity=64 time=1\n",
      "note_on channel=0 note=53 velocity=72 time=0\n",
      "note_off channel=0 note=90 velocity=64 time=0\n",
      "note_on channel=0 note=44 velocity=70 time=1\n",
      "note_off channel=0 note=45 velocity=64 time=0\n",
      "note_on channel=0 note=87 velocity=36 time=0\n",
      "note_on channel=0 note=90 velocity=42 time=0\n",
      "note_on channel=0 note=18 velocity=20 time=1\n"
     ]
    },
    {
     "name": "stdout",
     "output_type": "stream",
     "text": [
      "note_off channel=0 note=53 velocity=64 time=0\n",
      "note_on channel=0 note=54 velocity=72 time=0\n",
      "note_on channel=0 note=61 velocity=60 time=0\n",
      "note_off channel=0 note=68 velocity=64 time=0\n",
      "note_off channel=0 note=77 velocity=64 time=0\n",
      "note_on channel=0 note=78 velocity=34 time=0\n",
      "note_off channel=0 note=81 velocity=64 time=0\n",
      "note_off channel=0 note=86 velocity=64 time=0\n",
      "note_on channel=0 note=88 velocity=33 time=0\n",
      "note_off channel=0 note=44 velocity=64 time=1\n",
      "note_off channel=0 note=72 velocity=64 time=0\n",
      "note_off channel=0 note=87 velocity=64 time=0\n",
      "note_off channel=0 note=93 velocity=64 time=0\n",
      "note_off channel=0 note=94 velocity=64 time=0\n",
      "note_on channel=0 note=65 velocity=51 time=1\n",
      "note_on channel=0 note=72 velocity=39 time=0\n",
      "note_on channel=0 note=87 velocity=29 time=0\n",
      "note_off channel=0 note=18 velocity=64 time=1\n",
      "note_on channel=0 note=43 velocity=61 time=0\n",
      "note_off channel=0 note=54 velocity=64 time=0\n",
      "note_on channel=0 note=55 velocity=65 time=0\n",
      "note_off channel=0 note=88 velocity=64 time=0\n",
      "note_off channel=0 note=90 velocity=64 time=0\n",
      "note_off channel=0 note=55 velocity=64 time=1\n",
      "note_on channel=0 note=56 velocity=67 time=0\n",
      "note_on channel=0 note=82 velocity=14 time=0\n",
      "note_on channel=0 note=84 velocity=42 time=0\n",
      "note_on channel=0 note=90 velocity=37 time=0\n",
      "note_off channel=0 note=43 velocity=64 time=1\n",
      "note_off channel=0 note=72 velocity=64 time=0\n",
      "note_off channel=0 note=78 velocity=64 time=0\n",
      "note_on channel=0 note=48 velocity=65 time=1\n",
      "note_on channel=0 note=55 velocity=69 time=0\n",
      "note_off channel=0 note=56 velocity=64 time=0\n",
      "note_off channel=0 note=55 velocity=64 time=1\n",
      "note_on channel=0 note=56 velocity=63 time=0\n",
      "note_on channel=0 note=83 velocity=58 time=0\n",
      "note_off channel=0 note=84 velocity=64 time=0\n",
      "note_on channel=0 note=47 velocity=72 time=1\n",
      "note_off channel=0 note=48 velocity=64 time=0\n",
      "note_on channel=0 note=79 velocity=38 time=0\n",
      "note_off channel=0 note=82 velocity=64 time=0\n",
      "note_on channel=0 note=86 velocity=34 time=0\n",
      "note_on channel=0 note=55 velocity=79 time=1\n",
      "note_off channel=0 note=56 velocity=64 time=0\n",
      "note_off channel=0 note=65 velocity=64 time=0\n",
      "note_on channel=0 note=84 velocity=37 time=0\n",
      "note_on channel=0 note=88 velocity=64 time=0\n",
      "note_off channel=0 note=89 velocity=64 time=0\n",
      "note_off channel=0 note=90 velocity=64 time=0\n",
      "note_off channel=0 note=47 velocity=64 time=1\n",
      "note_on channel=0 note=48 velocity=70 time=0\n",
      "note_on channel=0 note=73 velocity=63 time=0\n",
      "note_on channel=0 note=82 velocity=55 time=0\n",
      "note_off channel=0 note=83 velocity=64 time=0\n",
      "note_on channel=0 note=90 velocity=62 time=0\n",
      "note_off channel=0 note=48 velocity=64 time=1\n",
      "note_on channel=0 note=54 velocity=86 time=0\n",
      "note_off channel=0 note=55 velocity=64 time=0\n",
      "note_on channel=0 note=71 velocity=18 time=0\n",
      "note_off channel=0 note=79 velocity=64 time=0\n",
      "note_off channel=0 note=86 velocity=64 time=0\n",
      "note_off channel=0 note=87 velocity=64 time=0\n",
      "note_off channel=0 note=91 velocity=64 time=0\n",
      "note_on channel=0 note=53 velocity=83 time=1\n",
      "note_off channel=0 note=54 velocity=64 time=0\n",
      "note_off channel=0 note=61 velocity=64 time=0\n",
      "note_off channel=0 note=53 velocity=64 time=1\n",
      "note_on channel=0 note=54 velocity=75 time=0\n",
      "note_on channel=0 note=83 velocity=40 time=0\n",
      "note_on channel=0 note=61 velocity=28 time=1\n",
      "note_on channel=0 note=75 velocity=17 time=0\n",
      "note_off channel=0 note=82 velocity=64 time=1\n",
      "note_on channel=0 note=53 velocity=71 time=1\n",
      "note_off channel=0 note=54 velocity=64 time=0\n",
      "note_off channel=0 note=53 velocity=64 time=1\n",
      "note_on channel=0 note=54 velocity=67 time=0\n",
      "note_on channel=0 note=77 velocity=37 time=0\n",
      "note_off channel=0 note=54 velocity=64 time=2\n",
      "note_on channel=0 note=55 velocity=69 time=0\n",
      "note_on channel=0 note=80 velocity=81 time=0\n",
      "note_on channel=0 note=48 velocity=88 time=1\n",
      "note_off channel=0 note=61 velocity=64 time=0\n",
      "note_off channel=0 note=71 velocity=64 time=0\n",
      "note_off channel=0 note=75 velocity=64 time=0\n",
      "note_off channel=0 note=77 velocity=64 time=0\n",
      "note_on channel=0 note=89 velocity=76 time=0\n",
      "note_on channel=0 note=91 velocity=46 time=0\n",
      "note_on channel=0 note=93 velocity=20 time=0\n",
      "note_on channel=0 note=67 velocity=75 time=1\n",
      "note_off channel=0 note=73 velocity=64 time=0\n",
      "note_on channel=0 note=74 velocity=58 time=0\n",
      "note_off channel=0 note=90 velocity=64 time=0\n",
      "note_on channel=0 note=64 velocity=55 time=1\n",
      "note_on channel=0 note=77 velocity=48 time=0\n",
      "note_on channel=0 note=82 velocity=44 time=0\n",
      "note_on channel=0 note=71 velocity=28 time=1\n",
      "note_off channel=0 note=74 velocity=64 time=0\n",
      "note_on channel=0 note=75 velocity=45 time=0\n",
      "note_off channel=0 note=83 velocity=64 time=0\n",
      "note_off channel=0 note=84 velocity=64 time=0\n",
      "note_on channel=0 note=46 velocity=65 time=1\n",
      "note_off channel=0 note=48 velocity=64 time=0\n",
      "note_off channel=0 note=64 velocity=64 time=0\n",
      "note_off channel=0 note=67 velocity=64 time=0\n",
      "note_off channel=0 note=82 velocity=64 time=0\n",
      "note_on channel=0 note=83 velocity=49 time=0\n",
      "note_off channel=0 note=93 velocity=64 time=0\n",
      "note_on channel=0 note=61 velocity=38 time=1\n",
      "note_on channel=0 note=84 velocity=58 time=0\n",
      "note_off channel=0 note=88 velocity=64 time=0\n",
      "note_off channel=0 note=46 velocity=64 time=1\n",
      "note_on channel=0 note=48 velocity=65 time=0\n",
      "note_off channel=0 note=55 velocity=64 time=0\n",
      "note_on channel=0 note=65 velocity=23 time=0\n",
      "note_off channel=0 note=75 velocity=64 time=0\n",
      "note_on channel=0 note=90 velocity=29 time=0\n",
      "note_off channel=0 note=91 velocity=64 time=0\n",
      "note_off channel=0 note=48 velocity=64 time=1\n",
      "note_on channel=0 note=75 velocity=57 time=0\n",
      "note_on channel=0 note=45 velocity=60 time=1\n",
      "note_on channel=0 note=56 velocity=23 time=0\n",
      "note_off channel=0 note=90 velocity=64 time=0\n",
      "note_on channel=0 note=91 velocity=35 time=0\n",
      "note_on channel=0 note=93 velocity=35 time=1\n",
      "note_on channel=0 note=44 velocity=51 time=2\n",
      "note_off channel=0 note=45 velocity=64 time=0\n",
      "note_on channel=0 note=55 velocity=62 time=0\n",
      "note_off channel=0 note=56 velocity=64 time=0\n",
      "note_on channel=0 note=68 velocity=61 time=0\n",
      "note_on channel=0 note=90 velocity=63 time=0\n",
      "note_off channel=0 note=65 velocity=64 time=1\n",
      "note_off channel=0 note=71 velocity=64 time=0\n",
      "note_on channel=0 note=85 velocity=24 time=0\n",
      "note_off channel=0 note=44 velocity=64 time=1\n",
      "note_off channel=0 note=55 velocity=64 time=0\n",
      "note_on channel=0 note=56 velocity=66 time=0\n",
      "note_off channel=0 note=93 velocity=64 time=0\n",
      "note_on channel=0 note=94 velocity=45 time=0\n",
      "note_on channel=0 note=44 velocity=45 time=1\n",
      "note_on channel=0 note=71 velocity=25 time=0\n",
      "note_off channel=0 note=91 velocity=64 time=0\n",
      "note_on channel=0 note=43 velocity=34 time=2\n",
      "note_off channel=0 note=44 velocity=64 time=0\n",
      "note_off channel=0 note=61 velocity=64 time=0\n",
      "note_off channel=0 note=85 velocity=64 time=0\n",
      "note_off channel=0 note=71 velocity=64 time=1\n",
      "note_off channel=0 note=75 velocity=64 time=0\n",
      "note_on channel=0 note=91 velocity=25 time=1\n",
      "note_off channel=0 note=43 velocity=64 time=1\n",
      "note_on channel=0 note=71 velocity=19 time=1\n",
      "note_off channel=0 note=84 velocity=64 time=0\n",
      "note_off channel=0 note=90 velocity=64 time=0\n",
      "note_on channel=0 note=55 velocity=67 time=1\n",
      "note_off channel=0 note=56 velocity=64 time=0\n",
      "note_off channel=0 note=68 velocity=64 time=0\n",
      "note_on channel=0 note=74 velocity=61 time=0\n",
      "note_on channel=0 note=85 velocity=16 time=0\n",
      "note_on channel=0 note=90 velocity=37 time=0\n",
      "note_on channel=0 note=93 velocity=41 time=0\n",
      "note_off channel=0 note=94 velocity=64 time=0\n",
      "note_on channel=0 note=43 velocity=18 time=1\n",
      "note_on channel=0 note=75 velocity=56 time=0\n",
      "note_on channel=0 note=78 velocity=29 time=0\n",
      "note_on channel=0 note=82 velocity=48 time=0\n",
      "note_off channel=0 note=83 velocity=64 time=0\n",
      "note_on channel=0 note=94 velocity=58 time=0\n",
      "note_on channel=0 note=54 velocity=74 time=1\n",
      "note_off channel=0 note=55 velocity=64 time=0\n",
      "note_on channel=0 note=73 velocity=42 time=0\n",
      "note_off channel=0 note=74 velocity=64 time=0\n",
      "note_on channel=0 note=84 velocity=24 time=0\n",
      "note_off channel=0 note=85 velocity=64 time=1\n",
      "note_off channel=0 note=93 velocity=64 time=0\n",
      "note_on channel=0 note=100 velocity=12 time=0\n",
      "note_off channel=0 note=91 velocity=64 time=1\n",
      "note_off channel=0 note=43 velocity=64 time=1\n",
      "note_off channel=0 note=75 velocity=64 time=0\n",
      "note_off channel=0 note=78 velocity=64 time=0\n",
      "note_on channel=0 note=85 velocity=48 time=0\n",
      "note_off channel=0 note=71 velocity=64 time=2\n",
      "note_off channel=0 note=100 velocity=64 time=0\n",
      "note_on channel=0 note=47 velocity=66 time=2\n",
      "note_on channel=0 note=53 velocity=71 time=0\n",
      "note_off channel=0 note=54 velocity=64 time=0\n",
      "note_on channel=0 note=69 velocity=47 time=0\n",
      "note_off channel=0 note=73 velocity=64 time=0\n",
      "note_off channel=0 note=82 velocity=64 time=0\n",
      "note_off channel=0 note=84 velocity=64 time=0\n",
      "note_on channel=0 note=91 velocity=57 time=0\n",
      "note_on channel=0 note=95 velocity=39 time=0\n",
      "note_on channel=0 note=45 velocity=76 time=1\n",
      "note_off channel=0 note=47 velocity=64 time=0\n",
      "note_on channel=0 note=62 velocity=50 time=0\n",
      "note_on channel=0 note=67 velocity=49 time=0\n",
      "note_on channel=0 note=75 velocity=46 time=0\n",
      "note_on channel=0 note=82 velocity=23 time=0\n",
      "note_on channel=0 note=84 velocity=38 time=0\n",
      "note_on channel=0 note=44 velocity=78 time=1\n",
      "note_off channel=0 note=45 velocity=64 time=0\n",
      "note_on channel=0 note=52 velocity=65 time=0\n",
      "note_off channel=0 note=53 velocity=64 time=0\n",
      "note_off channel=0 note=94 velocity=64 time=0\n",
      "note_on channel=0 note=51 velocity=69 time=1\n",
      "note_off channel=0 note=52 velocity=64 time=0\n",
      "note_off channel=0 note=62 velocity=64 time=0\n",
      "note_off channel=0 note=67 velocity=64 time=0\n",
      "note_on channel=0 note=83 velocity=69 time=0\n",
      "note_off channel=0 note=84 velocity=64 time=0\n",
      "note_off channel=0 note=90 velocity=64 time=0\n",
      "note_on channel=0 note=72 velocity=52 time=1\n",
      "note_off channel=0 note=82 velocity=64 time=0\n",
      "note_on channel=0 note=90 velocity=66 time=0\n",
      "note_on channel=0 note=93 velocity=42 time=0\n",
      "note_on channel=0 note=11 velocity=17 time=1\n",
      "note_on channel=0 note=43 velocity=73 time=0\n",
      "note_off channel=0 note=44 velocity=64 time=0\n",
      "note_off channel=0 note=51 velocity=64 time=0\n",
      "note_on channel=0 note=52 velocity=72 time=0\n",
      "note_off channel=0 note=69 velocity=64 time=0\n",
      "note_off channel=0 note=75 velocity=64 time=0\n",
      "note_on channel=0 note=76 velocity=59 time=0\n",
      "note_off channel=0 note=77 velocity=64 time=0\n",
      "note_on channel=0 note=71 velocity=58 time=1\n",
      "note_off channel=0 note=72 velocity=64 time=0\n",
      "note_on channel=0 note=73 velocity=29 time=0\n",
      "note_off channel=0 note=89 velocity=64 time=0\n",
      "note_off channel=0 note=91 velocity=64 time=1\n",
      "note_off channel=0 note=11 velocity=64 time=1\n",
      "note_on channel=0 note=16 velocity=20 time=0\n",
      "note_on channel=0 note=91 velocity=20 time=0\n",
      "note_off channel=0 note=73 velocity=64 time=1\n",
      "note_on channel=0 note=86 velocity=48 time=0\n",
      "note_off channel=0 note=93 velocity=64 time=0\n",
      "note_on channel=0 note=94 velocity=33 time=0\n",
      "note_on channel=0 note=73 velocity=20 time=1\n",
      "note_off channel=0 note=85 velocity=64 time=0\n",
      "note_off channel=0 note=16 velocity=64 time=1\n",
      "note_off channel=0 note=91 velocity=64 time=0\n",
      "note_off channel=0 note=43 velocity=64 time=1\n",
      "note_on channel=0 note=93 velocity=33 time=0\n",
      "note_off channel=0 note=94 velocity=64 time=0\n",
      "note_on channel=0 note=85 velocity=56 time=1\n",
      "note_off channel=0 note=86 velocity=64 time=0\n",
      "note_off channel=0 note=95 velocity=64 time=1\n",
      "note_off channel=0 note=71 velocity=64 time=3\n",
      "note_on channel=0 note=72 velocity=52 time=0\n",
      "note_off channel=0 note=73 velocity=64 time=0\n",
      "note_off channel=0 note=76 velocity=64 time=0\n",
      "note_on channel=0 note=87 velocity=41 time=0\n",
      "note_on channel=0 note=89 velocity=57 time=0\n",
      "note_on channel=0 note=91 velocity=34 time=0\n",
      "note_off channel=0 note=52 velocity=64 time=1\n",
      "note_on channel=0 note=53 velocity=73 time=0\n",
      "note_on channel=0 note=66 velocity=44 time=0\n",
      "note_on channel=0 note=78 velocity=52 time=0\n",
      "note_off channel=0 note=85 velocity=64 time=0\n",
      "note_off channel=0 note=53 velocity=64 time=1\n",
      "note_on channel=0 note=71 velocity=37 time=0\n",
      "note_off channel=0 note=72 velocity=64 time=0\n",
      "note_on channel=0 note=76 velocity=36 time=0\n",
      "note_on channel=0 note=82 velocity=37 time=0\n",
      "note_on channel=0 note=85 velocity=38 time=0\n",
      "note_on channel=0 note=55 velocity=66 time=1\n",
      "note_off channel=0 note=66 velocity=64 time=0\n",
      "note_on channel=0 note=74 velocity=57 time=0\n",
      "note_off channel=0 note=89 velocity=64 time=0\n",
      "note_on channel=0 note=61 velocity=11 time=1\n",
      "note_on channel=0 note=77 velocity=37 time=0\n",
      "note_off channel=0 note=82 velocity=64 time=0\n",
      "note_off channel=0 note=87 velocity=64 time=0\n",
      "note_off channel=0 note=76 velocity=64 time=1\n",
      "note_off channel=0 note=78 velocity=64 time=0\n",
      "note_on channel=0 note=89 velocity=47 time=0\n",
      "note_on channel=0 note=78 velocity=51 time=1\n",
      "note_on channel=0 note=73 velocity=53 time=1\n",
      "note_off channel=0 note=74 velocity=64 time=0\n",
      "note_off channel=0 note=77 velocity=64 time=0\n",
      "note_on channel=0 note=82 velocity=46 time=0\n",
      "note_off channel=0 note=83 velocity=64 time=0\n",
      "note_on channel=0 note=88 velocity=43 time=0\n",
      "note_off channel=0 note=89 velocity=64 time=0\n",
      "note_on channel=0 note=54 velocity=66 time=1\n",
      "note_off channel=0 note=55 velocity=64 time=0\n",
      "note_off channel=0 note=71 velocity=64 time=0\n",
      "note_on channel=0 note=87 velocity=40 time=0\n",
      "note_off channel=0 note=91 velocity=64 time=0\n",
      "note_on channel=0 note=89 velocity=34 time=1\n",
      "note_on channel=0 note=65 velocity=39 time=1\n",
      "note_on channel=0 note=84 velocity=29 time=0\n",
      "note_off channel=0 note=61 velocity=64 time=1\n",
      "note_off channel=0 note=73 velocity=64 time=0\n",
      "note_on channel=0 note=74 velocity=59 time=0\n",
      "note_off channel=0 note=89 velocity=64 time=0\n",
      "note_off channel=0 note=54 velocity=64 time=1\n",
      "note_on channel=0 note=55 velocity=70 time=0\n",
      "note_on channel=0 note=64 velocity=81 time=0\n",
      "note_off channel=0 note=65 velocity=64 time=0\n",
      "note_on channel=0 note=67 velocity=75 time=0\n",
      "note_on channel=0 note=77 velocity=30 time=0\n",
      "note_off channel=0 note=78 velocity=64 time=0\n",
      "note_on channel=0 note=89 velocity=53 time=0\n",
      "note_off channel=0 note=90 velocity=64 time=0\n",
      "note_on channel=0 note=45 velocity=78 time=1\n",
      "note_on channel=0 note=78 velocity=31 time=0\n",
      "note_on channel=0 note=83 velocity=45 time=0\n",
      "note_off channel=0 note=84 velocity=64 time=0\n",
      "note_on channel=0 note=90 velocity=63 time=0\n",
      "note_on channel=0 note=63 velocity=76 time=1\n",
      "note_off channel=0 note=64 velocity=64 time=0\n",
      "note_off channel=0 note=67 velocity=64 time=0\n",
      "note_on channel=0 note=68 velocity=66 time=0\n",
      "note_on channel=0 note=73 velocity=38 time=0\n",
      "note_off channel=0 note=74 velocity=64 time=0\n",
      "note_off channel=0 note=77 velocity=64 time=0\n",
      "note_off channel=0 note=88 velocity=64 time=0\n",
      "note_off channel=0 note=89 velocity=64 time=0\n",
      "note_on channel=0 note=44 velocity=79 time=1\n",
      "note_off channel=0 note=45 velocity=64 time=0\n",
      "note_off channel=0 note=55 velocity=64 time=0\n",
      "note_on channel=0 note=77 velocity=31 time=0\n",
      "note_off channel=0 note=78 velocity=64 time=0\n",
      "note_on channel=0 note=84 velocity=34 time=0\n",
      "note_off channel=0 note=85 velocity=64 time=0\n",
      "note_on channel=0 note=71 velocity=19 time=1\n",
      "note_off channel=0 note=82 velocity=64 time=0\n",
      "note_on channel=0 note=89 velocity=48 time=1\n",
      "note_on channel=0 note=61 velocity=59 time=1\n",
      "note_off channel=0 note=63 velocity=64 time=0\n",
      "note_on channel=0 note=82 velocity=45 time=0\n",
      "note_off channel=0 note=84 velocity=64 time=0\n",
      "note_on channel=0 note=88 velocity=31 time=0\n",
      "note_off channel=0 note=44 velocity=64 time=1\n",
      "note_on channel=0 note=67 velocity=53 time=0\n",
      "note_off channel=0 note=68 velocity=64 time=0\n",
      "note_off channel=0 note=71 velocity=64 time=0\n",
      "note_off channel=0 note=73 velocity=64 time=0\n",
      "note_on channel=0 note=84 velocity=38 time=0\n",
      "note_on channel=0 note=86 velocity=31 time=0\n",
      "note_on channel=0 note=54 velocity=73 time=1\n",
      "note_on channel=0 note=71 velocity=18 time=0\n",
      "note_on channel=0 note=78 velocity=52 time=0\n",
      "note_off channel=0 note=83 velocity=64 time=0\n",
      "note_on channel=0 note=43 velocity=61 time=1\n",
      "note_off channel=0 note=67 velocity=64 time=0\n",
      "note_off channel=0 note=80 velocity=64 time=0\n",
      "note_off channel=0 note=86 velocity=64 time=0\n",
      "note_on channel=0 note=80 velocity=82 time=1\n",
      "note_on channel=0 note=83 velocity=49 time=0\n",
      "note_off channel=0 note=77 velocity=64 time=1\n",
      "note_off channel=0 note=82 velocity=64 time=0\n",
      "note_on channel=0 note=94 velocity=40 time=0\n",
      "note_on channel=0 note=42 velocity=55 time=1\n",
      "note_off channel=0 note=43 velocity=64 time=0\n",
      "note_off channel=0 note=42 velocity=64 time=2\n",
      "note_off channel=0 note=71 velocity=64 time=1\n",
      "note_off channel=0 note=88 velocity=64 time=0\n",
      "note_on channel=0 note=15 velocity=24 time=1\n",
      "note_on channel=0 note=48 velocity=67 time=0\n",
      "note_on channel=0 note=47 velocity=71 time=1\n",
      "note_off channel=0 note=48 velocity=64 time=0\n",
      "note_on channel=0 note=72 velocity=52 time=0\n",
      "note_off channel=0 note=90 velocity=64 time=0\n",
      "note_off channel=0 note=93 velocity=64 time=0\n",
      "note_off channel=0 note=47 velocity=64 time=1\n",
      "note_on channel=0 note=48 velocity=71 time=0\n",
      "note_on channel=0 note=53 velocity=81 time=0\n",
      "note_off channel=0 note=54 velocity=64 time=0\n",
      "note_off channel=0 note=61 velocity=64 time=0\n",
      "note_on channel=0 note=62 velocity=41 time=0\n",
      "note_on channel=0 note=93 velocity=34 time=0\n",
      "note_off channel=0 note=94 velocity=64 time=0\n",
      "note_off channel=0 note=15 velocity=64 time=1\n",
      "note_on channel=0 note=64 velocity=48 time=0\n",
      "note_on channel=0 note=77 velocity=37 time=0\n",
      "note_on channel=0 note=98 velocity=17 time=0\n",
      "note_on channel=0 note=100 velocity=17 time=0\n",
      "note_off channel=0 note=48 velocity=64 time=1\n",
      "note_off channel=0 note=62 velocity=64 time=0\n",
      "note_on channel=0 note=68 velocity=25 time=0\n",
      "note_on channel=0 note=71 velocity=47 time=0\n",
      "note_off channel=0 note=72 velocity=64 time=0\n",
      "note_off channel=0 note=78 velocity=64 time=0\n",
      "note_on channel=0 note=102 velocity=13 time=0\n",
      "note_on channel=0 note=52 velocity=78 time=1\n",
      "note_off channel=0 note=53 velocity=64 time=0\n",
      "note_on channel=0 note=75 velocity=29 time=1\n",
      "note_off channel=0 note=52 velocity=64 time=1\n",
      "note_on channel=0 note=53 velocity=66 time=0\n",
      "note_off channel=0 note=98 velocity=64 time=0\n",
      "note_off channel=0 note=100 velocity=64 time=0\n",
      "note_off channel=0 note=102 velocity=64 time=0\n",
      "note_on channel=0 note=52 velocity=85 time=1\n",
      "note_off channel=0 note=53 velocity=64 time=0\n",
      "note_off channel=0 note=64 velocity=64 time=0\n",
      "note_on channel=0 note=65 velocity=46 time=0\n",
      "note_off channel=0 note=71 velocity=64 time=0\n",
      "note_on channel=0 note=91 velocity=11 time=0\n",
      "note_on channel=0 note=71 velocity=37 time=1\n",
      "note_off channel=0 note=52 velocity=64 time=1\n",
      "note_on channel=0 note=53 velocity=83 time=0\n",
      "note_on channel=0 note=64 velocity=84 time=0\n",
      "note_off channel=0 note=65 velocity=64 time=0\n",
      "note_on channel=0 note=52 velocity=79 time=1\n",
      "note_off channel=0 note=53 velocity=64 time=0\n",
      "note_off channel=0 note=91 velocity=64 time=0\n",
      "note_off channel=0 note=71 velocity=64 time=1\n",
      "note_on channel=0 note=72 velocity=33 time=0\n",
      "note_on channel=0 note=102 velocity=38 time=0\n",
      "note_off channel=0 note=68 velocity=64 time=1\n",
      "note_on channel=0 note=74 velocity=27 time=0\n",
      "note_on channel=0 note=90 velocity=40 time=0\n",
      "note_on channel=0 note=98 velocity=33 time=0\n",
      "note_on channel=0 note=46 velocity=67 time=1\n",
      "note_on channel=0 note=67 velocity=65 time=0\n",
      "note_on channel=0 note=71 velocity=32 time=0\n",
      "note_off channel=0 note=72 velocity=64 time=0\n",
      "note_off channel=0 note=75 velocity=64 time=0\n",
      "note_on channel=0 note=82 velocity=31 time=0\n",
      "note_off channel=0 note=83 velocity=64 time=0\n",
      "note_on channel=0 note=45 velocity=77 time=1\n",
      "note_off channel=0 note=46 velocity=64 time=0\n",
      "note_on channel=0 note=83 velocity=49 time=0\n",
      "note_on channel=0 note=101 velocity=53 time=0\n",
      "note_on channel=0 note=44 velocity=79 time=1\n",
      "note_off channel=0 note=45 velocity=64 time=0\n",
      "note_on channel=0 note=63 velocity=77 time=0\n",
      "note_off channel=0 note=64 velocity=64 time=0\n",
      "note_off channel=0 note=67 velocity=64 time=0\n",
      "note_off channel=0 note=74 velocity=64 time=0\n",
      "note_off channel=0 note=82 velocity=64 time=0\n",
      "note_on channel=0 note=100 velocity=39 time=0\n",
      "note_on channel=0 note=51 velocity=67 time=1\n",
      "note_off channel=0 note=52 velocity=64 time=0\n",
      "note_on channel=0 note=70 velocity=43 time=0\n",
      "note_off channel=0 note=71 velocity=64 time=0\n",
      "note_on channel=0 note=73 velocity=21 time=0\n",
      "note_on channel=0 note=88 velocity=33 time=0\n",
      "note_off channel=0 note=89 velocity=64 time=0\n",
      "note_off channel=0 note=90 velocity=64 time=0\n",
      "note_off channel=0 note=63 velocity=64 time=1\n",
      "note_on channel=0 note=68 velocity=31 time=0\n",
      "note_off channel=0 note=87 velocity=64 time=0\n",
      "note_on channel=0 note=90 velocity=20 time=0\n",
      "note_on channel=0 note=103 velocity=26 time=0\n",
      "note_off channel=0 note=51 velocity=64 time=1\n",
      "note_on channel=0 note=63 velocity=59 time=0\n",
      "note_off channel=0 note=44 velocity=64 time=1\n",
      "note_off channel=0 note=70 velocity=64 time=0\n",
      "note_on channel=0 note=71 velocity=35 time=0\n",
      "note_off channel=0 note=88 velocity=64 time=0\n",
      "note_on channel=0 note=12 velocity=17 time=1\n",
      "note_off channel=0 note=68 velocity=64 time=0\n",
      "note_on channel=0 note=88 velocity=40 time=0\n",
      "note_on channel=0 note=50 velocity=74 time=1\n",
      "note_off channel=0 note=63 velocity=64 time=0\n",
      "note_off channel=0 note=71 velocity=64 time=0\n",
      "note_on channel=0 note=81 velocity=23 time=0\n",
      "note_off channel=0 note=84 velocity=64 time=0\n",
      "note_off channel=0 note=103 velocity=64 time=0\n",
      "note_on channel=0 note=65 velocity=33 time=1\n",
      "note_on channel=0 note=69 velocity=54 time=0\n",
      "note_on channel=0 note=103 velocity=18 time=0\n",
      "note_on channel=0 note=61 velocity=64 time=1\n",
      "note_off channel=0 note=12 velocity=64 time=1\n",
      "note_on channel=0 note=42 velocity=56 time=0\n",
      "note_off channel=0 note=65 velocity=64 time=1\n",
      "note_off channel=0 note=73 velocity=64 time=0\n",
      "note_off channel=0 note=81 velocity=64 time=0\n",
      "note_off channel=0 note=42 velocity=64 time=1\n",
      "note_on channel=0 note=71 velocity=43 time=0\n",
      "note_on channel=0 note=49 velocity=72 time=2\n",
      "note_off channel=0 note=50 velocity=64 time=0\n",
      "note_on channel=0 note=85 velocity=46 time=0\n",
      "note_off channel=0 note=103 velocity=64 time=0\n",
      "note_on channel=0 note=47 velocity=66 time=1\n",
      "note_off channel=0 note=49 velocity=64 time=0\n",
      "note_on channel=0 note=46 velocity=65 time=1\n",
      "note_off channel=0 note=47 velocity=64 time=0\n",
      "note_off channel=0 note=46 velocity=64 time=1\n",
      "note_on channel=0 note=48 velocity=76 time=0\n",
      "note_on channel=0 note=62 velocity=36 time=0\n",
      "note_on channel=0 note=65 velocity=37 time=0\n",
      "note_on channel=0 note=94 velocity=11 time=0\n",
      "note_off channel=0 note=48 velocity=64 time=1\n",
      "note_on channel=0 note=50 velocity=86 time=0\n",
      "note_off channel=0 note=61 velocity=64 time=0\n",
      "note_off channel=0 note=71 velocity=64 time=0\n",
      "note_on channel=0 note=61 velocity=44 time=1\n",
      "note_off channel=0 note=62 velocity=64 time=0\n",
      "note_on channel=0 note=84 velocity=10 time=0\n",
      "note_on channel=0 note=96 velocity=18 time=0\n",
      "note_on channel=0 note=49 velocity=72 time=1\n",
      "note_off channel=0 note=50 velocity=64 time=0\n",
      "note_off channel=0 note=94 velocity=64 time=0\n",
      "note_off channel=0 note=49 velocity=64 time=1\n",
      "note_on channel=0 note=50 velocity=74 time=0\n",
      "note_off channel=0 note=61 velocity=64 time=0\n",
      "note_off channel=0 note=65 velocity=64 time=0\n",
      "note_on channel=0 note=71 velocity=49 time=0\n",
      "note_off channel=0 note=98 velocity=64 time=0\n",
      "note_on channel=0 note=63 velocity=66 time=1\n",
      "note_on channel=0 note=68 velocity=37 time=0\n",
      "note_off channel=0 note=69 velocity=64 time=0\n",
      "note_off channel=0 note=71 velocity=64 time=1\n",
      "note_off channel=0 note=84 velocity=64 time=0\n",
      "note_off channel=0 note=50 velocity=64 time=1\n",
      "note_on channel=0 note=53 velocity=63 time=0\n",
      "note_on channel=0 note=71 velocity=47 time=0\n",
      "note_off channel=0 note=102 velocity=64 time=0\n",
      "note_off channel=0 note=96 velocity=64 time=1\n",
      "note_on channel=0 note=51 velocity=75 time=1\n",
      "note_off channel=0 note=53 velocity=64 time=0\n",
      "note_on channel=0 note=98 velocity=17 time=0\n",
      "note_on channel=0 note=89 velocity=72 time=1\n",
      "note_off channel=0 note=90 velocity=64 time=0\n",
      "note_off channel=0 note=100 velocity=64 time=0\n",
      "note_off channel=0 note=68 velocity=64 time=1\n",
      "note_off channel=0 note=77 velocity=64 time=0\n",
      "note_off channel=0 note=88 velocity=64 time=0\n",
      "note_on channel=0 note=90 velocity=21 time=0\n",
      "note_on channel=0 note=100 velocity=33 time=0\n",
      "note_on channel=0 note=102 velocity=30 time=0\n",
      "note_on channel=0 note=48 velocity=89 time=1\n",
      "note_off channel=0 note=51 velocity=64 time=0\n",
      "note_on channel=0 note=78 velocity=34 time=0\n",
      "note_on channel=0 note=81 velocity=30 time=0\n",
      "note_on channel=0 note=73 velocity=31 time=1\n",
      "note_on channel=0 note=77 velocity=34 time=0\n",
      "note_on channel=0 note=46 velocity=68 time=1\n",
      "note_off channel=0 note=48 velocity=64 time=0\n",
      "note_on channel=0 note=49 velocity=75 time=0\n",
      "note_off channel=0 note=63 velocity=64 time=0\n",
      "note_off channel=0 note=71 velocity=64 time=0\n",
      "note_off channel=0 note=78 velocity=64 time=0\n",
      "note_off channel=0 note=81 velocity=64 time=0\n",
      "note_on channel=0 note=82 velocity=40 time=0\n",
      "note_off channel=0 note=83 velocity=64 time=0\n",
      "note_off channel=0 note=46 velocity=64 time=1\n",
      "note_off channel=0 note=49 velocity=64 time=0\n",
      "note_on channel=0 note=50 velocity=74 time=0\n",
      "note_on channel=0 note=61 velocity=60 time=0\n",
      "note_on channel=0 note=65 velocity=52 time=0\n",
      "note_on channel=0 note=71 velocity=40 time=0\n",
      "note_on channel=0 note=48 velocity=80 time=1\n",
      "note_off channel=0 note=50 velocity=64 time=0\n",
      "note_off channel=0 note=98 velocity=64 time=0\n",
      "note_on channel=0 note=67 velocity=41 time=1\n",
      "note_off channel=0 note=82 velocity=64 time=0\n",
      "note_on channel=0 note=83 velocity=55 time=0\n",
      "note_off channel=0 note=48 velocity=64 time=1\n",
      "note_on channel=0 note=49 velocity=76 time=0\n",
      "note_off channel=0 note=67 velocity=64 time=1\n",
      "note_on channel=0 note=68 velocity=57 time=0\n",
      "note_on channel=0 note=88 velocity=31 time=0\n",
      "note_off channel=0 note=89 velocity=64 time=0\n",
      "note_on channel=0 note=98 velocity=11 time=0\n",
      "note_on channel=0 note=48 velocity=72 time=1\n",
      "note_off channel=0 note=49 velocity=64 time=0\n",
      "note_off channel=0 note=61 velocity=64 time=0\n",
      "note_off channel=0 note=48 velocity=64 time=1\n",
      "note_on channel=0 note=49 velocity=63 time=0\n",
      "note_on channel=0 note=54 velocity=34 time=0\n",
      "note_on channel=0 note=61 velocity=69 time=0\n",
      "note_off channel=0 note=73 velocity=64 time=0\n",
      "note_off channel=0 note=85 velocity=64 time=0\n",
      "note_off channel=0 note=49 velocity=64 time=2\n",
      "note_off channel=0 note=54 velocity=64 time=0\n",
      "note_on channel=0 note=75 velocity=32 time=0\n",
      "note_off channel=0 note=77 velocity=64 time=0\n",
      "note_off channel=0 note=98 velocity=64 time=0\n",
      "note_off channel=0 note=88 velocity=64 time=1\n",
      "note_on channel=0 note=89 velocity=23 time=0\n",
      "note_on channel=0 note=48 velocity=63 time=1\n",
      "note_off channel=0 note=68 velocity=64 time=1\n",
      "note_off channel=0 note=48 velocity=64 time=1\n",
      "note_on channel=0 note=49 velocity=59 time=0\n",
      "note_on channel=0 note=68 velocity=57 time=0\n",
      "note_on channel=0 note=88 velocity=27 time=0\n",
      "note_off channel=0 note=89 velocity=64 time=1\n",
      "note_off channel=0 note=49 velocity=64 time=2\n",
      "note_off channel=0 note=100 velocity=64 time=0\n",
      "note_on channel=0 note=49 velocity=70 time=1\n",
      "note_on channel=0 note=96 velocity=40 time=0\n",
      "note_on channel=0 note=100 velocity=37 time=2\n",
      "note_on channel=0 note=99 velocity=24 time=1\n",
      "note_on channel=0 note=79 velocity=13 time=1\n",
      "note_on channel=0 note=97 velocity=37 time=0\n",
      "note_on channel=0 note=103 velocity=16 time=2\n",
      "note_off channel=0 note=79 velocity=64 time=2\n",
      "note_on channel=0 note=84 velocity=45 time=0\n",
      "note_on channel=0 note=89 velocity=70 time=0\n",
      "note_off channel=0 note=75 velocity=64 time=1\n",
      "note_on channel=0 note=76 velocity=47 time=0\n",
      "note_on channel=0 note=87 velocity=41 time=0\n",
      "note_off channel=0 note=88 velocity=64 time=0\n",
      "note_off channel=0 note=90 velocity=64 time=0\n",
      "note_on channel=0 note=91 velocity=14 time=0\n",
      "note_on channel=0 note=98 velocity=18 time=0\n",
      "note_on channel=0 note=48 velocity=81 time=1\n",
      "note_off channel=0 note=49 velocity=64 time=0\n",
      "note_off channel=0 note=65 velocity=64 time=0\n",
      "note_off channel=0 note=68 velocity=64 time=0\n",
      "note_off channel=0 note=71 velocity=64 time=0\n",
      "note_on channel=0 note=77 velocity=38 time=0\n",
      "note_on channel=0 note=90 velocity=36 time=0\n",
      "note_on channel=0 note=45 velocity=76 time=1\n",
      "note_off channel=0 note=48 velocity=64 time=0\n",
      "note_on channel=0 note=49 velocity=70 time=0\n",
      "note_on channel=0 note=75 velocity=42 time=0\n",
      "note_off channel=0 note=76 velocity=64 time=0\n",
      "note_off channel=0 note=103 velocity=64 time=0\n",
      "note_on channel=0 note=44 velocity=79 time=1\n",
      "note_off channel=0 note=45 velocity=64 time=0\n",
      "note_off channel=0 note=98 velocity=64 time=0\n",
      "note_off channel=0 note=99 velocity=64 time=0\n",
      "note_off channel=0 note=49 velocity=64 time=1\n",
      "note_off channel=0 note=61 velocity=64 time=0\n",
      "note_on channel=0 note=62 velocity=56 time=0\n",
      "note_on channel=0 note=71 velocity=44 time=0\n",
      "note_off channel=0 note=77 velocity=64 time=0\n",
      "note_on channel=0 note=82 velocity=29 time=0\n",
      "note_off channel=0 note=90 velocity=64 time=0\n",
      "note_on channel=0 note=43 velocity=74 time=1\n",
      "note_off channel=0 note=44 velocity=64 time=0\n",
      "note_on channel=0 note=50 velocity=68 time=0\n",
      "note_on channel=0 note=77 velocity=18 time=0\n",
      "note_off channel=0 note=84 velocity=64 time=0\n",
      "note_off channel=0 note=62 velocity=64 time=1\n",
      "note_off channel=0 note=71 velocity=64 time=0\n",
      "note_off channel=0 note=82 velocity=64 time=0\n",
      "note_off channel=0 note=87 velocity=64 time=0\n",
      "note_on channel=0 note=63 velocity=53 time=1\n",
      "note_on channel=0 note=68 velocity=37 time=0\n",
      "note_on channel=0 note=71 velocity=53 time=0\n",
      "note_off channel=0 note=75 velocity=64 time=0\n",
      "note_off channel=0 note=102 velocity=64 time=0\n",
      "note_off channel=0 note=50 velocity=64 time=1\n",
      "note_on channel=0 note=52 velocity=65 time=0\n",
      "note_off channel=0 note=77 velocity=64 time=0\n",
      "note_on channel=0 note=88 velocity=12 time=0\n",
      "note_off channel=0 note=93 velocity=64 time=0\n",
      "note_off channel=0 note=97 velocity=64 time=0\n",
      "note_off channel=0 note=101 velocity=64 time=0\n",
      "note_on channel=0 note=77 velocity=23 time=1\n",
      "note_off channel=0 note=63 velocity=64 time=1\n",
      "note_on channel=0 note=94 velocity=21 time=0\n",
      "note_off channel=0 note=96 velocity=64 time=0\n",
      "note_on channel=0 note=65 velocity=52 time=1\n",
      "note_on channel=0 note=87 velocity=16 time=0\n",
      "note_off channel=0 note=52 velocity=64 time=1\n",
      "note_on channel=0 note=53 velocity=69 time=0\n",
      "note_off channel=0 note=88 velocity=64 time=0\n",
      "note_off channel=0 note=89 velocity=64 time=0\n",
      "note_off channel=0 note=43 velocity=64 time=1\n",
      "note_on channel=0 note=75 velocity=53 time=0\n",
      "note_off channel=0 note=94 velocity=64 time=0\n",
      "note_off channel=0 note=53 velocity=64 time=1\n",
      "note_on channel=0 note=54 velocity=65 time=0\n",
      "note_off channel=0 note=65 velocity=64 time=0\n",
      "note_off channel=0 note=68 velocity=64 time=0\n",
      "note_on channel=0 note=73 velocity=47 time=0\n",
      "note_off channel=0 note=91 velocity=64 time=0\n",
      "note_on channel=0 note=94 velocity=25 time=0\n",
      "note_off channel=0 note=77 velocity=64 time=1\n",
      "note_on channel=0 note=96 velocity=21 time=0\n",
      "note_on channel=0 note=77 velocity=21 time=1\n",
      "note_off channel=0 note=54 velocity=64 time=1\n",
      "note_on channel=0 note=55 velocity=64 time=0\n",
      "note_on channel=0 note=67 velocity=66 time=0\n",
      "note_on channel=0 note=93 velocity=30 time=0\n",
      "note_off channel=0 note=94 velocity=64 time=0\n",
      "note_off channel=0 note=96 velocity=64 time=1\n",
      "note_on channel=0 note=65 velocity=32 time=1\n",
      "note_off channel=0 note=67 velocity=64 time=1\n",
      "note_on channel=0 note=68 velocity=68 time=0\n",
      "note_off channel=0 note=55 velocity=64 time=1\n",
      "note_on channel=0 note=56 velocity=68 time=0\n",
      "note_off channel=0 note=65 velocity=64 time=0\n",
      "note_off channel=0 note=93 velocity=64 time=0\n",
      "note_on channel=0 note=94 velocity=30 time=0\n",
      "note_on channel=0 note=65 velocity=33 time=1\n",
      "note_on channel=0 note=61 velocity=11 time=1\n",
      "note_on channel=0 note=93 velocity=18 time=0\n",
      "note_off channel=0 note=94 velocity=64 time=0\n",
      "note_off channel=0 note=100 velocity=64 time=0\n",
      "note_off channel=0 note=68 velocity=64 time=2\n",
      "note_off channel=0 note=61 velocity=64 time=1\n",
      "note_off channel=0 note=77 velocity=64 time=0\n",
      "note_off channel=0 note=87 velocity=64 time=0\n",
      "note_on channel=0 note=102 velocity=9 time=2\n",
      "note_on channel=0 note=62 velocity=89 time=1\n",
      "note_off channel=0 note=65 velocity=64 time=0\n",
      "note_on channel=0 note=67 velocity=55 time=0\n",
      "note_on channel=0 note=78 velocity=36 time=0\n",
      "note_on channel=0 note=89 velocity=49 time=0\n",
      "note_on channel=0 note=90 velocity=42 time=0\n",
      "note_on channel=0 note=91 velocity=28 time=0\n",
      "note_on channel=0 note=55 velocity=72 time=1\n",
      "note_off channel=0 note=56 velocity=64 time=0\n",
      "note_off channel=0 note=83 velocity=64 time=0\n",
      "note_on channel=0 note=84 velocity=41 time=0\n",
      "note_off channel=0 note=62 velocity=64 time=1\n",
      "note_on channel=0 note=63 velocity=94 time=0\n",
      "note_off channel=0 note=67 velocity=64 time=0\n",
      "note_on channel=0 note=68 velocity=77 time=0\n",
      "note_off channel=0 note=73 velocity=64 time=0\n",
      "note_on channel=0 note=83 velocity=58 time=0\n",
      "note_on channel=0 note=85 velocity=18 time=0\n",
      "note_off channel=0 note=78 velocity=64 time=1\n",
      "note_off channel=0 note=90 velocity=64 time=0\n",
      "note_off channel=0 note=91 velocity=64 time=0\n",
      "note_on channel=0 note=100 velocity=57 time=0\n",
      "note_off channel=0 note=55 velocity=64 time=1\n",
      "note_on channel=0 note=56 velocity=62 time=0\n",
      "note_off channel=0 note=89 velocity=64 time=0\n",
      "note_on channel=0 note=90 velocity=45 time=0\n",
      "note_off channel=0 note=93 velocity=64 time=0\n",
      "note_on channel=0 note=94 velocity=57 time=0\n",
      "note_off channel=0 note=102 velocity=64 time=0\n",
      "note_on channel=0 note=73 velocity=26 time=1\n",
      "note_on channel=0 note=89 velocity=46 time=0\n",
      "note_on channel=0 note=99 velocity=38 time=0\n",
      "note_off channel=0 note=84 velocity=64 time=1\n",
      "note_off channel=0 note=85 velocity=64 time=0\n",
      "note_off channel=0 note=90 velocity=64 time=0\n",
      "note_on channel=0 note=91 velocity=37 time=0\n",
      "note_on channel=0 note=96 velocity=28 time=1\n",
      "note_off channel=0 note=73 velocity=64 time=2\n",
      "note_on channel=0 note=77 velocity=39 time=0\n",
      "note_off channel=0 note=96 velocity=64 time=6\n",
      "note_on channel=0 note=96 velocity=20 time=2\n",
      "note_off channel=0 note=94 velocity=64 time=1\n",
      "note_on channel=0 note=97 velocity=28 time=0\n",
      "note_off channel=0 note=71 velocity=64 time=1\n",
      "note_on channel=0 note=93 velocity=12 time=1\n",
      "note_off channel=0 note=96 velocity=64 time=0\n",
      "note_on channel=0 note=96 velocity=17 time=2\n",
      "note_off channel=0 note=96 velocity=64 time=3\n",
      "note_on channel=0 note=87 velocity=69 time=1\n",
      "note_on channel=0 note=85 velocity=36 time=3\n",
      "note_on channel=0 note=90 velocity=40 time=0\n",
      "note_off channel=0 note=93 velocity=64 time=0\n",
      "note_on channel=0 note=94 velocity=44 time=0\n",
      "note_off channel=0 note=56 velocity=64 time=1\n",
      "note_on channel=0 note=62 velocity=79 time=0\n",
      "note_off channel=0 note=63 velocity=64 time=0\n",
      "note_on channel=0 note=73 velocity=46 time=0\n",
      "note_on channel=0 note=57 velocity=51 time=1\n",
      "note_off channel=0 note=68 velocity=64 time=0\n",
      "note_on channel=0 note=78 velocity=32 time=0\n",
      "note_on channel=0 note=82 velocity=63 time=0\n",
      "note_off channel=0 note=83 velocity=64 time=0\n",
      "note_off channel=0 note=62 velocity=64 time=1\n",
      "note_on channel=0 note=63 velocity=86 time=0\n",
      "note_on channel=0 note=68 velocity=53 time=0\n",
      "note_off channel=0 note=73 velocity=64 time=0\n",
      "note_on channel=0 note=84 velocity=52 time=0\n",
      "note_off channel=0 note=90 velocity=64 time=0\n",
      "note_on channel=0 note=56 velocity=53 time=1\n",
      "note_off channel=0 note=57 velocity=64 time=0\n",
      "note_off channel=0 note=78 velocity=64 time=0\n",
      "note_off channel=0 note=89 velocity=64 time=0\n",
      "note_on channel=0 note=90 velocity=63 time=0\n",
      "note_off channel=0 note=100 velocity=64 time=0\n",
      "note_on channel=0 note=73 velocity=20 time=1\n",
      "note_off channel=0 note=97 velocity=64 time=0\n",
      "note_off channel=0 note=99 velocity=64 time=0\n",
      "note_on channel=0 note=71 velocity=36 time=2\n",
      "note_off channel=0 note=82 velocity=64 time=2\n",
      "note_off channel=0 note=94 velocity=64 time=0\n",
      "note_off channel=0 note=56 velocity=64 time=1\n",
      "note_off channel=0 note=73 velocity=64 time=0\n",
      "note_on channel=0 note=83 velocity=85 time=0\n",
      "note_off channel=0 note=84 velocity=64 time=0\n",
      "note_on channel=0 note=89 velocity=76 time=0\n",
      "note_off channel=0 note=80 velocity=64 time=1\n",
      "note_on channel=0 note=56 velocity=41 time=2\n",
      "note_on channel=0 note=80 velocity=88 time=1\n",
      "note_off channel=0 note=90 velocity=64 time=1\n",
      "note_on channel=0 note=90 velocity=29 time=2\n",
      "note_off channel=0 note=91 velocity=64 time=0\n",
      "note_on channel=0 note=96 velocity=12 time=1\n",
      "note_off channel=0 note=56 velocity=64 time=1\n",
      "note_off channel=0 note=90 velocity=64 time=0\n",
      "note_on channel=0 note=91 velocity=34 time=0\n",
      "note_on channel=0 note=56 velocity=17 time=1\n",
      "note_off channel=0 note=56 velocity=64 time=3\n",
      "note_off channel=0 note=96 velocity=64 time=0\n",
      "note_off channel=0 note=68 velocity=64 time=7\n",
      "note_on channel=0 note=73 velocity=45 time=0\n",
      "note_off channel=0 note=75 velocity=64 time=0\n",
      "note_on channel=0 note=76 velocity=31 time=0\n",
      "note_off channel=0 note=77 velocity=64 time=0\n",
      "note_on channel=0 note=102 velocity=40 time=0\n",
      "note_on channel=0 note=67 velocity=53 time=1\n",
      "note_on channel=0 note=77 velocity=32 time=0\n",
      "note_on channel=0 note=55 velocity=62 time=1\n",
      "note_off channel=0 note=71 velocity=64 time=0\n",
      "note_on channel=0 note=74 velocity=65 time=0\n",
      "note_off channel=0 note=76 velocity=64 time=0\n",
      "note_on channel=0 note=78 velocity=24 time=0\n",
      "note_on channel=0 note=100 velocity=59 time=0\n",
      "note_off channel=0 note=67 velocity=64 time=1\n",
      "note_on channel=0 note=68 velocity=74 time=0\n",
      "note_on channel=0 note=72 velocity=34 time=0\n",
      "note_off channel=0 note=73 velocity=64 time=0\n",
      "note_off channel=0 note=77 velocity=64 time=0\n",
      "note_on channel=0 note=94 velocity=35 time=0\n",
      "note_off channel=0 note=55 velocity=64 time=1\n",
      "note_off channel=0 note=74 velocity=64 time=0\n",
      "note_on channel=0 note=77 velocity=25 time=0\n",
      "note_on channel=0 note=55 velocity=66 time=1\n",
      "note_on channel=0 note=67 velocity=76 time=0\n",
      "note_off channel=0 note=68 velocity=64 time=0\n",
      "note_on channel=0 note=71 velocity=27 time=0\n",
      "note_off channel=0 note=72 velocity=64 time=0\n",
      "note_off channel=0 note=78 velocity=64 time=0\n",
      "note_off channel=0 note=94 velocity=64 time=0\n",
      "note_off channel=0 note=67 velocity=64 time=1\n",
      "note_on channel=0 note=68 velocity=78 time=0\n",
      "note_on channel=0 note=94 velocity=45 time=0\n",
      "note_off channel=0 note=55 velocity=64 time=2\n",
      "note_on channel=0 note=56 velocity=64 time=0\n",
      "note_on channel=0 note=73 velocity=33 time=0\n",
      "note_off channel=0 note=91 velocity=64 time=0\n",
      "note_on channel=0 note=96 velocity=37 time=0\n",
      "note_off channel=0 note=102 velocity=64 time=0\n",
      "note_on channel=0 note=103 velocity=38 time=0\n",
      "note_off channel=0 note=63 velocity=64 time=1\n",
      "note_off channel=0 note=83 velocity=64 time=0\n",
      "note_on channel=0 note=84 velocity=64 time=0\n",
      "note_on channel=0 note=90 velocity=85 time=0\n",
      "note_on channel=0 note=13 velocity=29 time=1\n",
      "note_off channel=0 note=73 velocity=64 time=0\n",
      "note_off channel=0 note=77 velocity=64 time=0\n",
      "note_on channel=0 note=83 velocity=39 time=0\n",
      "note_off channel=0 note=85 velocity=64 time=0\n",
      "note_on channel=0 note=93 velocity=44 time=0\n",
      "note_on channel=0 note=98 velocity=19 time=0\n",
      "note_off channel=0 note=56 velocity=64 time=1\n",
      "note_on channel=0 note=57 velocity=64 time=0\n",
      "note_on channel=0 note=65 velocity=26 time=0\n",
      "note_off channel=0 note=68 velocity=64 time=0\n",
      "note_on channel=0 note=69 velocity=68 time=0\n",
      "note_off channel=0 note=71 velocity=64 time=0\n",
      "note_off channel=0 note=84 velocity=64 time=0\n",
      "note_on channel=0 note=85 velocity=50 time=0\n",
      "note_on channel=0 note=88 velocity=48 time=0\n",
      "note_off channel=0 note=13 velocity=64 time=1\n",
      "note_off channel=0 note=83 velocity=64 time=0\n",
      "note_off channel=0 note=89 velocity=64 time=0\n",
      "note_on channel=0 note=91 velocity=78 time=0\n",
      "note_off channel=0 note=94 velocity=64 time=0\n",
      "note_off channel=0 note=96 velocity=64 time=0\n",
      "note_on channel=0 note=76 velocity=65 time=1\n",
      "note_on channel=0 note=82 velocity=68 time=0\n",
      "note_on channel=0 note=84 velocity=31 time=0\n",
      "note_on channel=0 note=89 velocity=47 time=0\n",
      "note_off channel=0 note=93 velocity=64 time=0\n",
      "note_off channel=0 note=57 velocity=64 time=1\n",
      "note_off channel=0 note=69 velocity=64 time=0\n",
      "note_off channel=0 note=76 velocity=64 time=0\n",
      "note_off channel=0 note=91 velocity=64 time=0\n",
      "note_on channel=0 note=78 velocity=57 time=1\n",
      "note_off channel=0 note=90 velocity=64 time=0\n",
      "note_on channel=0 note=91 velocity=38 time=0\n",
      "note_on channel=0 note=93 velocity=70 time=0\n",
      "note_on channel=0 note=58 velocity=65 time=1\n",
      "note_on channel=0 note=70 velocity=73 time=0\n",
      "note_on channel=0 note=73 velocity=37 time=0\n",
      "note_off channel=0 note=84 velocity=64 time=0\n",
      "note_off channel=0 note=89 velocity=64 time=0\n",
      "note_on channel=0 note=95 velocity=37 time=0\n",
      "note_on channel=0 note=68 velocity=31 time=1\n",
      "note_on channel=0 note=77 velocity=54 time=0\n",
      "note_off channel=0 note=78 velocity=64 time=0\n",
      "note_on channel=0 note=84 velocity=32 time=0\n",
      "note_off channel=0 note=95 velocity=64 time=1\n",
      "note_on channel=0 note=102 velocity=37 time=0\n",
      "note_off channel=0 note=103 velocity=64 time=0\n",
      "note_on channel=0 note=57 velocity=62 time=1\n",
      "note_off channel=0 note=58 velocity=64 time=0\n",
      "note_off channel=0 note=68 velocity=64 time=0\n",
      "note_on channel=0 note=75 velocity=34 time=0\n",
      "note_on channel=0 note=95 velocity=57 time=0\n",
      "note_off channel=0 note=98 velocity=64 time=0\n",
      "note_on channel=0 note=69 velocity=79 time=1\n",
      "note_off channel=0 note=70 velocity=64 time=0\n",
      "note_on channel=0 note=76 velocity=65 time=0\n",
      "note_off channel=0 note=82 velocity=64 time=0\n",
      "note_off channel=0 note=87 velocity=64 time=0\n",
      "note_off channel=0 note=75 velocity=64 time=1\n",
      "note_on channel=0 note=82 velocity=41 time=0\n",
      "note_off channel=0 note=77 velocity=64 time=1\n",
      "note_off channel=0 note=80 velocity=64 time=0\n",
      "note_on channel=0 note=77 velocity=40 time=1\n",
      "note_on channel=0 note=90 velocity=40 time=0\n",
      "note_off channel=0 note=82 velocity=64 time=1\n",
      "note_off channel=0 note=77 velocity=64 time=1\n",
      "note_off channel=0 note=65 velocity=64 time=1\n",
      "note_off channel=0 note=85 velocity=64 time=0\n",
      "note_off channel=0 note=102 velocity=64 time=0\n",
      "note_on channel=0 note=56 velocity=61 time=1\n",
      "note_off channel=0 note=57 velocity=64 time=0\n",
      "note_on channel=0 note=65 velocity=54 time=0\n",
      "note_on channel=0 note=78 velocity=32 time=0\n",
      "note_on channel=0 note=86 velocity=18 time=0\n",
      "note_off channel=0 note=88 velocity=64 time=0\n",
      "note_on channel=0 note=67 velocity=53 time=1\n",
      "note_off channel=0 note=69 velocity=64 time=1\n",
      "note_off channel=0 note=78 velocity=64 time=0\n",
      "note_off channel=0 note=56 velocity=64 time=1\n",
      "note_on channel=0 note=57 velocity=71 time=0\n",
      "note_on channel=0 note=61 velocity=77 time=0\n",
      "note_off channel=0 note=65 velocity=64 time=0\n",
      "note_off channel=0 note=67 velocity=64 time=0\n",
      "note_on channel=0 note=80 velocity=47 time=0\n",
      "note_on channel=0 note=82 velocity=33 time=0\n",
      "note_on channel=0 note=87 velocity=24 time=0\n",
      "note_on channel=0 note=63 velocity=68 time=1\n",
      "note_off channel=0 note=73 velocity=64 time=0\n",
      "note_on channel=0 note=85 velocity=24 time=0\n",
      "note_off channel=0 note=100 velocity=64 time=0\n",
      "note_off channel=0 note=63 velocity=64 time=1\n",
      "note_on channel=0 note=55 velocity=59 time=1\n",
      "note_off channel=0 note=57 velocity=64 time=0\n",
      "note_off channel=0 note=61 velocity=64 time=0\n",
      "note_on channel=0 note=62 velocity=66 time=0\n",
      "note_on channel=0 note=65 velocity=54 time=0\n",
      "note_on channel=0 note=68 velocity=53 time=0\n",
      "note_off channel=0 note=86 velocity=64 time=0\n",
      "note_off channel=0 note=90 velocity=64 time=0\n",
      "note_off channel=0 note=95 velocity=64 time=0\n",
      "note_off channel=0 note=87 velocity=64 time=1\n",
      "note_on channel=0 note=90 velocity=73 time=0\n",
      "note_on channel=0 note=100 velocity=43 time=0\n",
      "note_off channel=0 note=55 velocity=64 time=1\n",
      "note_on channel=0 note=61 velocity=41 time=0\n",
      "note_off channel=0 note=62 velocity=64 time=0\n",
      "note_off channel=0 note=68 velocity=64 time=0\n",
      "note_on channel=0 note=69 velocity=78 time=0\n",
      "note_off channel=0 note=80 velocity=64 time=0\n",
      "note_off channel=0 note=82 velocity=64 time=0\n",
      "note_off channel=0 note=85 velocity=64 time=0\n",
      "note_on channel=0 note=95 velocity=40 time=0\n",
      "note_on channel=0 note=57 velocity=72 time=1\n",
      "note_on channel=0 note=72 velocity=26 time=0\n",
      "note_on channel=0 note=85 velocity=40 time=0\n",
      "note_off channel=0 note=91 velocity=64 time=0\n",
      "note_on channel=0 note=83 velocity=43 time=1\n",
      "note_off channel=0 note=84 velocity=64 time=0\n",
      "note_on channel=0 note=91 velocity=71 time=0\n",
      "note_on channel=0 note=98 velocity=11 time=0\n",
      "note_off channel=0 note=90 velocity=64 time=1\n",
      "note_off channel=0 note=72 velocity=64 time=1\n",
      "note_off channel=0 note=61 velocity=64 time=1\n",
      "note_on channel=0 note=84 velocity=13 time=0\n",
      "note_on channel=0 note=86 velocity=15 time=0\n",
      "note_off channel=0 note=98 velocity=64 time=0\n",
      "note_on channel=0 note=61 velocity=24 time=1\n",
      "note_on channel=0 note=87 velocity=42 time=0\n",
      "note_off channel=0 note=84 velocity=64 time=2\n",
      "note_off channel=0 note=86 velocity=64 time=0\n",
      "note_on channel=0 note=89 velocity=34 time=0\n",
      "note_off channel=0 note=61 velocity=64 time=1\n",
      "note_off channel=0 note=76 velocity=64 time=0\n",
      "note_on channel=0 note=78 velocity=16 time=0\n",
      "note_on channel=0 note=80 velocity=42 time=0\n",
      "note_on channel=0 note=82 velocity=59 time=0\n",
      "note_on channel=0 note=84 velocity=39 time=0\n",
      "note_on channel=0 note=90 velocity=40 time=0\n",
      "note_on channel=0 note=61 velocity=43 time=1\n",
      "note_on channel=0 note=64 velocity=48 time=0\n",
      "note_off channel=0 note=65 velocity=64 time=0\n",
      "note_off channel=0 note=83 velocity=64 time=0\n",
      "note_off channel=0 note=91 velocity=64 time=0\n",
      "note_on channel=0 note=92 velocity=66 time=0\n",
      "note_off channel=0 note=95 velocity=64 time=0\n",
      "note_on channel=0 note=102 velocity=40 time=0\n",
      "note_on channel=0 note=56 velocity=72 time=1\n",
      "note_off channel=0 note=57 velocity=64 time=0\n",
      "note_on channel=0 note=68 velocity=75 time=0\n",
      "note_off channel=0 note=69 velocity=64 time=0\n",
      "note_on channel=0 note=83 velocity=52 time=0\n",
      "note_on channel=0 note=86 velocity=20 time=0\n",
      "note_off channel=0 note=89 velocity=64 time=0\n",
      "note_on channel=0 note=91 velocity=32 time=0\n",
      "note_off channel=0 note=100 velocity=64 time=0\n",
      "note_off channel=0 note=61 velocity=64 time=1\n",
      "note_off channel=0 note=64 velocity=64 time=0\n",
      "note_on channel=0 note=65 velocity=38 time=0\n",
      "note_on channel=0 note=75 velocity=67 time=0\n",
      "note_off channel=0 note=82 velocity=64 time=0\n",
      "note_off channel=0 note=85 velocity=64 time=0\n",
      "note_on channel=0 note=89 velocity=48 time=0\n",
      "note_off channel=0 note=90 velocity=64 time=0\n",
      "note_off channel=0 note=78 velocity=64 time=1\n",
      "note_off channel=0 note=84 velocity=64 time=1\n",
      "note_on channel=0 note=85 velocity=35 time=0\n",
      "note_off channel=0 note=86 velocity=64 time=0\n",
      "note_off channel=0 note=102 velocity=64 time=0\n",
      "note_off channel=0 note=56 velocity=64 time=2\n",
      "note_off channel=0 note=80 velocity=64 time=0\n",
      "note_on channel=0 note=84 velocity=32 time=0\n",
      "note_off channel=0 note=93 velocity=64 time=0\n",
      "note_on channel=0 note=56 velocity=58 time=1\n",
      "note_off channel=0 note=91 velocity=64 time=0\n",
      "note_on channel=0 note=91 velocity=30 time=1\n",
      "note_on channel=0 note=77 velocity=43 time=1\n",
      "note_on channel=0 note=55 velocity=69 time=1\n",
      "note_off channel=0 note=56 velocity=64 time=0\n",
      "note_off channel=0 note=65 velocity=64 time=0\n",
      "note_off channel=0 note=84 velocity=64 time=0\n",
      "note_on channel=0 note=71 velocity=12 time=1\n",
      "note_on channel=0 note=84 velocity=39 time=0\n",
      "note_off channel=0 note=92 velocity=64 time=0\n",
      "note_on channel=0 note=93 velocity=38 time=0\n",
      "note_on channel=0 note=67 velocity=74 time=1\n",
      "note_off channel=0 note=68 velocity=64 time=0\n",
      "note_on channel=0 note=90 velocity=29 time=0\n",
      "note_off channel=0 note=91 velocity=64 time=0\n",
      "note_on channel=0 note=92 velocity=73 time=0\n",
      "note_on channel=0 note=91 velocity=29 time=1\n",
      "note_on channel=0 note=94 velocity=45 time=0\n",
      "note_off channel=0 note=55 velocity=64 time=1\n",
      "note_on channel=0 note=64 velocity=81 time=0\n",
      "note_off channel=0 note=71 velocity=64 time=0\n",
      "note_off channel=0 note=75 velocity=64 time=0\n",
      "note_on channel=0 note=88 velocity=37 time=0\n",
      "note_off channel=0 note=90 velocity=64 time=0\n",
      "note_on channel=0 note=45 velocity=77 time=1\n",
      "note_on channel=0 note=55 velocity=61 time=0\n",
      "note_off channel=0 note=67 velocity=64 time=0\n",
      "note_on channel=0 note=68 velocity=71 time=0\n",
      "note_on channel=0 note=73 velocity=33 time=0\n",
      "note_on channel=0 note=75 velocity=77 time=0\n",
      "note_off channel=0 note=89 velocity=64 time=0\n",
      "note_on channel=0 note=90 velocity=45 time=0\n",
      "note_on channel=0 note=63 velocity=74 time=1\n",
      "note_off channel=0 note=64 velocity=64 time=0\n",
      "note_on channel=0 note=89 velocity=53 time=0\n",
      "note_off channel=0 note=91 velocity=64 time=0\n",
      "note_off channel=0 note=93 velocity=64 time=0\n",
      "note_on channel=0 note=103 velocity=17 time=0\n",
      "note_on channel=0 note=44 velocity=79 time=1\n",
      "note_off channel=0 note=45 velocity=64 time=0\n",
      "note_off channel=0 note=55 velocity=64 time=0\n",
      "note_off channel=0 note=73 velocity=64 time=0\n",
      "note_on channel=0 note=78 velocity=20 time=0\n",
      "note_off channel=0 note=84 velocity=64 time=0\n",
      "note_off channel=0 note=88 velocity=64 time=0\n",
      "note_off channel=0 note=90 velocity=64 time=0\n",
      "note_on channel=0 note=91 velocity=68 time=0\n",
      "note_on channel=0 note=71 velocity=33 time=1\n",
      "note_off channel=0 note=77 velocity=64 time=0\n",
      "note_on channel=0 note=55 velocity=73 time=1\n",
      "note_off channel=0 note=63 velocity=64 time=0\n",
      "note_on channel=0 note=84 velocity=40 time=0\n",
      "note_on channel=0 note=90 velocity=36 time=0\n",
      "note_off channel=0 note=44 velocity=64 time=1\n",
      "note_on channel=0 note=45 velocity=65 time=0\n",
      "note_on channel=0 note=61 velocity=61 time=0\n",
      "note_off channel=0 note=78 velocity=64 time=0\n",
      "note_on channel=0 note=82 velocity=27 time=0\n",
      "note_off channel=0 note=83 velocity=64 time=0\n",
      "note_on channel=0 note=95 velocity=27 time=0\n",
      "note_off channel=0 note=103 velocity=64 time=0\n",
      "note_on channel=0 note=41 velocity=55 time=1\n",
      "note_off channel=0 note=45 velocity=64 time=0\n",
      "note_off channel=0 note=68 velocity=64 time=0\n",
      "note_on channel=0 note=83 velocity=44 time=0\n",
      "note_off channel=0 note=92 velocity=64 time=0\n",
      "note_off channel=0 note=84 velocity=64 time=1\n",
      "note_on channel=0 note=93 velocity=42 time=0\n",
      "note_off channel=0 note=94 velocity=64 time=0\n",
      "note_off channel=0 note=41 velocity=64 time=1\n",
      "note_on channel=0 note=74 velocity=62 time=0\n",
      "note_off channel=0 note=82 velocity=64 time=0\n",
      "note_on channel=0 note=84 velocity=21 time=0\n",
      "note_on channel=0 note=92 velocity=55 time=0\n",
      "note_off channel=0 note=75 velocity=64 time=1\n",
      "note_on channel=0 note=82 velocity=44 time=0\n",
      "note_off channel=0 note=83 velocity=64 time=0\n",
      "note_on channel=0 note=88 velocity=29 time=0\n",
      "note_off channel=0 note=90 velocity=64 time=0\n",
      "note_off channel=0 note=93 velocity=64 time=0\n",
      "note_on channel=0 note=66 velocity=59 time=1\n",
      "note_on channel=0 note=80 velocity=39 time=0\n",
      "note_on channel=0 note=90 velocity=68 time=0\n",
      "note_off channel=0 note=95 velocity=64 time=0\n",
      "note_on channel=0 note=42 velocity=55 time=1\n",
      "note_on channel=0 note=54 velocity=71 time=0\n",
      "note_off channel=0 note=55 velocity=64 time=0\n",
      "note_off channel=0 note=74 velocity=64 time=0\n",
      "note_on channel=0 note=83 velocity=33 time=1\n",
      "note_off channel=0 note=42 velocity=64 time=1\n",
      "note_off channel=0 note=88 velocity=64 time=0\n",
      "note_on channel=0 note=48 velocity=67 time=1\n",
      "note_off channel=0 note=82 velocity=64 time=0\n",
      "note_on channel=0 note=88 velocity=32 time=0\n",
      "note_on channel=0 note=75 velocity=20 time=1\n",
      "note_on channel=0 note=77 velocity=47 time=0\n",
      "note_on channel=0 note=82 velocity=40 time=0\n",
      "note_off channel=0 note=91 velocity=64 time=0\n",
      "note_on channel=0 note=47 velocity=73 time=1\n",
      "note_off channel=0 note=48 velocity=64 time=0\n",
      "note_off channel=0 note=83 velocity=64 time=0\n",
      "note_off channel=0 note=47 velocity=64 time=1\n",
      "note_on channel=0 note=48 velocity=71 time=0\n",
      "note_off channel=0 note=48 velocity=64 time=1\n",
      "note_on channel=0 note=49 velocity=72 time=0\n",
      "note_off channel=0 note=66 velocity=64 time=0\n",
      "note_on channel=0 note=67 velocity=48 time=0\n",
      "note_on channel=0 note=78 velocity=41 time=0\n",
      "note_off channel=0 note=84 velocity=64 time=0\n",
      "note_on channel=0 note=91 velocity=10 time=0\n",
      "note_on channel=0 note=93 velocity=19 time=0\n",
      "note_on channel=0 note=96 velocity=12 time=0\n",
      "note_off channel=0 note=49 velocity=64 time=1\n",
      "note_on channel=0 note=53 velocity=85 time=0\n",
      "note_off channel=0 note=54 velocity=64 time=0\n",
      "note_off channel=0 note=71 velocity=64 time=0\n",
      "note_on channel=0 note=72 velocity=45 time=0\n",
      "note_on channel=0 note=83 velocity=75 time=0\n",
      "note_off channel=0 note=88 velocity=64 time=0\n",
      "note_on channel=0 note=71 velocity=51 time=1\n",
      "note_off channel=0 note=78 velocity=64 time=0\n",
      "note_off channel=0 note=85 velocity=64 time=0\n",
      "note_on channel=0 note=86 velocity=18 time=0\n",
      "note_on channel=0 note=88 velocity=41 time=0\n",
      "note_off channel=0 note=92 velocity=64 time=0\n",
      "note_off channel=0 note=53 velocity=64 time=1\n",
      "note_on channel=0 note=54 velocity=79 time=0\n",
      "note_off channel=0 note=67 velocity=64 time=0\n",
      "note_off channel=0 note=72 velocity=64 time=0\n",
      "note_off channel=0 note=89 velocity=64 time=0\n",
      "note_on channel=0 note=79 velocity=32 time=1\n",
      "note_off channel=0 note=82 velocity=64 time=0\n",
      "note_off channel=0 note=96 velocity=64 time=0\n",
      "note_on channel=0 note=67 velocity=59 time=1\n",
      "note_off channel=0 note=90 velocity=64 time=0\n",
      "note_off channel=0 note=54 velocity=64 time=1\n",
      "note_off channel=0 note=80 velocity=64 time=0\n",
      "note_off channel=0 note=86 velocity=64 time=0\n",
      "note_off channel=0 note=67 velocity=64 time=1\n",
      "note_on channel=0 note=68 velocity=68 time=0\n",
      "note_off channel=0 note=79 velocity=64 time=0\n",
      "note_off channel=0 note=91 velocity=64 time=0\n",
      "note_on channel=0 note=55 velocity=70 time=1\n",
      "note_off channel=0 note=75 velocity=64 time=0\n",
      "note_off channel=0 note=61 velocity=64 time=1\n",
      "note_on channel=0 note=75 velocity=46 time=0\n",
      "note_on channel=0 note=63 velocity=68 time=1\n",
      "note_on channel=0 note=74 velocity=43 time=0\n",
      "note_on channel=0 note=45 velocity=78 time=1\n",
      "note_off channel=0 note=63 velocity=64 time=0\n",
      "note_on channel=0 note=64 velocity=81 time=0\n",
      "note_off channel=0 note=68 velocity=64 time=0\n",
      "note_off channel=0 note=75 velocity=64 time=0\n",
      "note_on channel=0 note=85 velocity=51 time=0\n",
      "note_off channel=0 note=88 velocity=64 time=0\n",
      "note_on channel=0 note=90 velocity=38 time=0\n",
      "note_on channel=0 note=84 velocity=22 time=1\n",
      "note_on channel=0 note=44 velocity=79 time=1\n",
      "note_off channel=0 note=45 velocity=64 time=0\n",
      "note_off channel=0 note=55 velocity=64 time=0\n",
      "note_on channel=0 note=63 velocity=71 time=0\n",
      "note_off channel=0 note=64 velocity=64 time=0\n",
      "note_on channel=0 note=66 velocity=61 time=0\n",
      "note_on channel=0 note=69 velocity=40 time=0\n",
      "note_off channel=0 note=71 velocity=64 time=0\n",
      "note_on channel=0 note=73 velocity=48 time=0\n",
      "note_off channel=0 note=74 velocity=64 time=0\n",
      "note_off channel=0 note=77 velocity=64 time=0\n",
      "note_on channel=0 note=82 velocity=59 time=0\n",
      "note_on channel=0 note=71 velocity=49 time=1\n",
      "note_on channel=0 note=77 velocity=27 time=0\n",
      "note_on channel=0 note=54 velocity=73 time=1\n",
      "note_off channel=0 note=69 velocity=64 time=0\n",
      "note_off channel=0 note=83 velocity=64 time=0\n",
      "note_off channel=0 note=63 velocity=64 time=1\n",
      "note_off channel=0 note=44 velocity=64 time=1\n",
      "note_off channel=0 note=77 velocity=64 time=1\n",
      "note_on channel=0 note=80 velocity=33 time=0\n",
      "note_on channel=0 note=81 velocity=49 time=3\n",
      "note_off channel=0 note=82 velocity=64 time=0\n",
      "note_off channel=0 note=84 velocity=64 time=0\n",
      "note_off channel=0 note=90 velocity=64 time=0\n",
      "note_on channel=0 note=42 velocity=56 time=1\n",
      "note_on channel=0 note=53 velocity=72 time=0\n",
      "note_off channel=0 note=54 velocity=64 time=0\n",
      "note_on channel=0 note=61 velocity=68 time=0\n",
      "note_off channel=0 note=66 velocity=64 time=0\n",
      "note_off channel=0 note=53 velocity=64 time=1\n",
      "note_on channel=0 note=54 velocity=74 time=0\n",
      "note_off channel=0 note=81 velocity=64 time=0\n",
      "note_on channel=0 note=82 velocity=51 time=0\n",
      "note_on channel=0 note=84 velocity=13 time=0\n",
      "note_on channel=0 note=88 velocity=18 time=2\n",
      "note_on channel=0 note=77 velocity=23 time=4\n",
      "note_off channel=0 note=84 velocity=64 time=1\n",
      "note_on channel=0 note=53 velocity=71 time=1\n",
      "note_off channel=0 note=54 velocity=64 time=0\n",
      "note_off channel=0 note=71 velocity=64 time=0\n",
      "note_off channel=0 note=73 velocity=64 time=0\n",
      "note_off channel=0 note=80 velocity=64 time=0\n",
      "note_on channel=0 note=81 velocity=33 time=0\n",
      "note_off channel=0 note=82 velocity=64 time=0\n",
      "note_off channel=0 note=85 velocity=64 time=0\n",
      "note_off channel=0 note=88 velocity=64 time=0\n",
      "note_on channel=0 note=68 velocity=33 time=1\n",
      "note_on channel=0 note=71 velocity=56 time=0\n",
      "note_on channel=0 note=85 velocity=27 time=0\n",
      "note_on channel=0 note=88 velocity=20 time=0\n",
      "note_on channel=0 note=52 velocity=74 time=1\n",
      "note_off channel=0 note=53 velocity=64 time=0\n",
      "note_off channel=0 note=77 velocity=64 time=0\n",
      "note_on channel=0 note=78 velocity=19 time=0\n",
      "note_on channel=0 note=80 velocity=86 time=0\n",
      "note_off channel=0 note=81 velocity=64 time=0\n",
      "note_on channel=0 note=82 velocity=38 time=0\n",
      "note_off channel=0 note=87 velocity=64 time=0\n",
      "note_off channel=0 note=85 velocity=64 time=2\n",
      "note_on channel=0 note=87 velocity=41 time=0\n",
      "note_off channel=0 note=78 velocity=64 time=1\n",
      "note_off channel=0 note=82 velocity=64 time=0\n",
      "note_on channel=0 note=85 velocity=47 time=0\n",
      "note_off channel=0 note=42 velocity=64 time=1\n",
      "note_on channel=0 note=84 velocity=27 time=1\n",
      "note_off channel=0 note=88 velocity=64 time=0\n",
      "note_on channel=0 note=89 velocity=74 time=0\n",
      "note_on channel=0 note=91 velocity=15 time=1\n",
      "note_on channel=0 note=95 velocity=49 time=0\n",
      "note_on channel=0 note=47 velocity=80 time=1\n",
      "note_off channel=0 note=52 velocity=64 time=0\n",
      "note_off channel=0 note=68 velocity=64 time=0\n",
      "note_on channel=0 note=75 velocity=51 time=0\n",
      "note_on channel=0 note=78 velocity=46 time=0\n",
      "note_on channel=0 note=94 velocity=25 time=0\n",
      "note_off channel=0 note=47 velocity=64 time=1\n",
      "note_on channel=0 note=48 velocity=85 time=0\n",
      "note_on channel=0 note=67 velocity=49 time=0\n",
      "note_off channel=0 note=71 velocity=64 time=0\n",
      "note_off channel=0 note=84 velocity=64 time=0\n",
      "note_on channel=0 note=71 velocity=60 time=1\n",
      "note_on channel=0 note=77 velocity=33 time=0\n",
      "note_on channel=0 note=82 velocity=37 time=0\n",
      "note_off channel=0 note=48 velocity=64 time=1\n",
      "note_on channel=0 note=50 velocity=75 time=0\n",
      "note_off channel=0 note=61 velocity=64 time=0\n",
      "note_off channel=0 note=67 velocity=64 time=0\n",
      "note_on channel=0 note=68 velocity=48 time=0\n",
      "note_on channel=0 note=84 velocity=19 time=0\n",
      "note_off channel=0 note=91 velocity=64 time=0\n",
      "note_on channel=0 note=100 velocity=30 time=0\n",
      "note_off channel=0 note=50 velocity=64 time=1\n",
      "note_on channel=0 note=52 velocity=71 time=0\n",
      "note_off channel=0 note=78 velocity=64 time=0\n",
      "note_off channel=0 note=82 velocity=64 time=0\n",
      "note_off channel=0 note=93 velocity=64 time=0\n",
      "note_on channel=0 note=98 velocity=24 time=0\n",
      "note_on channel=0 note=88 velocity=42 time=2\n",
      "note_off channel=0 note=94 velocity=64 time=0\n",
      "note_on channel=0 note=102 velocity=9 time=0\n",
      "note_on channel=0 note=51 velocity=73 time=1\n",
      "note_off channel=0 note=52 velocity=64 time=0\n",
      "note_off channel=0 note=51 velocity=64 time=1\n",
      "note_on channel=0 note=52 velocity=78 time=0\n",
      "note_on channel=0 note=65 velocity=56 time=2\n",
      "note_on channel=0 note=73 velocity=17 time=1\n",
      "note_off channel=0 note=89 velocity=64 time=0\n",
      "note_on channel=0 note=93 velocity=60 time=1\n",
      "note_off channel=0 note=65 velocity=64 time=1\n",
      "note_off channel=0 note=85 velocity=64 time=0\n",
      "note_on channel=0 note=91 velocity=21 time=1\n",
      "note_off channel=0 note=84 velocity=64 time=1\n",
      "note_on channel=0 note=90 velocity=32 time=0\n",
      "note_on channel=0 note=65 velocity=48 time=1\n",
      "note_off channel=0 note=73 velocity=64 time=1\n",
      "note_on channel=0 note=43 velocity=22 time=1\n",
      "note_off channel=0 note=98 velocity=64 time=0\n",
      "note_off channel=0 note=100 velocity=64 time=0\n",
      "note_off channel=0 note=102 velocity=64 time=1\n",
      "note_off channel=0 note=43 velocity=64 time=2\n",
      "note_on channel=0 note=51 velocity=35 time=4\n",
      "note_off channel=0 note=52 velocity=64 time=0\n",
      "note_off channel=0 note=87 velocity=64 time=0\n",
      "note_off channel=0 note=51 velocity=64 time=2\n",
      "note_on channel=0 note=53 velocity=40 time=0\n",
      "note_off channel=0 note=77 velocity=64 time=1\n",
      "note_on channel=0 note=84 velocity=44 time=0\n",
      "note_off channel=0 note=91 velocity=64 time=0\n",
      "note_off channel=0 note=53 velocity=64 time=1\n",
      "note_off channel=0 note=65 velocity=64 time=0\n",
      "note_off channel=0 note=88 velocity=64 time=0\n",
      "note_on channel=0 note=89 velocity=68 time=0\n",
      "note_off channel=0 note=90 velocity=64 time=0\n",
      "note_on channel=0 note=45 velocity=77 time=1\n",
      "note_on channel=0 note=67 velocity=49 time=0\n",
      "note_off channel=0 note=68 velocity=64 time=0\n",
      "note_on channel=0 note=69 velocity=48 time=0\n",
      "note_on channel=0 note=85 velocity=38 time=0\n",
      "note_on channel=0 note=90 velocity=33 time=0\n",
      "note_on channel=0 note=91 velocity=13 time=0\n",
      "note_on channel=0 note=56 velocity=35 time=1\n",
      "note_on channel=0 note=63 velocity=40 time=0\n",
      "note_off channel=0 note=71 velocity=64 time=0\n",
      "note_on channel=0 note=73 velocity=23 time=0\n",
      "note_on channel=0 note=78 velocity=35 time=0\n",
      "note_on channel=0 note=82 velocity=40 time=0\n",
      "note_on channel=0 note=44 velocity=77 time=1\n",
      "note_off channel=0 note=45 velocity=64 time=0\n",
      "note_on channel=0 note=71 velocity=47 time=0\n",
      "note_on channel=0 note=86 velocity=14 time=0\n",
      "note_off channel=0 note=56 velocity=64 time=1\n",
      "note_off channel=0 note=67 velocity=64 time=0\n",
      "note_on channel=0 note=68 velocity=42 time=0\n",
      "note_off channel=0 note=69 velocity=64 time=0\n",
      "note_on channel=0 note=77 velocity=22 time=0\n",
      "note_on channel=0 note=88 velocity=38 time=0\n",
      "note_on channel=0 note=43 velocity=74 time=1\n",
      "note_off channel=0 note=44 velocity=64 time=0\n",
      "note_off channel=0 note=63 velocity=64 time=0\n",
      "note_off channel=0 note=78 velocity=64 time=0\n",
      "note_off channel=0 note=86 velocity=64 time=1\n",
      "note_off channel=0 note=90 velocity=64 time=0\n",
      "note_on channel=0 note=53 velocity=30 time=1\n",
      "note_on channel=0 note=65 velocity=44 time=0\n",
      "note_on channel=0 note=90 velocity=58 time=0\n",
      "note_on channel=0 note=61 velocity=34 time=1\n",
      "note_off channel=0 note=84 velocity=64 time=0\n",
      "note_off channel=0 note=89 velocity=64 time=0\n",
      "note_off channel=0 note=53 velocity=64 time=1\n",
      "note_off channel=0 note=77 velocity=64 time=0\n",
      "note_off channel=0 note=91 velocity=64 time=0\n",
      "note_off channel=0 note=61 velocity=64 time=2\n",
      "note_on channel=0 note=77 velocity=50 time=0\n",
      "note_on channel=0 note=61 velocity=13 time=1\n",
      "note_off channel=0 note=43 velocity=64 time=1\n",
      "note_on channel=0 note=44 velocity=17 time=0\n",
      "note_off channel=0 note=61 velocity=64 time=2\n",
      "note_off channel=0 note=44 velocity=64 time=1\n",
      "note_off channel=0 note=85 velocity=64 time=0\n",
      "note_off channel=0 note=82 velocity=64 time=1\n",
      "note_on channel=0 note=82 velocity=32 time=1\n",
      "note_on channel=0 note=83 velocity=47 time=2\n",
      "note_off channel=0 note=82 velocity=64 time=1\n",
      "note_on channel=0 note=91 velocity=23 time=0\n",
      "note_off channel=0 note=91 velocity=64 time=3\n",
      "note_off channel=0 note=95 velocity=64 time=0\n",
      "note_on channel=0 note=60 velocity=54 time=1\n",
      "note_on channel=0 note=91 velocity=36 time=0\n",
      "note_on channel=0 note=49 velocity=68 time=1\n",
      "note_off channel=0 note=73 velocity=64 time=0\n",
      "note_on channel=0 note=67 velocity=41 time=1\n",
      "note_off channel=0 note=68 velocity=64 time=0\n",
      "note_off channel=0 note=88 velocity=64 time=0\n",
      "note_on channel=0 note=88 velocity=24 time=1\n",
      "note_on channel=0 note=48 velocity=79 time=1\n",
      "note_off channel=0 note=49 velocity=64 time=0\n",
      "note_off channel=0 note=60 velocity=64 time=0\n",
      "note_on channel=0 note=64 velocity=78 time=0\n",
      "note_off channel=0 note=65 velocity=64 time=0\n",
      "note_off channel=0 note=67 velocity=64 time=0\n",
      "note_off channel=0 note=71 velocity=64 time=0\n",
      "note_on channel=0 note=73 velocity=64 time=0\n",
      "note_on channel=0 note=67 velocity=65 time=1\n",
      "note_off channel=0 note=91 velocity=64 time=0\n",
      "note_on channel=0 note=94 velocity=34 time=0\n",
      "note_on channel=0 note=97 velocity=28 time=0\n",
      "note_on channel=0 note=45 velocity=74 time=1\n",
      "note_off channel=0 note=48 velocity=64 time=0\n",
      "note_on channel=0 note=49 velocity=65 time=0\n",
      "note_on channel=0 note=63 velocity=76 time=0\n",
      "note_off channel=0 note=64 velocity=64 time=0\n",
      "note_off channel=0 note=75 velocity=64 time=0\n",
      "note_on channel=0 note=82 velocity=52 time=0\n",
      "note_off channel=0 note=83 velocity=64 time=0\n",
      "note_off channel=0 note=88 velocity=64 time=0\n",
      "note_on channel=0 note=43 velocity=79 time=1\n",
      "note_off channel=0 note=45 velocity=64 time=0\n",
      "note_off channel=0 note=49 velocity=64 time=0\n",
      "note_on channel=0 note=69 velocity=42 time=0\n",
      "note_on channel=0 note=87 velocity=29 time=0\n",
      "note_on channel=0 note=96 velocity=26 time=0\n",
      "note_off channel=0 note=43 velocity=64 time=1\n",
      "note_on channel=0 note=45 velocity=80 time=0\n",
      "note_off channel=0 note=67 velocity=64 time=0\n",
      "note_off channel=0 note=94 velocity=64 time=0\n",
      "note_on channel=0 note=95 velocity=35 time=0\n",
      "note_on channel=0 note=43 velocity=74 time=1\n",
      "note_off channel=0 note=45 velocity=64 time=0\n",
      "note_on channel=0 note=49 velocity=84 time=0\n",
      "note_off channel=0 note=63 velocity=64 time=0\n",
      "note_on channel=0 note=68 velocity=41 time=0\n",
      "note_off channel=0 note=69 velocity=64 time=0\n",
      "note_off channel=0 note=82 velocity=64 time=0\n",
      "note_on channel=0 note=83 velocity=59 time=0\n",
      "note_on channel=0 note=100 velocity=21 time=0\n",
      "note_off channel=0 note=43 velocity=64 time=1\n",
      "note_on channel=0 note=65 velocity=49 time=0\n",
      "note_on channel=0 note=88 velocity=30 time=0\n",
      "note_on channel=0 note=48 velocity=82 time=1\n",
      "note_off channel=0 note=49 velocity=64 time=0\n",
      "note_off channel=0 note=48 velocity=64 time=1\n",
      "note_on channel=0 note=49 velocity=78 time=0\n",
      "note_on channel=0 note=75 velocity=26 time=0\n",
      "note_off channel=0 note=88 velocity=64 time=0\n",
      "note_on channel=0 note=94 velocity=38 time=2\n",
      "note_off channel=0 note=95 velocity=64 time=0\n",
      "note_off channel=0 note=87 velocity=64 time=2\n",
      "note_off channel=0 note=68 velocity=64 time=1\n",
      "note_off channel=0 note=75 velocity=64 time=0\n",
      "note_on channel=0 note=81 velocity=33 time=0\n",
      "note_on channel=0 note=87 velocity=22 time=0\n",
      "note_off channel=0 note=49 velocity=64 time=1\n",
      "note_on channel=0 note=50 velocity=79 time=0\n",
      "note_on channel=0 note=61 velocity=58 time=0\n",
      "note_off channel=0 note=65 velocity=64 time=0\n",
      "note_on channel=0 note=68 velocity=29 time=0\n",
      "note_on channel=0 note=84 velocity=24 time=0\n",
      "note_on channel=0 note=49 velocity=76 time=1\n",
      "note_off channel=0 note=50 velocity=64 time=0\n",
      "note_on channel=0 note=75 velocity=46 time=0\n",
      "note_on channel=0 note=66 velocity=70 time=1\n",
      "note_off channel=0 note=68 velocity=64 time=0\n",
      "note_on channel=0 note=72 velocity=56 time=0\n",
      "note_off channel=0 note=73 velocity=64 time=0\n",
      "note_off channel=0 note=81 velocity=64 time=0\n",
      "note_on channel=0 note=48 velocity=74 time=1\n",
      "note_off channel=0 note=49 velocity=64 time=0\n",
      "note_on channel=0 note=53 velocity=73 time=0\n",
      "note_off channel=0 note=94 velocity=64 time=0\n",
      "note_off channel=0 note=97 velocity=64 time=0\n",
      "note_on channel=0 note=47 velocity=67 time=1\n",
      "note_off channel=0 note=48 velocity=64 time=0\n",
      "note_off channel=0 note=53 velocity=64 time=0\n",
      "note_on channel=0 note=54 velocity=71 time=0\n",
      "note_off channel=0 note=72 velocity=64 time=0\n",
      "note_off channel=0 note=84 velocity=64 time=0\n",
      "note_on channel=0 note=94 velocity=32 time=0\n",
      "note_off channel=0 note=47 velocity=64 time=1\n",
      "note_on channel=0 note=48 velocity=66 time=0\n",
      "note_off channel=0 note=87 velocity=64 time=0\n",
      "note_off channel=0 note=93 velocity=64 time=0\n",
      "note_off channel=0 note=100 velocity=64 time=0\n",
      "note_off channel=0 note=48 velocity=64 time=1\n",
      "note_on channel=0 note=49 velocity=71 time=0\n",
      "note_off channel=0 note=54 velocity=64 time=0\n",
      "note_on channel=0 note=55 velocity=78 time=0\n",
      "note_off channel=0 note=75 velocity=64 time=0\n",
      "note_on channel=0 note=91 velocity=53 time=0\n",
      "note_off channel=0 note=49 velocity=64 time=1\n",
      "note_on channel=0 note=50 velocity=68 time=0\n",
      "note_off channel=0 note=66 velocity=64 time=0\n",
      "note_on channel=0 note=74 velocity=63 time=0\n",
      "note_off channel=0 note=80 velocity=64 time=0\n",
      "note_on channel=0 note=93 velocity=66 time=0\n",
      "note_off channel=0 note=50 velocity=64 time=1\n",
      "note_on channel=0 note=65 velocity=41 time=0\n",
      "note_off channel=0 note=94 velocity=64 time=0\n",
      "note_on channel=0 note=71 velocity=23 time=1\n",
      "note_off channel=0 note=74 velocity=64 time=0\n",
      "note_on channel=0 note=75 velocity=72 time=0\n",
      "note_on channel=0 note=88 velocity=29 time=0\n",
      "note_off channel=0 note=90 velocity=64 time=0\n",
      "note_off channel=0 note=61 velocity=64 time=1\n",
      "note_off channel=0 note=65 velocity=64 time=0\n",
      "note_on channel=0 note=74 velocity=77 time=0\n",
      "note_off channel=0 note=75 velocity=64 time=0\n",
      "note_on channel=0 note=98 velocity=21 time=0\n",
      "note_on channel=0 note=61 velocity=17 time=1\n",
      "note_on channel=0 note=90 velocity=66 time=0\n",
      "note_off channel=0 note=71 velocity=64 time=1\n",
      "note_on channel=0 note=73 velocity=76 time=0\n",
      "note_off channel=0 note=74 velocity=64 time=0\n",
      "note_on channel=0 note=82 velocity=48 time=0\n",
      "note_off channel=0 note=83 velocity=64 time=0\n",
      "note_off channel=0 note=91 velocity=64 time=0\n",
      "note_on channel=0 note=92 velocity=65 time=0\n",
      "note_on channel=0 note=54 velocity=71 time=1\n",
      "note_off channel=0 note=55 velocity=64 time=0\n",
      "note_on channel=0 note=91 velocity=61 time=0\n",
      "note_on channel=0 note=53 velocity=74 time=1\n",
      "note_off channel=0 note=54 velocity=64 time=0\n",
      "note_on channel=0 note=72 velocity=59 time=0\n",
      "note_off channel=0 note=82 velocity=64 time=0\n",
      "note_on channel=0 note=87 velocity=37 time=0\n",
      "note_on channel=0 note=89 velocity=53 time=0\n",
      "note_off channel=0 note=61 velocity=64 time=1\n",
      "note_on channel=0 note=80 velocity=55 time=0\n",
      "note_on channel=0 note=86 velocity=28 time=0\n",
      "note_off channel=0 note=88 velocity=64 time=0\n",
      "note_off channel=0 note=93 velocity=64 time=0\n",
      "note_on channel=0 note=51 velocity=66 time=1\n",
      "note_off channel=0 note=53 velocity=64 time=0\n",
      "note_on channel=0 note=63 velocity=72 time=0\n",
      "note_on channel=0 note=71 velocity=61 time=0\n"
     ]
    },
    {
     "name": "stdout",
     "output_type": "stream",
     "text": [
      "note_off channel=0 note=72 velocity=64 time=0\n",
      "note_off channel=0 note=73 velocity=64 time=0\n",
      "note_on channel=0 note=76 velocity=50 time=0\n",
      "note_on channel=0 note=83 velocity=63 time=0\n",
      "note_on channel=0 note=45 velocity=76 time=1\n",
      "note_off channel=0 note=51 velocity=64 time=0\n",
      "note_on channel=0 note=52 velocity=77 time=0\n",
      "note_on channel=0 note=68 velocity=61 time=0\n",
      "note_off channel=0 note=77 velocity=64 time=0\n",
      "note_off channel=0 note=91 velocity=64 time=0\n",
      "note_on channel=0 note=93 velocity=42 time=0\n",
      "note_on channel=0 note=44 velocity=79 time=1\n",
      "note_off channel=0 note=45 velocity=64 time=0\n",
      "note_on channel=0 note=77 velocity=43 time=0\n",
      "note_off channel=0 note=68 velocity=64 time=1\n",
      "note_off channel=0 note=77 velocity=64 time=1\n",
      "note_off channel=0 note=44 velocity=64 time=1\n",
      "note_on channel=0 note=45 velocity=77 time=0\n",
      "note_off channel=0 note=63 velocity=64 time=0\n",
      "note_off channel=0 note=93 velocity=64 time=0\n",
      "note_off channel=0 note=96 velocity=64 time=0\n",
      "note_on channel=0 note=97 velocity=18 time=0\n",
      "note_off channel=0 note=98 velocity=64 time=1\n",
      "note_on channel=0 note=61 velocity=50 time=1\n",
      "note_on channel=0 note=65 velocity=54 time=0\n",
      "note_off channel=0 note=71 velocity=64 time=0\n",
      "note_on channel=0 note=72 velocity=56 time=0\n",
      "note_on channel=0 note=81 velocity=37 time=0\n",
      "note_off channel=0 note=92 velocity=64 time=0\n",
      "note_on channel=0 note=44 velocity=70 time=1\n",
      "note_off channel=0 note=45 velocity=64 time=0\n",
      "note_off channel=0 note=52 velocity=64 time=0\n",
      "note_on channel=0 note=53 velocity=70 time=0\n",
      "note_off channel=0 note=80 velocity=64 time=0\n",
      "note_off channel=0 note=86 velocity=64 time=0\n",
      "note_off channel=0 note=97 velocity=64 time=0\n",
      "note_on channel=0 note=43 velocity=64 time=1\n",
      "note_off channel=0 note=44 velocity=64 time=0\n",
      "note_on channel=0 note=67 velocity=69 time=0\n",
      "note_on channel=0 note=78 velocity=22 time=0\n",
      "note_off channel=0 note=81 velocity=64 time=0\n",
      "note_on channel=0 note=85 velocity=42 time=0\n",
      "note_off channel=0 note=53 velocity=64 time=1\n",
      "note_on channel=0 note=54 velocity=76 time=0\n",
      "note_off channel=0 note=65 velocity=64 time=0\n",
      "note_on channel=0 note=75 velocity=23 time=0\n",
      "note_on channel=0 note=91 velocity=42 time=0\n",
      "note_on channel=0 note=42 velocity=59 time=1\n",
      "note_off channel=0 note=43 velocity=64 time=0\n",
      "note_off channel=0 note=61 velocity=64 time=0\n",
      "note_off channel=0 note=72 velocity=64 time=0\n",
      "note_off channel=0 note=76 velocity=64 time=0\n",
      "note_on channel=0 note=82 velocity=51 time=0\n",
      "note_on channel=0 note=61 velocity=58 time=1\n",
      "note_off channel=0 note=78 velocity=64 time=0\n",
      "note_off channel=0 note=42 velocity=64 time=1\n",
      "note_off channel=0 note=54 velocity=64 time=0\n",
      "note_on channel=0 note=55 velocity=72 time=0\n",
      "note_on channel=0 note=71 velocity=33 time=0\n",
      "note_on channel=0 note=77 velocity=30 time=0\n",
      "note_off channel=0 note=82 velocity=64 time=0\n",
      "note_off channel=0 note=90 velocity=64 time=0\n",
      "note_on channel=0 note=48 velocity=69 time=2\n",
      "note_off channel=0 note=55 velocity=64 time=0\n",
      "note_on channel=0 note=56 velocity=65 time=0\n",
      "note_off channel=0 note=67 velocity=64 time=0\n",
      "note_on channel=0 note=74 velocity=67 time=0\n",
      "note_off channel=0 note=75 velocity=64 time=0\n",
      "note_on channel=0 note=93 velocity=22 time=0\n",
      "note_on channel=0 note=67 velocity=70 time=1\n",
      "note_off channel=0 note=87 velocity=64 time=0\n",
      "note_on channel=0 note=47 velocity=74 time=1\n",
      "note_off channel=0 note=48 velocity=64 time=0\n",
      "note_on channel=0 note=55 velocity=72 time=0\n",
      "note_off channel=0 note=56 velocity=64 time=0\n",
      "note_off channel=0 note=47 velocity=64 time=1\n",
      "note_on channel=0 note=48 velocity=69 time=0\n",
      "note_on channel=0 note=80 velocity=41 time=0\n",
      "note_on channel=0 note=87 velocity=23 time=0\n",
      "note_off channel=0 note=48 velocity=64 time=1\n",
      "note_on channel=0 note=54 velocity=75 time=0\n",
      "note_off channel=0 note=55 velocity=64 time=0\n",
      "note_on channel=0 note=82 velocity=58 time=0\n",
      "note_off channel=0 note=83 velocity=64 time=0\n",
      "note_off channel=0 note=85 velocity=64 time=0\n",
      "note_on channel=0 note=88 velocity=53 time=0\n",
      "note_off channel=0 note=93 velocity=64 time=0\n",
      "note_on channel=0 note=50 velocity=76 time=1\n",
      "note_off channel=0 note=54 velocity=64 time=0\n",
      "note_on channel=0 note=73 velocity=77 time=0\n",
      "note_off channel=0 note=74 velocity=64 time=0\n",
      "note_on channel=0 note=78 velocity=42 time=0\n",
      "note_on channel=0 note=90 velocity=58 time=0\n",
      "note_off channel=0 note=91 velocity=64 time=0\n",
      "note_on channel=0 note=49 velocity=55 time=1\n",
      "note_off channel=0 note=50 velocity=64 time=0\n",
      "note_on channel=0 note=66 velocity=66 time=0\n",
      "note_off channel=0 note=67 velocity=64 time=0\n",
      "note_off channel=0 note=87 velocity=64 time=0\n",
      "note_on channel=0 note=55 velocity=66 time=1\n",
      "note_off channel=0 note=49 velocity=64 time=1\n",
      "note_off channel=0 note=61 velocity=64 time=0\n",
      "note_off channel=0 note=77 velocity=64 time=0\n",
      "note_on channel=0 note=54 velocity=72 time=1\n",
      "note_off channel=0 note=55 velocity=64 time=0\n",
      "note_on channel=0 note=77 velocity=33 time=0\n",
      "note_on channel=0 note=96 velocity=26 time=1\n",
      "note_off channel=0 note=78 velocity=64 time=1\n",
      "note_on channel=0 note=79 velocity=52 time=0\n",
      "note_off channel=0 note=90 velocity=64 time=0\n",
      "note_on channel=0 note=91 velocity=52 time=0\n",
      "note_off channel=0 note=80 velocity=64 time=1\n",
      "note_on channel=0 note=83 velocity=53 time=0\n",
      "note_on channel=0 note=86 velocity=29 time=0\n",
      "note_off channel=0 note=89 velocity=64 time=0\n",
      "note_on channel=0 note=90 velocity=30 time=0\n",
      "note_on channel=0 note=93 velocity=20 time=0\n",
      "note_off channel=0 note=54 velocity=64 time=1\n",
      "note_on channel=0 note=55 velocity=67 time=0\n",
      "note_off channel=0 note=66 velocity=64 time=0\n",
      "note_on channel=0 note=89 velocity=67 time=0\n",
      "note_on channel=0 note=48 velocity=88 time=1\n",
      "note_off channel=0 note=73 velocity=64 time=0\n",
      "note_on channel=0 note=75 velocity=54 time=0\n",
      "note_off channel=0 note=77 velocity=64 time=0\n",
      "note_off channel=0 note=79 velocity=64 time=0\n",
      "note_on channel=0 note=80 velocity=86 time=0\n",
      "note_off channel=0 note=82 velocity=64 time=0\n",
      "note_on channel=0 note=99 velocity=15 time=0\n",
      "note_off channel=0 note=55 velocity=64 time=1\n",
      "note_on channel=0 note=56 velocity=56 time=0\n",
      "note_on channel=0 note=64 velocity=57 time=0\n",
      "note_off channel=0 note=71 velocity=64 time=0\n",
      "note_on channel=0 note=73 velocity=36 time=0\n",
      "note_on channel=0 note=71 velocity=42 time=1\n",
      "note_off channel=0 note=75 velocity=64 time=0\n",
      "note_off channel=0 note=88 velocity=64 time=0\n",
      "note_on channel=0 note=63 velocity=47 time=1\n",
      "note_off channel=0 note=64 velocity=64 time=0\n",
      "note_on channel=0 note=67 velocity=39 time=0\n",
      "note_on channel=0 note=77 velocity=30 time=0\n",
      "note_off channel=0 note=86 velocity=64 time=0\n",
      "note_off channel=0 note=90 velocity=64 time=0\n",
      "note_off channel=0 note=93 velocity=64 time=0\n",
      "note_off channel=0 note=96 velocity=64 time=0\n",
      "note_off channel=0 note=99 velocity=64 time=0\n",
      "note_off channel=0 note=48 velocity=64 time=1\n",
      "note_off channel=0 note=56 velocity=64 time=1\n",
      "note_off channel=0 note=63 velocity=64 time=0\n",
      "note_off channel=0 note=67 velocity=64 time=0\n",
      "note_on channel=0 note=48 velocity=66 time=1\n",
      "note_on channel=0 note=54 velocity=46 time=0\n",
      "note_off channel=0 note=48 velocity=64 time=1\n",
      "note_on channel=0 note=68 velocity=56 time=0\n",
      "note_on channel=0 note=93 velocity=48 time=0\n",
      "note_on channel=0 note=45 velocity=61 time=1\n",
      "note_off channel=0 note=54 velocity=64 time=0\n",
      "note_on channel=0 note=55 velocity=68 time=0\n",
      "note_on channel=0 note=61 velocity=34 time=0\n",
      "note_on channel=0 note=67 velocity=69 time=2\n",
      "note_off channel=0 note=68 velocity=64 time=0\n",
      "note_off channel=0 note=73 velocity=64 time=0\n",
      "note_on channel=0 note=74 velocity=72 time=0\n",
      "note_on channel=0 note=44 velocity=52 time=1\n",
      "note_off channel=0 note=45 velocity=64 time=0\n",
      "note_on channel=0 note=65 velocity=28 time=2\n",
      "note_on channel=0 note=97 velocity=23 time=0\n",
      "note_off channel=0 note=55 velocity=64 time=1\n",
      "note_off channel=0 note=67 velocity=64 time=0\n",
      "note_on channel=0 note=68 velocity=64 time=0\n",
      "note_off channel=0 note=74 velocity=64 time=0\n",
      "note_on channel=0 note=75 velocity=65 time=0\n",
      "note_off channel=0 note=91 velocity=64 time=0\n",
      "note_off channel=0 note=93 velocity=64 time=0\n",
      "note_on channel=0 note=94 velocity=49 time=0\n",
      "note_off channel=0 note=61 velocity=64 time=1\n",
      "note_on channel=0 note=85 velocity=29 time=0\n",
      "note_on channel=0 note=91 velocity=33 time=0\n",
      "note_on channel=0 note=43 velocity=33 time=1\n",
      "note_off channel=0 note=44 velocity=64 time=0\n",
      "note_on channel=0 note=55 velocity=72 time=1\n",
      "note_off channel=0 note=68 velocity=64 time=0\n",
      "note_on channel=0 note=74 velocity=62 time=0\n",
      "note_off channel=0 note=75 velocity=64 time=0\n",
      "note_on channel=0 note=93 velocity=51 time=0\n",
      "note_off channel=0 note=94 velocity=64 time=0\n",
      "note_on channel=0 note=102 velocity=16 time=0\n",
      "note_off channel=0 note=65 velocity=64 time=1\n",
      "note_on channel=0 note=96 velocity=14 time=0\n",
      "note_on channel=0 note=54 velocity=76 time=1\n",
      "note_off channel=0 note=55 velocity=64 time=0\n",
      "note_on channel=0 note=73 velocity=63 time=0\n",
      "note_off channel=0 note=74 velocity=64 time=0\n",
      "note_on channel=0 note=82 velocity=49 time=0\n",
      "note_off channel=0 note=83 velocity=64 time=0\n",
      "note_on channel=0 note=95 velocity=44 time=0\n",
      "note_off channel=0 note=43 velocity=64 time=1\n",
      "note_on channel=0 note=61 velocity=13 time=0\n",
      "note_off channel=0 note=71 velocity=64 time=0\n",
      "note_off channel=0 note=93 velocity=64 time=0\n",
      "note_on channel=0 note=68 velocity=35 time=1\n",
      "note_off channel=0 note=77 velocity=64 time=0\n",
      "note_on channel=0 note=81 velocity=31 time=0\n",
      "note_off channel=0 note=82 velocity=64 time=0\n",
      "note_on channel=0 note=83 velocity=57 time=0\n",
      "note_on channel=0 note=93 velocity=54 time=0\n",
      "note_on channel=0 note=53 velocity=76 time=1\n",
      "note_off channel=0 note=54 velocity=64 time=0\n",
      "note_off channel=0 note=85 velocity=64 time=0\n",
      "note_off channel=0 note=53 velocity=64 time=1\n",
      "note_on channel=0 note=54 velocity=75 time=0\n",
      "note_off channel=0 note=61 velocity=64 time=0\n",
      "note_off channel=0 note=97 velocity=64 time=0\n",
      "note_off channel=0 note=102 velocity=64 time=0\n",
      "note_on channel=0 note=53 velocity=75 time=1\n",
      "note_off channel=0 note=54 velocity=64 time=0\n",
      "note_on channel=0 note=72 velocity=46 time=0\n",
      "note_off channel=0 note=73 velocity=64 time=0\n",
      "note_off channel=0 note=68 velocity=64 time=1\n",
      "note_off channel=0 note=81 velocity=64 time=0\n",
      "note_off channel=0 note=96 velocity=64 time=0\n",
      "note_off channel=0 note=93 velocity=64 time=1\n",
      "note_on channel=0 note=94 velocity=41 time=2\n",
      "note_off channel=0 note=95 velocity=64 time=0\n",
      "note_on channel=0 note=52 velocity=68 time=1\n",
      "note_off channel=0 note=53 velocity=64 time=0\n",
      "note_on channel=0 note=62 velocity=54 time=0\n",
      "note_on channel=0 note=69 velocity=50 time=0\n",
      "note_on channel=0 note=76 velocity=46 time=0\n",
      "note_off channel=0 note=91 velocity=64 time=0\n",
      "note_on channel=0 note=93 velocity=39 time=0\n",
      "note_on channel=0 note=48 velocity=68 time=1\n",
      "note_off channel=0 note=52 velocity=64 time=0\n",
      "note_off channel=0 note=72 velocity=64 time=0\n",
      "note_on channel=0 note=84 velocity=42 time=0\n",
      "note_on channel=0 note=91 velocity=62 time=0\n",
      "note_off channel=0 note=94 velocity=64 time=0\n",
      "note_on channel=0 note=98 velocity=9 time=0\n",
      "note_on channel=0 note=45 velocity=76 time=1\n",
      "note_off channel=0 note=48 velocity=64 time=0\n",
      "note_on channel=0 note=52 velocity=71 time=0\n",
      "note_off channel=0 note=62 velocity=64 time=0\n",
      "note_on channel=0 note=63 velocity=61 time=0\n",
      "note_on channel=0 note=67 velocity=52 time=0\n",
      "note_on channel=0 note=71 velocity=52 time=0\n",
      "note_on channel=0 note=73 velocity=30 time=0\n",
      "note_on channel=0 note=82 velocity=74 time=0\n",
      "note_on channel=0 note=90 velocity=40 time=0\n",
      "note_on channel=0 note=102 velocity=47 time=0\n",
      "note_on channel=0 note=44 velocity=77 time=1\n",
      "note_off channel=0 note=45 velocity=64 time=0\n",
      "note_off channel=0 note=69 velocity=64 time=0\n",
      "note_on channel=0 note=77 velocity=31 time=0\n",
      "note_off channel=0 note=83 velocity=64 time=0\n",
      "note_on channel=0 note=100 velocity=33 time=0\n",
      "note_on channel=0 note=51 velocity=69 time=1\n",
      "note_off channel=0 note=52 velocity=64 time=0\n",
      "note_on channel=0 note=70 velocity=53 time=0\n",
      "note_off channel=0 note=71 velocity=64 time=0\n",
      "note_off channel=0 note=76 velocity=64 time=0\n",
      "note_off channel=0 note=84 velocity=64 time=0\n",
      "note_off channel=0 note=77 velocity=64 time=1\n",
      "note_off channel=0 note=90 velocity=64 time=0\n",
      "note_on channel=0 note=43 velocity=74 time=1\n",
      "note_off channel=0 note=44 velocity=64 time=0\n",
      "note_off channel=0 note=73 velocity=64 time=0\n",
      "note_off channel=0 note=89 velocity=64 time=0\n",
      "note_off channel=0 note=51 velocity=64 time=1\n",
      "note_off channel=0 note=67 velocity=64 time=0\n",
      "note_on channel=0 note=73 velocity=17 time=0\n",
      "note_off channel=0 note=82 velocity=64 time=0\n",
      "note_on channel=0 note=83 velocity=78 time=0\n",
      "note_on channel=0 note=88 velocity=60 time=0\n",
      "note_on channel=0 note=89 velocity=66 time=0\n",
      "note_off channel=0 note=100 velocity=64 time=0\n",
      "note_on channel=0 note=51 velocity=63 time=1\n",
      "note_off channel=0 note=63 velocity=64 time=0\n",
      "note_on channel=0 note=64 velocity=52 time=0\n",
      "note_off channel=0 note=70 velocity=64 time=0\n",
      "note_on channel=0 note=71 velocity=50 time=0\n",
      "note_on channel=0 note=76 velocity=57 time=0\n",
      "note_on channel=0 note=90 velocity=58 time=0\n",
      "note_off channel=0 note=91 velocity=64 time=0\n",
      "note_off channel=0 note=98 velocity=64 time=1\n",
      "note_off channel=0 note=51 velocity=64 time=1\n",
      "note_on channel=0 note=52 velocity=71 time=0\n",
      "note_on channel=0 note=68 velocity=15 time=0\n",
      "note_on channel=0 note=91 velocity=32 time=0\n",
      "note_off channel=0 note=43 velocity=64 time=3\n",
      "note_off channel=0 note=68 velocity=64 time=0\n",
      "note_off channel=0 note=91 velocity=64 time=3\n",
      "note_off channel=0 note=64 velocity=64 time=1\n",
      "note_on channel=0 note=65 velocity=45 time=0\n",
      "note_off channel=0 note=73 velocity=64 time=0\n",
      "note_off channel=0 note=90 velocity=64 time=0\n",
      "note_on channel=0 note=91 velocity=43 time=0\n",
      "note_off channel=0 note=71 velocity=64 time=1\n",
      "note_on channel=0 note=72 velocity=48 time=0\n",
      "note_off channel=0 note=83 velocity=64 time=0\n",
      "note_on channel=0 note=84 velocity=49 time=0\n",
      "note_on channel=0 note=87 velocity=44 time=0\n",
      "note_on channel=0 note=90 velocity=33 time=0\n",
      "note_off channel=0 note=52 velocity=64 time=1\n",
      "note_on channel=0 note=53 velocity=69 time=0\n",
      "note_off channel=0 note=65 velocity=64 time=0\n",
      "note_on channel=0 note=66 velocity=61 time=0\n",
      "note_on channel=0 note=73 velocity=65 time=0\n",
      "note_on channel=0 note=82 velocity=55 time=0\n",
      "note_off channel=0 note=88 velocity=64 time=0\n",
      "note_off channel=0 note=89 velocity=64 time=0\n",
      "note_off channel=0 note=91 velocity=64 time=0\n",
      "note_off channel=0 note=53 velocity=64 time=1\n",
      "note_on channel=0 note=54 velocity=70 time=0\n",
      "note_on channel=0 note=71 velocity=37 time=0\n",
      "note_off channel=0 note=72 velocity=64 time=0\n",
      "note_off channel=0 note=84 velocity=64 time=0\n",
      "note_off channel=0 note=93 velocity=64 time=0\n",
      "note_off channel=0 note=87 velocity=64 time=1\n",
      "note_off channel=0 note=90 velocity=64 time=0\n",
      "note_on channel=0 note=91 velocity=36 time=0\n",
      "note_off channel=0 note=102 velocity=64 time=0\n",
      "note_off channel=0 note=66 velocity=64 time=1\n",
      "note_on channel=0 note=78 velocity=50 time=0\n",
      "note_on channel=0 note=89 velocity=53 time=0\n",
      "note_on channel=0 note=61 velocity=13 time=1\n",
      "note_on channel=0 note=87 velocity=33 time=0\n",
      "note_off channel=0 note=91 velocity=64 time=0\n",
      "note_on channel=0 note=75 velocity=29 time=1\n",
      "note_off channel=0 note=76 velocity=64 time=0\n",
      "note_on channel=0 note=83 velocity=44 time=0\n",
      "note_on channel=0 note=53 velocity=69 time=2\n",
      "note_off channel=0 note=54 velocity=64 time=0\n",
      "note_off channel=0 note=71 velocity=64 time=0\n",
      "note_on channel=0 note=77 velocity=48 time=0\n",
      "note_off channel=0 note=78 velocity=64 time=0\n",
      "note_off channel=0 note=80 velocity=64 time=0\n",
      "note_on channel=0 note=81 velocity=38 time=0\n",
      "note_on channel=0 note=84 velocity=42 time=0\n",
      "note_on channel=0 note=91 velocity=28 time=0\n",
      "note_on channel=0 note=80 velocity=57 time=1\n",
      "note_off channel=0 note=82 velocity=64 time=0\n",
      "note_off channel=0 note=61 velocity=64 time=2\n",
      "note_on channel=0 note=71 velocity=42 time=0\n",
      "note_off channel=0 note=81 velocity=64 time=0\n",
      "note_on channel=0 note=82 velocity=49 time=0\n",
      "note_off channel=0 note=53 velocity=64 time=1\n",
      "note_on channel=0 note=54 velocity=68 time=0\n",
      "note_on channel=0 note=64 velocity=79 time=0\n",
      "note_off channel=0 note=75 velocity=64 time=0\n",
      "note_off channel=0 note=83 velocity=64 time=0\n",
      "note_off channel=0 note=84 velocity=64 time=0\n",
      "note_off channel=0 note=87 velocity=64 time=0\n",
      "note_off channel=0 note=91 velocity=64 time=0\n",
      "note_on channel=0 note=45 velocity=77 time=1\n",
      "note_off channel=0 note=54 velocity=64 time=0\n",
      "note_on channel=0 note=55 velocity=69 time=0\n",
      "note_on channel=0 note=68 velocity=56 time=0\n",
      "note_off channel=0 note=71 velocity=64 time=0\n",
      "note_off channel=0 note=73 velocity=64 time=0\n",
      "note_on channel=0 note=74 velocity=65 time=0\n",
      "note_off channel=0 note=82 velocity=64 time=0\n",
      "note_on channel=0 note=83 velocity=50 time=0\n",
      "note_on channel=0 note=87 velocity=31 time=0\n",
      "note_on channel=0 note=91 velocity=31 time=0\n",
      "note_on channel=0 note=44 velocity=79 time=1\n",
      "note_off channel=0 note=45 velocity=64 time=0\n",
      "note_on channel=0 note=63 velocity=72 time=0\n",
      "note_off channel=0 note=64 velocity=64 time=0\n",
      "note_on channel=0 note=78 velocity=39 time=0\n",
      "note_on channel=0 note=90 velocity=52 time=0\n",
      "note_off channel=0 note=77 velocity=64 time=1\n",
      "note_on channel=0 note=84 velocity=46 time=0\n",
      "note_off channel=0 note=55 velocity=64 time=1\n",
      "note_on channel=0 note=71 velocity=55 time=0\n",
      "note_off channel=0 note=74 velocity=64 time=0\n",
      "note_on channel=0 note=77 velocity=35 time=0\n",
      "note_off channel=0 note=78 velocity=64 time=0\n",
      "note_on channel=0 note=86 velocity=11 time=0\n",
      "note_off channel=0 note=44 velocity=64 time=2\n",
      "note_on channel=0 note=46 velocity=65 time=0\n",
      "note_on channel=0 note=61 velocity=61 time=0\n",
      "note_off channel=0 note=63 velocity=64 time=0\n",
      "note_off channel=0 note=89 velocity=64 time=0\n",
      "note_on channel=0 note=41 velocity=58 time=1\n",
      "note_off channel=0 note=46 velocity=64 time=0\n",
      "note_on channel=0 note=67 velocity=67 time=0\n",
      "note_off channel=0 note=68 velocity=64 time=0\n",
      "note_on channel=0 note=82 velocity=57 time=0\n",
      "note_off channel=0 note=84 velocity=64 time=0\n",
      "note_on channel=0 note=89 velocity=49 time=0\n",
      "note_off channel=0 note=90 velocity=64 time=0\n",
      "note_on channel=0 note=55 velocity=65 time=1\n",
      "note_off channel=0 note=41 velocity=64 time=1\n",
      "note_on channel=0 note=43 velocity=64 time=0\n",
      "note_on channel=0 note=54 velocity=73 time=0\n",
      "note_off channel=0 note=55 velocity=64 time=0\n",
      "note_on channel=0 note=78 velocity=38 time=0\n",
      "note_off channel=0 note=83 velocity=64 time=0\n",
      "note_on channel=0 note=85 velocity=49 time=0\n",
      "note_off channel=0 note=86 velocity=64 time=0\n",
      "note_off channel=0 note=87 velocity=64 time=0\n",
      "note_on channel=0 note=90 velocity=54 time=0\n",
      "note_off channel=0 note=91 velocity=64 time=0\n",
      "note_on channel=0 note=92 velocity=60 time=0\n",
      "note_off channel=0 note=67 velocity=64 time=1\n",
      "note_on channel=0 note=73 velocity=63 time=0\n",
      "note_on channel=0 note=88 velocity=35 time=0\n",
      "note_on channel=0 note=42 velocity=57 time=1\n",
      "note_off channel=0 note=43 velocity=64 time=0\n",
      "note_off channel=0 note=78 velocity=64 time=0\n",
      "note_off channel=0 note=89 velocity=64 time=0\n",
      "note_on channel=0 note=95 velocity=21 time=0\n",
      "note_off channel=0 note=77 velocity=64 time=1\n",
      "note_on channel=0 note=87 velocity=28 time=1\n",
      "note_off channel=0 note=42 velocity=64 time=1\n",
      "note_on channel=0 note=53 velocity=70 time=0\n",
      "note_off channel=0 note=54 velocity=64 time=0\n",
      "note_on channel=0 note=103 velocity=9 time=0\n",
      "note_on channel=0 note=47 velocity=65 time=1\n",
      "note_off channel=0 note=53 velocity=64 time=0\n",
      "note_on channel=0 note=54 velocity=67 time=0\n",
      "note_on channel=0 note=81 velocity=35 time=0\n",
      "note_off channel=0 note=82 velocity=64 time=0\n",
      "note_off channel=0 note=47 velocity=64 time=1\n",
      "note_on channel=0 note=48 velocity=73 time=0\n",
      "note_off channel=0 note=88 velocity=64 time=0\n",
      "note_on channel=0 note=93 velocity=46 time=0\n",
      "note_on channel=0 note=53 velocity=80 time=1\n",
      "note_off channel=0 note=54 velocity=64 time=0\n",
      "note_on channel=0 note=68 velocity=35 time=0\n",
      "note_on channel=0 note=77 velocity=42 time=0\n",
      "note_on channel=0 note=86 velocity=18 time=0\n",
      "note_on channel=0 note=88 velocity=36 time=0\n",
      "note_off channel=0 note=73 velocity=64 time=1\n",
      "note_on channel=0 note=84 velocity=33 time=0\n",
      "note_off channel=0 note=85 velocity=64 time=0\n",
      "note_off channel=0 note=103 velocity=64 time=0\n",
      "note_off channel=0 note=48 velocity=64 time=1\n",
      "note_off channel=0 note=61 velocity=64 time=0\n",
      "note_off channel=0 note=71 velocity=64 time=0\n",
      "note_on channel=0 note=72 velocity=54 time=0\n",
      "note_off channel=0 note=81 velocity=64 time=0\n",
      "note_on channel=0 note=91 velocity=23 time=0\n",
      "note_off channel=0 note=92 velocity=64 time=0\n",
      "note_on channel=0 note=94 velocity=37 time=0\n",
      "note_off channel=0 note=95 velocity=64 time=0\n",
      "note_on channel=0 note=96 velocity=33 time=0\n",
      "note_on channel=0 note=51 velocity=85 time=1\n",
      "note_off channel=0 note=53 velocity=64 time=0\n",
      "note_on channel=0 note=64 velocity=47 time=0\n",
      "note_off channel=0 note=84 velocity=64 time=0\n",
      "note_off channel=0 note=87 velocity=64 time=0\n",
      "note_off channel=0 note=51 velocity=64 time=1\n",
      "note_on channel=0 note=52 velocity=82 time=0\n",
      "note_on channel=0 note=73 velocity=33 time=0\n",
      "note_on channel=0 note=82 velocity=24 time=0\n",
      "note_off channel=0 note=93 velocity=64 time=0\n",
      "note_on channel=0 note=71 velocity=56 time=1\n",
      "note_off channel=0 note=72 velocity=64 time=0\n",
      "note_off channel=0 note=77 velocity=64 time=0\n",
      "note_on channel=0 note=98 velocity=36 time=0\n",
      "note_on channel=0 note=51 velocity=74 time=1\n",
      "note_off channel=0 note=52 velocity=64 time=0\n",
      "note_on channel=0 note=77 velocity=40 time=0\n",
      "note_on channel=0 note=84 velocity=13 time=0\n",
      "note_off channel=0 note=86 velocity=64 time=0\n",
      "note_on channel=0 note=101 velocity=48 time=0\n",
      "note_on channel=0 note=86 velocity=23 time=1\n",
      "note_off channel=0 note=90 velocity=64 time=0\n",
      "note_off channel=0 note=94 velocity=64 time=0\n",
      "note_on channel=0 note=99 velocity=17 time=0\n",
      "note_off channel=0 note=51 velocity=64 time=1\n",
      "note_on channel=0 note=52 velocity=80 time=0\n",
      "note_on channel=0 note=61 velocity=23 time=0\n",
      "note_off channel=0 note=82 velocity=64 time=0\n",
      "note_off channel=0 note=84 velocity=64 time=1\n",
      "note_off channel=0 note=91 velocity=64 time=0\n",
      "note_off channel=0 note=96 velocity=64 time=1\n",
      "note_off channel=0 note=61 velocity=64 time=1\n",
      "note_on channel=0 note=103 velocity=16 time=0\n",
      "note_on channel=0 note=51 velocity=73 time=1\n",
      "note_off channel=0 note=52 velocity=64 time=0\n",
      "note_off channel=0 note=64 velocity=64 time=0\n",
      "note_on channel=0 note=65 velocity=66 time=0\n",
      "note_off channel=0 note=68 velocity=64 time=0\n",
      "note_off channel=0 note=73 velocity=64 time=0\n",
      "note_on channel=0 note=87 velocity=15 time=0\n",
      "note_on channel=0 note=90 velocity=43 time=0\n",
      "note_on channel=0 note=45 velocity=78 time=1\n",
      "note_off channel=0 note=51 velocity=64 time=0\n",
      "note_on channel=0 note=52 velocity=78 time=0\n",
      "note_off channel=0 note=65 velocity=64 time=0\n",
      "note_on channel=0 note=67 velocity=66 time=0\n",
      "note_on channel=0 note=84 velocity=31 time=0\n",
      "note_on channel=0 note=63 velocity=71 time=1\n",
      "note_off channel=0 note=67 velocity=64 time=0\n",
      "note_on channel=0 note=68 velocity=58 time=0\n",
      "note_on channel=0 note=97 velocity=39 time=0\n",
      "note_on channel=0 note=44 velocity=79 time=1\n",
      "note_off channel=0 note=45 velocity=64 time=0\n",
      "note_on channel=0 note=73 velocity=39 time=0\n",
      "note_off channel=0 note=99 velocity=64 time=0\n",
      "note_off channel=0 note=68 velocity=64 time=1\n",
      "note_off channel=0 note=77 velocity=64 time=0\n",
      "note_off channel=0 note=86 velocity=64 time=0\n",
      "note_off channel=0 note=90 velocity=64 time=0\n",
      "note_off channel=0 note=103 velocity=64 time=0\n",
      "note_off channel=0 note=52 velocity=64 time=1\n",
      "note_off channel=0 note=71 velocity=64 time=0\n",
      "note_on channel=0 note=52 velocity=66 time=1\n",
      "note_off channel=0 note=44 velocity=64 time=1\n",
      "note_on channel=0 note=51 velocity=70 time=0\n",
      "note_off channel=0 note=52 velocity=64 time=0\n",
      "note_on channel=0 note=68 velocity=31 time=0\n",
      "note_on channel=0 note=70 velocity=53 time=0\n",
      "note_on channel=0 note=77 velocity=22 time=0\n",
      "note_on channel=0 note=79 velocity=30 time=0\n",
      "note_off channel=0 note=51 velocity=64 time=1\n",
      "note_off channel=0 note=70 velocity=64 time=1\n",
      "note_on channel=0 note=71 velocity=43 time=0\n",
      "note_off channel=0 note=79 velocity=64 time=0\n",
      "note_on channel=0 note=96 velocity=51 time=0\n",
      "note_off channel=0 note=97 velocity=64 time=0\n",
      "note_on channel=0 note=43 velocity=62 time=1\n",
      "note_on channel=0 note=62 velocity=59 time=0\n",
      "note_off channel=0 note=63 velocity=64 time=0\n",
      "note_off channel=0 note=68 velocity=64 time=0\n",
      "note_on channel=0 note=69 velocity=30 time=0\n",
      "note_on channel=0 note=82 velocity=34 time=0\n",
      "note_on channel=0 note=97 velocity=41 time=0\n",
      "note_on channel=0 note=90 velocity=38 time=1\n",
      "note_on channel=0 note=42 velocity=56 time=1\n",
      "note_off channel=0 note=43 velocity=64 time=0\n",
      "note_on channel=0 note=50 velocity=65 time=0\n",
      "note_on channel=0 note=61 velocity=61 time=0\n",
      "note_off channel=0 note=62 velocity=64 time=0\n",
      "note_off channel=0 note=69 velocity=64 time=0\n",
      "note_off channel=0 note=87 velocity=64 time=0\n",
      "note_on channel=0 note=103 velocity=25 time=0\n",
      "note_on channel=0 note=69 velocity=47 time=1\n",
      "note_off channel=0 note=77 velocity=64 time=0\n",
      "note_on channel=0 note=78 velocity=29 time=0\n",
      "note_off channel=0 note=98 velocity=64 time=0\n",
      "note_off channel=0 note=42 velocity=64 time=1\n",
      "note_on channel=0 note=74 velocity=33 time=0\n",
      "note_off channel=0 note=80 velocity=64 time=0\n",
      "note_off channel=0 note=78 velocity=64 time=1\n",
      "note_on channel=0 note=80 velocity=23 time=0\n",
      "note_off channel=0 note=50 velocity=64 time=1\n",
      "note_off channel=0 note=73 velocity=64 time=0\n",
      "note_on channel=0 note=77 velocity=38 time=0\n",
      "note_off channel=0 note=84 velocity=64 time=0\n",
      "note_on channel=0 note=98 velocity=9 time=0\n",
      "note_on channel=0 note=48 velocity=83 time=1\n",
      "note_off channel=0 note=82 velocity=64 time=0\n",
      "note_on channel=0 note=84 velocity=35 time=0\n",
      "note_on channel=0 note=65 velocity=31 time=1\n",
      "note_off channel=0 note=69 velocity=64 time=0\n",
      "note_off channel=0 note=80 velocity=64 time=0\n",
      "note_on channel=0 note=94 velocity=19 time=0\n",
      "note_off channel=0 note=48 velocity=64 time=1\n",
      "note_on channel=0 note=49 velocity=78 time=0\n",
      "note_on channel=0 note=69 velocity=46 time=0\n",
      "note_on channel=0 note=80 velocity=87 time=0\n",
      "note_on channel=0 note=85 velocity=12 time=1\n",
      "note_off channel=0 note=98 velocity=64 time=0\n",
      "note_off channel=0 note=49 velocity=64 time=1\n",
      "note_on channel=0 note=52 velocity=79 time=0\n",
      "note_off channel=0 note=61 velocity=64 time=0\n",
      "note_on channel=0 note=62 velocity=49 time=0\n",
      "note_off channel=0 note=69 velocity=64 time=0\n",
      "note_off channel=0 note=94 velocity=64 time=0\n",
      "note_on channel=0 note=95 velocity=38 time=0\n",
      "note_off channel=0 note=65 velocity=64 time=1\n",
      "note_off channel=0 note=71 velocity=64 time=0\n",
      "note_on channel=0 note=73 velocity=33 time=0\n",
      "note_on channel=0 note=82 velocity=27 time=0\n",
      "note_off channel=0 note=103 velocity=64 time=0\n",
      "note_off channel=0 note=52 velocity=64 time=1\n",
      "note_off channel=0 note=62 velocity=64 time=0\n",
      "note_on channel=0 note=63 velocity=51 time=0\n",
      "note_on channel=0 note=68 velocity=30 time=0\n",
      "note_on channel=0 note=71 velocity=58 time=0\n",
      "note_off channel=0 note=74 velocity=64 time=0\n",
      "note_off channel=0 note=97 velocity=64 time=1\n",
      "note_off channel=0 note=85 velocity=64 time=1\n",
      "note_on channel=0 note=86 velocity=30 time=0\n",
      "note_on channel=0 note=97 velocity=30 time=1\n",
      "note_on channel=0 note=62 velocity=58 time=1\n",
      "note_off channel=0 note=63 velocity=64 time=0\n",
      "note_on channel=0 note=65 velocity=36 time=0\n",
      "note_on channel=0 note=75 velocity=32 time=0\n",
      "note_on channel=0 note=51 velocity=81 time=1\n",
      "note_off channel=0 note=68 velocity=64 time=0\n",
      "note_on channel=0 note=103 velocity=25 time=0\n",
      "note_off channel=0 note=73 velocity=64 time=1\n",
      "note_off channel=0 note=75 velocity=64 time=0\n",
      "note_on channel=0 note=78 velocity=51 time=0\n",
      "note_off channel=0 note=84 velocity=64 time=0\n",
      "note_on channel=0 note=85 velocity=46 time=0\n",
      "note_on channel=0 note=87 velocity=42 time=0\n",
      "note_on channel=0 note=89 velocity=66 time=0\n",
      "note_on channel=0 note=93 velocity=24 time=0\n",
      "note_off channel=0 note=95 velocity=64 time=0\n",
      "note_on channel=0 note=98 velocity=30 time=0\n",
      "note_off channel=0 note=65 velocity=64 time=1\n",
      "note_on channel=0 note=67 velocity=48 time=0\n",
      "note_on channel=0 note=75 velocity=48 time=0\n",
      "note_off channel=0 note=77 velocity=64 time=0\n",
      "note_off channel=0 note=82 velocity=64 time=0\n",
      "note_off channel=0 note=88 velocity=64 time=0\n",
      "note_on channel=0 note=95 velocity=53 time=0\n",
      "note_on channel=0 note=48 velocity=91 time=1\n",
      "note_off channel=0 note=51 velocity=64 time=0\n",
      "note_off channel=0 note=62 velocity=64 time=0\n",
      "note_on channel=0 note=63 velocity=58 time=0\n",
      "note_on channel=0 note=84 velocity=21 time=0\n",
      "note_off channel=0 note=67 velocity=64 time=1\n",
      "note_on channel=0 note=73 velocity=39 time=0\n",
      "note_off channel=0 note=78 velocity=64 time=0\n",
      "note_on channel=0 note=82 velocity=42 time=0\n",
      "note_off channel=0 note=93 velocity=64 time=0\n",
      "note_on channel=0 note=46 velocity=69 time=1\n",
      "note_off channel=0 note=48 velocity=64 time=0\n",
      "note_on channel=0 note=68 velocity=49 time=0\n",
      "note_off channel=0 note=86 velocity=64 time=0\n",
      "note_on channel=0 note=93 velocity=9 time=0\n",
      "note_off channel=0 note=46 velocity=64 time=1\n",
      "note_on channel=0 note=77 velocity=27 time=0\n",
      "note_off channel=0 note=82 velocity=64 time=0\n",
      "note_off channel=0 note=95 velocity=64 time=0\n",
      "note_off channel=0 note=103 velocity=64 time=0\n",
      "note_on channel=0 note=48 velocity=71 time=1\n",
      "note_on channel=0 note=88 velocity=26 time=0\n",
      "note_off channel=0 note=98 velocity=64 time=0\n",
      "note_off channel=0 note=48 velocity=64 time=1\n",
      "note_on channel=0 note=50 velocity=69 time=0\n",
      "note_off channel=0 note=90 velocity=64 time=0\n",
      "note_off channel=0 note=96 velocity=64 time=0\n",
      "note_off channel=0 note=97 velocity=64 time=0\n",
      "note_on channel=0 note=45 velocity=60 time=1\n",
      "note_on channel=0 note=90 velocity=36 time=0\n",
      "note_off channel=0 note=50 velocity=64 time=1\n",
      "note_off channel=0 note=89 velocity=64 time=0\n",
      "note_off channel=0 note=93 velocity=64 time=0\n",
      "note_off channel=0 note=84 velocity=64 time=1\n",
      "note_off channel=0 note=85 velocity=64 time=0\n",
      "note_on channel=0 note=91 velocity=12 time=0\n",
      "note_on channel=0 note=65 velocity=33 time=1\n",
      "note_off channel=0 note=45 velocity=64 time=1\n",
      "note_off channel=0 note=63 velocity=64 time=0\n",
      "note_off channel=0 note=101 velocity=64 time=0\n",
      "note_on channel=0 note=50 velocity=65 time=1\n",
      "note_on channel=0 note=61 velocity=51 time=0\n",
      "note_on channel=0 note=101 velocity=20 time=0\n",
      "note_on channel=0 note=84 velocity=14 time=1\n",
      "note_on channel=0 note=97 velocity=16 time=0\n",
      "note_on channel=0 note=49 velocity=72 time=1\n",
      "note_off channel=0 note=50 velocity=64 time=0\n",
      "note_on channel=0 note=96 velocity=18 time=0\n",
      "note_off channel=0 note=91 velocity=64 time=1\n",
      "note_on channel=0 note=93 velocity=22 time=0\n",
      "note_off channel=0 note=77 velocity=64 time=1\n",
      "note_off channel=0 note=84 velocity=64 time=1\n",
      "note_off channel=0 note=49 velocity=64 time=4\n",
      "note_on channel=0 note=50 velocity=70 time=0\n",
      "note_on channel=0 note=78 velocity=19 time=0\n",
      "note_on channel=0 note=86 velocity=22 time=0\n",
      "note_on channel=0 note=49 velocity=68 time=1\n",
      "note_off channel=0 note=50 velocity=64 time=0\n",
      "note_on channel=0 note=84 velocity=40 time=0\n",
      "note_off channel=0 note=73 velocity=64 time=1\n",
      "note_off channel=0 note=97 velocity=64 time=0\n",
      "note_off channel=0 note=96 velocity=64 time=1\n",
      "note_on channel=0 note=91 velocity=23 time=1\n",
      "note_off channel=0 note=101 velocity=64 time=0\n",
      "note_off channel=0 note=88 velocity=64 time=1\n",
      "note_on channel=0 note=89 velocity=74 time=0\n",
      "note_off channel=0 note=61 velocity=64 time=1\n",
      "note_off channel=0 note=78 velocity=64 time=0\n",
      "note_on channel=0 note=88 velocity=36 time=0\n",
      "note_off channel=0 note=49 velocity=64 time=1\n",
      "note_off channel=0 note=86 velocity=64 time=0\n",
      "note_off channel=0 note=91 velocity=64 time=0\n",
      "note_off channel=0 note=65 velocity=64 time=1\n",
      "note_off channel=0 note=88 velocity=64 time=0\n",
      "note_on channel=0 note=91 velocity=32 time=0\n",
      "note_on channel=0 note=45 velocity=77 time=1\n",
      "note_off channel=0 note=68 velocity=64 time=0\n",
      "note_on channel=0 note=69 velocity=55 time=0\n",
      "note_off channel=0 note=71 velocity=64 time=0\n",
      "note_on channel=0 note=77 velocity=48 time=0\n",
      "note_on channel=0 note=85 velocity=38 time=0\n",
      "note_on channel=0 note=61 velocity=39 time=1\n",
      "note_on channel=0 note=82 velocity=39 time=0\n",
      "note_on channel=0 note=44 velocity=78 time=1\n",
      "note_off channel=0 note=45 velocity=64 time=0\n",
      "note_off channel=0 note=69 velocity=64 time=0\n",
      "note_on channel=0 note=70 velocity=38 time=0\n",
      "note_off channel=0 note=77 velocity=64 time=0\n",
      "note_on channel=0 note=78 velocity=35 time=0\n",
      "note_off channel=0 note=90 velocity=64 time=0\n",
      "note_off channel=0 note=61 velocity=64 time=1\n",
      "note_on channel=0 note=62 velocity=36 time=0\n",
      "note_on channel=0 note=65 velocity=49 time=0\n",
      "note_on channel=0 note=71 velocity=36 time=0\n",
      "note_on channel=0 note=68 velocity=35 time=1\n",
      "note_off channel=0 note=70 velocity=64 time=0\n",
      "note_on channel=0 note=43 velocity=72 time=1\n",
      "note_off channel=0 note=44 velocity=64 time=0\n",
      "note_on channel=0 note=54 velocity=26 time=0\n",
      "note_off channel=0 note=62 velocity=64 time=0\n",
      "note_off channel=0 note=75 velocity=64 time=2\n",
      "note_off channel=0 note=91 velocity=64 time=0\n",
      "note_off channel=0 note=54 velocity=64 time=1\n",
      "note_off channel=0 note=78 velocity=64 time=0\n",
      "note_off channel=0 note=85 velocity=64 time=1\n",
      "note_off channel=0 note=93 velocity=64 time=0\n",
      "note_on channel=0 note=90 velocity=56 time=1\n",
      "note_off channel=0 note=43 velocity=64 time=1\n",
      "note_on channel=0 note=44 velocity=28 time=0\n",
      "note_on channel=0 note=85 velocity=19 time=1\n",
      "note_on channel=0 note=61 velocity=16 time=2\n",
      "note_off channel=0 note=44 velocity=64 time=1\n",
      "note_off channel=0 note=71 velocity=64 time=0\n",
      "note_on channel=0 note=75 velocity=45 time=0\n",
      "note_on channel=0 note=91 velocity=31 time=0\n",
      "note_off channel=0 note=91 velocity=64 time=2\n",
      "note_on channel=0 note=83 velocity=45 time=3\n",
      "note_off channel=0 note=61 velocity=64 time=1\n",
      "note_off channel=0 note=65 velocity=64 time=0\n",
      "note_off channel=0 note=82 velocity=64 time=0\n",
      "note_on channel=0 note=93 velocity=37 time=0\n",
      "note_on channel=0 note=65 velocity=46 time=1\n",
      "note_off channel=0 note=85 velocity=64 time=0\n",
      "note_on channel=0 note=85 velocity=53 time=2\n",
      "note_on channel=0 note=88 velocity=32 time=0\n",
      "note_on channel=0 note=60 velocity=35 time=1\n",
      "note_off channel=0 note=89 velocity=64 time=0\n",
      "note_on channel=0 note=49 velocity=74 time=1\n",
      "note_off channel=0 note=88 velocity=64 time=0\n",
      "note_on channel=0 note=91 velocity=32 time=0\n",
      "note_off channel=0 note=60 velocity=64 time=1\n",
      "note_on channel=0 note=88 velocity=31 time=0\n",
      "note_on channel=0 note=62 velocity=68 time=1\n",
      "note_off channel=0 note=65 velocity=64 time=0\n",
      "note_off channel=0 note=68 velocity=64 time=0\n",
      "note_on channel=0 note=82 velocity=57 time=0\n",
      "note_off channel=0 note=84 velocity=64 time=0\n",
      "note_on channel=0 note=57 velocity=52 time=1\n",
      "note_off channel=0 note=62 velocity=64 time=0\n",
      "note_on channel=0 note=63 velocity=94 time=0\n",
      "note_on channel=0 note=69 velocity=60 time=0\n",
      "note_on channel=0 note=73 velocity=40 time=0\n",
      "note_off channel=0 note=83 velocity=64 time=0\n",
      "note_on channel=0 note=84 velocity=38 time=0\n",
      "note_on channel=0 note=89 velocity=46 time=0\n",
      "note_off channel=0 note=91 velocity=64 time=1\n",
      "note_on channel=0 note=71 velocity=24 time=1\n",
      "note_off channel=0 note=80 velocity=64 time=0\n",
      "note_off channel=0 note=84 velocity=64 time=0\n",
      "note_off channel=0 note=87 velocity=64 time=0\n",
      "note_off channel=0 note=88 velocity=64 time=0\n",
      "note_on channel=0 note=103 velocity=14 time=0\n",
      "note_off channel=0 note=57 velocity=64 time=1\n",
      "note_on channel=0 note=68 velocity=46 time=0\n",
      "note_off channel=0 note=69 velocity=64 time=0\n",
      "note_on channel=0 note=80 velocity=57 time=0\n",
      "note_on channel=0 note=87 velocity=63 time=0\n",
      "note_off channel=0 note=89 velocity=64 time=0\n",
      "note_on channel=0 note=96 velocity=25 time=0\n",
      "note_off channel=0 note=73 velocity=64 time=1\n",
      "note_on channel=0 note=89 velocity=72 time=0\n",
      "note_on channel=0 note=73 velocity=54 time=1\n",
      "note_off channel=0 note=82 velocity=64 time=0\n",
      "note_on channel=0 note=83 velocity=69 time=0\n",
      "note_off channel=0 note=103 velocity=64 time=0\n",
      "note_off channel=0 note=90 velocity=64 time=2\n",
      "note_on channel=0 note=91 velocity=54 time=0\n",
      "note_off channel=0 note=75 velocity=64 time=1\n",
      "note_on channel=0 note=90 velocity=16 time=0\n",
      "note_off channel=0 note=96 velocity=64 time=2\n",
      "note_off channel=0 note=71 velocity=64 time=1\n",
      "note_off channel=0 note=90 velocity=64 time=0\n",
      "note_on channel=0 note=90 velocity=45 time=2\n",
      "note_off channel=0 note=91 velocity=64 time=0\n",
      "note_on channel=0 note=71 velocity=16 time=2\n",
      "note_on channel=0 note=91 velocity=44 time=0\n",
      "note_off channel=0 note=90 velocity=64 time=1\n",
      "note_on channel=0 note=90 velocity=52 time=1\n",
      "note_off channel=0 note=93 velocity=64 time=1\n",
      "note_on channel=0 note=94 velocity=17 time=0\n",
      "note_off channel=0 note=71 velocity=64 time=3\n",
      "note_off channel=0 note=94 velocity=64 time=0\n",
      "note_on channel=0 note=72 velocity=57 time=1\n",
      "note_off channel=0 note=73 velocity=64 time=0\n",
      "note_on channel=0 note=79 velocity=40 time=0\n",
      "note_off channel=0 note=80 velocity=64 time=0\n",
      "note_on channel=0 note=82 velocity=54 time=0\n",
      "note_on channel=0 note=76 velocity=28 time=1\n",
      "note_off channel=0 note=85 velocity=64 time=0\n",
      "note_on channel=0 note=67 velocity=47 time=1\n",
      "note_off channel=0 note=68 velocity=64 time=0\n",
      "note_on channel=0 note=85 velocity=52 time=0\n",
      "note_on channel=0 note=86 velocity=53 time=0\n",
      "note_off channel=0 note=83 velocity=64 time=1\n",
      "note_on channel=0 note=93 velocity=30 time=0\n",
      "note_on channel=0 note=48 velocity=52 time=1\n",
      "note_off channel=0 note=49 velocity=64 time=0\n",
      "note_off channel=0 note=79 velocity=64 time=0\n",
      "note_on channel=0 note=80 velocity=46 time=0\n",
      "note_off channel=0 note=87 velocity=64 time=0\n",
      "note_off channel=0 note=91 velocity=64 time=0\n",
      "note_off channel=0 note=67 velocity=64 time=1\n",
      "note_on channel=0 note=68 velocity=44 time=0\n",
      "note_off channel=0 note=76 velocity=64 time=0\n",
      "note_on channel=0 note=77 velocity=39 time=0\n",
      "note_off channel=0 note=82 velocity=64 time=0\n",
      "note_on channel=0 note=83 velocity=59 time=0\n",
      "note_off channel=0 note=86 velocity=64 time=0\n",
      "note_on channel=0 note=87 velocity=64 time=0\n",
      "note_off channel=0 note=48 velocity=64 time=1\n",
      "note_on channel=0 note=71 velocity=47 time=0\n",
      "note_on channel=0 note=74 velocity=54 time=0\n",
      "note_on channel=0 note=94 velocity=31 time=0\n",
      "note_on channel=0 note=50 velocity=66 time=1\n",
      "note_on channel=0 note=61 velocity=79 time=0\n",
      "note_off channel=0 note=63 velocity=64 time=0\n",
      "note_off channel=0 note=68 velocity=64 time=0\n",
      "note_on channel=0 note=69 velocity=53 time=0\n",
      "note_off channel=0 note=72 velocity=64 time=0\n",
      "note_on channel=0 note=82 velocity=61 time=0\n",
      "note_on channel=0 note=57 velocity=50 time=1\n",
      "note_off channel=0 note=83 velocity=64 time=0\n",
      "note_on channel=0 note=91 velocity=39 time=0\n",
      "note_off channel=0 note=61 velocity=64 time=1\n",
      "note_on channel=0 note=63 velocity=84 time=0\n",
      "note_off channel=0 note=69 velocity=64 time=0\n",
      "note_off channel=0 note=74 velocity=64 time=0\n",
      "note_off channel=0 note=85 velocity=64 time=0\n",
      "note_off channel=0 note=90 velocity=64 time=0\n",
      "note_off channel=0 note=57 velocity=64 time=1\n",
      "note_on channel=0 note=78 velocity=41 time=0\n",
      "note_off channel=0 note=93 velocity=64 time=0\n",
      "note_off channel=0 note=50 velocity=64 time=1\n",
      "note_on channel=0 note=84 velocity=37 time=0\n",
      "note_on channel=0 note=88 velocity=59 time=0\n",
      "note_off channel=0 note=91 velocity=64 time=0\n",
      "note_off channel=0 note=71 velocity=64 time=1\n",
      "note_on channel=0 note=81 velocity=43 time=0\n",
      "note_off channel=0 note=82 velocity=64 time=0\n",
      "note_off channel=0 note=89 velocity=64 time=0\n",
      "note_off channel=0 note=94 velocity=64 time=0\n",
      "note_on channel=0 note=51 velocity=56 time=1\n",
      "note_on channel=0 note=74 velocity=46 time=0\n",
      "note_on channel=0 note=70 velocity=38 time=1\n",
      "note_on channel=0 note=73 velocity=24 time=0\n",
      "note_off channel=0 note=81 velocity=64 time=0\n",
      "note_on channel=0 note=82 velocity=45 time=0\n",
      "note_on channel=0 note=91 velocity=36 time=0\n",
      "note_off channel=0 note=74 velocity=64 time=1\n",
      "note_off channel=0 note=84 velocity=64 time=0\n",
      "note_on channel=0 note=85 velocity=43 time=0\n",
      "note_off channel=0 note=51 velocity=64 time=1\n",
      "note_on channel=0 note=52 velocity=56 time=0\n",
      "note_off channel=0 note=70 velocity=64 time=0\n",
      "note_on channel=0 note=71 velocity=43 time=0\n",
      "note_off channel=0 note=77 velocity=64 time=0\n",
      "note_off channel=0 note=78 velocity=64 time=0\n",
      "note_on channel=0 note=90 velocity=57 time=0\n",
      "note_on channel=0 note=76 velocity=49 time=1\n",
      "note_on channel=0 note=95 velocity=22 time=0\n",
      "note_off channel=0 note=82 velocity=64 time=1\n",
      "note_off channel=0 note=87 velocity=64 time=0\n",
      "note_on channel=0 note=51 velocity=59 time=1\n",
      "note_off channel=0 note=52 velocity=64 time=0\n",
      "note_off channel=0 note=76 velocity=64 time=0\n",
      "note_on channel=0 note=79 velocity=31 time=0\n",
      "note_on channel=0 note=89 velocity=59 time=0\n",
      "note_on channel=0 note=77 velocity=33 time=1\n",
      "note_off channel=0 note=80 velocity=64 time=0\n",
      "note_off channel=0 note=90 velocity=64 time=0\n",
      "note_on channel=0 note=94 velocity=12 time=0\n",
      "note_off channel=0 note=95 velocity=64 time=0\n",
      "note_on channel=0 note=69 velocity=35 time=1\n",
      "note_off channel=0 note=71 velocity=64 time=0\n",
      "note_off channel=0 note=73 velocity=64 time=0\n",
      "note_on channel=0 note=83 velocity=54 time=0\n",
      "note_on channel=0 note=92 velocity=34 time=0\n",
      "note_off channel=0 note=51 velocity=64 time=1\n",
      "note_on channel=0 note=71 velocity=34 time=0\n",
      "note_on channel=0 note=74 velocity=45 time=0\n",
      "note_off channel=0 note=79 velocity=64 time=0\n",
      "note_on channel=0 note=68 velocity=39 time=1\n",
      "note_off channel=0 note=69 velocity=64 time=0\n",
      "note_on channel=0 note=80 velocity=39 time=0\n",
      "note_off channel=0 note=94 velocity=64 time=0\n",
      "note_on channel=0 note=50 velocity=68 time=1\n",
      "note_off channel=0 note=71 velocity=64 time=0\n",
      "note_on channel=0 note=73 velocity=32 time=0\n",
      "note_off channel=0 note=74 velocity=64 time=0\n",
      "note_on channel=0 note=102 velocity=23 time=0\n",
      "note_on channel=0 note=71 velocity=28 time=1\n",
      "note_off channel=0 note=88 velocity=64 time=0\n",
      "note_on channel=0 note=90 velocity=44 time=0\n",
      "note_off channel=0 note=91 velocity=64 time=0\n",
      "note_on channel=0 note=49 velocity=66 time=1\n",
      "note_off channel=0 note=50 velocity=64 time=0\n",
      "note_off channel=0 note=90 velocity=64 time=1\n",
      "note_on channel=0 note=91 velocity=44 time=0\n",
      "note_off channel=0 note=85 velocity=64 time=1\n",
      "note_on channel=0 note=85 velocity=40 time=1\n",
      "note_on channel=0 note=90 velocity=56 time=0\n",
      "note_off channel=0 note=91 velocity=64 time=0\n",
      "note_on channel=0 note=67 velocity=38 time=1\n",
      "note_off channel=0 note=68 velocity=64 time=0\n",
      "note_off channel=0 note=71 velocity=64 time=0\n",
      "note_on channel=0 note=72 velocity=49 time=0\n",
      "note_off channel=0 note=73 velocity=64 time=0\n",
      "note_on channel=0 note=91 velocity=47 time=0\n",
      "note_off channel=0 note=102 velocity=64 time=0\n",
      "note_off channel=0 note=49 velocity=64 time=1\n",
      "note_off channel=0 note=80 velocity=64 time=0\n",
      "note_on channel=0 note=81 velocity=30 time=0\n",
      "note_off channel=0 note=67 velocity=64 time=1\n",
      "note_on channel=0 note=71 velocity=38 time=0\n",
      "note_off channel=0 note=72 velocity=64 time=0\n",
      "note_on channel=0 note=78 velocity=34 time=0\n",
      "note_on channel=0 note=68 velocity=16 time=1\n",
      "note_on channel=0 note=74 velocity=39 time=0\n",
      "note_off channel=0 note=77 velocity=64 time=0\n",
      "note_on channel=0 note=80 velocity=86 time=0\n",
      "note_off channel=0 note=81 velocity=64 time=0\n",
      "note_on channel=0 note=88 velocity=26 time=0\n",
      "note_off channel=0 note=89 velocity=64 time=0\n",
      "note_on channel=0 note=47 velocity=51 time=1\n",
      "note_off channel=0 note=71 velocity=64 time=0\n",
      "note_off channel=0 note=78 velocity=64 time=0\n",
      "note_on channel=0 note=89 velocity=78 time=0\n",
      "note_on channel=0 note=71 velocity=48 time=1\n",
      "note_on channel=0 note=73 velocity=51 time=0\n",
      "note_off channel=0 note=74 velocity=64 time=0\n",
      "note_off channel=0 note=68 velocity=64 time=1\n",
      "note_off channel=0 note=88 velocity=64 time=0\n",
      "note_off channel=0 note=92 velocity=64 time=0\n",
      "note_on channel=0 note=77 velocity=35 time=1\n",
      "note_on channel=0 note=78 velocity=43 time=0\n",
      "note_off channel=0 note=47 velocity=64 time=1\n",
      "note_on channel=0 note=48 velocity=30 time=0\n",
      "note_on channel=0 note=94 velocity=15 time=0\n",
      "note_on channel=0 note=59 velocity=47 time=1\n",
      "note_off channel=0 note=78 velocity=64 time=0\n",
      "note_off channel=0 note=91 velocity=64 time=0\n",
      "note_off channel=0 note=48 velocity=64 time=1\n",
      "note_on channel=0 note=48 velocity=43 time=1\n",
      "note_off channel=0 note=59 velocity=64 time=1\n",
      "note_on channel=0 note=66 velocity=38 time=0\n",
      "note_off channel=0 note=71 velocity=64 time=0\n",
      "note_off channel=0 note=63 velocity=64 time=1\n",
      "note_off channel=0 note=94 velocity=64 time=0\n",
      "note_off channel=0 note=90 velocity=64 time=1\n",
      "note_on channel=0 note=91 velocity=34 time=0\n",
      "note_off channel=0 note=48 velocity=64 time=1\n",
      "note_on channel=0 note=49 velocity=67 time=0\n",
      "note_off channel=0 note=66 velocity=64 time=0\n",
      "note_on channel=0 note=90 velocity=32 time=0\n",
      "note_on channel=0 note=68 velocity=42 time=1\n",
      "note_on channel=0 note=94 velocity=55 time=0\n",
      "note_on channel=0 note=96 velocity=39 time=0\n",
      "note_on channel=0 note=100 velocity=42 time=0\n",
      "note_on channel=0 note=65 velocity=22 time=1\n",
      "note_off channel=0 note=90 velocity=64 time=0\n",
      "note_off channel=0 note=68 velocity=64 time=1\n",
      "note_on channel=0 note=69 velocity=52 time=0\n",
      "note_on channel=0 note=87 velocity=36 time=0\n",
      "note_on channel=0 note=102 velocity=50 time=0\n",
      "note_on channel=0 note=93 velocity=23 time=1\n",
      "note_on channel=0 note=98 velocity=27 time=0\n",
      "note_on channel=0 note=99 velocity=37 time=0\n",
      "note_off channel=0 note=49 velocity=64 time=1\n",
      "note_on channel=0 note=50 velocity=68 time=0\n",
      "note_on channel=0 note=49 velocity=71 time=1\n",
      "note_off channel=0 note=50 velocity=64 time=0\n",
      "note_on channel=0 note=71 velocity=19 time=0\n",
      "note_on channel=0 note=68 velocity=51 time=1\n",
      "note_off channel=0 note=69 velocity=64 time=0\n",
      "note_off channel=0 note=73 velocity=64 time=0\n",
      "note_on channel=0 note=74 velocity=30 time=0\n",
      "note_off channel=0 note=93 velocity=64 time=0\n",
      "note_off channel=0 note=91 velocity=64 time=2\n",
      "note_off channel=0 note=65 velocity=64 time=1\n",
      "note_off channel=0 note=68 velocity=64 time=0\n",
      "note_on channel=0 note=69 velocity=43 time=0\n",
      "note_off channel=0 note=74 velocity=64 time=0\n",
      "note_on channel=0 note=93 velocity=17 time=0\n",
      "note_off channel=0 note=49 velocity=64 time=1\n",
      "note_on channel=0 note=50 velocity=72 time=0\n",
      "note_off channel=0 note=71 velocity=64 time=0\n",
      "note_on channel=0 note=63 velocity=53 time=1\n",
      "note_off channel=0 note=69 velocity=64 time=0\n",
      "note_on channel=0 note=70 velocity=40 time=0\n",
      "note_on channel=0 note=73 velocity=36 time=0\n",
      "note_off channel=0 note=50 velocity=64 time=1\n",
      "note_on channel=0 note=91 velocity=26 time=0\n",
      "note_on channel=0 note=52 velocity=71 time=1\n",
      "note_on channel=0 note=68 velocity=59 time=0\n",
      "note_off channel=0 note=70 velocity=64 time=0\n",
      "note_on channel=0 note=71 velocity=49 time=0\n",
      "note_off channel=0 note=77 velocity=64 time=0\n",
      "note_off channel=0 note=94 velocity=64 time=0\n",
      "note_off channel=0 note=98 velocity=64 time=0\n",
      "note_off channel=0 note=63 velocity=64 time=1\n",
      "note_on channel=0 note=98 velocity=36 time=0\n",
      "note_off channel=0 note=93 velocity=64 time=3\n",
      "note_off channel=0 note=73 velocity=64 time=1\n",
      "note_on channel=0 note=75 velocity=48 time=0\n",
      "note_on channel=0 note=61 velocity=78 time=1\n",
      "note_on channel=0 note=79 velocity=46 time=0\n",
      "note_off channel=0 note=102 velocity=64 time=0\n",
      "note_off channel=0 note=52 velocity=64 time=1\n",
      "note_on channel=0 note=56 velocity=68 time=0\n",
      "note_off channel=0 note=80 velocity=64 time=0\n",
      "note_on channel=0 note=53 velocity=79 time=1\n",
      "note_off channel=0 note=56 velocity=64 time=0\n",
      "note_on channel=0 note=63 velocity=69 time=0\n",
      "note_off channel=0 note=68 velocity=64 time=0\n",
      "note_off channel=0 note=79 velocity=64 time=0\n",
      "note_on channel=0 note=80 velocity=46 time=0\n",
      "note_on channel=0 note=90 velocity=21 time=0\n",
      "note_off channel=0 note=100 velocity=64 time=0\n",
      "note_off channel=0 note=63 velocity=64 time=1\n",
      "note_off channel=0 note=91 velocity=64 time=0\n",
      "note_off channel=0 note=96 velocity=64 time=0\n",
      "note_off channel=0 note=99 velocity=64 time=0\n",
      "note_off channel=0 note=61 velocity=64 time=1\n",
      "note_on channel=0 note=62 velocity=59 time=0\n",
      "note_on channel=0 note=77 velocity=45 time=0\n",
      "note_on channel=0 note=52 velocity=68 time=1\n",
      "note_off channel=0 note=53 velocity=64 time=0\n",
      "note_on channel=0 note=91 velocity=16 time=0\n",
      "note_off channel=0 note=98 velocity=64 time=0\n",
      "note_off channel=0 note=62 velocity=64 time=1\n",
      "note_on channel=0 note=73 velocity=17 time=0\n",
      "note_off channel=0 note=90 velocity=64 time=0\n",
      "note_on channel=0 note=68 velocity=44 time=2\n",
      "note_on channel=0 note=65 velocity=52 time=1\n",
      "note_off channel=0 note=71 velocity=64 time=0\n",
      "note_on channel=0 note=61 velocity=34 time=1\n",
      "note_on channel=0 note=71 velocity=33 time=0\n",
      "note_off channel=0 note=52 velocity=64 time=3\n",
      "note_off channel=0 note=91 velocity=64 time=0\n",
      "note_on channel=0 note=52 velocity=49 time=1\n",
      "note_off channel=0 note=73 velocity=64 time=0\n",
      "note_off channel=0 note=61 velocity=64 time=1\n",
      "note_on channel=0 note=74 velocity=40 time=0\n",
      "note_off channel=0 note=75 velocity=64 time=0\n",
      "note_on channel=0 note=82 velocity=58 time=0\n",
      "note_off channel=0 note=85 velocity=64 time=0\n",
      "note_on channel=0 note=88 velocity=17 time=0\n",
      "note_off channel=0 note=89 velocity=64 time=0\n",
      "note_on channel=0 note=90 velocity=32 time=0\n",
      "note_on channel=0 note=61 velocity=43 time=1\n",
      "note_off channel=0 note=71 velocity=64 time=0\n",
      "note_off channel=0 note=83 velocity=64 time=0\n",
      "note_on channel=0 note=84 velocity=39 time=0\n",
      "note_on channel=0 note=95 velocity=9 time=0\n",
      "note_off channel=0 note=52 velocity=64 time=1\n",
      "note_on channel=0 note=71 velocity=56 time=0\n",
      "note_off channel=0 note=74 velocity=64 time=0\n",
      "note_on channel=0 note=54 velocity=29 time=1\n",
      "note_off channel=0 note=61 velocity=64 time=0\n",
      "note_off channel=0 note=68 velocity=64 time=0\n",
      "note_off channel=0 note=82 velocity=64 time=0\n",
      "note_on channel=0 note=83 velocity=58 time=0\n",
      "note_off channel=0 note=90 velocity=64 time=0\n",
      "note_on channel=0 note=61 velocity=23 time=1\n",
      "note_off channel=0 note=65 velocity=64 time=0\n",
      "note_off channel=0 note=95 velocity=64 time=0\n",
      "note_on channel=0 note=68 velocity=55 time=1\n",
      "note_on channel=0 note=75 velocity=14 time=0\n",
      "note_off channel=0 note=88 velocity=64 time=0\n",
      "note_off channel=0 note=54 velocity=64 time=1\n",
      "note_on channel=0 note=65 velocity=55 time=0\n",
      "note_on channel=0 note=93 velocity=13 time=0\n",
      "note_on channel=0 note=89 velocity=55 time=1\n",
      "note_off channel=0 note=84 velocity=64 time=4\n",
      "note_on channel=0 note=85 velocity=13 time=0\n",
      "note_off channel=0 note=75 velocity=64 time=1\n",
      "note_off channel=0 note=93 velocity=64 time=1\n",
      "note_off channel=0 note=61 velocity=64 time=1\n",
      "note_on channel=0 note=73 velocity=33 time=0\n",
      "note_on channel=0 note=48 velocity=65 time=1\n",
      "note_on channel=0 note=57 velocity=48 time=0\n",
      "note_on channel=0 note=64 velocity=80 time=0\n",
      "note_off channel=0 note=65 velocity=64 time=0\n",
      "note_on channel=0 note=67 velocity=67 time=0\n",
      "note_off channel=0 note=68 velocity=64 time=0\n",
      "note_off channel=0 note=80 velocity=64 time=0\n",
      "note_on channel=0 note=81 velocity=29 time=0\n",
      "note_on channel=0 note=90 velocity=40 time=0\n",
      "note_on channel=0 note=45 velocity=76 time=1\n",
      "note_off channel=0 note=48 velocity=64 time=0\n",
      "note_on channel=0 note=84 velocity=15 time=0\n",
      "note_on channel=0 note=44 velocity=79 time=1\n",
      "note_off channel=0 note=45 velocity=64 time=0\n",
      "note_off channel=0 note=57 velocity=64 time=0\n",
      "note_on channel=0 note=63 velocity=74 time=0\n",
      "note_off channel=0 note=64 velocity=64 time=0\n",
      "note_off channel=0 note=85 velocity=64 time=0\n",
      "note_off channel=0 note=67 velocity=64 time=1\n",
      "note_on channel=0 note=80 velocity=48 time=0\n",
      "note_off channel=0 note=90 velocity=64 time=0\n",
      "note_on channel=0 note=68 velocity=52 time=1\n",
      "note_off channel=0 note=81 velocity=64 time=0\n",
      "note_off channel=0 note=84 velocity=64 time=0\n",
      "note_off channel=0 note=87 velocity=64 time=0\n",
      "note_off channel=0 note=63 velocity=64 time=1\n",
      "note_on channel=0 note=78 velocity=32 time=0\n",
      "note_off channel=0 note=44 velocity=64 time=1\n",
      "note_on channel=0 note=46 velocity=65 time=0\n",
      "note_on channel=0 note=58 velocity=67 time=0\n",
      "note_on channel=0 note=65 velocity=39 time=0\n",
      "note_off channel=0 note=73 velocity=64 time=0\n",
      "note_on channel=0 note=85 velocity=58 time=0\n",
      "note_on channel=0 note=87 velocity=17 time=0\n",
      "note_on channel=0 note=91 velocity=82 time=0\n",
      "note_on channel=0 note=94 velocity=36 time=0\n",
      "note_on channel=0 note=102 velocity=41 time=0\n",
      "note_on channel=0 note=41 velocity=56 time=1\n",
      "note_off channel=0 note=46 velocity=64 time=0\n",
      "note_off channel=0 note=68 velocity=64 time=0\n",
      "note_off channel=0 note=71 velocity=64 time=0\n",
      "note_on channel=0 note=76 velocity=71 time=0\n",
      "note_off channel=0 note=78 velocity=64 time=0\n",
      "note_on channel=0 note=57 velocity=72 time=1\n",
      "note_off channel=0 note=58 velocity=64 time=0\n",
      "note_on channel=0 note=73 velocity=30 time=0\n",
      "note_on channel=0 note=93 velocity=68 time=0\n",
      "note_off channel=0 note=94 velocity=64 time=0\n",
      "note_on channel=0 note=100 velocity=44 time=0\n",
      "note_off channel=0 note=41 velocity=64 time=1\n",
      "note_on channel=0 note=43 velocity=61 time=0\n",
      "note_on channel=0 note=61 velocity=62 time=0\n",
      "note_off channel=0 note=65 velocity=64 time=0\n",
      "note_on channel=0 note=66 velocity=36 time=0\n",
      "note_off channel=0 note=77 velocity=64 time=0\n",
      "note_on channel=0 note=98 velocity=13 time=0\n",
      "note_off channel=0 note=66 velocity=64 time=2\n",
      "note_on channel=0 note=71 velocity=34 time=0\n",
      "note_off channel=0 note=80 velocity=64 time=0\n",
      "note_off channel=0 note=87 velocity=64 time=0\n",
      "note_off channel=0 note=102 velocity=64 time=0\n",
      "note_on channel=0 note=42 velocity=54 time=1\n",
      "note_off channel=0 note=43 velocity=64 time=0\n",
      "note_on channel=0 note=80 velocity=43 time=0\n",
      "note_on channel=0 note=87 velocity=13 time=0\n",
      "note_off channel=0 note=98 velocity=64 time=0\n",
      "note_on channel=0 note=99 velocity=25 time=0\n",
      "note_on channel=0 note=102 velocity=51 time=0\n",
      "note_off channel=0 note=71 velocity=64 time=1\n",
      "note_off channel=0 note=89 velocity=64 time=0\n",
      "note_off channel=0 note=42 velocity=64 time=1\n",
      "note_on channel=0 note=68 velocity=48 time=0\n",
      "note_off channel=0 note=73 velocity=64 time=0\n",
      "note_on channel=0 note=48 velocity=69 time=1\n",
      "note_off channel=0 note=57 velocity=64 time=0\n",
      "note_on channel=0 note=89 velocity=26 time=0\n",
      "note_off channel=0 note=93 velocity=64 time=0\n",
      "note_on channel=0 note=101 velocity=40 time=0\n",
      "note_on channel=0 note=57 velocity=66 time=1\n",
      "note_on channel=0 note=65 velocity=34 time=0\n",
      "note_off channel=0 note=68 velocity=64 time=0\n",
      "note_on channel=0 note=90 velocity=32 time=0\n",
      "note_on channel=0 note=93 velocity=63 time=0\n",
      "note_on channel=0 note=47 velocity=74 time=1\n",
      "note_off channel=0 note=48 velocity=64 time=0\n",
      "note_on channel=0 note=71 velocity=34 time=0\n",
      "note_off channel=0 note=80 velocity=64 time=0\n",
      "note_on channel=0 note=84 velocity=32 time=0\n",
      "note_off channel=0 note=47 velocity=64 time=1\n",
      "note_on channel=0 note=48 velocity=73 time=0\n",
      "note_on channel=0 note=56 velocity=69 time=0\n",
      "note_off channel=0 note=57 velocity=64 time=0\n",
      "note_off channel=0 note=65 velocity=64 time=0\n",
      "note_off channel=0 note=89 velocity=64 time=0\n",
      "note_on channel=0 note=92 velocity=47 time=0\n",
      "note_on channel=0 note=55 velocity=67 time=1\n",
      "note_off channel=0 note=56 velocity=64 time=0\n",
      "note_off channel=0 note=71 velocity=64 time=0\n",
      "note_on channel=0 note=74 velocity=55 time=0\n",
      "note_on channel=0 note=79 velocity=35 time=0\n",
      "note_off channel=0 note=84 velocity=64 time=0\n",
      "note_on channel=0 note=89 velocity=26 time=0\n",
      "note_on channel=0 note=96 velocity=21 time=0\n",
      "note_off channel=0 note=48 velocity=64 time=1\n",
      "note_on channel=0 note=50 velocity=77 time=0\n",
      "note_off channel=0 note=55 velocity=64 time=0\n",
      "note_on channel=0 note=67 velocity=67 time=0\n",
      "note_on channel=0 note=71 velocity=44 time=0\n",
      "note_off channel=0 note=76 velocity=64 time=0\n",
      "note_off channel=0 note=87 velocity=64 time=0\n",
      "note_off channel=0 note=90 velocity=64 time=0\n",
      "note_on channel=0 note=94 velocity=67 time=0\n",
      "note_off channel=0 note=50 velocity=64 time=1\n",
      "note_on channel=0 note=52 velocity=72 time=0\n",
      "note_on channel=0 note=66 velocity=63 time=0\n",
      "note_off channel=0 note=67 velocity=64 time=0\n",
      "note_off channel=0 note=74 velocity=64 time=0\n",
      "note_on channel=0 note=75 velocity=47 time=0\n",
      "note_off channel=0 note=79 velocity=64 time=0\n",
      "note_off channel=0 note=93 velocity=64 time=0\n",
      "note_off channel=0 note=52 velocity=64 time=1\n",
      "note_on channel=0 note=53 velocity=73 time=0\n",
      "note_off channel=0 note=99 velocity=64 time=0\n",
      "note_off channel=0 note=53 velocity=64 time=1\n",
      "note_on channel=0 note=54 velocity=66 time=0\n",
      "note_off channel=0 note=96 velocity=64 time=0\n",
      "note_off channel=0 note=91 velocity=64 time=1\n",
      "note_off channel=0 note=100 velocity=64 time=0\n",
      "note_on channel=0 note=53 velocity=71 time=1\n",
      "note_off channel=0 note=54 velocity=64 time=0\n",
      "note_on channel=0 note=72 velocity=45 time=0\n",
      "note_on channel=0 note=91 velocity=47 time=0\n",
      "note_on channel=0 note=93 velocity=60 time=0\n",
      "note_off channel=0 note=94 velocity=64 time=0\n",
      "note_off channel=0 note=66 velocity=64 time=1\n",
      "note_off channel=0 note=71 velocity=64 time=0\n",
      "note_on channel=0 note=77 velocity=46 time=0\n",
      "note_off channel=0 note=85 velocity=64 time=0\n",
      "note_on channel=0 note=68 velocity=62 time=1\n",
      "note_on channel=0 note=71 velocity=40 time=0\n",
      "note_off channel=0 note=89 velocity=64 time=0\n",
      "note_off channel=0 note=93 velocity=64 time=0\n",
      "note_on channel=0 note=94 velocity=15 time=0\n",
      "note_off channel=0 note=61 velocity=64 time=1\n",
      "note_off channel=0 note=72 velocity=64 time=0\n",
      "note_on channel=0 note=84 velocity=20 time=0\n",
      "note_on channel=0 note=52 velocity=71 time=1\n",
      "note_off channel=0 note=53 velocity=64 time=0\n",
      "note_on channel=0 note=64 velocity=81 time=0\n",
      "note_off channel=0 note=71 velocity=64 time=0\n",
      "note_off channel=0 note=101 velocity=64 time=0\n",
      "note_off channel=0 note=102 velocity=64 time=0\n",
      "note_on channel=0 note=45 velocity=77 time=1\n",
      "note_off channel=0 note=52 velocity=64 time=0\n",
      "note_on channel=0 note=53 velocity=71 time=0\n",
      "note_on channel=0 note=67 velocity=67 time=0\n",
      "note_off channel=0 note=68 velocity=64 time=0\n",
      "note_on channel=0 note=93 velocity=59 time=0\n",
      "note_off channel=0 note=94 velocity=64 time=0\n",
      "note_on channel=0 note=63 velocity=75 time=1\n",
      "note_off channel=0 note=64 velocity=64 time=0\n",
      "note_off channel=0 note=67 velocity=64 time=0\n",
      "note_on channel=0 note=68 velocity=54 time=0\n",
      "note_on channel=0 note=71 velocity=47 time=0\n",
      "note_on channel=0 note=101 velocity=42 time=0\n",
      "note_on channel=0 note=102 velocity=49 time=0\n",
      "note_on channel=0 note=44 velocity=79 time=1\n",
      "note_off channel=0 note=45 velocity=64 time=0\n",
      "note_off channel=0 note=53 velocity=64 time=0\n",
      "note_on channel=0 note=54 velocity=71 time=0\n",
      "note_on channel=0 note=81 velocity=33 time=0\n",
      "note_off channel=0 note=92 velocity=64 time=0\n",
      "note_off channel=0 note=68 velocity=64 time=1\n",
      "note_off channel=0 note=77 velocity=64 time=0\n",
      "note_on channel=0 note=78 velocity=58 time=0\n",
      "note_off channel=0 note=84 velocity=64 time=0\n",
      "note_off channel=0 note=91 velocity=64 time=0\n",
      "note_on channel=0 note=92 velocity=68 time=0\n",
      "note_off channel=0 note=93 velocity=64 time=0\n",
      "note_on channel=0 note=94 velocity=64 time=0\n",
      "note_off channel=0 note=63 velocity=64 time=1\n",
      "note_off channel=0 note=81 velocity=64 time=0\n",
      "note_on channel=0 note=82 velocity=39 time=0\n",
      "note_on channel=0 note=61 velocity=32 time=1\n",
      "note_off channel=0 note=44 velocity=64 time=1\n",
      "note_on channel=0 note=53 velocity=67 time=0\n",
      "note_off channel=0 note=54 velocity=64 time=0\n",
      "note_on channel=0 note=72 velocity=47 time=0\n",
      "note_off channel=0 note=53 velocity=64 time=1\n",
      "note_on channel=0 note=54 velocity=66 time=0\n",
      "note_on channel=0 note=64 velocity=38 time=0\n",
      "note_on channel=0 note=43 velocity=61 time=1\n",
      "note_on channel=0 note=53 velocity=66 time=0\n",
      "note_off channel=0 note=54 velocity=64 time=0\n",
      "note_off channel=0 note=61 velocity=64 time=0\n",
      "note_on channel=0 note=68 velocity=29 time=0\n",
      "note_off channel=0 note=72 velocity=64 time=0\n",
      "note_on channel=0 note=73 velocity=66 time=0\n",
      "note_on channel=0 note=81 velocity=42 time=0\n",
      "note_off channel=0 note=82 velocity=64 time=0\n",
      "note_on channel=0 note=93 velocity=68 time=0\n",
      "note_off channel=0 note=94 velocity=64 time=0\n",
      "note_on channel=0 note=100 velocity=37 time=0\n",
      "note_off channel=0 note=101 velocity=64 time=0\n",
      "note_off channel=0 note=53 velocity=64 time=1\n",
      "note_on channel=0 note=54 velocity=66 time=0\n",
      "note_on channel=0 note=61 velocity=70 time=0\n",
      "note_off channel=0 note=64 velocity=64 time=0\n",
      "note_on channel=0 note=65 velocity=53 time=0\n",
      "note_off channel=0 note=71 velocity=64 time=0\n",
      "note_on channel=0 note=89 velocity=34 time=0\n",
      "note_on channel=0 note=101 velocity=34 time=0\n",
      "note_on channel=0 note=53 velocity=67 time=1\n",
      "note_off channel=0 note=54 velocity=64 time=0\n",
      "note_off channel=0 note=102 velocity=64 time=0\n",
      "note_on channel=0 note=42 velocity=55 time=1\n",
      "note_off channel=0 note=43 velocity=64 time=0\n",
      "note_off channel=0 note=53 velocity=64 time=0\n",
      "note_on channel=0 note=54 velocity=67 time=0\n",
      "note_off channel=0 note=68 velocity=64 time=0\n",
      "note_off channel=0 note=101 velocity=64 time=0\n",
      "note_off channel=0 note=65 velocity=64 time=1\n",
      "note_on channel=0 note=71 velocity=52 time=0\n",
      "note_on channel=0 note=72 velocity=40 time=0\n",
      "note_off channel=0 note=73 velocity=64 time=0\n",
      "note_off channel=0 note=81 velocity=64 time=0\n",
      "note_on channel=0 note=82 velocity=34 time=0\n",
      "note_on channel=0 note=88 velocity=17 time=0\n",
      "note_off channel=0 note=89 velocity=64 time=0\n",
      "note_on channel=0 note=91 velocity=58 time=0\n",
      "note_on channel=0 note=101 velocity=37 time=0\n",
      "note_off channel=0 note=72 velocity=64 time=2\n",
      "note_off channel=0 note=82 velocity=64 time=0\n",
      "note_on channel=0 note=84 velocity=61 time=1\n",
      "note_off channel=0 note=88 velocity=64 time=0\n",
      "note_off channel=0 note=101 velocity=64 time=0\n",
      "note_off channel=0 note=54 velocity=64 time=1\n",
      "note_on channel=0 note=67 velocity=50 time=0\n",
      "note_on channel=0 note=77 velocity=34 time=0\n",
      "note_off channel=0 note=78 velocity=64 time=0\n",
      "note_on channel=0 note=88 velocity=33 time=0\n",
      "note_on channel=0 note=56 velocity=60 time=1\n",
      "note_off channel=0 note=93 velocity=64 time=0\n",
      "note_off channel=0 note=100 velocity=64 time=0\n",
      "note_off channel=0 note=42 velocity=64 time=1\n",
      "note_on channel=0 note=65 velocity=46 time=0\n",
      "note_off channel=0 note=67 velocity=64 time=0\n",
      "note_on channel=0 note=86 velocity=44 time=0\n",
      "note_on channel=0 note=42 velocity=52 time=1\n",
      "note_off channel=0 note=56 velocity=64 time=0\n",
      "note_on channel=0 note=79 velocity=62 time=0\n",
      "note_off channel=0 note=92 velocity=64 time=0\n",
      "note_off channel=0 note=71 velocity=64 time=1\n",
      "note_on channel=0 note=72 velocity=85 time=0\n",
      "note_off channel=0 note=61 velocity=64 time=1\n",
      "note_on channel=0 note=94 velocity=58 time=0\n",
      "note_on channel=0 note=100 velocity=36 time=0\n",
      "note_on channel=0 note=61 velocity=74 time=1\n",
      "note_on channel=0 note=93 velocity=61 time=0\n",
      "note_off channel=0 note=83 velocity=64 time=1\n",
      "note_off channel=0 note=94 velocity=64 time=0\n",
      "note_on channel=0 note=101 velocity=38 time=0\n",
      "note_on channel=0 note=78 velocity=75 time=1\n",
      "note_on channel=0 note=83 velocity=69 time=0\n",
      "note_off channel=0 note=84 velocity=64 time=0\n",
      "note_on channel=0 note=71 velocity=75 time=1\n",
      "note_off channel=0 note=72 velocity=64 time=0\n",
      "note_off channel=0 note=77 velocity=64 time=0\n",
      "note_off channel=0 note=79 velocity=64 time=0\n",
      "note_on channel=0 note=89 velocity=73 time=0\n",
      "note_off channel=0 note=91 velocity=64 time=0\n",
      "note_on channel=0 note=92 velocity=72 time=0\n",
      "note_off channel=0 note=93 velocity=64 time=0\n",
      "note_on channel=0 note=94 velocity=38 time=0\n",
      "note_off channel=0 note=42 velocity=64 time=1\n",
      "note_on channel=0 note=58 velocity=62 time=0\n",
      "note_on channel=0 note=82 velocity=56 time=0\n",
      "note_off channel=0 note=83 velocity=64 time=0\n",
      "note_on channel=0 note=93 velocity=62 time=0\n",
      "note_on channel=0 note=96 velocity=16 time=0\n",
      "note_on channel=0 note=69 velocity=59 time=1\n",
      "note_off channel=0 note=71 velocity=64 time=0\n",
      "note_on channel=0 note=76 velocity=76 time=0\n",
      "note_off channel=0 note=88 velocity=64 time=0\n",
      "note_on channel=0 note=91 velocity=75 time=0\n",
      "note_off channel=0 note=92 velocity=64 time=0\n",
      "note_on channel=0 note=95 velocity=41 time=0\n",
      "note_on channel=0 note=45 velocity=65 time=1\n",
      "note_off channel=0 note=58 velocity=64 time=0\n",
      "note_on channel=0 note=80 velocity=86 time=0\n",
      "note_on channel=0 note=81 velocity=62 time=0\n",
      "note_off channel=0 note=82 velocity=64 time=0\n",
      "note_on channel=0 note=83 velocity=39 time=0\n",
      "note_on channel=0 note=85 velocity=52 time=0\n",
      "note_off channel=0 note=86 velocity=64 time=0\n",
      "note_off channel=0 note=94 velocity=64 time=0\n",
      "note_off channel=0 note=45 velocity=64 time=1\n",
      "note_on channel=0 note=47 velocity=79 time=0\n",
      "note_off channel=0 note=65 velocity=64 time=0\n",
      "note_off channel=0 note=75 velocity=64 time=0\n",
      "note_on channel=0 note=82 velocity=42 time=0\n",
      "note_off channel=0 note=47 velocity=64 time=1\n",
      "note_on channel=0 note=48 velocity=85 time=0\n",
      "note_on channel=0 note=64 velocity=62 time=0\n",
      "note_off channel=0 note=78 velocity=64 time=0\n",
      "note_off channel=0 note=81 velocity=64 time=0\n",
      "note_off channel=0 note=83 velocity=64 time=0\n",
      "note_off channel=0 note=61 velocity=64 time=1\n",
      "note_on channel=0 note=63 velocity=60 time=0\n",
      "note_off channel=0 note=82 velocity=64 time=0\n",
      "note_off channel=0 note=96 velocity=64 time=0\n",
      "note_off channel=0 note=48 velocity=64 time=1\n",
      "note_on channel=0 note=61 velocity=49 time=0\n",
      "note_off channel=0 note=64 velocity=64 time=0\n",
      "note_off channel=0 note=63 velocity=64 time=1\n",
      "note_on channel=0 note=65 velocity=47 time=0\n",
      "note_on channel=0 note=84 velocity=16 time=0\n",
      "note_off channel=0 note=101 velocity=64 time=0\n",
      "note_on channel=0 note=48 velocity=64 time=1\n",
      "note_off channel=0 note=61 velocity=64 time=0\n",
      "note_off channel=0 note=69 velocity=64 time=0\n",
      "note_off channel=0 note=100 velocity=64 time=0\n",
      "note_on channel=0 note=68 velocity=46 time=1\n",
      "note_on channel=0 note=71 velocity=39 time=0\n",
      "note_off channel=0 note=95 velocity=64 time=0\n",
      "note_off channel=0 note=48 velocity=64 time=1\n",
      "note_on channel=0 note=49 velocity=55 time=0\n",
      "note_on channel=0 note=73 velocity=57 time=0\n",
      "note_on channel=0 note=58 velocity=41 time=1\n",
      "note_on channel=0 note=82 velocity=29 time=0\n",
      "note_off channel=0 note=49 velocity=64 time=1\n",
      "note_on channel=0 note=55 velocity=38 time=0\n",
      "note_on channel=0 note=75 velocity=26 time=0\n",
      "note_off channel=0 note=85 velocity=64 time=0\n",
      "note_off channel=0 note=93 velocity=64 time=0\n",
      "note_off channel=0 note=58 velocity=64 time=1\n",
      "note_on channel=0 note=61 velocity=28 time=0\n",
      "note_off channel=0 note=76 velocity=64 time=0\n",
      "note_on channel=0 note=44 velocity=38 time=1\n",
      "note_on channel=0 note=54 velocity=39 time=0\n",
      "note_off channel=0 note=55 velocity=64 time=0\n",
      "note_on channel=0 note=78 velocity=14 time=0\n",
      "note_on channel=0 note=83 velocity=49 time=1\n",
      "note_off channel=0 note=44 velocity=64 time=1\n",
      "note_on channel=0 note=53 velocity=38 time=0\n",
      "note_off channel=0 note=54 velocity=64 time=0\n",
      "note_off channel=0 note=82 velocity=64 time=0\n",
      "note_off channel=0 note=91 velocity=64 time=0\n",
      "note_off channel=0 note=61 velocity=64 time=1\n",
      "note_off channel=0 note=65 velocity=64 time=0\n",
      "note_off channel=0 note=78 velocity=64 time=0\n",
      "note_on channel=0 note=99 velocity=59 time=0\n",
      "note_on channel=0 note=100 velocity=50 time=0\n",
      "note_off channel=0 note=53 velocity=64 time=1\n",
      "note_on channel=0 note=54 velocity=34 time=0\n",
      "note_on channel=0 note=61 velocity=84 time=0\n",
      "note_on channel=0 note=66 velocity=45 time=0\n",
      "note_off channel=0 note=68 velocity=64 time=0\n",
      "note_on channel=0 note=98 velocity=49 time=0\n",
      "note_on channel=0 note=65 velocity=49 time=1\n",
      "note_off channel=0 note=100 velocity=64 time=0\n",
      "note_off channel=0 note=66 velocity=64 time=1\n",
      "note_on channel=0 note=91 velocity=30 time=0\n",
      "note_on channel=0 note=97 velocity=30 time=0\n",
      "note_on channel=0 note=100 velocity=36 time=0\n",
      "note_off channel=0 note=71 velocity=64 time=1\n",
      "note_on channel=0 note=94 velocity=19 time=0\n",
      "note_off channel=0 note=98 velocity=64 time=0\n",
      "note_on channel=0 note=68 velocity=20 time=1\n",
      "note_on channel=0 note=98 velocity=55 time=0\n",
      "note_off channel=0 note=54 velocity=64 time=1\n",
      "note_on channel=0 note=60 velocity=75 time=0\n",
      "note_off channel=0 note=61 velocity=64 time=0\n",
      "note_off channel=0 note=73 velocity=64 time=0\n",
      "note_on channel=0 note=79 velocity=33 time=0\n",
      "note_off channel=0 note=84 velocity=64 time=0\n",
      "note_on channel=0 note=93 velocity=25 time=1\n",
      "note_off channel=0 note=94 velocity=64 time=0\n",
      "note_off channel=0 note=97 velocity=64 time=0\n",
      "note_on channel=0 note=59 velocity=60 time=1\n",
      "note_off channel=0 note=60 velocity=64 time=0\n",
      "note_on channel=0 note=78 velocity=56 time=0\n",
      "note_off channel=0 note=79 velocity=64 time=0\n",
      "note_off channel=0 note=100 velocity=64 time=0\n",
      "note_on channel=0 note=42 velocity=12 time=1\n",
      "note_on channel=0 note=71 velocity=73 time=0\n",
      "note_off channel=0 note=91 velocity=64 time=0\n",
      "note_on channel=0 note=97 velocity=33 time=0\n",
      "note_on channel=0 note=91 velocity=33 time=1\n",
      "note_on channel=0 note=54 velocity=24 time=1\n",
      "note_off channel=0 note=98 velocity=64 time=0\n",
      "note_off channel=0 note=42 velocity=64 time=1\n",
      "note_off channel=0 note=75 velocity=64 time=1\n",
      "note_on channel=0 note=84 velocity=46 time=0\n",
      "note_off channel=0 note=91 velocity=64 time=0\n",
      "note_off channel=0 note=54 velocity=64 time=1\n",
      "note_off channel=0 note=59 velocity=64 time=0\n",
      "note_on channel=0 note=60 velocity=59 time=0\n",
      "note_on channel=0 note=77 velocity=49 time=0\n",
      "note_on channel=0 note=91 velocity=37 time=0\n",
      "note_on channel=0 note=98 velocity=24 time=0\n",
      "note_off channel=0 note=65 velocity=64 time=1\n",
      "note_off channel=0 note=68 velocity=64 time=0\n",
      "note_on channel=0 note=69 velocity=48 time=0\n",
      "note_off channel=0 note=71 velocity=64 time=0\n",
      "note_on channel=0 note=72 velocity=69 time=0\n",
      "note_off channel=0 note=78 velocity=64 time=0\n",
      "note_on channel=0 note=100 velocity=24 time=0\n",
      "note_on channel=0 note=102 velocity=25 time=0\n"
     ]
    },
    {
     "name": "stdout",
     "output_type": "stream",
     "text": [
      "note_on channel=0 note=45 velocity=75 time=1\n",
      "note_off channel=0 note=60 velocity=64 time=0\n",
      "note_on channel=0 note=61 velocity=78 time=0\n",
      "note_on channel=0 note=67 velocity=48 time=0\n",
      "note_on channel=0 note=75 velocity=49 time=0\n",
      "note_on channel=0 note=78 velocity=42 time=0\n",
      "note_off channel=0 note=83 velocity=64 time=0\n",
      "note_on channel=0 note=85 velocity=58 time=0\n",
      "note_on channel=0 note=44 velocity=77 time=1\n",
      "note_off channel=0 note=45 velocity=64 time=0\n",
      "note_on channel=0 note=82 velocity=26 time=0\n",
      "note_off channel=0 note=72 velocity=64 time=1\n",
      "note_off channel=0 note=78 velocity=64 time=0\n",
      "note_on channel=0 note=88 velocity=34 time=0\n",
      "note_off channel=0 note=91 velocity=64 time=0\n",
      "note_off channel=0 note=98 velocity=64 time=0\n",
      "note_on channel=0 note=103 velocity=30 time=0\n",
      "note_off channel=0 note=67 velocity=64 time=1\n",
      "note_off channel=0 note=69 velocity=64 time=0\n",
      "note_on channel=0 note=72 velocity=37 time=0\n",
      "note_on channel=0 note=91 velocity=27 time=0\n",
      "note_off channel=0 note=93 velocity=64 time=0\n",
      "note_off channel=0 note=97 velocity=64 time=0\n",
      "note_off channel=0 note=100 velocity=64 time=0\n",
      "note_off channel=0 note=102 velocity=64 time=0\n",
      "note_on channel=0 note=43 velocity=74 time=1\n",
      "note_off channel=0 note=44 velocity=64 time=0\n",
      "note_on channel=0 note=65 velocity=48 time=0\n",
      "note_off channel=0 note=84 velocity=64 time=0\n",
      "note_off channel=0 note=88 velocity=64 time=0\n",
      "note_on channel=0 note=98 velocity=43 time=0\n",
      "note_off channel=0 note=99 velocity=64 time=0\n",
      "note_on channel=0 note=100 velocity=17 time=0\n",
      "note_on channel=0 note=102 velocity=26 time=0\n",
      "note_off channel=0 note=61 velocity=64 time=1\n",
      "note_on channel=0 note=62 velocity=70 time=0\n",
      "note_on channel=0 note=74 velocity=71 time=0\n",
      "note_off channel=0 note=75 velocity=64 time=0\n",
      "note_on channel=0 note=88 velocity=32 time=0\n",
      "note_on channel=0 note=90 velocity=26 time=0\n",
      "note_off channel=0 note=103 velocity=64 time=0\n",
      "note_off channel=0 note=72 velocity=64 time=1\n",
      "note_off channel=0 note=89 velocity=64 time=0\n",
      "note_on channel=0 note=54 velocity=18 time=1\n",
      "note_on channel=0 note=68 velocity=25 time=0\n",
      "note_on channel=0 note=71 velocity=20 time=0\n",
      "note_on channel=0 note=89 velocity=90 time=0\n",
      "note_on channel=0 note=93 velocity=35 time=0\n",
      "note_on channel=0 note=95 velocity=38 time=0\n",
      "note_on channel=0 note=61 velocity=73 time=1\n",
      "note_off channel=0 note=62 velocity=64 time=0\n",
      "note_on channel=0 note=84 velocity=11 time=0\n",
      "note_off channel=0 note=91 velocity=64 time=0\n",
      "note_off channel=0 note=100 velocity=64 time=0\n",
      "note_off channel=0 note=88 velocity=64 time=1\n",
      "note_off channel=0 note=90 velocity=64 time=0\n",
      "note_off channel=0 note=98 velocity=64 time=0\n",
      "note_off channel=0 note=102 velocity=64 time=0\n",
      "note_off channel=0 note=54 velocity=64 time=1\n",
      "note_off channel=0 note=74 velocity=64 time=0\n",
      "note_off channel=0 note=43 velocity=64 time=1\n",
      "note_on channel=0 note=44 velocity=30 time=0\n",
      "note_off channel=0 note=84 velocity=64 time=1\n",
      "note_off channel=0 note=44 velocity=64 time=4\n",
      "note_on channel=0 note=91 velocity=29 time=0\n",
      "note_on channel=0 note=75 velocity=24 time=1\n",
      "note_off channel=0 note=68 velocity=64 time=1\n",
      "note_on channel=0 note=84 velocity=28 time=4\n",
      "note_on channel=0 note=90 velocity=40 time=4\n",
      "note_off channel=0 note=91 velocity=64 time=0\n",
      "note_off channel=0 note=71 velocity=64 time=1\n",
      "note_off channel=0 note=75 velocity=64 time=0\n",
      "note_on channel=0 note=64 velocity=81 time=1\n",
      "note_off channel=0 note=65 velocity=64 time=0\n",
      "note_off channel=0 note=82 velocity=64 time=0\n",
      "note_on channel=0 note=91 velocity=22 time=0\n",
      "note_on channel=0 note=45 velocity=78 time=1\n",
      "note_off channel=0 note=61 velocity=64 time=0\n",
      "note_on channel=0 note=71 velocity=27 time=0\n",
      "note_on channel=0 note=82 velocity=34 time=0\n",
      "note_on channel=0 note=61 velocity=78 time=1\n",
      "note_on channel=0 note=63 velocity=76 time=0\n",
      "note_off channel=0 note=64 velocity=64 time=0\n",
      "note_on channel=0 note=44 velocity=78 time=1\n",
      "note_off channel=0 note=45 velocity=64 time=0\n",
      "note_off channel=0 note=63 velocity=64 time=0\n",
      "note_on channel=0 note=69 velocity=38 time=0\n",
      "note_on channel=0 note=75 velocity=22 time=0\n",
      "note_off channel=0 note=82 velocity=64 time=0\n",
      "note_off channel=0 note=90 velocity=64 time=0\n",
      "note_off channel=0 note=71 velocity=64 time=1\n",
      "note_on channel=0 note=82 velocity=30 time=0\n",
      "note_off channel=0 note=69 velocity=64 time=1\n",
      "note_on channel=0 note=71 velocity=21 time=1\n",
      "note_on channel=0 note=90 velocity=18 time=0\n",
      "note_off channel=0 note=44 velocity=64 time=1\n",
      "note_on channel=0 note=67 velocity=25 time=0\n",
      "note_off channel=0 note=91 velocity=64 time=0\n",
      "note_on channel=0 note=91 velocity=59 time=1\n",
      "note_on channel=0 note=43 velocity=62 time=2\n",
      "note_off channel=0 note=67 velocity=64 time=0\n",
      "note_off channel=0 note=84 velocity=64 time=0\n",
      "note_off channel=0 note=71 velocity=64 time=1\n",
      "note_on channel=0 note=72 velocity=71 time=0\n",
      "note_off channel=0 note=95 velocity=64 time=0\n",
      "note_off channel=0 note=43 velocity=64 time=1\n",
      "note_on channel=0 note=60 velocity=64 time=0\n",
      "note_off channel=0 note=61 velocity=64 time=0\n",
      "note_on channel=0 note=79 velocity=66 time=0\n",
      "note_off channel=0 note=80 velocity=64 time=0\n",
      "note_on channel=0 note=78 velocity=76 time=1\n",
      "note_off channel=0 note=79 velocity=64 time=0\n",
      "note_on channel=0 note=83 velocity=48 time=0\n",
      "note_off channel=0 note=90 velocity=64 time=0\n",
      "note_on channel=0 note=102 velocity=30 time=0\n",
      "note_on channel=0 note=41 velocity=30 time=1\n",
      "note_on channel=0 note=71 velocity=63 time=0\n",
      "note_off channel=0 note=72 velocity=64 time=0\n",
      "note_on channel=0 note=73 velocity=54 time=0\n",
      "note_off channel=0 note=75 velocity=64 time=0\n",
      "note_on channel=0 note=80 velocity=55 time=0\n",
      "note_off channel=0 note=82 velocity=64 time=0\n",
      "note_off channel=0 note=85 velocity=64 time=0\n",
      "note_off channel=0 note=91 velocity=64 time=0\n",
      "note_off channel=0 note=60 velocity=64 time=1\n",
      "note_on channel=0 note=67 velocity=35 time=0\n",
      "note_off channel=0 note=77 velocity=64 time=0\n",
      "note_on channel=0 note=91 velocity=30 time=0\n",
      "note_off channel=0 note=41 velocity=64 time=1\n",
      "note_on channel=0 note=48 velocity=68 time=0\n",
      "note_on channel=0 note=47 velocity=72 time=1\n",
      "note_off channel=0 note=48 velocity=64 time=0\n",
      "note_off channel=0 note=47 velocity=64 time=2\n",
      "note_on channel=0 note=48 velocity=66 time=0\n",
      "note_off channel=0 note=48 velocity=64 time=1\n",
      "note_on channel=0 note=49 velocity=75 time=0\n",
      "note_on channel=0 note=70 velocity=38 time=0\n",
      "note_off channel=0 note=71 velocity=64 time=0\n",
      "note_off channel=0 note=89 velocity=64 time=0\n",
      "note_off channel=0 note=91 velocity=64 time=0\n",
      "note_off channel=0 note=49 velocity=64 time=1\n",
      "note_on channel=0 note=53 velocity=75 time=0\n",
      "note_off channel=0 note=67 velocity=64 time=0\n",
      "note_off channel=0 note=83 velocity=64 time=0\n",
      "note_on channel=0 note=84 velocity=30 time=0\n",
      "note_on channel=0 note=89 velocity=44 time=0\n",
      "note_on channel=0 note=58 velocity=65 time=1\n",
      "note_off channel=0 note=102 velocity=64 time=0\n",
      "note_on channel=0 note=57 velocity=73 time=1\n",
      "note_off channel=0 note=58 velocity=64 time=0\n",
      "note_off channel=0 note=70 velocity=64 time=0\n",
      "note_on channel=0 note=88 velocity=22 time=0\n",
      "note_off channel=0 note=53 velocity=64 time=1\n",
      "note_off channel=0 note=89 velocity=64 time=0\n",
      "note_on channel=0 note=56 velocity=70 time=1\n",
      "note_off channel=0 note=57 velocity=64 time=0\n",
      "note_off channel=0 note=56 velocity=64 time=1\n",
      "note_on channel=0 note=57 velocity=67 time=0\n",
      "note_on channel=0 note=89 velocity=43 time=0\n",
      "note_on channel=0 note=91 velocity=25 time=0\n",
      "note_on channel=0 note=76 velocity=65 time=1\n",
      "note_off channel=0 note=88 velocity=64 time=0\n",
      "note_off channel=0 note=78 velocity=64 time=1\n",
      "note_off channel=0 note=73 velocity=64 time=1\n",
      "note_on channel=0 note=82 velocity=29 time=0\n",
      "note_on channel=0 note=87 velocity=26 time=0\n",
      "note_on channel=0 note=46 velocity=65 time=1\n",
      "note_on channel=0 note=64 velocity=80 time=0\n",
      "note_on channel=0 note=73 velocity=41 time=0\n",
      "note_off channel=0 note=84 velocity=64 time=0\n",
      "note_off channel=0 note=91 velocity=64 time=0\n",
      "note_on channel=0 note=45 velocity=76 time=1\n",
      "note_off channel=0 note=46 velocity=64 time=0\n",
      "note_off channel=0 note=57 velocity=64 time=0\n",
      "note_on channel=0 note=91 velocity=33 time=0\n",
      "note_on channel=0 note=44 velocity=78 time=1\n",
      "note_off channel=0 note=45 velocity=64 time=0\n",
      "note_on channel=0 note=57 velocity=59 time=0\n",
      "note_on channel=0 note=63 velocity=70 time=0\n",
      "note_on channel=0 note=71 velocity=34 time=0\n",
      "note_off channel=0 note=93 velocity=64 time=0\n",
      "note_off channel=0 note=64 velocity=64 time=1\n",
      "note_on channel=0 note=68 velocity=57 time=0\n",
      "note_off channel=0 note=82 velocity=64 time=0\n",
      "note_off channel=0 note=91 velocity=64 time=0\n",
      "note_off channel=0 note=57 velocity=64 time=1\n",
      "note_off channel=0 note=76 velocity=64 time=0\n",
      "note_on channel=0 note=84 velocity=43 time=0\n",
      "note_on channel=0 note=91 velocity=33 time=0\n",
      "note_off channel=0 note=44 velocity=64 time=1\n",
      "note_on channel=0 note=45 velocity=76 time=0\n",
      "note_off channel=0 note=71 velocity=64 time=0\n",
      "note_on channel=0 note=90 velocity=41 time=0\n",
      "note_off channel=0 note=63 velocity=64 time=1\n",
      "note_on channel=0 note=65 velocity=47 time=0\n",
      "note_off channel=0 note=68 velocity=64 time=0\n",
      "note_on channel=0 note=76 velocity=64 time=0\n",
      "note_on channel=0 note=93 velocity=35 time=0\n",
      "note_on channel=0 note=44 velocity=71 time=1\n",
      "note_off channel=0 note=45 velocity=64 time=0\n",
      "note_off channel=0 note=84 velocity=64 time=0\n",
      "note_off channel=0 note=89 velocity=64 time=0\n",
      "note_on channel=0 note=61 velocity=61 time=1\n",
      "note_on channel=0 note=84 velocity=30 time=0\n",
      "note_off channel=0 note=91 velocity=64 time=0\n",
      "note_on channel=0 note=43 velocity=63 time=1\n",
      "note_off channel=0 note=44 velocity=64 time=0\n",
      "note_off channel=0 note=87 velocity=64 time=0\n",
      "note_on channel=0 note=82 velocity=16 time=1\n",
      "note_on channel=0 note=91 velocity=32 time=0\n",
      "note_on channel=0 note=42 velocity=58 time=1\n",
      "note_off channel=0 note=43 velocity=64 time=0\n",
      "note_off channel=0 note=91 velocity=64 time=1\n",
      "note_off channel=0 note=42 velocity=64 time=1\n",
      "note_on channel=0 note=68 velocity=74 time=0\n",
      "note_on channel=0 note=87 velocity=37 time=0\n",
      "note_on channel=0 note=91 velocity=32 time=0\n",
      "note_on channel=0 note=56 velocity=68 time=1\n",
      "note_on channel=0 note=75 velocity=52 time=0\n",
      "note_off channel=0 note=76 velocity=64 time=0\n",
      "note_on channel=0 note=48 velocity=69 time=1\n",
      "note_on channel=0 note=83 velocity=54 time=0\n",
      "note_off channel=0 note=82 velocity=64 time=1\n",
      "note_off channel=0 note=90 velocity=64 time=0\n",
      "note_on channel=0 note=47 velocity=73 time=1\n",
      "note_off channel=0 note=48 velocity=64 time=0\n",
      "note_off channel=0 note=84 velocity=64 time=0\n",
      "note_on channel=0 note=86 velocity=9 time=0\n",
      "note_on channel=0 note=90 velocity=56 time=0\n",
      "note_off channel=0 note=91 velocity=64 time=0\n",
      "note_off channel=0 note=47 velocity=64 time=1\n",
      "note_on channel=0 note=48 velocity=72 time=0\n",
      "note_off channel=0 note=56 velocity=64 time=0\n",
      "note_on channel=0 note=71 velocity=18 time=0\n",
      "note_on channel=0 note=84 velocity=26 time=0\n",
      "note_on channel=0 note=94 velocity=38 time=1\n",
      "note_off channel=0 note=48 velocity=64 time=1\n",
      "note_on channel=0 note=52 velocity=76 time=0\n",
      "note_off channel=0 note=86 velocity=64 time=0\n",
      "note_off channel=0 note=52 velocity=64 time=1\n",
      "note_on channel=0 note=54 velocity=72 time=0\n",
      "note_off channel=0 note=54 velocity=64 time=1\n",
      "note_on channel=0 note=85 velocity=43 time=0\n",
      "note_on channel=0 note=53 velocity=53 time=3\n",
      "note_on channel=0 note=89 velocity=69 time=0\n",
      "note_off channel=0 note=61 velocity=64 time=1\n",
      "note_off channel=0 note=84 velocity=64 time=0\n",
      "note_off channel=0 note=93 velocity=64 time=0\n",
      "note_off channel=0 note=53 velocity=64 time=1\n",
      "note_on channel=0 note=61 velocity=31 time=0\n",
      "note_off channel=0 note=65 velocity=64 time=0\n",
      "note_off channel=0 note=71 velocity=64 time=0\n",
      "note_on channel=0 note=91 velocity=26 time=0\n",
      "note_on channel=0 note=93 velocity=39 time=0\n",
      "note_on channel=0 note=55 velocity=63 time=1\n",
      "note_on channel=0 note=67 velocity=65 time=0\n",
      "note_off channel=0 note=68 velocity=64 time=0\n",
      "note_off channel=0 note=73 velocity=64 time=0\n",
      "note_off channel=0 note=80 velocity=64 time=0\n",
      "note_on channel=0 note=84 velocity=29 time=0\n",
      "note_off channel=0 note=94 velocity=64 time=0\n",
      "note_on channel=0 note=48 velocity=87 time=1\n",
      "note_off channel=0 note=61 velocity=64 time=0\n",
      "note_off channel=0 note=67 velocity=64 time=0\n",
      "note_on channel=0 note=68 velocity=78 time=0\n",
      "note_on channel=0 note=80 velocity=81 time=0\n",
      "note_on channel=0 note=88 velocity=34 time=0\n",
      "note_off channel=0 note=90 velocity=64 time=0\n",
      "note_on channel=0 note=94 velocity=36 time=0\n",
      "note_on channel=0 note=102 velocity=22 time=0\n",
      "note_off channel=0 note=55 velocity=64 time=1\n",
      "note_on channel=0 note=56 velocity=59 time=0\n",
      "note_on channel=0 note=78 velocity=31 time=0\n",
      "note_off channel=0 note=84 velocity=64 time=0\n",
      "note_on channel=0 note=90 velocity=35 time=0\n",
      "note_on channel=0 note=63 velocity=47 time=1\n",
      "note_on channel=0 note=77 velocity=49 time=0\n",
      "note_off channel=0 note=87 velocity=64 time=0\n",
      "note_on channel=0 note=99 velocity=10 time=0\n",
      "note_on channel=0 note=71 velocity=20 time=1\n",
      "note_on channel=0 note=73 velocity=41 time=0\n",
      "note_off channel=0 note=88 velocity=64 time=0\n",
      "note_off channel=0 note=91 velocity=64 time=0\n",
      "note_off channel=0 note=94 velocity=64 time=0\n",
      "note_on channel=0 note=46 velocity=66 time=1\n",
      "note_off channel=0 note=48 velocity=64 time=0\n",
      "note_off channel=0 note=63 velocity=64 time=0\n",
      "note_off channel=0 note=78 velocity=64 time=0\n",
      "note_off channel=0 note=90 velocity=64 time=1\n",
      "note_on channel=0 note=91 velocity=28 time=0\n",
      "note_on channel=0 note=98 velocity=9 time=0\n",
      "note_off channel=0 note=99 velocity=64 time=0\n",
      "note_off channel=0 note=46 velocity=64 time=1\n",
      "note_on channel=0 note=90 velocity=18 time=0\n",
      "note_off channel=0 note=71 velocity=64 time=1\n",
      "note_off channel=0 note=75 velocity=64 time=0\n",
      "note_on channel=0 note=45 velocity=60 time=1\n",
      "note_off channel=0 note=98 velocity=64 time=1\n",
      "note_on channel=0 note=44 velocity=49 time=2\n",
      "note_off channel=0 note=45 velocity=64 time=0\n",
      "note_on channel=0 note=75 velocity=21 time=0\n",
      "note_on channel=0 note=82 velocity=31 time=0\n",
      "note_on channel=0 note=71 velocity=33 time=1\n",
      "note_off channel=0 note=83 velocity=64 time=0\n",
      "note_off channel=0 note=44 velocity=64 time=1\n",
      "note_on channel=0 note=55 velocity=74 time=0\n",
      "note_off channel=0 note=56 velocity=64 time=0\n",
      "note_on channel=0 note=44 velocity=44 time=1\n",
      "note_off channel=0 note=91 velocity=64 time=0\n",
      "note_off channel=0 note=102 velocity=64 time=0\n",
      "note_on channel=0 note=43 velocity=27 time=2\n",
      "note_off channel=0 note=44 velocity=64 time=0\n",
      "note_off channel=0 note=68 velocity=64 time=0\n",
      "note_on channel=0 note=61 velocity=20 time=1\n",
      "note_on channel=0 note=100 velocity=25 time=0\n",
      "note_off channel=0 note=75 velocity=64 time=1\n",
      "note_on channel=0 note=66 velocity=68 time=1\n",
      "note_on channel=0 note=75 velocity=27 time=0\n",
      "note_off channel=0 note=43 velocity=64 time=1\n",
      "note_on channel=0 note=54 velocity=60 time=0\n",
      "note_off channel=0 note=55 velocity=64 time=0\n",
      "note_off channel=0 note=82 velocity=64 time=1\n",
      "note_off channel=0 note=54 velocity=64 time=1\n",
      "note_on channel=0 note=55 velocity=67 time=0\n",
      "note_on channel=0 note=91 velocity=15 time=0\n",
      "note_on channel=0 note=42 velocity=21 time=1\n",
      "note_off channel=0 note=55 velocity=64 time=1\n",
      "note_on channel=0 note=98 velocity=38 time=0\n",
      "note_off channel=0 note=61 velocity=64 time=1\n",
      "note_off channel=0 note=71 velocity=64 time=0\n",
      "note_on channel=0 note=88 velocity=24 time=0\n",
      "note_on channel=0 note=52 velocity=67 time=1\n",
      "note_off channel=0 note=66 velocity=64 time=0\n",
      "note_off channel=0 note=89 velocity=64 time=0\n",
      "note_off channel=0 note=42 velocity=64 time=1\n",
      "note_on channel=0 note=66 velocity=35 time=0\n",
      "note_on channel=0 note=71 velocity=36 time=0\n",
      "note_on channel=0 note=82 velocity=29 time=1\n",
      "note_on channel=0 note=89 velocity=69 time=0\n",
      "note_off channel=0 note=91 velocity=64 time=0\n",
      "note_on channel=0 note=95 velocity=43 time=0\n",
      "note_off channel=0 note=52 velocity=64 time=1\n",
      "note_on channel=0 note=57 velocity=36 time=0\n",
      "note_off channel=0 note=66 velocity=64 time=0\n",
      "note_off channel=0 note=88 velocity=64 time=0\n",
      "note_off channel=0 note=90 velocity=64 time=0\n",
      "note_on channel=0 note=91 velocity=16 time=0\n",
      "note_on channel=0 note=102 velocity=20 time=0\n",
      "note_on channel=0 note=45 velocity=76 time=1\n",
      "note_on channel=0 note=63 velocity=60 time=0\n",
      "note_off channel=0 note=71 velocity=64 time=0\n",
      "note_off channel=0 note=73 velocity=64 time=0\n",
      "note_off channel=0 note=75 velocity=64 time=0\n",
      "note_on channel=0 note=84 velocity=47 time=0\n",
      "note_on channel=0 note=88 velocity=34 time=0\n",
      "note_off channel=0 note=57 velocity=64 time=1\n",
      "note_on channel=0 note=67 velocity=45 time=0\n",
      "note_on channel=0 note=71 velocity=47 time=0\n",
      "note_on channel=0 note=78 velocity=25 time=0\n",
      "note_on channel=0 note=44 velocity=78 time=1\n",
      "note_off channel=0 note=45 velocity=64 time=0\n",
      "note_on channel=0 note=51 velocity=66 time=0\n",
      "note_off channel=0 note=63 velocity=64 time=0\n",
      "note_on channel=0 note=64 velocity=46 time=0\n",
      "note_off channel=0 note=98 velocity=64 time=0\n",
      "note_off channel=0 note=51 velocity=64 time=1\n",
      "note_off channel=0 note=71 velocity=64 time=0\n",
      "note_off channel=0 note=88 velocity=64 time=0\n",
      "note_off channel=0 note=95 velocity=64 time=0\n",
      "note_on channel=0 note=98 velocity=33 time=0\n",
      "note_on channel=0 note=71 velocity=53 time=1\n",
      "note_off channel=0 note=78 velocity=64 time=0\n",
      "note_off channel=0 note=91 velocity=64 time=0\n",
      "note_off channel=0 note=100 velocity=64 time=0\n",
      "note_on channel=0 note=43 velocity=73 time=1\n",
      "note_off channel=0 note=44 velocity=64 time=0\n",
      "note_on channel=0 note=51 velocity=54 time=0\n",
      "note_off channel=0 note=64 velocity=64 time=0\n",
      "note_off channel=0 note=102 velocity=64 time=0\n",
      "note_on channel=0 note=70 velocity=49 time=1\n",
      "note_off channel=0 note=71 velocity=64 time=0\n",
      "note_off channel=0 note=82 velocity=64 time=0\n",
      "note_off channel=0 note=51 velocity=64 time=1\n",
      "note_off channel=0 note=67 velocity=64 time=0\n",
      "note_on channel=0 note=71 velocity=50 time=0\n",
      "note_off channel=0 note=84 velocity=64 time=0\n",
      "note_off channel=0 note=70 velocity=64 time=1\n",
      "note_on channel=0 note=73 velocity=41 time=0\n",
      "note_on channel=0 note=51 velocity=48 time=1\n",
      "note_off channel=0 note=71 velocity=64 time=0\n",
      "note_on channel=0 note=71 velocity=49 time=1\n",
      "note_on channel=0 note=100 velocity=38 time=0\n",
      "note_off channel=0 note=51 velocity=64 time=1\n",
      "note_on channel=0 note=52 velocity=67 time=0\n",
      "note_off channel=0 note=43 velocity=64 time=1\n",
      "note_on channel=0 note=44 velocity=23 time=0\n",
      "note_off channel=0 note=44 velocity=64 time=3\n",
      "note_on channel=0 note=61 velocity=25 time=0\n",
      "note_off channel=0 note=85 velocity=64 time=2\n",
      "note_off channel=0 note=93 velocity=64 time=0\n",
      "note_on channel=0 note=75 velocity=24 time=1\n",
      "note_off channel=0 note=89 velocity=64 time=1\n",
      "note_off channel=0 note=77 velocity=64 time=2\n",
      "note_off channel=0 note=75 velocity=64 time=1\n",
      "note_off channel=0 note=61 velocity=64 time=2\n",
      "note_on channel=0 note=89 velocity=40 time=1\n",
      "note_on channel=0 note=51 velocity=62 time=3\n",
      "note_off channel=0 note=52 velocity=64 time=0\n",
      "note_on channel=0 note=63 velocity=76 time=0\n",
      "note_on channel=0 note=77 velocity=41 time=0\n",
      "note_on channel=0 note=90 velocity=39 time=0\n",
      "note_on channel=0 note=93 velocity=14 time=0\n",
      "note_on channel=0 note=45 velocity=77 time=1\n",
      "note_on channel=0 note=67 velocity=66 time=0\n",
      "note_off channel=0 note=71 velocity=64 time=0\n",
      "note_off channel=0 note=51 velocity=64 time=1\n",
      "note_off channel=0 note=63 velocity=64 time=0\n",
      "note_on channel=0 note=64 velocity=77 time=0\n",
      "note_on channel=0 note=44 velocity=79 time=1\n",
      "note_off channel=0 note=45 velocity=64 time=0\n",
      "note_on channel=0 note=52 velocity=65 time=0\n",
      "note_on channel=0 note=63 velocity=70 time=0\n",
      "note_off channel=0 note=64 velocity=64 time=0\n",
      "note_off channel=0 note=67 velocity=64 time=0\n",
      "note_on channel=0 note=71 velocity=48 time=1\n",
      "note_on channel=0 note=76 velocity=27 time=0\n",
      "note_off channel=0 note=77 velocity=64 time=0\n",
      "note_off channel=0 note=90 velocity=64 time=0\n",
      "note_on channel=0 note=68 velocity=36 time=1\n",
      "note_off channel=0 note=52 velocity=64 time=1\n",
      "note_off channel=0 note=63 velocity=64 time=0\n",
      "note_off channel=0 note=44 velocity=64 time=1\n",
      "note_on channel=0 note=61 velocity=58 time=0\n",
      "note_on channel=0 note=65 velocity=31 time=0\n",
      "note_off channel=0 note=76 velocity=64 time=0\n",
      "note_on channel=0 note=77 velocity=32 time=0\n",
      "note_on channel=0 note=52 velocity=67 time=1\n",
      "note_on channel=0 note=75 velocity=31 time=0\n",
      "note_off channel=0 note=65 velocity=64 time=1\n",
      "note_on channel=0 note=43 velocity=62 time=1\n",
      "note_on channel=0 note=66 velocity=54 time=0\n",
      "note_off channel=0 note=73 velocity=64 time=0\n",
      "note_on channel=0 note=85 velocity=14 time=0\n",
      "note_off channel=0 note=52 velocity=64 time=1\n",
      "note_off channel=0 note=71 velocity=64 time=0\n",
      "note_on channel=0 note=42 velocity=56 time=1\n",
      "note_off channel=0 note=43 velocity=64 time=0\n",
      "note_off channel=0 note=68 velocity=64 time=0\n",
      "note_on channel=0 note=71 velocity=43 time=0\n",
      "note_on channel=0 note=55 velocity=62 time=1\n",
      "note_off channel=0 note=66 velocity=64 time=0\n",
      "note_on channel=0 note=67 velocity=63 time=0\n",
      "note_on channel=0 note=83 velocity=50 time=1\n",
      "note_off channel=0 note=89 velocity=64 time=0\n",
      "note_off channel=0 note=93 velocity=64 time=0\n",
      "note_off channel=0 note=42 velocity=64 time=1\n",
      "note_on channel=0 note=65 velocity=49 time=0\n",
      "note_off channel=0 note=67 velocity=64 time=0\n",
      "note_on channel=0 note=68 velocity=57 time=0\n",
      "note_off channel=0 note=85 velocity=64 time=0\n",
      "note_off channel=0 note=55 velocity=64 time=1\n",
      "note_on channel=0 note=56 velocity=56 time=0\n",
      "note_on channel=0 note=48 velocity=69 time=1\n",
      "note_on channel=0 note=78 velocity=19 time=0\n",
      "note_off channel=0 note=98 velocity=64 time=0\n",
      "note_on channel=0 note=47 velocity=73 time=1\n",
      "note_off channel=0 note=48 velocity=64 time=0\n",
      "note_on channel=0 note=55 velocity=65 time=0\n",
      "note_off channel=0 note=56 velocity=64 time=0\n",
      "note_off channel=0 note=68 velocity=64 time=0\n",
      "note_off channel=0 note=100 velocity=64 time=0\n",
      "note_off channel=0 note=47 velocity=64 time=1\n",
      "note_on channel=0 note=48 velocity=76 time=0\n",
      "note_off channel=0 note=61 velocity=64 time=0\n",
      "note_on channel=0 note=62 velocity=37 time=0\n",
      "note_off channel=0 note=65 velocity=64 time=0\n",
      "note_off channel=0 note=55 velocity=64 time=1\n",
      "note_on channel=0 note=68 velocity=42 time=0\n",
      "note_off channel=0 note=78 velocity=64 time=0\n",
      "note_off channel=0 note=48 velocity=64 time=1\n",
      "note_on channel=0 note=53 velocity=81 time=0\n",
      "note_on channel=0 note=61 velocity=32 time=1\n",
      "note_off channel=0 note=62 velocity=64 time=0\n",
      "note_off channel=0 note=53 velocity=64 time=1\n",
      "note_on channel=0 note=54 velocity=68 time=0\n",
      "note_off channel=0 note=68 velocity=64 time=1\n",
      "note_on channel=0 note=100 velocity=14 time=0\n",
      "note_off channel=0 note=61 velocity=64 time=1\n",
      "note_on channel=0 note=67 velocity=61 time=0\n",
      "note_on channel=0 note=89 velocity=37 time=0\n",
      "note_off channel=0 note=54 velocity=64 time=1\n",
      "note_on channel=0 note=65 velocity=77 time=1\n",
      "note_off channel=0 note=67 velocity=64 time=0\n",
      "note_on channel=0 note=68 velocity=61 time=0\n",
      "note_off channel=0 note=77 velocity=64 time=0\n",
      "note_on channel=0 note=47 velocity=57 time=2\n",
      "note_on channel=0 note=57 velocity=67 time=0\n",
      "note_off channel=0 note=71 velocity=64 time=0\n",
      "note_on channel=0 note=79 velocity=35 time=0\n",
      "note_off channel=0 note=68 velocity=64 time=1\n",
      "note_off channel=0 note=75 velocity=64 time=0\n",
      "note_off channel=0 note=80 velocity=64 time=0\n",
      "note_on channel=0 note=90 velocity=34 time=0\n",
      "note_off channel=0 note=100 velocity=64 time=0\n",
      "note_on channel=0 note=45 velocity=78 time=1\n",
      "note_off channel=0 note=47 velocity=64 time=0\n",
      "note_off channel=0 note=57 velocity=64 time=0\n",
      "note_on channel=0 note=58 velocity=64 time=0\n",
      "note_on channel=0 note=64 velocity=82 time=0\n",
      "note_off channel=0 note=65 velocity=64 time=0\n",
      "note_on channel=0 note=73 velocity=64 time=0\n",
      "note_on channel=0 note=75 velocity=26 time=0\n",
      "note_on channel=0 note=63 velocity=73 time=1\n",
      "note_on channel=0 note=80 velocity=21 time=0\n",
      "note_on channel=0 note=82 velocity=38 time=0\n",
      "note_on channel=0 note=44 velocity=79 time=1\n",
      "note_off channel=0 note=45 velocity=64 time=0\n",
      "note_off channel=0 note=64 velocity=64 time=0\n",
      "note_on channel=0 note=69 velocity=52 time=0\n",
      "note_off channel=0 note=79 velocity=64 time=0\n",
      "note_off channel=0 note=90 velocity=64 time=0\n",
      "note_off channel=0 note=82 velocity=64 time=1\n",
      "note_off channel=0 note=58 velocity=64 time=1\n",
      "note_off channel=0 note=63 velocity=64 time=0\n",
      "note_on channel=0 note=65 velocity=40 time=0\n",
      "note_off channel=0 note=80 velocity=64 time=0\n",
      "note_off channel=0 note=44 velocity=64 time=1\n",
      "note_on channel=0 note=45 velocity=68 time=0\n",
      "note_on channel=0 note=61 velocity=36 time=0\n",
      "note_off channel=0 note=69 velocity=64 time=0\n",
      "note_on channel=0 note=71 velocity=44 time=0\n",
      "note_on channel=0 note=80 velocity=79 time=0\n",
      "note_on channel=0 note=41 velocity=54 time=1\n",
      "note_off channel=0 note=45 velocity=64 time=0\n",
      "note_on channel=0 note=55 velocity=66 time=0\n",
      "note_off channel=0 note=65 velocity=64 time=0\n",
      "note_on channel=0 note=67 velocity=67 time=0\n",
      "note_off channel=0 note=61 velocity=64 time=1\n",
      "note_on channel=0 note=101 velocity=38 time=0\n",
      "note_on channel=0 note=102 velocity=12 time=0\n",
      "note_off channel=0 note=41 velocity=64 time=1\n",
      "note_on channel=0 note=43 velocity=61 time=0\n",
      "note_on channel=0 note=54 velocity=65 time=0\n",
      "note_off channel=0 note=55 velocity=64 time=0\n",
      "note_on channel=0 note=78 velocity=59 time=0\n",
      "note_on channel=0 note=100 velocity=13 time=0\n",
      "note_on channel=0 note=61 velocity=61 time=1\n",
      "note_off channel=0 note=67 velocity=64 time=0\n",
      "note_on channel=0 note=42 velocity=55 time=2\n",
      "note_off channel=0 note=43 velocity=64 time=0\n",
      "note_off channel=0 note=100 velocity=64 time=0\n",
      "note_off channel=0 note=89 velocity=64 time=1\n",
      "note_off channel=0 note=42 velocity=64 time=1\n",
      "note_on channel=0 note=100 velocity=20 time=0\n",
      "note_off channel=0 note=102 velocity=64 time=0\n",
      "note_on channel=0 note=94 velocity=33 time=1\n",
      "note_on channel=0 note=48 velocity=66 time=1\n",
      "note_on channel=0 note=47 velocity=73 time=1\n",
      "note_off channel=0 note=48 velocity=64 time=0\n",
      "note_on channel=0 note=89 velocity=68 time=0\n",
      "note_off channel=0 note=101 velocity=64 time=0\n",
      "note_off channel=0 note=47 velocity=64 time=1\n",
      "note_on channel=0 note=48 velocity=72 time=0\n",
      "note_off channel=0 note=54 velocity=64 time=1\n",
      "note_off channel=0 note=94 velocity=64 time=0\n",
      "note_off channel=0 note=100 velocity=64 time=0\n",
      "note_off channel=0 note=48 velocity=64 time=1\n",
      "note_on channel=0 note=50 velocity=77 time=0\n",
      "note_on channel=0 note=65 velocity=44 time=0\n",
      "note_on channel=0 note=91 velocity=34 time=0\n",
      "note_off channel=0 note=50 velocity=64 time=1\n",
      "note_on channel=0 note=52 velocity=66 time=0\n",
      "note_on channel=0 note=68 velocity=43 time=0\n",
      "note_off channel=0 note=52 velocity=64 time=1\n",
      "note_on channel=0 note=87 velocity=40 time=2\n",
      "note_on channel=0 note=90 velocity=76 time=0\n",
      "note_on channel=0 note=54 velocity=54 time=1\n",
      "note_off channel=0 note=65 velocity=64 time=0\n",
      "note_on channel=0 note=66 velocity=76 time=0\n",
      "note_off channel=0 note=68 velocity=64 time=0\n",
      "note_off channel=0 note=75 velocity=64 time=0\n",
      "note_on channel=0 note=88 velocity=51 time=0\n",
      "note_off channel=0 note=61 velocity=64 time=1\n",
      "note_off channel=0 note=71 velocity=64 time=0\n",
      "note_on channel=0 note=82 velocity=45 time=0\n",
      "note_off channel=0 note=83 velocity=64 time=0\n",
      "note_off channel=0 note=54 velocity=64 time=1\n",
      "note_on channel=0 note=71 velocity=24 time=0\n",
      "note_on channel=0 note=75 velocity=38 time=0\n",
      "note_on channel=0 note=94 velocity=47 time=1\n",
      "note_off channel=0 note=82 velocity=64 time=1\n",
      "note_on channel=0 note=83 velocity=50 time=0\n",
      "note_on channel=0 note=84 velocity=35 time=0\n",
      "note_on channel=0 note=93 velocity=21 time=0\n",
      "note_on channel=0 note=48 velocity=88 time=1\n",
      "note_off channel=0 note=71 velocity=64 time=0\n",
      "note_off channel=0 note=75 velocity=64 time=0\n",
      "note_on channel=0 note=81 velocity=34 time=0\n",
      "note_on channel=0 note=71 velocity=24 time=2\n",
      "note_off channel=0 note=81 velocity=64 time=0\n",
      "note_on channel=0 note=82 velocity=44 time=0\n",
      "note_off channel=0 note=83 velocity=64 time=0\n",
      "note_on channel=0 note=46 velocity=65 time=1\n",
      "note_off channel=0 note=48 velocity=64 time=0\n",
      "note_off channel=0 note=84 velocity=64 time=0\n",
      "note_off channel=0 note=46 velocity=64 time=1\n",
      "note_off channel=0 note=82 velocity=64 time=0\n",
      "note_on channel=0 note=83 velocity=38 time=0\n",
      "note_on channel=0 note=48 velocity=68 time=1\n",
      "note_on channel=0 note=54 velocity=58 time=0\n",
      "note_off channel=0 note=48 velocity=64 time=1\n",
      "note_on channel=0 note=45 velocity=61 time=1\n",
      "note_on channel=0 note=61 velocity=19 time=0\n",
      "note_off channel=0 note=71 velocity=64 time=1\n",
      "note_off channel=0 note=93 velocity=64 time=0\n",
      "note_on channel=0 note=44 velocity=52 time=2\n",
      "note_off channel=0 note=45 velocity=64 time=0\n",
      "note_on channel=0 note=82 velocity=21 time=0\n",
      "note_off channel=0 note=61 velocity=64 time=1\n",
      "note_off channel=0 note=66 velocity=64 time=0\n",
      "note_on channel=0 note=77 velocity=46 time=0\n",
      "note_off channel=0 note=83 velocity=64 time=0\n",
      "note_off channel=0 note=88 velocity=64 time=0\n",
      "note_on channel=0 note=66 velocity=68 time=1\n",
      "note_on channel=0 note=61 velocity=12 time=1\n",
      "note_off channel=0 note=82 velocity=64 time=1\n",
      "note_on channel=0 note=43 velocity=32 time=1\n",
      "note_off channel=0 note=44 velocity=64 time=0\n",
      "note_off channel=0 note=61 velocity=64 time=1\n",
      "note_off channel=0 note=66 velocity=64 time=0\n",
      "note_on channel=0 note=75 velocity=21 time=0\n",
      "note_off channel=0 note=54 velocity=64 time=1\n",
      "note_on channel=0 note=61 velocity=28 time=0\n",
      "note_on channel=0 note=72 velocity=45 time=0\n",
      "note_off channel=0 note=73 velocity=64 time=0\n",
      "note_on channel=0 note=93 velocity=34 time=0\n",
      "note_off channel=0 note=94 velocity=64 time=0\n",
      "note_on channel=0 note=52 velocity=54 time=1\n",
      "note_on channel=0 note=65 velocity=65 time=0\n",
      "note_on channel=0 note=71 velocity=27 time=0\n",
      "note_off channel=0 note=72 velocity=64 time=1\n",
      "note_off channel=0 note=78 velocity=64 time=0\n",
      "note_on channel=0 note=83 velocity=49 time=0\n",
      "note_off channel=0 note=90 velocity=64 time=0\n",
      "note_off channel=0 note=93 velocity=64 time=0\n",
      "note_on channel=0 note=42 velocity=24 time=1\n",
      "note_off channel=0 note=43 velocity=64 time=0\n",
      "note_off channel=0 note=52 velocity=64 time=0\n",
      "note_on channel=0 note=68 velocity=20 time=0\n",
      "note_off channel=0 note=71 velocity=64 time=1\n",
      "note_on channel=0 note=71 velocity=27 time=1\n",
      "note_on channel=0 note=90 velocity=18 time=0\n",
      "note_off channel=0 note=42 velocity=64 time=1\n",
      "note_on channel=0 note=52 velocity=37 time=0\n",
      "note_off channel=0 note=52 velocity=64 time=2\n",
      "note_on channel=0 note=53 velocity=63 time=0\n",
      "note_off channel=0 note=61 velocity=64 time=1\n",
      "note_off channel=0 note=90 velocity=64 time=0\n",
      "note_off channel=0 note=68 velocity=64 time=1\n",
      "note_on channel=0 note=100 velocity=12 time=0\n",
      "note_off channel=0 note=75 velocity=64 time=1\n",
      "note_on channel=0 note=84 velocity=49 time=0\n",
      "note_on channel=0 note=102 velocity=28 time=0\n",
      "note_on channel=0 note=69 velocity=46 time=1\n",
      "note_on channel=0 note=98 velocity=29 time=0\n",
      "note_on channel=0 note=45 velocity=75 time=1\n",
      "note_off channel=0 note=71 velocity=64 time=0\n",
      "note_on channel=0 note=75 velocity=47 time=0\n",
      "note_on channel=0 note=90 velocity=26 time=0\n",
      "note_on channel=0 note=44 velocity=78 time=1\n",
      "note_off channel=0 note=45 velocity=64 time=0\n",
      "note_on channel=0 note=61 velocity=40 time=0\n",
      "note_off channel=0 note=98 velocity=64 time=1\n",
      "note_off channel=0 note=69 velocity=64 time=1\n",
      "note_on channel=0 note=43 velocity=74 time=1\n",
      "note_off channel=0 note=44 velocity=64 time=0\n",
      "note_on channel=0 note=98 velocity=19 time=0\n",
      "note_off channel=0 note=100 velocity=64 time=0\n",
      "note_off channel=0 note=61 velocity=64 time=1\n",
      "note_off channel=0 note=90 velocity=64 time=0\n",
      "note_on channel=0 note=52 velocity=62 time=2\n",
      "note_off channel=0 note=53 velocity=64 time=0\n",
      "note_off channel=0 note=75 velocity=64 time=0\n",
      "note_on channel=0 note=64 velocity=66 time=1\n",
      "note_off channel=0 note=65 velocity=64 time=0\n",
      "note_off channel=0 note=98 velocity=64 time=1\n",
      "note_on channel=0 note=98 velocity=30 time=2\n",
      "note_on channel=0 note=71 velocity=23 time=1\n",
      "note_off channel=0 note=77 velocity=64 time=1\n",
      "note_on channel=0 note=100 velocity=14 time=0\n",
      "note_off channel=0 note=43 velocity=64 time=1\n",
      "note_on channel=0 note=78 velocity=13 time=0\n",
      "note_on channel=0 note=85 velocity=31 time=0\n",
      "note_off channel=0 note=98 velocity=64 time=2\n",
      "note_on channel=0 note=63 velocity=96 time=1\n",
      "note_off channel=0 note=64 velocity=64 time=0\n",
      "note_on channel=0 note=82 velocity=21 time=1\n",
      "note_off channel=0 note=83 velocity=64 time=0\n",
      "note_off channel=0 note=100 velocity=64 time=0\n",
      "note_on channel=0 note=51 velocity=51 time=1\n",
      "note_off channel=0 note=52 velocity=64 time=0\n",
      "note_off channel=0 note=71 velocity=64 time=1\n",
      "note_on channel=0 note=77 velocity=39 time=1\n",
      "note_on channel=0 note=98 velocity=21 time=0\n",
      "note_on channel=0 note=50 velocity=44 time=1\n",
      "note_off channel=0 note=78 velocity=64 time=0\n",
      "note_off channel=0 note=51 velocity=64 time=1\n",
      "note_on channel=0 note=83 velocity=26 time=0\n",
      "note_off channel=0 note=91 velocity=64 time=0\n",
      "note_off channel=0 note=82 velocity=64 time=1\n",
      "note_off channel=0 note=85 velocity=64 time=0\n",
      "note_off channel=0 note=50 velocity=64 time=1\n",
      "note_on channel=0 note=51 velocity=47 time=0\n",
      "note_on channel=0 note=97 velocity=25 time=0\n",
      "note_off channel=0 note=98 velocity=64 time=0\n",
      "note_on channel=0 note=70 velocity=29 time=1\n",
      "note_on channel=0 note=82 velocity=58 time=0\n",
      "note_on channel=0 note=50 velocity=55 time=1\n",
      "note_off channel=0 note=51 velocity=64 time=0\n",
      "note_on channel=0 note=73 velocity=43 time=0\n",
      "note_on channel=0 note=78 velocity=29 time=0\n",
      "note_off channel=0 note=83 velocity=64 time=0\n",
      "note_off channel=0 note=102 velocity=64 time=0\n",
      "note_on channel=0 note=61 velocity=69 time=1\n",
      "note_off channel=0 note=70 velocity=64 time=0\n",
      "note_on channel=0 note=74 velocity=43 time=0\n",
      "note_off channel=0 note=84 velocity=64 time=0\n",
      "note_on channel=0 note=96 velocity=20 time=0\n",
      "note_on channel=0 note=57 velocity=53 time=1\n",
      "note_off channel=0 note=61 velocity=64 time=0\n",
      "note_on channel=0 note=69 velocity=53 time=0\n",
      "note_on channel=0 note=84 velocity=38 time=0\n",
      "note_on channel=0 note=90 velocity=37 time=0\n",
      "note_off channel=0 note=73 velocity=64 time=1\n",
      "note_off channel=0 note=74 velocity=64 time=0\n",
      "note_off channel=0 note=87 velocity=64 time=1\n",
      "note_off channel=0 note=57 velocity=64 time=1\n",
      "note_off channel=0 note=69 velocity=64 time=0\n",
      "note_on channel=0 note=71 velocity=30 time=0\n",
      "note_on channel=0 note=88 velocity=32 time=0\n",
      "note_on channel=0 note=69 velocity=44 time=1\n",
      "note_off channel=0 note=78 velocity=64 time=0\n",
      "note_off channel=0 note=89 velocity=64 time=0\n",
      "note_off channel=0 note=90 velocity=64 time=0\n",
      "note_on channel=0 note=100 velocity=39 time=0\n",
      "note_on channel=0 note=99 velocity=24 time=1\n",
      "note_on channel=0 note=102 velocity=17 time=0\n",
      "note_off channel=0 note=82 velocity=64 time=1\n",
      "note_on channel=0 note=83 velocity=32 time=0\n",
      "note_off channel=0 note=96 velocity=64 time=0\n",
      "note_off channel=0 note=71 velocity=64 time=1\n",
      "note_off channel=0 note=97 velocity=64 time=1\n",
      "note_on channel=0 note=91 velocity=20 time=1\n",
      "note_on channel=0 note=97 velocity=15 time=0\n",
      "note_on channel=0 note=90 velocity=59 time=1\n",
      "note_off channel=0 note=102 velocity=64 time=0\n",
      "note_off channel=0 note=69 velocity=64 time=1\n",
      "note_on channel=0 note=70 velocity=39 time=0\n",
      "note_on channel=0 note=71 velocity=34 time=1\n",
      "note_on channel=0 note=78 velocity=25 time=0\n",
      "note_off channel=0 note=50 velocity=64 time=1\n",
      "note_on channel=0 note=51 velocity=38 time=0\n",
      "note_on channel=0 note=68 velocity=19 time=0\n",
      "note_off channel=0 note=70 velocity=64 time=0\n",
      "note_off channel=0 note=77 velocity=64 time=0\n",
      "note_off channel=0 note=83 velocity=64 time=0\n",
      "note_off channel=0 note=91 velocity=64 time=0\n",
      "note_on channel=0 note=91 velocity=54 time=1\n",
      "note_off channel=0 note=51 velocity=64 time=1\n",
      "note_on channel=0 note=77 velocity=25 time=0\n",
      "note_on channel=0 note=51 velocity=42 time=1\n",
      "note_off channel=0 note=68 velocity=64 time=0\n",
      "note_on channel=0 note=70 velocity=44 time=0\n",
      "note_off channel=0 note=71 velocity=64 time=0\n",
      "note_off channel=0 note=78 velocity=64 time=0\n",
      "note_on channel=0 note=95 velocity=34 time=0\n",
      "note_on channel=0 note=50 velocity=59 time=2\n",
      "note_off channel=0 note=51 velocity=64 time=0\n",
      "note_off channel=0 note=77 velocity=64 time=0\n",
      "note_on channel=0 note=93 velocity=20 time=0\n",
      "note_on channel=0 note=96 velocity=41 time=0\n",
      "note_on channel=0 note=69 velocity=51 time=1\n",
      "note_off channel=0 note=70 velocity=64 time=0\n",
      "note_on channel=0 note=73 velocity=25 time=0\n",
      "note_on channel=0 note=77 velocity=44 time=0\n",
      "note_on channel=0 note=87 velocity=52 time=0\n",
      "note_off channel=0 note=99 velocity=64 time=0\n",
      "note_off channel=0 note=80 velocity=64 time=2\n",
      "note_off channel=0 note=88 velocity=64 time=0\n",
      "note_off channel=0 note=97 velocity=64 time=0\n",
      "note_on channel=0 note=68 velocity=54 time=1\n",
      "note_off channel=0 note=69 velocity=64 time=0\n",
      "note_on channel=0 note=83 velocity=69 time=0\n",
      "note_on channel=0 note=88 velocity=28 time=0\n",
      "note_on channel=0 note=49 velocity=58 time=1\n",
      "note_off channel=0 note=50 velocity=64 time=0\n",
      "note_on channel=0 note=94 velocity=12 time=1\n",
      "note_off channel=0 note=96 velocity=64 time=1\n",
      "note_off channel=0 note=73 velocity=64 time=1\n",
      "note_on channel=0 note=73 velocity=54 time=2\n",
      "note_on channel=0 note=80 velocity=88 time=0\n",
      "note_off channel=0 note=94 velocity=64 time=0\n",
      "note_on channel=0 note=48 velocity=47 time=1\n",
      "note_off channel=0 note=49 velocity=64 time=0\n",
      "note_on channel=0 note=57 velocity=51 time=0\n",
      "note_on channel=0 note=62 velocity=76 time=0\n",
      "note_off channel=0 note=63 velocity=64 time=0\n",
      "note_off channel=0 note=84 velocity=64 time=0\n",
      "note_off channel=0 note=88 velocity=64 time=0\n",
      "note_on channel=0 note=96 velocity=31 time=0\n",
      "note_on channel=0 note=67 velocity=49 time=1\n",
      "note_off channel=0 note=68 velocity=64 time=0\n",
      "note_on channel=0 note=71 velocity=40 time=0\n",
      "note_on channel=0 note=84 velocity=38 time=0\n",
      "note_off channel=0 note=93 velocity=64 time=0\n",
      "note_on channel=0 note=94 velocity=58 time=0\n",
      "note_off channel=0 note=48 velocity=64 time=1\n",
      "note_on channel=0 note=49 velocity=60 time=0\n",
      "note_off channel=0 note=62 velocity=64 time=0\n",
      "note_on channel=0 note=63 velocity=87 time=0\n",
      "note_on channel=0 note=82 velocity=34 time=0\n",
      "note_on channel=0 note=88 velocity=17 time=0\n",
      "note_on channel=0 note=93 velocity=52 time=0\n",
      "note_off channel=0 note=95 velocity=64 time=0\n",
      "note_off channel=0 note=67 velocity=64 time=1\n",
      "note_on channel=0 note=68 velocity=55 time=0\n",
      "note_off channel=0 note=71 velocity=64 time=0\n",
      "note_off channel=0 note=84 velocity=64 time=0\n",
      "note_off channel=0 note=57 velocity=64 time=1\n",
      "note_off channel=0 note=73 velocity=64 time=0\n",
      "note_off channel=0 note=82 velocity=64 time=0\n",
      "note_off channel=0 note=96 velocity=64 time=0\n",
      "note_on channel=0 note=73 velocity=43 time=1\n",
      "note_on channel=0 note=84 velocity=20 time=2\n",
      "note_off channel=0 note=88 velocity=64 time=1\n",
      "note_on channel=0 note=89 velocity=75 time=0\n",
      "note_off channel=0 note=73 velocity=64 time=3\n",
      "note_off channel=0 note=100 velocity=64 time=0\n",
      "note_on channel=0 note=73 velocity=39 time=1\n",
      "note_off channel=0 note=91 velocity=64 time=0\n",
      "note_off channel=0 note=94 velocity=64 time=0\n",
      "note_on channel=0 note=85 velocity=49 time=1\n",
      "note_on channel=0 note=78 velocity=23 time=1\n",
      "note_on channel=0 note=100 velocity=24 time=0\n",
      "note_off channel=0 note=77 velocity=64 time=1\n",
      "note_off channel=0 note=73 velocity=64 time=3\n",
      "note_off channel=0 note=78 velocity=64 time=0\n",
      "note_off channel=0 note=84 velocity=64 time=0\n",
      "note_on channel=0 note=91 velocity=35 time=0\n",
      "note_on channel=0 note=71 velocity=21 time=1\n",
      "note_on channel=0 note=73 velocity=40 time=0\n",
      "note_on channel=0 note=78 velocity=19 time=0\n",
      "note_off channel=0 note=90 velocity=64 time=0\n",
      "note_on channel=0 note=82 velocity=34 time=1\n",
      "note_on channel=0 note=77 velocity=33 time=1\n",
      "note_on channel=0 note=84 velocity=23 time=0\n",
      "note_off channel=0 note=91 velocity=64 time=0\n",
      "note_off channel=0 note=83 velocity=64 time=1\n",
      "note_on channel=0 note=91 velocity=40 time=0\n",
      "note_on channel=0 note=67 velocity=35 time=1\n",
      "note_off channel=0 note=68 velocity=64 time=0\n",
      "note_off channel=0 note=78 velocity=64 time=0\n",
      "note_off channel=0 note=71 velocity=64 time=1\n",
      "note_off channel=0 note=73 velocity=64 time=0\n",
      "note_off channel=0 note=100 velocity=64 time=0\n",
      "note_off channel=0 note=67 velocity=64 time=1\n",
      "note_on channel=0 note=68 velocity=21 time=0\n",
      "note_on channel=0 note=71 velocity=46 time=0\n",
      "note_on channel=0 note=73 velocity=39 time=0\n",
      "note_off channel=0 note=68 velocity=64 time=3\n",
      "note_off channel=0 note=49 velocity=64 time=1\n",
      "note_off channel=0 note=77 velocity=64 time=0\n",
      "note_off channel=0 note=84 velocity=64 time=0\n",
      "note_on channel=0 note=52 velocity=42 time=1\n",
      "note_on channel=0 note=76 velocity=30 time=0\n",
      "note_on channel=0 note=78 velocity=38 time=0\n",
      "note_on channel=0 note=84 velocity=42 time=0\n",
      "note_on channel=0 note=88 velocity=35 time=0\n",
      "note_on channel=0 note=68 velocity=43 time=1\n",
      "note_off channel=0 note=73 velocity=64 time=0\n",
      "note_on channel=0 note=74 velocity=40 time=0\n",
      "note_on channel=0 note=90 velocity=58 time=0\n",
      "note_on channel=0 note=94 velocity=36 time=0\n",
      "note_off channel=0 note=52 velocity=64 time=1\n",
      "note_off channel=0 note=71 velocity=64 time=0\n",
      "note_on channel=0 note=72 velocity=50 time=0\n",
      "note_off channel=0 note=76 velocity=64 time=0\n",
      "note_on channel=0 note=77 velocity=47 time=0\n",
      "note_off channel=0 note=78 velocity=64 time=0\n",
      "note_off channel=0 note=82 velocity=64 time=0\n",
      "note_on channel=0 note=49 velocity=64 time=1\n",
      "note_on channel=0 note=61 velocity=64 time=0\n",
      "note_off channel=0 note=74 velocity=64 time=0\n",
      "note_on channel=0 note=82 velocity=47 time=0\n",
      "note_off channel=0 note=88 velocity=64 time=0\n",
      "note_off channel=0 note=91 velocity=64 time=0\n",
      "note_off channel=0 note=63 velocity=64 time=1\n",
      "note_on channel=0 note=65 velocity=37 time=1\n",
      "note_off channel=0 note=72 velocity=64 time=0\n",
      "note_on channel=0 note=83 velocity=39 time=0\n",
      "note_off channel=0 note=68 velocity=64 time=1\n",
      "note_on channel=0 note=69 velocity=42 time=0\n",
      "note_on channel=0 note=74 velocity=60 time=0\n",
      "note_off channel=0 note=77 velocity=64 time=0\n",
      "note_on channel=0 note=78 velocity=46 time=0\n",
      "note_off channel=0 note=82 velocity=64 time=0\n",
      "note_off channel=0 note=93 velocity=64 time=0\n",
      "note_off channel=0 note=49 velocity=64 time=1\n",
      "note_on channel=0 note=50 velocity=65 time=0\n",
      "note_off channel=0 note=61 velocity=64 time=0\n",
      "note_off channel=0 note=65 velocity=64 time=0\n",
      "note_on channel=0 note=77 velocity=41 time=0\n",
      "note_off channel=0 note=94 velocity=64 time=0\n",
      "note_on channel=0 note=63 velocity=51 time=1\n",
      "note_off channel=0 note=78 velocity=64 time=0\n",
      "note_on channel=0 note=82 velocity=44 time=0\n",
      "note_off channel=0 note=83 velocity=64 time=0\n",
      "note_on channel=0 note=91 velocity=51 time=0\n",
      "note_off channel=0 note=69 velocity=64 time=1\n",
      "note_on channel=0 note=71 velocity=40 time=0\n",
      "note_off channel=0 note=74 velocity=64 time=0\n",
      "note_on channel=0 note=75 velocity=63 time=0\n",
      "note_off channel=0 note=50 velocity=64 time=1\n",
      "note_on channel=0 note=51 velocity=45 time=0\n",
      "note_on channel=0 note=78 velocity=33 time=1\n",
      "note_on channel=0 note=50 velocity=63 time=1\n",
      "note_off channel=0 note=51 velocity=64 time=0\n",
      "note_off channel=0 note=63 velocity=64 time=0\n",
      "note_on channel=0 note=65 velocity=37 time=0\n",
      "note_on channel=0 note=69 velocity=51 time=0\n",
      "note_off channel=0 note=91 velocity=64 time=0\n",
      "note_on channel=0 note=93 velocity=57 time=0\n",
      "note_off channel=0 note=71 velocity=64 time=1\n",
      "note_off channel=0 note=82 velocity=64 time=0\n",
      "note_on channel=0 note=61 velocity=59 time=1\n",
      "note_on channel=0 note=68 velocity=50 time=0\n",
      "note_off channel=0 note=69 velocity=64 time=0\n",
      "note_on channel=0 note=71 velocity=44 time=0\n",
      "note_off channel=0 note=78 velocity=64 time=0\n",
      "note_on channel=0 note=83 velocity=45 time=0\n",
      "note_off channel=0 note=84 velocity=64 time=0\n",
      "note_on channel=0 note=91 velocity=47 time=0\n",
      "note_on channel=0 note=84 velocity=36 time=1\n",
      "note_on channel=0 note=88 velocity=28 time=0\n",
      "note_off channel=0 note=85 velocity=64 time=1\n",
      "note_on channel=0 note=49 velocity=65 time=1\n",
      "note_off channel=0 note=50 velocity=64 time=0\n",
      "note_on channel=0 note=74 velocity=51 time=0\n",
      "note_off channel=0 note=89 velocity=64 time=0\n",
      "note_on channel=0 note=94 velocity=31 time=0\n",
      "note_off channel=0 note=68 velocity=64 time=1\n",
      "note_on channel=0 note=69 velocity=57 time=0\n",
      "note_off channel=0 note=75 velocity=64 time=0\n",
      "note_off channel=0 note=49 velocity=64 time=1\n",
      "note_on channel=0 note=50 velocity=66 time=0\n",
      "note_off channel=0 note=71 velocity=64 time=0\n",
      "note_off channel=0 note=87 velocity=64 time=0\n",
      "note_on channel=0 note=60 velocity=34 time=1\n",
      "note_off channel=0 note=61 velocity=64 time=0\n",
      "note_on channel=0 note=71 velocity=49 time=0\n",
      "note_off channel=0 note=88 velocity=64 time=0\n",
      "note_off channel=0 note=91 velocity=64 time=0\n",
      "note_on channel=0 note=49 velocity=63 time=1\n",
      "note_off channel=0 note=50 velocity=64 time=0\n",
      "note_on channel=0 note=68 velocity=53 time=0\n",
      "note_off channel=0 note=69 velocity=64 time=0\n",
      "note_on channel=0 note=73 velocity=32 time=0\n",
      "note_off channel=0 note=74 velocity=64 time=0\n",
      "note_on channel=0 note=88 velocity=33 time=0\n",
      "note_off channel=0 note=90 velocity=64 time=0\n",
      "note_on channel=0 note=91 velocity=30 time=0\n",
      "note_off channel=0 note=60 velocity=64 time=1\n",
      "note_on channel=0 note=90 velocity=62 time=0\n",
      "note_off channel=0 note=94 velocity=64 time=0\n",
      "note_on channel=0 note=60 velocity=54 time=1\n",
      "note_off channel=0 note=73 velocity=64 time=0\n",
      "note_on channel=0 note=74 velocity=29 time=0\n",
      "note_off channel=0 note=91 velocity=64 time=0\n",
      "note_on channel=0 note=75 velocity=47 time=1\n",
      "note_on channel=0 note=101 velocity=39 time=0\n",
      "note_off channel=0 note=49 velocity=64 time=1\n",
      "note_off channel=0 note=71 velocity=64 time=0\n",
      "note_on channel=0 note=72 velocity=54 time=0\n",
      "note_off channel=0 note=84 velocity=64 time=0\n",
      "note_on channel=0 note=91 velocity=46 time=0\n",
      "note_on channel=0 note=94 velocity=43 time=0\n",
      "note_off channel=0 note=65 velocity=64 time=1\n",
      "note_off channel=0 note=74 velocity=64 time=0\n",
      "note_on channel=0 note=67 velocity=57 time=1\n",
      "note_off channel=0 note=68 velocity=64 time=0\n",
      "note_off channel=0 note=91 velocity=64 time=0\n",
      "note_off channel=0 note=60 velocity=64 time=1\n",
      "note_on channel=0 note=61 velocity=83 time=0\n",
      "note_on channel=0 note=69 velocity=60 time=0\n",
      "note_off channel=0 note=72 velocity=64 time=0\n",
      "note_off channel=0 note=77 velocity=64 time=0\n",
      "note_on channel=0 note=82 velocity=38 time=0\n",
      "note_off channel=0 note=83 velocity=64 time=0\n",
      "note_on channel=0 note=84 velocity=26 time=0\n",
      "note_on channel=0 note=89 velocity=47 time=0\n",
      "note_on channel=0 note=50 velocity=69 time=1\n",
      "note_on channel=0 note=56 velocity=68 time=0\n",
      "note_off channel=0 note=67 velocity=64 time=0\n",
      "note_off channel=0 note=88 velocity=64 time=0\n",
      "note_on channel=0 note=49 velocity=65 time=1\n",
      "note_off channel=0 note=50 velocity=64 time=0\n",
      "note_off channel=0 note=56 velocity=64 time=0\n",
      "note_on channel=0 note=57 velocity=57 time=0\n",
      "note_on channel=0 note=68 velocity=54 time=0\n",
      "note_off channel=0 note=69 velocity=64 time=0\n",
      "note_on channel=0 note=77 velocity=45 time=0\n",
      "note_off channel=0 note=61 velocity=64 time=1\n",
      "note_on channel=0 note=72 velocity=60 time=0\n",
      "note_off channel=0 note=84 velocity=64 time=0\n",
      "note_on channel=0 note=88 velocity=43 time=0\n",
      "note_on channel=0 note=103 velocity=13 time=0\n",
      "note_off channel=0 note=57 velocity=64 time=1\n",
      "note_off channel=0 note=75 velocity=64 time=0\n",
      "note_off channel=0 note=82 velocity=64 time=0\n",
      "note_on channel=0 note=83 velocity=46 time=0\n",
      "note_off channel=0 note=89 velocity=64 time=0\n",
      "note_on channel=0 note=91 velocity=42 time=0\n",
      "note_on channel=0 note=59 velocity=48 time=1\n",
      "note_off channel=0 note=49 velocity=64 time=1\n",
      "note_on channel=0 note=66 velocity=38 time=0\n",
      "note_on channel=0 note=75 velocity=29 time=0\n",
      "note_on channel=0 note=85 velocity=16 time=0\n",
      "note_off channel=0 note=94 velocity=64 time=0\n",
      "note_off channel=0 note=103 velocity=64 time=1\n",
      "note_on channel=0 note=48 velocity=49 time=1\n",
      "note_on channel=0 note=58 velocity=45 time=0\n",
      "note_off channel=0 note=59 velocity=64 time=0\n",
      "note_off channel=0 note=66 velocity=64 time=0\n",
      "note_off channel=0 note=75 velocity=64 time=0\n",
      "note_on channel=0 note=59 velocity=45 time=1\n",
      "note_on channel=0 note=66 velocity=37 time=0\n",
      "note_on channel=0 note=75 velocity=53 time=0\n",
      "note_on channel=0 note=94 velocity=25 time=0\n",
      "note_on channel=0 note=47 velocity=42 time=1\n",
      "note_off channel=0 note=48 velocity=64 time=0\n",
      "note_off channel=0 note=58 velocity=64 time=0\n",
      "note_on channel=0 note=73 velocity=18 time=0\n",
      "note_on channel=0 note=82 velocity=61 time=1\n",
      "note_off channel=0 note=66 velocity=64 time=1\n",
      "note_on channel=0 note=71 velocity=46 time=0\n",
      "note_off channel=0 note=72 velocity=64 time=0\n",
      "note_off channel=0 note=83 velocity=64 time=0\n",
      "note_off channel=0 note=73 velocity=64 time=1\n",
      "note_on channel=0 note=78 velocity=23 time=0\n",
      "note_off channel=0 note=85 velocity=64 time=0\n",
      "note_off channel=0 note=47 velocity=64 time=1\n",
      "note_on channel=0 note=83 velocity=48 time=0\n",
      "note_on channel=0 note=96 velocity=23 time=0\n",
      "note_off channel=0 note=59 velocity=64 time=1\n",
      "note_on channel=0 note=64 velocity=49 time=0\n",
      "note_off channel=0 note=80 velocity=64 time=0\n",
      "note_on channel=0 note=53 velocity=42 time=1\n",
      "note_off channel=0 note=78 velocity=64 time=0\n",
      "note_off channel=0 note=83 velocity=64 time=0\n",
      "note_on channel=0 note=84 velocity=34 time=0\n",
      "note_off channel=0 note=94 velocity=64 time=0\n",
      "note_on channel=0 note=47 velocity=40 time=1\n",
      "note_on channel=0 note=59 velocity=42 time=0\n",
      "note_off channel=0 note=53 velocity=64 time=1\n",
      "note_off channel=0 note=64 velocity=64 time=0\n",
      "note_off channel=0 note=96 velocity=64 time=0\n",
      "note_off channel=0 note=84 velocity=64 time=1\n",
      "note_on channel=0 note=92 velocity=33 time=0\n",
      "note_off channel=0 note=47 velocity=64 time=1\n",
      "note_on channel=0 note=66 velocity=39 time=0\n",
      "note_on channel=0 note=73 velocity=31 time=0\n",
      "note_off channel=0 note=82 velocity=64 time=0\n",
      "note_off channel=0 note=91 velocity=64 time=0\n",
      "note_off channel=0 note=92 velocity=64 time=1\n",
      "note_on channel=0 note=48 velocity=41 time=1\n",
      "note_off channel=0 note=59 velocity=64 time=0\n",
      "note_on channel=0 note=60 velocity=43 time=0\n",
      "note_on channel=0 note=65 velocity=32 time=0\n",
      "note_off channel=0 note=66 velocity=64 time=0\n",
      "note_on channel=0 note=82 velocity=52 time=1\n",
      "note_off channel=0 note=60 velocity=64 time=1\n",
      "note_off channel=0 note=65 velocity=64 time=0\n",
      "note_on channel=0 note=91 velocity=64 time=0\n",
      "note_on channel=0 note=60 velocity=57 time=1\n",
      "note_on channel=0 note=65 velocity=64 time=0\n",
      "note_off channel=0 note=68 velocity=64 time=0\n",
      "note_off channel=0 note=48 velocity=64 time=1\n",
      "note_on channel=0 note=68 velocity=50 time=0\n",
      "note_on channel=0 note=84 velocity=14 time=0\n",
      "note_on channel=0 note=92 velocity=38 time=0\n",
      "note_on channel=0 note=48 velocity=48 time=1\n",
      "note_off channel=0 note=71 velocity=64 time=0\n",
      "note_off channel=0 note=73 velocity=64 time=0\n",
      "note_on channel=0 note=79 velocity=50 time=0\n",
      "note_off channel=0 note=68 velocity=64 time=1\n",
      "note_off channel=0 note=92 velocity=64 time=0\n",
      "note_off channel=0 note=48 velocity=64 time=1\n",
      "note_on channel=0 note=53 velocity=45 time=0\n",
      "note_on channel=0 note=71 velocity=40 time=0\n",
      "note_off channel=0 note=77 velocity=64 time=0\n",
      "note_on channel=0 note=46 velocity=66 time=1\n",
      "note_off channel=0 note=60 velocity=64 time=0\n",
      "note_on channel=0 note=64 velocity=80 time=0\n",
      "note_off channel=0 note=65 velocity=64 time=0\n",
      "note_on channel=0 note=77 velocity=51 time=0\n",
      "note_off channel=0 note=84 velocity=64 time=0\n",
      "note_on channel=0 note=45 velocity=75 time=1\n",
      "note_off channel=0 note=46 velocity=64 time=0\n",
      "note_on channel=0 note=68 velocity=50 time=0\n",
      "note_off channel=0 note=75 velocity=64 time=0\n",
      "note_off channel=0 note=79 velocity=64 time=0\n",
      "note_on channel=0 note=44 velocity=80 time=1\n",
      "note_off channel=0 note=45 velocity=64 time=0\n",
      "note_off channel=0 note=53 velocity=64 time=0\n",
      "note_on channel=0 note=75 velocity=35 time=0\n",
      "note_on channel=0 note=79 velocity=20 time=0\n",
      "note_on channel=0 note=63 velocity=67 time=1\n",
      "note_off channel=0 note=64 velocity=64 time=0\n",
      "note_off channel=0 note=68 velocity=64 time=0\n",
      "note_off channel=0 note=71 velocity=64 time=0\n",
      "note_on channel=0 note=85 velocity=17 time=0\n",
      "note_off channel=0 note=101 velocity=64 time=0\n",
      "note_on channel=0 note=65 velocity=57 time=1\n",
      "note_on channel=0 note=68 velocity=42 time=0\n",
      "note_on channel=0 note=71 velocity=45 time=0\n",
      "note_on channel=0 note=73 velocity=35 time=0\n",
      "note_off channel=0 note=63 velocity=64 time=1\n",
      "note_off channel=0 note=82 velocity=64 time=0\n",
      "note_off channel=0 note=44 velocity=64 time=1\n",
      "note_on channel=0 note=47 velocity=65 time=0\n",
      "note_on channel=0 note=61 velocity=41 time=0\n",
      "note_off channel=0 note=90 velocity=64 time=0\n",
      "note_off channel=0 note=47 velocity=64 time=1\n",
      "note_off channel=0 note=79 velocity=64 time=0\n",
      "note_off channel=0 note=88 velocity=64 time=0\n",
      "note_off channel=0 note=91 velocity=64 time=0\n",
      "note_off channel=0 note=61 velocity=64 time=1\n",
      "note_on channel=0 note=43 velocity=62 time=1\n",
      "note_on channel=0 note=61 velocity=60 time=0\n",
      "note_on channel=0 note=42 velocity=56 time=2\n",
      "note_off channel=0 note=43 velocity=64 time=0\n",
      "note_on channel=0 note=90 velocity=12 time=0\n",
      "note_off channel=0 note=85 velocity=64 time=1\n",
      "note_off channel=0 note=42 velocity=64 time=2\n",
      "note_off channel=0 note=90 velocity=64 time=0\n",
      "note_on channel=0 note=91 velocity=11 time=0\n",
      "note_on channel=0 note=48 velocity=70 time=1\n",
      "note_off channel=0 note=68 velocity=64 time=1\n",
      "note_on channel=0 note=90 velocity=14 time=0\n",
      "note_on channel=0 note=47 velocity=74 time=1\n",
      "note_off channel=0 note=48 velocity=64 time=0\n",
      "note_on channel=0 note=67 velocity=30 time=0\n",
      "note_on channel=0 note=88 velocity=9 time=0\n",
      "note_off channel=0 note=91 velocity=64 time=0\n",
      "note_off channel=0 note=47 velocity=64 time=1\n",
      "note_on channel=0 note=48 velocity=74 time=0\n",
      "note_off channel=0 note=67 velocity=64 time=1\n",
      "note_on channel=0 note=68 velocity=41 time=0\n",
      "note_off channel=0 note=48 velocity=64 time=1\n",
      "note_on channel=0 note=52 velocity=76 time=0\n",
      "note_off channel=0 note=52 velocity=64 time=1\n",
      "note_on channel=0 note=53 velocity=71 time=0\n",
      "note_off channel=0 note=88 velocity=64 time=0\n",
      "note_off channel=0 note=90 velocity=64 time=1\n",
      "note_off channel=0 note=53 velocity=64 time=2\n",
      "note_on channel=0 note=53 velocity=56 time=1\n",
      "note_off channel=0 note=61 velocity=64 time=0\n",
      "note_off channel=0 note=73 velocity=64 time=2\n",
      "note_on channel=0 note=87 velocity=48 time=0\n",
      "note_off channel=0 note=53 velocity=64 time=1\n",
      "note_on channel=0 note=82 velocity=39 time=0\n",
      "note_on channel=0 note=89 velocity=70 time=0\n",
      "note_off channel=0 note=93 velocity=64 time=0\n",
      "note_on channel=0 note=53 velocity=72 time=1\n",
      "note_on channel=0 note=64 velocity=83 time=0\n",
      "note_off channel=0 note=65 velocity=64 time=0\n",
      "note_off channel=0 note=68 velocity=64 time=0\n",
      "note_on channel=0 note=73 velocity=41 time=0\n",
      "note_off channel=0 note=75 velocity=64 time=0\n",
      "note_on channel=0 note=81 velocity=43 time=0\n",
      "note_on channel=0 note=45 velocity=78 time=1\n",
      "note_on channel=0 note=67 velocity=71 time=0\n",
      "note_on channel=0 note=80 velocity=44 time=0\n",
      "note_off channel=0 note=82 velocity=64 time=0\n",
      "note_on channel=0 note=90 velocity=35 time=0\n",
      "note_off channel=0 note=53 velocity=64 time=1\n",
      "note_on channel=0 note=54 velocity=70 time=0\n",
      "note_on channel=0 note=63 velocity=73 time=0\n",
      "note_off channel=0 note=64 velocity=64 time=0\n",
      "note_off channel=0 note=71 velocity=64 time=0\n",
      "note_off channel=0 note=77 velocity=64 time=0\n",
      "note_on channel=0 note=78 velocity=43 time=0\n",
      "note_off channel=0 note=81 velocity=64 time=0\n",
      "note_on channel=0 note=82 velocity=56 time=0\n",
      "note_on channel=0 note=91 velocity=26 time=0\n",
      "note_on channel=0 note=44 velocity=79 time=1\n",
      "note_off channel=0 note=45 velocity=64 time=0\n",
      "note_off channel=0 note=67 velocity=64 time=0\n",
      "note_on channel=0 note=71 velocity=32 time=0\n",
      "note_off channel=0 note=73 velocity=64 time=0\n",
      "note_on channel=0 note=74 velocity=46 time=0\n",
      "note_off channel=0 note=90 velocity=64 time=0\n",
      "note_on channel=0 note=93 velocity=22 time=0\n",
      "note_on channel=0 note=67 velocity=73 time=1\n",
      "note_off channel=0 note=78 velocity=64 time=0\n",
      "note_off channel=0 note=82 velocity=64 time=0\n",
      "note_on channel=0 note=83 velocity=68 time=0\n",
      "note_on channel=0 note=102 velocity=33 time=0\n",
      "note_off channel=0 note=54 velocity=64 time=1\n",
      "note_on channel=0 note=55 velocity=74 time=0\n",
      "note_off channel=0 note=63 velocity=64 time=0\n",
      "note_on channel=0 note=73 velocity=47 time=0\n",
      "note_off channel=0 note=74 velocity=64 time=1\n",
      "note_on channel=0 note=82 velocity=64 time=0\n",
      "note_off channel=0 note=83 velocity=64 time=0\n",
      "note_on channel=0 note=41 velocity=55 time=1\n",
      "note_off channel=0 note=44 velocity=64 time=0\n",
      "note_on channel=0 note=78 velocity=47 time=0\n",
      "note_on channel=0 note=85 velocity=56 time=0\n",
      "note_off channel=0 note=91 velocity=64 time=0\n",
      "note_off channel=0 note=93 velocity=64 time=0\n",
      "note_on channel=0 note=54 velocity=69 time=1\n",
      "note_off channel=0 note=55 velocity=64 time=0\n",
      "note_on channel=0 note=61 velocity=69 time=0\n",
      "note_on channel=0 note=66 velocity=70 time=0\n",
      "note_off channel=0 note=67 velocity=64 time=0\n",
      "note_off channel=0 note=41 velocity=64 time=1\n",
      "note_on channel=0 note=43 velocity=61 time=0\n",
      "note_on channel=0 note=53 velocity=72 time=0\n",
      "note_off channel=0 note=54 velocity=64 time=0\n",
      "note_off channel=0 note=66 velocity=64 time=0\n",
      "note_off channel=0 note=71 velocity=64 time=0\n",
      "note_on channel=0 note=72 velocity=66 time=0\n",
      "note_off channel=0 note=73 velocity=64 time=0\n",
      "note_off channel=0 note=82 velocity=64 time=0\n",
      "note_on channel=0 note=83 velocity=44 time=2\n",
      "note_on channel=0 note=91 velocity=42 time=0\n",
      "note_on channel=0 note=94 velocity=21 time=0\n",
      "note_on channel=0 note=42 velocity=55 time=1\n",
      "note_off channel=0 note=43 velocity=64 time=0\n",
      "note_on channel=0 note=68 velocity=29 time=0\n",
      "note_on channel=0 note=86 velocity=26 time=0\n",
      "note_off channel=0 note=87 velocity=64 time=0\n",
      "note_off channel=0 note=72 velocity=64 time=1\n",
      "note_on channel=0 note=75 velocity=46 time=0\n",
      "note_off channel=0 note=78 velocity=64 time=0\n",
      "note_off channel=0 note=80 velocity=64 time=0\n",
      "note_off channel=0 note=91 velocity=64 time=0\n",
      "note_on channel=0 note=93 velocity=26 time=0\n",
      "note_on channel=0 note=103 velocity=13 time=0\n",
      "note_on channel=0 note=72 velocity=71 time=1\n",
      "note_on channel=0 note=80 velocity=38 time=0\n",
      "note_on channel=0 note=91 velocity=50 time=0\n",
      "note_on channel=0 note=52 velocity=67 time=1\n",
      "note_off channel=0 note=53 velocity=64 time=0\n",
      "note_off channel=0 note=42 velocity=64 time=1\n",
      "note_off channel=0 note=80 velocity=64 time=0\n",
      "note_on channel=0 note=87 velocity=64 time=0\n",
      "note_on channel=0 note=42 velocity=54 time=1\n",
      "note_off channel=0 note=52 velocity=64 time=0\n",
      "note_on channel=0 note=53 velocity=67 time=0\n",
      "note_on channel=0 note=80 velocity=92 time=0\n",
      "note_off channel=0 note=86 velocity=64 time=0\n",
      "note_on channel=0 note=96 velocity=12 time=0\n",
      "note_off channel=0 note=103 velocity=64 time=0\n",
      "note_off channel=0 note=53 velocity=64 time=2\n",
      "note_on channel=0 note=90 velocity=37 time=0\n",
      "note_off channel=0 note=91 velocity=64 time=0\n",
      "note_off channel=0 note=94 velocity=64 time=0\n",
      "note_off channel=0 note=102 velocity=64 time=0\n",
      "note_off channel=0 note=68 velocity=64 time=1\n",
      "note_off channel=0 note=96 velocity=64 time=0\n",
      "note_on channel=0 note=52 velocity=37 time=1\n",
      "note_off channel=0 note=85 velocity=64 time=0\n",
      "note_off channel=0 note=90 velocity=64 time=0\n",
      "note_on channel=0 note=91 velocity=36 time=0\n",
      "note_off channel=0 note=72 velocity=64 time=1\n",
      "note_on channel=0 note=71 velocity=16 time=2\n",
      "note_on channel=0 note=68 velocity=42 time=1\n",
      "note_off channel=0 note=93 velocity=64 time=0\n",
      "note_off channel=0 note=52 velocity=64 time=2\n",
      "note_off channel=0 note=71 velocity=64 time=0\n",
      "note_off channel=0 note=42 velocity=64 time=1\n",
      "note_on channel=0 note=55 velocity=55 time=0\n",
      "note_on channel=0 note=71 velocity=29 time=0\n",
      "note_on channel=0 note=88 velocity=35 time=0\n",
      "note_on channel=0 note=90 velocity=46 time=0\n",
      "note_on channel=0 note=93 velocity=27 time=0\n",
      "note_on channel=0 note=46 velocity=67 time=1\n",
      "note_on channel=0 note=66 velocity=68 time=0\n",
      "note_off channel=0 note=68 velocity=64 time=0\n",
      "note_on channel=0 note=69 velocity=33 time=0\n",
      "note_on channel=0 note=82 velocity=53 time=0\n",
      "note_off channel=0 note=91 velocity=64 time=0\n",
      "note_on channel=0 note=94 velocity=74 time=0\n",
      "note_on channel=0 note=95 velocity=58 time=0\n",
      "note_on channel=0 note=96 velocity=32 time=0\n",
      "note_on channel=0 note=100 velocity=49 time=0\n",
      "note_on channel=0 note=103 velocity=23 time=0\n",
      "note_off channel=0 note=46 velocity=64 time=1\n",
      "note_on channel=0 note=47 velocity=81 time=0\n",
      "note_off channel=0 note=55 velocity=64 time=0\n",
      "note_on channel=0 note=63 velocity=65 time=0\n",
      "note_off channel=0 note=66 velocity=64 time=0\n",
      "note_on channel=0 note=67 velocity=70 time=0\n",
      "note_off channel=0 note=71 velocity=64 time=0\n",
      "note_on channel=0 note=78 velocity=39 time=0\n",
      "note_off channel=0 note=83 velocity=64 time=0\n",
      "note_on channel=0 note=84 velocity=33 time=0\n",
      "note_on channel=0 note=98 velocity=36 time=0\n",
      "note_off channel=0 note=47 velocity=64 time=1\n",
      "note_on channel=0 note=48 velocity=85 time=0\n",
      "note_off channel=0 note=63 velocity=64 time=0\n",
      "note_on channel=0 note=64 velocity=67 time=0\n",
      "note_off channel=0 note=69 velocity=64 time=0\n",
      "note_on channel=0 note=77 velocity=38 time=0\n",
      "note_on channel=0 note=91 velocity=22 time=0\n",
      "note_off channel=0 note=93 velocity=64 time=0\n",
      "note_off channel=0 note=61 velocity=64 time=1\n",
      "note_off channel=0 note=64 velocity=64 time=0\n",
      "note_on channel=0 note=66 velocity=73 time=0\n",
      "note_off channel=0 note=67 velocity=64 time=0\n",
      "note_off channel=0 note=75 velocity=64 time=0\n",
      "note_off channel=0 note=78 velocity=64 time=0\n",
      "note_off channel=0 note=82 velocity=64 time=0\n",
      "note_off channel=0 note=88 velocity=64 time=0\n",
      "note_off channel=0 note=96 velocity=64 time=0\n",
      "note_off channel=0 note=48 velocity=64 time=1\n",
      "note_on channel=0 note=54 velocity=61 time=0\n",
      "note_on channel=0 note=61 velocity=47 time=0\n",
      "note_on channel=0 note=75 velocity=21 time=0\n",
      "note_on channel=0 note=82 velocity=41 time=0\n",
      "note_off channel=0 note=84 velocity=64 time=0\n",
      "note_on channel=0 note=83 velocity=35 time=1\n",
      "note_off channel=0 note=103 velocity=64 time=0\n",
      "note_off channel=0 note=82 velocity=64 time=1\n",
      "note_off channel=0 note=61 velocity=64 time=1\n",
      "note_on channel=0 note=71 velocity=31 time=0\n",
      "note_off channel=0 note=91 velocity=64 time=0\n",
      "note_off channel=0 note=54 velocity=64 time=1\n",
      "note_on channel=0 note=61 velocity=25 time=0\n",
      "note_on channel=0 note=65 velocity=48 time=0\n",
      "note_on channel=0 note=48 velocity=55 time=1\n",
      "note_off channel=0 note=66 velocity=64 time=0\n",
      "note_off channel=0 note=71 velocity=64 time=0\n",
      "note_on channel=0 note=71 velocity=24 time=1\n",
      "note_on channel=0 note=73 velocity=44 time=0\n",
      "note_off channel=0 note=90 velocity=64 time=0\n",
      "note_on channel=0 note=91 velocity=32 time=0\n",
      "note_on channel=0 note=93 velocity=20 time=0\n",
      "note_off channel=0 note=98 velocity=64 time=0\n",
      "note_off channel=0 note=100 velocity=64 time=0\n",
      "note_off channel=0 note=48 velocity=64 time=1\n",
      "note_on channel=0 note=68 velocity=12 time=0\n",
      "note_off channel=0 note=89 velocity=64 time=0\n",
      "note_off channel=0 note=94 velocity=64 time=0\n",
      "note_off channel=0 note=95 velocity=64 time=0\n",
      "note_on channel=0 note=44 velocity=39 time=1\n",
      "note_on channel=0 note=53 velocity=34 time=1\n",
      "note_on channel=0 note=89 velocity=72 time=0\n",
      "note_off channel=0 note=44 velocity=64 time=1\n",
      "note_on channel=0 note=44 velocity=32 time=1\n",
      "note_off channel=0 note=53 velocity=64 time=0\n",
      "note_on channel=0 note=54 velocity=26 time=0\n",
      "note_off channel=0 note=75 velocity=64 time=0\n",
      "note_on channel=0 note=90 velocity=32 time=1\n",
      "note_off channel=0 note=91 velocity=64 time=0\n",
      "note_off channel=0 note=44 velocity=64 time=1\n",
      "note_off channel=0 note=54 velocity=64 time=1\n",
      "note_off channel=0 note=68 velocity=64 time=0\n",
      "note_off channel=0 note=90 velocity=64 time=0\n",
      "note_on channel=0 note=91 velocity=29 time=0\n",
      "note_on channel=0 note=53 velocity=31 time=2\n",
      "note_off channel=0 note=83 velocity=64 time=1\n",
      "note_off channel=0 note=91 velocity=64 time=0\n",
      "note_off channel=0 note=53 velocity=64 time=2\n",
      "note_off channel=0 note=65 velocity=64 time=0\n",
      "note_on channel=0 note=91 velocity=39 time=0\n",
      "note_on channel=0 note=53 velocity=30 time=2\n",
      "note_off channel=0 note=93 velocity=64 time=0\n",
      "note_on channel=0 note=56 velocity=50 time=2\n",
      "note_off channel=0 note=61 velocity=64 time=0\n",
      "note_on channel=0 note=68 velocity=51 time=0\n",
      "note_off channel=0 note=73 velocity=64 time=0\n",
      "note_off channel=0 note=53 velocity=64 time=1\n",
      "note_on channel=0 note=61 velocity=55 time=0\n",
      "note_off channel=0 note=71 velocity=64 time=0\n",
      "note_on channel=0 note=85 velocity=29 time=0\n",
      "note_on channel=0 note=55 velocity=69 time=1\n",
      "note_off channel=0 note=56 velocity=64 time=0\n",
      "note_on channel=0 note=67 velocity=74 time=0\n",
      "note_off channel=0 note=68 velocity=64 time=0\n",
      "note_on channel=0 note=76 velocity=64 time=0\n",
      "note_on channel=0 note=90 velocity=32 time=0\n",
      "note_on channel=0 note=95 velocity=48 time=0\n",
      "note_on channel=0 note=100 velocity=68 time=0\n",
      "note_on channel=0 note=47 velocity=65 time=1\n",
      "note_on channel=0 note=72 velocity=42 time=0\n",
      "note_on channel=0 note=83 velocity=25 time=0\n",
      "note_on channel=0 note=84 velocity=70 time=0\n",
      "note_off channel=0 note=85 velocity=64 time=0\n",
      "note_on channel=0 note=94 velocity=51 time=0\n",
      "note_on channel=0 note=102 velocity=47 time=0\n",
      "note_on channel=0 note=45 velocity=75 time=1\n",
      "note_off channel=0 note=47 velocity=64 time=0\n",
      "note_off channel=0 note=61 velocity=64 time=0\n",
      "note_off channel=0 note=67 velocity=64 time=0\n",
      "note_on channel=0 note=68 velocity=72 time=0\n",
      "note_off channel=0 note=77 velocity=64 time=0\n",
      "note_on channel=0 note=85 velocity=40 time=0\n",
      "note_off channel=0 note=90 velocity=64 time=0\n",
      "note_off channel=0 note=91 velocity=64 time=0\n",
      "note_on channel=0 note=103 velocity=31 time=0\n",
      "note_on channel=0 note=44 velocity=77 time=1\n",
      "note_off channel=0 note=45 velocity=64 time=0\n",
      "note_off channel=0 note=55 velocity=64 time=0\n",
      "note_on channel=0 note=75 velocity=65 time=0\n",
      "note_off channel=0 note=76 velocity=64 time=0\n",
      "note_on channel=0 note=90 velocity=82 time=0\n",
      "note_on channel=0 note=101 velocity=73 time=0\n",
      "note_on channel=0 note=71 velocity=29 time=1\n",
      "note_off channel=0 note=72 velocity=64 time=0\n",
      "note_on channel=0 note=73 velocity=28 time=0\n",
      "note_off channel=0 note=95 velocity=64 time=0\n",
      "note_on channel=0 note=98 velocity=28 time=0\n",
      "note_off channel=0 note=83 velocity=64 time=1\n",
      "note_off channel=0 note=100 velocity=64 time=0\n",
      "note_on channel=0 note=43 velocity=73 time=1\n",
      "note_off channel=0 note=44 velocity=64 time=0\n",
      "note_off channel=0 note=71 velocity=64 time=0\n",
      "note_on channel=0 note=61 velocity=37 time=1\n",
      "note_off channel=0 note=75 velocity=64 time=0\n",
      "note_on channel=0 note=75 velocity=69 time=1\n",
      "note_on channel=0 note=77 velocity=29 time=0\n",
      "note_off channel=0 note=73 velocity=64 time=1\n",
      "note_on channel=0 note=100 velocity=44 time=0\n",
      "note_on channel=0 note=71 velocity=23 time=1\n",
      "note_off channel=0 note=61 velocity=64 time=1\n",
      "note_on channel=0 note=83 velocity=72 time=0\n",
      "note_off channel=0 note=84 velocity=64 time=0\n",
      "note_off channel=0 note=103 velocity=64 time=0\n",
      "note_off channel=0 note=85 velocity=64 time=1\n",
      "note_on channel=0 note=91 velocity=39 time=0\n",
      "note_on channel=0 note=93 velocity=43 time=0\n",
      "note_off channel=0 note=94 velocity=64 time=0\n",
      "note_off channel=0 note=90 velocity=64 time=1\n",
      "note_off channel=0 note=98 velocity=64 time=0\n",
      "note_off channel=0 note=43 velocity=64 time=1\n",
      "note_on channel=0 note=56 velocity=57 time=0\n",
      "note_off channel=0 note=91 velocity=64 time=0\n",
      "note_off channel=0 note=93 velocity=64 time=0\n",
      "note_on channel=0 note=65 velocity=52 time=1\n",
      "note_off channel=0 note=83 velocity=64 time=0\n",
      "note_on channel=0 note=84 velocity=47 time=0\n",
      "note_on channel=0 note=88 velocity=54 time=0\n",
      "note_on channel=0 note=90 velocity=63 time=0\n",
      "note_off channel=0 note=56 velocity=64 time=1\n",
      "note_off channel=0 note=68 velocity=64 time=0\n",
      "note_on channel=0 note=69 velocity=50 time=0\n",
      "note_off channel=0 note=71 velocity=64 time=0\n",
      "note_off channel=0 note=77 velocity=64 time=0\n",
      "note_on channel=0 note=81 velocity=52 time=0\n",
      "note_on channel=0 note=83 velocity=49 time=0\n",
      "note_on channel=0 note=85 velocity=42 time=0\n",
      "note_on channel=0 note=58 velocity=57 time=1\n",
      "note_on channel=0 note=77 velocity=63 time=0\n",
      "note_on channel=0 note=82 velocity=40 time=0\n",
      "note_off channel=0 note=84 velocity=64 time=0\n",
      "note_on channel=0 note=91 velocity=37 time=0\n",
      "note_on channel=0 note=68 velocity=36 time=1\n",
      "note_off channel=0 note=69 velocity=64 time=0\n",
      "note_on channel=0 note=71 velocity=53 time=0\n",
      "note_on channel=0 note=73 velocity=25 time=0\n",
      "note_on channel=0 note=78 velocity=62 time=0\n",
      "note_off channel=0 note=81 velocity=64 time=0\n",
      "note_off channel=0 note=89 velocity=64 time=0\n",
      "note_off channel=0 note=100 velocity=64 time=0\n",
      "note_off channel=0 note=58 velocity=64 time=1\n",
      "note_on channel=0 note=59 velocity=61 time=0\n",
      "note_off channel=0 note=77 velocity=64 time=0\n",
      "note_off channel=0 note=82 velocity=64 time=0\n",
      "note_off channel=0 note=91 velocity=64 time=0\n",
      "note_off channel=0 note=101 velocity=64 time=0\n",
      "note_on channel=0 note=86 velocity=22 time=1\n",
      "note_off channel=0 note=73 velocity=64 time=1\n",
      "note_off channel=0 note=68 velocity=64 time=1\n",
      "note_on channel=0 note=89 velocity=40 time=0\n",
      "note_on channel=0 note=91 velocity=64 time=0\n",
      "note_off channel=0 note=102 velocity=64 time=0\n",
      "note_on channel=0 note=58 velocity=61 time=1\n",
      "note_off channel=0 note=59 velocity=64 time=0\n",
      "note_off channel=0 note=71 velocity=64 time=0\n",
      "note_off channel=0 note=75 velocity=64 time=0\n",
      "note_off channel=0 note=83 velocity=64 time=0\n",
      "note_off channel=0 note=85 velocity=64 time=0\n",
      "note_off channel=0 note=88 velocity=64 time=0\n",
      "note_on channel=0 note=69 velocity=54 time=1\n",
      "note_on channel=0 note=73 velocity=22 time=0\n",
      "note_on channel=0 note=76 velocity=74 time=0\n",
      "note_off channel=0 note=78 velocity=64 time=0\n",
      "note_off channel=0 note=80 velocity=64 time=0\n",
      "note_on channel=0 note=85 velocity=61 time=0\n",
      "note_off channel=0 note=90 velocity=64 time=0\n",
      "note_on channel=0 note=57 velocity=70 time=1\n",
      "note_off channel=0 note=58 velocity=64 time=0\n",
      "note_on channel=0 note=78 velocity=38 time=0\n",
      "note_off channel=0 note=86 velocity=64 time=0\n",
      "note_off channel=0 note=89 velocity=64 time=0\n",
      "note_off channel=0 note=87 velocity=64 time=1\n",
      "note_off channel=0 note=78 velocity=64 time=1\n",
      "note_on channel=0 note=80 velocity=53 time=2\n",
      "note_on channel=0 note=83 velocity=54 time=0\n",
      "note_on channel=0 note=64 velocity=83 time=1\n",
      "note_off channel=0 note=65 velocity=64 time=0\n",
      "note_on channel=0 note=71 velocity=33 time=0\n",
      "note_off channel=0 note=73 velocity=64 time=0\n",
      "note_on channel=0 note=87 velocity=24 time=0\n",
      "note_on channel=0 note=45 velocity=77 time=1\n",
      "note_on channel=0 note=67 velocity=65 time=0\n",
      "note_off channel=0 note=69 velocity=64 time=0\n",
      "note_on channel=0 note=73 velocity=36 time=0\n",
      "note_on channel=0 note=89 velocity=37 time=0\n",
      "note_on channel=0 note=90 velocity=76 time=0\n",
      "note_off channel=0 note=91 velocity=64 time=0\n",
      "note_on channel=0 note=63 velocity=74 time=1\n",
      "note_off channel=0 note=64 velocity=64 time=0\n",
      "note_off channel=0 note=67 velocity=64 time=0\n",
      "note_on channel=0 note=68 velocity=64 time=0\n",
      "note_off channel=0 note=71 velocity=64 time=0\n",
      "note_on channel=0 note=84 velocity=53 time=0\n",
      "note_on channel=0 note=44 velocity=78 time=1\n",
      "note_off channel=0 note=45 velocity=64 time=0\n",
      "note_off channel=0 note=57 velocity=64 time=0\n",
      "note_off channel=0 note=76 velocity=64 time=0\n",
      "note_on channel=0 note=77 velocity=31 time=0\n",
      "note_off channel=0 note=89 velocity=64 time=0\n",
      "note_on channel=0 note=94 velocity=17 time=0\n",
      "note_off channel=0 note=85 velocity=64 time=1\n",
      "note_on channel=0 note=89 velocity=53 time=0\n",
      "note_off channel=0 note=63 velocity=64 time=1\n",
      "note_on channel=0 note=65 velocity=50 time=0\n",
      "note_on channel=0 note=76 velocity=67 time=0\n",
      "note_off channel=0 note=77 velocity=64 time=0\n",
      "note_off channel=0 note=87 velocity=64 time=0\n",
      "note_on channel=0 note=57 velocity=66 time=1\n",
      "note_on channel=0 note=61 velocity=33 time=0\n",
      "note_off channel=0 note=68 velocity=64 time=0\n",
      "note_on channel=0 note=87 velocity=36 time=0\n",
      "note_on channel=0 note=93 velocity=30 time=0\n",
      "note_off channel=0 note=94 velocity=64 time=0\n",
      "note_off channel=0 note=44 velocity=64 time=1\n",
      "note_off channel=0 note=84 velocity=64 time=0\n",
      "note_on channel=0 note=85 velocity=50 time=0\n",
      "note_off channel=0 note=61 velocity=64 time=1\n",
      "note_off channel=0 note=80 velocity=64 time=0\n",
      "note_on channel=0 note=91 velocity=74 time=0\n",
      "note_on channel=0 note=61 velocity=57 time=1\n",
      "note_on channel=0 note=80 velocity=38 time=0\n",
      "note_off channel=0 note=90 velocity=64 time=0\n",
      "note_on channel=0 note=102 velocity=10 time=2\n",
      "note_on channel=0 note=84 velocity=40 time=1\n",
      "note_on channel=0 note=90 velocity=47 time=0\n",
      "note_on channel=0 note=92 velocity=63 time=0\n",
      "note_on channel=0 note=56 velocity=67 time=1\n",
      "note_off channel=0 note=57 velocity=64 time=0\n",
      "note_on channel=0 note=71 velocity=20 time=0\n",
      "note_on channel=0 note=75 velocity=64 time=0\n",
      "note_off channel=0 note=76 velocity=64 time=0\n",
      "note_off channel=0 note=91 velocity=64 time=0\n",
      "note_on channel=0 note=91 velocity=32 time=1\n",
      "note_off channel=0 note=84 velocity=64 time=1\n",
      "note_off channel=0 note=93 velocity=64 time=0\n",
      "note_on channel=0 note=94 velocity=44 time=0\n",
      "note_on channel=0 note=48 velocity=68 time=1\n",
      "note_on channel=0 note=55 velocity=63 time=0\n",
      "note_off channel=0 note=56 velocity=64 time=0\n",
      "note_on channel=0 note=68 velocity=72 time=0\n",
      "note_off channel=0 note=73 velocity=64 time=0\n",
      "note_on channel=0 note=78 velocity=15 time=0\n",
      "note_off channel=0 note=90 velocity=64 time=0\n",
      "note_on channel=0 note=47 velocity=72 time=1\n",
      "note_off channel=0 note=48 velocity=64 time=0\n",
      "note_off channel=0 note=47 velocity=64 time=1\n",
      "note_on channel=0 note=48 velocity=70 time=0\n",
      "note_off channel=0 note=55 velocity=64 time=0\n",
      "note_on channel=0 note=56 velocity=66 time=0\n",
      "note_off channel=0 note=102 velocity=64 time=0\n",
      "note_on channel=0 note=84 velocity=44 time=1\n",
      "note_on channel=0 note=90 velocity=32 time=0\n",
      "note_off channel=0 note=91 velocity=64 time=0\n",
      "note_on channel=0 note=100 velocity=18 time=0\n",
      "note_off channel=0 note=48 velocity=64 time=1\n",
      "note_on channel=0 note=50 velocity=75 time=0\n",
      "note_off channel=0 note=56 velocity=64 time=0\n",
      "note_on channel=0 note=91 velocity=31 time=0\n",
      "note_off channel=0 note=50 velocity=64 time=1\n",
      "note_on channel=0 note=52 velocity=73 time=0\n",
      "note_off channel=0 note=52 velocity=64 time=1\n",
      "note_on channel=0 note=54 velocity=70 time=0\n",
      "note_off channel=0 note=78 velocity=64 time=0\n",
      "note_on channel=0 note=86 velocity=20 time=0\n",
      "note_off channel=0 note=54 velocity=64 time=1\n",
      "note_on channel=0 note=55 velocity=65 time=0\n",
      "note_off channel=0 note=61 velocity=64 time=0\n",
      "note_off channel=0 note=71 velocity=64 time=0\n",
      "note_off channel=0 note=85 velocity=64 time=0\n",
      "note_off channel=0 note=91 velocity=64 time=0\n",
      "note_off channel=0 note=65 velocity=64 time=1\n",
      "note_on channel=0 note=71 velocity=34 time=0\n",
      "note_off channel=0 note=90 velocity=64 time=0\n",
      "note_on channel=0 note=91 velocity=27 time=0\n",
      "note_off channel=0 note=55 velocity=64 time=1\n",
      "note_on channel=0 note=55 velocity=73 time=1\n",
      "note_off channel=0 note=68 velocity=64 time=0\n",
      "note_on channel=0 note=73 velocity=37 time=0\n",
      "note_off channel=0 note=86 velocity=64 time=0\n",
      "note_off channel=0 note=100 velocity=64 time=0\n",
      "note_on channel=0 note=66 velocity=66 time=1\n",
      "note_on channel=0 note=86 velocity=23 time=0\n",
      "note_off channel=0 note=94 velocity=64 time=0\n",
      "note_off channel=0 note=73 velocity=64 time=1\n",
      "note_on channel=0 note=90 velocity=39 time=0\n",
      "note_off channel=0 note=91 velocity=64 time=0\n",
      "note_on channel=0 note=73 velocity=48 time=1\n",
      "note_off channel=0 note=92 velocity=64 time=0\n",
      "note_on channel=0 note=45 velocity=77 time=1\n",
      "note_on channel=0 note=53 velocity=65 time=0\n",
      "note_off channel=0 note=55 velocity=64 time=0\n",
      "note_on channel=0 note=64 velocity=80 time=0\n",
      "note_off channel=0 note=66 velocity=64 time=0\n",
      "note_on channel=0 note=67 velocity=68 time=0\n",
      "note_off channel=0 note=71 velocity=64 time=0\n",
      "note_off channel=0 note=75 velocity=64 time=0\n",
      "note_off channel=0 note=80 velocity=64 time=0\n",
      "note_on channel=0 note=91 velocity=20 time=0\n",
      "note_off channel=0 note=53 velocity=64 time=1\n",
      "note_on channel=0 note=54 velocity=65 time=0\n",
      "note_on channel=0 note=80 velocity=41 time=0\n",
      "note_on channel=0 note=44 velocity=78 time=1\n",
      "note_off channel=0 note=45 velocity=64 time=0\n",
      "note_on channel=0 note=63 velocity=70 time=0\n",
      "note_off channel=0 note=64 velocity=64 time=0\n",
      "note_off channel=0 note=67 velocity=64 time=0\n",
      "note_off channel=0 note=90 velocity=64 time=0\n",
      "note_on channel=0 note=67 velocity=70 time=1\n",
      "note_off channel=0 note=86 velocity=64 time=0\n",
      "note_on channel=0 note=102 velocity=9 time=0\n",
      "note_off channel=0 note=54 velocity=64 time=1\n",
      "note_on channel=0 note=55 velocity=59 time=0\n",
      "note_on channel=0 note=71 velocity=49 time=0\n",
      "note_on channel=0 note=82 velocity=25 time=0\n",
      "note_on channel=0 note=86 velocity=21 time=0\n",
      "note_off channel=0 note=44 velocity=64 time=1\n",
      "note_on channel=0 note=45 velocity=76 time=0\n",
      "note_off channel=0 note=83 velocity=64 time=0\n",
      "note_off channel=0 note=55 velocity=64 time=1\n",
      "note_on channel=0 note=56 velocity=65 time=0\n",
      "note_off channel=0 note=67 velocity=64 time=0\n",
      "note_on channel=0 note=68 velocity=80 time=0\n",
      "note_on channel=0 note=100 velocity=51 time=0\n",
      "note_off channel=0 note=102 velocity=64 time=0\n",
      "note_on channel=0 note=44 velocity=71 time=1\n",
      "note_off channel=0 note=45 velocity=64 time=0\n",
      "note_on channel=0 note=97 velocity=24 time=0\n",
      "note_on channel=0 note=61 velocity=62 time=1\n",
      "note_off channel=0 note=63 velocity=64 time=0\n",
      "note_off channel=0 note=84 velocity=64 time=0\n",
      "note_off channel=0 note=86 velocity=64 time=0\n",
      "note_off channel=0 note=44 velocity=64 time=1\n",
      "note_on channel=0 note=42 velocity=60 time=1\n",
      "note_on channel=0 note=83 velocity=51 time=0\n",
      "note_on channel=0 note=84 velocity=38 time=0\n",
      "note_off channel=0 note=82 velocity=64 time=1\n",
      "note_off channel=0 note=42 velocity=64 time=1\n",
      "note_on channel=0 note=55 velocity=67 time=0\n",
      "note_off channel=0 note=56 velocity=64 time=0\n",
      "note_off channel=0 note=91 velocity=64 time=0\n",
      "note_on channel=0 note=47 velocity=65 time=2\n",
      "note_off channel=0 note=55 velocity=64 time=0\n",
      "note_on channel=0 note=56 velocity=64 time=0\n",
      "note_off channel=0 note=47 velocity=64 time=1\n",
      "note_on channel=0 note=48 velocity=65 time=0\n",
      "note_on channel=0 note=47 velocity=72 time=1\n",
      "note_off channel=0 note=48 velocity=64 time=0\n",
      "note_on channel=0 note=55 velocity=69 time=0\n",
      "note_off channel=0 note=56 velocity=64 time=0\n",
      "note_on channel=0 note=75 velocity=48 time=0\n",
      "note_on channel=0 note=88 velocity=31 time=0\n",
      "note_off channel=0 note=80 velocity=64 time=1\n",
      "note_off channel=0 note=89 velocity=64 time=0\n",
      "note_off channel=0 note=47 velocity=64 time=1\n",
      "note_on channel=0 note=48 velocity=74 time=0\n",
      "note_off channel=0 note=55 velocity=64 time=0\n",
      "note_on channel=0 note=56 velocity=72 time=0\n",
      "note_on channel=0 note=65 velocity=56 time=0\n",
      "note_on channel=0 note=80 velocity=82 time=0\n",
      "note_on channel=0 note=93 velocity=11 time=0\n",
      "note_on channel=0 note=90 velocity=35 time=1\n",
      "note_off channel=0 note=48 velocity=64 time=1\n",
      "note_on channel=0 note=53 velocity=78 time=0\n",
      "note_off channel=0 note=56 velocity=64 time=0\n",
      "note_on channel=0 note=56 velocity=63 time=1\n",
      "note_off channel=0 note=53 velocity=64 time=1\n",
      "note_on channel=0 note=55 velocity=74 time=1\n",
      "note_off channel=0 note=56 velocity=64 time=0\n",
      "note_off channel=0 note=55 velocity=64 time=2\n",
      "note_on channel=0 note=56 velocity=65 time=0\n",
      "note_off channel=0 note=93 velocity=64 time=0\n",
      "note_off channel=0 note=87 velocity=64 time=1\n",
      "note_on channel=0 note=55 velocity=62 time=1\n",
      "note_off channel=0 note=56 velocity=64 time=0\n",
      "note_on channel=0 note=48 velocity=88 time=1\n",
      "note_off channel=0 note=84 velocity=64 time=0\n",
      "note_on channel=0 note=89 velocity=72 time=0\n",
      "note_on channel=0 note=94 velocity=28 time=0\n",
      "note_off channel=0 note=55 velocity=64 time=1\n",
      "note_on channel=0 note=56 velocity=60 time=0\n",
      "note_off channel=0 note=61 velocity=64 time=0\n",
      "note_on channel=0 note=84 velocity=44 time=0\n",
      "note_off channel=0 note=88 velocity=64 time=0\n",
      "note_off channel=0 note=90 velocity=64 time=0\n",
      "note_on channel=0 note=93 velocity=58 time=0\n",
      "note_on channel=0 note=64 velocity=58 time=1\n",
      "note_off channel=0 note=65 velocity=64 time=0\n",
      "note_off channel=0 note=75 velocity=64 time=0\n",
      "note_on channel=0 note=77 velocity=37 time=1\n",
      "note_on channel=0 note=47 velocity=71 time=1\n",
      "note_off channel=0 note=48 velocity=64 time=0\n",
      "note_off channel=0 note=64 velocity=64 time=0\n",
      "note_on channel=0 note=75 velocity=33 time=0\n",
      "note_off channel=0 note=94 velocity=64 time=0\n",
      "note_off channel=0 note=47 velocity=64 time=1\n",
      "note_off channel=0 note=84 velocity=64 time=0\n",
      "note_on channel=0 note=102 velocity=30 time=0\n",
      "note_on channel=0 note=47 velocity=66 time=1\n",
      "note_on channel=0 note=84 velocity=31 time=0\n",
      "note_off channel=0 note=47 velocity=64 time=1\n",
      "note_on channel=0 note=61 velocity=29 time=0\n",
      "note_on channel=0 note=65 velocity=24 time=0\n",
      "note_on channel=0 note=45 velocity=60 time=1\n",
      "note_off channel=0 note=77 velocity=64 time=0\n",
      "note_on channel=0 note=90 velocity=26 time=0\n",
      "note_on channel=0 note=77 velocity=25 time=1\n",
      "note_off channel=0 note=65 velocity=64 time=1\n",
      "note_on channel=0 note=65 velocity=17 time=1\n",
      "note_on channel=0 note=82 velocity=25 time=0\n",
      "note_on channel=0 note=44 velocity=51 time=1\n",
      "note_off channel=0 note=45 velocity=64 time=0\n",
      "note_off channel=0 note=83 velocity=64 time=0\n",
      "note_on channel=0 note=95 velocity=40 time=1\n",
      "note_off channel=0 note=97 velocity=64 time=0\n",
      "note_off channel=0 note=102 velocity=64 time=0\n",
      "note_off channel=0 note=44 velocity=64 time=1\n",
      "note_on channel=0 note=55 velocity=56 time=0\n",
      "note_off channel=0 note=56 velocity=64 time=0\n",
      "note_on channel=0 note=88 velocity=12 time=0\n",
      "note_off channel=0 note=89 velocity=64 time=0\n",
      "note_on channel=0 note=97 velocity=14 time=0\n",
      "note_on channel=0 note=43 velocity=35 time=2\n",
      "note_off channel=0 note=55 velocity=64 time=0\n",
      "note_on channel=0 note=56 velocity=61 time=0\n",
      "note_off channel=0 note=65 velocity=64 time=0\n",
      "note_off channel=0 note=84 velocity=64 time=0\n",
      "note_on channel=0 note=89 velocity=72 time=1\n",
      "note_off channel=0 note=97 velocity=64 time=0\n",
      "note_on channel=0 note=55 velocity=70 time=1\n",
      "note_off channel=0 note=56 velocity=64 time=0\n",
      "note_off channel=0 note=68 velocity=64 time=0\n",
      "note_off channel=0 note=88 velocity=64 time=0\n",
      "note_off channel=0 note=82 velocity=64 time=1\n",
      "note_on channel=0 note=84 velocity=45 time=0\n",
      "note_off channel=0 note=100 velocity=64 time=0\n",
      "note_on channel=0 note=66 velocity=59 time=2\n",
      "note_on channel=0 note=98 velocity=25 time=0\n",
      "note_on channel=0 note=54 velocity=63 time=1\n",
      "note_off channel=0 note=55 velocity=64 time=0\n",
      "note_off channel=0 note=77 velocity=64 time=0\n",
      "note_off channel=0 note=73 velocity=64 time=2\n",
      "note_off channel=0 note=43 velocity=64 time=1\n",
      "note_on channel=0 note=73 velocity=43 time=0\n",
      "note_on channel=0 note=53 velocity=66 time=1\n",
      "note_off channel=0 note=54 velocity=64 time=0\n",
      "note_off channel=0 note=66 velocity=64 time=0\n",
      "note_on channel=0 note=68 velocity=29 time=0\n",
      "note_on channel=0 note=100 velocity=35 time=0\n",
      "note_off channel=0 note=98 velocity=64 time=1\n",
      "note_on channel=0 note=99 velocity=31 time=0\n",
      "note_off channel=0 note=61 velocity=64 time=1\n",
      "note_on channel=0 note=64 velocity=44 time=0\n",
      "note_on channel=0 note=98 velocity=31 time=0\n",
      "note_on channel=0 note=52 velocity=63 time=1\n",
      "note_off channel=0 note=53 velocity=64 time=0\n",
      "note_off channel=0 note=68 velocity=64 time=0\n",
      "note_off channel=0 note=73 velocity=64 time=0\n",
      "note_on channel=0 note=76 velocity=48 time=0\n",
      "note_on channel=0 note=87 velocity=44 time=0\n",
      "note_on channel=0 note=91 velocity=13 time=0\n",
      "note_off channel=0 note=64 velocity=64 time=1\n",
      "note_on channel=0 note=66 velocity=53 time=0\n",
      "note_off channel=0 note=71 velocity=64 time=0\n",
      "note_off channel=0 note=75 velocity=64 time=0\n",
      "note_off channel=0 note=90 velocity=64 time=0\n",
      "note_on channel=0 note=45 velocity=77 time=1\n",
      "note_off channel=0 note=52 velocity=64 time=0\n"
     ]
    },
    {
     "name": "stdout",
     "output_type": "stream",
     "text": [
      "note_on channel=0 note=63 velocity=63 time=0\n",
      "note_on channel=0 note=69 velocity=50 time=0\n",
      "note_on channel=0 note=102 velocity=18 time=0\n",
      "note_off channel=0 note=66 velocity=64 time=1\n",
      "note_on channel=0 note=67 velocity=44 time=0\n",
      "note_off channel=0 note=76 velocity=64 time=0\n",
      "note_on channel=0 note=82 velocity=39 time=0\n",
      "note_on channel=0 note=85 velocity=35 time=0\n",
      "note_on channel=0 note=44 velocity=77 time=1\n",
      "note_off channel=0 note=45 velocity=64 time=0\n",
      "note_on channel=0 note=52 velocity=42 time=0\n",
      "note_on channel=0 note=77 velocity=24 time=0\n",
      "note_on channel=0 note=90 velocity=13 time=0\n",
      "note_off channel=0 note=69 velocity=64 time=1\n",
      "note_on channel=0 note=71 velocity=48 time=0\n",
      "note_off channel=0 note=91 velocity=64 time=0\n",
      "note_off channel=0 note=102 velocity=64 time=0\n",
      "note_off channel=0 note=52 velocity=64 time=1\n",
      "note_off channel=0 note=67 velocity=64 time=0\n",
      "note_off channel=0 note=87 velocity=64 time=0\n",
      "note_off channel=0 note=100 velocity=64 time=0\n",
      "note_on channel=0 note=43 velocity=72 time=1\n",
      "note_off channel=0 note=44 velocity=64 time=0\n",
      "note_on channel=0 note=68 velocity=37 time=0\n",
      "note_off channel=0 note=90 velocity=64 time=0\n",
      "note_off channel=0 note=63 velocity=64 time=2\n",
      "note_on channel=0 note=64 velocity=54 time=0\n",
      "note_off channel=0 note=68 velocity=64 time=0\n",
      "note_on channel=0 note=100 velocity=29 time=0\n",
      "note_on channel=0 note=51 velocity=44 time=1\n",
      "note_on channel=0 note=70 velocity=51 time=0\n",
      "note_off channel=0 note=71 velocity=64 time=0\n",
      "note_on channel=0 note=63 velocity=50 time=1\n",
      "note_off channel=0 note=64 velocity=64 time=0\n",
      "note_on channel=0 note=50 velocity=59 time=1\n",
      "note_off channel=0 note=51 velocity=64 time=0\n",
      "note_on channel=0 note=65 velocity=43 time=0\n",
      "note_on channel=0 note=71 velocity=47 time=0\n",
      "note_off channel=0 note=85 velocity=64 time=0\n",
      "note_off channel=0 note=89 velocity=64 time=0\n",
      "note_off channel=0 note=43 velocity=64 time=1\n",
      "note_off channel=0 note=63 velocity=64 time=0\n",
      "note_off channel=0 note=70 velocity=64 time=0\n",
      "note_off channel=0 note=95 velocity=64 time=0\n",
      "note_on channel=0 note=97 velocity=15 time=0\n",
      "note_off channel=0 note=98 velocity=64 time=0\n",
      "note_off channel=0 note=71 velocity=64 time=1\n",
      "note_off channel=0 note=77 velocity=64 time=0\n",
      "note_off channel=0 note=50 velocity=64 time=1\n",
      "note_on channel=0 note=51 velocity=59 time=0\n",
      "note_on channel=0 note=101 velocity=30 time=0\n",
      "note_on channel=0 note=68 velocity=57 time=1\n",
      "note_on channel=0 note=70 velocity=47 time=0\n",
      "note_off channel=0 note=97 velocity=64 time=0\n",
      "note_off channel=0 note=65 velocity=64 time=1\n",
      "note_on channel=0 note=98 velocity=29 time=0\n",
      "note_off channel=0 note=51 velocity=64 time=1\n",
      "note_on channel=0 note=52 velocity=47 time=0\n",
      "note_off channel=0 note=70 velocity=64 time=0\n",
      "note_on channel=0 note=71 velocity=51 time=0\n",
      "note_on channel=0 note=73 velocity=9 time=0\n",
      "note_on channel=0 note=63 velocity=53 time=1\n",
      "note_on channel=0 note=90 velocity=44 time=0\n",
      "note_off channel=0 note=82 velocity=64 time=1\n",
      "note_off channel=0 note=63 velocity=64 time=1\n",
      "note_on channel=0 note=88 velocity=32 time=0\n",
      "note_off channel=0 note=100 velocity=64 time=0\n",
      "note_on channel=0 note=63 velocity=51 time=1\n",
      "note_off channel=0 note=63 velocity=64 time=2\n",
      "note_on channel=0 note=64 velocity=53 time=0\n",
      "note_on channel=0 note=51 velocity=52 time=1\n",
      "note_off channel=0 note=52 velocity=64 time=0\n",
      "note_on channel=0 note=77 velocity=38 time=0\n",
      "note_off channel=0 note=64 velocity=64 time=1\n",
      "note_off channel=0 note=99 velocity=64 time=0\n",
      "note_off channel=0 note=51 velocity=64 time=1\n",
      "note_on channel=0 note=52 velocity=52 time=0\n",
      "note_on channel=0 note=64 velocity=52 time=0\n",
      "note_off channel=0 note=98 velocity=64 time=0\n",
      "note_on channel=0 note=51 velocity=52 time=2\n",
      "note_off channel=0 note=52 velocity=64 time=0\n",
      "note_on channel=0 note=63 velocity=81 time=0\n",
      "note_off channel=0 note=64 velocity=64 time=0\n",
      "note_off channel=0 note=73 velocity=64 time=0\n",
      "note_on channel=0 note=73 velocity=35 time=1\n",
      "note_off channel=0 note=84 velocity=64 time=0\n",
      "note_on channel=0 note=87 velocity=24 time=0\n",
      "note_on channel=0 note=89 velocity=38 time=0\n",
      "note_off channel=0 note=101 velocity=64 time=0\n",
      "note_on channel=0 note=48 velocity=69 time=1\n",
      "note_off channel=0 note=51 velocity=64 time=0\n",
      "note_on channel=0 note=57 velocity=45 time=0\n",
      "note_on channel=0 note=67 velocity=67 time=0\n",
      "note_off channel=0 note=68 velocity=64 time=0\n",
      "note_on channel=0 note=84 velocity=21 time=0\n",
      "note_off channel=0 note=88 velocity=64 time=0\n",
      "note_on channel=0 note=45 velocity=78 time=1\n",
      "note_off channel=0 note=48 velocity=64 time=0\n",
      "note_off channel=0 note=63 velocity=64 time=0\n",
      "note_on channel=0 note=64 velocity=80 time=0\n",
      "note_off channel=0 note=67 velocity=64 time=0\n",
      "note_on channel=0 note=68 velocity=55 time=0\n",
      "note_on channel=0 note=44 velocity=79 time=1\n",
      "note_off channel=0 note=45 velocity=64 time=0\n",
      "note_on channel=0 note=53 velocity=49 time=0\n",
      "note_off channel=0 note=57 velocity=64 time=0\n",
      "note_on channel=0 note=63 velocity=70 time=0\n",
      "note_off channel=0 note=64 velocity=64 time=0\n",
      "note_off channel=0 note=77 velocity=64 time=0\n",
      "note_off channel=0 note=68 velocity=64 time=1\n",
      "note_on channel=0 note=88 velocity=29 time=0\n",
      "note_off channel=0 note=89 velocity=64 time=0\n",
      "note_off channel=0 note=53 velocity=64 time=1\n",
      "note_on channel=0 note=68 velocity=45 time=0\n",
      "note_off channel=0 note=87 velocity=64 time=0\n",
      "note_off channel=0 note=63 velocity=64 time=1\n",
      "note_off channel=0 note=44 velocity=64 time=1\n",
      "note_on channel=0 note=65 velocity=51 time=0\n",
      "note_off channel=0 note=84 velocity=64 time=1\n",
      "note_on channel=0 note=43 velocity=62 time=2\n",
      "note_on channel=0 note=61 velocity=60 time=0\n",
      "note_on channel=0 note=87 velocity=42 time=1\n",
      "note_on channel=0 note=42 velocity=56 time=1\n",
      "note_off channel=0 note=43 velocity=64 time=0\n",
      "note_on channel=0 note=89 velocity=33 time=0\n",
      "note_off channel=0 note=88 velocity=64 time=1\n",
      "note_off channel=0 note=42 velocity=64 time=2\n",
      "note_on channel=0 note=47 velocity=70 time=0\n",
      "note_off channel=0 note=73 velocity=64 time=0\n",
      "note_on channel=0 note=75 velocity=16 time=0\n",
      "note_off channel=0 note=89 velocity=64 time=0\n",
      "note_on channel=0 note=89 velocity=49 time=1\n",
      "note_off channel=0 note=47 velocity=64 time=2\n",
      "note_on channel=0 note=48 velocity=73 time=0\n",
      "note_off channel=0 note=61 velocity=64 time=1\n",
      "note_on channel=0 note=62 velocity=36 time=0\n",
      "note_on channel=0 note=82 velocity=35 time=0\n",
      "note_off channel=0 note=48 velocity=64 time=1\n",
      "note_on channel=0 note=49 velocity=76 time=0\n",
      "note_on channel=0 note=91 velocity=20 time=0\n",
      "note_off channel=0 note=49 velocity=64 time=1\n",
      "note_on channel=0 note=52 velocity=76 time=0\n",
      "note_off channel=0 note=52 velocity=64 time=1\n",
      "note_on channel=0 note=53 velocity=67 time=0\n",
      "note_on channel=0 note=61 velocity=29 time=0\n",
      "note_off channel=0 note=62 velocity=64 time=0\n",
      "note_off channel=0 note=82 velocity=64 time=0\n",
      "note_off channel=0 note=80 velocity=64 time=1\n",
      "note_off channel=0 note=53 velocity=64 time=1\n",
      "note_off channel=0 note=61 velocity=64 time=0\n",
      "note_on channel=0 note=82 velocity=35 time=0\n",
      "note_off channel=0 note=91 velocity=64 time=0\n",
      "note_on channel=0 note=53 velocity=59 time=1\n",
      "note_off channel=0 note=53 velocity=64 time=2\n",
      "note_on channel=0 note=54 velocity=57 time=0\n",
      "note_off channel=0 note=68 velocity=64 time=0\n",
      "note_off channel=0 note=71 velocity=64 time=0\n",
      "note_off channel=0 note=82 velocity=64 time=0\n",
      "note_on channel=0 note=91 velocity=37 time=0\n",
      "note_on channel=0 note=100 velocity=63 time=0\n",
      "note_on channel=0 note=64 velocity=87 time=1\n",
      "note_off channel=0 note=65 velocity=64 time=0\n",
      "note_on channel=0 note=71 velocity=60 time=0\n",
      "note_on channel=0 note=80 velocity=37 time=0\n",
      "note_on channel=0 note=92 velocity=37 time=0\n",
      "note_on channel=0 note=99 velocity=52 time=0\n",
      "note_on channel=0 note=53 velocity=59 time=1\n",
      "note_off channel=0 note=54 velocity=64 time=0\n",
      "note_on channel=0 note=74 velocity=32 time=0\n",
      "note_off channel=0 note=75 velocity=64 time=0\n",
      "note_off channel=0 note=93 velocity=64 time=0\n",
      "note_on channel=0 note=94 velocity=65 time=0\n",
      "note_on channel=0 note=96 velocity=64 time=0\n",
      "note_on channel=0 note=102 velocity=44 time=0\n",
      "note_on channel=0 note=77 velocity=32 time=1\n",
      "note_on channel=0 note=85 velocity=49 time=0\n",
      "note_on channel=0 note=93 velocity=62 time=0\n",
      "note_on channel=0 note=45 velocity=75 time=1\n",
      "note_off channel=0 note=53 velocity=64 time=0\n",
      "note_on channel=0 note=79 velocity=33 time=0\n",
      "note_off channel=0 note=80 velocity=64 time=0\n",
      "note_off channel=0 note=91 velocity=64 time=0\n",
      "note_off channel=0 note=92 velocity=64 time=0\n",
      "note_on channel=0 note=44 velocity=78 time=1\n",
      "note_off channel=0 note=45 velocity=64 time=0\n",
      "note_on channel=0 note=63 velocity=85 time=0\n",
      "note_off channel=0 note=77 velocity=64 time=0\n",
      "note_on channel=0 note=82 velocity=27 time=0\n",
      "note_on channel=0 note=97 velocity=51 time=0\n",
      "note_on channel=0 note=52 velocity=63 time=1\n",
      "note_off channel=0 note=64 velocity=64 time=0\n",
      "note_on channel=0 note=73 velocity=37 time=0\n",
      "note_off channel=0 note=74 velocity=64 time=0\n",
      "note_off channel=0 note=79 velocity=64 time=0\n",
      "note_on channel=0 note=80 velocity=81 time=0\n",
      "note_off channel=0 note=94 velocity=64 time=0\n",
      "note_on channel=0 note=95 velocity=66 time=0\n",
      "note_off channel=0 note=63 velocity=64 time=1\n",
      "note_on channel=0 note=64 velocity=80 time=0\n",
      "note_on channel=0 note=77 velocity=38 time=0\n",
      "note_on channel=0 note=68 velocity=32 time=1\n",
      "note_off channel=0 note=44 velocity=64 time=1\n",
      "note_on channel=0 note=51 velocity=67 time=0\n",
      "note_off channel=0 note=52 velocity=64 time=0\n",
      "note_on channel=0 note=98 velocity=28 time=0\n",
      "note_on channel=0 note=41 velocity=56 time=1\n",
      "note_off channel=0 note=51 velocity=64 time=0\n",
      "note_on channel=0 note=52 velocity=75 time=0\n",
      "note_on channel=0 note=61 velocity=39 time=0\n",
      "note_off channel=0 note=68 velocity=64 time=0\n",
      "note_off channel=0 note=96 velocity=64 time=0\n",
      "note_off channel=0 note=64 velocity=64 time=1\n",
      "note_on channel=0 note=65 velocity=68 time=0\n",
      "note_off channel=0 note=41 velocity=64 time=1\n",
      "note_on channel=0 note=43 velocity=61 time=0\n",
      "note_off channel=0 note=61 velocity=64 time=0\n",
      "note_off channel=0 note=100 velocity=64 time=0\n",
      "note_on channel=0 note=61 velocity=59 time=1\n",
      "note_off channel=0 note=71 velocity=64 time=0\n",
      "note_on channel=0 note=72 velocity=44 time=0\n",
      "note_on channel=0 note=96 velocity=23 time=0\n",
      "note_on channel=0 note=100 velocity=26 time=0\n",
      "note_off channel=0 note=52 velocity=64 time=1\n",
      "note_on channel=0 note=53 velocity=71 time=0\n",
      "note_off channel=0 note=73 velocity=64 time=0\n",
      "note_on channel=0 note=42 velocity=55 time=1\n",
      "note_off channel=0 note=43 velocity=64 time=0\n",
      "note_off channel=0 note=53 velocity=64 time=0\n",
      "note_on channel=0 note=66 velocity=65 time=0\n",
      "note_on channel=0 note=73 velocity=59 time=0\n",
      "note_on channel=0 note=83 velocity=49 time=0\n",
      "note_on channel=0 note=91 velocity=27 time=0\n",
      "note_off channel=0 note=65 velocity=64 time=1\n",
      "note_off channel=0 note=66 velocity=64 time=0\n",
      "note_on channel=0 note=67 velocity=73 time=0\n",
      "note_off channel=0 note=72 velocity=64 time=0\n",
      "note_off channel=0 note=82 velocity=64 time=0\n",
      "note_off channel=0 note=42 velocity=64 time=1\n",
      "note_on channel=0 note=56 velocity=64 time=0\n",
      "note_on channel=0 note=65 velocity=50 time=0\n",
      "note_off channel=0 note=67 velocity=64 time=0\n",
      "note_on channel=0 note=68 velocity=72 time=0\n",
      "note_on channel=0 note=48 velocity=68 time=1\n",
      "note_on channel=0 note=71 velocity=16 time=0\n",
      "note_off channel=0 note=91 velocity=64 time=0\n",
      "note_off channel=0 note=97 velocity=64 time=0\n",
      "note_off channel=0 note=102 velocity=64 time=0\n",
      "note_off channel=0 note=65 velocity=64 time=1\n",
      "note_off channel=0 note=95 velocity=64 time=0\n",
      "note_off channel=0 note=98 velocity=64 time=0\n",
      "note_off channel=0 note=100 velocity=64 time=0\n",
      "note_on channel=0 note=47 velocity=74 time=1\n",
      "note_off channel=0 note=48 velocity=64 time=0\n",
      "note_on channel=0 note=65 velocity=52 time=0\n",
      "note_on channel=0 note=88 velocity=18 time=0\n",
      "note_off channel=0 note=89 velocity=64 time=0\n",
      "note_off channel=0 note=96 velocity=64 time=0\n",
      "note_off channel=0 note=47 velocity=64 time=1\n",
      "note_on channel=0 note=48 velocity=73 time=0\n",
      "note_off channel=0 note=56 velocity=64 time=1\n",
      "note_on channel=0 note=67 velocity=67 time=0\n",
      "note_off channel=0 note=68 velocity=64 time=0\n",
      "note_off channel=0 note=48 velocity=64 time=1\n",
      "note_on channel=0 note=50 velocity=75 time=0\n",
      "note_off channel=0 note=65 velocity=64 time=0\n",
      "note_off channel=0 note=71 velocity=64 time=0\n",
      "note_on channel=0 note=91 velocity=32 time=0\n",
      "note_on channel=0 note=98 velocity=24 time=0\n",
      "note_on channel=0 note=49 velocity=58 time=1\n",
      "note_off channel=0 note=50 velocity=64 time=0\n",
      "note_on channel=0 note=66 velocity=51 time=0\n",
      "note_off channel=0 note=67 velocity=64 time=0\n",
      "note_on channel=0 note=68 velocity=30 time=0\n",
      "note_on channel=0 note=100 velocity=37 time=0\n",
      "note_on channel=0 note=96 velocity=29 time=1\n",
      "note_off channel=0 note=61 velocity=64 time=1\n",
      "note_off channel=0 note=68 velocity=64 time=0\n",
      "note_on channel=0 note=72 velocity=57 time=0\n",
      "note_off channel=0 note=73 velocity=64 time=0\n",
      "note_off channel=0 note=49 velocity=64 time=1\n",
      "note_on channel=0 note=53 velocity=71 time=0\n",
      "note_on channel=0 note=61 velocity=19 time=0\n",
      "note_off channel=0 note=66 velocity=64 time=0\n",
      "note_off channel=0 note=88 velocity=64 time=0\n",
      "note_on channel=0 note=89 velocity=73 time=0\n",
      "note_off channel=0 note=96 velocity=64 time=3\n",
      "note_off channel=0 note=61 velocity=64 time=1\n",
      "note_on channel=0 note=63 velocity=51 time=0\n",
      "note_on channel=0 note=68 velocity=37 time=0\n",
      "note_off channel=0 note=72 velocity=64 time=0\n",
      "note_on channel=0 note=74 velocity=36 time=0\n",
      "note_on channel=0 note=88 velocity=32 time=0\n",
      "note_on channel=0 note=49 velocity=66 time=1\n",
      "note_off channel=0 note=53 velocity=64 time=0\n",
      "note_off channel=0 note=77 velocity=64 time=0\n",
      "note_on channel=0 note=82 velocity=46 time=0\n",
      "note_off channel=0 note=91 velocity=64 time=0\n",
      "note_on channel=0 note=96 velocity=15 time=0\n",
      "note_on channel=0 note=48 velocity=88 time=1\n",
      "note_off channel=0 note=49 velocity=64 time=0\n",
      "note_off channel=0 note=63 velocity=64 time=0\n",
      "note_off channel=0 note=68 velocity=64 time=0\n",
      "note_off channel=0 note=74 velocity=64 time=0\n",
      "note_on channel=0 note=78 velocity=34 time=0\n",
      "note_off channel=0 note=83 velocity=64 time=0\n",
      "note_on channel=0 note=63 velocity=53 time=1\n",
      "note_on channel=0 note=77 velocity=33 time=0\n",
      "note_off channel=0 note=88 velocity=64 time=0\n",
      "note_off channel=0 note=99 velocity=64 time=0\n",
      "note_on channel=0 note=73 velocity=68 time=1\n",
      "note_off channel=0 note=78 velocity=64 time=0\n",
      "note_off channel=0 note=82 velocity=64 time=0\n",
      "note_on channel=0 note=83 velocity=48 time=0\n",
      "note_off channel=0 note=90 velocity=64 time=0\n",
      "note_on channel=0 note=91 velocity=32 time=0\n",
      "note_off channel=0 note=96 velocity=64 time=0\n",
      "note_off channel=0 note=98 velocity=64 time=0\n",
      "note_off channel=0 note=100 velocity=64 time=0\n",
      "note_off channel=0 note=48 velocity=64 time=2\n",
      "note_off channel=0 note=63 velocity=64 time=0\n",
      "note_on channel=0 note=65 velocity=37 time=0\n",
      "note_on channel=0 note=48 velocity=68 time=1\n",
      "note_on channel=0 note=90 velocity=64 time=0\n",
      "note_off channel=0 note=48 velocity=64 time=1\n",
      "note_on channel=0 note=54 velocity=64 time=0\n",
      "note_off channel=0 note=65 velocity=64 time=0\n",
      "note_on channel=0 note=67 velocity=57 time=0\n",
      "note_off channel=0 note=91 velocity=64 time=0\n",
      "note_on channel=0 note=94 velocity=44 time=0\n",
      "note_on channel=0 note=45 velocity=61 time=1\n",
      "note_on channel=0 note=82 velocity=36 time=0\n",
      "note_on channel=0 note=100 velocity=31 time=0\n",
      "note_off channel=0 note=67 velocity=64 time=1\n",
      "note_off channel=0 note=93 velocity=64 time=0\n",
      "note_on channel=0 note=75 velocity=52 time=1\n",
      "note_off channel=0 note=77 velocity=64 time=0\n",
      "note_off channel=0 note=100 velocity=64 time=0\n",
      "note_on channel=0 note=44 velocity=51 time=1\n",
      "note_off channel=0 note=45 velocity=64 time=0\n",
      "note_on channel=0 note=61 velocity=16 time=0\n",
      "note_on channel=0 note=53 velocity=63 time=1\n",
      "note_off channel=0 note=54 velocity=64 time=0\n",
      "note_on channel=0 note=81 velocity=52 time=0\n",
      "note_off channel=0 note=82 velocity=64 time=0\n",
      "note_on channel=0 note=93 velocity=54 time=0\n",
      "note_off channel=0 note=94 velocity=64 time=0\n",
      "note_on channel=0 note=100 velocity=34 time=0\n",
      "note_on channel=0 note=72 velocity=71 time=1\n",
      "note_off channel=0 note=73 velocity=64 time=0\n",
      "note_off channel=0 note=83 velocity=64 time=0\n",
      "note_off channel=0 note=85 velocity=64 time=1\n",
      "note_on channel=0 note=103 velocity=22 time=0\n",
      "note_off channel=0 note=72 velocity=64 time=1\n",
      "note_on channel=0 note=73 velocity=71 time=0\n",
      "note_off channel=0 note=90 velocity=64 time=0\n",
      "note_on channel=0 note=43 velocity=33 time=1\n",
      "note_off channel=0 note=44 velocity=64 time=0\n",
      "note_off channel=0 note=61 velocity=64 time=0\n",
      "note_on channel=0 note=77 velocity=52 time=0\n",
      "note_on channel=0 note=102 velocity=43 time=0\n",
      "note_off channel=0 note=53 velocity=64 time=1\n",
      "note_on channel=0 note=54 velocity=61 time=0\n",
      "note_on channel=0 note=72 velocity=61 time=0\n",
      "note_off channel=0 note=73 velocity=64 time=0\n",
      "note_on channel=0 note=90 velocity=42 time=0\n",
      "note_on channel=0 note=83 velocity=33 time=1\n",
      "note_off channel=0 note=100 velocity=64 time=0\n",
      "note_off channel=0 note=72 velocity=64 time=1\n",
      "note_on channel=0 note=73 velocity=64 time=0\n",
      "note_on channel=0 note=78 velocity=54 time=1\n",
      "note_off channel=0 note=93 velocity=64 time=0\n",
      "note_on channel=0 note=94 velocity=60 time=0\n",
      "note_on channel=0 note=42 velocity=19 time=1\n",
      "note_off channel=0 note=43 velocity=64 time=0\n",
      "note_on channel=0 note=65 velocity=44 time=0\n",
      "note_off channel=0 note=77 velocity=64 time=0\n",
      "note_off channel=0 note=78 velocity=64 time=1\n",
      "note_on channel=0 note=93 velocity=62 time=0\n",
      "note_off channel=0 note=94 velocity=64 time=0\n",
      "note_on channel=0 note=53 velocity=63 time=1\n",
      "note_off channel=0 note=54 velocity=64 time=0\n",
      "note_on channel=0 note=72 velocity=57 time=0\n",
      "note_off channel=0 note=73 velocity=64 time=0\n",
      "note_on channel=0 note=78 velocity=49 time=0\n",
      "note_on channel=0 note=100 velocity=16 time=0\n",
      "note_off channel=0 note=103 velocity=64 time=0\n",
      "note_off channel=0 note=42 velocity=64 time=1\n",
      "note_on channel=0 note=43 velocity=13 time=0\n",
      "note_off channel=0 note=87 velocity=64 time=0\n",
      "note_off channel=0 note=90 velocity=64 time=0\n",
      "note_on channel=0 note=91 velocity=50 time=0\n",
      "note_off channel=0 note=102 velocity=64 time=0\n",
      "note_on channel=0 note=64 velocity=45 time=1\n",
      "note_off channel=0 note=65 velocity=64 time=0\n",
      "note_on channel=0 note=77 velocity=44 time=0\n",
      "note_off channel=0 note=78 velocity=64 time=0\n",
      "note_off channel=0 note=81 velocity=64 time=0\n",
      "note_on channel=0 note=52 velocity=68 time=1\n",
      "note_off channel=0 note=53 velocity=64 time=0\n",
      "note_on channel=0 note=71 velocity=44 time=0\n",
      "note_off channel=0 note=72 velocity=64 time=0\n",
      "note_on channel=0 note=73 velocity=34 time=0\n",
      "note_on channel=0 note=78 velocity=36 time=0\n",
      "note_off channel=0 note=43 velocity=64 time=1\n",
      "note_off channel=0 note=77 velocity=64 time=0\n",
      "note_off channel=0 note=89 velocity=64 time=0\n",
      "note_off channel=0 note=100 velocity=64 time=0\n",
      "note_off channel=0 note=64 velocity=64 time=1\n",
      "note_on channel=0 note=77 velocity=46 time=0\n",
      "note_off channel=0 note=78 velocity=64 time=0\n",
      "note_on channel=0 note=85 velocity=45 time=0\n",
      "note_on channel=0 note=89 velocity=70 time=0\n",
      "note_on channel=0 note=51 velocity=73 time=1\n",
      "note_off channel=0 note=52 velocity=64 time=0\n",
      "note_on channel=0 note=66 velocity=45 time=0\n",
      "note_off channel=0 note=71 velocity=64 time=0\n",
      "note_off channel=0 note=73 velocity=64 time=0\n",
      "note_on channel=0 note=95 velocity=47 time=0\n",
      "note_on channel=0 note=102 velocity=33 time=0\n",
      "note_on channel=0 note=48 velocity=69 time=1\n",
      "note_off channel=0 note=51 velocity=64 time=0\n",
      "note_on channel=0 note=69 velocity=46 time=0\n",
      "note_on channel=0 note=82 velocity=35 time=0\n",
      "note_off channel=0 note=83 velocity=64 time=0\n",
      "note_on channel=0 note=84 velocity=42 time=0\n",
      "note_on channel=0 note=45 velocity=76 time=1\n",
      "note_off channel=0 note=48 velocity=64 time=0\n",
      "note_on channel=0 note=52 velocity=66 time=0\n",
      "note_off channel=0 note=66 velocity=64 time=0\n",
      "note_on channel=0 note=67 velocity=47 time=0\n",
      "note_on channel=0 note=44 velocity=77 time=1\n",
      "note_off channel=0 note=45 velocity=64 time=0\n",
      "note_on channel=0 note=71 velocity=49 time=0\n",
      "note_on channel=0 note=73 velocity=27 time=0\n",
      "note_off channel=0 note=82 velocity=64 time=0\n",
      "note_on channel=0 note=83 velocity=62 time=0\n",
      "note_on channel=0 note=88 velocity=69 time=0\n",
      "note_off channel=0 note=52 velocity=64 time=1\n",
      "note_on channel=0 note=64 velocity=57 time=0\n",
      "note_off channel=0 note=75 velocity=64 time=0\n",
      "note_off channel=0 note=77 velocity=64 time=0\n",
      "note_off channel=0 note=84 velocity=64 time=0\n",
      "note_on channel=0 note=90 velocity=60 time=0\n",
      "note_on channel=0 note=52 velocity=69 time=1\n",
      "note_off channel=0 note=69 velocity=64 time=0\n",
      "note_off channel=0 note=85 velocity=64 time=0\n",
      "note_on channel=0 note=86 velocity=56 time=0\n",
      "note_on channel=0 note=43 velocity=74 time=1\n",
      "note_off channel=0 note=44 velocity=64 time=0\n",
      "note_off channel=0 note=67 velocity=64 time=1\n",
      "note_on channel=0 note=51 velocity=67 time=1\n",
      "note_off channel=0 note=52 velocity=64 time=0\n",
      "note_off channel=0 note=91 velocity=64 time=0\n",
      "note_off channel=0 note=43 velocity=64 time=1\n",
      "note_off channel=0 note=51 velocity=64 time=0\n",
      "note_on channel=0 note=52 velocity=66 time=0\n",
      "note_on channel=0 note=85 velocity=61 time=0\n",
      "note_off channel=0 note=86 velocity=64 time=0\n",
      "note_on channel=0 note=43 velocity=55 time=1\n",
      "note_on channel=0 note=91 velocity=40 time=0\n",
      "note_off channel=0 note=43 velocity=64 time=2\n",
      "note_on channel=0 note=70 velocity=47 time=0\n",
      "note_off channel=0 note=71 velocity=64 time=0\n",
      "note_on channel=0 note=77 velocity=30 time=0\n",
      "note_off channel=0 note=89 velocity=64 time=0\n",
      "note_on channel=0 note=63 velocity=56 time=1\n",
      "note_off channel=0 note=64 velocity=64 time=0\n",
      "note_on channel=0 note=75 velocity=63 time=0\n",
      "note_on channel=0 note=82 velocity=59 time=0\n",
      "note_off channel=0 note=83 velocity=64 time=0\n",
      "note_on channel=0 note=89 velocity=45 time=0\n",
      "note_off channel=0 note=95 velocity=64 time=0\n",
      "note_on channel=0 note=51 velocity=54 time=1\n",
      "note_off channel=0 note=52 velocity=64 time=0\n",
      "note_off channel=0 note=90 velocity=64 time=0\n",
      "note_on channel=0 note=87 velocity=68 time=1\n",
      "note_off channel=0 note=88 velocity=64 time=1\n",
      "note_on channel=0 note=95 velocity=32 time=0\n",
      "note_on channel=0 note=50 velocity=42 time=1\n",
      "note_off channel=0 note=51 velocity=64 time=0\n",
      "note_off channel=0 note=93 velocity=64 time=1\n",
      "note_off channel=0 note=50 velocity=64 time=1\n",
      "note_on channel=0 note=51 velocity=53 time=0\n",
      "note_off channel=0 note=73 velocity=64 time=1\n",
      "note_on channel=0 note=84 velocity=61 time=0\n",
      "note_on channel=0 note=78 velocity=33 time=1\n",
      "note_off channel=0 note=85 velocity=64 time=0\n",
      "note_on channel=0 note=90 velocity=55 time=0\n",
      "note_off channel=0 note=91 velocity=64 time=0\n",
      "note_off channel=0 note=102 velocity=64 time=0\n",
      "note_on channel=0 note=50 velocity=64 time=1\n",
      "note_off channel=0 note=51 velocity=64 time=0\n",
      "note_off channel=0 note=63 velocity=64 time=0\n",
      "note_on channel=0 note=65 velocity=29 time=0\n",
      "note_on channel=0 note=81 velocity=50 time=0\n",
      "note_on channel=0 note=88 velocity=64 time=0\n",
      "note_off channel=0 note=89 velocity=64 time=0\n",
      "note_on channel=0 note=69 velocity=48 time=1\n",
      "note_off channel=0 note=70 velocity=64 time=0\n",
      "note_on channel=0 note=74 velocity=55 time=0\n",
      "note_off channel=0 note=82 velocity=64 time=0\n",
      "note_on channel=0 note=83 velocity=61 time=0\n",
      "note_off channel=0 note=75 velocity=64 time=1\n",
      "note_off channel=0 note=65 velocity=64 time=1\n",
      "note_off channel=0 note=87 velocity=64 time=0\n",
      "note_on channel=0 note=65 velocity=44 time=1\n",
      "note_on channel=0 note=85 velocity=32 time=0\n",
      "note_on channel=0 note=63 velocity=95 time=4\n",
      "note_off channel=0 note=65 velocity=64 time=0\n",
      "note_off channel=0 note=69 velocity=64 time=0\n",
      "note_off channel=0 note=77 velocity=64 time=0\n",
      "note_off channel=0 note=78 velocity=64 time=0\n",
      "note_on channel=0 note=79 velocity=31 time=0\n",
      "note_off channel=0 note=81 velocity=64 time=0\n",
      "note_on channel=0 note=89 velocity=61 time=0\n",
      "note_on channel=0 note=103 velocity=13 time=0\n",
      "note_on channel=0 note=57 velocity=49 time=1\n",
      "note_on channel=0 note=69 velocity=51 time=0\n",
      "note_on channel=0 note=82 velocity=65 time=0\n",
      "note_off channel=0 note=83 velocity=64 time=0\n",
      "note_on channel=0 note=87 velocity=30 time=0\n",
      "note_on channel=0 note=91 velocity=36 time=0\n",
      "note_off channel=0 note=95 velocity=64 time=0\n",
      "note_off channel=0 note=79 velocity=64 time=1\n",
      "note_off channel=0 note=82 velocity=64 time=0\n",
      "note_on channel=0 note=83 velocity=57 time=0\n",
      "note_off channel=0 note=57 velocity=64 time=1\n",
      "note_on channel=0 note=77 velocity=20 time=0\n",
      "note_off channel=0 note=83 velocity=64 time=1\n",
      "note_on channel=0 note=83 velocity=49 time=1\n",
      "note_off channel=0 note=85 velocity=64 time=0\n",
      "note_off channel=0 note=103 velocity=64 time=0\n",
      "note_off channel=0 note=77 velocity=64 time=1\n",
      "note_on channel=0 note=78 velocity=27 time=0\n",
      "note_on channel=0 note=95 velocity=52 time=5\n",
      "note_on channel=0 note=77 velocity=36 time=1\n",
      "note_off channel=0 note=88 velocity=64 time=0\n",
      "note_off channel=0 note=91 velocity=64 time=0\n",
      "note_off channel=0 note=69 velocity=64 time=1\n",
      "note_on channel=0 note=70 velocity=45 time=0\n",
      "note_on channel=0 note=88 velocity=35 time=0\n",
      "note_on channel=0 note=91 velocity=57 time=0\n",
      "note_on channel=0 note=94 velocity=28 time=0\n",
      "note_off channel=0 note=50 velocity=64 time=1\n",
      "note_on channel=0 note=51 velocity=46 time=0\n",
      "note_off channel=0 note=74 velocity=64 time=0\n",
      "note_off channel=0 note=78 velocity=64 time=0\n",
      "note_off channel=0 note=88 velocity=64 time=1\n",
      "note_on channel=0 note=78 velocity=28 time=1\n",
      "note_on channel=0 note=85 velocity=15 time=0\n",
      "note_off channel=0 note=90 velocity=64 time=0\n",
      "note_on channel=0 note=50 velocity=63 time=1\n",
      "note_off channel=0 note=51 velocity=64 time=0\n",
      "note_on channel=0 note=90 velocity=53 time=0\n",
      "note_off channel=0 note=91 velocity=64 time=0\n",
      "note_off channel=0 note=94 velocity=64 time=0\n",
      "note_on channel=0 note=69 velocity=46 time=1\n",
      "note_off channel=0 note=70 velocity=64 time=0\n",
      "note_off channel=0 note=83 velocity=64 time=0\n",
      "note_off channel=0 note=78 velocity=64 time=1\n",
      "note_on channel=0 note=83 velocity=68 time=0\n",
      "note_off channel=0 note=84 velocity=64 time=0\n",
      "note_off channel=0 note=90 velocity=64 time=0\n",
      "note_on channel=0 note=91 velocity=49 time=0\n",
      "note_on channel=0 note=68 velocity=56 time=1\n",
      "note_off channel=0 note=69 velocity=64 time=0\n",
      "note_on channel=0 note=71 velocity=31 time=0\n",
      "note_on channel=0 note=73 velocity=55 time=0\n",
      "note_off channel=0 note=85 velocity=64 time=0\n",
      "note_on channel=0 note=93 velocity=59 time=0\n",
      "note_on channel=0 note=49 velocity=67 time=1\n",
      "note_off channel=0 note=50 velocity=64 time=0\n",
      "note_off channel=0 note=80 velocity=64 time=0\n",
      "note_on channel=0 note=90 velocity=36 time=2\n",
      "note_off channel=0 note=91 velocity=64 time=0\n",
      "note_on channel=0 note=96 velocity=47 time=0\n",
      "note_on channel=0 note=100 velocity=40 time=3\n",
      "note_off channel=0 note=90 velocity=64 time=1\n",
      "note_off channel=0 note=71 velocity=64 time=2\n",
      "note_on channel=0 note=78 velocity=34 time=0\n",
      "note_on channel=0 note=90 velocity=42 time=0\n",
      "note_on channel=0 note=57 velocity=52 time=1\n",
      "note_on channel=0 note=61 velocity=85 time=0\n",
      "note_off channel=0 note=63 velocity=64 time=0\n",
      "note_off channel=0 note=77 velocity=64 time=0\n",
      "note_on channel=0 note=88 velocity=29 time=0\n",
      "note_on channel=0 note=97 velocity=36 time=0\n",
      "note_off channel=0 note=61 velocity=64 time=1\n",
      "note_on channel=0 note=62 velocity=80 time=0\n",
      "note_on channel=0 note=77 velocity=43 time=0\n",
      "note_on channel=0 note=84 velocity=26 time=0\n",
      "note_off channel=0 note=62 velocity=64 time=1\n",
      "note_on channel=0 note=63 velocity=88 time=0\n",
      "note_on channel=0 note=70 velocity=40 time=0\n",
      "note_off channel=0 note=78 velocity=64 time=0\n",
      "note_off channel=0 note=88 velocity=64 time=0\n",
      "note_off channel=0 note=90 velocity=64 time=0\n",
      "note_off channel=0 note=57 velocity=64 time=1\n",
      "note_on channel=0 note=98 velocity=17 time=0\n",
      "note_on channel=0 note=102 velocity=25 time=0\n",
      "note_off channel=0 note=70 velocity=64 time=1\n",
      "note_on channel=0 note=71 velocity=50 time=0\n",
      "note_off channel=0 note=84 velocity=64 time=0\n",
      "note_on channel=0 note=103 velocity=9 time=0\n",
      "note_off channel=0 note=93 velocity=64 time=1\n",
      "note_off channel=0 note=89 velocity=64 time=3\n",
      "note_off channel=0 note=95 velocity=64 time=0\n",
      "note_off channel=0 note=103 velocity=64 time=1\n",
      "note_off channel=0 note=87 velocity=64 time=1\n",
      "note_on channel=0 note=91 velocity=40 time=3\n",
      "note_on channel=0 note=87 velocity=32 time=2\n",
      "note_off channel=0 note=96 velocity=64 time=0\n",
      "note_off channel=0 note=73 velocity=64 time=1\n",
      "note_on channel=0 note=80 velocity=85 time=0\n",
      "note_off channel=0 note=102 velocity=64 time=0\n",
      "note_off channel=0 note=97 velocity=64 time=1\n",
      "note_off channel=0 note=100 velocity=64 time=1\n",
      "note_off channel=0 note=98 velocity=64 time=1\n",
      "note_on channel=0 note=84 velocity=21 time=3\n",
      "note_on channel=0 note=88 velocity=23 time=1\n",
      "note_on channel=0 note=93 velocity=11 time=1\n",
      "note_off channel=0 note=49 velocity=64 time=1\n",
      "note_on channel=0 note=89 velocity=75 time=0\n",
      "note_off channel=0 note=68 velocity=64 time=1\n",
      "note_on channel=0 note=73 velocity=50 time=1\n",
      "note_off channel=0 note=84 velocity=64 time=0\n",
      "note_off channel=0 note=88 velocity=64 time=0\n",
      "note_off channel=0 note=93 velocity=64 time=0\n",
      "note_on channel=0 note=100 velocity=15 time=0\n",
      "note_on channel=0 note=49 velocity=69 time=1\n",
      "note_on channel=0 note=68 velocity=45 time=0\n",
      "note_on channel=0 note=84 velocity=30 time=0\n",
      "note_on channel=0 note=93 velocity=32 time=0\n",
      "note_on channel=0 note=102 velocity=19 time=0\n",
      "note_on channel=0 note=88 velocity=35 time=1\n",
      "note_on channel=0 note=94 velocity=26 time=1\n",
      "note_off channel=0 note=84 velocity=64 time=1\n",
      "note_off channel=0 note=68 velocity=64 time=1\n",
      "note_on channel=0 note=69 velocity=47 time=0\n",
      "note_off channel=0 note=73 velocity=64 time=0\n",
      "note_on channel=0 note=74 velocity=43 time=0\n",
      "note_on channel=0 note=90 velocity=55 time=0\n",
      "note_off channel=0 note=91 velocity=64 time=0\n",
      "note_off channel=0 note=49 velocity=64 time=1\n",
      "note_on channel=0 note=50 velocity=71 time=0\n",
      "note_on channel=0 note=78 velocity=31 time=0\n",
      "note_on channel=0 note=84 velocity=31 time=0\n",
      "note_on channel=0 note=91 velocity=20 time=0\n",
      "note_off channel=0 note=94 velocity=64 time=0\n",
      "note_off channel=0 note=102 velocity=64 time=0\n",
      "note_off channel=0 note=71 velocity=64 time=1\n",
      "note_off channel=0 note=88 velocity=64 time=0\n",
      "note_off channel=0 note=78 velocity=64 time=1\n",
      "note_off channel=0 note=93 velocity=64 time=0\n",
      "note_off channel=0 note=100 velocity=64 time=0\n",
      "note_off channel=0 note=63 velocity=64 time=1\n",
      "note_on channel=0 note=93 velocity=33 time=0\n",
      "note_on channel=0 note=61 velocity=57 time=1\n",
      "note_on channel=0 note=71 velocity=36 time=0\n",
      "note_off channel=0 note=91 velocity=64 time=0\n",
      "note_on channel=0 note=94 velocity=31 time=0\n",
      "note_on channel=0 note=82 velocity=25 time=1\n",
      "note_on channel=0 note=88 velocity=30 time=0\n",
      "note_off channel=0 note=89 velocity=64 time=0\n",
      "note_on channel=0 note=91 velocity=42 time=0\n",
      "note_on channel=0 note=68 velocity=44 time=1\n",
      "note_off channel=0 note=69 velocity=64 time=0\n",
      "note_off channel=0 note=74 velocity=64 time=0\n",
      "note_on channel=0 note=75 velocity=47 time=0\n",
      "note_off channel=0 note=83 velocity=64 time=0\n",
      "note_off channel=0 note=93 velocity=64 time=0\n",
      "note_on channel=0 note=49 velocity=67 time=1\n",
      "note_off channel=0 note=50 velocity=64 time=0\n",
      "note_off channel=0 note=94 velocity=64 time=0\n",
      "note_on channel=0 note=65 velocity=51 time=1\n",
      "note_on channel=0 note=94 velocity=33 time=0\n",
      "note_off channel=0 note=82 velocity=64 time=1\n",
      "note_off channel=0 note=84 velocity=64 time=0\n",
      "note_on channel=0 note=93 velocity=50 time=0\n",
      "note_on channel=0 note=101 velocity=18 time=0\n",
      "note_off channel=0 note=49 velocity=64 time=1\n",
      "note_on channel=0 note=50 velocity=69 time=0\n",
      "note_off channel=0 note=68 velocity=64 time=0\n",
      "note_on channel=0 note=69 velocity=55 time=0\n",
      "note_off channel=0 note=71 velocity=64 time=0\n",
      "note_on channel=0 note=96 velocity=16 time=0\n",
      "note_off channel=0 note=61 velocity=64 time=1\n",
      "note_on channel=0 note=84 velocity=39 time=0\n",
      "note_on channel=0 note=73 velocity=53 time=2\n",
      "note_on channel=0 note=82 velocity=27 time=0\n",
      "note_off channel=0 note=96 velocity=64 time=1\n",
      "note_on channel=0 note=61 velocity=51 time=1\n",
      "note_on channel=0 note=68 velocity=54 time=0\n",
      "note_off channel=0 note=69 velocity=64 time=0\n",
      "note_on channel=0 note=71 velocity=58 time=0\n",
      "note_off channel=0 note=93 velocity=64 time=0\n",
      "note_on channel=0 note=49 velocity=64 time=1\n",
      "note_off channel=0 note=50 velocity=64 time=0\n",
      "note_off channel=0 note=82 velocity=64 time=0\n",
      "note_off channel=0 note=90 velocity=64 time=0\n",
      "note_on channel=0 note=93 velocity=55 time=0\n",
      "note_off channel=0 note=94 velocity=64 time=0\n",
      "note_off channel=0 note=101 velocity=64 time=0\n",
      "note_on channel=0 note=60 velocity=34 time=2\n",
      "note_off channel=0 note=61 velocity=64 time=0\n",
      "note_on channel=0 note=67 velocity=31 time=0\n",
      "note_off channel=0 note=68 velocity=64 time=0\n",
      "note_off channel=0 note=49 velocity=64 time=2\n",
      "note_off channel=0 note=60 velocity=64 time=0\n",
      "note_on channel=0 note=61 velocity=80 time=0\n",
      "note_off channel=0 note=67 velocity=64 time=0\n",
      "note_on channel=0 note=68 velocity=40 time=0\n",
      "note_on channel=0 note=82 velocity=44 time=0\n",
      "note_on channel=0 note=90 velocity=64 time=1\n",
      "note_off channel=0 note=91 velocity=64 time=0\n",
      "note_on channel=0 note=101 velocity=37 time=0\n",
      "note_off channel=0 note=77 velocity=64 time=1\n",
      "note_on channel=0 note=78 velocity=22 time=0\n",
      "note_on channel=0 note=49 velocity=67 time=1\n",
      "note_on channel=0 note=95 velocity=31 time=0\n",
      "note_on channel=0 note=67 velocity=63 time=1\n",
      "note_off channel=0 note=68 velocity=64 time=0\n",
      "note_on channel=0 note=57 velocity=64 time=1\n",
      "note_off channel=0 note=65 velocity=64 time=0\n",
      "note_on channel=0 note=77 velocity=40 time=0\n",
      "note_off channel=0 note=78 velocity=64 time=0\n",
      "note_off channel=0 note=88 velocity=64 time=0\n",
      "note_on channel=0 note=89 velocity=42 time=0\n",
      "note_on channel=0 note=48 velocity=67 time=1\n",
      "note_off channel=0 note=49 velocity=64 time=0\n",
      "note_off channel=0 note=67 velocity=64 time=0\n",
      "note_on channel=0 note=68 velocity=64 time=0\n",
      "note_off channel=0 note=73 velocity=64 time=0\n",
      "note_on channel=0 note=91 velocity=40 time=0\n",
      "note_off channel=0 note=77 velocity=64 time=1\n",
      "note_off channel=0 note=48 velocity=64 time=1\n",
      "note_off channel=0 note=61 velocity=64 time=0\n",
      "note_on channel=0 note=62 velocity=65 time=0\n",
      "note_off channel=0 note=82 velocity=64 time=0\n",
      "note_off channel=0 note=87 velocity=64 time=0\n",
      "note_off channel=0 note=57 velocity=64 time=1\n",
      "note_on channel=0 note=58 velocity=52 time=0\n",
      "note_off channel=0 note=68 velocity=64 time=0\n",
      "note_off channel=0 note=71 velocity=64 time=0\n",
      "note_on channel=0 note=88 velocity=32 time=0\n",
      "note_off channel=0 note=89 velocity=64 time=0\n",
      "note_off channel=0 note=62 velocity=64 time=1\n",
      "note_on channel=0 note=65 velocity=38 time=0\n",
      "note_on channel=0 note=68 velocity=32 time=0\n",
      "note_on channel=0 note=71 velocity=48 time=0\n",
      "note_on channel=0 note=85 velocity=12 time=0\n",
      "note_on channel=0 note=47 velocity=53 time=1\n",
      "note_off channel=0 note=58 velocity=64 time=0\n",
      "note_on channel=0 note=94 velocity=32 time=1\n",
      "note_off channel=0 note=101 velocity=64 time=0\n",
      "note_off channel=0 note=47 velocity=64 time=1\n",
      "note_off channel=0 note=85 velocity=64 time=0\n",
      "note_on channel=0 note=101 velocity=24 time=0\n",
      "note_on channel=0 note=47 velocity=42 time=1\n",
      "note_on channel=0 note=70 velocity=42 time=0\n",
      "note_off channel=0 note=71 velocity=64 time=0\n",
      "note_on channel=0 note=78 velocity=33 time=0\n",
      "note_off channel=0 note=65 velocity=64 time=1\n",
      "note_off channel=0 note=68 velocity=64 time=0\n",
      "note_off channel=0 note=91 velocity=64 time=0\n",
      "note_on channel=0 note=65 velocity=29 time=1\n",
      "note_on channel=0 note=68 velocity=31 time=0\n",
      "note_off channel=0 note=70 velocity=64 time=0\n",
      "note_on channel=0 note=71 velocity=54 time=0\n",
      "note_on channel=0 note=91 velocity=34 time=0\n",
      "note_off channel=0 note=65 velocity=64 time=2\n",
      "note_on channel=0 note=66 velocity=45 time=0\n",
      "note_off channel=0 note=80 velocity=64 time=0\n",
      "note_on channel=0 note=81 velocity=48 time=0\n",
      "note_off channel=0 note=47 velocity=64 time=1\n",
      "note_off channel=0 note=68 velocity=64 time=0\n",
      "note_off channel=0 note=75 velocity=64 time=0\n",
      "note_on channel=0 note=82 velocity=62 time=0\n",
      "note_on channel=0 note=85 velocity=26 time=0\n",
      "note_on channel=0 note=53 velocity=43 time=1\n",
      "note_off channel=0 note=66 velocity=64 time=0\n",
      "note_on channel=0 note=75 velocity=47 time=0\n",
      "note_off channel=0 note=84 velocity=64 time=0\n",
      "note_on channel=0 note=89 velocity=28 time=0\n",
      "note_on channel=0 note=92 velocity=21 time=0\n",
      "note_on channel=0 note=66 velocity=43 time=1\n",
      "note_on channel=0 note=80 velocity=42 time=0\n",
      "note_off channel=0 note=81 velocity=64 time=0\n",
      "note_off channel=0 note=53 velocity=64 time=1\n",
      "note_on channel=0 note=54 velocity=29 time=0\n",
      "note_on channel=0 note=59 velocity=42 time=0\n",
      "note_on channel=0 note=72 velocity=31 time=0\n",
      "note_off channel=0 note=85 velocity=64 time=0\n",
      "note_off channel=0 note=91 velocity=64 time=0\n",
      "note_on channel=0 note=48 velocity=40 time=1\n",
      "note_off channel=0 note=71 velocity=64 time=0\n",
      "note_off channel=0 note=89 velocity=64 time=0\n",
      "note_on channel=0 note=68 velocity=39 time=1\n",
      "note_on channel=0 note=71 velocity=50 time=0\n",
      "note_off channel=0 note=72 velocity=64 time=0\n",
      "note_off channel=0 note=88 velocity=64 time=0\n",
      "note_on channel=0 note=47 velocity=37 time=1\n",
      "note_off channel=0 note=48 velocity=64 time=0\n",
      "note_off channel=0 note=54 velocity=64 time=0\n",
      "note_on channel=0 note=91 velocity=55 time=0\n",
      "note_on channel=0 note=65 velocity=39 time=1\n",
      "note_off channel=0 note=66 velocity=64 time=0\n",
      "note_off channel=0 note=95 velocity=64 time=0\n",
      "note_off channel=0 note=101 velocity=64 time=0\n",
      "note_on channel=0 note=86 velocity=15 time=1\n",
      "note_on channel=0 note=89 velocity=26 time=0\n",
      "note_off channel=0 note=94 velocity=64 time=0\n",
      "note_on channel=0 note=100 velocity=15 time=0\n",
      "note_off channel=0 note=47 velocity=64 time=1\n",
      "note_on channel=0 note=48 velocity=36 time=0\n",
      "note_off channel=0 note=59 velocity=64 time=0\n",
      "note_on channel=0 note=60 velocity=60 time=0\n",
      "note_off channel=0 note=92 velocity=64 time=1\n",
      "note_off channel=0 note=68 velocity=64 time=1\n",
      "note_off channel=0 note=71 velocity=64 time=0\n",
      "note_off channel=0 note=78 velocity=64 time=0\n",
      "note_off channel=0 note=93 velocity=64 time=0\n",
      "note_off channel=0 note=65 velocity=64 time=1\n",
      "note_on channel=0 note=68 velocity=55 time=0\n",
      "note_on channel=0 note=71 velocity=42 time=0\n",
      "note_off channel=0 note=86 velocity=64 time=0\n",
      "note_on channel=0 note=65 velocity=39 time=1\n",
      "note_on channel=0 note=77 velocity=48 time=0\n",
      "note_on channel=0 note=83 velocity=55 time=0\n",
      "note_off channel=0 note=48 velocity=64 time=1\n",
      "note_on channel=0 note=49 velocity=52 time=0\n",
      "note_off channel=0 note=71 velocity=64 time=0\n",
      "note_off channel=0 note=100 velocity=64 time=0\n",
      "note_on channel=0 note=64 velocity=80 time=1\n",
      "note_off channel=0 note=65 velocity=64 time=0\n",
      "note_off channel=0 note=82 velocity=64 time=0\n",
      "note_on channel=0 note=88 velocity=30 time=0\n",
      "note_off channel=0 note=89 velocity=64 time=0\n",
      "note_on channel=0 note=93 velocity=37 time=0\n",
      "note_on channel=0 note=48 velocity=69 time=1\n",
      "note_off channel=0 note=49 velocity=64 time=0\n",
      "note_on channel=0 note=57 velocity=44 time=0\n",
      "note_off channel=0 note=60 velocity=64 time=0\n",
      "note_on channel=0 note=67 velocity=68 time=0\n",
      "note_off channel=0 note=68 velocity=64 time=0\n",
      "note_on channel=0 note=89 velocity=53 time=0\n",
      "note_on channel=0 note=45 velocity=79 time=1\n",
      "note_off channel=0 note=48 velocity=64 time=0\n",
      "note_on channel=0 note=73 velocity=58 time=0\n",
      "note_on channel=0 note=44 velocity=76 time=1\n",
      "note_off channel=0 note=45 velocity=64 time=0\n",
      "note_off channel=0 note=57 velocity=64 time=0\n",
      "note_on channel=0 note=63 velocity=72 time=0\n",
      "note_off channel=0 note=64 velocity=64 time=0\n",
      "note_off channel=0 note=88 velocity=64 time=0\n",
      "note_off channel=0 note=91 velocity=64 time=0\n",
      "note_on channel=0 note=43 velocity=78 time=1\n",
      "note_off channel=0 note=44 velocity=64 time=0\n",
      "note_off channel=0 note=67 velocity=64 time=0\n",
      "note_on channel=0 note=68 velocity=57 time=0\n",
      "note_on channel=0 note=78 velocity=17 time=0\n",
      "note_off channel=0 note=43 velocity=64 time=1\n",
      "note_on channel=0 note=44 velocity=80 time=0\n",
      "note_off channel=0 note=63 velocity=64 time=0\n",
      "note_off channel=0 note=77 velocity=64 time=0\n",
      "note_on channel=0 note=61 velocity=73 time=1\n",
      "note_on channel=0 note=65 velocity=53 time=1\n",
      "note_off channel=0 note=44 velocity=64 time=1\n",
      "note_on channel=0 note=71 velocity=22 time=0\n",
      "note_off channel=0 note=93 velocity=64 time=0\n",
      "note_on channel=0 note=42 velocity=61 time=1\n",
      "note_on channel=0 note=93 velocity=39 time=0\n",
      "note_off channel=0 note=90 velocity=64 time=1\n",
      "note_on channel=0 note=91 velocity=55 time=0\n",
      "note_off channel=0 note=42 velocity=64 time=1\n",
      "note_off channel=0 note=71 velocity=64 time=0\n",
      "note_on channel=0 note=49 velocity=62 time=1\n",
      "note_off channel=0 note=78 velocity=64 time=0\n",
      "note_on channel=0 note=84 velocity=38 time=0\n",
      "note_on channel=0 note=90 velocity=55 time=1\n",
      "note_on channel=0 note=86 velocity=21 time=1\n",
      "note_off channel=0 note=91 velocity=64 time=0\n",
      "note_on channel=0 note=48 velocity=72 time=1\n",
      "note_off channel=0 note=49 velocity=64 time=0\n",
      "note_off channel=0 note=68 velocity=64 time=1\n",
      "note_on channel=0 note=72 velocity=50 time=0\n",
      "note_off channel=0 note=73 velocity=64 time=0\n",
      "note_on channel=0 note=91 velocity=44 time=0\n",
      "note_on channel=0 note=47 velocity=73 time=1\n",
      "note_off channel=0 note=48 velocity=64 time=0\n",
      "note_on channel=0 note=67 velocity=50 time=0\n",
      "note_on channel=0 note=82 velocity=34 time=0\n",
      "note_off channel=0 note=90 velocity=64 time=0\n",
      "note_on channel=0 note=90 velocity=48 time=1\n",
      "note_off channel=0 note=47 velocity=64 time=1\n",
      "note_on channel=0 note=48 velocity=71 time=0\n",
      "note_off channel=0 note=67 velocity=64 time=0\n",
      "note_off channel=0 note=82 velocity=64 time=0\n",
      "note_on channel=0 note=85 velocity=28 time=0\n",
      "note_off channel=0 note=86 velocity=64 time=0\n",
      "note_off channel=0 note=48 velocity=64 time=1\n",
      "note_on channel=0 note=49 velocity=78 time=0\n",
      "note_on channel=0 note=88 velocity=25 time=0\n",
      "note_off channel=0 note=91 velocity=64 time=0\n",
      "note_off channel=0 note=49 velocity=64 time=1\n",
      "note_on channel=0 note=50 velocity=78 time=0\n",
      "note_off channel=0 note=65 velocity=64 time=0\n",
      "note_off channel=0 note=72 velocity=64 time=0\n",
      "note_on channel=0 note=82 velocity=56 time=0\n",
      "note_off channel=0 note=84 velocity=64 time=0\n",
      "note_off channel=0 note=50 velocity=64 time=1\n",
      "note_on channel=0 note=54 velocity=69 time=0\n",
      "note_off channel=0 note=61 velocity=64 time=0\n",
      "note_on channel=0 note=65 velocity=55 time=0\n",
      "note_on channel=0 note=69 velocity=37 time=0\n",
      "note_off channel=0 note=75 velocity=64 time=0\n",
      "note_off channel=0 note=85 velocity=64 time=0\n",
      "note_on channel=0 note=86 velocity=32 time=0\n",
      "note_on channel=0 note=75 velocity=29 time=1\n",
      "note_off channel=0 note=80 velocity=64 time=0\n",
      "note_off channel=0 note=88 velocity=64 time=0\n",
      "note_off channel=0 note=54 velocity=64 time=1\n",
      "note_on channel=0 note=68 velocity=26 time=0\n",
      "note_off channel=0 note=69 velocity=64 time=0\n",
      "note_off channel=0 note=83 velocity=64 time=0\n",
      "note_on channel=0 note=88 velocity=19 time=0\n",
      "note_on channel=0 note=83 velocity=30 time=1\n",
      "note_off channel=0 note=86 velocity=64 time=0\n",
      "note_on channel=0 note=72 velocity=29 time=1\n",
      "note_on channel=0 note=81 velocity=35 time=0\n",
      "note_on channel=0 note=91 velocity=30 time=0\n",
      "note_on channel=0 note=61 velocity=32 time=1\n",
      "note_off channel=0 note=83 velocity=64 time=0\n",
      "note_on channel=0 note=95 velocity=12 time=0\n",
      "note_on channel=0 note=53 velocity=59 time=1\n",
      "note_on channel=0 note=74 velocity=39 time=0\n",
      "note_on channel=0 note=78 velocity=43 time=0\n",
      "note_off channel=0 note=81 velocity=64 time=0\n",
      "note_on channel=0 note=85 velocity=48 time=0\n",
      "note_off channel=0 note=88 velocity=64 time=0\n",
      "note_off channel=0 note=90 velocity=64 time=0\n",
      "note_on channel=0 note=92 velocity=23 time=0\n",
      "note_off channel=0 note=61 velocity=64 time=1\n",
      "note_off channel=0 note=68 velocity=64 time=0\n",
      "note_off channel=0 note=72 velocity=64 time=0\n",
      "note_on channel=0 note=90 velocity=43 time=0\n",
      "note_off channel=0 note=91 velocity=64 time=0\n",
      "note_off channel=0 note=53 velocity=64 time=1\n",
      "note_on channel=0 note=64 velocity=80 time=0\n",
      "note_off channel=0 note=65 velocity=64 time=0\n",
      "note_on channel=0 note=67 velocity=73 time=0\n",
      "note_on channel=0 note=73 velocity=55 time=0\n",
      "note_off channel=0 note=74 velocity=64 time=0\n",
      "note_on channel=0 note=80 velocity=39 time=0\n",
      "note_on channel=0 note=88 velocity=29 time=0\n",
      "note_off channel=0 note=89 velocity=64 time=0\n",
      "note_off channel=0 note=95 velocity=64 time=0\n",
      "note_on channel=0 note=45 velocity=76 time=1\n",
      "note_on channel=0 note=66 velocity=70 time=0\n",
      "note_on channel=0 note=89 velocity=22 time=0\n",
      "note_on channel=0 note=44 velocity=79 time=1\n",
      "note_off channel=0 note=45 velocity=64 time=0\n",
      "note_on channel=0 note=63 velocity=75 time=0\n",
      "note_off channel=0 note=64 velocity=64 time=0\n",
      "note_off channel=0 note=66 velocity=64 time=0\n",
      "note_off channel=0 note=67 velocity=64 time=0\n",
      "note_on channel=0 note=83 velocity=57 time=0\n",
      "note_off channel=0 note=88 velocity=64 time=0\n",
      "note_on channel=0 note=91 velocity=23 time=0\n",
      "note_on channel=0 note=53 velocity=59 time=1\n",
      "note_on channel=0 note=77 velocity=38 time=0\n",
      "note_on channel=0 note=81 velocity=46 time=0\n",
      "note_off channel=0 note=82 velocity=64 time=0\n",
      "note_off channel=0 note=90 velocity=64 time=0\n",
      "note_off channel=0 note=80 velocity=64 time=1\n",
      "note_on channel=0 note=84 velocity=56 time=0\n",
      "note_off channel=0 note=85 velocity=64 time=0\n",
      "note_off channel=0 note=92 velocity=64 time=0\n",
      "note_off channel=0 note=63 velocity=64 time=1\n",
      "note_on channel=0 note=72 velocity=54 time=0\n",
      "note_off channel=0 note=73 velocity=64 time=0\n",
      "note_off channel=0 note=78 velocity=64 time=0\n",
      "note_on channel=0 note=85 velocity=27 time=0\n",
      "note_off channel=0 note=89 velocity=64 time=0\n",
      "note_on channel=0 note=90 velocity=34 time=0\n",
      "note_on channel=0 note=92 velocity=16 time=0\n",
      "note_off channel=0 note=44 velocity=64 time=1\n",
      "note_on channel=0 note=47 velocity=66 time=0\n",
      "note_off channel=0 note=53 velocity=64 time=0\n",
      "note_on channel=0 note=61 velocity=70 time=0\n",
      "note_off channel=0 note=75 velocity=64 time=0\n",
      "note_on channel=0 note=76 velocity=37 time=0\n",
      "note_off channel=0 note=77 velocity=64 time=0\n",
      "note_on channel=0 note=80 velocity=84 time=0\n",
      "note_off channel=0 note=81 velocity=64 time=0\n",
      "note_on channel=0 note=82 velocity=50 time=0\n",
      "note_off channel=0 note=84 velocity=64 time=0\n",
      "note_on channel=0 note=86 velocity=48 time=0\n",
      "note_on channel=0 note=41 velocity=58 time=1\n",
      "note_on channel=0 note=52 velocity=60 time=0\n",
      "note_on channel=0 note=71 velocity=55 time=0\n",
      "note_off channel=0 note=72 velocity=64 time=0\n",
      "note_on channel=0 note=84 velocity=35 time=0\n",
      "note_on channel=0 note=87 velocity=22 time=0\n",
      "note_on channel=0 note=89 velocity=74 time=0\n",
      "note_off channel=0 note=91 velocity=64 time=0\n",
      "note_off channel=0 note=47 velocity=64 time=1\n",
      "note_off channel=0 note=85 velocity=64 time=0\n",
      "note_off channel=0 note=41 velocity=64 time=1\n",
      "note_on channel=0 note=43 velocity=62 time=0\n",
      "note_off channel=0 note=52 velocity=64 time=0\n",
      "note_on channel=0 note=75 velocity=28 time=0\n",
      "note_off channel=0 note=76 velocity=64 time=0\n",
      "note_on channel=0 note=77 velocity=32 time=0\n",
      "note_off channel=0 note=82 velocity=64 time=0\n",
      "note_on channel=0 note=85 velocity=53 time=0\n",
      "note_off channel=0 note=86 velocity=64 time=0\n",
      "note_on channel=0 note=91 velocity=28 time=0\n",
      "note_off channel=0 note=92 velocity=64 time=0\n",
      "note_on channel=0 note=52 velocity=62 time=1\n",
      "note_on channel=0 note=70 velocity=25 time=0\n",
      "note_off channel=0 note=71 velocity=64 time=0\n",
      "note_off channel=0 note=90 velocity=64 time=0\n",
      "note_on channel=0 note=88 velocity=35 time=1\n",
      "note_on channel=0 note=90 velocity=46 time=0\n",
      "note_on channel=0 note=42 velocity=55 time=1\n",
      "note_off channel=0 note=43 velocity=64 time=0\n",
      "note_off channel=0 note=87 velocity=64 time=0\n",
      "note_off channel=0 note=70 velocity=64 time=1\n",
      "note_on channel=0 note=71 velocity=27 time=0\n",
      "note_off channel=0 note=77 velocity=64 time=1\n",
      "note_on channel=0 note=87 velocity=43 time=0\n",
      "note_off channel=0 note=91 velocity=64 time=1\n",
      "note_off channel=0 note=42 velocity=64 time=1\n",
      "note_on channel=0 note=43 velocity=54 time=0\n",
      "note_on channel=0 note=70 velocity=31 time=0\n",
      "note_off channel=0 note=71 velocity=64 time=0\n",
      "note_off channel=0 note=75 velocity=64 time=0\n",
      "note_on channel=0 note=77 velocity=28 time=1\n",
      "note_off channel=0 note=85 velocity=64 time=0\n",
      "note_on channel=0 note=42 velocity=53 time=1\n",
      "note_off channel=0 note=43 velocity=64 time=0\n",
      "note_off channel=0 note=70 velocity=64 time=0\n",
      "note_on channel=0 note=71 velocity=29 time=0\n",
      "note_on channel=0 note=75 velocity=14 time=0\n",
      "note_off channel=0 note=52 velocity=64 time=2\n",
      "note_off channel=0 note=88 velocity=64 time=0\n",
      "note_on channel=0 note=52 velocity=37 time=1\n",
      "note_off channel=0 note=71 velocity=64 time=0\n",
      "note_off channel=0 note=84 velocity=64 time=0\n",
      "note_on channel=0 note=71 velocity=23 time=1\n",
      "note_off channel=0 note=52 velocity=64 time=2\n",
      "note_off channel=0 note=75 velocity=64 time=0\n",
      "note_off channel=0 note=42 velocity=64 time=1\n",
      "note_on channel=0 note=91 velocity=20 time=0\n",
      "note_off channel=0 note=71 velocity=64 time=1\n",
      "note_on channel=0 note=82 velocity=45 time=0\n",
      "note_off channel=0 note=93 velocity=64 time=0\n",
      "note_on channel=0 note=94 velocity=60 time=0\n",
      "note_on channel=0 note=66 velocity=65 time=1\n",
      "note_on channel=0 note=100 velocity=31 time=0\n",
      "note_on channel=0 note=75 velocity=48 time=1\n",
      "note_on channel=0 note=98 velocity=21 time=0\n",
      "note_on channel=0 note=46 velocity=70 time=1\n",
      "note_on channel=0 note=69 velocity=25 time=0\n",
      "note_off channel=0 note=77 velocity=64 time=0\n",
      "note_off channel=0 note=82 velocity=64 time=0\n",
      "note_off channel=0 note=90 velocity=64 time=0\n",
      "note_off channel=0 note=46 velocity=64 time=1\n",
      "note_on channel=0 note=47 velocity=84 time=0\n",
      "note_on channel=0 note=64 velocity=67 time=0\n",
      "note_off channel=0 note=66 velocity=64 time=0\n",
      "note_on channel=0 note=77 velocity=47 time=0\n",
      "note_off channel=0 note=47 velocity=64 time=1\n",
      "note_on channel=0 note=48 velocity=85 time=0\n",
      "note_on channel=0 note=67 velocity=48 time=0\n",
      "note_on channel=0 note=93 velocity=39 time=0\n",
      "note_off channel=0 note=61 velocity=64 time=1\n",
      "note_off channel=0 note=64 velocity=64 time=0\n",
      "note_on channel=0 note=72 velocity=47 time=0\n",
      "note_on channel=0 note=82 velocity=39 time=0\n",
      "note_off channel=0 note=83 velocity=64 time=0\n",
      "note_off channel=0 note=98 velocity=64 time=0\n",
      "note_off channel=0 note=100 velocity=64 time=0\n",
      "note_off channel=0 note=48 velocity=64 time=1\n",
      "note_on channel=0 note=61 velocity=43 time=0\n",
      "note_on channel=0 note=65 velocity=40 time=0\n",
      "note_off channel=0 note=69 velocity=64 time=0\n",
      "note_off channel=0 note=94 velocity=64 time=0\n",
      "note_off channel=0 note=67 velocity=64 time=1\n",
      "note_on channel=0 note=71 velocity=28 time=0\n",
      "note_off channel=0 note=72 velocity=64 time=0\n",
      "note_off channel=0 note=75 velocity=64 time=0\n",
      "note_off channel=0 note=61 velocity=64 time=1\n",
      "note_on channel=0 note=75 velocity=14 time=0\n",
      "note_on channel=0 note=83 velocity=35 time=0\n",
      "note_on channel=0 note=49 velocity=49 time=1\n",
      "note_off channel=0 note=82 velocity=64 time=0\n",
      "note_on channel=0 note=90 velocity=28 time=0\n",
      "note_on channel=0 note=82 velocity=38 time=1\n",
      "note_off channel=0 note=91 velocity=64 time=0\n",
      "note_off channel=0 note=49 velocity=64 time=1\n",
      "note_on channel=0 note=88 velocity=27 time=0\n",
      "note_off channel=0 note=89 velocity=64 time=0\n",
      "note_off channel=0 note=83 velocity=64 time=1\n",
      "note_on channel=0 note=83 velocity=36 time=1\n",
      "note_on channel=0 note=54 velocity=31 time=1\n",
      "note_off channel=0 note=82 velocity=64 time=0\n",
      "note_on channel=0 note=44 velocity=31 time=2\n",
      "note_off channel=0 note=87 velocity=64 time=0\n",
      "note_on channel=0 note=91 velocity=17 time=0\n",
      "note_on channel=0 note=61 velocity=22 time=1\n",
      "note_off channel=0 note=44 velocity=64 time=1\n",
      "note_off channel=0 note=54 velocity=64 time=0\n",
      "note_on channel=0 note=54 velocity=33 time=1\n",
      "note_off channel=0 note=91 velocity=64 time=2\n",
      "note_on channel=0 note=42 velocity=17 time=1\n",
      "note_off channel=0 note=54 velocity=64 time=1\n",
      "note_off channel=0 note=42 velocity=64 time=2\n",
      "note_on channel=0 note=82 velocity=29 time=1\n",
      "note_on channel=0 note=53 velocity=49 time=1\n",
      "note_off channel=0 note=75 velocity=64 time=0\n",
      "note_off channel=0 note=83 velocity=64 time=0\n",
      "note_on channel=0 note=87 velocity=46 time=0\n",
      "note_on channel=0 note=83 velocity=67 time=1\n",
      "note_on channel=0 note=67 velocity=61 time=1\n",
      "note_off channel=0 note=82 velocity=64 time=0\n",
      "note_on channel=0 note=91 velocity=66 time=0\n",
      "note_off channel=0 note=53 velocity=64 time=1\n",
      "note_on channel=0 note=54 velocity=66 time=0\n",
      "note_on channel=0 note=60 velocity=39 time=0\n",
      "note_off channel=0 note=61 velocity=64 time=0\n",
      "note_off channel=0 note=65 velocity=64 time=0\n",
      "note_on channel=0 note=69 velocity=43 time=1\n",
      "note_off channel=0 note=88 velocity=64 time=0\n",
      "note_on channel=0 note=89 velocity=84 time=0\n",
      "note_off channel=0 note=90 velocity=64 time=0\n",
      "note_on channel=0 note=102 velocity=43 time=0\n",
      "note_on channel=0 note=46 velocity=67 time=1\n",
      "note_off channel=0 note=54 velocity=64 time=0\n",
      "note_on channel=0 note=55 velocity=73 time=0\n",
      "note_off channel=0 note=60 velocity=64 time=0\n",
      "note_off channel=0 note=71 velocity=64 time=0\n",
      "note_on channel=0 note=84 velocity=48 time=0\n",
      "note_on channel=0 note=45 velocity=77 time=1\n",
      "note_off channel=0 note=46 velocity=64 time=0\n",
      "note_off channel=0 note=69 velocity=64 time=0\n",
      "note_on channel=0 note=75 velocity=71 time=0\n",
      "note_on channel=0 note=85 velocity=37 time=0\n",
      "note_on channel=0 note=44 velocity=77 time=1\n",
      "note_off channel=0 note=45 velocity=64 time=0\n",
      "note_off channel=0 note=67 velocity=64 time=0\n",
      "note_on channel=0 note=68 velocity=71 time=0\n",
      "note_on channel=0 note=86 velocity=29 time=0\n",
      "note_off channel=0 note=87 velocity=64 time=0\n",
      "note_on channel=0 note=94 velocity=50 time=0\n",
      "note_on channel=0 note=100 velocity=64 time=0\n",
      "note_on channel=0 note=73 velocity=32 time=1\n",
      "note_off channel=0 note=84 velocity=64 time=0\n",
      "note_off channel=0 note=93 velocity=64 time=0\n",
      "note_on channel=0 note=71 velocity=23 time=1\n",
      "note_off channel=0 note=86 velocity=64 time=0\n",
      "note_off channel=0 note=91 velocity=64 time=0\n",
      "note_on channel=0 note=103 velocity=45 time=0\n",
      "note_on channel=0 note=43 velocity=73 time=1\n",
      "note_off channel=0 note=44 velocity=64 time=0\n",
      "note_off channel=0 note=55 velocity=64 time=0\n",
      "note_on channel=0 note=56 velocity=67 time=0\n",
      "note_off channel=0 note=73 velocity=64 time=0\n",
      "note_on channel=0 note=96 velocity=32 time=0\n",
      "note_on channel=0 note=62 velocity=35 time=1\n",
      "note_off channel=0 note=102 velocity=64 time=1\n",
      "note_off channel=0 note=96 velocity=64 time=1\n",
      "note_on channel=0 note=102 velocity=43 time=0\n",
      "note_off channel=0 note=103 velocity=64 time=0\n",
      "note_on channel=0 note=86 velocity=42 time=1\n",
      "note_on channel=0 note=90 velocity=22 time=0\n",
      "note_on channel=0 note=91 velocity=39 time=0\n",
      "note_on channel=0 note=93 velocity=49 time=0\n",
      "note_off channel=0 note=94 velocity=64 time=0\n",
      "note_off channel=0 note=56 velocity=64 time=1\n",
      "note_off channel=0 note=68 velocity=64 time=0\n",
      "note_on channel=0 note=74 velocity=56 time=0\n",
      "note_off channel=0 note=85 velocity=64 time=0\n",
      "note_off channel=0 note=75 velocity=64 time=1\n",
      "note_on channel=0 note=79 velocity=68 time=0\n",
      "note_off channel=0 note=80 velocity=64 time=0\n",
      "note_off channel=0 note=43 velocity=64 time=1\n",
      "note_on channel=0 note=44 velocity=21 time=0\n",
      "note_off channel=0 note=62 velocity=64 time=0\n",
      "note_on channel=0 note=85 velocity=53 time=0\n",
      "note_on channel=0 note=87 velocity=51 time=0\n",
      "note_on channel=0 note=56 velocity=68 time=1\n",
      "note_off channel=0 note=79 velocity=64 time=0\n",
      "note_on channel=0 note=80 velocity=76 time=0\n",
      "note_off channel=0 note=86 velocity=64 time=0\n",
      "note_off channel=0 note=90 velocity=64 time=0\n",
      "note_off channel=0 note=74 velocity=64 time=1\n",
      "note_on channel=0 note=75 velocity=57 time=0\n",
      "note_off channel=0 note=91 velocity=64 time=0\n",
      "note_off channel=0 note=102 velocity=64 time=0\n",
      "note_off channel=0 note=71 velocity=64 time=1\n",
      "note_on channel=0 note=84 velocity=45 time=0\n",
      "note_on channel=0 note=88 velocity=50 time=0\n",
      "note_on channel=0 note=90 velocity=52 time=0\n",
      "note_off channel=0 note=44 velocity=64 time=1\n",
      "note_off channel=0 note=56 velocity=64 time=0\n",
      "note_on channel=0 note=69 velocity=46 time=0\n",
      "note_off channel=0 note=77 velocity=64 time=0\n",
      "note_off channel=0 note=89 velocity=64 time=0\n",
      "note_on channel=0 note=58 velocity=58 time=1\n",
      "note_on channel=0 note=77 velocity=60 time=0\n",
      "note_off channel=0 note=84 velocity=64 time=0\n",
      "note_off channel=0 note=90 velocity=64 time=0\n",
      "note_on channel=0 note=91 velocity=30 time=0\n",
      "note_off channel=0 note=100 velocity=64 time=0\n",
      "note_on channel=0 note=102 velocity=17 time=0\n",
      "note_on channel=0 note=68 velocity=27 time=1\n",
      "note_off channel=0 note=69 velocity=64 time=0\n",
      "note_on channel=0 note=71 velocity=32 time=0\n",
      "note_on channel=0 note=78 velocity=66 time=0\n",
      "note_off channel=0 note=88 velocity=64 time=0\n",
      "note_off channel=0 note=58 velocity=64 time=1\n",
      "note_on channel=0 note=59 velocity=60 time=0\n",
      "note_off channel=0 note=77 velocity=64 time=0\n",
      "note_on channel=0 note=88 velocity=38 time=0\n",
      "note_on channel=0 note=70 velocity=39 time=1\n",
      "note_off channel=0 note=71 velocity=64 time=0\n",
      "note_on channel=0 note=73 velocity=36 time=0\n",
      "note_off channel=0 note=91 velocity=64 time=0\n",
      "note_on channel=0 note=58 velocity=58 time=1\n",
      "note_off channel=0 note=59 velocity=64 time=0\n",
      "note_off channel=0 note=68 velocity=64 time=0\n",
      "note_off channel=0 note=75 velocity=64 time=0\n",
      "note_on channel=0 note=76 velocity=61 time=0\n",
      "note_off channel=0 note=102 velocity=64 time=0\n",
      "note_off channel=0 note=88 velocity=64 time=1\n",
      "note_on channel=0 note=89 velocity=55 time=0\n",
      "note_on channel=0 note=57 velocity=65 time=1\n",
      "note_off channel=0 note=58 velocity=64 time=0\n",
      "note_off channel=0 note=70 velocity=64 time=0\n",
      "note_off channel=0 note=78 velocity=64 time=0\n",
      "note_on channel=0 note=90 velocity=70 time=0\n",
      "note_off channel=0 note=89 velocity=64 time=1\n",
      "note_off channel=0 note=80 velocity=64 time=1\n",
      "note_on channel=0 note=89 velocity=35 time=0\n",
      "note_off channel=0 note=57 velocity=64 time=1\n",
      "note_on channel=0 note=77 velocity=41 time=0\n",
      "note_on channel=0 note=84 velocity=56 time=0\n",
      "note_off channel=0 note=76 velocity=64 time=1\n",
      "note_off channel=0 note=85 velocity=64 time=0\n",
      "note_on channel=0 note=48 velocity=63 time=1\n",
      "note_on channel=0 note=56 velocity=69 time=0\n",
      "note_on channel=0 note=64 velocity=82 time=0\n",
      "note_off channel=0 note=77 velocity=64 time=0\n",
      "note_on channel=0 note=80 velocity=51 time=0\n",
      "note_on channel=0 note=77 velocity=45 time=1\n",
      "note_off channel=0 note=89 velocity=64 time=0\n",
      "note_on channel=0 note=45 velocity=77 time=1\n",
      "note_off channel=0 note=48 velocity=64 time=0\n",
      "note_off channel=0 note=56 velocity=64 time=0\n",
      "note_on channel=0 note=68 velocity=67 time=0\n",
      "note_on channel=0 note=75 velocity=69 time=0\n",
      "note_on channel=0 note=89 velocity=60 time=0\n",
      "note_off channel=0 note=93 velocity=64 time=0\n",
      "note_on channel=0 note=56 velocity=73 time=1\n",
      "note_on channel=0 note=63 velocity=74 time=0\n",
      "note_off channel=0 note=64 velocity=64 time=0\n",
      "note_on channel=0 note=71 velocity=29 time=0\n",
      "note_on channel=0 note=44 velocity=78 time=1\n",
      "note_off channel=0 note=45 velocity=64 time=0\n",
      "note_off channel=0 note=83 velocity=64 time=0\n",
      "note_on channel=0 note=94 velocity=19 time=0\n",
      "note_off channel=0 note=71 velocity=64 time=1\n",
      "note_off channel=0 note=77 velocity=64 time=0\n",
      "note_off channel=0 note=90 velocity=64 time=0\n",
      "note_on channel=0 note=71 velocity=30 time=1\n",
      "note_on channel=0 note=77 velocity=36 time=0\n",
      "note_on channel=0 note=61 velocity=38 time=1\n",
      "note_off channel=0 note=63 velocity=64 time=0\n",
      "note_on channel=0 note=83 velocity=44 time=0\n",
      "note_on channel=0 note=90 velocity=75 time=0\n",
      "note_off channel=0 note=44 velocity=64 time=1\n",
      "note_on channel=0 note=81 velocity=35 time=0\n",
      "note_off channel=0 note=56 velocity=64 time=1\n",
      "note_on channel=0 note=57 velocity=65 time=0\n",
      "note_off channel=0 note=61 velocity=64 time=0\n",
      "note_on channel=0 note=65 velocity=33 time=0\n",
      "note_off channel=0 note=68 velocity=64 time=0\n",
      "note_off channel=0 note=80 velocity=64 time=0\n",
      "note_on channel=0 note=88 velocity=17 time=0\n",
      "note_off channel=0 note=89 velocity=64 time=0\n",
      "note_off channel=0 note=94 velocity=64 time=0\n",
      "note_on channel=0 note=43 velocity=60 time=1\n",
      "note_on channel=0 note=61 velocity=57 time=0\n",
      "note_off channel=0 note=71 velocity=64 time=0\n",
      "note_off channel=0 note=77 velocity=64 time=0\n",
      "note_off channel=0 note=84 velocity=64 time=0\n",
      "note_on channel=0 note=85 velocity=46 time=0\n",
      "note_on channel=0 note=71 velocity=49 time=1\n",
      "note_off channel=0 note=75 velocity=64 time=0\n",
      "note_on channel=0 note=76 velocity=60 time=0\n",
      "note_on channel=0 note=56 velocity=68 time=1\n",
      "note_off channel=0 note=57 velocity=64 time=0\n",
      "note_on channel=0 note=80 velocity=47 time=0\n",
      "note_off channel=0 note=81 velocity=64 time=0\n",
      "note_off channel=0 note=88 velocity=64 time=0\n",
      "note_off channel=0 note=43 velocity=64 time=1\n",
      "note_on channel=0 note=68 velocity=68 time=0\n",
      "note_on channel=0 note=77 velocity=46 time=0\n",
      "note_on channel=0 note=84 velocity=45 time=0\n",
      "note_on channel=0 note=92 velocity=63 time=0\n",
      "note_on channel=0 note=75 velocity=63 time=1\n",
      "note_off channel=0 note=76 velocity=64 time=0\n",
      "note_on channel=0 note=55 velocity=65 time=1\n",
      "note_off channel=0 note=56 velocity=64 time=0\n",
      "note_off channel=0 note=90 velocity=64 time=0\n",
      "note_on channel=0 note=91 velocity=67 time=0\n",
      "note_on channel=0 note=94 velocity=35 time=0\n",
      "note_off channel=0 note=65 velocity=64 time=1\n",
      "note_off channel=0 note=73 velocity=64 time=0\n",
      "note_off channel=0 note=83 velocity=64 time=0\n",
      "note_on channel=0 note=102 velocity=9 time=0\n",
      "note_on channel=0 note=48 velocity=69 time=1\n",
      "note_off channel=0 note=55 velocity=64 time=0\n",
      "note_on channel=0 note=83 velocity=50 time=0\n",
      "note_off channel=0 note=84 velocity=64 time=0\n",
      "note_off channel=0 note=92 velocity=64 time=0\n",
      "note_on channel=0 note=47 velocity=73 time=1\n",
      "note_off channel=0 note=48 velocity=64 time=0\n",
      "note_on channel=0 note=55 velocity=65 time=0\n",
      "note_off channel=0 note=91 velocity=64 time=0\n",
      "note_on channel=0 note=92 velocity=66 time=0\n",
      "note_off channel=0 note=47 velocity=64 time=1\n",
      "note_on channel=0 note=48 velocity=69 time=0\n",
      "note_off channel=0 note=75 velocity=64 time=0\n",
      "note_on channel=0 note=100 velocity=21 time=0\n",
      "note_off channel=0 note=102 velocity=64 time=0\n",
      "note_off channel=0 note=48 velocity=64 time=1\n",
      "note_on channel=0 note=49 velocity=68 time=0\n",
      "note_off channel=0 note=55 velocity=64 time=0\n",
      "note_on channel=0 note=65 velocity=35 time=0\n",
      "note_on channel=0 note=75 velocity=65 time=0\n",
      "note_on channel=0 note=84 velocity=38 time=0\n",
      "note_on channel=0 note=102 velocity=27 time=0\n",
      "note_off channel=0 note=49 velocity=64 time=1\n",
      "note_on channel=0 note=50 velocity=77 time=0\n",
      "note_on channel=0 note=90 velocity=37 time=0\n",
      "note_off channel=0 note=50 velocity=64 time=1\n",
      "note_on channel=0 note=55 velocity=76 time=0\n",
      "note_off channel=0 note=55 velocity=64 time=1\n",
      "note_on channel=0 note=56 velocity=61 time=0\n",
      "note_off channel=0 note=85 velocity=64 time=0\n",
      "note_on channel=0 note=55 velocity=71 time=2\n",
      "note_off channel=0 note=56 velocity=64 time=0\n",
      "note_off channel=0 note=65 velocity=64 time=0\n",
      "note_off channel=0 note=90 velocity=64 time=0\n",
      "note_off channel=0 note=102 velocity=64 time=0\n",
      "note_off channel=0 note=84 velocity=64 time=1\n",
      "note_off channel=0 note=100 velocity=64 time=0\n",
      "note_off channel=0 note=94 velocity=64 time=1\n",
      "note_off channel=0 note=55 velocity=64 time=2\n",
      "note_on channel=0 note=65 velocity=66 time=0\n",
      "note_off channel=0 note=75 velocity=64 time=0\n",
      "note_off channel=0 note=61 velocity=64 time=1\n",
      "note_on channel=0 note=79 velocity=45 time=0\n",
      "note_on channel=0 note=90 velocity=34 time=0\n",
      "note_on channel=0 note=45 velocity=77 time=1\n",
      "note_on channel=0 note=55 velocity=63 time=0\n",
      "note_on channel=0 note=64 velocity=81 time=0\n",
      "note_off channel=0 note=65 velocity=64 time=0\n",
      "note_on channel=0 note=67 velocity=68 time=0\n",
      "note_off channel=0 note=68 velocity=64 time=0\n",
      "note_off channel=0 note=80 velocity=64 time=0\n",
      "note_off channel=0 note=92 velocity=64 time=0\n",
      "note_off channel=0 note=79 velocity=64 time=1\n",
      "note_on channel=0 note=80 velocity=84 time=0\n",
      "note_on channel=0 note=93 velocity=19 time=0\n",
      "note_on channel=0 note=44 velocity=78 time=1\n",
      "note_off channel=0 note=45 velocity=64 time=0\n",
      "note_on channel=0 note=63 velocity=68 time=0\n",
      "note_off channel=0 note=64 velocity=64 time=0\n",
      "note_off channel=0 note=90 velocity=64 time=0\n",
      "note_off channel=0 note=55 velocity=64 time=1\n",
      "note_off channel=0 note=67 velocity=64 time=0\n",
      "note_on channel=0 note=68 velocity=76 time=0\n",
      "note_on channel=0 note=55 velocity=67 time=1\n",
      "note_off channel=0 note=63 velocity=64 time=0\n",
      "note_on channel=0 note=75 velocity=9 time=0\n",
      "note_off channel=0 note=44 velocity=64 time=1\n",
      "note_on channel=0 note=45 velocity=75 time=0\n",
      "note_off channel=0 note=87 velocity=64 time=0\n",
      "note_on channel=0 note=97 velocity=34 time=0\n",
      "note_on channel=0 note=100 velocity=51 time=0\n",
      "note_off channel=0 note=55 velocity=64 time=1\n",
      "note_on channel=0 note=56 velocity=66 time=0\n",
      "note_on channel=0 note=44 velocity=70 time=1\n",
      "note_off channel=0 note=45 velocity=64 time=0\n",
      "note_off channel=0 note=75 velocity=64 time=1\n",
      "note_on channel=0 note=87 velocity=45 time=0\n",
      "note_off channel=0 note=44 velocity=64 time=1\n",
      "note_on channel=0 note=61 velocity=61 time=0\n",
      "note_on channel=0 note=65 velocity=31 time=0\n",
      "note_on channel=0 note=42 velocity=59 time=1\n",
      "note_on channel=0 note=75 velocity=31 time=0\n",
      "note_on channel=0 note=96 velocity=11 time=1\n",
      "note_off channel=0 note=42 velocity=64 time=1\n",
      "note_off channel=0 note=77 velocity=64 time=1\n",
      "note_on channel=0 note=48 velocity=66 time=1\n",
      "note_off channel=0 note=56 velocity=64 time=0\n",
      "note_on channel=0 note=56 velocity=64 time=1\n",
      "note_on channel=0 note=47 velocity=72 time=1\n",
      "note_off channel=0 note=48 velocity=64 time=0\n",
      "note_off channel=0 note=65 velocity=64 time=0\n",
      "note_off channel=0 note=47 velocity=64 time=2\n",
      "note_on channel=0 note=48 velocity=68 time=0\n",
      "note_on channel=0 note=65 velocity=41 time=0\n",
      "note_off channel=0 note=96 velocity=64 time=0\n",
      "note_on channel=0 note=102 velocity=24 time=0\n",
      "note_off channel=0 note=48 velocity=64 time=1\n",
      "note_on channel=0 note=49 velocity=76 time=0\n",
      "note_off channel=0 note=49 velocity=64 time=1\n",
      "note_on channel=0 note=52 velocity=77 time=0\n",
      "note_off channel=0 note=56 velocity=64 time=0\n",
      "note_off channel=0 note=75 velocity=64 time=0\n",
      "note_on channel=0 note=84 velocity=11 time=0\n",
      "note_off channel=0 note=93 velocity=64 time=0\n",
      "note_off channel=0 note=52 velocity=64 time=1\n",
      "note_on channel=0 note=75 velocity=44 time=0\n",
      "note_on channel=0 note=55 velocity=66 time=2\n",
      "note_off channel=0 note=84 velocity=64 time=1\n",
      "note_on channel=0 note=101 velocity=31 time=0\n",
      "note_off channel=0 note=102 velocity=64 time=0\n",
      "note_off channel=0 note=55 velocity=64 time=1\n",
      "note_off channel=0 note=61 velocity=64 time=1\n",
      "note_on channel=0 note=84 velocity=37 time=0\n",
      "note_on channel=0 note=55 velocity=55 time=1\n",
      "note_on channel=0 note=82 velocity=37 time=1\n",
      "note_off channel=0 note=83 velocity=64 time=0\n",
      "note_on channel=0 note=89 velocity=70 time=0\n",
      "note_off channel=0 note=101 velocity=64 time=0\n",
      "note_on channel=0 note=102 velocity=30 time=0\n",
      "note_on channel=0 note=48 velocity=88 time=1\n",
      "note_off channel=0 note=55 velocity=64 time=0\n",
      "note_off channel=0 note=65 velocity=64 time=0\n",
      "note_on channel=0 note=73 velocity=34 time=0\n",
      "note_off channel=0 note=75 velocity=64 time=0\n",
      "note_on channel=0 note=76 velocity=48 time=0\n",
      "note_on channel=0 note=78 velocity=40 time=0\n",
      "note_on channel=0 note=85 velocity=34 time=0\n",
      "note_on channel=0 note=95 velocity=43 time=0\n",
      "note_on channel=0 note=63 velocity=54 time=1\n",
      "note_on channel=0 note=56 velocity=47 time=1\n",
      "note_off channel=0 note=76 velocity=64 time=0\n",
      "note_on channel=0 note=77 velocity=20 time=0\n",
      "note_off channel=0 note=82 velocity=64 time=0\n",
      "note_on channel=0 note=46 velocity=68 time=1\n",
      "note_off channel=0 note=48 velocity=64 time=0\n",
      "note_on channel=0 note=65 velocity=47 time=0\n",
      "note_off channel=0 note=78 velocity=64 time=0\n",
      "note_off channel=0 note=87 velocity=64 time=0\n",
      "note_off channel=0 note=63 velocity=64 time=1\n",
      "note_off channel=0 note=95 velocity=64 time=0\n",
      "note_off channel=0 note=46 velocity=64 time=1\n",
      "note_on channel=0 note=48 velocity=68 time=0\n",
      "note_on channel=0 note=45 velocity=59 time=2\n",
      "note_off channel=0 note=48 velocity=64 time=0\n",
      "note_on channel=0 note=75 velocity=48 time=0\n",
      "note_off channel=0 note=89 velocity=64 time=2\n",
      "note_on channel=0 note=44 velocity=50 time=2\n",
      "note_off channel=0 note=45 velocity=64 time=0\n",
      "note_on channel=0 note=55 velocity=45 time=1\n",
      "note_off channel=0 note=56 velocity=64 time=0\n",
      "note_off channel=0 note=85 velocity=64 time=0\n",
      "note_on channel=0 note=94 velocity=22 time=1\n",
      "note_off channel=0 note=97 velocity=64 time=0\n",
      "note_off channel=0 note=55 velocity=64 time=1\n",
      "note_off channel=0 note=77 velocity=64 time=0\n",
      "note_on channel=0 note=43 velocity=32 time=1\n",
      "note_off channel=0 note=44 velocity=64 time=0\n",
      "note_on channel=0 note=97 velocity=31 time=0\n",
      "note_on channel=0 note=101 velocity=27 time=0\n",
      "note_off channel=0 note=102 velocity=64 time=0\n",
      "note_on channel=0 note=56 velocity=48 time=2\n",
      "note_off channel=0 note=84 velocity=64 time=2\n",
      "note_off channel=0 note=56 velocity=64 time=1\n",
      "note_off channel=0 note=43 velocity=64 time=1\n",
      "note_on channel=0 note=56 velocity=50 time=0\n",
      "note_on channel=0 note=61 velocity=13 time=2\n",
      "note_off channel=0 note=101 velocity=64 time=0\n",
      "note_on channel=0 note=43 velocity=26 time=2\n",
      "note_on channel=0 note=101 velocity=21 time=0\n",
      "note_off channel=0 note=80 velocity=64 time=1\n",
      "note_off channel=0 note=56 velocity=64 time=1\n",
      "note_on channel=0 note=80 velocity=81 time=0\n",
      "note_off channel=0 note=43 velocity=64 time=1\n",
      "note_off channel=0 note=61 velocity=64 time=0\n",
      "note_off channel=0 note=73 velocity=64 time=0\n",
      "note_on channel=0 note=84 velocity=46 time=0\n",
      "note_on channel=0 note=89 velocity=70 time=0\n",
      "note_on channel=0 note=93 velocity=17 time=0\n",
      "note_on channel=0 note=62 velocity=52 time=1\n",
      "note_off channel=0 note=65 velocity=64 time=0\n",
      "note_on channel=0 note=91 velocity=34 time=0\n",
      "note_off channel=0 note=94 velocity=64 time=0\n",
      "note_on channel=0 note=95 velocity=45 time=0\n",
      "note_on channel=0 note=102 velocity=27 time=0\n",
      "note_on channel=0 note=45 velocity=77 time=1\n",
      "note_on channel=0 note=56 velocity=58 time=0\n",
      "note_off channel=0 note=75 velocity=64 time=0\n",
      "note_on channel=0 note=77 velocity=40 time=0\n",
      "note_on channel=0 note=85 velocity=32 time=0\n",
      "note_on channel=0 note=90 velocity=26 time=0\n",
      "note_off channel=0 note=62 velocity=64 time=1\n",
      "note_on channel=0 note=63 velocity=42 time=0\n",
      "note_off channel=0 note=71 velocity=64 time=0\n",
      "note_on channel=0 note=73 velocity=41 time=0\n",
      "note_on channel=0 note=82 velocity=32 time=0\n",
      "note_off channel=0 note=93 velocity=64 time=0\n",
      "note_off channel=0 note=101 velocity=64 time=0\n",
      "note_on channel=0 note=44 velocity=78 time=1\n",
      "note_off channel=0 note=45 velocity=64 time=0\n",
      "note_on channel=0 note=78 velocity=23 time=0\n",
      "note_off channel=0 note=63 velocity=64 time=1\n",
      "note_on channel=0 note=65 velocity=68 time=0\n",
      "note_on channel=0 note=71 velocity=38 time=0\n",
      "note_on channel=0 note=75 velocity=42 time=0\n",
      "note_off channel=0 note=77 velocity=64 time=0\n",
      "note_off channel=0 note=95 velocity=64 time=0\n",
      "note_on channel=0 note=62 velocity=36 time=1\n",
      "note_on channel=0 note=43 velocity=72 time=1\n",
      "note_off channel=0 note=44 velocity=64 time=0\n",
      "note_off channel=0 note=90 velocity=64 time=1\n",
      "note_on channel=0 note=61 velocity=35 time=1\n",
      "note_off channel=0 note=62 velocity=64 time=0\n",
      "note_off channel=0 note=82 velocity=64 time=0\n",
      "note_off channel=0 note=84 velocity=64 time=0\n",
      "note_off channel=0 note=97 velocity=64 time=0\n",
      "note_off channel=0 note=61 velocity=64 time=3\n",
      "note_off channel=0 note=78 velocity=64 time=0\n",
      "note_on channel=0 note=90 velocity=15 time=0\n",
      "note_off channel=0 note=43 velocity=64 time=1\n",
      "note_on channel=0 note=44 velocity=30 time=0\n",
      "note_on channel=0 note=78 velocity=17 time=0\n",
      "note_off channel=0 note=85 velocity=64 time=0\n",
      "note_on channel=0 note=98 velocity=22 time=1\n",
      "note_off channel=0 note=90 velocity=64 time=1\n",
      "note_off channel=0 note=44 velocity=64 time=2\n",
      "note_on channel=0 note=84 velocity=29 time=0\n",
      "note_on channel=0 note=97 velocity=25 time=0\n",
      "note_off channel=0 note=98 velocity=64 time=0\n",
      "note_on channel=0 note=86 velocity=21 time=2\n",
      "note_on channel=0 note=61 velocity=13 time=1\n",
      "note_off channel=0 note=97 velocity=64 time=0\n",
      "note_off channel=0 note=61 velocity=64 time=3\n",
      "note_off channel=0 note=71 velocity=64 time=0\n",
      "note_on channel=0 note=61 velocity=23 time=1\n",
      "note_off channel=0 note=78 velocity=64 time=1\n",
      "note_on channel=0 note=97 velocity=12 time=0\n",
      "note_on channel=0 note=82 velocity=37 time=1\n",
      "note_off channel=0 note=84 velocity=64 time=1\n",
      "note_off channel=0 note=61 velocity=64 time=3\n",
      "note_on channel=0 note=90 velocity=35 time=0\n",
      "note_on channel=0 note=45 velocity=78 time=1\n",
      "note_off channel=0 note=56 velocity=64 time=0\n",
      "note_on channel=0 note=64 velocity=82 time=0\n",
      "note_off channel=0 note=65 velocity=64 time=0\n",
      "note_off channel=0 note=75 velocity=64 time=0\n",
      "note_on channel=0 note=87 velocity=37 time=0\n",
      "note_off channel=0 note=91 velocity=64 time=0\n",
      "note_on channel=0 note=75 velocity=36 time=1\n",
      "note_on channel=0 note=84 velocity=26 time=0\n",
      "note_off channel=0 note=86 velocity=64 time=0\n",
      "note_on channel=0 note=44 velocity=79 time=1\n",
      "note_off channel=0 note=45 velocity=64 time=0\n",
      "note_on channel=0 note=63 velocity=71 time=0\n",
      "note_off channel=0 note=64 velocity=64 time=0\n",
      "note_on channel=0 note=91 velocity=27 time=0\n",
      "note_off channel=0 note=90 velocity=64 time=1\n",
      "note_off channel=0 note=63 velocity=64 time=1\n",
      "note_off channel=0 note=97 velocity=64 time=0\n",
      "note_off channel=0 note=102 velocity=64 time=0\n",
      "note_on channel=0 note=65 velocity=57 time=1\n",
      "note_off channel=0 note=91 velocity=64 time=0\n",
      "note_off channel=0 note=44 velocity=64 time=1\n",
      "note_on channel=0 note=71 velocity=12 time=0\n",
      "note_on channel=0 note=91 velocity=26 time=0\n",
      "note_on channel=0 note=102 velocity=31 time=0\n",
      "note_off channel=0 note=100 velocity=64 time=1\n",
      "note_on channel=0 note=62 velocity=53 time=1\n",
      "note_on channel=0 note=43 velocity=61 time=1\n",
      "note_off channel=0 note=91 velocity=64 time=1\n",
      "note_on channel=0 note=42 velocity=53 time=1\n",
      "note_off channel=0 note=43 velocity=64 time=0\n",
      "note_on channel=0 note=61 velocity=56 time=1\n",
      "note_off channel=0 note=62 velocity=64 time=0\n",
      "note_on channel=0 note=90 velocity=40 time=0\n",
      "note_on channel=0 note=100 velocity=30 time=0\n",
      "note_off channel=0 note=42 velocity=64 time=1\n",
      "note_off channel=0 note=71 velocity=64 time=0\n",
      "note_off channel=0 note=89 velocity=64 time=0\n",
      "note_on channel=0 note=71 velocity=11 time=1\n",
      "note_off channel=0 note=73 velocity=64 time=0\n",
      "note_on channel=0 note=48 velocity=72 time=1\n",
      "note_on channel=0 note=91 velocity=27 time=0\n",
      "note_on channel=0 note=56 velocity=37 time=1\n",
      "note_on channel=0 note=88 velocity=26 time=0\n",
      "note_off channel=0 note=56 velocity=64 time=2\n",
      "note_off channel=0 note=61 velocity=64 time=0\n",
      "note_on channel=0 note=62 velocity=41 time=0\n",
      "note_on channel=0 note=83 velocity=25 time=0\n",
      "note_off channel=0 note=48 velocity=64 time=1\n",
      "note_on channel=0 note=49 velocity=78 time=0\n",
      "note_off channel=0 note=82 velocity=64 time=0\n",
      "note_off channel=0 note=88 velocity=64 time=0\n",
      "note_on channel=0 note=89 velocity=56 time=0\n",
      "note_off channel=0 note=91 velocity=64 time=0\n",
      "note_off channel=0 note=49 velocity=64 time=1\n",
      "note_on channel=0 note=52 velocity=75 time=0\n",
      "note_on channel=0 note=61 velocity=39 time=0\n",
      "note_off channel=0 note=62 velocity=64 time=0\n",
      "note_on channel=0 note=91 velocity=28 time=0\n",
      "note_off channel=0 note=102 velocity=64 time=0\n",
      "note_off channel=0 note=52 velocity=64 time=1\n",
      "note_on channel=0 note=54 velocity=67 time=0\n",
      "note_off channel=0 note=54 velocity=64 time=1\n",
      "note_on channel=0 note=78 velocity=23 time=0\n",
      "note_off channel=0 note=61 velocity=64 time=1\n",
      "note_on channel=0 note=82 velocity=27 time=0\n",
      "note_off channel=0 note=83 velocity=64 time=1\n",
      "note_on channel=0 note=61 velocity=11 time=1\n",
      "note_on channel=0 note=56 velocity=44 time=1\n",
      "note_on channel=0 note=86 velocity=17 time=1\n",
      "note_on channel=0 note=93 velocity=32 time=0\n",
      "note_off channel=0 note=56 velocity=64 time=1\n",
      "note_off channel=0 note=61 velocity=64 time=0\n"
     ]
    },
    {
     "name": "stdout",
     "output_type": "stream",
     "text": [
      "note_off channel=0 note=68 velocity=64 time=0\n",
      "note_off channel=0 note=71 velocity=64 time=0\n",
      "note_off channel=0 note=78 velocity=64 time=0\n",
      "note_on channel=0 note=56 velocity=58 time=1\n",
      "note_on channel=0 note=64 velocity=81 time=0\n",
      "note_off channel=0 note=65 velocity=64 time=0\n",
      "note_off channel=0 note=82 velocity=64 time=0\n",
      "note_off channel=0 note=84 velocity=64 time=0\n",
      "note_on channel=0 note=45 velocity=76 time=1\n",
      "note_on channel=0 note=67 velocity=55 time=0\n",
      "note_on channel=0 note=82 velocity=47 time=0\n",
      "note_on channel=0 note=84 velocity=21 time=0\n",
      "note_off channel=0 note=91 velocity=64 time=0\n",
      "note_on channel=0 note=44 velocity=79 time=1\n",
      "note_off channel=0 note=45 velocity=64 time=0\n",
      "note_on channel=0 note=63 velocity=72 time=0\n",
      "note_off channel=0 note=64 velocity=64 time=0\n",
      "note_on channel=0 note=85 velocity=23 time=0\n",
      "note_on channel=0 note=91 velocity=22 time=0\n",
      "note_off channel=0 note=56 velocity=64 time=1\n",
      "note_on channel=0 note=73 velocity=35 time=0\n",
      "note_on channel=0 note=78 velocity=18 time=0\n",
      "note_off channel=0 note=86 velocity=64 time=0\n",
      "note_off channel=0 note=67 velocity=64 time=1\n",
      "note_on channel=0 note=68 velocity=52 time=0\n",
      "note_on channel=0 note=77 velocity=28 time=1\n",
      "note_off channel=0 note=44 velocity=64 time=1\n",
      "note_on channel=0 note=61 velocity=60 time=0\n",
      "note_off channel=0 note=63 velocity=64 time=0\n",
      "note_on channel=0 note=71 velocity=32 time=0\n",
      "note_off channel=0 note=78 velocity=64 time=0\n",
      "note_on channel=0 note=41 velocity=57 time=1\n",
      "note_on channel=0 note=56 velocity=44 time=0\n",
      "note_off channel=0 note=41 velocity=64 time=2\n",
      "note_on channel=0 note=43 velocity=62 time=0\n",
      "note_on channel=0 note=95 velocity=23 time=0\n",
      "note_off channel=0 note=91 velocity=64 time=1\n",
      "note_on channel=0 note=42 velocity=56 time=1\n",
      "note_off channel=0 note=43 velocity=64 time=0\n",
      "note_off channel=0 note=84 velocity=64 time=1\n",
      "note_off channel=0 note=42 velocity=64 time=2\n",
      "note_off channel=0 note=56 velocity=64 time=0\n",
      "note_off channel=0 note=100 velocity=64 time=0\n",
      "note_on channel=0 note=48 velocity=70 time=1\n",
      "note_on channel=0 note=84 velocity=23 time=0\n",
      "note_off channel=0 note=75 velocity=64 time=1\n",
      "note_on channel=0 note=47 velocity=74 time=1\n",
      "note_off channel=0 note=48 velocity=64 time=0\n",
      "note_on channel=0 note=55 velocity=44 time=0\n",
      "note_on channel=0 note=75 velocity=25 time=0\n",
      "note_off channel=0 note=47 velocity=64 time=1\n",
      "note_on channel=0 note=48 velocity=71 time=0\n",
      "note_on channel=0 note=65 velocity=54 time=0\n",
      "note_off channel=0 note=48 velocity=64 time=1\n",
      "note_on channel=0 note=49 velocity=74 time=0\n",
      "note_off channel=0 note=55 velocity=64 time=0\n",
      "note_off channel=0 note=80 velocity=64 time=0\n",
      "note_off channel=0 note=87 velocity=64 time=0\n",
      "note_off channel=0 note=49 velocity=64 time=1\n",
      "note_on channel=0 note=50 velocity=75 time=0\n",
      "note_off channel=0 note=89 velocity=64 time=0\n",
      "note_off channel=0 note=50 velocity=64 time=1\n",
      "note_on channel=0 note=53 velocity=69 time=0\n",
      "note_off channel=0 note=85 velocity=64 time=0\n",
      "note_on channel=0 note=80 velocity=88 time=1\n",
      "note_on channel=0 note=89 velocity=71 time=0\n",
      "note_off channel=0 note=53 velocity=64 time=1\n",
      "note_on channel=0 note=54 velocity=57 time=0\n",
      "note_off channel=0 note=68 velocity=64 time=0\n",
      "note_on channel=0 note=53 velocity=56 time=2\n",
      "note_off channel=0 note=54 velocity=64 time=0\n",
      "note_on channel=0 note=86 velocity=24 time=1\n",
      "note_off channel=0 note=61 velocity=64 time=1\n",
      "note_off channel=0 note=77 velocity=64 time=0\n",
      "note_on channel=0 note=91 velocity=24 time=0\n",
      "note_on channel=0 note=85 velocity=41 time=1\n",
      "note_on channel=0 note=87 velocity=47 time=0\n",
      "note_on channel=0 note=48 velocity=88 time=1\n",
      "note_off channel=0 note=53 velocity=64 time=0\n",
      "note_off channel=0 note=73 velocity=64 time=0\n",
      "note_on channel=0 note=74 velocity=38 time=0\n",
      "note_off channel=0 note=75 velocity=64 time=0\n",
      "note_on channel=0 note=76 velocity=42 time=0\n",
      "note_off channel=0 note=84 velocity=64 time=0\n",
      "note_off channel=0 note=86 velocity=64 time=0\n",
      "note_off channel=0 note=90 velocity=64 time=0\n",
      "note_off channel=0 note=95 velocity=64 time=0\n",
      "note_on channel=0 note=102 velocity=20 time=0\n",
      "note_off channel=0 note=65 velocity=64 time=1\n",
      "note_off channel=0 note=71 velocity=64 time=0\n",
      "note_on channel=0 note=73 velocity=34 time=0\n",
      "note_on channel=0 note=95 velocity=37 time=0\n",
      "note_on channel=0 note=63 velocity=48 time=1\n",
      "note_on channel=0 note=67 velocity=37 time=0\n",
      "note_on channel=0 note=71 velocity=29 time=0\n",
      "note_off channel=0 note=74 velocity=64 time=0\n",
      "note_on channel=0 note=90 velocity=30 time=0\n",
      "note_off channel=0 note=91 velocity=64 time=0\n",
      "note_off channel=0 note=76 velocity=64 time=1\n",
      "note_off channel=0 note=82 velocity=64 time=0\n",
      "note_on channel=0 note=83 velocity=34 time=0\n",
      "note_on channel=0 note=84 velocity=47 time=0\n",
      "note_off channel=0 note=102 velocity=64 time=0\n",
      "note_off channel=0 note=48 velocity=64 time=1\n",
      "note_on channel=0 note=65 velocity=50 time=0\n",
      "note_off channel=0 note=67 velocity=64 time=0\n",
      "note_on channel=0 note=68 velocity=33 time=0\n",
      "note_on channel=0 note=82 velocity=38 time=0\n",
      "note_off channel=0 note=90 velocity=64 time=0\n",
      "note_on channel=0 note=91 velocity=29 time=0\n",
      "note_on channel=0 note=45 velocity=67 time=1\n",
      "note_off channel=0 note=63 velocity=64 time=0\n",
      "note_off channel=0 note=83 velocity=64 time=0\n",
      "note_off channel=0 note=45 velocity=64 time=1\n",
      "note_on channel=0 note=48 velocity=66 time=0\n",
      "note_on channel=0 note=75 velocity=13 time=0\n",
      "note_off channel=0 note=48 velocity=64 time=1\n",
      "note_on channel=0 note=61 velocity=17 time=0\n",
      "note_on channel=0 note=45 velocity=62 time=1\n",
      "note_on channel=0 note=90 velocity=36 time=0\n",
      "note_off channel=0 note=91 velocity=64 time=0\n",
      "note_off channel=0 note=95 velocity=64 time=0\n",
      "note_on channel=0 note=91 velocity=29 time=1\n",
      "note_on channel=0 note=54 velocity=33 time=1\n",
      "note_off channel=0 note=61 velocity=64 time=0\n",
      "note_on channel=0 note=44 velocity=50 time=1\n",
      "note_off channel=0 note=45 velocity=64 time=0\n",
      "note_off channel=0 note=85 velocity=64 time=1\n",
      "note_off channel=0 note=44 velocity=64 time=1\n",
      "note_on channel=0 note=61 velocity=21 time=0\n",
      "note_off channel=0 note=91 velocity=64 time=0\n",
      "note_on channel=0 note=44 velocity=46 time=1\n",
      "note_off channel=0 note=75 velocity=64 time=0\n",
      "note_on channel=0 note=83 velocity=52 time=0\n",
      "note_off channel=0 note=82 velocity=64 time=1\n",
      "note_on channel=0 note=43 velocity=34 time=1\n",
      "note_off channel=0 note=44 velocity=64 time=0\n",
      "note_off channel=0 note=71 velocity=64 time=0\n",
      "note_on channel=0 note=53 velocity=33 time=1\n",
      "note_off channel=0 note=54 velocity=64 time=0\n",
      "note_on channel=0 note=71 velocity=14 time=0\n",
      "note_off channel=0 note=53 velocity=64 time=2\n",
      "note_on channel=0 note=54 velocity=29 time=0\n",
      "note_off channel=0 note=43 velocity=64 time=1\n",
      "note_on channel=0 note=43 velocity=20 time=1\n",
      "note_on channel=0 note=53 velocity=31 time=0\n",
      "note_off channel=0 note=54 velocity=64 time=0\n",
      "note_off channel=0 note=89 velocity=64 time=0\n",
      "note_off channel=0 note=53 velocity=64 time=2\n",
      "note_on channel=0 note=89 velocity=73 time=0\n",
      "note_off channel=0 note=43 velocity=64 time=1\n",
      "note_off channel=0 note=61 velocity=64 time=0\n",
      "note_on channel=0 note=91 velocity=32 time=1\n",
      "note_off channel=0 note=68 velocity=64 time=1\n",
      "note_off channel=0 note=71 velocity=64 time=2\n",
      "note_on channel=0 note=75 velocity=38 time=0\n",
      "note_on channel=0 note=61 velocity=55 time=1\n",
      "note_off channel=0 note=91 velocity=64 time=0\n",
      "note_on channel=0 note=94 velocity=37 time=0\n",
      "note_on channel=0 note=46 velocity=69 time=1\n",
      "note_off channel=0 note=65 velocity=64 time=0\n",
      "note_on channel=0 note=69 velocity=45 time=0\n",
      "note_off channel=0 note=73 velocity=64 time=0\n",
      "note_off channel=0 note=75 velocity=64 time=0\n",
      "note_off channel=0 note=90 velocity=64 time=0\n",
      "note_on channel=0 note=91 velocity=38 time=0\n",
      "note_on channel=0 note=45 velocity=76 time=1\n",
      "note_off channel=0 note=46 velocity=64 time=0\n",
      "note_on channel=0 note=56 velocity=36 time=0\n",
      "note_off channel=0 note=61 velocity=64 time=0\n",
      "note_on channel=0 note=67 velocity=47 time=0\n",
      "note_on channel=0 note=75 velocity=43 time=0\n",
      "note_on channel=0 note=85 velocity=36 time=0\n",
      "note_off channel=0 note=94 velocity=64 time=0\n",
      "note_on channel=0 note=44 velocity=77 time=1\n",
      "note_off channel=0 note=45 velocity=64 time=0\n",
      "note_on channel=0 note=63 velocity=38 time=0\n",
      "note_on channel=0 note=73 velocity=21 time=0\n",
      "note_on channel=0 note=88 velocity=36 time=0\n",
      "note_on channel=0 note=90 velocity=35 time=0\n",
      "note_off channel=0 note=56 velocity=64 time=1\n",
      "note_on channel=0 note=62 velocity=34 time=1\n",
      "note_off channel=0 note=63 velocity=64 time=0\n",
      "note_off channel=0 note=69 velocity=64 time=0\n",
      "note_off channel=0 note=88 velocity=64 time=0\n",
      "note_off channel=0 note=90 velocity=64 time=0\n",
      "note_on channel=0 note=43 velocity=73 time=1\n",
      "note_off channel=0 note=44 velocity=64 time=0\n",
      "note_on channel=0 note=71 velocity=53 time=0\n",
      "note_on channel=0 note=90 velocity=49 time=0\n",
      "note_off channel=0 note=75 velocity=64 time=1\n",
      "note_on channel=0 note=54 velocity=21 time=1\n",
      "note_off channel=0 note=84 velocity=64 time=0\n",
      "note_off channel=0 note=62 velocity=64 time=1\n",
      "note_off channel=0 note=67 velocity=64 time=0\n",
      "note_on channel=0 note=82 velocity=32 time=1\n",
      "note_off channel=0 note=54 velocity=64 time=1\n",
      "note_on channel=0 note=61 velocity=56 time=1\n",
      "note_off channel=0 note=83 velocity=64 time=0\n",
      "note_off channel=0 note=43 velocity=64 time=1\n",
      "note_on channel=0 note=44 velocity=28 time=0\n",
      "note_off channel=0 note=85 velocity=64 time=2\n",
      "note_off channel=0 note=44 velocity=64 time=2\n",
      "note_on channel=0 note=65 velocity=15 time=0\n",
      "note_off channel=0 note=82 velocity=64 time=1\n",
      "note_on channel=0 note=75 velocity=35 time=2\n",
      "note_on channel=0 note=84 velocity=47 time=3\n",
      "note_off channel=0 note=91 velocity=64 time=0\n",
      "note_on channel=0 note=88 velocity=24 time=1\n",
      "note_off channel=0 note=89 velocity=64 time=1\n",
      "note_on channel=0 note=68 velocity=53 time=2\n",
      "note_off channel=0 note=73 velocity=64 time=0\n",
      "note_off channel=0 note=65 velocity=64 time=2\n",
      "note_on channel=0 note=82 velocity=63 time=0\n",
      "note_on channel=0 note=91 velocity=29 time=0\n",
      "note_on channel=0 note=57 velocity=51 time=1\n",
      "note_off channel=0 note=61 velocity=64 time=0\n",
      "note_on channel=0 note=62 velocity=85 time=0\n",
      "note_off channel=0 note=75 velocity=64 time=0\n",
      "note_on channel=0 note=78 velocity=32 time=0\n",
      "note_off channel=0 note=88 velocity=64 time=0\n",
      "note_off channel=0 note=62 velocity=64 time=1\n",
      "note_on channel=0 note=63 velocity=94 time=0\n",
      "note_off channel=0 note=68 velocity=64 time=0\n",
      "note_on channel=0 note=85 velocity=24 time=0\n",
      "note_on channel=0 note=88 velocity=18 time=0\n",
      "note_on channel=0 note=89 velocity=33 time=0\n",
      "note_on channel=0 note=68 velocity=30 time=1\n",
      "note_off channel=0 note=78 velocity=64 time=0\n",
      "note_off channel=0 note=87 velocity=64 time=0\n",
      "note_off channel=0 note=57 velocity=64 time=1\n",
      "note_on channel=0 note=77 velocity=43 time=0\n",
      "note_off channel=0 note=82 velocity=64 time=0\n",
      "note_off channel=0 note=84 velocity=64 time=0\n",
      "note_off channel=0 note=88 velocity=64 time=1\n",
      "note_off channel=0 note=91 velocity=64 time=0\n",
      "note_on channel=0 note=88 velocity=22 time=1\n",
      "note_off channel=0 note=89 velocity=64 time=0\n",
      "note_on channel=0 note=91 velocity=12 time=0\n",
      "note_off channel=0 note=88 velocity=64 time=3\n",
      "note_on channel=0 note=73 velocity=14 time=1\n",
      "note_off channel=0 note=91 velocity=64 time=0\n",
      "note_on channel=0 note=91 velocity=14 time=1\n",
      "note_off channel=0 note=85 velocity=64 time=1\n",
      "note_off channel=0 note=91 velocity=64 time=3\n",
      "note_on channel=0 note=87 velocity=9 time=3\n",
      "note_off channel=0 note=73 velocity=64 time=1\n",
      "note_on channel=0 note=82 velocity=25 time=0\n",
      "note_on channel=0 note=83 velocity=68 time=2\n",
      "note_off channel=0 note=82 velocity=64 time=1\n",
      "note_on channel=0 note=85 velocity=32 time=1\n",
      "note_off channel=0 note=87 velocity=64 time=0\n",
      "note_on channel=0 note=89 velocity=47 time=3\n",
      "note_on channel=0 note=74 velocity=44 time=3\n",
      "note_off channel=0 note=68 velocity=64 time=1\n",
      "note_on channel=0 note=78 velocity=33 time=0\n",
      "note_on channel=0 note=87 velocity=39 time=0\n",
      "note_off channel=0 note=90 velocity=64 time=0\n",
      "note_on channel=0 note=57 velocity=54 time=1\n",
      "note_on channel=0 note=62 velocity=79 time=0\n",
      "note_off channel=0 note=63 velocity=64 time=0\n",
      "note_off channel=0 note=74 velocity=64 time=1\n",
      "note_on channel=0 note=75 velocity=35 time=0\n",
      "note_off channel=0 note=62 velocity=64 time=1\n",
      "note_on channel=0 note=63 velocity=86 time=0\n",
      "note_on channel=0 note=68 velocity=27 time=0\n",
      "note_off channel=0 note=71 velocity=64 time=0\n",
      "note_off channel=0 note=78 velocity=64 time=0\n",
      "note_off channel=0 note=57 velocity=64 time=1\n",
      "note_on channel=0 note=71 velocity=29 time=0\n",
      "note_on channel=0 note=82 velocity=30 time=0\n",
      "note_on channel=0 note=73 velocity=17 time=1\n",
      "note_off channel=0 note=89 velocity=64 time=0\n",
      "note_on channel=0 note=53 velocity=20 time=1\n",
      "note_off channel=0 note=68 velocity=64 time=0\n",
      "note_on channel=0 note=70 velocity=29 time=0\n",
      "note_off channel=0 note=71 velocity=64 time=0\n",
      "note_off channel=0 note=83 velocity=64 time=0\n",
      "note_off channel=0 note=85 velocity=64 time=0\n",
      "note_on channel=0 note=68 velocity=32 time=1\n",
      "note_off channel=0 note=82 velocity=64 time=0\n",
      "note_on channel=0 note=83 velocity=37 time=0\n",
      "note_on channel=0 note=90 velocity=15 time=0\n",
      "note_off channel=0 note=93 velocity=64 time=0\n",
      "note_off channel=0 note=70 velocity=64 time=1\n",
      "note_on channel=0 note=71 velocity=54 time=0\n",
      "note_off channel=0 note=53 velocity=64 time=1\n",
      "note_on channel=0 note=79 velocity=10 time=0\n",
      "note_on channel=0 note=50 velocity=10 time=4\n",
      "note_off channel=0 note=79 velocity=64 time=0\n",
      "note_off channel=0 note=50 velocity=64 time=3\n",
      "note_off channel=0 note=75 velocity=64 time=2\n",
      "note_off channel=0 note=90 velocity=64 time=2\n",
      "note_on channel=0 note=85 velocity=41 time=2\n",
      "note_off channel=0 note=73 velocity=64 time=1\n",
      "note_on channel=0 note=89 velocity=79 time=2\n",
      "note_on channel=0 note=95 velocity=52 time=3\n",
      "note_off channel=0 note=68 velocity=64 time=1\n",
      "note_on channel=0 note=73 velocity=38 time=0\n",
      "note_on channel=0 note=91 velocity=18 time=0\n",
      "note_on channel=0 note=57 velocity=22 time=1\n",
      "note_on channel=0 note=68 velocity=53 time=0\n",
      "note_on channel=0 note=88 velocity=39 time=0\n",
      "note_on channel=0 note=102 velocity=14 time=0\n",
      "note_off channel=0 note=91 velocity=64 time=2\n",
      "note_off channel=0 note=57 velocity=64 time=1\n",
      "note_off channel=0 note=88 velocity=64 time=0\n",
      "note_off channel=0 note=102 velocity=64 time=0\n",
      "note_off channel=0 note=77 velocity=64 time=2\n",
      "note_off channel=0 note=95 velocity=64 time=0\n",
      "note_off channel=0 note=63 velocity=64 time=1\n",
      "note_on channel=0 note=65 velocity=45 time=0\n",
      "note_on channel=0 note=61 velocity=31 time=1\n",
      "note_off channel=0 note=87 velocity=64 time=2\n",
      "note_off channel=0 note=85 velocity=64 time=1\n",
      "note_on channel=0 note=90 velocity=72 time=5\n",
      "note_on channel=0 note=94 velocity=67 time=0\n",
      "note_on channel=0 note=88 velocity=22 time=1\n",
      "note_on channel=0 note=56 velocity=74 time=1\n",
      "note_off channel=0 note=61 velocity=64 time=0\n",
      "note_off channel=0 note=73 velocity=64 time=0\n",
      "note_on channel=0 note=76 velocity=51 time=0\n",
      "note_on channel=0 note=84 velocity=81 time=0\n",
      "note_on channel=0 note=87 velocity=53 time=0\n",
      "note_on channel=0 note=91 velocity=46 time=0\n",
      "note_on channel=0 note=93 velocity=14 time=0\n",
      "note_on channel=0 note=99 velocity=53 time=0\n",
      "note_off channel=0 note=68 velocity=64 time=1\n",
      "note_on channel=0 note=69 velocity=72 time=0\n",
      "note_off channel=0 note=83 velocity=64 time=0\n",
      "note_off channel=0 note=89 velocity=64 time=0\n",
      "note_on channel=0 note=98 velocity=34 time=0\n",
      "note_on channel=0 note=101 velocity=37 time=0\n",
      "note_on channel=0 note=68 velocity=80 time=1\n",
      "note_off channel=0 note=69 velocity=64 time=0\n",
      "note_off channel=0 note=71 velocity=64 time=0\n",
      "note_on channel=0 note=73 velocity=33 time=0\n",
      "note_on channel=0 note=75 velocity=90 time=0\n",
      "note_off channel=0 note=76 velocity=64 time=0\n",
      "note_on channel=0 note=83 velocity=34 time=0\n",
      "note_on channel=0 note=89 velocity=33 time=1\n",
      "note_off channel=0 note=91 velocity=64 time=0\n",
      "note_on channel=0 note=100 velocity=66 time=0\n",
      "note_on channel=0 note=71 velocity=44 time=1\n",
      "note_off channel=0 note=88 velocity=64 time=0\n",
      "note_off channel=0 note=101 velocity=64 time=0\n",
      "note_on channel=0 note=91 velocity=21 time=1\n",
      "note_off channel=0 note=93 velocity=64 time=0\n",
      "note_on channel=0 note=97 velocity=25 time=0\n",
      "note_off channel=0 note=98 velocity=64 time=0\n",
      "note_off channel=0 note=73 velocity=64 time=1\n",
      "note_on channel=0 note=85 velocity=11 time=0\n",
      "note_on channel=0 note=93 velocity=21 time=0\n",
      "note_off channel=0 note=89 velocity=64 time=2\n",
      "note_off channel=0 note=91 velocity=64 time=0\n",
      "note_off channel=0 note=97 velocity=64 time=0\n",
      "note_on channel=0 note=98 velocity=24 time=0\n",
      "note_on channel=0 note=89 velocity=51 time=1\n",
      "note_off channel=0 note=85 velocity=64 time=1\n",
      "note_on channel=0 note=61 velocity=74 time=1\n",
      "note_off channel=0 note=65 velocity=64 time=0\n",
      "note_on channel=0 note=79 velocity=43 time=0\n",
      "note_on channel=0 note=88 velocity=29 time=0\n",
      "note_on channel=0 note=95 velocity=48 time=0\n",
      "note_off channel=0 note=83 velocity=64 time=1\n",
      "note_off channel=0 note=87 velocity=64 time=0\n",
      "note_off channel=0 note=93 velocity=64 time=0\n",
      "note_on channel=0 note=97 velocity=27 time=0\n",
      "note_off channel=0 note=98 velocity=64 time=0\n",
      "note_on channel=0 note=55 velocity=66 time=1\n",
      "note_off channel=0 note=56 velocity=64 time=0\n",
      "note_on channel=0 note=63 velocity=69 time=0\n",
      "note_on channel=0 note=85 velocity=24 time=0\n",
      "note_on channel=0 note=49 velocity=32 time=1\n",
      "note_off channel=0 note=55 velocity=64 time=0\n",
      "note_off channel=0 note=63 velocity=64 time=0\n",
      "note_on channel=0 note=78 velocity=16 time=0\n",
      "note_off channel=0 note=79 velocity=64 time=0\n",
      "note_off channel=0 note=61 velocity=64 time=1\n",
      "note_on channel=0 note=67 velocity=77 time=0\n",
      "note_off channel=0 note=68 velocity=64 time=0\n",
      "note_on channel=0 note=83 velocity=70 time=0\n",
      "note_off channel=0 note=84 velocity=64 time=0\n",
      "note_off channel=0 note=88 velocity=64 time=0\n",
      "note_off channel=0 note=90 velocity=64 time=0\n",
      "note_on channel=0 note=102 velocity=32 time=0\n",
      "note_off channel=0 note=49 velocity=64 time=1\n",
      "note_on channel=0 note=65 velocity=54 time=0\n",
      "note_off channel=0 note=85 velocity=64 time=0\n",
      "note_on channel=0 note=55 velocity=73 time=1\n",
      "note_off channel=0 note=67 velocity=64 time=0\n",
      "note_on channel=0 note=68 velocity=80 time=0\n",
      "note_on channel=0 note=74 velocity=50 time=0\n",
      "note_off channel=0 note=78 velocity=64 time=0\n",
      "note_off channel=0 note=75 velocity=64 time=1\n",
      "note_on channel=0 note=91 velocity=32 time=0\n",
      "note_off channel=0 note=55 velocity=64 time=1\n",
      "note_on channel=0 note=56 velocity=73 time=0\n",
      "note_on channel=0 note=61 velocity=33 time=0\n",
      "note_off channel=0 note=74 velocity=64 time=0\n",
      "note_on channel=0 note=75 velocity=68 time=0\n",
      "note_on channel=0 note=93 velocity=13 time=0\n",
      "note_off channel=0 note=95 velocity=64 time=1\n",
      "note_on channel=0 note=96 velocity=44 time=0\n",
      "note_off channel=0 note=71 velocity=64 time=1\n",
      "note_on channel=0 note=84 velocity=56 time=0\n",
      "note_on channel=0 note=90 velocity=57 time=0\n",
      "note_off channel=0 note=91 velocity=64 time=0\n",
      "note_on channel=0 note=103 velocity=13 time=0\n",
      "note_off channel=0 note=93 velocity=64 time=2\n",
      "note_off channel=0 note=97 velocity=64 time=0\n",
      "note_off channel=0 note=65 velocity=64 time=1\n",
      "note_on channel=0 note=91 velocity=29 time=0\n",
      "note_off channel=0 note=103 velocity=64 time=0\n",
      "note_on channel=0 note=55 velocity=68 time=1\n",
      "note_off channel=0 note=56 velocity=64 time=0\n",
      "note_on channel=0 note=65 velocity=49 time=0\n",
      "note_off channel=0 note=68 velocity=64 time=0\n",
      "note_off channel=0 note=102 velocity=64 time=0\n",
      "note_off channel=0 note=55 velocity=64 time=1\n",
      "note_on channel=0 note=56 velocity=74 time=0\n",
      "note_off channel=0 note=61 velocity=64 time=0\n",
      "note_on channel=0 note=82 velocity=63 time=0\n",
      "note_off channel=0 note=84 velocity=64 time=0\n",
      "note_on channel=0 note=85 velocity=51 time=0\n",
      "note_on channel=0 note=93 velocity=82 time=0\n",
      "note_off channel=0 note=99 velocity=64 time=0\n",
      "note_on channel=0 note=61 velocity=48 time=1\n",
      "note_on channel=0 note=64 velocity=51 time=0\n",
      "note_off channel=0 note=65 velocity=64 time=0\n",
      "note_on channel=0 note=69 velocity=81 time=0\n",
      "note_off channel=0 note=75 velocity=64 time=0\n",
      "note_on channel=0 note=76 velocity=69 time=0\n",
      "note_off channel=0 note=80 velocity=64 time=0\n",
      "note_off channel=0 note=83 velocity=64 time=0\n",
      "note_off channel=0 note=91 velocity=64 time=0\n",
      "note_on channel=0 note=87 velocity=50 time=1\n",
      "note_off channel=0 note=94 velocity=64 time=0\n",
      "note_off channel=0 note=96 velocity=64 time=0\n",
      "note_on channel=0 note=98 velocity=36 time=0\n",
      "note_off channel=0 note=56 velocity=64 time=1\n",
      "note_on channel=0 note=57 velocity=77 time=0\n",
      "note_off channel=0 note=64 velocity=64 time=0\n",
      "note_on channel=0 note=65 velocity=48 time=0\n",
      "note_on channel=0 note=80 velocity=32 time=1\n",
      "note_on channel=0 note=83 velocity=53 time=1\n",
      "note_off channel=0 note=82 velocity=64 time=1\n",
      "note_off channel=0 note=80 velocity=64 time=4\n",
      "note_on channel=0 note=96 velocity=31 time=1\n",
      "note_off channel=0 note=85 velocity=64 time=1\n",
      "note_on channel=0 note=85 velocity=47 time=1\n",
      "note_off channel=0 note=96 velocity=64 time=1\n",
      "note_off channel=0 note=61 velocity=64 time=1\n",
      "note_on channel=0 note=64 velocity=81 time=0\n",
      "note_off channel=0 note=65 velocity=64 time=0\n",
      "note_off channel=0 note=98 velocity=64 time=0\n",
      "note_off channel=0 note=100 velocity=64 time=0\n",
      "note_on channel=0 note=45 velocity=78 time=1\n",
      "note_on channel=0 note=68 velocity=68 time=0\n",
      "note_off channel=0 note=69 velocity=64 time=0\n",
      "note_off channel=0 note=85 velocity=64 time=0\n",
      "note_off channel=0 note=89 velocity=64 time=0\n",
      "note_on channel=0 note=56 velocity=72 time=1\n",
      "note_off channel=0 note=57 velocity=64 time=0\n",
      "note_on channel=0 note=63 velocity=78 time=0\n",
      "note_off channel=0 note=64 velocity=64 time=0\n",
      "note_on channel=0 note=89 velocity=43 time=0\n",
      "note_on channel=0 note=92 velocity=41 time=0\n",
      "note_off channel=0 note=93 velocity=64 time=0\n",
      "note_on channel=0 note=44 velocity=79 time=1\n",
      "note_off channel=0 note=45 velocity=64 time=0\n",
      "note_off channel=0 note=68 velocity=64 time=0\n",
      "note_on channel=0 note=93 velocity=26 time=0\n",
      "note_on channel=0 note=55 velocity=69 time=1\n",
      "note_off channel=0 note=56 velocity=64 time=0\n",
      "note_off channel=0 note=90 velocity=64 time=0\n",
      "note_on channel=0 note=91 velocity=26 time=0\n",
      "note_off channel=0 note=92 velocity=64 time=0\n",
      "note_off channel=0 note=63 velocity=64 time=1\n",
      "note_on channel=0 note=61 velocity=61 time=1\n",
      "note_on channel=0 note=77 velocity=46 time=0\n",
      "note_off channel=0 note=44 velocity=64 time=1\n",
      "note_off channel=0 note=55 velocity=64 time=0\n",
      "note_on channel=0 note=56 velocity=69 time=0\n",
      "note_on channel=0 note=68 velocity=74 time=0\n",
      "note_on channel=0 note=92 velocity=42 time=0\n",
      "note_off channel=0 note=93 velocity=64 time=0\n",
      "note_on channel=0 note=75 velocity=68 time=1\n",
      "note_off channel=0 note=76 velocity=64 time=0\n",
      "note_on channel=0 note=84 velocity=61 time=0\n",
      "note_on channel=0 note=90 velocity=62 time=0\n",
      "note_off channel=0 note=91 velocity=64 time=0\n",
      "note_on channel=0 note=43 velocity=62 time=1\n",
      "note_on channel=0 note=71 velocity=19 time=0\n",
      "note_on channel=0 note=91 velocity=23 time=0\n",
      "note_on channel=0 note=94 velocity=21 time=0\n",
      "note_off channel=0 note=89 velocity=64 time=2\n",
      "note_on channel=0 note=42 velocity=55 time=1\n",
      "note_off channel=0 note=43 velocity=64 time=0\n",
      "note_off channel=0 note=91 velocity=64 time=0\n",
      "note_on channel=0 note=91 velocity=23 time=1\n",
      "note_off channel=0 note=42 velocity=64 time=1\n",
      "note_on channel=0 note=89 velocity=49 time=0\n",
      "note_on channel=0 note=48 velocity=65 time=2\n",
      "note_on channel=0 note=93 velocity=13 time=0\n",
      "note_on channel=0 note=47 velocity=72 time=1\n",
      "note_off channel=0 note=48 velocity=64 time=0\n",
      "note_off channel=0 note=92 velocity=64 time=1\n",
      "note_off channel=0 note=47 velocity=64 time=1\n",
      "note_on channel=0 note=48 velocity=70 time=0\n",
      "note_on channel=0 note=65 velocity=15 time=0\n",
      "note_off channel=0 note=71 velocity=64 time=0\n",
      "note_on channel=0 note=82 velocity=18 time=0\n",
      "note_off channel=0 note=83 velocity=64 time=0\n",
      "note_off channel=0 note=48 velocity=64 time=1\n",
      "note_on channel=0 note=50 velocity=78 time=0\n",
      "note_off channel=0 note=56 velocity=64 time=0\n",
      "note_on channel=0 note=71 velocity=24 time=0\n",
      "note_off channel=0 note=50 velocity=64 time=1\n",
      "note_on channel=0 note=53 velocity=74 time=0\n",
      "note_off channel=0 note=53 velocity=64 time=2\n",
      "note_on channel=0 note=83 velocity=43 time=1\n",
      "note_off channel=0 note=91 velocity=64 time=0\n",
      "note_off channel=0 note=93 velocity=64 time=0\n",
      "note_off channel=0 note=61 velocity=64 time=1\n",
      "note_off channel=0 note=82 velocity=64 time=0\n",
      "note_on channel=0 note=56 velocity=56 time=3\n",
      "note_off channel=0 note=65 velocity=64 time=0\n",
      "note_on channel=0 note=85 velocity=22 time=0\n",
      "note_off channel=0 note=71 velocity=64 time=1\n",
      "note_on channel=0 note=91 velocity=14 time=0\n",
      "note_on channel=0 note=46 velocity=67 time=1\n",
      "note_off channel=0 note=56 velocity=64 time=0\n",
      "note_on channel=0 note=64 velocity=81 time=0\n",
      "note_on channel=0 note=71 velocity=36 time=0\n",
      "note_on channel=0 note=73 velocity=40 time=0\n",
      "note_on channel=0 note=45 velocity=77 time=1\n",
      "note_off channel=0 note=46 velocity=64 time=0\n",
      "note_off channel=0 note=85 velocity=64 time=0\n",
      "note_on channel=0 note=44 velocity=79 time=1\n",
      "note_off channel=0 note=45 velocity=64 time=0\n",
      "note_on channel=0 note=63 velocity=70 time=0\n",
      "note_off channel=0 note=64 velocity=64 time=0\n",
      "note_on channel=0 note=80 velocity=84 time=1\n",
      "note_off channel=0 note=89 velocity=64 time=0\n",
      "note_off channel=0 note=94 velocity=64 time=0\n",
      "note_off channel=0 note=71 velocity=64 time=1\n",
      "note_on channel=0 note=86 velocity=19 time=0\n",
      "note_off channel=0 note=63 velocity=64 time=1\n",
      "note_on channel=0 note=65 velocity=33 time=0\n",
      "note_on channel=0 note=71 velocity=30 time=0\n",
      "note_off channel=0 note=91 velocity=64 time=0\n",
      "note_off channel=0 note=44 velocity=64 time=1\n",
      "note_off channel=0 note=65 velocity=64 time=2\n",
      "note_on channel=0 note=43 velocity=61 time=1\n",
      "note_on channel=0 note=61 velocity=69 time=0\n",
      "note_on channel=0 note=65 velocity=36 time=0\n",
      "note_on channel=0 note=42 velocity=56 time=2\n",
      "note_off channel=0 note=43 velocity=64 time=0\n",
      "note_on channel=0 note=56 velocity=49 time=0\n",
      "note_off channel=0 note=86 velocity=64 time=0\n",
      "note_on channel=0 note=86 velocity=18 time=1\n",
      "note_on channel=0 note=91 velocity=23 time=0\n",
      "note_on channel=0 note=94 velocity=13 time=1\n",
      "note_on channel=0 note=55 velocity=53 time=1\n",
      "note_off channel=0 note=56 velocity=64 time=0\n",
      "note_on channel=0 note=89 velocity=54 time=0\n",
      "note_off channel=0 note=90 velocity=64 time=1\n",
      "note_off channel=0 note=55 velocity=64 time=1\n",
      "note_on channel=0 note=56 velocity=52 time=0\n",
      "note_on channel=0 note=82 velocity=29 time=0\n",
      "note_off channel=0 note=86 velocity=64 time=0\n",
      "note_on channel=0 note=90 velocity=56 time=0\n",
      "note_off channel=0 note=91 velocity=64 time=0\n",
      "note_off channel=0 note=89 velocity=64 time=1\n",
      "note_on channel=0 note=91 velocity=23 time=0\n",
      "note_off channel=0 note=83 velocity=64 time=1\n",
      "note_on channel=0 note=85 velocity=45 time=3\n",
      "note_off channel=0 note=91 velocity=64 time=0\n",
      "note_off channel=0 note=94 velocity=64 time=0\n",
      "note_off channel=0 note=87 velocity=64 time=1\n",
      "note_on channel=0 note=88 velocity=23 time=1\n",
      "note_on channel=0 note=83 velocity=35 time=1\n",
      "note_off channel=0 note=82 velocity=64 time=1\n",
      "note_off channel=0 note=42 velocity=64 time=2\n",
      "note_on channel=0 note=82 velocity=49 time=0\n",
      "note_off channel=0 note=71 velocity=64 time=1\n",
      "note_off channel=0 note=83 velocity=64 time=0\n",
      "note_off channel=0 note=88 velocity=64 time=0\n",
      "note_on channel=0 note=89 velocity=72 time=0\n",
      "note_on channel=0 note=95 velocity=45 time=0\n",
      "note_on channel=0 note=46 velocity=73 time=1\n",
      "note_off channel=0 note=65 velocity=64 time=0\n",
      "note_off channel=0 note=73 velocity=64 time=0\n",
      "note_off channel=0 note=77 velocity=64 time=0\n",
      "note_on channel=0 note=78 velocity=42 time=0\n",
      "note_on channel=0 note=88 velocity=41 time=0\n",
      "note_on channel=0 note=93 velocity=16 time=0\n",
      "note_off channel=0 note=46 velocity=64 time=1\n",
      "note_on channel=0 note=47 velocity=85 time=0\n",
      "note_on channel=0 note=64 velocity=66 time=0\n",
      "note_on channel=0 note=74 velocity=31 time=0\n",
      "note_off channel=0 note=90 velocity=64 time=0\n",
      "note_off channel=0 note=47 velocity=64 time=1\n",
      "note_on channel=0 note=48 velocity=83 time=0\n",
      "note_on channel=0 note=55 velocity=56 time=0\n",
      "note_off channel=0 note=56 velocity=64 time=0\n",
      "note_on channel=0 note=77 velocity=29 time=0\n",
      "note_off channel=0 note=88 velocity=64 time=0\n",
      "note_off channel=0 note=61 velocity=64 time=1\n",
      "note_off channel=0 note=64 velocity=64 time=0\n",
      "note_off channel=0 note=74 velocity=64 time=0\n",
      "note_off channel=0 note=78 velocity=64 time=0\n",
      "note_off channel=0 note=82 velocity=64 time=0\n",
      "note_on channel=0 note=83 velocity=52 time=0\n",
      "note_on channel=0 note=91 velocity=31 time=0\n",
      "note_off channel=0 note=48 velocity=64 time=1\n",
      "note_off channel=0 note=55 velocity=64 time=0\n",
      "note_on channel=0 note=56 velocity=53 time=0\n",
      "note_on channel=0 note=61 velocity=42 time=0\n",
      "note_on channel=0 note=71 velocity=20 time=0\n",
      "note_off channel=0 note=95 velocity=64 time=0\n",
      "note_on channel=0 note=94 velocity=12 time=1\n",
      "note_on channel=0 note=90 velocity=54 time=1\n",
      "note_off channel=0 note=93 velocity=64 time=0\n",
      "note_off channel=0 note=89 velocity=64 time=1\n",
      "note_on channel=0 note=89 velocity=67 time=1\n",
      "note_off channel=0 note=90 velocity=64 time=0\n",
      "note_on channel=0 note=55 velocity=56 time=1\n",
      "note_off channel=0 note=56 velocity=64 time=0\n",
      "note_on channel=0 note=102 velocity=21 time=0\n",
      "note_off channel=0 note=85 velocity=64 time=1\n",
      "note_on channel=0 note=90 velocity=61 time=0\n",
      "note_off channel=0 note=55 velocity=64 time=1\n",
      "note_on channel=0 note=56 velocity=49 time=0\n",
      "note_off channel=0 note=94 velocity=64 time=0\n",
      "note_on channel=0 note=44 velocity=34 time=1\n",
      "note_on channel=0 note=93 velocity=40 time=0\n",
      "note_off channel=0 note=56 velocity=64 time=1\n",
      "note_off channel=0 note=61 velocity=64 time=0\n",
      "note_on channel=0 note=56 velocity=46 time=1\n",
      "note_off channel=0 note=56 velocity=64 time=2\n",
      "note_off channel=0 note=44 velocity=64 time=1\n",
      "note_on channel=0 note=56 velocity=43 time=0\n",
      "note_on channel=0 note=86 velocity=20 time=0\n",
      "note_off channel=0 note=56 velocity=64 time=2\n",
      "note_on channel=0 note=56 velocity=43 time=1\n",
      "note_off channel=0 note=86 velocity=64 time=0\n",
      "note_on channel=0 note=65 velocity=45 time=1\n",
      "note_off channel=0 note=56 velocity=64 time=1\n",
      "note_on channel=0 note=56 velocity=42 time=1\n",
      "note_off channel=0 note=56 velocity=64 time=2\n",
      "note_on channel=0 note=61 velocity=14 time=0\n",
      "note_off channel=0 note=91 velocity=64 time=0\n",
      "note_on channel=0 note=56 velocity=51 time=1\n",
      "note_off channel=0 note=61 velocity=64 time=2\n",
      "note_on channel=0 note=61 velocity=59 time=1\n",
      "note_off channel=0 note=71 velocity=64 time=0\n",
      "note_off channel=0 note=77 velocity=64 time=0\n",
      "note_on channel=0 note=91 velocity=20 time=0\n",
      "note_on channel=0 note=45 velocity=77 time=1\n",
      "note_off channel=0 note=65 velocity=64 time=0\n",
      "note_on channel=0 note=79 velocity=48 time=0\n",
      "note_off channel=0 note=90 velocity=64 time=0\n",
      "note_on channel=0 note=85 velocity=42 time=1\n",
      "note_off channel=0 note=102 velocity=64 time=0\n",
      "note_on channel=0 note=44 velocity=77 time=1\n",
      "note_off channel=0 note=45 velocity=64 time=0\n",
      "note_off channel=0 note=56 velocity=64 time=0\n",
      "note_on channel=0 note=63 velocity=44 time=0\n",
      "note_on channel=0 note=71 velocity=46 time=0\n",
      "note_off channel=0 note=79 velocity=64 time=0\n",
      "note_off channel=0 note=61 velocity=64 time=1\n",
      "note_on channel=0 note=77 velocity=48 time=0\n",
      "note_on channel=0 note=90 velocity=53 time=0\n",
      "note_off channel=0 note=63 velocity=64 time=1\n",
      "note_on channel=0 note=65 velocity=40 time=0\n",
      "note_off channel=0 note=91 velocity=64 time=0\n",
      "note_on channel=0 note=43 velocity=74 time=1\n",
      "note_off channel=0 note=44 velocity=64 time=0\n",
      "note_on channel=0 note=62 velocity=31 time=1\n",
      "note_off channel=0 note=65 velocity=64 time=4\n",
      "note_off channel=0 note=89 velocity=64 time=0\n",
      "note_off channel=0 note=85 velocity=64 time=1\n",
      "note_on channel=0 note=61 velocity=25 time=1\n",
      "note_off channel=0 note=62 velocity=64 time=0\n",
      "note_on channel=0 note=65 velocity=34 time=0\n",
      "note_off channel=0 note=43 velocity=64 time=1\n",
      "note_on channel=0 note=86 velocity=19 time=4\n",
      "note_off channel=0 note=86 velocity=64 time=4\n",
      "note_on channel=0 note=82 velocity=35 time=5\n",
      "note_on channel=0 note=85 velocity=16 time=0\n",
      "note_off channel=0 note=83 velocity=64 time=1\n",
      "note_off channel=0 note=61 velocity=64 time=1\n",
      "note_on channel=0 note=64 velocity=81 time=0\n",
      "note_off channel=0 note=65 velocity=64 time=0\n",
      "note_on channel=0 note=73 velocity=35 time=0\n",
      "note_on channel=0 note=79 velocity=34 time=0\n",
      "note_on channel=0 note=48 velocity=65 time=1\n",
      "note_off channel=0 note=68 velocity=64 time=0\n",
      "note_off channel=0 note=80 velocity=64 time=0\n",
      "note_on channel=0 note=81 velocity=32 time=0\n",
      "note_off channel=0 note=82 velocity=64 time=0\n",
      "note_on channel=0 note=45 velocity=77 time=1\n",
      "note_off channel=0 note=48 velocity=64 time=0\n",
      "note_on channel=0 note=68 velocity=65 time=0\n",
      "note_off channel=0 note=79 velocity=64 time=0\n",
      "note_on channel=0 note=82 velocity=42 time=0\n",
      "note_off channel=0 note=85 velocity=64 time=0\n",
      "note_on channel=0 note=44 velocity=78 time=1\n",
      "note_off channel=0 note=45 velocity=64 time=0\n",
      "note_on channel=0 note=63 velocity=74 time=0\n",
      "note_off channel=0 note=64 velocity=64 time=0\n",
      "note_off channel=0 note=81 velocity=64 time=0\n",
      "note_on channel=0 note=55 velocity=60 time=1\n",
      "note_off channel=0 note=68 velocity=64 time=0\n",
      "note_off channel=0 note=90 velocity=64 time=0\n",
      "note_on channel=0 note=68 velocity=71 time=1\n",
      "note_off channel=0 note=55 velocity=64 time=1\n",
      "note_off channel=0 note=44 velocity=64 time=1\n",
      "note_on channel=0 note=45 velocity=68 time=0\n",
      "note_on channel=0 note=61 velocity=39 time=0\n",
      "note_off channel=0 note=63 velocity=64 time=0\n",
      "note_on channel=0 note=90 velocity=46 time=0\n",
      "note_on channel=0 note=41 velocity=56 time=1\n",
      "note_off channel=0 note=45 velocity=64 time=0\n",
      "note_off channel=0 note=61 velocity=64 time=1\n",
      "note_off channel=0 note=82 velocity=64 time=0\n",
      "note_off channel=0 note=41 velocity=64 time=1\n",
      "note_on channel=0 note=43 velocity=60 time=0\n",
      "note_on channel=0 note=61 velocity=58 time=0\n",
      "note_on channel=0 note=88 velocity=35 time=1\n",
      "note_off channel=0 note=43 velocity=64 time=1\n",
      "note_on channel=0 note=65 velocity=39 time=2\n",
      "note_on channel=0 note=48 velocity=64 time=1\n",
      "note_off channel=0 note=73 velocity=64 time=0\n",
      "note_off channel=0 note=90 velocity=64 time=0\n",
      "note_on channel=0 note=55 velocity=56 time=1\n",
      "note_on channel=0 note=47 velocity=73 time=1\n",
      "note_off channel=0 note=48 velocity=64 time=0\n",
      "note_off channel=0 note=47 velocity=64 time=2\n",
      "note_on channel=0 note=48 velocity=68 time=0\n",
      "note_off channel=0 note=55 velocity=64 time=0\n",
      "note_on channel=0 note=56 velocity=63 time=0\n",
      "note_on channel=0 note=90 velocity=47 time=0\n",
      "note_off channel=0 note=48 velocity=64 time=1\n",
      "note_on channel=0 note=49 velocity=69 time=0\n",
      "note_off channel=0 note=49 velocity=64 time=1\n",
      "note_on channel=0 note=50 velocity=76 time=0\n",
      "note_off channel=0 note=56 velocity=64 time=0\n",
      "note_on channel=0 note=79 velocity=10 time=0\n",
      "note_off channel=0 note=50 velocity=64 time=1\n",
      "note_on channel=0 note=53 velocity=71 time=0\n",
      "note_off channel=0 note=53 velocity=64 time=1\n",
      "note_on channel=0 note=54 velocity=63 time=0\n",
      "note_off channel=0 note=61 velocity=64 time=1\n",
      "note_off channel=0 note=79 velocity=64 time=0\n",
      "note_off channel=0 note=54 velocity=64 time=2\n",
      "note_on channel=0 note=82 velocity=41 time=0\n",
      "note_off channel=0 note=90 velocity=64 time=0\n",
      "note_on channel=0 note=90 velocity=45 time=1\n",
      "note_on channel=0 note=56 velocity=59 time=1\n",
      "note_on channel=0 note=73 velocity=51 time=1\n",
      "note_on channel=0 note=64 velocity=81 time=1\n",
      "note_off channel=0 note=65 velocity=64 time=0\n",
      "note_off channel=0 note=77 velocity=64 time=0\n",
      "note_on channel=0 note=89 velocity=39 time=0\n",
      "note_on channel=0 note=103 velocity=10 time=0\n",
      "note_on channel=0 note=45 velocity=77 time=1\n",
      "note_on channel=0 note=77 velocity=37 time=0\n",
      "note_off channel=0 note=88 velocity=64 time=0\n",
      "note_on channel=0 note=63 velocity=78 time=1\n",
      "note_off channel=0 note=64 velocity=64 time=0\n",
      "note_on channel=0 note=44 velocity=78 time=1\n",
      "note_off channel=0 note=45 velocity=64 time=0\n",
      "note_off channel=0 note=56 velocity=64 time=0\n",
      "note_on channel=0 note=88 velocity=26 time=0\n",
      "note_off channel=0 note=89 velocity=64 time=0\n",
      "note_on channel=0 note=55 velocity=50 time=1\n",
      "note_off channel=0 note=103 velocity=64 time=0\n",
      "note_off channel=0 note=44 velocity=64 time=2\n",
      "note_on channel=0 note=45 velocity=75 time=0\n",
      "note_off channel=0 note=55 velocity=64 time=0\n",
      "note_on channel=0 note=56 velocity=55 time=0\n",
      "note_off channel=0 note=63 velocity=64 time=0\n",
      "note_on channel=0 note=65 velocity=42 time=1\n",
      "note_off channel=0 note=82 velocity=64 time=0\n",
      "note_off channel=0 note=90 velocity=64 time=0\n",
      "note_on channel=0 note=44 velocity=70 time=1\n",
      "note_off channel=0 note=45 velocity=64 time=0\n",
      "note_on channel=0 note=61 velocity=61 time=0\n",
      "note_off channel=0 note=73 velocity=64 time=0\n",
      "note_on channel=0 note=90 velocity=40 time=0\n",
      "note_off channel=0 note=44 velocity=64 time=2\n",
      "note_on channel=0 note=42 velocity=58 time=1\n",
      "note_off channel=0 note=90 velocity=64 time=0\n",
      "note_on channel=0 note=85 velocity=43 time=1\n",
      "note_on channel=0 note=90 velocity=41 time=0\n",
      "note_off channel=0 note=42 velocity=64 time=1\n",
      "note_on channel=0 note=48 velocity=66 time=2\n",
      "note_off channel=0 note=56 velocity=64 time=1\n",
      "note_on channel=0 note=47 velocity=72 time=1\n",
      "note_off channel=0 note=48 velocity=64 time=0\n",
      "note_on channel=0 note=56 velocity=57 time=0\n",
      "note_off channel=0 note=65 velocity=64 time=1\n",
      "note_off channel=0 note=47 velocity=64 time=1\n",
      "note_on channel=0 note=48 velocity=67 time=0\n",
      "note_on channel=0 note=65 velocity=36 time=0\n",
      "note_off channel=0 note=48 velocity=64 time=1\n",
      "note_on channel=0 note=50 velocity=76 time=0\n",
      "note_off channel=0 note=56 velocity=64 time=0\n",
      "note_off channel=0 note=50 velocity=64 time=1\n",
      "note_on channel=0 note=52 velocity=74 time=0\n",
      "note_on channel=0 note=80 velocity=81 time=0\n",
      "note_off channel=0 note=52 velocity=64 time=1\n",
      "note_on channel=0 note=54 velocity=69 time=0\n",
      "note_on channel=0 note=82 velocity=29 time=0\n",
      "note_off channel=0 note=84 velocity=64 time=1\n",
      "note_off channel=0 note=54 velocity=64 time=1\n",
      "note_off channel=0 note=65 velocity=64 time=0\n",
      "note_on channel=0 note=67 velocity=49 time=1\n",
      "note_on channel=0 note=55 velocity=74 time=1\n",
      "note_off channel=0 note=68 velocity=64 time=0\n",
      "note_off channel=0 note=75 velocity=64 time=0\n",
      "note_off channel=0 note=61 velocity=64 time=1\n",
      "note_on channel=0 note=75 velocity=34 time=0\n",
      "note_off channel=0 note=88 velocity=64 time=0\n",
      "note_on channel=0 note=89 velocity=72 time=0\n",
      "note_on channel=0 note=54 velocity=66 time=1\n",
      "note_off channel=0 note=55 velocity=64 time=0\n",
      "note_off channel=0 note=77 velocity=64 time=0\n",
      "note_on channel=0 note=87 velocity=42 time=0\n",
      "note_off channel=0 note=67 velocity=64 time=1\n",
      "note_off channel=0 note=82 velocity=64 time=0\n",
      "note_on channel=0 note=94 velocity=35 time=0\n",
      "note_on channel=0 note=48 velocity=89 time=1\n",
      "note_off channel=0 note=54 velocity=64 time=0\n",
      "note_on channel=0 note=64 velocity=60 time=0\n",
      "note_on channel=0 note=67 velocity=47 time=0\n",
      "note_off channel=0 note=75 velocity=64 time=0\n",
      "note_on channel=0 note=82 velocity=53 time=0\n",
      "note_off channel=0 note=90 velocity=64 time=0\n",
      "note_on channel=0 note=95 velocity=44 time=0\n",
      "note_on channel=0 note=54 velocity=67 time=1\n",
      "note_on channel=0 note=77 velocity=30 time=0\n",
      "note_on channel=0 note=78 velocity=20 time=0\n",
      "note_off channel=0 note=64 velocity=64 time=1\n",
      "note_off channel=0 note=67 velocity=64 time=0\n",
      "note_on channel=0 note=73 velocity=49 time=0\n",
      "note_on channel=0 note=75 velocity=28 time=0\n",
      "note_off channel=0 note=94 velocity=64 time=0\n",
      "note_on channel=0 note=46 velocity=66 time=1\n",
      "note_off channel=0 note=48 velocity=64 time=0\n",
      "note_off channel=0 note=54 velocity=64 time=1\n",
      "note_off channel=0 note=77 velocity=64 time=0\n",
      "note_off channel=0 note=95 velocity=64 time=0\n",
      "note_off channel=0 note=46 velocity=64 time=1\n",
      "note_on channel=0 note=48 velocity=67 time=0\n",
      "note_on channel=0 note=54 velocity=59 time=0\n",
      "note_off channel=0 note=78 velocity=64 time=0\n",
      "note_off channel=0 note=87 velocity=64 time=0\n",
      "note_off channel=0 note=48 velocity=64 time=1\n",
      "note_on channel=0 note=90 velocity=27 time=0\n",
      "note_on channel=0 note=45 velocity=59 time=1\n",
      "note_on channel=0 note=77 velocity=34 time=2\n",
      "note_on channel=0 note=53 velocity=69 time=1\n",
      "note_off channel=0 note=54 velocity=64 time=0\n",
      "note_on channel=0 note=68 velocity=21 time=0\n",
      "note_off channel=0 note=71 velocity=64 time=0\n",
      "note_on channel=0 note=72 velocity=61 time=0\n",
      "note_on channel=0 note=81 velocity=42 time=0\n",
      "note_off channel=0 note=82 velocity=64 time=0\n",
      "note_on channel=0 note=44 velocity=48 time=1\n",
      "note_off channel=0 note=45 velocity=64 time=0\n",
      "note_off channel=0 note=73 velocity=64 time=0\n",
      "note_off channel=0 note=85 velocity=64 time=0\n",
      "note_off channel=0 note=81 velocity=64 time=1\n",
      "note_on channel=0 note=82 velocity=36 time=0\n",
      "note_on channel=0 note=85 velocity=25 time=0\n",
      "note_off channel=0 note=75 velocity=64 time=2\n",
      "note_off channel=0 note=82 velocity=64 time=0\n",
      "note_on channel=0 note=43 velocity=33 time=1\n",
      "note_off channel=0 note=44 velocity=64 time=0\n",
      "note_on channel=0 note=52 velocity=70 time=0\n",
      "note_off channel=0 note=53 velocity=64 time=0\n",
      "note_off channel=0 note=68 velocity=64 time=0\n",
      "note_on channel=0 note=71 velocity=58 time=0\n",
      "note_off channel=0 note=72 velocity=64 time=0\n",
      "note_on channel=0 note=76 velocity=42 time=0\n",
      "note_off channel=0 note=77 velocity=64 time=0\n",
      "note_on channel=0 note=65 velocity=56 time=1\n",
      "note_off channel=0 note=90 velocity=64 time=0\n",
      "note_on channel=0 note=91 velocity=36 time=0\n",
      "note_off channel=0 note=43 velocity=64 time=1\n",
      "note_on channel=0 note=73 velocity=23 time=0\n",
      "note_on channel=0 note=86 velocity=29 time=0\n",
      "note_off channel=0 note=85 velocity=64 time=1\n",
      "note_on channel=0 note=61 velocity=52 time=1\n",
      "note_off channel=0 note=93 velocity=64 time=0\n",
      "note_on channel=0 note=68 velocity=18 time=1\n",
      "note_off channel=0 note=73 velocity=64 time=1\n",
      "note_on channel=0 note=90 velocity=34 time=0\n",
      "note_off channel=0 note=91 velocity=64 time=0\n",
      "note_off channel=0 note=86 velocity=64 time=1\n",
      "note_off channel=0 note=71 velocity=64 time=1\n",
      "note_on channel=0 note=72 velocity=62 time=0\n",
      "note_on channel=0 note=75 velocity=25 time=0\n",
      "note_off channel=0 note=76 velocity=64 time=0\n",
      "note_off channel=0 note=90 velocity=64 time=0\n",
      "note_on channel=0 note=91 velocity=33 time=0\n",
      "note_off channel=0 note=52 velocity=64 time=1\n",
      "note_on channel=0 note=53 velocity=70 time=0\n",
      "note_on channel=0 note=81 velocity=41 time=0\n",
      "note_off channel=0 note=80 velocity=64 time=1\n",
      "note_off channel=0 note=53 velocity=64 time=1\n",
      "note_off channel=0 note=65 velocity=64 time=0\n",
      "note_off channel=0 note=68 velocity=64 time=0\n",
      "note_off channel=0 note=81 velocity=64 time=0\n",
      "note_on channel=0 note=82 velocity=46 time=0\n",
      "note_off channel=0 note=91 velocity=64 time=0\n",
      "note_on channel=0 note=55 velocity=68 time=1\n",
      "note_on channel=0 note=67 velocity=69 time=0\n",
      "note_off channel=0 note=72 velocity=64 time=0\n",
      "note_on channel=0 note=74 velocity=34 time=0\n",
      "note_off channel=0 note=75 velocity=64 time=0\n",
      "note_on channel=0 note=83 velocity=60 time=0\n",
      "note_on channel=0 note=85 velocity=48 time=0\n",
      "note_on channel=0 note=87 velocity=48 time=0\n",
      "note_on channel=0 note=47 velocity=63 time=1\n",
      "note_on channel=0 note=76 velocity=46 time=0\n",
      "note_off channel=0 note=82 velocity=64 time=0\n",
      "note_on channel=0 note=93 velocity=21 time=0\n",
      "note_on channel=0 note=80 velocity=78 time=1\n",
      "note_on channel=0 note=91 velocity=28 time=0\n",
      "note_on channel=0 note=102 velocity=17 time=0\n",
      "note_on channel=0 note=45 velocity=76 time=1\n",
      "note_off channel=0 note=47 velocity=64 time=0\n",
      "note_off channel=0 note=61 velocity=64 time=0\n",
      "note_off channel=0 note=74 velocity=64 time=0\n",
      "note_on channel=0 note=75 velocity=52 time=0\n",
      "note_off channel=0 note=76 velocity=64 time=0\n",
      "note_on channel=0 note=77 velocity=44 time=0\n",
      "note_on channel=0 note=61 velocity=48 time=1\n",
      "note_on channel=0 note=74 velocity=47 time=0\n",
      "note_on channel=0 note=44 velocity=76 time=1\n",
      "note_off channel=0 note=45 velocity=64 time=0\n",
      "note_off channel=0 note=93 velocity=64 time=0\n",
      "note_off channel=0 note=102 velocity=64 time=0\n",
      "note_off channel=0 note=74 velocity=64 time=1\n",
      "note_on channel=0 note=82 velocity=43 time=0\n",
      "note_on channel=0 note=90 velocity=22 time=0\n",
      "note_on channel=0 note=43 velocity=74 time=1\n",
      "note_off channel=0 note=44 velocity=64 time=0\n",
      "note_on channel=0 note=54 velocity=62 time=0\n",
      "note_off channel=0 note=55 velocity=64 time=0\n",
      "note_on channel=0 note=66 velocity=62 time=0\n",
      "note_off channel=0 note=67 velocity=64 time=0\n",
      "note_off channel=0 note=83 velocity=64 time=0\n",
      "note_off channel=0 note=91 velocity=64 time=0\n",
      "note_on channel=0 note=93 velocity=12 time=1\n",
      "note_off channel=0 note=61 velocity=64 time=1\n",
      "note_on channel=0 note=83 velocity=57 time=0\n",
      "note_off channel=0 note=82 velocity=64 time=1\n",
      "note_on channel=0 note=88 velocity=10 time=0\n",
      "note_off channel=0 note=54 velocity=64 time=1\n",
      "note_on channel=0 note=73 velocity=33 time=0\n",
      "note_off channel=0 note=75 velocity=64 time=0\n",
      "note_off channel=0 note=90 velocity=64 time=0\n",
      "note_on channel=0 note=91 velocity=28 time=0\n",
      "note_off channel=0 note=66 velocity=64 time=1\n",
      "note_on channel=0 note=74 velocity=45 time=0\n",
      "note_off channel=0 note=89 velocity=64 time=0\n",
      "note_on channel=0 note=61 velocity=21 time=1\n",
      "note_off channel=0 note=73 velocity=64 time=0\n",
      "note_off channel=0 note=88 velocity=64 time=0\n",
      "note_off channel=0 note=43 velocity=64 time=1\n",
      "note_on channel=0 note=44 velocity=31 time=0\n",
      "note_on channel=0 note=89 velocity=48 time=0\n",
      "note_on channel=0 note=73 velocity=40 time=1\n",
      "note_off channel=0 note=74 velocity=64 time=0\n",
      "note_on channel=0 note=75 velocity=24 time=1\n",
      "note_off channel=0 note=93 velocity=64 time=0\n",
      "note_on channel=0 note=66 velocity=70 time=1\n",
      "note_off channel=0 note=73 velocity=64 time=0\n",
      "note_on channel=0 note=79 velocity=23 time=0\n",
      "note_on channel=0 note=82 velocity=53 time=0\n",
      "note_off channel=0 note=83 velocity=64 time=0\n",
      "note_off channel=0 note=44 velocity=64 time=1\n",
      "note_on channel=0 note=54 velocity=63 time=0\n",
      "note_on channel=0 note=71 velocity=14 time=0\n",
      "note_on channel=0 note=73 velocity=57 time=0\n",
      "note_off channel=0 note=85 velocity=64 time=1\n",
      "note_off channel=0 note=79 velocity=64 time=2\n",
      "note_off channel=0 note=71 velocity=64 time=6\n",
      "note_on channel=0 note=93 velocity=16 time=0\n",
      "note_off channel=0 note=61 velocity=64 time=1\n",
      "note_on channel=0 note=71 velocity=20 time=0\n",
      "note_on channel=0 note=83 velocity=30 time=0\n",
      "note_off channel=0 note=75 velocity=64 time=1\n",
      "note_on channel=0 note=64 velocity=82 time=2\n",
      "note_off channel=0 note=71 velocity=64 time=0\n",
      "note_off channel=0 note=82 velocity=64 time=0\n",
      "note_on channel=0 note=45 velocity=78 time=1\n",
      "note_off channel=0 note=66 velocity=64 time=0\n",
      "note_on channel=0 note=82 velocity=44 time=0\n",
      "note_off channel=0 note=83 velocity=64 time=0\n",
      "note_on channel=0 note=84 velocity=20 time=0\n",
      "note_on channel=0 note=90 velocity=38 time=0\n",
      "note_on channel=0 note=44 velocity=79 time=2\n",
      "note_off channel=0 note=45 velocity=64 time=0\n",
      "note_off channel=0 note=54 velocity=64 time=0\n",
      "note_on channel=0 note=55 velocity=65 time=0\n",
      "note_on channel=0 note=63 velocity=69 time=0\n",
      "note_off channel=0 note=64 velocity=64 time=0\n",
      "note_on channel=0 note=66 velocity=59 time=0\n",
      "note_off channel=0 note=90 velocity=64 time=0\n",
      "note_off channel=0 note=82 velocity=64 time=1\n",
      "note_on channel=0 note=83 velocity=35 time=0\n",
      "note_off channel=0 note=84 velocity=64 time=0\n",
      "note_off channel=0 note=91 velocity=64 time=0\n",
      "note_on channel=0 note=54 velocity=57 time=1\n",
      "note_off channel=0 note=55 velocity=64 time=0\n",
      "note_off channel=0 note=63 velocity=64 time=0\n",
      "note_on channel=0 note=71 velocity=26 time=0\n",
      "note_on channel=0 note=82 velocity=33 time=0\n",
      "note_on channel=0 note=91 velocity=13 time=0\n",
      "note_on channel=0 note=61 velocity=31 time=1\n",
      "note_off channel=0 note=44 velocity=64 time=1\n",
      "note_on channel=0 note=53 velocity=65 time=1\n",
      "note_off channel=0 note=54 velocity=64 time=0\n",
      "note_off channel=0 note=71 velocity=64 time=0\n",
      "note_on channel=0 note=81 velocity=26 time=0\n",
      "note_off channel=0 note=82 velocity=64 time=0\n",
      "note_on channel=0 note=43 velocity=61 time=1\n",
      "note_off channel=0 note=61 velocity=64 time=0\n",
      "note_off channel=0 note=66 velocity=64 time=0\n",
      "note_on channel=0 note=84 velocity=36 time=0\n",
      "note_on channel=0 note=61 velocity=60 time=1\n",
      "note_on channel=0 note=72 velocity=55 time=0\n",
      "note_off channel=0 note=73 velocity=64 time=0\n",
      "note_off channel=0 note=91 velocity=64 time=0\n",
      "note_off channel=0 note=81 velocity=64 time=1\n",
      "note_on channel=0 note=42 velocity=54 time=1\n",
      "note_off channel=0 note=43 velocity=64 time=0\n",
      "note_off channel=0 note=83 velocity=64 time=0\n",
      "note_on channel=0 note=71 velocity=55 time=1\n",
      "note_off channel=0 note=72 velocity=64 time=0\n",
      "note_on channel=0 note=83 velocity=60 time=0\n",
      "note_off channel=0 note=84 velocity=64 time=0\n",
      "note_on channel=0 note=86 velocity=30 time=0\n",
      "note_off channel=0 note=89 velocity=64 time=0\n",
      "note_off channel=0 note=42 velocity=64 time=1\n",
      "note_off channel=0 note=53 velocity=64 time=0\n",
      "note_on channel=0 note=64 velocity=44 time=0\n",
      "note_on channel=0 note=76 velocity=55 time=0\n",
      "note_on channel=0 note=68 velocity=21 time=1\n",
      "note_off channel=0 note=77 velocity=64 time=0\n",
      "note_on channel=0 note=47 velocity=68 time=1\n"
     ]
    },
    {
     "name": "stdout",
     "output_type": "stream",
     "text": [
      "note_off channel=0 note=64 velocity=64 time=0\n",
      "note_off channel=0 note=71 velocity=64 time=0\n",
      "note_off channel=0 note=47 velocity=64 time=1\n",
      "note_on channel=0 note=48 velocity=72 time=0\n",
      "note_on channel=0 note=71 velocity=34 time=0\n",
      "note_on channel=0 note=77 velocity=21 time=0\n",
      "note_on channel=0 note=85 velocity=36 time=0\n",
      "note_off channel=0 note=86 velocity=64 time=0\n",
      "note_on channel=0 note=47 velocity=71 time=1\n",
      "note_off channel=0 note=48 velocity=64 time=0\n",
      "note_off channel=0 note=61 velocity=64 time=0\n",
      "note_off channel=0 note=68 velocity=64 time=0\n",
      "note_on channel=0 note=91 velocity=21 time=0\n",
      "note_off channel=0 note=93 velocity=64 time=0\n",
      "note_off channel=0 note=47 velocity=64 time=1\n",
      "note_on channel=0 note=50 velocity=79 time=0\n",
      "note_on channel=0 note=64 velocity=45 time=0\n",
      "note_off channel=0 note=77 velocity=64 time=1\n",
      "note_on channel=0 note=89 velocity=70 time=0\n",
      "note_off channel=0 note=50 velocity=64 time=1\n",
      "note_on channel=0 note=52 velocity=77 time=0\n",
      "note_off channel=0 note=64 velocity=64 time=0\n",
      "note_on channel=0 note=68 velocity=26 time=0\n",
      "note_off channel=0 note=52 velocity=64 time=1\n",
      "note_on channel=0 note=53 velocity=75 time=0\n",
      "note_off channel=0 note=71 velocity=64 time=0\n",
      "note_on channel=0 note=51 velocity=68 time=1\n",
      "note_off channel=0 note=53 velocity=64 time=0\n",
      "note_on channel=0 note=71 velocity=54 time=0\n",
      "note_off channel=0 note=85 velocity=64 time=1\n",
      "note_on channel=0 note=86 velocity=35 time=0\n",
      "note_off channel=0 note=51 velocity=64 time=2\n",
      "note_on channel=0 note=53 velocity=65 time=0\n",
      "note_on channel=0 note=52 velocity=68 time=1\n",
      "note_off channel=0 note=53 velocity=64 time=0\n",
      "note_on channel=0 note=90 velocity=38 time=1\n",
      "note_off channel=0 note=91 velocity=64 time=0\n",
      "note_off channel=0 note=68 velocity=64 time=1\n",
      "note_on channel=0 note=74 velocity=30 time=0\n",
      "note_on channel=0 note=45 velocity=77 time=1\n",
      "note_off channel=0 note=52 velocity=64 time=0\n",
      "note_on channel=0 note=63 velocity=79 time=0\n",
      "note_on channel=0 note=67 velocity=65 time=0\n",
      "note_off channel=0 note=80 velocity=64 time=0\n",
      "note_on channel=0 note=52 velocity=69 time=1\n",
      "note_off channel=0 note=63 velocity=64 time=0\n",
      "note_on channel=0 note=64 velocity=80 time=0\n",
      "note_off channel=0 note=67 velocity=64 time=0\n",
      "note_on channel=0 note=68 velocity=59 time=0\n",
      "note_off channel=0 note=74 velocity=64 time=0\n",
      "note_on channel=0 note=80 velocity=81 time=0\n",
      "note_on channel=0 note=44 velocity=78 time=1\n",
      "note_off channel=0 note=45 velocity=64 time=0\n",
      "note_on channel=0 note=73 velocity=36 time=0\n",
      "note_on channel=0 note=63 velocity=68 time=1\n",
      "note_off channel=0 note=64 velocity=64 time=0\n",
      "note_off channel=0 note=68 velocity=64 time=0\n",
      "note_off channel=0 note=90 velocity=64 time=0\n",
      "note_on channel=0 note=91 velocity=25 time=0\n",
      "note_off channel=0 note=63 velocity=64 time=1\n",
      "note_off channel=0 note=52 velocity=64 time=1\n",
      "note_on channel=0 note=65 velocity=50 time=0\n",
      "note_off channel=0 note=44 velocity=64 time=1\n",
      "note_on channel=0 note=68 velocity=33 time=0\n",
      "note_on channel=0 note=52 velocity=65 time=1\n",
      "note_on channel=0 note=61 velocity=60 time=1\n",
      "note_on channel=0 note=43 velocity=62 time=1\n",
      "note_off channel=0 note=68 velocity=64 time=1\n",
      "note_on channel=0 note=42 velocity=57 time=1\n",
      "note_off channel=0 note=43 velocity=64 time=0\n",
      "note_off channel=0 note=91 velocity=64 time=0\n",
      "note_off channel=0 note=73 velocity=64 time=2\n",
      "note_off channel=0 note=42 velocity=64 time=1\n",
      "note_off channel=0 note=52 velocity=64 time=0\n",
      "note_on channel=0 note=48 velocity=71 time=2\n",
      "note_on channel=0 note=67 velocity=35 time=0\n",
      "note_on channel=0 note=47 velocity=73 time=1\n",
      "note_off channel=0 note=48 velocity=64 time=0\n",
      "note_on channel=0 note=91 velocity=32 time=0\n",
      "note_off channel=0 note=47 velocity=64 time=1\n",
      "note_on channel=0 note=49 velocity=74 time=0\n",
      "note_off channel=0 note=71 velocity=64 time=0\n",
      "note_on channel=0 note=72 velocity=60 time=0\n",
      "note_off channel=0 note=67 velocity=64 time=1\n",
      "note_off channel=0 note=49 velocity=64 time=1\n",
      "note_on channel=0 note=53 velocity=71 time=0\n",
      "note_off channel=0 note=65 velocity=64 time=0\n",
      "note_on channel=0 note=66 velocity=45 time=0\n",
      "note_off channel=0 note=76 velocity=64 time=0\n",
      "note_on channel=0 note=85 velocity=34 time=0\n",
      "note_on channel=0 note=90 velocity=29 time=0\n",
      "note_off channel=0 note=86 velocity=64 time=1\n",
      "note_off channel=0 note=91 velocity=64 time=0\n",
      "note_off channel=0 note=53 velocity=64 time=1\n",
      "note_on channel=0 note=54 velocity=68 time=0\n",
      "note_off channel=0 note=66 velocity=64 time=0\n",
      "note_on channel=0 note=67 velocity=54 time=0\n",
      "note_off channel=0 note=72 velocity=64 time=0\n",
      "note_on channel=0 note=74 velocity=43 time=0\n",
      "note_off channel=0 note=90 velocity=64 time=0\n",
      "note_on channel=0 note=91 velocity=31 time=0\n",
      "note_on channel=0 note=71 velocity=21 time=1\n",
      "note_on channel=0 note=93 velocity=15 time=0\n",
      "note_off channel=0 note=54 velocity=64 time=1\n",
      "note_on channel=0 note=56 velocity=60 time=0\n",
      "note_off channel=0 note=67 velocity=64 time=0\n",
      "note_on channel=0 note=68 velocity=63 time=0\n",
      "note_off channel=0 note=74 velocity=64 time=0\n",
      "note_on channel=0 note=75 velocity=44 time=0\n",
      "note_on channel=0 note=84 velocity=44 time=1\n",
      "note_on channel=0 note=90 velocity=22 time=0\n",
      "note_off channel=0 note=61 velocity=64 time=1\n",
      "note_off channel=0 note=71 velocity=64 time=0\n",
      "note_off channel=0 note=85 velocity=64 time=0\n",
      "note_on channel=0 note=74 velocity=43 time=2\n",
      "note_on channel=0 note=85 velocity=55 time=0\n",
      "note_on channel=0 note=48 velocity=87 time=1\n",
      "note_off channel=0 note=56 velocity=64 time=0\n",
      "note_off channel=0 note=75 velocity=64 time=0\n",
      "note_on channel=0 note=76 velocity=38 time=0\n",
      "note_on channel=0 note=82 velocity=39 time=0\n",
      "note_off channel=0 note=83 velocity=64 time=0\n",
      "note_on channel=0 note=88 velocity=38 time=0\n",
      "note_off channel=0 note=90 velocity=64 time=0\n",
      "note_on channel=0 note=95 velocity=45 time=0\n",
      "note_on channel=0 note=55 velocity=67 time=1\n",
      "note_on channel=0 note=78 velocity=38 time=0\n",
      "note_on channel=0 note=83 velocity=47 time=0\n",
      "note_on channel=0 note=63 velocity=50 time=1\n",
      "note_off channel=0 note=68 velocity=64 time=0\n",
      "note_on channel=0 note=71 velocity=48 time=0\n",
      "note_off channel=0 note=74 velocity=64 time=0\n",
      "note_off channel=0 note=76 velocity=64 time=0\n",
      "note_on channel=0 note=77 velocity=43 time=0\n",
      "note_off channel=0 note=82 velocity=64 time=0\n",
      "note_off channel=0 note=88 velocity=64 time=0\n",
      "note_on channel=0 note=74 velocity=43 time=1\n",
      "note_off channel=0 note=78 velocity=64 time=0\n",
      "note_off channel=0 note=84 velocity=64 time=0\n",
      "note_off channel=0 note=48 velocity=64 time=1\n",
      "note_off channel=0 note=63 velocity=64 time=0\n",
      "note_on channel=0 note=84 velocity=18 time=0\n",
      "note_off channel=0 note=93 velocity=64 time=0\n",
      "note_off channel=0 note=95 velocity=64 time=0\n",
      "note_on channel=0 note=47 velocity=68 time=1\n",
      "note_on channel=0 note=66 velocity=60 time=0\n",
      "note_on channel=0 note=73 velocity=48 time=0\n",
      "note_off channel=0 note=74 velocity=64 time=0\n",
      "note_on channel=0 note=75 velocity=40 time=0\n",
      "note_on channel=0 note=82 velocity=29 time=0\n",
      "note_off channel=0 note=83 velocity=64 time=0\n",
      "note_off channel=0 note=47 velocity=64 time=1\n",
      "note_on channel=0 note=54 velocity=61 time=0\n",
      "note_off channel=0 note=55 velocity=64 time=0\n",
      "note_off channel=0 note=75 velocity=64 time=1\n",
      "note_on channel=0 note=45 velocity=61 time=1\n",
      "note_on channel=0 note=61 velocity=23 time=0\n",
      "note_off channel=0 note=54 velocity=64 time=1\n",
      "note_on channel=0 note=55 velocity=64 time=0\n",
      "note_off channel=0 note=82 velocity=64 time=0\n",
      "note_on channel=0 note=83 velocity=49 time=0\n",
      "note_on channel=0 note=44 velocity=49 time=2\n",
      "note_off channel=0 note=45 velocity=64 time=0\n",
      "note_off channel=0 note=85 velocity=64 time=0\n",
      "note_on channel=0 note=86 velocity=34 time=0\n",
      "note_off channel=0 note=66 velocity=64 time=1\n",
      "note_off channel=0 note=73 velocity=64 time=1\n",
      "note_on channel=0 note=74 velocity=43 time=0\n",
      "note_off channel=0 note=84 velocity=64 time=0\n",
      "note_on channel=0 note=43 velocity=36 time=2\n",
      "note_off channel=0 note=44 velocity=64 time=0\n",
      "note_off channel=0 note=74 velocity=64 time=0\n",
      "note_on channel=0 note=75 velocity=52 time=0\n",
      "note_on channel=0 note=85 velocity=28 time=0\n",
      "note_off channel=0 note=86 velocity=64 time=0\n",
      "note_on channel=0 note=68 velocity=68 time=1\n",
      "note_on channel=0 note=73 velocity=41 time=0\n",
      "note_off channel=0 note=91 velocity=64 time=0\n",
      "note_off channel=0 note=55 velocity=64 time=1\n",
      "note_on channel=0 note=56 velocity=57 time=0\n",
      "note_on channel=0 note=84 velocity=27 time=0\n",
      "note_on channel=0 note=65 velocity=15 time=1\n",
      "note_on channel=0 note=88 velocity=32 time=0\n",
      "note_off channel=0 note=56 velocity=64 time=1\n",
      "note_on channel=0 note=86 velocity=24 time=0\n",
      "note_on channel=0 note=56 velocity=56 time=1\n",
      "note_off channel=0 note=84 velocity=64 time=0\n",
      "note_off channel=0 note=85 velocity=64 time=0\n",
      "note_off channel=0 note=65 velocity=64 time=1\n",
      "note_on channel=0 note=55 velocity=63 time=1\n",
      "note_off channel=0 note=56 velocity=64 time=0\n",
      "note_on channel=0 note=65 velocity=49 time=0\n",
      "note_off channel=0 note=83 velocity=64 time=0\n",
      "note_on channel=0 note=42 velocity=16 time=1\n",
      "note_off channel=0 note=43 velocity=64 time=0\n",
      "note_off channel=0 note=55 velocity=64 time=1\n",
      "note_on channel=0 note=56 velocity=63 time=0\n",
      "note_off channel=0 note=86 velocity=64 time=1\n",
      "note_off channel=0 note=42 velocity=64 time=1\n",
      "note_on channel=0 note=84 velocity=45 time=0\n",
      "note_on channel=0 note=103 velocity=11 time=0\n",
      "note_off channel=0 note=56 velocity=64 time=1\n",
      "note_on channel=0 note=56 velocity=64 time=1\n",
      "note_on channel=0 note=95 velocity=46 time=0\n",
      "note_off channel=0 note=61 velocity=64 time=1\n",
      "note_on channel=0 note=62 velocity=53 time=0\n",
      "note_off channel=0 note=88 velocity=64 time=0\n",
      "note_on channel=0 note=102 velocity=27 time=0\n",
      "note_on channel=0 note=46 velocity=71 time=1\n",
      "note_off channel=0 note=65 velocity=64 time=0\n",
      "note_off channel=0 note=73 velocity=64 time=0\n",
      "note_on channel=0 note=91 velocity=13 time=0\n",
      "note_on channel=0 note=45 velocity=77 time=1\n",
      "note_off channel=0 note=46 velocity=64 time=0\n",
      "note_on channel=0 note=73 velocity=25 time=0\n",
      "note_off channel=0 note=75 velocity=64 time=0\n",
      "note_on channel=0 note=85 velocity=35 time=0\n",
      "note_on channel=0 note=44 velocity=78 time=1\n",
      "note_off channel=0 note=45 velocity=64 time=0\n",
      "note_off channel=0 note=62 velocity=64 time=0\n",
      "note_off channel=0 note=103 velocity=64 time=0\n",
      "note_on channel=0 note=65 velocity=41 time=1\n",
      "note_on channel=0 note=75 velocity=35 time=0\n",
      "note_off channel=0 note=91 velocity=64 time=0\n",
      "note_on channel=0 note=90 velocity=36 time=1\n",
      "note_off channel=0 note=95 velocity=64 time=0\n",
      "note_off channel=0 note=102 velocity=64 time=0\n",
      "note_on channel=0 note=43 velocity=73 time=1\n",
      "note_off channel=0 note=44 velocity=64 time=0\n",
      "note_on channel=0 note=61 velocity=45 time=0\n",
      "note_on channel=0 note=88 velocity=31 time=0\n",
      "note_off channel=0 note=56 velocity=64 time=1\n",
      "note_on channel=0 note=56 velocity=51 time=1\n",
      "note_off channel=0 note=73 velocity=64 time=0\n",
      "note_off channel=0 note=75 velocity=64 time=1\n",
      "note_off channel=0 note=89 velocity=64 time=0\n",
      "note_on channel=0 note=75 velocity=35 time=1\n",
      "note_on channel=0 note=82 velocity=27 time=0\n",
      "note_off channel=0 note=61 velocity=64 time=1\n",
      "note_on channel=0 note=61 velocity=25 time=1\n",
      "note_off channel=0 note=43 velocity=64 time=1\n",
      "note_on channel=0 note=44 velocity=22 time=0\n",
      "note_off channel=0 note=82 velocity=64 time=1\n",
      "note_off channel=0 note=85 velocity=64 time=0\n",
      "note_off channel=0 note=44 velocity=64 time=2\n",
      "note_on channel=0 note=73 velocity=44 time=1\n",
      "note_off channel=0 note=87 velocity=64 time=0\n",
      "note_off channel=0 note=90 velocity=64 time=0\n",
      "note_off channel=0 note=77 velocity=64 time=2\n",
      "note_on channel=0 note=93 velocity=45 time=0\n",
      "note_on channel=0 note=77 velocity=42 time=1\n",
      "note_off channel=0 note=56 velocity=64 time=2\n",
      "note_off channel=0 note=65 velocity=64 time=0\n",
      "note_on channel=0 note=54 velocity=43 time=1\n",
      "note_on channel=0 note=65 velocity=29 time=0\n",
      "note_off channel=0 note=54 velocity=64 time=2\n",
      "note_on channel=0 note=56 velocity=37 time=0\n",
      "note_off channel=0 note=61 velocity=64 time=1\n",
      "note_on channel=0 note=86 velocity=23 time=0\n",
      "note_on channel=0 note=90 velocity=37 time=2\n",
      "note_off channel=0 note=56 velocity=64 time=1\n",
      "note_off channel=0 note=65 velocity=64 time=0\n",
      "note_off channel=0 note=71 velocity=64 time=0\n",
      "note_on channel=0 note=82 velocity=60 time=0\n",
      "note_off channel=0 note=84 velocity=64 time=0\n",
      "note_on channel=0 note=62 velocity=87 time=1\n",
      "note_off channel=0 note=75 velocity=64 time=0\n",
      "note_off channel=0 note=86 velocity=64 time=0\n",
      "note_on channel=0 note=89 velocity=46 time=0\n",
      "note_off channel=0 note=90 velocity=64 time=0\n",
      "note_on channel=0 note=91 velocity=27 time=0\n",
      "note_on channel=0 note=57 velocity=48 time=1\n",
      "note_off channel=0 note=62 velocity=64 time=0\n",
      "note_on channel=0 note=63 velocity=94 time=0\n",
      "note_on channel=0 note=72 velocity=30 time=0\n",
      "note_off channel=0 note=73 velocity=64 time=0\n",
      "note_on channel=0 note=84 velocity=36 time=0\n",
      "note_off channel=0 note=88 velocity=64 time=0\n",
      "note_off channel=0 note=68 velocity=64 time=1\n",
      "note_off channel=0 note=57 velocity=64 time=1\n",
      "note_on channel=0 note=68 velocity=54 time=0\n",
      "note_off channel=0 note=91 velocity=64 time=0\n",
      "note_on channel=0 note=57 velocity=54 time=1\n",
      "note_on channel=0 note=71 velocity=47 time=0\n",
      "note_off channel=0 note=72 velocity=64 time=0\n",
      "note_on channel=0 note=88 velocity=17 time=0\n",
      "note_off channel=0 note=89 velocity=64 time=0\n",
      "note_on channel=0 note=90 velocity=45 time=0\n",
      "note_off channel=0 note=68 velocity=64 time=2\n",
      "note_on channel=0 note=56 velocity=54 time=1\n",
      "note_off channel=0 note=57 velocity=64 time=0\n",
      "note_on channel=0 note=68 velocity=69 time=0\n",
      "note_on channel=0 note=101 velocity=16 time=0\n",
      "note_off channel=0 note=82 velocity=64 time=3\n",
      "note_on channel=0 note=82 velocity=13 time=1\n",
      "note_off channel=0 note=101 velocity=64 time=0\n",
      "note_off channel=0 note=82 velocity=64 time=3\n",
      "note_on channel=0 note=101 velocity=38 time=0\n",
      "note_off channel=0 note=77 velocity=64 time=2\n",
      "note_on channel=0 note=78 velocity=14 time=1\n",
      "note_on channel=0 note=86 velocity=26 time=1\n",
      "note_on channel=0 note=99 velocity=27 time=4\n",
      "note_on channel=0 note=100 velocity=29 time=0\n",
      "note_off channel=0 note=101 velocity=64 time=0\n",
      "note_off channel=0 note=78 velocity=64 time=2\n",
      "note_on channel=0 note=78 velocity=35 time=1\n",
      "note_on channel=0 note=82 velocity=59 time=1\n",
      "note_on channel=0 note=89 velocity=46 time=2\n",
      "note_off channel=0 note=56 velocity=64 time=1\n",
      "note_on channel=0 note=57 velocity=57 time=0\n",
      "note_on channel=0 note=62 velocity=77 time=0\n",
      "note_off channel=0 note=63 velocity=64 time=0\n",
      "note_off channel=0 note=71 velocity=64 time=0\n",
      "note_on channel=0 note=72 velocity=48 time=0\n",
      "note_on channel=0 note=77 velocity=33 time=0\n",
      "note_off channel=0 note=80 velocity=64 time=0\n",
      "note_off channel=0 note=84 velocity=64 time=0\n",
      "note_off channel=0 note=86 velocity=64 time=0\n",
      "note_off channel=0 note=88 velocity=64 time=0\n",
      "note_on channel=0 note=95 velocity=19 time=0\n",
      "note_on channel=0 note=86 velocity=26 time=1\n",
      "note_off channel=0 note=100 velocity=64 time=0\n",
      "note_on channel=0 note=56 velocity=39 time=1\n",
      "note_off channel=0 note=57 velocity=64 time=0\n",
      "note_on channel=0 note=71 velocity=35 time=0\n",
      "note_off channel=0 note=72 velocity=64 time=0\n",
      "note_off channel=0 note=78 velocity=64 time=0\n",
      "note_off channel=0 note=62 velocity=64 time=1\n",
      "note_on channel=0 note=63 velocity=86 time=0\n",
      "note_off channel=0 note=77 velocity=64 time=0\n",
      "note_on channel=0 note=78 velocity=19 time=0\n",
      "note_off channel=0 note=90 velocity=64 time=0\n",
      "note_off channel=0 note=95 velocity=64 time=0\n",
      "note_on channel=0 note=55 velocity=42 time=1\n",
      "note_off channel=0 note=56 velocity=64 time=0\n",
      "note_off channel=0 note=71 velocity=64 time=0\n",
      "note_on channel=0 note=73 velocity=15 time=0\n",
      "note_on channel=0 note=71 velocity=42 time=1\n",
      "note_on channel=0 note=100 velocity=32 time=0\n",
      "note_off channel=0 note=55 velocity=64 time=1\n",
      "note_on channel=0 note=56 velocity=72 time=0\n",
      "note_off channel=0 note=89 velocity=64 time=0\n",
      "note_off channel=0 note=73 velocity=64 time=1\n",
      "note_on channel=0 note=73 velocity=15 time=1\n",
      "note_off channel=0 note=78 velocity=64 time=0\n",
      "note_on channel=0 note=89 velocity=76 time=0\n",
      "note_on channel=0 note=90 velocity=15 time=1\n",
      "note_off channel=0 note=82 velocity=64 time=3\n",
      "note_off channel=0 note=86 velocity=64 time=0\n",
      "note_off channel=0 note=90 velocity=64 time=4\n",
      "note_on channel=0 note=84 velocity=11 time=2\n",
      "note_on channel=0 note=90 velocity=9 time=0\n",
      "note_on channel=0 note=77 velocity=9 time=1\n",
      "note_off channel=0 note=90 velocity=64 time=2\n",
      "note_off channel=0 note=73 velocity=64 time=1\n",
      "note_off channel=0 note=77 velocity=64 time=0\n",
      "note_off channel=0 note=84 velocity=64 time=0\n",
      "note_on channel=0 note=90 velocity=26 time=0\n",
      "note_on channel=0 note=94 velocity=22 time=0\n",
      "note_on channel=0 note=70 velocity=12 time=4\n",
      "note_off channel=0 note=71 velocity=64 time=0\n",
      "note_on channel=0 note=77 velocity=47 time=2\n",
      "note_on channel=0 note=80 velocity=86 time=0\n",
      "note_on channel=0 note=91 velocity=31 time=0\n",
      "note_on channel=0 note=95 velocity=53 time=0\n",
      "note_off channel=0 note=70 velocity=64 time=1\n",
      "note_on channel=0 note=73 velocity=38 time=0\n",
      "note_on channel=0 note=85 velocity=41 time=0\n",
      "note_off channel=0 note=90 velocity=64 time=0\n",
      "note_off channel=0 note=94 velocity=64 time=0\n",
      "note_on channel=0 note=102 velocity=14 time=0\n",
      "note_on channel=0 note=90 velocity=27 time=1\n",
      "note_off channel=0 note=91 velocity=64 time=0\n",
      "note_on channel=0 note=82 velocity=34 time=1\n",
      "note_on channel=0 note=91 velocity=30 time=0\n",
      "note_off channel=0 note=100 velocity=64 time=0\n",
      "note_on channel=0 note=84 velocity=15 time=1\n",
      "note_on channel=0 note=100 velocity=30 time=0\n",
      "note_off channel=0 note=90 velocity=64 time=1\n",
      "note_on channel=0 note=65 velocity=53 time=1\n",
      "note_on channel=0 note=90 velocity=27 time=0\n",
      "note_off channel=0 note=63 velocity=64 time=1\n",
      "note_off channel=0 note=91 velocity=64 time=0\n",
      "note_off channel=0 note=102 velocity=64 time=1\n",
      "note_on channel=0 note=61 velocity=27 time=1\n",
      "note_off channel=0 note=90 velocity=64 time=1\n",
      "note_on channel=0 note=71 velocity=44 time=1\n",
      "note_on channel=0 note=90 velocity=35 time=0\n",
      "note_off channel=0 note=89 velocity=64 time=1\n",
      "note_on channel=0 note=88 velocity=30 time=2\n",
      "note_off channel=0 note=84 velocity=64 time=3\n",
      "note_off channel=0 note=99 velocity=64 time=0\n",
      "note_off channel=0 note=100 velocity=64 time=0\n",
      "note_on channel=0 note=84 velocity=14 time=6\n",
      "note_on channel=0 note=91 velocity=34 time=1\n",
      "note_on channel=0 note=89 velocity=57 time=2\n",
      "note_on channel=0 note=96 velocity=24 time=0\n",
      "note_off channel=0 note=88 velocity=64 time=1\n",
      "note_off channel=0 note=61 velocity=64 time=3\n",
      "note_off channel=0 note=65 velocity=64 time=0\n",
      "note_off channel=0 note=85 velocity=64 time=0\n",
      "note_off channel=0 note=91 velocity=64 time=0\n",
      "note_on channel=0 note=61 velocity=77 time=1\n",
      "note_off channel=0 note=90 velocity=64 time=0\n",
      "note_on channel=0 note=91 velocity=36 time=0\n",
      "note_off channel=0 note=56 velocity=64 time=1\n",
      "note_on channel=0 note=57 velocity=66 time=0\n",
      "note_on channel=0 note=63 velocity=67 time=0\n",
      "note_off channel=0 note=73 velocity=64 time=0\n",
      "note_off channel=0 note=63 velocity=64 time=1\n",
      "note_on channel=0 note=70 velocity=45 time=0\n",
      "note_off channel=0 note=71 velocity=64 time=0\n",
      "note_off channel=0 note=96 velocity=64 time=0\n",
      "note_off channel=0 note=57 velocity=64 time=1\n",
      "note_off channel=0 note=61 velocity=64 time=0\n",
      "note_on channel=0 note=62 velocity=63 time=0\n",
      "note_off channel=0 note=95 velocity=64 time=0\n",
      "note_off channel=0 note=70 velocity=64 time=1\n",
      "note_off channel=0 note=84 velocity=64 time=0\n",
      "note_on channel=0 note=85 velocity=32 time=0\n",
      "note_off channel=0 note=80 velocity=64 time=1\n",
      "note_off channel=0 note=68 velocity=64 time=1\n",
      "note_on channel=0 note=61 velocity=13 time=1\n",
      "note_off channel=0 note=62 velocity=64 time=0\n",
      "note_on channel=0 note=71 velocity=34 time=0\n",
      "note_off channel=0 note=61 velocity=64 time=3\n",
      "note_on channel=0 note=80 velocity=47 time=0\n",
      "note_on channel=0 note=83 velocity=65 time=0\n",
      "note_off channel=0 note=82 velocity=64 time=1\n",
      "note_on channel=0 note=64 velocity=45 time=2\n",
      "note_on channel=0 note=75 velocity=52 time=0\n",
      "note_on channel=0 note=90 velocity=31 time=1\n",
      "note_off channel=0 note=91 velocity=64 time=0\n",
      "note_on channel=0 note=96 velocity=20 time=0\n",
      "note_on channel=0 note=53 velocity=44 time=1\n",
      "note_on channel=0 note=61 velocity=43 time=0\n",
      "note_on channel=0 note=69 velocity=39 time=0\n",
      "note_on channel=0 note=84 velocity=40 time=0\n",
      "note_on channel=0 note=49 velocity=20 time=1\n",
      "note_on channel=0 note=63 velocity=31 time=0\n",
      "note_off channel=0 note=64 velocity=64 time=0\n",
      "note_off channel=0 note=53 velocity=64 time=1\n",
      "note_on channel=0 note=54 velocity=29 time=0\n",
      "note_off channel=0 note=61 velocity=64 time=0\n",
      "note_off channel=0 note=69 velocity=64 time=0\n",
      "note_off channel=0 note=90 velocity=64 time=0\n",
      "note_off channel=0 note=63 velocity=64 time=1\n",
      "note_on channel=0 note=65 velocity=47 time=0\n",
      "note_on channel=0 note=82 velocity=33 time=0\n",
      "note_off channel=0 note=49 velocity=64 time=1\n",
      "note_off channel=0 note=54 velocity=64 time=0\n",
      "note_on channel=0 note=73 velocity=19 time=0\n",
      "note_off channel=0 note=83 velocity=64 time=0\n",
      "note_off channel=0 note=96 velocity=64 time=0\n",
      "note_off channel=0 note=82 velocity=64 time=2\n",
      "note_off channel=0 note=84 velocity=64 time=5\n",
      "note_off channel=0 note=89 velocity=64 time=0\n",
      "note_on channel=0 note=48 velocity=60 time=2\n",
      "note_on channel=0 note=70 velocity=31 time=0\n",
      "note_off channel=0 note=71 velocity=64 time=0\n",
      "note_on channel=0 note=64 velocity=82 time=1\n",
      "note_off channel=0 note=65 velocity=64 time=0\n",
      "note_off channel=0 note=73 velocity=64 time=0\n",
      "note_off channel=0 note=75 velocity=64 time=0\n",
      "note_on channel=0 note=88 velocity=21 time=0\n",
      "note_on channel=0 note=90 velocity=38 time=0\n",
      "note_on channel=0 note=45 velocity=78 time=1\n",
      "note_off channel=0 note=48 velocity=64 time=0\n",
      "note_off channel=0 note=70 velocity=64 time=0\n",
      "note_on channel=0 note=71 velocity=35 time=0\n",
      "note_on channel=0 note=73 velocity=46 time=0\n",
      "note_on channel=0 note=75 velocity=33 time=0\n",
      "note_on channel=0 note=84 velocity=22 time=0\n",
      "note_off channel=0 note=93 velocity=64 time=0\n",
      "note_on channel=0 note=63 velocity=74 time=1\n",
      "note_off channel=0 note=64 velocity=64 time=0\n",
      "note_on channel=0 note=44 velocity=79 time=1\n",
      "note_off channel=0 note=45 velocity=64 time=0\n",
      "note_off channel=0 note=88 velocity=64 time=0\n",
      "note_off channel=0 note=84 velocity=64 time=1\n",
      "note_off channel=0 note=63 velocity=64 time=1\n",
      "note_on channel=0 note=65 velocity=35 time=0\n",
      "note_off channel=0 note=90 velocity=64 time=0\n",
      "note_on channel=0 note=91 velocity=23 time=0\n",
      "note_on channel=0 note=41 velocity=56 time=2\n",
      "note_off channel=0 note=44 velocity=64 time=0\n",
      "note_off channel=0 note=85 velocity=64 time=0\n",
      "note_off channel=0 note=41 velocity=64 time=2\n",
      "note_on channel=0 note=43 velocity=61 time=0\n",
      "note_off channel=0 note=65 velocity=64 time=0\n",
      "note_on channel=0 note=68 velocity=27 time=0\n",
      "note_on channel=0 note=83 velocity=52 time=0\n",
      "note_on channel=0 note=61 velocity=59 time=1\n",
      "note_on channel=0 note=65 velocity=50 time=0\n",
      "note_on channel=0 note=42 velocity=55 time=2\n",
      "note_off channel=0 note=43 velocity=64 time=0\n",
      "note_on channel=0 note=93 velocity=9 time=0\n",
      "note_off channel=0 note=91 velocity=64 time=1\n",
      "note_off channel=0 note=42 velocity=64 time=1\n",
      "note_on channel=0 note=91 velocity=26 time=0\n",
      "note_on channel=0 note=48 velocity=67 time=1\n",
      "note_off channel=0 note=68 velocity=64 time=0\n",
      "note_on channel=0 note=47 velocity=73 time=2\n",
      "note_off channel=0 note=48 velocity=64 time=0\n",
      "note_off channel=0 note=47 velocity=64 time=1\n",
      "note_on channel=0 note=48 velocity=72 time=0\n",
      "note_off channel=0 note=93 velocity=64 time=0\n",
      "note_off channel=0 note=48 velocity=64 time=1\n",
      "note_on channel=0 note=49 velocity=71 time=0\n",
      "note_on channel=0 note=68 velocity=32 time=0\n",
      "note_off channel=0 note=91 velocity=64 time=0\n",
      "note_off channel=0 note=49 velocity=64 time=1\n",
      "note_on channel=0 note=50 velocity=78 time=0\n",
      "note_off channel=0 note=50 velocity=64 time=1\n",
      "note_on channel=0 note=53 velocity=74 time=0\n",
      "note_off channel=0 note=80 velocity=64 time=0\n",
      "note_off channel=0 note=53 velocity=64 time=2\n",
      "note_on channel=0 note=91 velocity=31 time=1\n",
      "note_on channel=0 note=53 velocity=59 time=1\n",
      "note_on channel=0 note=52 velocity=49 time=3\n",
      "note_off channel=0 note=53 velocity=64 time=0\n",
      "note_on channel=0 note=89 velocity=72 time=0\n",
      "note_off channel=0 note=61 velocity=64 time=1\n",
      "note_on channel=0 note=64 velocity=81 time=0\n",
      "note_off channel=0 note=65 velocity=64 time=0\n",
      "note_off channel=0 note=68 velocity=64 time=0\n",
      "note_off channel=0 note=71 velocity=64 time=0\n",
      "note_on channel=0 note=79 velocity=42 time=0\n",
      "note_on channel=0 note=90 velocity=39 time=0\n",
      "note_off channel=0 note=91 velocity=64 time=0\n",
      "note_on channel=0 note=45 velocity=77 time=1\n",
      "note_off channel=0 note=52 velocity=64 time=0\n",
      "note_on channel=0 note=53 velocity=51 time=0\n",
      "note_on channel=0 note=67 velocity=64 time=0\n",
      "note_on channel=0 note=96 velocity=9 time=0\n",
      "note_on channel=0 note=63 velocity=78 time=1\n",
      "note_off channel=0 note=64 velocity=64 time=0\n",
      "note_off channel=0 note=77 velocity=64 time=0\n",
      "note_on channel=0 note=80 velocity=83 time=0\n",
      "note_on channel=0 note=44 velocity=79 time=1\n",
      "note_off channel=0 note=45 velocity=64 time=0\n",
      "note_off channel=0 note=53 velocity=64 time=0\n",
      "note_off channel=0 note=67 velocity=64 time=0\n",
      "note_on channel=0 note=69 velocity=38 time=0\n",
      "note_off channel=0 note=79 velocity=64 time=0\n",
      "note_on channel=0 note=77 velocity=32 time=1\n",
      "note_off channel=0 note=90 velocity=64 time=0\n",
      "note_off channel=0 note=69 velocity=64 time=1\n",
      "note_off channel=0 note=96 velocity=64 time=0\n",
      "note_off channel=0 note=63 velocity=64 time=1\n",
      "note_off channel=0 note=75 velocity=64 time=0\n",
      "note_off channel=0 note=44 velocity=64 time=1\n",
      "note_on channel=0 note=61 velocity=34 time=0\n",
      "note_on channel=0 note=67 velocity=22 time=0\n",
      "note_off channel=0 note=61 velocity=64 time=2\n",
      "note_on channel=0 note=43 velocity=61 time=1\n",
      "note_on channel=0 note=61 velocity=70 time=0\n",
      "note_on channel=0 note=66 velocity=21 time=0\n",
      "note_off channel=0 note=67 velocity=64 time=0\n",
      "note_on channel=0 note=93 velocity=22 time=0\n",
      "note_on channel=0 note=42 velocity=55 time=2\n",
      "note_off channel=0 note=43 velocity=64 time=0\n",
      "note_off channel=0 note=66 velocity=64 time=1\n",
      "note_on channel=0 note=68 velocity=32 time=4\n",
      "note_on channel=0 note=71 velocity=47 time=2\n",
      "note_off channel=0 note=42 velocity=64 time=3\n",
      "note_on channel=0 note=75 velocity=9 time=0\n",
      "note_on channel=0 note=42 velocity=52 time=1\n",
      "note_on channel=0 note=65 velocity=14 time=1\n",
      "note_off channel=0 note=42 velocity=64 time=3\n",
      "note_on channel=0 note=43 velocity=53 time=0\n",
      "note_off channel=0 note=93 velocity=64 time=0\n",
      "note_off channel=0 note=43 velocity=64 time=2\n",
      "note_off channel=0 note=65 velocity=64 time=0\n",
      "note_off channel=0 note=75 velocity=64 time=0\n",
      "note_off channel=0 note=77 velocity=64 time=0\n",
      "note_on channel=0 note=87 velocity=38 time=0\n",
      "note_on channel=0 note=96 velocity=10 time=0\n",
      "note_on channel=0 note=46 velocity=78 time=1\n",
      "note_off channel=0 note=61 velocity=64 time=0\n",
      "note_on channel=0 note=62 velocity=68 time=0\n",
      "note_off channel=0 note=68 velocity=64 time=0\n",
      "note_off channel=0 note=73 velocity=64 time=0\n",
      "note_on channel=0 note=75 velocity=46 time=0\n",
      "note_on channel=0 note=78 velocity=39 time=0\n",
      "note_on channel=0 note=88 velocity=39 time=0\n",
      "note_on channel=0 note=91 velocity=11 time=0\n",
      "note_on channel=0 note=93 velocity=16 time=0\n",
      "note_on channel=0 note=102 velocity=15 time=0\n",
      "note_off channel=0 note=46 velocity=64 time=1\n",
      "note_on channel=0 note=47 velocity=86 time=0\n",
      "note_off channel=0 note=62 velocity=64 time=0\n",
      "note_on channel=0 note=64 velocity=65 time=0\n",
      "note_on channel=0 note=73 velocity=31 time=0\n",
      "note_off channel=0 note=83 velocity=64 time=0\n",
      "note_off channel=0 note=47 velocity=64 time=1\n",
      "note_on channel=0 note=48 velocity=82 time=0\n",
      "note_on channel=0 note=67 velocity=29 time=0\n",
      "note_off channel=0 note=75 velocity=64 time=0\n",
      "note_on channel=0 note=77 velocity=33 time=0\n",
      "note_on channel=0 note=83 velocity=51 time=0\n",
      "note_off channel=0 note=96 velocity=64 time=0\n",
      "note_on channel=0 note=62 velocity=51 time=1\n",
      "note_off channel=0 note=64 velocity=64 time=0\n",
      "note_off channel=0 note=78 velocity=64 time=0\n",
      "note_off channel=0 note=88 velocity=64 time=0\n",
      "note_off channel=0 note=93 velocity=64 time=0\n",
      "note_off channel=0 note=102 velocity=64 time=0\n",
      "note_off channel=0 note=48 velocity=64 time=1\n",
      "note_on channel=0 note=65 velocity=40 time=0\n",
      "note_off channel=0 note=67 velocity=64 time=0\n",
      "note_on channel=0 note=68 velocity=27 time=0\n",
      "note_off channel=0 note=87 velocity=64 time=0\n",
      "note_off channel=0 note=91 velocity=64 time=0\n",
      "note_off channel=0 note=62 velocity=64 time=1\n",
      "note_on channel=0 note=61 velocity=58 time=2\n",
      "note_on channel=0 note=45 velocity=44 time=3\n",
      "note_on channel=0 note=54 velocity=34 time=1\n",
      "note_off channel=0 note=45 velocity=64 time=1\n",
      "note_off channel=0 note=54 velocity=64 time=1\n",
      "note_on channel=0 note=44 velocity=35 time=1\n",
      "note_off channel=0 note=44 velocity=64 time=2\n",
      "note_on channel=0 note=53 velocity=29 time=2\n",
      "note_on channel=0 note=87 velocity=40 time=0\n",
      "note_off channel=0 note=53 velocity=64 time=2\n",
      "note_on channel=0 note=53 velocity=29 time=1\n",
      "note_off channel=0 note=53 velocity=64 time=2\n",
      "note_off channel=0 note=89 velocity=64 time=0\n",
      "note_off channel=0 note=73 velocity=64 time=1\n",
      "note_on channel=0 note=84 velocity=45 time=4\n",
      "note_on channel=0 note=89 velocity=71 time=0\n",
      "note_on channel=0 note=93 velocity=22 time=0\n",
      "note_off channel=0 note=68 velocity=64 time=1\n",
      "note_on channel=0 note=76 velocity=50 time=0\n",
      "note_off channel=0 note=77 velocity=64 time=0\n",
      "note_on channel=0 note=102 velocity=23 time=0\n",
      "note_on channel=0 note=45 velocity=77 time=1\n",
      "note_off channel=0 note=65 velocity=64 time=0\n",
      "note_on channel=0 note=69 velocity=46 time=0\n",
      "note_on channel=0 note=85 velocity=35 time=0\n",
      "note_on channel=0 note=90 velocity=33 time=0\n",
      "note_on channel=0 note=91 velocity=20 time=0\n",
      "note_on channel=0 note=67 velocity=43 time=1\n",
      "note_off channel=0 note=71 velocity=64 time=0\n",
      "note_on channel=0 note=75 velocity=44 time=0\n",
      "note_off channel=0 note=76 velocity=64 time=0\n",
      "note_on channel=0 note=77 velocity=45 time=0\n",
      "note_on channel=0 note=44 velocity=77 time=1\n",
      "note_off channel=0 note=45 velocity=64 time=0\n",
      "note_off channel=0 note=61 velocity=64 time=0\n",
      "note_on channel=0 note=71 velocity=38 time=0\n",
      "note_off channel=0 note=90 velocity=64 time=0\n",
      "note_off channel=0 note=93 velocity=64 time=0\n",
      "note_off channel=0 note=102 velocity=64 time=0\n",
      "note_off channel=0 note=69 velocity=64 time=1\n",
      "note_on channel=0 note=43 velocity=75 time=1\n",
      "note_off channel=0 note=44 velocity=64 time=0\n",
      "note_off channel=0 note=84 velocity=64 time=1\n",
      "note_on channel=0 note=62 velocity=29 time=1\n",
      "note_off channel=0 note=67 velocity=64 time=1\n",
      "note_off channel=0 note=62 velocity=64 time=1\n",
      "note_off channel=0 note=89 velocity=64 time=0\n",
      "note_on channel=0 note=65 velocity=72 time=1\n",
      "note_on channel=0 note=68 velocity=36 time=0\n",
      "note_on channel=0 note=70 velocity=32 time=0\n",
      "note_off channel=0 note=71 velocity=64 time=0\n",
      "note_off channel=0 note=87 velocity=64 time=0\n",
      "note_on channel=0 note=90 velocity=43 time=0\n",
      "note_on channel=0 note=93 velocity=10 time=1\n",
      "note_on channel=0 note=84 velocity=24 time=1\n",
      "note_off channel=0 note=85 velocity=64 time=0\n",
      "note_off channel=0 note=70 velocity=64 time=1\n",
      "note_on channel=0 note=71 velocity=43 time=0\n",
      "note_on channel=0 note=88 velocity=38 time=0\n",
      "note_off channel=0 note=43 velocity=64 time=1\n",
      "note_on channel=0 note=50 velocity=11 time=2\n",
      "note_off channel=0 note=93 velocity=64 time=0\n",
      "note_off channel=0 note=50 velocity=64 time=3\n",
      "note_off channel=0 note=91 velocity=64 time=1\n",
      "note_on channel=0 note=86 velocity=32 time=1\n",
      "note_on channel=0 note=82 velocity=20 time=3\n",
      "note_off channel=0 note=83 velocity=64 time=1\n",
      "note_on channel=0 note=83 velocity=51 time=1\n",
      "note_off channel=0 note=82 velocity=64 time=1\n",
      "note_on channel=0 note=91 velocity=47 time=0\n",
      "note_on channel=0 note=93 velocity=24 time=0\n",
      "note_off channel=0 note=75 velocity=64 time=1\n",
      "note_on channel=0 note=94 velocity=38 time=0\n",
      "note_off channel=0 note=68 velocity=64 time=1\n",
      "note_off channel=0 note=71 velocity=64 time=0\n",
      "note_on channel=0 note=72 velocity=75 time=0\n",
      "note_on channel=0 note=87 velocity=47 time=0\n",
      "note_on channel=0 note=97 velocity=19 time=0\n",
      "note_on channel=0 note=53 velocity=73 time=1\n",
      "note_on channel=0 note=58 velocity=43 time=0\n",
      "note_on channel=0 note=64 velocity=83 time=0\n",
      "note_off channel=0 note=65 velocity=64 time=0\n",
      "note_off channel=0 note=84 velocity=64 time=0\n",
      "note_on channel=0 note=45 velocity=78 time=1\n",
      "note_on channel=0 note=51 velocity=74 time=0\n",
      "note_off channel=0 note=53 velocity=64 time=0\n",
      "note_on channel=0 note=82 velocity=55 time=0\n",
      "note_on channel=0 note=100 velocity=47 time=0\n",
      "note_on channel=0 note=44 velocity=79 time=1\n",
      "note_off channel=0 note=45 velocity=64 time=0\n",
      "note_off channel=0 note=51 velocity=64 time=0\n",
      "note_on channel=0 note=52 velocity=71 time=0\n",
      "note_off channel=0 note=58 velocity=64 time=0\n",
      "note_on channel=0 note=63 velocity=75 time=0\n",
      "note_off channel=0 note=64 velocity=64 time=0\n",
      "note_on channel=0 note=70 velocity=52 time=0\n",
      "note_on channel=0 note=75 velocity=78 time=0\n",
      "note_off channel=0 note=83 velocity=64 time=0\n",
      "note_on channel=0 note=85 velocity=45 time=0\n",
      "note_off channel=0 note=86 velocity=64 time=0\n",
      "note_on channel=0 note=89 velocity=60 time=0\n",
      "note_on channel=0 note=51 velocity=69 time=1\n",
      "note_off channel=0 note=52 velocity=64 time=0\n",
      "note_on channel=0 note=71 velocity=51 time=0\n",
      "note_off channel=0 note=72 velocity=64 time=0\n",
      "note_on channel=0 note=78 velocity=57 time=0\n",
      "note_off channel=0 note=88 velocity=64 time=0\n",
      "note_off channel=0 note=90 velocity=64 time=0\n",
      "note_on channel=0 note=96 velocity=34 time=0\n",
      "note_off channel=0 note=97 velocity=64 time=0\n",
      "note_off channel=0 note=51 velocity=64 time=1\n",
      "note_off channel=0 note=70 velocity=64 time=0\n",
      "note_on channel=0 note=84 velocity=43 time=0\n",
      "note_off channel=0 note=85 velocity=64 time=0\n",
      "note_on channel=0 note=90 velocity=57 time=0\n",
      "note_off channel=0 note=93 velocity=64 time=0\n",
      "note_on channel=0 note=97 velocity=30 time=0\n",
      "note_on channel=0 note=49 velocity=65 time=1\n",
      "note_on channel=0 note=70 velocity=62 time=0\n",
      "note_off channel=0 note=71 velocity=64 time=0\n",
      "note_on channel=0 note=73 velocity=41 time=0\n",
      "note_off channel=0 note=80 velocity=64 time=0\n",
      "note_off channel=0 note=91 velocity=64 time=0\n",
      "note_on channel=0 note=93 velocity=63 time=0\n",
      "note_off channel=0 note=94 velocity=64 time=0\n",
      "note_on channel=0 note=98 velocity=26 time=0\n",
      "note_off channel=0 note=44 velocity=64 time=1\n",
      "note_off channel=0 note=49 velocity=64 time=0\n",
      "note_on channel=0 note=50 velocity=75 time=0\n",
      "note_off channel=0 note=78 velocity=64 time=0\n",
      "note_on channel=0 note=79 velocity=53 time=0\n",
      "note_off channel=0 note=90 velocity=64 time=0\n",
      "note_on channel=0 note=91 velocity=68 time=0\n",
      "note_off channel=0 note=70 velocity=64 time=1\n",
      "note_on channel=0 note=71 velocity=58 time=0\n",
      "note_off channel=0 note=77 velocity=64 time=0\n",
      "note_off channel=0 note=84 velocity=64 time=0\n",
      "note_off channel=0 note=50 velocity=64 time=1\n",
      "note_on channel=0 note=68 velocity=41 time=0\n",
      "note_off channel=0 note=73 velocity=64 time=0\n",
      "note_off channel=0 note=82 velocity=64 time=0\n",
      "note_on channel=0 note=88 velocity=33 time=0\n",
      "note_on channel=0 note=43 velocity=62 time=1\n",
      "note_off channel=0 note=63 velocity=64 time=0\n",
      "note_on channel=0 note=64 velocity=55 time=0\n",
      "note_on channel=0 note=76 velocity=65 time=0\n",
      "note_on channel=0 note=82 velocity=30 time=0\n",
      "note_on channel=0 note=90 velocity=60 time=0\n",
      "note_off channel=0 note=91 velocity=64 time=0\n",
      "note_on channel=0 note=92 velocity=68 time=0\n",
      "note_on channel=0 note=103 velocity=18 time=0\n",
      "note_on channel=0 note=52 velocity=69 time=1\n",
      "note_off channel=0 note=75 velocity=64 time=0\n",
      "note_off channel=0 note=79 velocity=64 time=0\n",
      "note_off channel=0 note=89 velocity=64 time=0\n",
      "note_off channel=0 note=97 velocity=64 time=0\n",
      "note_on channel=0 note=61 velocity=61 time=1\n",
      "note_on channel=0 note=75 velocity=62 time=0\n",
      "note_on channel=0 note=79 velocity=35 time=0\n",
      "note_off channel=0 note=82 velocity=64 time=0\n",
      "note_off channel=0 note=87 velocity=64 time=0\n",
      "note_off channel=0 note=64 velocity=64 time=1\n",
      "note_off channel=0 note=76 velocity=64 time=0\n",
      "note_on channel=0 note=82 velocity=48 time=0\n",
      "note_on channel=0 note=84 velocity=16 time=0\n",
      "note_on channel=0 note=89 velocity=44 time=0\n",
      "note_off channel=0 note=103 velocity=64 time=0\n",
      "note_off channel=0 note=43 velocity=64 time=1\n",
      "note_on channel=0 note=86 velocity=20 time=0\n",
      "note_on channel=0 note=91 velocity=47 time=0\n",
      "note_off channel=0 note=92 velocity=64 time=0\n",
      "note_on channel=0 note=51 velocity=75 time=1\n",
      "note_off channel=0 note=52 velocity=64 time=0\n",
      "note_off channel=0 note=61 velocity=64 time=0\n",
      "note_off channel=0 note=79 velocity=64 time=0\n",
      "note_off channel=0 note=96 velocity=64 time=0\n",
      "note_on channel=0 note=49 velocity=69 time=1\n",
      "note_off channel=0 note=51 velocity=64 time=0\n",
      "note_off channel=0 note=71 velocity=64 time=0\n",
      "note_on channel=0 note=96 velocity=35 time=0\n",
      "note_on channel=0 note=47 velocity=72 time=1\n",
      "note_off channel=0 note=49 velocity=64 time=0\n",
      "note_on channel=0 note=71 velocity=69 time=0\n",
      "note_on channel=0 note=79 velocity=24 time=0\n",
      "note_on channel=0 note=76 velocity=52 time=1\n",
      "note_off channel=0 note=82 velocity=64 time=0\n",
      "note_off channel=0 note=89 velocity=64 time=0\n",
      "note_off channel=0 note=91 velocity=64 time=0\n",
      "note_on channel=0 note=92 velocity=59 time=0\n",
      "note_off channel=0 note=47 velocity=64 time=1\n",
      "note_on channel=0 note=52 velocity=90 time=0\n",
      "note_on channel=0 note=65 velocity=54 time=0\n",
      "note_off channel=0 note=68 velocity=64 time=0\n",
      "note_on channel=0 note=82 velocity=32 time=0\n",
      "note_off channel=0 note=84 velocity=64 time=0\n",
      "note_off channel=0 note=86 velocity=64 time=0\n",
      "note_off channel=0 note=90 velocity=64 time=0\n",
      "note_on channel=0 note=91 velocity=44 time=0\n",
      "note_on channel=0 note=94 velocity=32 time=0\n",
      "note_off channel=0 note=96 velocity=64 time=0\n",
      "note_off channel=0 note=71 velocity=64 time=1\n",
      "note_on channel=0 note=72 velocity=85 time=0\n",
      "note_off channel=0 note=76 velocity=64 time=0\n",
      "note_on channel=0 note=81 velocity=35 time=0\n",
      "note_off channel=0 note=88 velocity=64 time=0\n",
      "note_off channel=0 note=92 velocity=64 time=0\n",
      "note_on channel=0 note=68 velocity=45 time=1\n",
      "note_off channel=0 note=98 velocity=64 time=0\n",
      "note_off channel=0 note=52 velocity=64 time=1\n",
      "note_on channel=0 note=53 velocity=85 time=0\n",
      "note_on channel=0 note=64 velocity=53 time=1\n",
      "note_off channel=0 note=65 velocity=64 time=0\n",
      "note_on channel=0 note=80 velocity=81 time=0\n",
      "note_off channel=0 note=81 velocity=64 time=0\n",
      "note_off channel=0 note=93 velocity=64 time=0\n",
      "note_on channel=0 note=95 velocity=27 time=0\n",
      "note_on channel=0 note=52 velocity=67 time=1\n",
      "note_off channel=0 note=53 velocity=64 time=0\n",
      "note_on channel=0 note=71 velocity=76 time=0\n",
      "note_off channel=0 note=72 velocity=64 time=0\n",
      "note_off channel=0 note=79 velocity=64 time=0\n",
      "note_on channel=0 note=90 velocity=26 time=0\n",
      "note_off channel=0 note=52 velocity=64 time=1\n",
      "note_off channel=0 note=75 velocity=64 time=0\n",
      "note_on channel=0 note=78 velocity=18 time=0\n",
      "note_off channel=0 note=91 velocity=64 time=0\n",
      "note_on channel=0 note=93 velocity=67 time=0\n",
      "note_off channel=0 note=94 velocity=64 time=0\n",
      "note_on channel=0 note=52 velocity=74 time=1\n",
      "note_off channel=0 note=71 velocity=64 time=0\n",
      "note_on channel=0 note=72 velocity=55 time=0\n",
      "note_on channel=0 note=75 velocity=38 time=0\n",
      "note_on channel=0 note=97 velocity=11 time=0\n",
      "note_on channel=0 note=73 velocity=30 time=1\n",
      "note_on channel=0 note=91 velocity=43 time=0\n",
      "note_off channel=0 note=64 velocity=64 time=1\n",
      "note_on channel=0 note=70 velocity=53 time=0\n",
      "note_on channel=0 note=89 velocity=40 time=0\n",
      "note_on channel=0 note=64 velocity=85 time=1\n",
      "note_off channel=0 note=73 velocity=64 time=0\n",
      "note_off channel=0 note=75 velocity=64 time=0\n",
      "note_on channel=0 note=77 velocity=43 time=0\n",
      "note_off channel=0 note=78 velocity=64 time=0\n",
      "note_off channel=0 note=97 velocity=64 time=0\n",
      "note_on channel=0 note=51 velocity=67 time=1\n",
      "note_off channel=0 note=52 velocity=64 time=0\n",
      "note_off channel=0 note=68 velocity=64 time=0\n",
      "note_off channel=0 note=70 velocity=64 time=0\n",
      "note_on channel=0 note=71 velocity=54 time=0\n",
      "note_off channel=0 note=72 velocity=64 time=0\n",
      "note_on channel=0 note=73 velocity=65 time=0\n",
      "note_off channel=0 note=90 velocity=64 time=0\n",
      "note_off channel=0 note=95 velocity=64 time=0\n",
      "note_on channel=0 note=45 velocity=75 time=1\n",
      "note_off channel=0 note=51 velocity=64 time=0\n",
      "note_on channel=0 note=52 velocity=69 time=0\n",
      "note_on channel=0 note=67 velocity=61 time=0\n",
      "note_on channel=0 note=90 velocity=55 time=0\n",
      "note_on channel=0 note=95 velocity=39 time=0\n",
      "note_on channel=0 note=44 velocity=79 time=1\n",
      "note_off channel=0 note=45 velocity=64 time=0\n",
      "note_off channel=0 note=52 velocity=64 time=0\n",
      "note_on channel=0 note=53 velocity=75 time=0\n",
      "note_on channel=0 note=63 velocity=77 time=0\n",
      "note_off channel=0 note=64 velocity=64 time=0\n",
      "note_off channel=0 note=71 velocity=64 time=0\n",
      "note_on channel=0 note=78 velocity=23 time=0\n",
      "note_on channel=0 note=86 velocity=23 time=0\n",
      "note_on channel=0 note=88 velocity=27 time=0\n",
      "note_off channel=0 note=91 velocity=64 time=0\n",
      "note_off channel=0 note=67 velocity=64 time=1\n",
      "note_on channel=0 note=71 velocity=49 time=0\n",
      "note_off channel=0 note=82 velocity=64 time=0\n",
      "note_on channel=0 note=83 velocity=51 time=0\n",
      "note_off channel=0 note=89 velocity=64 time=0\n",
      "note_on channel=0 note=91 velocity=43 time=0\n",
      "note_off channel=0 note=53 velocity=64 time=1\n",
      "note_on channel=0 note=54 velocity=66 time=0\n",
      "note_on channel=0 note=67 velocity=79 time=0\n",
      "note_off channel=0 note=73 velocity=64 time=0\n",
      "note_on channel=0 note=74 velocity=59 time=0\n",
      "note_off channel=0 note=77 velocity=64 time=0\n",
      "note_on channel=0 note=89 velocity=73 time=0\n",
      "note_off channel=0 note=44 velocity=64 time=1\n",
      "note_on channel=0 note=45 velocity=77 time=0\n",
      "note_off channel=0 note=54 velocity=64 time=0\n",
      "note_on channel=0 note=55 velocity=68 time=0\n",
      "note_off channel=0 note=63 velocity=64 time=0\n",
      "note_off channel=0 note=71 velocity=64 time=0\n",
      "note_on channel=0 note=82 velocity=35 time=0\n",
      "note_on channel=0 note=97 velocity=28 time=0\n",
      "note_on channel=0 note=99 velocity=31 time=0\n",
      "note_on channel=0 note=65 velocity=53 time=1\n",
      "note_on channel=0 note=71 velocity=27 time=0\n",
      "note_off channel=0 note=74 velocity=64 time=0\n",
      "note_on channel=0 note=75 velocity=76 time=0\n",
      "note_off channel=0 note=88 velocity=64 time=0\n",
      "note_off channel=0 note=91 velocity=64 time=0\n",
      "note_off channel=0 note=55 velocity=64 time=1\n",
      "note_on channel=0 note=56 velocity=64 time=0\n",
      "note_off channel=0 note=67 velocity=64 time=0\n",
      "note_on channel=0 note=68 velocity=78 time=0\n",
      "note_on channel=0 note=84 velocity=55 time=0\n",
      "note_on channel=0 note=91 velocity=28 time=0\n",
      "note_on channel=0 note=94 velocity=55 time=0\n",
      "note_on channel=0 note=44 velocity=71 time=1\n",
      "note_off channel=0 note=45 velocity=64 time=0\n",
      "note_on channel=0 note=61 velocity=59 time=0\n",
      "note_off channel=0 note=82 velocity=64 time=0\n",
      "note_off channel=0 note=86 velocity=64 time=0\n",
      "note_off channel=0 note=95 velocity=64 time=0\n",
      "note_on channel=0 note=43 velocity=65 time=1\n",
      "note_off channel=0 note=44 velocity=64 time=0\n",
      "note_on channel=0 note=86 velocity=22 time=0\n",
      "note_off channel=0 note=93 velocity=64 time=0\n",
      "note_off channel=0 note=97 velocity=64 time=0\n",
      "note_off channel=0 note=71 velocity=64 time=1\n",
      "note_on channel=0 note=82 velocity=27 time=0\n",
      "note_on channel=0 note=93 velocity=42 time=0\n",
      "note_on channel=0 note=42 velocity=59 time=1\n",
      "note_off channel=0 note=43 velocity=64 time=0\n",
      "note_off channel=0 note=83 velocity=64 time=0\n",
      "note_off channel=0 note=91 velocity=64 time=0\n",
      "note_on channel=0 note=91 velocity=30 time=1\n",
      "note_off channel=0 note=100 velocity=64 time=0\n",
      "note_off channel=0 note=42 velocity=64 time=1\n",
      "note_off channel=0 note=99 velocity=64 time=0\n",
      "note_on channel=0 note=46 velocity=65 time=1\n",
      "note_off channel=0 note=78 velocity=64 time=0\n",
      "note_off channel=0 note=91 velocity=64 time=0\n",
      "note_off channel=0 note=46 velocity=64 time=1\n",
      "note_on channel=0 note=48 velocity=67 time=0\n",
      "note_on channel=0 note=47 velocity=73 time=2\n",
      "note_off channel=0 note=48 velocity=64 time=0\n",
      "note_on channel=0 note=100 velocity=29 time=1\n",
      "note_off channel=0 note=47 velocity=64 time=1\n",
      "note_on channel=0 note=49 velocity=68 time=0\n",
      "note_off channel=0 note=56 velocity=64 time=0\n",
      "note_off channel=0 note=49 velocity=64 time=1\n",
      "note_on channel=0 note=50 velocity=76 time=0\n",
      "note_off channel=0 note=65 velocity=64 time=0\n",
      "note_on channel=0 note=83 velocity=47 time=0\n",
      "note_off channel=0 note=50 velocity=64 time=1\n",
      "note_on channel=0 note=54 velocity=74 time=0\n",
      "note_off channel=0 note=61 velocity=64 time=0\n",
      "note_on channel=0 note=65 velocity=61 time=0\n",
      "note_on channel=0 note=71 velocity=17 time=0\n",
      "note_off channel=0 note=82 velocity=64 time=0\n",
      "note_off channel=0 note=86 velocity=64 time=0\n",
      "note_off channel=0 note=54 velocity=64 time=1\n",
      "note_on channel=0 note=91 velocity=32 time=0\n",
      "note_off channel=0 note=100 velocity=64 time=0\n",
      "note_on channel=0 note=85 velocity=41 time=1\n",
      "note_off channel=0 note=90 velocity=64 time=0\n",
      "note_on channel=0 note=55 velocity=67 time=1\n",
      "note_off channel=0 note=71 velocity=64 time=1\n",
      "note_off channel=0 note=55 velocity=64 time=1\n",
      "note_on channel=0 note=56 velocity=57 time=0\n",
      "note_on channel=0 note=71 velocity=22 time=0\n",
      "note_on channel=0 note=90 velocity=33 time=0\n",
      "note_off channel=0 note=91 velocity=64 time=0\n",
      "note_on channel=0 note=91 velocity=66 time=1\n",
      "note_off channel=0 note=94 velocity=64 time=0\n",
      "note_on channel=0 note=48 velocity=88 time=2\n",
      "note_off channel=0 note=56 velocity=64 time=0\n",
      "note_on channel=0 note=57 velocity=74 time=0\n",
      "note_off channel=0 note=68 velocity=64 time=0\n",
      "note_off channel=0 note=71 velocity=64 time=0\n",
      "note_off channel=0 note=75 velocity=64 time=0\n",
      "note_on channel=0 note=76 velocity=75 time=0\n",
      "note_on channel=0 note=78 velocity=37 time=0\n",
      "note_off channel=0 note=90 velocity=64 time=1\n",
      "note_on channel=0 note=94 velocity=24 time=0\n",
      "note_off channel=0 note=65 velocity=64 time=1\n",
      "note_on channel=0 note=86 velocity=32 time=0\n",
      "note_on channel=0 note=65 velocity=51 time=1\n",
      "note_off channel=0 note=78 velocity=64 time=0\n",
      "note_off channel=0 note=83 velocity=64 time=0\n",
      "note_off channel=0 note=85 velocity=64 time=0\n",
      "note_on channel=0 note=46 velocity=65 time=1\n",
      "note_off channel=0 note=48 velocity=64 time=0\n",
      "note_on channel=0 note=83 velocity=49 time=0\n",
      "note_on channel=0 note=85 velocity=57 time=0\n",
      "note_off channel=0 note=86 velocity=64 time=0\n",
      "note_on channel=0 note=87 velocity=43 time=0\n",
      "note_off channel=0 note=94 velocity=64 time=0\n",
      "note_off channel=0 note=46 velocity=64 time=1\n",
      "note_on channel=0 note=48 velocity=67 time=1\n",
      "note_off channel=0 note=57 velocity=64 time=0\n",
      "note_off channel=0 note=48 velocity=64 time=1\n",
      "note_on channel=0 note=57 velocity=67 time=0\n",
      "note_on channel=0 note=45 velocity=60 time=1\n",
      "note_on channel=0 note=61 velocity=24 time=1\n",
      "note_on channel=0 note=44 velocity=53 time=2\n",
      "note_off channel=0 note=45 velocity=64 time=0\n",
      "note_off channel=0 note=61 velocity=64 time=3\n",
      "note_on channel=0 note=90 velocity=20 time=0\n",
      "note_on channel=0 note=43 velocity=30 time=2\n",
      "note_off channel=0 note=44 velocity=64 time=0\n",
      "note_off channel=0 note=65 velocity=64 time=0\n",
      "note_on channel=0 note=82 velocity=36 time=2\n",
      "note_off channel=0 note=83 velocity=64 time=1\n",
      "note_off channel=0 note=43 velocity=64 time=3\n",
      "note_on channel=0 note=43 velocity=22 time=2\n",
      "note_off channel=0 note=43 velocity=64 time=5\n",
      "note_off channel=0 note=90 velocity=64 time=0\n",
      "note_on channel=0 note=95 velocity=44 time=0\n",
      "note_on channel=0 note=47 velocity=66 time=1\n",
      "note_off channel=0 note=82 velocity=64 time=0\n",
      "note_on channel=0 note=94 velocity=9 time=0\n",
      "note_on channel=0 note=102 velocity=17 time=0\n",
      "note_on channel=0 note=45 velocity=75 time=1\n",
      "note_off channel=0 note=47 velocity=64 time=0\n",
      "note_on channel=0 note=67 velocity=46 time=0\n",
      "note_off channel=0 note=85 velocity=64 time=0\n",
      "note_on channel=0 note=90 velocity=51 time=0\n",
      "note_off channel=0 note=91 velocity=64 time=0\n",
      "note_on channel=0 note=44 velocity=77 time=1\n",
      "note_off channel=0 note=45 velocity=64 time=0\n",
      "note_on channel=0 note=85 velocity=49 time=0\n",
      "note_off channel=0 note=67 velocity=64 time=1\n",
      "note_off channel=0 note=94 velocity=64 time=0\n",
      "note_on channel=0 note=62 velocity=30 time=1\n",
      "note_on channel=0 note=43 velocity=73 time=1\n",
      "note_off channel=0 note=44 velocity=64 time=0\n",
      "note_on channel=0 note=83 velocity=39 time=0\n",
      "note_off channel=0 note=84 velocity=64 time=0\n",
      "note_off channel=0 note=90 velocity=64 time=1\n",
      "note_on channel=0 note=91 velocity=58 time=0\n",
      "note_off channel=0 note=102 velocity=64 time=0\n",
      "note_on channel=0 note=65 velocity=26 time=1\n",
      "note_on channel=0 note=90 velocity=42 time=0\n",
      "note_off channel=0 note=95 velocity=64 time=0\n",
      "note_off channel=0 note=62 velocity=64 time=1\n",
      "note_off channel=0 note=89 velocity=64 time=0\n",
      "note_on channel=0 note=71 velocity=30 time=3\n",
      "note_on channel=0 note=73 velocity=16 time=1\n",
      "note_on channel=0 note=101 velocity=33 time=0\n",
      "note_off channel=0 note=43 velocity=64 time=1\n",
      "note_on channel=0 note=44 velocity=19 time=0\n",
      "note_off channel=0 note=71 velocity=64 time=0\n",
      "note_off channel=0 note=44 velocity=64 time=3\n",
      "note_on channel=0 note=64 velocity=32 time=4\n",
      "note_off channel=0 note=65 velocity=64 time=0\n",
      "note_on channel=0 note=82 velocity=33 time=0\n",
      "note_off channel=0 note=83 velocity=64 time=1\n",
      "note_off channel=0 note=64 velocity=64 time=1\n",
      "note_on channel=0 note=65 velocity=75 time=0\n",
      "note_off channel=0 note=82 velocity=64 time=0\n",
      "note_on channel=0 note=82 velocity=30 time=1\n",
      "note_on channel=0 note=89 velocity=33 time=0\n",
      "note_off channel=0 note=73 velocity=64 time=2\n",
      "note_off channel=0 note=89 velocity=64 time=0\n",
      "note_on channel=0 note=73 velocity=34 time=2\n",
      "note_on channel=0 note=83 velocity=52 time=1\n",
      "note_on channel=0 note=89 velocity=44 time=0\n",
      "note_on channel=0 note=71 velocity=29 time=1\n",
      "note_off channel=0 note=82 velocity=64 time=0\n",
      "note_on channel=0 note=45 velocity=78 time=1\n",
      "note_on channel=0 note=64 velocity=83 time=0\n",
      "note_off channel=0 note=65 velocity=64 time=0\n",
      "note_on channel=0 note=44 velocity=79 time=2\n",
      "note_off channel=0 note=45 velocity=64 time=0\n",
      "note_on channel=0 note=63 velocity=69 time=0\n",
      "note_off channel=0 note=64 velocity=64 time=0\n",
      "note_off channel=0 note=71 velocity=64 time=1\n",
      "note_off channel=0 note=89 velocity=64 time=0\n",
      "note_off channel=0 note=63 velocity=64 time=1\n",
      "note_on channel=0 note=65 velocity=44 time=0\n",
      "note_off channel=0 note=44 velocity=64 time=1\n",
      "note_on channel=0 note=45 velocity=66 time=0\n",
      "note_on channel=0 note=61 velocity=60 time=0\n",
      "note_off channel=0 note=80 velocity=64 time=0\n",
      "note_on channel=0 note=41 velocity=55 time=1\n",
      "note_off channel=0 note=45 velocity=64 time=0\n",
      "note_on channel=0 note=80 velocity=20 time=1\n",
      "note_off channel=0 note=41 velocity=64 time=1\n",
      "note_on channel=0 note=89 velocity=73 time=1\n",
      "note_on channel=0 note=42 velocity=54 time=2\n",
      "note_on channel=0 note=96 velocity=10 time=1\n",
      "note_off channel=0 note=42 velocity=64 time=1\n",
      "note_on channel=0 note=47 velocity=72 time=1\n",
      "note_off channel=0 note=65 velocity=64 time=2\n",
      "note_off channel=0 note=96 velocity=64 time=0\n",
      "note_off channel=0 note=47 velocity=64 time=1\n",
      "note_on channel=0 note=48 velocity=71 time=0\n",
      "note_off channel=0 note=48 velocity=64 time=1\n",
      "note_on channel=0 note=49 velocity=71 time=0\n",
      "note_off channel=0 note=61 velocity=64 time=0\n",
      "note_on channel=0 note=62 velocity=31 time=0\n",
      "note_off channel=0 note=49 velocity=64 time=1\n",
      "note_on channel=0 note=50 velocity=78 time=0\n",
      "note_off channel=0 note=57 velocity=64 time=0\n",
      "note_off channel=0 note=50 velocity=64 time=1\n",
      "note_on channel=0 note=53 velocity=73 time=0\n",
      "note_off channel=0 note=62 velocity=64 time=1\n",
      "note_off channel=0 note=80 velocity=64 time=0\n",
      "note_off channel=0 note=53 velocity=64 time=1\n",
      "note_on channel=0 note=57 velocity=63 time=0\n",
      "note_on channel=0 note=62 velocity=13 time=0\n",
      "note_off channel=0 note=101 velocity=64 time=0\n",
      "note_off channel=0 note=90 velocity=64 time=2\n",
      "note_on channel=0 note=61 velocity=16 time=1\n",
      "note_off channel=0 note=62 velocity=64 time=0\n",
      "note_on channel=0 note=80 velocity=33 time=0\n",
      "note_off channel=0 note=57 velocity=64 time=3\n",
      "note_off channel=0 note=61 velocity=64 time=0\n",
      "note_on channel=0 note=64 velocity=81 time=0\n",
      "note_off channel=0 note=73 velocity=64 time=0\n",
      "note_on channel=0 note=90 velocity=41 time=0\n",
      "note_on channel=0 note=45 velocity=78 time=1\n",
      "note_on channel=0 note=67 velocity=64 time=0\n",
      "note_off channel=0 note=80 velocity=64 time=0\n",
      "note_on channel=0 note=84 velocity=14 time=0\n",
      "note_on channel=0 note=73 velocity=27 time=1\n",
      "note_on channel=0 note=80 velocity=81 time=0\n",
      "note_on channel=0 note=44 velocity=79 time=1\n",
      "note_off channel=0 note=45 velocity=64 time=0\n",
      "note_on channel=0 note=63 velocity=70 time=0\n",
      "note_off channel=0 note=64 velocity=64 time=0\n",
      "note_off channel=0 note=67 velocity=64 time=0\n",
      "note_off channel=0 note=84 velocity=64 time=1\n",
      "note_off channel=0 note=90 velocity=64 time=0\n",
      "note_off channel=0 note=63 velocity=64 time=1\n",
      "note_on channel=0 note=61 velocity=42 time=1\n",
      "note_off channel=0 note=44 velocity=64 time=1\n",
      "note_off channel=0 note=61 velocity=64 time=2\n",
      "note_on channel=0 note=43 velocity=62 time=1\n",
      "note_on channel=0 note=61 velocity=62 time=0\n",
      "note_on channel=0 note=42 velocity=56 time=2\n",
      "note_off channel=0 note=43 velocity=64 time=0\n",
      "note_on channel=0 note=71 velocity=36 time=1\n",
      "note_off channel=0 note=42 velocity=64 time=1\n",
      "note_off channel=0 note=73 velocity=64 time=0\n",
      "note_off channel=0 note=71 velocity=64 time=1\n",
      "note_on channel=0 note=47 velocity=74 time=2\n",
      "note_off channel=0 note=47 velocity=64 time=2\n",
      "note_on channel=0 note=48 velocity=71 time=0\n",
      "note_on channel=0 note=65 velocity=32 time=0\n",
      "note_off channel=0 note=48 velocity=64 time=1\n",
      "note_on channel=0 note=49 velocity=78 time=0\n",
      "note_off channel=0 note=49 velocity=64 time=1\n",
      "note_on channel=0 note=52 velocity=75 time=0\n",
      "note_off channel=0 note=52 velocity=64 time=1\n",
      "note_on channel=0 note=53 velocity=65 time=0\n",
      "note_off channel=0 note=53 velocity=64 time=1\n",
      "note_on channel=0 note=57 velocity=61 time=0\n",
      "note_on channel=0 note=53 velocity=58 time=2\n",
      "note_off channel=0 note=53 velocity=64 time=2\n",
      "note_on channel=0 note=48 velocity=88 time=2\n",
      "note_on channel=0 note=84 velocity=26 time=0\n",
      "note_off channel=0 note=61 velocity=64 time=1\n",
      "note_on channel=0 note=64 velocity=58 time=0\n",
      "note_off channel=0 note=65 velocity=64 time=0\n",
      "note_on channel=0 note=100 velocity=19 time=0\n",
      "note_off channel=0 note=57 velocity=64 time=1\n",
      "note_on channel=0 note=57 velocity=62 time=1\n",
      "note_on channel=0 note=63 velocity=48 time=0\n",
      "note_off channel=0 note=64 velocity=64 time=0\n",
      "note_on channel=0 note=71 velocity=43 time=0\n",
      "note_on channel=0 note=46 velocity=69 time=1\n",
      "note_off channel=0 note=48 velocity=64 time=0\n",
      "note_off channel=0 note=84 velocity=64 time=0\n",
      "note_off channel=0 note=87 velocity=64 time=0\n",
      "note_off channel=0 note=100 velocity=64 time=0\n",
      "note_on channel=0 note=65 velocity=36 time=1\n",
      "note_off channel=0 note=71 velocity=64 time=0\n",
      "note_off channel=0 note=46 velocity=64 time=1\n",
      "note_on channel=0 note=47 velocity=67 time=0\n",
      "note_on channel=0 note=61 velocity=25 time=0\n",
      "note_off channel=0 note=63 velocity=64 time=0\n",
      "note_on channel=0 note=71 velocity=41 time=0\n",
      "note_off channel=0 note=47 velocity=64 time=1\n",
      "note_on channel=0 note=90 velocity=57 time=0\n",
      "note_off channel=0 note=91 velocity=64 time=0\n",
      "note_on channel=0 note=45 velocity=60 time=1\n",
      "note_on channel=0 note=87 velocity=20 time=0\n",
      "note_off channel=0 note=71 velocity=64 time=1\n",
      "note_on channel=0 note=75 velocity=42 time=0\n",
      "note_off channel=0 note=76 velocity=64 time=0\n",
      "note_off channel=0 note=57 velocity=64 time=1\n",
      "note_on channel=0 note=68 velocity=57 time=0\n",
      "note_on channel=0 note=71 velocity=36 time=0\n",
      "note_on channel=0 note=57 velocity=65 time=1\n",
      "note_off channel=0 note=75 velocity=64 time=0\n",
      "note_on channel=0 note=76 velocity=60 time=0\n",
      "note_on channel=0 note=84 velocity=23 time=0\n",
      "note_on channel=0 note=44 velocity=50 time=1\n",
      "note_off channel=0 note=45 velocity=64 time=0\n",
      "note_off channel=0 note=65 velocity=64 time=0\n",
      "note_off channel=0 note=68 velocity=64 time=0\n",
      "note_off channel=0 note=85 velocity=64 time=0\n",
      "note_off channel=0 note=87 velocity=64 time=0\n",
      "note_off channel=0 note=71 velocity=64 time=1\n",
      "note_on channel=0 note=87 velocity=40 time=0\n",
      "note_on channel=0 note=65 velocity=10 time=1\n",
      "note_off channel=0 note=90 velocity=64 time=0\n",
      "note_on channel=0 note=91 velocity=48 time=0\n",
      "note_off channel=0 note=84 velocity=64 time=1\n",
      "note_on channel=0 note=43 velocity=36 time=1\n",
      "note_off channel=0 note=44 velocity=64 time=0\n",
      "note_off channel=0 note=65 velocity=64 time=2\n",
      "note_off channel=0 note=43 velocity=64 time=1\n",
      "note_on channel=0 note=102 velocity=10 time=0\n",
      "note_on channel=0 note=71 velocity=37 time=1\n",
      "note_on channel=0 note=90 velocity=38 time=0\n",
      "note_off channel=0 note=91 velocity=64 time=0\n",
      "note_off channel=0 note=61 velocity=64 time=1\n",
      "note_on channel=0 note=68 velocity=59 time=0\n",
      "note_on channel=0 note=75 velocity=54 time=0\n",
      "note_on channel=0 note=84 velocity=48 time=0\n",
      "note_off channel=0 note=89 velocity=64 time=0\n",
      "note_on channel=0 note=56 velocity=63 time=1\n",
      "note_off channel=0 note=57 velocity=64 time=0\n",
      "note_on channel=0 note=65 velocity=35 time=0\n",
      "note_off channel=0 note=76 velocity=64 time=0\n",
      "note_on channel=0 note=79 velocity=12 time=1\n",
      "note_on channel=0 note=42 velocity=14 time=1\n",
      "note_off channel=0 note=102 velocity=64 time=0\n",
      "note_off channel=0 note=42 velocity=64 time=3\n",
      "note_on channel=0 note=61 velocity=54 time=2\n",
      "note_off channel=0 note=79 velocity=64 time=0\n",
      "note_on channel=0 note=88 velocity=33 time=0\n",
      "note_on channel=0 note=89 velocity=72 time=0\n",
      "note_off channel=0 note=65 velocity=64 time=1\n",
      "note_off channel=0 note=90 velocity=64 time=0\n",
      "note_on channel=0 note=102 velocity=16 time=0\n",
      "note_on channel=0 note=45 velocity=76 time=1\n",
      "note_off channel=0 note=71 velocity=64 time=0\n",
      "note_off channel=0 note=75 velocity=64 time=0\n",
      "note_on channel=0 note=77 velocity=45 time=0\n",
      "note_on channel=0 note=85 velocity=37 time=0\n",
      "note_off channel=0 note=88 velocity=64 time=0\n",
      "note_on channel=0 note=90 velocity=38 time=0\n",
      "note_off channel=0 note=61 velocity=64 time=1\n",
      "note_off channel=0 note=68 velocity=64 time=0\n",
      "note_on channel=0 note=73 velocity=30 time=0\n",
      "note_on channel=0 note=75 velocity=29 time=0\n",
      "note_on channel=0 note=44 velocity=77 time=1\n",
      "note_off channel=0 note=45 velocity=64 time=0\n",
      "note_on channel=0 note=63 velocity=39 time=0\n",
      "note_off channel=0 note=102 velocity=64 time=0\n",
      "note_on channel=0 note=65 velocity=40 time=1\n",
      "note_on channel=0 note=71 velocity=52 time=0\n",
      "note_off channel=0 note=75 velocity=64 time=0\n",
      "note_on channel=0 note=62 velocity=34 time=1\n",
      "note_off channel=0 note=63 velocity=64 time=0\n",
      "note_on channel=0 note=75 velocity=41 time=0\n",
      "note_on channel=0 note=43 velocity=73 time=1\n",
      "note_off channel=0 note=44 velocity=64 time=0\n",
      "note_off channel=0 note=87 velocity=64 time=0\n",
      "note_off channel=0 note=90 velocity=64 time=2\n",
      "note_off channel=0 note=56 velocity=64 time=1\n",
      "note_off channel=0 note=62 velocity=64 time=0\n",
      "note_on channel=0 note=56 velocity=31 time=2\n",
      "note_off channel=0 note=89 velocity=64 time=0\n",
      "note_off channel=0 note=43 velocity=64 time=1\n",
      "note_on channel=0 note=44 velocity=32 time=0\n",
      "note_off channel=0 note=84 velocity=64 time=1\n",
      "note_off channel=0 note=44 velocity=64 time=3\n",
      "note_off channel=0 note=93 velocity=64 time=0\n",
      "note_off channel=0 note=56 velocity=64 time=1\n",
      "note_off channel=0 note=85 velocity=64 time=3\n",
      "note_off channel=0 note=77 velocity=64 time=4\n",
      "note_on channel=0 note=62 velocity=89 time=5\n",
      "note_off channel=0 note=65 velocity=64 time=0\n",
      "note_off channel=0 note=73 velocity=64 time=0\n",
      "note_on channel=0 note=82 velocity=59 time=0\n",
      "note_on channel=0 note=89 velocity=56 time=0\n",
      "note_on channel=0 note=57 velocity=55 time=1\n",
      "note_on channel=0 note=77 velocity=36 time=0\n",
      "note_on channel=0 note=78 velocity=33 time=0\n",
      "note_off channel=0 note=83 velocity=64 time=0\n",
      "note_on channel=0 note=84 velocity=39 time=0\n",
      "note_on channel=0 note=90 velocity=44 time=0\n",
      "note_off channel=0 note=62 velocity=64 time=1\n",
      "note_on channel=0 note=63 velocity=94 time=0\n",
      "note_off channel=0 note=77 velocity=64 time=1\n",
      "note_off channel=0 note=78 velocity=64 time=0\n",
      "note_off channel=0 note=84 velocity=64 time=0\n",
      "note_off channel=0 note=90 velocity=64 time=0\n",
      "note_off channel=0 note=57 velocity=64 time=1\n",
      "note_off channel=0 note=82 velocity=64 time=0\n",
      "note_on channel=0 note=82 velocity=19 time=1\n",
      "note_on channel=0 note=90 velocity=29 time=0\n",
      "note_on channel=0 note=56 velocity=76 time=2\n",
      "note_on channel=0 note=91 velocity=28 time=0\n",
      "note_on channel=0 note=67 velocity=32 time=1\n",
      "note_off channel=0 note=82 velocity=64 time=0\n",
      "note_on channel=0 note=84 velocity=37 time=0\n",
      "note_off channel=0 note=67 velocity=64 time=2\n",
      "note_off channel=0 note=90 velocity=64 time=0\n",
      "note_off channel=0 note=75 velocity=64 time=2\n",
      "note_on channel=0 note=77 velocity=29 time=0\n",
      "note_on channel=0 note=87 velocity=10 time=0\n",
      "note_off channel=0 note=84 velocity=64 time=2\n",
      "note_on channel=0 note=102 velocity=9 time=0\n",
      "note_off channel=0 note=80 velocity=64 time=1\n",
      "note_off channel=0 note=87 velocity=64 time=1\n",
      "note_on channel=0 note=94 velocity=27 time=1\n",
      "note_on channel=0 note=79 velocity=25 time=2\n",
      "note_off channel=0 note=102 velocity=64 time=2\n",
      "note_off channel=0 note=79 velocity=64 time=1\n",
      "note_on channel=0 note=80 velocity=86 time=0\n",
      "note_on channel=0 note=90 velocity=41 time=0\n",
      "note_off channel=0 note=91 velocity=64 time=0\n",
      "note_on channel=0 note=84 velocity=71 time=1\n",
      "note_on channel=0 note=91 velocity=35 time=0\n",
      "note_on channel=0 note=86 velocity=17 time=2\n",
      "note_off channel=0 note=71 velocity=64 time=2\n",
      "note_on channel=0 note=83 velocity=58 time=0\n",
      "note_off channel=0 note=90 velocity=64 time=0\n",
      "note_on channel=0 note=90 velocity=57 time=1\n",
      "note_on channel=0 note=71 velocity=44 time=1\n",
      "note_on channel=0 note=72 velocity=44 time=0\n",
      "note_off channel=0 note=91 velocity=64 time=0\n",
      "note_off channel=0 note=56 velocity=64 time=1\n",
      "note_on channel=0 note=62 velocity=79 time=0\n",
      "note_off channel=0 note=63 velocity=64 time=0\n",
      "note_off channel=0 note=77 velocity=64 time=0\n",
      "note_on channel=0 note=78 velocity=41 time=0\n",
      "note_on channel=0 note=85 velocity=30 time=0\n",
      "note_off channel=0 note=86 velocity=64 time=0\n",
      "note_off channel=0 note=72 velocity=64 time=1\n",
      "note_on channel=0 note=77 velocity=36 time=0\n",
      "note_off channel=0 note=62 velocity=64 time=1\n",
      "note_on channel=0 note=63 velocity=85 time=0\n",
      "note_off channel=0 note=78 velocity=64 time=0\n",
      "note_on channel=0 note=82 velocity=38 time=0\n",
      "note_off channel=0 note=83 velocity=64 time=0\n",
      "note_on channel=0 note=91 velocity=34 time=0\n",
      "note_on channel=0 note=56 velocity=55 time=1\n",
      "note_off channel=0 note=71 velocity=64 time=0\n",
      "note_on channel=0 note=72 velocity=16 time=0\n",
      "note_off channel=0 note=72 velocity=64 time=3\n",
      "note_on channel=0 note=71 velocity=21 time=1\n",
      "note_off channel=0 note=85 velocity=64 time=0\n",
      "note_on channel=0 note=86 velocity=26 time=0\n",
      "note_off channel=0 note=91 velocity=64 time=2\n",
      "note_off channel=0 note=94 velocity=64 time=2\n",
      "note_on channel=0 note=88 velocity=20 time=1\n",
      "note_off channel=0 note=86 velocity=64 time=1\n",
      "note_off channel=0 note=89 velocity=64 time=0\n",
      "note_on channel=0 note=91 velocity=33 time=0\n",
      "note_on channel=0 note=73 velocity=15 time=1\n",
      "note_on channel=0 note=86 velocity=27 time=0\n",
      "note_off channel=0 note=82 velocity=64 time=2\n",
      "note_off channel=0 note=71 velocity=64 time=2\n",
      "note_on channel=0 note=82 velocity=23 time=0\n",
      "note_off channel=0 note=86 velocity=64 time=0\n",
      "note_off channel=0 note=88 velocity=64 time=0\n",
      "note_on channel=0 note=89 velocity=81 time=0\n",
      "note_on channel=0 note=71 velocity=18 time=1\n",
      "note_on channel=0 note=86 velocity=26 time=0\n",
      "note_off channel=0 note=82 velocity=64 time=2\n",
      "note_on channel=0 note=82 velocity=31 time=1\n",
      "note_off channel=0 note=71 velocity=64 time=1\n",
      "note_off channel=0 note=86 velocity=64 time=0\n",
      "note_on channel=0 note=71 velocity=18 time=1\n",
      "note_on channel=0 note=86 velocity=22 time=0\n",
      "note_off channel=0 note=73 velocity=64 time=1\n",
      "note_off channel=0 note=91 velocity=64 time=2\n",
      "note_off channel=0 note=77 velocity=64 time=1\n",
      "note_on channel=0 note=78 velocity=42 time=0\n",
      "note_on channel=0 note=95 velocity=49 time=0\n",
      "note_off channel=0 note=86 velocity=64 time=1\n",
      "note_off channel=0 note=90 velocity=64 time=0\n",
      "note_on channel=0 note=102 velocity=24 time=0\n",
      "note_on channel=0 note=73 velocity=30 time=1\n",
      "note_on channel=0 note=77 velocity=36 time=0\n",
      "note_off channel=0 note=78 velocity=64 time=0\n",
      "note_on channel=0 note=85 velocity=42 time=0\n",
      "note_on channel=0 note=93 velocity=18 time=0\n",
      "note_off channel=0 note=71 velocity=64 time=1\n",
      "note_on channel=0 note=91 velocity=24 time=0\n",
      "note_on channel=0 note=71 velocity=37 time=1\n",
      "note_on channel=0 note=88 velocity=37 time=0\n",
      "note_on channel=0 note=90 velocity=30 time=0\n",
      "note_off channel=0 note=93 velocity=64 time=1\n",
      "note_off channel=0 note=95 velocity=64 time=0\n",
      "note_on channel=0 note=78 velocity=19 time=1\n",
      "note_off channel=0 note=88 velocity=64 time=0\n",
      "note_off channel=0 note=90 velocity=64 time=0\n",
      "note_off channel=0 note=77 velocity=64 time=1\n",
      "note_on channel=0 note=90 velocity=36 time=0\n",
      "note_off channel=0 note=102 velocity=64 time=0\n",
      "note_off channel=0 note=63 velocity=64 time=3\n",
      "note_off channel=0 note=78 velocity=64 time=0\n",
      "note_on channel=0 note=78 velocity=22 time=1\n",
      "note_off channel=0 note=85 velocity=64 time=1\n",
      "note_on channel=0 note=65 velocity=28 time=2\n",
      "note_off channel=0 note=82 velocity=64 time=0\n",
      "note_off channel=0 note=78 velocity=64 time=1\n",
      "note_on channel=0 note=82 velocity=25 time=0\n",
      "note_off channel=0 note=91 velocity=64 time=1\n",
      "note_off channel=0 note=89 velocity=64 time=2\n",
      "note_on channel=0 note=77 velocity=42 time=2\n",
      "note_on channel=0 note=88 velocity=22 time=0\n",
      "note_on channel=0 note=93 velocity=36 time=0\n",
      "note_on channel=0 note=86 velocity=24 time=2\n",
      "note_on channel=0 note=91 velocity=33 time=1\n",
      "note_off channel=0 note=88 velocity=64 time=4\n",
      "note_on channel=0 note=89 velocity=52 time=0\n",
      "note_off channel=0 note=86 velocity=64 time=1\n",
      "note_off channel=0 note=65 velocity=64 time=1\n",
      "note_off channel=0 note=56 velocity=64 time=1\n",
      "note_on channel=0 note=61 velocity=77 time=0\n",
      "note_on channel=0 note=66 velocity=58 time=0\n",
      "note_off channel=0 note=73 velocity=64 time=0\n",
      "note_off channel=0 note=82 velocity=64 time=0\n",
      "note_on channel=0 note=83 velocity=68 time=0\n",
      "note_on channel=0 note=53 velocity=64 time=1\n",
      "note_off channel=0 note=71 velocity=64 time=0\n",
      "note_off channel=0 note=91 velocity=64 time=0\n",
      "note_on channel=0 note=63 velocity=66 time=1\n",
      "note_off channel=0 note=66 velocity=64 time=0\n",
      "note_on channel=0 note=68 velocity=72 time=0\n",
      "note_off channel=0 note=53 velocity=64 time=1\n",
      "note_off channel=0 note=63 velocity=64 time=0\n",
      "note_on channel=0 note=91 velocity=27 time=0\n",
      "note_off channel=0 note=61 velocity=64 time=1\n",
      "note_on channel=0 note=62 velocity=62 time=0\n",
      "note_off channel=0 note=89 velocity=64 time=0\n",
      "note_on channel=0 note=65 velocity=46 time=1\n",
      "note_off channel=0 note=90 velocity=64 time=0\n",
      "note_on channel=0 note=61 velocity=29 time=1\n",
      "note_off channel=0 note=62 velocity=64 time=0\n",
      "note_on channel=0 note=71 velocity=15 time=0\n",
      "note_on channel=0 note=90 velocity=33 time=0\n",
      "note_on channel=0 note=56 velocity=48 time=1\n",
      "note_off channel=0 note=91 velocity=64 time=0\n",
      "note_off channel=0 note=56 velocity=64 time=3\n",
      "note_on channel=0 note=57 velocity=71 time=0\n",
      "note_off channel=0 note=71 velocity=64 time=0\n",
      "note_on channel=0 note=76 velocity=68 time=0\n",
      "note_off channel=0 note=68 velocity=64 time=1\n",
      "note_off channel=0 note=77 velocity=64 time=0\n",
      "note_off channel=0 note=61 velocity=64 time=1\n",
      "note_off channel=0 note=80 velocity=64 time=0\n",
      "note_off channel=0 note=84 velocity=64 time=0\n",
      "note_on channel=0 note=85 velocity=50 time=0\n",
      "note_on channel=0 note=61 velocity=47 time=1\n",
      "note_on channel=0 note=80 velocity=28 time=0\n",
      "note_off channel=0 note=90 velocity=64 time=0\n",
      "note_on channel=0 note=91 velocity=25 time=0\n",
      "note_off channel=0 note=65 velocity=64 time=2\n",
      "note_on channel=0 note=87 velocity=54 time=0\n",
      "note_on channel=0 note=90 velocity=36 time=0\n",
      "note_off channel=0 note=57 velocity=64 time=1\n",
      "note_on channel=0 note=58 velocity=56 time=0\n",
      "note_off channel=0 note=80 velocity=64 time=0\n",
      "note_off channel=0 note=91 velocity=64 time=0\n",
      "note_on channel=0 note=49 velocity=28 time=1\n",
      "note_on channel=0 note=65 velocity=51 time=0\n",
      "note_on channel=0 note=80 velocity=39 time=0\n",
      "note_off channel=0 note=90 velocity=64 time=0\n",
      "note_on channel=0 note=91 velocity=41 time=0\n",
      "note_on channel=0 note=57 velocity=65 time=1\n",
      "note_off channel=0 note=58 velocity=64 time=0\n",
      "note_off channel=0 note=61 velocity=64 time=0\n",
      "note_on channel=0 note=84 velocity=20 time=0\n",
      "note_off channel=0 note=85 velocity=64 time=1\n",
      "note_on channel=0 note=86 velocity=32 time=0\n",
      "note_off channel=0 note=49 velocity=64 time=1\n",
      "note_on channel=0 note=71 velocity=18 time=0\n",
      "note_off channel=0 note=80 velocity=64 time=0\n",
      "note_on channel=0 note=85 velocity=37 time=0\n",
      "note_off channel=0 note=84 velocity=64 time=1\n",
      "note_on channel=0 note=90 velocity=36 time=0\n",
      "note_off channel=0 note=91 velocity=64 time=0\n",
      "note_off channel=0 note=76 velocity=64 time=1\n",
      "note_on channel=0 note=84 velocity=34 time=0\n",
      "note_off channel=0 note=86 velocity=64 time=0\n",
      "note_on channel=0 note=89 velocity=52 time=0\n",
      "note_on channel=0 note=91 velocity=33 time=0\n",
      "note_off channel=0 note=71 velocity=64 time=1\n",
      "note_off channel=0 note=90 velocity=64 time=0\n",
      "note_off channel=0 note=85 velocity=64 time=1\n",
      "note_on channel=0 note=90 velocity=39 time=0\n",
      "note_off channel=0 note=91 velocity=64 time=0\n",
      "note_on channel=0 note=76 velocity=59 time=1\n",
      "note_on channel=0 note=85 velocity=32 time=0\n",
      "note_off channel=0 note=84 velocity=64 time=1\n",
      "note_off channel=0 note=90 velocity=64 time=0\n",
      "note_on channel=0 note=91 velocity=38 time=0\n"
     ]
    },
    {
     "name": "stdout",
     "output_type": "stream",
     "text": [
      "note_on channel=0 note=84 velocity=17 time=1\n",
      "note_off channel=0 note=57 velocity=64 time=1\n",
      "note_on channel=0 note=58 velocity=54 time=0\n",
      "note_off channel=0 note=76 velocity=64 time=0\n",
      "note_on channel=0 note=77 velocity=55 time=0\n",
      "note_on channel=0 note=71 velocity=59 time=1\n",
      "note_on channel=0 note=73 velocity=32 time=0\n",
      "note_on channel=0 note=76 velocity=40 time=0\n",
      "note_on channel=0 note=80 velocity=45 time=0\n",
      "note_off channel=0 note=58 velocity=64 time=1\n",
      "note_on channel=0 note=64 velocity=82 time=0\n",
      "note_off channel=0 note=65 velocity=64 time=0\n",
      "note_off channel=0 note=77 velocity=64 time=0\n",
      "note_on channel=0 note=90 velocity=37 time=0\n",
      "note_off channel=0 note=91 velocity=64 time=0\n",
      "note_on channel=0 note=45 velocity=75 time=1\n",
      "note_on channel=0 note=53 velocity=41 time=0\n",
      "note_on channel=0 note=60 velocity=58 time=0\n",
      "note_off channel=0 note=76 velocity=64 time=0\n",
      "note_on channel=0 note=82 velocity=35 time=0\n",
      "note_off channel=0 note=84 velocity=64 time=0\n",
      "note_off channel=0 note=85 velocity=64 time=0\n",
      "note_on channel=0 note=86 velocity=36 time=0\n",
      "note_on channel=0 note=44 velocity=80 time=1\n",
      "note_off channel=0 note=45 velocity=64 time=0\n",
      "note_on channel=0 note=63 velocity=73 time=0\n",
      "note_off channel=0 note=64 velocity=64 time=0\n",
      "note_on channel=0 note=68 velocity=44 time=0\n",
      "note_on channel=0 note=78 velocity=41 time=0\n",
      "note_off channel=0 note=53 velocity=64 time=1\n",
      "note_on channel=0 note=59 velocity=59 time=0\n",
      "note_off channel=0 note=60 velocity=64 time=0\n",
      "note_off channel=0 note=73 velocity=64 time=0\n",
      "note_on channel=0 note=85 velocity=44 time=0\n",
      "note_off channel=0 note=86 velocity=64 time=0\n",
      "note_off channel=0 note=68 velocity=64 time=1\n",
      "note_on channel=0 note=73 velocity=33 time=0\n",
      "note_on channel=0 note=77 velocity=40 time=0\n",
      "note_off channel=0 note=78 velocity=64 time=0\n",
      "note_on channel=0 note=91 velocity=24 time=0\n",
      "note_on channel=0 note=70 velocity=56 time=1\n",
      "note_off channel=0 note=71 velocity=64 time=0\n",
      "note_on channel=0 note=78 velocity=47 time=0\n",
      "note_off channel=0 note=44 velocity=64 time=1\n",
      "note_on channel=0 note=46 velocity=65 time=0\n",
      "note_off channel=0 note=59 velocity=64 time=0\n",
      "note_off channel=0 note=63 velocity=64 time=0\n",
      "note_off channel=0 note=77 velocity=64 time=0\n",
      "note_off channel=0 note=82 velocity=64 time=0\n",
      "note_on channel=0 note=84 velocity=25 time=0\n",
      "note_off channel=0 note=90 velocity=64 time=0\n",
      "note_on channel=0 note=41 velocity=58 time=1\n",
      "note_off channel=0 note=46 velocity=64 time=0\n",
      "note_on channel=0 note=77 velocity=57 time=0\n",
      "note_off channel=0 note=78 velocity=64 time=0\n",
      "note_on channel=0 note=60 velocity=34 time=1\n",
      "note_off channel=0 note=87 velocity=64 time=0\n",
      "note_off channel=0 note=41 velocity=64 time=1\n",
      "note_on channel=0 note=43 velocity=63 time=0\n",
      "note_on channel=0 note=57 velocity=62 time=0\n",
      "note_on channel=0 note=69 velocity=62 time=0\n",
      "note_off channel=0 note=70 velocity=64 time=0\n",
      "note_on channel=0 note=76 velocity=58 time=0\n",
      "note_off channel=0 note=77 velocity=64 time=0\n",
      "note_off channel=0 note=83 velocity=64 time=0\n",
      "note_on channel=0 note=87 velocity=35 time=0\n",
      "note_off channel=0 note=91 velocity=64 time=0\n",
      "note_off channel=0 note=60 velocity=64 time=1\n",
      "note_on channel=0 note=61 velocity=60 time=0\n",
      "note_off channel=0 note=80 velocity=64 time=0\n",
      "note_off channel=0 note=84 velocity=64 time=0\n",
      "note_on channel=0 note=42 velocity=58 time=1\n",
      "note_off channel=0 note=43 velocity=64 time=0\n",
      "note_on channel=0 note=84 velocity=45 time=0\n",
      "note_on channel=0 note=90 velocity=39 time=0\n",
      "note_on channel=0 note=56 velocity=66 time=1\n",
      "note_off channel=0 note=57 velocity=64 time=0\n",
      "note_on channel=0 note=80 velocity=38 time=0\n",
      "note_off channel=0 note=69 velocity=64 time=1\n",
      "note_on channel=0 note=75 velocity=43 time=0\n",
      "note_off channel=0 note=76 velocity=64 time=0\n",
      "note_on channel=0 note=77 velocity=30 time=0\n",
      "note_off channel=0 note=42 velocity=64 time=1\n",
      "note_off channel=0 note=73 velocity=64 time=0\n",
      "note_on channel=0 note=48 velocity=68 time=1\n",
      "note_off channel=0 note=56 velocity=64 time=0\n",
      "note_on channel=0 note=57 velocity=70 time=0\n",
      "note_off channel=0 note=85 velocity=64 time=0\n",
      "note_off channel=0 note=87 velocity=64 time=0\n",
      "note_off channel=0 note=75 velocity=64 time=1\n",
      "note_on channel=0 note=76 velocity=50 time=0\n",
      "note_off channel=0 note=77 velocity=64 time=0\n",
      "note_on channel=0 note=47 velocity=74 time=1\n",
      "note_off channel=0 note=48 velocity=64 time=0\n",
      "note_off channel=0 note=47 velocity=64 time=1\n",
      "note_on channel=0 note=48 velocity=72 time=0\n",
      "note_on channel=0 note=71 velocity=24 time=0\n",
      "note_off channel=0 note=80 velocity=64 time=0\n",
      "note_off channel=0 note=84 velocity=64 time=0\n",
      "note_on channel=0 note=85 velocity=45 time=0\n",
      "note_on channel=0 note=65 velocity=20 time=1\n",
      "note_on channel=0 note=80 velocity=45 time=0\n",
      "note_on channel=0 note=83 velocity=57 time=0\n",
      "note_off channel=0 note=48 velocity=64 time=1\n",
      "note_on channel=0 note=50 velocity=77 time=0\n",
      "note_off channel=0 note=50 velocity=64 time=1\n",
      "note_on channel=0 note=55 velocity=79 time=0\n",
      "note_off channel=0 note=57 velocity=64 time=0\n",
      "note_on channel=0 note=68 velocity=64 time=0\n",
      "note_off channel=0 note=71 velocity=64 time=0\n",
      "note_on channel=0 note=75 velocity=54 time=0\n",
      "note_off channel=0 note=76 velocity=64 time=0\n",
      "note_on channel=0 note=77 velocity=30 time=0\n",
      "note_on channel=0 note=84 velocity=42 time=0\n",
      "note_off channel=0 note=55 velocity=64 time=1\n",
      "note_on channel=0 note=56 velocity=70 time=0\n",
      "note_on channel=0 note=71 velocity=38 time=0\n",
      "note_off channel=0 note=89 velocity=64 time=0\n",
      "note_off channel=0 note=85 velocity=64 time=1\n",
      "note_on channel=0 note=55 velocity=72 time=1\n",
      "note_off channel=0 note=56 velocity=64 time=0\n",
      "note_on channel=0 note=89 velocity=32 time=0\n",
      "note_off channel=0 note=84 velocity=64 time=1\n",
      "note_on channel=0 note=86 velocity=12 time=0\n",
      "note_off channel=0 note=90 velocity=64 time=0\n",
      "note_off channel=0 note=55 velocity=64 time=1\n",
      "note_on channel=0 note=56 velocity=51 time=0\n",
      "note_on channel=0 note=84 velocity=39 time=0\n",
      "note_off channel=0 note=89 velocity=64 time=0\n",
      "note_on channel=0 note=90 velocity=43 time=0\n",
      "note_off channel=0 note=65 velocity=64 time=1\n",
      "note_off channel=0 note=77 velocity=64 time=0\n",
      "note_on channel=0 note=85 velocity=31 time=0\n",
      "note_on channel=0 note=91 velocity=18 time=0\n",
      "note_off channel=0 note=56 velocity=64 time=1\n",
      "note_off channel=0 note=61 velocity=64 time=0\n",
      "note_on channel=0 note=76 velocity=43 time=0\n",
      "note_on channel=0 note=81 velocity=42 time=0\n",
      "note_off channel=0 note=86 velocity=64 time=0\n",
      "note_on channel=0 note=89 velocity=38 time=0\n",
      "note_on channel=0 note=64 velocity=82 time=1\n",
      "note_off channel=0 note=68 velocity=64 time=0\n",
      "note_off channel=0 note=71 velocity=64 time=0\n",
      "note_on channel=0 note=73 velocity=44 time=0\n",
      "note_on channel=0 note=79 velocity=37 time=0\n",
      "note_off channel=0 note=80 velocity=64 time=0\n",
      "note_on channel=0 note=45 velocity=78 time=1\n",
      "note_on channel=0 note=67 velocity=64 time=0\n",
      "note_off channel=0 note=76 velocity=64 time=0\n",
      "note_on channel=0 note=77 velocity=39 time=0\n",
      "note_on channel=0 note=63 velocity=77 time=1\n",
      "note_off channel=0 note=64 velocity=64 time=0\n",
      "note_on channel=0 note=71 velocity=56 time=0\n",
      "note_on channel=0 note=80 velocity=83 time=0\n",
      "note_off channel=0 note=81 velocity=64 time=0\n",
      "note_off channel=0 note=84 velocity=64 time=0\n",
      "note_on channel=0 note=44 velocity=79 time=1\n",
      "note_off channel=0 note=45 velocity=64 time=0\n",
      "note_on channel=0 note=59 velocity=55 time=0\n",
      "note_on channel=0 note=69 velocity=37 time=0\n",
      "note_off channel=0 note=75 velocity=64 time=0\n",
      "note_off channel=0 note=79 velocity=64 time=0\n",
      "note_off channel=0 note=67 velocity=64 time=1\n",
      "note_off channel=0 note=77 velocity=64 time=0\n",
      "note_on channel=0 note=78 velocity=46 time=0\n",
      "note_on channel=0 note=88 velocity=32 time=0\n",
      "note_off channel=0 note=89 velocity=64 time=0\n",
      "note_off channel=0 note=91 velocity=64 time=0\n",
      "note_on channel=0 note=68 velocity=32 time=1\n",
      "note_off channel=0 note=69 velocity=64 time=0\n",
      "note_off channel=0 note=63 velocity=64 time=1\n",
      "note_off channel=0 note=44 velocity=64 time=1\n",
      "note_on channel=0 note=58 velocity=57 time=0\n",
      "note_off channel=0 note=59 velocity=64 time=0\n",
      "note_on channel=0 note=67 velocity=28 time=0\n",
      "note_off channel=0 note=68 velocity=64 time=0\n",
      "note_on channel=0 note=77 velocity=41 time=0\n",
      "note_off channel=0 note=78 velocity=64 time=1\n",
      "note_off channel=0 note=85 velocity=64 time=0\n",
      "note_on channel=0 note=43 velocity=61 time=1\n",
      "note_on channel=0 note=57 velocity=66 time=0\n",
      "note_off channel=0 note=58 velocity=64 time=0\n",
      "note_on channel=0 note=61 velocity=70 time=0\n",
      "note_on channel=0 note=76 velocity=52 time=0\n",
      "note_on channel=0 note=85 velocity=44 time=0\n",
      "note_on channel=0 note=91 velocity=33 time=0\n",
      "note_off channel=0 note=67 velocity=64 time=1\n",
      "note_off channel=0 note=71 velocity=64 time=0\n",
      "note_off channel=0 note=77 velocity=64 time=0\n",
      "note_on channel=0 note=42 velocity=56 time=2\n",
      "note_off channel=0 note=43 velocity=64 time=0\n",
      "note_on channel=0 note=82 velocity=29 time=2\n",
      "note_off channel=0 note=83 velocity=64 time=0\n",
      "note_on channel=0 note=71 velocity=44 time=1\n",
      "note_off channel=0 note=91 velocity=64 time=0\n",
      "note_on channel=0 note=65 velocity=20 time=1\n",
      "note_on channel=0 note=84 velocity=38 time=0\n",
      "note_off channel=0 note=85 velocity=64 time=0\n",
      "note_on channel=0 note=56 velocity=66 time=1\n",
      "note_off channel=0 note=57 velocity=64 time=0\n",
      "note_on channel=0 note=77 velocity=26 time=0\n",
      "note_on channel=0 note=95 velocity=9 time=0\n",
      "note_off channel=0 note=65 velocity=64 time=2\n",
      "note_on channel=0 note=75 velocity=38 time=0\n",
      "note_off channel=0 note=76 velocity=64 time=0\n",
      "note_off channel=0 note=82 velocity=64 time=2\n",
      "note_off channel=0 note=95 velocity=64 time=0\n",
      "note_off channel=0 note=56 velocity=64 time=1\n",
      "note_on channel=0 note=57 velocity=65 time=0\n",
      "note_off channel=0 note=75 velocity=64 time=1\n",
      "note_on channel=0 note=76 velocity=53 time=0\n",
      "note_off channel=0 note=77 velocity=64 time=0\n",
      "note_off channel=0 note=84 velocity=64 time=0\n",
      "note_on channel=0 note=91 velocity=23 time=0\n",
      "note_off channel=0 note=71 velocity=64 time=1\n",
      "note_off channel=0 note=42 velocity=64 time=4\n",
      "note_off channel=0 note=91 velocity=64 time=0\n",
      "note_on channel=0 note=56 velocity=65 time=1\n",
      "note_off channel=0 note=57 velocity=64 time=0\n",
      "note_on channel=0 note=75 velocity=52 time=0\n",
      "note_on channel=0 note=78 velocity=41 time=0\n",
      "note_on channel=0 note=84 velocity=37 time=0\n",
      "note_off channel=0 note=88 velocity=64 time=0\n",
      "note_on channel=0 note=89 velocity=71 time=0\n",
      "note_on channel=0 note=95 velocity=43 time=0\n",
      "note_on channel=0 note=47 velocity=80 time=1\n",
      "note_on channel=0 note=71 velocity=40 time=0\n",
      "note_off channel=0 note=73 velocity=64 time=0\n",
      "note_off channel=0 note=76 velocity=64 time=0\n",
      "note_on channel=0 note=82 velocity=50 time=0\n",
      "note_off channel=0 note=47 velocity=64 time=1\n",
      "note_on channel=0 note=48 velocity=86 time=0\n",
      "note_on channel=0 note=64 velocity=62 time=0\n",
      "note_on channel=0 note=85 velocity=37 time=0\n",
      "note_off channel=0 note=61 velocity=64 time=1\n",
      "note_on channel=0 note=73 velocity=28 time=0\n",
      "note_off channel=0 note=64 velocity=64 time=1\n",
      "note_off channel=0 note=78 velocity=64 time=0\n",
      "note_off channel=0 note=82 velocity=64 time=0\n",
      "note_off channel=0 note=95 velocity=64 time=0\n",
      "note_off channel=0 note=48 velocity=64 time=1\n",
      "note_on channel=0 note=61 velocity=34 time=0\n",
      "note_on channel=0 note=65 velocity=48 time=0\n",
      "note_on channel=0 note=70 velocity=33 time=0\n",
      "note_off channel=0 note=71 velocity=64 time=0\n",
      "note_on channel=0 note=48 velocity=65 time=1\n",
      "note_off channel=0 note=70 velocity=64 time=1\n",
      "note_on channel=0 note=71 velocity=45 time=0\n",
      "note_off channel=0 note=48 velocity=64 time=1\n",
      "note_on channel=0 note=49 velocity=53 time=0\n",
      "note_off channel=0 note=61 velocity=64 time=0\n",
      "note_on channel=0 note=88 velocity=16 time=0\n",
      "note_off channel=0 note=49 velocity=64 time=2\n",
      "note_off channel=0 note=89 velocity=64 time=0\n",
      "note_on channel=0 note=44 velocity=39 time=2\n",
      "note_off channel=0 note=85 velocity=64 time=0\n",
      "note_off channel=0 note=44 velocity=64 time=2\n",
      "note_off channel=0 note=90 velocity=64 time=0\n",
      "note_on channel=0 note=44 velocity=33 time=1\n",
      "note_on channel=0 note=90 velocity=30 time=1\n",
      "note_off channel=0 note=44 velocity=64 time=1\n",
      "note_on channel=0 note=91 velocity=9 time=0\n",
      "note_on channel=0 note=82 velocity=16 time=3\n",
      "note_off channel=0 note=91 velocity=64 time=2\n",
      "note_off channel=0 note=88 velocity=64 time=1\n",
      "note_off channel=0 note=56 velocity=64 time=2\n",
      "note_on channel=0 note=57 velocity=67 time=0\n",
      "note_off channel=0 note=75 velocity=64 time=0\n",
      "note_on channel=0 note=76 velocity=55 time=0\n",
      "note_off channel=0 note=82 velocity=64 time=1\n",
      "note_off channel=0 note=84 velocity=64 time=0\n",
      "note_on channel=0 note=85 velocity=31 time=0\n",
      "note_off channel=0 note=71 velocity=64 time=1\n",
      "note_off channel=0 note=90 velocity=64 time=0\n",
      "note_on channel=0 note=91 velocity=32 time=0\n",
      "note_on channel=0 note=89 velocity=70 time=2\n",
      "note_on channel=0 note=95 velocity=46 time=0\n",
      "note_on channel=0 note=71 velocity=45 time=1\n",
      "note_off channel=0 note=73 velocity=64 time=0\n",
      "note_on channel=0 note=84 velocity=49 time=0\n",
      "note_off channel=0 note=85 velocity=64 time=0\n",
      "note_on channel=0 note=102 velocity=20 time=0\n",
      "note_on channel=0 note=45 velocity=76 time=1\n",
      "note_off channel=0 note=65 velocity=64 time=0\n",
      "note_on channel=0 note=73 velocity=31 time=0\n",
      "note_on channel=0 note=75 velocity=51 time=0\n",
      "note_off channel=0 note=76 velocity=64 time=0\n",
      "note_on channel=0 note=77 velocity=30 time=0\n",
      "note_on channel=0 note=85 velocity=42 time=0\n",
      "note_on channel=0 note=90 velocity=33 time=0\n",
      "note_on channel=0 note=56 velocity=68 time=1\n",
      "note_off channel=0 note=57 velocity=64 time=0\n",
      "note_on channel=0 note=64 velocity=48 time=0\n",
      "note_on channel=0 note=44 velocity=77 time=1\n",
      "note_off channel=0 note=45 velocity=64 time=0\n",
      "note_off channel=0 note=77 velocity=64 time=0\n",
      "note_off channel=0 note=90 velocity=64 time=0\n",
      "note_off channel=0 note=64 velocity=64 time=1\n",
      "note_on channel=0 note=77 velocity=26 time=0\n",
      "note_off channel=0 note=91 velocity=64 time=0\n",
      "note_off channel=0 note=95 velocity=64 time=0\n",
      "note_off channel=0 note=102 velocity=64 time=0\n",
      "note_on channel=0 note=43 velocity=74 time=1\n",
      "note_off channel=0 note=44 velocity=64 time=0\n",
      "note_off channel=0 note=56 velocity=64 time=0\n",
      "note_off channel=0 note=84 velocity=64 time=0\n",
      "note_on channel=0 note=65 velocity=35 time=1\n",
      "note_on channel=0 note=56 velocity=67 time=1\n",
      "note_off channel=0 note=77 velocity=64 time=0\n",
      "note_off channel=0 note=93 velocity=64 time=0\n",
      "note_on channel=0 note=61 velocity=37 time=1\n",
      "note_off channel=0 note=89 velocity=64 time=2\n",
      "note_off channel=0 note=43 velocity=64 time=2\n",
      "note_on channel=0 note=44 velocity=30 time=0\n",
      "note_on channel=0 note=55 velocity=71 time=0\n",
      "note_off channel=0 note=56 velocity=64 time=0\n",
      "note_off channel=0 note=65 velocity=64 time=1\n",
      "note_on channel=0 note=66 velocity=47 time=0\n",
      "note_off channel=0 note=73 velocity=64 time=0\n",
      "note_on channel=0 note=89 velocity=33 time=0\n",
      "note_on channel=0 note=54 velocity=65 time=1\n",
      "note_off channel=0 note=55 velocity=64 time=0\n",
      "note_off channel=0 note=44 velocity=64 time=1\n",
      "note_off channel=0 note=66 velocity=64 time=0\n",
      "note_off channel=0 note=75 velocity=64 time=0\n",
      "note_off channel=0 note=85 velocity=64 time=0\n",
      "note_off channel=0 note=54 velocity=64 time=1\n",
      "note_off channel=0 note=61 velocity=64 time=0\n",
      "note_on channel=0 note=66 velocity=53 time=0\n",
      "note_on channel=0 note=75 velocity=13 time=0\n",
      "note_on channel=0 note=55 velocity=66 time=1\n",
      "note_on channel=0 note=85 velocity=29 time=0\n",
      "note_off channel=0 note=66 velocity=64 time=1\n",
      "note_on channel=0 note=66 velocity=57 time=1\n",
      "note_on channel=0 note=73 velocity=40 time=0\n",
      "note_on channel=0 note=82 velocity=18 time=0\n",
      "note_on channel=0 note=93 velocity=12 time=0\n",
      "note_on channel=0 note=54 velocity=55 time=1\n",
      "note_off channel=0 note=55 velocity=64 time=0\n",
      "note_on channel=0 note=91 velocity=24 time=0\n",
      "note_off channel=0 note=66 velocity=64 time=1\n",
      "note_on channel=0 note=53 velocity=67 time=1\n",
      "note_off channel=0 note=54 velocity=64 time=0\n",
      "note_on channel=0 note=66 velocity=47 time=0\n",
      "note_on channel=0 note=87 velocity=48 time=0\n",
      "note_on channel=0 note=65 velocity=74 time=1\n",
      "note_off channel=0 note=71 velocity=64 time=0\n",
      "note_on channel=0 note=72 velocity=52 time=0\n",
      "note_off channel=0 note=73 velocity=64 time=0\n",
      "note_off channel=0 note=82 velocity=64 time=0\n",
      "note_off channel=0 note=66 velocity=64 time=1\n",
      "note_on channel=0 note=68 velocity=36 time=1\n",
      "note_on channel=0 note=83 velocity=36 time=0\n",
      "note_off channel=0 note=85 velocity=64 time=0\n",
      "note_off channel=0 note=91 velocity=64 time=0\n",
      "note_on channel=0 note=81 velocity=20 time=1\n",
      "note_on channel=0 note=91 velocity=29 time=0\n",
      "note_off channel=0 note=93 velocity=64 time=1\n",
      "note_off channel=0 note=53 velocity=64 time=1\n",
      "note_on channel=0 note=54 velocity=67 time=0\n",
      "note_off channel=0 note=75 velocity=64 time=0\n",
      "note_on channel=0 note=85 velocity=21 time=0\n",
      "note_on channel=0 note=90 velocity=37 time=0\n",
      "note_off channel=0 note=68 velocity=64 time=1\n",
      "note_off channel=0 note=81 velocity=64 time=0\n",
      "note_on channel=0 note=45 velocity=77 time=1\n",
      "note_on channel=0 note=64 velocity=83 time=0\n",
      "note_off channel=0 note=65 velocity=64 time=0\n",
      "note_off channel=0 note=72 velocity=64 time=0\n",
      "note_on channel=0 note=73 velocity=55 time=0\n",
      "note_off channel=0 note=89 velocity=64 time=0\n",
      "note_on channel=0 note=63 velocity=74 time=1\n",
      "note_off channel=0 note=64 velocity=64 time=0\n",
      "note_on channel=0 note=79 velocity=34 time=0\n",
      "note_on channel=0 note=82 velocity=30 time=0\n",
      "note_off channel=0 note=83 velocity=64 time=0\n",
      "note_off channel=0 note=85 velocity=64 time=0\n",
      "note_on channel=0 note=44 velocity=78 time=1\n",
      "note_off channel=0 note=45 velocity=64 time=0\n",
      "note_on channel=0 note=69 velocity=40 time=0\n",
      "note_off channel=0 note=90 velocity=64 time=0\n",
      "note_off channel=0 note=63 velocity=64 time=1\n",
      "note_off channel=0 note=79 velocity=64 time=0\n",
      "note_on channel=0 note=90 velocity=14 time=0\n",
      "note_on channel=0 note=62 velocity=35 time=1\n",
      "note_off channel=0 note=69 velocity=64 time=0\n",
      "note_on channel=0 note=65 velocity=53 time=1\n",
      "note_off channel=0 note=44 velocity=64 time=1\n",
      "note_on channel=0 note=61 velocity=40 time=0\n",
      "note_off channel=0 note=62 velocity=64 time=0\n",
      "note_on channel=0 note=75 velocity=20 time=0\n",
      "note_off channel=0 note=90 velocity=64 time=0\n",
      "note_on channel=0 note=93 velocity=20 time=0\n",
      "note_off channel=0 note=65 velocity=64 time=1\n",
      "note_off channel=0 note=61 velocity=64 time=1\n",
      "note_on channel=0 note=83 velocity=55 time=0\n",
      "note_on channel=0 note=90 velocity=33 time=0\n",
      "note_off channel=0 note=91 velocity=64 time=0\n",
      "note_on channel=0 note=43 velocity=62 time=1\n",
      "note_on channel=0 note=61 velocity=61 time=0\n",
      "note_on channel=0 note=65 velocity=53 time=0\n",
      "note_off channel=0 note=82 velocity=64 time=0\n",
      "note_off channel=0 note=43 velocity=64 time=2\n",
      "note_off channel=0 note=65 velocity=64 time=3\n",
      "note_on channel=0 note=68 velocity=37 time=0\n",
      "note_on channel=0 note=48 velocity=68 time=1\n",
      "note_off channel=0 note=54 velocity=64 time=0\n",
      "note_on channel=0 note=65 velocity=53 time=0\n",
      "note_on channel=0 note=91 velocity=34 time=0\n",
      "note_on channel=0 note=47 velocity=72 time=1\n",
      "note_off channel=0 note=48 velocity=64 time=0\n",
      "note_on channel=0 note=54 velocity=50 time=1\n",
      "note_off channel=0 note=68 velocity=64 time=0\n",
      "note_off channel=0 note=47 velocity=64 time=1\n",
      "note_on channel=0 note=48 velocity=67 time=0\n",
      "note_off channel=0 note=65 velocity=64 time=0\n",
      "note_on channel=0 note=68 velocity=37 time=0\n",
      "note_off channel=0 note=48 velocity=64 time=1\n",
      "note_on channel=0 note=49 velocity=72 time=0\n",
      "note_off channel=0 note=54 velocity=64 time=0\n",
      "note_on channel=0 note=65 velocity=50 time=0\n",
      "note_off channel=0 note=49 velocity=64 time=1\n",
      "note_on channel=0 note=53 velocity=80 time=0\n",
      "note_off channel=0 note=68 velocity=64 time=0\n",
      "note_on channel=0 note=71 velocity=13 time=0\n",
      "note_off channel=0 note=91 velocity=64 time=0\n",
      "note_off channel=0 note=53 velocity=64 time=2\n",
      "note_on channel=0 note=54 velocity=69 time=0\n",
      "note_off channel=0 note=65 velocity=64 time=0\n",
      "note_off channel=0 note=90 velocity=64 time=0\n",
      "note_off channel=0 note=93 velocity=64 time=0\n",
      "note_off channel=0 note=61 velocity=64 time=1\n",
      "note_on channel=0 note=61 velocity=49 time=1\n",
      "note_on channel=0 note=91 velocity=28 time=0\n",
      "note_off channel=0 note=71 velocity=64 time=4\n",
      "note_off channel=0 note=61 velocity=64 time=1\n",
      "note_on channel=0 note=64 velocity=80 time=0\n",
      "note_on channel=0 note=71 velocity=26 time=0\n",
      "note_off channel=0 note=75 velocity=64 time=0\n",
      "note_on channel=0 note=79 velocity=42 time=0\n",
      "note_off channel=0 note=80 velocity=64 time=0\n",
      "note_on channel=0 note=90 velocity=37 time=0\n",
      "note_on channel=0 note=45 velocity=76 time=1\n",
      "note_on channel=0 note=81 velocity=31 time=0\n",
      "note_on channel=0 note=89 velocity=70 time=0\n",
      "note_off channel=0 note=91 velocity=64 time=0\n",
      "note_on channel=0 note=44 velocity=78 time=1\n",
      "note_off channel=0 note=45 velocity=64 time=0\n",
      "note_off channel=0 note=54 velocity=64 time=0\n",
      "note_on channel=0 note=63 velocity=70 time=0\n",
      "note_off channel=0 note=64 velocity=64 time=0\n",
      "note_on channel=0 note=54 velocity=55 time=1\n",
      "note_on channel=0 note=69 velocity=29 time=0\n",
      "note_off channel=0 note=79 velocity=64 time=0\n",
      "note_on channel=0 note=80 velocity=19 time=0\n",
      "note_off channel=0 note=81 velocity=64 time=0\n",
      "note_off channel=0 note=90 velocity=64 time=0\n",
      "note_on channel=0 note=91 velocity=27 time=0\n",
      "note_off channel=0 note=71 velocity=64 time=1\n",
      "note_off channel=0 note=44 velocity=64 time=1\n",
      "note_on channel=0 note=45 velocity=76 time=0\n",
      "note_off channel=0 note=63 velocity=64 time=0\n",
      "note_on channel=0 note=66 velocity=58 time=0\n",
      "note_off channel=0 note=69 velocity=64 time=0\n",
      "note_off channel=0 note=80 velocity=64 time=1\n",
      "note_on channel=0 note=44 velocity=71 time=1\n",
      "note_off channel=0 note=45 velocity=64 time=0\n",
      "note_on channel=0 note=80 velocity=31 time=0\n",
      "note_on channel=0 note=43 velocity=63 time=2\n",
      "note_off channel=0 note=44 velocity=64 time=0\n",
      "note_on channel=0 note=61 velocity=61 time=0\n",
      "note_on channel=0 note=42 velocity=58 time=2\n",
      "note_off channel=0 note=43 velocity=64 time=0\n",
      "note_off channel=0 note=42 velocity=64 time=2\n",
      "note_off channel=0 note=54 velocity=64 time=1\n",
      "note_off channel=0 note=80 velocity=64 time=0\n",
      "note_on channel=0 note=48 velocity=69 time=1\n",
      "note_on channel=0 note=71 velocity=22 time=1\n",
      "note_on channel=0 note=47 velocity=74 time=1\n",
      "note_off channel=0 note=48 velocity=64 time=0\n",
      "note_on channel=0 note=54 velocity=53 time=0\n",
      "note_on channel=0 note=82 velocity=39 time=0\n",
      "note_off channel=0 note=83 velocity=64 time=0\n",
      "note_off channel=0 note=47 velocity=64 time=1\n",
      "note_on channel=0 note=48 velocity=69 time=0\n",
      "note_off channel=0 note=48 velocity=64 time=1\n",
      "note_on channel=0 note=49 velocity=71 time=0\n",
      "note_off channel=0 note=54 velocity=64 time=0\n",
      "note_off channel=0 note=91 velocity=64 time=0\n",
      "note_off channel=0 note=49 velocity=64 time=1\n",
      "note_on channel=0 note=53 velocity=82 time=0\n",
      "note_on channel=0 note=75 velocity=46 time=1\n",
      "note_off channel=0 note=53 velocity=64 time=1\n",
      "note_on channel=0 note=54 velocity=67 time=0\n",
      "note_on channel=0 note=80 velocity=81 time=1\n",
      "note_on channel=0 note=88 velocity=21 time=0\n",
      "note_off channel=0 note=54 velocity=64 time=2\n",
      "note_on channel=0 note=54 velocity=53 time=1\n",
      "note_off channel=0 note=61 velocity=64 time=0\n",
      "note_on channel=0 note=83 velocity=31 time=1\n",
      "note_on channel=0 note=95 velocity=40 time=1\n",
      "note_on channel=0 note=48 velocity=87 time=1\n",
      "note_off channel=0 note=54 velocity=64 time=0\n",
      "note_off channel=0 note=66 velocity=64 time=0\n",
      "note_off channel=0 note=71 velocity=64 time=0\n",
      "note_off channel=0 note=88 velocity=64 time=0\n",
      "note_on channel=0 note=91 velocity=28 time=0\n",
      "note_on channel=0 note=96 velocity=18 time=0\n",
      "note_on channel=0 note=71 velocity=30 time=1\n",
      "note_off channel=0 note=75 velocity=64 time=0\n",
      "note_on channel=0 note=78 velocity=37 time=0\n",
      "note_on channel=0 note=93 velocity=11 time=0\n",
      "note_on channel=0 note=63 velocity=48 time=1\n",
      "note_on channel=0 note=65 velocity=48 time=0\n",
      "note_off channel=0 note=83 velocity=64 time=0\n",
      "note_off channel=0 note=78 velocity=64 time=1\n",
      "note_off channel=0 note=96 velocity=64 time=0\n",
      "note_off channel=0 note=48 velocity=64 time=1\n",
      "note_off channel=0 note=63 velocity=64 time=0\n",
      "note_on channel=0 note=64 velocity=35 time=0\n",
      "note_off channel=0 note=65 velocity=64 time=0\n",
      "note_on channel=0 note=66 velocity=53 time=0\n",
      "note_on channel=0 note=83 velocity=39 time=0\n",
      "note_off channel=0 note=95 velocity=64 time=0\n",
      "note_on channel=0 note=45 velocity=67 time=1\n",
      "note_off channel=0 note=82 velocity=64 time=0\n",
      "note_off channel=0 note=45 velocity=64 time=1\n",
      "note_on channel=0 note=48 velocity=65 time=0\n",
      "note_off channel=0 note=64 velocity=64 time=0\n",
      "note_on channel=0 note=75 velocity=12 time=0\n",
      "note_on channel=0 note=84 velocity=15 time=0\n",
      "note_off channel=0 note=48 velocity=64 time=1\n",
      "note_on channel=0 note=54 velocity=57 time=0\n",
      "note_on channel=0 note=88 velocity=18 time=0\n",
      "note_on channel=0 note=45 velocity=61 time=1\n",
      "note_off channel=0 note=75 velocity=64 time=2\n",
      "note_off channel=0 note=88 velocity=64 time=0\n",
      "note_on channel=0 note=44 velocity=51 time=1\n",
      "note_off channel=0 note=45 velocity=64 time=0\n",
      "note_on channel=0 note=82 velocity=33 time=2\n",
      "note_off channel=0 note=93 velocity=64 time=0\n",
      "note_on channel=0 note=88 velocity=10 time=1\n",
      "note_off channel=0 note=83 velocity=64 time=1\n",
      "note_on channel=0 note=43 velocity=34 time=1\n",
      "note_off channel=0 note=44 velocity=64 time=0\n",
      "note_on channel=0 note=83 velocity=51 time=0\n",
      "note_off channel=0 note=82 velocity=64 time=1\n",
      "note_off channel=0 note=43 velocity=64 time=1\n",
      "note_on channel=0 note=61 velocity=56 time=0\n",
      "note_on channel=0 note=65 velocity=51 time=0\n",
      "note_on channel=0 note=90 velocity=26 time=0\n",
      "note_off channel=0 note=66 velocity=64 time=1\n",
      "note_on channel=0 note=68 velocity=25 time=0\n",
      "note_on channel=0 note=86 velocity=24 time=0\n",
      "note_off channel=0 note=88 velocity=64 time=0\n",
      "note_off channel=0 note=84 velocity=64 time=2\n",
      "note_off channel=0 note=71 velocity=64 time=1\n",
      "note_on channel=0 note=84 velocity=45 time=0\n",
      "note_on channel=0 note=88 velocity=22 time=0\n",
      "note_off channel=0 note=90 velocity=64 time=0\n",
      "note_on channel=0 note=53 velocity=59 time=1\n",
      "note_off channel=0 note=54 velocity=64 time=0\n",
      "note_off channel=0 note=86 velocity=64 time=0\n",
      "note_on channel=0 note=86 velocity=25 time=1\n",
      "note_on channel=0 note=90 velocity=20 time=0\n",
      "note_off channel=0 note=53 velocity=64 time=1\n",
      "note_on channel=0 note=54 velocity=58 time=0\n",
      "note_off channel=0 note=89 velocity=64 time=0\n",
      "note_off channel=0 note=68 velocity=64 time=1\n",
      "note_off channel=0 note=88 velocity=64 time=0\n",
      "note_on channel=0 note=89 velocity=69 time=0\n",
      "note_off channel=0 note=91 velocity=64 time=0\n",
      "note_off channel=0 note=65 velocity=64 time=1\n",
      "note_on channel=0 note=76 velocity=47 time=1\n",
      "note_off channel=0 note=86 velocity=64 time=1\n",
      "note_on channel=0 note=91 velocity=30 time=0\n",
      "note_on channel=0 note=46 velocity=69 time=1\n",
      "note_on channel=0 note=67 velocity=39 time=0\n",
      "note_on channel=0 note=69 velocity=42 time=0\n",
      "note_off channel=0 note=90 velocity=64 time=0\n",
      "note_on channel=0 note=93 velocity=17 time=0\n",
      "note_on channel=0 note=45 velocity=77 time=1\n",
      "note_off channel=0 note=46 velocity=64 time=0\n",
      "note_off channel=0 note=61 velocity=64 time=0\n",
      "note_on channel=0 note=75 velocity=42 time=0\n",
      "note_off channel=0 note=76 velocity=64 time=0\n",
      "note_on channel=0 note=86 velocity=30 time=0\n",
      "note_on channel=0 note=44 velocity=78 time=1\n",
      "note_off channel=0 note=45 velocity=64 time=0\n",
      "note_on channel=0 note=63 velocity=40 time=0\n",
      "note_on channel=0 note=78 velocity=21 time=0\n",
      "note_off channel=0 note=87 velocity=64 time=0\n",
      "note_on channel=0 note=87 velocity=42 time=1\n",
      "note_off channel=0 note=91 velocity=64 time=0\n",
      "note_off channel=0 note=93 velocity=64 time=0\n",
      "note_on channel=0 note=53 velocity=63 time=1\n",
      "note_off channel=0 note=54 velocity=64 time=0\n",
      "note_on channel=0 note=62 velocity=32 time=0\n",
      "note_off channel=0 note=63 velocity=64 time=0\n",
      "note_off channel=0 note=69 velocity=64 time=0\n",
      "note_on channel=0 note=72 velocity=52 time=0\n",
      "note_off channel=0 note=73 velocity=64 time=0\n",
      "note_on channel=0 note=77 velocity=30 time=0\n",
      "note_off channel=0 note=84 velocity=64 time=0\n",
      "note_off channel=0 note=86 velocity=64 time=0\n",
      "note_on channel=0 note=91 velocity=28 time=0\n",
      "note_on channel=0 note=43 velocity=72 time=1\n",
      "note_off channel=0 note=44 velocity=64 time=0\n",
      "note_off channel=0 note=67 velocity=64 time=0\n",
      "note_off channel=0 note=75 velocity=64 time=0\n",
      "note_on channel=0 note=75 velocity=18 time=1\n",
      "note_off channel=0 note=78 velocity=64 time=0\n",
      "note_off channel=0 note=91 velocity=64 time=1\n",
      "note_on channel=0 note=61 velocity=29 time=1\n",
      "note_off channel=0 note=62 velocity=64 time=0\n",
      "note_on channel=0 note=91 velocity=34 time=0\n",
      "note_on channel=0 note=52 velocity=64 time=1\n",
      "note_off channel=0 note=53 velocity=64 time=0\n",
      "note_off channel=0 note=61 velocity=64 time=1\n",
      "note_on channel=0 note=71 velocity=49 time=0\n",
      "note_off channel=0 note=72 velocity=64 time=0\n",
      "note_on channel=0 note=73 velocity=9 time=1\n",
      "note_off channel=0 note=75 velocity=64 time=1\n",
      "note_off channel=0 note=77 velocity=64 time=0\n",
      "note_on channel=0 note=84 velocity=26 time=0\n",
      "note_off channel=0 note=43 velocity=64 time=1\n",
      "note_on channel=0 note=85 velocity=23 time=0\n",
      "note_on channel=0 note=90 velocity=43 time=3\n",
      "note_off channel=0 note=91 velocity=64 time=1\n",
      "note_off channel=0 note=73 velocity=64 time=3\n",
      "note_on channel=0 note=82 velocity=21 time=1\n",
      "note_off channel=0 note=83 velocity=64 time=0\n",
      "note_on channel=0 note=64 velocity=82 time=2\n",
      "note_on channel=0 note=77 velocity=30 time=0\n",
      "note_off channel=0 note=71 velocity=64 time=3\n",
      "note_on channel=0 note=78 velocity=29 time=0\n",
      "note_off channel=0 note=77 velocity=64 time=1\n",
      "note_on channel=0 note=83 velocity=43 time=0\n",
      "note_on channel=0 note=86 velocity=21 time=0\n",
      "note_on channel=0 note=77 velocity=46 time=1\n",
      "note_off channel=0 note=85 velocity=64 time=0\n",
      "note_on channel=0 note=46 velocity=67 time=1\n",
      "note_off channel=0 note=52 velocity=64 time=0\n",
      "note_on channel=0 note=57 velocity=46 time=0\n",
      "note_on channel=0 note=73 velocity=35 time=0\n",
      "note_off channel=0 note=78 velocity=64 time=0\n",
      "note_off channel=0 note=82 velocity=64 time=0\n",
      "note_off channel=0 note=84 velocity=64 time=0\n",
      "note_on channel=0 note=93 velocity=46 time=0\n",
      "note_on channel=0 note=45 velocity=78 time=1\n",
      "note_off channel=0 note=46 velocity=64 time=0\n",
      "note_on channel=0 note=84 velocity=22 time=0\n",
      "note_on channel=0 note=44 velocity=79 time=1\n",
      "note_off channel=0 note=45 velocity=64 time=0\n",
      "note_on channel=0 note=63 velocity=74 time=0\n",
      "note_off channel=0 note=64 velocity=64 time=0\n",
      "note_on channel=0 note=71 velocity=64 time=0\n",
      "note_off channel=0 note=57 velocity=64 time=1\n",
      "note_off channel=0 note=84 velocity=64 time=1\n",
      "note_off channel=0 note=86 velocity=64 time=0\n",
      "note_off channel=0 note=44 velocity=64 time=2\n",
      "note_on channel=0 note=47 velocity=65 time=0\n",
      "note_on channel=0 note=61 velocity=63 time=0\n",
      "note_off channel=0 note=63 velocity=64 time=0\n",
      "note_off channel=0 note=47 velocity=64 time=1\n",
      "note_off channel=0 note=89 velocity=64 time=0\n",
      "note_off channel=0 note=87 velocity=64 time=1\n",
      "note_on channel=0 note=43 velocity=62 time=1\n",
      "note_on channel=0 note=66 velocity=27 time=0\n",
      "note_on channel=0 note=42 velocity=57 time=2\n",
      "note_off channel=0 note=43 velocity=64 time=0\n",
      "note_off channel=0 note=66 velocity=64 time=1\n",
      "note_off channel=0 note=42 velocity=64 time=2\n",
      "note_on channel=0 note=65 velocity=44 time=0\n",
      "note_off channel=0 note=73 velocity=64 time=0\n",
      "note_on channel=0 note=85 velocity=18 time=1\n",
      "note_on channel=0 note=48 velocity=69 time=1\n",
      "note_off channel=0 note=65 velocity=64 time=0\n",
      "note_on channel=0 note=47 velocity=73 time=1\n",
      "note_off channel=0 note=48 velocity=64 time=0\n",
      "note_on channel=0 note=84 velocity=17 time=0\n",
      "note_off channel=0 note=47 velocity=64 time=1\n",
      "note_on channel=0 note=48 velocity=73 time=0\n",
      "note_off channel=0 note=48 velocity=64 time=1\n",
      "note_on channel=0 note=49 velocity=70 time=0\n",
      "note_off channel=0 note=61 velocity=64 time=0\n",
      "note_on channel=0 note=62 velocity=32 time=0\n",
      "note_on channel=0 note=73 velocity=33 time=0\n",
      "note_off channel=0 note=62 velocity=64 time=2\n",
      "note_on channel=0 note=64 velocity=84 time=0\n",
      "note_off channel=0 note=49 velocity=64 time=1\n",
      "note_on channel=0 note=53 velocity=69 time=0\n",
      "note_off channel=0 note=85 velocity=64 time=0\n",
      "note_on channel=0 note=68 velocity=9 time=1\n",
      "note_off channel=0 note=77 velocity=64 time=0\n",
      "note_on channel=0 note=61 velocity=27 time=1\n",
      "note_on channel=0 note=77 velocity=29 time=0\n",
      "note_on channel=0 note=82 velocity=26 time=0\n",
      "note_on channel=0 note=51 velocity=55 time=1\n",
      "note_off channel=0 note=53 velocity=64 time=0\n",
      "note_off channel=0 note=83 velocity=64 time=0\n",
      "note_on channel=0 note=75 velocity=21 time=1\n",
      "note_off channel=0 note=51 velocity=64 time=1\n",
      "note_on channel=0 note=52 velocity=60 time=0\n",
      "note_off channel=0 note=61 velocity=64 time=1\n",
      "note_off channel=0 note=68 velocity=64 time=0\n",
      "note_off channel=0 note=77 velocity=64 time=0\n",
      "note_on channel=0 note=45 velocity=78 time=1\n",
      "note_off channel=0 note=52 velocity=64 time=0\n",
      "note_off channel=0 note=73 velocity=64 time=0\n",
      "note_off channel=0 note=75 velocity=64 time=0\n",
      "note_on channel=0 note=77 velocity=32 time=0\n",
      "note_off channel=0 note=82 velocity=64 time=0\n",
      "note_off channel=0 note=84 velocity=64 time=0\n",
      "note_on channel=0 note=87 velocity=21 time=0\n",
      "note_on channel=0 note=89 velocity=36 time=0\n",
      "note_off channel=0 note=90 velocity=64 time=0\n",
      "note_on channel=0 note=75 velocity=26 time=1\n",
      "note_on channel=0 note=82 velocity=30 time=0\n",
      "note_on channel=0 note=86 velocity=22 time=0\n",
      "note_on channel=0 note=90 velocity=33 time=0\n",
      "note_on channel=0 note=44 velocity=78 time=2\n",
      "note_off channel=0 note=45 velocity=64 time=0\n",
      "note_on channel=0 note=52 velocity=61 time=0\n",
      "note_on channel=0 note=63 velocity=72 time=0\n",
      "note_off channel=0 note=64 velocity=64 time=0\n",
      "note_on channel=0 note=69 velocity=40 time=0\n",
      "note_on channel=0 note=73 velocity=35 time=0\n",
      "note_off channel=0 note=77 velocity=64 time=0\n",
      "note_on channel=0 note=78 velocity=24 time=0\n",
      "note_off channel=0 note=82 velocity=64 time=1\n",
      "note_on channel=0 note=84 velocity=30 time=0\n",
      "note_off channel=0 note=63 velocity=64 time=1\n",
      "note_on channel=0 note=68 velocity=34 time=0\n",
      "note_off channel=0 note=69 velocity=64 time=0\n",
      "note_off channel=0 note=75 velocity=64 time=0\n",
      "note_on channel=0 note=76 velocity=23 time=0\n",
      "note_off channel=0 note=86 velocity=64 time=0\n",
      "note_off channel=0 note=52 velocity=64 time=1\n",
      "note_on channel=0 note=61 velocity=44 time=0\n",
      "note_off channel=0 note=78 velocity=64 time=0\n",
      "note_off channel=0 note=44 velocity=64 time=1\n",
      "note_on channel=0 note=52 velocity=63 time=0\n",
      "note_off channel=0 note=68 velocity=64 time=1\n",
      "note_off channel=0 note=90 velocity=64 time=0\n",
      "note_off channel=0 note=61 velocity=64 time=1\n",
      "note_on channel=0 note=86 velocity=23 time=0\n",
      "note_on channel=0 note=61 velocity=60 time=1\n",
      "note_on channel=0 note=68 velocity=14 time=0\n",
      "note_on channel=0 note=77 velocity=32 time=0\n",
      "note_off channel=0 note=76 velocity=64 time=1\n",
      "note_on channel=0 note=42 velocity=56 time=1\n",
      "note_off channel=0 note=86 velocity=64 time=1\n",
      "note_off channel=0 note=89 velocity=64 time=0\n",
      "note_off channel=0 note=42 velocity=64 time=1\n",
      "note_off channel=0 note=68 velocity=64 time=0\n",
      "note_on channel=0 note=82 velocity=34 time=0\n",
      "note_on channel=0 note=88 velocity=33 time=0\n",
      "note_on channel=0 note=91 velocity=15 time=0\n",
      "note_off channel=0 note=87 velocity=64 time=1\n",
      "note_on channel=0 note=48 velocity=72 time=1\n",
      "note_off channel=0 note=52 velocity=64 time=0\n",
      "note_off channel=0 note=71 velocity=64 time=0\n",
      "note_on channel=0 note=75 velocity=51 time=0\n",
      "note_on channel=0 note=65 velocity=61 time=1\n",
      "note_on channel=0 note=67 velocity=36 time=0\n",
      "note_off channel=0 note=82 velocity=64 time=0\n",
      "note_on channel=0 note=83 velocity=24 time=0\n",
      "note_on channel=0 note=47 velocity=73 time=1\n",
      "note_off channel=0 note=48 velocity=64 time=0\n",
      "note_on channel=0 note=71 velocity=47 time=0\n",
      "note_off channel=0 note=47 velocity=64 time=1\n",
      "note_on channel=0 note=49 velocity=72 time=0\n",
      "note_on channel=0 note=82 velocity=42 time=0\n",
      "note_off channel=0 note=67 velocity=64 time=1\n",
      "note_on channel=0 note=68 velocity=32 time=0\n",
      "note_off channel=0 note=83 velocity=64 time=0\n",
      "note_on channel=0 note=54 velocity=65 time=1\n",
      "note_off channel=0 note=49 velocity=64 time=1\n",
      "note_off channel=0 note=61 velocity=64 time=0\n",
      "note_off channel=0 note=91 velocity=64 time=0\n",
      "note_on channel=0 note=53 velocity=67 time=1\n",
      "note_off channel=0 note=54 velocity=64 time=0\n",
      "note_off channel=0 note=53 velocity=64 time=2\n",
      "note_on channel=0 note=51 velocity=53 time=1\n",
      "note_off channel=0 note=51 velocity=64 time=2\n",
      "note_off channel=0 note=77 velocity=64 time=1\n",
      "note_on channel=0 note=85 velocity=41 time=0\n",
      "note_on channel=0 note=89 velocity=69 time=0\n",
      "note_on channel=0 note=95 velocity=43 time=0\n",
      "note_on channel=0 note=102 velocity=25 time=0\n",
      "note_on channel=0 note=48 velocity=89 time=1\n",
      "note_off channel=0 note=68 velocity=64 time=0\n",
      "note_off channel=0 note=73 velocity=64 time=0\n",
      "note_off channel=0 note=88 velocity=64 time=0\n",
      "note_off channel=0 note=65 velocity=64 time=1\n",
      "note_on channel=0 note=77 velocity=29 time=0\n",
      "note_on channel=0 note=68 velocity=46 time=1\n",
      "note_off channel=0 note=84 velocity=64 time=0\n",
      "note_on channel=0 note=91 velocity=24 time=0\n",
      "note_off channel=0 note=102 velocity=64 time=0\n",
      "note_on channel=0 note=46 velocity=67 time=1\n",
      "note_off channel=0 note=48 velocity=64 time=0\n",
      "note_off channel=0 note=82 velocity=64 time=0\n",
      "note_on channel=0 note=51 velocity=70 time=1\n",
      "note_on channel=0 note=65 velocity=47 time=0\n",
      "note_on channel=0 note=82 velocity=32 time=0\n",
      "note_off channel=0 note=46 velocity=64 time=1\n",
      "note_off channel=0 note=75 velocity=64 time=0\n",
      "note_on channel=0 note=88 velocity=45 time=0\n",
      "note_on channel=0 note=90 velocity=22 time=0\n",
      "note_off channel=0 note=51 velocity=64 time=1\n",
      "note_off channel=0 note=82 velocity=64 time=0\n",
      "note_on channel=0 note=45 velocity=62 time=1\n",
      "note_on channel=0 note=73 velocity=26 time=0\n",
      "note_on channel=0 note=75 velocity=28 time=0\n",
      "note_on channel=0 note=51 velocity=56 time=2\n",
      "note_off channel=0 note=89 velocity=64 time=0\n",
      "note_on channel=0 note=44 velocity=50 time=2\n",
      "note_off channel=0 note=45 velocity=64 time=0\n",
      "note_off channel=0 note=51 velocity=64 time=0\n",
      "note_on channel=0 note=52 velocity=53 time=0\n",
      "note_off channel=0 note=65 velocity=64 time=0\n",
      "note_on channel=0 note=65 velocity=50 time=1\n",
      "note_off channel=0 note=85 velocity=64 time=0\n",
      "note_off channel=0 note=95 velocity=64 time=1\n",
      "note_on channel=0 note=51 velocity=48 time=1\n",
      "note_off channel=0 note=52 velocity=64 time=0\n",
      "note_on channel=0 note=43 velocity=33 time=1\n",
      "note_off channel=0 note=44 velocity=64 time=0\n",
      "note_off channel=0 note=51 velocity=64 time=1\n",
      "note_on channel=0 note=52 velocity=54 time=0\n",
      "note_off channel=0 note=43 velocity=64 time=1\n",
      "note_on channel=0 note=61 velocity=11 time=1\n",
      "note_off channel=0 note=91 velocity=64 time=0\n",
      "note_off channel=0 note=77 velocity=64 time=1\n",
      "note_off channel=0 note=52 velocity=64 time=2\n",
      "note_on channel=0 note=53 velocity=47 time=0\n",
      "note_on channel=0 note=82 velocity=29 time=0\n",
      "note_off channel=0 note=53 velocity=64 time=3\n",
      "note_off channel=0 note=61 velocity=64 time=0\n",
      "note_on channel=0 note=53 velocity=33 time=2\n",
      "note_on channel=0 note=91 velocity=14 time=1\n",
      "note_off channel=0 note=73 velocity=64 time=1\n",
      "note_on channel=0 note=84 velocity=45 time=0\n",
      "note_on channel=0 note=87 velocity=42 time=0\n",
      "note_off channel=0 note=53 velocity=64 time=1\n",
      "note_off channel=0 note=75 velocity=64 time=0\n",
      "note_on channel=0 note=76 velocity=47 time=0\n",
      "note_off channel=0 note=82 velocity=64 time=0\n",
      "note_off channel=0 note=88 velocity=64 time=0\n",
      "note_on channel=0 note=89 velocity=71 time=0\n",
      "note_off channel=0 note=90 velocity=64 time=0\n",
      "note_on channel=0 note=102 velocity=23 time=0\n",
      "note_on channel=0 note=45 velocity=74 time=1\n",
      "note_off channel=0 note=65 velocity=64 time=0\n",
      "note_off channel=0 note=68 velocity=64 time=0\n",
      "note_on channel=0 note=69 velocity=51 time=0\n",
      "note_on channel=0 note=78 velocity=39 time=0\n",
      "note_on channel=0 note=82 velocity=30 time=0\n",
      "note_on channel=0 note=85 velocity=41 time=0\n",
      "note_on channel=0 note=90 velocity=42 time=0\n",
      "note_on channel=0 note=95 velocity=40 time=0\n",
      "note_on channel=0 note=44 velocity=77 time=1\n",
      "note_off channel=0 note=45 velocity=64 time=0\n",
      "note_on channel=0 note=64 velocity=48 time=0\n",
      "note_off channel=0 note=71 velocity=64 time=0\n",
      "note_on channel=0 note=73 velocity=19 time=0\n",
      "note_on channel=0 note=75 velocity=34 time=0\n",
      "note_on channel=0 note=71 velocity=32 time=1\n",
      "note_off channel=0 note=76 velocity=64 time=0\n",
      "note_on channel=0 note=88 velocity=31 time=0\n",
      "note_off channel=0 note=102 velocity=64 time=0\n",
      "note_off channel=0 note=64 velocity=64 time=1\n",
      "note_on channel=0 note=65 velocity=50 time=0\n",
      "note_on channel=0 note=77 velocity=60 time=0\n",
      "note_on channel=0 note=43 velocity=74 time=1\n",
      "note_off channel=0 note=44 velocity=64 time=0\n",
      "note_on channel=0 note=68 velocity=37 time=0\n",
      "note_off channel=0 note=69 velocity=64 time=0\n",
      "note_off channel=0 note=78 velocity=64 time=0\n",
      "note_off channel=0 note=84 velocity=64 time=0\n",
      "note_off channel=0 note=87 velocity=64 time=0\n",
      "note_off channel=0 note=88 velocity=64 time=0\n",
      "note_off channel=0 note=91 velocity=64 time=0\n",
      "note_on channel=0 note=54 velocity=26 time=1\n",
      "note_on channel=0 note=61 velocity=33 time=2\n",
      "note_off channel=0 note=82 velocity=64 time=0\n",
      "note_on channel=0 note=91 velocity=34 time=0\n",
      "note_off channel=0 note=61 velocity=64 time=3\n",
      "note_off channel=0 note=85 velocity=64 time=0\n",
      "note_off channel=0 note=95 velocity=64 time=0\n",
      "note_off channel=0 note=43 velocity=64 time=1\n",
      "note_on channel=0 note=61 velocity=30 time=0\n",
      "note_off channel=0 note=73 velocity=64 time=0\n",
      "note_off channel=0 note=75 velocity=64 time=0\n",
      "note_off channel=0 note=54 velocity=64 time=1\n",
      "note_on channel=0 note=85 velocity=18 time=0\n",
      "note_on channel=0 note=87 velocity=41 time=1\n",
      "note_on channel=0 note=44 velocity=16 time=1\n",
      "note_on channel=0 note=82 velocity=20 time=1\n",
      "note_off channel=0 note=44 velocity=64 time=3\n",
      "note_off channel=0 note=71 velocity=64 time=0\n",
      "note_off channel=0 note=91 velocity=64 time=0\n",
      "note_on channel=0 note=83 velocity=41 time=1\n",
      "note_off channel=0 note=85 velocity=64 time=0\n",
      "note_on channel=0 note=91 velocity=31 time=0\n",
      "note_off channel=0 note=82 velocity=64 time=1\n",
      "note_off channel=0 note=91 velocity=64 time=2\n",
      "note_off channel=0 note=68 velocity=64 time=1\n",
      "note_on channel=0 note=68 velocity=51 time=1\n",
      "note_on channel=0 note=91 velocity=37 time=1\n",
      "note_off channel=0 note=61 velocity=64 time=3\n",
      "note_on channel=0 note=62 velocity=72 time=0\n",
      "note_off channel=0 note=65 velocity=64 time=0\n",
      "note_on channel=0 note=72 velocity=43 time=0\n",
      "note_on channel=0 note=78 velocity=32 time=0\n",
      "note_off channel=0 note=80 velocity=64 time=0\n",
      "note_on channel=0 note=82 velocity=61 time=0\n",
      "note_on channel=0 note=57 velocity=54 time=1\n",
      "note_off channel=0 note=62 velocity=64 time=0\n",
      "note_on channel=0 note=63 velocity=94 time=0\n",
      "note_off channel=0 note=83 velocity=64 time=0\n",
      "note_on channel=0 note=49 velocity=25 time=1\n",
      "note_on channel=0 note=83 velocity=65 time=0\n",
      "note_off channel=0 note=91 velocity=64 time=0\n",
      "note_off channel=0 note=68 velocity=64 time=1\n",
      "note_off channel=0 note=78 velocity=64 time=0\n",
      "note_off channel=0 note=82 velocity=64 time=0\n",
      "note_off channel=0 note=90 velocity=64 time=0\n",
      "note_off channel=0 note=57 velocity=64 time=1\n",
      "note_off channel=0 note=72 velocity=64 time=0\n",
      "note_off channel=0 note=49 velocity=64 time=1\n",
      "note_on channel=0 note=71 velocity=23 time=0\n",
      "note_on channel=0 note=90 velocity=46 time=0\n",
      "note_on channel=0 note=68 velocity=41 time=1\n",
      "note_on channel=0 note=91 velocity=38 time=0\n",
      "note_on channel=0 note=53 velocity=68 time=2\n",
      "note_off channel=0 note=71 velocity=64 time=0\n",
      "note_on channel=0 note=72 velocity=69 time=0\n",
      "note_on channel=0 note=81 velocity=17 time=0\n",
      "note_on channel=0 note=85 velocity=42 time=0\n",
      "note_on channel=0 note=98 velocity=30 time=0\n",
      "note_off channel=0 note=68 velocity=64 time=1\n",
      "note_on channel=0 note=94 velocity=49 time=0\n",
      "note_on channel=0 note=52 velocity=69 time=1\n",
      "note_off channel=0 note=53 velocity=64 time=0\n",
      "note_on channel=0 note=88 velocity=32 time=0\n",
      "note_on channel=0 note=51 velocity=69 time=1\n",
      "note_off channel=0 note=52 velocity=64 time=0\n",
      "note_on channel=0 note=70 velocity=50 time=0\n",
      "note_off channel=0 note=77 velocity=64 time=0\n",
      "note_on channel=0 note=79 velocity=54 time=0\n",
      "note_off channel=0 note=81 velocity=64 time=0\n",
      "note_off channel=0 note=91 velocity=64 time=0\n",
      "note_on channel=0 note=103 velocity=13 time=0\n",
      "note_off channel=0 note=72 velocity=64 time=1\n",
      "note_off channel=0 note=88 velocity=64 time=0\n",
      "note_off channel=0 note=90 velocity=64 time=0\n",
      "note_on channel=0 note=91 velocity=65 time=0\n",
      "note_on channel=0 note=92 velocity=51 time=0\n",
      "note_off channel=0 note=93 velocity=64 time=0\n",
      "note_off channel=0 note=51 velocity=64 time=3\n",
      "note_on channel=0 note=93 velocity=63 time=0\n",
      "note_on channel=0 note=96 velocity=39 time=0\n",
      "note_on channel=0 note=102 velocity=28 time=0\n",
      "note_off channel=0 note=103 velocity=64 time=0\n",
      "note_off channel=0 note=92 velocity=64 time=1\n",
      "note_on channel=0 note=52 velocity=49 time=1\n",
      "note_off channel=0 note=70 velocity=64 time=0\n",
      "note_on channel=0 note=90 velocity=42 time=0\n",
      "note_on channel=0 note=92 velocity=59 time=0\n",
      "note_off channel=0 note=94 velocity=64 time=0\n",
      "note_off channel=0 note=98 velocity=64 time=0\n",
      "note_on channel=0 note=70 velocity=49 time=1\n",
      "note_on channel=0 note=77 velocity=26 time=0\n",
      "note_on channel=0 note=98 velocity=31 time=0\n",
      "note_on channel=0 note=51 velocity=55 time=1\n",
      "note_off channel=0 note=52 velocity=64 time=0\n",
      "note_off channel=0 note=92 velocity=64 time=0\n",
      "note_on channel=0 note=100 velocity=46 time=0\n",
      "note_on channel=0 note=92 velocity=70 time=1\n",
      "note_on channel=0 note=94 velocity=40 time=0\n",
      "note_off channel=0 note=93 velocity=64 time=1\n",
      "note_off channel=0 note=51 velocity=64 time=1\n",
      "note_on channel=0 note=78 velocity=32 time=0\n",
      "note_off channel=0 note=79 velocity=64 time=0\n",
      "note_off channel=0 note=90 velocity=64 time=0\n",
      "note_off channel=0 note=78 velocity=64 time=2\n",
      "note_on channel=0 note=79 velocity=38 time=0\n",
      "note_off channel=0 note=70 velocity=64 time=1\n",
      "note_on channel=0 note=71 velocity=63 time=0\n",
      "note_on channel=0 note=90 velocity=45 time=0\n",
      "note_on channel=0 note=93 velocity=67 time=0\n",
      "note_on channel=0 note=76 velocity=61 time=1\n",
      "note_off channel=0 note=77 velocity=64 time=0\n",
      "note_off channel=0 note=91 velocity=64 time=0\n",
      "note_off channel=0 note=94 velocity=64 time=0\n",
      "note_on channel=0 note=52 velocity=71 time=1\n"
     ]
    },
    {
     "name": "stdout",
     "output_type": "stream",
     "text": [
      "note_on channel=0 note=80 velocity=44 time=0\n",
      "note_on channel=0 note=82 velocity=37 time=1\n",
      "note_on channel=0 note=94 velocity=44 time=0\n",
      "note_off channel=0 note=96 velocity=64 time=0\n",
      "note_on channel=0 note=78 velocity=37 time=1\n",
      "note_on channel=0 note=84 velocity=46 time=0\n",
      "note_on channel=0 note=62 velocity=80 time=1\n",
      "note_off channel=0 note=63 velocity=64 time=0\n",
      "note_on channel=0 note=69 velocity=53 time=0\n",
      "note_off channel=0 note=79 velocity=64 time=0\n",
      "note_off channel=0 note=82 velocity=64 time=0\n",
      "note_off channel=0 note=85 velocity=64 time=0\n",
      "note_off channel=0 note=94 velocity=64 time=0\n",
      "note_off channel=0 note=71 velocity=64 time=1\n",
      "note_on channel=0 note=72 velocity=48 time=0\n",
      "note_on channel=0 note=85 velocity=29 time=0\n",
      "note_off channel=0 note=98 velocity=64 time=0\n",
      "note_off channel=0 note=62 velocity=64 time=1\n",
      "note_on channel=0 note=63 velocity=87 time=0\n",
      "note_off channel=0 note=76 velocity=64 time=0\n",
      "note_off channel=0 note=78 velocity=64 time=0\n",
      "note_off channel=0 note=84 velocity=64 time=0\n",
      "note_off channel=0 note=90 velocity=64 time=0\n",
      "note_on channel=0 note=91 velocity=38 time=0\n",
      "note_on channel=0 note=94 velocity=31 time=0\n",
      "note_on channel=0 note=51 velocity=62 time=1\n",
      "note_off channel=0 note=52 velocity=64 time=0\n",
      "note_off channel=0 note=69 velocity=64 time=0\n",
      "note_on channel=0 note=70 velocity=41 time=0\n",
      "note_off channel=0 note=72 velocity=64 time=1\n",
      "note_on channel=0 note=73 velocity=24 time=0\n",
      "note_on channel=0 note=77 velocity=35 time=0\n",
      "note_off channel=0 note=92 velocity=64 time=0\n",
      "note_off channel=0 note=70 velocity=64 time=2\n",
      "note_on channel=0 note=71 velocity=52 time=0\n",
      "note_off channel=0 note=91 velocity=64 time=0\n",
      "note_off channel=0 note=94 velocity=64 time=0\n",
      "note_off channel=0 note=51 velocity=64 time=1\n",
      "note_on channel=0 note=52 velocity=66 time=0\n",
      "note_off channel=0 note=73 velocity=64 time=0\n",
      "note_on channel=0 note=76 velocity=45 time=0\n",
      "note_off channel=0 note=77 velocity=64 time=0\n",
      "note_on channel=0 note=91 velocity=35 time=0\n",
      "note_off channel=0 note=71 velocity=64 time=1\n",
      "note_on channel=0 note=72 velocity=64 time=0\n",
      "note_off channel=0 note=76 velocity=64 time=1\n",
      "note_on channel=0 note=77 velocity=27 time=0\n",
      "note_off channel=0 note=102 velocity=64 time=0\n",
      "note_on channel=0 note=71 velocity=56 time=1\n",
      "note_off channel=0 note=72 velocity=64 time=0\n",
      "note_on channel=0 note=92 velocity=85 time=0\n",
      "note_off channel=0 note=91 velocity=64 time=1\n",
      "note_off channel=0 note=52 velocity=64 time=1\n",
      "note_on channel=0 note=53 velocity=68 time=0\n",
      "note_off channel=0 note=89 velocity=64 time=0\n",
      "note_on channel=0 note=94 velocity=29 time=0\n",
      "note_on channel=0 note=101 velocity=48 time=0\n",
      "note_off channel=0 note=53 velocity=64 time=1\n",
      "note_on channel=0 note=67 velocity=69 time=0\n",
      "note_off channel=0 note=80 velocity=64 time=0\n",
      "note_on channel=0 note=55 velocity=62 time=1\n",
      "note_off channel=0 note=85 velocity=64 time=0\n",
      "note_off channel=0 note=94 velocity=64 time=0\n",
      "note_on channel=0 note=97 velocity=28 time=0\n",
      "note_on channel=0 note=103 velocity=25 time=0\n",
      "note_off channel=0 note=67 velocity=64 time=1\n",
      "note_on channel=0 note=68 velocity=70 time=0\n",
      "note_on channel=0 note=84 velocity=41 time=0\n",
      "note_on channel=0 note=90 velocity=50 time=0\n",
      "note_off channel=0 note=93 velocity=64 time=0\n",
      "note_on channel=0 note=94 velocity=48 time=0\n",
      "note_on channel=0 note=96 velocity=45 time=0\n",
      "note_off channel=0 note=55 velocity=64 time=1\n",
      "note_on channel=0 note=56 velocity=69 time=0\n",
      "note_off channel=0 note=97 velocity=64 time=1\n",
      "note_on channel=0 note=98 velocity=26 time=0\n",
      "note_on channel=0 note=93 velocity=73 time=1\n",
      "note_off channel=0 note=103 velocity=64 time=0\n",
      "note_off channel=0 note=100 velocity=64 time=1\n",
      "note_on channel=0 note=89 velocity=76 time=1\n",
      "note_on channel=0 note=103 velocity=27 time=0\n",
      "note_on channel=0 note=100 velocity=52 time=1\n",
      "note_off channel=0 note=101 velocity=64 time=0\n",
      "note_on channel=0 note=91 velocity=28 time=1\n",
      "note_off channel=0 note=100 velocity=64 time=3\n",
      "note_off channel=0 note=91 velocity=64 time=1\n",
      "note_off channel=0 note=103 velocity=64 time=0\n",
      "note_off channel=0 note=68 velocity=64 time=1\n",
      "note_on channel=0 note=69 velocity=65 time=0\n",
      "note_off channel=0 note=77 velocity=64 time=0\n",
      "note_on channel=0 note=100 velocity=32 time=0\n",
      "note_on channel=0 note=77 velocity=49 time=1\n",
      "note_off channel=0 note=84 velocity=64 time=0\n",
      "note_off channel=0 note=87 velocity=64 time=0\n",
      "note_off channel=0 note=92 velocity=64 time=0\n",
      "note_off channel=0 note=98 velocity=64 time=0\n",
      "note_off channel=0 note=69 velocity=64 time=1\n",
      "note_off channel=0 note=71 velocity=64 time=0\n",
      "note_on channel=0 note=80 velocity=87 time=0\n",
      "note_on channel=0 note=84 velocity=9 time=0\n",
      "note_on channel=0 note=85 velocity=37 time=0\n",
      "note_off channel=0 note=94 velocity=64 time=0\n",
      "note_on channel=0 note=73 velocity=32 time=1\n",
      "note_off channel=0 note=96 velocity=64 time=0\n",
      "note_on channel=0 note=91 velocity=57 time=1\n",
      "note_off channel=0 note=100 velocity=64 time=0\n",
      "note_off channel=0 note=83 velocity=64 time=1\n",
      "note_off channel=0 note=73 velocity=64 time=1\n",
      "note_on channel=0 note=83 velocity=53 time=0\n",
      "note_off channel=0 note=84 velocity=64 time=0\n",
      "note_on channel=0 note=71 velocity=16 time=1\n",
      "note_on channel=0 note=100 velocity=22 time=0\n",
      "note_on channel=0 note=55 velocity=63 time=1\n",
      "note_off channel=0 note=56 velocity=64 time=0\n",
      "note_on channel=0 note=65 velocity=45 time=0\n",
      "note_off channel=0 note=90 velocity=64 time=0\n",
      "note_off channel=0 note=63 velocity=64 time=1\n",
      "note_on channel=0 note=67 velocity=63 time=0\n",
      "note_on channel=0 note=74 velocity=63 time=0\n",
      "note_off channel=0 note=55 velocity=64 time=2\n",
      "note_on channel=0 note=56 velocity=63 time=0\n",
      "note_off channel=0 note=74 velocity=64 time=0\n",
      "note_on channel=0 note=75 velocity=61 time=0\n",
      "note_on channel=0 note=84 velocity=49 time=0\n",
      "note_off channel=0 note=93 velocity=64 time=0\n",
      "note_off channel=0 note=67 velocity=64 time=1\n",
      "note_off channel=0 note=71 velocity=64 time=0\n",
      "note_off channel=0 note=77 velocity=64 time=0\n",
      "note_off channel=0 note=85 velocity=64 time=0\n",
      "note_on channel=0 note=90 velocity=54 time=0\n",
      "note_off channel=0 note=56 velocity=64 time=1\n",
      "note_on channel=0 note=57 velocity=68 time=0\n",
      "note_off channel=0 note=75 velocity=64 time=0\n",
      "note_on channel=0 note=76 velocity=70 time=0\n",
      "note_off channel=0 note=89 velocity=64 time=0\n",
      "note_on channel=0 note=93 velocity=28 time=0\n",
      "note_off channel=0 note=100 velocity=64 time=0\n",
      "note_off channel=0 note=84 velocity=64 time=1\n",
      "note_on channel=0 note=85 velocity=43 time=0\n",
      "note_on channel=0 note=73 velocity=31 time=1\n",
      "note_off channel=0 note=90 velocity=64 time=1\n",
      "note_on channel=0 note=56 velocity=70 time=1\n",
      "note_off channel=0 note=57 velocity=64 time=0\n",
      "note_on channel=0 note=90 velocity=60 time=0\n",
      "note_off channel=0 note=91 velocity=64 time=0\n",
      "note_on channel=0 note=75 velocity=70 time=1\n",
      "note_on channel=0 note=84 velocity=46 time=0\n",
      "note_on channel=0 note=89 velocity=69 time=0\n",
      "note_on channel=0 note=91 velocity=34 time=0\n",
      "note_on channel=0 note=94 velocity=26 time=0\n",
      "note_on channel=0 note=71 velocity=17 time=1\n",
      "note_off channel=0 note=76 velocity=64 time=0\n",
      "note_off channel=0 note=93 velocity=64 time=0\n",
      "note_off channel=0 note=90 velocity=64 time=1\n",
      "note_off channel=0 note=73 velocity=64 time=1\n",
      "note_on channel=0 note=73 velocity=26 time=1\n",
      "note_on channel=0 note=90 velocity=55 time=0\n",
      "note_off channel=0 note=91 velocity=64 time=0\n",
      "note_off channel=0 note=71 velocity=64 time=1\n",
      "note_off channel=0 note=85 velocity=64 time=0\n",
      "note_off channel=0 note=94 velocity=64 time=0\n",
      "note_off channel=0 note=56 velocity=64 time=1\n",
      "note_on channel=0 note=57 velocity=60 time=0\n",
      "note_on channel=0 note=76 velocity=66 time=0\n",
      "note_on channel=0 note=85 velocity=32 time=0\n",
      "note_on channel=0 note=91 velocity=45 time=0\n",
      "note_on channel=0 note=93 velocity=24 time=0\n",
      "note_off channel=0 note=75 velocity=64 time=1\n",
      "note_off channel=0 note=84 velocity=64 time=0\n",
      "note_off channel=0 note=57 velocity=64 time=1\n",
      "note_on channel=0 note=70 velocity=48 time=0\n",
      "note_off channel=0 note=76 velocity=64 time=0\n",
      "note_on channel=0 note=77 velocity=64 time=0\n",
      "note_on channel=0 note=56 velocity=45 time=1\n",
      "note_off channel=0 note=65 velocity=64 time=0\n",
      "note_on channel=0 note=68 velocity=56 time=0\n",
      "note_off channel=0 note=73 velocity=64 time=0\n",
      "note_off channel=0 note=91 velocity=64 time=0\n",
      "note_on channel=0 note=60 velocity=60 time=1\n",
      "note_off channel=0 note=70 velocity=64 time=0\n",
      "note_on channel=0 note=72 velocity=71 time=0\n",
      "note_on channel=0 note=75 velocity=22 time=0\n",
      "note_off channel=0 note=80 velocity=64 time=0\n",
      "note_on channel=0 note=91 velocity=39 time=0\n",
      "note_off channel=0 note=56 velocity=64 time=1\n",
      "note_off channel=0 note=77 velocity=64 time=0\n",
      "note_off channel=0 note=85 velocity=64 time=0\n",
      "note_on channel=0 note=92 velocity=37 time=0\n",
      "note_off channel=0 note=60 velocity=64 time=1\n",
      "note_on channel=0 note=61 velocity=91 time=0\n",
      "note_on channel=0 note=79 velocity=42 time=0\n",
      "note_off channel=0 note=93 velocity=64 time=0\n",
      "note_off channel=0 note=72 velocity=64 time=1\n",
      "note_off channel=0 note=75 velocity=64 time=0\n",
      "note_on channel=0 note=88 velocity=32 time=0\n",
      "note_off channel=0 note=91 velocity=64 time=0\n",
      "note_on channel=0 note=56 velocity=68 time=1\n",
      "note_on channel=0 note=75 velocity=30 time=0\n",
      "note_on channel=0 note=77 velocity=33 time=0\n",
      "note_off channel=0 note=79 velocity=64 time=0\n",
      "note_on channel=0 note=80 velocity=59 time=0\n",
      "note_off channel=0 note=90 velocity=64 time=0\n",
      "note_on channel=0 note=91 velocity=22 time=0\n",
      "note_off channel=0 note=56 velocity=64 time=1\n",
      "note_on channel=0 note=63 velocity=65 time=0\n",
      "note_off channel=0 note=68 velocity=64 time=0\n",
      "note_on channel=0 note=71 velocity=45 time=0\n",
      "note_off channel=0 note=88 velocity=64 time=0\n",
      "note_off channel=0 note=63 velocity=64 time=1\n",
      "note_off channel=0 note=75 velocity=64 time=0\n",
      "note_on channel=0 note=75 velocity=53 time=1\n",
      "note_off channel=0 note=77 velocity=64 time=0\n",
      "note_off channel=0 note=91 velocity=64 time=0\n",
      "note_off channel=0 note=71 velocity=64 time=1\n",
      "note_on channel=0 note=94 velocity=32 time=0\n",
      "note_on channel=0 note=53 velocity=36 time=1\n",
      "note_on channel=0 note=77 velocity=29 time=0\n",
      "note_on channel=0 note=79 velocity=47 time=0\n",
      "note_on channel=0 note=88 velocity=55 time=0\n",
      "note_on channel=0 note=60 velocity=67 time=1\n",
      "note_off channel=0 note=61 velocity=64 time=0\n",
      "note_on channel=0 note=72 velocity=74 time=0\n",
      "note_off channel=0 note=80 velocity=64 time=0\n",
      "note_off channel=0 note=89 velocity=64 time=0\n",
      "note_off channel=0 note=92 velocity=64 time=0\n",
      "note_on channel=0 note=85 velocity=25 time=1\n",
      "note_on channel=0 note=89 velocity=42 time=0\n",
      "note_off channel=0 note=53 velocity=64 time=1\n",
      "note_on channel=0 note=65 velocity=31 time=0\n",
      "note_on channel=0 note=78 velocity=63 time=0\n",
      "note_off channel=0 note=83 velocity=64 time=0\n",
      "note_on channel=0 note=93 velocity=41 time=0\n",
      "note_off channel=0 note=94 velocity=64 time=0\n",
      "note_on channel=0 note=59 velocity=65 time=1\n",
      "note_off channel=0 note=60 velocity=64 time=0\n",
      "note_on channel=0 note=71 velocity=73 time=0\n",
      "note_off channel=0 note=72 velocity=64 time=0\n",
      "note_off channel=0 note=79 velocity=64 time=0\n",
      "note_on channel=0 note=83 velocity=77 time=0\n",
      "note_on channel=0 note=87 velocity=61 time=0\n",
      "note_on channel=0 note=90 velocity=67 time=0\n",
      "note_off channel=0 note=77 velocity=64 time=2\n",
      "note_on channel=0 note=80 velocity=48 time=0\n",
      "note_off channel=0 note=88 velocity=64 time=1\n",
      "note_on channel=0 note=53 velocity=43 time=1\n",
      "note_on channel=0 note=68 velocity=41 time=0\n",
      "note_on channel=0 note=82 velocity=60 time=0\n",
      "note_on channel=0 note=88 velocity=22 time=0\n",
      "note_on channel=0 note=91 velocity=24 time=0\n",
      "note_off channel=0 note=65 velocity=64 time=1\n",
      "note_on channel=0 note=77 velocity=47 time=0\n",
      "note_off channel=0 note=68 velocity=64 time=1\n",
      "note_off channel=0 note=82 velocity=64 time=0\n",
      "note_on channel=0 note=86 velocity=16 time=0\n",
      "note_off channel=0 note=89 velocity=64 time=0\n",
      "note_off channel=0 note=53 velocity=64 time=1\n",
      "note_off channel=0 note=85 velocity=64 time=0\n",
      "note_on channel=0 note=65 velocity=18 time=2\n",
      "note_off channel=0 note=77 velocity=64 time=0\n",
      "note_off channel=0 note=88 velocity=64 time=0\n",
      "note_on channel=0 note=100 velocity=21 time=0\n",
      "note_on channel=0 note=53 velocity=28 time=1\n",
      "note_off channel=0 note=86 velocity=64 time=0\n",
      "note_on channel=0 note=84 velocity=24 time=2\n",
      "note_on channel=0 note=86 velocity=17 time=0\n",
      "note_off channel=0 note=53 velocity=64 time=1\n",
      "note_off channel=0 note=91 velocity=64 time=1\n",
      "note_off channel=0 note=75 velocity=64 time=1\n",
      "note_off channel=0 note=86 velocity=64 time=0\n",
      "note_off channel=0 note=84 velocity=64 time=1\n",
      "note_on channel=0 note=88 velocity=13 time=2\n",
      "note_on channel=0 note=64 velocity=80 time=1\n",
      "note_off channel=0 note=65 velocity=64 time=0\n",
      "note_on channel=0 note=73 velocity=40 time=0\n",
      "note_off channel=0 note=59 velocity=64 time=1\n",
      "note_on channel=0 note=77 velocity=48 time=0\n",
      "note_off channel=0 note=80 velocity=64 time=0\n",
      "note_on channel=0 note=45 velocity=76 time=1\n",
      "note_on channel=0 note=80 velocity=50 time=0\n",
      "note_on channel=0 note=86 velocity=22 time=0\n",
      "note_off channel=0 note=88 velocity=64 time=0\n",
      "note_off channel=0 note=100 velocity=64 time=0\n",
      "note_on channel=0 note=44 velocity=79 time=1\n",
      "note_off channel=0 note=45 velocity=64 time=0\n",
      "note_on channel=0 note=63 velocity=72 time=0\n",
      "note_off channel=0 note=64 velocity=64 time=0\n",
      "note_on channel=0 note=68 velocity=41 time=0\n",
      "note_off channel=0 note=73 velocity=64 time=0\n",
      "note_on channel=0 note=88 velocity=58 time=1\n",
      "note_on channel=0 note=91 velocity=51 time=0\n",
      "note_on channel=0 note=53 velocity=40 time=1\n",
      "note_on channel=0 note=60 velocity=58 time=0\n",
      "note_off channel=0 note=71 velocity=64 time=0\n",
      "note_on channel=0 note=72 velocity=77 time=0\n",
      "note_off channel=0 note=93 velocity=64 time=0\n",
      "note_off channel=0 note=63 velocity=64 time=1\n",
      "note_off channel=0 note=78 velocity=64 time=0\n",
      "note_on channel=0 note=85 velocity=47 time=0\n",
      "note_off channel=0 note=86 velocity=64 time=0\n",
      "note_off channel=0 note=44 velocity=64 time=1\n",
      "note_off channel=0 note=53 velocity=64 time=0\n",
      "note_off channel=0 note=60 velocity=64 time=0\n",
      "note_on channel=0 note=61 velocity=71 time=0\n",
      "note_off channel=0 note=72 velocity=64 time=0\n",
      "note_on channel=0 note=79 velocity=49 time=0\n",
      "note_on channel=0 note=89 velocity=68 time=0\n",
      "note_off channel=0 note=90 velocity=64 time=0\n",
      "note_off channel=0 note=77 velocity=64 time=1\n",
      "note_off channel=0 note=80 velocity=64 time=0\n",
      "note_on channel=0 note=81 velocity=53 time=0\n",
      "note_off channel=0 note=68 velocity=64 time=1\n",
      "note_on channel=0 note=71 velocity=48 time=0\n",
      "note_on channel=0 note=74 velocity=59 time=0\n",
      "note_on channel=0 note=77 velocity=26 time=0\n",
      "note_on channel=0 note=84 velocity=29 time=0\n",
      "note_off channel=0 note=89 velocity=64 time=0\n",
      "note_on channel=0 note=90 velocity=71 time=0\n",
      "note_off channel=0 note=91 velocity=64 time=0\n",
      "note_on channel=0 note=43 velocity=63 time=1\n",
      "note_off channel=0 note=61 velocity=64 time=0\n",
      "note_on channel=0 note=62 velocity=73 time=0\n",
      "note_on channel=0 note=68 velocity=48 time=0\n",
      "note_off channel=0 note=83 velocity=64 time=0\n",
      "note_on channel=0 note=89 velocity=31 time=1\n",
      "note_on channel=0 note=42 velocity=57 time=1\n",
      "note_off channel=0 note=43 velocity=64 time=0\n",
      "note_off channel=0 note=79 velocity=64 time=0\n",
      "note_off channel=0 note=85 velocity=64 time=0\n",
      "note_on channel=0 note=73 velocity=71 time=1\n",
      "note_off channel=0 note=89 velocity=64 time=0\n",
      "note_on channel=0 note=61 velocity=80 time=1\n",
      "note_off channel=0 note=62 velocity=64 time=0\n",
      "note_on channel=0 note=80 velocity=52 time=0\n",
      "note_off channel=0 note=81 velocity=64 time=0\n",
      "note_off channel=0 note=88 velocity=64 time=0\n",
      "note_on channel=0 note=89 velocity=66 time=0\n",
      "note_off channel=0 note=90 velocity=64 time=0\n",
      "note_off channel=0 note=42 velocity=64 time=1\n",
      "note_off channel=0 note=71 velocity=64 time=0\n",
      "note_off channel=0 note=74 velocity=64 time=0\n",
      "note_on channel=0 note=90 velocity=54 time=0\n",
      "note_on channel=0 note=94 velocity=24 time=0\n",
      "note_on channel=0 note=48 velocity=69 time=1\n",
      "note_on channel=0 note=75 velocity=37 time=0\n",
      "note_on channel=0 note=79 velocity=54 time=0\n",
      "note_off channel=0 note=80 velocity=64 time=0\n",
      "note_off channel=0 note=84 velocity=64 time=0\n",
      "note_on channel=0 note=88 velocity=67 time=0\n",
      "note_on channel=0 note=72 velocity=76 time=1\n",
      "note_off channel=0 note=73 velocity=64 time=0\n",
      "note_off channel=0 note=89 velocity=64 time=0\n",
      "note_on channel=0 note=47 velocity=74 time=1\n",
      "note_off channel=0 note=48 velocity=64 time=0\n",
      "note_on channel=0 note=54 velocity=31 time=0\n",
      "note_off channel=0 note=77 velocity=64 time=0\n",
      "note_off channel=0 note=47 velocity=64 time=1\n",
      "note_on channel=0 note=48 velocity=73 time=0\n",
      "note_off channel=0 note=72 velocity=64 time=0\n",
      "note_off channel=0 note=79 velocity=64 time=0\n",
      "note_on channel=0 note=80 velocity=60 time=0\n",
      "note_off channel=0 note=54 velocity=64 time=1\n",
      "note_on channel=0 note=89 velocity=70 time=0\n",
      "note_off channel=0 note=94 velocity=64 time=0\n",
      "note_off channel=0 note=48 velocity=64 time=1\n",
      "note_on channel=0 note=50 velocity=76 time=0\n",
      "note_on channel=0 note=71 velocity=37 time=0\n",
      "note_on channel=0 note=84 velocity=15 time=0\n",
      "note_off channel=0 note=50 velocity=64 time=1\n",
      "note_on channel=0 note=53 velocity=71 time=0\n",
      "note_off channel=0 note=90 velocity=64 time=0\n",
      "note_on channel=0 note=77 velocity=15 time=1\n",
      "note_off channel=0 note=88 velocity=64 time=0\n",
      "note_off channel=0 note=53 velocity=64 time=2\n",
      "note_off channel=0 note=71 velocity=64 time=0\n",
      "note_off channel=0 note=84 velocity=64 time=0\n",
      "note_on channel=0 note=91 velocity=53 time=0\n",
      "note_on channel=0 note=53 velocity=57 time=1\n",
      "note_on channel=0 note=72 velocity=69 time=0\n",
      "note_on channel=0 note=79 velocity=50 time=0\n",
      "note_on channel=0 note=88 velocity=49 time=0\n",
      "note_on channel=0 note=60 velocity=63 time=1\n",
      "note_off channel=0 note=61 velocity=64 time=0\n",
      "note_off channel=0 note=80 velocity=64 time=0\n",
      "note_off channel=0 note=89 velocity=64 time=0\n",
      "note_on channel=0 note=93 velocity=33 time=0\n",
      "note_off channel=0 note=53 velocity=64 time=1\n",
      "note_on channel=0 note=54 velocity=39 time=0\n",
      "note_off channel=0 note=77 velocity=64 time=0\n",
      "note_off channel=0 note=60 velocity=64 time=1\n",
      "note_on channel=0 note=64 velocity=83 time=0\n",
      "note_on channel=0 note=71 velocity=67 time=0\n",
      "note_off channel=0 note=72 velocity=64 time=0\n",
      "note_on channel=0 note=73 velocity=47 time=0\n",
      "note_off channel=0 note=79 velocity=64 time=0\n",
      "note_on channel=0 note=82 velocity=28 time=0\n",
      "note_on channel=0 note=90 velocity=61 time=0\n",
      "note_off channel=0 note=91 velocity=64 time=0\n",
      "note_off channel=0 note=54 velocity=64 time=1\n",
      "note_off channel=0 note=68 velocity=64 time=0\n",
      "note_on channel=0 note=79 velocity=55 time=0\n",
      "note_on channel=0 note=45 velocity=78 time=1\n",
      "note_on channel=0 note=53 velocity=49 time=0\n",
      "note_on channel=0 note=67 velocity=61 time=0\n",
      "note_off channel=0 note=73 velocity=64 time=0\n",
      "note_on channel=0 note=77 velocity=40 time=0\n",
      "note_on channel=0 note=78 velocity=57 time=0\n",
      "note_on channel=0 note=85 velocity=41 time=0\n",
      "note_off channel=0 note=71 velocity=64 time=1\n",
      "note_on channel=0 note=72 velocity=49 time=0\n",
      "note_on channel=0 note=73 velocity=37 time=0\n",
      "note_off channel=0 note=79 velocity=64 time=0\n",
      "note_on channel=0 note=80 velocity=32 time=0\n",
      "note_off channel=0 note=82 velocity=64 time=0\n",
      "note_off channel=0 note=88 velocity=64 time=0\n",
      "note_on channel=0 note=44 velocity=79 time=1\n",
      "note_off channel=0 note=45 velocity=64 time=0\n",
      "note_off channel=0 note=53 velocity=64 time=0\n",
      "note_on channel=0 note=63 velocity=70 time=0\n",
      "note_off channel=0 note=64 velocity=64 time=0\n",
      "note_off channel=0 note=67 velocity=64 time=0\n",
      "note_off channel=0 note=77 velocity=64 time=0\n",
      "note_on channel=0 note=88 velocity=51 time=0\n",
      "note_on channel=0 note=92 velocity=40 time=0\n",
      "note_off channel=0 note=93 velocity=64 time=0\n",
      "note_on channel=0 note=58 velocity=61 time=1\n",
      "note_on channel=0 note=68 velocity=47 time=0\n",
      "note_off channel=0 note=72 velocity=64 time=0\n",
      "note_on channel=0 note=77 velocity=68 time=0\n",
      "note_on channel=0 note=84 velocity=22 time=0\n",
      "note_off channel=0 note=63 velocity=64 time=1\n",
      "note_off channel=0 note=75 velocity=64 time=0\n",
      "note_off channel=0 note=78 velocity=64 time=0\n",
      "note_on channel=0 note=65 velocity=45 time=1\n",
      "note_off channel=0 note=80 velocity=64 time=0\n",
      "note_on channel=0 note=91 velocity=63 time=0\n",
      "note_off channel=0 note=92 velocity=64 time=0\n",
      "note_on channel=0 note=93 velocity=18 time=0\n",
      "note_on channel=0 note=41 velocity=54 time=1\n",
      "note_off channel=0 note=44 velocity=64 time=0\n",
      "note_on channel=0 note=57 velocity=62 time=0\n",
      "note_off channel=0 note=58 velocity=64 time=0\n",
      "note_off channel=0 note=68 velocity=64 time=0\n",
      "note_on channel=0 note=69 velocity=64 time=0\n",
      "note_off channel=0 note=73 velocity=64 time=0\n",
      "note_on channel=0 note=76 velocity=69 time=0\n",
      "note_off channel=0 note=77 velocity=64 time=0\n",
      "note_on channel=0 note=78 velocity=48 time=0\n",
      "note_on channel=0 note=80 velocity=34 time=0\n",
      "note_on channel=0 note=82 velocity=33 time=1\n",
      "note_off channel=0 note=87 velocity=64 time=0\n",
      "note_off channel=0 note=41 velocity=64 time=1\n",
      "note_on channel=0 note=43 velocity=60 time=0\n",
      "note_on channel=0 note=83 velocity=28 time=0\n",
      "note_on channel=0 note=61 velocity=69 time=1\n",
      "note_off channel=0 note=82 velocity=64 time=0\n",
      "note_off channel=0 note=93 velocity=64 time=0\n",
      "note_on channel=0 note=101 velocity=19 time=0\n",
      "note_on channel=0 note=42 velocity=55 time=2\n",
      "note_off channel=0 note=43 velocity=64 time=0\n",
      "note_on channel=0 note=93 velocity=36 time=1\n",
      "note_off channel=0 note=80 velocity=64 time=1\n",
      "note_on channel=0 note=82 velocity=30 time=0\n",
      "note_off channel=0 note=101 velocity=64 time=0\n",
      "note_off channel=0 note=83 velocity=64 time=1\n",
      "note_off channel=0 note=84 velocity=64 time=0\n",
      "note_off channel=0 note=91 velocity=64 time=0\n",
      "note_on channel=0 note=71 velocity=45 time=1\n",
      "note_off channel=0 note=82 velocity=64 time=1\n",
      "note_on channel=0 note=86 velocity=29 time=2\n",
      "note_on channel=0 note=91 velocity=54 time=0\n",
      "note_off channel=0 note=71 velocity=64 time=1\n",
      "note_off channel=0 note=85 velocity=64 time=0\n",
      "note_off channel=0 note=57 velocity=64 time=1\n",
      "note_off channel=0 note=69 velocity=64 time=0\n",
      "note_off channel=0 note=78 velocity=64 time=0\n",
      "note_on channel=0 note=85 velocity=38 time=0\n",
      "note_off channel=0 note=86 velocity=64 time=0\n",
      "note_on channel=0 note=68 velocity=38 time=1\n",
      "note_on channel=0 note=71 velocity=61 time=0\n",
      "note_on channel=0 note=75 velocity=38 time=0\n",
      "note_off channel=0 note=76 velocity=64 time=0\n",
      "note_on channel=0 note=77 velocity=53 time=0\n",
      "note_on channel=0 note=82 velocity=23 time=0\n",
      "note_off channel=0 note=90 velocity=64 time=0\n",
      "note_on channel=0 note=78 velocity=45 time=1\n",
      "note_on channel=0 note=87 velocity=46 time=0\n",
      "note_off channel=0 note=75 velocity=64 time=1\n",
      "note_on channel=0 note=76 velocity=38 time=0\n",
      "note_off channel=0 note=77 velocity=64 time=0\n",
      "note_off channel=0 note=85 velocity=64 time=0\n",
      "note_off channel=0 note=61 velocity=64 time=1\n",
      "note_on channel=0 note=62 velocity=67 time=0\n",
      "note_off channel=0 note=71 velocity=64 time=0\n",
      "note_on channel=0 note=72 velocity=61 time=0\n",
      "note_on channel=0 note=79 velocity=43 time=0\n",
      "note_on channel=0 note=61 velocity=75 time=1\n",
      "note_off channel=0 note=62 velocity=64 time=0\n",
      "note_on channel=0 note=71 velocity=46 time=0\n",
      "note_on channel=0 note=75 velocity=36 time=0\n",
      "note_on channel=0 note=85 velocity=39 time=0\n",
      "note_off channel=0 note=42 velocity=64 time=1\n",
      "note_off channel=0 note=76 velocity=64 time=0\n",
      "note_off channel=0 note=78 velocity=64 time=0\n",
      "note_off channel=0 note=71 velocity=64 time=1\n",
      "note_on channel=0 note=80 velocity=83 time=0\n",
      "note_on channel=0 note=95 velocity=45 time=0\n",
      "note_on channel=0 note=45 velocity=67 time=1\n",
      "note_off channel=0 note=65 velocity=64 time=0\n",
      "note_on channel=0 note=76 velocity=41 time=0\n",
      "note_on channel=0 note=78 velocity=35 time=0\n",
      "note_off channel=0 note=79 velocity=64 time=0\n",
      "note_off channel=0 note=82 velocity=64 time=0\n",
      "note_on channel=0 note=83 velocity=44 time=0\n",
      "note_on channel=0 note=89 velocity=71 time=0\n",
      "note_off channel=0 note=45 velocity=64 time=1\n",
      "note_on channel=0 note=47 velocity=81 time=0\n",
      "note_off channel=0 note=61 velocity=64 time=0\n",
      "note_on channel=0 note=62 velocity=66 time=0\n",
      "note_off channel=0 note=68 velocity=64 time=0\n",
      "note_on channel=0 note=71 velocity=58 time=0\n",
      "note_off channel=0 note=75 velocity=64 time=0\n",
      "note_off channel=0 note=91 velocity=64 time=0\n",
      "note_off channel=0 note=47 velocity=64 time=1\n",
      "note_on channel=0 note=48 velocity=86 time=0\n",
      "note_on channel=0 note=59 velocity=54 time=0\n",
      "note_off channel=0 note=62 velocity=64 time=0\n",
      "note_on channel=0 note=68 velocity=44 time=0\n",
      "note_off channel=0 note=72 velocity=64 time=0\n",
      "note_off channel=0 note=78 velocity=64 time=0\n",
      "note_on channel=0 note=73 velocity=29 time=1\n",
      "note_on channel=0 note=75 velocity=33 time=0\n",
      "note_off channel=0 note=76 velocity=64 time=0\n",
      "note_on channel=0 note=78 velocity=41 time=0\n",
      "note_off channel=0 note=83 velocity=64 time=0\n",
      "note_on channel=0 note=90 velocity=42 time=0\n",
      "note_off channel=0 note=48 velocity=64 time=1\n",
      "note_off channel=0 note=59 velocity=64 time=0\n",
      "note_off channel=0 note=88 velocity=64 time=0\n",
      "note_on channel=0 note=65 velocity=55 time=1\n",
      "note_off channel=0 note=73 velocity=64 time=0\n",
      "note_on channel=0 note=61 velocity=71 time=1\n",
      "note_off channel=0 note=71 velocity=64 time=0\n",
      "note_on channel=0 note=72 velocity=59 time=0\n",
      "note_on channel=0 note=88 velocity=45 time=0\n",
      "note_off channel=0 note=90 velocity=64 time=0\n",
      "note_on channel=0 note=91 velocity=31 time=0\n",
      "note_on channel=0 note=49 velocity=52 time=1\n",
      "note_off channel=0 note=78 velocity=64 time=0\n",
      "note_on channel=0 note=82 velocity=27 time=0\n",
      "note_off channel=0 note=89 velocity=64 time=0\n",
      "note_off channel=0 note=72 velocity=64 time=1\n",
      "note_on channel=0 note=83 velocity=40 time=0\n",
      "note_on channel=0 note=90 velocity=41 time=0\n",
      "note_on channel=0 note=71 velocity=40 time=1\n",
      "note_on channel=0 note=89 velocity=51 time=0\n",
      "note_off channel=0 note=91 velocity=64 time=0\n",
      "note_off channel=0 note=49 velocity=64 time=1\n",
      "note_on channel=0 note=78 velocity=30 time=0\n",
      "note_off channel=0 note=82 velocity=64 time=0\n",
      "note_off channel=0 note=85 velocity=64 time=0\n",
      "note_on channel=0 note=91 velocity=29 time=0\n",
      "note_on channel=0 note=54 velocity=32 time=1\n",
      "note_on channel=0 note=44 velocity=33 time=1\n",
      "note_on channel=0 note=60 velocity=65 time=0\n",
      "note_off channel=0 note=61 velocity=64 time=0\n",
      "note_off channel=0 note=71 velocity=64 time=1\n",
      "note_off channel=0 note=87 velocity=64 time=0\n",
      "note_off channel=0 note=91 velocity=64 time=0\n",
      "note_off channel=0 note=54 velocity=64 time=1\n",
      "note_off channel=0 note=60 velocity=64 time=0\n",
      "note_on channel=0 note=71 velocity=49 time=0\n",
      "note_on channel=0 note=73 velocity=37 time=0\n",
      "note_off channel=0 note=88 velocity=64 time=0\n",
      "note_on channel=0 note=58 velocity=58 time=1\n",
      "note_on channel=0 note=84 velocity=47 time=0\n",
      "note_on channel=0 note=86 velocity=30 time=0\n",
      "note_off channel=0 note=71 velocity=64 time=1\n",
      "note_off channel=0 note=75 velocity=64 time=0\n",
      "note_off channel=0 note=78 velocity=64 time=0\n",
      "note_on channel=0 note=43 velocity=21 time=1\n",
      "note_off channel=0 note=44 velocity=64 time=0\n",
      "note_on channel=0 note=82 velocity=37 time=0\n",
      "note_off channel=0 note=83 velocity=64 time=0\n",
      "note_off channel=0 note=90 velocity=64 time=0\n",
      "note_off channel=0 note=58 velocity=64 time=2\n",
      "note_on channel=0 note=59 velocity=54 time=0\n",
      "note_on channel=0 note=90 velocity=50 time=0\n",
      "note_off channel=0 note=95 velocity=64 time=0\n",
      "note_on channel=0 note=54 velocity=27 time=1\n",
      "note_on channel=0 note=78 velocity=53 time=0\n",
      "note_on channel=0 note=83 velocity=46 time=0\n",
      "note_off channel=0 note=89 velocity=64 time=0\n",
      "note_on channel=0 note=58 velocity=55 time=1\n",
      "note_off channel=0 note=59 velocity=64 time=0\n",
      "note_off channel=0 note=82 velocity=64 time=0\n",
      "note_on channel=0 note=89 velocity=73 time=0\n",
      "note_on channel=0 note=91 velocity=21 time=0\n",
      "note_on channel=0 note=77 velocity=57 time=1\n",
      "note_off channel=0 note=78 velocity=64 time=0\n",
      "note_on channel=0 note=87 velocity=46 time=0\n",
      "note_off channel=0 note=90 velocity=64 time=0\n",
      "note_off channel=0 note=43 velocity=64 time=1\n",
      "note_off channel=0 note=54 velocity=64 time=0\n",
      "note_off channel=0 note=68 velocity=64 time=0\n",
      "note_on channel=0 note=68 velocity=23 time=1\n",
      "note_off channel=0 note=91 velocity=64 time=0\n",
      "note_on channel=0 note=90 velocity=37 time=2\n",
      "note_off channel=0 note=58 velocity=64 time=1\n",
      "note_on channel=0 note=59 velocity=51 time=0\n",
      "note_off channel=0 note=83 velocity=64 time=0\n",
      "note_on channel=0 note=83 velocity=42 time=1\n",
      "note_off channel=0 note=86 velocity=64 time=0\n",
      "note_on channel=0 note=47 velocity=64 time=1\n",
      "note_off channel=0 note=73 velocity=64 time=0\n",
      "note_off channel=0 note=77 velocity=64 time=0\n",
      "note_on channel=0 note=78 velocity=57 time=0\n",
      "note_on channel=0 note=95 velocity=45 time=0\n",
      "note_off channel=0 note=59 velocity=64 time=1\n",
      "note_off channel=0 note=68 velocity=64 time=0\n",
      "note_on channel=0 note=76 velocity=47 time=0\n",
      "note_off channel=0 note=90 velocity=64 time=0\n",
      "note_on channel=0 note=91 velocity=37 time=0\n",
      "note_on channel=0 note=45 velocity=76 time=1\n",
      "note_off channel=0 note=47 velocity=64 time=0\n",
      "note_on channel=0 note=59 velocity=54 time=0\n",
      "note_on channel=0 note=69 velocity=55 time=0\n",
      "note_on channel=0 note=85 velocity=43 time=0\n",
      "note_on channel=0 note=44 velocity=77 time=1\n",
      "note_off channel=0 note=45 velocity=64 time=0\n",
      "note_on channel=0 note=73 velocity=36 time=0\n",
      "note_on channel=0 note=75 velocity=36 time=0\n",
      "note_off channel=0 note=78 velocity=64 time=0\n",
      "note_on channel=0 note=58 velocity=57 time=1\n",
      "note_off channel=0 note=59 velocity=64 time=0\n",
      "note_off channel=0 note=76 velocity=64 time=0\n",
      "note_on channel=0 note=78 velocity=29 time=0\n",
      "note_on channel=0 note=88 velocity=43 time=0\n",
      "note_off channel=0 note=75 velocity=64 time=1\n",
      "note_on channel=0 note=90 velocity=57 time=0\n",
      "note_off channel=0 note=95 velocity=64 time=0\n",
      "note_on channel=0 note=43 velocity=74 time=1\n",
      "note_off channel=0 note=44 velocity=64 time=0\n",
      "note_on channel=0 note=57 velocity=60 time=0\n",
      "note_off channel=0 note=58 velocity=64 time=0\n",
      "note_on channel=0 note=76 velocity=56 time=0\n",
      "note_on channel=0 note=61 velocity=45 time=1\n",
      "note_off channel=0 note=78 velocity=64 time=0\n",
      "note_off channel=0 note=91 velocity=64 time=1\n",
      "note_on channel=0 note=82 velocity=23 time=1\n",
      "note_on channel=0 note=91 velocity=48 time=0\n",
      "note_off channel=0 note=83 velocity=64 time=1\n",
      "note_off channel=0 note=89 velocity=64 time=4\n",
      "note_off channel=0 note=43 velocity=64 time=1\n",
      "note_on channel=0 note=71 velocity=15 time=0\n",
      "note_off channel=0 note=84 velocity=64 time=0\n",
      "note_off channel=0 note=91 velocity=64 time=0\n",
      "note_on channel=0 note=83 velocity=32 time=3\n",
      "note_off channel=0 note=71 velocity=64 time=1\n",
      "note_off channel=0 note=82 velocity=64 time=0\n",
      "note_on channel=0 note=91 velocity=44 time=1\n",
      "note_off channel=0 note=88 velocity=64 time=4\n",
      "note_on channel=0 note=89 velocity=52 time=0\n",
      "note_off channel=0 note=91 velocity=64 time=0\n",
      "note_on channel=0 note=71 velocity=16 time=1\n",
      "note_off channel=0 note=85 velocity=64 time=3\n",
      "note_off channel=0 note=61 velocity=64 time=1\n",
      "note_on channel=0 note=82 velocity=34 time=0\n",
      "note_off channel=0 note=83 velocity=64 time=0\n",
      "note_on channel=0 note=64 velocity=82 time=1\n",
      "note_off channel=0 note=65 velocity=64 time=0\n",
      "note_off channel=0 note=69 velocity=64 time=0\n",
      "note_off channel=0 note=71 velocity=64 time=0\n",
      "note_off channel=0 note=76 velocity=64 time=0\n",
      "note_on channel=0 note=95 velocity=16 time=0\n",
      "note_on channel=0 note=45 velocity=78 time=1\n",
      "note_on channel=0 note=63 velocity=75 time=1\n",
      "note_off channel=0 note=64 velocity=64 time=0\n",
      "note_on channel=0 note=91 velocity=33 time=0\n",
      "note_on channel=0 note=44 velocity=79 time=1\n",
      "note_off channel=0 note=45 velocity=64 time=0\n",
      "note_off channel=0 note=63 velocity=64 time=2\n",
      "note_off channel=0 note=91 velocity=64 time=0\n",
      "note_on channel=0 note=61 velocity=38 time=1\n",
      "note_off channel=0 note=44 velocity=64 time=1\n",
      "note_on channel=0 note=56 velocity=62 time=0\n",
      "note_off channel=0 note=57 velocity=64 time=0\n",
      "note_on channel=0 note=84 velocity=20 time=0\n",
      "note_off channel=0 note=95 velocity=64 time=0\n",
      "note_off channel=0 note=61 velocity=64 time=2\n",
      "note_on channel=0 note=91 velocity=19 time=0\n",
      "note_on channel=0 note=43 velocity=62 time=1\n",
      "note_on channel=0 note=61 velocity=60 time=0\n",
      "note_on channel=0 note=71 velocity=27 time=0\n",
      "note_on channel=0 note=77 velocity=34 time=0\n",
      "note_off channel=0 note=43 velocity=64 time=2\n",
      "note_on channel=0 note=75 velocity=57 time=0\n",
      "note_off channel=0 note=91 velocity=64 time=0\n",
      "note_on channel=0 note=48 velocity=69 time=4\n",
      "note_on channel=0 note=47 velocity=72 time=1\n",
      "note_off channel=0 note=48 velocity=64 time=0\n",
      "note_off channel=0 note=56 velocity=64 time=1\n",
      "note_off channel=0 note=47 velocity=64 time=1\n",
      "note_on channel=0 note=48 velocity=67 time=0\n",
      "note_on channel=0 note=65 velocity=22 time=0\n",
      "note_off channel=0 note=48 velocity=64 time=1\n",
      "note_on channel=0 note=49 velocity=76 time=0\n",
      "note_off channel=0 note=49 velocity=64 time=1\n",
      "note_on channel=0 note=53 velocity=74 time=0\n",
      "note_off channel=0 note=53 velocity=64 time=2\n",
      "note_on channel=0 note=88 velocity=29 time=0\n",
      "note_on channel=0 note=91 velocity=29 time=0\n",
      "note_off channel=0 note=89 velocity=64 time=1\n",
      "note_off channel=0 note=61 velocity=64 time=1\n",
      "note_off channel=0 note=84 velocity=64 time=0\n",
      "note_on channel=0 note=84 velocity=36 time=2\n",
      "note_on channel=0 note=56 velocity=51 time=1\n",
      "note_off channel=0 note=73 velocity=64 time=0\n",
      "note_on channel=0 note=64 velocity=80 time=1\n",
      "note_off channel=0 note=65 velocity=64 time=0\n",
      "note_off channel=0 note=71 velocity=64 time=0\n",
      "note_on channel=0 note=73 velocity=44 time=0\n",
      "note_on channel=0 note=46 velocity=67 time=1\n",
      "note_off channel=0 note=56 velocity=64 time=0\n",
      "note_off channel=0 note=80 velocity=64 time=0\n",
      "note_off channel=0 note=88 velocity=64 time=0\n",
      "note_on channel=0 note=45 velocity=77 time=1\n",
      "note_off channel=0 note=46 velocity=64 time=0\n",
      "note_on channel=0 note=68 velocity=65 time=0\n",
      "note_on channel=0 note=44 velocity=78 time=1\n",
      "note_off channel=0 note=45 velocity=64 time=0\n",
      "note_on channel=0 note=63 velocity=70 time=0\n",
      "note_off channel=0 note=64 velocity=64 time=0\n",
      "note_off channel=0 note=82 velocity=64 time=0\n",
      "note_on channel=0 note=83 velocity=56 time=0\n",
      "note_on channel=0 note=89 velocity=39 time=1\n",
      "note_on channel=0 note=71 velocity=28 time=1\n",
      "note_off channel=0 note=84 velocity=64 time=0\n",
      "note_off channel=0 note=44 velocity=64 time=1\n",
      "note_on channel=0 note=45 velocity=76 time=0\n",
      "note_on channel=0 note=56 velocity=53 time=0\n",
      "note_off channel=0 note=63 velocity=64 time=0\n",
      "note_on channel=0 note=44 velocity=71 time=2\n",
      "note_off channel=0 note=45 velocity=64 time=0\n",
      "note_on channel=0 note=61 velocity=47 time=0\n",
      "note_on channel=0 note=65 velocity=47 time=0\n",
      "note_on channel=0 note=43 velocity=61 time=2\n",
      "note_off channel=0 note=44 velocity=64 time=0\n",
      "note_off channel=0 note=61 velocity=64 time=1\n",
      "note_on channel=0 note=62 velocity=57 time=0\n",
      "note_off channel=0 note=43 velocity=64 time=1\n",
      "note_on channel=0 note=61 velocity=58 time=1\n",
      "note_off channel=0 note=62 velocity=64 time=0\n",
      "note_off channel=0 note=91 velocity=64 time=0\n",
      "note_on channel=0 note=48 velocity=70 time=3\n",
      "note_off channel=0 note=56 velocity=64 time=0\n",
      "note_on channel=0 note=56 velocity=51 time=1\n",
      "note_off channel=0 note=71 velocity=64 time=0\n",
      "note_on channel=0 note=47 velocity=73 time=1\n",
      "note_off channel=0 note=48 velocity=64 time=0\n",
      "note_on channel=0 note=84 velocity=20 time=0\n",
      "note_off channel=0 note=47 velocity=64 time=1\n",
      "note_on channel=0 note=48 velocity=72 time=0\n",
      "note_off channel=0 note=56 velocity=64 time=1\n",
      "note_off channel=0 note=48 velocity=64 time=1\n",
      "note_on channel=0 note=52 velocity=75 time=0\n",
      "note_on channel=0 note=71 velocity=15 time=0\n",
      "note_off channel=0 note=89 velocity=64 time=0\n",
      "note_off channel=0 note=52 velocity=64 time=1\n",
      "note_on channel=0 note=54 velocity=70 time=0\n",
      "note_on channel=0 note=91 velocity=36 time=0\n",
      "note_off channel=0 note=93 velocity=64 time=0\n",
      "note_on channel=0 note=53 velocity=60 time=2\n",
      "note_off channel=0 note=54 velocity=64 time=0\n",
      "note_on channel=0 note=80 velocity=81 time=0\n",
      "note_on channel=0 note=89 velocity=72 time=3\n",
      "note_off channel=0 note=73 velocity=64 time=1\n",
      "note_off channel=0 note=71 velocity=64 time=1\n",
      "note_on channel=0 note=96 velocity=25 time=0\n",
      "note_on channel=0 note=48 velocity=87 time=1\n",
      "note_off channel=0 note=53 velocity=64 time=0\n",
      "note_off channel=0 note=61 velocity=64 time=0\n",
      "note_off channel=0 note=65 velocity=64 time=0\n",
      "note_off channel=0 note=77 velocity=64 time=0\n",
      "note_off channel=0 note=84 velocity=64 time=0\n",
      "note_off channel=0 note=90 velocity=64 time=0\n",
      "note_on channel=0 note=78 velocity=29 time=1\n",
      "note_on channel=0 note=63 velocity=51 time=1\n",
      "note_on channel=0 note=93 velocity=15 time=0\n",
      "note_on channel=0 note=47 velocity=73 time=1\n",
      "note_off channel=0 note=48 velocity=64 time=0\n",
      "note_on channel=0 note=56 velocity=42 time=0\n",
      "note_off channel=0 note=78 velocity=64 time=0\n",
      "note_off channel=0 note=96 velocity=64 time=0\n",
      "note_on channel=0 note=46 velocity=66 time=1\n",
      "note_off channel=0 note=47 velocity=64 time=0\n",
      "note_on channel=0 note=71 velocity=20 time=0\n",
      "note_off channel=0 note=46 velocity=64 time=2\n",
      "note_off channel=0 note=56 velocity=64 time=0\n",
      "note_off channel=0 note=63 velocity=64 time=0\n",
      "note_on channel=0 note=77 velocity=32 time=0\n",
      "note_on channel=0 note=56 velocity=48 time=1\n",
      "note_on channel=0 note=45 velocity=60 time=1\n",
      "note_off channel=0 note=75 velocity=64 time=0\n",
      "note_off channel=0 note=93 velocity=64 time=0\n",
      "note_on channel=0 note=55 velocity=65 time=1\n",
      "note_off channel=0 note=56 velocity=64 time=0\n",
      "note_off channel=0 note=68 velocity=64 time=0\n",
      "note_on channel=0 note=44 velocity=50 time=2\n",
      "note_off channel=0 note=45 velocity=64 time=0\n",
      "note_on channel=0 note=61 velocity=13 time=0\n",
      "note_on channel=0 note=66 velocity=46 time=0\n",
      "note_on channel=0 note=90 velocity=29 time=0\n",
      "note_off channel=0 note=55 velocity=64 time=1\n",
      "note_on channel=0 note=75 velocity=28 time=0\n",
      "note_on channel=0 note=53 velocity=57 time=1\n",
      "note_off channel=0 note=71 velocity=64 time=0\n",
      "note_off channel=0 note=66 velocity=64 time=1\n",
      "note_on channel=0 note=72 velocity=44 time=0\n",
      "note_off channel=0 note=90 velocity=64 time=0\n",
      "note_off channel=0 note=53 velocity=64 time=1\n",
      "note_on channel=0 note=81 velocity=11 time=0\n",
      "note_on channel=0 note=43 velocity=33 time=1\n",
      "note_off channel=0 note=44 velocity=64 time=0\n",
      "note_on channel=0 note=53 velocity=60 time=0\n",
      "note_off channel=0 note=72 velocity=64 time=0\n",
      "note_on channel=0 note=73 velocity=49 time=0\n",
      "note_on channel=0 note=72 velocity=40 time=2\n",
      "note_off channel=0 note=73 velocity=64 time=0\n",
      "note_off channel=0 note=81 velocity=64 time=0\n",
      "note_off channel=0 note=43 velocity=64 time=1\n",
      "note_off channel=0 note=61 velocity=64 time=0\n",
      "note_on channel=0 note=64 velocity=35 time=0\n",
      "note_on channel=0 note=52 velocity=60 time=1\n",
      "note_off channel=0 note=53 velocity=64 time=0\n",
      "note_on channel=0 note=70 velocity=44 time=1\n",
      "note_off channel=0 note=72 velocity=64 time=0\n",
      "note_on channel=0 note=73 velocity=24 time=0\n",
      "note_on channel=0 note=51 velocity=57 time=1\n",
      "note_off channel=0 note=52 velocity=64 time=0\n",
      "note_off channel=0 note=64 velocity=64 time=0\n",
      "note_off channel=0 note=70 velocity=64 time=2\n",
      "note_on channel=0 note=71 velocity=42 time=0\n",
      "note_off channel=0 note=51 velocity=64 time=1\n",
      "note_on channel=0 note=52 velocity=40 time=0\n",
      "note_on channel=0 note=93 velocity=26 time=1\n",
      "note_on channel=0 note=51 velocity=37 time=1\n",
      "note_off channel=0 note=52 velocity=64 time=0\n",
      "note_on channel=0 note=70 velocity=43 time=0\n",
      "note_off channel=0 note=71 velocity=64 time=0\n",
      "note_on channel=0 note=61 velocity=47 time=1\n",
      "note_on channel=0 note=65 velocity=36 time=0\n",
      "note_off channel=0 note=75 velocity=64 time=0\n",
      "note_off channel=0 note=51 velocity=64 time=1\n",
      "note_off channel=0 note=73 velocity=64 time=0\n",
      "note_off channel=0 note=77 velocity=64 time=0\n",
      "note_on channel=0 note=102 velocity=13 time=0\n",
      "note_on channel=0 note=46 velocity=71 time=1\n",
      "note_on channel=0 note=57 velocity=36 time=0\n",
      "note_off channel=0 note=61 velocity=64 time=0\n",
      "note_on channel=0 note=62 velocity=57 time=0\n",
      "note_off channel=0 note=65 velocity=64 time=0\n",
      "note_on channel=0 note=76 velocity=47 time=0\n",
      "note_on channel=0 note=77 velocity=38 time=0\n",
      "note_on channel=0 note=79 velocity=47 time=0\n",
      "note_on channel=0 note=84 velocity=46 time=0\n",
      "note_on channel=0 note=45 velocity=76 time=1\n",
      "note_off channel=0 note=46 velocity=64 time=0\n",
      "note_on channel=0 note=67 velocity=46 time=0\n",
      "note_on channel=0 note=69 velocity=44 time=0\n",
      "note_off channel=0 note=70 velocity=64 time=0\n",
      "note_on channel=0 note=71 velocity=48 time=0\n",
      "note_on channel=0 note=73 velocity=33 time=0\n",
      "note_on channel=0 note=85 velocity=39 time=0\n",
      "note_on channel=0 note=44 velocity=77 time=1\n",
      "note_off channel=0 note=45 velocity=64 time=0\n",
      "note_off channel=0 note=57 velocity=64 time=0\n",
      "note_off channel=0 note=62 velocity=64 time=0\n",
      "note_on channel=0 note=63 velocity=39 time=0\n",
      "note_off channel=0 note=76 velocity=64 time=0\n",
      "note_off channel=0 note=79 velocity=64 time=0\n",
      "note_off channel=0 note=102 velocity=64 time=0\n",
      "note_off channel=0 note=69 velocity=64 time=1\n",
      "note_off channel=0 note=63 velocity=64 time=1\n",
      "note_on channel=0 note=70 velocity=48 time=0\n",
      "note_off channel=0 note=71 velocity=64 time=0\n",
      "note_on channel=0 note=43 velocity=72 time=1\n",
      "note_off channel=0 note=44 velocity=64 time=0\n",
      "note_on channel=0 note=52 velocity=64 time=0\n",
      "note_on channel=0 note=63 velocity=39 time=0\n",
      "note_on channel=0 note=71 velocity=51 time=0\n",
      "note_off channel=0 note=67 velocity=64 time=1\n",
      "note_off channel=0 note=70 velocity=64 time=0\n",
      "note_off channel=0 note=63 velocity=64 time=1\n",
      "note_off channel=0 note=84 velocity=64 time=0\n",
      "note_on channel=0 note=90 velocity=44 time=0\n",
      "note_on channel=0 note=61 velocity=39 time=1\n",
      "note_on channel=0 note=68 velocity=22 time=0\n",
      "note_off channel=0 note=91 velocity=64 time=0\n",
      "note_on channel=0 note=64 velocity=83 time=1\n",
      "note_on channel=0 note=88 velocity=11 time=0\n",
      "note_off channel=0 note=85 velocity=64 time=1\n",
      "note_off channel=0 note=61 velocity=64 time=1\n",
      "note_off channel=0 note=43 velocity=64 time=1\n",
      "note_off channel=0 note=88 velocity=64 time=1\n",
      "note_off channel=0 note=93 velocity=64 time=1\n",
      "note_off channel=0 note=77 velocity=64 time=1\n",
      "note_on channel=0 note=93 velocity=9 time=3\n",
      "note_off channel=0 note=73 velocity=64 time=1\n",
      "note_on channel=0 note=61 velocity=21 time=2\n",
      "note_on channel=0 note=88 velocity=30 time=0\n",
      "note_off channel=0 note=89 velocity=64 time=0\n",
      "note_on channel=0 note=73 velocity=39 time=3\n",
      "note_on channel=0 note=86 velocity=15 time=0\n",
      "note_off channel=0 note=61 velocity=64 time=1\n",
      "note_off channel=0 note=93 velocity=64 time=0\n",
      "note_off channel=0 note=68 velocity=64 time=3\n",
      "note_on channel=0 note=77 velocity=44 time=0\n",
      "note_off channel=0 note=86 velocity=64 time=0\n",
      "note_on channel=0 note=45 velocity=77 time=1\n",
      "note_off channel=0 note=52 velocity=64 time=0\n",
      "note_on channel=0 note=86 velocity=10 time=0\n",
      "note_on channel=0 note=44 velocity=79 time=2\n",
      "note_off channel=0 note=45 velocity=64 time=0\n",
      "note_on channel=0 note=63 velocity=71 time=0\n",
      "note_off channel=0 note=64 velocity=64 time=0\n",
      "note_on channel=0 note=53 velocity=69 time=1\n",
      "note_off channel=0 note=77 velocity=64 time=0\n",
      "note_off channel=0 note=86 velocity=64 time=0\n",
      "note_on channel=0 note=52 velocity=69 time=1\n",
      "note_off channel=0 note=53 velocity=64 time=0\n",
      "note_on channel=0 note=66 velocity=37 time=0\n",
      "note_off channel=0 note=87 velocity=64 time=0\n",
      "note_off channel=0 note=52 velocity=64 time=1\n",
      "note_off channel=0 note=63 velocity=64 time=0\n",
      "note_on channel=0 note=77 velocity=38 time=0\n",
      "note_off channel=0 note=90 velocity=64 time=0\n",
      "note_off channel=0 note=44 velocity=64 time=1\n",
      "note_on channel=0 note=61 velocity=39 time=0\n",
      "note_off channel=0 note=66 velocity=64 time=0\n",
      "note_on channel=0 note=67 velocity=30 time=0\n",
      "note_off channel=0 note=73 velocity=64 time=0\n",
      "note_on channel=0 note=75 velocity=35 time=0\n",
      "note_off channel=0 note=88 velocity=64 time=0\n",
      "note_on channel=0 note=51 velocity=52 time=1\n",
      "note_off channel=0 note=61 velocity=64 time=1\n",
      "note_on channel=0 note=70 velocity=35 time=0\n",
      "note_off channel=0 note=71 velocity=64 time=0\n",
      "note_on channel=0 note=43 velocity=62 time=1\n",
      "note_off channel=0 note=51 velocity=64 time=0\n",
      "note_on channel=0 note=52 velocity=41 time=0\n",
      "note_on channel=0 note=61 velocity=59 time=0\n",
      "note_off channel=0 note=67 velocity=64 time=0\n",
      "note_on channel=0 note=68 velocity=44 time=0\n",
      "note_on channel=0 note=79 velocity=9 time=0\n",
      "note_on channel=0 note=90 velocity=16 time=0\n",
      "note_on channel=0 note=91 velocity=11 time=1\n",
      "note_on channel=0 note=42 velocity=57 time=1\n",
      "note_off channel=0 note=43 velocity=64 time=0\n",
      "note_on channel=0 note=65 velocity=51 time=0\n",
      "note_off channel=0 note=70 velocity=64 time=0\n",
      "note_on channel=0 note=71 velocity=48 time=0\n",
      "note_off channel=0 note=52 velocity=64 time=1\n",
      "note_off channel=0 note=42 velocity=64 time=2\n",
      "note_on channel=0 note=48 velocity=70 time=0\n",
      "note_off channel=0 note=79 velocity=64 time=0\n",
      "note_off channel=0 note=91 velocity=64 time=1\n",
      "note_on channel=0 note=47 velocity=73 time=2\n",
      "note_off channel=0 note=48 velocity=64 time=0\n",
      "note_off channel=0 note=47 velocity=64 time=1\n",
      "note_on channel=0 note=48 velocity=75 time=0\n",
      "note_off channel=0 note=61 velocity=64 time=0\n",
      "note_on channel=0 note=62 velocity=34 time=0\n",
      "note_off channel=0 note=90 velocity=64 time=0\n",
      "note_off channel=0 note=48 velocity=64 time=2\n",
      "note_on channel=0 note=52 velocity=75 time=0\n",
      "note_on channel=0 note=73 velocity=24 time=0\n",
      "note_off channel=0 note=52 velocity=64 time=1\n",
      "note_on channel=0 note=53 velocity=67 time=0\n",
      "note_on channel=0 note=61 velocity=33 time=0\n",
      "note_off channel=0 note=62 velocity=64 time=0\n",
      "note_off channel=0 note=83 velocity=64 time=0\n",
      "note_off channel=0 note=61 velocity=64 time=3\n",
      "note_on channel=0 note=91 velocity=24 time=0\n",
      "note_on channel=0 note=93 velocity=12 time=2\n",
      "note_off channel=0 note=73 velocity=64 time=2\n",
      "note_on channel=0 note=90 velocity=36 time=0\n",
      "note_off channel=0 note=53 velocity=64 time=1\n",
      "note_on channel=0 note=63 velocity=75 time=0\n",
      "note_off channel=0 note=65 velocity=64 time=0\n",
      "note_off channel=0 note=68 velocity=64 time=0\n",
      "note_off channel=0 note=75 velocity=64 time=0\n",
      "note_on channel=0 note=86 velocity=14 time=0\n",
      "note_on channel=0 note=87 velocity=21 time=0\n",
      "note_on channel=0 note=45 velocity=77 time=1\n",
      "note_off channel=0 note=63 velocity=64 time=0\n",
      "note_on channel=0 note=64 velocity=83 time=0\n",
      "note_on channel=0 note=84 velocity=30 time=0\n",
      "note_on channel=0 note=63 velocity=74 time=1\n",
      "note_off channel=0 note=64 velocity=64 time=0\n",
      "note_on channel=0 note=73 velocity=31 time=0\n",
      "note_off channel=0 note=93 velocity=64 time=0\n",
      "note_on channel=0 note=44 velocity=79 time=1\n",
      "note_off channel=0 note=45 velocity=64 time=0\n",
      "note_on channel=0 note=69 velocity=53 time=0\n",
      "note_off channel=0 note=77 velocity=64 time=0\n",
      "note_on channel=0 note=78 velocity=33 time=0\n",
      "note_on channel=0 note=50 velocity=74 time=1\n",
      "note_off channel=0 note=71 velocity=64 time=0\n",
      "note_off channel=0 note=86 velocity=64 time=0\n",
      "note_off channel=0 note=87 velocity=64 time=0\n",
      "note_on channel=0 note=68 velocity=40 time=1\n",
      "note_on channel=0 note=71 velocity=54 time=0\n",
      "note_on channel=0 note=82 velocity=37 time=0\n",
      "note_on channel=0 note=86 velocity=22 time=0\n",
      "note_on channel=0 note=88 velocity=19 time=0\n",
      "note_off channel=0 note=44 velocity=64 time=1\n",
      "note_on channel=0 note=48 velocity=72 time=0\n",
      "note_off channel=0 note=50 velocity=64 time=0\n",
      "note_off channel=0 note=69 velocity=64 time=0\n",
      "note_on channel=0 note=77 velocity=25 time=0\n",
      "note_off channel=0 note=78 velocity=64 time=0\n",
      "note_on channel=0 note=41 velocity=56 time=1\n",
      "note_off channel=0 note=63 velocity=64 time=0\n",
      "note_on channel=0 note=64 velocity=52 time=0\n",
      "note_off channel=0 note=82 velocity=64 time=0\n",
      "note_on channel=0 note=83 velocity=55 time=0\n",
      "note_off channel=0 note=84 velocity=64 time=0\n",
      "note_off channel=0 note=48 velocity=64 time=1\n",
      "note_on channel=0 note=51 velocity=68 time=0\n",
      "note_on channel=0 note=61 velocity=35 time=0\n",
      "note_off channel=0 note=41 velocity=64 time=1\n",
      "note_on channel=0 note=43 velocity=62 time=0\n",
      "note_off channel=0 note=51 velocity=64 time=0\n",
      "note_on channel=0 note=52 velocity=68 time=0\n",
      "note_off channel=0 note=64 velocity=64 time=0\n",
      "note_off channel=0 note=77 velocity=64 time=0\n",
      "note_on channel=0 note=85 velocity=34 time=0\n",
      "note_off channel=0 note=86 velocity=64 time=0\n",
      "note_on channel=0 note=89 velocity=21 time=0\n",
      "note_off channel=0 note=61 velocity=64 time=1\n",
      "note_on channel=0 note=77 velocity=21 time=0\n",
      "note_off channel=0 note=88 velocity=64 time=0\n",
      "note_on channel=0 note=42 velocity=57 time=1\n",
      "note_off channel=0 note=43 velocity=64 time=0\n",
      "note_on channel=0 note=82 velocity=39 time=0\n",
      "note_off channel=0 note=83 velocity=64 time=0\n",
      "note_on channel=0 note=88 velocity=28 time=0\n",
      "note_off channel=0 note=90 velocity=64 time=0\n",
      "note_on channel=0 note=51 velocity=57 time=1\n",
      "note_off channel=0 note=52 velocity=64 time=0\n",
      "note_on channel=0 note=87 velocity=25 time=0\n",
      "note_off channel=0 note=89 velocity=64 time=0\n",
      "note_on channel=0 note=61 velocity=58 time=1\n",
      "note_off channel=0 note=82 velocity=64 time=0\n",
      "note_on channel=0 note=84 velocity=25 time=0\n",
      "note_on channel=0 note=90 velocity=26 time=0\n",
      "note_off channel=0 note=42 velocity=64 time=1\n",
      "note_off channel=0 note=73 velocity=64 time=0\n",
      "note_on channel=0 note=76 velocity=24 time=0\n",
      "note_off channel=0 note=77 velocity=64 time=0\n",
      "note_on channel=0 note=93 velocity=11 time=0\n",
      "note_off channel=0 note=51 velocity=64 time=1\n",
      "note_on channel=0 note=65 velocity=45 time=0\n",
      "note_off channel=0 note=87 velocity=64 time=0\n",
      "note_on channel=0 note=48 velocity=74 time=1\n",
      "note_on channel=0 note=53 velocity=67 time=0\n",
      "note_on channel=0 note=72 velocity=49 time=0\n",
      "note_on channel=0 note=75 velocity=41 time=0\n",
      "note_on channel=0 note=82 velocity=29 time=0\n",
      "note_off channel=0 note=65 velocity=64 time=1\n",
      "note_off channel=0 note=76 velocity=64 time=0\n",
      "note_on channel=0 note=78 velocity=21 time=0\n",
      "note_off channel=0 note=80 velocity=64 time=0\n",
      "note_off channel=0 note=85 velocity=64 time=0\n",
      "note_on channel=0 note=86 velocity=28 time=0\n",
      "note_off channel=0 note=93 velocity=64 time=0\n",
      "note_on channel=0 note=47 velocity=72 time=1\n",
      "note_off channel=0 note=48 velocity=64 time=0\n",
      "note_off channel=0 note=53 velocity=64 time=0\n",
      "note_on channel=0 note=65 velocity=40 time=0\n",
      "note_off channel=0 note=72 velocity=64 time=0\n",
      "note_off channel=0 note=88 velocity=64 time=0\n",
      "note_on channel=0 note=89 velocity=67 time=0\n",
      "note_off channel=0 note=91 velocity=64 time=0\n",
      "note_off channel=0 note=47 velocity=64 time=1\n",
      "note_on channel=0 note=48 velocity=73 time=0\n",
      "note_on channel=0 note=80 velocity=78 time=0\n",
      "note_off channel=0 note=82 velocity=64 time=0\n",
      "note_off channel=0 note=90 velocity=64 time=0\n",
      "note_off channel=0 note=48 velocity=64 time=1\n",
      "note_on channel=0 note=50 velocity=79 time=0\n",
      "note_off channel=0 note=86 velocity=64 time=0\n",
      "note_off channel=0 note=50 velocity=64 time=1\n",
      "note_on channel=0 note=53 velocity=72 time=0\n",
      "note_off channel=0 note=78 velocity=64 time=0\n",
      "note_on channel=0 note=86 velocity=23 time=0\n",
      "note_off channel=0 note=61 velocity=64 time=2\n",
      "note_off channel=0 note=53 velocity=64 time=1\n",
      "note_on channel=0 note=61 velocity=11 time=0\n",
      "note_on channel=0 note=53 velocity=58 time=1\n",
      "note_on channel=0 note=91 velocity=45 time=1\n",
      "note_off channel=0 note=61 velocity=64 time=1\n",
      "note_off channel=0 note=53 velocity=64 time=1\n",
      "note_on channel=0 note=85 velocity=44 time=0\n",
      "note_on channel=0 note=88 velocity=44 time=0\n",
      "note_on channel=0 note=90 velocity=32 time=0\n",
      "note_on channel=0 note=93 velocity=71 time=0\n",
      "note_on channel=0 note=95 velocity=61 time=0\n",
      "note_on channel=0 note=52 velocity=67 time=1\n",
      "note_off channel=0 note=65 velocity=64 time=0\n",
      "note_on channel=0 note=67 velocity=78 time=0\n",
      "note_off channel=0 note=68 velocity=64 time=0\n",
      "note_off channel=0 note=71 velocity=64 time=0\n",
      "note_off channel=0 note=84 velocity=64 time=0\n",
      "note_off channel=0 note=86 velocity=64 time=0\n",
      "note_on channel=0 note=96 velocity=55 time=0\n",
      "note_on channel=0 note=48 velocity=88 time=1\n",
      "note_off channel=0 note=52 velocity=64 time=0\n",
      "note_on channel=0 note=71 velocity=33 time=0\n",
      "note_on channel=0 note=74 velocity=63 time=0\n",
      "note_off channel=0 note=75 velocity=64 time=0\n",
      "note_on channel=0 note=78 velocity=37 time=0\n",
      "note_off channel=0 note=90 velocity=64 time=0\n",
      "note_on channel=0 note=55 velocity=58 time=1\n",
      "note_off channel=0 note=48 velocity=64 time=2\n",
      "note_off channel=0 note=55 velocity=64 time=0\n",
      "note_on channel=0 note=56 velocity=56 time=0\n",
      "note_on channel=0 note=65 velocity=51 time=0\n",
      "note_off channel=0 note=67 velocity=64 time=0\n",
      "note_on channel=0 note=68 velocity=77 time=0\n",
      "note_off channel=0 note=71 velocity=64 time=0\n",
      "note_off channel=0 note=74 velocity=64 time=0\n",
      "note_on channel=0 note=75 velocity=58 time=0\n",
      "note_off channel=0 note=78 velocity=64 time=0\n",
      "note_on channel=0 note=84 velocity=26 time=0\n",
      "note_off channel=0 note=88 velocity=64 time=0\n",
      "note_off channel=0 note=91 velocity=64 time=0\n",
      "note_on channel=0 note=94 velocity=65 time=0\n",
      "note_on channel=0 note=61 velocity=30 time=1\n",
      "note_on channel=0 note=73 velocity=40 time=0\n",
      "note_on channel=0 note=91 velocity=32 time=0\n",
      "note_off channel=0 note=93 velocity=64 time=0\n",
      "note_on channel=0 note=48 velocity=67 time=1\n",
      "note_off channel=0 note=56 velocity=64 time=0\n",
      "note_on channel=0 note=90 velocity=35 time=0\n",
      "note_on channel=0 note=93 velocity=34 time=0\n",
      "note_off channel=0 note=48 velocity=64 time=1\n",
      "note_on channel=0 note=56 velocity=60 time=0\n",
      "note_on channel=0 note=74 velocity=53 time=0\n",
      "note_off channel=0 note=75 velocity=64 time=1\n",
      "note_on channel=0 note=100 velocity=30 time=0\n",
      "note_off channel=0 note=56 velocity=64 time=1\n",
      "note_off channel=0 note=65 velocity=64 time=0\n",
      "note_on channel=0 note=67 velocity=78 time=0\n",
      "note_off channel=0 note=68 velocity=64 time=0\n",
      "note_off channel=0 note=73 velocity=64 time=0\n",
      "note_off channel=0 note=91 velocity=64 time=0\n",
      "note_on channel=0 note=71 velocity=11 time=1\n",
      "note_on channel=0 note=73 velocity=55 time=0\n",
      "note_off channel=0 note=74 velocity=64 time=0\n",
      "note_on channel=0 note=75 velocity=41 time=0\n",
      "note_off channel=0 note=90 velocity=64 time=0\n",
      "note_on channel=0 note=91 velocity=35 time=0\n",
      "note_on channel=0 note=44 velocity=50 time=1\n",
      "note_on channel=0 note=55 velocity=65 time=0\n",
      "note_on channel=0 note=66 velocity=80 time=0\n",
      "note_off channel=0 note=67 velocity=64 time=0\n",
      "note_on channel=0 note=90 velocity=38 time=0\n",
      "note_off channel=0 note=95 velocity=64 time=0\n",
      "note_off channel=0 note=75 velocity=64 time=1\n",
      "note_off channel=0 note=93 velocity=64 time=0\n",
      "note_off channel=0 note=44 velocity=64 time=1\n",
      "note_on channel=0 note=54 velocity=68 time=0\n",
      "note_off channel=0 note=55 velocity=64 time=0\n",
      "note_on channel=0 note=75 velocity=29 time=0\n",
      "note_on channel=0 note=82 velocity=38 time=0\n",
      "note_on channel=0 note=44 velocity=48 time=1\n",
      "note_off channel=0 note=91 velocity=64 time=1\n",
      "note_off channel=0 note=71 velocity=64 time=1\n",
      "note_on channel=0 note=43 velocity=29 time=1\n",
      "note_off channel=0 note=44 velocity=64 time=0\n",
      "note_off channel=0 note=90 velocity=64 time=1\n",
      "note_on channel=0 note=90 velocity=35 time=1\n",
      "note_off channel=0 note=43 velocity=64 time=2\n",
      "note_on channel=0 note=91 velocity=32 time=0\n",
      "note_on channel=0 note=53 velocity=67 time=1\n",
      "note_off channel=0 note=54 velocity=64 time=0\n",
      "note_on channel=0 note=72 velocity=45 time=0\n",
      "note_off channel=0 note=73 velocity=64 time=0\n",
      "note_on channel=0 note=93 velocity=46 time=0\n",
      "note_off channel=0 note=100 velocity=64 time=0\n",
      "note_off channel=0 note=66 velocity=64 time=1\n",
      "note_off channel=0 note=94 velocity=64 time=0\n",
      "note_off channel=0 note=96 velocity=64 time=0\n",
      "note_off channel=0 note=61 velocity=64 time=1\n",
      "note_on channel=0 note=68 velocity=31 time=0\n",
      "note_on channel=0 note=71 velocity=34 time=0\n",
      "note_off channel=0 note=72 velocity=64 time=0\n",
      "note_on channel=0 note=73 velocity=33 time=0\n",
      "note_off channel=0 note=91 velocity=64 time=0\n",
      "note_off channel=0 note=93 velocity=64 time=0\n",
      "note_off channel=0 note=53 velocity=64 time=1\n",
      "note_off channel=0 note=89 velocity=64 time=0\n",
      "note_off channel=0 note=68 velocity=64 time=1\n",
      "note_on channel=0 note=69 velocity=33 time=0\n",
      "note_off channel=0 note=85 velocity=64 time=0\n",
      "note_on channel=0 note=89 velocity=72 time=0\n",
      "note_on channel=0 note=93 velocity=35 time=0\n",
      "note_on channel=0 note=50 velocity=52 time=1\n",
      "note_off channel=0 note=71 velocity=64 time=0\n",
      "note_on channel=0 note=85 velocity=59 time=0\n",
      "note_on channel=0 note=63 velocity=67 time=1\n",
      "note_off channel=0 note=50 velocity=64 time=1\n",
      "note_off channel=0 note=69 velocity=64 time=0\n",
      "note_on channel=0 note=72 velocity=43 time=0\n",
      "note_off channel=0 note=73 velocity=64 time=0\n",
      "note_on channel=0 note=78 velocity=40 time=0\n",
      "note_on channel=0 note=83 velocity=78 time=0\n",
      "note_off channel=0 note=84 velocity=64 time=0\n",
      "note_on channel=0 note=88 velocity=69 time=0\n",
      "note_off channel=0 note=90 velocity=64 time=0\n",
      "note_on channel=0 note=91 velocity=56 time=0\n",
      "note_on channel=0 note=99 velocity=43 time=0\n",
      "note_on channel=0 note=67 velocity=47 time=1\n",
      "note_off channel=0 note=75 velocity=64 time=0\n",
      "note_on channel=0 note=76 velocity=70 time=0\n",
      "note_off channel=0 note=82 velocity=64 time=0\n",
      "note_on channel=0 note=84 velocity=43 time=0\n",
      "note_on channel=0 note=102 velocity=42 time=0\n",
      "note_on channel=0 note=45 velocity=75 time=1\n",
      "note_on channel=0 note=69 velocity=49 time=0\n",
      "note_off channel=0 note=78 velocity=64 time=0\n",
      "note_on channel=0 note=44 velocity=77 time=1\n",
      "note_off channel=0 note=45 velocity=64 time=0\n",
      "note_off channel=0 note=63 velocity=64 time=0\n",
      "note_on channel=0 note=64 velocity=57 time=0\n",
      "note_off channel=0 note=67 velocity=64 time=0\n",
      "note_on channel=0 note=90 velocity=50 time=0\n",
      "note_on channel=0 note=98 velocity=14 time=0\n",
      "note_on channel=0 note=52 velocity=68 time=1\n",
      "note_on channel=0 note=63 velocity=46 time=0\n",
      "note_off channel=0 note=69 velocity=64 time=0\n",
      "note_on channel=0 note=71 velocity=39 time=0\n",
      "note_off channel=0 note=72 velocity=64 time=0\n",
      "note_off channel=0 note=84 velocity=64 time=0\n",
      "note_on channel=0 note=43 velocity=73 time=2\n",
      "note_off channel=0 note=44 velocity=64 time=0\n",
      "note_off channel=0 note=63 velocity=64 time=0\n",
      "note_on channel=0 note=73 velocity=11 time=0\n",
      "note_off channel=0 note=85 velocity=64 time=0\n",
      "note_on channel=0 note=86 velocity=62 time=0\n",
      "note_off channel=0 note=91 velocity=64 time=0\n",
      "note_off channel=0 note=98 velocity=64 time=0\n",
      "note_on channel=0 note=91 velocity=33 time=1\n",
      "note_on channel=0 note=70 velocity=46 time=3\n",
      "note_on channel=0 note=85 velocity=62 time=0\n",
      "note_off channel=0 note=86 velocity=64 time=0\n",
      "note_off channel=0 note=71 velocity=64 time=1\n",
      "note_on channel=0 note=84 velocity=20 time=0\n",
      "note_off channel=0 note=64 velocity=64 time=1\n",
      "note_on channel=0 note=75 velocity=79 time=0\n",
      "note_off channel=0 note=76 velocity=64 time=0\n",
      "note_off channel=0 note=90 velocity=64 time=0\n",
      "note_on channel=0 note=94 velocity=26 time=0\n",
      "note_off channel=0 note=43 velocity=64 time=1\n",
      "note_off channel=0 note=52 velocity=64 time=0\n",
      "note_on channel=0 note=82 velocity=69 time=0\n",
      "note_off channel=0 note=83 velocity=64 time=0\n",
      "note_on channel=0 note=63 velocity=56 time=1\n",
      "note_on channel=0 note=90 velocity=30 time=0\n",
      "note_on channel=0 note=95 velocity=35 time=0\n",
      "note_on channel=0 note=51 velocity=47 time=1\n",
      "note_off channel=0 note=99 velocity=64 time=0\n",
      "note_off channel=0 note=88 velocity=64 time=1\n",
      "note_on channel=0 note=50 velocity=38 time=1\n",
      "note_off channel=0 note=51 velocity=64 time=0\n",
      "note_off channel=0 note=73 velocity=64 time=0\n",
      "note_on channel=0 note=88 velocity=49 time=0\n",
      "note_off channel=0 note=91 velocity=64 time=0\n",
      "note_off channel=0 note=84 velocity=64 time=1\n",
      "note_off channel=0 note=90 velocity=64 time=0\n",
      "note_on channel=0 note=91 velocity=39 time=0\n",
      "note_off channel=0 note=50 velocity=64 time=1\n",
      "note_on channel=0 note=51 velocity=53 time=0\n",
      "note_on channel=0 note=84 velocity=56 time=0\n",
      "note_off channel=0 note=88 velocity=64 time=0\n",
      "note_on channel=0 note=79 velocity=47 time=1\n",
      "note_off channel=0 note=85 velocity=64 time=0\n",
      "note_on channel=0 note=86 velocity=25 time=0\n",
      "note_off channel=0 note=94 velocity=64 time=0\n",
      "note_on channel=0 note=90 velocity=60 time=1\n",
      "note_off channel=0 note=91 velocity=64 time=0\n",
      "note_off channel=0 note=93 velocity=64 time=0\n",
      "note_on channel=0 note=50 velocity=67 time=1\n",
      "note_off channel=0 note=51 velocity=64 time=0\n",
      "note_on channel=0 note=81 velocity=39 time=0\n",
      "note_on channel=0 note=62 velocity=81 time=1\n",
      "note_off channel=0 note=63 velocity=64 time=0\n",
      "note_on channel=0 note=69 velocity=56 time=0\n",
      "note_off channel=0 note=70 velocity=64 time=0\n",
      "note_on channel=0 note=78 velocity=56 time=0\n",
      "note_off channel=0 note=79 velocity=64 time=0\n",
      "note_off channel=0 note=82 velocity=64 time=0\n",
      "note_on channel=0 note=85 velocity=29 time=0\n",
      "note_off channel=0 note=86 velocity=64 time=0\n",
      "note_on channel=0 note=88 velocity=63 time=0\n",
      "note_off channel=0 note=89 velocity=64 time=0\n",
      "note_off channel=0 note=75 velocity=64 time=1\n",
      "note_off channel=0 note=85 velocity=64 time=1\n",
      "note_on channel=0 note=89 velocity=51 time=0\n",
      "note_on channel=0 note=77 velocity=42 time=1\n",
      "note_off channel=0 note=81 velocity=64 time=0\n",
      "note_on channel=0 note=103 velocity=14 time=0\n",
      "note_off channel=0 note=80 velocity=64 time=2\n",
      "note_off channel=0 note=78 velocity=64 time=1\n",
      "note_on channel=0 note=80 velocity=39 time=0\n",
      "note_on channel=0 note=85 velocity=33 time=0\n",
      "note_on channel=0 note=91 velocity=31 time=0\n",
      "note_on channel=0 note=94 velocity=27 time=0\n",
      "note_off channel=0 note=89 velocity=64 time=1\n",
      "note_off channel=0 note=95 velocity=64 time=0\n",
      "note_on channel=0 note=57 velocity=50 time=1\n",
      "note_off channel=0 note=62 velocity=64 time=0\n",
      "note_on channel=0 note=63 velocity=93 time=0\n",
      "note_on channel=0 note=78 velocity=40 time=0\n",
      "note_on channel=0 note=82 velocity=55 time=0\n",
      "note_on channel=0 note=95 velocity=31 time=0\n",
      "note_on channel=0 note=87 velocity=25 time=1\n",
      "note_off channel=0 note=91 velocity=64 time=0\n",
      "note_off channel=0 note=94 velocity=64 time=0\n",
      "note_off channel=0 note=57 velocity=64 time=1\n",
      "note_off channel=0 note=103 velocity=64 time=0\n",
      "note_off channel=0 note=50 velocity=64 time=3\n",
      "note_off channel=0 note=102 velocity=64 time=0\n",
      "note_on channel=0 note=50 velocity=61 time=1\n",
      "note_off channel=0 note=77 velocity=64 time=1\n",
      "note_off channel=0 note=85 velocity=64 time=0\n",
      "note_off channel=0 note=95 velocity=64 time=0\n",
      "note_on channel=0 note=71 velocity=27 time=1\n",
      "note_on channel=0 note=77 velocity=37 time=0\n",
      "note_on channel=0 note=91 velocity=23 time=0\n",
      "note_off channel=0 note=78 velocity=64 time=1\n",
      "note_off channel=0 note=80 velocity=64 time=0\n",
      "note_off channel=0 note=84 velocity=64 time=0\n",
      "note_off channel=0 note=87 velocity=64 time=0\n",
      "note_on channel=0 note=84 velocity=46 time=1\n",
      "note_off channel=0 note=71 velocity=64 time=1\n",
      "note_on channel=0 note=80 velocity=33 time=0\n",
      "note_off channel=0 note=82 velocity=64 time=0\n",
      "note_on channel=0 note=83 velocity=19 time=0\n",
      "note_off channel=0 note=91 velocity=64 time=0\n",
      "note_on channel=0 note=92 velocity=33 time=0\n",
      "note_on channel=0 note=95 velocity=56 time=0\n",
      "note_off channel=0 note=69 velocity=64 time=2\n",
      "note_on channel=0 note=70 velocity=43 time=0\n",
      "note_off channel=0 note=88 velocity=64 time=0\n",
      "note_on channel=0 note=89 velocity=42 time=0\n",
      "note_off channel=0 note=50 velocity=64 time=1\n",
      "note_on channel=0 note=51 velocity=45 time=0\n",
      "note_off channel=0 note=83 velocity=64 time=0\n",
      "note_on channel=0 note=50 velocity=58 time=2\n",
      "note_off channel=0 note=51 velocity=64 time=0\n",
      "note_on channel=0 note=69 velocity=46 time=0\n",
      "note_off channel=0 note=70 velocity=64 time=0\n",
      "note_on channel=0 note=74 velocity=41 time=0\n",
      "note_on channel=0 note=93 velocity=36 time=1\n",
      "note_on channel=0 note=73 velocity=48 time=1\n",
      "note_off channel=0 note=74 velocity=64 time=0\n",
      "note_on channel=0 note=88 velocity=42 time=0\n",
      "note_off channel=0 note=69 velocity=64 time=1\n",
      "note_on channel=0 note=91 velocity=40 time=0\n",
      "note_on channel=0 note=49 velocity=67 time=1\n",
      "note_off channel=0 note=50 velocity=64 time=0\n",
      "note_off channel=0 note=89 velocity=64 time=0\n",
      "note_on channel=0 note=101 velocity=15 time=0\n",
      "note_on channel=0 note=68 velocity=52 time=1\n",
      "note_off channel=0 note=73 velocity=64 time=0\n",
      "note_off channel=0 note=92 velocity=64 time=0\n",
      "note_on channel=0 note=73 velocity=57 time=1\n",
      "note_on channel=0 note=83 velocity=49 time=1\n",
      "note_off channel=0 note=91 velocity=64 time=0\n",
      "note_off channel=0 note=101 velocity=64 time=0\n",
      "note_on channel=0 note=91 velocity=40 time=1\n",
      "note_on channel=0 note=101 velocity=18 time=1\n",
      "note_on channel=0 note=71 velocity=33 time=1\n",
      "note_off channel=0 note=84 velocity=64 time=0\n",
      "note_on channel=0 note=94 velocity=15 time=0\n",
      "note_off channel=0 note=68 velocity=64 time=2\n",
      "note_on channel=0 note=69 velocity=57 time=0\n",
      "note_off channel=0 note=73 velocity=64 time=0\n",
      "note_on channel=0 note=78 velocity=37 time=0\n",
      "note_off channel=0 note=49 velocity=64 time=1\n",
      "note_on channel=0 note=50 velocity=68 time=0\n",
      "note_on channel=0 note=57 velocity=53 time=0\n",
      "note_on channel=0 note=61 velocity=69 time=0\n",
      "note_off channel=0 note=63 velocity=64 time=0\n",
      "note_off channel=0 note=71 velocity=64 time=0\n",
      "note_on channel=0 note=82 velocity=66 time=0\n",
      "note_off channel=0 note=83 velocity=64 time=0\n",
      "note_off channel=0 note=88 velocity=64 time=0\n",
      "note_on channel=0 note=89 velocity=50 time=0\n",
      "note_off channel=0 note=91 velocity=64 time=0\n",
      "note_off channel=0 note=94 velocity=64 time=0\n",
      "note_off channel=0 note=101 velocity=64 time=0\n",
      "note_on channel=0 note=49 velocity=70 time=1\n",
      "note_off channel=0 note=50 velocity=64 time=0\n",
      "note_off channel=0 note=61 velocity=64 time=0\n",
      "note_on channel=0 note=62 velocity=78 time=0\n",
      "note_off channel=0 note=69 velocity=64 time=0\n",
      "note_on channel=0 note=73 velocity=35 time=0\n",
      "note_on channel=0 note=84 velocity=30 time=0\n",
      "note_on channel=0 note=88 velocity=33 time=0\n",
      "note_off channel=0 note=62 velocity=64 time=1\n",
      "note_on channel=0 note=63 velocity=87 time=0\n",
      "note_on channel=0 note=70 velocity=30 time=0\n",
      "note_off channel=0 note=57 velocity=64 time=1\n",
      "note_on channel=0 note=68 velocity=55 time=0\n",
      "note_off channel=0 note=78 velocity=64 time=0\n",
      "note_on channel=0 note=83 velocity=25 time=0\n",
      "note_on channel=0 note=72 velocity=34 time=1\n",
      "note_off channel=0 note=82 velocity=64 time=0\n",
      "note_off channel=0 note=84 velocity=64 time=0\n",
      "note_on channel=0 note=91 velocity=32 time=0\n",
      "note_off channel=0 note=70 velocity=64 time=1\n",
      "note_off channel=0 note=73 velocity=64 time=0\n",
      "note_off channel=0 note=77 velocity=64 time=0\n",
      "note_off channel=0 note=89 velocity=64 time=0\n",
      "note_on channel=0 note=100 velocity=44 time=1\n",
      "note_off channel=0 note=72 velocity=64 time=1\n",
      "note_on channel=0 note=73 velocity=30 time=0\n",
      "note_on channel=0 note=101 velocity=46 time=0\n",
      "note_on channel=0 note=77 velocity=30 time=1\n",
      "note_off channel=0 note=83 velocity=64 time=0\n",
      "note_on channel=0 note=96 velocity=33 time=0\n",
      "note_on channel=0 note=97 velocity=29 time=0\n",
      "note_on channel=0 note=83 velocity=48 time=1\n",
      "note_on channel=0 note=71 velocity=14 time=1\n",
      "note_off channel=0 note=80 velocity=64 time=0\n",
      "note_off channel=0 note=88 velocity=64 time=0\n",
      "note_on channel=0 note=89 velocity=81 time=0\n",
      "note_off channel=0 note=68 velocity=64 time=1\n",
      "note_on channel=0 note=69 velocity=58 time=0\n",
      "note_on channel=0 note=80 velocity=87 time=1\n",
      "note_off channel=0 note=73 velocity=64 time=1\n",
      "note_on channel=0 note=74 velocity=22 time=0\n",
      "note_off channel=0 note=97 velocity=64 time=0\n",
      "note_on channel=0 note=98 velocity=35 time=0\n",
      "note_off channel=0 note=71 velocity=64 time=1\n",
      "note_off channel=0 note=91 velocity=64 time=1\n",
      "note_off channel=0 note=49 velocity=64 time=1\n",
      "note_on channel=0 note=50 velocity=70 time=0\n",
      "note_off channel=0 note=96 velocity=64 time=0\n",
      "note_on channel=0 note=97 velocity=37 time=0\n",
      "note_on channel=0 note=103 velocity=29 time=1\n",
      "note_on channel=0 note=91 velocity=21 time=1\n",
      "note_on channel=0 note=73 velocity=19 time=2\n",
      "note_off channel=0 note=74 velocity=64 time=0\n",
      "note_off channel=0 note=103 velocity=64 time=0\n",
      "note_off channel=0 note=69 velocity=64 time=2\n",
      "note_off channel=0 note=91 velocity=64 time=0\n",
      "note_off channel=0 note=97 velocity=64 time=0\n",
      "note_on channel=0 note=49 velocity=58 time=1\n",
      "note_off channel=0 note=50 velocity=64 time=0\n",
      "note_on channel=0 note=71 velocity=18 time=0\n",
      "note_off channel=0 note=73 velocity=64 time=0\n",
      "note_on channel=0 note=85 velocity=39 time=0\n",
      "note_on channel=0 note=91 velocity=21 time=0\n",
      "note_off channel=0 note=98 velocity=64 time=1\n",
      "note_off channel=0 note=101 velocity=64 time=0\n",
      "note_off channel=0 note=100 velocity=64 time=1\n",
      "note_off channel=0 note=83 velocity=64 time=2\n",
      "note_off channel=0 note=91 velocity=64 time=0\n",
      "note_on channel=0 note=73 velocity=64 time=1\n",
      "note_off channel=0 note=77 velocity=64 time=0\n",
      "note_on channel=0 note=88 velocity=39 time=0\n",
      "note_off channel=0 note=71 velocity=64 time=1\n",
      "note_on channel=0 note=83 velocity=41 time=0\n",
      "note_off channel=0 note=90 velocity=64 time=0\n",
      "note_on channel=0 note=102 velocity=47 time=0\n",
      "note_off channel=0 note=49 velocity=64 time=1\n",
      "note_on channel=0 note=90 velocity=38 time=0\n",
      "note_on channel=0 note=60 velocity=58 time=1\n",
      "note_on channel=0 note=68 velocity=55 time=0\n",
      "note_off channel=0 note=88 velocity=64 time=0\n",
      "note_on channel=0 note=88 velocity=40 time=1\n",
      "note_on channel=0 note=91 velocity=27 time=0\n",
      "note_on channel=0 note=100 velocity=48 time=0\n",
      "note_on channel=0 note=67 velocity=52 time=1\n",
      "note_off channel=0 note=68 velocity=64 time=0\n",
      "note_on channel=0 note=72 velocity=75 time=0\n",
      "note_off channel=0 note=73 velocity=64 time=0\n",
      "note_on channel=0 note=76 velocity=48 time=0\n",
      "note_off channel=0 note=90 velocity=64 time=0\n",
      "note_on channel=0 note=49 velocity=64 time=1\n",
      "note_off channel=0 note=83 velocity=64 time=0\n",
      "note_on channel=0 note=90 velocity=51 time=0\n",
      "note_off channel=0 note=63 velocity=64 time=1\n",
      "note_off channel=0 note=67 velocity=64 time=0\n",
      "note_on channel=0 note=68 velocity=51 time=0\n",
      "note_on channel=0 note=83 velocity=48 time=0\n"
     ]
    },
    {
     "name": "stdout",
     "output_type": "stream",
     "text": [
      "note_off channel=0 note=60 velocity=64 time=1\n",
      "note_off channel=0 note=72 velocity=64 time=0\n",
      "note_on channel=0 note=74 velocity=65 time=0\n",
      "note_off channel=0 note=76 velocity=64 time=0\n",
      "note_on channel=0 note=77 velocity=46 time=0\n",
      "note_off channel=0 note=68 velocity=64 time=1\n",
      "note_on channel=0 note=69 velocity=47 time=0\n",
      "note_off channel=0 note=91 velocity=64 time=0\n",
      "note_off channel=0 note=49 velocity=64 time=1\n",
      "note_on channel=0 note=50 velocity=65 time=0\n",
      "note_on channel=0 note=63 velocity=50 time=0\n",
      "note_on channel=0 note=91 velocity=53 time=0\n",
      "note_on channel=0 note=94 velocity=27 time=0\n",
      "note_on channel=0 note=75 velocity=67 time=1\n",
      "note_off channel=0 note=50 velocity=64 time=1\n",
      "note_on channel=0 note=51 velocity=49 time=0\n",
      "note_off channel=0 note=69 velocity=64 time=0\n",
      "note_on channel=0 note=70 velocity=40 time=0\n",
      "note_off channel=0 note=74 velocity=64 time=0\n",
      "note_on channel=0 note=81 velocity=33 time=0\n",
      "note_off channel=0 note=88 velocity=64 time=0\n",
      "note_off channel=0 note=90 velocity=64 time=0\n",
      "note_off channel=0 note=94 velocity=64 time=1\n",
      "note_on channel=0 note=50 velocity=66 time=1\n",
      "note_off channel=0 note=51 velocity=64 time=0\n",
      "note_off channel=0 note=63 velocity=64 time=0\n",
      "note_on channel=0 note=69 velocity=48 time=0\n",
      "note_off channel=0 note=70 velocity=64 time=0\n",
      "note_on channel=0 note=74 velocity=57 time=0\n",
      "note_off channel=0 note=75 velocity=64 time=0\n",
      "note_on channel=0 note=90 velocity=35 time=0\n",
      "note_off channel=0 note=91 velocity=64 time=0\n",
      "note_on channel=0 note=94 velocity=34 time=0\n",
      "note_on channel=0 note=61 velocity=57 time=1\n",
      "note_on channel=0 note=91 velocity=61 time=0\n",
      "note_on channel=0 note=71 velocity=48 time=1\n",
      "note_on channel=0 note=73 velocity=57 time=0\n",
      "note_off channel=0 note=74 velocity=64 time=0\n",
      "note_off channel=0 note=81 velocity=64 time=0\n",
      "note_off channel=0 note=93 velocity=64 time=0\n",
      "note_off channel=0 note=69 velocity=64 time=1\n",
      "note_off channel=0 note=90 velocity=64 time=0\n",
      "note_on channel=0 note=69 velocity=53 time=1\n",
      "note_off channel=0 note=73 velocity=64 time=0\n",
      "note_on channel=0 note=74 velocity=59 time=0\n",
      "note_on channel=0 note=90 velocity=32 time=0\n",
      "note_on channel=0 note=93 velocity=46 time=0\n",
      "note_off channel=0 note=85 velocity=64 time=1\n",
      "note_on channel=0 note=88 velocity=21 time=0\n",
      "note_off channel=0 note=61 velocity=64 time=1\n",
      "note_on channel=0 note=65 velocity=20 time=0\n",
      "note_off channel=0 note=95 velocity=64 time=0\n",
      "note_off channel=0 note=100 velocity=64 time=1\n",
      "note_on channel=0 note=61 velocity=44 time=1\n",
      "note_on channel=0 note=73 velocity=49 time=0\n",
      "note_off channel=0 note=74 velocity=64 time=0\n",
      "note_on channel=0 note=49 velocity=63 time=1\n",
      "note_off channel=0 note=50 velocity=64 time=0\n",
      "note_off channel=0 note=65 velocity=64 time=0\n",
      "note_on channel=0 note=67 velocity=54 time=0\n",
      "note_off channel=0 note=69 velocity=64 time=0\n",
      "note_off channel=0 note=88 velocity=64 time=0\n",
      "note_off channel=0 note=90 velocity=64 time=0\n",
      "note_off channel=0 note=73 velocity=64 time=1\n",
      "note_off channel=0 note=94 velocity=64 time=0\n",
      "note_off channel=0 note=61 velocity=64 time=1\n",
      "note_off channel=0 note=102 velocity=64 time=0\n",
      "note_on channel=0 note=60 velocity=45 time=1\n",
      "note_on channel=0 note=102 velocity=43 time=0\n",
      "note_off channel=0 note=49 velocity=64 time=1\n",
      "note_on channel=0 note=50 velocity=51 time=0\n",
      "note_off channel=0 note=71 velocity=64 time=0\n",
      "note_on channel=0 note=72 velocity=74 time=0\n",
      "note_on channel=0 note=90 velocity=36 time=0\n",
      "note_on channel=0 note=94 velocity=39 time=0\n",
      "note_on channel=0 note=71 velocity=45 time=1\n",
      "note_off channel=0 note=93 velocity=64 time=0\n",
      "note_off channel=0 note=60 velocity=64 time=1\n",
      "note_on channel=0 note=75 velocity=46 time=0\n",
      "note_on channel=0 note=76 velocity=51 time=0\n",
      "note_on channel=0 note=93 velocity=47 time=0\n",
      "note_on channel=0 note=99 velocity=14 time=0\n",
      "note_on channel=0 note=100 velocity=18 time=0\n",
      "note_off channel=0 note=50 velocity=64 time=1\n",
      "note_on channel=0 note=57 velocity=67 time=0\n",
      "note_on channel=0 note=62 velocity=74 time=0\n",
      "note_on channel=0 note=66 velocity=54 time=0\n",
      "note_off channel=0 note=67 velocity=64 time=0\n",
      "note_off channel=0 note=71 velocity=64 time=0\n",
      "note_on channel=0 note=79 velocity=51 time=0\n",
      "note_on channel=0 note=85 velocity=16 time=0\n",
      "note_off channel=0 note=75 velocity=64 time=1\n",
      "note_off channel=0 note=80 velocity=64 time=0\n",
      "note_off channel=0 note=90 velocity=64 time=0\n",
      "note_on channel=0 note=48 velocity=45 time=1\n",
      "note_off channel=0 note=66 velocity=64 time=0\n",
      "note_on channel=0 note=92 velocity=58 time=0\n",
      "note_off channel=0 note=94 velocity=64 time=0\n",
      "note_off channel=0 note=99 velocity=64 time=0\n",
      "note_off channel=0 note=57 velocity=64 time=1\n",
      "note_off channel=0 note=62 velocity=64 time=0\n",
      "note_off channel=0 note=79 velocity=64 time=0\n",
      "note_on channel=0 note=90 velocity=29 time=0\n",
      "note_off channel=0 note=100 velocity=64 time=0\n",
      "note_off channel=0 note=48 velocity=64 time=1\n",
      "note_on channel=0 note=62 velocity=58 time=0\n",
      "note_on channel=0 note=66 velocity=42 time=0\n",
      "note_on channel=0 note=71 velocity=59 time=0\n",
      "note_off channel=0 note=72 velocity=64 time=0\n",
      "note_on channel=0 note=80 velocity=53 time=0\n",
      "note_off channel=0 note=85 velocity=64 time=0\n",
      "note_off channel=0 note=89 velocity=64 time=0\n",
      "note_on channel=0 note=94 velocity=22 time=0\n",
      "note_off channel=0 note=76 velocity=64 time=1\n",
      "note_on channel=0 note=87 velocity=35 time=0\n",
      "note_on channel=0 note=58 velocity=46 time=1\n",
      "note_off channel=0 note=62 velocity=64 time=0\n",
      "note_on channel=0 note=65 velocity=32 time=0\n",
      "note_off channel=0 note=66 velocity=64 time=0\n",
      "note_off channel=0 note=71 velocity=64 time=0\n",
      "note_on channel=0 note=82 velocity=34 time=0\n",
      "note_off channel=0 note=83 velocity=64 time=0\n",
      "note_on channel=0 note=85 velocity=28 time=0\n",
      "note_on channel=0 note=88 velocity=11 time=0\n",
      "note_off channel=0 note=90 velocity=64 time=0\n",
      "note_on channel=0 note=47 velocity=50 time=1\n",
      "note_on channel=0 note=71 velocity=46 time=0\n",
      "note_on channel=0 note=90 velocity=37 time=0\n",
      "note_off channel=0 note=58 velocity=64 time=1\n",
      "note_off channel=0 note=94 velocity=64 time=0\n",
      "note_off channel=0 note=47 velocity=64 time=1\n",
      "note_off channel=0 note=65 velocity=64 time=0\n",
      "note_on channel=0 note=66 velocity=55 time=0\n",
      "note_off channel=0 note=71 velocity=64 time=0\n",
      "note_on channel=0 note=75 velocity=59 time=0\n",
      "note_off channel=0 note=88 velocity=64 time=0\n",
      "note_off channel=0 note=93 velocity=64 time=0\n",
      "note_on channel=0 note=96 velocity=31 time=0\n",
      "note_on channel=0 note=101 velocity=10 time=0\n",
      "note_on channel=0 note=47 velocity=47 time=1\n",
      "note_on channel=0 note=71 velocity=51 time=0\n",
      "note_off channel=0 note=77 velocity=64 time=0\n",
      "note_on channel=0 note=83 velocity=60 time=0\n",
      "note_off channel=0 note=92 velocity=64 time=0\n",
      "note_on channel=0 note=93 velocity=56 time=0\n",
      "note_on channel=0 note=77 velocity=30 time=1\n",
      "note_off channel=0 note=82 velocity=64 time=0\n",
      "note_on channel=0 note=89 velocity=56 time=1\n",
      "note_off channel=0 note=101 velocity=64 time=1\n",
      "note_off channel=0 note=77 velocity=64 time=2\n",
      "note_off channel=0 note=85 velocity=64 time=0\n",
      "note_off channel=0 note=47 velocity=64 time=1\n",
      "note_on channel=0 note=53 velocity=40 time=0\n",
      "note_on channel=0 note=69 velocity=39 time=0\n",
      "note_on channel=0 note=77 velocity=52 time=0\n",
      "note_on channel=0 note=82 velocity=61 time=0\n",
      "note_off channel=0 note=83 velocity=64 time=0\n",
      "note_on channel=0 note=85 velocity=27 time=0\n",
      "note_on channel=0 note=47 velocity=32 time=1\n",
      "note_off channel=0 note=53 velocity=64 time=1\n",
      "note_off channel=0 note=69 velocity=64 time=0\n",
      "note_off channel=0 note=82 velocity=64 time=0\n",
      "note_off channel=0 note=47 velocity=64 time=1\n",
      "note_on channel=0 note=59 velocity=44 time=0\n",
      "note_off channel=0 note=91 velocity=64 time=0\n",
      "note_on channel=0 note=73 velocity=21 time=1\n",
      "note_on channel=0 note=48 velocity=42 time=1\n",
      "note_on channel=0 note=65 velocity=34 time=0\n",
      "note_off channel=0 note=66 velocity=64 time=0\n",
      "note_on channel=0 note=68 velocity=49 time=0\n",
      "note_on channel=0 note=70 velocity=33 time=0\n",
      "note_off channel=0 note=71 velocity=64 time=0\n",
      "note_off channel=0 note=96 velocity=64 time=0\n",
      "note_on channel=0 note=78 velocity=19 time=1\n",
      "note_on channel=0 note=47 velocity=32 time=1\n",
      "note_off channel=0 note=48 velocity=64 time=0\n",
      "note_off channel=0 note=59 velocity=64 time=0\n",
      "note_on channel=0 note=60 velocity=51 time=0\n",
      "note_off channel=0 note=65 velocity=64 time=0\n",
      "note_off channel=0 note=70 velocity=64 time=0\n",
      "note_off channel=0 note=47 velocity=64 time=2\n",
      "note_on channel=0 note=48 velocity=43 time=0\n",
      "note_on channel=0 note=65 velocity=38 time=0\n",
      "note_on channel=0 note=71 velocity=41 time=0\n",
      "note_off channel=0 note=73 velocity=64 time=0\n",
      "note_off channel=0 note=78 velocity=64 time=0\n",
      "note_on channel=0 note=91 velocity=62 time=0\n",
      "note_on channel=0 note=72 velocity=58 time=1\n",
      "note_on channel=0 note=81 velocity=30 time=0\n",
      "note_off channel=0 note=90 velocity=64 time=0\n",
      "note_on channel=0 note=67 velocity=59 time=1\n",
      "note_off channel=0 note=71 velocity=64 time=0\n",
      "note_off channel=0 note=65 velocity=64 time=1\n",
      "note_off channel=0 note=68 velocity=64 time=0\n",
      "note_off channel=0 note=75 velocity=64 time=0\n",
      "note_on channel=0 note=88 velocity=36 time=0\n",
      "note_off channel=0 note=48 velocity=64 time=1\n",
      "note_off channel=0 note=60 velocity=64 time=0\n",
      "note_off channel=0 note=87 velocity=64 time=0\n",
      "note_off channel=0 note=93 velocity=64 time=0\n",
      "note_on channel=0 note=94 velocity=26 time=0\n",
      "note_on channel=0 note=48 velocity=72 time=1\n",
      "note_on channel=0 note=64 velocity=80 time=0\n",
      "note_off channel=0 note=67 velocity=64 time=0\n",
      "note_off channel=0 note=81 velocity=64 time=0\n",
      "note_on channel=0 note=82 velocity=49 time=0\n",
      "note_off channel=0 note=85 velocity=64 time=0\n",
      "note_on channel=0 note=87 velocity=42 time=0\n",
      "note_on channel=0 note=90 velocity=61 time=0\n",
      "note_on channel=0 note=93 velocity=32 time=0\n",
      "note_on channel=0 note=45 velocity=79 time=1\n",
      "note_off channel=0 note=48 velocity=64 time=0\n",
      "note_on channel=0 note=71 velocity=42 time=0\n",
      "note_on channel=0 note=79 velocity=40 time=0\n",
      "note_off channel=0 note=80 velocity=64 time=0\n",
      "note_on channel=0 note=85 velocity=38 time=0\n",
      "note_on channel=0 note=44 velocity=80 time=1\n",
      "note_off channel=0 note=45 velocity=64 time=0\n",
      "note_on channel=0 note=63 velocity=73 time=0\n",
      "note_off channel=0 note=64 velocity=64 time=0\n",
      "note_on channel=0 note=68 velocity=50 time=0\n",
      "note_off channel=0 note=72 velocity=64 time=0\n",
      "note_on channel=0 note=96 velocity=22 time=0\n",
      "note_off channel=0 note=79 velocity=64 time=1\n",
      "note_off channel=0 note=91 velocity=64 time=0\n",
      "note_on channel=0 note=65 velocity=42 time=1\n",
      "note_off channel=0 note=77 velocity=64 time=0\n",
      "note_off channel=0 note=88 velocity=64 time=0\n",
      "note_off channel=0 note=63 velocity=64 time=1\n",
      "note_off channel=0 note=94 velocity=64 time=0\n",
      "note_on channel=0 note=95 velocity=27 time=0\n",
      "note_off channel=0 note=44 velocity=64 time=1\n",
      "note_on channel=0 note=47 velocity=71 time=0\n",
      "note_on channel=0 note=61 velocity=52 time=0\n",
      "note_off channel=0 note=82 velocity=64 time=0\n",
      "note_on channel=0 note=83 velocity=57 time=0\n",
      "note_on channel=0 note=91 velocity=50 time=0\n",
      "note_off channel=0 note=47 velocity=64 time=1\n",
      "note_on channel=0 note=48 velocity=70 time=0\n",
      "note_off channel=0 note=90 velocity=64 time=0\n",
      "note_off channel=0 note=93 velocity=64 time=0\n",
      "note_on channel=0 note=94 velocity=24 time=0\n",
      "note_off channel=0 note=48 velocity=64 time=1\n",
      "note_on channel=0 note=49 velocity=70 time=0\n",
      "note_on channel=0 note=48 velocity=65 time=2\n",
      "note_off channel=0 note=49 velocity=64 time=0\n",
      "note_on channel=0 note=90 velocity=56 time=0\n",
      "note_off channel=0 note=91 velocity=64 time=0\n",
      "note_on channel=0 note=93 velocity=25 time=0\n",
      "note_off channel=0 note=94 velocity=64 time=0\n",
      "note_off channel=0 note=48 velocity=64 time=1\n",
      "note_on channel=0 note=49 velocity=65 time=0\n",
      "note_off channel=0 note=61 velocity=64 time=0\n",
      "note_on channel=0 note=91 velocity=41 time=0\n",
      "note_off channel=0 note=96 velocity=64 time=0\n",
      "note_off channel=0 note=49 velocity=64 time=1\n",
      "note_off channel=0 note=71 velocity=64 time=0\n",
      "note_on channel=0 note=72 velocity=59 time=0\n",
      "note_on channel=0 note=79 velocity=30 time=0\n",
      "note_on channel=0 note=82 velocity=30 time=0\n",
      "note_on channel=0 note=88 velocity=24 time=0\n",
      "note_off channel=0 note=89 velocity=64 time=0\n",
      "note_on channel=0 note=60 velocity=62 time=1\n",
      "note_off channel=0 note=85 velocity=64 time=0\n",
      "note_on channel=0 note=92 velocity=31 time=0\n",
      "note_on channel=0 note=47 velocity=66 time=1\n",
      "note_off channel=0 note=65 velocity=64 time=0\n",
      "note_on channel=0 note=66 velocity=41 time=0\n",
      "note_on channel=0 note=81 velocity=31 time=0\n",
      "note_off channel=0 note=82 velocity=64 time=0\n",
      "note_off channel=0 note=87 velocity=64 time=0\n",
      "note_on channel=0 note=89 velocity=53 time=0\n",
      "note_off channel=0 note=90 velocity=64 time=0\n",
      "note_on channel=0 note=94 velocity=14 time=0\n",
      "note_off channel=0 note=95 velocity=64 time=0\n",
      "note_off channel=0 note=47 velocity=64 time=1\n",
      "note_on channel=0 note=48 velocity=67 time=0\n",
      "note_off channel=0 note=60 velocity=64 time=0\n",
      "note_on channel=0 note=61 velocity=62 time=0\n",
      "note_off channel=0 note=68 velocity=64 time=0\n",
      "note_on channel=0 note=71 velocity=54 time=0\n",
      "note_off channel=0 note=72 velocity=64 time=0\n",
      "note_off channel=0 note=79 velocity=64 time=0\n",
      "note_off channel=0 note=88 velocity=64 time=0\n",
      "note_on channel=0 note=47 velocity=76 time=1\n",
      "note_off channel=0 note=48 velocity=64 time=0\n",
      "note_on channel=0 note=68 velocity=40 time=0\n",
      "note_on channel=0 note=72 velocity=55 time=0\n",
      "note_on channel=0 note=86 velocity=24 time=0\n",
      "note_on channel=0 note=65 velocity=41 time=1\n",
      "note_off channel=0 note=66 velocity=64 time=0\n",
      "note_off channel=0 note=71 velocity=64 time=0\n",
      "note_on channel=0 note=79 velocity=16 time=0\n",
      "note_off channel=0 note=81 velocity=64 time=0\n",
      "note_on channel=0 note=85 velocity=25 time=0\n",
      "note_on channel=0 note=87 velocity=29 time=0\n",
      "note_on channel=0 note=90 velocity=47 time=0\n",
      "note_off channel=0 note=102 velocity=64 time=0\n",
      "note_off channel=0 note=47 velocity=64 time=1\n",
      "note_on channel=0 note=48 velocity=75 time=0\n",
      "note_on channel=0 note=71 velocity=51 time=0\n",
      "note_off channel=0 note=48 velocity=64 time=1\n",
      "note_on channel=0 note=49 velocity=82 time=0\n",
      "note_off channel=0 note=68 velocity=64 time=0\n",
      "note_off channel=0 note=72 velocity=64 time=0\n",
      "note_on channel=0 note=74 velocity=45 time=0\n",
      "note_on channel=0 note=88 velocity=32 time=0\n",
      "note_off channel=0 note=49 velocity=64 time=1\n",
      "note_on channel=0 note=50 velocity=84 time=0\n",
      "note_off channel=0 note=65 velocity=64 time=0\n",
      "note_off channel=0 note=71 velocity=64 time=0\n",
      "note_off channel=0 note=86 velocity=64 time=0\n",
      "note_off channel=0 note=94 velocity=64 time=0\n",
      "note_off channel=0 note=50 velocity=64 time=1\n",
      "note_on channel=0 note=53 velocity=71 time=0\n",
      "note_on channel=0 note=71 velocity=48 time=0\n",
      "note_off channel=0 note=79 velocity=64 time=0\n",
      "note_off channel=0 note=53 velocity=64 time=1\n",
      "note_off channel=0 note=61 velocity=64 time=0\n",
      "note_on channel=0 note=64 velocity=49 time=0\n",
      "note_on channel=0 note=68 velocity=37 time=0\n",
      "note_off channel=0 note=74 velocity=64 time=0\n",
      "note_on channel=0 note=75 velocity=29 time=0\n",
      "note_off channel=0 note=92 velocity=64 time=0\n",
      "note_off channel=0 note=93 velocity=64 time=0\n",
      "note_off channel=0 note=85 velocity=64 time=1\n",
      "note_off channel=0 note=89 velocity=64 time=0\n",
      "note_off channel=0 note=90 velocity=64 time=0\n",
      "note_on channel=0 note=53 velocity=78 time=1\n",
      "note_on channel=0 note=84 velocity=27 time=0\n",
      "note_off channel=0 note=87 velocity=64 time=0\n",
      "note_off channel=0 note=64 velocity=64 time=1\n",
      "note_on channel=0 note=73 velocity=24 time=0\n",
      "note_on channel=0 note=81 velocity=43 time=0\n",
      "note_off channel=0 note=88 velocity=64 time=1\n",
      "note_on channel=0 note=90 velocity=45 time=0\n",
      "note_off channel=0 note=53 velocity=64 time=1\n",
      "note_on channel=0 note=54 velocity=72 time=0\n",
      "note_on channel=0 note=66 velocity=76 time=0\n",
      "note_off channel=0 note=68 velocity=64 time=0\n",
      "note_on channel=0 note=74 velocity=35 time=0\n",
      "note_off channel=0 note=84 velocity=64 time=0\n",
      "note_off channel=0 note=91 velocity=64 time=0\n",
      "note_off channel=0 note=73 velocity=64 time=1\n",
      "note_on channel=0 note=77 velocity=53 time=0\n",
      "note_off channel=0 note=81 velocity=64 time=0\n",
      "note_on channel=0 note=82 velocity=51 time=0\n",
      "note_off channel=0 note=83 velocity=64 time=0\n",
      "note_on channel=0 note=85 velocity=48 time=0\n",
      "note_on channel=0 note=87 velocity=29 time=0\n",
      "note_on channel=0 note=64 velocity=79 time=1\n",
      "note_on channel=0 note=73 velocity=47 time=0\n",
      "note_off channel=0 note=74 velocity=64 time=0\n",
      "note_on channel=0 note=45 velocity=76 time=1\n",
      "note_on channel=0 note=53 velocity=72 time=0\n",
      "note_off channel=0 note=54 velocity=64 time=0\n",
      "note_off channel=0 note=71 velocity=64 time=0\n",
      "note_off channel=0 note=75 velocity=64 time=0\n",
      "note_on channel=0 note=44 velocity=78 time=1\n",
      "note_off channel=0 note=45 velocity=64 time=0\n",
      "note_off channel=0 note=53 velocity=64 time=0\n",
      "note_on channel=0 note=54 velocity=72 time=0\n",
      "note_on channel=0 note=63 velocity=76 time=0\n",
      "note_off channel=0 note=64 velocity=64 time=0\n",
      "note_off channel=0 note=66 velocity=64 time=0\n",
      "note_on channel=0 note=81 velocity=50 time=0\n",
      "note_off channel=0 note=82 velocity=64 time=0\n",
      "note_on channel=0 note=83 velocity=33 time=0\n",
      "note_on channel=0 note=91 velocity=35 time=0\n",
      "note_on channel=0 note=53 velocity=66 time=1\n",
      "note_off channel=0 note=54 velocity=64 time=0\n",
      "note_on channel=0 note=72 velocity=60 time=0\n",
      "note_off channel=0 note=73 velocity=64 time=0\n",
      "note_off channel=0 note=77 velocity=64 time=0\n",
      "note_off channel=0 note=85 velocity=64 time=0\n",
      "note_off channel=0 note=90 velocity=64 time=0\n",
      "note_on channel=0 note=68 velocity=43 time=1\n",
      "note_on channel=0 note=76 velocity=36 time=0\n",
      "note_off channel=0 note=81 velocity=64 time=0\n",
      "note_off channel=0 note=83 velocity=64 time=0\n",
      "note_on channel=0 note=52 velocity=64 time=1\n",
      "note_off channel=0 note=53 velocity=64 time=0\n",
      "note_on channel=0 note=71 velocity=57 time=0\n",
      "note_off channel=0 note=72 velocity=64 time=0\n",
      "note_on channel=0 note=85 velocity=50 time=0\n",
      "note_on channel=0 note=90 velocity=44 time=0\n",
      "note_off channel=0 note=91 velocity=64 time=0\n",
      "note_off channel=0 note=63 velocity=64 time=1\n",
      "note_on channel=0 note=77 velocity=26 time=0\n",
      "note_on channel=0 note=84 velocity=15 time=0\n",
      "note_on channel=0 note=93 velocity=29 time=0\n",
      "note_on channel=0 note=41 velocity=56 time=1\n",
      "note_off channel=0 note=44 velocity=64 time=0\n",
      "note_on channel=0 note=51 velocity=65 time=0\n",
      "note_off channel=0 note=52 velocity=64 time=0\n",
      "note_on channel=0 note=79 velocity=47 time=0\n",
      "note_off channel=0 note=87 velocity=64 time=0\n",
      "note_on channel=0 note=91 velocity=47 time=0\n",
      "note_off channel=0 note=68 velocity=64 time=1\n",
      "note_on channel=0 note=70 velocity=48 time=0\n",
      "note_off channel=0 note=71 velocity=64 time=0\n",
      "note_on channel=0 note=75 velocity=36 time=0\n",
      "note_off channel=0 note=76 velocity=64 time=0\n",
      "note_on channel=0 note=89 velocity=72 time=0\n",
      "note_off channel=0 note=90 velocity=64 time=0\n",
      "note_off channel=0 note=41 velocity=64 time=1\n",
      "note_on channel=0 note=43 velocity=60 time=0\n",
      "note_on channel=0 note=73 velocity=54 time=0\n",
      "note_off channel=0 note=84 velocity=64 time=0\n",
      "note_on channel=0 note=68 velocity=22 time=1\n",
      "note_off channel=0 note=77 velocity=64 time=0\n",
      "note_on channel=0 note=87 velocity=62 time=0\n",
      "note_off channel=0 note=51 velocity=64 time=1\n",
      "note_on channel=0 note=77 velocity=16 time=0\n",
      "note_on channel=0 note=83 velocity=45 time=0\n",
      "note_on channel=0 note=42 velocity=56 time=1\n",
      "note_off channel=0 note=43 velocity=64 time=0\n",
      "note_on channel=0 note=51 velocity=43 time=0\n",
      "note_on channel=0 note=61 velocity=69 time=0\n",
      "note_on channel=0 note=90 velocity=52 time=1\n",
      "note_off channel=0 note=68 velocity=64 time=1\n",
      "note_off channel=0 note=51 velocity=64 time=1\n",
      "note_on channel=0 note=52 velocity=62 time=0\n",
      "note_off channel=0 note=70 velocity=64 time=0\n",
      "note_on channel=0 note=71 velocity=47 time=0\n",
      "note_on channel=0 note=80 velocity=82 time=0\n",
      "note_off channel=0 note=91 velocity=64 time=0\n",
      "note_on channel=0 note=65 velocity=71 time=1\n",
      "note_off channel=0 note=77 velocity=64 time=0\n",
      "note_off channel=0 note=93 velocity=64 time=0\n",
      "note_off channel=0 note=75 velocity=64 time=1\n",
      "note_off channel=0 note=71 velocity=64 time=1\n",
      "note_off channel=0 note=79 velocity=64 time=0\n",
      "note_on channel=0 note=71 velocity=25 time=1\n",
      "note_off channel=0 note=85 velocity=64 time=1\n",
      "note_on channel=0 note=75 velocity=41 time=3\n",
      "note_off channel=0 note=90 velocity=64 time=0\n",
      "note_on channel=0 note=90 velocity=34 time=2\n",
      "note_off channel=0 note=52 velocity=64 time=1\n",
      "note_off channel=0 note=42 velocity=64 time=2\n",
      "note_on channel=0 note=81 velocity=41 time=0\n",
      "note_on channel=0 note=46 velocity=68 time=1\n",
      "note_on channel=0 note=53 velocity=65 time=0\n",
      "note_off channel=0 note=71 velocity=64 time=0\n",
      "note_on channel=0 note=78 velocity=47 time=0\n",
      "note_on channel=0 note=88 velocity=38 time=0\n",
      "note_on channel=0 note=91 velocity=19 time=0\n",
      "note_on channel=0 note=94 velocity=72 time=0\n",
      "note_off channel=0 note=46 velocity=64 time=1\n",
      "note_on channel=0 note=47 velocity=83 time=0\n",
      "note_off channel=0 note=53 velocity=64 time=0\n",
      "note_on channel=0 note=54 velocity=66 time=0\n",
      "note_on channel=0 note=69 velocity=36 time=0\n",
      "note_on channel=0 note=96 velocity=11 time=0\n",
      "note_off channel=0 note=47 velocity=64 time=1\n",
      "note_on channel=0 note=48 velocity=85 time=0\n",
      "note_off channel=0 note=54 velocity=64 time=0\n",
      "note_off channel=0 note=65 velocity=64 time=0\n",
      "note_on channel=0 note=66 velocity=72 time=0\n",
      "note_off channel=0 note=75 velocity=64 time=0\n",
      "note_off channel=0 note=81 velocity=64 time=0\n",
      "note_off channel=0 note=90 velocity=64 time=0\n",
      "note_on channel=0 note=54 velocity=64 time=1\n",
      "note_off channel=0 note=61 velocity=64 time=0\n",
      "note_on channel=0 note=75 velocity=34 time=0\n",
      "note_on channel=0 note=77 velocity=43 time=0\n",
      "note_off channel=0 note=88 velocity=64 time=0\n",
      "note_off channel=0 note=91 velocity=64 time=0\n",
      "note_off channel=0 note=48 velocity=64 time=1\n",
      "note_on channel=0 note=62 velocity=41 time=0\n",
      "note_off channel=0 note=69 velocity=64 time=0\n",
      "note_on channel=0 note=72 velocity=31 time=0\n",
      "note_off channel=0 note=73 velocity=64 time=0\n",
      "note_off channel=0 note=96 velocity=64 time=0\n",
      "note_off channel=0 note=54 velocity=64 time=1\n",
      "note_off channel=0 note=66 velocity=64 time=0\n",
      "note_on channel=0 note=73 velocity=50 time=0\n",
      "note_on channel=0 note=82 velocity=19 time=0\n",
      "note_off channel=0 note=83 velocity=64 time=0\n",
      "note_on channel=0 note=91 velocity=35 time=0\n",
      "note_off channel=0 note=62 velocity=64 time=1\n",
      "note_on channel=0 note=65 velocity=50 time=0\n",
      "note_off channel=0 note=72 velocity=64 time=0\n",
      "note_off channel=0 note=78 velocity=64 time=0\n",
      "note_on channel=0 note=50 velocity=58 time=1\n",
      "note_on channel=0 note=68 velocity=18 time=0\n",
      "note_on channel=0 note=71 velocity=26 time=0\n",
      "note_on channel=0 note=61 velocity=25 time=1\n",
      "note_off channel=0 note=82 velocity=64 time=0\n",
      "note_off channel=0 note=50 velocity=64 time=1\n",
      "note_on channel=0 note=54 velocity=38 time=0\n",
      "note_off channel=0 note=89 velocity=64 time=1\n",
      "note_off channel=0 note=94 velocity=64 time=0\n",
      "note_off channel=0 note=54 velocity=64 time=1\n",
      "note_on channel=0 note=44 velocity=34 time=1\n",
      "note_on channel=0 note=54 velocity=35 time=0\n",
      "note_on channel=0 note=88 velocity=12 time=0\n",
      "note_on channel=0 note=93 velocity=14 time=0\n",
      "note_off channel=0 note=68 velocity=64 time=1\n",
      "note_off channel=0 note=44 velocity=64 time=1\n",
      "note_on channel=0 note=43 velocity=23 time=2\n",
      "note_off channel=0 note=88 velocity=64 time=0\n",
      "note_on channel=0 note=89 velocity=66 time=0\n",
      "note_off channel=0 note=93 velocity=64 time=2\n",
      "note_on channel=0 note=53 velocity=34 time=1\n",
      "note_off channel=0 note=54 velocity=64 time=0\n",
      "note_on channel=0 note=82 velocity=20 time=0\n",
      "note_on channel=0 note=96 velocity=11 time=0\n",
      "note_off channel=0 note=43 velocity=64 time=1\n",
      "note_off channel=0 note=61 velocity=64 time=0\n",
      "note_on channel=0 note=84 velocity=17 time=0\n",
      "note_off channel=0 note=53 velocity=64 time=1\n",
      "note_off channel=0 note=75 velocity=64 time=0\n",
      "note_on channel=0 note=86 velocity=19 time=2\n",
      "note_off channel=0 note=96 velocity=64 time=0\n",
      "note_off channel=0 note=65 velocity=64 time=2\n",
      "note_off channel=0 note=91 velocity=64 time=2\n",
      "note_on channel=0 note=61 velocity=60 time=1\n",
      "note_off channel=0 note=71 velocity=64 time=0\n",
      "note_on channel=0 note=91 velocity=55 time=0\n",
      "note_on channel=0 note=55 velocity=70 time=1\n",
      "note_on channel=0 note=72 velocity=36 time=0\n",
      "note_off channel=0 note=73 velocity=64 time=0\n",
      "note_off channel=0 note=77 velocity=64 time=0\n",
      "note_off channel=0 note=82 velocity=64 time=0\n",
      "note_on channel=0 note=83 velocity=68 time=0\n",
      "note_off channel=0 note=84 velocity=64 time=0\n",
      "note_on channel=0 note=85 velocity=44 time=0\n",
      "note_off channel=0 note=86 velocity=64 time=0\n",
      "note_on channel=0 note=93 velocity=36 time=0\n",
      "note_on channel=0 note=102 velocity=30 time=0\n",
      "note_on channel=0 note=46 velocity=66 time=1\n",
      "note_on channel=0 note=75 velocity=68 time=0\n",
      "note_on channel=0 note=96 velocity=20 time=0\n",
      "note_on channel=0 note=100 velocity=27 time=0\n",
      "note_on channel=0 note=45 velocity=76 time=1\n",
      "note_off channel=0 note=46 velocity=64 time=0\n",
      "note_off channel=0 note=72 velocity=64 time=0\n",
      "note_on channel=0 note=74 velocity=72 time=0\n",
      "note_off channel=0 note=75 velocity=64 time=0\n",
      "note_on channel=0 note=77 velocity=43 time=0\n",
      "note_on channel=0 note=44 velocity=78 time=1\n",
      "note_off channel=0 note=45 velocity=64 time=0\n",
      "note_off channel=0 note=55 velocity=64 time=0\n",
      "note_off channel=0 note=74 velocity=64 time=0\n",
      "note_on channel=0 note=75 velocity=75 time=0\n",
      "note_off channel=0 note=93 velocity=64 time=0\n",
      "note_on channel=0 note=94 velocity=36 time=0\n",
      "note_off channel=0 note=102 velocity=64 time=0\n",
      "note_off channel=0 note=61 velocity=64 time=1\n",
      "note_off channel=0 note=77 velocity=64 time=0\n",
      "note_on channel=0 note=82 velocity=29 time=0\n",
      "note_off channel=0 note=83 velocity=64 time=0\n",
      "note_on channel=0 note=84 velocity=65 time=0\n",
      "note_on channel=0 note=102 velocity=30 time=0\n",
      "note_on channel=0 note=62 velocity=34 time=1\n",
      "note_on channel=0 note=71 velocity=24 time=0\n",
      "note_on channel=0 note=77 velocity=34 time=0\n",
      "note_on channel=0 note=90 velocity=46 time=0\n",
      "note_on channel=0 note=43 velocity=74 time=1\n",
      "note_off channel=0 note=44 velocity=64 time=0\n",
      "note_off channel=0 note=85 velocity=64 time=1\n",
      "note_off channel=0 note=96 velocity=64 time=0\n",
      "note_off channel=0 note=100 velocity=64 time=0\n",
      "note_on channel=0 note=85 velocity=27 time=1\n",
      "note_off channel=0 note=102 velocity=64 time=0\n",
      "note_off channel=0 note=91 velocity=64 time=1\n",
      "note_off channel=0 note=82 velocity=64 time=1\n",
      "note_on channel=0 note=83 velocity=59 time=0\n",
      "note_off channel=0 note=90 velocity=64 time=0\n",
      "note_on channel=0 note=91 velocity=27 time=0\n",
      "note_off channel=0 note=94 velocity=64 time=0\n",
      "note_on channel=0 note=74 velocity=61 time=1\n",
      "note_off channel=0 note=75 velocity=64 time=0\n",
      "note_off channel=0 note=85 velocity=64 time=0\n",
      "note_off channel=0 note=62 velocity=64 time=1\n",
      "note_off channel=0 note=84 velocity=64 time=0\n",
      "note_off channel=0 note=43 velocity=64 time=1\n",
      "note_off channel=0 note=74 velocity=64 time=0\n",
      "note_on channel=0 note=76 velocity=48 time=0\n",
      "note_off channel=0 note=77 velocity=64 time=0\n",
      "note_off channel=0 note=83 velocity=64 time=0\n",
      "note_on channel=0 note=84 velocity=52 time=0\n",
      "note_on channel=0 note=90 velocity=41 time=0\n",
      "note_on channel=0 note=65 velocity=53 time=1\n",
      "note_off channel=0 note=71 velocity=64 time=0\n",
      "note_on channel=0 note=85 velocity=49 time=0\n",
      "note_off channel=0 note=89 velocity=64 time=0\n",
      "note_off channel=0 note=91 velocity=64 time=0\n",
      "note_on channel=0 note=58 velocity=60 time=1\n",
      "note_on channel=0 note=89 velocity=53 time=0\n",
      "note_on channel=0 note=91 velocity=26 time=0\n",
      "note_on channel=0 note=71 velocity=39 time=1\n",
      "note_on channel=0 note=75 velocity=44 time=0\n",
      "note_off channel=0 note=76 velocity=64 time=0\n",
      "note_on channel=0 note=83 velocity=44 time=0\n",
      "note_on channel=0 note=86 velocity=31 time=0\n",
      "note_off channel=0 note=90 velocity=64 time=0\n",
      "note_off channel=0 note=58 velocity=64 time=1\n",
      "note_on channel=0 note=59 velocity=58 time=0\n",
      "note_on channel=0 note=78 velocity=71 time=0\n",
      "note_on channel=0 note=88 velocity=35 time=0\n",
      "note_off channel=0 note=84 velocity=64 time=1\n",
      "note_off channel=0 note=85 velocity=64 time=0\n",
      "note_off channel=0 note=89 velocity=64 time=0\n",
      "note_on channel=0 note=58 velocity=58 time=1\n",
      "note_off channel=0 note=59 velocity=64 time=0\n",
      "note_off channel=0 note=75 velocity=64 time=0\n",
      "note_off channel=0 note=91 velocity=64 time=0\n",
      "note_on channel=0 note=82 velocity=42 time=1\n",
      "note_off channel=0 note=83 velocity=64 time=0\n",
      "note_on channel=0 note=84 velocity=13 time=0\n",
      "note_on channel=0 note=85 velocity=38 time=0\n",
      "note_off channel=0 note=88 velocity=64 time=0\n",
      "note_on channel=0 note=89 velocity=48 time=0\n",
      "note_on channel=0 note=91 velocity=45 time=0\n",
      "note_on channel=0 note=57 velocity=69 time=1\n",
      "note_off channel=0 note=58 velocity=64 time=0\n",
      "note_off channel=0 note=71 velocity=64 time=0\n",
      "note_on channel=0 note=76 velocity=60 time=0\n",
      "note_off channel=0 note=86 velocity=64 time=0\n",
      "note_off channel=0 note=78 velocity=64 time=1\n",
      "note_off channel=0 note=82 velocity=64 time=0\n",
      "note_off channel=0 note=89 velocity=64 time=0\n",
      "note_on channel=0 note=78 velocity=38 time=1\n",
      "note_off channel=0 note=80 velocity=64 time=0\n",
      "note_off channel=0 note=84 velocity=64 time=0\n",
      "note_on channel=0 note=80 velocity=28 time=1\n",
      "note_on channel=0 note=84 velocity=45 time=0\n",
      "note_off channel=0 note=78 velocity=64 time=1\n",
      "note_on channel=0 note=73 velocity=40 time=2\n",
      "note_on channel=0 note=82 velocity=30 time=0\n",
      "note_off channel=0 note=80 velocity=64 time=1\n",
      "note_on channel=0 note=78 velocity=38 time=1\n",
      "note_on channel=0 note=89 velocity=44 time=0\n",
      "note_on channel=0 note=64 velocity=82 time=1\n",
      "note_off channel=0 note=65 velocity=64 time=0\n",
      "note_on channel=0 note=71 velocity=30 time=0\n",
      "note_off channel=0 note=85 velocity=64 time=0\n",
      "note_off channel=0 note=87 velocity=64 time=0\n",
      "note_on channel=0 note=90 velocity=53 time=0\n",
      "note_off channel=0 note=91 velocity=64 time=0\n",
      "note_on channel=0 note=95 velocity=10 time=0\n",
      "note_on channel=0 note=45 velocity=78 time=1\n",
      "note_on channel=0 note=56 velocity=61 time=0\n",
      "note_off channel=0 note=57 velocity=64 time=0\n",
      "note_off channel=0 note=78 velocity=64 time=0\n",
      "note_on channel=0 note=80 velocity=49 time=0\n",
      "note_on channel=0 note=63 velocity=76 time=1\n",
      "note_off channel=0 note=64 velocity=64 time=0\n",
      "note_on channel=0 note=68 velocity=63 time=0\n",
      "note_on channel=0 note=78 velocity=23 time=0\n",
      "note_on channel=0 note=87 velocity=44 time=0\n",
      "note_on channel=0 note=44 velocity=78 time=1\n",
      "note_off channel=0 note=45 velocity=64 time=0\n",
      "note_off channel=0 note=56 velocity=64 time=0\n",
      "note_on channel=0 note=57 velocity=69 time=0\n",
      "note_off channel=0 note=71 velocity=64 time=0\n",
      "note_off channel=0 note=82 velocity=64 time=0\n",
      "note_on channel=0 note=83 velocity=30 time=0\n",
      "note_on channel=0 note=93 velocity=33 time=0\n",
      "note_off channel=0 note=95 velocity=64 time=0\n",
      "note_off channel=0 note=68 velocity=64 time=1\n",
      "note_off channel=0 note=63 velocity=64 time=1\n",
      "note_on channel=0 note=91 velocity=50 time=0\n",
      "note_on channel=0 note=61 velocity=38 time=1\n",
      "note_on channel=0 note=65 velocity=47 time=0\n",
      "note_on channel=0 note=82 velocity=31 time=0\n",
      "note_off channel=0 note=89 velocity=64 time=0\n",
      "note_off channel=0 note=44 velocity=64 time=1\n",
      "note_off channel=0 note=83 velocity=64 time=0\n",
      "note_on channel=0 note=89 velocity=26 time=0\n",
      "note_off channel=0 note=78 velocity=64 time=1\n",
      "note_on channel=0 note=43 velocity=60 time=1\n",
      "note_off channel=0 note=61 velocity=64 time=0\n",
      "note_on channel=0 note=61 velocity=60 time=1\n",
      "note_off channel=0 note=80 velocity=64 time=0\n",
      "note_on channel=0 note=68 velocity=64 time=1\n",
      "note_on channel=0 note=71 velocity=13 time=0\n",
      "note_off channel=0 note=82 velocity=64 time=0\n",
      "note_on channel=0 note=83 velocity=51 time=0\n",
      "note_off channel=0 note=89 velocity=64 time=0\n",
      "note_off channel=0 note=91 velocity=64 time=0\n",
      "note_on channel=0 note=92 velocity=58 time=0\n",
      "note_off channel=0 note=93 velocity=64 time=0\n",
      "note_off channel=0 note=43 velocity=64 time=1\n",
      "note_on channel=0 note=56 velocity=65 time=0\n",
      "note_off channel=0 note=57 velocity=64 time=0\n",
      "note_on channel=0 note=75 velocity=62 time=0\n",
      "note_off channel=0 note=76 velocity=64 time=0\n",
      "note_on channel=0 note=94 velocity=26 time=0\n",
      "note_on channel=0 note=48 velocity=69 time=2\n",
      "note_off channel=0 note=71 velocity=64 time=1\n",
      "note_on channel=0 note=71 velocity=14 time=1\n",
      "note_off channel=0 note=73 velocity=64 time=0\n",
      "note_on channel=0 note=93 velocity=19 time=0\n",
      "note_on channel=0 note=47 velocity=73 time=1\n",
      "note_off channel=0 note=48 velocity=64 time=0\n",
      "note_on channel=0 note=91 velocity=25 time=0\n",
      "note_off channel=0 note=47 velocity=64 time=1\n",
      "note_on channel=0 note=48 velocity=70 time=0\n",
      "note_off channel=0 note=65 velocity=64 time=0\n",
      "note_off channel=0 note=56 velocity=64 time=1\n",
      "note_on channel=0 note=65 velocity=41 time=0\n",
      "note_off channel=0 note=48 velocity=64 time=1\n",
      "note_on channel=0 note=50 velocity=76 time=0\n",
      "note_on channel=0 note=89 velocity=51 time=0\n",
      "note_off channel=0 note=50 velocity=64 time=1\n",
      "note_on channel=0 note=53 velocity=74 time=0\n",
      "note_off channel=0 note=90 velocity=64 time=0\n",
      "note_off channel=0 note=93 velocity=64 time=0\n",
      "note_off channel=0 note=53 velocity=64 time=1\n",
      "note_on channel=0 note=54 velocity=68 time=0\n",
      "note_off channel=0 note=65 velocity=64 time=0\n",
      "note_on channel=0 note=90 velocity=35 time=0\n",
      "note_on channel=0 note=93 velocity=39 time=1\n",
      "note_off channel=0 note=94 velocity=64 time=0\n",
      "note_on channel=0 note=67 velocity=58 time=1\n",
      "note_off channel=0 note=68 velocity=64 time=0\n",
      "note_off channel=0 note=71 velocity=64 time=0\n",
      "note_off channel=0 note=54 velocity=64 time=1\n",
      "note_off channel=0 note=61 velocity=64 time=0\n",
      "note_off channel=0 note=92 velocity=64 time=0\n",
      "note_on channel=0 note=55 velocity=64 time=1\n",
      "note_on channel=0 note=71 velocity=14 time=0\n",
      "note_off channel=0 note=67 velocity=64 time=1\n",
      "note_off channel=0 note=55 velocity=64 time=1\n",
      "note_on channel=0 note=64 velocity=80 time=0\n",
      "note_on channel=0 note=67 velocity=69 time=0\n",
      "note_off channel=0 note=91 velocity=64 time=0\n",
      "note_off channel=0 note=71 velocity=64 time=1\n",
      "note_on channel=0 note=73 velocity=45 time=0\n",
      "note_on channel=0 note=45 velocity=77 time=1\n",
      "note_off channel=0 note=67 velocity=64 time=0\n",
      "note_on channel=0 note=68 velocity=75 time=0\n",
      "note_on channel=0 note=71 velocity=30 time=0\n",
      "note_off channel=0 note=75 velocity=64 time=0\n",
      "note_on channel=0 note=80 velocity=83 time=1\n",
      "note_on channel=0 note=94 velocity=28 time=0\n",
      "note_on channel=0 note=44 velocity=78 time=1\n",
      "note_off channel=0 note=45 velocity=64 time=0\n",
      "note_on channel=0 note=63 velocity=69 time=0\n",
      "note_off channel=0 note=64 velocity=64 time=0\n",
      "note_off channel=0 note=71 velocity=64 time=2\n",
      "note_on channel=0 note=78 velocity=19 time=0\n",
      "note_on channel=0 note=91 velocity=20 time=0\n",
      "note_on channel=0 note=98 velocity=9 time=0\n",
      "note_off channel=0 note=44 velocity=64 time=1\n",
      "note_on channel=0 note=45 velocity=76 time=0\n",
      "note_on channel=0 note=61 velocity=57 time=1\n",
      "note_off channel=0 note=63 velocity=64 time=0\n",
      "note_on channel=0 note=44 velocity=70 time=1\n",
      "note_off channel=0 note=45 velocity=64 time=0\n",
      "note_off channel=0 note=73 velocity=64 time=0\n",
      "note_on channel=0 note=82 velocity=37 time=0\n",
      "note_off channel=0 note=83 velocity=64 time=0\n",
      "note_on channel=0 note=100 velocity=31 time=0\n",
      "note_on channel=0 note=43 velocity=68 time=1\n",
      "note_off channel=0 note=44 velocity=64 time=0\n",
      "note_off channel=0 note=98 velocity=64 time=0\n",
      "note_on channel=0 note=71 velocity=46 time=1\n",
      "note_on channel=0 note=42 velocity=59 time=1\n",
      "note_off channel=0 note=43 velocity=64 time=0\n",
      "note_off channel=0 note=91 velocity=64 time=1\n",
      "note_off channel=0 note=94 velocity=64 time=0\n",
      "note_off channel=0 note=42 velocity=64 time=1\n",
      "note_on channel=0 note=77 velocity=35 time=0\n",
      "note_off channel=0 note=78 velocity=64 time=0\n",
      "note_on channel=0 note=55 velocity=58 time=1\n",
      "note_on channel=0 note=65 velocity=23 time=0\n",
      "note_on channel=0 note=83 velocity=49 time=1\n",
      "note_off channel=0 note=84 velocity=64 time=0\n",
      "note_on channel=0 note=86 velocity=21 time=0\n",
      "note_on channel=0 note=48 velocity=65 time=1\n",
      "note_off channel=0 note=55 velocity=64 time=0\n",
      "note_on channel=0 note=56 velocity=51 time=0\n",
      "note_on channel=0 note=47 velocity=71 time=1\n",
      "note_off channel=0 note=48 velocity=64 time=0\n",
      "note_off channel=0 note=65 velocity=64 time=0\n",
      "note_off channel=0 note=82 velocity=64 time=0\n",
      "note_on channel=0 note=84 velocity=41 time=0\n",
      "note_on channel=0 note=55 velocity=57 time=1\n",
      "note_off channel=0 note=56 velocity=64 time=0\n",
      "note_off channel=0 note=47 velocity=64 time=1\n",
      "note_on channel=0 note=48 velocity=67 time=0\n",
      "note_off channel=0 note=86 velocity=64 time=0\n",
      "note_off channel=0 note=48 velocity=64 time=1\n",
      "note_on channel=0 note=49 velocity=75 time=0\n",
      "note_off channel=0 note=55 velocity=64 time=0\n",
      "note_off channel=0 note=49 velocity=64 time=1\n",
      "note_on channel=0 note=52 velocity=76 time=0\n",
      "note_off channel=0 note=52 velocity=64 time=1\n",
      "note_on channel=0 note=53 velocity=66 time=0\n",
      "note_off channel=0 note=53 velocity=64 time=1\n",
      "note_off channel=0 note=89 velocity=64 time=0\n",
      "note_on channel=0 note=89 velocity=69 time=1\n",
      "note_on channel=0 note=53 velocity=59 time=1\n",
      "note_on channel=0 note=35 velocity=21 time=1\n",
      "note_off channel=0 note=53 velocity=64 time=1\n",
      "note_on channel=0 note=56 velocity=51 time=1\n",
      "note_off channel=0 note=35 velocity=64 time=1\n",
      "note_on channel=0 note=48 velocity=88 time=0\n",
      "note_off channel=0 note=61 velocity=64 time=0\n",
      "note_on channel=0 note=88 velocity=37 time=0\n",
      "note_on channel=0 note=91 velocity=21 time=0\n",
      "note_off channel=0 note=100 velocity=64 time=0\n",
      "note_off channel=0 note=56 velocity=64 time=1\n",
      "note_off channel=0 note=77 velocity=64 time=0\n",
      "note_on channel=0 note=78 velocity=40 time=0\n",
      "note_off channel=0 note=90 velocity=64 time=0\n",
      "note_on channel=0 note=56 velocity=57 time=1\n",
      "note_on channel=0 note=73 velocity=43 time=0\n",
      "note_on channel=0 note=77 velocity=37 time=0\n",
      "note_on channel=0 note=102 velocity=14 time=0\n",
      "note_on channel=0 note=63 velocity=49 time=1\n",
      "note_off channel=0 note=88 velocity=64 time=0\n",
      "note_on channel=0 note=98 velocity=12 time=0\n",
      "note_on channel=0 note=46 velocity=69 time=1\n",
      "note_off channel=0 note=48 velocity=64 time=0\n",
      "note_off channel=0 note=78 velocity=64 time=0\n",
      "note_off channel=0 note=87 velocity=64 time=0\n",
      "note_off channel=0 note=91 velocity=64 time=0\n",
      "note_on channel=0 note=100 velocity=25 time=0\n",
      "note_on channel=0 note=61 velocity=34 time=1\n",
      "note_on channel=0 note=88 velocity=30 time=0\n",
      "note_off channel=0 note=102 velocity=64 time=0\n",
      "note_off channel=0 note=46 velocity=64 time=1\n",
      "note_on channel=0 note=47 velocity=68 time=0\n",
      "note_off channel=0 note=63 velocity=64 time=0\n",
      "note_on channel=0 note=90 velocity=33 time=0\n",
      "note_on channel=0 note=94 velocity=12 time=0\n",
      "note_off channel=0 note=98 velocity=64 time=0\n",
      "note_off channel=0 note=47 velocity=64 time=1\n",
      "note_on channel=0 note=45 velocity=60 time=1\n",
      "note_off channel=0 note=89 velocity=64 time=2\n",
      "note_on channel=0 note=44 velocity=50 time=2\n",
      "note_off channel=0 note=45 velocity=64 time=0\n",
      "note_on channel=0 note=65 velocity=20 time=0\n",
      "note_on channel=0 note=82 velocity=22 time=0\n",
      "note_off channel=0 note=83 velocity=64 time=1\n",
      "note_off channel=0 note=94 velocity=64 time=2\n",
      "note_on channel=0 note=43 velocity=34 time=1\n",
      "note_off channel=0 note=44 velocity=64 time=0\n",
      "note_off channel=0 note=84 velocity=64 time=1\n",
      "note_off channel=0 note=82 velocity=64 time=1\n",
      "note_off channel=0 note=56 velocity=64 time=1\n",
      "note_on channel=0 note=42 velocity=29 time=1\n",
      "note_off channel=0 note=43 velocity=64 time=0\n",
      "note_on channel=0 note=56 velocity=54 time=0\n",
      "note_on channel=0 note=82 velocity=35 time=0\n",
      "note_on channel=0 note=101 velocity=31 time=0\n",
      "note_off channel=0 note=65 velocity=64 time=1\n",
      "note_off channel=0 note=100 velocity=64 time=0\n",
      "note_off channel=0 note=42 velocity=64 time=1\n",
      "note_on channel=0 note=55 velocity=70 time=0\n",
      "note_off channel=0 note=56 velocity=64 time=0\n",
      "note_off channel=0 note=68 velocity=64 time=0\n",
      "note_off channel=0 note=82 velocity=64 time=1\n",
      "note_on channel=0 note=66 velocity=57 time=1\n",
      "note_on channel=0 note=54 velocity=64 time=1\n",
      "note_off channel=0 note=55 velocity=64 time=0\n",
      "note_on channel=0 note=82 velocity=39 time=0\n",
      "note_on channel=0 note=75 velocity=10 time=1\n",
      "note_off channel=0 note=61 velocity=64 time=3\n",
      "note_off channel=0 note=75 velocity=64 time=0\n",
      "note_on channel=0 note=76 velocity=51 time=0\n",
      "note_on channel=0 note=84 velocity=49 time=0\n",
      "note_on channel=0 note=89 velocity=67 time=0\n",
      "note_on channel=0 note=53 velocity=69 time=1\n",
      "note_off channel=0 note=54 velocity=64 time=0\n",
      "note_on channel=0 note=62 velocity=54 time=0\n",
      "note_off channel=0 note=66 velocity=64 time=0\n",
      "note_on channel=0 note=69 velocity=43 time=0\n",
      "note_off channel=0 note=71 velocity=64 time=0\n",
      "note_on channel=0 note=72 velocity=44 time=0\n",
      "note_off channel=0 note=73 velocity=64 time=0\n",
      "note_off channel=0 note=77 velocity=64 time=0\n",
      "note_on channel=0 note=78 velocity=44 time=0\n",
      "note_off channel=0 note=82 velocity=64 time=0\n",
      "note_off channel=0 note=88 velocity=64 time=0\n",
      "note_off channel=0 note=90 velocity=64 time=0\n",
      "note_on channel=0 note=91 velocity=24 time=0\n",
      "note_on channel=0 note=102 velocity=19 time=0\n",
      "note_on channel=0 note=45 velocity=77 time=1\n",
      "note_on channel=0 note=66 velocity=55 time=0\n",
      "note_on channel=0 note=82 velocity=39 time=0\n",
      "note_off channel=0 note=62 velocity=64 time=1\n",
      "note_on channel=0 note=64 velocity=55 time=0\n",
      "note_on channel=0 note=75 velocity=45 time=0\n",
      "note_on channel=0 note=83 velocity=29 time=0\n",
      "note_on channel=0 note=44 velocity=77 time=1\n",
      "note_off channel=0 note=45 velocity=64 time=0\n",
      "note_on channel=0 note=52 velocity=71 time=0\n",
      "note_off channel=0 note=53 velocity=64 time=0\n",
      "note_off channel=0 note=66 velocity=64 time=0\n",
      "note_on channel=0 note=67 velocity=47 time=0\n",
      "note_off channel=0 note=72 velocity=64 time=0\n",
      "note_on channel=0 note=73 velocity=38 time=0\n",
      "note_off channel=0 note=76 velocity=64 time=0\n",
      "note_on channel=0 note=77 velocity=35 time=0\n",
      "note_off channel=0 note=91 velocity=64 time=0\n",
      "note_off channel=0 note=69 velocity=64 time=1\n",
      "note_on channel=0 note=70 velocity=34 time=0\n",
      "note_off channel=0 note=83 velocity=64 time=0\n",
      "note_off channel=0 note=102 velocity=64 time=0\n",
      "note_on channel=0 note=62 velocity=35 time=1\n",
      "note_off channel=0 note=67 velocity=64 time=0\n",
      "note_on channel=0 note=68 velocity=57 time=0\n",
      "note_off channel=0 note=78 velocity=64 time=0\n",
      "note_on channel=0 note=100 velocity=17 time=0\n",
      "note_off channel=0 note=101 velocity=64 time=0\n",
      "note_on channel=0 note=43 velocity=72 time=1\n",
      "note_off channel=0 note=44 velocity=64 time=0\n",
      "note_off channel=0 note=64 velocity=64 time=0\n",
      "note_off channel=0 note=70 velocity=64 time=0\n",
      "note_on channel=0 note=71 velocity=51 time=0\n",
      "note_on channel=0 note=88 velocity=25 time=1\n",
      "note_off channel=0 note=62 velocity=64 time=1\n",
      "note_off channel=0 note=84 velocity=64 time=0\n",
      "note_off channel=0 note=82 velocity=64 time=1\n",
      "note_off channel=0 note=89 velocity=64 time=0\n",
      "note_off channel=0 note=100 velocity=64 time=0\n",
      "note_on channel=0 note=51 velocity=65 time=1\n",
      "note_off channel=0 note=52 velocity=64 time=0\n",
      "note_on channel=0 note=82 velocity=34 time=0\n",
      "note_off channel=0 note=71 velocity=64 time=1\n",
      "note_off channel=0 note=43 velocity=64 time=1\n",
      "note_off channel=0 note=51 velocity=64 time=1\n",
      "note_on channel=0 note=65 velocity=42 time=0\n",
      "note_on channel=0 note=70 velocity=43 time=0\n",
      "note_on channel=0 note=63 velocity=41 time=2\n",
      "note_off channel=0 note=70 velocity=64 time=0\n",
      "note_on channel=0 note=71 velocity=47 time=0\n",
      "note_on channel=0 note=90 velocity=41 time=0\n",
      "note_on channel=0 note=52 velocity=63 time=1\n",
      "note_off channel=0 note=65 velocity=64 time=0\n",
      "note_off channel=0 note=75 velocity=64 time=0\n",
      "note_on channel=0 note=83 velocity=57 time=0\n",
      "note_off channel=0 note=63 velocity=64 time=1\n",
      "note_off channel=0 note=82 velocity=64 time=0\n",
      "note_on channel=0 note=65 velocity=47 time=3\n",
      "note_off channel=0 note=77 velocity=64 time=2\n",
      "note_off channel=0 note=65 velocity=64 time=1\n",
      "note_on channel=0 note=65 velocity=42 time=1\n",
      "note_on channel=0 note=75 velocity=9 time=1\n",
      "note_on channel=0 note=91 velocity=10 time=1\n",
      "note_off channel=0 note=88 velocity=64 time=2\n",
      "note_on channel=0 note=89 velocity=33 time=0\n",
      "note_off channel=0 note=52 velocity=64 time=1\n",
      "note_on channel=0 note=64 velocity=82 time=0\n",
      "note_off channel=0 note=65 velocity=64 time=0\n",
      "note_off channel=0 note=75 velocity=64 time=0\n",
      "note_on channel=0 note=84 velocity=22 time=0\n",
      "note_on channel=0 note=87 velocity=22 time=0\n",
      "note_on channel=0 note=45 velocity=77 time=1\n",
      "note_on channel=0 note=67 velocity=66 time=0\n",
      "note_off channel=0 note=68 velocity=64 time=0\n",
      "note_off channel=0 note=91 velocity=64 time=0\n",
      "note_off channel=0 note=67 velocity=64 time=1\n",
      "note_on channel=0 note=68 velocity=56 time=0\n",
      "note_off channel=0 note=71 velocity=64 time=0\n",
      "note_on channel=0 note=44 velocity=79 time=1\n",
      "note_off channel=0 note=45 velocity=64 time=0\n",
      "note_on channel=0 note=63 velocity=72 time=0\n",
      "note_off channel=0 note=64 velocity=64 time=0\n",
      "note_on channel=0 note=71 velocity=47 time=0\n",
      "note_off channel=0 note=84 velocity=64 time=1\n",
      "note_off channel=0 note=87 velocity=64 time=0\n",
      "note_off channel=0 note=90 velocity=64 time=0\n",
      "note_on channel=0 note=65 velocity=43 time=1\n",
      "note_off channel=0 note=63 velocity=64 time=1\n",
      "note_off channel=0 note=44 velocity=64 time=1\n",
      "note_on channel=0 note=61 velocity=32 time=0\n",
      "note_off channel=0 note=65 velocity=64 time=1\n",
      "note_off channel=0 note=61 velocity=64 time=1\n",
      "note_on channel=0 note=65 velocity=45 time=0\n",
      "note_on channel=0 note=43 velocity=63 time=1\n",
      "note_on channel=0 note=61 velocity=59 time=0\n",
      "note_on channel=0 note=42 velocity=56 time=2\n",
      "note_off channel=0 note=43 velocity=64 time=0\n",
      "note_off channel=0 note=42 velocity=64 time=3\n",
      "note_on channel=0 note=47 velocity=73 time=0\n",
      "note_off channel=0 note=73 velocity=64 time=0\n",
      "note_off channel=0 note=93 velocity=64 time=0\n",
      "note_on channel=0 note=91 velocity=29 time=1\n",
      "note_on channel=0 note=77 velocity=45 time=1\n",
      "note_off channel=0 note=47 velocity=64 time=2\n",
      "note_on channel=0 note=48 velocity=71 time=0\n",
      "note_off channel=0 note=61 velocity=64 time=0\n",
      "note_on channel=0 note=62 velocity=33 time=0\n",
      "note_off channel=0 note=48 velocity=64 time=1\n",
      "note_on channel=0 note=49 velocity=77 time=0\n",
      "note_off channel=0 note=49 velocity=64 time=1\n",
      "note_on channel=0 note=52 velocity=75 time=0\n",
      "note_off channel=0 note=80 velocity=64 time=0\n",
      "note_off channel=0 note=52 velocity=64 time=1\n",
      "note_on channel=0 note=53 velocity=66 time=0\n",
      "note_on channel=0 note=61 velocity=32 time=0\n",
      "note_off channel=0 note=62 velocity=64 time=0\n",
      "note_on channel=0 note=87 velocity=43 time=0\n",
      "note_off channel=0 note=53 velocity=64 time=1\n",
      "note_on channel=0 note=53 velocity=58 time=2\n",
      "note_off channel=0 note=61 velocity=64 time=1\n",
      "note_on channel=0 note=92 velocity=34 time=2\n",
      "note_on channel=0 note=93 velocity=50 time=0\n",
      "note_off channel=0 note=53 velocity=64 time=1\n",
      "note_on channel=0 note=64 velocity=82 time=0\n",
      "note_off channel=0 note=65 velocity=64 time=0\n",
      "note_off channel=0 note=71 velocity=64 time=0\n",
      "note_on channel=0 note=72 velocity=39 time=0\n",
      "note_on channel=0 note=100 velocity=61 time=0\n",
      "note_on channel=0 note=67 velocity=67 time=1\n",
      "note_off channel=0 note=68 velocity=64 time=0\n",
      "note_on channel=0 note=70 velocity=42 time=0\n",
      "note_on channel=0 note=85 velocity=45 time=0\n",
      "note_on channel=0 note=88 velocity=19 time=0\n",
      "note_off channel=0 note=89 velocity=64 time=0\n",
      "note_on channel=0 note=90 velocity=39 time=0\n",
      "note_off channel=0 note=91 velocity=64 time=0\n",
      "note_on channel=0 note=45 velocity=76 time=1\n",
      "note_on channel=0 note=80 velocity=33 time=0\n",
      "note_on channel=0 note=81 velocity=27 time=0\n",
      "note_on channel=0 note=94 velocity=66 time=0\n",
      "note_on channel=0 note=96 velocity=65 time=0\n",
      "note_on channel=0 note=44 velocity=79 time=1\n",
      "note_off channel=0 note=45 velocity=64 time=0\n",
      "note_off channel=0 note=67 velocity=64 time=0\n",
      "note_off channel=0 note=70 velocity=64 time=0\n",
      "note_off channel=0 note=72 velocity=64 time=0\n",
      "note_on channel=0 note=84 velocity=13 time=0\n",
      "note_on channel=0 note=63 velocity=66 time=1\n",
      "note_off channel=0 note=64 velocity=64 time=0\n",
      "note_on channel=0 note=73 velocity=33 time=0\n",
      "note_off channel=0 note=88 velocity=64 time=0\n",
      "note_off channel=0 note=93 velocity=64 time=0\n",
      "note_on channel=0 note=101 velocity=62 time=0\n",
      "note_on channel=0 note=70 velocity=52 time=1\n",
      "note_off channel=0 note=81 velocity=64 time=0\n",
      "note_off channel=0 note=90 velocity=64 time=0\n",
      "note_on channel=0 note=91 velocity=34 time=0\n",
      "note_on channel=0 note=93 velocity=43 time=0\n",
      "note_on channel=0 note=102 velocity=43 time=0\n",
      "note_on channel=0 note=103 velocity=36 time=0\n",
      "note_off channel=0 note=63 velocity=64 time=1\n",
      "note_on channel=0 note=64 velocity=72 time=0\n",
      "note_on channel=0 note=68 velocity=34 time=0\n",
      "note_off channel=0 note=92 velocity=64 time=0\n",
      "note_off channel=0 note=44 velocity=64 time=1\n",
      "note_on channel=0 note=47 velocity=66 time=0\n",
      "note_off channel=0 note=70 velocity=64 time=0\n",
      "note_on channel=0 note=71 velocity=41 time=0\n",
      "note_off channel=0 note=84 velocity=64 time=0\n",
      "note_off channel=0 note=94 velocity=64 time=0\n",
      "note_on channel=0 note=95 velocity=68 time=0\n",
      "note_on channel=0 note=41 velocity=57 time=1\n",
      "note_off channel=0 note=47 velocity=64 time=0\n",
      "note_on channel=0 note=50 velocity=65 time=0\n",
      "note_on channel=0 note=63 velocity=69 time=0\n",
      "note_off channel=0 note=64 velocity=64 time=0\n",
      "note_off channel=0 note=68 velocity=64 time=0\n",
      "note_on channel=0 note=98 velocity=37 time=0\n",
      "note_off channel=0 note=50 velocity=64 time=1\n",
      "note_on channel=0 note=52 velocity=72 time=0\n",
      "note_off channel=0 note=63 velocity=64 time=0\n",
      "note_on channel=0 note=64 velocity=72 time=0\n",
      "note_off channel=0 note=41 velocity=64 time=1\n",
      "note_on channel=0 note=43 velocity=62 time=0\n",
      "note_off channel=0 note=93 velocity=64 time=0\n",
      "note_on channel=0 note=94 velocity=31 time=0\n",
      "note_off channel=0 note=96 velocity=64 time=1\n",
      "note_on channel=0 note=97 velocity=65 time=0\n",
      "note_on channel=0 note=42 velocity=57 time=1\n",
      "note_off channel=0 note=43 velocity=64 time=0\n",
      "note_on channel=0 note=61 velocity=63 time=0\n",
      "note_on channel=0 note=90 velocity=27 time=0\n",
      "note_off channel=0 note=103 velocity=64 time=0\n",
      "note_off channel=0 note=64 velocity=64 time=1\n",
      "note_on channel=0 note=65 velocity=60 time=0\n",
      "note_off channel=0 note=80 velocity=64 time=0\n",
      "note_off channel=0 note=73 velocity=64 time=1\n",
      "note_on channel=0 note=80 velocity=27 time=0\n",
      "note_off channel=0 note=95 velocity=64 time=0\n",
      "note_on channel=0 note=96 velocity=42 time=0\n",
      "note_off channel=0 note=42 velocity=64 time=1\n",
      "note_off channel=0 note=52 velocity=64 time=0\n",
      "note_on channel=0 note=53 velocity=75 time=0\n",
      "note_off channel=0 note=71 velocity=64 time=0\n",
      "note_on channel=0 note=72 velocity=47 time=0\n",
      "note_off channel=0 note=90 velocity=64 time=0\n",
      "note_off channel=0 note=65 velocity=64 time=1\n",
      "note_on channel=0 note=66 velocity=67 time=0\n",
      "note_on channel=0 note=48 velocity=68 time=1\n",
      "note_off channel=0 note=53 velocity=64 time=0\n",
      "note_off channel=0 note=66 velocity=64 time=0\n",
      "note_on channel=0 note=67 velocity=73 time=0\n",
      "note_off channel=0 note=72 velocity=64 time=0\n",
      "note_off channel=0 note=94 velocity=64 time=0\n",
      "note_on channel=0 note=47 velocity=74 time=1\n",
      "note_off channel=0 note=48 velocity=64 time=0\n",
      "note_on channel=0 note=65 velocity=56 time=0\n",
      "note_off channel=0 note=47 velocity=64 time=1\n",
      "note_on channel=0 note=48 velocity=74 time=0\n",
      "note_off channel=0 note=67 velocity=64 time=0\n",
      "note_on channel=0 note=68 velocity=66 time=0\n",
      "note_off channel=0 note=91 velocity=64 time=0\n",
      "note_off channel=0 note=96 velocity=64 time=0\n",
      "note_on channel=0 note=57 velocity=63 time=1\n",
      "note_off channel=0 note=102 velocity=64 time=0\n",
      "note_off channel=0 note=48 velocity=64 time=1\n",
      "note_on channel=0 note=50 velocity=78 time=0\n",
      "note_off channel=0 note=68 velocity=64 time=0\n",
      "note_off channel=0 note=80 velocity=64 time=0\n",
      "note_on channel=0 note=102 velocity=26 time=0\n",
      "note_off channel=0 note=50 velocity=64 time=1\n",
      "note_on channel=0 note=54 velocity=73 time=0\n",
      "note_off channel=0 note=57 velocity=64 time=0\n",
      "note_off channel=0 note=97 velocity=64 time=0\n",
      "note_off channel=0 note=98 velocity=64 time=0\n",
      "note_off channel=0 note=54 velocity=64 time=1\n",
      "note_on channel=0 note=56 velocity=68 time=0\n",
      "note_off channel=0 note=100 velocity=64 time=0\n",
      "note_off channel=0 note=56 velocity=64 time=1\n",
      "note_on channel=0 note=57 velocity=67 time=0\n",
      "note_on channel=0 note=91 velocity=32 time=0\n",
      "note_on channel=0 note=55 velocity=71 time=1\n",
      "note_off channel=0 note=57 velocity=64 time=0\n",
      "note_off channel=0 note=65 velocity=64 time=0\n",
      "note_on channel=0 note=71 velocity=22 time=0\n",
      "note_on channel=0 note=80 velocity=80 time=0\n",
      "note_on channel=0 note=53 velocity=72 time=1\n",
      "note_off channel=0 note=55 velocity=64 time=0\n",
      "note_off channel=0 note=102 velocity=64 time=0\n",
      "note_off channel=0 note=53 velocity=64 time=1\n",
      "note_on channel=0 note=54 velocity=68 time=0\n",
      "note_on channel=0 note=89 velocity=68 time=1\n",
      "note_off channel=0 note=101 velocity=64 time=0\n",
      "note_off channel=0 note=54 velocity=64 time=1\n",
      "note_on channel=0 note=65 velocity=61 time=0\n",
      "note_off channel=0 note=71 velocity=64 time=0\n",
      "note_on channel=0 note=72 velocity=41 time=0\n",
      "note_on channel=0 note=93 velocity=28 time=0\n",
      "note_on channel=0 note=48 velocity=88 time=1\n",
      "note_on channel=0 note=54 velocity=65 time=0\n",
      "note_off channel=0 note=61 velocity=64 time=0\n",
      "note_on channel=0 note=74 velocity=40 time=0\n",
      "note_on channel=0 note=76 velocity=43 time=0\n",
      "note_off channel=0 note=77 velocity=64 time=0\n",
      "note_on channel=0 note=102 velocity=25 time=0\n",
      "note_off channel=0 note=54 velocity=64 time=1\n",
      "note_off channel=0 note=72 velocity=64 time=0\n",
      "note_on channel=0 note=78 velocity=30 time=0\n",
      "note_on channel=0 note=63 velocity=49 time=1\n",
      "note_off channel=0 note=65 velocity=64 time=0\n",
      "note_on channel=0 note=67 velocity=46 time=0\n",
      "note_on channel=0 note=77 velocity=24 time=0\n",
      "note_on channel=0 note=73 velocity=69 time=1\n",
      "note_off channel=0 note=74 velocity=64 time=0\n",
      "note_off channel=0 note=76 velocity=64 time=0\n",
      "note_off channel=0 note=102 velocity=64 time=0\n",
      "note_off channel=0 note=48 velocity=64 time=1\n",
      "note_off channel=0 note=63 velocity=64 time=0\n",
      "note_on channel=0 note=65 velocity=52 time=0\n",
      "note_on channel=0 note=45 velocity=67 time=1\n",
      "note_off channel=0 note=67 velocity=64 time=0\n",
      "note_off channel=0 note=78 velocity=64 time=0\n",
      "note_on channel=0 note=90 velocity=57 time=0\n",
      "note_off channel=0 note=45 velocity=64 time=1\n",
      "note_on channel=0 note=48 velocity=67 time=0\n",
      "note_on channel=0 note=55 velocity=53 time=0\n",
      "note_off channel=0 note=48 velocity=64 time=1\n",
      "note_off channel=0 note=65 velocity=64 time=0\n",
      "note_on channel=0 note=66 velocity=64 time=0\n",
      "note_on channel=0 note=71 velocity=22 time=0\n",
      "note_on channel=0 note=45 velocity=60 time=1\n",
      "note_off channel=0 note=55 velocity=64 time=0\n",
      "note_off channel=0 note=77 velocity=64 time=1\n",
      "note_off channel=0 note=93 velocity=64 time=0\n",
      "note_on channel=0 note=94 velocity=47 time=0\n",
      "note_on channel=0 note=54 velocity=65 time=1\n",
      "note_off channel=0 note=71 velocity=64 time=0\n",
      "note_on channel=0 note=44 velocity=50 time=1\n",
      "note_off channel=0 note=45 velocity=64 time=0\n",
      "note_on channel=0 note=81 velocity=34 time=0\n",
      "note_off channel=0 note=66 velocity=64 time=1\n",
      "note_off channel=0 note=81 velocity=64 time=1\n",
      "note_on channel=0 note=82 velocity=32 time=0\n",
      "note_off channel=0 note=85 velocity=64 time=1\n",
      "note_off channel=0 note=91 velocity=64 time=0\n",
      "note_on channel=0 note=97 velocity=18 time=0\n",
      "note_on channel=0 note=100 velocity=21 time=0\n",
      "note_on channel=0 note=61 velocity=10 time=1\n",
      "note_on channel=0 note=96 velocity=23 time=0\n",
      "note_on channel=0 note=43 velocity=28 time=1\n",
      "note_off channel=0 note=44 velocity=64 time=0\n",
      "note_on channel=0 note=71 velocity=16 time=0\n",
      "note_off channel=0 note=83 velocity=64 time=0\n",
      "note_off channel=0 note=71 velocity=64 time=3\n",
      "note_on channel=0 note=95 velocity=26 time=0\n",
      "note_off channel=0 note=96 velocity=64 time=0\n",
      "note_on channel=0 note=77 velocity=28 time=1\n",
      "note_off channel=0 note=100 velocity=64 time=0\n",
      "note_off channel=0 note=43 velocity=64 time=1\n",
      "note_on channel=0 note=53 velocity=69 time=0\n",
      "note_off channel=0 note=54 velocity=64 time=0\n",
      "note_off channel=0 note=61 velocity=64 time=0\n",
      "note_on channel=0 note=72 velocity=57 time=0\n",
      "note_off channel=0 note=73 velocity=64 time=0\n",
      "note_off channel=0 note=82 velocity=64 time=0\n",
      "note_on channel=0 note=93 velocity=46 time=0\n",
      "note_off channel=0 note=94 velocity=64 time=0\n",
      "note_on channel=0 note=78 velocity=33 time=1\n",
      "note_on channel=0 note=82 velocity=15 time=0\n",
      "note_on channel=0 note=91 velocity=18 time=0\n",
      "note_off channel=0 note=97 velocity=64 time=0\n",
      "note_on channel=0 note=73 velocity=44 time=1\n",
      "note_off channel=0 note=77 velocity=64 time=0\n",
      "note_on channel=0 note=83 velocity=62 time=0\n",
      "note_off channel=0 note=93 velocity=64 time=0\n",
      "note_on channel=0 note=64 velocity=39 time=1\n",
      "note_on channel=0 note=71 velocity=41 time=0\n",
      "note_off channel=0 note=72 velocity=64 time=0\n",
      "note_on channel=0 note=77 velocity=29 time=0\n",
      "note_off channel=0 note=78 velocity=64 time=0\n",
      "note_on channel=0 note=52 velocity=70 time=1\n",
      "note_off channel=0 note=53 velocity=64 time=0\n",
      "note_off channel=0 note=82 velocity=64 time=0\n",
      "note_off channel=0 note=95 velocity=64 time=0\n",
      "note_on channel=0 note=63 velocity=62 time=1\n",
      "note_off channel=0 note=64 velocity=64 time=0\n",
      "note_off channel=0 note=71 velocity=64 time=0\n",
      "note_off channel=0 note=90 velocity=64 time=0\n",
      "note_off channel=0 note=91 velocity=64 time=0\n",
      "note_on channel=0 note=51 velocity=67 time=1\n",
      "note_off channel=0 note=52 velocity=64 time=0\n",
      "note_on channel=0 note=50 velocity=63 time=1\n",
      "note_off channel=0 note=51 velocity=64 time=0\n",
      "note_off channel=0 note=73 velocity=64 time=1\n",
      "note_on channel=0 note=76 velocity=41 time=0\n",
      "note_off channel=0 note=77 velocity=64 time=0\n",
      "note_on channel=0 note=84 velocity=46 time=0\n",
      "note_on channel=0 note=91 velocity=48 time=0\n",
      "note_on channel=0 note=93 velocity=33 time=0\n",
      "note_on channel=0 note=102 velocity=29 time=0\n",
      "note_on channel=0 note=46 velocity=69 time=1\n",
      "note_off channel=0 note=50 velocity=64 time=0\n",
      "note_on channel=0 note=69 velocity=45 time=0\n",
      "note_on channel=0 note=71 velocity=43 time=0\n",
      "note_on channel=0 note=77 velocity=44 time=0\n",
      "note_on channel=0 note=78 velocity=41 time=0\n",
      "note_on channel=0 note=45 velocity=76 time=1\n",
      "note_off channel=0 note=46 velocity=64 time=0\n",
      "note_on channel=0 note=67 velocity=45 time=0\n",
      "note_on channel=0 note=73 velocity=28 time=0\n",
      "note_off channel=0 note=76 velocity=64 time=0\n",
      "note_on channel=0 note=85 velocity=65 time=0\n",
      "note_on channel=0 note=44 velocity=77 time=1\n",
      "note_off channel=0 note=45 velocity=64 time=0\n",
      "note_off channel=0 note=63 velocity=64 time=0\n",
      "note_on channel=0 note=64 velocity=49 time=0\n",
      "note_off channel=0 note=71 velocity=64 time=0\n",
      "note_off channel=0 note=77 velocity=64 time=0\n",
      "note_on channel=0 note=52 velocity=63 time=1\n",
      "note_on channel=0 note=61 velocity=35 time=0\n",
      "note_off channel=0 note=67 velocity=64 time=0\n",
      "note_on channel=0 note=71 velocity=43 time=0\n",
      "note_off channel=0 note=64 velocity=64 time=1\n",
      "note_on channel=0 note=75 velocity=47 time=0\n",
      "note_off channel=0 note=78 velocity=64 time=0\n",
      "note_on channel=0 note=43 velocity=73 time=1\n",
      "note_off channel=0 note=44 velocity=64 time=0\n",
      "note_off channel=0 note=61 velocity=64 time=0\n",
      "note_off channel=0 note=69 velocity=64 time=0\n",
      "note_off channel=0 note=84 velocity=64 time=0\n",
      "note_on channel=0 note=90 velocity=46 time=0\n",
      "note_off channel=0 note=75 velocity=64 time=1\n",
      "note_on channel=0 note=63 velocity=52 time=1\n",
      "note_off channel=0 note=87 velocity=64 time=0\n",
      "note_on channel=0 note=88 velocity=58 time=0\n",
      "note_on channel=0 note=51 velocity=62 time=1\n",
      "note_off channel=0 note=52 velocity=64 time=0\n",
      "note_on channel=0 note=77 velocity=30 time=0\n",
      "note_off channel=0 note=63 velocity=64 time=1\n",
      "note_on channel=0 note=75 velocity=68 time=0\n",
      "note_on channel=0 note=70 velocity=38 time=1\n",
      "note_off channel=0 note=71 velocity=64 time=0\n",
      "note_on channel=0 note=82 velocity=53 time=0\n",
      "note_off channel=0 note=83 velocity=64 time=0\n",
      "note_off channel=0 note=43 velocity=64 time=1\n",
      "note_on channel=0 note=87 velocity=71 time=0\n",
      "note_off channel=0 note=88 velocity=64 time=0\n",
      "note_off channel=0 note=90 velocity=64 time=0\n",
      "note_off channel=0 note=102 velocity=64 time=1\n",
      "note_on channel=0 note=68 velocity=29 time=1\n",
      "note_on channel=0 note=95 velocity=29 time=1\n",
      "note_on channel=0 note=100 velocity=12 time=1\n",
      "note_on channel=0 note=50 velocity=45 time=1\n",
      "note_off channel=0 note=51 velocity=64 time=0\n",
      "note_off channel=0 note=93 velocity=64 time=0\n",
      "note_off channel=0 note=70 velocity=64 time=1\n",
      "note_on channel=0 note=71 velocity=35 time=0\n",
      "note_off channel=0 note=73 velocity=64 time=0\n",
      "note_on channel=0 note=83 velocity=67 time=0\n",
      "note_on channel=0 note=102 velocity=42 time=0\n",
      "note_off channel=0 note=50 velocity=64 time=1\n",
      "note_on channel=0 note=51 velocity=50 time=0\n",
      "note_on channel=0 note=65 velocity=47 time=0\n",
      "note_on channel=0 note=84 velocity=53 time=0\n",
      "note_off channel=0 note=85 velocity=64 time=0\n",
      "note_off channel=0 note=100 velocity=64 time=0\n",
      "note_on channel=0 note=70 velocity=43 time=1\n",
      "note_off channel=0 note=71 velocity=64 time=0\n",
      "note_on channel=0 note=90 velocity=59 time=0\n",
      "note_off channel=0 note=91 velocity=64 time=0\n",
      "note_on channel=0 note=50 velocity=67 time=1\n",
      "note_off channel=0 note=51 velocity=64 time=0\n",
      "note_off channel=0 note=68 velocity=64 time=0\n",
      "note_on channel=0 note=81 velocity=35 time=0\n",
      "note_off channel=0 note=82 velocity=64 time=0\n",
      "note_on channel=0 note=69 velocity=49 time=1\n",
      "note_off channel=0 note=70 velocity=64 time=0\n",
      "note_on channel=0 note=74 velocity=58 time=0\n",
      "note_off channel=0 note=75 velocity=64 time=0\n",
      "note_on channel=0 note=88 velocity=56 time=0\n",
      "note_on channel=0 note=97 velocity=21 time=0\n",
      "note_on channel=0 note=91 velocity=33 time=1\n",
      "note_on channel=0 note=94 velocity=29 time=0\n",
      "note_on channel=0 note=78 velocity=53 time=1\n",
      "note_off channel=0 note=80 velocity=64 time=0\n",
      "note_off channel=0 note=95 velocity=64 time=0\n",
      "note_off channel=0 note=77 velocity=64 time=1\n",
      "note_on channel=0 note=85 velocity=36 time=0\n",
      "note_off channel=0 note=89 velocity=64 time=0\n",
      "note_on channel=0 note=89 velocity=24 time=1\n",
      "note_off channel=0 note=65 velocity=64 time=3\n",
      "note_on channel=0 note=71 velocity=42 time=0\n",
      "note_on channel=0 note=80 velocity=39 time=0\n",
      "note_off channel=0 note=89 velocity=64 time=0\n",
      "note_on channel=0 note=57 velocity=51 time=1\n",
      "note_on channel=0 note=62 velocity=84 time=0\n",
      "note_off channel=0 note=69 velocity=64 time=0\n",
      "note_off channel=0 note=81 velocity=64 time=0\n",
      "note_on channel=0 note=89 velocity=58 time=0\n",
      "note_off channel=0 note=62 velocity=64 time=1\n",
      "note_on channel=0 note=63 velocity=94 time=0\n",
      "note_on channel=0 note=69 velocity=52 time=0\n",
      "note_off channel=0 note=91 velocity=64 time=0\n",
      "note_off channel=0 note=71 velocity=64 time=1\n",
      "note_off channel=0 note=57 velocity=64 time=1\n",
      "note_off channel=0 note=80 velocity=64 time=1\n",
      "note_off channel=0 note=85 velocity=64 time=1\n",
      "note_on channel=0 note=91 velocity=35 time=0\n",
      "note_off channel=0 note=78 velocity=64 time=2\n",
      "note_off channel=0 note=84 velocity=64 time=0\n",
      "note_off channel=0 note=74 velocity=64 time=1\n",
      "note_on channel=0 note=78 velocity=45 time=0\n",
      "note_off channel=0 note=97 velocity=64 time=0\n",
      "note_on channel=0 note=74 velocity=47 time=1\n",
      "note_off channel=0 note=87 velocity=64 time=0\n",
      "note_on channel=0 note=97 velocity=13 time=0\n",
      "note_on channel=0 note=84 velocity=33 time=2\n",
      "note_off channel=0 note=91 velocity=64 time=0\n",
      "note_on channel=0 note=92 velocity=28 time=0\n",
      "note_on channel=0 note=85 velocity=24 time=1\n",
      "note_on channel=0 note=87 velocity=46 time=0\n",
      "note_on channel=0 note=91 velocity=46 time=0\n",
      "note_off channel=0 note=97 velocity=64 time=0\n",
      "note_on channel=0 note=70 velocity=35 time=1\n",
      "note_off channel=0 note=74 velocity=64 time=0\n",
      "note_on channel=0 note=79 velocity=22 time=0\n",
      "note_off channel=0 note=88 velocity=64 time=0\n",
      "note_off channel=0 note=50 velocity=64 time=1\n",
      "note_off channel=0 note=69 velocity=64 time=0\n",
      "note_on channel=0 note=86 velocity=24 time=0\n",
      "note_on channel=0 note=88 velocity=31 time=0\n",
      "note_off channel=0 note=90 velocity=64 time=0\n",
      "note_off channel=0 note=92 velocity=64 time=0\n",
      "note_on channel=0 note=93 velocity=30 time=0\n",
      "note_off channel=0 note=70 velocity=64 time=1\n",
      "note_on channel=0 note=69 velocity=43 time=1\n",
      "note_off channel=0 note=79 velocity=64 time=0\n",
      "note_off channel=0 note=85 velocity=64 time=0\n",
      "note_off channel=0 note=88 velocity=64 time=0\n",
      "note_on channel=0 note=92 velocity=38 time=0\n",
      "note_off channel=0 note=93 velocity=64 time=0\n",
      "note_on channel=0 note=50 velocity=64 time=1\n",
      "note_on channel=0 note=79 velocity=19 time=0\n",
      "note_on channel=0 note=85 velocity=31 time=0\n",
      "note_off channel=0 note=86 velocity=64 time=0\n",
      "note_off channel=0 note=78 velocity=64 time=1\n",
      "note_off channel=0 note=94 velocity=64 time=0\n",
      "note_on channel=0 note=78 velocity=23 time=1\n",
      "note_off channel=0 note=83 velocity=64 time=0\n",
      "note_off channel=0 note=92 velocity=64 time=0\n",
      "note_on channel=0 note=94 velocity=43 time=0\n",
      "note_on channel=0 note=68 velocity=63 time=1\n",
      "note_off channel=0 note=69 velocity=64 time=0\n",
      "note_on channel=0 note=71 velocity=22 time=0\n",
      "note_on channel=0 note=73 velocity=44 time=0\n",
      "note_off channel=0 note=79 velocity=64 time=0\n",
      "note_on channel=0 note=80 velocity=87 time=0\n",
      "note_on channel=0 note=83 velocity=43 time=0\n",
      "note_on channel=0 note=96 velocity=46 time=0\n",
      "note_on channel=0 note=49 velocity=68 time=2\n",
      "note_off channel=0 note=50 velocity=64 time=0\n",
      "note_on channel=0 note=77 velocity=48 time=0\n",
      "note_off channel=0 note=78 velocity=64 time=0\n",
      "note_on channel=0 note=93 velocity=55 time=0\n",
      "note_off channel=0 note=94 velocity=64 time=0\n",
      "note_on channel=0 note=97 velocity=32 time=1\n",
      "note_on channel=0 note=82 velocity=63 time=5\n",
      "note_off channel=0 note=83 velocity=64 time=0\n",
      "note_off channel=0 note=93 velocity=64 time=0\n",
      "note_on channel=0 note=62 velocity=77 time=1\n",
      "note_off channel=0 note=63 velocity=64 time=0\n",
      "note_off channel=0 note=71 velocity=64 time=0\n",
      "note_off channel=0 note=85 velocity=64 time=0\n",
      "note_on channel=0 note=90 velocity=43 time=0\n",
      "note_on channel=0 note=100 velocity=33 time=0\n",
      "note_on channel=0 note=57 velocity=53 time=1\n",
      "note_on channel=0 note=78 velocity=38 time=0\n",
      "note_off channel=0 note=84 velocity=64 time=0\n",
      "note_on channel=0 note=84 velocity=26 time=1\n",
      "note_off channel=0 note=91 velocity=64 time=0\n",
      "note_off channel=0 note=62 velocity=64 time=1\n",
      "note_on channel=0 note=63 velocity=87 time=0\n",
      "note_on channel=0 note=70 velocity=34 time=0\n",
      "note_off channel=0 note=78 velocity=64 time=0\n",
      "note_on channel=0 note=103 velocity=11 time=0\n",
      "note_off channel=0 note=57 velocity=64 time=1\n",
      "note_off channel=0 note=90 velocity=64 time=0\n",
      "note_off channel=0 note=70 velocity=64 time=1\n",
      "note_on channel=0 note=71 velocity=46 time=0\n",
      "note_on channel=0 note=88 velocity=30 time=0\n",
      "note_off channel=0 note=73 velocity=64 time=1\n",
      "note_off channel=0 note=82 velocity=64 time=0\n",
      "note_on channel=0 note=83 velocity=53 time=0\n",
      "note_off channel=0 note=89 velocity=64 time=0\n",
      "note_off channel=0 note=103 velocity=64 time=2\n",
      "note_off channel=0 note=87 velocity=64 time=2\n",
      "note_on channel=0 note=90 velocity=24 time=2\n",
      "note_off channel=0 note=77 velocity=64 time=2\n",
      "note_on channel=0 note=85 velocity=16 time=0\n",
      "note_off channel=0 note=88 velocity=64 time=0\n",
      "note_on channel=0 note=77 velocity=31 time=1\n",
      "note_on channel=0 note=88 velocity=26 time=0\n",
      "note_on channel=0 note=73 velocity=16 time=1\n",
      "note_on channel=0 note=99 velocity=13 time=1\n",
      "note_on channel=0 note=78 velocity=25 time=1\n",
      "note_off channel=0 note=85 velocity=64 time=0\n",
      "note_on channel=0 note=86 velocity=22 time=0\n",
      "note_off channel=0 note=96 velocity=64 time=0\n",
      "note_off channel=0 note=102 velocity=64 time=0\n",
      "note_off channel=0 note=77 velocity=64 time=1\n",
      "note_on channel=0 note=87 velocity=49 time=0\n",
      "note_off channel=0 note=88 velocity=64 time=0\n",
      "note_on channel=0 note=77 velocity=46 time=1\n",
      "note_off channel=0 note=97 velocity=64 time=0\n",
      "note_off channel=0 note=99 velocity=64 time=0\n",
      "note_off channel=0 note=100 velocity=64 time=0\n",
      "note_off channel=0 note=68 velocity=64 time=2\n",
      "note_off channel=0 note=73 velocity=64 time=0\n",
      "note_off channel=0 note=78 velocity=64 time=0\n",
      "note_on channel=0 note=68 velocity=54 time=2\n",
      "note_on channel=0 note=82 velocity=22 time=1\n",
      "note_on channel=0 note=88 velocity=32 time=0\n",
      "note_off channel=0 note=83 velocity=64 time=1\n",
      "note_on channel=0 note=91 velocity=22 time=0\n",
      "note_off channel=0 note=84 velocity=64 time=1\n",
      "note_on channel=0 note=95 velocity=42 time=0\n",
      "note_on channel=0 note=74 velocity=40 time=1\n",
      "note_off channel=0 note=86 velocity=64 time=0\n",
      "note_on channel=0 note=89 velocity=74 time=0\n",
      "note_on channel=0 note=93 velocity=46 time=0\n",
      "note_off channel=0 note=49 velocity=64 time=1\n",
      "note_on channel=0 note=72 velocity=61 time=0\n",
      "note_off channel=0 note=82 velocity=64 time=0\n",
      "note_on channel=0 note=102 velocity=32 time=0\n",
      "note_off channel=0 note=71 velocity=64 time=1\n",
      "note_off channel=0 note=74 velocity=64 time=0\n",
      "note_on channel=0 note=85 velocity=43 time=0\n",
      "note_off channel=0 note=88 velocity=64 time=0\n",
      "note_off channel=0 note=90 velocity=64 time=0\n",
      "note_on channel=0 note=48 velocity=57 time=1\n",
      "note_on channel=0 note=67 velocity=44 time=0\n",
      "note_off channel=0 note=68 velocity=64 time=0\n",
      "note_on channel=0 note=76 velocity=34 time=0\n",
      "note_off channel=0 note=77 velocity=64 time=1\n",
      "note_on channel=0 note=82 velocity=26 time=1\n",
      "note_off channel=0 note=67 velocity=64 time=1\n",
      "note_on channel=0 note=68 velocity=49 time=0\n",
      "note_on channel=0 note=71 velocity=41 time=0\n",
      "note_off channel=0 note=91 velocity=64 time=0\n",
      "note_on channel=0 note=94 velocity=26 time=0\n",
      "note_off channel=0 note=48 velocity=64 time=1\n",
      "note_on channel=0 note=49 velocity=66 time=0\n",
      "note_off channel=0 note=63 velocity=64 time=0\n",
      "note_off channel=0 note=72 velocity=64 time=0\n",
      "note_on channel=0 note=73 velocity=52 time=0\n",
      "note_on channel=0 note=83 velocity=44 time=0\n"
     ]
    },
    {
     "name": "stdout",
     "output_type": "stream",
     "text": [
      "note_on channel=0 note=91 velocity=57 time=0\n",
      "note_on channel=0 note=74 velocity=42 time=1\n",
      "note_off channel=0 note=82 velocity=64 time=0\n",
      "note_on channel=0 note=62 velocity=44 time=1\n",
      "note_off channel=0 note=68 velocity=64 time=0\n",
      "note_on channel=0 note=69 velocity=49 time=0\n",
      "note_off channel=0 note=71 velocity=64 time=0\n",
      "note_off channel=0 note=73 velocity=64 time=0\n",
      "note_off channel=0 note=76 velocity=64 time=0\n",
      "note_on channel=0 note=77 velocity=35 time=0\n",
      "note_on channel=0 note=90 velocity=31 time=0\n",
      "note_off channel=0 note=95 velocity=64 time=0\n",
      "note_off channel=0 note=49 velocity=64 time=1\n",
      "note_on channel=0 note=50 velocity=69 time=0\n",
      "note_off channel=0 note=91 velocity=64 time=0\n",
      "note_on channel=0 note=84 velocity=35 time=1\n",
      "note_off channel=0 note=74 velocity=64 time=1\n",
      "note_on channel=0 note=75 velocity=27 time=0\n",
      "note_on channel=0 note=91 velocity=50 time=0\n",
      "note_on channel=0 note=61 velocity=58 time=1\n",
      "note_off channel=0 note=62 velocity=64 time=0\n",
      "note_on channel=0 note=65 velocity=43 time=0\n",
      "note_on channel=0 note=71 velocity=36 time=0\n",
      "note_off channel=0 note=94 velocity=64 time=0\n",
      "note_on channel=0 note=49 velocity=69 time=1\n",
      "note_off channel=0 note=50 velocity=64 time=0\n",
      "note_on channel=0 note=68 velocity=47 time=0\n",
      "note_off channel=0 note=69 velocity=64 time=0\n",
      "note_on channel=0 note=70 velocity=29 time=1\n",
      "note_off channel=0 note=71 velocity=64 time=0\n",
      "note_off channel=0 note=75 velocity=64 time=0\n",
      "note_off channel=0 note=85 velocity=64 time=0\n",
      "note_off channel=0 note=70 velocity=64 time=2\n",
      "note_on channel=0 note=71 velocity=36 time=0\n",
      "note_on channel=0 note=82 velocity=43 time=0\n",
      "note_on channel=0 note=88 velocity=12 time=0\n",
      "note_off channel=0 note=84 velocity=64 time=1\n",
      "note_off channel=0 note=89 velocity=64 time=0\n",
      "note_off channel=0 note=49 velocity=64 time=1\n",
      "note_on channel=0 note=50 velocity=70 time=0\n",
      "note_off channel=0 note=61 velocity=64 time=0\n",
      "note_off channel=0 note=68 velocity=64 time=0\n",
      "note_on channel=0 note=69 velocity=52 time=0\n",
      "note_off channel=0 note=83 velocity=64 time=0\n",
      "note_on channel=0 note=84 velocity=30 time=0\n",
      "note_off channel=0 note=71 velocity=64 time=1\n",
      "note_on channel=0 note=73 velocity=37 time=0\n",
      "note_on channel=0 note=71 velocity=38 time=1\n",
      "note_off channel=0 note=87 velocity=64 time=0\n",
      "note_on channel=0 note=61 velocity=47 time=1\n",
      "note_off channel=0 note=84 velocity=64 time=0\n",
      "note_on channel=0 note=95 velocity=21 time=0\n",
      "note_on channel=0 note=49 velocity=62 time=1\n",
      "note_off channel=0 note=50 velocity=64 time=0\n",
      "note_on channel=0 note=75 velocity=25 time=0\n",
      "note_off channel=0 note=91 velocity=64 time=0\n",
      "note_off channel=0 note=102 velocity=64 time=0\n",
      "note_on channel=0 note=60 velocity=41 time=1\n",
      "note_off channel=0 note=61 velocity=64 time=0\n",
      "note_off channel=0 note=69 velocity=64 time=0\n",
      "note_off channel=0 note=73 velocity=64 time=0\n",
      "note_on channel=0 note=72 velocity=69 time=1\n",
      "note_on channel=0 note=101 velocity=35 time=0\n",
      "note_on channel=0 note=59 velocity=40 time=1\n",
      "note_off channel=0 note=60 velocity=64 time=0\n",
      "note_off channel=0 note=71 velocity=64 time=0\n",
      "note_on channel=0 note=100 velocity=30 time=0\n",
      "note_off channel=0 note=49 velocity=64 time=1\n",
      "note_off channel=0 note=65 velocity=64 time=0\n",
      "note_on channel=0 note=67 velocity=46 time=0\n",
      "note_off channel=0 note=88 velocity=64 time=0\n",
      "note_off channel=0 note=59 velocity=64 time=1\n",
      "note_on channel=0 note=60 velocity=41 time=0\n",
      "note_on channel=0 note=91 velocity=46 time=0\n",
      "note_off channel=0 note=95 velocity=64 time=0\n",
      "note_on channel=0 note=49 velocity=36 time=1\n",
      "note_off channel=0 note=67 velocity=64 time=0\n",
      "note_off channel=0 note=75 velocity=64 time=0\n",
      "note_on channel=0 note=76 velocity=43 time=0\n",
      "note_on channel=0 note=89 velocity=38 time=0\n",
      "note_on channel=0 note=95 velocity=24 time=0\n",
      "note_off channel=0 note=60 velocity=64 time=1\n",
      "note_on channel=0 note=67 velocity=62 time=0\n",
      "note_off channel=0 note=49 velocity=64 time=1\n",
      "note_on channel=0 note=61 velocity=79 time=0\n",
      "note_off channel=0 note=77 velocity=64 time=0\n",
      "note_off channel=0 note=90 velocity=64 time=0\n",
      "note_on channel=0 note=53 velocity=61 time=1\n",
      "note_on channel=0 note=57 velocity=63 time=0\n",
      "note_off channel=0 note=67 velocity=64 time=0\n",
      "note_on channel=0 note=75 velocity=38 time=0\n",
      "note_off channel=0 note=93 velocity=64 time=0\n",
      "note_on channel=0 note=64 velocity=65 time=1\n",
      "note_off channel=0 note=76 velocity=64 time=0\n",
      "note_on channel=0 note=77 velocity=22 time=0\n",
      "note_off channel=0 note=53 velocity=64 time=1\n",
      "note_off channel=0 note=57 velocity=64 time=0\n",
      "note_off channel=0 note=61 velocity=64 time=0\n",
      "note_on channel=0 note=62 velocity=64 time=0\n",
      "note_off channel=0 note=64 velocity=64 time=0\n",
      "note_off channel=0 note=80 velocity=64 time=0\n",
      "note_on channel=0 note=81 velocity=32 time=0\n",
      "note_off channel=0 note=82 velocity=64 time=0\n",
      "note_off channel=0 note=100 velocity=64 time=0\n",
      "note_on channel=0 note=65 velocity=50 time=1\n",
      "note_on channel=0 note=78 velocity=19 time=0\n",
      "note_on channel=0 note=82 velocity=31 time=0\n",
      "note_on channel=0 note=90 velocity=61 time=0\n",
      "note_on channel=0 note=53 velocity=46 time=1\n",
      "note_off channel=0 note=62 velocity=64 time=0\n",
      "note_on channel=0 note=71 velocity=57 time=0\n",
      "note_off channel=0 note=72 velocity=64 time=0\n",
      "note_off channel=0 note=77 velocity=64 time=0\n",
      "note_on channel=0 note=84 velocity=29 time=0\n",
      "note_on channel=0 note=88 velocity=19 time=0\n",
      "note_on channel=0 note=59 velocity=38 time=1\n",
      "note_on channel=0 note=68 velocity=28 time=0\n",
      "note_on channel=0 note=80 velocity=31 time=0\n",
      "note_off channel=0 note=81 velocity=64 time=0\n",
      "note_off channel=0 note=89 velocity=64 time=0\n",
      "note_on channel=0 note=47 velocity=45 time=2\n",
      "note_off channel=0 note=53 velocity=64 time=0\n",
      "note_off channel=0 note=78 velocity=64 time=0\n",
      "note_off channel=0 note=75 velocity=64 time=1\n",
      "note_off channel=0 note=88 velocity=64 time=0\n",
      "note_on channel=0 note=46 velocity=37 time=1\n",
      "note_off channel=0 note=47 velocity=64 time=0\n",
      "note_on channel=0 note=75 velocity=49 time=0\n",
      "note_off channel=0 note=80 velocity=64 time=0\n",
      "note_on channel=0 note=88 velocity=35 time=0\n",
      "note_on channel=0 note=93 velocity=42 time=0\n",
      "note_on channel=0 note=80 velocity=41 time=1\n",
      "note_off channel=0 note=46 velocity=64 time=1\n",
      "note_on channel=0 note=47 velocity=48 time=0\n",
      "note_off channel=0 note=82 velocity=64 time=0\n",
      "note_off channel=0 note=65 velocity=64 time=1\n",
      "note_on channel=0 note=66 velocity=50 time=0\n",
      "note_off channel=0 note=68 velocity=64 time=0\n",
      "note_on channel=0 note=82 velocity=62 time=0\n",
      "note_off channel=0 note=59 velocity=64 time=1\n",
      "note_on channel=0 note=68 velocity=47 time=0\n",
      "note_off channel=0 note=66 velocity=64 time=1\n",
      "note_on channel=0 note=78 velocity=19 time=0\n",
      "note_off channel=0 note=84 velocity=64 time=0\n",
      "note_on channel=0 note=86 velocity=16 time=0\n",
      "note_on channel=0 note=97 velocity=11 time=0\n",
      "note_off channel=0 note=47 velocity=64 time=1\n",
      "note_on channel=0 note=48 velocity=48 time=0\n",
      "note_on channel=0 note=53 velocity=37 time=0\n",
      "note_on channel=0 note=64 velocity=38 time=0\n",
      "note_on channel=0 note=74 velocity=39 time=0\n",
      "note_off channel=0 note=75 velocity=64 time=0\n",
      "note_on channel=0 note=77 velocity=35 time=0\n",
      "note_on channel=0 note=84 velocity=21 time=0\n",
      "note_on channel=0 note=59 velocity=39 time=1\n",
      "note_on channel=0 note=66 velocity=42 time=0\n",
      "note_off channel=0 note=68 velocity=64 time=0\n",
      "note_off channel=0 note=53 velocity=64 time=1\n",
      "note_on channel=0 note=54 velocity=32 time=0\n",
      "note_off channel=0 note=64 velocity=64 time=0\n",
      "note_on channel=0 note=68 velocity=40 time=0\n",
      "note_off channel=0 note=74 velocity=64 time=0\n",
      "note_on channel=0 note=75 velocity=43 time=0\n",
      "note_off channel=0 note=78 velocity=64 time=0\n",
      "note_on channel=0 note=47 velocity=36 time=1\n",
      "note_off channel=0 note=48 velocity=64 time=0\n",
      "note_on channel=0 note=65 velocity=35 time=0\n",
      "note_off channel=0 note=66 velocity=64 time=0\n",
      "note_off channel=0 note=97 velocity=64 time=0\n",
      "note_off channel=0 note=54 velocity=64 time=1\n",
      "note_off channel=0 note=82 velocity=64 time=0\n",
      "note_off channel=0 note=86 velocity=64 time=0\n",
      "note_off channel=0 note=47 velocity=64 time=1\n",
      "note_on channel=0 note=48 velocity=39 time=0\n",
      "note_off channel=0 note=59 velocity=64 time=0\n",
      "note_off channel=0 note=77 velocity=64 time=0\n",
      "note_off channel=0 note=91 velocity=64 time=0\n",
      "note_off channel=0 note=65 velocity=64 time=1\n",
      "note_off channel=0 note=48 velocity=64 time=1\n",
      "note_on channel=0 note=60 velocity=50 time=0\n",
      "note_off channel=0 note=68 velocity=64 time=0\n",
      "note_on channel=0 note=77 velocity=17 time=0\n",
      "note_on channel=0 note=91 velocity=54 time=0\n",
      "note_on channel=0 note=48 velocity=47 time=1\n",
      "note_on channel=0 note=68 velocity=55 time=0\n",
      "note_on channel=0 note=65 velocity=35 time=1\n",
      "note_on channel=0 note=72 velocity=57 time=0\n",
      "note_off channel=0 note=84 velocity=64 time=0\n",
      "note_off channel=0 note=71 velocity=64 time=1\n",
      "note_off channel=0 note=80 velocity=64 time=0\n",
      "note_off channel=0 note=75 velocity=64 time=1\n",
      "note_off channel=0 note=77 velocity=64 time=0\n",
      "note_on channel=0 note=94 velocity=25 time=0\n",
      "note_off channel=0 note=65 velocity=64 time=1\n",
      "note_off channel=0 note=68 velocity=64 time=0\n",
      "note_on channel=0 note=77 velocity=36 time=0\n",
      "note_on channel=0 note=80 velocity=45 time=0\n",
      "note_on channel=0 note=45 velocity=79 time=1\n",
      "note_off channel=0 note=48 velocity=64 time=0\n",
      "note_off channel=0 note=60 velocity=64 time=0\n",
      "note_on channel=0 note=63 velocity=66 time=0\n",
      "note_on channel=0 note=65 velocity=66 time=0\n",
      "note_off channel=0 note=72 velocity=64 time=0\n",
      "note_on channel=0 note=82 velocity=52 time=0\n",
      "note_off channel=0 note=63 velocity=64 time=1\n",
      "note_on channel=0 note=64 velocity=82 time=0\n",
      "note_off channel=0 note=65 velocity=64 time=0\n",
      "note_on channel=0 note=71 velocity=32 time=0\n",
      "note_on channel=0 note=72 velocity=47 time=0\n",
      "note_on channel=0 note=74 velocity=30 time=0\n",
      "note_on channel=0 note=85 velocity=32 time=0\n",
      "note_off channel=0 note=88 velocity=64 time=0\n",
      "note_off channel=0 note=91 velocity=64 time=0\n",
      "note_on channel=0 note=68 velocity=59 time=1\n",
      "note_off channel=0 note=80 velocity=64 time=0\n",
      "note_on channel=0 note=89 velocity=60 time=0\n",
      "note_on channel=0 note=44 velocity=77 time=1\n",
      "note_off channel=0 note=45 velocity=64 time=0\n",
      "note_on channel=0 note=63 velocity=68 time=0\n",
      "note_off channel=0 note=64 velocity=64 time=0\n",
      "note_off channel=0 note=72 velocity=64 time=0\n",
      "note_on channel=0 note=73 velocity=39 time=0\n",
      "note_off channel=0 note=74 velocity=64 time=0\n",
      "note_off channel=0 note=95 velocity=64 time=0\n",
      "note_on channel=0 note=96 velocity=24 time=0\n",
      "note_on channel=0 note=43 velocity=77 time=1\n",
      "note_off channel=0 note=44 velocity=64 time=0\n",
      "note_off channel=0 note=71 velocity=64 time=0\n",
      "note_off channel=0 note=77 velocity=64 time=0\n",
      "note_off channel=0 note=82 velocity=64 time=0\n",
      "note_on channel=0 note=83 velocity=52 time=0\n",
      "note_off channel=0 note=94 velocity=64 time=0\n",
      "note_off channel=0 note=43 velocity=64 time=1\n",
      "note_on channel=0 note=44 velocity=80 time=0\n",
      "note_on channel=0 note=61 velocity=67 time=0\n",
      "note_off channel=0 note=63 velocity=64 time=0\n",
      "note_on channel=0 note=71 velocity=31 time=0\n",
      "note_on channel=0 note=77 velocity=24 time=0\n",
      "note_off channel=0 note=90 velocity=64 time=0\n",
      "note_on channel=0 note=91 velocity=47 time=0\n",
      "note_on channel=0 note=65 velocity=53 time=1\n",
      "note_off channel=0 note=44 velocity=64 time=1\n",
      "note_off channel=0 note=73 velocity=64 time=0\n",
      "note_on channel=0 note=78 velocity=15 time=1\n",
      "note_on channel=0 note=90 velocity=55 time=1\n",
      "note_off channel=0 note=91 velocity=64 time=0\n",
      "note_off channel=0 note=101 velocity=64 time=1\n",
      "note_on channel=0 note=72 velocity=51 time=1\n",
      "note_on channel=0 note=76 velocity=39 time=0\n",
      "note_off channel=0 note=77 velocity=64 time=0\n",
      "note_on channel=0 note=82 velocity=43 time=0\n",
      "note_off channel=0 note=83 velocity=64 time=0\n",
      "note_off channel=0 note=96 velocity=64 time=0\n",
      "note_off channel=0 note=71 velocity=64 time=1\n",
      "note_off channel=0 note=78 velocity=64 time=0\n",
      "note_on channel=0 note=83 velocity=33 time=0\n",
      "note_off channel=0 note=85 velocity=64 time=0\n",
      "note_off channel=0 note=89 velocity=64 time=0\n",
      "note_on channel=0 note=42 velocity=54 time=1\n",
      "note_off channel=0 note=68 velocity=64 time=0\n",
      "note_on channel=0 note=79 velocity=22 time=0\n",
      "note_off channel=0 note=82 velocity=64 time=0\n",
      "note_on channel=0 note=89 velocity=53 time=0\n",
      "note_on channel=0 note=92 velocity=33 time=0\n",
      "note_off channel=0 note=42 velocity=64 time=2\n",
      "note_on channel=0 note=82 velocity=32 time=0\n",
      "note_off channel=0 note=90 velocity=64 time=0\n",
      "note_on channel=0 note=91 velocity=38 time=0\n",
      "note_on channel=0 note=48 velocity=65 time=1\n",
      "note_on channel=0 note=47 velocity=77 time=1\n",
      "note_off channel=0 note=48 velocity=64 time=0\n",
      "note_off channel=0 note=79 velocity=64 time=0\n",
      "note_on channel=0 note=80 velocity=32 time=0\n",
      "note_off channel=0 note=82 velocity=64 time=0\n",
      "note_on channel=0 note=90 velocity=39 time=0\n",
      "note_off channel=0 note=92 velocity=64 time=0\n",
      "note_on channel=0 note=68 velocity=53 time=1\n",
      "note_off channel=0 note=72 velocity=64 time=0\n",
      "note_off channel=0 note=83 velocity=64 time=0\n",
      "note_on channel=0 note=87 velocity=42 time=0\n",
      "note_off channel=0 note=91 velocity=64 time=0\n",
      "note_off channel=0 note=47 velocity=64 time=1\n",
      "note_on channel=0 note=48 velocity=78 time=0\n",
      "note_off channel=0 note=76 velocity=64 time=0\n",
      "note_on channel=0 note=83 velocity=40 time=0\n",
      "note_off channel=0 note=48 velocity=64 time=1\n",
      "note_on channel=0 note=49 velocity=85 time=0\n",
      "note_off channel=0 note=68 velocity=64 time=0\n",
      "note_on channel=0 note=69 velocity=33 time=0\n",
      "note_on channel=0 note=78 velocity=30 time=0\n",
      "note_on channel=0 note=82 velocity=32 time=0\n",
      "note_on channel=0 note=84 velocity=30 time=0\n",
      "note_off channel=0 note=49 velocity=64 time=1\n",
      "note_on channel=0 note=50 velocity=80 time=0\n",
      "note_off channel=0 note=83 velocity=64 time=0\n",
      "note_on channel=0 note=86 velocity=21 time=0\n",
      "note_on channel=0 note=91 velocity=37 time=0\n",
      "note_off channel=0 note=50 velocity=64 time=1\n",
      "note_on channel=0 note=54 velocity=65 time=0\n",
      "note_off channel=0 note=78 velocity=64 time=0\n",
      "note_on channel=0 note=83 velocity=30 time=0\n",
      "note_off channel=0 note=90 velocity=64 time=0\n",
      "note_off channel=0 note=54 velocity=64 time=1\n",
      "note_off channel=0 note=61 velocity=64 time=0\n",
      "note_off channel=0 note=69 velocity=64 time=0\n",
      "note_on channel=0 note=81 velocity=37 time=0\n",
      "note_off channel=0 note=82 velocity=64 time=0\n",
      "note_off channel=0 note=84 velocity=64 time=0\n",
      "note_on channel=0 note=54 velocity=68 time=1\n",
      "note_on channel=0 note=61 velocity=26 time=0\n",
      "note_off channel=0 note=80 velocity=64 time=0\n",
      "note_off channel=0 note=83 velocity=64 time=0\n",
      "note_on channel=0 note=90 velocity=64 time=0\n",
      "note_on channel=0 note=53 velocity=73 time=1\n",
      "note_off channel=0 note=54 velocity=64 time=0\n",
      "note_on channel=0 note=80 velocity=48 time=0\n",
      "note_on channel=0 note=83 velocity=32 time=0\n",
      "note_off channel=0 note=86 velocity=64 time=0\n",
      "note_off channel=0 note=91 velocity=64 time=0\n",
      "note_off channel=0 note=53 velocity=64 time=1\n",
      "note_on channel=0 note=54 velocity=64 time=0\n",
      "note_off channel=0 note=65 velocity=64 time=0\n",
      "note_on channel=0 note=78 velocity=37 time=0\n",
      "note_off channel=0 note=81 velocity=64 time=1\n",
      "note_on channel=0 note=82 velocity=62 time=0\n",
      "note_off channel=0 note=83 velocity=64 time=0\n",
      "note_off channel=0 note=54 velocity=64 time=1\n",
      "note_on channel=0 note=55 velocity=56 time=0\n",
      "note_on channel=0 note=83 velocity=31 time=0\n",
      "note_on channel=0 note=88 velocity=37 time=0\n",
      "note_off channel=0 note=89 velocity=64 time=0\n",
      "note_off channel=0 note=61 velocity=64 time=1\n",
      "note_on channel=0 note=66 velocity=71 time=0\n",
      "note_on channel=0 note=47 velocity=65 time=1\n",
      "note_on channel=0 note=54 velocity=48 time=0\n",
      "note_off channel=0 note=55 velocity=64 time=0\n",
      "note_on channel=0 note=64 velocity=80 time=0\n",
      "note_off channel=0 note=66 velocity=64 time=0\n",
      "note_off channel=0 note=78 velocity=64 time=0\n",
      "note_off channel=0 note=83 velocity=64 time=0\n",
      "note_off channel=0 note=88 velocity=64 time=0\n",
      "note_on channel=0 note=45 velocity=77 time=1\n",
      "note_off channel=0 note=47 velocity=64 time=0\n",
      "note_on channel=0 note=67 velocity=66 time=0\n",
      "note_on channel=0 note=78 velocity=49 time=0\n",
      "note_on channel=0 note=83 velocity=59 time=0\n",
      "note_on channel=0 note=44 velocity=78 time=1\n",
      "note_off channel=0 note=45 velocity=64 time=0\n",
      "note_off channel=0 note=54 velocity=64 time=0\n",
      "note_on channel=0 note=63 velocity=72 time=0\n",
      "note_off channel=0 note=64 velocity=64 time=0\n",
      "note_on channel=0 note=72 velocity=55 time=0\n",
      "note_off channel=0 note=80 velocity=64 time=0\n",
      "note_on channel=0 note=81 velocity=53 time=0\n",
      "note_off channel=0 note=82 velocity=64 time=0\n",
      "note_on channel=0 note=52 velocity=56 time=1\n",
      "note_off channel=0 note=67 velocity=64 time=0\n",
      "note_on channel=0 note=80 velocity=52 time=0\n",
      "note_on channel=0 note=85 velocity=35 time=0\n",
      "note_on channel=0 note=68 velocity=30 time=1\n",
      "note_on channel=0 note=76 velocity=41 time=0\n",
      "note_off channel=0 note=78 velocity=64 time=0\n",
      "note_off channel=0 note=81 velocity=64 time=0\n",
      "note_on channel=0 note=94 velocity=15 time=0\n",
      "note_off channel=0 note=52 velocity=64 time=1\n",
      "note_off channel=0 note=63 velocity=64 time=0\n",
      "note_on channel=0 note=65 velocity=51 time=0\n",
      "note_on channel=0 note=71 velocity=54 time=0\n",
      "note_off channel=0 note=72 velocity=64 time=0\n",
      "note_off channel=0 note=93 velocity=64 time=0\n",
      "note_off channel=0 note=44 velocity=64 time=1\n",
      "note_on channel=0 note=46 velocity=65 time=0\n",
      "note_off channel=0 note=46 velocity=64 time=1\n",
      "note_on channel=0 note=52 velocity=66 time=0\n",
      "note_on channel=0 note=84 velocity=19 time=0\n",
      "note_on channel=0 note=86 velocity=35 time=1\n",
      "note_on channel=0 note=93 velocity=12 time=0\n",
      "note_off channel=0 note=94 velocity=64 time=0\n",
      "note_on channel=0 note=43 velocity=61 time=1\n",
      "note_on channel=0 note=61 velocity=49 time=0\n",
      "note_off channel=0 note=68 velocity=64 time=0\n",
      "note_off channel=0 note=84 velocity=64 time=1\n",
      "note_off channel=0 note=86 velocity=64 time=0\n",
      "note_on channel=0 note=101 velocity=9 time=0\n",
      "note_on channel=0 note=42 velocity=56 time=1\n",
      "note_off channel=0 note=43 velocity=64 time=0\n",
      "note_off channel=0 note=61 velocity=64 time=0\n",
      "note_on channel=0 note=62 velocity=56 time=0\n",
      "note_off channel=0 note=65 velocity=64 time=0\n",
      "note_on channel=0 note=73 velocity=52 time=0\n",
      "note_on channel=0 note=86 velocity=19 time=0\n",
      "note_on channel=0 note=89 velocity=72 time=0\n",
      "note_off channel=0 note=93 velocity=64 time=0\n",
      "note_on channel=0 note=94 velocity=32 time=0\n",
      "note_on channel=0 note=65 velocity=36 time=1\n",
      "note_on channel=0 note=61 velocity=70 time=1\n",
      "note_off channel=0 note=62 velocity=64 time=0\n",
      "note_off channel=0 note=65 velocity=64 time=1\n",
      "note_off channel=0 note=86 velocity=64 time=1\n",
      "note_on channel=0 note=93 velocity=18 time=0\n",
      "note_off channel=0 note=94 velocity=64 time=0\n",
      "note_off channel=0 note=101 velocity=64 time=0\n",
      "note_off channel=0 note=71 velocity=64 time=2\n",
      "note_on channel=0 note=77 velocity=11 time=1\n",
      "note_off channel=0 note=80 velocity=64 time=0\n",
      "note_off channel=0 note=42 velocity=64 time=1\n",
      "note_off channel=0 note=76 velocity=64 time=0\n",
      "note_off channel=0 note=85 velocity=64 time=0\n",
      "note_off channel=0 note=90 velocity=64 time=0\n",
      "note_on channel=0 note=91 velocity=15 time=0\n",
      "note_on channel=0 note=42 velocity=53 time=1\n",
      "note_on channel=0 note=71 velocity=25 time=0\n",
      "note_off channel=0 note=52 velocity=64 time=1\n",
      "note_off channel=0 note=77 velocity=64 time=0\n",
      "note_on channel=0 note=52 velocity=32 time=1\n",
      "note_on channel=0 note=75 velocity=53 time=0\n",
      "note_off channel=0 note=52 velocity=64 time=2\n",
      "note_on channel=0 note=77 velocity=27 time=0\n",
      "note_on channel=0 note=80 velocity=82 time=0\n",
      "note_off channel=0 note=42 velocity=64 time=3\n",
      "note_off channel=0 note=71 velocity=64 time=0\n",
      "note_off channel=0 note=91 velocity=64 time=0\n",
      "note_off channel=0 note=93 velocity=64 time=0\n",
      "note_on channel=0 note=94 velocity=54 time=0\n",
      "note_on channel=0 note=66 velocity=71 time=1\n",
      "note_on channel=0 note=88 velocity=40 time=0\n",
      "note_on channel=0 note=46 velocity=71 time=1\n",
      "note_on channel=0 note=53 velocity=68 time=0\n",
      "note_off channel=0 note=77 velocity=64 time=0\n",
      "note_off channel=0 note=46 velocity=64 time=1\n",
      "note_on channel=0 note=47 velocity=84 time=0\n",
      "note_off channel=0 note=53 velocity=64 time=0\n",
      "note_on channel=0 note=54 velocity=65 time=0\n",
      "note_on channel=0 note=82 velocity=48 time=0\n",
      "note_off channel=0 note=83 velocity=64 time=0\n",
      "note_on channel=0 note=84 velocity=32 time=0\n",
      "note_off channel=0 note=47 velocity=64 time=1\n",
      "note_on channel=0 note=48 velocity=84 time=0\n",
      "note_off channel=0 note=54 velocity=64 time=0\n",
      "note_on channel=0 note=81 velocity=34 time=0\n",
      "note_off channel=0 note=61 velocity=64 time=1\n",
      "note_off channel=0 note=66 velocity=64 time=0\n",
      "note_on channel=0 note=72 velocity=33 time=0\n",
      "note_off channel=0 note=73 velocity=64 time=0\n",
      "note_on channel=0 note=77 velocity=29 time=0\n",
      "note_off channel=0 note=82 velocity=64 time=0\n",
      "note_on channel=0 note=83 velocity=39 time=0\n",
      "note_off channel=0 note=84 velocity=64 time=0\n",
      "note_on channel=0 note=65 velocity=46 time=1\n",
      "note_off channel=0 note=81 velocity=64 time=0\n",
      "note_off channel=0 note=88 velocity=64 time=0\n",
      "note_off channel=0 note=48 velocity=64 time=1\n",
      "note_on channel=0 note=71 velocity=28 time=0\n",
      "note_off channel=0 note=87 velocity=64 time=0\n",
      "note_off channel=0 note=94 velocity=64 time=0\n",
      "note_off channel=0 note=72 velocity=64 time=1\n",
      "note_on channel=0 note=73 velocity=35 time=0\n",
      "note_on channel=0 note=49 velocity=47 time=1\n",
      "note_on channel=0 note=87 velocity=58 time=1\n",
      "note_off channel=0 note=49 velocity=64 time=1\n",
      "note_off channel=0 note=89 velocity=64 time=0\n",
      "note_on channel=0 note=61 velocity=14 time=1\n",
      "note_on channel=0 note=54 velocity=36 time=1\n",
      "note_on channel=0 note=44 velocity=36 time=1\n",
      "note_off channel=0 note=65 velocity=64 time=0\n",
      "note_on channel=0 note=65 velocity=43 time=1\n",
      "note_off channel=0 note=44 velocity=64 time=1\n",
      "note_on channel=0 note=53 velocity=37 time=1\n",
      "note_off channel=0 note=54 velocity=64 time=0\n",
      "note_on channel=0 note=93 velocity=10 time=0\n",
      "note_off channel=0 note=53 velocity=64 time=2\n",
      "note_on channel=0 note=54 velocity=30 time=0\n",
      "note_off channel=0 note=61 velocity=64 time=0\n",
      "note_off channel=0 note=93 velocity=64 time=1\n",
      "note_on channel=0 note=53 velocity=36 time=1\n",
      "note_off channel=0 note=54 velocity=64 time=0\n",
      "note_off channel=0 note=75 velocity=64 time=1\n",
      "note_on channel=0 note=91 velocity=16 time=0\n",
      "note_off channel=0 note=53 velocity=64 time=1\n",
      "note_on channel=0 note=54 velocity=27 time=0\n",
      "note_on channel=0 note=89 velocity=71 time=0\n",
      "note_off channel=0 note=91 velocity=64 time=3\n",
      "note_on channel=0 note=53 velocity=30 time=1\n",
      "note_off channel=0 note=54 velocity=64 time=0\n",
      "note_off channel=0 note=53 velocity=64 time=2\n",
      "note_on channel=0 note=61 velocity=45 time=1\n",
      "note_on channel=0 note=75 velocity=52 time=0\n",
      "note_on channel=0 note=95 velocity=42 time=0\n",
      "note_off channel=0 note=73 velocity=64 time=1\n",
      "note_off channel=0 note=77 velocity=64 time=0\n",
      "note_on channel=0 note=84 velocity=53 time=0\n",
      "note_on channel=0 note=90 velocity=82 time=0\n",
      "note_on channel=0 note=46 velocity=69 time=1\n",
      "note_on channel=0 note=56 velocity=62 time=0\n",
      "note_off channel=0 note=61 velocity=64 time=0\n",
      "note_on channel=0 note=62 velocity=56 time=0\n",
      "note_off channel=0 note=65 velocity=64 time=0\n",
      "note_off channel=0 note=71 velocity=64 time=0\n",
      "note_on channel=0 note=77 velocity=40 time=0\n",
      "note_off channel=0 note=83 velocity=64 time=0\n",
      "note_on channel=0 note=85 velocity=44 time=0\n",
      "note_on channel=0 note=91 velocity=35 time=0\n",
      "note_on channel=0 note=45 velocity=77 time=1\n",
      "note_off channel=0 note=46 velocity=64 time=0\n",
      "note_on channel=0 note=73 velocity=29 time=0\n",
      "note_on channel=0 note=78 velocity=26 time=0\n",
      "note_on channel=0 note=44 velocity=77 time=1\n",
      "note_off channel=0 note=45 velocity=64 time=0\n",
      "note_off channel=0 note=62 velocity=64 time=0\n",
      "note_on channel=0 note=63 velocity=41 time=0\n",
      "note_off channel=0 note=77 velocity=64 time=0\n",
      "note_on channel=0 note=94 velocity=43 time=0\n",
      "note_off channel=0 note=75 velocity=64 time=1\n",
      "note_on channel=0 note=82 velocity=33 time=0\n",
      "note_off channel=0 note=91 velocity=64 time=0\n",
      "note_off channel=0 note=95 velocity=64 time=0\n",
      "note_off channel=0 note=63 velocity=64 time=1\n",
      "note_on channel=0 note=65 velocity=39 time=0\n",
      "note_off channel=0 note=73 velocity=64 time=0\n",
      "note_on channel=0 note=75 velocity=73 time=0\n",
      "note_off channel=0 note=78 velocity=64 time=0\n",
      "note_on channel=0 note=83 velocity=36 time=0\n",
      "note_off channel=0 note=89 velocity=64 time=0\n",
      "note_on channel=0 note=43 velocity=73 time=1\n",
      "note_off channel=0 note=44 velocity=64 time=0\n",
      "note_on channel=0 note=62 velocity=38 time=0\n",
      "note_on channel=0 note=71 velocity=23 time=0\n",
      "note_off channel=0 note=82 velocity=64 time=0\n",
      "note_off channel=0 note=83 velocity=64 time=1\n",
      "note_on channel=0 note=89 velocity=71 time=0\n",
      "note_on channel=0 note=100 velocity=28 time=0\n",
      "note_on channel=0 note=83 velocity=56 time=1\n",
      "note_off channel=0 note=84 velocity=64 time=0\n",
      "note_off channel=0 note=56 velocity=64 time=1\n",
      "note_on channel=0 note=61 velocity=36 time=0\n",
      "note_off channel=0 note=62 velocity=64 time=0\n",
      "note_on channel=0 note=84 velocity=50 time=1\n",
      "note_off channel=0 note=90 velocity=64 time=0\n",
      "note_on channel=0 note=56 velocity=51 time=1\n",
      "note_on channel=0 note=90 velocity=54 time=0\n",
      "note_off channel=0 note=85 velocity=64 time=1\n",
      "note_on channel=0 note=88 velocity=49 time=0\n",
      "note_off channel=0 note=89 velocity=64 time=0\n",
      "note_on channel=0 note=91 velocity=60 time=0\n",
      "note_off channel=0 note=100 velocity=64 time=0\n",
      "note_off channel=0 note=43 velocity=64 time=1\n",
      "note_on channel=0 note=44 velocity=30 time=0\n",
      "note_off channel=0 note=56 velocity=64 time=0\n",
      "note_on channel=0 note=57 velocity=60 time=0\n",
      "note_off channel=0 note=71 velocity=64 time=0\n",
      "note_on channel=0 note=76 velocity=58 time=0\n",
      "note_off channel=0 note=84 velocity=64 time=0\n",
      "note_on channel=0 note=85 velocity=55 time=0\n",
      "note_on channel=0 note=93 velocity=24 time=0\n",
      "note_off channel=0 note=94 velocity=64 time=0\n",
      "note_off channel=0 note=61 velocity=64 time=1\n",
      "note_on channel=0 note=73 velocity=25 time=0\n",
      "note_off channel=0 note=44 velocity=64 time=1\n",
      "note_on channel=0 note=70 velocity=37 time=0\n",
      "note_on channel=0 note=89 velocity=55 time=0\n",
      "note_off channel=0 note=90 velocity=64 time=0\n",
      "note_on channel=0 note=94 velocity=12 time=0\n",
      "note_off channel=0 note=57 velocity=64 time=1\n",
      "note_on channel=0 note=77 velocity=52 time=0\n",
      "note_off channel=0 note=87 velocity=64 time=0\n",
      "note_off channel=0 note=70 velocity=64 time=1\n",
      "note_off channel=0 note=76 velocity=64 time=0\n",
      "note_on channel=0 note=58 velocity=60 time=1\n",
      "note_off channel=0 note=75 velocity=64 time=0\n",
      "note_on channel=0 note=76 velocity=64 time=0\n",
      "note_on channel=0 note=86 velocity=34 time=0\n",
      "note_on channel=0 note=78 velocity=38 time=1\n",
      "note_on channel=0 note=69 velocity=54 time=1\n",
      "note_off channel=0 note=77 velocity=64 time=0\n",
      "note_off channel=0 note=86 velocity=64 time=0\n",
      "note_off channel=0 note=88 velocity=64 time=0\n",
      "note_off channel=0 note=94 velocity=64 time=0\n",
      "note_on channel=0 note=57 velocity=61 time=1\n",
      "note_off channel=0 note=58 velocity=64 time=0\n",
      "note_off channel=0 note=65 velocity=64 time=0\n",
      "note_on channel=0 note=77 velocity=47 time=1\n",
      "note_off channel=0 note=78 velocity=64 time=0\n",
      "note_off channel=0 note=77 velocity=64 time=2\n",
      "note_off channel=0 note=73 velocity=64 time=1\n",
      "note_off channel=0 note=89 velocity=64 time=0\n",
      "note_on channel=0 note=89 velocity=30 time=1\n",
      "note_on channel=0 note=48 velocity=39 time=2\n",
      "note_on channel=0 note=90 velocity=71 time=0\n",
      "note_off channel=0 note=91 velocity=64 time=0\n",
      "note_on channel=0 note=56 velocity=63 time=1\n",
      "note_off channel=0 note=57 velocity=64 time=0\n",
      "note_on channel=0 note=73 velocity=40 time=0\n",
      "note_on channel=0 note=75 velocity=52 time=0\n",
      "note_off channel=0 note=89 velocity=64 time=0\n",
      "note_off channel=0 note=93 velocity=64 time=0\n",
      "note_on channel=0 note=94 velocity=20 time=0\n",
      "note_on channel=0 note=47 velocity=65 time=1\n",
      "note_off channel=0 note=48 velocity=64 time=0\n",
      "note_on channel=0 note=64 velocity=81 time=0\n",
      "note_off channel=0 note=69 velocity=64 time=0\n",
      "note_off channel=0 note=76 velocity=64 time=0\n",
      "note_on channel=0 note=82 velocity=19 time=0\n",
      "note_on channel=0 note=84 velocity=24 time=0\n",
      "note_on channel=0 note=89 velocity=41 time=0\n",
      "note_on channel=0 note=45 velocity=77 time=1\n",
      "note_off channel=0 note=47 velocity=64 time=0\n",
      "note_off channel=0 note=56 velocity=64 time=0\n",
      "note_on channel=0 note=68 velocity=68 time=0\n",
      "note_off channel=0 note=83 velocity=64 time=0\n",
      "note_off channel=0 note=85 velocity=64 time=0\n",
      "note_on channel=0 note=44 velocity=78 time=1\n",
      "note_off channel=0 note=45 velocity=64 time=0\n",
      "note_on channel=0 note=63 velocity=73 time=0\n",
      "note_off channel=0 note=64 velocity=64 time=0\n",
      "note_on channel=0 note=71 velocity=22 time=0\n",
      "note_off channel=0 note=75 velocity=64 time=0\n",
      "note_on channel=0 note=76 velocity=56 time=0\n",
      "note_off channel=0 note=68 velocity=64 time=1\n",
      "note_off channel=0 note=94 velocity=64 time=0\n",
      "note_on channel=0 note=95 velocity=10 time=0\n",
      "note_off channel=0 note=82 velocity=64 time=1\n",
      "note_on channel=0 note=83 velocity=52 time=0\n",
      "note_off channel=0 note=84 velocity=64 time=0\n",
      "note_on channel=0 note=91 velocity=56 time=0\n",
      "note_off channel=0 note=71 velocity=64 time=1\n",
      "note_on channel=0 note=61 velocity=29 time=1\n",
      "note_off channel=0 note=63 velocity=64 time=0\n",
      "note_off channel=0 note=44 velocity=64 time=1\n",
      "note_off channel=0 note=90 velocity=64 time=0\n",
      "note_off channel=0 note=61 velocity=64 time=1\n",
      "note_off channel=0 note=80 velocity=64 time=0\n",
      "note_on channel=0 note=90 velocity=59 time=0\n",
      "note_off channel=0 note=91 velocity=64 time=0\n",
      "note_on channel=0 note=43 velocity=59 time=1\n",
      "note_on channel=0 note=68 velocity=63 time=0\n",
      "note_on channel=0 note=75 velocity=61 time=0\n",
      "note_off channel=0 note=76 velocity=64 time=0\n",
      "note_on channel=0 note=77 velocity=47 time=0\n",
      "note_on channel=0 note=80 velocity=83 time=0\n",
      "note_on channel=0 note=94 velocity=29 time=0\n",
      "note_off channel=0 note=95 velocity=64 time=0\n",
      "note_on channel=0 note=56 velocity=59 time=1\n",
      "note_on channel=0 note=61 velocity=59 time=0\n",
      "note_on channel=0 note=65 velocity=33 time=0\n",
      "note_on channel=0 note=71 velocity=47 time=1\n",
      "note_off channel=0 note=90 velocity=64 time=1\n",
      "note_off channel=0 note=43 velocity=64 time=1\n",
      "note_off channel=0 note=56 velocity=64 time=0\n",
      "note_on channel=0 note=84 velocity=21 time=1\n",
      "note_on channel=0 note=49 velocity=66 time=1\n",
      "note_on channel=0 note=55 velocity=60 time=0\n",
      "note_off channel=0 note=65 velocity=64 time=0\n",
      "note_off channel=0 note=89 velocity=64 time=0\n",
      "note_on channel=0 note=90 velocity=39 time=0\n",
      "note_on channel=0 note=48 velocity=69 time=1\n",
      "note_off channel=0 note=49 velocity=64 time=0\n",
      "note_on channel=0 note=65 velocity=40 time=0\n",
      "note_on channel=0 note=47 velocity=71 time=1\n",
      "note_off channel=0 note=48 velocity=64 time=0\n",
      "note_off channel=0 note=55 velocity=64 time=0\n",
      "note_off channel=0 note=47 velocity=64 time=1\n",
      "note_on channel=0 note=48 velocity=68 time=0\n",
      "note_off channel=0 note=48 velocity=64 time=1\n",
      "note_on channel=0 note=49 velocity=68 time=0\n",
      "note_off channel=0 note=49 velocity=64 time=1\n",
      "note_on channel=0 note=50 velocity=77 time=0\n",
      "note_off channel=0 note=84 velocity=64 time=0\n",
      "note_off channel=0 note=50 velocity=64 time=1\n",
      "note_on channel=0 note=53 velocity=73 time=0\n",
      "note_off channel=0 note=90 velocity=64 time=0\n",
      "note_off channel=0 note=53 velocity=64 time=1\n",
      "note_on channel=0 note=54 velocity=71 time=0\n",
      "note_off channel=0 note=65 velocity=64 time=0\n",
      "note_on channel=0 note=67 velocity=58 time=0\n",
      "note_off channel=0 note=68 velocity=64 time=0\n",
      "note_off channel=0 note=94 velocity=64 time=1\n",
      "note_off channel=0 note=54 velocity=64 time=1\n",
      "note_on channel=0 note=55 velocity=69 time=0\n",
      "note_on channel=0 note=66 velocity=45 time=1\n",
      "note_off channel=0 note=67 velocity=64 time=0\n",
      "note_off channel=0 note=55 velocity=64 time=1\n",
      "note_on channel=0 note=68 velocity=42 time=0\n",
      "note_off channel=0 note=66 velocity=64 time=1\n",
      "note_on channel=0 note=55 velocity=70 time=1\n",
      "note_on channel=0 note=66 velocity=70 time=0\n",
      "note_off channel=0 note=73 velocity=64 time=0\n",
      "note_off channel=0 note=61 velocity=64 time=1\n",
      "note_on channel=0 note=64 velocity=80 time=0\n",
      "note_off channel=0 note=68 velocity=64 time=0\n",
      "note_on channel=0 note=73 velocity=39 time=0\n",
      "note_on channel=0 note=45 velocity=78 time=1\n",
      "note_off channel=0 note=66 velocity=64 time=0\n",
      "note_on channel=0 note=68 velocity=77 time=0\n",
      "note_on channel=0 note=90 velocity=33 time=0\n",
      "note_on channel=0 note=100 velocity=43 time=1\n",
      "note_on channel=0 note=101 velocity=37 time=0\n",
      "note_on channel=0 note=44 velocity=78 time=1\n",
      "note_off channel=0 note=45 velocity=64 time=0\n",
      "note_on channel=0 note=63 velocity=68 time=0\n",
      "note_off channel=0 note=64 velocity=64 time=0\n",
      "note_off channel=0 note=75 velocity=64 time=0\n",
      "note_off channel=0 note=90 velocity=64 time=0\n",
      "note_off channel=0 note=55 velocity=64 time=1\n",
      "note_on channel=0 note=102 velocity=12 time=1\n",
      "note_off channel=0 note=44 velocity=64 time=1\n",
      "note_on channel=0 note=45 velocity=75 time=0\n",
      "note_on channel=0 note=61 velocity=50 time=0\n",
      "note_off channel=0 note=63 velocity=64 time=0\n",
      "note_off channel=0 note=73 velocity=64 time=0\n",
      "note_on channel=0 note=55 velocity=62 time=1\n",
      "note_on channel=0 note=65 velocity=39 time=0\n",
      "note_on channel=0 note=44 velocity=71 time=1\n",
      "note_off channel=0 note=45 velocity=64 time=0\n",
      "note_off channel=0 note=102 velocity=64 time=0\n",
      "note_off channel=0 note=55 velocity=64 time=1\n",
      "note_on channel=0 note=84 velocity=16 time=0\n",
      "note_off channel=0 note=44 velocity=64 time=1\n",
      "note_on channel=0 note=86 velocity=22 time=0\n",
      "note_on channel=0 note=42 velocity=59 time=1\n",
      "note_off channel=0 note=61 velocity=64 time=0\n",
      "note_on channel=0 note=75 velocity=41 time=0\n",
      "note_on channel=0 note=61 velocity=56 time=1\n",
      "note_on channel=0 note=96 velocity=44 time=0\n",
      "note_off channel=0 note=101 velocity=64 time=0\n",
      "note_on channel=0 note=102 velocity=36 time=0\n",
      "note_off channel=0 note=42 velocity=64 time=1\n",
      "note_on channel=0 note=88 velocity=15 time=0\n",
      "note_on channel=0 note=97 velocity=35 time=1\n",
      "note_on channel=0 note=48 velocity=65 time=1\n",
      "note_on channel=0 note=78 velocity=20 time=0\n",
      "note_on channel=0 note=91 velocity=12 time=0\n",
      "note_off channel=0 note=77 velocity=64 time=1\n",
      "note_on channel=0 note=47 velocity=73 time=1\n",
      "note_off channel=0 note=48 velocity=64 time=0\n",
      "note_on channel=0 note=89 velocity=22 time=0\n",
      "note_off channel=0 note=65 velocity=64 time=1\n",
      "note_off channel=0 note=88 velocity=64 time=0\n",
      "note_on channel=0 note=94 velocity=34 time=0\n",
      "note_off channel=0 note=47 velocity=64 time=1\n",
      "note_on channel=0 note=48 velocity=69 time=0\n",
      "note_on channel=0 note=65 velocity=61 time=0\n",
      "note_off channel=0 note=97 velocity=64 time=0\n",
      "note_on channel=0 note=98 velocity=31 time=0\n",
      "note_off channel=0 note=48 velocity=64 time=1\n",
      "note_on channel=0 note=49 velocity=77 time=0\n",
      "note_off channel=0 note=49 velocity=64 time=1\n",
      "note_on channel=0 note=53 velocity=75 time=0\n",
      "note_on channel=0 note=56 velocity=57 time=1\n",
      "note_off channel=0 note=78 velocity=64 time=0\n",
      "note_off channel=0 note=86 velocity=64 time=0\n",
      "note_on channel=0 note=88 velocity=20 time=0\n",
      "note_off channel=0 note=53 velocity=64 time=1\n",
      "note_off channel=0 note=61 velocity=64 time=0\n",
      "note_on channel=0 note=78 velocity=20 time=0\n",
      "note_off channel=0 note=84 velocity=64 time=0\n",
      "note_off channel=0 note=89 velocity=64 time=0\n",
      "note_on channel=0 note=55 velocity=67 time=1\n",
      "note_off channel=0 note=56 velocity=64 time=0\n",
      "note_on channel=0 note=97 velocity=35 time=0\n",
      "note_off channel=0 note=98 velocity=64 time=0\n",
      "note_on channel=0 note=53 velocity=58 time=1\n",
      "note_off channel=0 note=55 velocity=64 time=0\n",
      "note_on channel=0 note=56 velocity=58 time=0\n",
      "note_on channel=0 note=61 velocity=10 time=0\n",
      "note_off channel=0 note=53 velocity=64 time=2\n",
      "note_on channel=0 note=55 velocity=57 time=0\n",
      "note_off channel=0 note=56 velocity=64 time=0\n",
      "note_off channel=0 note=78 velocity=64 time=0\n",
      "note_on channel=0 note=84 velocity=34 time=0\n",
      "note_off channel=0 note=61 velocity=64 time=1\n",
      "note_on channel=0 note=86 velocity=30 time=0\n",
      "note_off channel=0 note=55 velocity=64 time=1\n",
      "note_off channel=0 note=88 velocity=64 time=0\n",
      "note_on channel=0 note=89 velocity=72 time=0\n",
      "note_on channel=0 note=48 velocity=88 time=1\n",
      "note_off channel=0 note=75 velocity=64 time=0\n",
      "note_on channel=0 note=76 velocity=47 time=0\n",
      "note_on channel=0 note=85 velocity=41 time=0\n",
      "note_off channel=0 note=86 velocity=64 time=0\n",
      "note_on channel=0 note=98 velocity=14 time=0\n",
      "note_on channel=0 note=64 velocity=54 time=1\n",
      "note_off channel=0 note=65 velocity=64 time=0\n",
      "note_on channel=0 note=82 velocity=36 time=0\n",
      "note_off channel=0 note=83 velocity=64 time=0\n",
      "note_off channel=0 note=91 velocity=64 time=0\n",
      "note_on channel=0 note=103 velocity=10 time=0\n",
      "note_on channel=0 note=56 velocity=60 time=1\n",
      "note_off channel=0 note=76 velocity=64 time=0\n",
      "note_on channel=0 note=77 velocity=32 time=0\n",
      "note_off channel=0 note=84 velocity=64 time=0\n",
      "note_off channel=0 note=97 velocity=64 time=0\n",
      "note_on channel=0 note=46 velocity=67 time=1\n",
      "note_off channel=0 note=48 velocity=64 time=0\n",
      "note_off channel=0 note=64 velocity=64 time=0\n",
      "note_on channel=0 note=65 velocity=49 time=0\n",
      "note_on channel=0 note=75 velocity=43 time=0\n",
      "note_off channel=0 note=98 velocity=64 time=0\n",
      "note_off channel=0 note=82 velocity=64 time=1\n",
      "note_off channel=0 note=103 velocity=64 time=0\n",
      "note_off channel=0 note=46 velocity=64 time=1\n",
      "note_on channel=0 note=48 velocity=69 time=0\n",
      "note_on channel=0 note=82 velocity=24 time=1\n",
      "note_on channel=0 note=45 velocity=60 time=1\n",
      "note_off channel=0 note=48 velocity=64 time=0\n",
      "note_on channel=0 note=88 velocity=42 time=0\n",
      "note_on channel=0 note=98 velocity=27 time=0\n",
      "note_on channel=0 note=61 velocity=12 time=3\n",
      "note_off channel=0 note=82 velocity=64 time=0\n",
      "note_on channel=0 note=44 velocity=49 time=1\n",
      "note_off channel=0 note=45 velocity=64 time=0\n",
      "note_on channel=0 note=78 velocity=48 time=0\n",
      "note_off channel=0 note=85 velocity=64 time=0\n",
      "note_off channel=0 note=89 velocity=64 time=0\n",
      "note_off channel=0 note=100 velocity=64 time=0\n",
      "note_on channel=0 note=101 velocity=41 time=0\n",
      "note_off channel=0 note=77 velocity=64 time=1\n",
      "note_on channel=0 note=84 velocity=39 time=1\n",
      "note_off channel=0 note=61 velocity=64 time=1\n",
      "note_off channel=0 note=44 velocity=64 time=1\n",
      "note_on channel=0 note=43 velocity=35 time=2\n",
      "note_off channel=0 note=43 velocity=64 time=2\n",
      "note_off channel=0 note=101 velocity=64 time=0\n",
      "note_off channel=0 note=75 velocity=64 time=1\n",
      "note_on channel=0 note=75 velocity=47 time=3\n",
      "note_on channel=0 note=61 velocity=54 time=5\n",
      "note_on channel=0 note=89 velocity=74 time=0\n",
      "note_on channel=0 note=95 velocity=43 time=0\n",
      "note_on channel=0 note=97 velocity=20 time=0\n",
      "note_off channel=0 note=98 velocity=64 time=0\n",
      "note_off channel=0 note=88 velocity=64 time=1\n",
      "note_on channel=0 note=93 velocity=14 time=0\n",
      "note_on channel=0 note=45 velocity=77 time=1\n",
      "note_off channel=0 note=65 velocity=64 time=0\n",
      "note_off channel=0 note=75 velocity=64 time=0\n",
      "note_on channel=0 note=76 velocity=46 time=0\n",
      "note_on channel=0 note=77 velocity=37 time=0\n",
      "note_off channel=0 note=78 velocity=64 time=0\n",
      "note_on channel=0 note=82 velocity=30 time=0\n",
      "note_on channel=0 note=85 velocity=37 time=0\n",
      "note_on channel=0 note=64 velocity=48 time=1\n",
      "note_off channel=0 note=71 velocity=64 time=0\n",
      "note_on channel=0 note=44 velocity=77 time=1\n",
      "note_off channel=0 note=45 velocity=64 time=0\n",
      "note_off channel=0 note=61 velocity=64 time=0\n",
      "note_on channel=0 note=71 velocity=37 time=0\n",
      "note_on channel=0 note=73 velocity=22 time=0\n",
      "note_off channel=0 note=77 velocity=64 time=0\n",
      "note_on channel=0 note=78 velocity=30 time=0\n",
      "note_on channel=0 note=91 velocity=13 time=0\n",
      "note_off channel=0 note=93 velocity=64 time=0\n",
      "note_off channel=0 note=64 velocity=64 time=1\n",
      "note_on channel=0 note=65 velocity=52 time=0\n",
      "note_on channel=0 note=75 velocity=41 time=0\n",
      "note_off channel=0 note=76 velocity=64 time=0\n",
      "note_on channel=0 note=43 velocity=73 time=1\n",
      "note_off channel=0 note=44 velocity=64 time=0\n",
      "note_on channel=0 note=62 velocity=30 time=0\n",
      "note_off channel=0 note=84 velocity=64 time=0\n",
      "note_on channel=0 note=84 velocity=13 time=2\n",
      "note_off channel=0 note=62 velocity=64 time=2\n",
      "note_on channel=0 note=77 velocity=53 time=0\n",
      "note_off channel=0 note=78 velocity=64 time=0\n",
      "note_off channel=0 note=91 velocity=64 time=0\n",
      "note_off channel=0 note=85 velocity=64 time=1\n",
      "note_off channel=0 note=89 velocity=64 time=0\n",
      "note_on channel=0 note=91 velocity=19 time=0\n",
      "note_off channel=0 note=97 velocity=64 time=0\n",
      "note_off channel=0 note=82 velocity=64 time=1\n",
      "note_off channel=0 note=43 velocity=64 time=1\n",
      "note_off channel=0 note=84 velocity=64 time=0\n",
      "note_on channel=0 note=87 velocity=42 time=2\n",
      "note_on channel=0 note=84 velocity=25 time=2\n",
      "note_off channel=0 note=91 velocity=64 time=2\n",
      "note_on channel=0 note=61 velocity=12 time=2\n",
      "note_on channel=0 note=93 velocity=15 time=0\n",
      "note_off channel=0 note=71 velocity=64 time=3\n",
      "note_on channel=0 note=91 velocity=31 time=1\n",
      "note_off channel=0 note=93 velocity=64 time=0\n",
      "note_off channel=0 note=61 velocity=64 time=1\n",
      "note_off channel=0 note=73 velocity=64 time=0\n",
      "note_on channel=0 note=82 velocity=25 time=1\n",
      "note_on channel=0 note=73 velocity=36 time=2\n",
      "note_on channel=0 note=93 velocity=24 time=0\n",
      "note_off channel=0 note=102 velocity=64 time=0\n",
      "note_off channel=0 note=56 velocity=64 time=1\n",
      "note_on channel=0 note=64 velocity=80 time=0\n",
      "note_off channel=0 note=65 velocity=64 time=0\n",
      "note_on channel=0 note=67 velocity=63 time=0\n",
      "note_off channel=0 note=68 velocity=64 time=0\n",
      "note_off channel=0 note=75 velocity=64 time=0\n",
      "note_on channel=0 note=81 velocity=23 time=0\n",
      "note_on channel=0 note=45 velocity=77 time=1\n",
      "note_off channel=0 note=80 velocity=64 time=0\n",
      "note_off channel=0 note=82 velocity=64 time=0\n",
      "note_on channel=0 note=90 velocity=32 time=0\n",
      "note_on channel=0 note=63 velocity=77 time=1\n",
      "note_off channel=0 note=64 velocity=64 time=0\n",
      "note_on channel=0 note=80 velocity=31 time=0\n",
      "note_on channel=0 note=82 velocity=34 time=0\n",
      "note_on channel=0 note=86 velocity=21 time=0\n",
      "note_off channel=0 note=96 velocity=64 time=0\n",
      "note_on channel=0 note=44 velocity=78 time=1\n",
      "note_off channel=0 note=45 velocity=64 time=0\n",
      "note_off channel=0 note=81 velocity=64 time=0\n",
      "note_off channel=0 note=91 velocity=64 time=0\n",
      "note_off channel=0 note=67 velocity=64 time=1\n",
      "note_off channel=0 note=86 velocity=64 time=1\n",
      "note_off channel=0 note=94 velocity=64 time=0\n",
      "note_on channel=0 note=61 velocity=58 time=1\n",
      "note_off channel=0 note=63 velocity=64 time=0\n",
      "note_on channel=0 note=65 velocity=48 time=0\n",
      "note_off channel=0 note=84 velocity=64 time=0\n",
      "note_off channel=0 note=44 velocity=64 time=1\n",
      "note_on channel=0 note=71 velocity=19 time=0\n",
      "note_on channel=0 note=91 velocity=28 time=0\n",
      "note_on channel=0 note=86 velocity=23 time=2\n",
      "note_off channel=0 note=71 velocity=64 time=2\n",
      "note_on channel=0 note=42 velocity=55 time=1\n",
      "note_off channel=0 note=91 velocity=64 time=0\n",
      "note_on channel=0 note=84 velocity=20 time=1\n",
      "note_off channel=0 note=86 velocity=64 time=0\n",
      "note_off channel=0 note=42 velocity=64 time=1\n",
      "note_on channel=0 note=86 velocity=18 time=0\n",
      "note_off channel=0 note=95 velocity=64 time=0\n",
      "note_on channel=0 note=71 velocity=26 time=1\n",
      "note_on channel=0 note=48 velocity=74 time=1\n",
      "note_off channel=0 note=82 velocity=64 time=1\n",
      "note_off channel=0 note=86 velocity=64 time=0\n",
      "note_on channel=0 note=56 velocity=42 time=1\n",
      "note_off channel=0 note=61 velocity=64 time=0\n",
      "note_on channel=0 note=82 velocity=33 time=0\n",
      "note_on channel=0 note=91 velocity=34 time=1\n",
      "note_off channel=0 note=48 velocity=64 time=1\n",
      "note_on channel=0 note=49 velocity=78 time=0\n",
      "note_off channel=0 note=56 velocity=64 time=0\n",
      "note_on channel=0 note=75 velocity=29 time=0\n",
      "note_on channel=0 note=83 velocity=41 time=0\n",
      "note_off channel=0 note=49 velocity=64 time=1\n",
      "note_on channel=0 note=52 velocity=75 time=0\n",
      "note_on channel=0 note=61 velocity=40 time=0\n",
      "note_off channel=0 note=82 velocity=64 time=0\n",
      "note_off channel=0 note=52 velocity=64 time=1\n",
      "note_on channel=0 note=53 velocity=64 time=0\n",
      "note_off channel=0 note=53 velocity=64 time=2\n",
      "note_off channel=0 note=93 velocity=64 time=0\n",
      "note_on channel=0 note=53 velocity=57 time=1\n",
      "note_off channel=0 note=53 velocity=64 time=3\n",
      "note_off channel=0 note=61 velocity=64 time=1\n",
      "note_on channel=0 note=64 velocity=80 time=0\n",
      "note_off channel=0 note=65 velocity=64 time=0\n",
      "note_off channel=0 note=73 velocity=64 time=0\n",
      "note_off channel=0 note=90 velocity=64 time=0\n",
      "note_on channel=0 note=45 velocity=77 time=1\n",
      "note_on channel=0 note=67 velocity=67 time=0\n",
      "note_off channel=0 note=80 velocity=64 time=0\n",
      "note_off channel=0 note=84 velocity=64 time=0\n",
      "note_on channel=0 note=85 velocity=42 time=0\n",
      "note_on channel=0 note=90 velocity=38 time=0\n",
      "note_on channel=0 note=93 velocity=40 time=0\n",
      "note_on channel=0 note=73 velocity=38 time=1\n",
      "note_on channel=0 note=80 velocity=82 time=0\n",
      "note_on channel=0 note=84 velocity=31 time=0\n",
      "note_on channel=0 note=44 velocity=79 time=1\n",
      "note_off channel=0 note=45 velocity=64 time=0\n",
      "note_on channel=0 note=63 velocity=71 time=0\n",
      "note_off channel=0 note=64 velocity=64 time=0\n",
      "note_off channel=0 note=67 velocity=64 time=0\n",
      "note_off channel=0 note=71 velocity=64 time=0\n",
      "note_on channel=0 note=82 velocity=44 time=0\n",
      "note_off channel=0 note=83 velocity=64 time=0\n",
      "note_on channel=0 note=95 velocity=26 time=0\n",
      "note_on channel=0 note=69 velocity=32 time=1\n",
      "note_off channel=0 note=63 velocity=64 time=2\n",
      "note_off channel=0 note=69 velocity=64 time=0\n",
      "note_off channel=0 note=44 velocity=64 time=1\n",
      "note_on channel=0 note=67 velocity=23 time=0\n",
      "note_off channel=0 note=77 velocity=64 time=0\n",
      "note_off channel=0 note=84 velocity=64 time=1\n",
      "note_on channel=0 note=61 velocity=58 time=1\n",
      "note_on channel=0 note=43 velocity=63 time=1\n",
      "note_on channel=0 note=66 velocity=21 time=0\n",
      "note_off channel=0 note=67 velocity=64 time=0\n",
      "note_on channel=0 note=71 velocity=31 time=1\n",
      "note_on channel=0 note=77 velocity=36 time=0\n",
      "note_on channel=0 note=42 velocity=54 time=2\n",
      "note_off channel=0 note=43 velocity=64 time=0\n",
      "note_off channel=0 note=42 velocity=64 time=2\n",
      "note_off channel=0 note=66 velocity=64 time=0\n",
      "note_on channel=0 note=67 velocity=36 time=0\n",
      "note_on channel=0 note=48 velocity=71 time=1\n",
      "note_off channel=0 note=91 velocity=64 time=0\n",
      "note_on channel=0 note=47 velocity=74 time=2\n",
      "note_off channel=0 note=48 velocity=64 time=0\n",
      "note_off channel=0 note=47 velocity=64 time=1\n",
      "note_on channel=0 note=48 velocity=70 time=0\n",
      "note_on channel=0 note=88 velocity=40 time=0\n",
      "note_off channel=0 note=48 velocity=64 time=1\n",
      "note_on channel=0 note=49 velocity=75 time=0\n",
      "note_off channel=0 note=49 velocity=64 time=1\n",
      "note_on channel=0 note=52 velocity=75 time=0\n",
      "note_on channel=0 note=65 velocity=22 time=0\n",
      "note_off channel=0 note=67 velocity=64 time=0\n",
      "note_off channel=0 note=52 velocity=64 time=1\n",
      "note_on channel=0 note=53 velocity=67 time=0\n",
      "note_off channel=0 note=53 velocity=64 time=2\n",
      "note_on channel=0 note=54 velocity=57 time=0\n",
      "note_off channel=0 note=61 velocity=64 time=0\n",
      "note_on channel=0 note=61 velocity=22 time=1\n",
      "note_on channel=0 note=53 velocity=54 time=1\n",
      "note_off channel=0 note=54 velocity=64 time=0\n",
      "note_off channel=0 note=53 velocity=64 time=3\n",
      "note_on channel=0 note=84 velocity=29 time=0\n",
      "note_on channel=0 note=89 velocity=68 time=0\n",
      "note_on channel=0 note=48 velocity=87 time=1\n",
      "note_off channel=0 note=61 velocity=64 time=0\n",
      "note_off channel=0 note=65 velocity=64 time=0\n",
      "note_off channel=0 note=73 velocity=64 time=0\n",
      "note_off channel=0 note=75 velocity=64 time=0\n",
      "note_on channel=0 note=76 velocity=43 time=0\n",
      "note_off channel=0 note=77 velocity=64 time=0\n",
      "note_off channel=0 note=88 velocity=64 time=0\n",
      "note_off channel=0 note=95 velocity=64 time=0\n",
      "note_on channel=0 note=67 velocity=52 time=1\n",
      "note_on channel=0 note=73 velocity=32 time=0\n",
      "note_on channel=0 note=95 velocity=28 time=0\n",
      "note_on channel=0 note=63 velocity=51 time=1\n",
      "note_on channel=0 note=77 velocity=32 time=0\n",
      "note_off channel=0 note=90 velocity=64 time=0\n",
      "note_on channel=0 note=91 velocity=28 time=0\n",
      "note_on channel=0 note=47 velocity=75 time=1\n",
      "note_off channel=0 note=48 velocity=64 time=0\n",
      "note_off channel=0 note=67 velocity=64 time=0\n",
      "note_off channel=0 note=76 velocity=64 time=0\n",
      "note_on channel=0 note=46 velocity=66 time=1\n",
      "note_off channel=0 note=47 velocity=64 time=0\n",
      "note_on channel=0 note=68 velocity=29 time=0\n",
      "note_off channel=0 note=82 velocity=64 time=0\n",
      "note_off channel=0 note=84 velocity=64 time=0\n",
      "note_off channel=0 note=63 velocity=64 time=1\n",
      "note_on channel=0 note=82 velocity=35 time=0\n",
      "note_off channel=0 note=87 velocity=64 time=0\n",
      "note_off channel=0 note=46 velocity=64 time=1\n",
      "note_on channel=0 note=88 velocity=30 time=0\n",
      "note_on channel=0 note=65 velocity=46 time=1\n",
      "note_off channel=0 note=89 velocity=64 time=0\n",
      "note_on channel=0 note=45 velocity=61 time=1\n",
      "note_on channel=0 note=61 velocity=18 time=0\n",
      "note_off channel=0 note=88 velocity=64 time=0\n",
      "note_off channel=0 note=85 velocity=64 time=1\n",
      "note_on channel=0 note=88 velocity=29 time=0\n",
      "note_on channel=0 note=54 velocity=34 time=1\n",
      "note_on channel=0 note=87 velocity=44 time=0\n",
      "note_on channel=0 note=44 velocity=51 time=1\n",
      "note_off channel=0 note=45 velocity=64 time=0\n",
      "note_off channel=0 note=91 velocity=64 time=0\n",
      "note_off channel=0 note=61 velocity=64 time=2\n",
      "note_on channel=0 note=90 velocity=22 time=0\n",
      "note_on channel=0 note=83 velocity=52 time=1\n",
      "note_on channel=0 note=43 velocity=31 time=2\n",
      "note_off channel=0 note=44 velocity=64 time=0\n",
      "note_off channel=0 note=82 velocity=64 time=0\n",
      "note_off channel=0 note=95 velocity=64 time=1\n",
      "note_on channel=0 note=61 velocity=15 time=1\n",
      "note_off channel=0 note=88 velocity=64 time=0\n",
      "note_off channel=0 note=43 velocity=64 time=1\n",
      "note_on channel=0 note=88 velocity=17 time=0\n",
      "note_on channel=0 note=42 velocity=23 time=2\n",
      "note_on channel=0 note=53 velocity=29 time=0\n",
      "note_off channel=0 note=54 velocity=64 time=0\n",
      "note_on channel=0 note=91 velocity=31 time=0\n",
      "note_off channel=0 note=53 velocity=64 time=3\n",
      "note_on channel=0 note=89 velocity=70 time=0\n",
      "note_off channel=0 note=42 velocity=64 time=1\n",
      "note_on channel=0 note=53 velocity=27 time=0\n",
      "note_off channel=0 note=88 velocity=64 time=0\n",
      "note_off channel=0 note=90 velocity=64 time=0\n",
      "note_off channel=0 note=61 velocity=64 time=1\n",
      "note_on channel=0 note=75 velocity=41 time=2\n",
      "note_off channel=0 note=77 velocity=64 time=0\n",
      "note_on channel=0 note=84 velocity=44 time=0\n",
      "note_off channel=0 note=53 velocity=64 time=1\n",
      "note_on channel=0 note=62 velocity=54 time=0\n",
      "note_off channel=0 note=68 velocity=64 time=0\n",
      "note_off channel=0 note=71 velocity=64 time=0\n",
      "note_off channel=0 note=73 velocity=64 time=0\n",
      "note_off channel=0 note=91 velocity=64 time=0\n",
      "note_on channel=0 note=102 velocity=18 time=0\n",
      "note_on channel=0 note=46 velocity=71 time=1\n",
      "note_off channel=0 note=65 velocity=64 time=0\n",
      "note_on channel=0 note=69 velocity=47 time=0\n",
      "note_off channel=0 note=75 velocity=64 time=0\n",
      "note_on channel=0 note=79 velocity=45 time=0\n",
      "note_on channel=0 note=90 velocity=24 time=0\n",
      "note_on channel=0 note=45 velocity=76 time=1\n",
      "note_off channel=0 note=46 velocity=64 time=0\n",
      "note_on channel=0 note=67 velocity=48 time=0\n",
      "note_on channel=0 note=73 velocity=87 time=0\n",
      "note_on channel=0 note=75 velocity=44 time=0\n",
      "note_on channel=0 note=88 velocity=18 time=0\n",
      "note_on channel=0 note=44 velocity=78 time=1\n",
      "note_off channel=0 note=45 velocity=64 time=0\n",
      "note_off channel=0 note=62 velocity=64 time=0\n",
      "note_on channel=0 note=63 velocity=38 time=0\n",
      "note_off channel=0 note=79 velocity=64 time=0\n",
      "note_off channel=0 note=69 velocity=64 time=1\n",
      "note_on channel=0 note=77 velocity=31 time=0\n",
      "note_off channel=0 note=102 velocity=64 time=0\n",
      "note_on channel=0 note=62 velocity=36 time=1\n",
      "note_off channel=0 note=63 velocity=64 time=0\n",
      "note_off channel=0 note=75 velocity=64 time=0\n",
      "note_off channel=0 note=84 velocity=64 time=0\n",
      "note_off channel=0 note=88 velocity=64 time=0\n",
      "note_on channel=0 note=43 velocity=73 time=1\n",
      "note_off channel=0 note=44 velocity=64 time=0\n",
      "note_off channel=0 note=90 velocity=64 time=0\n",
      "note_on channel=0 note=91 velocity=37 time=0\n",
      "note_on channel=0 note=53 velocity=44 time=1\n",
      "note_on channel=0 note=75 velocity=13 time=1\n",
      "note_on channel=0 note=61 velocity=33 time=1\n",
      "note_off channel=0 note=62 velocity=64 time=0\n",
      "note_off channel=0 note=67 velocity=64 time=0\n",
      "note_on channel=0 note=90 velocity=82 time=0\n",
      "note_off channel=0 note=53 velocity=64 time=1\n",
      "note_on channel=0 note=66 velocity=49 time=0\n",
      "note_off channel=0 note=61 velocity=64 time=1\n",
      "note_off channel=0 note=75 velocity=64 time=0\n",
      "note_on channel=0 note=94 velocity=53 time=0\n",
      "note_on channel=0 note=96 velocity=44 time=0\n",
      "note_off channel=0 note=43 velocity=64 time=1\n",
      "note_on channel=0 note=44 velocity=33 time=0\n",
      "note_on channel=0 note=54 velocity=71 time=0\n",
      "note_off channel=0 note=66 velocity=64 time=0\n",
      "note_on channel=0 note=67 velocity=71 time=0\n",
      "note_on channel=0 note=78 velocity=62 time=0\n",
      "note_on channel=0 note=82 velocity=47 time=0\n",
      "note_off channel=0 note=83 velocity=64 time=0\n",
      "note_on channel=0 note=88 velocity=49 time=0\n",
      "note_off channel=0 note=77 velocity=64 time=1\n",
      "note_off channel=0 note=93 velocity=64 time=0\n",
      "note_on channel=0 note=43 velocity=16 time=1\n",
      "note_off channel=0 note=44 velocity=64 time=0\n",
      "note_on channel=0 note=61 velocity=51 time=0\n",
      "note_off channel=0 note=67 velocity=64 time=0\n",
      "note_off channel=0 note=91 velocity=64 time=0\n",
      "note_on channel=0 note=83 velocity=33 time=1\n",
      "note_off channel=0 note=87 velocity=64 time=1\n",
      "note_on channel=0 note=95 velocity=46 time=0\n",
      "note_off channel=0 note=96 velocity=64 time=0\n",
      "note_on channel=0 note=98 velocity=34 time=0\n",
      "note_on channel=0 note=103 velocity=39 time=0\n",
      "note_off channel=0 note=43 velocity=64 time=1\n",
      "note_on channel=0 note=99 velocity=65 time=0\n",
      "note_off channel=0 note=83 velocity=64 time=1\n",
      "note_off channel=0 note=82 velocity=64 time=1\n",
      "note_on channel=0 note=93 velocity=71 time=0\n",
      "note_off channel=0 note=94 velocity=64 time=0\n",
      "note_on channel=0 note=82 velocity=41 time=1\n",
      "note_on channel=0 note=83 velocity=66 time=1\n",
      "note_on channel=0 note=87 velocity=41 time=0\n",
      "note_on channel=0 note=65 velocity=51 time=1\n",
      "note_on channel=0 note=68 velocity=9 time=0\n",
      "note_on channel=0 note=81 velocity=36 time=0\n",
      "note_off channel=0 note=82 velocity=64 time=0\n",
      "note_on channel=0 note=100 velocity=56 time=0\n",
      "note_on channel=0 note=53 velocity=71 time=1\n",
      "note_off channel=0 note=54 velocity=64 time=0\n",
      "note_on channel=0 note=75 velocity=18 time=0\n",
      "note_on channel=0 note=77 velocity=64 time=0\n",
      "note_on channel=0 note=84 velocity=46 time=0\n",
      "note_off channel=0 note=90 velocity=64 time=0\n",
      "note_off channel=0 note=103 velocity=64 time=0\n",
      "note_on channel=0 note=72 velocity=84 time=1\n",
      "note_off channel=0 note=73 velocity=64 time=0\n",
      "note_on channel=0 note=91 velocity=76 time=0\n",
      "note_off channel=0 note=68 velocity=64 time=1\n",
      "note_off channel=0 note=78 velocity=64 time=0\n",
      "note_off channel=0 note=81 velocity=64 time=0\n",
      "note_off channel=0 note=88 velocity=64 time=0\n",
      "note_on channel=0 note=97 velocity=34 time=0\n",
      "note_off channel=0 note=98 velocity=64 time=0\n",
      "note_off channel=0 note=75 velocity=64 time=1\n",
      "note_on channel=0 note=94 velocity=52 time=0\n",
      "note_off channel=0 note=95 velocity=64 time=0\n",
      "note_on channel=0 note=68 velocity=54 time=1\n",
      "note_on channel=0 note=75 velocity=43 time=0\n",
      "note_on channel=0 note=52 velocity=74 time=2\n",
      "note_off channel=0 note=53 velocity=64 time=0\n",
      "note_off channel=0 note=65 velocity=64 time=0\n",
      "note_on channel=0 note=85 velocity=35 time=0\n",
      "note_on channel=0 note=90 velocity=58 time=0\n",
      "note_off channel=0 note=100 velocity=64 time=0\n",
      "note_off channel=0 note=61 velocity=64 time=1\n",
      "note_on channel=0 note=63 velocity=93 time=0\n",
      "note_on channel=0 note=71 velocity=76 time=0\n",
      "note_off channel=0 note=72 velocity=64 time=0\n",
      "note_on channel=0 note=78 velocity=34 time=0\n",
      "note_off channel=0 note=84 velocity=64 time=0\n",
      "note_off channel=0 note=93 velocity=64 time=0\n",
      "note_on channel=0 note=98 velocity=23 time=0\n",
      "note_on channel=0 note=100 velocity=51 time=0\n",
      "note_off channel=0 note=68 velocity=64 time=1\n",
      "note_on channel=0 note=69 velocity=45 time=0\n",
      "note_off channel=0 note=71 velocity=64 time=0\n",
      "note_on channel=0 note=72 velocity=79 time=0\n",
      "note_off channel=0 note=75 velocity=64 time=0\n",
      "note_on channel=0 note=76 velocity=61 time=0\n",
      "note_off channel=0 note=77 velocity=64 time=0\n",
      "note_on channel=0 note=71 velocity=82 time=1\n",
      "note_off channel=0 note=72 velocity=64 time=0\n",
      "note_off channel=0 note=78 velocity=64 time=0\n",
      "note_off channel=0 note=87 velocity=64 time=0\n",
      "note_off channel=0 note=91 velocity=64 time=0\n",
      "note_on channel=0 note=68 velocity=26 time=1\n",
      "note_off channel=0 note=69 velocity=64 time=0\n",
      "note_off channel=0 note=89 velocity=64 time=0\n",
      "note_on channel=0 note=91 velocity=17 time=1\n",
      "note_on channel=0 note=93 velocity=15 time=0\n",
      "note_off channel=0 note=76 velocity=64 time=3\n",
      "note_on channel=0 note=77 velocity=52 time=0\n",
      "note_off channel=0 note=91 velocity=64 time=0\n",
      "note_off channel=0 note=93 velocity=64 time=0\n",
      "note_on channel=0 note=84 velocity=22 time=1\n",
      "note_on channel=0 note=86 velocity=12 time=0\n",
      "note_off channel=0 note=90 velocity=64 time=0\n",
      "note_on channel=0 note=91 velocity=47 time=0\n",
      "note_on channel=0 note=96 velocity=35 time=0\n",
      "note_off channel=0 note=100 velocity=64 time=0\n",
      "note_off channel=0 note=68 velocity=64 time=1\n",
      "note_on channel=0 note=93 velocity=57 time=0\n",
      "note_off channel=0 note=71 velocity=64 time=1\n",
      "note_on channel=0 note=72 velocity=74 time=0\n",
      "note_off channel=0 note=96 velocity=64 time=0\n",
      "note_off channel=0 note=98 velocity=64 time=0\n",
      "note_off channel=0 note=86 velocity=64 time=1\n",
      "note_off channel=0 note=94 velocity=64 time=0\n",
      "note_on channel=0 note=100 velocity=38 time=0\n",
      "note_on channel=0 note=101 velocity=59 time=0\n",
      "note_off channel=0 note=52 velocity=64 time=1\n",
      "note_on channel=0 note=53 velocity=71 time=0\n",
      "note_off channel=0 note=84 velocity=64 time=0\n",
      "note_on channel=0 note=87 velocity=30 time=0\n",
      "note_on channel=0 note=90 velocity=81 time=0\n",
      "note_on channel=0 note=98 velocity=44 time=0\n",
      "note_on channel=0 note=66 velocity=61 time=1\n",
      "note_on channel=0 note=71 velocity=49 time=0\n",
      "note_off channel=0 note=72 velocity=64 time=0\n",
      "note_on channel=0 note=73 velocity=78 time=0\n",
      "note_on channel=0 note=82 velocity=36 time=0\n",
      "note_off channel=0 note=91 velocity=64 time=0\n",
      "note_on channel=0 note=94 velocity=70 time=0\n",
      "note_off channel=0 note=53 velocity=64 time=1\n",
      "note_on channel=0 note=54 velocity=67 time=0\n",
      "note_on channel=0 note=78 velocity=65 time=0\n",
      "note_off channel=0 note=66 velocity=64 time=1\n",
      "note_on channel=0 note=91 velocity=13 time=0\n",
      "note_off channel=0 note=93 velocity=64 time=0\n",
      "note_off channel=0 note=100 velocity=64 time=0\n",
      "note_on channel=0 note=68 velocity=22 time=1\n",
      "note_off channel=0 note=77 velocity=64 time=0\n",
      "note_on channel=0 note=53 velocity=69 time=1\n",
      "note_off channel=0 note=54 velocity=64 time=0\n",
      "note_off channel=0 note=71 velocity=64 time=0\n",
      "note_off channel=0 note=82 velocity=64 time=0\n",
      "note_on channel=0 note=71 velocity=46 time=1\n",
      "note_on channel=0 note=82 velocity=40 time=0\n",
      "note_off channel=0 note=53 velocity=64 time=1\n",
      "note_on channel=0 note=54 velocity=65 time=0\n",
      "note_off channel=0 note=68 velocity=64 time=0\n",
      "note_off channel=0 note=80 velocity=64 time=0\n",
      "note_off channel=0 note=71 velocity=64 time=1\n",
      "note_on channel=0 note=71 velocity=43 time=1\n",
      "note_off channel=0 note=91 velocity=64 time=1\n",
      "note_off channel=0 note=99 velocity=64 time=0\n",
      "note_on channel=0 note=100 velocity=58 time=0\n",
      "note_off channel=0 note=82 velocity=64 time=1\n",
      "note_on channel=0 note=96 velocity=52 time=1\n",
      "note_off channel=0 note=98 velocity=64 time=1\n",
      "note_on channel=0 note=80 velocity=40 time=1\n",
      "note_on channel=0 note=98 velocity=31 time=0\n",
      "note_off channel=0 note=54 velocity=64 time=1\n",
      "note_off channel=0 note=71 velocity=64 time=0\n",
      "note_off channel=0 note=73 velocity=64 time=0\n",
      "note_on channel=0 note=54 velocity=70 time=1\n",
      "note_on channel=0 note=73 velocity=66 time=0\n",
      "note_on channel=0 note=89 velocity=50 time=0\n",
      "note_off channel=0 note=100 velocity=64 time=0\n",
      "note_on channel=0 note=62 velocity=77 time=1\n",
      "note_off channel=0 note=63 velocity=64 time=0\n",
      "note_on channel=0 note=82 velocity=62 time=0\n",
      "note_off channel=0 note=98 velocity=64 time=0\n",
      "note_on channel=0 note=67 velocity=68 time=1\n",
      "note_on channel=0 note=71 velocity=43 time=0\n",
      "note_off channel=0 note=83 velocity=64 time=0\n",
      "note_on channel=0 note=84 velocity=42 time=0\n",
      "note_off channel=0 note=85 velocity=64 time=0\n",
      "note_off channel=0 note=96 velocity=64 time=0\n",
      "note_on channel=0 note=100 velocity=57 time=0\n",
      "note_on channel=0 note=88 velocity=71 time=1\n",
      "note_on channel=0 note=99 velocity=33 time=0\n",
      "note_off channel=0 note=62 velocity=64 time=1\n",
      "note_on channel=0 note=63 velocity=85 time=0\n",
      "note_on channel=0 note=66 velocity=71 time=0\n",
      "note_off channel=0 note=67 velocity=64 time=0\n",
      "note_on channel=0 note=83 velocity=48 time=0\n",
      "note_off channel=0 note=84 velocity=64 time=0\n",
      "note_on channel=0 note=93 velocity=10 time=1\n",
      "note_off channel=0 note=82 velocity=64 time=1\n",
      "note_on channel=0 note=82 velocity=50 time=1\n",
      "note_on channel=0 note=70 velocity=33 time=1\n",
      "note_off channel=0 note=71 velocity=64 time=0\n",
      "note_off channel=0 note=80 velocity=64 time=0\n",
      "note_off channel=0 note=87 velocity=64 time=0\n",
      "note_off channel=0 note=89 velocity=64 time=0\n",
      "note_off channel=0 note=93 velocity=64 time=0\n",
      "note_off channel=0 note=83 velocity=64 time=1\n",
      "note_on channel=0 note=89 velocity=14 time=1\n",
      "note_on channel=0 note=96 velocity=32 time=0\n",
      "note_off channel=0 note=70 velocity=64 time=1\n",
      "note_on channel=0 note=71 velocity=44 time=0\n",
      "note_on channel=0 note=98 velocity=24 time=0\n",
      "note_off channel=0 note=99 velocity=64 time=0\n",
      "note_on channel=0 note=103 velocity=34 time=2\n",
      "note_off channel=0 note=89 velocity=64 time=1\n",
      "note_off channel=0 note=97 velocity=64 time=0\n",
      "note_on channel=0 note=80 velocity=32 time=1\n",
      "note_off channel=0 note=98 velocity=64 time=0\n",
      "note_on channel=0 note=95 velocity=32 time=1\n",
      "note_off channel=0 note=96 velocity=64 time=0\n",
      "note_off channel=0 note=95 velocity=64 time=5\n",
      "note_on channel=0 note=96 velocity=20 time=0\n",
      "note_on channel=0 note=99 velocity=29 time=1\n",
      "note_off channel=0 note=103 velocity=64 time=1\n",
      "note_off channel=0 note=54 velocity=64 time=1\n",
      "note_on channel=0 note=55 velocity=67 time=0\n",
      "note_off channel=0 note=73 velocity=64 time=0\n",
      "note_on channel=0 note=74 velocity=66 time=0\n",
      "note_on channel=0 note=93 velocity=36 time=0\n",
      "note_off channel=0 note=66 velocity=64 time=1\n",
      "note_on channel=0 note=67 velocity=71 time=0\n",
      "note_off channel=0 note=82 velocity=64 time=0\n",
      "note_on channel=0 note=83 velocity=58 time=0\n",
      "note_on channel=0 note=89 velocity=73 time=0\n",
      "note_off channel=0 note=94 velocity=64 time=0\n",
      "note_off channel=0 note=80 velocity=64 time=1\n",
      "note_off channel=0 note=90 velocity=64 time=0\n",
      "note_off channel=0 note=67 velocity=64 time=1\n",
      "note_on channel=0 note=68 velocity=70 time=0\n",
      "note_off channel=0 note=78 velocity=64 time=0\n",
      "note_on channel=0 note=80 velocity=86 time=0\n",
      "note_on channel=0 note=87 velocity=55 time=0\n",
      "note_off channel=0 note=93 velocity=64 time=0\n",
      "note_on channel=0 note=94 velocity=27 time=0\n",
      "note_off channel=0 note=96 velocity=64 time=0\n",
      "note_off channel=0 note=55 velocity=64 time=1\n",
      "note_off channel=0 note=74 velocity=64 time=0\n",
      "note_on channel=0 note=79 velocity=45 time=0\n",
      "note_on channel=0 note=84 velocity=44 time=0\n",
      "note_off channel=0 note=89 velocity=64 time=0\n",
      "note_on channel=0 note=90 velocity=67 time=0\n",
      "note_on channel=0 note=57 velocity=62 time=1\n",
      "note_off channel=0 note=71 velocity=64 time=0\n",
      "note_on channel=0 note=76 velocity=73 time=0\n",
      "note_on channel=0 note=89 velocity=85 time=0\n",
      "note_on channel=0 note=93 velocity=34 time=0\n",
      "note_off channel=0 note=68 velocity=64 time=1\n",
      "note_on channel=0 note=69 velocity=65 time=0\n",
      "note_on channel=0 note=73 velocity=41 time=0\n",
      "note_off channel=0 note=79 velocity=64 time=0\n",
      "note_off channel=0 note=84 velocity=64 time=0\n",
      "note_off channel=0 note=90 velocity=64 time=0\n",
      "note_on channel=0 note=91 velocity=56 time=0\n",
      "note_off channel=0 note=94 velocity=64 time=0\n",
      "note_on channel=0 note=48 velocity=18 time=1\n",
      "note_off channel=0 note=57 velocity=64 time=0\n",
      "note_on channel=0 note=58 velocity=61 time=0\n",
      "note_off channel=0 note=88 velocity=64 time=0\n",
      "note_on channel=0 note=94 velocity=36 time=0\n",
      "note_on channel=0 note=102 velocity=22 time=0\n",
      "note_on channel=0 note=68 velocity=49 time=1\n",
      "note_off channel=0 note=69 velocity=64 time=0\n",
      "note_off channel=0 note=76 velocity=64 time=0\n",
      "note_on channel=0 note=77 velocity=67 time=0\n",
      "note_on channel=0 note=82 velocity=44 time=0\n",
      "note_on channel=0 note=88 velocity=37 time=0\n",
      "note_off channel=0 note=93 velocity=64 time=0\n",
      "note_off channel=0 note=99 velocity=64 time=0\n",
      "note_on channel=0 note=71 velocity=32 time=1\n",
      "note_off channel=0 note=83 velocity=64 time=0\n",
      "note_off channel=0 note=48 velocity=64 time=1\n",
      "note_off channel=0 note=58 velocity=64 time=0\n",
      "note_off channel=0 note=82 velocity=64 time=0\n",
      "note_on channel=0 note=83 velocity=62 time=0\n",
      "note_off channel=0 note=87 velocity=64 time=0\n",
      "note_off channel=0 note=101 velocity=64 time=0\n",
      "note_on channel=0 note=90 velocity=67 time=1\n",
      "note_off channel=0 note=94 velocity=64 time=0\n",
      "note_on channel=0 note=59 velocity=62 time=1\n",
      "note_on channel=0 note=65 velocity=59 time=0\n",
      "note_off channel=0 note=71 velocity=64 time=0\n",
      "note_off channel=0 note=63 velocity=64 time=1\n",
      "note_on channel=0 note=70 velocity=57 time=0\n",
      "note_off channel=0 note=77 velocity=64 time=0\n",
      "note_on channel=0 note=78 velocity=66 time=0\n",
      "note_off channel=0 note=89 velocity=64 time=0\n",
      "note_off channel=0 note=91 velocity=64 time=1\n",
      "note_on channel=0 note=93 velocity=55 time=0\n",
      "note_off channel=0 note=88 velocity=64 time=1\n",
      "note_off channel=0 note=70 velocity=64 time=1\n",
      "note_on channel=0 note=71 velocity=66 time=0\n",
      "note_off channel=0 note=93 velocity=64 time=4\n",
      "note_on channel=0 note=70 velocity=64 time=1\n",
      "note_off channel=0 note=71 velocity=64 time=0\n",
      "note_on channel=0 note=58 velocity=64 time=1\n",
      "note_off channel=0 note=59 velocity=64 time=0\n",
      "note_on channel=0 note=77 velocity=80 time=0\n",
      "note_off channel=0 note=83 velocity=64 time=0\n",
      "note_off channel=0 note=90 velocity=64 time=0\n",
      "note_off channel=0 note=100 velocity=64 time=0\n",
      "note_off channel=0 note=102 velocity=64 time=0\n",
      "note_off channel=0 note=78 velocity=64 time=1\n",
      "note_on channel=0 note=86 velocity=45 time=0\n",
      "note_on channel=0 note=90 velocity=29 time=0\n",
      "note_on channel=0 note=96 velocity=18 time=0\n",
      "note_off channel=0 note=68 velocity=64 time=1\n",
      "note_on channel=0 note=50 velocity=14 time=1\n",
      "note_on channel=0 note=102 velocity=32 time=0\n",
      "note_on channel=0 note=91 velocity=70 time=1\n",
      "note_on channel=0 note=84 velocity=30 time=1\n",
      "note_on channel=0 note=81 velocity=58 time=1\n",
      "note_on channel=0 note=85 velocity=53 time=0\n",
      "note_off channel=0 note=86 velocity=64 time=0\n",
      "note_off channel=0 note=50 velocity=64 time=1\n",
      "note_on channel=0 note=76 velocity=74 time=0\n",
      "note_off channel=0 note=77 velocity=64 time=0\n",
      "note_on channel=0 note=57 velocity=59 time=1\n",
      "note_off channel=0 note=58 velocity=64 time=0\n",
      "note_on channel=0 note=69 velocity=63 time=0\n",
      "note_off channel=0 note=70 velocity=64 time=0\n",
      "note_off channel=0 note=90 velocity=64 time=0\n",
      "note_off channel=0 note=76 velocity=64 time=1\n",
      "note_on channel=0 note=77 velocity=76 time=0\n",
      "note_off channel=0 note=96 velocity=64 time=0\n",
      "note_off channel=0 note=57 velocity=64 time=2\n",
      "note_on channel=0 note=58 velocity=60 time=0\n",
      "note_off channel=0 note=69 velocity=64 time=0\n",
      "note_on channel=0 note=70 velocity=61 time=0\n",
      "note_off channel=0 note=81 velocity=64 time=0\n",
      "note_off channel=0 note=102 velocity=64 time=1\n",
      "note_off channel=0 note=58 velocity=64 time=1\n",
      "note_on channel=0 note=59 velocity=68 time=0\n",
      "note_off channel=0 note=73 velocity=64 time=0\n",
      "note_on channel=0 note=75 velocity=44 time=0\n",
      "note_on channel=0 note=79 velocity=46 time=0\n",
      "note_on channel=0 note=86 velocity=34 time=0\n",
      "note_off channel=0 note=91 velocity=64 time=0\n",
      "note_on channel=0 note=95 velocity=25 time=0\n",
      "note_on channel=0 note=58 velocity=73 time=1\n",
      "note_off channel=0 note=59 velocity=64 time=0\n",
      "note_on channel=0 note=61 velocity=77 time=0\n",
      "note_off channel=0 note=65 velocity=64 time=0\n",
      "note_off channel=0 note=70 velocity=64 time=0\n",
      "note_on channel=0 note=71 velocity=52 time=0\n",
      "note_off channel=0 note=80 velocity=64 time=0\n",
      "note_off channel=0 note=85 velocity=64 time=0\n",
      "note_on channel=0 note=90 velocity=61 time=0\n",
      "note_on channel=0 note=100 velocity=16 time=0\n",
      "note_on channel=0 note=78 velocity=62 time=1\n",
      "note_off channel=0 note=79 velocity=64 time=0\n",
      "note_on channel=0 note=80 velocity=42 time=0\n",
      "note_on channel=0 note=83 velocity=55 time=0\n",
      "note_on channel=0 note=49 velocity=32 time=1\n",
      "note_off channel=0 note=58 velocity=64 time=0\n",
      "note_on channel=0 note=64 velocity=65 time=0\n",
      "note_on channel=0 note=70 velocity=66 time=0\n",
      "note_off channel=0 note=71 velocity=64 time=0\n",
      "note_off channel=0 note=77 velocity=64 time=0\n",
      "note_on channel=0 note=85 velocity=35 time=0\n",
      "note_off channel=0 note=61 velocity=64 time=1\n",
      "note_on channel=0 note=68 velocity=34 time=0\n",
      "note_off channel=0 note=75 velocity=64 time=0\n",
      "note_off channel=0 note=83 velocity=64 time=0\n",
      "note_off channel=0 note=86 velocity=64 time=0\n",
      "note_on channel=0 note=91 velocity=62 time=0\n",
      "note_off channel=0 note=49 velocity=64 time=1\n",
      "note_on channel=0 note=58 velocity=63 time=0\n",
      "note_off channel=0 note=64 velocity=64 time=0\n",
      "note_on channel=0 note=65 velocity=51 time=0\n",
      "note_off channel=0 note=85 velocity=64 time=0\n",
      "note_on channel=0 note=86 velocity=39 time=0\n",
      "note_off channel=0 note=90 velocity=64 time=0\n",
      "note_off channel=0 note=95 velocity=64 time=0\n",
      "note_off channel=0 note=100 velocity=64 time=0\n",
      "note_on channel=0 note=77 velocity=71 time=1\n",
      "note_off channel=0 note=78 velocity=64 time=0\n",
      "note_on channel=0 note=90 velocity=25 time=0\n",
      "note_off channel=0 note=68 velocity=64 time=1\n",
      "note_off channel=0 note=80 velocity=64 time=0\n",
      "note_on channel=0 note=87 velocity=34 time=0\n",
      "note_off channel=0 note=90 velocity=64 time=2\n",
      "note_on channel=0 note=81 velocity=53 time=1\n"
     ]
    },
    {
     "name": "stdout",
     "output_type": "stream",
     "text": [
      "note_on channel=0 note=83 velocity=31 time=0\n",
      "note_on channel=0 note=76 velocity=72 time=1\n",
      "note_off channel=0 note=77 velocity=64 time=0\n",
      "note_on channel=0 note=80 velocity=43 time=0\n",
      "note_on channel=0 note=85 velocity=40 time=0\n",
      "note_off channel=0 note=86 velocity=64 time=0\n",
      "note_on channel=0 note=57 velocity=57 time=1\n",
      "note_off channel=0 note=58 velocity=64 time=0\n",
      "note_on channel=0 note=69 velocity=68 time=0\n",
      "note_off channel=0 note=70 velocity=64 time=0\n",
      "note_off channel=0 note=83 velocity=64 time=0\n",
      "note_off channel=0 note=57 velocity=64 time=3\n",
      "note_on channel=0 note=58 velocity=48 time=0\n",
      "note_off channel=0 note=65 velocity=64 time=0\n",
      "note_on channel=0 note=78 velocity=25 time=0\n",
      "note_on channel=0 note=82 velocity=63 time=0\n",
      "note_on channel=0 note=53 velocity=43 time=1\n",
      "note_on channel=0 note=75 velocity=45 time=0\n",
      "note_off channel=0 note=81 velocity=64 time=0\n",
      "note_off channel=0 note=84 velocity=64 time=0\n",
      "note_on channel=0 note=90 velocity=33 time=0\n",
      "note_on channel=0 note=57 velocity=57 time=1\n",
      "note_off channel=0 note=58 velocity=64 time=0\n",
      "note_on channel=0 note=65 velocity=49 time=0\n",
      "note_off channel=0 note=53 velocity=64 time=1\n",
      "note_off channel=0 note=78 velocity=64 time=0\n",
      "note_off channel=0 note=91 velocity=64 time=0\n",
      "note_off channel=0 note=75 velocity=64 time=1\n",
      "note_off channel=0 note=80 velocity=64 time=0\n",
      "note_on channel=0 note=84 velocity=30 time=0\n",
      "note_off channel=0 note=90 velocity=64 time=0\n",
      "note_on channel=0 note=91 velocity=35 time=0\n",
      "note_on channel=0 note=102 velocity=13 time=0\n",
      "note_off channel=0 note=57 velocity=64 time=4\n",
      "note_on channel=0 note=58 velocity=54 time=0\n",
      "note_on channel=0 note=75 velocity=32 time=0\n",
      "note_off channel=0 note=76 velocity=64 time=2\n",
      "note_on channel=0 note=77 velocity=55 time=0\n",
      "note_off channel=0 note=102 velocity=64 time=1\n",
      "note_off channel=0 note=58 velocity=64 time=1\n",
      "note_off channel=0 note=77 velocity=64 time=1\n",
      "note_on channel=0 note=48 velocity=58 time=1\n",
      "note_on channel=0 note=64 velocity=81 time=0\n",
      "note_off channel=0 note=65 velocity=64 time=0\n",
      "note_off channel=0 note=69 velocity=64 time=0\n",
      "note_on channel=0 note=73 velocity=34 time=0\n",
      "note_on channel=0 note=78 velocity=36 time=0\n",
      "note_on channel=0 note=90 velocity=38 time=0\n",
      "note_off channel=0 note=91 velocity=64 time=0\n",
      "note_on channel=0 note=80 velocity=43 time=1\n",
      "note_on channel=0 note=45 velocity=78 time=1\n",
      "note_off channel=0 note=48 velocity=64 time=0\n",
      "note_on channel=0 note=71 velocity=26 time=0\n",
      "note_on channel=0 note=77 velocity=40 time=0\n",
      "note_off channel=0 note=78 velocity=64 time=0\n",
      "note_on channel=0 note=63 velocity=76 time=1\n",
      "note_off channel=0 note=64 velocity=64 time=0\n",
      "note_on channel=0 note=68 velocity=50 time=0\n",
      "note_on channel=0 note=44 velocity=79 time=1\n",
      "note_off channel=0 note=45 velocity=64 time=0\n",
      "note_on channel=0 note=55 velocity=45 time=0\n",
      "note_on channel=0 note=69 velocity=34 time=0\n",
      "note_off channel=0 note=85 velocity=64 time=0\n",
      "note_on channel=0 note=88 velocity=34 time=0\n",
      "note_off channel=0 note=68 velocity=64 time=1\n",
      "note_off channel=0 note=71 velocity=64 time=0\n",
      "note_on channel=0 note=91 velocity=29 time=0\n",
      "note_off channel=0 note=55 velocity=64 time=1\n",
      "note_on channel=0 note=68 velocity=33 time=0\n",
      "note_off channel=0 note=69 velocity=64 time=0\n",
      "note_on channel=0 note=89 velocity=50 time=0\n",
      "note_off channel=0 note=90 velocity=64 time=0\n",
      "note_off channel=0 note=44 velocity=64 time=1\n",
      "note_on channel=0 note=45 velocity=68 time=0\n",
      "note_off channel=0 note=63 velocity=64 time=0\n",
      "note_off channel=0 note=88 velocity=64 time=0\n",
      "note_off channel=0 note=45 velocity=64 time=1\n",
      "note_on channel=0 note=67 velocity=29 time=0\n",
      "note_off channel=0 note=68 velocity=64 time=0\n",
      "note_on channel=0 note=78 velocity=24 time=0\n",
      "note_off channel=0 note=75 velocity=64 time=1\n",
      "note_off channel=0 note=77 velocity=64 time=0\n",
      "note_on channel=0 note=90 velocity=46 time=0\n",
      "note_on channel=0 note=61 velocity=57 time=1\n",
      "note_on channel=0 note=71 velocity=9 time=0\n",
      "note_off channel=0 note=67 velocity=64 time=1\n",
      "note_on channel=0 note=86 velocity=18 time=1\n",
      "note_on channel=0 note=42 velocity=54 time=1\n",
      "note_off channel=0 note=42 velocity=64 time=2\n",
      "note_on channel=0 note=67 velocity=36 time=0\n",
      "note_off channel=0 note=82 velocity=64 time=0\n",
      "note_off channel=0 note=71 velocity=64 time=1\n",
      "note_off channel=0 note=73 velocity=64 time=0\n",
      "note_on channel=0 note=82 velocity=24 time=0\n",
      "note_on channel=0 note=93 velocity=29 time=0\n",
      "note_on channel=0 note=48 velocity=65 time=1\n",
      "note_on channel=0 note=71 velocity=16 time=0\n",
      "note_off channel=0 note=86 velocity=64 time=0\n",
      "note_on channel=0 note=47 velocity=72 time=1\n",
      "note_off channel=0 note=48 velocity=64 time=0\n",
      "note_off channel=0 note=91 velocity=64 time=1\n",
      "note_off channel=0 note=47 velocity=64 time=1\n",
      "note_on channel=0 note=49 velocity=71 time=0\n",
      "note_on channel=0 note=75 velocity=29 time=0\n",
      "note_off channel=0 note=49 velocity=64 time=1\n",
      "note_on channel=0 note=50 velocity=78 time=0\n",
      "note_off channel=0 note=61 velocity=64 time=0\n",
      "note_off channel=0 note=84 velocity=64 time=0\n",
      "note_off channel=0 note=50 velocity=64 time=1\n",
      "note_on channel=0 note=53 velocity=75 time=0\n",
      "note_off channel=0 note=71 velocity=64 time=0\n",
      "note_on channel=0 note=57 velocity=76 time=1\n",
      "note_on channel=0 note=61 velocity=23 time=0\n",
      "note_off channel=0 note=67 velocity=64 time=0\n",
      "note_on channel=0 note=81 velocity=39 time=0\n",
      "note_off channel=0 note=82 velocity=64 time=0\n",
      "note_on channel=0 note=91 velocity=42 time=0\n",
      "note_off channel=0 note=53 velocity=64 time=1\n",
      "note_on channel=0 note=69 velocity=79 time=0\n",
      "note_on channel=0 note=77 velocity=28 time=0\n",
      "note_on channel=0 note=82 velocity=18 time=0\n",
      "note_on channel=0 note=95 velocity=31 time=0\n",
      "note_off channel=0 note=78 velocity=64 time=1\n",
      "note_off channel=0 note=80 velocity=64 time=0\n",
      "note_on channel=0 note=85 velocity=31 time=0\n",
      "note_on channel=0 note=98 velocity=13 time=0\n",
      "note_on channel=0 note=100 velocity=18 time=0\n",
      "note_off channel=0 note=91 velocity=64 time=1\n",
      "note_off channel=0 note=61 velocity=64 time=1\n",
      "note_off channel=0 note=81 velocity=64 time=1\n",
      "note_off channel=0 note=85 velocity=64 time=0\n",
      "note_off channel=0 note=75 velocity=64 time=1\n",
      "note_on channel=0 note=76 velocity=76 time=0\n",
      "note_off channel=0 note=77 velocity=64 time=0\n",
      "note_off channel=0 note=82 velocity=64 time=0\n",
      "note_on channel=0 note=83 velocity=35 time=0\n",
      "note_on channel=0 note=85 velocity=58 time=0\n",
      "note_on channel=0 note=64 velocity=81 time=1\n",
      "note_on channel=0 note=73 velocity=42 time=0\n",
      "note_on channel=0 note=84 velocity=20 time=0\n",
      "note_on channel=0 note=91 velocity=52 time=0\n",
      "note_on channel=0 note=46 velocity=70 time=1\n",
      "note_on channel=0 note=79 velocity=43 time=0\n",
      "note_off channel=0 note=98 velocity=64 time=0\n",
      "note_on channel=0 note=45 velocity=77 time=1\n",
      "note_off channel=0 note=46 velocity=64 time=0\n",
      "note_on channel=0 note=44 velocity=78 time=1\n",
      "note_off channel=0 note=45 velocity=64 time=0\n",
      "note_on channel=0 note=63 velocity=70 time=0\n",
      "note_off channel=0 note=64 velocity=64 time=0\n",
      "note_off channel=0 note=79 velocity=64 time=1\n",
      "note_on channel=0 note=80 velocity=32 time=0\n",
      "note_off channel=0 note=90 velocity=64 time=0\n",
      "note_off channel=0 note=100 velocity=64 time=1\n",
      "note_off channel=0 note=63 velocity=64 time=1\n",
      "note_off channel=0 note=80 velocity=64 time=0\n",
      "note_off channel=0 note=44 velocity=64 time=1\n",
      "note_on channel=0 note=61 velocity=40 time=0\n",
      "note_on channel=0 note=80 velocity=32 time=0\n",
      "note_off channel=0 note=89 velocity=64 time=0\n",
      "note_on channel=0 note=65 velocity=31 time=1\n",
      "note_on channel=0 note=89 velocity=36 time=0\n",
      "note_off channel=0 note=93 velocity=64 time=0\n",
      "note_off channel=0 note=61 velocity=64 time=1\n",
      "note_off channel=0 note=80 velocity=64 time=0\n",
      "note_off channel=0 note=83 velocity=64 time=0\n",
      "note_on channel=0 note=61 velocity=71 time=1\n",
      "note_on channel=0 note=42 velocity=56 time=4\n",
      "note_off channel=0 note=89 velocity=64 time=0\n",
      "note_on channel=0 note=89 velocity=29 time=1\n",
      "note_off channel=0 note=87 velocity=64 time=1\n",
      "note_off channel=0 note=65 velocity=64 time=1\n",
      "note_off channel=0 note=89 velocity=64 time=0\n",
      "note_on channel=0 note=65 velocity=66 time=2\n",
      "note_on channel=0 note=80 velocity=84 time=0\n",
      "note_on channel=0 note=83 velocity=34 time=0\n",
      "note_on channel=0 note=87 velocity=52 time=0\n",
      "note_off channel=0 note=57 velocity=64 time=3\n",
      "note_on channel=0 note=58 velocity=67 time=0\n",
      "note_off channel=0 note=69 velocity=64 time=1\n",
      "note_on channel=0 note=70 velocity=73 time=0\n",
      "note_off channel=0 note=83 velocity=64 time=0\n",
      "note_on channel=0 note=89 velocity=41 time=0\n",
      "note_off channel=0 note=76 velocity=64 time=1\n",
      "note_off channel=0 note=95 velocity=64 time=0\n",
      "note_on channel=0 note=86 velocity=47 time=2\n",
      "note_on channel=0 note=68 velocity=33 time=1\n",
      "note_on channel=0 note=71 velocity=62 time=0\n",
      "note_on channel=0 note=83 velocity=73 time=0\n",
      "note_off channel=0 note=84 velocity=64 time=0\n",
      "note_off channel=0 note=85 velocity=64 time=0\n",
      "note_off channel=0 note=89 velocity=64 time=0\n",
      "note_on channel=0 note=90 velocity=37 time=0\n",
      "note_off channel=0 note=91 velocity=64 time=0\n",
      "note_off channel=0 note=42 velocity=64 time=1\n",
      "note_off channel=0 note=58 velocity=64 time=0\n",
      "note_on channel=0 note=60 velocity=73 time=0\n",
      "note_off channel=0 note=61 velocity=64 time=0\n",
      "note_off channel=0 note=70 velocity=64 time=0\n",
      "note_on channel=0 note=88 velocity=43 time=0\n",
      "note_off channel=0 note=60 velocity=64 time=1\n",
      "note_off channel=0 note=71 velocity=64 time=0\n",
      "note_on channel=0 note=72 velocity=77 time=0\n",
      "note_off channel=0 note=73 velocity=64 time=0\n",
      "note_on channel=0 note=79 velocity=46 time=0\n",
      "note_on channel=0 note=89 velocity=76 time=0\n",
      "note_on channel=0 note=96 velocity=21 time=0\n",
      "note_on channel=0 note=47 velocity=73 time=1\n",
      "note_on channel=0 note=62 velocity=63 time=0\n",
      "note_off channel=0 note=68 velocity=64 time=0\n",
      "note_on channel=0 note=75 velocity=46 time=0\n",
      "note_off channel=0 note=90 velocity=64 time=0\n",
      "note_off channel=0 note=47 velocity=64 time=1\n",
      "note_on channel=0 note=48 velocity=84 time=0\n",
      "note_off channel=0 note=79 velocity=64 time=0\n",
      "note_on channel=0 note=85 velocity=75 time=0\n",
      "note_on channel=0 note=90 velocity=27 time=0\n",
      "note_on channel=0 note=61 velocity=81 time=1\n",
      "note_off channel=0 note=62 velocity=64 time=0\n",
      "note_off channel=0 note=65 velocity=64 time=0\n",
      "note_off channel=0 note=72 velocity=64 time=0\n",
      "note_on channel=0 note=79 velocity=36 time=0\n",
      "note_off channel=0 note=88 velocity=64 time=0\n",
      "note_on channel=0 note=68 velocity=27 time=1\n",
      "note_on channel=0 note=84 velocity=32 time=0\n",
      "note_off channel=0 note=86 velocity=64 time=0\n",
      "note_off channel=0 note=96 velocity=64 time=0\n",
      "note_off channel=0 note=48 velocity=64 time=1\n",
      "note_on channel=0 note=65 velocity=50 time=0\n",
      "note_off channel=0 note=75 velocity=64 time=0\n",
      "note_on channel=0 note=75 velocity=23 time=1\n",
      "note_off channel=0 note=79 velocity=64 time=0\n",
      "note_off channel=0 note=90 velocity=64 time=0\n",
      "note_on channel=0 note=91 velocity=19 time=0\n",
      "note_off channel=0 note=68 velocity=64 time=3\n",
      "note_off channel=0 note=84 velocity=64 time=0\n",
      "note_on channel=0 note=53 velocity=35 time=1\n",
      "note_on channel=0 note=88 velocity=46 time=0\n",
      "note_on channel=0 note=90 velocity=41 time=0\n",
      "note_off channel=0 note=91 velocity=64 time=0\n",
      "note_on channel=0 note=45 velocity=43 time=1\n",
      "note_on channel=0 note=72 velocity=76 time=0\n",
      "note_off channel=0 note=89 velocity=64 time=0\n",
      "note_on channel=0 note=91 velocity=30 time=0\n",
      "note_on channel=0 note=96 velocity=13 time=0\n",
      "note_off channel=0 note=53 velocity=64 time=1\n",
      "note_on channel=0 note=54 velocity=34 time=0\n",
      "note_on channel=0 note=60 velocity=69 time=0\n",
      "note_off channel=0 note=61 velocity=64 time=0\n",
      "note_off channel=0 note=87 velocity=64 time=0\n",
      "note_on channel=0 note=89 velocity=73 time=0\n",
      "note_off channel=0 note=45 velocity=64 time=1\n",
      "note_off channel=0 note=83 velocity=64 time=0\n",
      "note_on channel=0 note=87 velocity=64 time=0\n",
      "note_off channel=0 note=88 velocity=64 time=0\n",
      "note_off channel=0 note=91 velocity=64 time=0\n",
      "note_on channel=0 note=59 velocity=56 time=1\n",
      "note_off channel=0 note=60 velocity=64 time=0\n",
      "note_on channel=0 note=71 velocity=71 time=0\n",
      "note_off channel=0 note=72 velocity=64 time=0\n",
      "note_on channel=0 note=78 velocity=52 time=0\n",
      "note_on channel=0 note=83 velocity=77 time=0\n",
      "note_off channel=0 note=96 velocity=64 time=0\n",
      "note_on channel=0 note=44 velocity=32 time=1\n",
      "note_off channel=0 note=54 velocity=64 time=0\n",
      "note_off channel=0 note=59 velocity=64 time=1\n",
      "note_on channel=0 note=60 velocity=60 time=0\n",
      "note_off channel=0 note=71 velocity=64 time=0\n",
      "note_on channel=0 note=72 velocity=80 time=0\n",
      "note_off channel=0 note=78 velocity=64 time=0\n",
      "note_on channel=0 note=79 velocity=49 time=0\n",
      "note_on channel=0 note=88 velocity=41 time=0\n",
      "note_off channel=0 note=90 velocity=64 time=0\n",
      "note_off channel=0 note=44 velocity=64 time=1\n",
      "note_off channel=0 note=65 velocity=64 time=0\n",
      "note_on channel=0 note=78 velocity=34 time=0\n",
      "note_off channel=0 note=80 velocity=64 time=0\n",
      "note_on channel=0 note=53 velocity=36 time=1\n",
      "note_off channel=0 note=60 velocity=64 time=0\n",
      "note_on channel=0 note=61 velocity=79 time=0\n",
      "note_off channel=0 note=79 velocity=64 time=0\n",
      "note_on channel=0 note=80 velocity=54 time=0\n",
      "note_off channel=0 note=85 velocity=64 time=0\n",
      "note_on channel=0 note=85 velocity=69 time=1\n",
      "note_off channel=0 note=88 velocity=64 time=0\n",
      "note_on channel=0 note=91 velocity=30 time=0\n",
      "note_off channel=0 note=53 velocity=64 time=1\n",
      "note_on channel=0 note=54 velocity=33 time=0\n",
      "note_off channel=0 note=72 velocity=64 time=0\n",
      "note_off channel=0 note=75 velocity=64 time=0\n",
      "note_off channel=0 note=78 velocity=64 time=0\n",
      "note_on channel=0 note=79 velocity=37 time=0\n",
      "note_on channel=0 note=88 velocity=36 time=1\n",
      "note_off channel=0 note=54 velocity=64 time=1\n",
      "note_off channel=0 note=88 velocity=64 time=1\n",
      "note_off channel=0 note=79 velocity=64 time=1\n",
      "note_on channel=0 note=82 velocity=21 time=0\n",
      "note_off channel=0 note=91 velocity=64 time=0\n",
      "note_on channel=0 note=53 velocity=33 time=1\n",
      "note_on channel=0 note=60 velocity=70 time=0\n",
      "note_off channel=0 note=61 velocity=64 time=0\n",
      "note_on channel=0 note=79 velocity=30 time=0\n",
      "note_off channel=0 note=83 velocity=64 time=0\n",
      "note_on channel=0 note=91 velocity=40 time=0\n",
      "note_on channel=0 note=59 velocity=67 time=1\n",
      "note_off channel=0 note=60 velocity=64 time=0\n",
      "note_on channel=0 note=78 velocity=46 time=0\n",
      "note_off channel=0 note=80 velocity=64 time=0\n",
      "note_on channel=0 note=83 velocity=60 time=0\n",
      "note_off channel=0 note=53 velocity=64 time=1\n",
      "note_on channel=0 note=73 velocity=35 time=0\n",
      "note_off channel=0 note=79 velocity=64 time=0\n",
      "note_on channel=0 note=80 velocity=77 time=0\n",
      "note_off channel=0 note=82 velocity=64 time=0\n",
      "note_off channel=0 note=91 velocity=64 time=1\n",
      "note_on channel=0 note=65 velocity=41 time=1\n",
      "note_on channel=0 note=77 velocity=51 time=0\n",
      "note_on channel=0 note=91 velocity=16 time=0\n",
      "note_off channel=0 note=73 velocity=64 time=1\n",
      "note_off channel=0 note=78 velocity=64 time=0\n",
      "note_on channel=0 note=96 velocity=17 time=0\n",
      "note_on channel=0 note=46 velocity=73 time=1\n",
      "note_off channel=0 note=65 velocity=64 time=0\n",
      "note_on channel=0 note=45 velocity=77 time=1\n",
      "note_off channel=0 note=46 velocity=64 time=0\n",
      "note_on channel=0 note=63 velocity=49 time=0\n",
      "note_on channel=0 note=67 velocity=46 time=0\n",
      "note_on channel=0 note=69 velocity=45 time=0\n",
      "note_on channel=0 note=78 velocity=47 time=0\n",
      "note_on channel=0 note=44 velocity=78 time=1\n",
      "note_off channel=0 note=45 velocity=64 time=0\n",
      "note_on channel=0 note=73 velocity=29 time=0\n",
      "note_off channel=0 note=77 velocity=64 time=0\n",
      "note_off channel=0 note=96 velocity=64 time=0\n",
      "note_off channel=0 note=69 velocity=64 time=1\n",
      "note_on channel=0 note=70 velocity=57 time=0\n",
      "note_on channel=0 note=77 velocity=55 time=0\n",
      "note_off channel=0 note=83 velocity=64 time=0\n",
      "note_on channel=0 note=58 velocity=67 time=1\n",
      "note_off channel=0 note=59 velocity=64 time=0\n",
      "note_off channel=0 note=63 velocity=64 time=0\n",
      "note_off channel=0 note=78 velocity=64 time=0\n",
      "note_on channel=0 note=83 velocity=65 time=0\n",
      "note_on channel=0 note=86 velocity=27 time=0\n",
      "note_on channel=0 note=43 velocity=74 time=1\n",
      "note_off channel=0 note=44 velocity=64 time=0\n",
      "note_off channel=0 note=91 velocity=64 time=0\n",
      "note_off channel=0 note=87 velocity=64 time=1\n",
      "note_on channel=0 note=91 velocity=9 time=0\n",
      "note_on channel=0 note=65 velocity=21 time=1\n",
      "note_off channel=0 note=67 velocity=64 time=0\n",
      "note_on channel=0 note=71 velocity=38 time=1\n",
      "note_on channel=0 note=88 velocity=28 time=0\n",
      "note_off channel=0 note=70 velocity=64 time=1\n",
      "note_off channel=0 note=91 velocity=64 time=0\n",
      "note_off channel=0 note=58 velocity=64 time=1\n",
      "note_on channel=0 note=59 velocity=59 time=0\n",
      "note_off channel=0 note=86 velocity=64 time=0\n",
      "note_on channel=0 note=87 velocity=60 time=0\n",
      "note_on channel=0 note=90 velocity=39 time=0\n",
      "note_on channel=0 note=70 velocity=48 time=1\n",
      "note_off channel=0 note=71 velocity=64 time=0\n",
      "note_off channel=0 note=89 velocity=64 time=0\n",
      "note_off channel=0 note=43 velocity=64 time=1\n",
      "note_on channel=0 note=78 velocity=50 time=1\n",
      "note_on channel=0 note=68 velocity=16 time=1\n",
      "note_off channel=0 note=70 velocity=64 time=0\n",
      "note_on channel=0 note=71 velocity=67 time=0\n",
      "note_on channel=0 note=82 velocity=30 time=2\n",
      "note_off channel=0 note=82 velocity=64 time=2\n",
      "note_off channel=0 note=88 velocity=64 time=4\n",
      "note_off channel=0 note=73 velocity=64 time=3\n",
      "note_on channel=0 note=88 velocity=32 time=1\n",
      "note_on channel=0 note=82 velocity=28 time=1\n",
      "note_on channel=0 note=46 velocity=68 time=1\n",
      "note_off channel=0 note=59 velocity=64 time=0\n",
      "note_on channel=0 note=64 velocity=81 time=0\n",
      "note_off channel=0 note=65 velocity=64 time=0\n",
      "note_off channel=0 note=68 velocity=64 time=0\n",
      "note_off channel=0 note=83 velocity=64 time=0\n",
      "note_on channel=0 note=84 velocity=19 time=0\n",
      "note_on channel=0 note=67 velocity=65 time=1\n",
      "note_off channel=0 note=71 velocity=64 time=0\n",
      "note_on channel=0 note=73 velocity=41 time=0\n",
      "note_off channel=0 note=78 velocity=64 time=0\n",
      "note_off channel=0 note=88 velocity=64 time=0\n",
      "note_on channel=0 note=45 velocity=77 time=1\n",
      "note_off channel=0 note=46 velocity=64 time=0\n",
      "note_on channel=0 note=71 velocity=44 time=0\n",
      "note_off channel=0 note=82 velocity=64 time=0\n",
      "note_on channel=0 note=44 velocity=78 time=1\n",
      "note_off channel=0 note=45 velocity=64 time=0\n",
      "note_on channel=0 note=63 velocity=72 time=0\n",
      "note_off channel=0 note=64 velocity=64 time=0\n",
      "note_on channel=0 note=69 velocity=31 time=1\n",
      "note_off channel=0 note=84 velocity=64 time=0\n",
      "note_off channel=0 note=87 velocity=64 time=0\n",
      "note_on channel=0 note=66 velocity=33 time=1\n",
      "note_off channel=0 note=67 velocity=64 time=0\n",
      "note_on channel=0 note=87 velocity=9 time=0\n",
      "note_on channel=0 note=88 velocity=20 time=0\n",
      "note_off channel=0 note=69 velocity=64 time=1\n",
      "note_off channel=0 note=44 velocity=64 time=1\n",
      "note_on channel=0 note=46 velocity=65 time=0\n",
      "note_on channel=0 note=61 velocity=44 time=0\n",
      "note_off channel=0 note=63 velocity=64 time=0\n",
      "note_off channel=0 note=66 velocity=64 time=0\n",
      "note_on channel=0 note=67 velocity=23 time=0\n",
      "note_on channel=0 note=82 velocity=14 time=0\n",
      "note_on channel=0 note=41 velocity=57 time=1\n",
      "note_off channel=0 note=46 velocity=64 time=0\n",
      "note_off channel=0 note=77 velocity=64 time=0\n",
      "note_off channel=0 note=88 velocity=64 time=0\n",
      "note_on channel=0 note=89 velocity=34 time=0\n",
      "note_off channel=0 note=90 velocity=64 time=1\n",
      "note_off channel=0 note=41 velocity=64 time=1\n",
      "note_on channel=0 note=43 velocity=63 time=0\n",
      "note_off channel=0 note=61 velocity=64 time=0\n",
      "note_off channel=0 note=67 velocity=64 time=0\n",
      "note_on channel=0 note=61 velocity=60 time=1\n",
      "note_off channel=0 note=82 velocity=64 time=0\n",
      "note_on channel=0 note=91 velocity=17 time=0\n",
      "note_on channel=0 note=66 velocity=13 time=1\n",
      "note_on channel=0 note=68 velocity=42 time=0\n",
      "note_off channel=0 note=80 velocity=64 time=0\n",
      "note_on channel=0 note=77 velocity=43 time=1\n",
      "note_off channel=0 note=43 velocity=64 time=1\n",
      "note_on channel=0 note=83 velocity=45 time=0\n",
      "note_on channel=0 note=48 velocity=70 time=1\n",
      "note_off channel=0 note=66 velocity=64 time=0\n",
      "note_on channel=0 note=67 velocity=22 time=0\n",
      "note_off channel=0 note=87 velocity=64 time=0\n",
      "note_on channel=0 note=47 velocity=73 time=3\n",
      "note_off channel=0 note=48 velocity=64 time=0\n",
      "note_off channel=0 note=67 velocity=64 time=0\n",
      "note_off channel=0 note=47 velocity=64 time=1\n",
      "note_on channel=0 note=48 velocity=69 time=0\n",
      "note_on channel=0 note=70 velocity=32 time=0\n",
      "note_off channel=0 note=71 velocity=64 time=0\n",
      "note_on channel=0 note=90 velocity=42 time=0\n",
      "note_off channel=0 note=48 velocity=64 time=1\n",
      "note_on channel=0 note=49 velocity=70 time=0\n",
      "note_on channel=0 note=65 velocity=71 time=0\n",
      "note_on channel=0 note=87 velocity=45 time=0\n",
      "note_off channel=0 note=49 velocity=64 time=1\n",
      "note_on channel=0 note=50 velocity=76 time=0\n",
      "note_off channel=0 note=50 velocity=64 time=1\n",
      "note_on channel=0 note=53 velocity=70 time=0\n",
      "note_off channel=0 note=70 velocity=64 time=0\n",
      "note_on channel=0 note=71 velocity=35 time=0\n",
      "note_off channel=0 note=89 velocity=64 time=0\n",
      "note_on channel=0 note=79 velocity=10 time=1\n",
      "note_off channel=0 note=53 velocity=64 time=2\n",
      "note_off channel=0 note=61 velocity=64 time=0\n",
      "note_off channel=0 note=85 velocity=64 time=0\n",
      "note_off channel=0 note=79 velocity=64 time=1\n",
      "note_off channel=0 note=91 velocity=64 time=0\n",
      "note_on channel=0 note=57 velocity=63 time=1\n",
      "note_on channel=0 note=69 velocity=77 time=0\n",
      "note_on channel=0 note=85 velocity=66 time=0\n",
      "note_off channel=0 note=68 velocity=64 time=1\n",
      "note_off channel=0 note=71 velocity=64 time=0\n",
      "note_on channel=0 note=76 velocity=84 time=0\n",
      "note_off channel=0 note=77 velocity=64 time=0\n",
      "note_off channel=0 note=73 velocity=64 time=1\n",
      "note_on channel=0 note=80 velocity=38 time=0\n",
      "note_on channel=0 note=73 velocity=35 time=1\n",
      "note_on channel=0 note=101 velocity=11 time=0\n",
      "note_on channel=0 note=45 velocity=77 time=1\n",
      "note_on channel=0 note=64 velocity=82 time=0\n",
      "note_off channel=0 note=65 velocity=64 time=0\n",
      "note_on channel=0 note=79 velocity=45 time=0\n",
      "note_off channel=0 note=80 velocity=64 time=0\n",
      "note_on channel=0 note=89 velocity=34 time=0\n",
      "note_on channel=0 note=103 velocity=9 time=0\n",
      "note_on channel=0 note=80 velocity=33 time=1\n",
      "note_on channel=0 note=44 velocity=79 time=1\n",
      "note_off channel=0 note=45 velocity=64 time=0\n",
      "note_on channel=0 note=63 velocity=68 time=0\n",
      "note_off channel=0 note=64 velocity=64 time=0\n",
      "note_off channel=0 note=79 velocity=64 time=0\n",
      "note_off channel=0 note=89 velocity=64 time=0\n",
      "note_off channel=0 note=90 velocity=64 time=1\n",
      "note_off channel=0 note=101 velocity=64 time=0\n",
      "note_off channel=0 note=103 velocity=64 time=0\n",
      "note_off channel=0 note=44 velocity=64 time=1\n",
      "note_on channel=0 note=45 velocity=78 time=0\n",
      "note_off channel=0 note=57 velocity=64 time=0\n",
      "note_on channel=0 note=58 velocity=64 time=0\n",
      "note_off channel=0 note=63 velocity=64 time=0\n",
      "note_on channel=0 note=64 velocity=42 time=0\n",
      "note_off channel=0 note=69 velocity=64 time=0\n",
      "note_on channel=0 note=70 velocity=74 time=0\n",
      "note_off channel=0 note=85 velocity=64 time=0\n",
      "note_on channel=0 note=86 velocity=69 time=0\n",
      "note_off channel=0 note=73 velocity=64 time=1\n",
      "note_off channel=0 note=76 velocity=64 time=0\n",
      "note_on channel=0 note=77 velocity=80 time=0\n",
      "note_off channel=0 note=83 velocity=64 time=0\n",
      "note_on channel=0 note=85 velocity=75 time=0\n",
      "note_off channel=0 note=86 velocity=64 time=0\n",
      "note_off channel=0 note=64 velocity=64 time=1\n",
      "note_on channel=0 note=65 velocity=39 time=0\n",
      "note_off channel=0 note=70 velocity=64 time=0\n",
      "note_on channel=0 note=71 velocity=67 time=0\n",
      "note_on channel=0 note=93 velocity=15 time=0\n",
      "note_on channel=0 note=44 velocity=70 time=1\n",
      "note_off channel=0 note=45 velocity=64 time=0\n",
      "note_off channel=0 note=58 velocity=64 time=0\n",
      "note_on channel=0 note=59 velocity=63 time=0\n",
      "note_off channel=0 note=80 velocity=64 time=0\n",
      "note_on channel=0 note=101 velocity=43 time=0\n",
      "note_on channel=0 note=68 velocity=56 time=1\n",
      "note_off channel=0 note=71 velocity=64 time=0\n",
      "note_on channel=0 note=72 velocity=94 time=0\n",
      "note_off channel=0 note=77 velocity=64 time=0\n",
      "note_on channel=0 note=78 velocity=60 time=0\n",
      "note_on channel=0 note=86 velocity=38 time=0\n",
      "note_on channel=0 note=43 velocity=60 time=1\n",
      "note_off channel=0 note=44 velocity=64 time=0\n",
      "note_off channel=0 note=59 velocity=64 time=0\n",
      "note_on channel=0 note=61 velocity=79 time=0\n",
      "note_on channel=0 note=77 velocity=45 time=0\n",
      "note_on channel=0 note=79 velocity=54 time=0\n",
      "note_on channel=0 note=88 velocity=54 time=0\n",
      "note_on channel=0 note=102 velocity=27 time=0\n",
      "note_off channel=0 note=78 velocity=64 time=1\n",
      "note_off channel=0 note=85 velocity=64 time=0\n",
      "note_off channel=0 note=43 velocity=64 time=1\n",
      "note_off channel=0 note=72 velocity=64 time=0\n",
      "note_on channel=0 note=73 velocity=90 time=0\n",
      "note_off channel=0 note=77 velocity=64 time=0\n",
      "note_on channel=0 note=80 velocity=66 time=0\n",
      "note_off channel=0 note=86 velocity=64 time=0\n",
      "note_on channel=0 note=89 velocity=71 time=0\n",
      "note_off channel=0 note=102 velocity=64 time=1\n",
      "note_on channel=0 note=103 velocity=21 time=0\n",
      "note_on channel=0 note=48 velocity=66 time=2\n",
      "note_off channel=0 note=87 velocity=64 time=0\n",
      "note_off channel=0 note=93 velocity=64 time=0\n",
      "note_off channel=0 note=79 velocity=64 time=1\n",
      "note_on channel=0 note=47 velocity=73 time=1\n",
      "note_off channel=0 note=48 velocity=64 time=0\n",
      "note_on channel=0 note=102 velocity=34 time=0\n",
      "note_off channel=0 note=65 velocity=64 time=1\n",
      "note_on channel=0 note=75 velocity=40 time=0\n",
      "note_off channel=0 note=88 velocity=64 time=0\n",
      "note_off channel=0 note=103 velocity=64 time=0\n",
      "note_off channel=0 note=47 velocity=64 time=1\n",
      "note_on channel=0 note=48 velocity=68 time=0\n",
      "note_on channel=0 note=65 velocity=33 time=0\n",
      "note_on channel=0 note=94 velocity=25 time=0\n",
      "note_off channel=0 note=48 velocity=64 time=1\n",
      "note_on channel=0 note=50 velocity=77 time=0\n",
      "note_on channel=0 note=60 velocity=68 time=0\n",
      "note_off channel=0 note=61 velocity=64 time=0\n",
      "note_on channel=0 note=72 velocity=93 time=0\n",
      "note_off channel=0 note=73 velocity=64 time=0\n",
      "note_on channel=0 note=79 velocity=52 time=0\n",
      "note_off channel=0 note=80 velocity=64 time=0\n",
      "note_on channel=0 note=88 velocity=73 time=0\n",
      "note_off channel=0 note=89 velocity=64 time=0\n",
      "note_off channel=0 note=101 velocity=64 time=0\n",
      "note_off channel=0 note=50 velocity=64 time=1\n",
      "note_on channel=0 note=53 velocity=73 time=0\n",
      "note_on channel=0 note=93 velocity=26 time=1\n",
      "note_off channel=0 note=94 velocity=64 time=0\n",
      "note_on channel=0 note=101 velocity=38 time=0\n",
      "note_on channel=0 note=59 velocity=54 time=1\n",
      "note_off channel=0 note=60 velocity=64 time=0\n",
      "note_on channel=0 note=78 velocity=67 time=0\n",
      "note_on channel=0 note=87 velocity=46 time=0\n",
      "note_off channel=0 note=53 velocity=64 time=1\n",
      "note_on channel=0 note=71 velocity=84 time=0\n",
      "note_off channel=0 note=72 velocity=64 time=0\n",
      "note_off channel=0 note=79 velocity=64 time=0\n",
      "note_on channel=0 note=85 velocity=30 time=0\n",
      "note_on channel=0 note=53 velocity=58 time=1\n",
      "note_off channel=0 note=59 velocity=64 time=1\n",
      "note_on channel=0 note=60 velocity=60 time=0\n",
      "note_off channel=0 note=102 velocity=64 time=0\n",
      "note_off channel=0 note=71 velocity=64 time=1\n",
      "note_on channel=0 note=72 velocity=89 time=0\n",
      "note_on channel=0 note=80 velocity=86 time=0\n",
      "note_off channel=0 note=85 velocity=64 time=0\n",
      "note_on channel=0 note=91 velocity=24 time=0\n",
      "note_off channel=0 note=53 velocity=64 time=1\n",
      "note_off channel=0 note=78 velocity=64 time=0\n",
      "note_on channel=0 note=83 velocity=63 time=0\n",
      "note_off channel=0 note=93 velocity=64 time=0\n",
      "note_on channel=0 note=94 velocity=38 time=0\n",
      "note_on channel=0 note=48 velocity=86 time=1\n",
      "note_off channel=0 note=60 velocity=64 time=0\n",
      "note_on channel=0 note=61 velocity=76 time=0\n",
      "note_off channel=0 note=72 velocity=64 time=0\n",
      "note_on channel=0 note=73 velocity=83 time=0\n",
      "note_on channel=0 note=89 velocity=82 time=0\n",
      "note_off channel=0 note=65 velocity=64 time=1\n",
      "note_on channel=0 note=77 velocity=37 time=0\n",
      "note_on channel=0 note=81 velocity=38 time=0\n",
      "note_off channel=0 note=94 velocity=64 time=0\n",
      "note_on channel=0 note=98 velocity=19 time=0\n",
      "note_off channel=0 note=75 velocity=64 time=1\n",
      "note_on channel=0 note=79 velocity=50 time=0\n",
      "note_on channel=0 note=71 velocity=38 time=1\n",
      "note_off channel=0 note=81 velocity=64 time=0\n",
      "note_off channel=0 note=91 velocity=64 time=0\n",
      "note_on channel=0 note=93 velocity=30 time=0\n",
      "note_off channel=0 note=48 velocity=64 time=1\n",
      "note_off channel=0 note=77 velocity=64 time=0\n",
      "note_off channel=0 note=88 velocity=64 time=0\n",
      "note_off channel=0 note=71 velocity=64 time=1\n",
      "note_off channel=0 note=79 velocity=64 time=0\n",
      "note_off channel=0 note=87 velocity=64 time=0\n",
      "note_on channel=0 note=91 velocity=29 time=0\n",
      "note_off channel=0 note=98 velocity=64 time=0\n",
      "note_on channel=0 note=48 velocity=66 time=1\n",
      "note_on channel=0 note=60 velocity=67 time=0\n",
      "note_off channel=0 note=61 velocity=64 time=0\n",
      "note_on channel=0 note=65 velocity=50 time=0\n",
      "note_on channel=0 note=72 velocity=85 time=0\n",
      "note_on channel=0 note=78 velocity=73 time=0\n",
      "note_on channel=0 note=87 velocity=44 time=0\n",
      "note_on channel=0 note=88 velocity=58 time=0\n",
      "note_off channel=0 note=48 velocity=64 time=1\n",
      "note_on channel=0 note=59 velocity=54 time=0\n",
      "note_off channel=0 note=60 velocity=64 time=0\n",
      "note_off channel=0 note=73 velocity=64 time=0\n",
      "note_on channel=0 note=45 velocity=60 time=1\n",
      "note_on channel=0 note=71 velocity=78 time=0\n",
      "note_off channel=0 note=72 velocity=64 time=0\n",
      "note_on channel=0 note=73 velocity=54 time=0\n",
      "note_off channel=0 note=91 velocity=64 time=0\n",
      "note_off channel=0 note=89 velocity=64 time=1\n",
      "note_on channel=0 note=89 velocity=29 time=1\n",
      "note_on channel=0 note=44 velocity=49 time=1\n",
      "note_off channel=0 note=45 velocity=64 time=0\n",
      "note_off channel=0 note=73 velocity=64 time=0\n",
      "note_off channel=0 note=88 velocity=64 time=0\n",
      "note_off channel=0 note=59 velocity=64 time=1\n",
      "note_on channel=0 note=59 velocity=58 time=1\n",
      "note_on channel=0 note=91 velocity=35 time=2\n",
      "note_off channel=0 note=101 velocity=64 time=0\n",
      "note_on channel=0 note=43 velocity=32 time=1\n",
      "note_off channel=0 note=44 velocity=64 time=0\n",
      "note_on channel=0 note=70 velocity=61 time=0\n",
      "note_on channel=0 note=77 velocity=78 time=0\n",
      "note_off channel=0 note=89 velocity=64 time=0\n",
      "note_on channel=0 note=58 velocity=58 time=1\n",
      "note_off channel=0 note=59 velocity=64 time=0\n",
      "note_off channel=0 note=71 velocity=64 time=0\n",
      "note_off channel=0 note=78 velocity=64 time=0\n",
      "note_off channel=0 note=83 velocity=64 time=0\n",
      "note_off channel=0 note=43 velocity=64 time=1\n",
      "note_off channel=0 note=68 velocity=64 time=0\n",
      "note_on channel=0 note=73 velocity=22 time=0\n",
      "note_off channel=0 note=87 velocity=64 time=0\n",
      "note_off channel=0 note=93 velocity=64 time=1\n",
      "note_on channel=0 note=53 velocity=25 time=1\n",
      "note_off channel=0 note=70 velocity=64 time=0\n",
      "note_on channel=0 note=71 velocity=81 time=0\n",
      "note_on channel=0 note=86 velocity=28 time=0\n",
      "note_on channel=0 note=90 velocity=41 time=0\n",
      "note_off channel=0 note=58 velocity=64 time=1\n",
      "note_on channel=0 note=59 velocity=56 time=0\n",
      "note_on channel=0 note=68 velocity=15 time=0\n",
      "note_off channel=0 note=73 velocity=64 time=0\n",
      "note_on channel=0 note=93 velocity=26 time=0\n",
      "note_on channel=0 note=87 velocity=48 time=1\n",
      "note_off channel=0 note=53 velocity=64 time=1\n",
      "note_off channel=0 note=77 velocity=64 time=0\n",
      "note_on channel=0 note=78 velocity=67 time=0\n",
      "note_off channel=0 note=86 velocity=64 time=0\n",
      "note_off channel=0 note=91 velocity=64 time=0\n",
      "note_on channel=0 note=64 velocity=47 time=5\n",
      "note_off channel=0 note=65 velocity=64 time=0\n",
      "note_off channel=0 note=68 velocity=64 time=1\n",
      "note_off channel=0 note=64 velocity=64 time=1\n",
      "note_on channel=0 note=65 velocity=55 time=0\n",
      "note_on channel=0 note=69 velocity=46 time=0\n",
      "note_on channel=0 note=76 velocity=46 time=0\n",
      "note_on channel=0 note=96 velocity=17 time=0\n",
      "note_on channel=0 note=45 velocity=75 time=1\n",
      "note_off channel=0 note=59 velocity=64 time=0\n",
      "note_on channel=0 note=85 velocity=46 time=0\n",
      "note_on channel=0 note=44 velocity=77 time=1\n",
      "note_off channel=0 note=45 velocity=64 time=0\n",
      "note_on channel=0 note=59 velocity=50 time=0\n",
      "note_on channel=0 note=75 velocity=30 time=0\n",
      "note_off channel=0 note=78 velocity=64 time=0\n",
      "note_on channel=0 note=79 velocity=54 time=0\n",
      "note_off channel=0 note=69 velocity=64 time=1\n",
      "note_off channel=0 note=76 velocity=64 time=0\n",
      "note_off channel=0 note=90 velocity=64 time=0\n",
      "note_off channel=0 note=96 velocity=64 time=0\n",
      "note_off channel=0 note=59 velocity=64 time=1\n",
      "note_off channel=0 note=75 velocity=64 time=0\n",
      "note_on channel=0 note=78 velocity=68 time=0\n",
      "note_off channel=0 note=79 velocity=64 time=0\n",
      "note_on channel=0 note=43 velocity=73 time=1\n",
      "note_off channel=0 note=44 velocity=64 time=0\n",
      "note_on channel=0 note=75 velocity=23 time=1\n",
      "note_on channel=0 note=59 velocity=52 time=1\n",
      "note_off channel=0 note=59 velocity=64 time=2\n",
      "note_on channel=0 note=60 velocity=58 time=0\n",
      "note_off channel=0 note=60 velocity=64 time=2\n",
      "note_off channel=0 note=71 velocity=64 time=0\n",
      "note_on channel=0 note=72 velocity=81 time=0\n",
      "note_on channel=0 note=88 velocity=71 time=0\n",
      "note_on channel=0 note=91 velocity=26 time=0\n",
      "note_off channel=0 note=43 velocity=64 time=1\n",
      "note_on channel=0 note=60 velocity=55 time=0\n",
      "note_off channel=0 note=87 velocity=64 time=0\n",
      "note_off channel=0 note=93 velocity=64 time=0\n",
      "note_on channel=0 note=94 velocity=15 time=0\n",
      "note_on channel=0 note=102 velocity=30 time=0\n",
      "note_on channel=0 note=79 velocity=60 time=1\n",
      "note_off channel=0 note=60 velocity=64 time=1\n",
      "note_on channel=0 note=61 velocity=68 time=0\n",
      "note_off channel=0 note=78 velocity=64 time=0\n",
      "note_on channel=0 note=87 velocity=29 time=0\n",
      "note_on channel=0 note=101 velocity=10 time=0\n",
      "note_off channel=0 note=72 velocity=64 time=2\n",
      "note_on channel=0 note=73 velocity=79 time=0\n",
      "note_off channel=0 note=91 velocity=64 time=0\n",
      "note_on channel=0 note=89 velocity=66 time=1\n",
      "note_off channel=0 note=94 velocity=64 time=0\n",
      "note_off channel=0 note=79 velocity=64 time=1\n",
      "note_off channel=0 note=88 velocity=64 time=0\n",
      "note_on channel=0 note=96 velocity=11 time=0\n",
      "note_off channel=0 note=101 velocity=64 time=0\n",
      "note_off channel=0 note=80 velocity=64 time=1\n",
      "note_on channel=0 note=72 velocity=78 time=1\n",
      "note_off channel=0 note=73 velocity=64 time=0\n",
      "note_on channel=0 note=80 velocity=56 time=0\n",
      "note_on channel=0 note=88 velocity=65 time=0\n",
      "note_on channel=0 note=60 velocity=60 time=1\n",
      "note_off channel=0 note=61 velocity=64 time=0\n",
      "note_off channel=0 note=89 velocity=64 time=0\n",
      "note_off channel=0 note=96 velocity=64 time=0\n",
      "note_off channel=0 note=75 velocity=64 time=1\n",
      "note_on channel=0 note=89 velocity=52 time=0\n",
      "note_on channel=0 note=79 velocity=58 time=1\n",
      "note_off channel=0 note=80 velocity=64 time=0\n",
      "note_off channel=0 note=102 velocity=64 time=0\n",
      "note_off channel=0 note=65 velocity=64 time=1\n",
      "note_on channel=0 note=75 velocity=18 time=0\n",
      "note_on channel=0 note=80 velocity=39 time=0\n",
      "note_off channel=0 note=87 velocity=64 time=0\n",
      "note_on channel=0 note=93 velocity=19 time=0\n",
      "note_off channel=0 note=60 velocity=64 time=2\n",
      "note_off channel=0 note=80 velocity=64 time=0\n",
      "note_on channel=0 note=87 velocity=42 time=0\n",
      "note_on channel=0 note=60 velocity=53 time=1\n",
      "note_on channel=0 note=80 velocity=52 time=0\n",
      "note_on channel=0 note=102 velocity=11 time=1\n",
      "note_off channel=0 note=60 velocity=64 time=1\n",
      "note_on channel=0 note=64 velocity=82 time=0\n",
      "note_on channel=0 note=71 velocity=70 time=0\n",
      "note_off channel=0 note=72 velocity=64 time=0\n",
      "note_off channel=0 note=75 velocity=64 time=0\n",
      "note_on channel=0 note=90 velocity=38 time=0\n",
      "note_on channel=0 note=45 velocity=77 time=1\n",
      "note_on channel=0 note=78 velocity=59 time=0\n",
      "note_off channel=0 note=79 velocity=64 time=0\n",
      "note_on channel=0 note=63 velocity=75 time=1\n",
      "note_off channel=0 note=64 velocity=64 time=0\n",
      "note_off channel=0 note=87 velocity=64 time=0\n",
      "note_off channel=0 note=93 velocity=64 time=0\n",
      "note_on channel=0 note=44 velocity=79 time=1\n",
      "note_off channel=0 note=45 velocity=64 time=0\n",
      "note_on channel=0 note=69 velocity=36 time=0\n",
      "note_on channel=0 note=73 velocity=35 time=0\n",
      "note_on channel=0 note=87 velocity=52 time=0\n",
      "note_off channel=0 note=88 velocity=64 time=0\n",
      "note_off channel=0 note=63 velocity=64 time=2\n",
      "note_on channel=0 note=68 velocity=28 time=0\n",
      "note_off channel=0 note=69 velocity=64 time=0\n",
      "note_off channel=0 note=73 velocity=64 time=0\n",
      "note_on channel=0 note=82 velocity=18 time=0\n",
      "note_on channel=0 note=93 velocity=13 time=0\n",
      "note_on channel=0 note=59 velocity=52 time=1\n",
      "note_on channel=0 note=41 velocity=55 time=1\n",
      "note_off channel=0 note=44 velocity=64 time=0\n",
      "note_on channel=0 note=73 velocity=34 time=0\n",
      "note_off channel=0 note=59 velocity=64 time=1\n",
      "note_on channel=0 note=60 velocity=50 time=0\n",
      "note_on channel=0 note=66 velocity=24 time=0\n",
      "note_off channel=0 note=68 velocity=64 time=0\n",
      "note_on channel=0 note=77 velocity=26 time=0\n",
      "note_off channel=0 note=41 velocity=64 time=1\n",
      "note_on channel=0 note=43 velocity=61 time=0\n",
      "note_off channel=0 note=73 velocity=64 time=0\n",
      "note_off channel=0 note=60 velocity=64 time=1\n",
      "note_off channel=0 note=82 velocity=64 time=0\n",
      "note_on channel=0 note=42 velocity=58 time=1\n",
      "note_off channel=0 note=43 velocity=64 time=0\n",
      "note_on channel=0 note=61 velocity=59 time=0\n",
      "note_off channel=0 note=93 velocity=64 time=0\n",
      "note_off channel=0 note=78 velocity=64 time=1\n",
      "note_on channel=0 note=79 velocity=41 time=0\n",
      "note_off channel=0 note=61 velocity=64 time=1\n",
      "note_off channel=0 note=66 velocity=64 time=0\n",
      "note_off channel=0 note=71 velocity=64 time=0\n",
      "note_on channel=0 note=72 velocity=71 time=0\n",
      "note_on channel=0 note=93 velocity=10 time=0\n",
      "note_off channel=0 note=102 velocity=64 time=0\n",
      "note_off channel=0 note=42 velocity=64 time=1\n",
      "note_on channel=0 note=71 velocity=70 time=0\n",
      "note_off channel=0 note=72 velocity=64 time=0\n",
      "note_off channel=0 note=85 velocity=64 time=0\n",
      "note_on channel=0 note=61 velocity=52 time=1\n",
      "note_on channel=0 note=68 velocity=25 time=0\n",
      "note_off channel=0 note=77 velocity=64 time=0\n",
      "note_on channel=0 note=88 velocity=41 time=0\n",
      "note_off channel=0 note=89 velocity=64 time=0\n",
      "note_on channel=0 note=48 velocity=67 time=1\n",
      "note_on channel=0 note=77 velocity=23 time=0\n",
      "note_on channel=0 note=78 velocity=59 time=0\n",
      "note_off channel=0 note=79 velocity=64 time=0\n",
      "note_on channel=0 note=86 velocity=27 time=0\n",
      "note_on channel=0 note=47 velocity=72 time=1\n",
      "note_off channel=0 note=48 velocity=64 time=0\n",
      "note_off channel=0 note=61 velocity=64 time=0\n",
      "note_on channel=0 note=65 velocity=29 time=0\n",
      "note_off channel=0 note=47 velocity=64 time=1\n",
      "note_on channel=0 note=48 velocity=72 time=0\n",
      "note_on channel=0 note=59 velocity=54 time=0\n",
      "note_off channel=0 note=48 velocity=64 time=2\n",
      "note_on channel=0 note=50 velocity=78 time=0\n",
      "note_off channel=0 note=77 velocity=64 time=0\n",
      "note_off channel=0 note=93 velocity=64 time=0\n",
      "note_on channel=0 note=49 velocity=60 time=1\n",
      "note_off channel=0 note=50 velocity=64 time=0\n",
      "note_on channel=0 note=53 velocity=73 time=0\n",
      "note_off channel=0 note=90 velocity=64 time=0\n",
      "note_off channel=0 note=59 velocity=64 time=1\n",
      "note_on channel=0 note=61 velocity=77 time=0\n",
      "note_off channel=0 note=71 velocity=64 time=0\n",
      "note_on channel=0 note=72 velocity=72 time=0\n",
      "note_off channel=0 note=80 velocity=64 time=0\n",
      "note_on channel=0 note=91 velocity=18 time=0\n",
      "note_off channel=0 note=49 velocity=64 time=1\n",
      "note_off channel=0 note=53 velocity=64 time=1\n",
      "note_on channel=0 note=80 velocity=52 time=0\n",
      "note_off channel=0 note=88 velocity=64 time=0\n",
      "note_on channel=0 note=89 velocity=33 time=0\n",
      "note_on channel=0 note=53 velocity=57 time=1\n",
      "note_off channel=0 note=72 velocity=64 time=0\n",
      "note_off channel=0 note=86 velocity=64 time=0\n",
      "note_on channel=0 note=88 velocity=20 time=0\n",
      "note_off channel=0 note=91 velocity=64 time=0\n",
      "note_on channel=0 note=72 velocity=33 time=1\n",
      "note_on channel=0 note=77 velocity=38 time=0\n",
      "note_on channel=0 note=79 velocity=36 time=0\n",
      "note_off channel=0 note=78 velocity=64 time=1\n",
      "note_off channel=0 note=72 velocity=64 time=1\n",
      "note_off channel=0 note=89 velocity=64 time=0\n",
      "note_off channel=0 note=53 velocity=64 time=1\n",
      "note_on channel=0 note=64 velocity=66 time=0\n",
      "note_off channel=0 note=65 velocity=64 time=0\n",
      "note_off channel=0 note=68 velocity=64 time=0\n",
      "note_on channel=0 note=89 velocity=39 time=0\n",
      "note_on channel=0 note=46 velocity=69 time=1\n",
      "note_off channel=0 note=61 velocity=64 time=0\n",
      "note_on channel=0 note=62 velocity=81 time=0\n",
      "note_off channel=0 note=64 velocity=64 time=0\n",
      "note_on channel=0 note=67 velocity=65 time=0\n",
      "note_off channel=0 note=79 velocity=64 time=0\n",
      "note_on channel=0 note=90 velocity=39 time=0\n",
      "note_on channel=0 note=45 velocity=77 time=1\n",
      "note_off channel=0 note=46 velocity=64 time=0\n",
      "note_on channel=0 note=61 velocity=70 time=0\n",
      "note_off channel=0 note=62 velocity=64 time=0\n",
      "note_on channel=0 note=63 velocity=79 time=0\n",
      "note_on channel=0 note=84 velocity=26 time=0\n",
      "note_off channel=0 note=88 velocity=64 time=0\n",
      "note_on channel=0 note=44 velocity=79 time=1\n",
      "note_off channel=0 note=45 velocity=64 time=0\n",
      "note_off channel=0 note=61 velocity=64 time=0\n",
      "note_on channel=0 note=72 velocity=57 time=0\n",
      "note_on channel=0 note=82 velocity=28 time=0\n",
      "note_on channel=0 note=60 velocity=56 time=1\n",
      "note_off channel=0 note=67 velocity=64 time=0\n",
      "note_off channel=0 note=90 velocity=64 time=0\n",
      "note_on channel=0 note=91 velocity=26 time=0\n",
      "note_off channel=0 note=63 velocity=64 time=1\n",
      "note_on channel=0 note=68 velocity=30 time=0\n",
      "note_on channel=0 note=59 velocity=50 time=1\n",
      "note_off channel=0 note=60 velocity=64 time=0\n",
      "note_on channel=0 note=83 velocity=51 time=0\n",
      "note_on channel=0 note=88 velocity=32 time=0\n",
      "note_off channel=0 note=44 velocity=64 time=1\n",
      "note_on channel=0 note=65 velocity=30 time=0\n",
      "note_on channel=0 note=71 velocity=52 time=0\n",
      "note_off channel=0 note=72 velocity=64 time=0\n",
      "note_off channel=0 note=84 velocity=64 time=0\n",
      "note_on channel=0 note=86 velocity=12 time=0\n",
      "note_off channel=0 note=89 velocity=64 time=0\n",
      "note_off channel=0 note=59 velocity=64 time=1\n",
      "note_on channel=0 note=60 velocity=51 time=0\n",
      "note_off channel=0 note=68 velocity=64 time=0\n",
      "note_on channel=0 note=78 velocity=25 time=0\n",
      "note_on channel=0 note=43 velocity=62 time=2\n",
      "note_off channel=0 note=60 velocity=64 time=0\n",
      "note_off channel=0 note=65 velocity=64 time=0\n",
      "note_off channel=0 note=82 velocity=64 time=0\n",
      "note_on channel=0 note=61 velocity=58 time=1\n",
      "note_on channel=0 note=65 velocity=28 time=0\n",
      "note_off channel=0 note=78 velocity=64 time=0\n",
      "note_on channel=0 note=42 velocity=55 time=1\n",
      "note_off channel=0 note=43 velocity=64 time=0\n",
      "note_off channel=0 note=71 velocity=64 time=0\n",
      "note_on channel=0 note=72 velocity=55 time=0\n",
      "note_off channel=0 note=86 velocity=64 time=0\n",
      "note_off channel=0 note=61 velocity=64 time=1\n",
      "note_on channel=0 note=62 velocity=52 time=0\n",
      "note_off channel=0 note=91 velocity=64 time=0\n",
      "note_off channel=0 note=42 velocity=64 time=1\n",
      "note_on channel=0 note=79 velocity=34 time=0\n",
      "note_on channel=0 note=61 velocity=75 time=1\n",
      "note_off channel=0 note=62 velocity=64 time=0\n",
      "note_off channel=0 note=65 velocity=64 time=0\n",
      "note_on channel=0 note=68 velocity=23 time=0\n",
      "note_on channel=0 note=75 velocity=20 time=0\n",
      "note_off channel=0 note=80 velocity=64 time=0\n",
      "note_off channel=0 note=72 velocity=64 time=1\n",
      "note_on channel=0 note=80 velocity=82 time=0\n",
      "note_on channel=0 note=85 velocity=55 time=0\n",
      "note_on channel=0 note=47 velocity=75 time=1\n",
      "note_on channel=0 note=67 velocity=37 time=0\n",
      "note_on channel=0 note=90 velocity=17 time=0\n",
      "note_off channel=0 note=68 velocity=64 time=1\n",
      "note_off channel=0 note=79 velocity=64 time=0\n",
      "note_on channel=0 note=84 velocity=25 time=0\n",
      "note_on channel=0 note=91 velocity=30 time=0\n",
      "note_off channel=0 note=47 velocity=64 time=1\n",
      "note_on channel=0 note=48 velocity=73 time=0\n",
      "note_on channel=0 note=65 velocity=26 time=0\n",
      "note_off channel=0 note=67 velocity=64 time=0\n",
      "note_off channel=0 note=48 velocity=64 time=1\n",
      "note_on channel=0 note=49 velocity=77 time=0\n",
      "note_on channel=0 note=71 velocity=20 time=0\n",
      "note_off channel=0 note=88 velocity=64 time=0\n",
      "note_off channel=0 note=49 velocity=64 time=1\n",
      "note_on channel=0 note=52 velocity=75 time=0\n",
      "note_off channel=0 note=84 velocity=64 time=0\n",
      "note_off channel=0 note=52 velocity=64 time=1\n",
      "note_on channel=0 note=53 velocity=66 time=0\n",
      "note_on channel=0 note=96 velocity=9 time=0\n",
      "note_on channel=0 note=50 velocity=57 time=1\n",
      "note_off channel=0 note=53 velocity=64 time=0\n",
      "note_off channel=0 note=65 velocity=64 time=0\n",
      "note_off channel=0 note=75 velocity=64 time=0\n",
      "note_on channel=0 note=89 velocity=70 time=0\n",
      "note_off channel=0 note=50 velocity=64 time=2\n",
      "note_on channel=0 note=53 velocity=60 time=0\n",
      "note_off channel=0 note=71 velocity=64 time=0\n",
      "note_on channel=0 note=93 velocity=45 time=0\n",
      "note_off channel=0 note=96 velocity=64 time=0\n",
      "note_on channel=0 note=71 velocity=17 time=1\n",
      "note_off channel=0 note=77 velocity=64 time=1\n",
      "note_off channel=0 note=53 velocity=64 time=1\n",
      "note_on channel=0 note=48 velocity=87 time=1\n",
      "note_off channel=0 note=71 velocity=64 time=0\n",
      "note_off channel=0 note=90 velocity=64 time=0\n",
      "note_on channel=0 note=76 velocity=41 time=1\n",
      "note_on channel=0 note=84 velocity=27 time=0\n",
      "note_on channel=0 note=90 velocity=30 time=0\n",
      "note_on channel=0 note=78 velocity=40 time=1\n",
      "note_off channel=0 note=76 velocity=64 time=1\n",
      "note_off channel=0 note=90 velocity=64 time=0\n",
      "note_on channel=0 note=46 velocity=70 time=1\n",
      "note_off channel=0 note=48 velocity=64 time=0\n",
      "note_on channel=0 note=68 velocity=30 time=0\n",
      "note_on channel=0 note=82 velocity=37 time=0\n",
      "note_off channel=0 note=83 velocity=64 time=0\n",
      "note_off channel=0 note=84 velocity=64 time=0\n",
      "note_on channel=0 note=65 velocity=33 time=1\n",
      "note_off channel=0 note=46 velocity=64 time=1\n",
      "note_on channel=0 note=47 velocity=69 time=0\n",
      "note_on channel=0 note=71 velocity=43 time=0\n",
      "note_on channel=0 note=75 velocity=50 time=0\n",
      "note_off channel=0 note=78 velocity=64 time=0\n",
      "note_off channel=0 note=47 velocity=64 time=1\n",
      "note_on channel=0 note=90 velocity=29 time=2\n",
      "note_on channel=0 note=45 velocity=60 time=1\n",
      "note_on channel=0 note=77 velocity=37 time=0\n",
      "note_on channel=0 note=54 velocity=33 time=1\n",
      "note_off channel=0 note=85 velocity=64 time=0\n",
      "note_off channel=0 note=91 velocity=64 time=0\n",
      "note_on channel=0 note=44 velocity=52 time=1\n",
      "note_off channel=0 note=45 velocity=64 time=0\n",
      "note_off channel=0 note=82 velocity=64 time=1\n",
      "note_on channel=0 note=83 velocity=48 time=0\n",
      "note_on channel=0 note=84 velocity=45 time=0\n",
      "note_off channel=0 note=54 velocity=64 time=1\n",
      "note_on channel=0 note=54 velocity=34 time=1\n",
      "note_on channel=0 note=43 velocity=29 time=1\n",
      "note_off channel=0 note=44 velocity=64 time=0\n",
      "note_off channel=0 note=68 velocity=64 time=0\n",
      "note_on channel=0 note=53 velocity=35 time=1\n",
      "note_off channel=0 note=54 velocity=64 time=0\n",
      "note_off channel=0 note=43 velocity=64 time=2\n",
      "note_off channel=0 note=53 velocity=64 time=0\n",
      "note_on channel=0 note=54 velocity=31 time=0\n",
      "note_on channel=0 note=68 velocity=18 time=1\n",
      "note_off channel=0 note=54 velocity=64 time=1\n",
      "note_on channel=0 note=42 velocity=24 time=2\n",
      "note_on channel=0 note=53 velocity=28 time=0\n",
      "note_off channel=0 note=65 velocity=64 time=2\n",
      "note_off channel=0 note=68 velocity=64 time=0\n",
      "note_on channel=0 note=86 velocity=24 time=0\n",
      "note_off channel=0 note=42 velocity=64 time=1\n",
      "note_off channel=0 note=53 velocity=64 time=0\n",
      "note_on channel=0 note=65 velocity=28 time=0\n",
      "note_on channel=0 note=68 velocity=47 time=0\n",
      "note_off channel=0 note=87 velocity=64 time=0\n",
      "note_off channel=0 note=89 velocity=64 time=1\n",
      "note_off channel=0 note=86 velocity=64 time=1\n",
      "note_on channel=0 note=89 velocity=70 time=0\n",
      "note_on channel=0 note=95 velocity=49 time=1\n",
      "note_off channel=0 note=65 velocity=64 time=1\n",
      "note_off channel=0 note=77 velocity=64 time=0\n",
      "note_on channel=0 note=78 velocity=48 time=0\n",
      "note_on channel=0 note=91 velocity=20 time=0\n",
      "note_on channel=0 note=46 velocity=72 time=1\n",
      "note_on channel=0 note=67 velocity=46 time=0\n",
      "note_off channel=0 note=68 velocity=64 time=0\n",
      "note_on channel=0 note=69 velocity=49 time=0\n",
      "note_off channel=0 note=71 velocity=64 time=0\n",
      "note_on channel=0 note=45 velocity=77 time=1\n",
      "note_off channel=0 note=46 velocity=64 time=0\n",
      "note_on channel=0 note=71 velocity=50 time=0\n",
      "note_off channel=0 note=90 velocity=64 time=0\n",
      "note_on channel=0 note=44 velocity=78 time=1\n",
      "note_off channel=0 note=45 velocity=64 time=0\n",
      "note_off channel=0 note=69 velocity=64 time=0\n",
      "note_on channel=0 note=77 velocity=39 time=1\n",
      "note_off channel=0 note=78 velocity=64 time=0\n",
      "note_off channel=0 note=91 velocity=64 time=0\n",
      "note_off channel=0 note=95 velocity=64 time=0\n",
      "note_on channel=0 note=65 velocity=35 time=1\n",
      "note_off channel=0 note=67 velocity=64 time=0\n",
      "note_on channel=0 note=68 velocity=55 time=0\n",
      "note_on channel=0 note=43 velocity=73 time=1\n",
      "note_off channel=0 note=44 velocity=64 time=0\n",
      "note_off channel=0 note=75 velocity=64 time=1\n",
      "note_on channel=0 note=82 velocity=37 time=3\n",
      "note_off channel=0 note=83 velocity=64 time=1\n",
      "note_off channel=0 note=43 velocity=64 time=2\n",
      "note_on channel=0 note=75 velocity=16 time=0\n",
      "note_off channel=0 note=82 velocity=64 time=0\n",
      "note_on channel=0 note=82 velocity=31 time=1\n",
      "note_on channel=0 note=91 velocity=11 time=0\n",
      "note_off channel=0 note=82 velocity=64 time=2\n",
      "note_off channel=0 note=91 velocity=64 time=2\n",
      "note_on channel=0 note=91 velocity=10 time=1\n",
      "note_off channel=0 note=89 velocity=64 time=1\n",
      "note_on channel=0 note=90 velocity=46 time=1\n",
      "note_on channel=0 note=89 velocity=48 time=1\n",
      "note_off channel=0 note=91 velocity=64 time=1\n",
      "note_on channel=0 note=60 velocity=74 time=6\n",
      "note_off channel=0 note=61 velocity=64 time=0\n",
      "note_off channel=0 note=65 velocity=64 time=0\n",
      "note_on channel=0 note=74 velocity=38 time=0\n",
      "note_off channel=0 note=75 velocity=64 time=0\n",
      "note_on channel=0 note=78 velocity=31 time=0\n",
      "note_on channel=0 note=82 velocity=62 time=0\n",
      "note_off channel=0 note=84 velocity=64 time=0\n",
      "note_on channel=0 note=91 velocity=24 time=0\n",
      "note_on channel=0 note=57 velocity=53 time=1\n",
      "note_off channel=0 note=60 velocity=64 time=0\n",
      "note_on channel=0 note=61 velocity=90 time=0\n",
      "note_on channel=0 note=84 velocity=44 time=0\n",
      "note_off channel=0 note=61 velocity=64 time=1\n",
      "note_on channel=0 note=62 velocity=95 time=0\n",
      "note_off channel=0 note=74 velocity=64 time=0\n",
      "note_on channel=0 note=75 velocity=35 time=0\n",
      "note_on channel=0 note=88 velocity=33 time=0\n",
      "note_on channel=0 note=61 velocity=71 time=1\n",
      "note_off channel=0 note=62 velocity=64 time=0\n",
      "note_on channel=0 note=63 velocity=95 time=0\n",
      "note_off channel=0 note=78 velocity=64 time=0\n",
      "note_off channel=0 note=84 velocity=64 time=0\n",
      "note_off channel=0 note=91 velocity=64 time=0\n",
      "note_off channel=0 note=57 velocity=64 time=1\n",
      "note_off channel=0 note=61 velocity=64 time=0\n",
      "note_off channel=0 note=71 velocity=64 time=0\n",
      "note_off channel=0 note=82 velocity=64 time=0\n",
      "note_on channel=0 note=83 velocity=34 time=0\n",
      "note_on channel=0 note=71 velocity=52 time=1\n",
      "note_off channel=0 note=89 velocity=64 time=1\n",
      "note_on channel=0 note=73 velocity=18 time=4\n",
      "note_on channel=0 note=82 velocity=28 time=0\n",
      "note_off channel=0 note=83 velocity=64 time=0\n",
      "note_on channel=0 note=50 velocity=15 time=1\n",
      "note_off channel=0 note=50 velocity=64 time=3\n",
      "note_on channel=0 note=83 velocity=64 time=4\n",
      "note_off channel=0 note=82 velocity=64 time=1\n",
      "note_off channel=0 note=73 velocity=64 time=2\n",
      "note_on channel=0 note=85 velocity=14 time=0\n",
      "note_on channel=0 note=73 velocity=46 time=1\n",
      "note_on channel=0 note=62 velocity=76 time=4\n",
      "note_off channel=0 note=63 velocity=64 time=0\n",
      "note_off channel=0 note=80 velocity=64 time=0\n",
      "note_on channel=0 note=61 velocity=66 time=1\n",
      "note_off channel=0 note=62 velocity=64 time=0\n",
      "note_on channel=0 note=63 velocity=78 time=0\n",
      "note_off channel=0 note=61 velocity=64 time=1\n",
      "note_off channel=0 note=85 velocity=64 time=0\n",
      "note_on channel=0 note=61 velocity=87 time=1\n",
      "note_on channel=0 note=80 velocity=86 time=0\n",
      "note_off channel=0 note=63 velocity=64 time=1\n",
      "note_off channel=0 note=73 velocity=64 time=0\n",
      "note_off channel=0 note=75 velocity=64 time=0\n",
      "note_on channel=0 note=85 velocity=41 time=0\n",
      "note_off channel=0 note=88 velocity=64 time=0\n",
      "note_on channel=0 note=89 velocity=44 time=0\n",
      "note_on channel=0 note=57 velocity=51 time=1\n",
      "note_on channel=0 note=75 velocity=44 time=0\n",
      "note_on channel=0 note=78 velocity=33 time=0\n",
      "note_on channel=0 note=84 velocity=37 time=0\n",
      "note_on channel=0 note=63 velocity=89 time=1\n",
      "note_on channel=0 note=88 velocity=25 time=0\n",
      "note_off channel=0 note=71 velocity=64 time=1\n",
      "note_off channel=0 note=84 velocity=64 time=0\n",
      "note_off channel=0 note=90 velocity=64 time=0\n",
      "note_off channel=0 note=57 velocity=64 time=1\n",
      "note_off channel=0 note=61 velocity=64 time=0\n",
      "note_on channel=0 note=71 velocity=41 time=0\n",
      "note_off channel=0 note=75 velocity=64 time=0\n",
      "note_off channel=0 note=78 velocity=64 time=0\n",
      "note_off channel=0 note=89 velocity=64 time=0\n",
      "note_on channel=0 note=90 velocity=16 time=0\n",
      "note_on channel=0 note=82 velocity=29 time=1\n",
      "note_off channel=0 note=82 velocity=64 time=2\n",
      "note_on channel=0 note=91 velocity=38 time=5\n",
      "note_off channel=0 note=88 velocity=64 time=1\n",
      "note_on channel=0 note=89 velocity=78 time=0\n",
      "note_on channel=0 note=62 velocity=76 time=5\n",
      "note_off channel=0 note=63 velocity=64 time=0\n",
      "note_on channel=0 note=56 velocity=11 time=1\n",
      "note_off channel=0 note=62 velocity=64 time=0\n",
      "note_on channel=0 note=63 velocity=79 time=0\n",
      "note_on channel=0 note=61 velocity=68 time=2\n",
      "note_off channel=0 note=61 velocity=64 time=1\n",
      "note_off channel=0 note=63 velocity=64 time=0\n",
      "note_on channel=0 note=64 velocity=70 time=0\n",
      "note_on channel=0 note=62 velocity=76 time=1\n",
      "note_off channel=0 note=64 velocity=64 time=0\n",
      "note_off channel=0 note=56 velocity=64 time=1\n",
      "note_on channel=0 note=61 velocity=73 time=0\n",
      "note_off channel=0 note=62 velocity=64 time=0\n",
      "note_off channel=0 note=77 velocity=64 time=0\n",
      "note_on channel=0 note=63 velocity=78 time=3\n",
      "note_off channel=0 note=61 velocity=64 time=1\n",
      "note_off channel=0 note=68 velocity=64 time=0\n",
      "note_off channel=0 note=71 velocity=64 time=0\n",
      "note_on channel=0 note=32 velocity=24 time=1\n",
      "note_on channel=0 note=87 velocity=40 time=0\n",
      "note_off channel=0 note=90 velocity=64 time=0\n",
      "note_on channel=0 note=102 velocity=10 time=0\n",
      "note_on channel=0 note=71 velocity=10 time=1\n",
      "note_on channel=0 note=77 velocity=45 time=0\n",
      "note_off channel=0 note=32 velocity=64 time=2\n",
      "note_on channel=0 note=61 velocity=70 time=0\n",
      "note_off channel=0 note=63 velocity=64 time=0\n",
      "note_off channel=0 note=102 velocity=64 time=0\n",
      "note_on channel=0 note=30 velocity=18 time=1\n",
      "note_on channel=0 note=65 velocity=52 time=1\n",
      "note_off channel=0 note=71 velocity=64 time=0\n",
      "note_off channel=0 note=87 velocity=64 time=0\n",
      "note_on channel=0 note=68 velocity=20 time=1\n",
      "note_on channel=0 note=87 velocity=43 time=0\n",
      "note_off channel=0 note=30 velocity=64 time=1\n",
      "note_off channel=0 note=93 velocity=64 time=0\n",
      "note_on channel=0 note=32 velocity=21 time=1\n",
      "note_off channel=0 note=83 velocity=64 time=1\n",
      "note_off channel=0 note=91 velocity=64 time=1\n",
      "note_off channel=0 note=32 velocity=64 time=1\n",
      "note_on channel=0 note=91 velocity=27 time=1\n",
      "note_on channel=0 note=93 velocity=16 time=0\n",
      "note_on channel=0 note=95 velocity=46 time=0\n",
      "note_on channel=0 note=83 velocity=49 time=1\n",
      "note_on channel=0 note=71 velocity=19 time=1\n",
      "note_off channel=0 note=91 velocity=64 time=4\n",
      "note_on channel=0 note=75 velocity=34 time=1\n",
      "note_on channel=0 note=91 velocity=26 time=3\n",
      "note_off channel=0 note=68 velocity=64 time=4\n",
      "note_off channel=0 note=61 velocity=64 time=3\n",
      "note_on channel=0 note=62 velocity=65 time=0\n",
      "note_off channel=0 note=65 velocity=64 time=0\n",
      "note_on channel=0 note=66 velocity=60 time=0\n",
      "note_off channel=0 note=71 velocity=64 time=0\n",
      "note_on channel=0 note=96 velocity=27 time=0\n",
      "note_on channel=0 note=57 velocity=68 time=1\n",
      "note_off channel=0 note=62 velocity=64 time=0\n",
      "note_on channel=0 note=63 velocity=71 time=0\n",
      "note_on channel=0 note=68 velocity=59 time=0\n",
      "note_on channel=0 note=71 velocity=45 time=0\n",
      "note_off channel=0 note=75 velocity=64 time=0\n",
      "note_on channel=0 note=79 velocity=46 time=0\n",
      "note_off channel=0 note=80 velocity=64 time=0\n",
      "note_off channel=0 note=89 velocity=64 time=0\n",
      "note_on channel=0 note=90 velocity=39 time=0\n",
      "note_on channel=0 note=92 velocity=10 time=0\n",
      "note_off channel=0 note=66 velocity=64 time=1\n",
      "note_on channel=0 note=80 velocity=85 time=0\n",
      "note_on channel=0 note=89 velocity=51 time=0\n",
      "note_off channel=0 note=63 velocity=64 time=1\n",
      "note_on channel=0 note=64 velocity=61 time=0\n",
      "note_off channel=0 note=79 velocity=64 time=0\n",
      "note_off channel=0 note=90 velocity=64 time=0\n",
      "note_off channel=0 note=93 velocity=64 time=0\n",
      "note_off channel=0 note=57 velocity=64 time=1\n",
      "note_on channel=0 note=63 velocity=66 time=0\n",
      "note_on channel=0 note=61 velocity=78 time=1\n",
      "note_off channel=0 note=63 velocity=64 time=0\n",
      "note_off channel=0 note=64 velocity=64 time=0\n",
      "note_off channel=0 note=96 velocity=64 time=0\n",
      "note_off channel=0 note=68 velocity=64 time=2\n",
      "note_on channel=0 note=93 velocity=24 time=5\n",
      "note_on channel=0 note=53 velocity=45 time=2\n",
      "note_on channel=0 note=75 velocity=48 time=0\n",
      "note_off channel=0 note=71 velocity=64 time=1\n",
      "note_off channel=0 note=77 velocity=64 time=0\n",
      "note_on channel=0 note=82 velocity=63 time=0\n",
      "note_on channel=0 note=90 velocity=32 time=0\n",
      "note_on channel=0 note=96 velocity=16 time=0\n",
      "note_on channel=0 note=69 velocity=38 time=1\n",
      "note_on channel=0 note=71 velocity=28 time=0\n",
      "note_off channel=0 note=83 velocity=64 time=0\n",
      "note_on channel=0 note=84 velocity=40 time=0\n",
      "note_off channel=0 note=85 velocity=64 time=0\n",
      "note_off channel=0 note=92 velocity=64 time=0\n",
      "note_on channel=0 note=49 velocity=26 time=1\n",
      "note_on channel=0 note=77 velocity=29 time=0\n",
      "note_off channel=0 note=91 velocity=64 time=0\n",
      "note_off channel=0 note=53 velocity=64 time=1\n",
      "note_off channel=0 note=75 velocity=64 time=0\n",
      "note_off channel=0 note=84 velocity=64 time=0\n",
      "note_off channel=0 note=90 velocity=64 time=0\n",
      "note_on channel=0 note=91 velocity=9 time=0\n",
      "note_on channel=0 note=65 velocity=46 time=1\n",
      "note_on channel=0 note=68 velocity=14 time=0\n",
      "note_off channel=0 note=69 velocity=64 time=0\n",
      "note_on channel=0 note=75 velocity=14 time=0\n",
      "note_off channel=0 note=82 velocity=64 time=0\n",
      "note_on channel=0 note=83 velocity=28 time=0\n",
      "note_off channel=0 note=96 velocity=64 time=0\n",
      "note_off channel=0 note=49 velocity=64 time=1\n",
      "note_off channel=0 note=68 velocity=64 time=2\n",
      "note_off channel=0 note=75 velocity=64 time=0\n",
      "note_off channel=0 note=91 velocity=64 time=5\n",
      "note_on channel=0 note=50 velocity=38 time=1\n",
      "note_off channel=0 note=89 velocity=64 time=0\n",
      "note_on channel=0 note=89 velocity=38 time=1\n",
      "note_on channel=0 note=90 velocity=34 time=0\n",
      "note_off channel=0 note=50 velocity=64 time=1\n",
      "note_on channel=0 note=64 velocity=82 time=0\n",
      "note_off channel=0 note=65 velocity=64 time=0\n",
      "note_off channel=0 note=71 velocity=64 time=0\n",
      "note_off channel=0 note=77 velocity=64 time=0\n",
      "note_on channel=0 note=45 velocity=77 time=1\n",
      "note_off channel=0 note=61 velocity=64 time=0\n",
      "note_on channel=0 note=77 velocity=35 time=0\n",
      "note_on channel=0 note=84 velocity=14 time=0\n",
      "note_on channel=0 note=61 velocity=71 time=1\n",
      "note_on channel=0 note=63 velocity=77 time=0\n",
      "note_off channel=0 note=64 velocity=64 time=0\n",
      "note_off channel=0 note=83 velocity=64 time=0\n",
      "note_off channel=0 note=93 velocity=64 time=0\n",
      "note_on channel=0 note=44 velocity=79 time=1\n",
      "note_off channel=0 note=45 velocity=64 time=0\n",
      "note_off channel=0 note=61 velocity=64 time=0\n",
      "note_off channel=0 note=77 velocity=64 time=0\n",
      "note_off channel=0 note=90 velocity=64 time=0\n",
      "note_on channel=0 note=91 velocity=24 time=0\n",
      "note_on channel=0 note=61 velocity=75 time=1\n",
      "note_off channel=0 note=63 velocity=64 time=0\n",
      "note_on channel=0 note=71 velocity=24 time=0\n",
      "note_on channel=0 note=77 velocity=51 time=0\n",
      "note_off channel=0 note=84 velocity=64 time=0\n",
      "note_on channel=0 note=65 velocity=32 time=2\n",
      "note_on channel=0 note=41 velocity=56 time=1\n",
      "note_off channel=0 note=44 velocity=64 time=0\n",
      "note_off channel=0 note=41 velocity=64 time=2\n",
      "note_on channel=0 note=43 velocity=61 time=0\n",
      "note_on channel=0 note=83 velocity=55 time=0\n",
      "note_off channel=0 note=65 velocity=64 time=2\n",
      "note_on channel=0 note=68 velocity=27 time=0\n",
      "note_on channel=0 note=42 velocity=55 time=1\n",
      "note_off channel=0 note=43 velocity=64 time=0\n",
      "note_on channel=0 note=65 velocity=72 time=0\n",
      "note_off channel=0 note=42 velocity=64 time=2\n",
      "note_on channel=0 note=48 velocity=68 time=1\n",
      "note_off channel=0 note=91 velocity=64 time=0\n",
      "note_on channel=0 note=47 velocity=73 time=2\n",
      "note_off channel=0 note=48 velocity=64 time=0\n",
      "note_off channel=0 note=68 velocity=64 time=0\n",
      "note_on channel=0 note=91 velocity=24 time=0\n",
      "note_off channel=0 note=47 velocity=64 time=1\n",
      "note_on channel=0 note=48 velocity=71 time=0\n",
      "note_off channel=0 note=71 velocity=64 time=0\n",
      "note_on channel=0 note=75 velocity=26 time=0\n",
      "note_off channel=0 note=48 velocity=64 time=1\n",
      "note_on channel=0 note=49 velocity=70 time=0\n",
      "note_on channel=0 note=68 velocity=35 time=0\n",
      "note_off channel=0 note=49 velocity=64 time=1\n",
      "note_on channel=0 note=50 velocity=77 time=0\n",
      "note_off channel=0 note=50 velocity=64 time=1\n",
      "note_on channel=0 note=53 velocity=74 time=0\n",
      "note_off channel=0 note=91 velocity=64 time=0\n",
      "note_off channel=0 note=53 velocity=64 time=2\n",
      "note_on channel=0 note=90 velocity=34 time=0\n",
      "note_on channel=0 note=53 velocity=59 time=2\n",
      "note_off channel=0 note=89 velocity=64 time=0\n",
      "note_on channel=0 note=71 velocity=22 time=1\n",
      "note_on channel=0 note=101 velocity=21 time=1\n",
      "note_off channel=0 note=53 velocity=64 time=1\n",
      "note_off channel=0 note=68 velocity=64 time=1\n",
      "note_off channel=0 note=71 velocity=64 time=0\n",
      "note_on channel=0 note=89 velocity=69 time=0\n",
      "note_on channel=0 note=45 velocity=77 time=1\n",
      "note_off channel=0 note=61 velocity=64 time=0\n",
      "note_on channel=0 note=64 velocity=83 time=0\n",
      "note_off channel=0 note=65 velocity=64 time=0\n",
      "note_on channel=0 note=67 velocity=63 time=0\n",
      "note_on channel=0 note=91 velocity=32 time=0\n",
      "note_on channel=0 note=63 velocity=76 time=1\n",
      "note_off channel=0 note=64 velocity=64 time=0\n",
      "note_on channel=0 note=44 velocity=79 time=1\n",
      "note_off channel=0 note=45 velocity=64 time=0\n",
      "note_off channel=0 note=67 velocity=64 time=0\n",
      "note_on channel=0 note=69 velocity=34 time=0\n",
      "note_off channel=0 note=75 velocity=64 time=0\n",
      "note_off channel=0 note=90 velocity=64 time=0\n",
      "note_on channel=0 note=61 velocity=78 time=1\n",
      "note_off channel=0 note=63 velocity=64 time=1\n",
      "note_off channel=0 note=69 velocity=64 time=1\n",
      "note_on channel=0 note=71 velocity=47 time=1\n",
      "note_off channel=0 note=44 velocity=64 time=1\n",
      "note_on channel=0 note=43 velocity=59 time=2\n",
      "note_off channel=0 note=101 velocity=64 time=0\n",
      "note_on channel=0 note=54 velocity=23 time=2\n",
      "note_on channel=0 note=42 velocity=57 time=2\n",
      "note_off channel=0 note=43 velocity=64 time=0\n",
      "note_off channel=0 note=54 velocity=64 time=1\n",
      "note_off channel=0 note=61 velocity=64 time=2\n",
      "note_on channel=0 note=62 velocity=58 time=0\n",
      "note_on channel=0 note=84 velocity=20 time=0\n",
      "note_on channel=0 note=61 velocity=83 time=3\n",
      "note_off channel=0 note=62 velocity=64 time=0\n",
      "note_off channel=0 note=77 velocity=64 time=0\n",
      "note_on channel=0 note=77 velocity=40 time=1\n",
      "note_off channel=0 note=42 velocity=64 time=6\n",
      "note_on channel=0 note=82 velocity=46 time=1\n",
      "note_on channel=0 note=75 velocity=49 time=1\n",
      "note_on channel=0 note=88 velocity=42 time=0\n",
      "note_off channel=0 note=91 velocity=64 time=0\n",
      "note_on channel=0 note=47 velocity=77 time=1\n",
      "note_off channel=0 note=61 velocity=64 time=0\n",
      "note_on channel=0 note=64 velocity=65 time=0\n",
      "note_on channel=0 note=78 velocity=35 time=0\n",
      "note_off channel=0 note=84 velocity=64 time=0\n",
      "note_on channel=0 note=93 velocity=18 time=0\n",
      "note_off channel=0 note=47 velocity=64 time=1\n",
      "note_on channel=0 note=48 velocity=86 time=0\n",
      "note_on channel=0 note=73 velocity=74 time=0\n",
      "note_off channel=0 note=83 velocity=64 time=0\n",
      "note_on channel=0 note=84 velocity=29 time=0\n",
      "note_on channel=0 note=91 velocity=13 time=0\n",
      "note_off channel=0 note=64 velocity=64 time=1\n",
      "note_off channel=0 note=75 velocity=64 time=1\n",
      "note_off channel=0 note=78 velocity=64 time=0\n",
      "note_off channel=0 note=82 velocity=64 time=0\n",
      "note_on channel=0 note=83 velocity=47 time=0\n",
      "note_off channel=0 note=88 velocity=64 time=0\n",
      "note_off channel=0 note=48 velocity=64 time=1\n",
      "note_on channel=0 note=61 velocity=66 time=0\n",
      "note_on channel=0 note=65 velocity=36 time=0\n",
      "note_on channel=0 note=68 velocity=25 time=0\n",
      "note_off channel=0 note=91 velocity=64 time=0\n",
      "note_off channel=0 note=93 velocity=64 time=0\n",
      "note_on channel=0 note=48 velocity=63 time=1\n",
      "note_off channel=0 note=48 velocity=64 time=2\n",
      "note_on channel=0 note=49 velocity=50 time=0\n",
      "note_off channel=0 note=49 velocity=64 time=2\n",
      "note_on channel=0 note=53 velocity=32 time=0\n",
      "note_on channel=0 note=75 velocity=49 time=0\n",
      "note_off channel=0 note=65 velocity=64 time=1\n",
      "note_on channel=0 note=88 velocity=20 time=0\n",
      "note_on channel=0 note=44 velocity=36 time=1\n",
      "note_off channel=0 note=53 velocity=64 time=0\n",
      "note_on channel=0 note=54 velocity=34 time=0\n",
      "note_off channel=0 note=89 velocity=64 time=0\n",
      "note_on channel=0 note=65 velocity=24 time=1\n",
      "note_off channel=0 note=44 velocity=64 time=1\n",
      "note_off channel=0 note=54 velocity=64 time=0\n",
      "note_on channel=0 note=44 velocity=32 time=1\n",
      "note_on channel=0 note=53 velocity=33 time=1\n",
      "note_off channel=0 note=44 velocity=64 time=1\n",
      "note_off channel=0 note=88 velocity=64 time=0\n",
      "note_off channel=0 note=53 velocity=64 time=1\n",
      "note_on channel=0 note=91 velocity=11 time=2\n",
      "note_on channel=0 note=41 velocity=15 time=1\n",
      "note_on channel=0 note=54 velocity=27 time=1\n",
      "note_off channel=0 note=41 velocity=64 time=2\n",
      "note_on channel=0 note=82 velocity=28 time=0\n",
      "note_on channel=0 note=88 velocity=28 time=0\n",
      "note_on channel=0 note=53 velocity=26 time=1\n",
      "note_off channel=0 note=54 velocity=64 time=0\n",
      "note_off channel=0 note=83 velocity=64 time=0\n",
      "note_off channel=0 note=68 velocity=64 time=1\n",
      "note_off channel=0 note=91 velocity=64 time=0\n",
      "note_on channel=0 note=78 velocity=34 time=1\n",
      "note_off channel=0 note=53 velocity=64 time=1\n",
      "note_on channel=0 note=54 velocity=34 time=0\n",
      "note_off channel=0 note=82 velocity=64 time=1\n",
      "note_off channel=0 note=88 velocity=64 time=0\n",
      "note_on channel=0 note=89 velocity=69 time=0\n",
      "note_on channel=0 note=94 velocity=23 time=0\n",
      "note_off channel=0 note=54 velocity=64 time=1\n",
      "note_on channel=0 note=57 velocity=43 time=0\n",
      "note_off channel=0 note=65 velocity=64 time=0\n",
      "note_on channel=0 note=69 velocity=45 time=0\n",
      "note_off channel=0 note=77 velocity=64 time=0\n",
      "note_off channel=0 note=78 velocity=64 time=0\n",
      "note_off channel=0 note=84 velocity=64 time=0\n",
      "note_on channel=0 note=91 velocity=22 time=0\n",
      "note_on channel=0 note=93 velocity=22 time=0\n",
      "note_on channel=0 note=96 velocity=16 time=0\n",
      "note_on channel=0 note=102 velocity=15 time=0\n",
      "note_on channel=0 note=45 velocity=77 time=1\n",
      "note_on channel=0 note=67 velocity=49 time=0\n",
      "note_off channel=0 note=71 velocity=64 time=0\n",
      "note_on channel=0 note=84 velocity=49 time=0\n",
      "note_on channel=0 note=90 velocity=29 time=0\n",
      "note_off channel=0 note=57 velocity=64 time=1\n",
      "note_off channel=0 note=61 velocity=64 time=0\n",
      "note_on channel=0 note=71 velocity=31 time=0\n",
      "note_off channel=0 note=94 velocity=64 time=0\n",
      "note_on channel=0 note=44 velocity=77 time=1\n",
      "note_off channel=0 note=45 velocity=64 time=0\n",
      "note_on channel=0 note=61 velocity=72 time=0\n",
      "note_on channel=0 note=78 velocity=32 time=0\n",
      "note_off channel=0 note=93 velocity=64 time=0\n",
      "note_off channel=0 note=102 velocity=64 time=0\n",
      "note_off channel=0 note=69 velocity=64 time=1\n",
      "note_off channel=0 note=71 velocity=64 time=0\n",
      "note_off channel=0 note=96 velocity=64 time=0\n",
      "note_on channel=0 note=43 velocity=74 time=1\n",
      "note_off channel=0 note=44 velocity=64 time=0\n",
      "note_on channel=0 note=71 velocity=36 time=0\n",
      "note_off channel=0 note=75 velocity=64 time=0\n",
      "note_off channel=0 note=90 velocity=64 time=0\n",
      "note_off channel=0 note=91 velocity=64 time=0\n",
      "note_on channel=0 note=54 velocity=26 time=1\n",
      "note_on channel=0 note=75 velocity=14 time=0\n",
      "note_on channel=0 note=93 velocity=46 time=0\n",
      "note_off channel=0 note=84 velocity=64 time=1\n",
      "note_off channel=0 note=95 velocity=64 time=0\n",
      "note_off channel=0 note=67 velocity=64 time=1\n",
      "note_on channel=0 note=77 velocity=27 time=0\n",
      "note_on channel=0 note=84 velocity=15 time=0\n",
      "note_off channel=0 note=78 velocity=64 time=1\n",
      "note_on channel=0 note=90 velocity=12 time=0\n",
      "note_on channel=0 note=65 velocity=68 time=1\n",
      "note_off channel=0 note=75 velocity=64 time=0\n",
      "note_on channel=0 note=82 velocity=30 time=0\n",
      "note_off channel=0 note=77 velocity=64 time=1\n",
      "note_off channel=0 note=87 velocity=64 time=0\n",
      "note_off channel=0 note=43 velocity=64 time=1\n",
      "note_on channel=0 note=44 velocity=34 time=0\n",
      "note_off channel=0 note=54 velocity=64 time=0\n",
      "note_on channel=0 note=68 velocity=36 time=0\n",
      "note_on channel=0 note=70 velocity=36 time=0\n",
      "note_off channel=0 note=71 velocity=64 time=0\n",
      "note_on channel=0 note=75 velocity=33 time=0\n",
      "note_on channel=0 note=91 velocity=11 time=0\n",
      "note_off channel=0 note=90 velocity=64 time=1\n",
      "note_on channel=0 note=99 velocity=18 time=0\n",
      "note_off channel=0 note=44 velocity=64 time=1\n",
      "note_on channel=0 note=83 velocity=42 time=0\n",
      "note_off channel=0 note=70 velocity=64 time=1\n",
      "note_on channel=0 note=71 velocity=40 time=0\n",
      "note_off channel=0 note=82 velocity=64 time=0\n",
      "note_off channel=0 note=91 velocity=64 time=1\n",
      "note_off channel=0 note=84 velocity=64 time=1\n",
      "note_off channel=0 note=89 velocity=64 time=0\n",
      "note_on channel=0 note=89 velocity=35 time=1\n",
      "note_off channel=0 note=99 velocity=64 time=0\n",
      "note_off channel=0 note=71 velocity=64 time=2\n",
      "note_on channel=0 note=88 velocity=40 time=0\n",
      "note_off channel=0 note=89 velocity=64 time=0\n",
      "note_on channel=0 note=91 velocity=34 time=1\n",
      "note_on channel=0 note=79 velocity=50 time=1\n",
      "note_off channel=0 note=80 velocity=64 time=0\n",
      "note_on channel=0 note=102 velocity=14 time=0\n",
      "note_off channel=0 note=61 velocity=64 time=1\n",
      "note_off channel=0 note=91 velocity=64 time=0\n",
      "note_on channel=0 note=92 velocity=44 time=0\n",
      "note_on channel=0 note=61 velocity=76 time=1\n",
      "note_off channel=0 note=79 velocity=64 time=0\n",
      "note_on channel=0 note=80 velocity=58 time=0\n",
      "note_on channel=0 note=71 velocity=39 time=1\n",
      "note_off channel=0 note=88 velocity=64 time=0\n",
      "note_on channel=0 note=89 velocity=83 time=0\n",
      "note_off channel=0 note=102 velocity=64 time=1\n",
      "note_off channel=0 note=68 velocity=64 time=3\n",
      "note_off channel=0 note=75 velocity=64 time=0\n",
      "note_on channel=0 note=45 velocity=78 time=1\n",
      "note_off channel=0 note=61 velocity=64 time=0\n",
      "note_on channel=0 note=64 velocity=82 time=0\n",
      "note_off channel=0 note=65 velocity=64 time=0\n",
      "note_on channel=0 note=67 velocity=62 time=0\n",
      "note_on channel=0 note=61 velocity=70 time=1\n",
      "note_on channel=0 note=90 velocity=27 time=0\n",
      "note_on channel=0 note=44 velocity=78 time=1\n",
      "note_off channel=0 note=45 velocity=64 time=0\n",
      "note_on channel=0 note=55 velocity=40 time=0\n",
      "note_off channel=0 note=61 velocity=64 time=0\n",
      "note_on channel=0 note=63 velocity=76 time=0\n",
      "note_off channel=0 note=64 velocity=64 time=0\n",
      "note_off channel=0 note=67 velocity=64 time=0\n",
      "note_off channel=0 note=71 velocity=64 time=0\n",
      "note_on channel=0 note=78 velocity=21 time=0\n",
      "note_on channel=0 note=71 velocity=46 time=1\n",
      "note_off channel=0 note=55 velocity=64 time=1\n",
      "note_off channel=0 note=63 velocity=64 time=0\n",
      "note_on channel=0 note=68 velocity=42 time=0\n",
      "note_on channel=0 note=84 velocity=19 time=0\n",
      "note_on channel=0 note=61 velocity=84 time=1\n",
      "note_on channel=0 note=65 velocity=41 time=0\n",
      "note_off channel=0 note=73 velocity=64 time=0\n",
      "note_off channel=0 note=44 velocity=64 time=1\n",
      "note_off channel=0 note=92 velocity=64 time=2\n",
      "note_on channel=0 note=43 velocity=63 time=1\n",
      "note_off channel=0 note=65 velocity=64 time=0\n",
      "note_on channel=0 note=74 velocity=74 time=0\n",
      "note_on channel=0 note=65 velocity=40 time=1\n",
      "note_off channel=0 note=90 velocity=64 time=0\n",
      "note_on channel=0 note=91 velocity=13 time=0\n",
      "note_off channel=0 note=43 velocity=64 time=1\n",
      "note_off channel=0 note=80 velocity=64 time=0\n",
      "note_on channel=0 note=81 velocity=89 time=0\n",
      "note_off channel=0 note=65 velocity=64 time=1\n",
      "note_on channel=0 note=92 velocity=43 time=0\n",
      "note_on channel=0 note=100 velocity=47 time=0\n",
      "note_on channel=0 note=65 velocity=37 time=1\n",
      "note_on channel=0 note=88 velocity=19 time=0\n",
      "note_off channel=0 note=91 velocity=64 time=0\n",
      "note_on channel=0 note=82 velocity=39 time=1\n",
      "note_on channel=0 note=48 velocity=66 time=1\n",
      "note_off channel=0 note=65 velocity=64 time=0\n",
      "note_off channel=0 note=83 velocity=64 time=0\n",
      "note_off channel=0 note=92 velocity=64 time=0\n",
      "note_on channel=0 note=102 velocity=45 time=0\n",
      "note_on channel=0 note=47 velocity=72 time=1\n",
      "note_off channel=0 note=48 velocity=64 time=0\n",
      "note_on channel=0 note=65 velocity=35 time=0\n",
      "note_off channel=0 note=61 velocity=64 time=1\n",
      "note_on channel=0 note=62 velocity=66 time=0\n",
      "note_off channel=0 note=82 velocity=64 time=0\n",
      "note_off channel=0 note=89 velocity=64 time=0\n",
      "note_on channel=0 note=90 velocity=88 time=0\n",
      "note_off channel=0 note=47 velocity=64 time=1\n",
      "note_on channel=0 note=48 velocity=72 time=0\n",
      "note_off channel=0 note=65 velocity=64 time=0\n",
      "note_off channel=0 note=48 velocity=64 time=2\n",
      "note_on channel=0 note=52 velocity=75 time=0\n",
      "note_on channel=0 note=65 velocity=58 time=0\n",
      "note_off channel=0 note=88 velocity=64 time=0\n",
      "note_off channel=0 note=52 velocity=64 time=1\n",
      "note_on channel=0 note=53 velocity=67 time=0\n",
      "note_on channel=0 note=87 velocity=17 time=0\n",
      "note_on channel=0 note=95 velocity=39 time=0\n",
      "note_on channel=0 note=82 velocity=29 time=1\n",
      "note_off channel=0 note=53 velocity=64 time=1\n",
      "note_on channel=0 note=73 velocity=76 time=0\n",
      "note_off channel=0 note=74 velocity=64 time=0\n",
      "note_on channel=0 note=89 velocity=87 time=0\n",
      "note_off channel=0 note=90 velocity=64 time=0\n",
      "note_on channel=0 note=92 velocity=47 time=0\n",
      "note_off channel=0 note=102 velocity=64 time=0\n",
      "note_on channel=0 note=53 velocity=58 time=1\n",
      "note_on channel=0 note=61 velocity=75 time=0\n"
     ]
    },
    {
     "name": "stdout",
     "output_type": "stream",
     "text": [
      "note_off channel=0 note=62 velocity=64 time=0\n",
      "note_on channel=0 note=80 velocity=88 time=0\n",
      "note_off channel=0 note=81 velocity=64 time=0\n",
      "note_off channel=0 note=82 velocity=64 time=0\n",
      "note_on channel=0 note=91 velocity=20 time=0\n",
      "note_on channel=0 note=99 velocity=48 time=0\n",
      "note_on channel=0 note=102 velocity=35 time=0\n",
      "note_on channel=0 note=103 velocity=21 time=0\n",
      "note_off channel=0 note=71 velocity=64 time=1\n",
      "note_off channel=0 note=78 velocity=64 time=0\n",
      "note_on channel=0 note=82 velocity=36 time=0\n",
      "note_off channel=0 note=100 velocity=64 time=0\n",
      "note_off channel=0 note=84 velocity=64 time=1\n",
      "note_on channel=0 note=90 velocity=81 time=0\n",
      "note_on channel=0 note=94 velocity=42 time=0\n",
      "note_off channel=0 note=95 velocity=64 time=0\n",
      "note_on channel=0 note=81 velocity=68 time=1\n",
      "note_on channel=0 note=84 velocity=22 time=0\n",
      "note_on channel=0 note=95 velocity=37 time=0\n",
      "note_off channel=0 note=103 velocity=64 time=0\n",
      "note_off channel=0 note=68 velocity=64 time=1\n",
      "note_on channel=0 note=70 velocity=33 time=0\n",
      "note_off channel=0 note=81 velocity=64 time=0\n",
      "note_off channel=0 note=94 velocity=64 time=0\n",
      "note_on channel=0 note=45 velocity=75 time=1\n",
      "note_off channel=0 note=53 velocity=64 time=0\n",
      "note_off channel=0 note=61 velocity=64 time=0\n",
      "note_on channel=0 note=64 velocity=80 time=0\n",
      "note_off channel=0 note=65 velocity=64 time=0\n",
      "note_on channel=0 note=77 velocity=44 time=0\n",
      "note_on channel=0 note=86 velocity=58 time=0\n",
      "note_on channel=0 note=53 velocity=45 time=1\n",
      "note_on channel=0 note=67 velocity=53 time=0\n",
      "note_off channel=0 note=70 velocity=64 time=0\n",
      "note_on channel=0 note=71 velocity=35 time=0\n",
      "note_off channel=0 note=82 velocity=64 time=0\n",
      "note_off channel=0 note=84 velocity=64 time=0\n",
      "note_on channel=0 note=100 velocity=33 time=0\n",
      "note_on channel=0 note=44 velocity=78 time=1\n",
      "note_off channel=0 note=45 velocity=64 time=0\n",
      "note_on channel=0 note=63 velocity=74 time=0\n",
      "note_off channel=0 note=73 velocity=64 time=0\n",
      "note_on channel=0 note=74 velocity=71 time=0\n",
      "note_on channel=0 note=81 velocity=79 time=0\n",
      "note_off channel=0 note=91 velocity=64 time=0\n",
      "note_on channel=0 note=96 velocity=30 time=0\n",
      "note_off channel=0 note=53 velocity=64 time=1\n",
      "note_off channel=0 note=64 velocity=64 time=0\n",
      "note_off channel=0 note=77 velocity=64 time=0\n",
      "note_off channel=0 note=80 velocity=64 time=0\n",
      "note_on channel=0 note=84 velocity=17 time=0\n",
      "note_off channel=0 note=92 velocity=64 time=0\n",
      "note_off channel=0 note=99 velocity=64 time=0\n",
      "note_on channel=0 note=54 velocity=42 time=1\n",
      "note_off channel=0 note=63 velocity=64 time=0\n",
      "note_on channel=0 note=65 velocity=52 time=0\n",
      "note_off channel=0 note=67 velocity=64 time=0\n",
      "note_off channel=0 note=71 velocity=64 time=0\n",
      "note_on channel=0 note=82 velocity=28 time=0\n",
      "note_off channel=0 note=44 velocity=64 time=1\n",
      "note_on channel=0 note=45 velocity=76 time=0\n",
      "note_on channel=0 note=62 velocity=64 time=0\n",
      "note_on channel=0 note=68 velocity=32 time=0\n",
      "note_on channel=0 note=71 velocity=27 time=0\n",
      "note_on channel=0 note=73 velocity=77 time=0\n",
      "note_off channel=0 note=74 velocity=64 time=0\n",
      "note_on channel=0 note=83 velocity=33 time=0\n",
      "note_off channel=0 note=54 velocity=64 time=1\n",
      "note_on channel=0 note=80 velocity=80 time=0\n",
      "note_off channel=0 note=81 velocity=64 time=0\n",
      "note_off channel=0 note=96 velocity=64 time=0\n",
      "note_on channel=0 note=99 velocity=31 time=0\n",
      "note_off channel=0 note=100 velocity=64 time=0\n",
      "note_on channel=0 note=44 velocity=71 time=1\n",
      "note_off channel=0 note=45 velocity=64 time=0\n",
      "note_on channel=0 note=61 velocity=73 time=0\n",
      "note_off channel=0 note=62 velocity=64 time=0\n",
      "note_off channel=0 note=82 velocity=64 time=0\n",
      "note_off channel=0 note=86 velocity=64 time=0\n",
      "note_on channel=0 note=91 velocity=35 time=0\n",
      "note_off channel=0 note=102 velocity=64 time=0\n",
      "note_off channel=0 note=68 velocity=64 time=2\n",
      "note_off channel=0 note=90 velocity=64 time=0\n",
      "note_off channel=0 note=44 velocity=64 time=1\n",
      "note_on channel=0 note=68 velocity=25 time=0\n",
      "note_off channel=0 note=87 velocity=64 time=0\n",
      "note_on channel=0 note=90 velocity=66 time=0\n",
      "note_off channel=0 note=91 velocity=64 time=0\n",
      "note_on channel=0 note=42 velocity=58 time=1\n",
      "note_off channel=0 note=71 velocity=64 time=0\n",
      "note_off channel=0 note=84 velocity=64 time=0\n",
      "note_on channel=0 note=71 velocity=16 time=1\n",
      "note_off channel=0 note=42 velocity=64 time=1\n",
      "note_on channel=0 note=91 velocity=52 time=0\n",
      "note_on channel=0 note=87 velocity=58 time=1\n",
      "note_on channel=0 note=48 velocity=68 time=1\n",
      "note_off channel=0 note=71 velocity=64 time=0\n",
      "note_on channel=0 note=82 velocity=29 time=1\n",
      "note_on channel=0 note=94 velocity=29 time=0\n",
      "note_on channel=0 note=47 velocity=74 time=1\n",
      "note_off channel=0 note=48 velocity=64 time=0\n",
      "note_off channel=0 note=68 velocity=64 time=0\n",
      "note_off channel=0 note=83 velocity=64 time=0\n",
      "note_on channel=0 note=88 velocity=67 time=0\n",
      "note_off channel=0 note=89 velocity=64 time=0\n",
      "note_off channel=0 note=95 velocity=64 time=0\n",
      "note_off channel=0 note=47 velocity=64 time=1\n",
      "note_on channel=0 note=48 velocity=70 time=0\n",
      "note_on channel=0 note=68 velocity=47 time=0\n",
      "note_on channel=0 note=72 velocity=79 time=0\n",
      "note_off channel=0 note=73 velocity=64 time=0\n",
      "note_off channel=0 note=99 velocity=64 time=0\n",
      "note_off channel=0 note=48 velocity=64 time=1\n",
      "note_on channel=0 note=49 velocity=70 time=0\n",
      "note_on channel=0 note=79 velocity=74 time=0\n",
      "note_off channel=0 note=49 velocity=64 time=1\n",
      "note_on channel=0 note=50 velocity=77 time=0\n",
      "note_on channel=0 note=60 velocity=65 time=0\n",
      "note_off channel=0 note=61 velocity=64 time=0\n",
      "note_off channel=0 note=80 velocity=64 time=0\n",
      "note_off channel=0 note=94 velocity=64 time=0\n",
      "note_off channel=0 note=50 velocity=64 time=1\n",
      "note_on channel=0 note=53 velocity=70 time=0\n",
      "note_off channel=0 note=65 velocity=64 time=0\n",
      "note_on channel=0 note=75 velocity=44 time=0\n",
      "note_on channel=0 note=101 velocity=34 time=0\n",
      "note_on channel=0 note=59 velocity=56 time=1\n",
      "note_off channel=0 note=60 velocity=64 time=0\n",
      "note_on channel=0 note=73 velocity=35 time=0\n",
      "note_on channel=0 note=78 velocity=79 time=0\n",
      "note_off channel=0 note=79 velocity=64 time=0\n",
      "note_on channel=0 note=31 velocity=12 time=1\n",
      "note_on channel=0 note=71 velocity=66 time=0\n",
      "note_off channel=0 note=72 velocity=64 time=0\n",
      "note_off channel=0 note=91 velocity=64 time=0\n",
      "note_off channel=0 note=53 velocity=64 time=1\n",
      "note_off channel=0 note=73 velocity=64 time=0\n",
      "note_on channel=0 note=92 velocity=46 time=0\n",
      "note_off channel=0 note=101 velocity=64 time=0\n",
      "note_on channel=0 note=53 velocity=55 time=1\n",
      "note_on channel=0 note=72 velocity=39 time=0\n",
      "note_off channel=0 note=82 velocity=64 time=0\n",
      "note_off channel=0 note=59 velocity=64 time=1\n",
      "note_off channel=0 note=71 velocity=64 time=0\n",
      "note_off channel=0 note=87 velocity=64 time=0\n",
      "note_off channel=0 note=92 velocity=64 time=0\n",
      "note_off channel=0 note=31 velocity=64 time=1\n",
      "note_on channel=0 note=59 velocity=55 time=0\n",
      "note_off channel=0 note=72 velocity=64 time=0\n",
      "note_on channel=0 note=79 velocity=63 time=0\n",
      "note_on channel=0 note=85 velocity=45 time=0\n",
      "note_on channel=0 note=87 velocity=54 time=0\n",
      "note_on channel=0 note=89 velocity=72 time=0\n",
      "note_off channel=0 note=53 velocity=64 time=1\n",
      "note_on channel=0 note=80 velocity=81 time=0\n",
      "note_on channel=0 note=48 velocity=87 time=1\n",
      "note_on channel=0 note=73 velocity=35 time=0\n",
      "note_off channel=0 note=79 velocity=64 time=0\n",
      "note_off channel=0 note=88 velocity=64 time=0\n",
      "note_on channel=0 note=96 velocity=19 time=0\n",
      "note_on channel=0 note=98 velocity=13 time=0\n",
      "note_on channel=0 note=63 velocity=55 time=1\n",
      "note_on channel=0 note=67 velocity=55 time=0\n",
      "note_off channel=0 note=68 velocity=64 time=0\n",
      "note_on channel=0 note=82 velocity=56 time=0\n",
      "note_on channel=0 note=84 velocity=30 time=0\n",
      "note_on channel=0 note=58 velocity=55 time=1\n",
      "note_off channel=0 note=59 velocity=64 time=0\n",
      "note_off channel=0 note=73 velocity=64 time=0\n",
      "note_off channel=0 note=75 velocity=64 time=0\n",
      "note_on channel=0 note=77 velocity=90 time=0\n",
      "note_off channel=0 note=78 velocity=64 time=0\n",
      "note_on channel=0 note=86 velocity=59 time=0\n",
      "note_on channel=0 note=88 velocity=34 time=0\n",
      "note_off channel=0 note=63 velocity=64 time=1\n",
      "note_off channel=0 note=67 velocity=64 time=0\n",
      "note_on channel=0 note=73 velocity=39 time=0\n",
      "note_off channel=0 note=84 velocity=64 time=0\n",
      "note_off channel=0 note=85 velocity=64 time=0\n",
      "note_off channel=0 note=87 velocity=64 time=0\n",
      "note_off channel=0 note=90 velocity=64 time=0\n",
      "note_on channel=0 note=91 velocity=36 time=0\n",
      "note_off channel=0 note=48 velocity=64 time=1\n",
      "note_on channel=0 note=65 velocity=38 time=0\n",
      "note_on channel=0 note=83 velocity=67 time=0\n",
      "note_on channel=0 note=87 velocity=53 time=0\n",
      "note_off channel=0 note=88 velocity=64 time=0\n",
      "note_on channel=0 note=90 velocity=29 time=0\n",
      "note_off channel=0 note=93 velocity=64 time=0\n",
      "note_off channel=0 note=98 velocity=64 time=0\n",
      "note_off channel=0 note=96 velocity=64 time=1\n",
      "note_on channel=0 note=48 velocity=65 time=1\n",
      "note_on channel=0 note=85 velocity=65 time=0\n",
      "note_off channel=0 note=86 velocity=64 time=0\n",
      "note_off channel=0 note=48 velocity=64 time=1\n",
      "note_off channel=0 note=90 velocity=64 time=0\n",
      "note_on channel=0 note=45 velocity=60 time=1\n",
      "note_off channel=0 note=82 velocity=64 time=0\n",
      "note_on channel=0 note=88 velocity=36 time=0\n",
      "note_on channel=0 note=93 velocity=45 time=0\n",
      "note_off channel=0 note=58 velocity=64 time=1\n",
      "note_on channel=0 note=59 velocity=54 time=0\n",
      "note_on channel=0 note=71 velocity=55 time=0\n",
      "note_on channel=0 note=78 velocity=66 time=0\n",
      "note_on channel=0 note=75 velocity=15 time=1\n",
      "note_off channel=0 note=77 velocity=64 time=0\n",
      "note_off channel=0 note=91 velocity=64 time=0\n",
      "note_on channel=0 note=44 velocity=50 time=1\n",
      "note_off channel=0 note=45 velocity=64 time=0\n",
      "note_off channel=0 note=59 velocity=64 time=0\n",
      "note_on channel=0 note=61 velocity=59 time=0\n",
      "note_off channel=0 note=71 velocity=64 time=0\n",
      "note_on channel=0 note=72 velocity=65 time=0\n",
      "note_off channel=0 note=73 velocity=64 time=0\n",
      "note_off channel=0 note=85 velocity=64 time=0\n",
      "note_off channel=0 note=88 velocity=64 time=0\n",
      "note_on channel=0 note=91 velocity=51 time=0\n",
      "note_on channel=0 note=79 velocity=63 time=1\n",
      "note_off channel=0 note=80 velocity=64 time=0\n",
      "note_on channel=0 note=85 velocity=42 time=0\n",
      "note_on channel=0 note=88 velocity=64 time=0\n",
      "note_off channel=0 note=89 velocity=64 time=0\n",
      "note_off channel=0 note=72 velocity=64 time=1\n",
      "note_on channel=0 note=73 velocity=63 time=0\n",
      "note_off channel=0 note=78 velocity=64 time=0\n",
      "note_on channel=0 note=90 velocity=60 time=0\n",
      "note_on channel=0 note=92 velocity=42 time=0\n",
      "note_on channel=0 note=78 velocity=54 time=1\n",
      "note_on channel=0 note=89 velocity=65 time=0\n",
      "note_off channel=0 note=91 velocity=64 time=0\n",
      "note_off channel=0 note=79 velocity=64 time=1\n",
      "note_on channel=0 note=80 velocity=64 time=0\n",
      "note_off channel=0 note=88 velocity=64 time=0\n",
      "note_on channel=0 note=91 velocity=48 time=0\n",
      "note_on channel=0 note=43 velocity=32 time=1\n",
      "note_off channel=0 note=44 velocity=64 time=0\n",
      "note_on channel=0 note=60 velocity=54 time=0\n",
      "note_off channel=0 note=61 velocity=64 time=0\n",
      "note_on channel=0 note=72 velocity=64 time=0\n",
      "note_off channel=0 note=73 velocity=64 time=0\n",
      "note_on channel=0 note=79 velocity=63 time=0\n",
      "note_off channel=0 note=87 velocity=64 time=0\n",
      "note_on channel=0 note=88 velocity=68 time=0\n",
      "note_off channel=0 note=89 velocity=64 time=0\n",
      "note_off channel=0 note=92 velocity=64 time=0\n",
      "note_off channel=0 note=78 velocity=64 time=1\n",
      "note_off channel=0 note=80 velocity=64 time=0\n",
      "note_on channel=0 note=87 velocity=58 time=0\n",
      "note_on channel=0 note=59 velocity=50 time=1\n",
      "note_off channel=0 note=60 velocity=64 time=0\n",
      "note_off channel=0 note=65 velocity=64 time=0\n",
      "note_on channel=0 note=78 velocity=79 time=0\n",
      "note_off channel=0 note=88 velocity=64 time=0\n",
      "note_on channel=0 note=89 velocity=73 time=0\n",
      "note_off channel=0 note=91 velocity=64 time=0\n",
      "note_on channel=0 note=71 velocity=55 time=1\n",
      "note_off channel=0 note=72 velocity=64 time=0\n",
      "note_off channel=0 note=75 velocity=64 time=0\n",
      "note_off channel=0 note=79 velocity=64 time=0\n",
      "note_on channel=0 note=80 velocity=78 time=0\n",
      "note_on channel=0 note=82 velocity=39 time=0\n",
      "note_off channel=0 note=43 velocity=64 time=1\n",
      "note_on channel=0 note=88 velocity=36 time=0\n",
      "note_off channel=0 note=82 velocity=64 time=1\n",
      "note_on channel=0 note=91 velocity=34 time=0\n",
      "note_on channel=0 note=42 velocity=23 time=1\n",
      "note_on channel=0 note=82 velocity=19 time=0\n",
      "note_on channel=0 note=53 velocity=19 time=1\n",
      "note_off channel=0 note=83 velocity=64 time=0\n",
      "note_off channel=0 note=71 velocity=64 time=1\n",
      "note_on channel=0 note=83 velocity=49 time=0\n",
      "note_off channel=0 note=88 velocity=64 time=0\n",
      "note_off channel=0 note=42 velocity=64 time=1\n",
      "note_off channel=0 note=53 velocity=64 time=1\n",
      "note_off channel=0 note=91 velocity=64 time=0\n",
      "note_off channel=0 note=82 velocity=64 time=2\n",
      "note_off channel=0 note=59 velocity=64 time=1\n",
      "note_on channel=0 note=75 velocity=49 time=0\n",
      "note_on channel=0 note=91 velocity=27 time=0\n",
      "note_on channel=0 note=46 velocity=68 time=1\n",
      "note_on channel=0 note=69 velocity=44 time=0\n",
      "note_on channel=0 note=84 velocity=43 time=0\n",
      "note_off channel=0 note=85 velocity=64 time=0\n",
      "note_on channel=0 note=45 velocity=76 time=1\n",
      "note_off channel=0 note=46 velocity=64 time=0\n",
      "note_on channel=0 note=67 velocity=46 time=0\n",
      "note_on channel=0 note=85 velocity=39 time=0\n",
      "note_on channel=0 note=100 velocity=11 time=0\n",
      "note_on channel=0 note=44 velocity=77 time=1\n",
      "note_off channel=0 note=45 velocity=64 time=0\n",
      "note_on channel=0 note=59 velocity=52 time=0\n",
      "note_on channel=0 note=70 velocity=44 time=1\n",
      "note_off channel=0 note=69 velocity=64 time=1\n",
      "note_off channel=0 note=84 velocity=64 time=0\n",
      "note_off channel=0 note=90 velocity=64 time=0\n",
      "note_off channel=0 note=100 velocity=64 time=0\n",
      "note_on channel=0 note=43 velocity=73 time=1\n",
      "note_off channel=0 note=44 velocity=64 time=0\n",
      "note_on channel=0 note=58 velocity=51 time=0\n",
      "note_off channel=0 note=59 velocity=64 time=0\n",
      "note_off channel=0 note=70 velocity=64 time=0\n",
      "note_on channel=0 note=71 velocity=50 time=0\n",
      "note_off channel=0 note=91 velocity=64 time=0\n",
      "note_off channel=0 note=67 velocity=64 time=2\n",
      "note_on channel=0 note=77 velocity=73 time=0\n",
      "note_off channel=0 note=78 velocity=64 time=0\n",
      "note_off channel=0 note=58 velocity=64 time=1\n",
      "note_on channel=0 note=59 velocity=52 time=0\n",
      "note_on channel=0 note=65 velocity=49 time=0\n",
      "note_on channel=0 note=86 velocity=43 time=0\n",
      "note_off channel=0 note=87 velocity=64 time=0\n",
      "note_off channel=0 note=89 velocity=64 time=0\n",
      "note_on channel=0 note=90 velocity=60 time=0\n",
      "note_on channel=0 note=73 velocity=20 time=1\n",
      "note_off channel=0 note=77 velocity=64 time=1\n",
      "note_on channel=0 note=78 velocity=70 time=0\n",
      "note_off channel=0 note=86 velocity=64 time=0\n",
      "note_off channel=0 note=43 velocity=64 time=1\n",
      "note_on channel=0 note=77 velocity=58 time=0\n",
      "note_off channel=0 note=73 velocity=64 time=1\n",
      "note_off channel=0 note=85 velocity=64 time=0\n",
      "note_on channel=0 note=73 velocity=27 time=1\n",
      "note_off channel=0 note=77 velocity=64 time=0\n",
      "note_off channel=0 note=75 velocity=64 time=2\n",
      "note_on channel=0 note=85 velocity=30 time=0\n",
      "note_on channel=0 note=58 velocity=51 time=1\n",
      "note_off channel=0 note=59 velocity=64 time=0\n",
      "note_on channel=0 note=77 velocity=71 time=0\n",
      "note_off channel=0 note=78 velocity=64 time=0\n",
      "note_off channel=0 note=90 velocity=64 time=0\n",
      "note_on channel=0 note=91 velocity=61 time=0\n",
      "note_off channel=0 note=71 velocity=64 time=1\n",
      "note_off channel=0 note=93 velocity=64 time=0\n",
      "note_on channel=0 note=57 velocity=47 time=1\n",
      "note_off channel=0 note=58 velocity=64 time=0\n",
      "note_on channel=0 note=69 velocity=54 time=0\n",
      "note_on channel=0 note=76 velocity=79 time=0\n",
      "note_on channel=0 note=81 velocity=66 time=0\n",
      "note_off channel=0 note=77 velocity=64 time=1\n",
      "note_on channel=0 note=88 velocity=84 time=0\n",
      "note_off channel=0 note=85 velocity=64 time=1\n",
      "note_on channel=0 note=85 velocity=64 time=1\n",
      "note_on channel=0 note=89 velocity=24 time=1\n",
      "note_on channel=0 note=61 velocity=13 time=2\n",
      "note_off channel=0 note=80 velocity=64 time=0\n",
      "note_on channel=0 note=101 velocity=39 time=0\n",
      "note_off channel=0 note=89 velocity=64 time=1\n",
      "note_on channel=0 note=89 velocity=38 time=1\n",
      "note_off channel=0 note=57 velocity=64 time=2\n",
      "note_off channel=0 note=61 velocity=64 time=0\n",
      "note_on channel=0 note=64 velocity=83 time=0\n",
      "note_on channel=0 note=90 velocity=37 time=0\n",
      "note_off channel=0 note=65 velocity=64 time=1\n",
      "note_off channel=0 note=69 velocity=64 time=0\n",
      "note_off channel=0 note=73 velocity=64 time=0\n",
      "note_on channel=0 note=80 velocity=43 time=0\n",
      "note_on channel=0 note=45 velocity=78 time=1\n",
      "note_on channel=0 note=69 velocity=58 time=0\n",
      "note_on channel=0 note=73 velocity=36 time=0\n",
      "note_off channel=0 note=83 velocity=64 time=0\n",
      "note_on channel=0 note=95 velocity=16 time=0\n",
      "note_on channel=0 note=63 velocity=74 time=1\n",
      "note_off channel=0 note=64 velocity=64 time=0\n",
      "note_on channel=0 note=44 velocity=79 time=1\n",
      "note_off channel=0 note=45 velocity=64 time=0\n",
      "note_on channel=0 note=83 velocity=48 time=0\n",
      "note_off channel=0 note=89 velocity=64 time=0\n",
      "note_off channel=0 note=90 velocity=64 time=0\n",
      "note_on channel=0 note=57 velocity=43 time=1\n",
      "note_off channel=0 note=63 velocity=64 time=1\n",
      "note_off channel=0 note=80 velocity=64 time=0\n",
      "note_off channel=0 note=44 velocity=64 time=1\n",
      "note_on channel=0 note=46 velocity=65 time=0\n",
      "note_on channel=0 note=41 velocity=56 time=1\n",
      "note_off channel=0 note=46 velocity=64 time=0\n",
      "note_on channel=0 note=66 velocity=30 time=1\n",
      "note_on channel=0 note=89 velocity=24 time=0\n",
      "note_off channel=0 note=41 velocity=64 time=1\n",
      "note_on channel=0 note=43 velocity=62 time=0\n",
      "note_on channel=0 note=61 velocity=46 time=0\n",
      "note_on channel=0 note=65 velocity=31 time=0\n",
      "note_off channel=0 note=66 velocity=64 time=1\n",
      "note_off channel=0 note=61 velocity=64 time=1\n",
      "note_off channel=0 note=89 velocity=64 time=0\n",
      "note_off channel=0 note=101 velocity=64 time=0\n",
      "note_on channel=0 note=102 velocity=47 time=0\n",
      "note_on channel=0 note=42 velocity=55 time=1\n",
      "note_off channel=0 note=43 velocity=64 time=0\n",
      "note_on channel=0 note=61 velocity=58 time=0\n",
      "note_on channel=0 note=87 velocity=57 time=0\n",
      "note_off channel=0 note=57 velocity=64 time=1\n",
      "note_off channel=0 note=95 velocity=64 time=0\n",
      "note_off channel=0 note=42 velocity=64 time=1\n",
      "note_off channel=0 note=65 velocity=64 time=1\n",
      "note_off channel=0 note=69 velocity=64 time=0\n",
      "note_on channel=0 note=70 velocity=44 time=0\n",
      "note_off channel=0 note=76 velocity=64 time=0\n",
      "note_on channel=0 note=77 velocity=78 time=0\n",
      "note_off channel=0 note=81 velocity=64 time=0\n",
      "note_on channel=0 note=82 velocity=59 time=0\n",
      "note_off channel=0 note=83 velocity=64 time=0\n",
      "note_on channel=0 note=48 velocity=68 time=1\n",
      "note_on channel=0 note=58 velocity=46 time=0\n",
      "note_on channel=0 note=47 velocity=73 time=1\n",
      "note_off channel=0 note=48 velocity=64 time=0\n",
      "note_off channel=0 note=70 velocity=64 time=0\n",
      "note_on channel=0 note=71 velocity=38 time=0\n",
      "note_on channel=0 note=81 velocity=42 time=0\n",
      "note_off channel=0 note=82 velocity=64 time=0\n",
      "note_on channel=0 note=83 velocity=66 time=0\n",
      "note_off channel=0 note=47 velocity=64 time=1\n",
      "note_on channel=0 note=48 velocity=72 time=0\n",
      "note_off channel=0 note=58 velocity=64 time=0\n",
      "note_on channel=0 note=59 velocity=50 time=0\n",
      "note_off channel=0 note=61 velocity=64 time=0\n",
      "note_off channel=0 note=73 velocity=64 time=0\n",
      "note_on channel=0 note=90 velocity=50 time=0\n",
      "note_off channel=0 note=48 velocity=64 time=1\n",
      "note_on channel=0 note=49 velocity=71 time=0\n",
      "note_on channel=0 note=68 velocity=20 time=0\n",
      "note_off channel=0 note=71 velocity=64 time=0\n",
      "note_on channel=0 note=72 velocity=66 time=0\n",
      "note_on channel=0 note=75 velocity=9 time=0\n",
      "note_off channel=0 note=81 velocity=64 time=0\n",
      "note_on channel=0 note=86 velocity=29 time=0\n",
      "note_off channel=0 note=88 velocity=64 time=0\n",
      "note_off channel=0 note=49 velocity=64 time=1\n",
      "note_on channel=0 note=50 velocity=79 time=0\n",
      "note_off channel=0 note=59 velocity=64 time=0\n",
      "note_on channel=0 note=78 velocity=52 time=0\n",
      "note_off channel=0 note=83 velocity=64 time=0\n",
      "note_on channel=0 note=88 velocity=78 time=0\n",
      "note_off channel=0 note=91 velocity=64 time=0\n",
      "note_off channel=0 note=50 velocity=64 time=1\n",
      "note_on channel=0 note=53 velocity=72 time=0\n",
      "note_on channel=0 note=60 velocity=42 time=0\n",
      "note_on channel=0 note=79 velocity=59 time=0\n",
      "note_on channel=0 note=83 velocity=49 time=0\n",
      "note_off channel=0 note=75 velocity=64 time=1\n",
      "note_off channel=0 note=78 velocity=64 time=0\n",
      "note_off channel=0 note=85 velocity=64 time=0\n",
      "note_off channel=0 note=86 velocity=64 time=0\n",
      "note_off channel=0 note=60 velocity=64 time=1\n",
      "note_on channel=0 note=61 velocity=55 time=0\n",
      "note_off channel=0 note=68 velocity=64 time=0\n",
      "note_off channel=0 note=72 velocity=64 time=0\n",
      "note_on channel=0 note=73 velocity=67 time=0\n",
      "note_on channel=0 note=80 velocity=52 time=0\n",
      "note_off channel=0 note=90 velocity=64 time=0\n",
      "note_off channel=0 note=53 velocity=64 time=1\n",
      "note_off channel=0 note=79 velocity=64 time=0\n",
      "note_on channel=0 note=93 velocity=28 time=0\n",
      "note_off channel=0 note=102 velocity=64 time=0\n",
      "note_on channel=0 note=53 velocity=58 time=1\n",
      "note_on channel=0 note=60 velocity=53 time=0\n",
      "note_off channel=0 note=61 velocity=64 time=0\n",
      "note_on channel=0 note=72 velocity=68 time=0\n",
      "note_off channel=0 note=73 velocity=64 time=0\n",
      "note_on channel=0 note=79 velocity=57 time=0\n",
      "note_off channel=0 note=80 velocity=64 time=0\n",
      "note_on channel=0 note=75 velocity=17 time=1\n",
      "note_off channel=0 note=83 velocity=64 time=1\n",
      "note_on channel=0 note=85 velocity=18 time=0\n",
      "note_off channel=0 note=60 velocity=64 time=1\n",
      "note_on channel=0 note=71 velocity=63 time=0\n",
      "note_off channel=0 note=72 velocity=64 time=0\n",
      "note_on channel=0 note=74 velocity=27 time=0\n",
      "note_on channel=0 note=78 velocity=63 time=0\n",
      "note_off channel=0 note=79 velocity=64 time=0\n",
      "note_on channel=0 note=80 velocity=36 time=0\n",
      "note_on channel=0 note=83 velocity=66 time=0\n",
      "note_on channel=0 note=45 velocity=78 time=1\n",
      "note_off channel=0 note=53 velocity=64 time=0\n",
      "note_on channel=0 note=64 velocity=81 time=0\n",
      "note_off channel=0 note=75 velocity=64 time=0\n",
      "note_off channel=0 note=77 velocity=64 time=0\n",
      "note_on channel=0 note=91 velocity=13 time=0\n",
      "note_on channel=0 note=53 velocity=50 time=1\n",
      "note_on channel=0 note=67 velocity=65 time=0\n",
      "note_off channel=0 note=85 velocity=64 time=0\n",
      "note_on channel=0 note=63 velocity=78 time=1\n",
      "note_off channel=0 note=64 velocity=64 time=0\n",
      "note_off channel=0 note=80 velocity=64 time=0\n",
      "note_on channel=0 note=85 velocity=22 time=0\n",
      "note_on channel=0 note=89 velocity=25 time=0\n",
      "note_on channel=0 note=44 velocity=79 time=1\n",
      "note_off channel=0 note=45 velocity=64 time=0\n",
      "note_off channel=0 note=53 velocity=64 time=0\n",
      "note_on channel=0 note=69 velocity=38 time=0\n",
      "note_off channel=0 note=74 velocity=64 time=0\n",
      "note_off channel=0 note=91 velocity=64 time=0\n",
      "note_off channel=0 note=67 velocity=64 time=1\n",
      "note_off channel=0 note=71 velocity=64 time=0\n",
      "note_on channel=0 note=72 velocity=70 time=0\n",
      "note_on channel=0 note=77 velocity=33 time=0\n",
      "note_off channel=0 note=78 velocity=64 time=0\n",
      "note_on channel=0 note=79 velocity=57 time=0\n",
      "note_off channel=0 note=83 velocity=64 time=0\n",
      "note_on channel=0 note=68 velocity=29 time=1\n",
      "note_off channel=0 note=69 velocity=64 time=0\n",
      "note_on channel=0 note=78 velocity=34 time=0\n",
      "note_on channel=0 note=61 velocity=47 time=1\n",
      "note_off channel=0 note=63 velocity=64 time=0\n",
      "note_on channel=0 note=83 velocity=56 time=0\n",
      "note_off channel=0 note=85 velocity=64 time=0\n",
      "note_off channel=0 note=89 velocity=64 time=0\n",
      "note_off channel=0 note=93 velocity=64 time=0\n",
      "note_off channel=0 note=44 velocity=64 time=1\n",
      "note_on channel=0 note=65 velocity=30 time=0\n",
      "note_off channel=0 note=78 velocity=64 time=0\n",
      "note_on channel=0 note=93 velocity=16 time=0\n",
      "note_off channel=0 note=61 velocity=64 time=1\n",
      "note_off channel=0 note=68 velocity=64 time=0\n",
      "note_on channel=0 note=85 velocity=54 time=0\n",
      "note_on channel=0 note=92 velocity=62 time=0\n",
      "note_on channel=0 note=61 velocity=56 time=1\n",
      "note_off channel=0 note=72 velocity=64 time=0\n",
      "note_on channel=0 note=73 velocity=65 time=0\n",
      "note_on channel=0 note=80 velocity=87 time=0\n",
      "note_on channel=0 note=43 velocity=61 time=1\n",
      "note_off channel=0 note=65 velocity=64 time=0\n",
      "note_on channel=0 note=89 velocity=48 time=0\n",
      "note_on channel=0 note=65 velocity=34 time=1\n",
      "note_on channel=0 note=68 velocity=29 time=0\n",
      "note_on channel=0 note=71 velocity=38 time=0\n",
      "note_off channel=0 note=79 velocity=64 time=0\n",
      "note_off channel=0 note=88 velocity=64 time=0\n",
      "note_on channel=0 note=42 velocity=55 time=1\n",
      "note_off channel=0 note=43 velocity=64 time=0\n",
      "note_on channel=0 note=103 velocity=32 time=0\n",
      "note_off channel=0 note=61 velocity=64 time=1\n",
      "note_off channel=0 note=42 velocity=64 time=1\n",
      "note_on channel=0 note=61 velocity=62 time=0\n",
      "note_on channel=0 note=102 velocity=28 time=1\n",
      "note_off channel=0 note=103 velocity=64 time=0\n",
      "note_off channel=0 note=93 velocity=64 time=1\n",
      "note_on channel=0 note=47 velocity=73 time=1\n",
      "note_off channel=0 note=65 velocity=64 time=1\n",
      "note_off channel=0 note=68 velocity=64 time=0\n",
      "note_off channel=0 note=47 velocity=64 time=1\n",
      "note_on channel=0 note=48 velocity=71 time=0\n",
      "note_on channel=0 note=67 velocity=33 time=0\n",
      "note_off channel=0 note=71 velocity=64 time=0\n",
      "note_on channel=0 note=75 velocity=50 time=0\n",
      "note_off channel=0 note=48 velocity=64 time=1\n",
      "note_on channel=0 note=50 velocity=79 time=0\n",
      "note_on channel=0 note=65 velocity=36 time=0\n",
      "note_on channel=0 note=71 velocity=49 time=0\n",
      "note_off channel=0 note=50 velocity=64 time=1\n",
      "note_on channel=0 note=52 velocity=75 time=0\n",
      "note_off channel=0 note=67 velocity=64 time=0\n",
      "note_on channel=0 note=68 velocity=38 time=0\n",
      "note_off channel=0 note=89 velocity=64 time=0\n",
      "note_off channel=0 note=52 velocity=64 time=1\n",
      "note_on channel=0 note=89 velocity=71 time=0\n",
      "note_off channel=0 note=102 velocity=64 time=2\n",
      "note_on channel=0 note=53 velocity=58 time=1\n",
      "note_on channel=0 note=60 velocity=55 time=1\n",
      "note_off channel=0 note=61 velocity=64 time=0\n",
      "note_off channel=0 note=60 velocity=64 time=2\n",
      "note_off channel=0 note=53 velocity=64 time=1\n",
      "note_on channel=0 note=64 velocity=53 time=0\n",
      "note_off channel=0 note=68 velocity=64 time=0\n",
      "note_off channel=0 note=73 velocity=64 time=0\n",
      "note_on channel=0 note=91 velocity=16 time=0\n",
      "note_on channel=0 note=48 velocity=88 time=1\n",
      "note_off channel=0 note=65 velocity=64 time=0\n",
      "note_off channel=0 note=77 velocity=64 time=0\n",
      "note_on channel=0 note=78 velocity=36 time=0\n",
      "note_off channel=0 note=92 velocity=64 time=0\n",
      "note_on channel=0 note=93 velocity=16 time=0\n",
      "note_on channel=0 note=54 velocity=33 time=1\n",
      "note_on channel=0 note=63 velocity=62 time=0\n",
      "note_off channel=0 note=64 velocity=64 time=0\n",
      "note_on channel=0 note=67 velocity=53 time=0\n",
      "note_on channel=0 note=73 velocity=51 time=0\n",
      "note_on channel=0 note=46 velocity=69 time=2\n",
      "note_off channel=0 note=48 velocity=64 time=0\n",
      "note_off channel=0 note=54 velocity=64 time=0\n",
      "note_off channel=0 note=67 velocity=64 time=0\n",
      "note_on channel=0 note=68 velocity=41 time=0\n",
      "note_on channel=0 note=77 velocity=29 time=0\n",
      "note_off channel=0 note=78 velocity=64 time=0\n",
      "note_off channel=0 note=93 velocity=64 time=0\n",
      "note_on channel=0 note=61 velocity=78 time=1\n",
      "note_off channel=0 note=63 velocity=64 time=0\n",
      "note_on channel=0 note=65 velocity=45 time=0\n",
      "note_off channel=0 note=46 velocity=64 time=1\n",
      "note_on channel=0 note=47 velocity=69 time=0\n",
      "note_off channel=0 note=47 velocity=64 time=1\n",
      "note_off channel=0 note=91 velocity=64 time=0\n",
      "note_on channel=0 note=54 velocity=33 time=2\n",
      "note_off channel=0 note=83 velocity=64 time=0\n",
      "note_on channel=0 note=103 velocity=11 time=0\n",
      "note_on channel=0 note=45 velocity=59 time=1\n",
      "note_on channel=0 note=44 velocity=50 time=2\n",
      "note_off channel=0 note=45 velocity=64 time=0\n",
      "note_off channel=0 note=85 velocity=64 time=1\n",
      "note_off channel=0 note=103 velocity=64 time=1\n",
      "note_off channel=0 note=87 velocity=64 time=1\n",
      "note_on channel=0 note=43 velocity=31 time=1\n",
      "note_off channel=0 note=44 velocity=64 time=0\n",
      "note_off channel=0 note=77 velocity=64 time=0\n",
      "note_off channel=0 note=54 velocity=64 time=2\n",
      "note_on channel=0 note=54 velocity=30 time=1\n",
      "note_on channel=0 note=77 velocity=48 time=0\n",
      "note_off channel=0 note=54 velocity=64 time=2\n",
      "note_off channel=0 note=61 velocity=64 time=0\n",
      "note_on channel=0 note=42 velocity=18 time=1\n",
      "note_off channel=0 note=43 velocity=64 time=0\n",
      "note_on channel=0 note=61 velocity=13 time=1\n",
      "note_off channel=0 note=42 velocity=64 time=2\n",
      "note_on channel=0 note=43 velocity=22 time=0\n",
      "note_off channel=0 note=61 velocity=64 time=1\n",
      "note_off channel=0 note=89 velocity=64 time=0\n",
      "note_on channel=0 note=90 velocity=38 time=1\n",
      "note_off channel=0 note=43 velocity=64 time=1\n",
      "note_on channel=0 note=47 velocity=61 time=1\n",
      "note_on channel=0 note=84 velocity=45 time=0\n",
      "note_on channel=0 note=89 velocity=70 time=0\n",
      "note_on channel=0 note=91 velocity=21 time=0\n",
      "note_off channel=0 note=73 velocity=64 time=1\n",
      "note_off channel=0 note=75 velocity=64 time=0\n",
      "note_on channel=0 note=76 velocity=48 time=0\n",
      "note_on channel=0 note=93 velocity=17 time=0\n",
      "note_on channel=0 note=95 velocity=45 time=0\n",
      "note_on channel=0 note=45 velocity=76 time=1\n",
      "note_off channel=0 note=47 velocity=64 time=0\n",
      "note_off channel=0 note=65 velocity=64 time=0\n",
      "note_off channel=0 note=68 velocity=64 time=0\n",
      "note_on channel=0 note=69 velocity=42 time=0\n",
      "note_off channel=0 note=71 velocity=64 time=0\n",
      "note_on channel=0 note=73 velocity=34 time=0\n",
      "note_on channel=0 note=85 velocity=38 time=0\n",
      "note_on channel=0 note=61 velocity=42 time=1\n",
      "note_on channel=0 note=71 velocity=44 time=0\n",
      "note_on channel=0 note=75 velocity=51 time=0\n",
      "note_off channel=0 note=76 velocity=64 time=0\n",
      "note_on channel=0 note=44 velocity=77 time=1\n",
      "note_off channel=0 note=45 velocity=64 time=0\n",
      "note_on channel=0 note=82 velocity=28 time=0\n",
      "note_off channel=0 note=90 velocity=64 time=0\n",
      "note_off channel=0 note=93 velocity=64 time=0\n",
      "note_off channel=0 note=61 velocity=64 time=1\n",
      "note_on channel=0 note=65 velocity=44 time=0\n",
      "note_on channel=0 note=68 velocity=36 time=0\n",
      "note_off channel=0 note=69 velocity=64 time=0\n",
      "note_off channel=0 note=95 velocity=64 time=0\n",
      "note_on channel=0 note=43 velocity=74 time=1\n",
      "note_off channel=0 note=44 velocity=64 time=0\n",
      "note_on channel=0 note=62 velocity=35 time=0\n",
      "note_off channel=0 note=84 velocity=64 time=0\n",
      "note_off channel=0 note=68 velocity=64 time=1\n",
      "note_on channel=0 note=68 velocity=33 time=1\n",
      "note_on channel=0 note=61 velocity=35 time=1\n",
      "note_off channel=0 note=62 velocity=64 time=0\n",
      "note_on channel=0 note=88 velocity=18 time=0\n",
      "note_on channel=0 note=90 velocity=9 time=0\n",
      "note_on channel=0 note=84 velocity=18 time=1\n",
      "note_off channel=0 note=89 velocity=64 time=0\n",
      "note_on channel=0 note=54 velocity=15 time=1\n",
      "note_on channel=0 note=83 velocity=47 time=0\n",
      "note_off channel=0 note=85 velocity=64 time=0\n",
      "note_off channel=0 note=61 velocity=64 time=1\n",
      "note_off channel=0 note=82 velocity=64 time=0\n",
      "note_off channel=0 note=43 velocity=64 time=1\n",
      "note_on channel=0 note=44 velocity=33 time=0\n",
      "note_off channel=0 note=54 velocity=64 time=1\n",
      "note_off channel=0 note=90 velocity=64 time=0\n",
      "note_off channel=0 note=91 velocity=64 time=0\n",
      "note_off channel=0 note=44 velocity=64 time=3\n",
      "note_off channel=0 note=73 velocity=64 time=0\n",
      "note_on channel=0 note=86 velocity=21 time=4\n",
      "note_on channel=0 note=49 velocity=16 time=1\n",
      "note_off channel=0 note=49 velocity=64 time=4\n",
      "note_on channel=0 note=73 velocity=39 time=1\n",
      "note_on channel=0 note=82 velocity=64 time=1\n",
      "note_on channel=0 note=62 velocity=68 time=2\n",
      "note_off channel=0 note=65 velocity=64 time=0\n",
      "note_off channel=0 note=68 velocity=64 time=0\n",
      "note_on channel=0 note=69 velocity=47 time=0\n",
      "note_off channel=0 note=71 velocity=64 time=0\n",
      "note_on channel=0 note=78 velocity=27 time=0\n",
      "note_off channel=0 note=84 velocity=64 time=0\n",
      "note_off channel=0 note=88 velocity=64 time=0\n",
      "note_on channel=0 note=57 velocity=54 time=1\n",
      "note_off channel=0 note=62 velocity=64 time=0\n",
      "note_on channel=0 note=63 velocity=94 time=0\n",
      "note_on channel=0 note=72 velocity=38 time=0\n",
      "note_off channel=0 note=73 velocity=64 time=0\n",
      "note_off channel=0 note=77 velocity=64 time=0\n",
      "note_off channel=0 note=83 velocity=64 time=0\n",
      "note_on channel=0 note=84 velocity=43 time=0\n",
      "note_on channel=0 note=68 velocity=42 time=2\n",
      "note_off channel=0 note=69 velocity=64 time=0\n",
      "note_off channel=0 note=86 velocity=64 time=0\n",
      "note_off channel=0 note=57 velocity=64 time=1\n",
      "note_off channel=0 note=72 velocity=64 time=0\n",
      "note_on channel=0 note=73 velocity=42 time=0\n",
      "note_off channel=0 note=82 velocity=64 time=0\n",
      "note_on channel=0 note=83 velocity=26 time=0\n",
      "note_on channel=0 note=88 velocity=22 time=0\n",
      "note_on channel=0 note=71 velocity=37 time=1\n",
      "note_off channel=0 note=78 velocity=64 time=1\n",
      "note_on channel=0 note=82 velocity=27 time=0\n",
      "note_on channel=0 note=78 velocity=22 time=1\n",
      "note_off channel=0 note=83 velocity=64 time=0\n",
      "note_off channel=0 note=88 velocity=64 time=0\n",
      "note_on channel=0 note=91 velocity=20 time=0\n",
      "note_off channel=0 note=75 velocity=64 time=2\n",
      "note_on channel=0 note=87 velocity=9 time=1\n",
      "note_on channel=0 note=89 velocity=29 time=0\n",
      "note_on channel=0 note=90 velocity=26 time=0\n",
      "note_off channel=0 note=91 velocity=64 time=0\n",
      "note_on channel=0 note=83 velocity=41 time=1\n",
      "note_off channel=0 note=82 velocity=64 time=1\n",
      "note_on channel=0 note=88 velocity=30 time=2\n",
      "note_off channel=0 note=87 velocity=64 time=1\n",
      "note_off channel=0 note=89 velocity=64 time=0\n",
      "note_off channel=0 note=88 velocity=64 time=3\n",
      "note_on channel=0 note=89 velocity=57 time=0\n",
      "note_on channel=0 note=91 velocity=43 time=2\n",
      "note_off channel=0 note=71 velocity=64 time=3\n",
      "note_on channel=0 note=87 velocity=47 time=0\n",
      "note_on channel=0 note=77 velocity=40 time=1\n",
      "note_off channel=0 note=78 velocity=64 time=0\n",
      "note_on channel=0 note=86 velocity=19 time=0\n",
      "note_on channel=0 note=93 velocity=11 time=0\n",
      "note_off channel=0 note=84 velocity=64 time=1\n",
      "note_on channel=0 note=82 velocity=64 time=1\n",
      "note_off channel=0 note=83 velocity=64 time=0\n",
      "note_on channel=0 note=95 velocity=21 time=0\n",
      "note_off channel=0 note=68 velocity=64 time=1\n",
      "note_off channel=0 note=93 velocity=64 time=1\n",
      "note_on channel=0 note=68 velocity=55 time=1\n",
      "note_on channel=0 note=78 velocity=40 time=0\n",
      "note_off channel=0 note=90 velocity=64 time=0\n",
      "note_on channel=0 note=62 velocity=77 time=1\n",
      "note_off channel=0 note=63 velocity=64 time=0\n",
      "note_on channel=0 note=64 velocity=66 time=0\n",
      "note_on channel=0 note=57 velocity=50 time=1\n",
      "note_off channel=0 note=64 velocity=64 time=0\n",
      "note_off channel=0 note=68 velocity=64 time=0\n",
      "note_on channel=0 note=71 velocity=37 time=0\n",
      "note_on channel=0 note=72 velocity=41 time=0\n",
      "note_off channel=0 note=73 velocity=64 time=0\n",
      "note_on channel=0 note=75 velocity=41 time=0\n",
      "note_on channel=0 note=84 velocity=51 time=0\n",
      "note_off channel=0 note=86 velocity=64 time=0\n",
      "note_off channel=0 note=62 velocity=64 time=1\n",
      "note_on channel=0 note=63 velocity=86 time=0\n",
      "note_off channel=0 note=78 velocity=64 time=0\n",
      "note_off channel=0 note=91 velocity=64 time=0\n",
      "note_off channel=0 note=57 velocity=64 time=1\n",
      "note_off channel=0 note=71 velocity=64 time=0\n",
      "note_on channel=0 note=86 velocity=13 time=0\n",
      "note_off channel=0 note=95 velocity=64 time=0\n",
      "note_on channel=0 note=68 velocity=26 time=1\n",
      "note_on channel=0 note=71 velocity=20 time=1\n",
      "note_off channel=0 note=72 velocity=64 time=0\n",
      "note_on channel=0 note=91 velocity=35 time=0\n",
      "note_off channel=0 note=86 velocity=64 time=1\n",
      "note_on channel=0 note=83 velocity=27 time=1\n",
      "note_off channel=0 note=82 velocity=64 time=1\n",
      "note_on channel=0 note=93 velocity=61 time=0\n",
      "note_on channel=0 note=85 velocity=19 time=3\n",
      "note_on channel=0 note=73 velocity=9 time=2\n",
      "note_on channel=0 note=95 velocity=31 time=0\n",
      "note_on channel=0 note=82 velocity=41 time=1\n",
      "note_off channel=0 note=77 velocity=64 time=1\n",
      "note_off channel=0 note=83 velocity=64 time=0\n",
      "note_on channel=0 note=88 velocity=23 time=0\n",
      "note_off channel=0 note=89 velocity=64 time=1\n",
      "note_on channel=0 note=77 velocity=21 time=1\n",
      "note_off channel=0 note=85 velocity=64 time=1\n",
      "note_off channel=0 note=68 velocity=64 time=1\n",
      "note_on channel=0 note=78 velocity=38 time=0\n",
      "note_on channel=0 note=85 velocity=28 time=0\n",
      "note_on channel=0 note=89 velocity=78 time=0\n",
      "note_off channel=0 note=73 velocity=64 time=1\n",
      "note_off channel=0 note=77 velocity=64 time=0\n",
      "note_off channel=0 note=88 velocity=64 time=0\n",
      "note_on channel=0 note=55 velocity=62 time=1\n",
      "note_on channel=0 note=68 velocity=75 time=0\n",
      "note_off channel=0 note=71 velocity=64 time=0\n",
      "note_on channel=0 note=86 velocity=29 time=1\n",
      "note_on channel=0 note=90 velocity=52 time=0\n",
      "note_on channel=0 note=94 velocity=60 time=0\n",
      "note_off channel=0 note=55 velocity=64 time=1\n",
      "note_on channel=0 note=56 velocity=75 time=0\n",
      "note_off channel=0 note=85 velocity=64 time=0\n",
      "note_off channel=0 note=95 velocity=64 time=0\n",
      "note_on channel=0 note=98 velocity=49 time=0\n",
      "note_on channel=0 note=100 velocity=67 time=0\n",
      "note_on channel=0 note=102 velocity=53 time=0\n",
      "note_off channel=0 note=86 velocity=64 time=1\n",
      "note_off channel=0 note=91 velocity=64 time=0\n",
      "note_on channel=0 note=95 velocity=87 time=0\n",
      "note_off channel=0 note=56 velocity=64 time=1\n",
      "note_on channel=0 note=57 velocity=79 time=0\n",
      "note_off channel=0 note=68 velocity=64 time=0\n",
      "note_on channel=0 note=69 velocity=85 time=0\n",
      "note_off channel=0 note=75 velocity=64 time=0\n",
      "note_on channel=0 note=76 velocity=41 time=0\n",
      "note_on channel=0 note=86 velocity=28 time=0\n",
      "note_on channel=0 note=97 velocity=39 time=1\n",
      "note_off channel=0 note=94 velocity=64 time=1\n",
      "note_on channel=0 note=85 velocity=43 time=1\n",
      "note_on channel=0 note=91 velocity=22 time=0\n",
      "note_on channel=0 note=96 velocity=61 time=0\n",
      "note_off channel=0 note=97 velocity=64 time=0\n",
      "note_on channel=0 note=73 velocity=35 time=1\n",
      "note_on channel=0 note=103 velocity=27 time=0\n",
      "note_on channel=0 note=56 velocity=78 time=1\n",
      "note_off channel=0 note=57 velocity=64 time=0\n",
      "note_off channel=0 note=78 velocity=64 time=0\n",
      "note_off channel=0 note=86 velocity=64 time=0\n",
      "note_off channel=0 note=56 velocity=64 time=2\n",
      "note_on channel=0 note=57 velocity=77 time=0\n",
      "note_on channel=0 note=77 velocity=13 time=0\n",
      "note_off channel=0 note=76 velocity=64 time=1\n",
      "note_off channel=0 note=91 velocity=64 time=0\n",
      "note_off channel=0 note=103 velocity=64 time=0\n",
      "note_on channel=0 note=56 velocity=77 time=1\n",
      "note_off channel=0 note=57 velocity=64 time=0\n",
      "note_on channel=0 note=68 velocity=87 time=1\n",
      "note_off channel=0 note=69 velocity=64 time=0\n",
      "note_off channel=0 note=77 velocity=64 time=0\n",
      "note_on channel=0 note=91 velocity=16 time=0\n",
      "note_on channel=0 note=94 velocity=85 time=0\n",
      "note_off channel=0 note=95 velocity=64 time=0\n",
      "note_on channel=0 note=99 velocity=66 time=0\n",
      "note_off channel=0 note=100 velocity=64 time=0\n",
      "note_on channel=0 note=103 velocity=42 time=1\n",
      "note_on channel=0 note=77 velocity=31 time=1\n",
      "note_off channel=0 note=93 velocity=64 time=0\n",
      "note_on channel=0 note=100 velocity=65 time=0\n",
      "note_on channel=0 note=71 velocity=22 time=1\n",
      "note_off channel=0 note=63 velocity=64 time=1\n",
      "note_off channel=0 note=98 velocity=64 time=1\n",
      "note_on channel=0 note=65 velocity=18 time=3\n",
      "note_off channel=0 note=82 velocity=64 time=1\n",
      "note_on channel=0 note=93 velocity=12 time=0\n",
      "note_on channel=0 note=98 velocity=50 time=0\n",
      "note_on channel=0 note=82 velocity=22 time=1\n",
      "note_off channel=0 note=91 velocity=64 time=0\n",
      "note_off channel=0 note=71 velocity=64 time=1\n",
      "note_off channel=0 note=65 velocity=64 time=1\n",
      "note_off channel=0 note=100 velocity=64 time=0\n",
      "note_on channel=0 note=71 velocity=31 time=1\n",
      "note_on channel=0 note=88 velocity=34 time=0\n",
      "note_off channel=0 note=93 velocity=64 time=0\n",
      "note_on channel=0 note=65 velocity=22 time=1\n",
      "note_off channel=0 note=85 velocity=64 time=0\n",
      "note_off channel=0 note=87 velocity=64 time=0\n",
      "note_off channel=0 note=89 velocity=64 time=0\n",
      "note_on channel=0 note=93 velocity=17 time=0\n",
      "note_on channel=0 note=100 velocity=57 time=1\n",
      "note_off channel=0 note=65 velocity=64 time=2\n",
      "note_off channel=0 note=73 velocity=64 time=0\n",
      "note_off channel=0 note=93 velocity=64 time=0\n",
      "note_on channel=0 note=97 velocity=21 time=0\n",
      "note_off channel=0 note=98 velocity=64 time=0\n",
      "note_on channel=0 note=55 velocity=49 time=1\n",
      "note_off channel=0 note=56 velocity=64 time=0\n",
      "note_on channel=0 note=73 velocity=21 time=0\n",
      "note_on channel=0 note=91 velocity=44 time=0\n",
      "note_on channel=0 note=101 velocity=32 time=0\n",
      "note_off channel=0 note=102 velocity=64 time=0\n",
      "note_on channel=0 note=67 velocity=78 time=1\n",
      "note_off channel=0 note=68 velocity=64 time=0\n",
      "note_off channel=0 note=71 velocity=64 time=0\n",
      "note_on channel=0 note=93 velocity=55 time=0\n",
      "note_on channel=0 note=95 velocity=66 time=0\n",
      "note_on channel=0 note=98 velocity=32 time=0\n",
      "note_off channel=0 note=55 velocity=64 time=1\n",
      "note_off channel=0 note=67 velocity=64 time=0\n",
      "note_on channel=0 note=68 velocity=84 time=0\n",
      "note_off channel=0 note=97 velocity=64 time=0\n",
      "note_off channel=0 note=103 velocity=64 time=0\n",
      "note_on channel=0 note=57 velocity=52 time=1\n",
      "note_off channel=0 note=68 velocity=64 time=0\n",
      "note_on channel=0 note=69 velocity=92 time=0\n",
      "note_on channel=0 note=61 velocity=78 time=1\n",
      "note_off channel=0 note=73 velocity=64 time=0\n",
      "note_on channel=0 note=76 velocity=62 time=0\n",
      "note_off channel=0 note=77 velocity=64 time=0\n",
      "note_off channel=0 note=80 velocity=64 time=0\n",
      "note_off channel=0 note=84 velocity=64 time=0\n",
      "note_off channel=0 note=96 velocity=64 time=0\n",
      "note_on channel=0 note=97 velocity=26 time=0\n",
      "note_off channel=0 note=57 velocity=64 time=1\n",
      "note_on channel=0 note=58 velocity=67 time=0\n",
      "note_on channel=0 note=72 velocity=44 time=0\n",
      "note_on channel=0 note=80 velocity=48 time=0\n",
      "note_off channel=0 note=82 velocity=64 time=0\n",
      "note_on channel=0 note=83 velocity=29 time=0\n",
      "note_on channel=0 note=89 velocity=44 time=0\n",
      "note_on channel=0 note=57 velocity=71 time=1\n",
      "note_off channel=0 note=58 velocity=64 time=0\n",
      "note_on channel=0 note=63 velocity=65 time=1\n",
      "note_off channel=0 note=72 velocity=64 time=0\n",
      "note_on channel=0 note=82 velocity=33 time=0\n",
      "note_off channel=0 note=83 velocity=64 time=0\n",
      "note_off channel=0 note=88 velocity=64 time=0\n",
      "note_on channel=0 note=96 velocity=62 time=0\n",
      "note_off channel=0 note=101 velocity=64 time=0\n",
      "note_off channel=0 note=63 velocity=64 time=1\n",
      "note_off channel=0 note=76 velocity=64 time=0\n",
      "note_on channel=0 note=77 velocity=52 time=0\n",
      "note_on channel=0 note=88 velocity=55 time=0\n",
      "note_off channel=0 note=98 velocity=64 time=0\n",
      "note_on channel=0 note=101 velocity=47 time=0\n",
      "note_off channel=0 note=57 velocity=64 time=1\n",
      "note_off channel=0 note=61 velocity=64 time=0\n",
      "note_on channel=0 note=85 velocity=11 time=0\n",
      "note_off channel=0 note=89 velocity=64 time=0\n",
      "note_off channel=0 note=93 velocity=64 time=0\n",
      "note_on channel=0 note=65 velocity=47 time=1\n",
      "note_on channel=0 note=87 velocity=51 time=0\n",
      "note_on channel=0 note=93 velocity=59 time=1\n",
      "note_off channel=0 note=101 velocity=64 time=0\n",
      "note_on channel=0 note=53 velocity=44 time=1\n",
      "note_off channel=0 note=69 velocity=64 time=0\n",
      "note_off channel=0 note=94 velocity=64 time=0\n",
      "note_off channel=0 note=97 velocity=64 time=0\n",
      "note_off channel=0 note=99 velocity=64 time=0\n",
      "note_off channel=0 note=100 velocity=64 time=0\n",
      "note_on channel=0 note=61 velocity=29 time=1\n",
      "note_on channel=0 note=69 velocity=39 time=0\n",
      "note_off channel=0 note=85 velocity=64 time=0\n",
      "note_off channel=0 note=91 velocity=64 time=0\n",
      "note_off channel=0 note=53 velocity=64 time=1\n",
      "note_on channel=0 note=68 velocity=32 time=0\n",
      "note_off channel=0 note=90 velocity=64 time=0\n",
      "note_on channel=0 note=91 velocity=30 time=0\n",
      "note_off channel=0 note=69 velocity=64 time=1\n",
      "note_on channel=0 note=56 velocity=35 time=1\n",
      "note_off channel=0 note=68 velocity=64 time=0\n",
      "note_on channel=0 note=83 velocity=38 time=0\n",
      "note_off channel=0 note=91 velocity=64 time=0\n",
      "note_off channel=0 note=96 velocity=64 time=0\n",
      "note_off channel=0 note=82 velocity=64 time=1\n",
      "note_on channel=0 note=91 velocity=35 time=0\n",
      "note_off channel=0 note=56 velocity=64 time=1\n",
      "note_off channel=0 note=65 velocity=64 time=0\n",
      "note_on channel=0 note=73 velocity=69 time=0\n",
      "note_on channel=0 note=82 velocity=66 time=0\n",
      "note_on channel=0 note=90 velocity=49 time=0\n",
      "note_on channel=0 note=54 velocity=66 time=1\n",
      "note_off channel=0 note=61 velocity=64 time=0\n",
      "note_on channel=0 note=100 velocity=62 time=0\n",
      "note_off channel=0 note=73 velocity=64 time=1\n",
      "note_on channel=0 note=74 velocity=71 time=0\n",
      "note_off channel=0 note=77 velocity=64 time=0\n",
      "note_on channel=0 note=79 velocity=42 time=0\n",
      "note_off channel=0 note=80 velocity=64 time=0\n",
      "note_off channel=0 note=83 velocity=64 time=0\n",
      "note_on channel=0 note=89 velocity=62 time=0\n",
      "note_off channel=0 note=91 velocity=64 time=0\n",
      "note_on channel=0 note=96 velocity=18 time=0\n",
      "note_off channel=0 note=54 velocity=64 time=1\n",
      "note_on channel=0 note=55 velocity=63 time=0\n",
      "note_on channel=0 note=61 velocity=37 time=0\n",
      "note_on channel=0 note=67 velocity=67 time=0\n",
      "note_on channel=0 note=80 velocity=55 time=0\n",
      "note_off channel=0 note=90 velocity=64 time=0\n",
      "note_on channel=0 note=91 velocity=45 time=0\n",
      "note_on channel=0 note=102 velocity=30 time=0\n",
      "note_on channel=0 note=65 velocity=48 time=1\n",
      "note_off channel=0 note=74 velocity=64 time=0\n",
      "note_off channel=0 note=79 velocity=64 time=0\n",
      "note_on channel=0 note=83 velocity=62 time=0\n",
      "note_off channel=0 note=55 velocity=64 time=1\n",
      "note_on channel=0 note=56 velocity=53 time=0\n",
      "note_off channel=0 note=61 velocity=64 time=0\n",
      "note_off channel=0 note=67 velocity=64 time=0\n",
      "note_on channel=0 note=68 velocity=67 time=0\n",
      "note_on channel=0 note=76 velocity=63 time=0\n",
      "note_on channel=0 note=79 velocity=38 time=0\n",
      "note_off channel=0 note=82 velocity=64 time=0\n",
      "note_on channel=0 note=84 velocity=47 time=0\n",
      "note_on channel=0 note=90 velocity=72 time=0\n",
      "note_off channel=0 note=91 velocity=64 time=0\n",
      "note_off channel=0 note=68 velocity=64 time=1\n",
      "note_on channel=0 note=69 velocity=73 time=0\n",
      "note_off channel=0 note=89 velocity=64 time=0\n",
      "note_off channel=0 note=56 velocity=64 time=1\n",
      "note_on channel=0 note=61 velocity=18 time=0\n",
      "note_off channel=0 note=96 velocity=64 time=0\n",
      "note_on channel=0 note=56 velocity=55 time=1\n",
      "note_on channel=0 note=68 velocity=69 time=0\n",
      "note_off channel=0 note=69 velocity=64 time=0\n",
      "note_on channel=0 note=75 velocity=75 time=0\n",
      "note_on channel=0 note=85 velocity=40 time=0\n",
      "note_on channel=0 note=92 velocity=56 time=0\n",
      "note_off channel=0 note=76 velocity=64 time=1\n",
      "note_off channel=0 note=80 velocity=64 time=0\n",
      "note_off channel=0 note=84 velocity=64 time=0\n",
      "note_off channel=0 note=88 velocity=64 time=0\n",
      "note_on channel=0 note=89 velocity=71 time=0\n",
      "note_off channel=0 note=65 velocity=64 time=1\n",
      "note_on channel=0 note=67 velocity=69 time=0\n",
      "note_off channel=0 note=68 velocity=64 time=0\n",
      "note_on channel=0 note=80 velocity=68 time=0\n",
      "note_on channel=0 note=88 velocity=39 time=0\n",
      "note_on channel=0 note=91 velocity=61 time=0\n",
      "note_off channel=0 note=92 velocity=64 time=0\n",
      "note_on channel=0 note=55 velocity=45 time=1\n",
      "note_off channel=0 note=56 velocity=64 time=0\n",
      "note_on channel=0 note=65 velocity=51 time=0\n",
      "note_off channel=0 note=67 velocity=64 time=0\n",
      "note_on channel=0 note=68 velocity=73 time=0\n",
      "note_off channel=0 note=79 velocity=64 time=0\n",
      "note_off channel=0 note=61 velocity=64 time=1\n",
      "note_on channel=0 note=84 velocity=58 time=0\n",
      "note_off channel=0 note=88 velocity=64 time=0\n",
      "note_off channel=0 note=90 velocity=64 time=0\n",
      "note_off channel=0 note=95 velocity=64 time=0\n",
      "note_off channel=0 note=55 velocity=64 time=1\n",
      "note_on channel=0 note=90 velocity=78 time=0\n",
      "note_off channel=0 note=91 velocity=64 time=0\n",
      "note_on channel=0 note=57 velocity=63 time=1\n",
      "note_off channel=0 note=68 velocity=64 time=0\n",
      "note_on channel=0 note=69 velocity=72 time=0\n",
      "note_off channel=0 note=75 velocity=64 time=0\n",
      "note_on channel=0 note=76 velocity=92 time=0\n",
      "note_on channel=0 note=91 velocity=76 time=0\n",
      "note_off channel=0 note=102 velocity=64 time=0\n",
      "note_off channel=0 note=84 velocity=64 time=1\n",
      "note_off channel=0 note=89 velocity=64 time=0\n",
      "note_on channel=0 note=75 velocity=60 time=1\n",
      "note_on channel=0 note=94 velocity=46 time=0\n",
      "note_on channel=0 note=64 velocity=80 time=1\n",
      "note_off channel=0 note=65 velocity=64 time=0\n",
      "note_on channel=0 note=96 velocity=27 time=0\n",
      "note_on channel=0 note=101 velocity=46 time=0\n",
      "note_on channel=0 note=45 velocity=74 time=1\n",
      "note_off channel=0 note=75 velocity=64 time=0\n",
      "note_on channel=0 note=84 velocity=60 time=0\n",
      "note_off channel=0 note=91 velocity=64 time=0\n",
      "note_on channel=0 note=44 velocity=78 time=1\n",
      "note_off channel=0 note=45 velocity=64 time=0\n",
      "note_off channel=0 note=57 velocity=64 time=0\n",
      "note_on channel=0 note=63 velocity=71 time=0\n",
      "note_off channel=0 note=64 velocity=64 time=0\n",
      "note_on channel=0 note=68 velocity=69 time=0\n",
      "note_off channel=0 note=69 velocity=64 time=0\n",
      "note_on channel=0 note=73 velocity=37 time=0\n",
      "note_off channel=0 note=85 velocity=64 time=1\n",
      "note_on channel=0 note=89 velocity=57 time=0\n",
      "note_off channel=0 note=76 velocity=64 time=1\n",
      "note_off channel=0 note=93 velocity=64 time=0\n",
      "note_off channel=0 note=101 velocity=64 time=0\n",
      "note_on channel=0 note=57 velocity=55 time=1\n",
      "note_off channel=0 note=68 velocity=64 time=0\n",
      "note_on channel=0 note=69 velocity=60 time=0\n",
      "note_on channel=0 note=77 velocity=79 time=0\n",
      "note_off channel=0 note=87 velocity=64 time=0\n",
      "note_on channel=0 note=101 velocity=61 time=0\n",
      "note_off channel=0 note=44 velocity=64 time=1\n",
      "note_off channel=0 note=63 velocity=64 time=0\n",
      "note_off channel=0 note=80 velocity=64 time=0\n",
      "note_on channel=0 note=82 velocity=53 time=0\n",
      "note_on channel=0 note=87 velocity=52 time=0\n",
      "note_on channel=0 note=91 velocity=80 time=0\n",
      "note_on channel=0 note=93 velocity=30 time=0\n",
      "note_on channel=0 note=41 velocity=56 time=1\n",
      "note_off channel=0 note=57 velocity=64 time=0\n",
      "note_off channel=0 note=69 velocity=64 time=0\n",
      "note_on channel=0 note=75 velocity=56 time=0\n",
      "note_on channel=0 note=80 velocity=45 time=0\n",
      "note_off channel=0 note=89 velocity=64 time=0\n",
      "note_on channel=0 note=98 velocity=10 time=0\n",
      "note_off channel=0 note=73 velocity=64 time=1\n",
      "note_on channel=0 note=78 velocity=74 time=0\n",
      "note_off channel=0 note=84 velocity=64 time=0\n",
      "note_off channel=0 note=41 velocity=64 time=1\n",
      "note_on channel=0 note=43 velocity=60 time=0\n",
      "note_on channel=0 note=60 velocity=66 time=0\n",
      "note_on channel=0 note=66 velocity=16 time=0\n",
      "note_on channel=0 note=72 velocity=85 time=0\n",
      "note_off channel=0 note=77 velocity=64 time=0\n",
      "note_on channel=0 note=89 velocity=50 time=0\n",
      "note_off channel=0 note=90 velocity=64 time=0\n",
      "note_off channel=0 note=75 velocity=64 time=1\n",
      "note_off channel=0 note=78 velocity=64 time=0\n",
      "note_on channel=0 note=79 velocity=73 time=0\n",
      "note_off channel=0 note=80 velocity=64 time=0\n",
      "note_off channel=0 note=82 velocity=64 time=0\n",
      "note_on channel=0 note=88 velocity=42 time=0\n",
      "note_on channel=0 note=90 velocity=57 time=0\n",
      "note_on channel=0 note=82 velocity=31 time=1\n",
      "note_off channel=0 note=93 velocity=64 time=0\n",
      "note_on channel=0 note=42 velocity=54 time=1\n",
      "note_off channel=0 note=43 velocity=64 time=0\n",
      "note_on channel=0 note=77 velocity=48 time=0\n",
      "note_off channel=0 note=98 velocity=64 time=0\n",
      "note_off channel=0 note=66 velocity=64 time=1\n",
      "note_on channel=0 note=76 velocity=36 time=0\n",
      "note_on channel=0 note=80 velocity=81 time=0\n",
      "note_off channel=0 note=83 velocity=64 time=0\n",
      "note_off channel=0 note=88 velocity=64 time=0\n",
      "note_off channel=0 note=90 velocity=64 time=0\n",
      "note_on channel=0 note=93 velocity=41 time=0\n",
      "note_off channel=0 note=94 velocity=64 time=0\n",
      "note_off channel=0 note=96 velocity=64 time=0\n",
      "note_on channel=0 note=102 velocity=33 time=0\n",
      "note_off channel=0 note=42 velocity=64 time=1\n",
      "note_off channel=0 note=60 velocity=64 time=0\n",
      "note_on channel=0 note=61 velocity=74 time=0\n",
      "note_off channel=0 note=77 velocity=64 time=0\n",
      "note_off channel=0 note=82 velocity=64 time=0\n",
      "note_on channel=0 note=83 velocity=68 time=0\n",
      "note_on channel=0 note=88 velocity=47 time=0\n",
      "note_on channel=0 note=90 velocity=88 time=0\n",
      "note_off channel=0 note=91 velocity=64 time=0\n",
      "note_on channel=0 note=48 velocity=65 time=1\n",
      "note_on channel=0 note=71 velocity=76 time=0\n",
      "note_off channel=0 note=72 velocity=64 time=0\n",
      "note_on channel=0 note=78 velocity=83 time=0\n",
      "note_off channel=0 note=79 velocity=64 time=0\n",
      "note_on channel=0 note=96 velocity=33 time=0\n",
      "note_off channel=0 note=71 velocity=64 time=1\n",
      "note_on channel=0 note=72 velocity=82 time=0\n",
      "note_off channel=0 note=78 velocity=64 time=0\n",
      "note_on channel=0 note=79 velocity=83 time=0\n",
      "note_off channel=0 note=83 velocity=64 time=0\n",
      "note_off channel=0 note=90 velocity=64 time=0\n",
      "note_on channel=0 note=91 velocity=87 time=0\n",
      "note_on channel=0 note=94 velocity=46 time=0\n",
      "note_on channel=0 note=47 velocity=71 time=1\n",
      "note_off channel=0 note=48 velocity=64 time=0\n",
      "note_on channel=0 note=67 velocity=35 time=0\n",
      "note_off channel=0 note=79 velocity=64 time=0\n",
      "note_on channel=0 note=83 velocity=43 time=0\n",
      "note_on channel=0 note=85 velocity=51 time=0\n",
      "note_on channel=0 note=90 velocity=73 time=0\n",
      "note_off channel=0 note=93 velocity=64 time=0\n",
      "note_off channel=0 note=47 velocity=64 time=1\n",
      "note_on channel=0 note=48 velocity=70 time=0\n",
      "note_off channel=0 note=72 velocity=64 time=0\n",
      "note_on channel=0 note=73 velocity=79 time=0\n",
      "note_off channel=0 note=76 velocity=64 time=0\n",
      "note_off channel=0 note=87 velocity=64 time=0\n",
      "note_on channel=0 note=72 velocity=39 time=1\n",
      "note_off channel=0 note=73 velocity=64 time=0\n",
      "note_on channel=0 note=74 velocity=73 time=0\n",
      "note_on channel=0 note=78 velocity=59 time=0\n",
      "note_off channel=0 note=80 velocity=64 time=0\n",
      "note_on channel=0 note=81 velocity=81 time=0\n",
      "note_on channel=0 note=87 velocity=74 time=0\n",
      "note_off channel=0 note=89 velocity=64 time=0\n",
      "note_off channel=0 note=48 velocity=64 time=1\n",
      "note_on channel=0 note=50 velocity=75 time=0\n",
      "note_off channel=0 note=61 velocity=64 time=0\n",
      "note_off channel=0 note=85 velocity=64 time=0\n",
      "note_on channel=0 note=89 velocity=37 time=0\n",
      "note_off channel=0 note=91 velocity=64 time=0\n",
      "note_on channel=0 note=92 velocity=25 time=0\n",
      "note_off channel=0 note=50 velocity=64 time=1\n",
      "note_on channel=0 note=53 velocity=72 time=0\n",
      "note_on channel=0 note=63 velocity=60 time=0\n",
      "note_off channel=0 note=74 velocity=64 time=0\n",
      "note_on channel=0 note=75 velocity=79 time=0\n",
      "note_on channel=0 note=77 velocity=51 time=0\n",
      "note_off channel=0 note=78 velocity=64 time=0\n",
      "note_on channel=0 note=79 velocity=55 time=0\n",
      "note_off channel=0 note=81 velocity=64 time=0\n",
      "note_on channel=0 note=82 velocity=90 time=0\n",
      "note_off channel=0 note=83 velocity=64 time=0\n",
      "note_on channel=0 note=85 velocity=32 time=0\n",
      "note_on channel=0 note=91 velocity=95 time=0\n",
      "note_off channel=0 note=67 velocity=64 time=1\n",
      "note_on channel=0 note=71 velocity=46 time=0\n",
      "note_off channel=0 note=72 velocity=64 time=0\n",
      "note_on channel=0 note=73 velocity=39 time=0\n",
      "note_off channel=0 note=102 velocity=64 time=0\n",
      "note_off channel=0 note=53 velocity=64 time=1\n",
      "note_on channel=0 note=54 velocity=54 time=0\n",
      "note_on channel=0 note=69 velocity=16 time=0\n",
      "note_on channel=0 note=80 velocity=44 time=0\n",
      "note_on channel=0 note=86 velocity=36 time=0\n",
      "note_off channel=0 note=88 velocity=64 time=0\n",
      "note_off channel=0 note=90 velocity=64 time=0\n",
      "note_off channel=0 note=96 velocity=64 time=0\n",
      "note_on channel=0 note=97 velocity=41 time=0\n",
      "note_off channel=0 note=73 velocity=64 time=1\n",
      "note_off channel=0 note=79 velocity=64 time=0\n",
      "note_on channel=0 note=88 velocity=24 time=0\n",
      "note_on channel=0 note=53 velocity=54 time=1\n",
      "note_off channel=0 note=54 velocity=64 time=0\n",
      "note_off channel=0 note=80 velocity=64 time=0\n",
      "note_off channel=0 note=86 velocity=64 time=0\n",
      "note_off channel=0 note=89 velocity=64 time=0\n",
      "note_on channel=0 note=93 velocity=65 time=0\n",
      "note_off channel=0 note=94 velocity=64 time=0\n",
      "note_on channel=0 note=102 velocity=54 time=0\n",
      "note_on channel=0 note=62 velocity=79 time=1\n",
      "note_off channel=0 note=63 velocity=64 time=0\n",
      "note_off channel=0 note=69 velocity=64 time=0\n",
      "note_on channel=0 note=81 velocity=80 time=0\n",
      "note_off channel=0 note=85 velocity=64 time=0\n",
      "note_on channel=0 note=86 velocity=55 time=0\n",
      "note_on channel=0 note=90 velocity=70 time=0\n",
      "note_off channel=0 note=91 velocity=64 time=0\n",
      "note_off channel=0 note=97 velocity=64 time=0\n",
      "note_on channel=0 note=74 velocity=79 time=1\n",
      "note_off channel=0 note=88 velocity=64 time=0\n",
      "note_off channel=0 note=92 velocity=64 time=0\n",
      "note_on channel=0 note=95 velocity=24 time=0\n",
      "note_off channel=0 note=53 velocity=64 time=1\n",
      "note_off channel=0 note=75 velocity=64 time=0\n",
      "note_on channel=0 note=79 velocity=41 time=1\n",
      "note_off channel=0 note=82 velocity=64 time=0\n",
      "note_on channel=0 note=92 velocity=78 time=0\n",
      "note_on channel=0 note=96 velocity=32 time=0\n",
      "note_on channel=0 note=45 velocity=76 time=1\n",
      "note_on channel=0 note=53 velocity=47 time=0\n",
      "note_off channel=0 note=62 velocity=64 time=0\n",
      "note_on channel=0 note=63 velocity=82 time=0\n",
      "note_on channel=0 note=67 velocity=57 time=0\n",
      "note_on channel=0 note=97 velocity=24 time=0\n",
      "note_off channel=0 note=74 velocity=64 time=1\n",
      "note_on channel=0 note=80 velocity=46 time=0\n",
      "note_off channel=0 note=81 velocity=64 time=0\n",
      "note_on channel=0 note=82 velocity=85 time=0\n",
      "note_on channel=0 note=85 velocity=20 time=0\n",
      "note_off channel=0 note=86 velocity=64 time=0\n",
      "note_on channel=0 note=91 velocity=78 time=0\n",
      "note_on channel=0 note=44 velocity=78 time=1\n",
      "note_off channel=0 note=45 velocity=64 time=0\n",
      "note_off channel=0 note=53 velocity=64 time=0\n",
      "note_off channel=0 note=77 velocity=64 time=0\n",
      "note_off channel=0 note=79 velocity=64 time=0\n",
      "note_on channel=0 note=81 velocity=56 time=0\n",
      "note_on channel=0 note=86 velocity=30 time=0\n",
      "note_off channel=0 note=95 velocity=64 time=0\n",
      "note_off channel=0 note=96 velocity=64 time=0\n",
      "note_off channel=0 note=67 velocity=64 time=1\n",
      "note_on channel=0 note=68 velocity=36 time=0\n",
      "note_on channel=0 note=76 velocity=87 time=0\n",
      "note_off channel=0 note=80 velocity=64 time=0\n",
      "note_off channel=0 note=82 velocity=64 time=0\n",
      "note_on channel=0 note=83 velocity=87 time=0\n",
      "note_off channel=0 note=90 velocity=64 time=0\n",
      "note_on channel=0 note=73 velocity=43 time=1\n",
      "note_on channel=0 note=78 velocity=13 time=0\n",
      "note_off channel=0 note=86 velocity=64 time=0\n",
      "note_off channel=0 note=97 velocity=64 time=0\n",
      "note_off channel=0 note=101 velocity=64 time=0\n",
      "note_off channel=0 note=63 velocity=64 time=1\n",
      "note_on channel=0 note=64 velocity=62 time=0\n",
      "note_on channel=0 note=80 velocity=85 time=0\n",
      "note_off channel=0 note=81 velocity=64 time=0\n",
      "note_on channel=0 note=89 velocity=28 time=0\n",
      "note_off channel=0 note=87 velocity=64 time=1\n",
      "note_off channel=0 note=93 velocity=64 time=0\n",
      "note_off channel=0 note=44 velocity=64 time=1\n",
      "note_off channel=0 note=78 velocity=64 time=0\n",
      "note_off channel=0 note=91 velocity=64 time=0\n",
      "note_on channel=0 note=97 velocity=22 time=0\n",
      "note_on channel=0 note=63 velocity=69 time=1\n",
      "note_off channel=0 note=64 velocity=64 time=0\n",
      "note_off channel=0 note=68 velocity=64 time=0\n",
      "note_on channel=0 note=82 velocity=94 time=0\n",
      "note_off channel=0 note=83 velocity=64 time=0\n",
      "note_off channel=0 note=85 velocity=64 time=0\n",
      "note_on channel=0 note=91 velocity=81 time=0\n",
      "note_off channel=0 note=92 velocity=64 time=0\n",
      "note_on channel=0 note=99 velocity=36 time=0\n",
      "note_off channel=0 note=100 velocity=64 time=0\n",
      "note_on channel=0 note=101 velocity=44 time=0\n",
      "note_off channel=0 note=102 velocity=64 time=0\n",
      "note_on channel=0 note=43 velocity=59 time=1\n",
      "note_on channel=0 note=68 velocity=13 time=0\n",
      "note_off channel=0 note=73 velocity=64 time=0\n",
      "note_on channel=0 note=75 velocity=87 time=0\n",
      "note_off channel=0 note=76 velocity=64 time=0\n",
      "note_on channel=0 note=54 velocity=24 time=1\n",
      "note_on channel=0 note=62 velocity=66 time=0\n",
      "note_off channel=0 note=63 velocity=64 time=0\n",
      "note_on channel=0 note=83 velocity=66 time=0\n",
      "note_on channel=0 note=61 velocity=65 time=1\n",
      "note_off channel=0 note=62 velocity=64 time=0\n",
      "note_off channel=0 note=89 velocity=64 time=0\n",
      "note_on channel=0 note=42 velocity=57 time=1\n",
      "note_off channel=0 note=43 velocity=64 time=0\n",
      "note_off channel=0 note=83 velocity=64 time=0\n",
      "note_on channel=0 note=89 velocity=14 time=0\n",
      "note_off channel=0 note=61 velocity=64 time=1\n",
      "note_on channel=0 note=62 velocity=69 time=0\n",
      "note_off channel=0 note=68 velocity=64 time=0\n",
      "note_on channel=0 note=61 velocity=65 time=1\n",
      "note_off channel=0 note=62 velocity=64 time=0\n",
      "note_on channel=0 note=85 velocity=46 time=0\n",
      "note_off channel=0 note=101 velocity=64 time=0\n",
      "note_on channel=0 note=102 velocity=64 time=0\n",
      "note_off channel=0 note=42 velocity=64 time=1\n",
      "note_on channel=0 note=60 velocity=69 time=0\n",
      "note_off channel=0 note=61 velocity=64 time=0\n",
      "note_on channel=0 note=76 velocity=90 time=0\n",
      "note_on channel=0 note=83 velocity=87 time=0\n",
      "note_off channel=0 note=99 velocity=64 time=0\n",
      "note_on channel=0 note=100 velocity=50 time=0\n",
      "note_on channel=0 note=42 velocity=55 time=1\n",
      "note_off channel=0 note=60 velocity=64 time=0\n",
      "note_on channel=0 note=61 velocity=73 time=0\n",
      "note_on channel=0 note=64 velocity=65 time=0\n",
      "note_off channel=0 note=75 velocity=64 time=0\n",
      "note_off channel=0 note=82 velocity=64 time=0\n",
      "note_off channel=0 note=97 velocity=64 time=0\n",
      "note_off channel=0 note=54 velocity=64 time=1\n",
      "note_on channel=0 note=68 velocity=13 time=0\n",
      "note_on channel=0 note=82 velocity=66 time=0\n",
      "note_off channel=0 note=64 velocity=64 time=1\n",
      "note_off channel=0 note=82 velocity=64 time=0\n",
      "note_off channel=0 note=89 velocity=64 time=0\n",
      "note_off channel=0 note=91 velocity=64 time=0\n",
      "note_off channel=0 note=42 velocity=64 time=3\n",
      "note_on channel=0 note=42 velocity=51 time=1\n",
      "note_off channel=0 note=42 velocity=64 time=2\n",
      "note_on channel=0 note=89 velocity=67 time=0\n",
      "note_on channel=0 note=64 velocity=66 time=1\n",
      "note_off channel=0 note=68 velocity=64 time=0\n",
      "note_on channel=0 note=87 velocity=57 time=0\n",
      "note_on channel=0 note=91 velocity=89 time=0\n",
      "note_on channel=0 note=94 velocity=96 time=0\n",
      "note_off channel=0 note=61 velocity=64 time=1\n",
      "note_on channel=0 note=62 velocity=75 time=0\n",
      "note_off channel=0 note=64 velocity=64 time=0\n",
      "note_on channel=0 note=75 velocity=83 time=0\n",
      "note_off channel=0 note=76 velocity=64 time=0\n",
      "note_on channel=0 note=82 velocity=66 time=0\n",
      "note_on channel=0 note=46 velocity=57 time=1\n",
      "note_on channel=0 note=68 velocity=32 time=0\n",
      "note_off channel=0 note=75 velocity=64 time=0\n",
      "note_on channel=0 note=76 velocity=73 time=0\n",
      "note_off channel=0 note=100 velocity=64 time=0\n",
      "note_on channel=0 note=61 velocity=67 time=1\n",
      "note_off channel=0 note=62 velocity=64 time=0\n",
      "note_on channel=0 note=72 velocity=30 time=0\n",
      "note_on channel=0 note=96 velocity=39 time=0\n",
      "note_off channel=0 note=46 velocity=64 time=1\n",
      "note_on channel=0 note=47 velocity=78 time=0\n",
      "note_off channel=0 note=61 velocity=64 time=0\n",
      "note_on channel=0 note=63 velocity=74 time=0\n",
      "note_off channel=0 note=68 velocity=64 time=0\n",
      "note_off channel=0 note=76 velocity=64 time=0\n",
      "note_off channel=0 note=82 velocity=64 time=0\n",
      "note_on channel=0 note=90 velocity=57 time=0\n",
      "note_on channel=0 note=98 velocity=16 time=0\n",
      "note_off channel=0 note=47 velocity=64 time=1\n",
      "note_on channel=0 note=48 velocity=85 time=0\n",
      "note_off channel=0 note=72 velocity=64 time=0\n",
      "note_on channel=0 note=82 velocity=90 time=0\n",
      "note_off channel=0 note=83 velocity=64 time=0\n",
      "note_on channel=0 note=74 velocity=75 time=1\n",
      "note_off channel=0 note=48 velocity=64 time=1\n",
      "note_off channel=0 note=63 velocity=64 time=0\n",
      "note_on channel=0 note=69 velocity=23 time=0\n",
      "note_off channel=0 note=74 velocity=64 time=0\n",
      "note_on channel=0 note=75 velocity=87 time=0\n",
      "note_off channel=0 note=87 velocity=64 time=0\n",
      "note_on channel=0 note=63 velocity=62 time=1\n",
      "note_off channel=0 note=90 velocity=64 time=0\n",
      "note_on channel=0 note=70 velocity=34 time=1\n",
      "note_off channel=0 note=71 velocity=64 time=0\n",
      "note_on channel=0 note=78 velocity=23 time=0\n",
      "note_on channel=0 note=95 velocity=15 time=0\n",
      "note_off channel=0 note=102 velocity=64 time=0\n",
      "note_on channel=0 note=49 velocity=51 time=1\n",
      "note_on channel=0 note=68 velocity=34 time=0\n",
      "note_off channel=0 note=69 velocity=64 time=0\n",
      "note_on channel=0 note=77 velocity=32 time=0\n",
      "note_off channel=0 note=96 velocity=64 time=0\n",
      "note_off channel=0 note=98 velocity=64 time=0\n",
      "note_off channel=0 note=70 velocity=64 time=2\n",
      "note_on channel=0 note=71 velocity=44 time=0\n",
      "note_off channel=0 note=89 velocity=64 time=0\n",
      "note_off channel=0 note=49 velocity=64 time=1\n",
      "note_on channel=0 note=54 velocity=32 time=0\n",
      "note_off channel=0 note=95 velocity=64 time=0\n",
      "note_on channel=0 note=31 velocity=17 time=1\n",
      "note_on channel=0 note=73 velocity=37 time=0\n",
      "note_off channel=0 note=78 velocity=64 time=0\n",
      "note_on channel=0 note=96 velocity=10 time=0\n",
      "note_on channel=0 note=44 velocity=32 time=1\n",
      "note_off channel=0 note=31 velocity=64 time=2\n",
      "note_off channel=0 note=44 velocity=64 time=0\n",
      "note_off channel=0 note=96 velocity=64 time=0\n",
      "note_off channel=0 note=54 velocity=64 time=2\n",
      "note_on channel=0 note=54 velocity=30 time=1\n",
      "note_off channel=0 note=85 velocity=64 time=2\n",
      "note_off channel=0 note=54 velocity=64 time=2\n",
      "note_off channel=0 note=73 velocity=64 time=0\n",
      "note_off channel=0 note=77 velocity=64 time=1\n",
      "note_on channel=0 note=62 velocity=64 time=1\n",
      "note_off channel=0 note=63 velocity=64 time=0\n",
      "note_on channel=0 note=73 velocity=32 time=0\n",
      "note_on channel=0 note=77 velocity=35 time=0\n",
      "note_on channel=0 note=97 velocity=23 time=0\n",
      "note_on channel=0 note=53 velocity=32 time=1\n",
      "note_off channel=0 note=62 velocity=64 time=1\n",
      "note_on channel=0 note=63 velocity=60 time=0\n",
      "note_off channel=0 note=53 velocity=64 time=1\n",
      "note_off channel=0 note=73 velocity=64 time=0\n",
      "note_off channel=0 note=63 velocity=64 time=1\n",
      "note_on channel=0 note=64 velocity=66 time=0\n",
      "note_on channel=0 note=76 velocity=90 time=0\n",
      "note_off channel=0 note=77 velocity=64 time=0\n",
      "note_off channel=0 note=82 velocity=64 time=0\n",
      "note_on channel=0 note=83 velocity=68 time=0\n",
      "note_off channel=0 note=97 velocity=64 time=0\n",
      "note_on channel=0 note=100 velocity=46 time=0\n",
      "note_on channel=0 note=102 velocity=69 time=0\n",
      "note_on channel=0 note=49 velocity=39 time=1\n",
      "note_on channel=0 note=73 velocity=33 time=0\n",
      "note_off channel=0 note=75 velocity=64 time=0\n",
      "note_on channel=0 note=93 velocity=30 time=0\n",
      "note_on channel=0 note=95 velocity=69 time=0\n",
      "note_on channel=0 note=97 velocity=31 time=0\n",
      "note_on channel=0 note=57 velocity=48 time=1\n",
      "note_off channel=0 note=68 velocity=64 time=0\n",
      "note_on channel=0 note=84 velocity=38 time=0\n",
      "note_on channel=0 note=89 velocity=64 time=0\n",
      "note_off channel=0 note=49 velocity=64 time=1\n",
      "note_on channel=0 note=87 velocity=43 time=0\n",
      "note_on channel=0 note=45 velocity=72 time=1\n",
      "note_off channel=0 note=64 velocity=64 time=0\n",
      "note_on channel=0 note=67 velocity=44 time=0\n",
      "note_off channel=0 note=73 velocity=64 time=0\n",
      "note_on channel=0 note=85 velocity=36 time=0\n",
      "note_off channel=0 note=94 velocity=64 time=0\n",
      "note_on channel=0 note=44 velocity=76 time=1\n",
      "note_off channel=0 note=45 velocity=64 time=0\n",
      "note_on channel=0 note=64 velocity=67 time=0\n",
      "note_off channel=0 note=71 velocity=64 time=0\n",
      "note_on channel=0 note=73 velocity=39 time=0\n",
      "note_off channel=0 note=87 velocity=64 time=1\n",
      "note_off channel=0 note=67 velocity=64 time=1\n",
      "note_on channel=0 note=68 velocity=39 time=0\n",
      "note_on channel=0 note=71 velocity=44 time=0\n",
      "note_off channel=0 note=84 velocity=64 time=0\n",
      "note_on channel=0 note=90 velocity=11 time=0\n",
      "note_off channel=0 note=91 velocity=64 time=0\n",
      "note_on channel=0 note=92 velocity=89 time=0\n",
      "note_on channel=0 note=43 velocity=74 time=1\n",
      "note_off channel=0 note=44 velocity=64 time=0\n",
      "note_off channel=0 note=57 velocity=64 time=0\n",
      "note_on channel=0 note=53 velocity=31 time=1\n",
      "note_off channel=0 note=93 velocity=64 time=0\n",
      "note_off channel=0 note=53 velocity=64 time=2\n",
      "note_on channel=0 note=54 velocity=18 time=0\n",
      "note_off channel=0 note=89 velocity=64 time=1\n",
      "note_off channel=0 note=90 velocity=64 time=1\n",
      "note_off channel=0 note=54 velocity=64 time=1\n",
      "note_on channel=0 note=89 velocity=46 time=0\n",
      "note_off channel=0 note=97 velocity=64 time=1\n",
      "note_on channel=0 note=98 velocity=21 time=0\n",
      "note_off channel=0 note=43 velocity=64 time=2\n",
      "note_off channel=0 note=83 velocity=64 time=0\n",
      "note_on channel=0 note=50 velocity=21 time=1\n",
      "note_on channel=0 note=83 velocity=73 time=0\n",
      "note_on channel=0 note=90 velocity=14 time=1\n",
      "note_off channel=0 note=98 velocity=64 time=0\n",
      "note_off channel=0 note=85 velocity=64 time=1\n",
      "note_off channel=0 note=50 velocity=64 time=1\n",
      "note_off channel=0 note=90 velocity=64 time=1\n",
      "note_on channel=0 note=91 velocity=17 time=0\n",
      "note_off channel=0 note=91 velocity=64 time=3\n",
      "note_on channel=0 note=90 velocity=27 time=3\n",
      "note_on channel=0 note=91 velocity=32 time=2\n",
      "note_on channel=0 note=49 velocity=55 time=1\n",
      "note_on channel=0 note=63 velocity=78 time=1\n",
      "note_off channel=0 note=64 velocity=64 time=0\n",
      "note_off channel=0 note=68 velocity=64 time=0\n",
      "note_off channel=0 note=90 velocity=64 time=0\n",
      "note_on channel=0 note=45 velocity=77 time=1\n",
      "note_off channel=0 note=49 velocity=64 time=0\n",
      "note_on channel=0 note=53 velocity=42 time=0\n",
      "note_off channel=0 note=63 velocity=64 time=0\n",
      "note_on channel=0 note=64 velocity=85 time=0\n",
      "note_on channel=0 note=90 velocity=29 time=0\n",
      "note_on channel=0 note=98 velocity=21 time=0\n",
      "note_off channel=0 note=71 velocity=64 time=1\n",
      "note_off channel=0 note=91 velocity=64 time=0\n",
      "note_off channel=0 note=100 velocity=64 time=0\n",
      "note_on channel=0 note=44 velocity=77 time=1\n",
      "note_off channel=0 note=45 velocity=64 time=0\n",
      "note_off channel=0 note=53 velocity=64 time=0\n",
      "note_off channel=0 note=90 velocity=64 time=0\n",
      "note_off channel=0 note=64 velocity=64 time=1\n",
      "note_on channel=0 note=68 velocity=38 time=0\n",
      "note_on channel=0 note=53 velocity=32 time=1\n",
      "note_on channel=0 note=71 velocity=20 time=0\n",
      "note_on channel=0 note=91 velocity=37 time=0\n",
      "note_on channel=0 note=64 velocity=69 time=1\n",
      "note_on channel=0 note=97 velocity=24 time=0\n",
      "note_off channel=0 note=98 velocity=64 time=0\n",
      "note_off channel=0 note=44 velocity=64 time=1\n",
      "note_off channel=0 note=53 velocity=64 time=0\n",
      "note_off channel=0 note=68 velocity=64 time=1\n",
      "note_on channel=0 note=43 velocity=62 time=2\n",
      "note_on channel=0 note=68 velocity=15 time=0\n",
      "note_off channel=0 note=71 velocity=64 time=0\n",
      "note_on channel=0 note=90 velocity=41 time=0\n",
      "note_on channel=0 note=87 velocity=40 time=2\n",
      "note_off channel=0 note=97 velocity=64 time=0\n",
      "note_on channel=0 note=98 velocity=18 time=0\n",
      "note_off channel=0 note=43 velocity=64 time=1\n",
      "note_on channel=0 note=61 velocity=61 time=0\n",
      "note_on channel=0 note=48 velocity=65 time=1\n",
      "note_off channel=0 note=68 velocity=64 time=1\n",
      "note_on channel=0 note=68 velocity=42 time=1\n",
      "note_off channel=0 note=91 velocity=64 time=0\n",
      "note_on channel=0 note=47 velocity=71 time=1\n",
      "note_off channel=0 note=48 velocity=64 time=0\n",
      "note_off channel=0 note=47 velocity=64 time=1\n",
      "note_on channel=0 note=48 velocity=71 time=0\n",
      "note_on channel=0 note=91 velocity=92 time=0\n",
      "note_on channel=0 note=97 velocity=25 time=0\n",
      "note_off channel=0 note=98 velocity=64 time=0\n",
      "note_off channel=0 note=64 velocity=64 time=1\n",
      "note_on channel=0 note=75 velocity=54 time=0\n",
      "note_on channel=0 note=82 velocity=67 time=0\n",
      "note_off channel=0 note=83 velocity=64 time=0\n",
      "note_off channel=0 note=87 velocity=64 time=0\n",
      "note_off channel=0 note=92 velocity=64 time=0\n",
      "note_off channel=0 note=48 velocity=64 time=1\n",
      "note_on channel=0 note=49 velocity=74 time=0\n",
      "note_on channel=0 note=64 velocity=66 time=0\n",
      "note_off channel=0 note=76 velocity=64 time=0\n",
      "note_on channel=0 note=83 velocity=77 time=0\n",
      "note_off channel=0 note=49 velocity=64 time=1\n",
      "note_on channel=0 note=53 velocity=74 time=0\n",
      "note_off channel=0 note=61 velocity=64 time=0\n",
      "note_on channel=0 note=71 velocity=13 time=0\n",
      "note_off channel=0 note=75 velocity=64 time=0\n",
      "note_on channel=0 note=76 velocity=86 time=0\n",
      "note_off channel=0 note=82 velocity=64 time=0\n",
      "note_off channel=0 note=64 velocity=64 time=1\n",
      "note_off channel=0 note=97 velocity=64 time=0\n",
      "note_off channel=0 note=53 velocity=64 time=1\n",
      "note_on channel=0 note=64 velocity=68 time=0\n",
      "note_on channel=0 note=92 velocity=85 time=0\n",
      "note_on channel=0 note=53 velocity=57 time=2\n",
      "note_off channel=0 note=71 velocity=64 time=0\n",
      "note_off channel=0 note=91 velocity=64 time=0\n",
      "note_on channel=0 note=91 velocity=31 time=3\n",
      "note_off channel=0 note=53 velocity=64 time=1\n",
      "note_off channel=0 note=68 velocity=64 time=0\n",
      "note_off channel=0 note=73 velocity=64 time=0\n",
      "note_on channel=0 note=77 velocity=40 time=0\n",
      "note_off channel=0 note=89 velocity=64 time=0\n",
      "note_on channel=0 note=48 velocity=65 time=1\n",
      "note_on channel=0 note=63 velocity=80 time=0\n",
      "note_off channel=0 note=64 velocity=64 time=0\n",
      "note_on channel=0 note=73 velocity=46 time=0\n",
      "note_on channel=0 note=89 velocity=68 time=0\n",
      "note_on channel=0 note=45 velocity=76 time=1\n",
      "note_off channel=0 note=48 velocity=64 time=0\n",
      "note_off channel=0 note=63 velocity=64 time=0\n",
      "note_on channel=0 note=64 velocity=80 time=0\n",
      "note_off channel=0 note=77 velocity=64 time=0\n",
      "note_on channel=0 note=44 velocity=78 time=1\n",
      "note_off channel=0 note=45 velocity=64 time=0\n",
      "note_on channel=0 note=63 velocity=63 time=1\n",
      "note_off channel=0 note=64 velocity=64 time=0\n",
      "note_on channel=0 note=78 velocity=13 time=0\n",
      "note_off channel=0 note=91 velocity=64 time=0\n",
      "note_on channel=0 note=54 velocity=37 time=1\n",
      "note_on channel=0 note=71 velocity=18 time=0\n",
      "note_on channel=0 note=91 velocity=29 time=0\n",
      "note_on channel=0 note=98 velocity=16 time=0\n",
      "note_off channel=0 note=44 velocity=64 time=1\n",
      "note_on channel=0 note=45 velocity=76 time=0\n",
      "note_off channel=0 note=90 velocity=64 time=0\n",
      "note_off channel=0 note=54 velocity=64 time=1\n",
      "note_off channel=0 note=63 velocity=64 time=0\n",
      "note_on channel=0 note=64 velocity=64 time=0\n",
      "note_on channel=0 note=44 velocity=71 time=1\n",
      "note_off channel=0 note=45 velocity=64 time=0\n",
      "note_off channel=0 note=71 velocity=64 time=0\n",
      "note_off channel=0 note=78 velocity=64 time=0\n",
      "note_on channel=0 note=71 velocity=25 time=1\n",
      "note_on channel=0 note=86 velocity=17 time=0\n",
      "note_on channel=0 note=97 velocity=16 time=0\n",
      "note_off channel=0 note=98 velocity=64 time=0\n",
      "note_on channel=0 note=43 velocity=62 time=1\n",
      "note_off channel=0 note=44 velocity=64 time=0\n",
      "note_on channel=0 note=61 velocity=58 time=1\n",
      "note_on channel=0 note=90 velocity=30 time=0\n",
      "note_off channel=0 note=91 velocity=64 time=0\n",
      "note_on channel=0 note=42 velocity=59 time=1\n",
      "note_off channel=0 note=43 velocity=64 time=0\n",
      "note_off channel=0 note=86 velocity=64 time=0\n",
      "note_on channel=0 note=91 velocity=93 time=0\n",
      "note_off channel=0 note=92 velocity=64 time=0\n",
      "note_off channel=0 note=61 velocity=64 time=1\n",
      "note_on channel=0 note=63 velocity=65 time=0\n",
      "note_off channel=0 note=64 velocity=64 time=0\n",
      "note_on channel=0 note=86 velocity=14 time=0\n",
      "note_on channel=0 note=87 velocity=65 time=0\n",
      "note_on channel=0 note=94 velocity=34 time=0\n",
      "note_off channel=0 note=95 velocity=64 time=0\n",
      "note_off channel=0 note=102 velocity=64 time=0\n",
      "note_off channel=0 note=42 velocity=64 time=1\n",
      "note_on channel=0 note=61 velocity=60 time=0\n",
      "note_on channel=0 note=82 velocity=74 time=0\n",
      "note_off channel=0 note=83 velocity=64 time=0\n",
      "note_off channel=0 note=90 velocity=64 time=0\n",
      "note_off channel=0 note=63 velocity=64 time=1\n",
      "note_on channel=0 note=75 velocity=77 time=1\n",
      "note_off channel=0 note=76 velocity=64 time=0\n",
      "note_off channel=0 note=97 velocity=64 time=0\n",
      "note_on channel=0 note=47 velocity=73 time=1\n",
      "note_on channel=0 note=54 velocity=33 time=0\n",
      "note_on channel=0 note=67 velocity=35 time=0\n",
      "note_off channel=0 note=86 velocity=64 time=0\n",
      "note_off channel=0 note=61 velocity=64 time=1\n",
      "note_on channel=0 note=78 velocity=20 time=0\n",
      "note_off channel=0 note=47 velocity=64 time=1\n",
      "note_on channel=0 note=48 velocity=73 time=0\n",
      "note_off channel=0 note=54 velocity=64 time=0\n",
      "note_on channel=0 note=63 velocity=68 time=0\n",
      "note_off channel=0 note=67 velocity=64 time=0\n",
      "note_on channel=0 note=68 velocity=32 time=0\n",
      "note_on channel=0 note=84 velocity=18 time=0\n",
      "note_off channel=0 note=48 velocity=64 time=2\n",
      "note_on channel=0 note=52 velocity=76 time=0\n",
      "note_off channel=0 note=68 velocity=64 time=0\n",
      "note_off channel=0 note=52 velocity=64 time=1\n",
      "note_on channel=0 note=53 velocity=69 time=0\n",
      "note_off channel=0 note=53 velocity=64 time=3\n",
      "note_on channel=0 note=53 velocity=54 time=1\n",
      "note_on channel=0 note=77 velocity=22 time=0\n",
      "note_on channel=0 note=90 velocity=33 time=1\n",
      "note_off channel=0 note=78 velocity=64 time=1\n",
      "note_off channel=0 note=53 velocity=64 time=1\n",
      "note_off channel=0 note=77 velocity=64 time=0\n",
      "note_on channel=0 note=78 velocity=41 time=0\n",
      "note_off channel=0 note=94 velocity=64 time=0\n",
      "note_on channel=0 note=95 velocity=49 time=0\n",
      "note_on channel=0 note=102 velocity=36 time=0\n",
      "note_on channel=0 note=47 velocity=68 time=1\n"
     ]
    },
    {
     "name": "stdout",
     "output_type": "stream",
     "text": [
      "note_off channel=0 note=82 velocity=64 time=0\n",
      "note_on channel=0 note=83 velocity=76 time=0\n",
      "note_off channel=0 note=84 velocity=64 time=0\n",
      "note_on channel=0 note=88 velocity=47 time=0\n",
      "note_off channel=0 note=90 velocity=64 time=0\n",
      "note_off channel=0 note=47 velocity=64 time=1\n",
      "note_on channel=0 note=48 velocity=86 time=0\n",
      "note_on channel=0 note=67 velocity=54 time=0\n",
      "note_off channel=0 note=71 velocity=64 time=0\n",
      "note_on channel=0 note=96 velocity=13 time=0\n",
      "note_on channel=0 note=98 velocity=14 time=0\n",
      "note_off channel=0 note=63 velocity=64 time=1\n",
      "note_on channel=0 note=64 velocity=64 time=0\n",
      "note_on channel=0 note=71 velocity=28 time=0\n",
      "note_on channel=0 note=84 velocity=19 time=1\n",
      "note_off channel=0 note=48 velocity=64 time=1\n",
      "note_off channel=0 note=67 velocity=64 time=0\n",
      "note_on channel=0 note=68 velocity=22 time=0\n",
      "note_off channel=0 note=96 velocity=64 time=0\n",
      "note_off channel=0 note=98 velocity=64 time=0\n",
      "note_on channel=0 note=47 velocity=67 time=1\n",
      "note_off channel=0 note=75 velocity=64 time=0\n",
      "note_off channel=0 note=78 velocity=64 time=0\n",
      "note_off channel=0 note=88 velocity=64 time=0\n",
      "note_off channel=0 note=47 velocity=64 time=1\n",
      "note_on channel=0 note=48 velocity=65 time=0\n",
      "note_on channel=0 note=78 velocity=25 time=0\n",
      "note_off channel=0 note=87 velocity=64 time=0\n",
      "note_off channel=0 note=48 velocity=64 time=1\n",
      "note_off channel=0 note=91 velocity=64 time=0\n",
      "note_on channel=0 note=45 velocity=58 time=1\n",
      "note_off channel=0 note=68 velocity=64 time=0\n",
      "note_on channel=0 note=91 velocity=92 time=1\n",
      "note_off channel=0 note=78 velocity=64 time=1\n",
      "note_on channel=0 note=44 velocity=48 time=1\n",
      "note_off channel=0 note=45 velocity=64 time=0\n",
      "note_on channel=0 note=78 velocity=23 time=0\n",
      "note_on channel=0 note=87 velocity=66 time=0\n",
      "note_on channel=0 note=54 velocity=23 time=1\n",
      "note_on channel=0 note=63 velocity=60 time=0\n",
      "note_off channel=0 note=64 velocity=64 time=0\n",
      "note_on channel=0 note=82 velocity=70 time=0\n",
      "note_off channel=0 note=83 velocity=64 time=0\n",
      "note_off channel=0 note=95 velocity=64 time=0\n",
      "note_off channel=0 note=102 velocity=64 time=0\n",
      "note_on channel=0 note=75 velocity=73 time=1\n",
      "note_off channel=0 note=78 velocity=64 time=2\n",
      "note_on channel=0 note=43 velocity=30 time=1\n",
      "note_off channel=0 note=44 velocity=64 time=0\n",
      "note_off channel=0 note=54 velocity=64 time=0\n",
      "note_on channel=0 note=68 velocity=37 time=0\n",
      "note_off channel=0 note=84 velocity=64 time=0\n",
      "note_on channel=0 note=95 velocity=18 time=0\n",
      "note_on channel=0 note=54 velocity=24 time=1\n",
      "note_on channel=0 note=70 velocity=16 time=0\n",
      "note_off channel=0 note=71 velocity=64 time=0\n",
      "note_on channel=0 note=93 velocity=24 time=1\n",
      "note_off channel=0 note=63 velocity=64 time=1\n",
      "note_on channel=0 note=63 velocity=61 time=1\n",
      "note_off channel=0 note=70 velocity=64 time=0\n",
      "note_on channel=0 note=77 velocity=33 time=0\n",
      "note_on channel=0 note=42 velocity=25 time=1\n",
      "note_off channel=0 note=43 velocity=64 time=0\n",
      "note_off channel=0 note=95 velocity=64 time=0\n",
      "note_off channel=0 note=54 velocity=64 time=1\n",
      "note_off channel=0 note=63 velocity=64 time=0\n",
      "note_on channel=0 note=71 velocity=11 time=0\n",
      "note_on channel=0 note=86 velocity=11 time=0\n",
      "note_on channel=0 note=95 velocity=38 time=0\n",
      "note_on channel=0 note=63 velocity=65 time=1\n",
      "note_off channel=0 note=42 velocity=64 time=1\n",
      "note_off channel=0 note=71 velocity=64 time=2\n",
      "note_off channel=0 note=86 velocity=64 time=0\n",
      "note_on channel=0 note=84 velocity=41 time=1\n",
      "note_on channel=0 note=78 velocity=45 time=1\n",
      "note_off channel=0 note=77 velocity=64 time=1\n",
      "note_on channel=0 note=102 velocity=30 time=0\n",
      "note_on channel=0 note=45 velocity=76 time=1\n",
      "note_off channel=0 note=63 velocity=64 time=0\n",
      "note_off channel=0 note=68 velocity=64 time=0\n",
      "note_on channel=0 note=69 velocity=41 time=0\n",
      "note_off channel=0 note=73 velocity=64 time=0\n",
      "note_off channel=0 note=78 velocity=64 time=0\n",
      "note_off channel=0 note=82 velocity=64 time=0\n",
      "note_on channel=0 note=83 velocity=66 time=0\n",
      "note_on channel=0 note=88 velocity=47 time=0\n",
      "note_on channel=0 note=90 velocity=42 time=0\n",
      "note_off channel=0 note=75 velocity=64 time=1\n",
      "note_on channel=0 note=76 velocity=54 time=0\n",
      "note_on channel=0 note=44 velocity=77 time=1\n",
      "note_off channel=0 note=45 velocity=64 time=0\n",
      "note_on channel=0 note=73 velocity=24 time=0\n",
      "note_on channel=0 note=78 velocity=28 time=0\n",
      "note_on channel=0 note=64 velocity=63 time=1\n",
      "note_off channel=0 note=69 velocity=64 time=0\n",
      "note_off channel=0 note=84 velocity=64 time=0\n",
      "note_off channel=0 note=90 velocity=64 time=0\n",
      "note_on channel=0 note=71 velocity=21 time=1\n",
      "note_on channel=0 note=84 velocity=28 time=0\n",
      "note_off channel=0 note=88 velocity=64 time=0\n",
      "note_on channel=0 note=90 velocity=77 time=0\n",
      "note_on channel=0 note=43 velocity=73 time=1\n",
      "note_off channel=0 note=44 velocity=64 time=0\n",
      "note_off channel=0 note=64 velocity=64 time=0\n",
      "note_on channel=0 note=64 velocity=65 time=1\n",
      "note_off channel=0 note=76 velocity=64 time=0\n",
      "note_on channel=0 note=88 velocity=35 time=0\n",
      "note_off channel=0 note=78 velocity=64 time=1\n",
      "note_off channel=0 note=91 velocity=64 time=1\n",
      "note_off channel=0 note=71 velocity=64 time=1\n",
      "note_off channel=0 note=87 velocity=64 time=0\n",
      "note_on channel=0 note=91 velocity=91 time=0\n",
      "note_off channel=0 note=43 velocity=64 time=1\n",
      "note_on channel=0 note=71 velocity=17 time=0\n",
      "note_on channel=0 note=78 velocity=21 time=0\n",
      "note_on channel=0 note=49 velocity=37 time=1\n",
      "note_off channel=0 note=88 velocity=64 time=1\n",
      "note_off channel=0 note=49 velocity=64 time=1\n",
      "note_on channel=0 note=86 velocity=17 time=0\n",
      "note_off channel=0 note=78 velocity=64 time=1\n",
      "note_on channel=0 note=82 velocity=70 time=0\n",
      "note_off channel=0 note=83 velocity=64 time=0\n",
      "note_on channel=0 note=87 velocity=49 time=0\n",
      "note_off channel=0 note=95 velocity=64 time=0\n",
      "note_off channel=0 note=102 velocity=64 time=0\n",
      "note_on channel=0 note=63 velocity=57 time=1\n",
      "note_off channel=0 note=64 velocity=64 time=0\n",
      "note_on channel=0 note=75 velocity=74 time=0\n",
      "note_on channel=0 note=78 velocity=18 time=0\n",
      "note_off channel=0 note=86 velocity=64 time=1\n",
      "note_off channel=0 note=87 velocity=64 time=0\n",
      "note_on channel=0 note=49 velocity=33 time=1\n",
      "note_on channel=0 note=95 velocity=15 time=1\n",
      "note_off channel=0 note=49 velocity=64 time=1\n",
      "note_off channel=0 note=71 velocity=64 time=0\n",
      "note_on channel=0 note=71 velocity=22 time=1\n",
      "note_off channel=0 note=73 velocity=64 time=3\n",
      "note_off channel=0 note=78 velocity=64 time=1\n",
      "note_on channel=0 note=77 velocity=47 time=1\n",
      "note_off channel=0 note=93 velocity=64 time=1\n",
      "note_on channel=0 note=49 velocity=53 time=1\n",
      "note_on channel=0 note=73 velocity=37 time=0\n",
      "note_off channel=0 note=63 velocity=64 time=1\n",
      "note_off channel=0 note=71 velocity=64 time=0\n",
      "note_on channel=0 note=48 velocity=72 time=1\n",
      "note_off channel=0 note=49 velocity=64 time=0\n",
      "note_on channel=0 note=65 velocity=73 time=0\n",
      "note_on channel=0 note=45 velocity=78 time=1\n",
      "note_off channel=0 note=48 velocity=64 time=0\n",
      "note_on channel=0 note=64 velocity=72 time=0\n",
      "note_off channel=0 note=65 velocity=64 time=0\n",
      "note_off channel=0 note=95 velocity=64 time=0\n",
      "note_on channel=0 note=44 velocity=79 time=1\n",
      "note_off channel=0 note=45 velocity=64 time=0\n",
      "note_on channel=0 note=95 velocity=34 time=0\n",
      "note_on channel=0 note=62 velocity=58 time=1\n",
      "note_off channel=0 note=64 velocity=64 time=0\n",
      "note_on channel=0 note=69 velocity=29 time=0\n",
      "note_off channel=0 note=75 velocity=64 time=0\n",
      "note_on channel=0 note=76 velocity=62 time=0\n",
      "note_off channel=0 note=77 velocity=64 time=0\n",
      "note_off channel=0 note=82 velocity=64 time=0\n",
      "note_on channel=0 note=83 velocity=52 time=0\n",
      "note_on channel=0 note=71 velocity=46 time=1\n",
      "note_off channel=0 note=62 velocity=64 time=1\n",
      "note_on channel=0 note=64 velocity=64 time=0\n",
      "note_off channel=0 note=69 velocity=64 time=0\n",
      "note_off channel=0 note=89 velocity=64 time=0\n",
      "note_off channel=0 note=44 velocity=64 time=1\n",
      "note_on channel=0 note=87 velocity=36 time=2\n",
      "note_on channel=0 note=93 velocity=19 time=0\n",
      "note_on channel=0 note=43 velocity=60 time=1\n",
      "note_off channel=0 note=91 velocity=64 time=0\n",
      "note_off channel=0 note=84 velocity=64 time=1\n",
      "note_off channel=0 note=43 velocity=64 time=2\n",
      "note_on channel=0 note=68 velocity=15 time=1\n",
      "note_off channel=0 note=87 velocity=64 time=0\n",
      "note_off channel=0 note=73 velocity=64 time=1\n",
      "note_on channel=0 note=91 velocity=77 time=0\n",
      "note_on channel=0 note=47 velocity=66 time=1\n",
      "note_on channel=0 note=73 velocity=35 time=0\n",
      "note_off channel=0 note=68 velocity=64 time=1\n",
      "note_on channel=0 note=82 velocity=58 time=0\n",
      "note_on channel=0 note=87 velocity=45 time=0\n",
      "note_off channel=0 note=47 velocity=64 time=1\n",
      "note_on channel=0 note=48 velocity=74 time=0\n",
      "note_off channel=0 note=64 velocity=64 time=0\n",
      "note_off channel=0 note=83 velocity=64 time=0\n",
      "note_on channel=0 note=64 velocity=42 time=1\n",
      "note_off channel=0 note=73 velocity=64 time=0\n",
      "note_on channel=0 note=75 velocity=58 time=0\n",
      "note_off channel=0 note=76 velocity=64 time=0\n",
      "note_off channel=0 note=82 velocity=64 time=0\n",
      "note_on channel=0 note=83 velocity=57 time=0\n",
      "note_off channel=0 note=93 velocity=64 time=0\n",
      "note_on channel=0 note=62 velocity=61 time=1\n",
      "note_on channel=0 note=76 velocity=42 time=0\n",
      "note_off channel=0 note=91 velocity=64 time=0\n",
      "note_on channel=0 note=93 velocity=38 time=0\n",
      "note_off channel=0 note=48 velocity=64 time=1\n",
      "note_on channel=0 note=52 velocity=76 time=0\n",
      "note_off channel=0 note=64 velocity=64 time=0\n",
      "note_on channel=0 note=74 velocity=68 time=0\n",
      "note_off channel=0 note=75 velocity=64 time=0\n",
      "note_on channel=0 note=77 velocity=43 time=0\n",
      "note_off channel=0 note=80 velocity=64 time=0\n",
      "note_on channel=0 note=81 velocity=38 time=0\n",
      "note_off channel=0 note=52 velocity=64 time=1\n",
      "note_on channel=0 note=53 velocity=69 time=0\n",
      "note_off channel=0 note=76 velocity=64 time=0\n",
      "note_off channel=0 note=53 velocity=64 time=1\n",
      "note_on channel=0 note=68 velocity=34 time=0\n",
      "note_on channel=0 note=80 velocity=36 time=0\n",
      "note_on channel=0 note=91 velocity=36 time=0\n",
      "note_on channel=0 note=53 velocity=62 time=1\n",
      "note_off channel=0 note=81 velocity=64 time=2\n",
      "note_on channel=0 note=61 velocity=81 time=1\n",
      "note_off channel=0 note=62 velocity=64 time=0\n",
      "note_off channel=0 note=74 velocity=64 time=0\n",
      "note_off channel=0 note=80 velocity=64 time=0\n",
      "note_on channel=0 note=81 velocity=46 time=0\n",
      "note_on channel=0 note=82 velocity=34 time=0\n",
      "note_on channel=0 note=89 velocity=56 time=0\n",
      "note_off channel=0 note=90 velocity=64 time=0\n",
      "note_off channel=0 note=83 velocity=64 time=1\n",
      "note_on channel=0 note=90 velocity=53 time=0\n",
      "note_on channel=0 note=92 velocity=47 time=0\n",
      "note_off channel=0 note=53 velocity=64 time=1\n",
      "note_on channel=0 note=80 velocity=50 time=0\n",
      "note_off channel=0 note=81 velocity=64 time=0\n",
      "note_off channel=0 note=91 velocity=64 time=0\n",
      "note_off channel=0 note=68 velocity=64 time=1\n",
      "note_off channel=0 note=71 velocity=64 time=0\n",
      "note_on channel=0 note=79 velocity=41 time=0\n",
      "note_on channel=0 note=86 velocity=22 time=0\n",
      "note_on channel=0 note=45 velocity=78 time=1\n",
      "note_on channel=0 note=53 velocity=46 time=0\n",
      "note_on channel=0 note=64 velocity=82 time=0\n",
      "note_off channel=0 note=80 velocity=64 time=0\n",
      "note_off channel=0 note=61 velocity=64 time=1\n",
      "note_on channel=0 note=71 velocity=44 time=0\n",
      "note_off channel=0 note=79 velocity=64 time=0\n",
      "note_on channel=0 note=80 velocity=84 time=0\n",
      "note_on channel=0 note=44 velocity=79 time=1\n",
      "note_off channel=0 note=45 velocity=64 time=0\n",
      "note_off channel=0 note=53 velocity=64 time=0\n",
      "note_on channel=0 note=61 velocity=73 time=0\n",
      "note_on channel=0 note=63 velocity=67 time=0\n",
      "note_off channel=0 note=64 velocity=64 time=0\n",
      "note_on channel=0 note=69 velocity=36 time=0\n",
      "note_off channel=0 note=86 velocity=64 time=0\n",
      "note_off channel=0 note=63 velocity=64 time=1\n",
      "note_off channel=0 note=90 velocity=64 time=0\n",
      "note_off channel=0 note=69 velocity=64 time=1\n",
      "note_on channel=0 note=90 velocity=32 time=0\n",
      "note_off channel=0 note=44 velocity=64 time=1\n",
      "note_on channel=0 note=46 velocity=69 time=0\n",
      "note_on channel=0 note=68 velocity=32 time=0\n",
      "note_on channel=0 note=41 velocity=55 time=1\n",
      "note_off channel=0 note=46 velocity=64 time=0\n",
      "note_on channel=0 note=75 velocity=12 time=0\n",
      "note_off channel=0 note=82 velocity=64 time=0\n",
      "note_off channel=0 note=68 velocity=64 time=1\n",
      "note_off channel=0 note=41 velocity=64 time=1\n",
      "note_on channel=0 note=43 velocity=60 time=1\n",
      "note_off channel=0 note=43 velocity=64 time=2\n",
      "note_off channel=0 note=75 velocity=64 time=0\n",
      "note_on channel=0 note=50 velocity=33 time=1\n",
      "note_on channel=0 note=86 velocity=17 time=0\n",
      "note_on channel=0 note=91 velocity=19 time=1\n",
      "note_off channel=0 note=50 velocity=64 time=1\n",
      "note_off channel=0 note=61 velocity=64 time=1\n",
      "note_off channel=0 note=86 velocity=64 time=0\n",
      "note_off channel=0 note=87 velocity=64 time=0\n",
      "note_on channel=0 note=47 velocity=69 time=1\n",
      "note_on channel=0 note=61 velocity=48 time=0\n",
      "note_on channel=0 note=68 velocity=44 time=0\n",
      "note_on channel=0 note=70 velocity=31 time=0\n",
      "note_off channel=0 note=71 velocity=64 time=0\n",
      "note_on channel=0 note=88 velocity=24 time=0\n",
      "note_on channel=0 note=75 velocity=49 time=1\n",
      "note_off channel=0 note=89 velocity=64 time=0\n",
      "note_off channel=0 note=47 velocity=64 time=1\n",
      "note_on channel=0 note=49 velocity=70 time=0\n",
      "note_on channel=0 note=65 velocity=51 time=0\n",
      "note_off channel=0 note=49 velocity=64 time=1\n",
      "note_on channel=0 note=50 velocity=77 time=0\n",
      "note_off channel=0 note=70 velocity=64 time=0\n",
      "note_on channel=0 note=71 velocity=44 time=0\n",
      "note_off channel=0 note=50 velocity=64 time=1\n",
      "note_on channel=0 note=53 velocity=72 time=0\n",
      "note_on channel=0 note=78 velocity=12 time=0\n",
      "note_off channel=0 note=95 velocity=64 time=1\n",
      "note_off channel=0 note=53 velocity=64 time=2\n",
      "note_off channel=0 note=61 velocity=64 time=0\n",
      "note_off channel=0 note=78 velocity=64 time=0\n",
      "note_on channel=0 note=53 velocity=57 time=1\n",
      "note_off channel=0 note=53 velocity=64 time=2\n",
      "note_on channel=0 note=78 velocity=40 time=1\n",
      "note_on channel=0 note=84 velocity=25 time=0\n",
      "note_on channel=0 note=48 velocity=87 time=1\n",
      "note_off channel=0 note=77 velocity=64 time=0\n",
      "note_off channel=0 note=88 velocity=64 time=0\n",
      "note_on channel=0 note=89 velocity=69 time=0\n",
      "note_off channel=0 note=90 velocity=64 time=0\n",
      "note_off channel=0 note=91 velocity=64 time=0\n",
      "note_off channel=0 note=65 velocity=64 time=1\n",
      "note_off channel=0 note=68 velocity=64 time=0\n",
      "note_off channel=0 note=93 velocity=64 time=0\n",
      "note_on channel=0 note=63 velocity=53 time=1\n",
      "note_on channel=0 note=66 velocity=53 time=0\n",
      "note_on channel=0 note=82 velocity=40 time=0\n",
      "note_off channel=0 note=84 velocity=64 time=0\n",
      "note_on channel=0 note=93 velocity=20 time=0\n",
      "note_on channel=0 note=73 velocity=34 time=1\n",
      "note_on channel=0 note=77 velocity=22 time=0\n",
      "note_off channel=0 note=78 velocity=64 time=0\n",
      "note_on channel=0 note=84 velocity=13 time=0\n",
      "note_off channel=0 note=48 velocity=64 time=1\n",
      "note_off channel=0 note=63 velocity=64 time=0\n",
      "note_on channel=0 note=65 velocity=51 time=0\n",
      "note_off channel=0 note=66 velocity=64 time=0\n",
      "note_on channel=0 note=68 velocity=43 time=0\n",
      "note_on channel=0 note=91 velocity=18 time=0\n",
      "note_off channel=0 note=82 velocity=64 time=1\n",
      "note_on channel=0 note=48 velocity=70 time=1\n",
      "note_off channel=0 note=75 velocity=64 time=0\n",
      "note_off channel=0 note=48 velocity=64 time=1\n",
      "note_on channel=0 note=75 velocity=25 time=0\n",
      "note_off channel=0 note=84 velocity=64 time=0\n",
      "note_off channel=0 note=77 velocity=64 time=1\n",
      "note_on channel=0 note=44 velocity=54 time=3\n",
      "note_off channel=0 note=92 velocity=64 time=1\n",
      "note_off channel=0 note=89 velocity=64 time=1\n",
      "note_on channel=0 note=61 velocity=81 time=1\n",
      "note_on channel=0 note=53 velocity=37 time=1\n",
      "note_on channel=0 note=43 velocity=36 time=1\n",
      "note_off channel=0 note=44 velocity=64 time=0\n",
      "note_off channel=0 note=93 velocity=64 time=0\n",
      "note_off channel=0 note=43 velocity=64 time=3\n",
      "note_off channel=0 note=53 velocity=64 time=0\n",
      "note_off channel=0 note=91 velocity=64 time=0\n",
      "note_on channel=0 note=87 velocity=44 time=1\n",
      "note_off channel=0 note=75 velocity=64 time=6\n",
      "note_on channel=0 note=88 velocity=37 time=2\n",
      "note_on channel=0 note=89 velocity=69 time=1\n",
      "note_on channel=0 note=95 velocity=42 time=0\n",
      "note_on channel=0 note=47 velocity=65 time=1\n",
      "note_off channel=0 note=65 velocity=64 time=0\n",
      "note_on channel=0 note=72 velocity=40 time=0\n",
      "note_off channel=0 note=73 velocity=64 time=0\n",
      "note_on channel=0 note=84 velocity=41 time=0\n",
      "note_off channel=0 note=88 velocity=64 time=0\n",
      "note_on channel=0 note=91 velocity=25 time=0\n",
      "note_on channel=0 note=102 velocity=16 time=0\n",
      "note_on channel=0 note=45 velocity=74 time=1\n",
      "note_off channel=0 note=47 velocity=64 time=0\n",
      "note_on channel=0 note=67 velocity=47 time=0\n",
      "note_off channel=0 note=68 velocity=64 time=0\n",
      "note_on channel=0 note=69 velocity=41 time=0\n",
      "note_on channel=0 note=75 velocity=45 time=0\n",
      "note_on channel=0 note=78 velocity=37 time=0\n",
      "note_on channel=0 note=85 velocity=42 time=0\n",
      "note_on channel=0 note=44 velocity=77 time=1\n",
      "note_off channel=0 note=45 velocity=64 time=0\n",
      "note_on channel=0 note=60 velocity=79 time=0\n",
      "note_off channel=0 note=61 velocity=64 time=0\n",
      "note_off channel=0 note=71 velocity=64 time=0\n",
      "note_off channel=0 note=72 velocity=64 time=0\n",
      "note_on channel=0 note=73 velocity=42 time=0\n",
      "note_off channel=0 note=84 velocity=64 time=0\n",
      "note_off channel=0 note=60 velocity=64 time=1\n",
      "note_on channel=0 note=61 velocity=82 time=0\n",
      "note_on channel=0 note=71 velocity=27 time=0\n",
      "note_on channel=0 note=82 velocity=27 time=0\n",
      "note_off channel=0 note=85 velocity=64 time=0\n",
      "note_off channel=0 note=102 velocity=64 time=0\n",
      "note_on channel=0 note=65 velocity=49 time=1\n",
      "note_off channel=0 note=67 velocity=64 time=0\n",
      "note_on channel=0 note=68 velocity=38 time=0\n",
      "note_off channel=0 note=69 velocity=64 time=0\n",
      "note_off channel=0 note=78 velocity=64 time=0\n",
      "note_off channel=0 note=91 velocity=64 time=0\n",
      "note_off channel=0 note=95 velocity=64 time=0\n",
      "note_on channel=0 note=43 velocity=72 time=1\n",
      "note_off channel=0 note=44 velocity=64 time=0\n",
      "note_on channel=0 note=72 velocity=43 time=0\n",
      "note_off channel=0 note=73 velocity=64 time=0\n",
      "note_on channel=0 note=83 velocity=35 time=0\n",
      "note_on channel=0 note=88 velocity=32 time=0\n",
      "note_on channel=0 note=54 velocity=31 time=1\n",
      "note_off channel=0 note=71 velocity=64 time=0\n",
      "note_off channel=0 note=72 velocity=64 time=1\n",
      "note_off channel=0 note=82 velocity=64 time=0\n",
      "note_on channel=0 note=91 velocity=32 time=0\n",
      "note_on channel=0 note=60 velocity=79 time=1\n",
      "note_off channel=0 note=61 velocity=64 time=0\n",
      "note_on channel=0 note=85 velocity=101 time=1\n",
      "note_off channel=0 note=89 velocity=64 time=0\n",
      "note_off channel=0 note=54 velocity=64 time=1\n",
      "note_on channel=0 note=89 velocity=66 time=0\n",
      "note_off channel=0 note=43 velocity=64 time=1\n",
      "note_on channel=0 note=45 velocity=25 time=2\n",
      "note_off channel=0 note=60 velocity=64 time=0\n",
      "note_on channel=0 note=61 velocity=87 time=0\n",
      "note_off channel=0 note=87 velocity=64 time=1\n",
      "note_off channel=0 note=88 velocity=64 time=0\n",
      "note_off channel=0 note=75 velocity=64 time=2\n",
      "note_off channel=0 note=45 velocity=64 time=1\n",
      "note_off channel=0 note=68 velocity=64 time=0\n",
      "note_on channel=0 note=48 velocity=32 time=1\n",
      "note_on channel=0 note=75 velocity=16 time=0\n",
      "note_on channel=0 note=99 velocity=33 time=1\n",
      "note_on channel=0 note=102 velocity=17 time=0\n",
      "note_off channel=0 note=48 velocity=64 time=2\n",
      "note_off channel=0 note=75 velocity=64 time=0\n",
      "note_off channel=0 note=83 velocity=64 time=0\n",
      "note_on channel=0 note=68 velocity=45 time=3\n",
      "note_on channel=0 note=83 velocity=58 time=0\n",
      "note_on channel=0 note=87 velocity=39 time=0\n",
      "note_off channel=0 note=102 velocity=64 time=0\n",
      "note_on channel=0 note=90 velocity=37 time=1\n",
      "note_off channel=0 note=91 velocity=64 time=0\n",
      "note_on channel=0 note=84 velocity=39 time=3\n",
      "note_off channel=0 note=65 velocity=64 time=1\n",
      "note_on channel=0 note=93 velocity=22 time=0\n",
      "note_on channel=0 note=98 velocity=25 time=0\n",
      "note_on channel=0 note=34 velocity=33 time=1\n",
      "note_on channel=0 note=57 velocity=49 time=0\n",
      "note_off channel=0 note=61 velocity=64 time=0\n",
      "note_on channel=0 note=62 velocity=93 time=0\n",
      "note_on channel=0 note=71 velocity=46 time=0\n",
      "note_off channel=0 note=84 velocity=64 time=0\n",
      "note_on channel=0 note=91 velocity=35 time=0\n",
      "note_on channel=0 note=94 velocity=27 time=0\n",
      "note_on channel=0 note=96 velocity=17 time=0\n",
      "note_on channel=0 note=100 velocity=13 time=0\n",
      "note_off channel=0 note=62 velocity=64 time=1\n",
      "note_on channel=0 note=63 velocity=95 time=0\n",
      "note_off channel=0 note=34 velocity=64 time=1\n",
      "note_off channel=0 note=71 velocity=64 time=0\n",
      "note_off channel=0 note=98 velocity=64 time=0\n",
      "note_off channel=0 note=57 velocity=64 time=1\n",
      "note_off channel=0 note=90 velocity=64 time=0\n",
      "note_off channel=0 note=100 velocity=64 time=0\n",
      "note_on channel=0 note=61 velocity=68 time=1\n",
      "note_off channel=0 note=68 velocity=64 time=0\n",
      "note_off channel=0 note=91 velocity=64 time=0\n",
      "note_off channel=0 note=94 velocity=64 time=0\n",
      "note_on channel=0 note=50 velocity=36 time=1\n",
      "note_off channel=0 note=61 velocity=64 time=0\n",
      "note_on channel=0 note=68 velocity=29 time=0\n",
      "note_off channel=0 note=99 velocity=64 time=0\n",
      "note_off channel=0 note=50 velocity=64 time=2\n",
      "note_on channel=0 note=49 velocity=41 time=1\n",
      "note_on channel=0 note=91 velocity=55 time=0\n",
      "note_off channel=0 note=96 velocity=64 time=1\n",
      "note_on channel=0 note=102 velocity=30 time=1\n",
      "note_off channel=0 note=93 velocity=64 time=1\n",
      "note_off channel=0 note=49 velocity=64 time=1\n",
      "note_on channel=0 note=61 velocity=70 time=0\n",
      "note_off channel=0 note=61 velocity=64 time=1\n",
      "note_on channel=0 note=49 velocity=40 time=1\n",
      "note_on channel=0 note=62 velocity=85 time=0\n",
      "note_off channel=0 note=63 velocity=64 time=0\n",
      "note_off channel=0 note=62 velocity=64 time=1\n",
      "note_on channel=0 note=63 velocity=89 time=0\n",
      "note_on channel=0 note=96 velocity=11 time=0\n",
      "note_off channel=0 note=102 velocity=64 time=0\n",
      "note_off channel=0 note=68 velocity=64 time=1\n",
      "note_on channel=0 note=62 velocity=80 time=1\n",
      "note_off channel=0 note=63 velocity=64 time=0\n",
      "note_off channel=0 note=49 velocity=64 time=1\n",
      "note_on channel=0 note=61 velocity=72 time=0\n",
      "note_off channel=0 note=62 velocity=64 time=0\n",
      "note_on channel=0 note=63 velocity=87 time=0\n",
      "note_on channel=0 note=68 velocity=49 time=0\n",
      "note_on channel=0 note=93 velocity=36 time=0\n",
      "note_off channel=0 note=96 velocity=64 time=0\n",
      "note_on channel=0 note=49 velocity=39 time=1\n",
      "note_off channel=0 note=61 velocity=64 time=0\n",
      "note_on channel=0 note=74 velocity=76 time=0\n",
      "note_off channel=0 note=80 velocity=64 time=0\n",
      "note_on channel=0 note=81 velocity=53 time=0\n",
      "note_on channel=0 note=90 velocity=55 time=0\n",
      "note_on channel=0 note=62 velocity=87 time=1\n",
      "note_off channel=0 note=63 velocity=64 time=0\n",
      "note_off channel=0 note=62 velocity=64 time=1\n",
      "note_on channel=0 note=63 velocity=79 time=0\n",
      "note_off channel=0 note=85 velocity=64 time=2\n",
      "note_on channel=0 note=62 velocity=82 time=2\n",
      "note_off channel=0 note=63 velocity=64 time=0\n",
      "note_on channel=0 note=92 velocity=43 time=0\n",
      "note_off channel=0 note=93 velocity=64 time=0\n",
      "note_on channel=0 note=63 velocity=75 time=1\n",
      "note_on channel=0 note=73 velocity=83 time=0\n",
      "note_off channel=0 note=74 velocity=64 time=0\n",
      "note_on channel=0 note=80 velocity=66 time=0\n",
      "note_off channel=0 note=81 velocity=64 time=0\n",
      "note_off channel=0 note=90 velocity=64 time=0\n",
      "note_off channel=0 note=49 velocity=64 time=1\n",
      "note_on channel=0 note=61 velocity=77 time=0\n",
      "note_off channel=0 note=62 velocity=64 time=0\n",
      "note_off channel=0 note=61 velocity=64 time=1\n",
      "note_on channel=0 note=62 velocity=88 time=0\n",
      "note_off channel=0 note=63 velocity=64 time=0\n",
      "note_on channel=0 note=85 velocity=84 time=0\n",
      "note_on channel=0 note=88 velocity=32 time=0\n",
      "note_on channel=0 note=90 velocity=45 time=0\n",
      "note_on channel=0 note=78 velocity=38 time=1\n",
      "note_on channel=0 note=82 velocity=61 time=0\n",
      "note_off channel=0 note=83 velocity=64 time=0\n",
      "note_off channel=0 note=87 velocity=64 time=0\n",
      "note_on channel=0 note=57 velocity=46 time=1\n",
      "note_on channel=0 note=61 velocity=77 time=0\n",
      "note_off channel=0 note=62 velocity=64 time=0\n",
      "note_off channel=0 note=68 velocity=64 time=0\n",
      "note_on channel=0 note=75 velocity=37 time=0\n",
      "note_on channel=0 note=77 velocity=26 time=0\n",
      "note_on channel=0 note=63 velocity=88 time=1\n",
      "note_on channel=0 note=70 velocity=40 time=0\n",
      "note_off channel=0 note=78 velocity=64 time=0\n",
      "note_off channel=0 note=88 velocity=64 time=0\n",
      "note_on channel=0 note=49 velocity=30 time=1\n",
      "note_off channel=0 note=57 velocity=64 time=0\n",
      "note_off channel=0 note=61 velocity=64 time=0\n",
      "note_off channel=0 note=75 velocity=64 time=0\n",
      "note_on channel=0 note=83 velocity=33 time=1\n",
      "note_off channel=0 note=70 velocity=64 time=1\n",
      "note_off channel=0 note=82 velocity=64 time=0\n",
      "note_off channel=0 note=49 velocity=64 time=1\n",
      "note_on channel=0 note=62 velocity=88 time=0\n",
      "note_off channel=0 note=63 velocity=64 time=0\n",
      "note_off channel=0 note=90 velocity=64 time=0\n",
      "note_on channel=0 note=49 velocity=28 time=1\n",
      "note_off channel=0 note=62 velocity=64 time=0\n",
      "note_on channel=0 note=63 velocity=87 time=0\n",
      "note_on channel=0 note=102 velocity=23 time=1\n",
      "note_off channel=0 note=49 velocity=64 time=2\n",
      "note_on channel=0 note=49 velocity=23 time=1\n",
      "note_on channel=0 note=71 velocity=31 time=2\n",
      "note_on channel=0 note=62 velocity=80 time=1\n",
      "note_off channel=0 note=63 velocity=64 time=0\n",
      "note_off channel=0 note=102 velocity=64 time=0\n",
      "note_off channel=0 note=49 velocity=64 time=1\n",
      "note_on channel=0 note=61 velocity=69 time=0\n",
      "note_off channel=0 note=62 velocity=64 time=0\n",
      "note_on channel=0 note=63 velocity=83 time=0\n",
      "note_off channel=0 note=61 velocity=64 time=1\n",
      "note_on channel=0 note=62 velocity=83 time=1\n",
      "note_off channel=0 note=63 velocity=64 time=0\n",
      "note_off channel=0 note=73 velocity=64 time=0\n",
      "note_off channel=0 note=80 velocity=64 time=0\n",
      "note_on channel=0 note=81 velocity=56 time=0\n",
      "note_off channel=0 note=92 velocity=64 time=0\n",
      "note_on channel=0 note=102 velocity=36 time=0\n",
      "note_on channel=0 note=63 velocity=80 time=1\n",
      "note_on channel=0 note=90 velocity=60 time=0\n",
      "note_off channel=0 note=62 velocity=64 time=1\n",
      "note_off channel=0 note=85 velocity=64 time=1\n",
      "note_off channel=0 note=89 velocity=64 time=0\n",
      "note_on channel=0 note=62 velocity=81 time=1\n",
      "note_off channel=0 note=63 velocity=64 time=0\n",
      "note_off channel=0 note=62 velocity=64 time=1\n",
      "note_on channel=0 note=63 velocity=73 time=0\n",
      "note_off channel=0 note=63 velocity=64 time=2\n",
      "note_on channel=0 note=64 velocity=69 time=0\n",
      "note_on channel=0 note=62 velocity=80 time=1\n",
      "note_off channel=0 note=64 velocity=64 time=0\n",
      "note_on channel=0 note=89 velocity=76 time=0\n",
      "note_off channel=0 note=90 velocity=64 time=0\n",
      "note_off channel=0 note=102 velocity=64 time=0\n",
      "note_on channel=0 note=61 velocity=71 time=2\n",
      "note_off channel=0 note=62 velocity=64 time=0\n",
      "note_on channel=0 note=63 velocity=66 time=0\n",
      "note_on channel=0 note=87 velocity=71 time=0\n",
      "note_off channel=0 note=61 velocity=64 time=1\n",
      "note_on channel=0 note=62 velocity=87 time=0\n",
      "note_off channel=0 note=63 velocity=64 time=0\n",
      "note_on channel=0 note=94 velocity=13 time=0\n",
      "note_off channel=0 note=71 velocity=64 time=1\n",
      "note_off channel=0 note=77 velocity=64 time=0\n",
      "note_on channel=0 note=80 velocity=89 time=0\n",
      "note_off channel=0 note=81 velocity=64 time=0\n",
      "note_on channel=0 note=102 velocity=15 time=0\n",
      "note_on channel=0 note=61 velocity=77 time=1\n",
      "note_off channel=0 note=62 velocity=64 time=0\n",
      "note_on channel=0 note=63 velocity=73 time=0\n",
      "note_on channel=0 note=71 velocity=20 time=0\n",
      "note_on channel=0 note=77 velocity=32 time=0\n",
      "note_on channel=0 note=84 velocity=18 time=0\n",
      "note_off channel=0 note=63 velocity=64 time=1\n",
      "note_on channel=0 note=73 velocity=77 time=0\n",
      "note_off channel=0 note=83 velocity=64 time=0\n",
      "note_off channel=0 note=94 velocity=64 time=0\n",
      "note_off channel=0 note=61 velocity=64 time=1\n",
      "note_on channel=0 note=62 velocity=78 time=0\n",
      "note_off channel=0 note=102 velocity=64 time=0\n",
      "note_on channel=0 note=82 velocity=30 time=1\n",
      "note_on channel=0 note=61 velocity=74 time=1\n",
      "note_off channel=0 note=62 velocity=64 time=0\n",
      "note_on channel=0 note=78 velocity=23 time=0\n",
      "note_off channel=0 note=61 velocity=64 time=1\n",
      "note_on channel=0 note=62 velocity=75 time=0\n",
      "note_off channel=0 note=77 velocity=64 time=0\n",
      "note_on channel=0 note=93 velocity=35 time=0\n",
      "note_off channel=0 note=73 velocity=64 time=1\n",
      "note_on channel=0 note=74 velocity=78 time=0\n",
      "note_off channel=0 note=82 velocity=64 time=1\n",
      "note_on channel=0 note=83 velocity=40 time=0\n",
      "note_on channel=0 note=88 velocity=24 time=0\n",
      "note_off channel=0 note=89 velocity=64 time=0\n",
      "note_on channel=0 note=90 velocity=60 time=0\n",
      "note_on channel=0 note=77 velocity=21 time=1\n",
      "note_off channel=0 note=78 velocity=64 time=0\n",
      "note_on channel=0 note=81 velocity=59 time=0\n",
      "note_off channel=0 note=62 velocity=64 time=2\n",
      "note_on channel=0 note=63 velocity=56 time=0\n",
      "note_on channel=0 note=75 velocity=65 time=0\n",
      "note_off channel=0 note=81 velocity=64 time=0\n",
      "note_on channel=0 note=82 velocity=63 time=0\n",
      "note_off channel=0 note=83 velocity=64 time=0\n",
      "note_off channel=0 note=90 velocity=64 time=0\n",
      "note_on channel=0 note=101 velocity=30 time=0\n",
      "note_off channel=0 note=74 velocity=64 time=1\n",
      "note_off channel=0 note=77 velocity=64 time=0\n",
      "note_off channel=0 note=88 velocity=64 time=0\n",
      "note_on channel=0 note=90 velocity=31 time=0\n",
      "note_off channel=0 note=93 velocity=64 time=0\n",
      "note_on channel=0 note=95 velocity=29 time=0\n",
      "note_off channel=0 note=63 velocity=64 time=1\n",
      "note_on channel=0 note=64 velocity=60 time=0\n",
      "note_off channel=0 note=71 velocity=64 time=0\n",
      "note_off channel=0 note=75 velocity=64 time=0\n",
      "note_on channel=0 note=76 velocity=83 time=0\n",
      "note_off channel=0 note=84 velocity=64 time=0\n",
      "note_on channel=0 note=86 velocity=49 time=0\n",
      "note_off channel=0 note=87 velocity=64 time=0\n",
      "note_off channel=0 note=101 velocity=64 time=0\n",
      "note_on channel=0 note=71 velocity=15 time=1\n",
      "note_on channel=0 note=83 velocity=69 time=0\n",
      "note_off channel=0 note=91 velocity=64 time=0\n",
      "note_off channel=0 note=64 velocity=64 time=1\n",
      "note_off channel=0 note=76 velocity=64 time=0\n",
      "note_on channel=0 note=77 velocity=86 time=0\n",
      "note_on channel=0 note=84 velocity=64 time=0\n",
      "note_off channel=0 note=90 velocity=64 time=0\n",
      "note_on channel=0 note=91 velocity=41 time=0\n",
      "note_on channel=0 note=93 velocity=30 time=0\n",
      "note_on channel=0 note=101 velocity=32 time=0\n",
      "note_on channel=0 note=66 velocity=65 time=1\n",
      "note_on channel=0 note=73 velocity=44 time=0\n",
      "note_on channel=0 note=75 velocity=57 time=0\n",
      "note_off channel=0 note=82 velocity=64 time=0\n",
      "note_on channel=0 note=85 velocity=73 time=0\n",
      "note_off channel=0 note=86 velocity=64 time=0\n",
      "note_on channel=0 note=90 velocity=53 time=0\n",
      "note_off channel=0 note=95 velocity=64 time=0\n",
      "note_off channel=0 note=83 velocity=64 time=1\n",
      "note_off channel=0 note=84 velocity=64 time=0\n",
      "note_off channel=0 note=93 velocity=64 time=0\n",
      "note_on channel=0 note=94 velocity=33 time=0\n",
      "note_off channel=0 note=71 velocity=64 time=1\n",
      "note_off channel=0 note=75 velocity=64 time=0\n",
      "note_on channel=0 note=83 velocity=71 time=0\n",
      "note_on channel=0 note=71 velocity=45 time=1\n",
      "note_off channel=0 note=101 velocity=64 time=0\n",
      "note_on channel=0 note=48 velocity=19 time=2\n",
      "note_off channel=0 note=77 velocity=64 time=0\n",
      "note_on channel=0 note=77 velocity=87 time=2\n",
      "note_on channel=0 note=93 velocity=30 time=0\n",
      "note_off channel=0 note=48 velocity=64 time=1\n",
      "note_off channel=0 note=66 velocity=64 time=0\n",
      "note_on channel=0 note=84 velocity=65 time=0\n",
      "note_off channel=0 note=93 velocity=64 time=1\n",
      "note_off channel=0 note=94 velocity=64 time=0\n",
      "note_on channel=0 note=64 velocity=59 time=1\n",
      "note_on channel=0 note=76 velocity=81 time=0\n",
      "note_off channel=0 note=77 velocity=64 time=0\n",
      "note_off channel=0 note=84 velocity=64 time=0\n",
      "note_off channel=0 note=90 velocity=64 time=0\n",
      "note_on channel=0 note=61 velocity=70 time=3\n",
      "note_off channel=0 note=64 velocity=64 time=0\n",
      "note_off channel=0 note=80 velocity=64 time=0\n",
      "note_on channel=0 note=89 velocity=46 time=0\n",
      "note_on channel=0 note=57 velocity=67 time=1\n",
      "note_off channel=0 note=61 velocity=64 time=0\n",
      "note_on channel=0 note=62 velocity=80 time=0\n",
      "note_on channel=0 note=80 velocity=48 time=0\n",
      "note_on channel=0 note=53 velocity=56 time=1\n",
      "note_on channel=0 note=61 velocity=72 time=0\n",
      "note_off channel=0 note=62 velocity=64 time=0\n",
      "note_on channel=0 note=64 velocity=78 time=0\n",
      "note_off channel=0 note=73 velocity=64 time=0\n",
      "note_off channel=0 note=57 velocity=64 time=1\n",
      "note_off channel=0 note=61 velocity=64 time=0\n",
      "note_on channel=0 note=68 velocity=24 time=0\n",
      "note_off channel=0 note=71 velocity=64 time=0\n",
      "note_off channel=0 note=53 velocity=64 time=1\n",
      "note_on channel=0 note=71 velocity=47 time=0\n",
      "note_on channel=0 note=73 velocity=12 time=0\n",
      "note_on channel=0 note=90 velocity=58 time=0\n",
      "note_on channel=0 note=53 velocity=47 time=1\n",
      "note_on channel=0 note=87 velocity=53 time=1\n",
      "note_off channel=0 note=53 velocity=64 time=1\n",
      "note_off channel=0 note=64 velocity=64 time=0\n",
      "note_off channel=0 note=68 velocity=64 time=0\n",
      "note_off channel=0 note=73 velocity=64 time=0\n",
      "note_on channel=0 note=74 velocity=68 time=0\n",
      "note_on channel=0 note=62 velocity=64 time=1\n",
      "note_off channel=0 note=80 velocity=64 time=0\n",
      "note_on channel=0 note=81 velocity=43 time=0\n",
      "note_on channel=0 note=84 velocity=46 time=0\n",
      "note_off channel=0 note=85 velocity=64 time=0\n",
      "note_off channel=0 note=76 velocity=64 time=1\n",
      "note_on channel=0 note=80 velocity=60 time=2\n",
      "note_off channel=0 note=91 velocity=64 time=0\n",
      "note_off channel=0 note=81 velocity=64 time=1\n",
      "note_on channel=0 note=85 velocity=34 time=1\n",
      "note_on channel=0 note=88 velocity=28 time=0\n",
      "note_on channel=0 note=68 velocity=37 time=1\n",
      "note_off channel=0 note=87 velocity=64 time=0\n",
      "note_on channel=0 note=91 velocity=16 time=0\n",
      "note_on channel=0 note=78 velocity=34 time=1\n",
      "note_on channel=0 note=82 velocity=65 time=0\n",
      "note_off channel=0 note=83 velocity=64 time=0\n",
      "note_on channel=0 note=87 velocity=25 time=0\n",
      "note_off channel=0 note=89 velocity=64 time=0\n",
      "note_on channel=0 note=53 velocity=39 time=1\n",
      "note_on channel=0 note=66 velocity=31 time=0\n",
      "note_on channel=0 note=73 velocity=71 time=0\n",
      "note_off channel=0 note=68 velocity=64 time=1\n",
      "note_off channel=0 note=74 velocity=64 time=0\n",
      "note_on channel=0 note=77 velocity=33 time=0\n",
      "note_on channel=0 note=81 velocity=40 time=0\n",
      "note_off channel=0 note=82 velocity=64 time=0\n",
      "note_on channel=0 note=83 velocity=51 time=0\n",
      "note_off channel=0 note=85 velocity=64 time=0\n",
      "note_off channel=0 note=53 velocity=64 time=1\n",
      "note_on channel=0 note=61 velocity=73 time=0\n",
      "note_off channel=0 note=62 velocity=64 time=0\n",
      "note_on channel=0 note=65 velocity=34 time=0\n",
      "note_off channel=0 note=66 velocity=64 time=0\n",
      "note_off channel=0 note=78 velocity=64 time=0\n",
      "note_off channel=0 note=84 velocity=64 time=0\n",
      "note_off channel=0 note=88 velocity=64 time=0\n",
      "note_on channel=0 note=89 velocity=59 time=0\n",
      "note_off channel=0 note=87 velocity=64 time=1\n",
      "note_on channel=0 note=53 velocity=29 time=1\n",
      "note_on channel=0 note=68 velocity=20 time=0\n",
      "note_off channel=0 note=81 velocity=64 time=0\n",
      "note_on channel=0 note=87 velocity=41 time=0\n",
      "note_on channel=0 note=88 velocity=21 time=0\n",
      "note_off channel=0 note=90 velocity=64 time=0\n",
      "note_off channel=0 note=61 velocity=64 time=1\n",
      "note_on channel=0 note=62 velocity=71 time=0\n",
      "note_off channel=0 note=73 velocity=64 time=0\n",
      "note_on channel=0 note=74 velocity=71 time=0\n",
      "note_on channel=0 note=93 velocity=18 time=0\n",
      "note_off channel=0 note=53 velocity=64 time=1\n",
      "note_off channel=0 note=89 velocity=64 time=0\n",
      "note_on channel=0 note=90 velocity=50 time=0\n",
      "note_on channel=0 note=92 velocity=60 time=0\n",
      "note_off channel=0 note=65 velocity=64 time=1\n",
      "note_off channel=0 note=68 velocity=64 time=0\n",
      "note_on channel=0 note=68 velocity=28 time=1\n",
      "note_on channel=0 note=81 velocity=40 time=0\n",
      "note_off channel=0 note=80 velocity=64 time=1\n",
      "note_on channel=0 note=65 velocity=33 time=2\n",
      "note_on channel=0 note=80 velocity=59 time=0\n",
      "note_off channel=0 note=88 velocity=64 time=0\n",
      "note_on channel=0 note=89 velocity=70 time=0\n",
      "note_off channel=0 note=90 velocity=64 time=0\n",
      "note_off channel=0 note=93 velocity=64 time=0\n",
      "note_on channel=0 note=61 velocity=75 time=1\n",
      "note_off channel=0 note=62 velocity=64 time=0\n",
      "note_on channel=0 note=73 velocity=90 time=0\n",
      "note_off channel=0 note=74 velocity=64 time=0\n",
      "note_on channel=0 note=75 velocity=30 time=0\n",
      "note_off channel=0 note=81 velocity=64 time=0\n",
      "note_off channel=0 note=61 velocity=64 time=1\n",
      "note_on channel=0 note=62 velocity=73 time=0\n",
      "note_off channel=0 note=65 velocity=64 time=0\n",
      "note_off channel=0 note=68 velocity=64 time=0\n",
      "note_on channel=0 note=103 velocity=22 time=0\n",
      "note_on channel=0 note=48 velocity=68 time=1\n",
      "note_on channel=0 note=57 velocity=45 time=0\n",
      "note_off channel=0 note=62 velocity=64 time=0\n",
      "note_on channel=0 note=64 velocity=82 time=0\n",
      "note_on channel=0 note=67 velocity=64 time=0\n",
      "note_off channel=0 note=75 velocity=64 time=0\n",
      "note_on channel=0 note=90 velocity=30 time=0\n",
      "note_on channel=0 note=45 velocity=77 time=1\n",
      "note_off channel=0 note=48 velocity=64 time=0\n",
      "note_on channel=0 note=84 velocity=16 time=0\n",
      "note_on channel=0 note=44 velocity=78 time=1\n",
      "note_off channel=0 note=45 velocity=64 time=0\n",
      "note_off channel=0 note=57 velocity=64 time=0\n",
      "note_on channel=0 note=63 velocity=76 time=0\n",
      "note_off channel=0 note=64 velocity=64 time=0\n",
      "note_off channel=0 note=67 velocity=64 time=0\n",
      "note_off channel=0 note=90 velocity=64 time=0\n",
      "note_off channel=0 note=103 velocity=64 time=0\n",
      "note_on channel=0 note=61 velocity=75 time=1\n",
      "note_off channel=0 note=63 velocity=64 time=1\n",
      "note_on channel=0 note=68 velocity=46 time=0\n",
      "note_off channel=0 note=44 velocity=64 time=2\n",
      "note_on channel=0 note=65 velocity=38 time=0\n",
      "note_on channel=0 note=41 velocity=57 time=1\n",
      "note_off channel=0 note=68 velocity=64 time=1\n",
      "note_off channel=0 note=41 velocity=64 time=1\n",
      "note_on channel=0 note=43 velocity=61 time=0\n",
      "note_on channel=0 note=68 velocity=44 time=0\n",
      "note_on channel=0 note=75 velocity=36 time=0\n",
      "note_off channel=0 note=77 velocity=64 time=0\n",
      "note_on channel=0 note=82 velocity=20 time=1\n",
      "note_off channel=0 note=83 velocity=64 time=0\n",
      "note_on channel=0 note=42 velocity=56 time=1\n",
      "note_off channel=0 note=43 velocity=64 time=0\n",
      "note_on channel=0 note=78 velocity=20 time=2\n",
      "note_off channel=0 note=42 velocity=64 time=1\n",
      "note_off channel=0 note=80 velocity=64 time=0\n",
      "note_on channel=0 note=48 velocity=68 time=1\n",
      "note_off channel=0 note=65 velocity=64 time=0\n",
      "note_on channel=0 note=80 velocity=82 time=0\n",
      "note_off channel=0 note=82 velocity=64 time=0\n",
      "note_on channel=0 note=90 velocity=43 time=0\n",
      "note_on channel=0 note=88 velocity=16 time=1\n",
      "note_off channel=0 note=89 velocity=64 time=0\n",
      "note_on channel=0 note=47 velocity=73 time=1\n",
      "note_off channel=0 note=48 velocity=64 time=0\n",
      "note_on channel=0 note=54 velocity=31 time=0\n",
      "note_off channel=0 note=61 velocity=64 time=0\n",
      "note_on channel=0 note=62 velocity=33 time=0\n",
      "note_off channel=0 note=47 velocity=64 time=1\n",
      "note_on channel=0 note=48 velocity=71 time=0\n",
      "note_on channel=0 note=65 velocity=33 time=0\n",
      "note_off channel=0 note=48 velocity=64 time=1\n",
      "note_on channel=0 note=49 velocity=76 time=0\n",
      "note_off channel=0 note=54 velocity=64 time=0\n",
      "note_off channel=0 note=62 velocity=64 time=0\n",
      "note_off channel=0 note=91 velocity=64 time=0\n",
      "note_off channel=0 note=49 velocity=64 time=1\n",
      "note_on channel=0 note=52 velocity=76 time=0\n",
      "note_on channel=0 note=86 velocity=19 time=0\n",
      "note_on channel=0 note=93 velocity=19 time=0\n",
      "note_off channel=0 note=52 velocity=64 time=1\n",
      "note_on channel=0 note=53 velocity=70 time=0\n",
      "note_off channel=0 note=88 velocity=64 time=1\n",
      "note_on channel=0 note=89 velocity=27 time=0\n",
      "note_on channel=0 note=82 velocity=46 time=1\n",
      "note_off channel=0 note=53 velocity=64 time=1\n",
      "note_off channel=0 note=86 velocity=64 time=0\n",
      "note_off channel=0 note=87 velocity=64 time=0\n",
      "note_on channel=0 note=53 velocity=57 time=1\n",
      "note_on channel=0 note=87 velocity=42 time=1\n",
      "note_on channel=0 note=61 velocity=74 time=1\n",
      "note_off channel=0 note=65 velocity=64 time=0\n",
      "note_off channel=0 note=78 velocity=64 time=0\n",
      "note_off channel=0 note=53 velocity=64 time=1\n",
      "note_off channel=0 note=71 velocity=64 time=0\n",
      "note_off channel=0 note=84 velocity=64 time=0\n",
      "note_off channel=0 note=61 velocity=64 time=1\n",
      "note_on channel=0 note=64 velocity=82 time=0\n",
      "note_off channel=0 note=68 velocity=64 time=0\n",
      "note_on channel=0 note=77 velocity=42 time=0\n",
      "note_off channel=0 note=89 velocity=64 time=0\n",
      "note_on channel=0 note=94 velocity=54 time=0\n",
      "note_on channel=0 note=45 velocity=77 time=1\n",
      "note_on channel=0 note=68 velocity=61 time=0\n",
      "note_on channel=0 note=101 velocity=45 time=1\n",
      "note_on channel=0 note=44 velocity=78 time=1\n",
      "note_off channel=0 note=45 velocity=64 time=0\n",
      "note_on channel=0 note=60 velocity=67 time=0\n",
      "note_on channel=0 note=63 velocity=66 time=0\n",
      "note_off channel=0 note=64 velocity=64 time=0\n",
      "note_off channel=0 note=60 velocity=64 time=1\n",
      "note_on channel=0 note=61 velocity=75 time=0\n",
      "note_off channel=0 note=63 velocity=64 time=0\n",
      "note_off channel=0 note=77 velocity=64 time=0\n",
      "note_on channel=0 note=84 velocity=17 time=0\n",
      "note_on channel=0 note=91 velocity=14 time=0\n",
      "note_off channel=0 note=93 velocity=64 time=0\n",
      "note_on channel=0 note=71 velocity=46 time=1\n",
      "note_on channel=0 note=77 velocity=22 time=0\n",
      "note_on channel=0 note=65 velocity=42 time=1\n",
      "note_off channel=0 note=94 velocity=64 time=0\n",
      "note_on channel=0 note=95 velocity=58 time=0\n",
      "note_off channel=0 note=44 velocity=64 time=1\n",
      "note_on channel=0 note=49 velocity=56 time=0\n",
      "note_off channel=0 note=75 velocity=64 time=1\n",
      "note_off channel=0 note=49 velocity=64 time=1\n",
      "note_on channel=0 note=75 velocity=29 time=0\n",
      "note_off channel=0 note=91 velocity=64 time=0\n",
      "note_on channel=0 note=43 velocity=61 time=1\n",
      "note_on channel=0 note=91 velocity=10 time=0\n",
      "note_on channel=0 note=54 velocity=22 time=1\n",
      "note_on channel=0 note=83 velocity=50 time=0\n",
      "note_off channel=0 note=61 velocity=64 time=1\n",
      "note_off channel=0 note=82 velocity=64 time=0\n",
      "note_on channel=0 note=88 velocity=30 time=0\n",
      "note_on channel=0 note=42 velocity=58 time=1\n",
      "note_off channel=0 note=43 velocity=64 time=0\n",
      "note_on channel=0 note=61 velocity=85 time=0\n",
      "note_off channel=0 note=54 velocity=64 time=1\n",
      "note_off channel=0 note=91 velocity=64 time=0\n",
      "note_on channel=0 note=103 velocity=23 time=0\n",
      "note_off channel=0 note=77 velocity=64 time=3\n",
      "note_off channel=0 note=75 velocity=64 time=1\n",
      "note_on channel=0 note=75 velocity=24 time=1\n",
      "note_off channel=0 note=88 velocity=64 time=0\n",
      "note_on channel=0 note=89 velocity=36 time=0\n",
      "note_on channel=0 note=88 velocity=38 time=3\n",
      "note_on channel=0 note=91 velocity=19 time=0\n",
      "note_off channel=0 note=84 velocity=64 time=1\n",
      "note_off channel=0 note=89 velocity=64 time=0\n",
      "note_off channel=0 note=61 velocity=64 time=2\n",
      "note_on channel=0 note=62 velocity=55 time=0\n",
      "note_on channel=0 note=93 velocity=19 time=0\n",
      "note_off channel=0 note=42 velocity=64 time=2\n",
      "note_on channel=0 note=61 velocity=82 time=0\n",
      "note_off channel=0 note=62 velocity=64 time=0\n",
      "note_on channel=0 note=46 velocity=61 time=1\n",
      "note_off channel=0 note=75 velocity=64 time=0\n",
      "note_on channel=0 note=78 velocity=39 time=0\n",
      "note_off channel=0 note=103 velocity=64 time=0\n",
      "note_off channel=0 note=65 velocity=64 time=1\n",
      "note_off channel=0 note=68 velocity=64 time=0\n",
      "note_on channel=0 note=75 velocity=44 time=0\n",
      "note_off channel=0 note=88 velocity=64 time=0\n",
      "note_on channel=0 note=89 velocity=71 time=0\n",
      "note_off channel=0 note=91 velocity=64 time=0\n",
      "note_off channel=0 note=46 velocity=64 time=1\n",
      "note_on channel=0 note=47 velocity=81 time=0\n",
      "note_on channel=0 note=77 velocity=34 time=0\n",
      "note_on channel=0 note=84 velocity=22 time=0\n",
      "note_off channel=0 note=47 velocity=64 time=1\n",
      "note_on channel=0 note=48 velocity=86 time=0\n",
      "note_on channel=0 note=88 velocity=34 time=0\n",
      "note_on channel=0 note=103 velocity=26 time=0\n",
      "note_on channel=0 note=68 velocity=36 time=1\n",
      "note_off channel=0 note=75 velocity=64 time=0\n",
      "note_on channel=0 note=82 velocity=44 time=0\n",
      "note_off channel=0 note=83 velocity=64 time=0\n",
      "note_off channel=0 note=90 velocity=64 time=0\n",
      "note_on channel=0 note=91 velocity=20 time=0\n",
      "note_off channel=0 note=48 velocity=64 time=1\n",
      "note_on channel=0 note=75 velocity=28 time=0\n",
      "note_off channel=0 note=78 velocity=64 time=0\n",
      "note_off channel=0 note=84 velocity=64 time=0\n",
      "note_off channel=0 note=87 velocity=64 time=0\n",
      "note_off channel=0 note=88 velocity=64 time=0\n",
      "note_on channel=0 note=90 velocity=42 time=0\n",
      "note_on channel=0 note=65 velocity=57 time=1\n",
      "note_on channel=0 note=49 velocity=53 time=2\n",
      "note_off channel=0 note=49 velocity=64 time=2\n",
      "note_off channel=0 note=77 velocity=64 time=0\n",
      "note_off channel=0 note=103 velocity=64 time=0\n",
      "note_on channel=0 note=54 velocity=35 time=1\n",
      "note_on channel=0 note=87 velocity=46 time=0\n",
      "note_on channel=0 note=88 velocity=36 time=0\n",
      "note_on channel=0 note=45 velocity=40 time=1\n",
      "note_off channel=0 note=71 velocity=64 time=0\n",
      "note_off channel=0 note=89 velocity=64 time=0\n",
      "note_on channel=0 note=71 velocity=36 time=1\n",
      "note_off channel=0 note=45 velocity=64 time=1\n",
      "note_off channel=0 note=54 velocity=64 time=1\n",
      "note_on channel=0 note=44 velocity=24 time=1\n",
      "note_on channel=0 note=103 velocity=20 time=0\n",
      "note_off channel=0 note=91 velocity=64 time=1\n",
      "note_off channel=0 note=88 velocity=64 time=1\n",
      "note_on channel=0 note=89 velocity=45 time=0\n",
      "note_off channel=0 note=93 velocity=64 time=0\n",
      "note_off channel=0 note=44 velocity=64 time=1\n",
      "note_on channel=0 note=53 velocity=38 time=1\n",
      "note_off channel=0 note=82 velocity=64 time=1\n",
      "note_on channel=0 note=93 velocity=23 time=0\n",
      "note_off channel=0 note=53 velocity=64 time=1\n",
      "note_on channel=0 note=54 velocity=32 time=0\n",
      "note_on channel=0 note=82 velocity=34 time=0\n",
      "note_on channel=0 note=83 velocity=38 time=1\n",
      "note_on channel=0 note=91 velocity=18 time=0\n",
      "note_off channel=0 note=82 velocity=64 time=1\n",
      "note_on channel=0 note=53 velocity=34 time=1\n",
      "note_off channel=0 note=54 velocity=64 time=0\n",
      "note_on channel=0 note=88 velocity=37 time=1\n",
      "note_off channel=0 note=53 velocity=64 time=1\n",
      "note_off channel=0 note=89 velocity=64 time=0\n",
      "note_off channel=0 note=91 velocity=64 time=0\n",
      "note_off channel=0 note=71 velocity=64 time=2\n",
      "note_off channel=0 note=75 velocity=64 time=0\n",
      "note_off channel=0 note=103 velocity=64 time=0\n",
      "note_on channel=0 note=76 velocity=47 time=1\n",
      "note_off channel=0 note=88 velocity=64 time=0\n",
      "note_on channel=0 note=89 velocity=71 time=0\n",
      "note_on channel=0 note=91 velocity=22 time=0\n",
      "note_on channel=0 note=48 velocity=66 time=1\n",
      "note_on channel=0 note=57 velocity=36 time=0\n",
      "note_off channel=0 note=90 velocity=64 time=0\n",
      "note_off channel=0 note=93 velocity=64 time=0\n",
      "note_on channel=0 note=96 velocity=17 time=0\n",
      "note_on channel=0 note=45 velocity=77 time=1\n",
      "note_off channel=0 note=48 velocity=64 time=0\n",
      "note_on channel=0 note=67 velocity=45 time=0\n",
      "note_off channel=0 note=68 velocity=64 time=0\n",
      "note_on channel=0 note=69 velocity=43 time=0\n",
      "note_on channel=0 note=75 velocity=46 time=0\n",
      "note_off channel=0 note=76 velocity=64 time=0\n",
      "note_on channel=0 note=82 velocity=37 time=0\n",
      "note_off channel=0 note=83 velocity=64 time=0\n",
      "note_on channel=0 note=84 velocity=45 time=0\n",
      "note_on channel=0 note=90 velocity=34 time=0\n",
      "note_on channel=0 note=44 velocity=78 time=1\n",
      "note_off channel=0 note=45 velocity=64 time=0\n",
      "note_off channel=0 note=87 velocity=64 time=0\n",
      "note_on channel=0 note=88 velocity=34 time=0\n",
      "note_off channel=0 note=67 velocity=64 time=1\n",
      "note_off channel=0 note=90 velocity=64 time=0\n",
      "note_off channel=0 note=96 velocity=64 time=0\n",
      "note_off channel=0 note=57 velocity=64 time=1\n",
      "note_off channel=0 note=69 velocity=64 time=0\n",
      "note_on channel=0 note=90 velocity=37 time=0\n",
      "note_on channel=0 note=103 velocity=27 time=0\n",
      "note_on channel=0 note=43 velocity=74 time=1\n",
      "note_off channel=0 note=44 velocity=64 time=0\n",
      "note_off channel=0 note=84 velocity=64 time=0\n",
      "note_off channel=0 note=88 velocity=64 time=0\n",
      "note_off channel=0 note=91 velocity=64 time=0\n",
      "note_off channel=0 note=75 velocity=64 time=3\n",
      "note_on channel=0 note=68 velocity=17 time=1\n",
      "note_on channel=0 note=75 velocity=18 time=1\n",
      "note_on channel=0 note=91 velocity=28 time=0\n",
      "note_off channel=0 note=43 velocity=64 time=2\n",
      "note_on channel=0 note=44 velocity=36 time=0\n",
      "note_off channel=0 note=82 velocity=64 time=0\n",
      "note_on channel=0 note=71 velocity=14 time=1\n",
      "note_on channel=0 note=82 velocity=33 time=0\n",
      "note_off channel=0 note=44 velocity=64 time=2\n",
      "note_on channel=0 note=45 velocity=28 time=2\n",
      "note_off channel=0 note=71 velocity=64 time=0\n",
      "note_on channel=0 note=71 velocity=28 time=1\n",
      "note_off channel=0 note=45 velocity=64 time=2\n",
      "note_off channel=0 note=91 velocity=64 time=3\n",
      "note_on channel=0 note=93 velocity=9 time=0\n",
      "note_off channel=0 note=68 velocity=64 time=1\n",
      "note_on channel=0 note=46 velocity=29 time=1\n",
      "note_off channel=0 note=75 velocity=64 time=1\n",
      "note_off channel=0 note=93 velocity=64 time=0\n",
      "note_off channel=0 note=46 velocity=64 time=2\n",
      "note_on channel=0 note=96 velocity=10 time=0\n",
      "note_off channel=0 note=65 velocity=64 time=1\n",
      "note_on channel=0 note=45 velocity=76 time=1\n",
      "note_on channel=0 note=64 velocity=83 time=0\n",
      "note_on channel=0 note=63 velocity=75 time=1\n",
      "note_off channel=0 note=64 velocity=64 time=0\n",
      "note_off channel=0 note=71 velocity=64 time=0\n",
      "note_off channel=0 note=96 velocity=64 time=0\n",
      "note_on channel=0 note=44 velocity=80 time=1\n",
      "note_off channel=0 note=45 velocity=64 time=0\n",
      "note_off channel=0 note=63 velocity=64 time=0\n",
      "note_on channel=0 note=69 velocity=37 time=0\n",
      "note_on channel=0 note=77 velocity=20 time=1\n",
      "note_off channel=0 note=90 velocity=64 time=0\n",
      "note_on channel=0 note=91 velocity=22 time=0\n",
      "note_off channel=0 note=69 velocity=64 time=1\n",
      "note_off channel=0 note=82 velocity=64 time=1\n",
      "note_off channel=0 note=44 velocity=64 time=1\n",
      "note_on channel=0 note=71 velocity=22 time=0\n",
      "note_on channel=0 note=93 velocity=9 time=0\n",
      "note_off channel=0 note=80 velocity=64 time=1\n",
      "note_on channel=0 note=44 velocity=61 time=1\n",
      "note_on channel=0 note=66 velocity=19 time=0\n",
      "note_off channel=0 note=93 velocity=64 time=1\n",
      "note_on channel=0 note=42 velocity=56 time=1\n",
      "note_off channel=0 note=44 velocity=64 time=0\n",
      "note_off channel=0 note=103 velocity=64 time=0\n",
      "note_off channel=0 note=77 velocity=64 time=1\n",
      "note_off channel=0 note=42 velocity=64 time=1\n",
      "note_off channel=0 note=66 velocity=64 time=0\n",
      "note_on channel=0 note=80 velocity=55 time=0\n",
      "note_on channel=0 note=67 velocity=35 time=2\n",
      "note_on channel=0 note=48 velocity=69 time=1\n",
      "note_on channel=0 note=47 velocity=72 time=1\n",
      "note_off channel=0 note=48 velocity=64 time=0\n",
      "note_on channel=0 note=75 velocity=19 time=0\n",
      "note_on channel=0 note=77 velocity=18 time=0\n",
      "note_on channel=0 note=102 velocity=25 time=1\n",
      "note_off channel=0 note=47 velocity=64 time=1\n",
      "note_on channel=0 note=48 velocity=66 time=0\n",
      "note_off channel=0 note=48 velocity=64 time=1\n",
      "note_on channel=0 note=50 velocity=76 time=0\n",
      "note_on channel=0 note=65 velocity=23 time=0\n",
      "note_off channel=0 note=67 velocity=64 time=0\n",
      "note_off channel=0 note=50 velocity=64 time=1\n",
      "note_on channel=0 note=53 velocity=73 time=0\n",
      "note_on channel=0 note=68 velocity=12 time=0\n",
      "note_off channel=0 note=71 velocity=64 time=0\n",
      "note_off channel=0 note=91 velocity=64 time=0\n",
      "note_on channel=0 note=94 velocity=48 time=2\n",
      "note_off channel=0 note=95 velocity=64 time=0\n",
      "note_off channel=0 note=53 velocity=64 time=1\n",
      "note_off channel=0 note=68 velocity=64 time=0\n",
      "note_on channel=0 note=53 velocity=58 time=1\n",
      "note_off channel=0 note=101 velocity=64 time=0\n",
      "note_on channel=0 note=95 velocity=53 time=2\n",
      "note_off channel=0 note=94 velocity=64 time=1\n",
      "note_off channel=0 note=102 velocity=64 time=0\n",
      "note_on channel=0 note=103 velocity=12 time=0\n",
      "note_off channel=0 note=53 velocity=64 time=1\n",
      "note_off channel=0 note=65 velocity=64 time=0\n",
      "note_on channel=0 note=71 velocity=35 time=0\n",
      "note_off channel=0 note=77 velocity=64 time=0\n",
      "note_on channel=0 note=83 velocity=35 time=0\n",
      "note_on channel=0 note=47 velocity=68 time=1\n",
      "note_off channel=0 note=61 velocity=64 time=0\n",
      "note_on channel=0 note=62 velocity=81 time=0\n",
      "note_off channel=0 note=75 velocity=64 time=0\n",
      "note_on channel=0 note=77 velocity=35 time=0\n",
      "note_on channel=0 note=45 velocity=77 time=1\n",
      "note_off channel=0 note=47 velocity=64 time=0\n",
      "note_on channel=0 note=61 velocity=75 time=0\n",
      "note_off channel=0 note=62 velocity=64 time=0\n",
      "note_on channel=0 note=64 velocity=79 time=0\n",
      "note_off channel=0 note=83 velocity=64 time=0\n",
      "note_on channel=0 note=44 velocity=78 time=1\n",
      "note_off channel=0 note=45 velocity=64 time=0\n",
      "note_off channel=0 note=64 velocity=64 time=0\n",
      "note_off channel=0 note=71 velocity=64 time=0\n",
      "note_on channel=0 note=102 velocity=22 time=1\n",
      "note_off channel=0 note=103 velocity=64 time=0\n",
      "note_on channel=0 note=91 velocity=24 time=1\n",
      "note_off channel=0 note=44 velocity=64 time=1\n",
      "note_on channel=0 note=45 velocity=75 time=0\n",
      "note_on channel=0 note=65 velocity=47 time=1\n",
      "note_on channel=0 note=71 velocity=26 time=0\n",
      "note_on channel=0 note=44 velocity=70 time=1\n",
      "note_off channel=0 note=45 velocity=64 time=0\n",
      "note_on channel=0 note=83 velocity=56 time=0\n",
      "note_on channel=0 note=43 velocity=62 time=2\n",
      "note_off channel=0 note=44 velocity=64 time=0\n",
      "note_on channel=0 note=68 velocity=40 time=0\n",
      "note_off channel=0 note=61 velocity=64 time=1\n",
      "note_off channel=0 note=71 velocity=64 time=0\n",
      "note_on channel=0 note=87 velocity=13 time=0\n",
      "note_on channel=0 note=42 velocity=57 time=1\n",
      "note_off channel=0 note=43 velocity=64 time=0\n",
      "note_on channel=0 note=61 velocity=81 time=0\n",
      "note_on channel=0 note=71 velocity=20 time=0\n",
      "note_off channel=0 note=102 velocity=64 time=1\n",
      "note_off channel=0 note=42 velocity=64 time=1\n",
      "note_off channel=0 note=71 velocity=64 time=1\n",
      "note_on channel=0 note=75 velocity=15 time=0\n",
      "note_off channel=0 note=87 velocity=64 time=0\n",
      "note_on channel=0 note=102 velocity=20 time=0\n",
      "note_on channel=0 note=99 velocity=16 time=1\n",
      "note_on channel=0 note=47 velocity=73 time=1\n",
      "note_on channel=0 note=93 velocity=11 time=1\n",
      "note_off channel=0 note=47 velocity=64 time=1\n",
      "note_on channel=0 note=48 velocity=73 time=0\n",
      "note_off channel=0 note=75 velocity=64 time=0\n",
      "note_off channel=0 note=89 velocity=64 time=0\n",
      "note_off channel=0 note=48 velocity=64 time=2\n",
      "note_on channel=0 note=52 velocity=76 time=0\n",
      "note_on channel=0 note=71 velocity=19 time=0\n",
      "note_off channel=0 note=52 velocity=64 time=1\n",
      "note_on channel=0 note=53 velocity=67 time=0\n",
      "note_on channel=0 note=75 velocity=13 time=0\n",
      "note_off channel=0 note=91 velocity=64 time=0\n",
      "note_off channel=0 note=53 velocity=64 time=2\n",
      "note_off channel=0 note=71 velocity=64 time=0\n",
      "note_off channel=0 note=93 velocity=64 time=0\n",
      "note_off channel=0 note=99 velocity=64 time=0\n",
      "note_off channel=0 note=102 velocity=64 time=0\n",
      "note_on channel=0 note=53 velocity=59 time=1\n",
      "note_on channel=0 note=87 velocity=44 time=0\n",
      "note_off channel=0 note=75 velocity=64 time=1\n",
      "note_on channel=0 note=89 velocity=72 time=0\n",
      "note_on channel=0 note=91 velocity=16 time=0\n",
      "note_off channel=0 note=80 velocity=64 time=1\n",
      "note_on channel=0 note=71 velocity=25 time=1\n",
      "note_off channel=0 note=92 velocity=64 time=0\n",
      "note_off channel=0 note=77 velocity=64 time=1\n",
      "note_on channel=0 note=88 velocity=41 time=0\n",
      "note_off channel=0 note=91 velocity=64 time=0\n",
      "note_on channel=0 note=47 velocity=75 time=1\n",
      "note_off channel=0 note=53 velocity=64 time=0\n",
      "note_off channel=0 note=65 velocity=64 time=0\n",
      "note_off channel=0 note=68 velocity=64 time=0\n",
      "note_off channel=0 note=73 velocity=64 time=0\n",
      "note_on channel=0 note=76 velocity=43 time=0\n",
      "note_on channel=0 note=80 velocity=83 time=0\n",
      "note_off channel=0 note=47 velocity=64 time=1\n",
      "note_on channel=0 note=48 velocity=88 time=0\n",
      "note_on channel=0 note=78 velocity=28 time=0\n",
      "note_on channel=0 note=74 velocity=77 time=1\n",
      "note_off channel=0 note=88 velocity=64 time=0\n",
      "note_on channel=0 note=46 velocity=71 time=1\n",
      "note_off channel=0 note=48 velocity=64 time=0\n",
      "note_off channel=0 note=76 velocity=64 time=0\n",
      "note_on channel=0 note=93 velocity=50 time=0\n",
      "note_on channel=0 note=65 velocity=36 time=1\n",
      "note_on channel=0 note=68 velocity=22 time=0\n",
      "note_off channel=0 note=78 velocity=64 time=0\n",
      "note_on channel=0 note=91 velocity=22 time=0\n",
      "note_on channel=0 note=100 velocity=39 time=0\n",
      "note_off channel=0 note=46 velocity=64 time=1\n",
      "note_on channel=0 note=47 velocity=71 time=0\n",
      "note_off channel=0 note=61 velocity=64 time=0\n",
      "note_on channel=0 note=62 velocity=69 time=0\n",
      "note_on channel=0 note=102 velocity=29 time=0\n",
      "note_off channel=0 note=47 velocity=64 time=1\n",
      "note_on channel=0 note=90 velocity=60 time=0\n",
      "note_on channel=0 note=96 velocity=29 time=0\n",
      "note_off channel=0 note=95 velocity=64 time=1\n",
      "note_off channel=0 note=65 velocity=64 time=1\n",
      "note_off channel=0 note=68 velocity=64 time=0\n",
      "note_on channel=0 note=81 velocity=65 time=0\n",
      "note_on channel=0 note=45 velocity=60 time=2\n",
      "note_on channel=0 note=85 velocity=21 time=1\n",
      "note_off channel=0 note=45 velocity=64 time=1\n",
      "note_off channel=0 note=91 velocity=64 time=0\n",
      "note_on channel=0 note=44 velocity=44 time=3\n",
      "note_off channel=0 note=85 velocity=64 time=0\n",
      "note_off channel=0 note=96 velocity=64 time=0\n",
      "note_off channel=0 note=81 velocity=64 time=1\n",
      "note_off channel=0 note=102 velocity=64 time=0\n",
      "note_on channel=0 note=73 velocity=76 time=1\n",
      "note_off channel=0 note=74 velocity=64 time=0\n",
      "note_on channel=0 note=77 velocity=30 time=0\n",
      "note_off channel=0 note=80 velocity=64 time=0\n",
      "note_on channel=0 note=81 velocity=70 time=0\n",
      "note_off channel=0 note=90 velocity=64 time=0\n",
      "note_off channel=0 note=93 velocity=64 time=0\n",
      "note_off channel=0 note=44 velocity=64 time=1\n",
      "note_on channel=0 note=61 velocity=68 time=0\n",
      "note_off channel=0 note=62 velocity=64 time=0\n",
      "note_on channel=0 note=80 velocity=69 time=0\n",
      "note_off channel=0 note=81 velocity=64 time=0\n",
      "note_off channel=0 note=83 velocity=64 time=0\n",
      "note_off channel=0 note=100 velocity=64 time=0\n",
      "note_on channel=0 note=54 velocity=20 time=1\n",
      "note_off channel=0 note=61 velocity=64 time=0\n",
      "note_on channel=0 note=62 velocity=70 time=0\n",
      "note_off channel=0 note=73 velocity=64 time=0\n",
      "note_on channel=0 note=74 velocity=78 time=0\n",
      "note_off channel=0 note=80 velocity=64 time=0\n",
      "note_on channel=0 note=81 velocity=75 time=0\n",
      "note_on channel=0 note=102 velocity=37 time=0\n",
      "note_on channel=0 note=80 velocity=83 time=1\n",
      "note_off channel=0 note=81 velocity=64 time=0\n",
      "note_on channel=0 note=83 velocity=46 time=0\n",
      "note_off channel=0 note=89 velocity=64 time=0\n",
      "note_on channel=0 note=90 velocity=67 time=0\n",
      "note_on channel=0 note=96 velocity=14 time=0\n",
      "note_on channel=0 note=89 velocity=73 time=1\n",
      "note_on channel=0 note=100 velocity=17 time=0\n",
      "note_off channel=0 note=54 velocity=64 time=1\n",
      "note_on channel=0 note=31 velocity=26 time=1\n",
      "note_on channel=0 note=85 velocity=29 time=1\n",
      "note_on channel=0 note=65 velocity=15 time=1\n",
      "note_off channel=0 note=96 velocity=64 time=0\n",
      "note_off channel=0 note=100 velocity=64 time=0\n",
      "note_off channel=0 note=31 velocity=64 time=1\n",
      "note_on channel=0 note=61 velocity=75 time=0\n",
      "note_off channel=0 note=62 velocity=64 time=0\n",
      "note_off channel=0 note=74 velocity=64 time=0\n",
      "note_off channel=0 note=85 velocity=64 time=0\n",
      "note_off channel=0 note=90 velocity=64 time=0\n",
      "note_off channel=0 note=71 velocity=64 time=1\n",
      "note_off channel=0 note=65 velocity=64 time=1\n",
      "note_on channel=0 note=71 velocity=38 time=0\n",
      "note_on channel=0 note=75 velocity=49 time=1\n",
      "note_off channel=0 note=77 velocity=64 time=0\n",
      "note_on channel=0 note=91 velocity=27 time=0\n",
      "note_on channel=0 note=93 velocity=10 time=0\n",
      "note_on channel=0 note=45 velocity=75 time=1\n",
      "note_on channel=0 note=69 velocity=41 time=0\n",
      "note_off channel=0 note=71 velocity=64 time=0\n",
      "note_on channel=0 note=67 velocity=41 time=1\n",
      "note_on channel=0 note=44 velocity=77 time=1\n",
      "note_off channel=0 note=45 velocity=64 time=0\n",
      "note_on channel=0 note=71 velocity=40 time=0\n",
      "note_on channel=0 note=77 velocity=30 time=0\n",
      "note_on channel=0 note=90 velocity=15 time=0\n",
      "note_off channel=0 note=102 velocity=64 time=0\n",
      "note_off channel=0 note=67 velocity=64 time=1\n",
      "note_off channel=0 note=93 velocity=64 time=0\n",
      "note_off channel=0 note=69 velocity=64 time=1\n",
      "note_off channel=0 note=75 velocity=64 time=1\n",
      "note_off channel=0 note=90 velocity=64 time=0\n",
      "note_on channel=0 note=43 velocity=69 time=1\n",
      "note_off channel=0 note=44 velocity=64 time=0\n",
      "note_on channel=0 note=68 velocity=24 time=0\n",
      "note_on channel=0 note=102 velocity=15 time=0\n",
      "note_on channel=0 note=65 velocity=64 time=2\n",
      "note_off channel=0 note=71 velocity=64 time=0\n",
      "note_off channel=0 note=91 velocity=64 time=1\n",
      "note_on channel=0 note=94 velocity=14 time=0\n",
      "note_off channel=0 note=43 velocity=64 time=1\n",
      "note_on channel=0 note=44 velocity=45 time=0\n",
      "note_on channel=0 note=88 velocity=41 time=0\n",
      "note_off channel=0 note=102 velocity=64 time=0\n",
      "note_on channel=0 note=60 velocity=56 time=1\n",
      "note_off channel=0 note=61 velocity=64 time=0\n",
      "note_off channel=0 note=89 velocity=64 time=0\n",
      "note_off channel=0 note=44 velocity=64 time=1\n",
      "note_on channel=0 note=72 velocity=69 time=0\n",
      "note_on channel=0 note=49 velocity=32 time=1\n",
      "note_on channel=0 note=91 velocity=44 time=0\n",
      "note_on channel=0 note=71 velocity=65 time=1\n",
      "note_on channel=0 note=85 velocity=20 time=0\n",
      "note_on channel=0 note=90 velocity=43 time=0\n",
      "note_off channel=0 note=94 velocity=64 time=0\n",
      "note_off channel=0 note=49 velocity=64 time=1\n",
      "note_on channel=0 note=59 velocity=55 time=0\n",
      "note_off channel=0 note=60 velocity=64 time=0\n",
      "note_off channel=0 note=72 velocity=64 time=0\n",
      "note_off channel=0 note=77 velocity=64 time=0\n",
      "note_on channel=0 note=78 velocity=53 time=1\n",
      "note_on channel=0 note=84 velocity=14 time=1\n",
      "note_on channel=0 note=93 velocity=21 time=0\n",
      "note_on channel=0 note=49 velocity=38 time=1\n",
      "note_off channel=0 note=85 velocity=64 time=0\n",
      "note_on channel=0 note=77 velocity=66 time=3\n",
      "note_on channel=0 note=82 velocity=30 time=0\n",
      "note_on channel=0 note=86 velocity=14 time=0\n",
      "note_off channel=0 note=49 velocity=64 time=1\n",
      "note_on channel=0 note=50 velocity=32 time=0\n",
      "note_off channel=0 note=68 velocity=64 time=0\n",
      "note_off channel=0 note=78 velocity=64 time=0\n",
      "note_off channel=0 note=83 velocity=64 time=0\n",
      "note_off channel=0 note=93 velocity=64 time=0\n",
      "note_on channel=0 note=58 velocity=50 time=1\n",
      "note_off channel=0 note=59 velocity=64 time=0\n",
      "note_on channel=0 note=73 velocity=55 time=0\n",
      "note_off channel=0 note=90 velocity=64 time=0\n",
      "note_off channel=0 note=50 velocity=64 time=1\n",
      "note_on channel=0 note=70 velocity=65 time=0\n",
      "note_off channel=0 note=71 velocity=64 time=0\n",
      "note_off channel=0 note=82 velocity=64 time=0\n",
      "note_off channel=0 note=86 velocity=64 time=0\n",
      "note_off channel=0 note=88 velocity=64 time=0\n",
      "note_on channel=0 note=61 velocity=25 time=1\n",
      "note_on channel=0 note=57 velocity=55 time=1\n",
      "note_off channel=0 note=58 velocity=64 time=0\n",
      "note_on channel=0 note=69 velocity=58 time=0\n",
      "note_off channel=0 note=70 velocity=64 time=0\n",
      "note_on channel=0 note=76 velocity=69 time=0\n",
      "note_off channel=0 note=77 velocity=64 time=0\n",
      "note_on channel=0 note=78 velocity=38 time=0\n",
      "note_on channel=0 note=86 velocity=15 time=0\n",
      "note_on channel=0 note=50 velocity=51 time=1\n",
      "note_on channel=0 note=70 velocity=50 time=0\n",
      "note_off channel=0 note=84 velocity=64 time=0\n",
      "note_off channel=0 note=61 velocity=64 time=1\n",
      "note_off channel=0 note=69 velocity=64 time=0\n",
      "note_off channel=0 note=78 velocity=64 time=0\n",
      "note_on channel=0 note=90 velocity=35 time=0\n",
      "note_on channel=0 note=48 velocity=67 time=1\n",
      "note_off channel=0 note=50 velocity=64 time=0\n",
      "note_on channel=0 note=64 velocity=82 time=0\n",
      "note_off channel=0 note=65 velocity=64 time=0\n",
      "note_on channel=0 note=69 velocity=59 time=0\n",
      "note_off channel=0 note=70 velocity=64 time=0\n",
      "note_off channel=0 note=86 velocity=64 time=0\n",
      "note_on channel=0 note=89 velocity=49 time=0\n",
      "note_on channel=0 note=45 velocity=77 time=1\n",
      "note_off channel=0 note=48 velocity=64 time=0\n",
      "note_on channel=0 note=84 velocity=24 time=0\n",
      "note_on channel=0 note=44 velocity=79 time=1\n",
      "note_off channel=0 note=45 velocity=64 time=0\n",
      "note_on channel=0 note=63 velocity=70 time=0\n",
      "note_off channel=0 note=64 velocity=64 time=0\n",
      "note_off channel=0 note=90 velocity=64 time=0\n",
      "note_off channel=0 note=57 velocity=64 time=1\n",
      "note_off channel=0 note=76 velocity=64 time=0\n",
      "note_on channel=0 note=77 velocity=62 time=0\n",
      "note_on channel=0 note=59 velocity=44 time=1\n",
      "note_off channel=0 note=69 velocity=64 time=0\n",
      "note_on channel=0 note=70 velocity=48 time=0\n",
      "note_on channel=0 note=83 velocity=40 time=0\n",
      "note_off channel=0 note=84 velocity=64 time=0\n",
      "note_on channel=0 note=88 velocity=22 time=0\n",
      "note_off channel=0 note=63 velocity=64 time=1\n",
      "note_off channel=0 note=44 velocity=64 time=1\n",
      "note_on channel=0 note=61 velocity=70 time=0\n",
      "note_off channel=0 note=70 velocity=64 time=0\n",
      "note_on channel=0 note=75 velocity=35 time=0\n",
      "note_off channel=0 note=83 velocity=64 time=0\n",
      "note_off channel=0 note=59 velocity=64 time=1\n",
      "note_on channel=0 note=71 velocity=40 time=0\n",
      "note_off channel=0 note=77 velocity=64 time=0\n",
      "note_on channel=0 note=78 velocity=35 time=0\n",
      "note_off channel=0 note=88 velocity=64 time=0\n",
      "note_on channel=0 note=43 velocity=63 time=1\n",
      "note_on channel=0 note=79 velocity=35 time=0\n",
      "note_on channel=0 note=70 velocity=38 time=1\n",
      "note_off channel=0 note=71 velocity=64 time=0\n",
      "note_off channel=0 note=78 velocity=64 time=1\n",
      "note_on channel=0 note=90 velocity=56 time=0\n",
      "note_on channel=0 note=42 velocity=56 time=1\n",
      "note_off channel=0 note=43 velocity=64 time=0\n",
      "note_on channel=0 note=65 velocity=54 time=0\n",
      "note_on channel=0 note=68 velocity=48 time=0\n",
      "note_off channel=0 note=79 velocity=64 time=0\n",
      "note_off channel=0 note=70 velocity=64 time=1\n",
      "note_on channel=0 note=72 velocity=53 time=0\n",
      "note_off channel=0 note=73 velocity=64 time=0\n",
      "note_on channel=0 note=88 velocity=42 time=0\n",
      "note_off channel=0 note=89 velocity=64 time=0\n",
      "note_on channel=0 note=79 velocity=43 time=1\n",
      "note_off channel=0 note=42 velocity=64 time=1\n",
      "note_on channel=0 note=47 velocity=72 time=0\n",
      "note_on channel=0 note=71 velocity=42 time=0\n",
      "note_off channel=0 note=72 velocity=64 time=0\n",
      "note_off channel=0 note=80 velocity=64 time=0\n",
      "note_on channel=0 note=83 velocity=48 time=0\n",
      "note_on channel=0 note=78 velocity=48 time=1\n",
      "note_off channel=0 note=79 velocity=64 time=0\n",
      "note_on channel=0 note=93 velocity=18 time=0\n",
      "note_off channel=0 note=61 velocity=64 time=1\n",
      "note_off channel=0 note=71 velocity=64 time=0\n",
      "note_on channel=0 note=73 velocity=40 time=0\n",
      "note_on channel=0 note=71 velocity=60 time=1\n",
      "note_off channel=0 note=47 velocity=64 time=1\n",
      "note_on channel=0 note=48 velocity=71 time=0\n",
      "note_off channel=0 note=48 velocity=64 time=1\n",
      "note_on channel=0 note=49 velocity=77 time=0\n",
      "note_off channel=0 note=91 velocity=64 time=0\n",
      "note_off channel=0 note=49 velocity=64 time=1\n",
      "note_on channel=0 note=52 velocity=76 time=0\n",
      "note_on channel=0 note=91 velocity=9 time=0\n",
      "note_on channel=0 note=31 velocity=22 time=1\n",
      "note_off channel=0 note=52 velocity=64 time=0\n",
      "note_on channel=0 note=53 velocity=67 time=0\n",
      "note_on channel=0 note=84 velocity=18 time=0\n",
      "note_off channel=0 note=53 velocity=64 time=1\n",
      "note_on channel=0 note=82 velocity=30 time=1\n",
      "note_off channel=0 note=83 velocity=64 time=0\n",
      "note_off channel=0 note=93 velocity=64 time=0\n",
      "note_on channel=0 note=53 velocity=59 time=1\n",
      "note_on channel=0 note=59 velocity=52 time=0\n",
      "note_off channel=0 note=91 velocity=64 time=0\n",
      "note_off channel=0 note=31 velocity=64 time=2\n",
      "note_off channel=0 note=78 velocity=64 time=0\n",
      "note_on channel=0 note=78 velocity=35 time=1\n",
      "note_on channel=0 note=93 velocity=22 time=0\n",
      "note_off channel=0 note=53 velocity=64 time=1\n",
      "note_off channel=0 note=73 velocity=64 time=0\n",
      "note_off channel=0 note=84 velocity=64 time=0\n",
      "note_on channel=0 note=89 velocity=33 time=0\n",
      "note_off channel=0 note=59 velocity=64 time=1\n",
      "note_on channel=0 note=64 velocity=81 time=0\n",
      "note_off channel=0 note=65 velocity=64 time=0\n",
      "note_off channel=0 note=68 velocity=64 time=0\n",
      "note_on channel=0 note=74 velocity=31 time=0\n",
      "note_off channel=0 note=75 velocity=64 time=0\n",
      "note_on channel=0 note=77 velocity=38 time=0\n",
      "note_on channel=0 note=79 velocity=42 time=0\n",
      "note_off channel=0 note=82 velocity=64 time=0\n",
      "note_off channel=0 note=88 velocity=64 time=0\n",
      "note_on channel=0 note=45 velocity=75 time=1\n",
      "note_on channel=0 note=67 velocity=55 time=0\n",
      "note_on channel=0 note=73 velocity=38 time=0\n",
      "note_off channel=0 note=78 velocity=64 time=0\n",
      "note_on channel=0 note=88 velocity=26 time=0\n",
      "note_off channel=0 note=93 velocity=64 time=0\n",
      "note_on channel=0 note=44 velocity=79 time=1\n",
      "note_off channel=0 note=45 velocity=64 time=0\n",
      "note_on channel=0 note=63 velocity=74 time=0\n",
      "note_off channel=0 note=64 velocity=64 time=0\n",
      "note_off channel=0 note=74 velocity=64 time=0\n",
      "note_off channel=0 note=79 velocity=64 time=0\n",
      "note_on channel=0 note=80 velocity=84 time=0\n",
      "note_on channel=0 note=82 velocity=30 time=0\n",
      "note_off channel=0 note=89 velocity=64 time=0\n",
      "note_on channel=0 note=59 velocity=48 time=1\n",
      "note_off channel=0 note=67 velocity=64 time=0\n",
      "note_on channel=0 note=84 velocity=13 time=0\n",
      "note_off channel=0 note=90 velocity=64 time=0\n",
      "note_on channel=0 note=68 velocity=42 time=1\n",
      "note_off channel=0 note=77 velocity=64 time=0\n",
      "note_on channel=0 note=78 velocity=48 time=0\n",
      "note_off channel=0 note=63 velocity=64 time=1\n",
      "note_on channel=0 note=86 velocity=16 time=0\n",
      "note_off channel=0 note=44 velocity=64 time=1\n",
      "note_on channel=0 note=46 velocity=66 time=0\n",
      "note_on channel=0 note=65 velocity=36 time=0\n",
      "note_off channel=0 note=82 velocity=64 time=0\n",
      "note_off channel=0 note=84 velocity=64 time=0\n",
      "note_off channel=0 note=87 velocity=64 time=0\n",
      "note_on channel=0 note=91 velocity=14 time=0\n",
      "note_on channel=0 note=41 velocity=56 time=1\n",
      "note_off channel=0 note=46 velocity=64 time=0\n",
      "note_on channel=0 note=87 velocity=45 time=1\n",
      "note_on channel=0 note=89 velocity=28 time=0\n",
      "note_off channel=0 note=41 velocity=64 time=1\n",
      "note_on channel=0 note=43 velocity=61 time=0\n",
      "note_on channel=0 note=61 velocity=60 time=0\n",
      "note_on channel=0 note=77 velocity=53 time=0\n",
      "note_off channel=0 note=88 velocity=64 time=0\n",
      "note_on channel=0 note=58 velocity=49 time=1\n",
      "note_off channel=0 note=59 velocity=64 time=0\n",
      "note_off channel=0 note=65 velocity=64 time=0\n",
      "note_off channel=0 note=68 velocity=64 time=0\n",
      "note_off channel=0 note=78 velocity=64 time=0\n",
      "note_on channel=0 note=65 velocity=33 time=1\n",
      "note_on channel=0 note=68 velocity=39 time=0\n",
      "note_off channel=0 note=71 velocity=64 time=0\n",
      "note_on channel=0 note=42 velocity=55 time=1\n",
      "note_off channel=0 note=43 velocity=64 time=0\n",
      "note_on channel=0 note=71 velocity=48 time=0\n",
      "note_on channel=0 note=57 velocity=46 time=1\n",
      "note_off channel=0 note=58 velocity=64 time=0\n",
      "note_off channel=0 note=68 velocity=64 time=0\n",
      "note_on channel=0 note=76 velocity=50 time=0\n",
      "note_off channel=0 note=77 velocity=64 time=0\n",
      "note_off channel=0 note=86 velocity=64 time=0\n",
      "note_off channel=0 note=42 velocity=64 time=1\n",
      "note_off channel=0 note=65 velocity=64 time=0\n",
      "note_on channel=0 note=69 velocity=48 time=0\n",
      "note_off channel=0 note=89 velocity=64 time=0\n",
      "note_on channel=0 note=48 velocity=68 time=1\n",
      "note_off channel=0 note=71 velocity=64 time=0\n",
      "note_off channel=0 note=73 velocity=64 time=0\n",
      "note_off channel=0 note=57 velocity=64 time=1\n",
      "note_on channel=0 note=65 velocity=63 time=0\n",
      "note_on channel=0 note=47 velocity=75 time=1\n",
      "note_off channel=0 note=48 velocity=64 time=0\n",
      "note_on channel=0 note=70 velocity=54 time=0\n",
      "note_on channel=0 note=75 velocity=31 time=0\n",
      "note_off channel=0 note=76 velocity=64 time=0\n",
      "note_on channel=0 note=89 velocity=68 time=0\n",
      "note_off channel=0 note=47 velocity=64 time=1\n",
      "note_on channel=0 note=48 velocity=74 time=0\n",
      "note_on channel=0 note=68 velocity=41 time=0\n",
      "note_off channel=0 note=69 velocity=64 time=0\n",
      "note_on channel=0 note=84 velocity=20 time=1\n",
      "note_off channel=0 note=48 velocity=64 time=1\n",
      "note_on channel=0 note=50 velocity=77 time=0\n",
      "note_off channel=0 note=68 velocity=64 time=0\n",
      "note_on channel=0 note=69 velocity=47 time=0\n",
      "note_off channel=0 note=70 velocity=64 time=0\n",
      "note_off channel=0 note=75 velocity=64 time=0\n",
      "note_on channel=0 note=76 velocity=49 time=0\n",
      "note_off channel=0 note=50 velocity=64 time=1\n",
      "note_on channel=0 note=53 velocity=70 time=0\n",
      "note_off channel=0 note=91 velocity=64 time=1\n",
      "note_off channel=0 note=53 velocity=64 time=1\n",
      "note_off channel=0 note=61 velocity=64 time=0\n",
      "note_on channel=0 note=91 velocity=30 time=0\n",
      "note_on channel=0 note=71 velocity=35 time=1\n",
      "note_on channel=0 note=78 velocity=25 time=0\n",
      "note_on channel=0 note=53 velocity=55 time=1\n",
      "note_off channel=0 note=69 velocity=64 time=0\n",
      "note_on channel=0 note=57 velocity=44 time=1\n",
      "note_on channel=0 note=69 velocity=52 time=0\n",
      "note_off channel=0 note=71 velocity=64 time=0\n",
      "note_on channel=0 note=82 velocity=32 time=0\n",
      "note_off channel=0 note=53 velocity=64 time=1\n",
      "note_on channel=0 note=71 velocity=36 time=0\n",
      "note_off channel=0 note=76 velocity=64 time=1\n",
      "note_on channel=0 note=86 velocity=34 time=0\n",
      "note_on channel=0 note=93 velocity=31 time=0\n",
      "note_on channel=0 note=50 velocity=66 time=1\n",
      "note_off channel=0 note=69 velocity=64 time=0\n",
      "note_off channel=0 note=78 velocity=64 time=0\n",
      "note_off channel=0 note=82 velocity=64 time=0\n",
      "note_off channel=0 note=84 velocity=64 time=0\n",
      "note_on channel=0 note=94 velocity=30 time=0\n",
      "note_on channel=0 note=96 velocity=21 time=0\n",
      "note_on channel=0 note=48 velocity=88 time=1\n",
      "note_off channel=0 note=50 velocity=64 time=0\n",
      "note_off channel=0 note=57 velocity=64 time=0\n",
      "note_on channel=0 note=74 velocity=33 time=0\n",
      "note_on channel=0 note=75 velocity=37 time=0\n",
      "note_on channel=0 note=82 velocity=45 time=0\n",
      "note_on channel=0 note=84 velocity=28 time=0\n",
      "note_on channel=0 note=85 velocity=41 time=0\n",
      "note_off channel=0 note=86 velocity=64 time=0\n",
      "note_on channel=0 note=56 velocity=55 time=1\n",
      "note_off channel=0 note=91 velocity=64 time=0\n",
      "note_on channel=0 note=73 velocity=35 time=1\n",
      "note_off channel=0 note=74 velocity=64 time=0\n",
      "note_on channel=0 note=91 velocity=26 time=0\n",
      "note_off channel=0 note=96 velocity=64 time=0\n",
      "note_off channel=0 note=48 velocity=64 time=1\n",
      "note_off channel=0 note=56 velocity=64 time=0\n",
      "note_on channel=0 note=57 velocity=57 time=0\n",
      "note_on channel=0 note=83 velocity=41 time=0\n",
      "note_off channel=0 note=94 velocity=64 time=0\n",
      "note_on channel=0 note=95 velocity=41 time=0\n",
      "note_on channel=0 note=43 velocity=66 time=1\n",
      "note_off channel=0 note=71 velocity=64 time=0\n",
      "note_on channel=0 note=78 velocity=26 time=0\n",
      "note_off channel=0 note=82 velocity=64 time=0\n",
      "note_off channel=0 note=87 velocity=64 time=0\n",
      "note_off channel=0 note=43 velocity=64 time=1\n",
      "note_on channel=0 note=48 velocity=68 time=0\n",
      "note_off channel=0 note=75 velocity=64 time=0\n",
      "note_on channel=0 note=82 velocity=44 time=0\n"
     ]
    },
    {
     "name": "stdout",
     "output_type": "stream",
     "text": [
      "note_off channel=0 note=83 velocity=64 time=0\n",
      "note_off channel=0 note=91 velocity=64 time=0\n",
      "note_off channel=0 note=48 velocity=64 time=1\n",
      "note_on channel=0 note=91 velocity=18 time=0\n",
      "note_on channel=0 note=45 velocity=60 time=1\n",
      "note_off channel=0 note=78 velocity=64 time=1\n",
      "note_on channel=0 note=87 velocity=51 time=0\n",
      "note_off channel=0 note=57 velocity=64 time=1\n",
      "note_on channel=0 note=61 velocity=25 time=0\n",
      "note_on channel=0 note=78 velocity=20 time=0\n",
      "note_on channel=0 note=90 velocity=31 time=0\n",
      "note_off channel=0 note=91 velocity=64 time=0\n",
      "note_on channel=0 note=44 velocity=52 time=1\n",
      "note_off channel=0 note=45 velocity=64 time=0\n",
      "note_on channel=0 note=68 velocity=57 time=0\n",
      "note_on channel=0 note=71 velocity=16 time=0\n",
      "note_on channel=0 note=75 velocity=41 time=0\n",
      "note_on channel=0 note=56 velocity=53 time=1\n",
      "note_off channel=0 note=85 velocity=64 time=0\n",
      "note_on channel=0 note=91 velocity=22 time=1\n",
      "note_off channel=0 note=78 velocity=64 time=1\n",
      "note_on channel=0 note=31 velocity=25 time=1\n",
      "note_off channel=0 note=71 velocity=64 time=0\n",
      "note_off channel=0 note=90 velocity=64 time=0\n",
      "note_on channel=0 note=43 velocity=33 time=1\n",
      "note_off channel=0 note=44 velocity=64 time=0\n",
      "note_on channel=0 note=90 velocity=35 time=0\n",
      "note_off channel=0 note=91 velocity=64 time=1\n",
      "note_off channel=0 note=31 velocity=64 time=1\n",
      "note_off channel=0 note=56 velocity=64 time=0\n",
      "note_on channel=0 note=56 velocity=39 time=1\n",
      "note_off channel=0 note=61 velocity=64 time=1\n",
      "note_on channel=0 note=55 velocity=47 time=1\n",
      "note_off channel=0 note=56 velocity=64 time=0\n",
      "note_on channel=0 note=61 velocity=27 time=1\n",
      "note_on channel=0 note=83 velocity=50 time=0\n",
      "note_off channel=0 note=43 velocity=64 time=1\n",
      "note_off channel=0 note=55 velocity=64 time=0\n",
      "note_on channel=0 note=56 velocity=43 time=0\n",
      "note_on channel=0 note=71 velocity=13 time=0\n",
      "note_off channel=0 note=82 velocity=64 time=1\n",
      "note_on channel=0 note=91 velocity=33 time=0\n",
      "note_off channel=0 note=56 velocity=64 time=1\n",
      "note_on channel=0 note=56 velocity=39 time=1\n",
      "note_off channel=0 note=89 velocity=64 time=0\n",
      "note_on channel=0 note=89 velocity=71 time=1\n",
      "note_off channel=0 note=56 velocity=64 time=1\n",
      "note_off channel=0 note=91 velocity=64 time=0\n",
      "note_on channel=0 note=56 velocity=45 time=1\n",
      "note_off channel=0 note=61 velocity=64 time=0\n",
      "note_on channel=0 note=62 velocity=56 time=0\n",
      "note_off channel=0 note=71 velocity=64 time=0\n",
      "note_off channel=0 note=84 velocity=64 time=0\n",
      "note_on channel=0 note=94 velocity=29 time=0\n",
      "note_on channel=0 note=47 velocity=68 time=1\n",
      "note_off channel=0 note=65 velocity=64 time=0\n",
      "note_off channel=0 note=73 velocity=64 time=0\n",
      "note_off channel=0 note=75 velocity=64 time=0\n",
      "note_on channel=0 note=84 velocity=48 time=0\n",
      "note_off channel=0 note=90 velocity=64 time=0\n",
      "note_on channel=0 note=91 velocity=14 time=0\n",
      "note_on channel=0 note=45 velocity=76 time=1\n",
      "note_off channel=0 note=47 velocity=64 time=0\n",
      "note_off channel=0 note=56 velocity=64 time=0\n",
      "note_off channel=0 note=68 velocity=64 time=0\n",
      "note_on channel=0 note=69 velocity=43 time=0\n",
      "note_on channel=0 note=75 velocity=44 time=0\n",
      "note_on channel=0 note=78 velocity=31 time=0\n",
      "note_on channel=0 note=85 velocity=39 time=0\n",
      "note_off channel=0 note=94 velocity=64 time=0\n",
      "note_on channel=0 note=44 velocity=78 time=1\n",
      "note_off channel=0 note=45 velocity=64 time=0\n",
      "note_on channel=0 note=55 velocity=45 time=0\n",
      "note_off channel=0 note=62 velocity=64 time=0\n",
      "note_on channel=0 note=63 velocity=47 time=0\n",
      "note_on channel=0 note=73 velocity=23 time=0\n",
      "note_on channel=0 note=76 velocity=26 time=0\n",
      "note_on channel=0 note=90 velocity=51 time=0\n",
      "note_off channel=0 note=69 velocity=64 time=1\n",
      "note_off channel=0 note=78 velocity=64 time=0\n",
      "note_off channel=0 note=91 velocity=64 time=0\n",
      "note_off channel=0 note=55 velocity=64 time=1\n",
      "note_off channel=0 note=63 velocity=64 time=0\n",
      "note_on channel=0 note=68 velocity=67 time=0\n",
      "note_on channel=0 note=71 velocity=20 time=0\n",
      "note_on channel=0 note=88 velocity=31 time=0\n",
      "note_on channel=0 note=43 velocity=74 time=1\n",
      "note_off channel=0 note=44 velocity=64 time=0\n",
      "note_on channel=0 note=65 velocity=38 time=0\n",
      "note_off channel=0 note=76 velocity=64 time=0\n",
      "note_on channel=0 note=77 velocity=44 time=0\n",
      "note_on channel=0 note=61 velocity=43 time=1\n",
      "note_off channel=0 note=75 velocity=64 time=0\n",
      "note_on channel=0 note=91 velocity=31 time=0\n",
      "note_on channel=0 note=75 velocity=35 time=1\n",
      "note_off channel=0 note=84 velocity=64 time=0\n",
      "note_off channel=0 note=88 velocity=64 time=0\n",
      "note_on channel=0 note=56 velocity=56 time=1\n",
      "note_off channel=0 note=56 velocity=64 time=3\n",
      "note_on channel=0 note=56 velocity=54 time=1\n",
      "note_off channel=0 note=85 velocity=64 time=1\n",
      "note_off channel=0 note=43 velocity=64 time=1\n",
      "note_off channel=0 note=65 velocity=64 time=1\n",
      "note_off channel=0 note=73 velocity=64 time=0\n",
      "note_on channel=0 note=84 velocity=13 time=1\n",
      "note_off channel=0 note=71 velocity=64 time=1\n",
      "note_on channel=0 note=71 velocity=14 time=1\n",
      "note_on channel=0 note=85 velocity=17 time=0\n",
      "note_off channel=0 note=91 velocity=64 time=1\n",
      "note_off channel=0 note=61 velocity=64 time=1\n",
      "note_on channel=0 note=91 velocity=27 time=0\n",
      "note_off channel=0 note=84 velocity=64 time=1\n",
      "note_on channel=0 note=82 velocity=66 time=1\n",
      "note_off channel=0 note=83 velocity=64 time=0\n",
      "note_off channel=0 note=91 velocity=64 time=2\n",
      "note_on channel=0 note=84 velocity=33 time=1\n",
      "note_on channel=0 note=91 velocity=15 time=0\n",
      "note_on channel=0 note=62 velocity=82 time=3\n",
      "note_off channel=0 note=71 velocity=64 time=0\n",
      "note_on channel=0 note=72 velocity=47 time=0\n",
      "note_on channel=0 note=88 velocity=32 time=0\n",
      "note_off channel=0 note=56 velocity=64 time=1\n",
      "note_off channel=0 note=75 velocity=64 time=0\n",
      "note_off channel=0 note=84 velocity=64 time=0\n",
      "note_off channel=0 note=91 velocity=64 time=0\n",
      "note_on channel=0 note=53 velocity=43 time=1\n",
      "note_off channel=0 note=62 velocity=64 time=0\n",
      "note_on channel=0 note=63 velocity=94 time=0\n",
      "note_off channel=0 note=88 velocity=64 time=0\n",
      "note_on channel=0 note=70 velocity=34 time=1\n",
      "note_on channel=0 note=83 velocity=38 time=0\n",
      "note_on channel=0 note=88 velocity=35 time=0\n",
      "note_off channel=0 note=53 velocity=64 time=1\n",
      "note_on channel=0 note=56 velocity=44 time=0\n",
      "note_off channel=0 note=72 velocity=64 time=0\n",
      "note_on channel=0 note=73 velocity=21 time=0\n",
      "note_on channel=0 note=84 velocity=23 time=0\n",
      "note_off channel=0 note=89 velocity=64 time=0\n",
      "note_off channel=0 note=82 velocity=64 time=1\n",
      "note_off channel=0 note=87 velocity=64 time=0\n",
      "note_off channel=0 note=88 velocity=64 time=0\n",
      "note_off channel=0 note=70 velocity=64 time=1\n",
      "note_on channel=0 note=71 velocity=27 time=0\n",
      "note_on channel=0 note=88 velocity=33 time=0\n",
      "note_on channel=0 note=91 velocity=20 time=0\n",
      "note_off channel=0 note=73 velocity=64 time=9\n",
      "note_off channel=0 note=95 velocity=64 time=2\n",
      "note_off channel=0 note=91 velocity=64 time=1\n",
      "note_off channel=0 note=80 velocity=64 time=1\n",
      "note_on channel=0 note=91 velocity=26 time=0\n",
      "note_off channel=0 note=90 velocity=64 time=3\n",
      "note_off channel=0 note=91 velocity=64 time=1\n",
      "note_off channel=0 note=88 velocity=64 time=2\n",
      "note_on channel=0 note=90 velocity=45 time=0\n",
      "note_on channel=0 note=82 velocity=29 time=2\n",
      "note_off channel=0 note=83 velocity=64 time=1\n",
      "note_off channel=0 note=56 velocity=64 time=1\n",
      "note_on channel=0 note=57 velocity=64 time=0\n",
      "note_off channel=0 note=82 velocity=64 time=0\n",
      "note_on channel=0 note=83 velocity=54 time=0\n",
      "note_off channel=0 note=71 velocity=64 time=1\n",
      "note_on channel=0 note=78 velocity=36 time=0\n",
      "note_on channel=0 note=81 velocity=46 time=0\n",
      "note_off channel=0 note=84 velocity=64 time=0\n",
      "note_off channel=0 note=85 velocity=64 time=0\n",
      "note_on channel=0 note=89 velocity=46 time=0\n",
      "note_on channel=0 note=62 velocity=79 time=1\n",
      "note_off channel=0 note=63 velocity=64 time=0\n",
      "note_on channel=0 note=76 velocity=42 time=0\n",
      "note_on channel=0 note=82 velocity=65 time=0\n",
      "note_off channel=0 note=83 velocity=64 time=0\n",
      "note_on channel=0 note=85 velocity=39 time=0\n",
      "note_off channel=0 note=90 velocity=64 time=0\n",
      "note_on channel=0 note=91 velocity=23 time=0\n",
      "note_on channel=0 note=72 velocity=35 time=1\n",
      "note_off channel=0 note=82 velocity=64 time=0\n",
      "note_off channel=0 note=62 velocity=64 time=1\n",
      "note_on channel=0 note=63 velocity=85 time=0\n",
      "note_off channel=0 note=68 velocity=64 time=0\n",
      "note_off channel=0 note=77 velocity=64 time=0\n",
      "note_off channel=0 note=78 velocity=64 time=0\n",
      "note_on channel=0 note=82 velocity=37 time=0\n",
      "note_off channel=0 note=57 velocity=64 time=1\n",
      "note_off channel=0 note=72 velocity=64 time=0\n",
      "note_on channel=0 note=90 velocity=36 time=0\n",
      "note_off channel=0 note=91 velocity=64 time=0\n",
      "note_on channel=0 note=57 velocity=56 time=1\n",
      "note_on channel=0 note=73 velocity=18 time=0\n",
      "note_off channel=0 note=76 velocity=64 time=0\n",
      "note_on channel=0 note=77 velocity=33 time=0\n",
      "note_on channel=0 note=83 velocity=49 time=0\n",
      "note_off channel=0 note=89 velocity=64 time=0\n",
      "note_on channel=0 note=71 velocity=12 time=1\n",
      "note_off channel=0 note=82 velocity=64 time=0\n",
      "note_on channel=0 note=87 velocity=38 time=1\n",
      "note_off channel=0 note=81 velocity=64 time=1\n",
      "note_on channel=0 note=50 velocity=12 time=1\n",
      "note_off channel=0 note=71 velocity=64 time=0\n",
      "note_on channel=0 note=76 velocity=36 time=1\n",
      "note_on channel=0 note=80 velocity=36 time=1\n",
      "note_off channel=0 note=50 velocity=64 time=1\n",
      "note_on channel=0 note=89 velocity=76 time=0\n",
      "note_on channel=0 note=91 velocity=30 time=0\n",
      "note_off channel=0 note=77 velocity=64 time=1\n",
      "note_off channel=0 note=90 velocity=64 time=0\n",
      "note_on channel=0 note=90 velocity=34 time=2\n",
      "note_off channel=0 note=91 velocity=64 time=0\n",
      "note_off channel=0 note=80 velocity=64 time=1\n",
      "note_off channel=0 note=73 velocity=64 time=1\n",
      "note_on channel=0 note=80 velocity=88 time=0\n",
      "note_off channel=0 note=93 velocity=64 time=0\n",
      "note_on channel=0 note=50 velocity=25 time=2\n",
      "note_on channel=0 note=56 velocity=53 time=0\n",
      "note_off channel=0 note=57 velocity=64 time=0\n",
      "note_on channel=0 note=68 velocity=58 time=0\n",
      "note_on channel=0 note=31 velocity=23 time=1\n",
      "note_on channel=0 note=77 velocity=22 time=1\n",
      "note_off channel=0 note=50 velocity=64 time=1\n",
      "note_off channel=0 note=76 velocity=64 time=0\n",
      "note_on channel=0 note=91 velocity=19 time=0\n",
      "note_on channel=0 note=93 velocity=13 time=0\n",
      "note_off channel=0 note=31 velocity=64 time=1\n",
      "note_on channel=0 note=55 velocity=52 time=0\n",
      "note_off channel=0 note=56 velocity=64 time=0\n",
      "note_off channel=0 note=90 velocity=64 time=0\n",
      "note_on channel=0 note=74 velocity=29 time=1\n",
      "note_on channel=0 note=67 velocity=52 time=1\n",
      "note_off channel=0 note=68 velocity=64 time=0\n",
      "note_off channel=0 note=55 velocity=64 time=1\n",
      "note_on channel=0 note=56 velocity=58 time=0\n",
      "note_off channel=0 note=93 velocity=64 time=0\n",
      "note_off channel=0 note=74 velocity=64 time=1\n",
      "note_off channel=0 note=67 velocity=64 time=1\n",
      "note_on channel=0 note=71 velocity=56 time=1\n",
      "note_off channel=0 note=77 velocity=64 time=0\n",
      "note_on channel=0 note=49 velocity=27 time=1\n",
      "note_off channel=0 note=85 velocity=64 time=0\n",
      "note_off channel=0 note=87 velocity=64 time=0\n",
      "note_on channel=0 note=73 velocity=42 time=1\n",
      "note_on channel=0 note=77 velocity=44 time=0\n",
      "note_off channel=0 note=49 velocity=64 time=2\n",
      "note_on channel=0 note=55 velocity=58 time=1\n",
      "note_off channel=0 note=56 velocity=64 time=0\n",
      "note_off channel=0 note=91 velocity=64 time=0\n",
      "note_on channel=0 note=91 velocity=12 time=1\n",
      "note_off channel=0 note=63 velocity=64 time=1\n",
      "note_on channel=0 note=61 velocity=79 time=1\n",
      "note_on channel=0 note=65 velocity=30 time=1\n",
      "note_on channel=0 note=47 velocity=25 time=1\n",
      "note_off channel=0 note=65 velocity=64 time=1\n",
      "note_on channel=0 note=54 velocity=46 time=1\n",
      "note_off channel=0 note=55 velocity=64 time=0\n",
      "note_on channel=0 note=65 velocity=29 time=0\n",
      "note_off channel=0 note=89 velocity=64 time=0\n",
      "note_off channel=0 note=91 velocity=64 time=0\n",
      "note_off channel=0 note=47 velocity=64 time=1\n",
      "note_off channel=0 note=65 velocity=64 time=1\n",
      "note_on channel=0 note=68 velocity=64 time=0\n",
      "note_on channel=0 note=93 velocity=11 time=0\n",
      "note_off channel=0 note=54 velocity=64 time=1\n",
      "note_on channel=0 note=55 velocity=56 time=0\n",
      "note_on channel=0 note=32 velocity=26 time=2\n",
      "note_on channel=0 note=87 velocity=25 time=1\n",
      "note_off channel=0 note=55 velocity=64 time=1\n",
      "note_on channel=0 note=56 velocity=53 time=0\n",
      "note_on channel=0 note=65 velocity=51 time=0\n",
      "note_on channel=0 note=75 velocity=23 time=0\n",
      "note_on channel=0 note=31 velocity=28 time=1\n",
      "note_off channel=0 note=32 velocity=64 time=0\n",
      "note_on channel=0 note=89 velocity=44 time=0\n",
      "note_on channel=0 note=100 velocity=16 time=0\n",
      "note_on channel=0 note=55 velocity=56 time=1\n",
      "note_off channel=0 note=56 velocity=64 time=0\n",
      "note_off channel=0 note=75 velocity=64 time=1\n",
      "note_off channel=0 note=55 velocity=64 time=1\n",
      "note_on channel=0 note=56 velocity=57 time=0\n",
      "note_off channel=0 note=68 velocity=64 time=0\n",
      "note_on channel=0 note=68 velocity=67 time=1\n",
      "note_on channel=0 note=75 velocity=16 time=0\n",
      "note_off channel=0 note=31 velocity=64 time=1\n",
      "note_off channel=0 note=75 velocity=64 time=2\n",
      "note_off channel=0 note=56 velocity=64 time=2\n",
      "note_off channel=0 note=65 velocity=64 time=1\n",
      "note_off channel=0 note=68 velocity=64 time=0\n",
      "note_on channel=0 note=79 velocity=45 time=0\n",
      "note_on channel=0 note=57 velocity=67 time=1\n",
      "note_on channel=0 note=68 velocity=68 time=0\n",
      "note_on channel=0 note=75 velocity=34 time=0\n",
      "note_off channel=0 note=80 velocity=64 time=0\n",
      "note_on channel=0 note=90 velocity=31 time=0\n",
      "note_off channel=0 note=93 velocity=64 time=0\n",
      "note_on channel=0 note=63 velocity=66 time=1\n",
      "note_off channel=0 note=73 velocity=64 time=0\n",
      "note_on channel=0 note=80 velocity=86 time=0\n",
      "note_on channel=0 note=55 velocity=70 time=1\n",
      "note_off channel=0 note=57 velocity=64 time=0\n",
      "note_off channel=0 note=63 velocity=64 time=0\n",
      "note_off channel=0 note=79 velocity=64 time=0\n",
      "note_off channel=0 note=90 velocity=64 time=0\n",
      "note_on channel=0 note=93 velocity=11 time=0\n",
      "note_on channel=0 note=31 velocity=28 time=1\n",
      "note_off channel=0 note=61 velocity=64 time=0\n",
      "note_off channel=0 note=55 velocity=64 time=1\n",
      "note_on channel=0 note=56 velocity=58 time=0\n",
      "note_on channel=0 note=65 velocity=35 time=0\n",
      "note_off channel=0 note=83 velocity=64 time=0\n",
      "note_off channel=0 note=87 velocity=64 time=0\n",
      "note_off channel=0 note=56 velocity=64 time=2\n",
      "note_on channel=0 note=61 velocity=27 time=0\n",
      "note_on channel=0 note=83 velocity=66 time=0\n",
      "note_off channel=0 note=89 velocity=64 time=0\n",
      "note_on channel=0 note=56 velocity=54 time=1\n",
      "note_off channel=0 note=100 velocity=64 time=0\n",
      "note_off channel=0 note=31 velocity=64 time=1\n",
      "note_on channel=0 note=91 velocity=24 time=0\n",
      "note_on channel=0 note=31 velocity=26 time=1\n",
      "note_off channel=0 note=31 velocity=64 time=3\n",
      "note_on channel=0 note=32 velocity=26 time=0\n",
      "note_on channel=0 note=55 velocity=51 time=1\n",
      "note_off channel=0 note=56 velocity=64 time=0\n",
      "note_off channel=0 note=61 velocity=64 time=0\n",
      "note_off channel=0 note=65 velocity=64 time=0\n",
      "note_on channel=0 note=73 velocity=46 time=0\n",
      "note_off channel=0 note=77 velocity=64 time=0\n",
      "note_on channel=0 note=90 velocity=30 time=0\n",
      "note_off channel=0 note=93 velocity=64 time=0\n",
      "note_on channel=0 note=74 velocity=46 time=1\n",
      "note_off channel=0 note=75 velocity=64 time=0\n",
      "note_on channel=0 note=88 velocity=19 time=0\n",
      "note_on channel=0 note=31 velocity=30 time=1\n",
      "note_off channel=0 note=32 velocity=64 time=0\n",
      "note_on channel=0 note=49 velocity=32 time=0\n",
      "note_off channel=0 note=55 velocity=64 time=0\n",
      "note_on channel=0 note=64 velocity=39 time=0\n",
      "note_on channel=0 note=82 velocity=65 time=0\n",
      "note_off channel=0 note=83 velocity=64 time=0\n",
      "note_off channel=0 note=74 velocity=64 time=1\n",
      "note_off channel=0 note=82 velocity=64 time=0\n",
      "note_off channel=0 note=31 velocity=64 time=1\n",
      "note_off channel=0 note=49 velocity=64 time=0\n",
      "note_on channel=0 note=55 velocity=61 time=0\n",
      "note_off channel=0 note=64 velocity=64 time=0\n",
      "note_off channel=0 note=68 velocity=64 time=0\n",
      "note_on channel=0 note=75 velocity=32 time=0\n",
      "note_on channel=0 note=77 velocity=45 time=0\n",
      "note_off channel=0 note=88 velocity=64 time=0\n",
      "note_off channel=0 note=90 velocity=64 time=0\n",
      "note_on channel=0 note=30 velocity=29 time=1\n",
      "note_on channel=0 note=61 velocity=11 time=1\n",
      "note_off channel=0 note=73 velocity=64 time=0\n",
      "note_on channel=0 note=100 velocity=13 time=0\n",
      "note_on channel=0 note=44 velocity=18 time=1\n",
      "note_on channel=0 note=66 velocity=49 time=0\n",
      "note_on channel=0 note=79 velocity=10 time=0\n",
      "note_off channel=0 note=30 velocity=64 time=2\n",
      "note_on channel=0 note=54 velocity=54 time=0\n",
      "note_off channel=0 note=55 velocity=64 time=0\n",
      "note_on channel=0 note=73 velocity=33 time=0\n",
      "note_off channel=0 note=44 velocity=64 time=1\n",
      "note_off channel=0 note=79 velocity=64 time=0\n",
      "note_off channel=0 note=66 velocity=64 time=1\n",
      "note_off channel=0 note=100 velocity=64 time=1\n",
      "note_off channel=0 note=54 velocity=64 time=1\n",
      "note_off channel=0 note=61 velocity=64 time=0\n",
      "note_on channel=0 note=65 velocity=65 time=0\n",
      "note_on channel=0 note=68 velocity=54 time=0\n",
      "note_off channel=0 note=73 velocity=64 time=0\n",
      "note_on channel=0 note=57 velocity=44 time=2\n",
      "note_off channel=0 note=71 velocity=64 time=0\n",
      "note_on channel=0 note=73 velocity=46 time=0\n",
      "note_on channel=0 note=90 velocity=37 time=0\n",
      "note_on channel=0 note=46 velocity=69 time=1\n",
      "note_on channel=0 note=52 velocity=59 time=0\n",
      "note_on channel=0 note=64 velocity=79 time=0\n",
      "note_off channel=0 note=65 velocity=64 time=0\n",
      "note_off channel=0 note=68 velocity=64 time=0\n",
      "note_on channel=0 note=84 velocity=16 time=0\n",
      "note_on channel=0 note=45 velocity=77 time=1\n",
      "note_off channel=0 note=46 velocity=64 time=0\n",
      "note_on channel=0 note=63 velocity=75 time=0\n",
      "note_off channel=0 note=64 velocity=64 time=0\n",
      "note_on channel=0 note=68 velocity=55 time=0\n",
      "note_on channel=0 note=44 velocity=79 time=1\n",
      "note_off channel=0 note=45 velocity=64 time=0\n",
      "note_off channel=0 note=57 velocity=64 time=0\n",
      "note_on channel=0 note=71 velocity=44 time=0\n",
      "note_off channel=0 note=68 velocity=64 time=1\n",
      "note_off channel=0 note=84 velocity=64 time=0\n",
      "note_on channel=0 note=100 velocity=10 time=0\n",
      "note_on channel=0 note=65 velocity=49 time=1\n",
      "note_on channel=0 note=68 velocity=36 time=0\n",
      "note_off channel=0 note=90 velocity=64 time=0\n",
      "note_off channel=0 note=63 velocity=64 time=1\n",
      "note_off channel=0 note=44 velocity=64 time=1\n",
      "note_on channel=0 note=51 velocity=67 time=0\n",
      "note_off channel=0 note=52 velocity=64 time=0\n",
      "note_off channel=0 note=65 velocity=64 time=0\n",
      "note_off channel=0 note=51 velocity=64 time=1\n",
      "note_off channel=0 note=75 velocity=64 time=0\n",
      "note_off channel=0 note=100 velocity=64 time=0\n",
      "note_on channel=0 note=43 velocity=63 time=2\n",
      "note_on channel=0 note=51 velocity=55 time=0\n",
      "note_off channel=0 note=68 velocity=64 time=0\n",
      "note_on channel=0 note=61 velocity=60 time=1\n",
      "note_on channel=0 note=68 velocity=23 time=0\n",
      "note_on channel=0 note=42 velocity=57 time=1\n",
      "note_off channel=0 note=43 velocity=64 time=0\n",
      "note_off channel=0 note=51 velocity=64 time=0\n",
      "note_on channel=0 note=52 velocity=40 time=0\n",
      "note_on channel=0 note=75 velocity=19 time=0\n",
      "note_off channel=0 note=42 velocity=64 time=2\n",
      "note_on channel=0 note=51 velocity=57 time=0\n",
      "note_off channel=0 note=52 velocity=64 time=0\n",
      "note_on channel=0 note=65 velocity=44 time=0\n",
      "note_off channel=0 note=77 velocity=64 time=0\n",
      "note_off channel=0 note=73 velocity=64 time=1\n",
      "note_off channel=0 note=51 velocity=64 time=1\n",
      "note_off channel=0 note=68 velocity=64 time=0\n",
      "note_on channel=0 note=47 velocity=75 time=1\n",
      "note_off channel=0 note=65 velocity=64 time=1\n",
      "note_off channel=0 note=75 velocity=64 time=0\n",
      "note_on channel=0 note=76 velocity=19 time=0\n",
      "note_on channel=0 note=87 velocity=46 time=0\n",
      "note_off channel=0 note=47 velocity=64 time=1\n",
      "note_on channel=0 note=48 velocity=71 time=0\n",
      "note_on channel=0 note=88 velocity=38 time=0\n",
      "note_on channel=0 note=47 velocity=72 time=1\n",
      "note_off channel=0 note=48 velocity=64 time=0\n",
      "note_on channel=0 note=65 velocity=45 time=0\n",
      "note_off channel=0 note=47 velocity=64 time=1\n",
      "note_on channel=0 note=50 velocity=74 time=0\n",
      "note_on channel=0 note=68 velocity=47 time=0\n",
      "note_on channel=0 note=78 velocity=20 time=0\n",
      "note_on channel=0 note=31 velocity=29 time=1\n",
      "note_off channel=0 note=50 velocity=64 time=0\n",
      "note_on channel=0 note=54 velocity=65 time=0\n",
      "note_off channel=0 note=61 velocity=64 time=0\n",
      "note_on channel=0 note=75 velocity=20 time=0\n",
      "note_on channel=0 note=84 velocity=23 time=0\n",
      "note_on channel=0 note=93 velocity=9 time=0\n",
      "note_off channel=0 note=65 velocity=64 time=1\n",
      "note_off channel=0 note=76 velocity=64 time=0\n",
      "note_off channel=0 note=31 velocity=64 time=1\n",
      "note_on channel=0 note=53 velocity=68 time=1\n",
      "note_off channel=0 note=54 velocity=64 time=0\n",
      "note_on channel=0 note=64 velocity=41 time=0\n",
      "note_on channel=0 note=52 velocity=54 time=1\n",
      "note_off channel=0 note=53 velocity=64 time=0\n",
      "note_on channel=0 note=86 velocity=24 time=0\n",
      "note_off channel=0 note=93 velocity=64 time=0\n",
      "note_off channel=0 note=64 velocity=64 time=1\n",
      "note_off channel=0 note=75 velocity=64 time=0\n",
      "note_on channel=0 note=76 velocity=30 time=0\n",
      "note_off channel=0 note=52 velocity=64 time=1\n",
      "note_on channel=0 note=53 velocity=58 time=1\n",
      "note_on channel=0 note=64 velocity=84 time=0\n",
      "note_on channel=0 note=82 velocity=31 time=0\n",
      "note_on channel=0 note=90 velocity=38 time=0\n",
      "note_on channel=0 note=45 velocity=76 time=1\n",
      "note_off channel=0 note=68 velocity=64 time=0\n",
      "note_on channel=0 note=73 velocity=46 time=0\n",
      "note_off channel=0 note=76 velocity=64 time=0\n",
      "note_on channel=0 note=77 velocity=41 time=0\n",
      "note_off channel=0 note=78 velocity=64 time=0\n",
      "note_off channel=0 note=53 velocity=64 time=1\n",
      "note_off channel=0 note=71 velocity=64 time=0\n",
      "note_off channel=0 note=88 velocity=64 time=0\n",
      "note_on channel=0 note=44 velocity=78 time=1\n",
      "note_off channel=0 note=45 velocity=64 time=0\n",
      "note_on channel=0 note=63 velocity=77 time=0\n",
      "note_off channel=0 note=64 velocity=64 time=0\n",
      "note_on channel=0 note=68 velocity=47 time=0\n",
      "note_on channel=0 note=88 velocity=25 time=0\n",
      "note_on channel=0 note=52 velocity=60 time=1\n",
      "note_on channel=0 note=76 velocity=25 time=0\n",
      "note_off channel=0 note=77 velocity=64 time=0\n",
      "note_on channel=0 note=78 velocity=23 time=0\n",
      "note_off channel=0 note=68 velocity=64 time=1\n",
      "note_on channel=0 note=71 velocity=29 time=0\n",
      "note_off channel=0 note=86 velocity=64 time=0\n",
      "note_off channel=0 note=52 velocity=64 time=1\n",
      "note_off channel=0 note=63 velocity=64 time=0\n",
      "note_on channel=0 note=68 velocity=37 time=0\n",
      "note_on channel=0 note=86 velocity=24 time=0\n",
      "note_on channel=0 note=75 velocity=18 time=1\n",
      "note_off channel=0 note=76 velocity=64 time=0\n",
      "note_off channel=0 note=44 velocity=64 time=1\n",
      "note_on channel=0 note=64 velocity=51 time=0\n",
      "note_off channel=0 note=90 velocity=64 time=0\n",
      "note_on channel=0 note=61 velocity=73 time=1\n",
      "note_on channel=0 note=89 velocity=23 time=0\n",
      "note_off channel=0 note=64 velocity=64 time=1\n",
      "note_off channel=0 note=71 velocity=64 time=0\n",
      "note_off channel=0 note=75 velocity=64 time=0\n",
      "note_on channel=0 note=76 velocity=17 time=0\n",
      "note_off channel=0 note=88 velocity=64 time=0\n",
      "note_on channel=0 note=43 velocity=60 time=1\n",
      "note_on channel=0 note=52 velocity=59 time=0\n",
      "note_on channel=0 note=71 velocity=27 time=0\n",
      "note_on channel=0 note=83 velocity=40 time=0\n",
      "note_on channel=0 note=65 velocity=71 time=1\n",
      "note_off channel=0 note=82 velocity=64 time=0\n",
      "note_off channel=0 note=89 velocity=64 time=0\n",
      "note_on channel=0 note=42 velocity=58 time=2\n",
      "note_off channel=0 note=43 velocity=64 time=0\n",
      "note_off channel=0 note=76 velocity=64 time=2\n",
      "note_on channel=0 note=89 velocity=69 time=1\n",
      "note_off channel=0 note=86 velocity=64 time=3\n",
      "note_off channel=0 note=52 velocity=64 time=1\n",
      "note_on channel=0 note=52 velocity=29 time=1\n",
      "note_off channel=0 note=68 velocity=64 time=0\n",
      "note_on channel=0 note=70 velocity=12 time=0\n",
      "note_off channel=0 note=71 velocity=64 time=0\n",
      "note_off channel=0 note=78 velocity=64 time=0\n",
      "note_off channel=0 note=91 velocity=64 time=0\n",
      "note_off channel=0 note=52 velocity=64 time=2\n",
      "note_on channel=0 note=86 velocity=11 time=0\n",
      "note_off channel=0 note=42 velocity=64 time=1\n",
      "note_off channel=0 note=70 velocity=64 time=0\n",
      "note_on channel=0 note=82 velocity=53 time=0\n",
      "note_off channel=0 note=83 velocity=64 time=0\n",
      "note_on channel=0 note=90 velocity=25 time=0\n",
      "note_on channel=0 note=42 velocity=49 time=1\n",
      "note_on channel=0 note=75 velocity=43 time=1\n",
      "note_off channel=0 note=42 velocity=64 time=1\n",
      "note_on channel=0 note=46 velocity=64 time=1\n",
      "note_on channel=0 note=91 velocity=25 time=0\n",
      "note_on channel=0 note=95 velocity=36 time=0\n",
      "note_off channel=0 note=84 velocity=64 time=1\n",
      "note_off channel=0 note=86 velocity=64 time=0\n",
      "note_off channel=0 note=46 velocity=64 time=1\n",
      "note_on channel=0 note=48 velocity=86 time=0\n",
      "note_off channel=0 note=73 velocity=64 time=0\n",
      "note_on channel=0 note=88 velocity=33 time=0\n",
      "note_off channel=0 note=75 velocity=64 time=1\n",
      "note_on channel=0 note=84 velocity=25 time=0\n",
      "note_off channel=0 note=90 velocity=64 time=0\n",
      "note_off channel=0 note=61 velocity=64 time=1\n",
      "note_on channel=0 note=73 velocity=23 time=0\n",
      "note_on channel=0 note=75 velocity=37 time=0\n",
      "note_off channel=0 note=48 velocity=64 time=1\n",
      "note_on channel=0 note=62 velocity=35 time=0\n",
      "note_off channel=0 note=91 velocity=64 time=1\n",
      "note_off channel=0 note=88 velocity=64 time=1\n",
      "note_on channel=0 note=91 velocity=25 time=0\n",
      "note_off channel=0 note=95 velocity=64 time=0\n",
      "note_on channel=0 note=61 velocity=58 time=1\n",
      "note_off channel=0 note=62 velocity=64 time=0\n",
      "note_on channel=0 note=68 velocity=15 time=0\n",
      "note_on channel=0 note=88 velocity=34 time=0\n",
      "note_on channel=0 note=90 velocity=23 time=0\n",
      "note_on channel=0 note=71 velocity=15 time=1\n",
      "note_off channel=0 note=89 velocity=64 time=0\n",
      "note_off channel=0 note=91 velocity=64 time=2\n",
      "note_on channel=0 note=54 velocity=37 time=1\n",
      "note_on channel=0 note=44 velocity=40 time=1\n",
      "note_on channel=0 note=78 velocity=29 time=1\n",
      "note_on channel=0 note=91 velocity=26 time=0\n",
      "note_off channel=0 note=44 velocity=64 time=1\n",
      "note_off channel=0 note=54 velocity=64 time=0\n",
      "note_on channel=0 note=54 velocity=31 time=1\n",
      "note_on channel=0 note=86 velocity=19 time=0\n",
      "note_off channel=0 note=78 velocity=64 time=2\n",
      "note_off channel=0 note=54 velocity=64 time=1\n",
      "note_on channel=0 note=78 velocity=23 time=0\n",
      "note_off channel=0 note=86 velocity=64 time=0\n",
      "note_on channel=0 note=93 velocity=14 time=0\n",
      "note_on channel=0 note=95 velocity=52 time=0\n",
      "note_on channel=0 note=54 velocity=31 time=1\n",
      "note_off channel=0 note=68 velocity=64 time=0\n",
      "note_off channel=0 note=88 velocity=64 time=0\n",
      "note_on channel=0 note=89 velocity=66 time=0\n",
      "note_on channel=0 note=42 velocity=24 time=1\n",
      "note_off channel=0 note=71 velocity=64 time=0\n",
      "note_off channel=0 note=84 velocity=64 time=0\n",
      "note_on channel=0 note=53 velocity=29 time=1\n",
      "note_off channel=0 note=54 velocity=64 time=0\n",
      "note_off channel=0 note=78 velocity=64 time=1\n",
      "note_off channel=0 note=42 velocity=64 time=1\n",
      "note_off channel=0 note=53 velocity=64 time=0\n",
      "note_on channel=0 note=54 velocity=26 time=0\n",
      "note_on channel=0 note=86 velocity=20 time=2\n",
      "note_off channel=0 note=91 velocity=64 time=0\n",
      "note_off channel=0 note=54 velocity=64 time=1\n",
      "note_off channel=0 note=93 velocity=64 time=1\n",
      "note_off channel=0 note=65 velocity=64 time=1\n",
      "note_on channel=0 note=71 velocity=26 time=0\n",
      "note_off channel=0 note=86 velocity=64 time=0\n",
      "note_on channel=0 note=88 velocity=32 time=0\n",
      "note_on channel=0 note=91 velocity=11 time=0\n",
      "note_off channel=0 note=73 velocity=64 time=1\n",
      "note_on channel=0 note=83 velocity=34 time=0\n",
      "note_on channel=0 note=84 velocity=40 time=0\n",
      "note_on channel=0 note=93 velocity=18 time=0\n",
      "note_on channel=0 note=46 velocity=68 time=1\n",
      "note_on channel=0 note=57 velocity=40 time=0\n",
      "note_on channel=0 note=69 velocity=43 time=0\n",
      "note_off channel=0 note=75 velocity=64 time=0\n",
      "note_off channel=0 note=82 velocity=64 time=0\n",
      "note_off channel=0 note=90 velocity=64 time=0\n",
      "note_on channel=0 note=102 velocity=16 time=0\n",
      "note_on channel=0 note=45 velocity=77 time=1\n",
      "note_off channel=0 note=46 velocity=64 time=0\n",
      "note_off channel=0 note=61 velocity=64 time=0\n",
      "note_on channel=0 note=67 velocity=46 time=0\n",
      "note_off channel=0 note=71 velocity=64 time=0\n",
      "note_on channel=0 note=73 velocity=65 time=0\n",
      "note_on channel=0 note=75 velocity=43 time=0\n",
      "note_on channel=0 note=90 velocity=24 time=0\n",
      "note_off channel=0 note=91 velocity=64 time=0\n",
      "note_on channel=0 note=44 velocity=78 time=1\n",
      "note_off channel=0 note=45 velocity=64 time=0\n",
      "note_off channel=0 note=57 velocity=64 time=0\n",
      "note_on channel=0 note=63 velocity=41 time=0\n",
      "note_off channel=0 note=88 velocity=64 time=0\n",
      "note_on channel=0 note=91 velocity=21 time=0\n",
      "note_off channel=0 note=93 velocity=64 time=0\n",
      "note_off channel=0 note=102 velocity=64 time=1\n",
      "note_on channel=0 note=62 velocity=34 time=1\n",
      "note_off channel=0 note=90 velocity=64 time=0\n",
      "note_on channel=0 note=43 velocity=74 time=1\n",
      "note_off channel=0 note=44 velocity=64 time=0\n",
      "note_off channel=0 note=63 velocity=64 time=0\n",
      "note_off channel=0 note=69 velocity=64 time=0\n",
      "note_on channel=0 note=90 velocity=39 time=0\n",
      "note_on channel=0 note=71 velocity=28 time=1\n",
      "note_on channel=0 note=78 velocity=20 time=0\n",
      "note_off channel=0 note=83 velocity=64 time=0\n",
      "note_on channel=0 note=93 velocity=18 time=0\n",
      "note_on channel=0 note=66 velocity=15 time=1\n",
      "note_off channel=0 note=67 velocity=64 time=0\n",
      "note_on channel=0 note=82 velocity=44 time=0\n",
      "note_on channel=0 note=77 velocity=26 time=2\n",
      "note_on channel=0 note=65 velocity=21 time=1\n",
      "note_off channel=0 note=66 velocity=64 time=0\n",
      "note_off channel=0 note=78 velocity=64 time=0\n",
      "note_off channel=0 note=91 velocity=64 time=0\n",
      "note_off channel=0 note=62 velocity=64 time=1\n",
      "note_on channel=0 note=30 velocity=21 time=1\n",
      "note_off channel=0 note=43 velocity=64 time=1\n",
      "note_on channel=0 note=91 velocity=13 time=1\n",
      "note_off channel=0 note=30 velocity=64 time=1\n",
      "note_on channel=0 note=50 velocity=16 time=0\n",
      "note_on channel=0 note=86 velocity=21 time=1\n",
      "note_on channel=0 note=30 velocity=20 time=1\n",
      "note_off channel=0 note=50 velocity=64 time=1\n",
      "note_off channel=0 note=91 velocity=64 time=0\n",
      "note_on channel=0 note=78 velocity=21 time=1\n",
      "note_off channel=0 note=86 velocity=64 time=0\n",
      "note_on channel=0 note=88 velocity=17 time=0\n",
      "note_off channel=0 note=89 velocity=64 time=0\n",
      "note_on channel=0 note=91 velocity=19 time=0\n",
      "note_off channel=0 note=30 velocity=64 time=1\n",
      "note_off channel=0 note=77 velocity=64 time=0\n",
      "note_on channel=0 note=86 velocity=16 time=3\n",
      "note_off channel=0 note=75 velocity=64 time=1\n",
      "note_off channel=0 note=91 velocity=64 time=0\n",
      "note_off channel=0 note=65 velocity=64 time=1\n",
      "note_off channel=0 note=71 velocity=64 time=0\n",
      "note_on channel=0 note=91 velocity=25 time=0\n",
      "note_on channel=0 note=65 velocity=39 time=1\n",
      "note_on channel=0 note=68 velocity=39 time=0\n",
      "note_on channel=0 note=77 velocity=43 time=0\n",
      "note_off channel=0 note=78 velocity=64 time=0\n",
      "note_off channel=0 note=88 velocity=64 time=0\n",
      "note_on channel=0 note=64 velocity=82 time=2\n",
      "note_off channel=0 note=65 velocity=64 time=0\n",
      "note_on channel=0 note=57 velocity=45 time=1\n",
      "note_off channel=0 note=68 velocity=64 time=0\n",
      "note_on channel=0 note=71 velocity=32 time=0\n",
      "note_off channel=0 note=86 velocity=64 time=0\n",
      "note_off channel=0 note=91 velocity=64 time=0\n",
      "note_on channel=0 note=45 velocity=77 time=1\n",
      "note_on channel=0 note=68 velocity=62 time=0\n",
      "note_off channel=0 note=57 velocity=64 time=1\n",
      "note_on channel=0 note=63 velocity=76 time=0\n",
      "note_off channel=0 note=64 velocity=64 time=0\n",
      "note_off channel=0 note=93 velocity=64 time=0\n",
      "note_on channel=0 note=44 velocity=78 time=1\n",
      "note_off channel=0 note=45 velocity=64 time=0\n",
      "note_off channel=0 note=68 velocity=64 time=0\n",
      "note_off channel=0 note=71 velocity=64 time=0\n",
      "note_on channel=0 note=68 velocity=36 time=1\n",
      "note_off channel=0 note=63 velocity=64 time=1\n",
      "note_on channel=0 note=71 velocity=19 time=0\n",
      "note_on channel=0 note=61 velocity=33 time=1\n",
      "note_on channel=0 note=65 velocity=49 time=0\n",
      "note_off channel=0 note=44 velocity=64 time=1\n",
      "note_off channel=0 note=61 velocity=64 time=1\n",
      "note_off channel=0 note=71 velocity=64 time=0\n",
      "note_off channel=0 note=80 velocity=64 time=0\n",
      "note_off channel=0 note=90 velocity=64 time=0\n",
      "note_on channel=0 note=43 velocity=61 time=1\n",
      "note_on channel=0 note=61 velocity=57 time=0\n",
      "note_on channel=0 note=71 velocity=15 time=0\n",
      "note_off channel=0 note=71 velocity=64 time=3\n",
      "note_off channel=0 note=43 velocity=64 time=1\n",
      "note_on channel=0 note=71 velocity=30 time=1\n",
      "note_on channel=0 note=83 velocity=55 time=0\n",
      "note_on channel=0 note=88 velocity=41 time=0\n",
      "note_on channel=0 note=49 velocity=65 time=1\n",
      "note_on channel=0 note=75 velocity=13 time=0\n",
      "note_off channel=0 note=82 velocity=64 time=0\n",
      "note_on channel=0 note=48 velocity=69 time=1\n",
      "note_off channel=0 note=49 velocity=64 time=0\n",
      "note_on channel=0 note=91 velocity=50 time=0\n",
      "note_on channel=0 note=47 velocity=72 time=1\n",
      "note_off channel=0 note=48 velocity=64 time=0\n",
      "note_off channel=0 note=68 velocity=64 time=0\n",
      "note_on channel=0 note=93 velocity=46 time=0\n",
      "note_off channel=0 note=47 velocity=64 time=1\n",
      "note_on channel=0 note=48 velocity=68 time=0\n",
      "note_on channel=0 note=68 velocity=39 time=0\n",
      "note_off channel=0 note=48 velocity=64 time=1\n",
      "note_on channel=0 note=49 velocity=67 time=0\n",
      "note_on channel=0 note=90 velocity=42 time=0\n",
      "note_off channel=0 note=49 velocity=64 time=1\n",
      "note_on channel=0 note=50 velocity=77 time=0\n",
      "note_off channel=0 note=84 velocity=64 time=0\n",
      "note_off channel=0 note=50 velocity=64 time=1\n",
      "note_on channel=0 note=53 velocity=72 time=0\n",
      "note_off channel=0 note=68 velocity=64 time=0\n",
      "note_off channel=0 note=53 velocity=64 time=1\n",
      "note_on channel=0 note=54 velocity=56 time=0\n",
      "note_off channel=0 note=61 velocity=64 time=0\n",
      "note_on channel=0 note=61 velocity=69 time=1\n",
      "note_on channel=0 note=69 velocity=55 time=0\n",
      "note_off channel=0 note=71 velocity=64 time=0\n",
      "note_on channel=0 note=80 velocity=43 time=0\n",
      "note_on channel=0 note=49 velocity=64 time=1\n",
      "note_off channel=0 note=54 velocity=64 time=1\n",
      "note_off channel=0 note=65 velocity=64 time=0\n",
      "note_on channel=0 note=68 velocity=61 time=0\n",
      "note_off channel=0 note=69 velocity=64 time=0\n",
      "note_on channel=0 note=99 velocity=48 time=0\n",
      "note_on channel=0 note=100 velocity=56 time=0\n",
      "note_off channel=0 note=49 velocity=64 time=1\n",
      "note_on channel=0 note=50 velocity=71 time=0\n",
      "note_off channel=0 note=88 velocity=64 time=0\n",
      "note_on channel=0 note=89 velocity=49 time=0\n",
      "note_on channel=0 note=49 velocity=69 time=1\n",
      "note_off channel=0 note=50 velocity=64 time=0\n",
      "note_on channel=0 note=60 velocity=66 time=0\n",
      "note_off channel=0 note=61 velocity=64 time=0\n",
      "note_on channel=0 note=67 velocity=73 time=0\n",
      "note_off channel=0 note=68 velocity=64 time=0\n",
      "note_on channel=0 note=72 velocity=67 time=0\n",
      "note_off channel=0 note=73 velocity=64 time=0\n",
      "note_off channel=0 note=75 velocity=64 time=0\n",
      "note_on channel=0 note=76 velocity=30 time=0\n",
      "note_off channel=0 note=77 velocity=64 time=0\n",
      "note_on channel=0 note=48 velocity=65 time=1\n",
      "note_off channel=0 note=49 velocity=64 time=0\n",
      "note_on channel=0 note=92 velocity=47 time=0\n",
      "note_off channel=0 note=48 velocity=64 time=1\n",
      "note_on channel=0 note=64 velocity=81 time=0\n",
      "note_on channel=0 note=73 velocity=49 time=0\n",
      "note_off channel=0 note=76 velocity=64 time=0\n",
      "note_off channel=0 note=91 velocity=64 time=0\n",
      "note_on channel=0 note=101 velocity=49 time=0\n",
      "note_on channel=0 note=50 velocity=69 time=1\n",
      "note_off channel=0 note=60 velocity=64 time=0\n",
      "note_off channel=0 note=67 velocity=64 time=0\n",
      "note_on channel=0 note=77 velocity=41 time=0\n",
      "note_on channel=0 note=91 velocity=34 time=0\n",
      "note_on channel=0 note=45 velocity=75 time=1\n",
      "note_off channel=0 note=50 velocity=64 time=0\n",
      "note_off channel=0 note=80 velocity=64 time=0\n",
      "note_on channel=0 note=86 velocity=12 time=0\n",
      "note_on channel=0 note=43 velocity=73 time=1\n",
      "note_off channel=0 note=45 velocity=64 time=0\n",
      "note_on channel=0 note=63 velocity=69 time=0\n",
      "note_off channel=0 note=64 velocity=64 time=0\n",
      "note_off channel=0 note=72 velocity=64 time=0\n",
      "note_on channel=0 note=96 velocity=58 time=0\n",
      "note_off channel=0 note=43 velocity=64 time=1\n",
      "note_on channel=0 note=44 velocity=81 time=0\n",
      "note_on channel=0 note=67 velocity=74 time=0\n",
      "note_on channel=0 note=72 velocity=53 time=0\n",
      "note_on channel=0 note=97 velocity=59 time=0\n",
      "note_on channel=0 note=98 velocity=40 time=0\n",
      "note_off channel=0 note=44 velocity=64 time=1\n",
      "note_on channel=0 note=45 velocity=79 time=0\n",
      "note_on channel=0 note=60 velocity=64 time=0\n",
      "note_off channel=0 note=73 velocity=64 time=0\n",
      "note_on channel=0 note=80 velocity=82 time=0\n",
      "note_off channel=0 note=86 velocity=64 time=0\n",
      "note_off channel=0 note=90 velocity=64 time=0\n",
      "note_on channel=0 note=94 velocity=62 time=0\n",
      "note_on channel=0 note=90 velocity=25 time=1\n",
      "note_off channel=0 note=92 velocity=64 time=0\n",
      "note_on channel=0 note=102 velocity=45 time=0\n",
      "note_off channel=0 note=63 velocity=64 time=1\n",
      "note_on channel=0 note=44 velocity=71 time=1\n",
      "note_off channel=0 note=45 velocity=64 time=0\n",
      "note_off channel=0 note=60 velocity=64 time=0\n",
      "note_on channel=0 note=61 velocity=89 time=0\n",
      "note_off channel=0 note=67 velocity=64 time=0\n",
      "note_on channel=0 note=68 velocity=81 time=0\n",
      "note_on channel=0 note=71 velocity=23 time=0\n",
      "note_off channel=0 note=72 velocity=64 time=0\n",
      "note_off channel=0 note=91 velocity=64 time=0\n",
      "note_off channel=0 note=95 velocity=64 time=0\n",
      "note_on channel=0 note=43 velocity=66 time=1\n",
      "note_off channel=0 note=44 velocity=64 time=0\n",
      "note_on channel=0 note=91 velocity=14 time=0\n",
      "note_off channel=0 note=94 velocity=64 time=0\n",
      "note_on channel=0 note=95 velocity=73 time=0\n",
      "note_off channel=0 note=43 velocity=64 time=1\n",
      "note_on channel=0 note=44 velocity=66 time=0\n",
      "note_off channel=0 note=44 velocity=64 time=1\n",
      "note_on channel=0 note=49 velocity=80 time=0\n",
      "note_off channel=0 note=91 velocity=64 time=2\n",
      "note_on channel=0 note=91 velocity=24 time=1\n",
      "note_on channel=0 note=103 velocity=28 time=0\n",
      "note_on channel=0 note=48 velocity=81 time=1\n",
      "note_off channel=0 note=49 velocity=64 time=0\n",
      "note_off channel=0 note=48 velocity=64 time=1\n",
      "note_on channel=0 note=49 velocity=80 time=0\n",
      "note_off channel=0 note=93 velocity=64 time=0\n",
      "note_on channel=0 note=94 velocity=45 time=0\n",
      "note_on channel=0 note=48 velocity=75 time=1\n",
      "note_off channel=0 note=49 velocity=64 time=0\n",
      "note_off channel=0 note=71 velocity=64 time=0\n",
      "note_off channel=0 note=48 velocity=64 time=1\n",
      "note_on channel=0 note=71 velocity=34 time=0\n",
      "note_on channel=0 note=93 velocity=39 time=1\n",
      "note_off channel=0 note=94 velocity=64 time=0\n",
      "note_off channel=0 note=103 velocity=64 time=0\n",
      "note_on channel=0 note=52 velocity=69 time=1\n",
      "note_off channel=0 note=52 velocity=64 time=1\n",
      "note_on channel=0 note=53 velocity=74 time=0\n",
      "note_on channel=0 note=88 velocity=38 time=0\n",
      "note_off channel=0 note=89 velocity=64 time=1\n",
      "note_off channel=0 note=91 velocity=64 time=1\n",
      "note_on channel=0 note=48 velocity=62 time=1\n",
      "note_off channel=0 note=53 velocity=64 time=0\n",
      "note_off channel=0 note=48 velocity=64 time=2\n",
      "note_on channel=0 note=49 velocity=65 time=0\n",
      "note_on channel=0 note=91 velocity=30 time=0\n",
      "note_on channel=0 note=94 velocity=43 time=2\n",
      "note_off channel=0 note=49 velocity=64 time=1\n",
      "note_on channel=0 note=50 velocity=67 time=0\n",
      "note_off channel=0 note=61 velocity=64 time=0\n",
      "note_on channel=0 note=62 velocity=72 time=0\n",
      "note_on channel=0 note=76 velocity=40 time=0\n",
      "note_off channel=0 note=77 velocity=64 time=0\n",
      "note_on channel=0 note=84 velocity=34 time=0\n",
      "note_on channel=0 note=89 velocity=68 time=0\n",
      "note_off channel=0 note=90 velocity=64 time=0\n",
      "note_off channel=0 note=50 velocity=64 time=1\n",
      "note_on channel=0 note=51 velocity=78 time=0\n",
      "note_off channel=0 note=62 velocity=64 time=0\n",
      "note_off channel=0 note=68 velocity=64 time=0\n",
      "note_off channel=0 note=71 velocity=64 time=0\n",
      "note_off channel=0 note=94 velocity=64 time=0\n",
      "note_on channel=0 note=48 velocity=88 time=1\n",
      "note_off channel=0 note=51 velocity=64 time=0\n",
      "note_on channel=0 note=65 velocity=72 time=0\n",
      "note_off channel=0 note=83 velocity=64 time=0\n",
      "note_on channel=0 note=90 velocity=28 time=0\n",
      "note_on channel=0 note=63 velocity=60 time=1\n",
      "note_on channel=0 note=73 velocity=44 time=0\n",
      "note_off channel=0 note=76 velocity=64 time=0\n",
      "note_on channel=0 note=83 velocity=53 time=0\n",
      "note_off channel=0 note=88 velocity=64 time=0\n",
      "note_off channel=0 note=91 velocity=64 time=0\n",
      "note_off channel=0 note=48 velocity=64 time=1\n",
      "note_on channel=0 note=49 velocity=72 time=0\n",
      "note_off channel=0 note=65 velocity=64 time=0\n",
      "note_on channel=0 note=71 velocity=46 time=0\n",
      "note_off channel=0 note=93 velocity=64 time=0\n",
      "note_off channel=0 note=98 velocity=64 time=0\n",
      "note_off channel=0 note=49 velocity=64 time=1\n",
      "note_off channel=0 note=63 velocity=64 time=0\n",
      "note_off channel=0 note=90 velocity=64 time=0\n",
      "note_on channel=0 note=91 velocity=16 time=0\n",
      "note_off channel=0 note=102 velocity=64 time=0\n",
      "note_on channel=0 note=48 velocity=68 time=1\n",
      "note_on channel=0 note=61 velocity=33 time=0\n",
      "note_on channel=0 note=66 velocity=71 time=0\n",
      "note_on channel=0 note=54 velocity=62 time=1\n",
      "note_on channel=0 note=45 velocity=58 time=1\n",
      "note_off channel=0 note=48 velocity=64 time=0\n",
      "note_on channel=0 note=90 velocity=15 time=0\n",
      "note_on channel=0 note=93 velocity=13 time=1\n",
      "note_on channel=0 note=98 velocity=33 time=0\n",
      "note_on channel=0 note=53 velocity=66 time=1\n",
      "note_off channel=0 note=54 velocity=64 time=0\n",
      "note_off channel=0 note=84 velocity=64 time=0\n",
      "note_off channel=0 note=61 velocity=64 time=1\n",
      "note_off channel=0 note=71 velocity=64 time=0\n",
      "note_off channel=0 note=73 velocity=64 time=0\n",
      "note_on channel=0 note=102 velocity=34 time=0\n",
      "note_on channel=0 note=44 velocity=49 time=1\n",
      "note_off channel=0 note=45 velocity=64 time=0\n",
      "note_off channel=0 note=66 velocity=64 time=0\n",
      "note_on channel=0 note=71 velocity=61 time=0\n",
      "note_on channel=0 note=94 velocity=19 time=0\n",
      "note_off channel=0 note=96 velocity=64 time=0\n",
      "note_on channel=0 note=52 velocity=70 time=1\n",
      "note_off channel=0 note=53 velocity=64 time=0\n",
      "note_on channel=0 note=68 velocity=40 time=0\n",
      "note_on channel=0 note=73 velocity=37 time=0\n",
      "note_off channel=0 note=93 velocity=64 time=0\n",
      "note_off channel=0 note=91 velocity=64 time=1\n",
      "note_on channel=0 note=103 velocity=17 time=0\n",
      "note_off channel=0 note=71 velocity=64 time=1\n",
      "note_on channel=0 note=91 velocity=14 time=0\n",
      "note_on channel=0 note=93 velocity=17 time=0\n",
      "note_off channel=0 note=94 velocity=64 time=0\n",
      "note_on channel=0 note=96 velocity=60 time=0\n",
      "note_off channel=0 note=97 velocity=64 time=0\n",
      "note_on channel=0 note=43 velocity=32 time=1\n",
      "note_off channel=0 note=44 velocity=64 time=0\n",
      "note_on channel=0 note=71 velocity=60 time=0\n",
      "note_on channel=0 note=77 velocity=31 time=1\n",
      "note_off channel=0 note=73 velocity=64 time=1\n",
      "note_on channel=0 note=82 velocity=25 time=0\n",
      "note_off channel=0 note=90 velocity=64 time=0\n",
      "note_off channel=0 note=93 velocity=64 time=0\n",
      "note_on channel=0 note=97 velocity=47 time=0\n",
      "note_off channel=0 note=103 velocity=64 time=0\n",
      "note_on channel=0 note=42 velocity=29 time=1\n",
      "note_off channel=0 note=43 velocity=64 time=0\n",
      "note_on channel=0 note=66 velocity=59 time=0\n",
      "note_off channel=0 note=77 velocity=64 time=0\n",
      "note_off channel=0 note=83 velocity=64 time=0\n",
      "note_off channel=0 note=89 velocity=64 time=0\n",
      "note_off channel=0 note=91 velocity=64 time=0\n",
      "note_off channel=0 note=52 velocity=64 time=1\n",
      "note_on channel=0 note=53 velocity=70 time=0\n",
      "note_off channel=0 note=71 velocity=64 time=0\n",
      "note_on channel=0 note=77 velocity=29 time=0\n",
      "note_off channel=0 note=99 velocity=64 time=0\n",
      "note_off channel=0 note=42 velocity=64 time=1\n",
      "note_on channel=0 note=43 velocity=28 time=0\n",
      "note_on channel=0 note=61 velocity=21 time=0\n",
      "note_off channel=0 note=68 velocity=64 time=0\n",
      "note_on channel=0 note=71 velocity=38 time=0\n",
      "note_on channel=0 note=73 velocity=47 time=0\n",
      "note_on channel=0 note=75 velocity=31 time=0\n",
      "note_off channel=0 note=96 velocity=64 time=0\n",
      "note_off channel=0 note=102 velocity=64 time=0\n",
      "note_off channel=0 note=53 velocity=64 time=1\n",
      "note_on channel=0 note=55 velocity=57 time=0\n",
      "note_off channel=0 note=66 velocity=64 time=0\n",
      "note_on channel=0 note=67 velocity=64 time=0\n",
      "note_on channel=0 note=96 velocity=29 time=0\n",
      "note_off channel=0 note=95 velocity=64 time=1\n",
      "note_off channel=0 note=43 velocity=64 time=1\n",
      "note_off channel=0 note=55 velocity=64 time=0\n",
      "note_off channel=0 note=67 velocity=64 time=0\n",
      "note_on channel=0 note=68 velocity=58 time=0\n",
      "note_off channel=0 note=71 velocity=64 time=0\n",
      "note_off channel=0 note=73 velocity=64 time=0\n",
      "note_off channel=0 note=82 velocity=64 time=0\n",
      "note_off channel=0 note=97 velocity=64 time=0\n",
      "note_on channel=0 note=57 velocity=63 time=1\n",
      "note_on channel=0 note=65 velocity=34 time=0\n",
      "note_on channel=0 note=69 velocity=69 time=0\n",
      "note_off channel=0 note=80 velocity=64 time=0\n",
      "note_off channel=0 note=98 velocity=64 time=0\n",
      "note_off channel=0 note=101 velocity=64 time=0\n",
      "note_on channel=0 note=43 velocity=20 time=1\n",
      "note_off channel=0 note=61 velocity=64 time=0\n",
      "note_off channel=0 note=68 velocity=64 time=0\n",
      "note_on channel=0 note=76 velocity=30 time=0\n",
      "note_off channel=0 note=77 velocity=64 time=0\n",
      "note_off channel=0 note=96 velocity=64 time=0\n",
      "note_off channel=0 note=65 velocity=64 time=1\n",
      "note_on channel=0 note=89 velocity=69 time=0\n",
      "note_off channel=0 note=76 velocity=64 time=1\n",
      "note_on channel=0 note=77 velocity=42 time=0\n",
      "note_off channel=0 note=43 velocity=64 time=1\n",
      "note_on channel=0 note=71 velocity=41 time=0\n",
      "note_on channel=0 note=73 velocity=30 time=0\n",
      "note_on channel=0 note=80 velocity=80 time=0\n",
      "note_on channel=0 note=84 velocity=43 time=0\n",
      "note_on channel=0 note=95 velocity=43 time=0\n",
      "note_off channel=0 note=100 velocity=64 time=0\n",
      "note_on channel=0 note=56 velocity=67 time=1\n",
      "note_off channel=0 note=57 velocity=64 time=0\n",
      "note_on channel=0 note=68 velocity=74 time=0\n",
      "note_off channel=0 note=69 velocity=64 time=0\n",
      "note_off channel=0 note=75 velocity=64 time=0\n",
      "note_on channel=0 note=76 velocity=49 time=0\n",
      "note_on channel=0 note=90 velocity=34 time=0\n",
      "note_on channel=0 note=45 velocity=75 time=1\n",
      "note_off channel=0 note=71 velocity=64 time=0\n",
      "note_on channel=0 note=85 velocity=36 time=0\n",
      "note_on channel=0 note=91 velocity=23 time=0\n",
      "note_on channel=0 note=98 velocity=26 time=0\n",
      "note_on channel=0 note=55 velocity=70 time=1\n",
      "note_off channel=0 note=56 velocity=64 time=0\n",
      "note_off channel=0 note=68 velocity=64 time=0\n",
      "note_on channel=0 note=71 velocity=40 time=0\n",
      "note_on channel=0 note=75 velocity=34 time=0\n",
      "note_off channel=0 note=76 velocity=64 time=0\n",
      "note_on channel=0 note=44 velocity=77 time=1\n",
      "note_off channel=0 note=45 velocity=64 time=0\n",
      "note_off channel=0 note=90 velocity=64 time=0\n",
      "note_on channel=0 note=100 velocity=51 time=0\n",
      "note_on channel=0 note=63 velocity=32 time=1\n",
      "note_on channel=0 note=66 velocity=71 time=0\n",
      "note_off channel=0 note=73 velocity=64 time=0\n",
      "note_off channel=0 note=75 velocity=64 time=0\n",
      "note_off channel=0 note=95 velocity=64 time=0\n",
      "note_on channel=0 note=97 velocity=60 time=0\n",
      "note_off channel=0 note=98 velocity=64 time=0\n",
      "note_on channel=0 note=43 velocity=75 time=1\n",
      "note_off channel=0 note=44 velocity=64 time=0\n",
      "note_on channel=0 note=54 velocity=66 time=0\n",
      "note_off channel=0 note=55 velocity=64 time=0\n",
      "note_on channel=0 note=62 velocity=33 time=0\n",
      "note_on channel=0 note=73 velocity=52 time=0\n",
      "note_off channel=0 note=84 velocity=64 time=0\n",
      "note_on channel=0 note=102 velocity=27 time=0\n",
      "note_off channel=0 note=63 velocity=64 time=1\n",
      "note_on channel=0 note=75 velocity=26 time=0\n",
      "note_on channel=0 note=90 velocity=9 time=2\n",
      "note_on channel=0 note=98 velocity=34 time=0\n",
      "note_off channel=0 note=62 velocity=64 time=1\n",
      "note_off channel=0 note=87 velocity=64 time=1\n",
      "note_off channel=0 note=89 velocity=64 time=0\n",
      "note_off channel=0 note=91 velocity=64 time=1\n",
      "note_off channel=0 note=98 velocity=64 time=0\n",
      "note_on channel=0 note=99 velocity=33 time=0\n",
      "note_off channel=0 note=43 velocity=64 time=1\n",
      "note_on channel=0 note=44 velocity=31 time=0\n",
      "note_on channel=0 note=82 velocity=25 time=0\n",
      "note_off channel=0 note=44 velocity=64 time=3\n",
      "note_off channel=0 note=90 velocity=64 time=0\n",
      "note_off channel=0 note=54 velocity=64 time=1\n",
      "note_on channel=0 note=55 velocity=65 time=0\n",
      "note_off channel=0 note=66 velocity=64 time=0\n",
      "note_on channel=0 note=67 velocity=74 time=0\n",
      "note_off channel=0 note=75 velocity=64 time=0\n",
      "note_off channel=0 note=82 velocity=64 time=0\n",
      "note_on channel=0 note=83 velocity=47 time=0\n",
      "note_on channel=0 note=98 velocity=37 time=0\n",
      "note_off channel=0 note=102 velocity=64 time=2\n",
      "note_on channel=0 note=65 velocity=42 time=1\n",
      "note_on channel=0 note=75 velocity=26 time=0\n",
      "note_off channel=0 note=85 velocity=64 time=0\n",
      "note_off channel=0 note=55 velocity=64 time=1\n",
      "note_on channel=0 note=56 velocity=60 time=0\n",
      "note_off channel=0 note=67 velocity=64 time=0\n",
      "note_on channel=0 note=68 velocity=74 time=0\n",
      "note_on channel=0 note=79 velocity=17 time=0\n",
      "note_off channel=0 note=98 velocity=64 time=0\n",
      "note_off channel=0 note=99 velocity=64 time=0\n",
      "note_on channel=0 note=98 velocity=13 time=1\n",
      "note_off channel=0 note=56 velocity=64 time=1\n",
      "note_on channel=0 note=57 velocity=65 time=0\n",
      "note_off channel=0 note=68 velocity=64 time=0\n",
      "note_on channel=0 note=69 velocity=69 time=0\n",
      "note_off channel=0 note=71 velocity=64 time=0\n",
      "note_off channel=0 note=80 velocity=64 time=0\n",
      "note_off channel=0 note=100 velocity=64 time=0\n",
      "note_on channel=0 note=71 velocity=48 time=1\n",
      "note_off channel=0 note=79 velocity=64 time=0\n",
      "note_off channel=0 note=75 velocity=64 time=2\n",
      "note_off channel=0 note=77 velocity=64 time=0\n",
      "note_on channel=0 note=80 velocity=40 time=0\n",
      "note_off channel=0 note=97 velocity=64 time=0\n",
      "note_on channel=0 note=56 velocity=67 time=1\n",
      "note_off channel=0 note=57 velocity=64 time=0\n",
      "note_on channel=0 note=68 velocity=74 time=0\n",
      "note_off channel=0 note=69 velocity=64 time=0\n",
      "note_on channel=0 note=75 velocity=33 time=0\n",
      "note_off channel=0 note=98 velocity=64 time=0\n",
      "note_on channel=0 note=97 velocity=20 time=1\n",
      "note_on channel=0 note=100 velocity=13 time=1\n",
      "note_on channel=0 note=64 velocity=81 time=1\n",
      "note_off channel=0 note=65 velocity=64 time=0\n",
      "note_on channel=0 note=45 velocity=78 time=1\n",
      "note_off channel=0 note=56 velocity=64 time=0\n",
      "note_off channel=0 note=75 velocity=64 time=0\n",
      "note_on channel=0 note=90 velocity=35 time=0\n",
      "note_on channel=0 note=56 velocity=67 time=1\n",
      "note_on channel=0 note=63 velocity=77 time=0\n",
      "note_off channel=0 note=64 velocity=64 time=0\n",
      "note_off channel=0 note=100 velocity=64 time=0\n",
      "note_on channel=0 note=44 velocity=78 time=1\n",
      "note_off channel=0 note=45 velocity=64 time=0\n",
      "note_off channel=0 note=71 velocity=64 time=0\n",
      "note_off channel=0 note=97 velocity=64 time=0\n",
      "note_off channel=0 note=68 velocity=64 time=1\n",
      "note_on channel=0 note=71 velocity=42 time=0\n",
      "note_on channel=0 note=62 velocity=35 time=1\n",
      "note_off channel=0 note=63 velocity=64 time=0\n",
      "note_on channel=0 note=65 velocity=35 time=0\n",
      "note_on channel=0 note=68 velocity=68 time=0\n",
      "note_off channel=0 note=80 velocity=64 time=0\n",
      "note_on channel=0 note=81 velocity=29 time=0\n",
      "note_off channel=0 note=90 velocity=64 time=0\n",
      "note_on channel=0 note=75 velocity=34 time=1\n",
      "note_off channel=0 note=44 velocity=64 time=1\n",
      "note_off channel=0 note=62 velocity=64 time=1\n",
      "note_off channel=0 note=81 velocity=64 time=0\n",
      "note_on channel=0 note=43 velocity=61 time=2\n",
      "note_on channel=0 note=61 velocity=58 time=0\n",
      "note_off channel=0 note=65 velocity=64 time=0\n",
      "note_on channel=0 note=65 velocity=41 time=1\n",
      "note_on channel=0 note=42 velocity=54 time=1\n",
      "note_off channel=0 note=43 velocity=64 time=0\n",
      "note_off channel=0 note=83 velocity=64 time=0\n",
      "note_off channel=0 note=71 velocity=64 time=1\n",
      "note_off channel=0 note=42 velocity=64 time=1\n",
      "note_off channel=0 note=56 velocity=64 time=0\n",
      "note_on channel=0 note=57 velocity=66 time=0\n",
      "note_off channel=0 note=68 velocity=64 time=0\n",
      "note_on channel=0 note=69 velocity=68 time=0\n",
      "note_off channel=0 note=73 velocity=64 time=0\n",
      "note_on channel=0 note=47 velocity=70 time=1\n",
      "note_on channel=0 note=76 velocity=28 time=0\n",
      "note_on channel=0 note=89 velocity=43 time=0\n",
      "note_off channel=0 note=75 velocity=64 time=1\n",
      "note_on channel=0 note=83 velocity=43 time=1\n",
      "note_off channel=0 note=47 velocity=64 time=1\n",
      "note_on channel=0 note=48 velocity=72 time=0\n",
      "note_on channel=0 note=71 velocity=35 time=0\n",
      "note_on channel=0 note=91 velocity=57 time=0\n",
      "note_on channel=0 note=56 velocity=61 time=1\n",
      "note_off channel=0 note=57 velocity=64 time=0\n",
      "note_off channel=0 note=61 velocity=64 time=0\n",
      "note_on channel=0 note=62 velocity=35 time=0\n",
      "note_on channel=0 note=68 velocity=67 time=0\n",
      "note_off channel=0 note=69 velocity=64 time=0\n",
      "note_on channel=0 note=75 velocity=24 time=0\n",
      "note_off channel=0 note=76 velocity=64 time=0\n",
      "note_off channel=0 note=48 velocity=64 time=1\n",
      "note_on channel=0 note=49 velocity=78 time=0\n",
      "note_off channel=0 note=49 velocity=64 time=1\n",
      "note_on channel=0 note=52 velocity=79 time=0\n",
      "note_off channel=0 note=56 velocity=64 time=0\n",
      "note_off channel=0 note=52 velocity=64 time=1\n",
      "note_on channel=0 note=54 velocity=78 time=0\n",
      "note_on channel=0 note=61 velocity=29 time=0\n",
      "note_off channel=0 note=62 velocity=64 time=0\n",
      "note_off channel=0 note=65 velocity=64 time=0\n",
      "note_on channel=0 note=67 velocity=65 time=0\n",
      "note_off channel=0 note=68 velocity=64 time=0\n",
      "note_on channel=0 note=90 velocity=41 time=2\n",
      "note_on channel=0 note=53 velocity=64 time=1\n",
      "note_off channel=0 note=54 velocity=64 time=0\n",
      "note_off channel=0 note=61 velocity=64 time=0\n",
      "note_on channel=0 note=66 velocity=63 time=0\n",
      "note_off channel=0 note=67 velocity=64 time=0\n",
      "note_off channel=0 note=75 velocity=64 time=0\n",
      "note_on channel=0 note=97 velocity=46 time=0\n",
      "note_off channel=0 note=53 velocity=64 time=2\n",
      "note_on channel=0 note=54 velocity=58 time=0\n",
      "note_on channel=0 note=53 velocity=60 time=2\n",
      "note_off channel=0 note=54 velocity=64 time=0\n",
      "note_on channel=0 note=63 velocity=78 time=0\n",
      "note_on channel=0 note=80 velocity=45 time=0\n",
      "note_on channel=0 note=82 velocity=20 time=0\n",
      "note_on channel=0 note=47 velocity=66 time=1\n",
      "note_off channel=0 note=66 velocity=64 time=0\n",
      "note_off channel=0 note=71 velocity=64 time=0\n",
      "note_on channel=0 note=77 velocity=42 time=0\n",
      "note_on channel=0 note=98 velocity=15 time=0\n",
      "note_on channel=0 note=45 velocity=77 time=1\n",
      "note_off channel=0 note=47 velocity=64 time=0\n",
      "note_off channel=0 note=53 velocity=64 time=0\n",
      "note_off channel=0 note=63 velocity=64 time=0\n",
      "note_on channel=0 note=64 velocity=83 time=0\n",
      "note_on channel=0 note=96 velocity=27 time=0\n",
      "note_on channel=0 note=44 velocity=79 time=1\n",
      "note_off channel=0 note=45 velocity=64 time=0\n",
      "note_on channel=0 note=54 velocity=54 time=0\n",
      "note_on channel=0 note=78 velocity=15 time=0\n",
      "note_off channel=0 note=82 velocity=64 time=0\n",
      "note_on channel=0 note=100 velocity=23 time=0\n",
      "note_on channel=0 note=63 velocity=66 time=1\n",
      "note_off channel=0 note=64 velocity=64 time=0\n",
      "note_on channel=0 note=66 velocity=69 time=0\n",
      "note_on channel=0 note=69 velocity=32 time=0\n",
      "note_on channel=0 note=82 velocity=22 time=0\n",
      "note_off channel=0 note=90 velocity=64 time=0\n",
      "note_off channel=0 note=98 velocity=64 time=0\n",
      "note_on channel=0 note=99 velocity=19 time=0\n",
      "note_off channel=0 note=54 velocity=64 time=1\n",
      "note_off channel=0 note=83 velocity=64 time=0\n",
      "note_on channel=0 note=54 velocity=60 time=1\n",
      "note_off channel=0 note=63 velocity=64 time=0\n",
      "note_off channel=0 note=69 velocity=64 time=0\n",
      "note_off channel=0 note=44 velocity=64 time=1\n",
      "note_on channel=0 note=61 velocity=62 time=0\n",
      "note_on channel=0 note=75 velocity=22 time=0\n",
      "note_off channel=0 note=78 velocity=64 time=0\n",
      "note_on channel=0 note=98 velocity=25 time=0\n",
      "note_off channel=0 note=99 velocity=64 time=0\n",
      "note_on channel=0 note=43 velocity=61 time=3\n",
      "note_off channel=0 note=82 velocity=64 time=0\n",
      "note_off channel=0 note=96 velocity=64 time=0\n",
      "note_on channel=0 note=53 velocity=53 time=1\n",
      "note_off channel=0 note=54 velocity=64 time=0\n",
      "note_off channel=0 note=66 velocity=64 time=0\n",
      "note_on channel=0 note=87 velocity=71 time=0\n",
      "note_on channel=0 note=83 velocity=12 time=1\n",
      "note_off channel=0 note=98 velocity=64 time=0\n",
      "note_on channel=0 note=42 velocity=55 time=1\n",
      "note_off channel=0 note=43 velocity=64 time=0\n",
      "note_off channel=0 note=53 velocity=64 time=0\n",
      "note_off channel=0 note=80 velocity=64 time=0\n",
      "note_off channel=0 note=97 velocity=64 time=0\n",
      "note_off channel=0 note=100 velocity=64 time=0\n",
      "note_on channel=0 note=68 velocity=56 time=1\n",
      "note_off channel=0 note=42 velocity=64 time=1\n",
      "note_on channel=0 note=80 velocity=82 time=0\n",
      "note_on channel=0 note=48 velocity=69 time=1\n",
      "note_on channel=0 note=73 velocity=74 time=0\n",
      "note_on channel=0 note=47 velocity=72 time=2\n",
      "note_off channel=0 note=48 velocity=64 time=0\n",
      "note_off channel=0 note=47 velocity=64 time=1\n",
      "note_on channel=0 note=48 velocity=73 time=0\n",
      "note_on channel=0 note=71 velocity=16 time=0\n",
      "note_off channel=0 note=48 velocity=64 time=2\n",
      "note_on channel=0 note=52 velocity=75 time=0\n",
      "note_off channel=0 note=83 velocity=64 time=0\n",
      "note_off channel=0 note=52 velocity=64 time=1\n",
      "note_on channel=0 note=53 velocity=69 time=0\n",
      "note_on channel=0 note=93 velocity=19 time=0\n",
      "note_off channel=0 note=71 velocity=64 time=1\n",
      "note_on channel=0 note=90 velocity=62 time=0\n",
      "note_off channel=0 note=53 velocity=64 time=1\n",
      "note_on channel=0 note=54 velocity=73 time=0\n",
      "note_off channel=0 note=75 velocity=64 time=0\n",
      "note_on channel=0 note=94 velocity=36 time=0\n",
      "note_on channel=0 note=67 velocity=66 time=1\n",
      "note_off channel=0 note=68 velocity=64 time=0\n",
      "note_on channel=0 note=78 velocity=37 time=0\n",
      "note_on channel=0 note=82 velocity=41 time=0\n",
      "note_on channel=0 note=88 velocity=48 time=0\n",
      "note_off channel=0 note=93 velocity=64 time=0\n",
      "note_off channel=0 note=67 velocity=64 time=1\n",
      "note_off channel=0 note=89 velocity=64 time=0\n",
      "note_on channel=0 note=96 velocity=25 time=1\n",
      "note_on channel=0 note=101 velocity=13 time=0\n",
      "note_off channel=0 note=77 velocity=64 time=1\n",
      "note_off channel=0 note=54 velocity=64 time=1\n",
      "note_on channel=0 note=55 velocity=62 time=0\n",
      "note_on channel=0 note=67 velocity=70 time=0\n",
      "note_on channel=0 note=83 velocity=31 time=0\n",
      "note_on channel=0 note=93 velocity=34 time=0\n",
      "note_on channel=0 note=95 velocity=42 time=0\n",
      "note_on channel=0 note=50 velocity=70 time=1\n",
      "note_off channel=0 note=61 velocity=64 time=0\n",
      "note_on channel=0 note=64 velocity=56 time=0\n",
      "note_on channel=0 note=75 velocity=42 time=0\n",
      "note_off channel=0 note=78 velocity=64 time=0\n",
      "note_off channel=0 note=82 velocity=64 time=0\n",
      "note_on channel=0 note=89 velocity=70 time=0\n",
      "note_off channel=0 note=90 velocity=64 time=0\n",
      "note_on channel=0 note=48 velocity=88 time=1\n",
      "note_off channel=0 note=50 velocity=64 time=0\n",
      "note_off channel=0 note=55 velocity=64 time=0\n",
      "note_off channel=0 note=67 velocity=64 time=0\n",
      "note_on channel=0 note=78 velocity=37 time=0\n",
      "note_off channel=0 note=83 velocity=64 time=0\n",
      "note_on channel=0 note=90 velocity=66 time=0\n",
      "note_off channel=0 note=91 velocity=64 time=0\n",
      "note_on channel=0 note=57 velocity=69 time=1\n",
      "note_on channel=0 note=63 velocity=50 time=0\n",
      "note_off channel=0 note=64 velocity=64 time=0\n",
      "note_on channel=0 note=69 velocity=69 time=0\n",
      "note_off channel=0 note=75 velocity=64 time=0\n",
      "note_on channel=0 note=83 velocity=42 time=0\n",
      "note_on channel=0 note=91 velocity=63 time=0\n",
      "note_on channel=0 note=76 velocity=47 time=1\n",
      "note_off channel=0 note=94 velocity=64 time=0\n",
      "note_off channel=0 note=96 velocity=64 time=0\n",
      "note_off channel=0 note=101 velocity=64 time=0\n",
      "note_on channel=0 note=46 velocity=67 time=1\n",
      "note_off channel=0 note=48 velocity=64 time=0\n",
      "note_on channel=0 note=65 velocity=41 time=0\n",
      "note_on channel=0 note=82 velocity=32 time=0\n",
      "note_off channel=0 note=83 velocity=64 time=0\n",
      "note_off channel=0 note=63 velocity=64 time=1\n",
      "note_off channel=0 note=78 velocity=64 time=0\n",
      "note_off channel=0 note=88 velocity=64 time=0\n",
      "note_off channel=0 note=90 velocity=64 time=0\n",
      "note_off channel=0 note=46 velocity=64 time=1\n",
      "note_on channel=0 note=48 velocity=65 time=0\n",
      "note_on channel=0 note=56 velocity=70 time=0\n",
      "note_off channel=0 note=57 velocity=64 time=0\n",
      "note_on channel=0 note=61 velocity=19 time=0\n",
      "note_off channel=0 note=69 velocity=64 time=0\n",
      "note_on channel=0 note=90 velocity=42 time=0\n",
      "note_off channel=0 note=93 velocity=64 time=0\n",
      "note_off channel=0 note=95 velocity=64 time=0\n",
      "note_off channel=0 note=48 velocity=64 time=1\n",
      "note_off channel=0 note=65 velocity=64 time=0\n",
      "note_on channel=0 note=45 velocity=61 time=1\n",
      "note_on channel=0 note=67 velocity=68 time=0\n",
      "note_off channel=0 note=73 velocity=64 time=0\n",
      "note_on channel=0 note=74 velocity=43 time=0\n",
      "note_on channel=0 note=83 velocity=31 time=0\n",
      "note_off channel=0 note=90 velocity=64 time=0\n",
      "note_on channel=0 note=93 velocity=64 time=0\n",
      "note_on channel=0 note=95 velocity=44 time=0\n",
      "note_on channel=0 note=55 velocity=74 time=1\n",
      "note_off channel=0 note=56 velocity=64 time=0\n",
      "note_off channel=0 note=61 velocity=64 time=0\n",
      "note_off channel=0 note=82 velocity=64 time=0\n",
      "note_on channel=0 note=84 velocity=40 time=0\n",
      "note_on channel=0 note=102 velocity=36 time=0\n",
      "note_on channel=0 note=31 velocity=28 time=1\n",
      "note_off channel=0 note=76 velocity=64 time=0\n",
      "note_on channel=0 note=44 velocity=49 time=1\n",
      "note_off channel=0 note=45 velocity=64 time=0\n",
      "note_on channel=0 note=61 velocity=11 time=0\n",
      "note_on channel=0 note=71 velocity=12 time=1\n",
      "note_off channel=0 note=74 velocity=64 time=0\n",
      "note_on channel=0 note=78 velocity=20 time=0\n",
      "note_off channel=0 note=31 velocity=64 time=1\n",
      "note_on channel=0 note=74 velocity=35 time=0\n",
      "note_on channel=0 note=97 velocity=16 time=0\n",
      "note_on channel=0 note=29 velocity=21 time=1\n",
      "note_off channel=0 note=44 velocity=64 time=2\n",
      "note_off channel=0 note=71 velocity=64 time=0\n",
      "note_on channel=0 note=73 velocity=47 time=0\n",
      "note_off channel=0 note=74 velocity=64 time=0\n",
      "note_off channel=0 note=78 velocity=64 time=0\n",
      "note_on channel=0 note=82 velocity=29 time=0\n",
      "note_off channel=0 note=97 velocity=64 time=0\n",
      "note_off channel=0 note=29 velocity=64 time=1\n",
      "note_off channel=0 note=61 velocity=64 time=0\n",
      "note_on channel=0 note=71 velocity=18 time=0\n",
      "note_on channel=0 note=78 velocity=22 time=0\n",
      "note_off channel=0 note=83 velocity=64 time=0\n",
      "note_on channel=0 note=54 velocity=72 time=1\n",
      "note_off channel=0 note=55 velocity=64 time=0\n",
      "note_off channel=0 note=95 velocity=64 time=0\n",
      "note_off channel=0 note=102 velocity=64 time=0\n",
      "note_off channel=0 note=67 velocity=64 time=2\n",
      "note_on channel=0 note=79 velocity=24 time=0\n",
      "note_on channel=0 note=53 velocity=73 time=1\n",
      "note_off channel=0 note=54 velocity=64 time=0\n",
      "note_on channel=0 note=67 velocity=39 time=0\n",
      "note_off channel=0 note=71 velocity=64 time=0\n",
      "note_off channel=0 note=78 velocity=64 time=0\n",
      "note_off channel=0 note=93 velocity=64 time=0\n",
      "note_on channel=0 note=31 velocity=23 time=1\n",
      "note_on channel=0 note=71 velocity=33 time=0\n",
      "note_on channel=0 note=77 velocity=24 time=0\n",
      "note_on channel=0 note=52 velocity=71 time=1\n",
      "note_off channel=0 note=53 velocity=64 time=0\n",
      "note_on channel=0 note=63 velocity=32 time=0\n",
      "note_off channel=0 note=67 velocity=64 time=0\n",
      "note_off channel=0 note=79 velocity=64 time=0\n",
      "note_on channel=0 note=86 velocity=24 time=0\n",
      "note_off channel=0 note=91 velocity=64 time=0\n",
      "note_off channel=0 note=52 velocity=64 time=1\n",
      "note_on channel=0 note=61 velocity=37 time=0\n",
      "note_off channel=0 note=31 velocity=64 time=1\n",
      "note_on channel=0 note=49 velocity=75 time=0\n",
      "note_off channel=0 note=63 velocity=64 time=0\n",
      "note_on channel=0 note=95 velocity=44 time=0\n",
      "note_off channel=0 note=71 velocity=64 time=1\n",
      "note_on channel=0 note=75 velocity=61 time=0\n",
      "note_off channel=0 note=49 velocity=64 time=1\n",
      "note_on channel=0 note=50 velocity=83 time=0\n",
      "note_off channel=0 note=61 velocity=64 time=0\n",
      "note_off channel=0 note=80 velocity=64 time=0\n",
      "note_on channel=0 note=90 velocity=38 time=0\n",
      "note_on channel=0 note=63 velocity=50 time=1\n",
      "note_on channel=0 note=78 velocity=47 time=0\n",
      "note_on channel=0 note=80 velocity=81 time=0\n",
      "note_off channel=0 note=82 velocity=64 time=0\n",
      "note_on channel=0 note=66 velocity=49 time=1\n",
      "note_on channel=0 note=69 velocity=46 time=0\n",
      "note_off channel=0 note=73 velocity=64 time=0\n",
      "note_off channel=0 note=77 velocity=64 time=0\n",
      "note_on channel=0 note=82 velocity=58 time=0\n",
      "note_on channel=0 note=85 velocity=59 time=0\n",
      "note_off channel=0 note=86 velocity=64 time=0\n",
      "note_on channel=0 note=93 velocity=29 time=0\n",
      "note_on channel=0 note=102 velocity=46 time=0\n",
      "note_off channel=0 note=63 velocity=64 time=1\n",
      "note_on channel=0 note=70 velocity=53 time=0\n",
      "note_on channel=0 note=77 velocity=42 time=0\n",
      "note_off channel=0 note=78 velocity=64 time=0\n",
      "note_on channel=0 note=79 velocity=51 time=0\n",
      "note_off channel=0 note=84 velocity=64 time=0\n",
      "note_off channel=0 note=90 velocity=64 time=0\n",
      "note_on channel=0 note=45 velocity=77 time=1\n",
      "note_off channel=0 note=50 velocity=64 time=0\n",
      "note_on channel=0 note=56 velocity=37 time=0\n",
      "note_off channel=0 note=66 velocity=64 time=0\n",
      "note_on channel=0 note=67 velocity=45 time=0\n",
      "note_off channel=0 note=69 velocity=64 time=0\n",
      "note_on channel=0 note=90 velocity=21 time=0\n",
      "note_on channel=0 note=44 velocity=78 time=1\n",
      "note_off channel=0 note=45 velocity=64 time=0\n",
      "note_on channel=0 note=63 velocity=62 time=0\n",
      "note_on channel=0 note=73 velocity=25 time=0\n",
      "note_off channel=0 note=79 velocity=64 time=0\n",
      "note_off channel=0 note=56 velocity=64 time=1\n",
      "note_on channel=0 note=52 velocity=73 time=1\n",
      "note_off channel=0 note=77 velocity=64 time=0\n",
      "note_on channel=0 note=83 velocity=54 time=0\n",
      "note_off channel=0 note=90 velocity=64 time=0\n",
      "note_on channel=0 note=43 velocity=72 time=1\n",
      "note_off channel=0 note=44 velocity=64 time=0\n",
      "note_off channel=0 note=63 velocity=64 time=0\n",
      "note_off channel=0 note=67 velocity=64 time=0\n",
      "note_off channel=0 note=70 velocity=64 time=0\n",
      "note_on channel=0 note=71 velocity=66 time=0\n",
      "note_off channel=0 note=75 velocity=64 time=0\n",
      "note_on channel=0 note=76 velocity=73 time=0\n",
      "note_on channel=0 note=79 velocity=29 time=0\n",
      "note_on channel=0 note=86 velocity=60 time=0\n",
      "note_on channel=0 note=90 velocity=51 time=0\n",
      "note_off channel=0 note=85 velocity=64 time=1\n",
      "note_off channel=0 note=87 velocity=64 time=0\n",
      "note_on channel=0 note=97 velocity=30 time=0\n",
      "note_off channel=0 note=73 velocity=64 time=1\n",
      "note_off channel=0 note=79 velocity=64 time=0\n",
      "note_on channel=0 note=87 velocity=44 time=0\n",
      "note_off channel=0 note=93 velocity=64 time=0\n",
      "note_off channel=0 note=89 velocity=64 time=1\n",
      "note_off channel=0 note=82 velocity=64 time=1\n",
      "note_on channel=0 note=85 velocity=39 time=0\n",
      "note_on channel=0 note=73 velocity=20 time=1\n",
      "note_on channel=0 note=96 velocity=25 time=0\n",
      "note_on channel=0 note=103 velocity=17 time=0\n",
      "note_on channel=0 note=78 velocity=19 time=1\n",
      "note_off channel=0 note=85 velocity=64 time=0\n",
      "note_on channel=0 note=93 velocity=27 time=0\n",
      "note_off channel=0 note=43 velocity=64 time=1\n",
      "note_on channel=0 note=84 velocity=20 time=1\n",
      "note_on channel=0 note=85 velocity=49 time=0\n",
      "note_off channel=0 note=86 velocity=64 time=0\n",
      "note_on channel=0 note=91 velocity=35 time=0\n",
      "note_on channel=0 note=70 velocity=57 time=1\n",
      "note_off channel=0 note=78 velocity=64 time=0\n",
      "note_off channel=0 note=87 velocity=64 time=0\n",
      "note_off channel=0 note=71 velocity=64 time=1\n",
      "note_on channel=0 note=75 velocity=60 time=0\n",
      "note_off channel=0 note=76 velocity=64 time=0\n",
      "note_on channel=0 note=77 velocity=28 time=0\n",
      "note_off channel=0 note=103 velocity=64 time=0\n",
      "note_on channel=0 note=51 velocity=64 time=1\n",
      "note_off channel=0 note=52 velocity=64 time=0\n",
      "note_off channel=0 note=83 velocity=64 time=0\n",
      "note_on channel=0 note=89 velocity=56 time=0\n",
      "note_off channel=0 note=90 velocity=64 time=0\n",
      "note_off channel=0 note=95 velocity=64 time=0\n",
      "note_on channel=0 note=90 velocity=50 time=1\n",
      "note_off channel=0 note=77 velocity=64 time=1\n",
      "note_off channel=0 note=84 velocity=64 time=0\n",
      "note_on channel=0 note=87 velocity=60 time=0\n",
      "note_on channel=0 note=95 velocity=32 time=0\n",
      "note_off channel=0 note=96 velocity=64 time=0\n",
      "note_off channel=0 note=51 velocity=64 time=1\n",
      "note_off channel=0 note=91 velocity=64 time=0\n",
      "note_off channel=0 note=93 velocity=64 time=0\n",
      "note_off channel=0 note=73 velocity=64 time=1\n",
      "note_on channel=0 note=83 velocity=61 time=0\n",
      "note_on channel=0 note=91 velocity=51 time=0\n",
      "note_on channel=0 note=51 velocity=60 time=1\n",
      "note_on channel=0 note=77 velocity=29 time=0\n",
      "note_on channel=0 note=79 velocity=38 time=0\n",
      "note_on channel=0 note=84 velocity=58 time=0\n",
      "note_off channel=0 note=97 velocity=64 time=0\n",
      "note_off channel=0 note=85 velocity=64 time=1\n",
      "note_on channel=0 note=65 velocity=56 time=1\n",
      "note_off channel=0 note=91 velocity=64 time=0\n",
      "note_on channel=0 note=62 velocity=86 time=1\n",
      "note_off channel=0 note=77 velocity=64 time=0\n",
      "note_on channel=0 note=78 velocity=41 time=0\n",
      "note_off channel=0 note=79 velocity=64 time=0\n",
      "note_on channel=0 note=81 velocity=40 time=0\n",
      "note_on channel=0 note=88 velocity=78 time=0\n",
      "note_on channel=0 note=50 velocity=63 time=1\n",
      "note_off channel=0 note=51 velocity=64 time=0\n",
      "note_on channel=0 note=69 velocity=61 time=0\n",
      "note_off channel=0 note=70 velocity=64 time=0\n",
      "note_off channel=0 note=75 velocity=64 time=0\n",
      "note_off channel=0 note=89 velocity=64 time=0\n",
      "note_on channel=0 note=97 velocity=25 time=2\n",
      "note_on channel=0 note=103 velocity=15 time=0\n",
      "note_on channel=0 note=57 velocity=51 time=2\n",
      "note_off channel=0 note=65 velocity=64 time=0\n",
      "note_off channel=0 note=81 velocity=64 time=0\n",
      "note_off channel=0 note=87 velocity=64 time=0\n",
      "note_off channel=0 note=62 velocity=64 time=1\n",
      "note_on channel=0 note=63 velocity=95 time=0\n",
      "note_off channel=0 note=50 velocity=64 time=1\n",
      "note_on channel=0 note=50 velocity=64 time=1\n",
      "note_off channel=0 note=57 velocity=64 time=0\n",
      "note_on channel=0 note=91 velocity=34 time=0\n"
     ]
    },
    {
     "name": "stdout",
     "output_type": "stream",
     "text": [
      "note_on channel=0 note=87 velocity=50 time=1\n",
      "note_on channel=0 note=85 velocity=19 time=1\n",
      "note_on channel=0 note=89 velocity=32 time=0\n",
      "note_off channel=0 note=91 velocity=64 time=1\n",
      "note_off channel=0 note=95 velocity=64 time=0\n",
      "note_off channel=0 note=89 velocity=64 time=1\n",
      "note_on channel=0 note=77 velocity=16 time=1\n",
      "note_on channel=0 note=89 velocity=58 time=0\n",
      "note_off channel=0 note=85 velocity=64 time=1\n",
      "note_off channel=0 note=103 velocity=64 time=0\n",
      "note_off channel=0 note=50 velocity=64 time=1\n",
      "note_on channel=0 note=51 velocity=57 time=0\n",
      "note_off channel=0 note=69 velocity=64 time=0\n",
      "note_on channel=0 note=70 velocity=42 time=0\n",
      "note_off channel=0 note=84 velocity=64 time=0\n",
      "note_on channel=0 note=85 velocity=31 time=0\n",
      "note_on channel=0 note=91 velocity=56 time=0\n",
      "note_off channel=0 note=97 velocity=64 time=0\n",
      "note_off channel=0 note=90 velocity=64 time=1\n",
      "note_off channel=0 note=51 velocity=64 time=1\n",
      "note_off channel=0 note=70 velocity=64 time=0\n",
      "note_on channel=0 note=71 velocity=43 time=0\n",
      "note_off channel=0 note=80 velocity=64 time=0\n",
      "note_on channel=0 note=84 velocity=33 time=0\n",
      "note_off channel=0 note=85 velocity=64 time=0\n",
      "note_on channel=0 note=90 velocity=47 time=0\n",
      "note_on channel=0 note=51 velocity=54 time=1\n",
      "note_off channel=0 note=77 velocity=64 time=0\n",
      "note_on channel=0 note=80 velocity=90 time=0\n",
      "note_on channel=0 note=85 velocity=35 time=0\n",
      "note_off channel=0 note=88 velocity=64 time=0\n",
      "note_on channel=0 note=70 velocity=48 time=1\n",
      "note_off channel=0 note=71 velocity=64 time=0\n",
      "note_off channel=0 note=78 velocity=64 time=1\n",
      "note_off channel=0 note=90 velocity=64 time=0\n",
      "note_off channel=0 note=51 velocity=64 time=1\n",
      "note_on channel=0 note=69 velocity=55 time=1\n",
      "note_off channel=0 note=70 velocity=64 time=0\n",
      "note_on channel=0 note=74 velocity=35 time=0\n",
      "note_on channel=0 note=90 velocity=48 time=0\n",
      "note_on channel=0 note=50 velocity=65 time=1\n",
      "note_on channel=0 note=77 velocity=23 time=0\n",
      "note_off channel=0 note=84 velocity=64 time=0\n",
      "note_off channel=0 note=89 velocity=64 time=0\n",
      "note_on channel=0 note=96 velocity=51 time=0\n",
      "note_on channel=0 note=73 velocity=52 time=1\n",
      "note_off channel=0 note=74 velocity=64 time=0\n",
      "note_on channel=0 note=79 velocity=17 time=0\n",
      "note_on channel=0 note=84 velocity=17 time=0\n",
      "note_on channel=0 note=89 velocity=54 time=0\n",
      "note_on channel=0 note=68 velocity=62 time=1\n",
      "note_off channel=0 note=69 velocity=64 time=0\n",
      "note_off channel=0 note=85 velocity=64 time=0\n",
      "note_on channel=0 note=49 velocity=71 time=1\n",
      "note_off channel=0 note=50 velocity=64 time=0\n",
      "note_on channel=0 note=94 velocity=55 time=0\n",
      "note_off channel=0 note=90 velocity=64 time=1\n",
      "note_off channel=0 note=77 velocity=64 time=1\n",
      "note_off channel=0 note=79 velocity=64 time=0\n",
      "note_on channel=0 note=77 velocity=45 time=1\n",
      "note_on channel=0 note=100 velocity=44 time=1\n",
      "note_on channel=0 note=71 velocity=47 time=1\n",
      "note_on channel=0 note=82 velocity=60 time=1\n",
      "note_off channel=0 note=91 velocity=64 time=1\n",
      "note_on channel=0 note=93 velocity=30 time=0\n",
      "note_on channel=0 note=61 velocity=83 time=1\n",
      "note_off channel=0 note=63 velocity=64 time=0\n",
      "note_off channel=0 note=84 velocity=64 time=0\n",
      "note_on channel=0 note=91 velocity=40 time=0\n",
      "note_on channel=0 note=57 velocity=53 time=1\n",
      "note_off channel=0 note=68 velocity=64 time=0\n",
      "note_on channel=0 note=69 velocity=64 time=0\n",
      "note_off channel=0 note=71 velocity=64 time=0\n",
      "note_off channel=0 note=83 velocity=64 time=0\n",
      "note_on channel=0 note=86 velocity=26 time=0\n",
      "note_on channel=0 note=90 velocity=43 time=0\n",
      "note_off channel=0 note=49 velocity=64 time=1\n",
      "note_on channel=0 note=50 velocity=73 time=0\n",
      "note_off channel=0 note=61 velocity=64 time=0\n",
      "note_on channel=0 note=62 velocity=83 time=0\n",
      "note_off channel=0 note=73 velocity=64 time=0\n",
      "note_on channel=0 note=49 velocity=70 time=1\n",
      "note_off channel=0 note=50 velocity=64 time=0\n",
      "note_off channel=0 note=62 velocity=64 time=0\n",
      "note_on channel=0 note=63 velocity=89 time=0\n",
      "note_on channel=0 note=68 velocity=53 time=0\n",
      "note_off channel=0 note=69 velocity=64 time=0\n",
      "note_on channel=0 note=70 velocity=43 time=0\n",
      "note_off channel=0 note=91 velocity=64 time=0\n",
      "note_off channel=0 note=94 velocity=64 time=0\n",
      "note_on channel=0 note=97 velocity=44 time=0\n",
      "note_off channel=0 note=57 velocity=64 time=1\n",
      "note_on channel=0 note=73 velocity=38 time=0\n",
      "note_on channel=0 note=83 velocity=42 time=0\n",
      "note_off channel=0 note=90 velocity=64 time=0\n",
      "note_off channel=0 note=70 velocity=64 time=1\n",
      "note_on channel=0 note=71 velocity=55 time=0\n",
      "note_off channel=0 note=86 velocity=64 time=0\n",
      "note_off channel=0 note=87 velocity=64 time=0\n",
      "note_on channel=0 note=103 velocity=21 time=0\n",
      "note_off channel=0 note=82 velocity=64 time=1\n",
      "note_on channel=0 note=82 velocity=41 time=2\n",
      "note_on channel=0 note=86 velocity=25 time=0\n",
      "note_off channel=0 note=83 velocity=64 time=1\n",
      "note_on channel=0 note=98 velocity=39 time=1\n",
      "note_off channel=0 note=68 velocity=64 time=1\n",
      "note_on channel=0 note=69 velocity=51 time=0\n",
      "note_off channel=0 note=82 velocity=64 time=0\n",
      "note_on channel=0 note=91 velocity=12 time=0\n",
      "note_off channel=0 note=97 velocity=64 time=0\n",
      "note_on channel=0 note=68 velocity=53 time=2\n",
      "note_off channel=0 note=69 velocity=64 time=0\n",
      "note_on channel=0 note=84 velocity=17 time=0\n",
      "note_off channel=0 note=89 velocity=64 time=0\n",
      "note_off channel=0 note=98 velocity=64 time=0\n",
      "note_off channel=0 note=49 velocity=64 time=2\n",
      "note_off channel=0 note=86 velocity=64 time=0\n",
      "note_off channel=0 note=93 velocity=64 time=0\n",
      "note_on channel=0 note=97 velocity=41 time=0\n",
      "note_on channel=0 note=49 velocity=63 time=1\n",
      "note_off channel=0 note=73 velocity=64 time=1\n",
      "note_on channel=0 note=98 velocity=22 time=1\n",
      "note_on channel=0 note=90 velocity=29 time=1\n",
      "note_off channel=0 note=96 velocity=64 time=0\n",
      "note_off channel=0 note=102 velocity=64 time=0\n",
      "note_off channel=0 note=103 velocity=64 time=0\n",
      "note_off channel=0 note=68 velocity=64 time=1\n",
      "note_off channel=0 note=97 velocity=64 time=0\n",
      "note_on channel=0 note=68 velocity=35 time=1\n",
      "note_on channel=0 note=73 velocity=25 time=0\n",
      "note_on channel=0 note=87 velocity=41 time=1\n",
      "note_off channel=0 note=91 velocity=64 time=0\n",
      "note_off channel=0 note=100 velocity=64 time=0\n",
      "note_off channel=0 note=68 velocity=64 time=1\n",
      "note_on channel=0 note=88 velocity=28 time=0\n",
      "note_off channel=0 note=98 velocity=64 time=0\n",
      "note_on channel=0 note=68 velocity=21 time=2\n",
      "note_off channel=0 note=49 velocity=64 time=1\n",
      "note_on channel=0 note=93 velocity=37 time=0\n",
      "note_off channel=0 note=88 velocity=64 time=2\n",
      "note_on channel=0 note=89 velocity=70 time=0\n",
      "note_on channel=0 note=91 velocity=26 time=0\n",
      "note_on channel=0 note=50 velocity=55 time=1\n",
      "note_off channel=0 note=68 velocity=64 time=0\n",
      "note_off channel=0 note=73 velocity=64 time=0\n",
      "note_on channel=0 note=85 velocity=39 time=0\n",
      "note_on channel=0 note=88 velocity=53 time=0\n",
      "note_off channel=0 note=90 velocity=64 time=0\n",
      "note_on channel=0 note=102 velocity=21 time=0\n",
      "note_on channel=0 note=73 velocity=66 time=1\n",
      "note_off channel=0 note=84 velocity=64 time=0\n",
      "note_on channel=0 note=49 velocity=57 time=1\n",
      "note_off channel=0 note=50 velocity=64 time=0\n",
      "note_on channel=0 note=67 velocity=49 time=0\n",
      "note_off channel=0 note=71 velocity=64 time=0\n",
      "note_on channel=0 note=76 velocity=57 time=0\n",
      "note_off channel=0 note=77 velocity=64 time=0\n",
      "note_on channel=0 note=78 velocity=17 time=0\n",
      "note_on channel=0 note=82 velocity=37 time=0\n",
      "note_on channel=0 note=84 velocity=37 time=0\n",
      "note_on channel=0 note=86 velocity=18 time=0\n",
      "note_off channel=0 note=87 velocity=64 time=0\n",
      "note_on channel=0 note=60 velocity=58 time=1\n",
      "note_on channel=0 note=72 velocity=74 time=0\n",
      "note_off channel=0 note=73 velocity=64 time=1\n",
      "note_off channel=0 note=60 velocity=64 time=1\n",
      "note_on channel=0 note=61 velocity=61 time=0\n",
      "note_off channel=0 note=67 velocity=64 time=0\n",
      "note_on channel=0 note=68 velocity=53 time=0\n",
      "note_off channel=0 note=78 velocity=64 time=0\n",
      "note_on channel=0 note=83 velocity=40 time=0\n",
      "note_on channel=0 note=87 velocity=32 time=0\n",
      "note_on channel=0 note=90 velocity=52 time=0\n",
      "note_off channel=0 note=63 velocity=64 time=1\n",
      "note_off channel=0 note=84 velocity=64 time=0\n",
      "note_off channel=0 note=91 velocity=64 time=0\n",
      "note_on channel=0 note=96 velocity=11 time=0\n",
      "note_off channel=0 note=49 velocity=64 time=1\n",
      "note_on channel=0 note=50 velocity=68 time=0\n",
      "note_off channel=0 note=68 velocity=64 time=0\n",
      "note_off channel=0 note=72 velocity=64 time=0\n",
      "note_on channel=0 note=77 velocity=32 time=0\n",
      "note_off channel=0 note=86 velocity=64 time=0\n",
      "note_on channel=0 note=91 velocity=48 time=0\n",
      "note_on channel=0 note=70 velocity=48 time=1\n",
      "note_on channel=0 note=75 velocity=49 time=0\n",
      "note_off channel=0 note=76 velocity=64 time=0\n",
      "note_off channel=0 note=82 velocity=64 time=0\n",
      "note_off channel=0 note=88 velocity=64 time=0\n",
      "note_off channel=0 note=90 velocity=64 time=0\n",
      "note_off channel=0 note=61 velocity=64 time=1\n",
      "note_off channel=0 note=77 velocity=64 time=0\n",
      "note_on channel=0 note=88 velocity=39 time=0\n",
      "note_on channel=0 note=90 velocity=39 time=0\n",
      "note_on channel=0 note=94 velocity=29 time=0\n",
      "note_off channel=0 note=96 velocity=64 time=0\n",
      "note_off channel=0 note=50 velocity=64 time=1\n",
      "note_on channel=0 note=51 velocity=50 time=0\n",
      "note_on channel=0 note=63 velocity=50 time=0\n",
      "note_off channel=0 note=70 velocity=64 time=0\n",
      "note_on channel=0 note=77 velocity=44 time=0\n",
      "note_on channel=0 note=70 velocity=49 time=1\n",
      "note_off channel=0 note=89 velocity=64 time=0\n",
      "note_off channel=0 note=93 velocity=64 time=0\n",
      "note_on channel=0 note=62 velocity=40 time=1\n",
      "note_off channel=0 note=63 velocity=64 time=0\n",
      "note_on channel=0 note=93 velocity=42 time=0\n",
      "note_off channel=0 note=94 velocity=64 time=0\n",
      "note_on channel=0 note=50 velocity=70 time=1\n",
      "note_off channel=0 note=51 velocity=64 time=0\n",
      "note_on channel=0 note=69 velocity=53 time=0\n",
      "note_off channel=0 note=70 velocity=64 time=0\n",
      "note_on channel=0 note=73 velocity=49 time=0\n",
      "note_off channel=0 note=91 velocity=64 time=0\n",
      "note_on channel=0 note=94 velocity=32 time=0\n",
      "note_on channel=0 note=96 velocity=18 time=0\n",
      "note_on channel=0 note=61 velocity=60 time=1\n",
      "note_off channel=0 note=62 velocity=64 time=0\n",
      "note_on channel=0 note=82 velocity=37 time=0\n",
      "note_on channel=0 note=91 velocity=44 time=0\n",
      "note_off channel=0 note=102 velocity=64 time=0\n",
      "note_on channel=0 note=65 velocity=40 time=1\n",
      "note_on channel=0 note=68 velocity=55 time=0\n",
      "note_off channel=0 note=69 velocity=64 time=0\n",
      "note_off channel=0 note=93 velocity=64 time=0\n",
      "note_off channel=0 note=75 velocity=64 time=1\n",
      "note_on channel=0 note=79 velocity=11 time=0\n",
      "note_off channel=0 note=68 velocity=64 time=1\n",
      "note_on channel=0 note=69 velocity=58 time=0\n",
      "note_off channel=0 note=73 velocity=64 time=0\n",
      "note_on channel=0 note=74 velocity=45 time=0\n",
      "note_on channel=0 note=93 velocity=42 time=0\n",
      "note_off channel=0 note=61 velocity=64 time=1\n",
      "note_on channel=0 note=84 velocity=33 time=0\n",
      "note_off channel=0 note=94 velocity=64 time=0\n",
      "note_off channel=0 note=83 velocity=64 time=1\n",
      "note_off channel=0 note=79 velocity=64 time=1\n",
      "note_on channel=0 note=83 velocity=41 time=1\n",
      "note_on channel=0 note=61 velocity=54 time=1\n",
      "note_on channel=0 note=72 velocity=49 time=0\n",
      "note_off channel=0 note=74 velocity=64 time=0\n",
      "note_off channel=0 note=82 velocity=64 time=0\n",
      "note_on channel=0 note=49 velocity=64 time=1\n",
      "note_off channel=0 note=50 velocity=64 time=0\n",
      "note_off channel=0 note=69 velocity=64 time=0\n",
      "note_off channel=0 note=91 velocity=64 time=0\n",
      "note_off channel=0 note=87 velocity=64 time=1\n",
      "note_off channel=0 note=96 velocity=64 time=0\n",
      "note_on channel=0 note=68 velocity=52 time=1\n",
      "note_off channel=0 note=72 velocity=64 time=0\n",
      "note_on channel=0 note=82 velocity=42 time=0\n",
      "note_off channel=0 note=83 velocity=64 time=0\n",
      "note_off channel=0 note=49 velocity=64 time=1\n",
      "note_on channel=0 note=60 velocity=51 time=0\n",
      "note_off channel=0 note=61 velocity=64 time=0\n",
      "note_on channel=0 note=71 velocity=44 time=0\n",
      "note_on channel=0 note=49 velocity=70 time=1\n",
      "note_on channel=0 note=72 velocity=61 time=0\n",
      "note_off channel=0 note=84 velocity=64 time=0\n",
      "note_on channel=0 note=91 velocity=39 time=0\n",
      "note_on channel=0 note=95 velocity=24 time=0\n",
      "note_on channel=0 note=101 velocity=38 time=0\n",
      "note_off channel=0 note=65 velocity=64 time=1\n",
      "note_on channel=0 note=67 velocity=63 time=0\n",
      "note_off channel=0 note=68 velocity=64 time=0\n",
      "note_off channel=0 note=71 velocity=64 time=0\n",
      "note_off channel=0 note=60 velocity=64 time=1\n",
      "note_on channel=0 note=61 velocity=76 time=0\n",
      "note_on channel=0 note=71 velocity=52 time=0\n",
      "note_off channel=0 note=72 velocity=64 time=0\n",
      "note_on channel=0 note=75 velocity=41 time=0\n",
      "note_on channel=0 note=84 velocity=29 time=0\n",
      "note_on channel=0 note=57 velocity=67 time=1\n",
      "note_off channel=0 note=67 velocity=64 time=0\n",
      "note_on channel=0 note=68 velocity=71 time=0\n",
      "note_off channel=0 note=80 velocity=64 time=0\n",
      "note_off channel=0 note=88 velocity=64 time=0\n",
      "note_off channel=0 note=90 velocity=64 time=0\n",
      "note_off channel=0 note=91 velocity=64 time=0\n",
      "note_off channel=0 note=61 velocity=64 time=1\n",
      "note_on channel=0 note=62 velocity=68 time=0\n",
      "note_off channel=0 note=71 velocity=64 time=0\n",
      "note_on channel=0 note=78 velocity=32 time=0\n",
      "note_on channel=0 note=91 velocity=45 time=0\n",
      "note_on channel=0 note=48 velocity=67 time=1\n",
      "note_off channel=0 note=49 velocity=64 time=0\n",
      "note_on channel=0 note=72 velocity=70 time=0\n",
      "note_off channel=0 note=75 velocity=64 time=0\n",
      "note_on channel=0 note=76 velocity=39 time=0\n",
      "note_off channel=0 note=77 velocity=64 time=0\n",
      "note_on channel=0 note=92 velocity=48 time=0\n",
      "note_off channel=0 note=57 velocity=64 time=1\n",
      "note_off channel=0 note=68 velocity=64 time=0\n",
      "note_off channel=0 note=78 velocity=64 time=0\n",
      "note_on channel=0 note=83 velocity=69 time=0\n",
      "note_off channel=0 note=95 velocity=64 time=0\n",
      "note_off channel=0 note=48 velocity=64 time=1\n",
      "note_on channel=0 note=71 velocity=61 time=0\n",
      "note_off channel=0 note=72 velocity=64 time=0\n",
      "note_on channel=0 note=73 velocity=34 time=0\n",
      "note_on channel=0 note=75 velocity=28 time=0\n",
      "note_on channel=0 note=77 velocity=43 time=0\n",
      "note_off channel=0 note=82 velocity=64 time=0\n",
      "note_off channel=0 note=84 velocity=64 time=0\n",
      "note_on channel=0 note=90 velocity=31 time=0\n",
      "note_on channel=0 note=58 velocity=44 time=1\n",
      "note_off channel=0 note=62 velocity=64 time=0\n",
      "note_on channel=0 note=68 velocity=44 time=0\n",
      "note_off channel=0 note=76 velocity=64 time=0\n",
      "note_off channel=0 note=93 velocity=64 time=0\n",
      "note_on channel=0 note=47 velocity=54 time=2\n",
      "note_on channel=0 note=65 velocity=43 time=0\n",
      "note_off channel=0 note=58 velocity=64 time=1\n",
      "note_off channel=0 note=73 velocity=64 time=0\n",
      "note_off channel=0 note=75 velocity=64 time=1\n",
      "note_off channel=0 note=47 velocity=64 time=2\n",
      "note_on channel=0 note=100 velocity=14 time=0\n",
      "note_on channel=0 note=47 velocity=50 time=1\n",
      "note_on channel=0 note=73 velocity=35 time=0\n",
      "note_on channel=0 note=88 velocity=32 time=0\n",
      "note_off channel=0 note=65 velocity=64 time=2\n",
      "note_on channel=0 note=87 velocity=19 time=0\n",
      "note_on channel=0 note=53 velocity=45 time=1\n",
      "note_on channel=0 note=59 velocity=51 time=0\n",
      "note_on channel=0 note=75 velocity=51 time=0\n",
      "note_on channel=0 note=81 velocity=32 time=0\n",
      "note_on channel=0 note=93 velocity=39 time=0\n",
      "note_off channel=0 note=73 velocity=64 time=1\n",
      "note_on channel=0 note=82 velocity=48 time=0\n",
      "note_on channel=0 note=84 velocity=25 time=0\n",
      "note_off channel=0 note=53 velocity=64 time=1\n",
      "note_off channel=0 note=81 velocity=64 time=0\n",
      "note_off channel=0 note=87 velocity=64 time=0\n",
      "note_off channel=0 note=90 velocity=64 time=0\n",
      "note_on channel=0 note=66 velocity=40 time=1\n",
      "note_off channel=0 note=68 velocity=64 time=0\n",
      "note_off channel=0 note=92 velocity=64 time=0\n",
      "note_on channel=0 note=53 velocity=27 time=1\n",
      "note_on channel=0 note=81 velocity=20 time=0\n",
      "note_off channel=0 note=82 velocity=64 time=0\n",
      "note_off channel=0 note=84 velocity=64 time=0\n",
      "note_on channel=0 note=90 velocity=27 time=0\n",
      "note_off channel=0 note=66 velocity=64 time=1\n",
      "note_on channel=0 note=78 velocity=15 time=0\n",
      "note_off channel=0 note=88 velocity=64 time=0\n",
      "note_off channel=0 note=77 velocity=64 time=1\n",
      "note_off channel=0 note=53 velocity=64 time=1\n",
      "note_off channel=0 note=59 velocity=64 time=0\n",
      "note_on channel=0 note=65 velocity=34 time=0\n",
      "note_off channel=0 note=90 velocity=64 time=0\n",
      "note_off channel=0 note=100 velocity=64 time=0\n",
      "note_on channel=0 note=68 velocity=38 time=1\n",
      "note_off channel=0 note=78 velocity=64 time=0\n",
      "note_on channel=0 note=90 velocity=21 time=0\n",
      "note_off channel=0 note=91 velocity=64 time=0\n",
      "note_off channel=0 note=75 velocity=64 time=1\n",
      "note_off channel=0 note=81 velocity=64 time=0\n",
      "note_on channel=0 note=89 velocity=29 time=0\n",
      "note_off channel=0 note=47 velocity=64 time=1\n",
      "note_off channel=0 note=65 velocity=64 time=0\n",
      "note_on channel=0 note=65 velocity=46 time=1\n",
      "note_on channel=0 note=67 velocity=54 time=0\n",
      "note_on channel=0 note=48 velocity=31 time=1\n",
      "note_on channel=0 note=60 velocity=63 time=0\n",
      "note_on channel=0 note=91 velocity=54 time=0\n",
      "note_off channel=0 note=93 velocity=64 time=0\n",
      "note_off channel=0 note=68 velocity=64 time=1\n",
      "note_on channel=0 note=72 velocity=67 time=0\n",
      "note_off channel=0 note=90 velocity=64 time=0\n",
      "note_on channel=0 note=92 velocity=32 time=0\n",
      "note_on channel=0 note=94 velocity=21 time=0\n",
      "note_on channel=0 note=96 velocity=28 time=0\n",
      "note_off channel=0 note=48 velocity=64 time=1\n",
      "note_on channel=0 note=64 velocity=81 time=0\n",
      "note_off channel=0 note=65 velocity=64 time=0\n",
      "note_off channel=0 note=67 velocity=64 time=0\n",
      "note_off channel=0 note=71 velocity=64 time=0\n",
      "note_on channel=0 note=88 velocity=43 time=0\n",
      "note_off channel=0 note=89 velocity=64 time=0\n",
      "note_on channel=0 note=90 velocity=57 time=0\n",
      "note_on channel=0 note=45 velocity=71 time=1\n",
      "note_off channel=0 note=60 velocity=64 time=0\n",
      "note_on channel=0 note=80 velocity=45 time=0\n",
      "note_on channel=0 note=82 velocity=45 time=0\n",
      "note_off channel=0 note=85 velocity=64 time=0\n",
      "note_off channel=0 note=92 velocity=64 time=0\n",
      "note_on channel=0 note=93 velocity=36 time=0\n",
      "note_on channel=0 note=44 velocity=79 time=1\n",
      "note_off channel=0 note=45 velocity=64 time=0\n",
      "note_on channel=0 note=63 velocity=74 time=0\n",
      "note_off channel=0 note=64 velocity=64 time=0\n",
      "note_on channel=0 note=68 velocity=56 time=0\n",
      "note_off channel=0 note=83 velocity=64 time=0\n",
      "note_on channel=0 note=85 velocity=33 time=0\n",
      "note_off channel=0 note=72 velocity=64 time=1\n",
      "note_on channel=0 note=73 velocity=67 time=0\n",
      "note_off channel=0 note=82 velocity=64 time=0\n",
      "note_on channel=0 note=83 velocity=47 time=0\n",
      "note_on channel=0 note=61 velocity=77 time=1\n",
      "note_on channel=0 note=77 velocity=41 time=0\n",
      "note_off channel=0 note=88 velocity=64 time=0\n",
      "note_on channel=0 note=89 velocity=61 time=0\n",
      "note_off channel=0 note=91 velocity=64 time=0\n",
      "note_on channel=0 note=43 velocity=78 time=1\n",
      "note_off channel=0 note=44 velocity=64 time=0\n",
      "note_off channel=0 note=63 velocity=64 time=0\n",
      "note_on channel=0 note=65 velocity=50 time=0\n",
      "note_on channel=0 note=71 velocity=31 time=0\n",
      "note_on channel=0 note=91 velocity=49 time=0\n",
      "note_off channel=0 note=94 velocity=64 time=0\n",
      "note_off channel=0 note=43 velocity=64 time=1\n",
      "note_on channel=0 note=47 velocity=78 time=0\n",
      "note_off channel=0 note=47 velocity=64 time=1\n",
      "note_on channel=0 note=48 velocity=74 time=0\n",
      "note_off channel=0 note=90 velocity=64 time=0\n",
      "note_off channel=0 note=48 velocity=64 time=1\n",
      "note_on channel=0 note=49 velocity=71 time=0\n",
      "note_off channel=0 note=93 velocity=64 time=0\n",
      "note_on channel=0 note=94 velocity=36 time=0\n",
      "note_off channel=0 note=80 velocity=64 time=2\n",
      "note_on channel=0 note=75 velocity=14 time=1\n",
      "note_on channel=0 note=93 velocity=31 time=0\n",
      "note_off channel=0 note=94 velocity=64 time=0\n",
      "note_on channel=0 note=90 velocity=57 time=1\n",
      "note_off channel=0 note=91 velocity=64 time=0\n",
      "note_off channel=0 note=71 velocity=64 time=1\n",
      "note_on channel=0 note=94 velocity=19 time=0\n",
      "note_off channel=0 note=49 velocity=64 time=1\n",
      "note_on channel=0 note=72 velocity=59 time=0\n",
      "note_off channel=0 note=73 velocity=64 time=0\n",
      "note_off channel=0 note=75 velocity=64 time=0\n",
      "note_on channel=0 note=76 velocity=29 time=0\n",
      "note_off channel=0 note=68 velocity=64 time=1\n",
      "note_on channel=0 note=75 velocity=42 time=0\n",
      "note_off channel=0 note=77 velocity=64 time=0\n",
      "note_on channel=0 note=81 velocity=35 time=0\n",
      "note_on channel=0 note=91 velocity=52 time=0\n",
      "note_off channel=0 note=65 velocity=64 time=1\n",
      "note_on channel=0 note=68 velocity=51 time=0\n",
      "note_on channel=0 note=71 velocity=54 time=0\n",
      "note_off channel=0 note=72 velocity=64 time=0\n",
      "note_off channel=0 note=76 velocity=64 time=0\n",
      "note_on channel=0 note=48 velocity=75 time=1\n",
      "note_on channel=0 note=65 velocity=53 time=0\n",
      "note_off channel=0 note=91 velocity=64 time=0\n",
      "note_off channel=0 note=61 velocity=64 time=1\n",
      "note_on channel=0 note=77 velocity=54 time=0\n",
      "note_on channel=0 note=91 velocity=41 time=0\n",
      "note_off channel=0 note=71 velocity=64 time=1\n",
      "note_on channel=0 note=72 velocity=61 time=0\n",
      "note_off channel=0 note=81 velocity=64 time=0\n",
      "note_off channel=0 note=48 velocity=64 time=1\n",
      "note_on channel=0 note=50 velocity=79 time=0\n",
      "note_off channel=0 note=85 velocity=64 time=0\n",
      "note_off channel=0 note=50 velocity=64 time=1\n",
      "note_on channel=0 note=52 velocity=78 time=0\n",
      "note_on channel=0 note=61 velocity=45 time=0\n",
      "note_off channel=0 note=68 velocity=64 time=0\n",
      "note_on channel=0 note=69 velocity=55 time=0\n",
      "note_off channel=0 note=72 velocity=64 time=0\n",
      "note_on channel=0 note=73 velocity=47 time=0\n",
      "note_off channel=0 note=75 velocity=64 time=0\n",
      "note_on channel=0 note=88 velocity=39 time=0\n",
      "note_off channel=0 note=52 velocity=64 time=1\n",
      "note_on channel=0 note=54 velocity=69 time=0\n",
      "note_off channel=0 note=90 velocity=64 time=0\n",
      "note_off channel=0 note=61 velocity=64 time=1\n",
      "note_off channel=0 note=65 velocity=64 time=0\n",
      "note_off channel=0 note=73 velocity=64 time=0\n",
      "note_off channel=0 note=93 velocity=64 time=0\n",
      "note_off channel=0 note=96 velocity=64 time=0\n",
      "note_off channel=0 note=69 velocity=64 time=1\n",
      "note_on channel=0 note=73 velocity=63 time=0\n",
      "note_off channel=0 note=88 velocity=64 time=0\n",
      "note_on channel=0 note=90 velocity=33 time=0\n",
      "note_off channel=0 note=94 velocity=64 time=0\n",
      "note_on channel=0 note=53 velocity=78 time=1\n",
      "note_off channel=0 note=54 velocity=64 time=0\n",
      "note_on channel=0 note=81 velocity=34 time=0\n",
      "note_on channel=0 note=75 velocity=31 time=1\n",
      "note_off channel=0 note=83 velocity=64 time=0\n",
      "note_on channel=0 note=66 velocity=58 time=1\n",
      "note_off channel=0 note=81 velocity=64 time=0\n",
      "note_on channel=0 note=82 velocity=59 time=0\n",
      "note_off channel=0 note=53 velocity=64 time=1\n",
      "note_on channel=0 note=54 velocity=69 time=0\n",
      "note_off channel=0 note=90 velocity=64 time=0\n",
      "note_on channel=0 note=96 velocity=25 time=0\n",
      "note_on channel=0 note=45 velocity=77 time=1\n",
      "note_off channel=0 note=66 velocity=64 time=0\n",
      "note_on channel=0 note=67 velocity=78 time=0\n",
      "note_on channel=0 note=90 velocity=32 time=0\n",
      "note_off channel=0 note=91 velocity=64 time=0\n",
      "note_on channel=0 note=95 velocity=13 time=0\n",
      "note_on channel=0 note=64 velocity=82 time=1\n",
      "note_off channel=0 note=89 velocity=64 time=0\n",
      "note_off channel=0 note=101 velocity=64 time=0\n",
      "note_off channel=0 note=75 velocity=64 time=1\n",
      "note_on channel=0 note=87 velocity=51 time=0\n",
      "note_on channel=0 note=44 velocity=78 time=1\n",
      "note_off channel=0 note=45 velocity=64 time=0\n",
      "note_on channel=0 note=63 velocity=70 time=0\n",
      "note_off channel=0 note=64 velocity=64 time=0\n",
      "note_off channel=0 note=67 velocity=64 time=0\n",
      "note_on channel=0 note=69 velocity=37 time=0\n",
      "note_on channel=0 note=91 velocity=30 time=0\n",
      "note_off channel=0 note=95 velocity=64 time=0\n",
      "note_on channel=0 note=81 velocity=49 time=1\n",
      "note_off channel=0 note=82 velocity=64 time=0\n",
      "note_on channel=0 note=84 velocity=55 time=0\n",
      "note_on channel=0 note=53 velocity=67 time=1\n",
      "note_off channel=0 note=54 velocity=64 time=0\n",
      "note_off channel=0 note=63 velocity=64 time=0\n",
      "note_on channel=0 note=68 velocity=39 time=0\n",
      "note_off channel=0 note=69 velocity=64 time=0\n",
      "note_on channel=0 note=72 velocity=62 time=0\n",
      "note_off channel=0 note=73 velocity=64 time=0\n",
      "note_on channel=0 note=80 velocity=49 time=1\n",
      "note_off channel=0 note=81 velocity=64 time=0\n",
      "note_on channel=0 note=86 velocity=57 time=0\n",
      "note_on channel=0 note=88 velocity=11 time=0\n",
      "note_off channel=0 note=90 velocity=64 time=0\n",
      "note_off channel=0 note=44 velocity=64 time=1\n",
      "note_on channel=0 note=71 velocity=59 time=0\n",
      "note_off channel=0 note=72 velocity=64 time=0\n",
      "note_on channel=0 note=76 velocity=42 time=0\n",
      "note_off channel=0 note=77 velocity=64 time=0\n",
      "note_off channel=0 note=84 velocity=64 time=0\n",
      "note_on channel=0 note=90 velocity=28 time=0\n",
      "note_on channel=0 note=93 velocity=28 time=0\n",
      "note_on channel=0 note=102 velocity=30 time=0\n",
      "note_on channel=0 note=51 velocity=69 time=1\n",
      "note_off channel=0 note=53 velocity=64 time=0\n",
      "note_off channel=0 note=68 velocity=64 time=0\n",
      "note_on channel=0 note=73 velocity=45 time=0\n",
      "note_off channel=0 note=91 velocity=64 time=0\n",
      "note_on channel=0 note=64 velocity=59 time=1\n",
      "note_off channel=0 note=76 velocity=64 time=0\n",
      "note_on channel=0 note=77 velocity=41 time=0\n",
      "note_on channel=0 note=79 velocity=36 time=0\n",
      "note_off channel=0 note=80 velocity=64 time=0\n",
      "note_off channel=0 note=88 velocity=64 time=0\n",
      "note_on channel=0 note=97 velocity=24 time=0\n",
      "note_off channel=0 note=51 velocity=64 time=1\n",
      "note_on channel=0 note=70 velocity=57 time=0\n",
      "note_off channel=0 note=71 velocity=64 time=0\n",
      "note_on channel=0 note=85 velocity=45 time=0\n",
      "note_on channel=0 note=89 velocity=72 time=0\n",
      "note_on channel=0 note=94 velocity=28 time=0\n",
      "note_on channel=0 note=43 velocity=60 time=1\n",
      "note_on channel=0 note=51 velocity=63 time=0\n",
      "note_on channel=0 note=68 velocity=20 time=0\n",
      "note_off channel=0 note=86 velocity=64 time=0\n",
      "note_off channel=0 note=90 velocity=64 time=0\n",
      "note_on channel=0 note=61 velocity=71 time=1\n",
      "note_off channel=0 note=64 velocity=64 time=0\n",
      "note_on channel=0 note=75 velocity=24 time=0\n",
      "note_on channel=0 note=80 velocity=28 time=0\n",
      "note_on channel=0 note=42 velocity=59 time=1\n",
      "note_off channel=0 note=43 velocity=64 time=0\n",
      "note_off channel=0 note=51 velocity=64 time=1\n",
      "note_on channel=0 note=51 velocity=48 time=1\n",
      "note_off channel=0 note=68 velocity=64 time=0\n",
      "note_off channel=0 note=79 velocity=64 time=0\n",
      "note_on channel=0 note=90 velocity=53 time=0\n",
      "note_off channel=0 note=94 velocity=64 time=0\n",
      "note_off channel=0 note=42 velocity=64 time=1\n",
      "note_on channel=0 note=79 velocity=29 time=0\n",
      "note_on channel=0 note=42 velocity=55 time=1\n",
      "note_off channel=0 note=51 velocity=64 time=0\n",
      "note_on channel=0 note=52 velocity=51 time=0\n",
      "note_off channel=0 note=75 velocity=64 time=0\n",
      "note_off channel=0 note=80 velocity=64 time=0\n",
      "note_off channel=0 note=79 velocity=64 time=1\n",
      "note_on channel=0 note=80 velocity=83 time=0\n",
      "note_off channel=0 note=97 velocity=64 time=0\n",
      "note_off channel=0 note=52 velocity=64 time=1\n",
      "note_off channel=0 note=102 velocity=64 time=0\n",
      "note_on channel=0 note=52 velocity=45 time=1\n",
      "note_off channel=0 note=96 velocity=64 time=0\n",
      "note_off channel=0 note=42 velocity=64 time=1\n",
      "note_off channel=0 note=85 velocity=64 time=0\n",
      "note_on channel=0 note=42 velocity=51 time=1\n",
      "note_on channel=0 note=51 velocity=43 time=1\n",
      "note_off channel=0 note=52 velocity=64 time=0\n",
      "note_off channel=0 note=90 velocity=64 time=0\n",
      "note_on channel=0 note=91 velocity=22 time=0\n",
      "note_off channel=0 note=51 velocity=64 time=3\n",
      "note_off channel=0 note=70 velocity=64 time=0\n",
      "note_on channel=0 note=71 velocity=20 time=0\n",
      "note_off channel=0 note=42 velocity=64 time=2\n",
      "note_on channel=0 note=67 velocity=45 time=1\n",
      "note_on channel=0 note=75 velocity=49 time=0\n",
      "note_on channel=0 note=81 velocity=34 time=0\n",
      "note_on channel=0 note=47 velocity=73 time=1\n",
      "note_off channel=0 note=71 velocity=64 time=0\n",
      "note_off channel=0 note=73 velocity=64 time=0\n",
      "note_off channel=0 note=77 velocity=64 time=0\n",
      "note_on channel=0 note=78 velocity=42 time=0\n",
      "note_on channel=0 note=82 velocity=49 time=0\n",
      "note_on channel=0 note=88 velocity=38 time=0\n",
      "note_on channel=0 note=95 velocity=37 time=0\n",
      "note_on channel=0 note=100 velocity=47 time=0\n",
      "note_on channel=0 note=102 velocity=26 time=0\n",
      "note_off channel=0 note=47 velocity=64 time=1\n",
      "note_on channel=0 note=48 velocity=85 time=0\n",
      "note_on channel=0 note=64 velocity=68 time=0\n",
      "note_off channel=0 note=67 velocity=64 time=0\n",
      "note_off channel=0 note=81 velocity=64 time=0\n",
      "note_off channel=0 note=91 velocity=64 time=0\n",
      "note_off channel=0 note=61 velocity=64 time=1\n",
      "note_on channel=0 note=66 velocity=70 time=0\n",
      "note_on channel=0 note=73 velocity=64 time=0\n",
      "note_off channel=0 note=75 velocity=64 time=0\n",
      "note_on channel=0 note=77 velocity=26 time=0\n",
      "note_off channel=0 note=78 velocity=64 time=0\n",
      "note_on channel=0 note=94 velocity=68 time=0\n",
      "note_on channel=0 note=96 velocity=42 time=0\n",
      "note_on channel=0 note=54 velocity=64 time=1\n",
      "note_off channel=0 note=64 velocity=64 time=0\n",
      "note_off channel=0 note=82 velocity=64 time=0\n",
      "note_on channel=0 note=83 velocity=37 time=0\n",
      "note_off channel=0 note=93 velocity=64 time=0\n",
      "note_off channel=0 note=95 velocity=64 time=0\n",
      "note_on channel=0 note=46 velocity=62 time=1\n",
      "note_off channel=0 note=48 velocity=64 time=0\n",
      "note_on channel=0 note=61 velocity=40 time=0\n",
      "note_on channel=0 note=75 velocity=12 time=0\n",
      "note_off channel=0 note=87 velocity=64 time=0\n",
      "note_on channel=0 note=82 velocity=35 time=1\n",
      "note_off channel=0 note=88 velocity=64 time=0\n",
      "note_on channel=0 note=99 velocity=20 time=0\n",
      "note_off channel=0 note=46 velocity=64 time=1\n",
      "note_on channel=0 note=71 velocity=28 time=0\n",
      "note_off channel=0 note=83 velocity=64 time=0\n",
      "note_off channel=0 note=61 velocity=64 time=1\n",
      "note_off channel=0 note=75 velocity=64 time=0\n",
      "note_off channel=0 note=82 velocity=64 time=0\n",
      "note_on channel=0 note=83 velocity=70 time=0\n",
      "note_off channel=0 note=102 velocity=64 time=0\n",
      "note_off channel=0 note=99 velocity=64 time=1\n",
      "note_on channel=0 note=61 velocity=19 time=1\n",
      "note_off channel=0 note=96 velocity=64 time=0\n",
      "note_off channel=0 note=54 velocity=64 time=1\n",
      "note_off channel=0 note=100 velocity=64 time=0\n",
      "note_on channel=0 note=44 velocity=41 time=1\n",
      "note_on channel=0 note=65 velocity=29 time=1\n",
      "note_off channel=0 note=66 velocity=64 time=0\n",
      "note_off channel=0 note=89 velocity=64 time=0\n",
      "note_off channel=0 note=94 velocity=64 time=0\n",
      "note_off channel=0 note=44 velocity=64 time=2\n",
      "note_on channel=0 note=54 velocity=35 time=0\n",
      "note_off channel=0 note=61 velocity=64 time=1\n",
      "note_off channel=0 note=54 velocity=64 time=1\n",
      "note_on channel=0 note=54 velocity=34 time=1\n",
      "note_on channel=0 note=91 velocity=21 time=1\n",
      "note_off channel=0 note=54 velocity=64 time=1\n",
      "note_on channel=0 note=54 velocity=25 time=3\n",
      "note_on channel=0 note=61 velocity=13 time=1\n",
      "note_off channel=0 note=54 velocity=64 time=2\n",
      "note_on channel=0 note=87 velocity=44 time=0\n",
      "note_on channel=0 note=89 velocity=76 time=0\n",
      "note_off channel=0 note=61 velocity=64 time=2\n",
      "note_on channel=0 note=90 velocity=38 time=0\n",
      "note_off channel=0 note=91 velocity=64 time=0\n",
      "note_off channel=0 note=71 velocity=64 time=1\n",
      "note_on channel=0 note=75 velocity=79 time=0\n",
      "note_on channel=0 note=55 velocity=72 time=1\n",
      "note_on channel=0 note=61 velocity=61 time=0\n",
      "note_off channel=0 note=65 velocity=64 time=0\n",
      "note_on channel=0 note=68 velocity=74 time=0\n",
      "note_off channel=0 note=77 velocity=64 time=0\n",
      "note_on channel=0 note=84 velocity=48 time=0\n",
      "note_on channel=0 note=91 velocity=53 time=0\n",
      "note_on channel=0 note=93 velocity=44 time=0\n",
      "note_on channel=0 note=97 velocity=23 time=0\n",
      "note_on channel=0 note=45 velocity=76 time=1\n",
      "note_off channel=0 note=73 velocity=64 time=0\n",
      "note_on channel=0 note=85 velocity=35 time=0\n",
      "note_on channel=0 note=98 velocity=20 time=0\n",
      "note_on channel=0 note=100 velocity=44 time=0\n",
      "note_on channel=0 note=78 velocity=23 time=1\n",
      "note_off channel=0 note=84 velocity=64 time=0\n",
      "note_on channel=0 note=44 velocity=76 time=1\n",
      "note_off channel=0 note=45 velocity=64 time=0\n",
      "note_on channel=0 note=63 velocity=37 time=0\n",
      "note_on channel=0 note=86 velocity=31 time=0\n",
      "note_off channel=0 note=61 velocity=64 time=1\n",
      "note_off channel=0 note=68 velocity=64 time=0\n",
      "note_off channel=0 note=87 velocity=64 time=0\n",
      "note_off channel=0 note=90 velocity=64 time=0\n",
      "note_on channel=0 note=94 velocity=44 time=0\n",
      "note_on channel=0 note=96 velocity=33 time=0\n",
      "note_off channel=0 note=98 velocity=64 time=0\n",
      "note_off channel=0 note=55 velocity=64 time=1\n",
      "note_on channel=0 note=62 velocity=38 time=0\n",
      "note_off channel=0 note=63 velocity=64 time=0\n",
      "note_on channel=0 note=68 velocity=64 time=0\n",
      "note_on channel=0 note=77 velocity=32 time=0\n",
      "note_off channel=0 note=78 velocity=64 time=0\n",
      "note_off channel=0 note=83 velocity=64 time=0\n",
      "note_on channel=0 note=84 velocity=72 time=0\n",
      "note_on channel=0 note=43 velocity=69 time=1\n",
      "note_off channel=0 note=44 velocity=64 time=0\n",
      "note_off channel=0 note=86 velocity=64 time=0\n",
      "note_off channel=0 note=89 velocity=64 time=0\n",
      "note_on channel=0 note=90 velocity=68 time=0\n",
      "note_off channel=0 note=91 velocity=64 time=0\n",
      "note_on channel=0 note=98 velocity=15 time=0\n",
      "note_off channel=0 note=77 velocity=64 time=1\n",
      "note_on channel=0 note=83 velocity=36 time=0\n",
      "note_off channel=0 note=85 velocity=64 time=0\n",
      "note_on channel=0 note=89 velocity=35 time=0\n",
      "note_off channel=0 note=93 velocity=64 time=0\n",
      "note_on channel=0 note=65 velocity=29 time=1\n",
      "note_on channel=0 note=91 velocity=45 time=0\n",
      "note_off channel=0 note=97 velocity=64 time=0\n",
      "note_off channel=0 note=100 velocity=64 time=0\n",
      "note_on channel=0 note=56 velocity=59 time=1\n",
      "note_on channel=0 note=61 velocity=34 time=0\n",
      "note_off channel=0 note=62 velocity=64 time=0\n",
      "note_off channel=0 note=80 velocity=64 time=0\n",
      "note_off channel=0 note=89 velocity=64 time=0\n",
      "note_off channel=0 note=98 velocity=64 time=0\n",
      "note_on channel=0 note=74 velocity=66 time=1\n",
      "note_off channel=0 note=75 velocity=64 time=0\n",
      "note_on channel=0 note=80 velocity=84 time=0\n",
      "note_off channel=0 note=83 velocity=64 time=0\n",
      "note_on channel=0 note=85 velocity=26 time=0\n",
      "note_on channel=0 note=100 velocity=26 time=0\n",
      "note_off channel=0 note=65 velocity=64 time=1\n",
      "note_on channel=0 note=89 velocity=70 time=0\n",
      "note_off channel=0 note=94 velocity=64 time=0\n",
      "note_on channel=0 note=95 velocity=18 time=0\n",
      "note_off channel=0 note=96 velocity=64 time=0\n",
      "note_off channel=0 note=43 velocity=64 time=1\n",
      "note_on channel=0 note=55 velocity=46 time=0\n",
      "note_off channel=0 note=56 velocity=64 time=0\n",
      "note_off channel=0 note=61 velocity=64 time=0\n",
      "note_on channel=0 note=71 velocity=16 time=0\n",
      "note_off channel=0 note=74 velocity=64 time=0\n",
      "note_on channel=0 note=75 velocity=72 time=0\n",
      "note_on channel=0 note=83 velocity=65 time=0\n",
      "note_off channel=0 note=84 velocity=64 time=0\n",
      "note_on channel=0 note=94 velocity=39 time=0\n",
      "note_off channel=0 note=55 velocity=64 time=2\n",
      "note_on channel=0 note=65 velocity=22 time=0\n",
      "note_on channel=0 note=84 velocity=51 time=0\n",
      "note_off channel=0 note=85 velocity=64 time=0\n",
      "note_off channel=0 note=95 velocity=64 time=0\n",
      "note_off channel=0 note=68 velocity=64 time=1\n",
      "note_on channel=0 note=69 velocity=52 time=0\n",
      "note_off channel=0 note=71 velocity=64 time=0\n",
      "note_on channel=0 note=76 velocity=64 time=0\n",
      "note_on channel=0 note=85 velocity=40 time=0\n",
      "note_off channel=0 note=90 velocity=64 time=0\n",
      "note_off channel=0 note=94 velocity=64 time=0\n",
      "note_on channel=0 note=58 velocity=59 time=1\n",
      "note_off channel=0 note=84 velocity=64 time=0\n",
      "note_on channel=0 note=90 velocity=56 time=0\n",
      "note_off channel=0 note=100 velocity=64 time=0\n",
      "note_on channel=0 note=71 velocity=42 time=1\n",
      "note_off channel=0 note=76 velocity=64 time=0\n",
      "note_on channel=0 note=78 velocity=61 time=0\n",
      "note_off channel=0 note=89 velocity=64 time=0\n",
      "note_off channel=0 note=91 velocity=64 time=0\n",
      "note_off channel=0 note=58 velocity=64 time=1\n",
      "note_on channel=0 note=59 velocity=54 time=0\n",
      "note_off channel=0 note=69 velocity=64 time=0\n",
      "note_on channel=0 note=86 velocity=30 time=0\n",
      "note_on channel=0 note=91 velocity=48 time=0\n",
      "note_off channel=0 note=75 velocity=64 time=2\n",
      "note_off channel=0 note=85 velocity=64 time=0\n",
      "note_on channel=0 note=89 velocity=38 time=0\n",
      "note_on channel=0 note=58 velocity=57 time=1\n",
      "note_off channel=0 note=59 velocity=64 time=0\n",
      "note_on channel=0 note=77 velocity=50 time=0\n",
      "note_on channel=0 note=84 velocity=20 time=0\n",
      "note_off channel=0 note=71 velocity=64 time=1\n",
      "note_on channel=0 note=73 velocity=48 time=0\n",
      "note_off channel=0 note=78 velocity=64 time=0\n",
      "note_off channel=0 note=86 velocity=64 time=0\n",
      "note_on channel=0 note=69 velocity=54 time=1\n",
      "note_on channel=0 note=76 velocity=68 time=0\n",
      "note_off channel=0 note=77 velocity=64 time=0\n",
      "note_on channel=0 note=57 velocity=62 time=1\n",
      "note_off channel=0 note=58 velocity=64 time=0\n",
      "note_off channel=0 note=65 velocity=64 time=0\n",
      "note_on channel=0 note=86 velocity=35 time=0\n",
      "note_off channel=0 note=89 velocity=64 time=3\n",
      "note_off channel=0 note=57 velocity=64 time=1\n",
      "note_off channel=0 note=69 velocity=64 time=0\n",
      "note_on channel=0 note=70 velocity=54 time=0\n",
      "note_off channel=0 note=86 velocity=64 time=0\n",
      "note_on channel=0 note=89 velocity=44 time=0\n",
      "note_on channel=0 note=57 velocity=56 time=1\n",
      "note_on channel=0 note=64 velocity=81 time=0\n",
      "note_off channel=0 note=76 velocity=64 time=0\n",
      "note_on channel=0 note=45 velocity=76 time=1\n",
      "note_off channel=0 note=70 velocity=64 time=0\n",
      "note_off channel=0 note=84 velocity=64 time=0\n",
      "note_off channel=0 note=89 velocity=64 time=0\n",
      "note_on channel=0 note=69 velocity=59 time=1\n",
      "note_on channel=0 note=87 velocity=30 time=0\n",
      "note_on channel=0 note=89 velocity=42 time=0\n",
      "note_off channel=0 note=90 velocity=64 time=0\n",
      "note_on channel=0 note=44 velocity=78 time=1\n",
      "note_off channel=0 note=45 velocity=64 time=0\n",
      "note_off channel=0 note=57 velocity=64 time=0\n",
      "note_on channel=0 note=63 velocity=73 time=0\n",
      "note_off channel=0 note=64 velocity=64 time=0\n",
      "note_on channel=0 note=84 velocity=31 time=0\n",
      "note_on channel=0 note=90 velocity=52 time=0\n",
      "note_on channel=0 note=57 velocity=62 time=1\n",
      "note_on channel=0 note=78 velocity=25 time=0\n",
      "note_on channel=0 note=82 velocity=28 time=0\n",
      "note_off channel=0 note=83 velocity=64 time=1\n",
      "note_off channel=0 note=84 velocity=64 time=0\n",
      "note_on channel=0 note=93 velocity=34 time=0\n",
      "note_off channel=0 note=63 velocity=64 time=1\n",
      "note_on channel=0 note=84 velocity=29 time=0\n",
      "note_off channel=0 note=91 velocity=64 time=0\n",
      "note_on channel=0 note=65 velocity=29 time=1\n",
      "note_off channel=0 note=78 velocity=64 time=0\n",
      "note_off channel=0 note=90 velocity=64 time=0\n",
      "note_on channel=0 note=91 velocity=50 time=0\n",
      "note_on channel=0 note=43 velocity=73 time=1\n",
      "note_off channel=0 note=44 velocity=64 time=0\n",
      "note_on channel=0 note=62 velocity=49 time=1\n",
      "note_on channel=0 note=102 velocity=17 time=0\n",
      "note_off channel=0 note=65 velocity=64 time=1\n",
      "note_on channel=0 note=83 velocity=48 time=0\n",
      "note_on channel=0 note=42 velocity=59 time=1\n",
      "note_off channel=0 note=43 velocity=64 time=0\n",
      "note_on channel=0 note=65 velocity=37 time=0\n",
      "note_on channel=0 note=86 velocity=18 time=0\n",
      "note_on channel=0 note=61 velocity=60 time=1\n",
      "note_off channel=0 note=62 velocity=64 time=0\n",
      "note_off channel=0 note=82 velocity=64 time=0\n",
      "note_on channel=0 note=56 velocity=59 time=1\n",
      "note_off channel=0 note=57 velocity=64 time=0\n",
      "note_on channel=0 note=75 velocity=46 time=0\n",
      "note_off channel=0 note=93 velocity=64 time=0\n",
      "note_off channel=0 note=42 velocity=64 time=1\n",
      "note_on channel=0 note=68 velocity=68 time=0\n",
      "note_off channel=0 note=69 velocity=64 time=0\n",
      "note_on channel=0 note=71 velocity=51 time=0\n",
      "note_off channel=0 note=86 velocity=64 time=0\n",
      "note_on channel=0 note=47 velocity=66 time=1\n",
      "note_on channel=0 note=86 velocity=16 time=0\n",
      "note_on channel=0 note=88 velocity=36 time=0\n",
      "note_on channel=0 note=94 velocity=24 time=0\n",
      "note_off channel=0 note=47 velocity=64 time=1\n",
      "note_on channel=0 note=48 velocity=66 time=0\n",
      "note_off channel=0 note=84 velocity=64 time=0\n",
      "note_off channel=0 note=91 velocity=64 time=0\n",
      "note_off channel=0 note=102 velocity=64 time=0\n",
      "note_on channel=0 note=55 velocity=60 time=1\n",
      "note_off channel=0 note=56 velocity=64 time=0\n",
      "note_on channel=0 note=47 velocity=72 time=1\n",
      "note_off channel=0 note=48 velocity=64 time=0\n",
      "note_on channel=0 note=84 velocity=32 time=0\n",
      "note_off channel=0 note=47 velocity=64 time=1\n",
      "note_on channel=0 note=48 velocity=68 time=0\n",
      "note_off channel=0 note=55 velocity=64 time=0\n",
      "note_off channel=0 note=65 velocity=64 time=0\n",
      "note_off channel=0 note=89 velocity=64 time=0\n",
      "note_on channel=0 note=102 velocity=21 time=0\n",
      "note_off channel=0 note=48 velocity=64 time=1\n",
      "note_on channel=0 note=49 velocity=68 time=0\n",
      "note_on channel=0 note=65 velocity=37 time=0\n",
      "note_off channel=0 note=49 velocity=64 time=1\n",
      "note_on channel=0 note=50 velocity=76 time=0\n",
      "note_off channel=0 note=50 velocity=64 time=1\n",
      "note_on channel=0 note=53 velocity=70 time=0\n",
      "note_off channel=0 note=65 velocity=64 time=0\n",
      "note_off channel=0 note=53 velocity=64 time=1\n",
      "note_off channel=0 note=61 velocity=64 time=0\n",
      "note_off channel=0 note=86 velocity=64 time=0\n",
      "note_on channel=0 note=61 velocity=28 time=1\n",
      "note_off channel=0 note=102 velocity=64 time=0\n",
      "note_off channel=0 note=94 velocity=64 time=1\n",
      "note_on channel=0 note=67 velocity=55 time=1\n",
      "note_off channel=0 note=68 velocity=64 time=0\n",
      "note_on channel=0 note=54 velocity=66 time=1\n",
      "note_off channel=0 note=54 velocity=64 time=1\n",
      "note_on channel=0 note=55 velocity=67 time=0\n",
      "note_on channel=0 note=65 velocity=72 time=0\n",
      "note_off channel=0 note=61 velocity=64 time=1\n",
      "note_off channel=0 note=67 velocity=64 time=0\n",
      "note_off channel=0 note=75 velocity=64 time=1\n",
      "note_on channel=0 note=82 velocity=45 time=0\n",
      "note_off channel=0 note=87 velocity=64 time=0\n",
      "note_on channel=0 note=90 velocity=33 time=0\n",
      "note_on channel=0 note=45 velocity=77 time=1\n",
      "note_on channel=0 note=64 velocity=82 time=0\n",
      "note_off channel=0 note=65 velocity=64 time=0\n",
      "note_off channel=0 note=83 velocity=64 time=0\n",
      "note_on channel=0 note=63 velocity=75 time=1\n",
      "note_off channel=0 note=64 velocity=64 time=0\n",
      "note_on channel=0 note=68 velocity=79 time=0\n",
      "note_off channel=0 note=82 velocity=64 time=0\n",
      "note_on channel=0 note=44 velocity=78 time=1\n",
      "note_off channel=0 note=45 velocity=64 time=0\n",
      "note_on channel=0 note=87 velocity=16 time=0\n",
      "note_on channel=0 note=96 velocity=33 time=1\n",
      "note_on channel=0 note=97 velocity=13 time=0\n",
      "note_off channel=0 note=55 velocity=64 time=1\n",
      "note_off channel=0 note=44 velocity=64 time=1\n",
      "note_on channel=0 note=45 velocity=74 time=0\n",
      "note_on channel=0 note=61 velocity=64 time=0\n",
      "note_off channel=0 note=63 velocity=64 time=0\n",
      "note_on channel=0 note=65 velocity=41 time=0\n",
      "note_on channel=0 note=82 velocity=38 time=0\n",
      "note_on channel=0 note=103 velocity=12 time=0\n",
      "note_on channel=0 note=44 velocity=70 time=2\n",
      "note_off channel=0 note=45 velocity=64 time=0\n",
      "note_off channel=0 note=73 velocity=64 time=0\n",
      "note_off channel=0 note=88 velocity=64 time=0\n",
      "note_off channel=0 note=97 velocity=64 time=1\n",
      "note_on channel=0 note=98 velocity=25 time=0\n",
      "note_off channel=0 note=44 velocity=64 time=1\n",
      "note_off channel=0 note=65 velocity=64 time=0\n",
      "note_off channel=0 note=84 velocity=64 time=0\n",
      "note_on channel=0 note=65 velocity=33 time=1\n",
      "note_on channel=0 note=75 velocity=16 time=0\n",
      "note_off channel=0 note=87 velocity=64 time=0\n",
      "note_on channel=0 note=99 velocity=10 time=0\n",
      "note_on channel=0 note=43 velocity=62 time=1\n",
      "note_on channel=0 note=88 velocity=20 time=0\n",
      "note_on channel=0 note=95 velocity=50 time=1\n",
      "note_off channel=0 note=98 velocity=64 time=0\n",
      "note_off channel=0 note=103 velocity=64 time=0\n",
      "note_off channel=0 note=43 velocity=64 time=1\n",
      "note_on channel=0 note=98 velocity=27 time=0\n",
      "note_off channel=0 note=99 velocity=64 time=0\n",
      "note_on channel=0 note=48 velocity=67 time=1\n",
      "note_on channel=0 note=85 velocity=40 time=0\n",
      "note_off channel=0 note=75 velocity=64 time=1\n",
      "note_off channel=0 note=88 velocity=64 time=0\n",
      "note_on channel=0 note=101 velocity=30 time=0\n",
      "note_on channel=0 note=47 velocity=72 time=1\n",
      "note_off channel=0 note=48 velocity=64 time=0\n",
      "note_on channel=0 note=55 velocity=48 time=0\n",
      "note_off channel=0 note=65 velocity=64 time=0\n",
      "note_off channel=0 note=82 velocity=64 time=0\n",
      "note_on channel=0 note=88 velocity=23 time=0\n",
      "note_on channel=0 note=65 velocity=30 time=1\n",
      "note_on channel=0 note=100 velocity=25 time=0\n",
      "note_off channel=0 note=101 velocity=64 time=0\n",
      "note_off channel=0 note=47 velocity=64 time=1\n",
      "note_on channel=0 note=48 velocity=67 time=0\n",
      "note_off channel=0 note=55 velocity=64 time=0\n",
      "note_on channel=0 note=87 velocity=35 time=0\n",
      "note_off channel=0 note=48 velocity=64 time=1\n",
      "note_on channel=0 note=50 velocity=76 time=0\n",
      "note_on channel=0 note=75 velocity=10 time=0\n",
      "note_on channel=0 note=84 velocity=35 time=0\n",
      "note_off channel=0 note=50 velocity=64 time=1\n",
      "note_on channel=0 note=53 velocity=74 time=0\n",
      "note_off channel=0 note=98 velocity=64 time=0\n",
      "note_off channel=0 note=53 velocity=64 time=2\n",
      "note_off channel=0 note=88 velocity=64 time=0\n",
      "note_on channel=0 note=88 velocity=19 time=1\n",
      "note_on channel=0 note=53 velocity=57 time=1\n",
      "note_on channel=0 note=56 velocity=52 time=0\n",
      "note_off channel=0 note=61 velocity=64 time=0\n",
      "note_off channel=0 note=75 velocity=64 time=1\n",
      "note_off channel=0 note=53 velocity=64 time=1\n",
      "note_on channel=0 note=55 velocity=54 time=0\n",
      "note_off channel=0 note=56 velocity=64 time=0\n",
      "note_on channel=0 note=45 velocity=52 time=1\n",
      "note_on channel=0 note=75 velocity=51 time=0\n",
      "note_off channel=0 note=55 velocity=64 time=1\n",
      "note_off channel=0 note=65 velocity=64 time=0\n",
      "note_off channel=0 note=88 velocity=64 time=0\n",
      "note_on channel=0 note=89 velocity=71 time=0\n",
      "note_on channel=0 note=91 velocity=19 time=0\n",
      "note_off channel=0 note=100 velocity=64 time=0\n",
      "note_off channel=0 note=45 velocity=64 time=1\n",
      "note_on channel=0 note=48 velocity=89 time=0\n",
      "note_on channel=0 note=93 velocity=15 time=0\n",
      "note_on channel=0 note=77 velocity=35 time=1\n",
      "note_on channel=0 note=56 velocity=49 time=1\n",
      "note_on channel=0 note=63 velocity=48 time=0\n",
      "note_on channel=0 note=73 velocity=29 time=0\n",
      "note_on channel=0 note=46 velocity=66 time=1\n",
      "note_off channel=0 note=48 velocity=64 time=0\n",
      "note_off channel=0 note=90 velocity=64 time=0\n",
      "note_off channel=0 note=91 velocity=64 time=0\n",
      "note_off channel=0 note=46 velocity=64 time=2\n",
      "note_on channel=0 note=48 velocity=67 time=0\n",
      "note_off channel=0 note=63 velocity=64 time=0\n",
      "note_on channel=0 note=65 velocity=42 time=0\n",
      "note_on channel=0 note=82 velocity=42 time=1\n",
      "note_on channel=0 note=45 velocity=58 time=1\n",
      "note_off channel=0 note=48 velocity=64 time=0\n",
      "note_on channel=0 note=88 velocity=41 time=0\n",
      "note_off channel=0 note=96 velocity=64 time=1\n",
      "note_off channel=0 note=85 velocity=64 time=1\n",
      "note_off channel=0 note=89 velocity=64 time=0\n",
      "note_on channel=0 note=90 velocity=21 time=1\n",
      "note_on channel=0 note=44 velocity=50 time=1\n",
      "note_off channel=0 note=45 velocity=64 time=0\n",
      "note_off channel=0 note=56 velocity=64 time=1\n",
      "note_off channel=0 note=77 velocity=64 time=0\n",
      "note_off channel=0 note=87 velocity=64 time=0\n",
      "note_off channel=0 note=44 velocity=64 time=1\n",
      "note_on channel=0 note=56 velocity=35 time=0\n",
      "note_on channel=0 note=44 velocity=42 time=1\n",
      "note_off channel=0 note=56 velocity=64 time=1\n",
      "note_off channel=0 note=84 velocity=64 time=0\n",
      "note_off channel=0 note=44 velocity=64 time=1\n",
      "note_on channel=0 note=56 velocity=40 time=0\n",
      "note_on channel=0 note=42 velocity=26 time=1\n",
      "note_off channel=0 note=82 velocity=64 time=0\n",
      "note_on channel=0 note=82 velocity=44 time=1\n",
      "note_off channel=0 note=56 velocity=64 time=1\n",
      "note_off channel=0 note=42 velocity=64 time=1\n",
      "note_on channel=0 note=56 velocity=35 time=0\n",
      "note_on channel=0 note=84 velocity=40 time=0\n",
      "note_on channel=0 note=43 velocity=23 time=2\n",
      "note_off channel=0 note=56 velocity=64 time=0\n",
      "note_off channel=0 note=82 velocity=64 time=0\n",
      "note_on channel=0 note=56 velocity=37 time=1\n",
      "note_on channel=0 note=82 velocity=42 time=0\n",
      "note_off channel=0 note=43 velocity=64 time=2\n",
      "note_off channel=0 note=56 velocity=64 time=0\n",
      "note_on channel=0 note=56 velocity=47 time=1\n",
      "note_off channel=0 note=93 velocity=64 time=0\n",
      "note_off channel=0 note=82 velocity=64 time=1\n",
      "note_on channel=0 note=61 velocity=51 time=1\n",
      "note_off channel=0 note=65 velocity=64 time=0\n",
      "note_off channel=0 note=73 velocity=64 time=0\n",
      "note_on channel=0 note=89 velocity=70 time=0\n",
      "note_off channel=0 note=88 velocity=64 time=1\n",
      "note_off channel=0 note=90 velocity=64 time=0\n",
      "note_on channel=0 note=91 velocity=23 time=0\n",
      "note_on channel=0 note=45 velocity=76 time=1\n",
      "note_off channel=0 note=61 velocity=64 time=0\n",
      "note_on channel=0 note=77 velocity=34 time=0\n",
      "note_on channel=0 note=85 velocity=30 time=0\n",
      "note_on channel=0 note=90 velocity=29 time=0\n",
      "note_on channel=0 note=44 velocity=77 time=1\n",
      "note_off channel=0 note=45 velocity=64 time=0\n",
      "note_on channel=0 note=61 velocity=45 time=0\n",
      "note_off channel=0 note=77 velocity=64 time=1\n",
      "note_off channel=0 note=90 velocity=64 time=0\n",
      "note_off channel=0 note=91 velocity=64 time=1\n",
      "note_off channel=0 note=95 velocity=64 time=0\n",
      "note_on channel=0 note=43 velocity=74 time=1\n",
      "note_off channel=0 note=44 velocity=64 time=0\n",
      "note_on channel=0 note=65 velocity=77 time=0\n",
      "note_on channel=0 note=90 velocity=34 time=0\n",
      "note_off channel=0 note=61 velocity=64 time=1\n",
      "note_on channel=0 note=62 velocity=33 time=0\n",
      "note_on channel=0 note=88 velocity=37 time=2\n",
      "note_on channel=0 note=93 velocity=24 time=0\n",
      "note_off channel=0 note=62 velocity=64 time=1\n",
      "note_on channel=0 note=82 velocity=34 time=0\n",
      "note_off channel=0 note=89 velocity=64 time=0\n",
      "note_off channel=0 note=43 velocity=64 time=2\n",
      "note_off channel=0 note=84 velocity=64 time=2\n",
      "note_off channel=0 note=85 velocity=64 time=1\n",
      "note_off channel=0 note=56 velocity=64 time=1\n",
      "note_off channel=0 note=75 velocity=64 time=0\n",
      "note_on channel=0 note=91 velocity=29 time=1\n",
      "note_on channel=0 note=56 velocity=31 time=2\n",
      "note_on channel=0 note=45 velocity=11 time=1\n",
      "note_off channel=0 note=56 velocity=64 time=2\n",
      "note_off channel=0 note=82 velocity=64 time=0\n",
      "note_off channel=0 note=45 velocity=64 time=1\n",
      "note_on channel=0 note=56 velocity=15 time=0\n",
      "note_off channel=0 note=91 velocity=64 time=0\n",
      "note_on channel=0 note=91 velocity=33 time=1\n",
      "note_on channel=0 note=82 velocity=39 time=2\n",
      "note_off channel=0 note=91 velocity=64 time=0\n",
      "note_off channel=0 note=56 velocity=64 time=1\n",
      "note_off channel=0 note=71 velocity=64 time=0\n",
      "note_on channel=0 note=73 velocity=35 time=0\n",
      "note_on channel=0 note=91 velocity=33 time=0\n",
      "note_on channel=0 note=61 velocity=34 time=1\n",
      "note_on channel=0 note=83 velocity=43 time=0\n",
      "note_off channel=0 note=88 velocity=64 time=0\n",
      "note_on channel=0 note=75 velocity=30 time=1\n",
      "note_off channel=0 note=82 velocity=64 time=0\n",
      "note_on channel=0 note=88 velocity=42 time=0\n",
      "note_off channel=0 note=91 velocity=64 time=0\n",
      "note_off channel=0 note=61 velocity=64 time=1\n",
      "note_off channel=0 note=68 velocity=64 time=0\n",
      "note_off channel=0 note=90 velocity=64 time=0\n",
      "note_on channel=0 note=91 velocity=32 time=0\n",
      "note_on channel=0 note=45 velocity=76 time=1\n",
      "note_on channel=0 note=64 velocity=84 time=0\n",
      "note_off channel=0 note=65 velocity=64 time=0\n",
      "note_on channel=0 note=82 velocity=41 time=0\n",
      "note_on channel=0 note=87 velocity=52 time=0\n",
      "note_off channel=0 note=88 velocity=64 time=0\n",
      "note_off channel=0 note=83 velocity=64 time=1\n",
      "note_on channel=0 note=44 velocity=79 time=1\n",
      "note_off channel=0 note=45 velocity=64 time=0\n",
      "note_on channel=0 note=55 velocity=38 time=0\n",
      "note_on channel=0 note=63 velocity=69 time=0\n",
      "note_off channel=0 note=64 velocity=64 time=0\n",
      "note_on channel=0 note=69 velocity=30 time=0\n",
      "note_on channel=0 note=90 velocity=38 time=0\n",
      "note_off channel=0 note=63 velocity=64 time=1\n",
      "note_on channel=0 note=65 velocity=64 time=0\n",
      "note_off channel=0 note=91 velocity=64 time=0\n",
      "note_off channel=0 note=55 velocity=64 time=1\n",
      "note_on channel=0 note=68 velocity=30 time=0\n",
      "note_off channel=0 note=69 velocity=64 time=0\n",
      "note_on channel=0 note=61 velocity=44 time=1\n",
      "note_off channel=0 note=44 velocity=64 time=1\n",
      "note_off channel=0 note=68 velocity=64 time=0\n",
      "note_on channel=0 note=71 velocity=14 time=0\n",
      "note_on channel=0 note=91 velocity=34 time=0\n",
      "note_off channel=0 note=61 velocity=64 time=2\n",
      "note_on channel=0 note=68 velocity=29 time=0\n",
      "note_off channel=0 note=91 velocity=64 time=0\n",
      "note_on channel=0 note=61 velocity=65 time=1\n",
      "note_on channel=0 note=42 velocity=53 time=2\n",
      "note_on channel=0 note=91 velocity=30 time=0\n",
      "note_off channel=0 note=42 velocity=64 time=2\n",
      "note_off channel=0 note=91 velocity=64 time=0\n",
      "note_on channel=0 note=47 velocity=70 time=1\n",
      "note_off channel=0 note=71 velocity=64 time=0\n",
      "note_on channel=0 note=88 velocity=29 time=0\n",
      "note_on channel=0 note=71 velocity=15 time=1\n",
      "note_on channel=0 note=91 velocity=25 time=1\n",
      "note_off channel=0 note=47 velocity=64 time=1\n",
      "note_on channel=0 note=48 velocity=71 time=0\n",
      "note_off channel=0 note=61 velocity=64 time=1\n",
      "note_on channel=0 note=62 velocity=30 time=0\n",
      "note_off channel=0 note=48 velocity=64 time=1\n",
      "note_on channel=0 note=50 velocity=78 time=0\n",
      "note_off channel=0 note=50 velocity=64 time=1\n",
      "note_on channel=0 note=53 velocity=74 time=0\n",
      "note_off channel=0 note=62 velocity=64 time=0\n",
      "note_off channel=0 note=91 velocity=64 time=0\n",
      "note_off channel=0 note=53 velocity=64 time=3\n",
      "note_on channel=0 note=61 velocity=27 time=0\n",
      "note_off channel=0 note=68 velocity=64 time=0\n",
      "note_on channel=0 note=83 velocity=29 time=0\n",
      "note_on channel=0 note=89 velocity=46 time=0\n",
      "note_on channel=0 note=91 velocity=28 time=0\n",
      "note_on channel=0 note=53 velocity=58 time=1\n",
      "note_off channel=0 note=88 velocity=64 time=0\n",
      "note_off channel=0 note=82 velocity=64 time=1\n",
      "note_on channel=0 note=82 velocity=35 time=1\n",
      "note_off channel=0 note=73 velocity=64 time=1\n",
      "note_on channel=0 note=74 velocity=27 time=0\n",
      "note_off channel=0 note=83 velocity=64 time=0\n",
      "note_off channel=0 note=53 velocity=64 time=1\n",
      "note_off channel=0 note=61 velocity=64 time=0\n",
      "note_on channel=0 note=64 velocity=82 time=0\n",
      "note_off channel=0 note=65 velocity=64 time=0\n",
      "note_off channel=0 note=71 velocity=64 time=0\n",
      "note_off channel=0 note=75 velocity=64 time=0\n",
      "note_off channel=0 note=91 velocity=64 time=0\n",
      "note_on channel=0 note=95 velocity=15 time=0\n",
      "note_on channel=0 note=45 velocity=78 time=1\n",
      "note_on channel=0 note=67 velocity=65 time=0\n",
      "note_on channel=0 note=71 velocity=27 time=0\n",
      "note_on channel=0 note=75 velocity=25 time=0\n",
      "note_off channel=0 note=82 velocity=64 time=1\n",
      "note_on channel=0 note=44 velocity=79 time=1\n",
      "note_off channel=0 note=45 velocity=64 time=0\n",
      "note_on channel=0 note=63 velocity=71 time=0\n",
      "note_off channel=0 note=64 velocity=64 time=0\n",
      "note_off channel=0 note=67 velocity=64 time=0\n",
      "note_on channel=0 note=82 velocity=35 time=0\n",
      "note_off channel=0 note=71 velocity=64 time=1\n",
      "note_on channel=0 note=73 velocity=31 time=0\n",
      "note_off channel=0 note=74 velocity=64 time=0\n",
      "note_on channel=0 note=77 velocity=26 time=0\n",
      "note_on channel=0 note=91 velocity=30 time=0\n",
      "note_off channel=0 note=95 velocity=64 time=0\n",
      "note_on channel=0 note=62 velocity=45 time=1\n",
      "note_off channel=0 note=63 velocity=64 time=0\n",
      "note_off channel=0 note=82 velocity=64 time=0\n",
      "note_on channel=0 note=83 velocity=33 time=0\n",
      "note_off channel=0 note=75 velocity=64 time=1\n",
      "note_off channel=0 note=44 velocity=64 time=1\n",
      "note_on channel=0 note=61 velocity=39 time=0\n",
      "note_off channel=0 note=62 velocity=64 time=0\n",
      "note_on channel=0 note=71 velocity=31 time=1\n",
      "note_off channel=0 note=90 velocity=64 time=0\n",
      "note_off channel=0 note=61 velocity=64 time=1\n",
      "note_off channel=0 note=80 velocity=64 time=0\n",
      "note_on channel=0 note=90 velocity=13 time=0\n",
      "note_on channel=0 note=42 velocity=60 time=1\n",
      "note_on channel=0 note=61 velocity=62 time=0\n",
      "note_on channel=0 note=82 velocity=26 time=1\n",
      "note_off channel=0 note=42 velocity=64 time=1\n",
      "note_on channel=0 note=80 velocity=84 time=0\n",
      "note_off channel=0 note=83 velocity=64 time=0\n",
      "note_off channel=0 note=90 velocity=64 time=4\n",
      "note_on channel=0 note=48 velocity=73 time=1\n",
      "note_off channel=0 note=93 velocity=64 time=0\n",
      "note_on channel=0 note=47 velocity=75 time=1\n",
      "note_off channel=0 note=48 velocity=64 time=0\n",
      "note_off channel=0 note=47 velocity=64 time=1\n",
      "note_on channel=0 note=48 velocity=70 time=0\n",
      "note_on channel=0 note=65 velocity=30 time=0\n",
      "note_off channel=0 note=48 velocity=64 time=1\n",
      "note_on channel=0 note=49 velocity=76 time=0\n",
      "note_off channel=0 note=49 velocity=64 time=1\n",
      "note_on channel=0 note=52 velocity=76 time=0\n",
      "note_off channel=0 note=52 velocity=64 time=1\n",
      "note_on channel=0 note=53 velocity=67 time=0\n",
      "note_off channel=0 note=82 velocity=64 time=1\n",
      "note_off channel=0 note=53 velocity=64 time=1\n",
      "note_off channel=0 note=61 velocity=64 time=0\n",
      "note_on channel=0 note=53 velocity=59 time=1\n",
      "note_off channel=0 note=89 velocity=64 time=1\n",
      "note_off channel=0 note=91 velocity=64 time=0\n",
      "note_on channel=0 note=83 velocity=35 time=1\n",
      "note_off channel=0 note=53 velocity=64 time=2\n",
      "note_off channel=0 note=73 velocity=64 time=0\n",
      "note_on channel=0 note=75 velocity=42 time=0\n",
      "note_on channel=0 note=88 velocity=33 time=0\n",
      "note_on channel=0 note=89 velocity=71 time=0\n",
      "note_on channel=0 note=90 velocity=19 time=0\n",
      "note_on channel=0 note=95 velocity=38 time=0\n",
      "note_on channel=0 note=48 velocity=88 time=1\n",
      "note_on channel=0 note=64 velocity=56 time=0\n",
      "note_off channel=0 note=65 velocity=64 time=0\n",
      "note_off channel=0 note=77 velocity=64 time=0\n",
      "note_on channel=0 note=85 velocity=36 time=0\n",
      "note_on channel=0 note=66 velocity=54 time=1\n",
      "note_off channel=0 note=75 velocity=64 time=0\n",
      "note_on channel=0 note=82 velocity=39 time=0\n",
      "note_off channel=0 note=83 velocity=64 time=0\n",
      "note_off channel=0 note=88 velocity=64 time=0\n",
      "note_on channel=0 note=63 velocity=49 time=1\n",
      "note_off channel=0 note=64 velocity=64 time=0\n",
      "note_on channel=0 note=73 velocity=38 time=0\n",
      "note_on channel=0 note=77 velocity=78 time=0\n",
      "note_on channel=0 note=47 velocity=72 time=1\n",
      "note_off channel=0 note=48 velocity=64 time=0\n",
      "note_off channel=0 note=66 velocity=64 time=0\n",
      "note_off channel=0 note=90 velocity=64 time=0\n",
      "note_off channel=0 note=47 velocity=64 time=1\n",
      "note_off channel=0 note=63 velocity=64 time=0\n",
      "note_on channel=0 note=65 velocity=52 time=0\n",
      "note_on channel=0 note=68 velocity=26 time=0\n",
      "note_off channel=0 note=95 velocity=64 time=0\n",
      "note_on channel=0 note=47 velocity=68 time=1\n",
      "note_on channel=0 note=91 velocity=34 time=0\n",
      "note_off channel=0 note=47 velocity=64 time=1\n",
      "note_on channel=0 note=83 velocity=44 time=0\n",
      "note_off channel=0 note=82 velocity=64 time=1\n",
      "note_on channel=0 note=45 velocity=61 time=2\n",
      "note_on channel=0 note=61 velocity=29 time=1\n",
      "note_on channel=0 note=44 velocity=48 time=1\n",
      "note_off channel=0 note=45 velocity=64 time=0\n",
      "note_off channel=0 note=85 velocity=64 time=0\n",
      "note_off channel=0 note=68 velocity=64 time=1\n",
      "note_on channel=0 note=90 velocity=31 time=0\n",
      "note_off channel=0 note=91 velocity=64 time=0\n",
      "note_on channel=0 note=95 velocity=46 time=0\n",
      "note_off channel=0 note=44 velocity=64 time=1\n",
      "note_on channel=0 note=53 velocity=66 time=0\n",
      "note_off channel=0 note=71 velocity=64 time=0\n",
      "note_on channel=0 note=72 velocity=85 time=0\n",
      "note_off channel=0 note=73 velocity=64 time=0\n",
      "note_on channel=0 note=91 velocity=66 time=0\n",
      "note_on channel=0 note=93 velocity=47 time=0\n",
      "note_on channel=0 note=96 velocity=40 time=0\n",
      "note_on channel=0 note=98 velocity=47 time=0\n",
      "note_on channel=0 note=100 velocity=33 time=0\n",
      "note_on channel=0 note=102 velocity=36 time=0\n",
      "note_on channel=0 note=44 velocity=43 time=1\n",
      "note_on channel=0 note=68 velocity=27 time=0\n",
      "note_on channel=0 note=81 velocity=25 time=0\n",
      "note_off channel=0 note=90 velocity=64 time=0\n",
      "note_on channel=0 note=85 velocity=28 time=1\n",
      "note_off channel=0 note=44 velocity=64 time=1\n",
      "note_off channel=0 note=65 velocity=64 time=1\n",
      "note_on channel=0 note=66 velocity=51 time=0\n",
      "note_off channel=0 note=81 velocity=64 time=0\n",
      "note_on channel=0 note=44 velocity=33 time=1\n",
      "note_off channel=0 note=61 velocity=64 time=0\n",
      "note_off channel=0 note=68 velocity=64 time=0\n",
      "note_on channel=0 note=75 velocity=19 time=0\n",
      "note_off channel=0 note=85 velocity=64 time=0\n",
      "note_on channel=0 note=97 velocity=26 time=0\n",
      "note_off channel=0 note=102 velocity=64 time=0\n",
      "note_on channel=0 note=85 velocity=43 time=1\n",
      "note_off channel=0 note=44 velocity=64 time=1\n",
      "note_on channel=0 note=52 velocity=54 time=0\n",
      "note_off channel=0 note=53 velocity=64 time=0\n",
      "note_on channel=0 note=65 velocity=51 time=0\n",
      "note_off channel=0 note=66 velocity=64 time=0\n",
      "note_on channel=0 note=73 velocity=55 time=0\n",
      "note_off channel=0 note=95 velocity=64 time=0\n",
      "note_off channel=0 note=100 velocity=64 time=0\n",
      "note_on channel=0 note=61 velocity=27 time=1\n",
      "note_on channel=0 note=68 velocity=20 time=0\n",
      "note_off channel=0 note=72 velocity=64 time=0\n",
      "note_on channel=0 note=90 velocity=34 time=0\n",
      "note_off channel=0 note=97 velocity=64 time=0\n",
      "note_off channel=0 note=89 velocity=64 time=1\n",
      "note_off channel=0 note=93 velocity=64 time=0\n",
      "note_on channel=0 note=44 velocity=32 time=1\n",
      "note_on channel=0 note=71 velocity=32 time=0\n",
      "note_off channel=0 note=90 velocity=64 time=0\n",
      "note_on channel=0 note=93 velocity=53 time=0\n",
      "note_off channel=0 note=96 velocity=64 time=0\n",
      "note_on channel=0 note=90 velocity=77 time=1\n",
      "note_off channel=0 note=44 velocity=64 time=1\n",
      "note_off channel=0 note=52 velocity=64 time=0\n",
      "note_off channel=0 note=68 velocity=64 time=0\n",
      "note_on channel=0 note=97 velocity=54 time=0\n",
      "note_off channel=0 note=61 velocity=64 time=1\n",
      "note_on channel=0 note=67 velocity=74 time=0\n",
      "note_off channel=0 note=75 velocity=64 time=0\n",
      "note_on channel=0 note=94 velocity=53 time=0\n",
      "note_on channel=0 note=96 velocity=51 time=0\n",
      "note_on channel=0 note=100 velocity=69 time=0\n",
      "note_on channel=0 note=54 velocity=66 time=1\n",
      "note_off channel=0 note=65 velocity=64 time=0\n",
      "note_off channel=0 note=71 velocity=64 time=0\n",
      "note_off channel=0 note=73 velocity=64 time=0\n",
      "note_on channel=0 note=74 velocity=74 time=0\n",
      "note_on channel=0 note=78 velocity=64 time=0\n",
      "note_on channel=0 note=88 velocity=34 time=0\n",
      "note_off channel=0 note=91 velocity=64 time=0\n",
      "note_off channel=0 note=93 velocity=64 time=0\n",
      "note_on channel=0 note=61 velocity=54 time=1\n",
      "note_on channel=0 note=46 velocity=68 time=1\n",
      "note_on channel=0 note=66 velocity=71 time=0\n",
      "note_off channel=0 note=67 velocity=64 time=0\n",
      "note_on channel=0 note=69 velocity=42 time=0\n",
      "note_on channel=0 note=73 velocity=86 time=0\n",
      "note_off channel=0 note=74 velocity=64 time=0\n",
      "note_off channel=0 note=77 velocity=64 time=0\n",
      "note_on channel=0 note=82 velocity=52 time=0\n",
      "note_off channel=0 note=83 velocity=64 time=0\n",
      "note_off channel=0 note=88 velocity=64 time=0\n",
      "note_on channel=0 note=103 velocity=47 time=0\n",
      "note_on channel=0 note=84 velocity=40 time=1\n",
      "note_on channel=0 note=95 velocity=51 time=0\n",
      "note_on channel=0 note=45 velocity=75 time=1\n",
      "note_off channel=0 note=46 velocity=64 time=0\n",
      "note_on channel=0 note=83 velocity=43 time=0\n",
      "note_on channel=0 note=44 velocity=76 time=1\n",
      "note_off channel=0 note=45 velocity=64 time=0\n",
      "note_on channel=0 note=53 velocity=63 time=0\n",
      "note_off channel=0 note=54 velocity=64 time=0\n",
      "note_off channel=0 note=66 velocity=64 time=0\n",
      "note_on channel=0 note=75 velocity=33 time=0\n",
      "note_on channel=0 note=77 velocity=87 time=0\n",
      "note_off channel=0 note=78 velocity=64 time=0\n",
      "note_on channel=0 note=93 velocity=53 time=0\n",
      "note_off channel=0 note=94 velocity=64 time=0\n",
      "note_off channel=0 note=61 velocity=64 time=1\n",
      "note_on channel=0 note=66 velocity=57 time=0\n",
      "note_off channel=0 note=69 velocity=64 time=0\n",
      "note_on channel=0 note=72 velocity=86 time=0\n",
      "note_off channel=0 note=73 velocity=64 time=0\n",
      "note_off channel=0 note=84 velocity=64 time=0\n",
      "note_on channel=0 note=91 velocity=78 time=0\n",
      "note_off channel=0 note=103 velocity=64 time=0\n",
      "note_on channel=0 note=43 velocity=71 time=1\n",
      "note_off channel=0 note=44 velocity=64 time=0\n",
      "note_off channel=0 note=66 velocity=64 time=1\n",
      "note_off channel=0 note=75 velocity=64 time=0\n",
      "note_off channel=0 note=90 velocity=64 time=0\n",
      "note_on channel=0 note=94 velocity=52 time=0\n",
      "note_off channel=0 note=95 velocity=64 time=0\n",
      "note_on channel=0 note=61 velocity=39 time=1\n",
      "note_off channel=0 note=82 velocity=64 time=0\n",
      "note_on channel=0 note=95 velocity=54 time=0\n",
      "note_on channel=0 note=92 velocity=89 time=1\n",
      "note_off channel=0 note=93 velocity=64 time=0\n",
      "note_on channel=0 note=52 velocity=72 time=1\n",
      "note_off channel=0 note=53 velocity=64 time=0\n",
      "note_on channel=0 note=76 velocity=77 time=0\n",
      "note_off channel=0 note=77 velocity=64 time=0\n",
      "note_off channel=0 note=61 velocity=64 time=1\n",
      "note_on channel=0 note=71 velocity=72 time=0\n",
      "note_off channel=0 note=72 velocity=64 time=0\n",
      "note_on channel=0 note=90 velocity=69 time=0\n",
      "note_off channel=0 note=96 velocity=64 time=0\n",
      "note_on channel=0 note=89 velocity=53 time=1\n",
      "note_off channel=0 note=91 velocity=64 time=0\n",
      "note_off channel=0 note=43 velocity=64 time=1\n",
      "note_on channel=0 note=73 velocity=24 time=0\n",
      "note_off channel=0 note=85 velocity=64 time=0\n",
      "note_on channel=0 note=86 velocity=29 time=0\n",
      "note_on channel=0 note=93 velocity=52 time=0\n",
      "note_off channel=0 note=94 velocity=64 time=0\n",
      "note_on channel=0 note=96 velocity=39 time=0\n",
      "note_off channel=0 note=97 velocity=64 time=0\n",
      "note_on channel=0 note=91 velocity=43 time=1\n",
      "note_off channel=0 note=73 velocity=64 time=2\n",
      "note_on channel=0 note=85 velocity=24 time=0\n",
      "note_off channel=0 note=86 velocity=64 time=0\n",
      "note_on channel=0 note=73 velocity=30 time=1\n",
      "note_off channel=0 note=91 velocity=64 time=0\n",
      "note_off channel=0 note=90 velocity=64 time=1\n",
      "note_on channel=0 note=91 velocity=50 time=0\n",
      "note_off channel=0 note=93 velocity=64 time=0\n",
      "note_on channel=0 note=94 velocity=38 time=0\n",
      "note_off channel=0 note=96 velocity=64 time=0\n",
      "note_on channel=0 note=97 velocity=31 time=0\n",
      "note_on channel=0 note=65 velocity=54 time=1\n",
      "note_off channel=0 note=71 velocity=64 time=0\n",
      "note_on channel=0 note=72 velocity=88 time=0\n",
      "note_off channel=0 note=73 velocity=64 time=0\n",
      "note_on channel=0 note=90 velocity=38 time=0\n",
      "note_on channel=0 note=96 velocity=60 time=0\n",
      "note_off channel=0 note=52 velocity=64 time=1\n",
      "note_on channel=0 note=53 velocity=71 time=0\n",
      "note_on channel=0 note=93 velocity=58 time=0\n",
      "note_off channel=0 note=94 velocity=64 time=0\n",
      "note_off channel=0 note=97 velocity=64 time=0\n",
      "note_off channel=0 note=90 velocity=64 time=1\n",
      "note_off channel=0 note=65 velocity=64 time=1\n",
      "note_off channel=0 note=76 velocity=64 time=0\n",
      "note_on channel=0 note=90 velocity=55 time=0\n",
      "note_on channel=0 note=94 velocity=62 time=0\n",
      "note_on channel=0 note=61 velocity=21 time=1\n",
      "note_on channel=0 note=66 velocity=71 time=0\n",
      "note_on channel=0 note=97 velocity=50 time=0\n",
      "note_off channel=0 note=53 velocity=64 time=1\n",
      "note_on channel=0 note=54 velocity=62 time=0\n",
      "note_on channel=0 note=71 velocity=41 time=0\n",
      "note_off channel=0 note=72 velocity=64 time=0\n",
      "note_off channel=0 note=85 velocity=64 time=0\n",
      "note_off channel=0 note=93 velocity=64 time=0\n",
      "note_off channel=0 note=66 velocity=64 time=1\n",
      "note_on channel=0 note=67 velocity=74 time=0\n",
      "note_on channel=0 note=74 velocity=78 time=0\n",
      "note_on channel=0 note=85 velocity=44 time=0\n",
      "note_off channel=0 note=91 velocity=64 time=0\n",
      "note_off channel=0 note=95 velocity=64 time=0\n",
      "note_on channel=0 note=66 velocity=73 time=1\n",
      "note_off channel=0 note=67 velocity=64 time=0\n",
      "note_off channel=0 note=71 velocity=64 time=0\n",
      "note_on channel=0 note=82 velocity=66 time=0\n",
      "note_off channel=0 note=83 velocity=64 time=0\n",
      "note_on channel=0 note=88 velocity=22 time=0\n",
      "note_off channel=0 note=98 velocity=64 time=0\n",
      "note_on channel=0 note=71 velocity=33 time=1\n",
      "note_on channel=0 note=73 velocity=88 time=0\n",
      "note_off channel=0 note=74 velocity=64 time=0\n",
      "note_off channel=0 note=71 velocity=64 time=2\n",
      "note_off channel=0 note=88 velocity=64 time=0\n",
      "note_on channel=0 note=103 velocity=49 time=0\n",
      "note_off channel=0 note=61 velocity=64 time=1\n",
      "note_on channel=0 note=62 velocity=87 time=0\n",
      "note_on channel=0 note=95 velocity=50 time=0\n",
      "note_off channel=0 note=96 velocity=64 time=0\n",
      "note_on channel=0 note=98 velocity=53 time=0\n",
      "note_off channel=0 note=66 velocity=64 time=1\n",
      "note_on channel=0 note=75 velocity=41 time=0\n",
      "note_off channel=0 note=62 velocity=64 time=1\n",
      "note_on channel=0 note=63 velocity=93 time=0\n",
      "note_off channel=0 note=82 velocity=64 time=0\n",
      "note_on channel=0 note=83 velocity=57 time=0\n",
      "note_on channel=0 note=70 velocity=40 time=1\n",
      "note_off channel=0 note=75 velocity=64 time=0\n",
      "note_on channel=0 note=78 velocity=33 time=0\n",
      "note_off channel=0 note=89 velocity=64 time=0\n",
      "note_off channel=0 note=95 velocity=64 time=0\n",
      "note_on channel=0 note=96 velocity=47 time=0\n",
      "note_on channel=0 note=82 velocity=45 time=1\n",
      "note_off channel=0 note=70 velocity=64 time=1\n",
      "note_on channel=0 note=71 velocity=46 time=0\n",
      "note_off channel=0 note=83 velocity=64 time=0\n",
      "note_on channel=0 note=88 velocity=23 time=1\n",
      "note_off channel=0 note=98 velocity=64 time=0\n",
      "note_off channel=0 note=78 velocity=64 time=1\n",
      "note_off channel=0 note=87 velocity=64 time=0\n",
      "note_off channel=0 note=71 velocity=64 time=1\n",
      "note_on channel=0 note=78 velocity=21 time=0\n",
      "note_off channel=0 note=82 velocity=64 time=0\n",
      "note_on channel=0 note=83 velocity=44 time=0\n",
      "note_on channel=0 note=53 velocity=66 time=1\n",
      "note_off channel=0 note=54 velocity=64 time=0\n",
      "note_on channel=0 note=71 velocity=48 time=0\n",
      "note_on channel=0 note=72 velocity=38 time=0\n",
      "note_off channel=0 note=97 velocity=64 time=0\n",
      "note_off channel=0 note=103 velocity=64 time=0\n",
      "note_on channel=0 note=66 velocity=58 time=1\n",
      "note_off channel=0 note=73 velocity=64 time=0\n",
      "note_on channel=0 note=91 velocity=42 time=0\n",
      "note_off channel=0 note=94 velocity=64 time=0\n",
      "note_off channel=0 note=72 velocity=64 time=1\n",
      "note_on channel=0 note=73 velocity=73 time=0\n",
      "note_off channel=0 note=78 velocity=64 time=0\n",
      "note_on channel=0 note=82 velocity=54 time=1\n",
      "note_off channel=0 note=88 velocity=64 time=0\n",
      "note_off channel=0 note=90 velocity=64 time=0\n",
      "note_on channel=0 note=102 velocity=50 time=0\n",
      "note_off channel=0 note=53 velocity=64 time=1\n",
      "note_on channel=0 note=54 velocity=62 time=0\n",
      "note_on channel=0 note=90 velocity=79 time=0\n",
      "note_off channel=0 note=91 velocity=64 time=0\n",
      "note_on channel=0 note=98 velocity=25 time=0\n",
      "note_on channel=0 note=101 velocity=57 time=0\n",
      "note_on channel=0 note=88 velocity=60 time=1\n",
      "note_off channel=0 note=83 velocity=64 time=1\n",
      "note_off channel=0 note=85 velocity=64 time=0\n",
      "note_on channel=0 note=89 velocity=16 time=0\n",
      "note_on channel=0 note=77 velocity=25 time=1\n",
      "note_off channel=0 note=98 velocity=64 time=0\n",
      "note_on channel=0 note=98 velocity=22 time=2\n",
      "note_on channel=0 note=103 velocity=39 time=0\n",
      "note_on channel=0 note=95 velocity=35 time=1\n",
      "note_off channel=0 note=96 velocity=64 time=0\n",
      "note_off channel=0 note=77 velocity=64 time=1\n",
      "note_off channel=0 note=66 velocity=64 time=2\n",
      "note_off channel=0 note=88 velocity=64 time=0\n",
      "note_on channel=0 note=88 velocity=74 time=1\n",
      "note_off channel=0 note=89 velocity=64 time=0\n",
      "note_on channel=0 note=96 velocity=30 time=2\n",
      "note_off channel=0 note=103 velocity=64 time=0\n",
      "note_off channel=0 note=95 velocity=64 time=1\n",
      "note_off channel=0 note=54 velocity=64 time=1\n",
      "note_on channel=0 note=55 velocity=61 time=0\n",
      "note_on channel=0 note=67 velocity=65 time=0\n",
      "note_off channel=0 note=73 velocity=64 time=0\n",
      "note_on channel=0 note=74 velocity=66 time=0\n",
      "note_on channel=0 note=91 velocity=53 time=0\n",
      "note_off channel=0 note=98 velocity=64 time=0\n",
      "note_on channel=0 note=99 velocity=15 time=0\n",
      "note_on channel=0 note=83 velocity=64 time=1\n",
      "note_on channel=0 note=84 velocity=56 time=0\n",
      "note_on channel=0 note=87 velocity=40 time=0\n",
      "note_off channel=0 note=74 velocity=64 time=1\n",
      "note_on channel=0 note=89 velocity=68 time=0\n",
      "note_off channel=0 note=90 velocity=64 time=0\n",
      "note_off channel=0 note=55 velocity=64 time=1\n",
      "note_on channel=0 note=56 velocity=69 time=0\n",
      "note_on channel=0 note=62 velocity=79 time=0\n",
      "note_off channel=0 note=63 velocity=64 time=0\n",
      "note_off channel=0 note=67 velocity=64 time=0\n",
      "note_off channel=0 note=71 velocity=64 time=0\n",
      "note_on channel=0 note=72 velocity=45 time=0\n",
      "note_on channel=0 note=76 velocity=61 time=0\n",
      "note_on channel=0 note=79 velocity=49 time=0\n",
      "note_off channel=0 note=82 velocity=64 time=0\n",
      "note_on channel=0 note=90 velocity=51 time=0\n",
      "note_off channel=0 note=56 velocity=64 time=1\n",
      "note_on channel=0 note=57 velocity=67 time=0\n",
      "note_on channel=0 note=69 velocity=71 time=0\n",
      "note_on channel=0 note=82 velocity=62 time=0\n",
      "note_off channel=0 note=83 velocity=64 time=0\n",
      "note_on channel=0 note=85 velocity=50 time=0\n",
      "note_off channel=0 note=87 velocity=64 time=0\n",
      "note_on channel=0 note=93 velocity=29 time=0\n",
      "note_on channel=0 note=49 velocity=29 time=1\n",
      "note_off channel=0 note=62 velocity=64 time=0\n",
      "note_on channel=0 note=63 velocity=84 time=0\n",
      "note_off channel=0 note=72 velocity=64 time=0\n",
      "note_off channel=0 note=76 velocity=64 time=0\n",
      "note_on channel=0 note=77 velocity=68 time=0\n",
      "note_off channel=0 note=89 velocity=64 time=0\n",
      "note_off channel=0 note=92 velocity=64 time=0\n",
      "note_off channel=0 note=99 velocity=64 time=0\n",
      "note_off channel=0 note=57 velocity=64 time=1\n",
      "note_off channel=0 note=69 velocity=64 time=0\n",
      "note_on channel=0 note=70 velocity=68 time=0\n",
      "note_off channel=0 note=84 velocity=64 time=0\n",
      "note_on channel=0 note=87 velocity=44 time=0\n",
      "note_off channel=0 note=90 velocity=64 time=0\n",
      "note_off channel=0 note=93 velocity=64 time=0\n",
      "note_on channel=0 note=68 velocity=38 time=1\n",
      "note_off channel=0 note=70 velocity=64 time=0\n",
      "note_on channel=0 note=71 velocity=62 time=0\n",
      "note_off channel=0 note=82 velocity=64 time=0\n",
      "note_on channel=0 note=83 velocity=62 time=0\n",
      "note_on channel=0 note=90 velocity=64 time=0\n",
      "note_off channel=0 note=49 velocity=64 time=1\n",
      "note_on channel=0 note=59 velocity=55 time=0\n",
      "note_off channel=0 note=79 velocity=64 time=0\n",
      "note_on channel=0 note=82 velocity=42 time=0\n",
      "note_on channel=0 note=93 velocity=33 time=0\n",
      "note_off channel=0 note=96 velocity=64 time=0\n",
      "note_off channel=0 note=100 velocity=64 time=0\n",
      "note_on channel=0 note=86 velocity=36 time=1\n",
      "note_off channel=0 note=59 velocity=64 time=1\n",
      "note_on channel=0 note=70 velocity=73 time=0\n",
      "note_off channel=0 note=71 velocity=64 time=0\n",
      "note_off channel=0 note=82 velocity=64 time=0\n",
      "note_on channel=0 note=59 velocity=57 time=1\n",
      "note_on channel=0 note=78 velocity=38 time=0\n",
      "note_off channel=0 note=85 velocity=64 time=0\n",
      "note_off channel=0 note=101 velocity=64 time=0\n",
      "note_off channel=0 note=77 velocity=64 time=1\n",
      "note_off channel=0 note=93 velocity=64 time=0\n",
      "note_on channel=0 note=58 velocity=56 time=1\n",
      "note_off channel=0 note=59 velocity=64 time=0\n",
      "note_off channel=0 note=68 velocity=64 time=0\n",
      "note_on channel=0 note=77 velocity=77 time=0\n",
      "note_off channel=0 note=78 velocity=64 time=0\n",
      "note_off channel=0 note=83 velocity=64 time=0\n",
      "note_off channel=0 note=88 velocity=64 time=0\n",
      "note_on channel=0 note=96 velocity=25 time=0\n",
      "note_on channel=0 note=84 velocity=17 time=1\n",
      "note_off channel=0 note=87 velocity=64 time=0\n",
      "note_off channel=0 note=90 velocity=64 time=0\n",
      "note_on channel=0 note=73 velocity=24 time=1\n",
      "note_on channel=0 note=95 velocity=35 time=0\n",
      "note_on channel=0 note=57 velocity=57 time=1\n",
      "note_off channel=0 note=58 velocity=64 time=0\n",
      "note_on channel=0 note=69 velocity=74 time=0\n",
      "note_off channel=0 note=70 velocity=64 time=0\n"
     ]
    },
    {
     "name": "stdout",
     "output_type": "stream",
     "text": [
      "note_on channel=0 note=85 velocity=41 time=0\n",
      "note_on channel=0 note=88 velocity=69 time=0\n",
      "note_off channel=0 note=96 velocity=64 time=0\n",
      "note_on channel=0 note=76 velocity=78 time=1\n",
      "note_off channel=0 note=77 velocity=64 time=0\n",
      "note_off channel=0 note=80 velocity=64 time=0\n",
      "note_on channel=0 note=87 velocity=36 time=0\n",
      "note_on channel=0 note=80 velocity=88 time=1\n",
      "note_off channel=0 note=86 velocity=64 time=0\n",
      "note_on channel=0 note=89 velocity=40 time=0\n",
      "note_off channel=0 note=69 velocity=64 time=2\n",
      "note_on channel=0 note=70 velocity=71 time=0\n",
      "note_off channel=0 note=76 velocity=64 time=0\n",
      "note_on channel=0 note=77 velocity=76 time=0\n",
      "note_off channel=0 note=89 velocity=64 time=0\n",
      "note_on channel=0 note=101 velocity=19 time=0\n",
      "note_off channel=0 note=57 velocity=64 time=1\n",
      "note_on channel=0 note=86 velocity=26 time=0\n",
      "note_off channel=0 note=95 velocity=64 time=0\n",
      "note_off channel=0 note=102 velocity=64 time=0\n",
      "note_on channel=0 note=59 velocity=55 time=1\n",
      "note_off channel=0 note=84 velocity=64 time=0\n",
      "note_off channel=0 note=88 velocity=64 time=0\n",
      "note_on channel=0 note=90 velocity=71 time=0\n",
      "note_on channel=0 note=93 velocity=39 time=0\n",
      "note_on channel=0 note=95 velocity=24 time=0\n",
      "note_off channel=0 note=70 velocity=64 time=1\n",
      "note_on channel=0 note=83 velocity=59 time=0\n",
      "note_off channel=0 note=91 velocity=64 time=0\n",
      "note_off channel=0 note=73 velocity=64 time=1\n",
      "note_on channel=0 note=78 velocity=56 time=0\n",
      "note_off channel=0 note=85 velocity=64 time=0\n",
      "note_on channel=0 note=72 velocity=42 time=1\n",
      "note_off channel=0 note=77 velocity=64 time=0\n",
      "note_on channel=0 note=89 velocity=40 time=0\n",
      "note_off channel=0 note=93 velocity=64 time=1\n",
      "note_off channel=0 note=101 velocity=64 time=0\n",
      "note_on channel=0 note=58 velocity=61 time=1\n",
      "note_off channel=0 note=59 velocity=64 time=0\n",
      "note_on channel=0 note=70 velocity=69 time=0\n",
      "note_off channel=0 note=72 velocity=64 time=0\n",
      "note_on channel=0 note=84 velocity=28 time=0\n",
      "note_off channel=0 note=95 velocity=64 time=0\n",
      "note_on channel=0 note=77 velocity=76 time=1\n",
      "note_off channel=0 note=78 velocity=64 time=0\n",
      "note_off channel=0 note=83 velocity=64 time=0\n",
      "note_on channel=0 note=88 velocity=62 time=0\n",
      "note_off channel=0 note=89 velocity=64 time=1\n",
      "note_on channel=0 note=91 velocity=55 time=0\n",
      "note_on channel=0 note=57 velocity=59 time=1\n",
      "note_off channel=0 note=58 velocity=64 time=0\n",
      "note_on channel=0 note=69 velocity=70 time=0\n",
      "note_off channel=0 note=70 velocity=64 time=0\n",
      "note_on channel=0 note=85 velocity=66 time=0\n",
      "note_off channel=0 note=69 velocity=64 time=1\n",
      "note_on channel=0 note=70 velocity=72 time=0\n",
      "note_on channel=0 note=76 velocity=74 time=0\n",
      "note_off channel=0 note=77 velocity=64 time=0\n",
      "note_on channel=0 note=89 velocity=77 time=0\n",
      "note_on channel=0 note=95 velocity=48 time=0\n",
      "note_on channel=0 note=69 velocity=71 time=1\n",
      "note_off channel=0 note=70 velocity=64 time=0\n",
      "note_on channel=0 note=73 velocity=43 time=0\n",
      "note_on channel=0 note=82 velocity=43 time=0\n",
      "note_off channel=0 note=86 velocity=64 time=0\n",
      "note_off channel=0 note=90 velocity=64 time=0\n",
      "note_on channel=0 note=83 velocity=35 time=1\n",
      "note_off channel=0 note=88 velocity=64 time=0\n",
      "note_off channel=0 note=82 velocity=64 time=1\n",
      "note_on channel=0 note=71 velocity=45 time=2\n",
      "note_on channel=0 note=78 velocity=17 time=1\n",
      "note_off channel=0 note=84 velocity=64 time=0\n",
      "note_on channel=0 note=90 velocity=54 time=0\n",
      "note_off channel=0 note=57 velocity=64 time=1\n",
      "note_off channel=0 note=63 velocity=64 time=0\n",
      "note_on channel=0 note=65 velocity=53 time=0\n",
      "note_on channel=0 note=82 velocity=36 time=0\n",
      "note_off channel=0 note=83 velocity=64 time=0\n",
      "note_on channel=0 note=84 velocity=30 time=0\n",
      "note_off channel=0 note=87 velocity=64 time=0\n",
      "note_off channel=0 note=95 velocity=64 time=0\n",
      "note_on channel=0 note=57 velocity=64 time=1\n",
      "note_on channel=0 note=87 velocity=37 time=0\n",
      "note_on channel=0 note=95 velocity=10 time=0\n",
      "note_off channel=0 note=78 velocity=64 time=1\n",
      "note_off channel=0 note=84 velocity=64 time=0\n",
      "note_off channel=0 note=89 velocity=64 time=0\n",
      "note_off channel=0 note=91 velocity=64 time=0\n",
      "note_on channel=0 note=93 velocity=24 time=0\n",
      "note_off channel=0 note=71 velocity=64 time=1\n",
      "note_off channel=0 note=82 velocity=64 time=0\n",
      "note_off channel=0 note=87 velocity=64 time=0\n",
      "note_on channel=0 note=91 velocity=31 time=0\n",
      "note_on channel=0 note=82 velocity=50 time=1\n",
      "note_on channel=0 note=71 velocity=52 time=1\n",
      "note_on channel=0 note=78 velocity=34 time=0\n",
      "note_on channel=0 note=84 velocity=22 time=0\n",
      "note_off channel=0 note=95 velocity=64 time=0\n",
      "note_off channel=0 note=57 velocity=64 time=2\n",
      "note_on channel=0 note=58 velocity=61 time=0\n",
      "note_off channel=0 note=69 velocity=64 time=0\n",
      "note_on channel=0 note=89 velocity=40 time=0\n",
      "note_off channel=0 note=91 velocity=64 time=0\n",
      "note_off channel=0 note=93 velocity=64 time=0\n",
      "note_off channel=0 note=71 velocity=64 time=1\n",
      "note_on channel=0 note=75 velocity=17 time=2\n",
      "note_off channel=0 note=76 velocity=64 time=0\n",
      "note_off channel=0 note=89 velocity=64 time=0\n",
      "note_on channel=0 note=57 velocity=65 time=1\n",
      "note_off channel=0 note=58 velocity=64 time=0\n",
      "note_on channel=0 note=81 velocity=61 time=0\n",
      "note_off channel=0 note=82 velocity=64 time=0\n",
      "note_on channel=0 note=69 velocity=79 time=1\n",
      "note_on channel=0 note=82 velocity=42 time=0\n",
      "note_off channel=0 note=75 velocity=64 time=1\n",
      "note_on channel=0 note=76 velocity=70 time=0\n",
      "note_off channel=0 note=80 velocity=64 time=0\n",
      "note_on channel=0 note=91 velocity=15 time=0\n",
      "note_off channel=0 note=82 velocity=64 time=1\n",
      "note_off channel=0 note=84 velocity=64 time=0\n",
      "note_on channel=0 note=82 velocity=31 time=1\n",
      "note_off channel=0 note=91 velocity=64 time=1\n",
      "note_off channel=0 note=82 velocity=64 time=1\n",
      "note_on channel=0 note=95 velocity=29 time=0\n",
      "note_on channel=0 note=71 velocity=32 time=1\n",
      "note_on channel=0 note=82 velocity=34 time=0\n",
      "note_on channel=0 note=91 velocity=39 time=0\n",
      "note_on channel=0 note=89 velocity=51 time=1\n",
      "note_off channel=0 note=71 velocity=64 time=1\n",
      "note_on channel=0 note=71 velocity=31 time=1\n",
      "note_on channel=0 note=87 velocity=62 time=0\n",
      "note_off channel=0 note=57 velocity=64 time=2\n",
      "note_off channel=0 note=71 velocity=64 time=0\n",
      "note_on channel=0 note=79 velocity=48 time=0\n",
      "note_off channel=0 note=82 velocity=64 time=0\n",
      "note_on channel=0 note=83 velocity=44 time=0\n",
      "note_off channel=0 note=90 velocity=64 time=0\n",
      "note_on channel=0 note=96 velocity=22 time=0\n",
      "note_on channel=0 note=53 velocity=64 time=1\n",
      "note_on channel=0 note=61 velocity=78 time=0\n",
      "note_off channel=0 note=65 velocity=64 time=0\n",
      "note_off channel=0 note=78 velocity=64 time=0\n",
      "note_on channel=0 note=90 velocity=50 time=0\n",
      "note_off channel=0 note=91 velocity=64 time=0\n",
      "note_off channel=0 note=73 velocity=64 time=1\n",
      "note_off channel=0 note=79 velocity=64 time=0\n",
      "note_off channel=0 note=53 velocity=64 time=1\n",
      "note_on channel=0 note=57 velocity=64 time=0\n",
      "note_off channel=0 note=96 velocity=64 time=0\n",
      "note_off channel=0 note=61 velocity=64 time=1\n",
      "note_on channel=0 note=62 velocity=63 time=0\n",
      "note_off channel=0 note=89 velocity=64 time=0\n",
      "note_on channel=0 note=91 velocity=42 time=0\n",
      "note_on channel=0 note=65 velocity=59 time=1\n",
      "note_off channel=0 note=62 velocity=64 time=1\n",
      "note_off channel=0 note=57 velocity=64 time=1\n",
      "note_on channel=0 note=58 velocity=61 time=0\n",
      "note_on channel=0 note=89 velocity=49 time=0\n",
      "note_off channel=0 note=69 velocity=64 time=1\n",
      "note_off channel=0 note=76 velocity=64 time=0\n",
      "note_on channel=0 note=77 velocity=64 time=0\n",
      "note_on channel=0 note=82 velocity=55 time=0\n",
      "note_off channel=0 note=83 velocity=64 time=0\n",
      "note_on channel=0 note=49 velocity=22 time=1\n",
      "note_off channel=0 note=81 velocity=64 time=0\n",
      "note_off channel=0 note=85 velocity=64 time=0\n",
      "note_on channel=0 note=86 velocity=37 time=0\n",
      "note_off channel=0 note=58 velocity=64 time=1\n",
      "note_on channel=0 note=72 velocity=76 time=0\n",
      "note_on channel=0 note=83 velocity=69 time=0\n",
      "note_on channel=0 note=85 velocity=40 time=0\n",
      "note_on channel=0 note=60 velocity=63 time=1\n",
      "note_on channel=0 note=79 velocity=35 time=0\n",
      "note_off channel=0 note=83 velocity=64 time=0\n",
      "note_off channel=0 note=86 velocity=64 time=0\n",
      "note_off channel=0 note=49 velocity=64 time=1\n",
      "note_on channel=0 note=75 velocity=47 time=0\n",
      "note_on channel=0 note=80 velocity=57 time=0\n",
      "note_off channel=0 note=82 velocity=64 time=0\n",
      "note_on channel=0 note=83 velocity=48 time=0\n",
      "note_off channel=0 note=85 velocity=64 time=0\n",
      "note_off channel=0 note=79 velocity=64 time=1\n",
      "note_on channel=0 note=85 velocity=79 time=0\n",
      "note_off channel=0 note=60 velocity=64 time=1\n",
      "note_on channel=0 note=61 velocity=66 time=0\n",
      "note_on channel=0 note=70 velocity=38 time=0\n",
      "note_off channel=0 note=72 velocity=64 time=0\n",
      "note_on channel=0 note=73 velocity=75 time=0\n",
      "note_on channel=0 note=82 velocity=66 time=0\n",
      "note_off channel=0 note=83 velocity=64 time=0\n",
      "note_on channel=0 note=60 velocity=67 time=1\n",
      "note_off channel=0 note=61 velocity=64 time=0\n",
      "note_off channel=0 note=77 velocity=64 time=0\n",
      "note_on channel=0 note=84 velocity=49 time=0\n",
      "note_on channel=0 note=53 velocity=43 time=1\n",
      "note_off channel=0 note=60 velocity=64 time=0\n",
      "note_on channel=0 note=61 velocity=71 time=0\n",
      "note_off channel=0 note=70 velocity=64 time=0\n",
      "note_on channel=0 note=78 velocity=35 time=0\n",
      "note_off channel=0 note=84 velocity=64 time=1\n",
      "note_on channel=0 note=88 velocity=46 time=0\n",
      "note_off channel=0 note=89 velocity=64 time=0\n",
      "note_off channel=0 note=53 velocity=64 time=1\n",
      "note_on channel=0 note=54 velocity=29 time=0\n",
      "note_on channel=0 note=60 velocity=68 time=0\n",
      "note_off channel=0 note=61 velocity=64 time=0\n",
      "note_on channel=0 note=72 velocity=75 time=0\n",
      "note_off channel=0 note=73 velocity=64 time=0\n",
      "note_off channel=0 note=78 velocity=64 time=0\n",
      "note_off channel=0 note=85 velocity=64 time=0\n",
      "note_on channel=0 note=89 velocity=41 time=0\n",
      "note_on channel=0 note=68 velocity=38 time=1\n",
      "note_off channel=0 note=75 velocity=64 time=0\n",
      "note_on channel=0 note=93 velocity=18 time=0\n",
      "note_on channel=0 note=59 velocity=55 time=1\n",
      "note_off channel=0 note=60 velocity=64 time=0\n",
      "note_on channel=0 note=75 velocity=16 time=0\n",
      "note_on channel=0 note=78 velocity=46 time=0\n",
      "note_on channel=0 note=85 velocity=40 time=0\n",
      "note_off channel=0 note=88 velocity=64 time=0\n",
      "note_off channel=0 note=54 velocity=64 time=1\n",
      "note_on channel=0 note=71 velocity=73 time=0\n",
      "note_off channel=0 note=72 velocity=64 time=0\n",
      "note_off channel=0 note=91 velocity=64 time=1\n",
      "note_off channel=0 note=59 velocity=64 time=1\n",
      "note_on channel=0 note=60 velocity=61 time=0\n",
      "note_off channel=0 note=71 velocity=64 time=1\n",
      "note_on channel=0 note=72 velocity=78 time=0\n",
      "note_off channel=0 note=82 velocity=64 time=0\n",
      "note_off channel=0 note=85 velocity=64 time=0\n",
      "note_on channel=0 note=88 velocity=44 time=0\n",
      "note_on channel=0 note=91 velocity=47 time=0\n",
      "note_off channel=0 note=78 velocity=64 time=1\n",
      "note_on channel=0 note=82 velocity=44 time=0\n",
      "note_on channel=0 note=85 velocity=56 time=0\n",
      "note_off channel=0 note=89 velocity=64 time=0\n",
      "note_off channel=0 note=88 velocity=64 time=1\n",
      "note_on channel=0 note=89 velocity=57 time=0\n",
      "note_off channel=0 note=91 velocity=64 time=0\n",
      "note_off channel=0 note=93 velocity=64 time=0\n",
      "note_off channel=0 note=60 velocity=64 time=1\n",
      "note_on channel=0 note=61 velocity=84 time=0\n",
      "note_off channel=0 note=72 velocity=64 time=0\n",
      "note_off channel=0 note=75 velocity=64 time=0\n",
      "note_on channel=0 note=79 velocity=31 time=0\n",
      "note_on channel=0 note=83 velocity=56 time=0\n",
      "note_on channel=0 note=88 velocity=34 time=0\n",
      "note_off channel=0 note=90 velocity=64 time=0\n",
      "note_on channel=0 note=93 velocity=24 time=0\n",
      "note_off channel=0 note=80 velocity=64 time=1\n",
      "note_on channel=0 note=81 velocity=50 time=0\n",
      "note_off channel=0 note=87 velocity=64 time=0\n",
      "note_on channel=0 note=72 velocity=44 time=1\n",
      "note_on channel=0 note=74 velocity=57 time=0\n",
      "note_off channel=0 note=82 velocity=64 time=0\n",
      "note_off channel=0 note=89 velocity=64 time=0\n",
      "note_on channel=0 note=90 velocity=56 time=0\n",
      "note_on channel=0 note=91 velocity=42 time=0\n",
      "note_off channel=0 note=65 velocity=64 time=1\n",
      "note_off channel=0 note=68 velocity=64 time=0\n",
      "note_off channel=0 note=79 velocity=64 time=0\n",
      "note_on channel=0 note=80 velocity=54 time=0\n",
      "note_off channel=0 note=81 velocity=64 time=0\n",
      "note_on channel=0 note=89 velocity=42 time=0\n",
      "note_on channel=0 note=45 velocity=77 time=1\n",
      "note_on channel=0 note=64 velocity=83 time=0\n",
      "note_on channel=0 note=67 velocity=61 time=0\n",
      "note_off channel=0 note=72 velocity=64 time=0\n",
      "note_off channel=0 note=74 velocity=64 time=0\n",
      "note_on channel=0 note=77 velocity=39 time=0\n",
      "note_on channel=0 note=44 velocity=78 time=2\n",
      "note_off channel=0 note=45 velocity=64 time=0\n",
      "note_on channel=0 note=55 velocity=42 time=0\n",
      "note_off channel=0 note=61 velocity=64 time=0\n",
      "note_on channel=0 note=63 velocity=76 time=0\n",
      "note_off channel=0 note=64 velocity=64 time=0\n",
      "note_off channel=0 note=67 velocity=64 time=0\n",
      "note_on channel=0 note=72 velocity=72 time=0\n",
      "note_off channel=0 note=89 velocity=64 time=0\n",
      "note_on channel=0 note=59 velocity=56 time=1\n",
      "note_on channel=0 note=73 velocity=50 time=0\n",
      "note_off channel=0 note=83 velocity=64 time=0\n",
      "note_on channel=0 note=87 velocity=44 time=0\n",
      "note_on channel=0 note=89 velocity=53 time=0\n",
      "note_off channel=0 note=90 velocity=64 time=0\n",
      "note_off channel=0 note=55 velocity=64 time=1\n",
      "note_off channel=0 note=63 velocity=64 time=0\n",
      "note_on channel=0 note=68 velocity=38 time=0\n",
      "note_on channel=0 note=71 velocity=69 time=0\n",
      "note_off channel=0 note=72 velocity=64 time=0\n",
      "note_on channel=0 note=78 velocity=50 time=0\n",
      "note_off channel=0 note=88 velocity=64 time=0\n",
      "note_on channel=0 note=65 velocity=37 time=1\n",
      "note_off channel=0 note=73 velocity=64 time=0\n",
      "note_on channel=0 note=75 velocity=14 time=0\n",
      "note_off channel=0 note=91 velocity=64 time=0\n",
      "note_off channel=0 note=95 velocity=64 time=0\n",
      "note_on channel=0 note=41 velocity=57 time=1\n",
      "note_off channel=0 note=44 velocity=64 time=0\n",
      "note_off channel=0 note=68 velocity=64 time=0\n",
      "note_off channel=0 note=78 velocity=64 time=0\n",
      "note_on channel=0 note=79 velocity=47 time=0\n",
      "note_off channel=0 note=80 velocity=64 time=0\n",
      "note_on channel=0 note=86 velocity=18 time=0\n",
      "note_off channel=0 note=93 velocity=64 time=0\n",
      "note_off channel=0 note=59 velocity=64 time=1\n",
      "note_on channel=0 note=60 velocity=60 time=0\n",
      "note_off channel=0 note=71 velocity=64 time=0\n",
      "note_on channel=0 note=72 velocity=70 time=0\n",
      "note_off channel=0 note=41 velocity=64 time=1\n",
      "note_on channel=0 note=43 velocity=61 time=0\n",
      "note_off channel=0 note=75 velocity=64 time=0\n",
      "note_off channel=0 note=77 velocity=64 time=0\n",
      "note_on channel=0 note=83 velocity=61 time=0\n",
      "note_off channel=0 note=85 velocity=64 time=0\n",
      "note_on channel=0 note=93 velocity=11 time=0\n",
      "note_on channel=0 note=59 velocity=62 time=1\n",
      "note_off channel=0 note=60 velocity=64 time=0\n",
      "note_on channel=0 note=71 velocity=64 time=0\n",
      "note_off channel=0 note=72 velocity=64 time=0\n",
      "note_on channel=0 note=78 velocity=44 time=0\n",
      "note_off channel=0 note=79 velocity=64 time=0\n",
      "note_on channel=0 note=42 velocity=55 time=2\n",
      "note_off channel=0 note=43 velocity=64 time=0\n",
      "note_off channel=0 note=65 velocity=64 time=0\n",
      "note_on channel=0 note=70 velocity=58 time=0\n",
      "note_off channel=0 note=71 velocity=64 time=0\n",
      "note_on channel=0 note=73 velocity=37 time=0\n",
      "note_on channel=0 note=77 velocity=61 time=0\n",
      "note_off channel=0 note=78 velocity=64 time=0\n",
      "note_off channel=0 note=86 velocity=64 time=0\n",
      "note_off channel=0 note=93 velocity=64 time=0\n",
      "note_on channel=0 note=58 velocity=63 time=1\n",
      "note_off channel=0 note=59 velocity=64 time=0\n",
      "note_on channel=0 note=84 velocity=26 time=0\n",
      "note_on channel=0 note=86 velocity=26 time=0\n",
      "note_off channel=0 note=42 velocity=64 time=1\n",
      "note_on channel=0 note=72 velocity=36 time=0\n",
      "note_off channel=0 note=73 velocity=64 time=0\n",
      "note_on channel=0 note=80 velocity=85 time=0\n",
      "note_on channel=0 note=82 velocity=60 time=0\n",
      "note_off channel=0 note=83 velocity=64 time=0\n",
      "note_on channel=0 note=48 velocity=66 time=1\n",
      "note_on channel=0 note=83 velocity=72 time=0\n",
      "note_off channel=0 note=87 velocity=64 time=0\n",
      "note_on channel=0 note=67 velocity=34 time=1\n",
      "note_off channel=0 note=72 velocity=64 time=0\n",
      "note_on channel=0 note=73 velocity=46 time=0\n",
      "note_off channel=0 note=82 velocity=64 time=0\n",
      "note_on channel=0 note=87 velocity=58 time=0\n",
      "note_on channel=0 note=91 velocity=23 time=0\n",
      "note_on channel=0 note=47 velocity=73 time=1\n",
      "note_off channel=0 note=48 velocity=64 time=0\n",
      "note_on channel=0 note=75 velocity=16 time=0\n",
      "note_on channel=0 note=90 velocity=45 time=0\n",
      "note_off channel=0 note=47 velocity=64 time=1\n",
      "note_on channel=0 note=48 velocity=73 time=0\n",
      "note_off channel=0 note=58 velocity=64 time=0\n",
      "note_on channel=0 note=59 velocity=61 time=0\n",
      "note_off channel=0 note=70 velocity=64 time=0\n",
      "note_off channel=0 note=86 velocity=64 time=0\n",
      "note_on channel=0 note=93 velocity=17 time=0\n",
      "note_off channel=0 note=48 velocity=64 time=1\n",
      "note_on channel=0 note=49 velocity=71 time=0\n",
      "note_off channel=0 note=77 velocity=64 time=0\n",
      "note_on channel=0 note=78 velocity=54 time=0\n",
      "note_off channel=0 note=84 velocity=64 time=0\n",
      "note_off channel=0 note=49 velocity=64 time=1\n",
      "note_on channel=0 note=50 velocity=78 time=0\n",
      "note_off channel=0 note=91 velocity=64 time=0\n",
      "note_off channel=0 note=50 velocity=64 time=1\n",
      "note_on channel=0 note=53 velocity=74 time=0\n",
      "note_off channel=0 note=67 velocity=64 time=0\n",
      "note_on channel=0 note=77 velocity=33 time=0\n",
      "note_off channel=0 note=53 velocity=64 time=2\n",
      "note_off channel=0 note=77 velocity=64 time=1\n",
      "note_on channel=0 note=53 velocity=59 time=1\n",
      "note_on channel=0 note=77 velocity=49 time=1\n",
      "note_on channel=0 note=52 velocity=49 time=2\n",
      "note_off channel=0 note=53 velocity=64 time=0\n",
      "note_on channel=0 note=65 velocity=68 time=0\n",
      "note_off channel=0 note=59 velocity=64 time=1\n",
      "note_off channel=0 note=75 velocity=64 time=0\n",
      "note_off channel=0 note=78 velocity=64 time=0\n",
      "note_on channel=0 note=82 velocity=56 time=0\n",
      "note_on channel=0 note=88 velocity=37 time=0\n",
      "note_on channel=0 note=45 velocity=77 time=1\n",
      "note_off channel=0 note=52 velocity=64 time=0\n",
      "note_on channel=0 note=53 velocity=51 time=0\n",
      "note_on channel=0 note=64 velocity=82 time=0\n",
      "note_off channel=0 note=65 velocity=64 time=0\n",
      "note_on channel=0 note=67 velocity=64 time=0\n",
      "note_off channel=0 note=88 velocity=64 time=1\n",
      "note_on channel=0 note=44 velocity=79 time=1\n",
      "note_off channel=0 note=45 velocity=64 time=0\n",
      "note_off channel=0 note=53 velocity=64 time=0\n",
      "note_on channel=0 note=63 velocity=70 time=0\n",
      "note_off channel=0 note=64 velocity=64 time=0\n",
      "note_off channel=0 note=67 velocity=64 time=0\n",
      "note_off channel=0 note=83 velocity=64 time=0\n",
      "note_on channel=0 note=88 velocity=45 time=1\n",
      "note_on channel=0 note=83 velocity=30 time=1\n",
      "note_off channel=0 note=89 velocity=64 time=0\n",
      "note_off channel=0 note=63 velocity=64 time=1\n",
      "note_off channel=0 note=44 velocity=64 time=1\n",
      "note_on channel=0 note=61 velocity=39 time=0\n",
      "note_on channel=0 note=71 velocity=29 time=0\n",
      "note_off channel=0 note=83 velocity=64 time=0\n",
      "note_off channel=0 note=61 velocity=64 time=2\n",
      "note_on channel=0 note=85 velocity=46 time=0\n",
      "note_on channel=0 note=43 velocity=61 time=1\n",
      "note_on channel=0 note=61 velocity=72 time=0\n",
      "note_on channel=0 note=65 velocity=30 time=1\n",
      "note_on channel=0 note=75 velocity=12 time=0\n",
      "note_on channel=0 note=91 velocity=24 time=0\n",
      "note_on channel=0 note=54 velocity=27 time=1\n",
      "note_on channel=0 note=42 velocity=59 time=1\n",
      "note_off channel=0 note=43 velocity=64 time=0\n",
      "note_off channel=0 note=54 velocity=64 time=2\n",
      "note_off channel=0 note=77 velocity=64 time=0\n",
      "note_off channel=0 note=42 velocity=64 time=1\n",
      "note_on channel=0 note=54 velocity=16 time=0\n",
      "note_on channel=0 note=42 velocity=53 time=1\n",
      "note_off channel=0 note=91 velocity=64 time=0\n",
      "note_off channel=0 note=54 velocity=64 time=2\n",
      "note_on channel=0 note=77 velocity=68 time=2\n",
      "note_on channel=0 note=91 velocity=30 time=4\n",
      "note_off channel=0 note=42 velocity=64 time=3\n",
      "note_off channel=0 note=65 velocity=64 time=0\n",
      "note_off channel=0 note=75 velocity=64 time=0\n",
      "note_on channel=0 note=83 velocity=41 time=0\n",
      "note_on channel=0 note=70 velocity=59 time=1\n",
      "note_off channel=0 note=71 velocity=64 time=0\n",
      "note_on channel=0 note=75 velocity=49 time=0\n",
      "note_on channel=0 note=89 velocity=72 time=0\n",
      "note_on channel=0 note=47 velocity=76 time=1\n",
      "note_off channel=0 note=61 velocity=64 time=0\n",
      "note_on channel=0 note=62 velocity=66 time=0\n",
      "note_off channel=0 note=83 velocity=64 time=0\n",
      "note_off channel=0 note=47 velocity=64 time=1\n",
      "note_on channel=0 note=48 velocity=86 time=0\n",
      "note_on channel=0 note=58 velocity=66 time=0\n",
      "note_off channel=0 note=62 velocity=64 time=0\n",
      "note_on channel=0 note=64 velocity=67 time=0\n",
      "note_on channel=0 note=86 velocity=56 time=0\n",
      "note_off channel=0 note=93 velocity=64 time=0\n",
      "note_off channel=0 note=91 velocity=64 time=1\n",
      "note_off channel=0 note=58 velocity=64 time=1\n",
      "note_on channel=0 note=59 velocity=67 time=0\n",
      "note_off channel=0 note=64 velocity=64 time=0\n",
      "note_off channel=0 note=70 velocity=64 time=0\n",
      "note_on channel=0 note=71 velocity=67 time=0\n",
      "note_off channel=0 note=87 velocity=64 time=0\n",
      "note_off channel=0 note=90 velocity=64 time=0\n",
      "note_off channel=0 note=48 velocity=64 time=1\n",
      "note_on channel=0 note=65 velocity=36 time=0\n",
      "note_off channel=0 note=73 velocity=64 time=0\n",
      "note_off channel=0 note=82 velocity=64 time=0\n",
      "note_on channel=0 note=83 velocity=71 time=0\n",
      "note_off channel=0 note=88 velocity=64 time=0\n",
      "note_on channel=0 note=90 velocity=17 time=0\n",
      "note_on channel=0 note=48 velocity=61 time=1\n",
      "note_on channel=0 note=93 velocity=24 time=0\n",
      "note_on channel=0 note=102 velocity=24 time=0\n",
      "note_off channel=0 note=59 velocity=64 time=1\n",
      "note_on channel=0 note=60 velocity=65 time=0\n",
      "note_off channel=0 note=65 velocity=64 time=0\n",
      "note_off channel=0 note=71 velocity=64 time=0\n",
      "note_on channel=0 note=72 velocity=96 time=0\n",
      "note_off channel=0 note=75 velocity=64 time=0\n",
      "note_off channel=0 note=77 velocity=64 time=0\n",
      "note_on channel=0 note=78 velocity=64 time=0\n",
      "note_off channel=0 note=48 velocity=64 time=1\n",
      "note_off channel=0 note=85 velocity=64 time=0\n",
      "note_on channel=0 note=88 velocity=40 time=0\n",
      "note_off channel=0 note=90 velocity=64 time=0\n",
      "note_on channel=0 note=91 velocity=26 time=0\n",
      "note_off channel=0 note=78 velocity=64 time=1\n",
      "note_on channel=0 note=79 velocity=55 time=0\n",
      "note_on channel=0 note=87 velocity=36 time=0\n",
      "note_off channel=0 note=89 velocity=64 time=0\n",
      "note_off channel=0 note=60 velocity=64 time=1\n",
      "note_on channel=0 note=61 velocity=79 time=0\n",
      "note_off channel=0 note=72 velocity=64 time=0\n",
      "note_on channel=0 note=73 velocity=96 time=0\n",
      "note_off channel=0 note=86 velocity=64 time=0\n",
      "note_off channel=0 note=88 velocity=64 time=0\n",
      "note_on channel=0 note=89 velocity=62 time=0\n",
      "note_off channel=0 note=93 velocity=64 time=0\n",
      "note_on channel=0 note=88 velocity=29 time=1\n",
      "note_on channel=0 note=44 velocity=36 time=1\n",
      "note_on channel=0 note=77 velocity=22 time=0\n",
      "note_off channel=0 note=91 velocity=64 time=0\n",
      "note_off channel=0 note=102 velocity=64 time=0\n",
      "note_on channel=0 note=54 velocity=32 time=1\n",
      "note_on channel=0 note=71 velocity=43 time=0\n",
      "note_off channel=0 note=73 velocity=64 time=0\n",
      "note_on channel=0 note=74 velocity=89 time=0\n",
      "note_off channel=0 note=44 velocity=64 time=1\n",
      "note_on channel=0 note=44 velocity=32 time=1\n",
      "note_off channel=0 note=61 velocity=64 time=0\n",
      "note_on channel=0 note=62 velocity=77 time=0\n",
      "note_off channel=0 note=71 velocity=64 time=0\n",
      "note_off channel=0 note=79 velocity=64 time=0\n",
      "note_off channel=0 note=88 velocity=64 time=0\n",
      "note_on channel=0 note=91 velocity=32 time=0\n",
      "note_on channel=0 note=61 velocity=81 time=1\n",
      "note_off channel=0 note=62 velocity=64 time=0\n",
      "note_on channel=0 note=73 velocity=87 time=0\n",
      "note_off channel=0 note=74 velocity=64 time=0\n",
      "note_on channel=0 note=88 velocity=59 time=0\n",
      "note_off channel=0 note=44 velocity=64 time=1\n",
      "note_on channel=0 note=72 velocity=88 time=2\n",
      "note_off channel=0 note=73 velocity=64 time=0\n",
      "note_on channel=0 note=79 velocity=66 time=0\n",
      "note_off channel=0 note=88 velocity=64 time=0\n",
      "note_on channel=0 note=60 velocity=65 time=1\n",
      "note_off channel=0 note=61 velocity=64 time=0\n",
      "note_off channel=0 note=80 velocity=64 time=0\n",
      "note_off channel=0 note=83 velocity=64 time=0\n",
      "note_off channel=0 note=87 velocity=64 time=0\n",
      "note_on channel=0 note=88 velocity=65 time=0\n",
      "note_on channel=0 note=43 velocity=22 time=1\n",
      "note_off channel=0 note=54 velocity=64 time=0\n",
      "note_on channel=0 note=80 velocity=54 time=0\n",
      "note_off channel=0 note=91 velocity=64 time=0\n",
      "note_on channel=0 note=68 velocity=23 time=1\n",
      "note_on channel=0 note=82 velocity=24 time=0\n",
      "note_on channel=0 note=87 velocity=47 time=1\n",
      "note_on channel=0 note=102 velocity=27 time=0\n",
      "note_off channel=0 note=43 velocity=64 time=1\n",
      "note_off channel=0 note=89 velocity=64 time=0\n",
      "note_on channel=0 note=75 velocity=51 time=1\n",
      "note_off channel=0 note=77 velocity=64 time=0\n",
      "note_off channel=0 note=80 velocity=64 time=0\n",
      "note_on channel=0 note=65 velocity=45 time=1\n",
      "note_on channel=0 note=80 velocity=65 time=0\n",
      "note_off channel=0 note=80 velocity=64 time=1\n",
      "note_on channel=0 note=89 velocity=73 time=1\n",
      "note_on channel=0 note=78 velocity=45 time=1\n",
      "note_on channel=0 note=95 velocity=43 time=0\n",
      "note_off channel=0 note=60 velocity=64 time=1\n",
      "note_on channel=0 note=62 velocity=56 time=0\n",
      "note_off channel=0 note=68 velocity=64 time=0\n",
      "note_on channel=0 note=71 velocity=60 time=0\n",
      "note_off channel=0 note=72 velocity=64 time=0\n",
      "note_off channel=0 note=79 velocity=64 time=0\n",
      "note_on channel=0 note=80 velocity=83 time=0\n",
      "note_off channel=0 note=82 velocity=64 time=0\n",
      "note_on channel=0 note=83 velocity=64 time=0\n",
      "note_off channel=0 note=88 velocity=64 time=0\n",
      "note_on channel=0 note=45 velocity=76 time=1\n",
      "note_on channel=0 note=58 velocity=55 time=0\n",
      "note_off channel=0 note=65 velocity=64 time=0\n",
      "note_on channel=0 note=69 velocity=44 time=0\n",
      "note_on channel=0 note=85 velocity=35 time=0\n",
      "note_off channel=0 note=62 velocity=64 time=1\n",
      "note_on channel=0 note=63 velocity=49 time=0\n",
      "note_on channel=0 note=67 velocity=42 time=0\n",
      "note_off channel=0 note=71 velocity=64 time=0\n",
      "note_on channel=0 note=44 velocity=77 time=1\n",
      "note_off channel=0 note=45 velocity=64 time=0\n",
      "note_off channel=0 note=58 velocity=64 time=0\n",
      "note_on channel=0 note=59 velocity=58 time=0\n",
      "note_on channel=0 note=77 velocity=49 time=0\n",
      "note_off channel=0 note=78 velocity=64 time=0\n",
      "note_off channel=0 note=95 velocity=64 time=0\n",
      "note_off channel=0 note=63 velocity=64 time=1\n",
      "note_off channel=0 note=69 velocity=64 time=0\n",
      "note_on channel=0 note=93 velocity=19 time=0\n",
      "note_on channel=0 note=53 velocity=31 time=1\n",
      "note_on channel=0 note=65 velocity=34 time=0\n",
      "note_on channel=0 note=78 velocity=61 time=0\n",
      "note_on channel=0 note=43 velocity=73 time=1\n",
      "note_off channel=0 note=44 velocity=64 time=0\n",
      "note_off channel=0 note=77 velocity=64 time=0\n",
      "note_off channel=0 note=53 velocity=64 time=1\n",
      "note_off channel=0 note=65 velocity=64 time=0\n",
      "note_off channel=0 note=67 velocity=64 time=0\n",
      "note_on channel=0 note=73 velocity=28 time=0\n",
      "note_on channel=0 note=65 velocity=33 time=1\n",
      "note_on channel=0 note=70 velocity=67 time=0\n",
      "note_off channel=0 note=93 velocity=64 time=0\n",
      "note_on channel=0 note=77 velocity=77 time=1\n",
      "note_off channel=0 note=78 velocity=64 time=0\n",
      "note_on channel=0 note=68 velocity=23 time=1\n",
      "note_off channel=0 note=102 velocity=64 time=0\n",
      "note_on channel=0 note=53 velocity=13 time=1\n",
      "note_on channel=0 note=58 velocity=55 time=0\n",
      "note_off channel=0 note=59 velocity=64 time=0\n",
      "note_off channel=0 note=43 velocity=64 time=1\n",
      "note_on channel=0 note=44 velocity=30 time=0\n",
      "note_off channel=0 note=85 velocity=64 time=0\n",
      "note_off channel=0 note=58 velocity=64 time=1\n",
      "note_on channel=0 note=59 velocity=61 time=0\n",
      "note_off channel=0 note=68 velocity=64 time=0\n",
      "note_off channel=0 note=70 velocity=64 time=0\n",
      "note_on channel=0 note=71 velocity=61 time=0\n",
      "note_off channel=0 note=87 velocity=64 time=0\n",
      "note_on channel=0 note=102 velocity=13 time=0\n",
      "note_off channel=0 note=53 velocity=64 time=1\n",
      "note_on channel=0 note=87 velocity=57 time=0\n",
      "note_on channel=0 note=90 velocity=22 time=0\n",
      "note_off channel=0 note=75 velocity=64 time=1\n",
      "note_on channel=0 note=86 velocity=22 time=0\n",
      "note_off channel=0 note=44 velocity=64 time=1\n",
      "note_off channel=0 note=65 velocity=64 time=0\n",
      "note_off channel=0 note=71 velocity=64 time=0\n",
      "note_off channel=0 note=73 velocity=64 time=0\n",
      "note_off channel=0 note=77 velocity=64 time=0\n",
      "note_on channel=0 note=78 velocity=54 time=0\n",
      "note_on channel=0 note=65 velocity=71 time=1\n",
      "note_on channel=0 note=68 velocity=58 time=0\n",
      "note_on channel=0 note=71 velocity=65 time=0\n",
      "note_on channel=0 note=75 velocity=19 time=0\n",
      "note_on channel=0 note=93 velocity=10 time=0\n",
      "note_off channel=0 note=86 velocity=64 time=1\n",
      "note_off channel=0 note=78 velocity=64 time=1\n",
      "note_on channel=0 note=73 velocity=15 time=1\n",
      "note_on channel=0 note=78 velocity=51 time=0\n",
      "note_off channel=0 note=93 velocity=64 time=1\n",
      "note_on channel=0 note=91 velocity=21 time=1\n",
      "note_off channel=0 note=102 velocity=64 time=0\n",
      "note_off channel=0 note=71 velocity=64 time=1\n",
      "note_on channel=0 note=71 velocity=68 time=1\n",
      "note_off channel=0 note=73 velocity=64 time=0\n",
      "note_on channel=0 note=85 velocity=9 time=0\n",
      "note_on channel=0 note=73 velocity=40 time=1\n",
      "note_on channel=0 note=93 velocity=12 time=0\n",
      "note_off channel=0 note=75 velocity=64 time=4\n",
      "note_off channel=0 note=85 velocity=64 time=0\n",
      "note_off channel=0 note=90 velocity=64 time=0\n",
      "note_on channel=0 note=45 velocity=77 time=1\n",
      "note_off channel=0 note=59 velocity=64 time=0\n",
      "note_on channel=0 note=64 velocity=83 time=0\n",
      "note_off channel=0 note=65 velocity=64 time=0\n",
      "note_off channel=0 note=68 velocity=64 time=0\n",
      "note_on channel=0 note=75 velocity=25 time=0\n",
      "note_on channel=0 note=77 velocity=59 time=0\n",
      "note_off channel=0 note=78 velocity=64 time=0\n",
      "note_on channel=0 note=88 velocity=26 time=0\n",
      "note_off channel=0 note=89 velocity=64 time=0\n",
      "note_on channel=0 note=90 velocity=42 time=0\n",
      "note_off channel=0 note=93 velocity=64 time=0\n",
      "note_on channel=0 note=59 velocity=56 time=1\n",
      "note_on channel=0 note=68 velocity=49 time=0\n",
      "note_on channel=0 note=44 velocity=78 time=1\n",
      "note_off channel=0 note=45 velocity=64 time=0\n",
      "note_on channel=0 note=63 velocity=71 time=0\n",
      "note_off channel=0 note=64 velocity=64 time=0\n",
      "note_off channel=0 note=77 velocity=64 time=0\n",
      "note_on channel=0 note=78 velocity=53 time=0\n",
      "note_off channel=0 note=90 velocity=64 time=1\n",
      "note_off channel=0 note=59 velocity=64 time=1\n",
      "note_off channel=0 note=63 velocity=64 time=0\n",
      "note_on channel=0 note=72 velocity=65 time=0\n",
      "note_off channel=0 note=73 velocity=64 time=0\n",
      "note_on channel=0 note=61 velocity=76 time=1\n",
      "note_off channel=0 note=71 velocity=64 time=0\n",
      "note_off channel=0 note=72 velocity=64 time=1\n",
      "note_off channel=0 note=75 velocity=64 time=0\n",
      "note_on channel=0 note=79 velocity=46 time=0\n",
      "note_off channel=0 note=83 velocity=64 time=0\n",
      "note_off channel=0 note=88 velocity=64 time=0\n",
      "note_on channel=0 note=89 velocity=38 time=0\n",
      "note_on channel=0 note=43 velocity=71 time=1\n",
      "note_off channel=0 note=44 velocity=64 time=0\n",
      "note_on channel=0 note=65 velocity=32 time=0\n",
      "note_off channel=0 note=78 velocity=64 time=0\n",
      "note_on channel=0 note=83 velocity=33 time=0\n",
      "note_on channel=0 note=71 velocity=31 time=1\n",
      "note_off channel=0 note=65 velocity=64 time=1\n",
      "note_off channel=0 note=79 velocity=64 time=0\n",
      "note_on channel=0 note=42 velocity=61 time=1\n",
      "note_off channel=0 note=43 velocity=64 time=0\n",
      "note_off channel=0 note=71 velocity=64 time=1\n",
      "note_off channel=0 note=87 velocity=64 time=0\n",
      "note_off channel=0 note=42 velocity=64 time=1\n",
      "note_on channel=0 note=60 velocity=61 time=0\n",
      "note_off channel=0 note=61 velocity=64 time=0\n",
      "note_on channel=0 note=75 velocity=35 time=0\n",
      "note_on channel=0 note=88 velocity=35 time=0\n",
      "note_off channel=0 note=89 velocity=64 time=0\n",
      "note_off channel=0 note=91 velocity=64 time=0\n",
      "note_on channel=0 note=72 velocity=71 time=1\n",
      "note_on channel=0 note=89 velocity=25 time=0\n",
      "note_on channel=0 note=47 velocity=66 time=1\n",
      "note_on channel=0 note=79 velocity=52 time=0\n",
      "note_off channel=0 note=80 velocity=64 time=0\n",
      "note_off channel=0 note=47 velocity=64 time=1\n",
      "note_on channel=0 note=48 velocity=65 time=0\n",
      "note_off channel=0 note=60 velocity=64 time=0\n",
      "note_on channel=0 note=61 velocity=69 time=0\n",
      "note_on channel=0 note=47 velocity=72 time=1\n",
      "note_off channel=0 note=48 velocity=64 time=0\n",
      "note_on channel=0 note=54 velocity=33 time=0\n",
      "note_on channel=0 note=65 velocity=50 time=0\n",
      "note_on channel=0 note=60 velocity=60 time=1\n",
      "note_off channel=0 note=61 velocity=64 time=0\n",
      "note_off channel=0 note=47 velocity=64 time=1\n",
      "note_on channel=0 note=48 velocity=72 time=0\n",
      "note_off channel=0 note=54 velocity=64 time=0\n",
      "note_off channel=0 note=60 velocity=64 time=1\n",
      "note_off channel=0 note=48 velocity=64 time=1\n",
      "note_on channel=0 note=52 velocity=76 time=0\n",
      "note_on channel=0 note=60 velocity=64 time=0\n",
      "note_off channel=0 note=72 velocity=64 time=0\n",
      "note_off channel=0 note=88 velocity=64 time=0\n",
      "note_off channel=0 note=52 velocity=64 time=1\n",
      "note_on channel=0 note=53 velocity=68 time=0\n",
      "note_off channel=0 note=89 velocity=64 time=1\n",
      "note_off channel=0 note=53 velocity=64 time=1\n",
      "note_on channel=0 note=54 velocity=58 time=0\n",
      "note_on channel=0 note=88 velocity=29 time=1\n",
      "note_on channel=0 note=53 velocity=53 time=1\n",
      "note_off channel=0 note=54 velocity=64 time=0\n",
      "note_on channel=0 note=71 velocity=42 time=2\n",
      "note_on channel=0 note=85 velocity=49 time=0\n",
      "note_off channel=0 note=60 velocity=64 time=1\n",
      "note_on channel=0 note=61 velocity=78 time=0\n",
      "note_on channel=0 note=80 velocity=53 time=0\n",
      "note_on channel=0 note=90 velocity=37 time=0\n",
      "note_off channel=0 note=53 velocity=64 time=1\n",
      "note_off channel=0 note=65 velocity=64 time=0\n",
      "note_off channel=0 note=68 velocity=64 time=0\n",
      "note_off channel=0 note=71 velocity=64 time=0\n",
      "note_off channel=0 note=79 velocity=64 time=0\n",
      "note_on channel=0 note=82 velocity=35 time=0\n",
      "note_off channel=0 note=83 velocity=64 time=0\n",
      "note_on channel=0 note=45 velocity=77 time=1\n",
      "note_on channel=0 note=64 velocity=81 time=0\n",
      "note_on channel=0 note=67 velocity=58 time=0\n",
      "note_on channel=0 note=71 velocity=46 time=0\n",
      "note_off channel=0 note=61 velocity=64 time=1\n",
      "note_off channel=0 note=88 velocity=64 time=0\n",
      "note_on channel=0 note=91 velocity=36 time=0\n",
      "note_on channel=0 note=44 velocity=78 time=1\n",
      "note_off channel=0 note=45 velocity=64 time=0\n",
      "note_on channel=0 note=61 velocity=81 time=0\n",
      "note_on channel=0 note=63 velocity=67 time=0\n",
      "note_off channel=0 note=64 velocity=64 time=0\n",
      "note_off channel=0 note=82 velocity=64 time=0\n",
      "note_off channel=0 note=90 velocity=64 time=0\n",
      "note_on channel=0 note=54 velocity=36 time=1\n",
      "note_off channel=0 note=63 velocity=64 time=0\n",
      "note_off channel=0 note=67 velocity=64 time=0\n",
      "note_on channel=0 note=68 velocity=40 time=0\n",
      "note_off channel=0 note=44 velocity=64 time=1\n",
      "note_on channel=0 note=45 velocity=77 time=0\n",
      "note_off channel=0 note=54 velocity=64 time=1\n",
      "note_on channel=0 note=65 velocity=45 time=0\n",
      "note_off channel=0 note=80 velocity=64 time=0\n",
      "note_off channel=0 note=75 velocity=64 time=1\n",
      "note_on channel=0 note=44 velocity=71 time=1\n",
      "note_off channel=0 note=45 velocity=64 time=0\n",
      "note_on channel=0 note=43 velocity=65 time=1\n",
      "note_off channel=0 note=44 velocity=64 time=0\n",
      "note_off channel=0 note=68 velocity=64 time=0\n",
      "note_on channel=0 note=68 velocity=46 time=1\n",
      "note_on channel=0 note=42 velocity=58 time=1\n",
      "note_off channel=0 note=43 velocity=64 time=0\n",
      "note_off channel=0 note=42 velocity=64 time=2\n",
      "note_on channel=0 note=48 velocity=66 time=2\n",
      "note_on channel=0 note=47 velocity=72 time=2\n",
      "note_off channel=0 note=48 velocity=64 time=0\n",
      "note_off channel=0 note=47 velocity=64 time=2\n",
      "note_on channel=0 note=49 velocity=68 time=0\n",
      "note_on channel=0 note=89 velocity=71 time=0\n",
      "note_off channel=0 note=49 velocity=64 time=1\n",
      "note_on channel=0 note=50 velocity=76 time=0\n",
      "note_off channel=0 note=50 velocity=64 time=1\n",
      "note_on channel=0 note=53 velocity=72 time=0\n",
      "note_on channel=0 note=80 velocity=85 time=0\n",
      "note_off channel=0 note=53 velocity=64 time=3\n",
      "note_on channel=0 note=53 velocity=57 time=1\n",
      "note_on channel=0 note=95 velocity=37 time=3\n",
      "note_off channel=0 note=53 velocity=64 time=1\n",
      "note_off channel=0 note=65 velocity=64 time=0\n",
      "note_on channel=0 note=76 velocity=45 time=0\n",
      "note_on channel=0 note=87 velocity=43 time=0\n",
      "note_on channel=0 note=48 velocity=89 time=1\n",
      "note_on channel=0 note=67 velocity=50 time=0\n",
      "note_off channel=0 note=68 velocity=64 time=0\n",
      "note_on channel=0 note=82 velocity=41 time=0\n",
      "note_on channel=0 note=93 velocity=16 time=0\n",
      "note_on channel=0 note=75 velocity=18 time=2\n",
      "note_off channel=0 note=76 velocity=64 time=0\n",
      "note_off channel=0 note=82 velocity=64 time=0\n",
      "note_on channel=0 note=46 velocity=65 time=1\n",
      "note_off channel=0 note=48 velocity=64 time=0\n",
      "note_on channel=0 note=65 velocity=50 time=0\n",
      "note_off channel=0 note=67 velocity=64 time=0\n",
      "note_on channel=0 note=68 velocity=36 time=0\n",
      "note_off channel=0 note=93 velocity=64 time=0\n",
      "note_off channel=0 note=95 velocity=64 time=0\n",
      "note_off channel=0 note=46 velocity=64 time=1\n",
      "note_off channel=0 note=87 velocity=64 time=0\n",
      "note_on channel=0 note=48 velocity=67 time=1\n",
      "note_off channel=0 note=48 velocity=64 time=1\n",
      "note_off channel=0 note=75 velocity=64 time=0\n",
      "note_on channel=0 note=45 velocity=59 time=1\n",
      "note_on channel=0 note=78 velocity=22 time=0\n",
      "note_on channel=0 note=87 velocity=42 time=0\n",
      "note_on channel=0 note=44 velocity=54 time=3\n",
      "note_off channel=0 note=45 velocity=64 time=0\n",
      "note_on channel=0 note=54 velocity=27 time=0\n",
      "note_on channel=0 note=84 velocity=38 time=2\n",
      "note_on channel=0 note=43 velocity=32 time=3\n",
      "note_off channel=0 note=44 velocity=64 time=0\n",
      "note_off channel=0 note=54 velocity=64 time=0\n",
      "note_on channel=0 note=90 velocity=29 time=0\n",
      "note_on channel=0 note=88 velocity=31 time=2\n",
      "note_off channel=0 note=90 velocity=64 time=0\n",
      "note_off channel=0 note=71 velocity=64 time=1\n",
      "note_off channel=0 note=89 velocity=64 time=0\n",
      "note_on channel=0 note=102 velocity=11 time=0\n",
      "note_off channel=0 note=43 velocity=64 time=1\n",
      "note_off channel=0 note=88 velocity=64 time=0\n",
      "note_on channel=0 note=89 velocity=74 time=0\n",
      "note_off channel=0 note=78 velocity=64 time=1\n",
      "note_on channel=0 note=82 velocity=30 time=1\n",
      "note_off channel=0 note=85 velocity=64 time=0\n",
      "note_off channel=0 note=102 velocity=64 time=0\n",
      "note_off channel=0 note=61 velocity=64 time=3\n",
      "note_on channel=0 note=86 velocity=13 time=0\n",
      "note_on channel=0 note=61 velocity=58 time=1\n",
      "note_off channel=0 note=68 velocity=64 time=0\n",
      "note_on channel=0 note=90 velocity=29 time=1\n",
      "note_on channel=0 note=95 velocity=42 time=1\n",
      "note_on channel=0 note=46 velocity=65 time=1\n",
      "note_on channel=0 note=76 velocity=43 time=0\n",
      "note_off channel=0 note=86 velocity=64 time=0\n",
      "note_on channel=0 note=57 velocity=37 time=1\n",
      "note_off channel=0 note=65 velocity=64 time=0\n",
      "note_on channel=0 note=69 velocity=47 time=0\n",
      "note_off channel=0 note=90 velocity=64 time=0\n",
      "note_on channel=0 note=45 velocity=75 time=1\n",
      "note_off channel=0 note=46 velocity=64 time=0\n",
      "note_on channel=0 note=64 velocity=48 time=0\n",
      "note_on channel=0 note=75 velocity=42 time=0\n",
      "note_off channel=0 note=76 velocity=64 time=0\n",
      "note_on channel=0 note=78 velocity=37 time=0\n",
      "note_off channel=0 note=82 velocity=64 time=0\n",
      "note_on channel=0 note=85 velocity=39 time=0\n",
      "note_on channel=0 note=44 velocity=77 time=1\n",
      "note_off channel=0 note=45 velocity=64 time=0\n",
      "note_off channel=0 note=57 velocity=64 time=0\n",
      "note_on channel=0 note=82 velocity=34 time=0\n",
      "note_off channel=0 note=61 velocity=64 time=1\n",
      "note_on channel=0 note=65 velocity=47 time=0\n",
      "note_off channel=0 note=69 velocity=64 time=0\n",
      "note_off channel=0 note=75 velocity=64 time=0\n",
      "note_off channel=0 note=78 velocity=64 time=0\n",
      "note_off channel=0 note=95 velocity=64 time=0\n",
      "note_off channel=0 note=64 velocity=64 time=1\n",
      "note_on channel=0 note=43 velocity=74 time=1\n",
      "note_off channel=0 note=44 velocity=64 time=0\n",
      "note_on channel=0 note=61 velocity=82 time=1\n",
      "note_on channel=0 note=75 velocity=31 time=0\n",
      "note_on channel=0 note=102 velocity=33 time=0\n",
      "note_on channel=0 note=83 velocity=46 time=1\n",
      "note_on channel=0 note=68 velocity=27 time=1\n",
      "note_on channel=0 note=71 velocity=24 time=0\n",
      "note_off channel=0 note=82 velocity=64 time=1\n",
      "note_on channel=0 note=90 velocity=51 time=0\n",
      "note_on channel=0 note=95 velocity=54 time=0\n",
      "note_off channel=0 note=43 velocity=64 time=2\n",
      "note_on channel=0 note=44 velocity=38 time=0\n",
      "note_off channel=0 note=71 velocity=64 time=0\n",
      "note_on channel=0 note=88 velocity=31 time=0\n",
      "note_off channel=0 note=91 velocity=64 time=0\n",
      "note_off channel=0 note=89 velocity=64 time=1\n",
      "note_on channel=0 note=91 velocity=35 time=0\n",
      "note_off channel=0 note=44 velocity=64 time=1\n",
      "note_off channel=0 note=88 velocity=64 time=4\n",
      "note_on channel=0 note=89 velocity=55 time=0\n",
      "note_on channel=0 note=71 velocity=17 time=1\n",
      "note_off channel=0 note=68 velocity=64 time=1\n",
      "note_off channel=0 note=85 velocity=64 time=0\n",
      "note_off channel=0 note=102 velocity=64 time=0\n",
      "note_off channel=0 note=71 velocity=64 time=5\n",
      "note_off channel=0 note=75 velocity=64 time=0\n",
      "note_off channel=0 note=65 velocity=64 time=2\n",
      "note_on channel=0 note=77 velocity=29 time=0\n",
      "note_on channel=0 note=78 velocity=43 time=0\n",
      "note_off channel=0 note=77 velocity=64 time=2\n",
      "note_on channel=0 note=57 velocity=42 time=1\n",
      "note_off channel=0 note=61 velocity=64 time=0\n",
      "note_on channel=0 note=62 velocity=76 time=0\n",
      "note_on channel=0 note=45 velocity=78 time=1\n",
      "note_off channel=0 note=62 velocity=64 time=0\n",
      "note_on channel=0 note=64 velocity=82 time=0\n",
      "note_on channel=0 note=67 velocity=60 time=0\n",
      "note_on channel=0 note=77 velocity=44 time=0\n",
      "note_off channel=0 note=78 velocity=64 time=0\n",
      "note_on channel=0 note=82 velocity=36 time=0\n",
      "note_off channel=0 note=83 velocity=64 time=0\n",
      "note_off channel=0 note=57 velocity=64 time=1\n",
      "note_on channel=0 note=63 velocity=74 time=0\n",
      "note_off channel=0 note=64 velocity=64 time=0\n",
      "note_on channel=0 note=44 velocity=79 time=1\n",
      "note_off channel=0 note=45 velocity=64 time=0\n",
      "note_on channel=0 note=61 velocity=76 time=0\n",
      "note_on channel=0 note=69 velocity=32 time=0\n",
      "note_off channel=0 note=77 velocity=64 time=0\n",
      "note_off channel=0 note=63 velocity=64 time=1\n",
      "note_off channel=0 note=67 velocity=64 time=0\n",
      "note_on channel=0 note=75 velocity=22 time=0\n",
      "note_off channel=0 note=69 velocity=64 time=1\n",
      "note_on channel=0 note=78 velocity=24 time=0\n",
      "note_off channel=0 note=44 velocity=64 time=1\n",
      "note_on channel=0 note=45 velocity=66 time=0\n",
      "note_on channel=0 note=41 velocity=55 time=1\n",
      "note_off channel=0 note=45 velocity=64 time=0\n",
      "note_on channel=0 note=67 velocity=22 time=0\n",
      "note_off channel=0 note=84 velocity=64 time=0\n",
      "note_off channel=0 note=41 velocity=64 time=2\n",
      "note_on channel=0 note=43 velocity=60 time=0\n",
      "note_on channel=0 note=77 velocity=36 time=0\n",
      "note_off channel=0 note=78 velocity=64 time=0\n",
      "note_off channel=0 note=67 velocity=64 time=1\n",
      "note_on channel=0 note=71 velocity=22 time=0\n",
      "note_on channel=0 note=83 velocity=36 time=1\n",
      "note_off channel=0 note=87 velocity=64 time=0\n",
      "note_on channel=0 note=42 velocity=55 time=1\n",
      "note_off channel=0 note=43 velocity=64 time=0\n",
      "note_off channel=0 note=82 velocity=64 time=0\n",
      "note_on channel=0 note=65 velocity=29 time=1\n",
      "note_off channel=0 note=71 velocity=64 time=0\n",
      "note_off channel=0 note=42 velocity=64 time=1\n",
      "note_on channel=0 note=71 velocity=33 time=0\n",
      "note_on channel=0 note=47 velocity=72 time=1\n",
      "note_on channel=0 note=86 velocity=16 time=1\n",
      "note_on channel=0 note=87 velocity=30 time=0\n",
      "note_off channel=0 note=65 velocity=64 time=1\n",
      "note_off channel=0 note=47 velocity=64 time=1\n",
      "note_on channel=0 note=48 velocity=71 time=0\n",
      "note_on channel=0 note=65 velocity=68 time=1\n",
      "note_on channel=0 note=68 velocity=21 time=0\n",
      "note_off channel=0 note=48 velocity=64 time=1\n",
      "note_on channel=0 note=50 velocity=77 time=0\n",
      "note_on channel=0 note=84 velocity=27 time=0\n",
      "note_on channel=0 note=88 velocity=23 time=0\n",
      "note_off channel=0 note=89 velocity=64 time=0\n",
      "note_off channel=0 note=50 velocity=64 time=1\n",
      "note_on channel=0 note=53 velocity=72 time=0\n",
      "note_off channel=0 note=86 velocity=64 time=0\n",
      "note_off channel=0 note=68 velocity=64 time=2\n",
      "note_off channel=0 note=88 velocity=64 time=0\n",
      "note_off channel=0 note=53 velocity=64 time=1\n",
      "note_on channel=0 note=53 velocity=58 time=1\n",
      "note_on channel=0 note=82 velocity=44 time=2\n",
      "note_on channel=0 note=89 velocity=37 time=1\n",
      "note_on channel=0 note=93 velocity=18 time=0\n",
      "note_on channel=0 note=45 velocity=77 time=1\n",
      "note_off channel=0 note=53 velocity=64 time=0\n",
      "note_off channel=0 note=71 velocity=64 time=0\n",
      "note_off channel=0 note=75 velocity=64 time=0\n",
      "note_off channel=0 note=83 velocity=64 time=0\n",
      "note_on channel=0 note=53 velocity=49 time=1\n",
      "note_off channel=0 note=61 velocity=64 time=0\n",
      "note_on channel=0 note=64 velocity=82 time=0\n",
      "note_off channel=0 note=65 velocity=64 time=0\n",
      "note_on channel=0 note=67 velocity=64 time=0\n",
      "note_on channel=0 note=75 velocity=25 time=0\n",
      "note_on channel=0 note=44 velocity=78 time=2\n",
      "note_off channel=0 note=45 velocity=64 time=0\n",
      "note_off channel=0 note=53 velocity=64 time=0\n",
      "note_on channel=0 note=63 velocity=69 time=0\n",
      "note_off channel=0 note=64 velocity=64 time=0\n",
      "note_on channel=0 note=69 velocity=40 time=0\n",
      "note_on channel=0 note=61 velocity=79 time=1\n",
      "note_off channel=0 note=67 velocity=64 time=0\n",
      "note_off channel=0 note=87 velocity=64 time=0\n",
      "note_on channel=0 note=88 velocity=17 time=0\n",
      "note_off channel=0 note=89 velocity=64 time=0\n",
      "note_off channel=0 note=63 velocity=64 time=1\n",
      "note_on channel=0 note=68 velocity=38 time=0\n",
      "note_on channel=0 note=86 velocity=29 time=0\n",
      "note_on channel=0 note=65 velocity=47 time=1\n",
      "note_off channel=0 note=69 velocity=64 time=0\n",
      "note_off channel=0 note=75 velocity=64 time=0\n",
      "note_off channel=0 note=91 velocity=64 time=0\n",
      "note_off channel=0 note=86 velocity=64 time=1\n",
      "note_on channel=0 note=91 velocity=35 time=0\n",
      "note_off channel=0 note=44 velocity=64 time=1\n",
      "note_on channel=0 note=87 velocity=51 time=0\n",
      "note_off channel=0 note=88 velocity=64 time=0\n",
      "note_on channel=0 note=43 velocity=61 time=2\n",
      "note_on channel=0 note=75 velocity=21 time=1\n",
      "note_off channel=0 note=43 velocity=64 time=2\n",
      "note_on channel=0 note=71 velocity=24 time=2\n",
      "note_on channel=0 note=83 velocity=52 time=1\n",
      "note_on channel=0 note=47 velocity=75 time=1\n",
      "note_off channel=0 note=82 velocity=64 time=0\n",
      "note_off channel=0 note=47 velocity=64 time=2\n",
      "note_on channel=0 note=48 velocity=71 time=0\n",
      "note_off channel=0 note=48 velocity=64 time=1\n",
      "note_on channel=0 note=49 velocity=77 time=0\n",
      "note_off channel=0 note=49 velocity=64 time=1\n",
      "note_on channel=0 note=52 velocity=75 time=0\n",
      "note_off channel=0 note=68 velocity=64 time=0\n",
      "note_on channel=0 note=89 velocity=76 time=0\n",
      "note_off channel=0 note=93 velocity=64 time=0\n",
      "note_off channel=0 note=52 velocity=64 time=1\n",
      "note_on channel=0 note=53 velocity=65 time=0\n",
      "note_off channel=0 note=53 velocity=64 time=1\n",
      "note_off channel=0 note=75 velocity=64 time=0\n",
      "note_off channel=0 note=91 velocity=64 time=0\n",
      "note_on channel=0 note=91 velocity=33 time=1\n",
      "note_on channel=0 note=53 velocity=59 time=1\n",
      "note_on channel=0 note=75 velocity=47 time=3\n",
      "note_off channel=0 note=91 velocity=64 time=0\n",
      "note_off channel=0 note=65 velocity=64 time=1\n",
      "note_off channel=0 note=77 velocity=64 time=0\n",
      "note_on channel=0 note=91 velocity=36 time=0\n",
      "note_on channel=0 note=48 velocity=88 time=1\n",
      "note_off channel=0 note=53 velocity=64 time=0\n",
      "note_off channel=0 note=71 velocity=64 time=0\n",
      "note_on channel=0 note=93 velocity=12 time=0\n",
      "note_on channel=0 note=98 velocity=17 time=0\n",
      "note_on channel=0 note=94 velocity=18 time=1\n",
      "note_on channel=0 note=77 velocity=30 time=1\n",
      "note_on channel=0 note=46 velocity=69 time=1\n",
      "note_off channel=0 note=48 velocity=64 time=0\n",
      "note_off channel=0 note=90 velocity=64 time=0\n",
      "note_off channel=0 note=93 velocity=64 time=0\n",
      "note_off channel=0 note=98 velocity=64 time=0\n",
      "note_on channel=0 note=65 velocity=22 time=1\n",
      "note_on channel=0 note=68 velocity=21 time=0\n",
      "note_on channel=0 note=90 velocity=39 time=0\n",
      "note_off channel=0 note=94 velocity=64 time=0\n",
      "note_off channel=0 note=46 velocity=64 time=1\n",
      "note_on channel=0 note=47 velocity=68 time=0\n",
      "note_off channel=0 note=75 velocity=64 time=0\n",
      "note_off channel=0 note=47 velocity=64 time=1\n",
      "note_off channel=0 note=77 velocity=64 time=0\n",
      "note_on channel=0 note=45 velocity=59 time=1\n",
      "note_off channel=0 note=68 velocity=64 time=0\n",
      "note_on channel=0 note=78 velocity=12 time=0\n",
      "note_off channel=0 note=65 velocity=64 time=1\n",
      "note_on channel=0 note=82 velocity=29 time=0\n",
      "note_off channel=0 note=83 velocity=64 time=0\n",
      "note_off channel=0 note=84 velocity=64 time=0\n",
      "note_on channel=0 note=93 velocity=10 time=1\n",
      "note_on channel=0 note=44 velocity=49 time=2\n",
      "note_off channel=0 note=45 velocity=64 time=0\n",
      "note_on channel=0 note=83 velocity=34 time=0\n",
      "note_on channel=0 note=54 velocity=35 time=1\n",
      "note_on channel=0 note=65 velocity=14 time=0\n",
      "note_on channel=0 note=71 velocity=47 time=0\n",
      "note_on channel=0 note=77 velocity=37 time=0\n",
      "note_off channel=0 note=78 velocity=64 time=0\n",
      "note_off channel=0 note=82 velocity=64 time=0\n",
      "note_off channel=0 note=54 velocity=64 time=2\n",
      "note_off channel=0 note=93 velocity=64 time=0\n",
      "note_on channel=0 note=43 velocity=36 time=1\n",
      "note_off channel=0 note=44 velocity=64 time=0\n",
      "note_on channel=0 note=54 velocity=29 time=0\n",
      "note_on channel=0 note=82 velocity=37 time=1\n",
      "note_on channel=0 note=53 velocity=33 time=1\n",
      "note_off channel=0 note=54 velocity=64 time=0\n",
      "note_off channel=0 note=83 velocity=64 time=0\n",
      "note_on channel=0 note=88 velocity=39 time=1\n",
      "note_off channel=0 note=53 velocity=64 time=1\n",
      "note_on channel=0 note=54 velocity=31 time=0\n",
      "note_off channel=0 note=89 velocity=64 time=0\n",
      "note_off channel=0 note=43 velocity=64 time=1\n",
      "note_on channel=0 note=43 velocity=20 time=1\n",
      "note_off channel=0 note=54 velocity=64 time=0\n",
      "note_on channel=0 note=93 velocity=24 time=1\n",
      "note_off channel=0 note=43 velocity=64 time=3\n",
      "note_on channel=0 note=75 velocity=14 time=1\n",
      "note_off channel=0 note=82 velocity=64 time=1\n",
      "note_on channel=0 note=89 velocity=73 time=1\n",
      "note_off channel=0 note=65 velocity=64 time=1\n",
      "note_off channel=0 note=75 velocity=64 time=0\n",
      "note_on channel=0 note=76 velocity=46 time=0\n",
      "note_off channel=0 note=88 velocity=64 time=0\n",
      "note_off channel=0 note=90 velocity=64 time=0\n",
      "note_on channel=0 note=96 velocity=15 time=0\n",
      "note_on channel=0 note=102 velocity=19 time=0\n",
      "note_on channel=0 note=46 velocity=73 time=1\n",
      "note_on channel=0 note=69 velocity=49 time=0\n",
      "note_on channel=0 note=78 velocity=40 time=0\n",
      "note_on channel=0 note=84 velocity=40 time=0\n",
      "note_on channel=0 note=90 velocity=47 time=0\n",
      "note_on channel=0 note=45 velocity=77 time=1\n",
      "note_off channel=0 note=46 velocity=64 time=0\n",
      "note_on channel=0 note=75 velocity=41 time=0\n",
      "note_off channel=0 note=77 velocity=64 time=0\n",
      "note_on channel=0 note=44 velocity=77 time=1\n",
      "note_off channel=0 note=45 velocity=64 time=0\n",
      "note_off channel=0 note=76 velocity=64 time=0\n",
      "note_on channel=0 note=77 velocity=39 time=0\n",
      "note_off channel=0 note=78 velocity=64 time=0\n",
      "note_off channel=0 note=69 velocity=64 time=1\n",
      "note_off channel=0 note=90 velocity=64 time=0\n",
      "note_off channel=0 note=96 velocity=64 time=0\n",
      "note_on channel=0 note=67 velocity=36 time=1\n",
      "note_on channel=0 note=90 velocity=48 time=0\n",
      "note_off channel=0 note=102 velocity=64 time=0\n",
      "note_on channel=0 note=43 velocity=73 time=1\n",
      "note_off channel=0 note=44 velocity=64 time=0\n",
      "note_on channel=0 note=54 velocity=25 time=0\n",
      "note_on channel=0 note=88 velocity=33 time=0\n",
      "note_off channel=0 note=89 velocity=64 time=0\n",
      "note_on channel=0 note=65 velocity=18 time=1\n",
      "note_off channel=0 note=67 velocity=64 time=0\n",
      "note_on channel=0 note=68 velocity=49 time=0\n",
      "note_off channel=0 note=84 velocity=64 time=1\n",
      "note_off channel=0 note=43 velocity=64 time=5\n",
      "note_on channel=0 note=44 velocity=18 time=0\n",
      "note_off channel=0 note=54 velocity=64 time=1\n",
      "note_on channel=0 note=82 velocity=29 time=0\n",
      "note_off channel=0 note=44 velocity=64 time=2\n",
      "note_off channel=0 note=75 velocity=64 time=1\n",
      "note_on channel=0 note=83 velocity=49 time=0\n",
      "note_off channel=0 note=82 velocity=64 time=1\n",
      "note_on channel=0 note=84 velocity=14 time=3\n",
      "note_off channel=0 note=87 velocity=64 time=1\n",
      "note_off channel=0 note=93 velocity=64 time=1\n",
      "note_off channel=0 note=88 velocity=64 time=2\n",
      "note_on channel=0 note=75 velocity=49 time=2\n",
      "note_on channel=0 note=63 velocity=95 time=2\n",
      "note_off channel=0 note=65 velocity=64 time=0\n",
      "note_off channel=0 note=71 velocity=64 time=0\n",
      "note_off channel=0 note=77 velocity=64 time=0\n",
      "note_on channel=0 note=78 velocity=34 time=0\n",
      "note_on channel=0 note=82 velocity=63 time=0\n",
      "note_off channel=0 note=84 velocity=64 time=0\n",
      "note_on channel=0 note=93 velocity=13 time=0\n",
      "note_on channel=0 note=57 velocity=54 time=1\n",
      "note_off channel=0 note=61 velocity=64 time=0\n",
      "note_off channel=0 note=68 velocity=64 time=0\n",
      "note_on channel=0 note=69 velocity=55 time=0\n",
      "note_on channel=0 note=71 velocity=46 time=0\n",
      "note_off channel=0 note=83 velocity=64 time=0\n",
      "note_on channel=0 note=84 velocity=37 time=0\n",
      "note_on channel=0 note=89 velocity=48 time=0\n",
      "note_off channel=0 note=91 velocity=64 time=0\n",
      "note_off channel=0 note=71 velocity=64 time=2\n",
      "note_on channel=0 note=77 velocity=43 time=0\n",
      "note_off channel=0 note=78 velocity=64 time=0\n",
      "note_off channel=0 note=84 velocity=64 time=0\n",
      "note_off channel=0 note=57 velocity=64 time=1\n",
      "note_on channel=0 note=68 velocity=39 time=0\n",
      "note_off channel=0 note=69 velocity=64 time=0\n",
      "note_on channel=0 note=71 velocity=29 time=0\n",
      "note_off channel=0 note=82 velocity=64 time=0\n",
      "note_on channel=0 note=83 velocity=40 time=0\n",
      "note_on channel=0 note=88 velocity=12 time=0\n",
      "note_on channel=0 note=91 velocity=34 time=0\n",
      "note_off channel=0 note=89 velocity=64 time=1\n",
      "note_off channel=0 note=71 velocity=64 time=1\n",
      "note_off channel=0 note=75 velocity=64 time=0\n",
      "note_on channel=0 note=71 velocity=58 time=1\n",
      "note_off channel=0 note=88 velocity=64 time=0\n",
      "note_on channel=0 note=88 velocity=11 time=4\n",
      "note_off channel=0 note=93 velocity=64 time=0\n",
      "note_off channel=0 note=80 velocity=64 time=5\n",
      "note_off channel=0 note=88 velocity=64 time=0\n",
      "note_on channel=0 note=49 velocity=22 time=2\n",
      "note_off channel=0 note=49 velocity=64 time=4\n",
      "note_on channel=0 note=88 velocity=18 time=1\n",
      "note_on channel=0 note=101 velocity=9 time=0\n",
      "note_on channel=0 note=61 velocity=66 time=5\n",
      "note_off channel=0 note=61 velocity=64 time=1\n",
      "note_on channel=0 note=82 velocity=59 time=0\n",
      "note_on channel=0 note=89 velocity=79 time=0\n",
      "note_off channel=0 note=101 velocity=64 time=0\n",
      "note_on channel=0 note=61 velocity=87 time=1\n",
      "note_off channel=0 note=63 velocity=64 time=0\n",
      "note_off channel=0 note=68 velocity=64 time=0\n",
      "note_off channel=0 note=83 velocity=64 time=0\n",
      "note_off channel=0 note=88 velocity=64 time=0\n",
      "note_off channel=0 note=90 velocity=64 time=0\n",
      "note_on channel=0 note=57 velocity=52 time=1\n",
      "note_on channel=0 note=75 velocity=36 time=0\n",
      "note_on channel=0 note=90 velocity=44 time=0\n",
      "note_on channel=0 note=63 velocity=87 time=1\n",
      "note_off channel=0 note=57 velocity=64 time=1\n",
      "note_off channel=0 note=61 velocity=64 time=0\n",
      "note_on channel=0 note=68 velocity=34 time=0\n",
      "note_off channel=0 note=75 velocity=64 time=0\n",
      "note_off channel=0 note=82 velocity=64 time=0\n",
      "note_on channel=0 note=80 velocity=90 time=2\n",
      "note_off channel=0 note=63 velocity=64 time=14\n",
      "note_on channel=0 note=64 velocity=71 time=0\n",
      "note_on channel=0 note=87 velocity=46 time=0\n",
      "note_on channel=0 note=62 velocity=79 time=1\n",
      "note_off channel=0 note=64 velocity=64 time=0\n",
      "note_off channel=0 note=62 velocity=64 time=1\n",
      "note_on channel=0 note=64 velocity=69 time=1\n",
      "note_on channel=0 note=62 velocity=77 time=1\n",
      "note_off channel=0 note=64 velocity=64 time=0\n",
      "note_on channel=0 note=61 velocity=70 time=1\n",
      "note_off channel=0 note=62 velocity=64 time=0\n",
      "note_off channel=0 note=61 velocity=64 time=2\n",
      "note_on channel=0 note=62 velocity=75 time=0\n",
      "note_on channel=0 note=61 velocity=67 time=1\n",
      "note_off channel=0 note=62 velocity=64 time=0\n",
      "note_on channel=0 note=63 velocity=69 time=0\n",
      "note_off channel=0 note=61 velocity=64 time=1\n",
      "note_off channel=0 note=63 velocity=64 time=0\n",
      "note_on channel=0 note=64 velocity=77 time=0\n",
      "note_on channel=0 note=75 velocity=31 time=0\n",
      "note_on channel=0 note=63 velocity=78 time=1\n",
      "note_off channel=0 note=64 velocity=64 time=0\n",
      "note_off channel=0 note=68 velocity=64 time=0\n",
      "note_off channel=0 note=77 velocity=64 time=0\n",
      "note_off channel=0 note=90 velocity=64 time=0\n",
      "note_off channel=0 note=71 velocity=64 time=1\n",
      "note_on channel=0 note=88 velocity=36 time=0\n",
      "note_on channel=0 note=61 velocity=74 time=2\n",
      "note_on channel=0 note=77 velocity=47 time=0\n",
      "note_off channel=0 note=88 velocity=64 time=0\n",
      "note_off channel=0 note=63 velocity=64 time=1\n",
      "note_on channel=0 note=65 velocity=52 time=1\n",
      "note_on channel=0 note=90 velocity=30 time=7\n",
      "note_on channel=0 note=68 velocity=60 time=1\n",
      "note_on channel=0 note=83 velocity=50 time=0\n",
      "note_off channel=0 note=90 velocity=64 time=2\n",
      "note_off channel=0 note=75 velocity=64 time=5\n",
      "note_on channel=0 note=90 velocity=21 time=0\n",
      "note_on channel=0 note=71 velocity=17 time=1\n",
      "note_off channel=0 note=91 velocity=64 time=1\n",
      "note_off channel=0 note=89 velocity=64 time=3\n",
      "note_off channel=0 note=90 velocity=64 time=0\n",
      "note_on channel=0 note=91 velocity=36 time=0\n",
      "note_on channel=0 note=89 velocity=52 time=3\n",
      "note_off channel=0 note=61 velocity=64 time=1\n",
      "note_on channel=0 note=62 velocity=78 time=0\n",
      "note_off channel=0 note=65 velocity=64 time=0\n",
      "note_off channel=0 note=71 velocity=64 time=0\n",
      "note_on channel=0 note=75 velocity=43 time=0\n",
      "note_on channel=0 note=96 velocity=20 time=0\n",
      "note_on channel=0 note=57 velocity=68 time=1\n",
      "note_on channel=0 note=71 velocity=43 time=0\n",
      "note_on channel=0 note=90 velocity=34 time=0\n",
      "note_on channel=0 note=61 velocity=75 time=1\n",
      "note_off channel=0 note=62 velocity=64 time=0\n",
      "note_on channel=0 note=63 velocity=68 time=0\n",
      "note_off channel=0 note=63 velocity=64 time=1\n",
      "note_on channel=0 note=64 velocity=59 time=0\n",
      "note_on channel=0 note=70 velocity=43 time=0\n",
      "note_off channel=0 note=71 velocity=64 time=0\n",
      "note_off channel=0 note=75 velocity=64 time=0\n",
      "note_off channel=0 note=91 velocity=64 time=0\n",
      "note_off channel=0 note=57 velocity=64 time=1\n",
      "note_off channel=0 note=64 velocity=64 time=1\n",
      "note_on channel=0 note=65 velocity=35 time=0\n",
      "note_off channel=0 note=70 velocity=64 time=0\n",
      "note_off channel=0 note=90 velocity=64 time=0\n",
      "note_on channel=0 note=91 velocity=33 time=0\n",
      "note_off channel=0 note=96 velocity=64 time=0\n",
      "note_on channel=0 note=53 velocity=43 time=1\n",
      "note_off channel=0 note=68 velocity=64 time=1\n",
      "note_off channel=0 note=53 velocity=64 time=1\n",
      "note_off channel=0 note=65 velocity=64 time=0\n",
      "note_on channel=0 note=71 velocity=32 time=0\n",
      "note_on channel=0 note=75 velocity=47 time=6\n",
      "note_on channel=0 note=82 velocity=61 time=0\n",
      "note_off channel=0 note=77 velocity=64 time=1\n",
      "note_on channel=0 note=78 velocity=21 time=0\n",
      "note_off channel=0 note=80 velocity=64 time=0\n",
      "note_on channel=0 note=88 velocity=21 time=0\n",
      "note_on channel=0 note=53 velocity=46 time=1\n",
      "note_on channel=0 note=69 velocity=37 time=0\n",
      "note_on channel=0 note=80 velocity=50 time=0\n",
      "note_off channel=0 note=83 velocity=64 time=0\n",
      "note_on channel=0 note=84 velocity=38 time=0\n",
      "note_on channel=0 note=90 velocity=32 time=0\n",
      "note_on channel=0 note=77 velocity=29 time=1\n",
      "note_off channel=0 note=53 velocity=64 time=1\n",
      "note_on channel=0 note=68 velocity=17 time=0\n",
      "note_off channel=0 note=69 velocity=64 time=0\n",
      "note_off channel=0 note=71 velocity=64 time=0\n",
      "note_off channel=0 note=75 velocity=64 time=0\n",
      "note_off channel=0 note=78 velocity=64 time=0\n",
      "note_off channel=0 note=88 velocity=64 time=0\n",
      "note_off channel=0 note=90 velocity=64 time=0\n",
      "note_on channel=0 note=65 velocity=49 time=1\n",
      "note_on channel=0 note=71 velocity=24 time=0\n",
      "note_off channel=0 note=84 velocity=64 time=0\n",
      "note_on channel=0 note=49 velocity=13 time=2\n",
      "note_on channel=0 note=75 velocity=12 time=0\n",
      "note_on channel=0 note=83 velocity=39 time=0\n",
      "note_off channel=0 note=68 velocity=64 time=1\n",
      "note_off channel=0 note=82 velocity=64 time=0\n",
      "note_off channel=0 note=75 velocity=64 time=2\n",
      "note_off channel=0 note=49 velocity=64 time=1\n",
      "note_on channel=0 note=75 velocity=14 time=0\n",
      "note_on channel=0 note=84 velocity=26 time=2\n",
      "note_off channel=0 note=71 velocity=64 time=2\n",
      "note_off channel=0 note=75 velocity=64 time=0\n",
      "note_off channel=0 note=61 velocity=64 time=1\n",
      "note_on channel=0 note=62 velocity=79 time=0\n",
      "note_off channel=0 note=65 velocity=64 time=0\n",
      "note_on channel=0 note=76 velocity=34 time=0\n",
      "note_off channel=0 note=77 velocity=64 time=0\n",
      "note_on channel=0 note=45 velocity=75 time=1\n",
      "note_on channel=0 note=61 velocity=71 time=0\n",
      "note_off channel=0 note=62 velocity=64 time=0\n",
      "note_on channel=0 note=64 velocity=82 time=0\n",
      "note_on channel=0 note=90 velocity=32 time=0\n",
      "note_on channel=0 note=44 velocity=79 time=1\n",
      "note_off channel=0 note=45 velocity=64 time=0\n",
      "note_off channel=0 note=61 velocity=64 time=0\n",
      "note_off channel=0 note=89 velocity=64 time=0\n",
      "note_on channel=0 note=60 velocity=63 time=1\n",
      "note_on channel=0 note=63 velocity=67 time=0\n",
      "note_off channel=0 note=64 velocity=64 time=0\n",
      "note_off channel=0 note=76 velocity=64 time=0\n",
      "note_on channel=0 note=77 velocity=40 time=0\n",
      "note_on channel=0 note=86 velocity=18 time=0\n",
      "note_off channel=0 note=90 velocity=64 time=0\n",
      "note_off channel=0 note=95 velocity=64 time=0\n",
      "note_off channel=0 note=63 velocity=64 time=1\n",
      "note_on channel=0 note=68 velocity=42 time=0\n",
      "note_on channel=0 note=82 velocity=30 time=0\n",
      "note_on channel=0 note=89 velocity=53 time=0\n",
      "note_off channel=0 note=60 velocity=64 time=1\n",
      "note_on channel=0 note=61 velocity=81 time=0\n",
      "note_on channel=0 note=65 velocity=31 time=0\n",
      "note_on channel=0 note=71 velocity=33 time=0\n",
      "note_off channel=0 note=83 velocity=64 time=0\n",
      "note_off channel=0 note=44 velocity=64 time=1\n",
      "note_on channel=0 note=41 velocity=57 time=1\n",
      "note_off channel=0 note=65 velocity=64 time=0\n",
      "note_off channel=0 note=82 velocity=64 time=0\n",
      "note_on channel=0 note=90 velocity=20 time=0\n",
      "note_on channel=0 note=65 velocity=29 time=1\n",
      "note_off channel=0 note=68 velocity=64 time=0\n",
      "note_off channel=0 note=71 velocity=64 time=0\n",
      "note_off channel=0 note=86 velocity=64 time=0\n",
      "note_off channel=0 note=41 velocity=64 time=1\n",
      "note_on channel=0 note=43 velocity=62 time=0\n",
      "note_on channel=0 note=71 velocity=30 time=0\n",
      "note_on channel=0 note=74 velocity=76 time=0\n",
      "note_off channel=0 note=80 velocity=64 time=0\n",
      "note_on channel=0 note=81 velocity=81 time=0\n",
      "note_on channel=0 note=82 velocity=31 time=0\n",
      "note_on channel=0 note=95 velocity=28 time=0\n",
      "note_off channel=0 note=90 velocity=64 time=1\n",
      "note_off channel=0 note=65 velocity=64 time=1\n",
      "note_off channel=0 note=82 velocity=64 time=0\n",
      "note_on channel=0 note=102 velocity=43 time=0\n",
      "note_on channel=0 note=42 velocity=55 time=1\n",
      "note_off channel=0 note=43 velocity=64 time=0\n",
      "note_off channel=0 note=61 velocity=64 time=0\n",
      "note_on channel=0 note=62 velocity=79 time=0\n",
      "note_on channel=0 note=90 velocity=65 time=0\n",
      "note_on channel=0 note=100 velocity=35 time=0\n",
      "note_off channel=0 note=95 velocity=64 time=1\n",
      "note_off channel=0 note=42 velocity=64 time=1\n",
      "note_on channel=0 note=61 velocity=76 time=0\n",
      "note_off channel=0 note=62 velocity=64 time=0\n",
      "note_on channel=0 note=65 velocity=45 time=0\n",
      "note_off channel=0 note=71 velocity=64 time=0\n",
      "note_off channel=0 note=87 velocity=64 time=0\n",
      "note_on channel=0 note=48 velocity=67 time=1\n",
      "note_off channel=0 note=65 velocity=64 time=1\n",
      "note_on channel=0 note=47 velocity=73 time=1\n",
      "note_off channel=0 note=48 velocity=64 time=0\n",
      "note_on channel=0 note=65 velocity=46 time=0\n",
      "note_on channel=0 note=82 velocity=34 time=0\n",
      "note_off channel=0 note=47 velocity=64 time=1\n",
      "note_on channel=0 note=48 velocity=72 time=0\n",
      "note_on channel=0 note=71 velocity=12 time=0\n",
      "note_on channel=0 note=95 velocity=26 time=0\n",
      "note_off channel=0 note=48 velocity=64 time=1\n",
      "note_on channel=0 note=49 velocity=72 time=0\n",
      "note_on channel=0 note=68 velocity=30 time=0\n",
      "note_off channel=0 note=89 velocity=64 time=0\n",
      "note_off channel=0 note=49 velocity=64 time=1\n",
      "note_on channel=0 note=50 velocity=78 time=0\n",
      "note_on channel=0 note=89 velocity=73 time=0\n",
      "note_off channel=0 note=90 velocity=64 time=0\n",
      "note_off channel=0 note=102 velocity=64 time=0\n",
      "note_off channel=0 note=50 velocity=64 time=1\n",
      "note_on channel=0 note=53 velocity=73 time=0\n",
      "note_on channel=0 note=73 velocity=81 time=0\n",
      "note_off channel=0 note=74 velocity=64 time=0\n",
      "note_on channel=0 note=80 velocity=80 time=0\n",
      "note_off channel=0 note=81 velocity=64 time=0\n",
      "note_off channel=0 note=82 velocity=64 time=0\n",
      "note_on channel=0 note=83 velocity=51 time=0\n",
      "note_on channel=0 note=102 velocity=21 time=0\n",
      "note_off channel=0 note=71 velocity=64 time=1\n",
      "note_off channel=0 note=100 velocity=64 time=0\n",
      "note_on channel=0 note=90 velocity=25 time=1\n",
      "note_off channel=0 note=53 velocity=64 time=1\n",
      "note_on channel=0 note=87 velocity=51 time=0\n",
      "note_off channel=0 note=91 velocity=64 time=0\n",
      "note_off channel=0 note=102 velocity=64 time=0\n",
      "note_on channel=0 note=53 velocity=59 time=1\n",
      "note_off channel=0 note=84 velocity=64 time=0\n",
      "note_off channel=0 note=80 velocity=64 time=1\n",
      "note_on channel=0 note=81 velocity=74 time=0\n",
      "note_on channel=0 note=86 velocity=43 time=0\n",
      "note_off channel=0 note=90 velocity=64 time=0\n",
      "note_on channel=0 note=102 velocity=43 time=0\n",
      "note_off channel=0 note=53 velocity=64 time=1\n",
      "note_on channel=0 note=54 velocity=38 time=0\n",
      "note_off channel=0 note=73 velocity=64 time=0\n",
      "note_on channel=0 note=74 velocity=80 time=0\n",
      "note_on channel=0 note=78 velocity=25 time=0\n",
      "note_on channel=0 note=84 velocity=12 time=0\n",
      "note_on channel=0 note=90 velocity=67 time=0\n",
      "note_on channel=0 note=96 velocity=20 time=0\n",
      "note_off channel=0 note=61 velocity=64 time=1\n",
      "note_on channel=0 note=62 velocity=81 time=0\n",
      "note_off channel=0 note=95 velocity=64 time=0\n",
      "note_off channel=0 note=54 velocity=64 time=1\n",
      "note_off channel=0 note=65 velocity=64 time=0\n",
      "note_off channel=0 note=68 velocity=64 time=0\n",
      "note_on channel=0 note=73 velocity=80 time=0\n",
      "note_on channel=0 note=45 velocity=77 time=1\n",
      "note_off channel=0 note=62 velocity=64 time=0\n",
      "note_on channel=0 note=63 velocity=83 time=0\n",
      "note_on channel=0 note=67 velocity=61 time=0\n",
      "note_off channel=0 note=74 velocity=64 time=0\n",
      "note_off channel=0 note=78 velocity=64 time=0\n",
      "note_off channel=0 note=84 velocity=64 time=0\n",
      "note_off channel=0 note=96 velocity=64 time=0\n",
      "note_on channel=0 note=61 velocity=72 time=1\n",
      "note_off channel=0 note=63 velocity=64 time=0\n",
      "note_on channel=0 note=64 velocity=77 time=0\n",
      "note_on channel=0 note=84 velocity=23 time=0\n",
      "note_off channel=0 note=90 velocity=64 time=0\n",
      "note_on channel=0 note=92 velocity=33 time=0\n",
      "note_on channel=0 note=44 velocity=79 time=1\n",
      "note_off channel=0 note=45 velocity=64 time=0\n",
      "note_off channel=0 note=61 velocity=64 time=0\n",
      "note_on channel=0 note=63 velocity=79 time=0\n",
      "note_off channel=0 note=64 velocity=64 time=0\n",
      "note_off channel=0 note=67 velocity=64 time=0\n",
      "note_on channel=0 note=69 velocity=32 time=0\n",
      "note_on channel=0 note=80 velocity=68 time=0\n",
      "note_off channel=0 note=81 velocity=64 time=0\n",
      "note_on channel=0 note=61 velocity=79 time=1\n",
      "note_off channel=0 note=63 velocity=64 time=0\n",
      "note_on channel=0 note=90 velocity=49 time=0\n",
      "note_on channel=0 note=68 velocity=29 time=1\n",
      "note_off channel=0 note=69 velocity=64 time=0\n",
      "note_off channel=0 note=86 velocity=64 time=0\n",
      "note_on channel=0 note=65 velocity=37 time=1\n",
      "note_off channel=0 note=77 velocity=64 time=0\n",
      "note_off channel=0 note=84 velocity=64 time=0\n",
      "note_on channel=0 note=91 velocity=31 time=0\n",
      "note_on channel=0 note=75 velocity=19 time=1\n",
      "note_on channel=0 note=84 velocity=14 time=0\n",
      "note_off channel=0 note=44 velocity=64 time=1\n",
      "note_off channel=0 note=68 velocity=64 time=1\n",
      "note_on channel=0 note=43 velocity=61 time=1\n",
      "note_off channel=0 note=75 velocity=64 time=0\n",
      "note_off channel=0 note=61 velocity=64 time=1\n",
      "note_off channel=0 note=84 velocity=64 time=0\n",
      "note_on channel=0 note=94 velocity=21 time=0\n",
      "note_on channel=0 note=61 velocity=79 time=1\n",
      "note_off channel=0 note=65 velocity=64 time=0\n",
      "note_off channel=0 note=91 velocity=64 time=0\n",
      "note_on channel=0 note=42 velocity=58 time=1\n",
      "note_off channel=0 note=43 velocity=64 time=0\n",
      "note_on channel=0 note=91 velocity=39 time=0\n",
      "note_off channel=0 note=102 velocity=64 time=0\n",
      "note_on channel=0 note=88 velocity=53 time=1\n",
      "note_off channel=0 note=89 velocity=64 time=0\n",
      "note_on channel=0 note=78 velocity=27 time=1\n",
      "note_on channel=0 note=84 velocity=44 time=0\n",
      "note_off channel=0 note=92 velocity=64 time=0\n",
      "note_on channel=0 note=79 velocity=62 time=1\n",
      "note_off channel=0 note=80 velocity=64 time=0\n",
      "note_off channel=0 note=61 velocity=64 time=1\n",
      "note_on channel=0 note=72 velocity=69 time=0\n"
     ]
    },
    {
     "name": "stdout",
     "output_type": "stream",
     "text": [
      "note_off channel=0 note=73 velocity=64 time=0\n",
      "note_off channel=0 note=84 velocity=64 time=0\n",
      "note_on channel=0 note=85 velocity=36 time=0\n",
      "note_on channel=0 note=61 velocity=77 time=1\n",
      "note_on channel=0 note=82 velocity=31 time=0\n",
      "note_off channel=0 note=83 velocity=64 time=0\n",
      "note_on channel=0 note=89 velocity=69 time=0\n",
      "note_on channel=0 note=95 velocity=45 time=0\n",
      "note_on channel=0 note=75 velocity=47 time=1\n",
      "note_off channel=0 note=78 velocity=64 time=1\n",
      "note_off channel=0 note=94 velocity=64 time=0\n",
      "note_on channel=0 note=83 velocity=53 time=1\n",
      "note_off channel=0 note=88 velocity=64 time=0\n",
      "note_off channel=0 note=72 velocity=64 time=1\n",
      "note_on channel=0 note=78 velocity=62 time=0\n",
      "note_off channel=0 note=91 velocity=64 time=1\n",
      "note_off channel=0 note=79 velocity=64 time=1\n",
      "note_on channel=0 note=80 velocity=83 time=0\n",
      "note_off channel=0 note=82 velocity=64 time=0\n",
      "note_on channel=0 note=91 velocity=26 time=0\n",
      "note_on channel=0 note=93 velocity=26 time=0\n",
      "note_off channel=0 note=61 velocity=64 time=1\n",
      "note_on channel=0 note=62 velocity=68 time=0\n",
      "note_on channel=0 note=71 velocity=64 time=0\n",
      "note_on channel=0 note=82 velocity=27 time=0\n",
      "note_off channel=0 note=42 velocity=64 time=1\n",
      "note_on channel=0 note=61 velocity=71 time=0\n",
      "note_off channel=0 note=62 velocity=64 time=0\n",
      "note_on channel=0 note=88 velocity=35 time=2\n",
      "note_off channel=0 note=82 velocity=64 time=1\n",
      "note_on channel=0 note=47 velocity=78 time=1\n",
      "note_off channel=0 note=61 velocity=64 time=0\n",
      "note_on channel=0 note=62 velocity=69 time=0\n",
      "note_on channel=0 note=96 velocity=10 time=0\n",
      "note_off channel=0 note=47 velocity=64 time=1\n",
      "note_on channel=0 note=48 velocity=86 time=0\n",
      "note_off channel=0 note=62 velocity=64 time=0\n",
      "note_on channel=0 note=64 velocity=65 time=0\n",
      "note_on channel=0 note=73 velocity=27 time=0\n",
      "note_on channel=0 note=82 velocity=49 time=0\n",
      "note_off channel=0 note=83 velocity=64 time=0\n",
      "note_off channel=0 note=93 velocity=64 time=0\n",
      "note_on channel=0 note=58 velocity=52 time=1\n",
      "note_on channel=0 note=77 velocity=80 time=0\n",
      "note_off channel=0 note=78 velocity=64 time=0\n",
      "note_off channel=0 note=48 velocity=64 time=1\n",
      "note_on channel=0 note=61 velocity=55 time=0\n",
      "note_off channel=0 note=64 velocity=64 time=0\n",
      "note_on channel=0 note=70 velocity=61 time=0\n",
      "note_off channel=0 note=71 velocity=64 time=0\n",
      "note_on channel=0 note=84 velocity=31 time=0\n",
      "note_off channel=0 note=88 velocity=64 time=0\n",
      "note_off channel=0 note=90 velocity=64 time=0\n",
      "note_off channel=0 note=75 velocity=64 time=1\n",
      "note_off channel=0 note=96 velocity=64 time=0\n",
      "note_on channel=0 note=102 velocity=26 time=0\n",
      "note_on channel=0 note=48 velocity=64 time=1\n",
      "note_on channel=0 note=66 velocity=10 time=0\n",
      "note_on channel=0 note=81 velocity=36 time=0\n",
      "note_off channel=0 note=82 velocity=64 time=0\n",
      "note_on channel=0 note=83 velocity=50 time=0\n",
      "note_off channel=0 note=85 velocity=64 time=0\n",
      "note_on channel=0 note=86 velocity=28 time=0\n",
      "note_on channel=0 note=90 velocity=32 time=0\n",
      "note_on channel=0 note=57 velocity=50 time=1\n",
      "note_off channel=0 note=58 velocity=64 time=0\n",
      "note_off channel=0 note=61 velocity=64 time=0\n",
      "note_on channel=0 note=76 velocity=75 time=0\n",
      "note_off channel=0 note=77 velocity=64 time=0\n",
      "note_on channel=0 note=85 velocity=52 time=0\n",
      "note_off channel=0 note=89 velocity=64 time=0\n",
      "note_off channel=0 note=48 velocity=64 time=1\n",
      "note_on channel=0 note=49 velocity=53 time=0\n",
      "note_on channel=0 note=69 velocity=53 time=0\n",
      "note_off channel=0 note=70 velocity=64 time=0\n",
      "note_off channel=0 note=81 velocity=64 time=0\n",
      "note_off channel=0 note=66 velocity=64 time=1\n",
      "note_off channel=0 note=86 velocity=64 time=0\n",
      "note_off channel=0 note=49 velocity=64 time=1\n",
      "note_on channel=0 note=65 velocity=25 time=1\n",
      "note_on channel=0 note=44 velocity=38 time=1\n",
      "note_on channel=0 note=71 velocity=55 time=2\n",
      "note_on channel=0 note=54 velocity=32 time=1\n",
      "note_off channel=0 note=57 velocity=64 time=0\n",
      "note_on channel=0 note=58 velocity=46 time=0\n",
      "note_off channel=0 note=69 velocity=64 time=0\n",
      "note_off channel=0 note=76 velocity=64 time=0\n",
      "note_on channel=0 note=77 velocity=73 time=0\n",
      "note_off channel=0 note=71 velocity=64 time=1\n",
      "note_on channel=0 note=82 velocity=36 time=0\n",
      "note_off channel=0 note=90 velocity=64 time=0\n",
      "note_off channel=0 note=44 velocity=64 time=1\n",
      "note_off channel=0 note=54 velocity=64 time=0\n",
      "note_off channel=0 note=58 velocity=64 time=0\n",
      "note_on channel=0 note=71 velocity=52 time=0\n",
      "note_on channel=0 note=88 velocity=47 time=0\n",
      "note_on channel=0 note=90 velocity=32 time=0\n",
      "note_on channel=0 note=54 velocity=30 time=1\n",
      "note_on channel=0 note=60 velocity=50 time=0\n",
      "note_on channel=0 note=68 velocity=17 time=0\n",
      "note_off channel=0 note=73 velocity=64 time=0\n",
      "note_on channel=0 note=78 velocity=37 time=0\n",
      "note_off channel=0 note=82 velocity=64 time=0\n",
      "note_on channel=0 note=93 velocity=15 time=0\n",
      "note_off channel=0 note=102 velocity=64 time=0\n",
      "note_off channel=0 note=71 velocity=64 time=1\n",
      "note_on channel=0 note=72 velocity=63 time=0\n",
      "note_off channel=0 note=85 velocity=64 time=0\n",
      "note_on channel=0 note=86 velocity=34 time=0\n",
      "note_off channel=0 note=60 velocity=64 time=1\n",
      "note_on channel=0 note=61 velocity=55 time=0\n",
      "note_on channel=0 note=71 velocity=51 time=0\n",
      "note_off channel=0 note=78 velocity=64 time=0\n",
      "note_on channel=0 note=85 velocity=42 time=0\n",
      "note_off channel=0 note=91 velocity=64 time=0\n",
      "note_off channel=0 note=72 velocity=64 time=1\n",
      "note_off channel=0 note=84 velocity=64 time=0\n",
      "note_off channel=0 note=86 velocity=64 time=0\n",
      "note_off channel=0 note=88 velocity=64 time=0\n",
      "note_on channel=0 note=60 velocity=56 time=1\n",
      "note_off channel=0 note=61 velocity=64 time=0\n",
      "note_off channel=0 note=71 velocity=64 time=0\n",
      "note_on channel=0 note=72 velocity=67 time=0\n",
      "note_off channel=0 note=77 velocity=64 time=0\n",
      "note_on channel=0 note=82 velocity=44 time=0\n",
      "note_off channel=0 note=83 velocity=64 time=0\n",
      "note_on channel=0 note=53 velocity=28 time=1\n",
      "note_off channel=0 note=54 velocity=64 time=0\n",
      "note_on channel=0 note=79 velocity=39 time=0\n",
      "note_off channel=0 note=85 velocity=64 time=0\n",
      "note_on channel=0 note=71 velocity=61 time=1\n",
      "note_off channel=0 note=72 velocity=64 time=1\n",
      "note_on channel=0 note=78 velocity=55 time=0\n",
      "note_off channel=0 note=79 velocity=64 time=0\n",
      "note_on channel=0 note=88 velocity=24 time=0\n",
      "note_on channel=0 note=91 velocity=33 time=0\n",
      "note_off channel=0 note=53 velocity=64 time=1\n",
      "note_on channel=0 note=59 velocity=47 time=0\n",
      "note_off channel=0 note=60 velocity=64 time=0\n",
      "note_off channel=0 note=68 velocity=64 time=1\n",
      "note_on channel=0 note=84 velocity=42 time=0\n",
      "note_off channel=0 note=90 velocity=64 time=0\n",
      "note_off channel=0 note=95 velocity=64 time=0\n",
      "note_off channel=0 note=59 velocity=64 time=2\n",
      "note_off channel=0 note=65 velocity=64 time=0\n",
      "note_on channel=0 note=66 velocity=46 time=0\n",
      "note_on channel=0 note=75 velocity=50 time=0\n",
      "note_on channel=0 note=77 velocity=53 time=0\n",
      "note_off channel=0 note=88 velocity=64 time=0\n",
      "note_on channel=0 note=89 velocity=67 time=0\n",
      "note_on channel=0 note=59 velocity=50 time=1\n",
      "note_on channel=0 note=62 velocity=55 time=0\n",
      "note_off channel=0 note=78 velocity=64 time=0\n",
      "note_off channel=0 note=93 velocity=64 time=0\n",
      "note_on channel=0 note=102 velocity=13 time=0\n",
      "note_on channel=0 note=45 velocity=77 time=1\n",
      "note_on channel=0 note=85 velocity=38 time=0\n",
      "note_on channel=0 note=95 velocity=34 time=0\n",
      "note_off channel=0 note=59 velocity=64 time=1\n",
      "note_off channel=0 note=62 velocity=64 time=0\n",
      "note_on channel=0 note=63 velocity=45 time=0\n",
      "note_off channel=0 note=66 velocity=64 time=0\n",
      "note_on channel=0 note=78 velocity=53 time=0\n",
      "note_on channel=0 note=44 velocity=78 time=1\n",
      "note_off channel=0 note=45 velocity=64 time=0\n",
      "note_on channel=0 note=59 velocity=49 time=0\n",
      "note_on channel=0 note=67 velocity=35 time=0\n",
      "note_off channel=0 note=77 velocity=64 time=0\n",
      "note_off channel=0 note=102 velocity=64 time=0\n",
      "note_off channel=0 note=84 velocity=64 time=1\n",
      "note_on channel=0 note=43 velocity=74 time=1\n",
      "note_off channel=0 note=44 velocity=64 time=0\n",
      "note_off channel=0 note=63 velocity=64 time=0\n",
      "note_on channel=0 note=73 velocity=31 time=0\n",
      "note_off channel=0 note=82 velocity=64 time=0\n",
      "note_on channel=0 note=84 velocity=22 time=0\n",
      "note_on channel=0 note=88 velocity=33 time=0\n",
      "note_on channel=0 note=68 velocity=20 time=3\n",
      "note_off channel=0 note=67 velocity=64 time=1\n",
      "note_off channel=0 note=91 velocity=64 time=0\n",
      "note_off channel=0 note=89 velocity=64 time=1\n",
      "note_off channel=0 note=95 velocity=64 time=1\n",
      "note_off channel=0 note=68 velocity=64 time=1\n",
      "note_off channel=0 note=43 velocity=64 time=1\n",
      "note_on channel=0 note=44 velocity=23 time=0\n",
      "note_on channel=0 note=65 velocity=39 time=0\n",
      "note_on channel=0 note=89 velocity=51 time=0\n",
      "note_on channel=0 note=58 velocity=47 time=1\n",
      "note_off channel=0 note=59 velocity=64 time=0\n",
      "note_on channel=0 note=70 velocity=61 time=0\n",
      "note_off channel=0 note=71 velocity=64 time=0\n",
      "note_on channel=0 note=77 velocity=77 time=0\n",
      "note_off channel=0 note=78 velocity=64 time=0\n",
      "note_on channel=0 note=86 velocity=25 time=0\n",
      "note_on channel=0 note=68 velocity=32 time=1\n",
      "note_on channel=0 note=95 velocity=25 time=0\n",
      "note_off channel=0 note=58 velocity=64 time=2\n",
      "note_on channel=0 note=59 velocity=48 time=0\n",
      "note_off channel=0 note=70 velocity=64 time=0\n",
      "note_on channel=0 note=71 velocity=55 time=0\n",
      "note_off channel=0 note=85 velocity=64 time=0\n",
      "note_off channel=0 note=44 velocity=64 time=1\n",
      "note_on channel=0 note=82 velocity=31 time=0\n",
      "note_off channel=0 note=86 velocity=64 time=0\n",
      "note_off channel=0 note=89 velocity=64 time=0\n",
      "note_on channel=0 note=90 velocity=40 time=0\n",
      "note_on channel=0 note=93 velocity=13 time=0\n",
      "note_off channel=0 note=84 velocity=64 time=1\n",
      "note_on channel=0 note=78 velocity=53 time=1\n",
      "note_off channel=0 note=77 velocity=64 time=1\n",
      "note_off channel=0 note=82 velocity=64 time=0\n",
      "note_on channel=0 note=89 velocity=50 time=4\n",
      "note_off channel=0 note=90 velocity=64 time=0\n",
      "note_on channel=0 note=82 velocity=41 time=1\n",
      "note_off channel=0 note=87 velocity=64 time=0\n",
      "note_on channel=0 note=58 velocity=47 time=1\n",
      "note_off channel=0 note=59 velocity=64 time=0\n",
      "note_on channel=0 note=70 velocity=57 time=0\n",
      "note_off channel=0 note=71 velocity=64 time=0\n",
      "note_on channel=0 note=77 velocity=71 time=0\n",
      "note_off channel=0 note=80 velocity=64 time=0\n",
      "note_on channel=0 note=49 velocity=56 time=1\n",
      "note_off channel=0 note=73 velocity=64 time=0\n",
      "note_off channel=0 note=78 velocity=64 time=0\n",
      "note_off channel=0 note=88 velocity=64 time=0\n",
      "note_on channel=0 note=91 velocity=17 time=0\n",
      "note_off channel=0 note=58 velocity=64 time=1\n",
      "note_on channel=0 note=64 velocity=82 time=0\n",
      "note_off channel=0 note=65 velocity=64 time=0\n",
      "note_off channel=0 note=68 velocity=64 time=0\n",
      "note_on channel=0 note=73 velocity=46 time=0\n",
      "note_off channel=0 note=75 velocity=64 time=0\n",
      "note_off channel=0 note=93 velocity=64 time=0\n",
      "note_on channel=0 note=45 velocity=78 time=1\n",
      "note_off channel=0 note=49 velocity=64 time=0\n",
      "note_on channel=0 note=63 velocity=79 time=1\n",
      "note_off channel=0 note=64 velocity=64 time=0\n",
      "note_on channel=0 note=80 velocity=43 time=0\n",
      "note_on channel=0 note=81 velocity=30 time=0\n",
      "note_on channel=0 note=85 velocity=62 time=0\n",
      "note_on channel=0 note=88 velocity=48 time=0\n",
      "note_on channel=0 note=44 velocity=78 time=1\n",
      "note_off channel=0 note=45 velocity=64 time=0\n",
      "note_off channel=0 note=70 velocity=64 time=0\n",
      "note_on channel=0 note=76 velocity=74 time=0\n",
      "note_on channel=0 note=71 velocity=46 time=1\n",
      "note_off channel=0 note=77 velocity=64 time=0\n",
      "note_off channel=0 note=81 velocity=64 time=0\n",
      "note_off channel=0 note=89 velocity=64 time=0\n",
      "note_on channel=0 note=62 velocity=37 time=1\n",
      "note_off channel=0 note=63 velocity=64 time=1\n",
      "note_on channel=0 note=65 velocity=42 time=0\n",
      "note_off channel=0 note=62 velocity=64 time=1\n",
      "note_on channel=0 note=101 velocity=37 time=0\n",
      "note_on channel=0 note=43 velocity=71 time=1\n",
      "note_off channel=0 note=44 velocity=64 time=0\n",
      "note_off channel=0 note=82 velocity=64 time=0\n",
      "note_off channel=0 note=91 velocity=64 time=0\n",
      "note_on channel=0 note=93 velocity=27 time=0\n",
      "note_on channel=0 note=61 velocity=62 time=1\n",
      "note_on channel=0 note=82 velocity=39 time=1\n",
      "note_on channel=0 note=42 velocity=60 time=1\n",
      "note_off channel=0 note=43 velocity=64 time=0\n",
      "note_on channel=0 note=91 velocity=12 time=0\n",
      "note_off channel=0 note=71 velocity=64 time=1\n",
      "note_off channel=0 note=42 velocity=64 time=1\n",
      "note_on channel=0 note=71 velocity=44 time=0\n",
      "note_on channel=0 note=47 velocity=66 time=2\n",
      "note_on channel=0 note=69 velocity=49 time=0\n",
      "note_on channel=0 note=81 velocity=52 time=0\n",
      "note_off channel=0 note=91 velocity=64 time=0\n",
      "note_off channel=0 note=47 velocity=64 time=1\n",
      "note_on channel=0 note=48 velocity=65 time=0\n",
      "note_off channel=0 note=80 velocity=64 time=0\n",
      "note_on channel=0 note=47 velocity=72 time=1\n",
      "note_off channel=0 note=48 velocity=64 time=0\n",
      "note_on channel=0 note=57 velocity=44 time=0\n",
      "note_off channel=0 note=69 velocity=64 time=0\n",
      "note_off channel=0 note=65 velocity=64 time=1\n",
      "note_on channel=0 note=69 velocity=53 time=0\n",
      "note_off channel=0 note=47 velocity=64 time=1\n",
      "note_on channel=0 note=48 velocity=67 time=0\n",
      "note_off channel=0 note=57 velocity=64 time=0\n",
      "note_on channel=0 note=65 velocity=55 time=0\n",
      "note_off channel=0 note=48 velocity=64 time=1\n",
      "note_on channel=0 note=49 velocity=73 time=0\n",
      "note_off channel=0 note=49 velocity=64 time=1\n",
      "note_on channel=0 note=53 velocity=75 time=0\n",
      "note_off channel=0 note=69 velocity=64 time=1\n",
      "note_on channel=0 note=80 velocity=46 time=0\n",
      "note_on channel=0 note=69 velocity=51 time=1\n",
      "note_off channel=0 note=53 velocity=64 time=1\n",
      "note_off channel=0 note=61 velocity=64 time=0\n",
      "note_off channel=0 note=71 velocity=64 time=0\n",
      "note_on channel=0 note=53 velocity=58 time=1\n",
      "note_off channel=0 note=82 velocity=64 time=0\n",
      "note_off channel=0 note=101 velocity=64 time=0\n",
      "note_on channel=0 note=58 velocity=42 time=1\n",
      "note_off channel=0 note=69 velocity=64 time=1\n",
      "note_on channel=0 note=70 velocity=50 time=0\n",
      "note_on channel=0 note=86 velocity=34 time=0\n",
      "note_on channel=0 note=101 velocity=22 time=0\n",
      "note_off channel=0 note=76 velocity=64 time=1\n",
      "note_on channel=0 note=77 velocity=74 time=0\n",
      "note_off channel=0 note=81 velocity=64 time=0\n",
      "note_on channel=0 note=82 velocity=55 time=0\n",
      "note_off channel=0 note=85 velocity=64 time=0\n",
      "note_off channel=0 note=88 velocity=64 time=0\n",
      "note_off channel=0 note=95 velocity=64 time=0\n",
      "note_off channel=0 note=53 velocity=64 time=1\n",
      "note_off channel=0 note=58 velocity=64 time=0\n",
      "note_on channel=0 note=59 velocity=49 time=0\n",
      "note_on channel=0 note=64 velocity=82 time=0\n",
      "note_on channel=0 note=83 velocity=51 time=0\n",
      "note_on channel=0 note=88 velocity=30 time=0\n",
      "note_on channel=0 note=102 velocity=16 time=0\n",
      "note_off channel=0 note=65 velocity=64 time=1\n",
      "note_on channel=0 note=81 velocity=41 time=0\n",
      "note_off channel=0 note=82 velocity=64 time=0\n",
      "note_on channel=0 note=87 velocity=36 time=0\n",
      "note_on channel=0 note=90 velocity=44 time=0\n",
      "note_on channel=0 note=45 velocity=76 time=1\n",
      "note_on channel=0 note=53 velocity=46 time=0\n",
      "note_off channel=0 note=59 velocity=64 time=0\n",
      "note_on channel=0 note=67 velocity=53 time=0\n",
      "note_on channel=0 note=44 velocity=78 time=1\n",
      "note_off channel=0 note=45 velocity=64 time=0\n",
      "note_on channel=0 note=63 velocity=71 time=0\n",
      "note_off channel=0 note=64 velocity=64 time=0\n",
      "note_off channel=0 note=70 velocity=64 time=0\n",
      "note_on channel=0 note=72 velocity=71 time=0\n",
      "note_off channel=0 note=73 velocity=64 time=0\n",
      "note_off channel=0 note=77 velocity=64 time=0\n",
      "note_on channel=0 note=78 velocity=53 time=0\n",
      "note_on channel=0 note=82 velocity=37 time=0\n",
      "note_off channel=0 note=83 velocity=64 time=0\n",
      "note_off channel=0 note=88 velocity=64 time=0\n",
      "note_on channel=0 note=89 velocity=69 time=0\n",
      "note_off channel=0 note=102 velocity=64 time=0\n",
      "note_off channel=0 note=53 velocity=64 time=1\n",
      "note_off channel=0 note=81 velocity=64 time=0\n",
      "note_off channel=0 note=86 velocity=64 time=0\n",
      "note_off channel=0 note=90 velocity=64 time=0\n",
      "note_on channel=0 note=91 velocity=36 time=0\n",
      "note_off channel=0 note=101 velocity=64 time=0\n",
      "note_off channel=0 note=67 velocity=64 time=1\n",
      "note_on channel=0 note=68 velocity=34 time=0\n",
      "note_off channel=0 note=78 velocity=64 time=0\n",
      "note_on channel=0 note=79 velocity=59 time=0\n",
      "note_on channel=0 note=88 velocity=32 time=0\n",
      "note_on channel=0 note=90 velocity=23 time=0\n",
      "note_off channel=0 note=44 velocity=64 time=1\n",
      "note_on channel=0 note=45 velocity=76 time=0\n",
      "note_off channel=0 note=63 velocity=64 time=0\n",
      "note_off channel=0 note=80 velocity=64 time=0\n",
      "note_off channel=0 note=93 velocity=64 time=0\n",
      "note_on channel=0 note=60 velocity=55 time=1\n",
      "note_on channel=0 note=65 velocity=62 time=0\n",
      "note_off channel=0 note=87 velocity=64 time=0\n",
      "note_on channel=0 note=44 velocity=71 time=1\n",
      "note_off channel=0 note=45 velocity=64 time=0\n",
      "note_on channel=0 note=83 velocity=32 time=0\n",
      "note_off channel=0 note=60 velocity=64 time=1\n",
      "note_off channel=0 note=82 velocity=64 time=0\n",
      "note_on channel=0 note=43 velocity=63 time=1\n",
      "note_off channel=0 note=44 velocity=64 time=0\n",
      "note_on channel=0 note=60 velocity=49 time=0\n",
      "note_off channel=0 note=68 velocity=64 time=0\n",
      "note_on channel=0 note=75 velocity=25 time=0\n",
      "note_on channel=0 note=80 velocity=45 time=0\n",
      "note_on channel=0 note=85 velocity=16 time=0\n",
      "note_off channel=0 note=88 velocity=64 time=0\n",
      "note_on channel=0 note=68 velocity=20 time=1\n",
      "note_on channel=0 note=42 velocity=57 time=1\n",
      "note_off channel=0 note=43 velocity=64 time=0\n",
      "note_off channel=0 note=60 velocity=64 time=0\n",
      "note_on channel=0 note=61 velocity=69 time=0\n",
      "note_off channel=0 note=80 velocity=64 time=0\n",
      "note_on channel=0 note=80 velocity=51 time=1\n",
      "note_off channel=0 note=85 velocity=64 time=0\n",
      "note_off channel=0 note=42 velocity=64 time=1\n",
      "note_off channel=0 note=79 velocity=64 time=0\n",
      "note_on channel=0 note=85 velocity=49 time=0\n",
      "note_on channel=0 note=47 velocity=65 time=1\n",
      "note_off channel=0 note=68 velocity=64 time=0\n",
      "note_off channel=0 note=72 velocity=64 time=0\n",
      "note_on channel=0 note=73 velocity=75 time=0\n",
      "note_on channel=0 note=82 velocity=25 time=0\n",
      "note_off channel=0 note=83 velocity=64 time=0\n",
      "note_on channel=0 note=87 velocity=46 time=0\n",
      "note_off channel=0 note=47 velocity=64 time=1\n",
      "note_on channel=0 note=48 velocity=69 time=0\n",
      "note_on channel=0 note=79 velocity=29 time=0\n",
      "note_on channel=0 note=68 velocity=37 time=1\n",
      "note_off channel=0 note=80 velocity=64 time=0\n",
      "note_on channel=0 note=47 velocity=73 time=1\n",
      "note_off channel=0 note=48 velocity=64 time=0\n",
      "note_off channel=0 note=79 velocity=64 time=0\n",
      "note_on channel=0 note=80 velocity=81 time=0\n",
      "note_off channel=0 note=47 velocity=64 time=1\n",
      "note_on channel=0 note=48 velocity=71 time=0\n",
      "note_off channel=0 note=61 velocity=64 time=0\n",
      "note_on channel=0 note=61 velocity=72 time=1\n",
      "note_off channel=0 note=48 velocity=64 time=1\n",
      "note_on channel=0 note=52 velocity=75 time=0\n",
      "note_off channel=0 note=68 velocity=64 time=0\n",
      "note_off channel=0 note=90 velocity=64 time=0\n",
      "note_off channel=0 note=52 velocity=64 time=1\n",
      "note_on channel=0 note=53 velocity=69 time=0\n",
      "note_on channel=0 note=90 velocity=31 time=2\n",
      "note_off channel=0 note=91 velocity=64 time=0\n",
      "note_off channel=0 note=53 velocity=64 time=1\n",
      "note_on channel=0 note=68 velocity=43 time=0\n",
      "note_on channel=0 note=53 velocity=55 time=1\n",
      "note_off channel=0 note=82 velocity=64 time=0\n",
      "note_on channel=0 note=83 velocity=50 time=0\n",
      "note_off channel=0 note=75 velocity=64 time=1\n",
      "note_off channel=0 note=90 velocity=64 time=0\n",
      "note_on channel=0 note=91 velocity=31 time=0\n",
      "note_on channel=0 note=75 velocity=44 time=2\n",
      "note_on channel=0 note=48 velocity=87 time=1\n",
      "note_off channel=0 note=53 velocity=64 time=0\n",
      "note_on channel=0 note=88 velocity=38 time=0\n",
      "note_on channel=0 note=93 velocity=10 time=0\n",
      "note_off channel=0 note=68 velocity=64 time=1\n",
      "note_off channel=0 note=75 velocity=64 time=0\n",
      "note_on channel=0 note=90 velocity=23 time=0\n",
      "note_off channel=0 note=65 velocity=64 time=1\n",
      "note_off channel=0 note=88 velocity=64 time=0\n",
      "note_off channel=0 note=91 velocity=64 time=0\n",
      "note_on channel=0 note=65 velocity=55 time=1\n",
      "note_off channel=0 note=93 velocity=64 time=0\n",
      "note_off channel=0 note=48 velocity=64 time=1\n",
      "note_on channel=0 note=68 velocity=27 time=0\n",
      "note_off channel=0 note=90 velocity=64 time=0\n",
      "note_on channel=0 note=91 velocity=33 time=0\n",
      "note_on channel=0 note=75 velocity=12 time=1\n",
      "note_on channel=0 note=45 velocity=60 time=3\n",
      "note_off channel=0 note=68 velocity=64 time=0\n",
      "note_off channel=0 note=75 velocity=64 time=1\n",
      "note_on channel=0 note=44 velocity=52 time=2\n",
      "note_off channel=0 note=45 velocity=64 time=0\n",
      "note_on channel=0 note=75 velocity=37 time=0\n",
      "note_on channel=0 note=54 velocity=21 time=1\n",
      "note_on channel=0 note=43 velocity=32 time=4\n",
      "note_off channel=0 note=44 velocity=64 time=0\n",
      "note_off channel=0 note=54 velocity=64 time=1\n",
      "note_off channel=0 note=65 velocity=64 time=1\n",
      "note_on channel=0 note=42 velocity=25 time=1\n",
      "note_off channel=0 note=43 velocity=64 time=0\n",
      "note_off channel=0 note=42 velocity=64 time=3\n",
      "note_on channel=0 note=43 velocity=21 time=0\n",
      "note_on channel=0 note=54 velocity=16 time=1\n",
      "note_off channel=0 note=61 velocity=64 time=0\n",
      "note_on channel=0 note=59 velocity=50 time=1\n",
      "note_off channel=0 note=43 velocity=64 time=1\n",
      "note_off channel=0 note=85 velocity=64 time=0\n",
      "note_off channel=0 note=54 velocity=64 time=1\n",
      "note_on channel=0 note=46 velocity=70 time=3\n",
      "note_on channel=0 note=69 velocity=39 time=0\n",
      "note_on channel=0 note=72 velocity=29 time=0\n",
      "note_off channel=0 note=73 velocity=64 time=0\n",
      "note_off channel=0 note=83 velocity=64 time=0\n",
      "note_on channel=0 note=100 velocity=11 time=0\n",
      "note_off channel=0 note=59 velocity=64 time=1\n",
      "note_on channel=0 note=60 velocity=66 time=0\n",
      "note_off channel=0 note=75 velocity=64 time=0\n",
      "note_on channel=0 note=83 velocity=48 time=0\n",
      "note_on channel=0 note=84 velocity=44 time=0\n",
      "note_on channel=0 note=45 velocity=77 time=1\n",
      "note_off channel=0 note=46 velocity=64 time=0\n",
      "note_off channel=0 note=60 velocity=64 time=0\n",
      "note_on channel=0 note=61 velocity=85 time=0\n",
      "note_on channel=0 note=67 velocity=45 time=0\n",
      "note_on channel=0 note=75 velocity=46 time=0\n",
      "note_on channel=0 note=85 velocity=38 time=0\n",
      "note_on channel=0 note=90 velocity=19 time=0\n",
      "note_on channel=0 note=44 velocity=77 time=1\n",
      "note_off channel=0 note=45 velocity=64 time=0\n",
      "note_off channel=0 note=72 velocity=64 time=0\n",
      "note_on channel=0 note=77 velocity=36 time=0\n",
      "note_off channel=0 note=100 velocity=64 time=0\n",
      "note_off channel=0 note=84 velocity=64 time=1\n",
      "note_off channel=0 note=69 velocity=64 time=1\n",
      "note_off channel=0 note=87 velocity=64 time=0\n",
      "note_off channel=0 note=91 velocity=64 time=0\n",
      "note_on channel=0 note=43 velocity=73 time=1\n",
      "note_off channel=0 note=44 velocity=64 time=0\n",
      "note_off channel=0 note=67 velocity=64 time=0\n",
      "note_on channel=0 note=71 velocity=31 time=0\n",
      "note_off channel=0 note=90 velocity=64 time=1\n",
      "note_on channel=0 note=65 velocity=59 time=1\n",
      "note_off channel=0 note=75 velocity=64 time=0\n",
      "note_on channel=0 note=54 velocity=12 time=1\n",
      "note_on channel=0 note=93 velocity=10 time=0\n",
      "note_off channel=0 note=54 velocity=64 time=3\n",
      "note_off channel=0 note=85 velocity=64 time=2\n",
      "note_off channel=0 note=93 velocity=64 time=1\n",
      "note_off channel=0 note=43 velocity=64 time=1\n",
      "note_on channel=0 note=44 velocity=9 time=0\n",
      "note_on channel=0 note=91 velocity=28 time=1\n",
      "note_off channel=0 note=89 velocity=64 time=1\n",
      "note_off channel=0 note=44 velocity=64 time=1\n",
      "note_on channel=0 note=90 velocity=39 time=9\n",
      "note_on channel=0 note=89 velocity=53 time=1\n",
      "note_on channel=0 note=57 velocity=45 time=1\n",
      "note_off channel=0 note=61 velocity=64 time=0\n",
      "note_on channel=0 note=64 velocity=82 time=0\n",
      "note_off channel=0 note=65 velocity=64 time=0\n",
      "note_on channel=0 note=45 velocity=76 time=1\n",
      "note_on channel=0 note=87 velocity=32 time=0\n",
      "note_on channel=0 note=44 velocity=78 time=1\n",
      "note_off channel=0 note=45 velocity=64 time=0\n",
      "note_off channel=0 note=57 velocity=64 time=0\n",
      "note_on channel=0 note=61 velocity=80 time=0\n",
      "note_on channel=0 note=63 velocity=72 time=0\n",
      "note_off channel=0 note=71 velocity=64 time=0\n",
      "note_off channel=0 note=63 velocity=64 time=1\n",
      "note_off channel=0 note=64 velocity=64 time=0\n",
      "note_off channel=0 note=90 velocity=64 time=0\n",
      "note_off channel=0 note=44 velocity=64 time=3\n",
      "note_on channel=0 note=65 velocity=30 time=1\n",
      "note_on channel=0 note=71 velocity=15 time=1\n",
      "note_on channel=0 note=96 velocity=11 time=0\n",
      "note_on channel=0 note=43 velocity=63 time=1\n",
      "note_on channel=0 note=42 velocity=56 time=2\n",
      "note_off channel=0 note=43 velocity=64 time=0\n",
      "note_off channel=0 note=65 velocity=64 time=2\n",
      "note_off channel=0 note=71 velocity=64 time=0\n",
      "note_on channel=0 note=75 velocity=15 time=0\n",
      "note_off channel=0 note=96 velocity=64 time=0\n",
      "note_off channel=0 note=42 velocity=64 time=1\n",
      "note_on channel=0 note=65 velocity=33 time=0\n",
      "note_on channel=0 note=48 velocity=69 time=1\n",
      "note_on channel=0 note=54 velocity=31 time=1\n",
      "note_on channel=0 note=47 velocity=73 time=1\n",
      "note_off channel=0 note=48 velocity=64 time=0\n",
      "note_off channel=0 note=47 velocity=64 time=1\n",
      "note_on channel=0 note=48 velocity=72 time=0\n",
      "note_off channel=0 note=54 velocity=64 time=0\n",
      "note_on channel=0 note=90 velocity=25 time=0\n",
      "note_on channel=0 note=96 velocity=10 time=0\n",
      "note_off channel=0 note=75 velocity=64 time=1\n",
      "note_off channel=0 note=48 velocity=64 time=1\n",
      "note_on channel=0 note=50 velocity=77 time=0\n",
      "note_off channel=0 note=50 velocity=64 time=1\n",
      "note_on channel=0 note=53 velocity=70 time=0\n",
      "note_off channel=0 note=80 velocity=64 time=0\n",
      "note_off channel=0 note=90 velocity=64 time=0\n",
      "note_off channel=0 note=96 velocity=64 time=1\n",
      "note_on channel=0 note=75 velocity=17 time=1\n",
      "note_off channel=0 note=53 velocity=64 time=1\n",
      "note_off channel=0 note=65 velocity=64 time=0\n",
      "note_on channel=0 note=53 velocity=57 time=1\n",
      "note_off channel=0 note=75 velocity=64 time=3\n",
      "note_on channel=0 note=80 velocity=83 time=0\n",
      "note_off channel=0 note=53 velocity=64 time=1\n",
      "note_on channel=0 note=64 velocity=83 time=0\n",
      "note_on channel=0 note=90 velocity=36 time=0\n",
      "note_on channel=0 note=45 velocity=78 time=1\n",
      "note_on channel=0 note=53 velocity=50 time=0\n",
      "note_off channel=0 note=61 velocity=64 time=0\n",
      "note_on channel=0 note=61 velocity=81 time=1\n",
      "note_on channel=0 note=63 velocity=77 time=0\n",
      "note_off channel=0 note=64 velocity=64 time=0\n",
      "note_on channel=0 note=82 velocity=17 time=0\n",
      "note_on channel=0 note=44 velocity=79 time=1\n",
      "note_off channel=0 note=45 velocity=64 time=0\n",
      "note_off channel=0 note=53 velocity=64 time=0\n",
      "note_on channel=0 note=55 velocity=42 time=0\n",
      "note_on channel=0 note=69 velocity=36 time=0\n",
      "note_off channel=0 note=77 velocity=64 time=0\n",
      "note_on channel=0 note=78 velocity=18 time=0\n",
      "note_off channel=0 note=83 velocity=64 time=0\n",
      "note_off channel=0 note=90 velocity=64 time=0\n",
      "note_off channel=0 note=63 velocity=64 time=1\n",
      "note_on channel=0 note=84 velocity=18 time=0\n",
      "note_off channel=0 note=55 velocity=64 time=1\n",
      "note_on channel=0 note=68 velocity=28 time=0\n",
      "note_off channel=0 note=69 velocity=64 time=0\n",
      "note_off channel=0 note=78 velocity=64 time=2\n",
      "note_on channel=0 note=83 velocity=45 time=0\n",
      "note_off channel=0 note=44 velocity=64 time=1\n",
      "note_off channel=0 note=82 velocity=64 time=0\n",
      "note_off channel=0 note=68 velocity=64 time=1\n",
      "note_on channel=0 note=71 velocity=45 time=0\n",
      "note_on channel=0 note=43 velocity=61 time=1\n",
      "note_on channel=0 note=77 velocity=23 time=0\n",
      "note_on channel=0 note=54 velocity=20 time=1\n",
      "note_on channel=0 note=86 velocity=13 time=1\n",
      "note_on channel=0 note=78 velocity=20 time=1\n",
      "note_on channel=0 note=88 velocity=42 time=0\n",
      "note_off channel=0 note=43 velocity=64 time=1\n",
      "note_on channel=0 note=44 velocity=60 time=0\n",
      "note_off channel=0 note=54 velocity=64 time=0\n",
      "note_off channel=0 note=77 velocity=64 time=0\n",
      "note_off channel=0 note=89 velocity=64 time=0\n",
      "note_on channel=0 note=77 velocity=21 time=1\n",
      "note_off channel=0 note=87 velocity=64 time=0\n",
      "note_off channel=0 note=44 velocity=64 time=1\n",
      "note_on channel=0 note=49 velocity=65 time=0\n",
      "note_off channel=0 note=86 velocity=64 time=0\n",
      "note_on channel=0 note=47 velocity=74 time=1\n",
      "note_off channel=0 note=49 velocity=64 time=0\n",
      "note_off channel=0 note=78 velocity=64 time=0\n",
      "note_on channel=0 note=68 velocity=36 time=1\n",
      "note_off channel=0 note=47 velocity=64 time=1\n",
      "note_on channel=0 note=48 velocity=70 time=0\n",
      "note_on channel=0 note=65 velocity=40 time=0\n",
      "note_off channel=0 note=77 velocity=64 time=0\n",
      "note_off channel=0 note=48 velocity=64 time=1\n",
      "note_on channel=0 note=50 velocity=78 time=0\n",
      "note_off channel=0 note=50 velocity=64 time=1\n",
      "note_on channel=0 note=52 velocity=74 time=0\n",
      "note_off channel=0 note=68 velocity=64 time=0\n",
      "note_off channel=0 note=52 velocity=64 time=1\n",
      "note_on channel=0 note=53 velocity=64 time=0\n",
      "note_on channel=0 note=86 velocity=10 time=1\n",
      "note_on channel=0 note=87 velocity=48 time=0\n",
      "note_off channel=0 note=53 velocity=64 time=1\n",
      "note_on channel=0 note=68 velocity=32 time=0\n",
      "note_on channel=0 note=53 velocity=59 time=1\n",
      "note_on channel=0 note=78 velocity=10 time=1\n",
      "note_off channel=0 note=86 velocity=64 time=0\n",
      "note_on channel=0 note=75 velocity=46 time=2\n",
      "note_off channel=0 note=84 velocity=64 time=0\n",
      "note_off channel=0 note=78 velocity=64 time=1\n",
      "note_on channel=0 note=82 velocity=39 time=0\n",
      "note_on channel=0 note=48 velocity=87 time=1\n",
      "note_off channel=0 note=53 velocity=64 time=0\n",
      "note_off channel=0 note=65 velocity=64 time=0\n",
      "note_off channel=0 note=68 velocity=64 time=0\n",
      "note_off channel=0 note=83 velocity=64 time=0\n",
      "note_off channel=0 note=88 velocity=64 time=0\n",
      "note_on channel=0 note=89 velocity=68 time=0\n",
      "note_on channel=0 note=90 velocity=19 time=0\n",
      "note_on channel=0 note=93 velocity=12 time=0\n",
      "note_on channel=0 note=96 velocity=18 time=0\n",
      "note_on channel=0 note=78 velocity=21 time=1\n",
      "note_off channel=0 note=82 velocity=64 time=0\n",
      "note_on channel=0 note=83 velocity=48 time=0\n",
      "note_off channel=0 note=75 velocity=64 time=1\n",
      "note_on channel=0 note=77 velocity=21 time=0\n",
      "note_on channel=0 note=46 velocity=67 time=1\n",
      "note_off channel=0 note=48 velocity=64 time=0\n",
      "note_on channel=0 note=68 velocity=32 time=0\n",
      "note_off channel=0 note=93 velocity=64 time=0\n",
      "note_off channel=0 note=96 velocity=64 time=0\n",
      "note_on channel=0 note=65 velocity=37 time=1\n",
      "note_off channel=0 note=78 velocity=64 time=0\n",
      "note_off channel=0 note=90 velocity=64 time=0\n",
      "note_off channel=0 note=46 velocity=64 time=1\n",
      "note_on channel=0 note=48 velocity=68 time=0\n",
      "note_on channel=0 note=78 velocity=17 time=0\n",
      "note_on channel=0 note=82 velocity=36 time=0\n",
      "note_on channel=0 note=84 velocity=46 time=0\n",
      "note_off channel=0 note=48 velocity=64 time=1\n",
      "note_off channel=0 note=77 velocity=64 time=0\n",
      "note_off channel=0 note=83 velocity=64 time=0\n",
      "note_on channel=0 note=45 velocity=60 time=1\n",
      "note_on channel=0 note=75 velocity=16 time=0\n",
      "note_on channel=0 note=88 velocity=35 time=1\n",
      "note_off channel=0 note=89 velocity=64 time=0\n",
      "note_off channel=0 note=91 velocity=64 time=0\n",
      "note_off channel=0 note=78 velocity=64 time=1\n",
      "note_on channel=0 note=44 velocity=53 time=1\n",
      "note_off channel=0 note=45 velocity=64 time=0\n",
      "note_on channel=0 note=54 velocity=34 time=0\n",
      "note_on channel=0 note=78 velocity=20 time=0\n",
      "note_off channel=0 note=65 velocity=64 time=1\n",
      "note_on channel=0 note=90 velocity=43 time=1\n",
      "note_off channel=0 note=54 velocity=64 time=1\n",
      "note_on channel=0 note=65 velocity=12 time=0\n",
      "note_on channel=0 note=54 velocity=31 time=1\n",
      "note_off channel=0 note=87 velocity=64 time=0\n",
      "note_on channel=0 note=43 velocity=36 time=1\n",
      "note_off channel=0 note=44 velocity=64 time=0\n",
      "note_off channel=0 note=54 velocity=64 time=1\n",
      "note_off channel=0 note=43 velocity=64 time=1\n",
      "note_on channel=0 note=54 velocity=31 time=0\n",
      "note_off channel=0 note=65 velocity=64 time=0\n",
      "note_on channel=0 note=43 velocity=29 time=1\n",
      "note_off channel=0 note=82 velocity=64 time=0\n",
      "note_on channel=0 note=53 velocity=30 time=1\n",
      "note_off channel=0 note=54 velocity=64 time=0\n",
      "note_off channel=0 note=75 velocity=64 time=1\n",
      "note_off channel=0 note=78 velocity=64 time=0\n",
      "note_off channel=0 note=53 velocity=64 time=1\n",
      "note_on channel=0 note=78 velocity=30 time=0\n",
      "note_off channel=0 note=43 velocity=64 time=1\n",
      "note_on channel=0 note=53 velocity=27 time=0\n",
      "note_off channel=0 note=61 velocity=64 time=2\n",
      "note_on channel=0 note=75 velocity=32 time=0\n",
      "note_on channel=0 note=82 velocity=43 time=0\n",
      "note_off channel=0 note=53 velocity=64 time=1\n",
      "note_on channel=0 note=65 velocity=33 time=0\n",
      "note_on channel=0 note=77 velocity=43 time=1\n",
      "note_off channel=0 note=78 velocity=64 time=0\n",
      "note_on channel=0 note=62 velocity=56 time=2\n",
      "note_on channel=0 note=87 velocity=43 time=0\n",
      "note_on channel=0 note=89 velocity=69 time=0\n",
      "note_on channel=0 note=95 velocity=40 time=0\n",
      "note_on channel=0 note=57 velocity=39 time=1\n",
      "note_off channel=0 note=65 velocity=64 time=0\n",
      "note_off channel=0 note=68 velocity=64 time=0\n",
      "note_off channel=0 note=75 velocity=64 time=0\n",
      "note_on channel=0 note=76 velocity=43 time=0\n",
      "note_off channel=0 note=88 velocity=64 time=0\n",
      "note_on channel=0 note=93 velocity=22 time=0\n",
      "note_on channel=0 note=45 velocity=77 time=1\n",
      "note_on channel=0 note=67 velocity=48 time=0\n",
      "note_on channel=0 note=69 velocity=47 time=0\n",
      "note_off channel=0 note=71 velocity=64 time=0\n",
      "note_on channel=0 note=78 velocity=41 time=0\n",
      "note_on channel=0 note=91 velocity=25 time=0\n",
      "note_off channel=0 note=57 velocity=64 time=1\n",
      "note_off channel=0 note=62 velocity=64 time=0\n",
      "note_on channel=0 note=71 velocity=47 time=0\n",
      "note_off channel=0 note=76 velocity=64 time=0\n",
      "note_on channel=0 note=44 velocity=77 time=1\n",
      "note_off channel=0 note=45 velocity=64 time=0\n",
      "note_off channel=0 note=69 velocity=64 time=0\n",
      "note_off channel=0 note=95 velocity=64 time=0\n",
      "note_on channel=0 note=75 velocity=38 time=1\n",
      "note_off channel=0 note=78 velocity=64 time=0\n",
      "note_on channel=0 note=83 velocity=59 time=0\n",
      "note_on channel=0 note=43 velocity=74 time=1\n",
      "note_off channel=0 note=44 velocity=64 time=0\n",
      "note_on channel=0 note=62 velocity=36 time=0\n",
      "note_on channel=0 note=65 velocity=40 time=0\n",
      "note_off channel=0 note=82 velocity=64 time=0\n",
      "note_off channel=0 note=84 velocity=64 time=0\n",
      "note_off channel=0 note=90 velocity=64 time=0\n",
      "note_off channel=0 note=67 velocity=64 time=1\n",
      "note_on channel=0 note=68 velocity=35 time=0\n",
      "note_on channel=0 note=90 velocity=57 time=0\n",
      "note_on channel=0 note=73 velocity=73 time=1\n",
      "note_on channel=0 note=88 velocity=32 time=0\n",
      "note_on channel=0 note=54 velocity=21 time=1\n",
      "note_on channel=0 note=61 velocity=33 time=0\n",
      "note_off channel=0 note=62 velocity=64 time=0\n",
      "note_on channel=0 note=84 velocity=25 time=0\n",
      "note_off channel=0 note=89 velocity=64 time=0\n",
      "note_off channel=0 note=61 velocity=64 time=2\n",
      "note_off channel=0 note=54 velocity=64 time=1\n",
      "note_off channel=0 note=91 velocity=64 time=1\n",
      "note_off channel=0 note=43 velocity=64 time=1\n",
      "note_off channel=0 note=93 velocity=64 time=0\n",
      "note_off channel=0 note=77 velocity=64 time=2\n",
      "note_on channel=0 note=78 velocity=70 time=1\n",
      "note_on channel=0 note=93 velocity=14 time=2\n",
      "note_on channel=0 note=91 velocity=42 time=4\n",
      "note_on channel=0 note=82 velocity=65 time=5\n",
      "note_on channel=0 note=86 velocity=31 time=0\n",
      "note_on channel=0 note=89 velocity=47 time=1\n",
      "note_on channel=0 note=55 velocity=65 time=1\n",
      "note_on channel=0 note=64 velocity=70 time=0\n",
      "note_off channel=0 note=65 velocity=64 time=0\n",
      "note_off channel=0 note=68 velocity=64 time=0\n",
      "note_off channel=0 note=75 velocity=64 time=0\n",
      "note_off channel=0 note=84 velocity=64 time=0\n",
      "note_off channel=0 note=87 velocity=64 time=0\n",
      "note_on channel=0 note=53 velocity=72 time=1\n",
      "note_off channel=0 note=55 velocity=64 time=0\n",
      "note_on channel=0 note=63 velocity=93 time=0\n",
      "note_off channel=0 note=64 velocity=64 time=0\n",
      "note_off channel=0 note=71 velocity=64 time=0\n",
      "note_off channel=0 note=83 velocity=64 time=0\n",
      "note_on channel=0 note=87 velocity=65 time=0\n",
      "note_off channel=0 note=88 velocity=64 time=0\n",
      "note_off channel=0 note=53 velocity=64 time=1\n",
      "note_on channel=0 note=54 velocity=74 time=0\n",
      "note_off channel=0 note=91 velocity=64 time=0\n",
      "note_off channel=0 note=93 velocity=64 time=0\n",
      "note_on channel=0 note=100 velocity=58 time=0\n",
      "note_off channel=0 note=86 velocity=64 time=1\n",
      "note_on channel=0 note=93 velocity=43 time=0\n",
      "note_on channel=0 note=71 velocity=43 time=1\n",
      "note_off channel=0 note=80 velocity=64 time=0\n",
      "note_off channel=0 note=87 velocity=64 time=0\n",
      "note_on channel=0 note=88 velocity=72 time=0\n",
      "note_off channel=0 note=89 velocity=64 time=0\n",
      "note_on channel=0 note=89 velocity=17 time=1\n",
      "note_off channel=0 note=93 velocity=64 time=0\n",
      "note_on channel=0 note=84 velocity=27 time=1\n",
      "note_on channel=0 note=96 velocity=32 time=0\n",
      "note_on channel=0 note=93 velocity=44 time=1\n",
      "note_off channel=0 note=89 velocity=64 time=1\n",
      "note_off channel=0 note=73 velocity=64 time=1\n",
      "note_on channel=0 note=74 velocity=82 time=0\n",
      "note_on channel=0 note=83 velocity=67 time=0\n",
      "note_off channel=0 note=84 velocity=64 time=0\n",
      "note_on channel=0 note=99 velocity=38 time=0\n",
      "note_on channel=0 note=103 velocity=29 time=0\n",
      "note_off channel=0 note=54 velocity=64 time=1\n",
      "note_on channel=0 note=55 velocity=72 time=0\n",
      "note_on channel=0 note=84 velocity=26 time=0\n",
      "note_on channel=0 note=91 velocity=53 time=0\n",
      "note_off channel=0 note=82 velocity=64 time=1\n",
      "note_off channel=0 note=78 velocity=64 time=1\n",
      "note_on channel=0 note=82 velocity=30 time=0\n",
      "note_off channel=0 note=84 velocity=64 time=1\n",
      "note_on channel=0 note=89 velocity=63 time=0\n",
      "note_on channel=0 note=85 velocity=24 time=1\n",
      "note_off channel=0 note=96 velocity=64 time=0\n",
      "note_off channel=0 note=103 velocity=64 time=0\n",
      "note_on channel=0 note=87 velocity=53 time=1\n",
      "note_off channel=0 note=82 velocity=64 time=1\n",
      "note_off channel=0 note=88 velocity=64 time=0\n",
      "note_off channel=0 note=99 velocity=64 time=0\n",
      "note_off channel=0 note=85 velocity=64 time=1\n",
      "note_off channel=0 note=90 velocity=64 time=0\n",
      "note_on channel=0 note=92 velocity=61 time=0\n",
      "note_on channel=0 note=96 velocity=27 time=0\n",
      "note_off channel=0 note=55 velocity=64 time=1\n",
      "note_on channel=0 note=56 velocity=64 time=0\n",
      "note_on channel=0 note=68 velocity=66 time=0\n",
      "note_off channel=0 note=74 velocity=64 time=0\n",
      "note_on channel=0 note=82 velocity=35 time=0\n",
      "note_off channel=0 note=83 velocity=64 time=0\n",
      "note_on channel=0 note=84 velocity=69 time=0\n",
      "note_off channel=0 note=89 velocity=64 time=0\n",
      "note_on channel=0 note=90 velocity=65 time=0\n",
      "note_on channel=0 note=94 velocity=40 time=0\n",
      "note_on channel=0 note=77 velocity=48 time=1\n",
      "note_on channel=0 note=89 velocity=50 time=0\n",
      "note_off channel=0 note=93 velocity=64 time=0\n",
      "note_on channel=0 note=97 velocity=10 time=0\n",
      "note_on channel=0 note=95 velocity=9 time=2\n",
      "note_off channel=0 note=91 velocity=64 time=1\n",
      "note_on channel=0 note=55 velocity=79 time=1\n",
      "note_off channel=0 note=56 velocity=64 time=0\n",
      "note_off channel=0 note=68 velocity=64 time=0\n",
      "note_on channel=0 note=83 velocity=44 time=0\n",
      "note_off channel=0 note=90 velocity=64 time=0\n",
      "note_off channel=0 note=96 velocity=64 time=0\n",
      "note_off channel=0 note=97 velocity=64 time=0\n",
      "note_off channel=0 note=82 velocity=64 time=1\n",
      "note_on channel=0 note=90 velocity=42 time=0\n",
      "note_on channel=0 note=93 velocity=33 time=0\n",
      "note_off channel=0 note=95 velocity=64 time=0\n",
      "note_on channel=0 note=95 velocity=46 time=1\n",
      "note_on channel=0 note=80 velocity=25 time=1\n",
      "note_off channel=0 note=94 velocity=64 time=0\n",
      "note_off channel=0 note=100 velocity=64 time=0\n",
      "note_on channel=0 note=74 velocity=41 time=1\n",
      "note_on channel=0 note=91 velocity=34 time=0\n",
      "note_on channel=0 note=82 velocity=67 time=1\n",
      "note_off channel=0 note=71 velocity=64 time=1\n",
      "note_on channel=0 note=73 velocity=53 time=0\n",
      "note_off channel=0 note=74 velocity=64 time=0\n",
      "note_off channel=0 note=80 velocity=64 time=0\n",
      "note_off channel=0 note=83 velocity=64 time=0\n",
      "note_off channel=0 note=91 velocity=64 time=0\n",
      "note_off channel=0 note=93 velocity=64 time=0\n",
      "note_off channel=0 note=55 velocity=64 time=1\n",
      "note_on channel=0 note=56 velocity=65 time=0\n",
      "note_on channel=0 note=62 velocity=79 time=0\n",
      "note_on channel=0 note=68 velocity=70 time=0\n",
      "note_on channel=0 note=78 velocity=36 time=0\n",
      "note_off channel=0 note=84 velocity=64 time=0\n",
      "note_on channel=0 note=91 velocity=43 time=0\n",
      "note_on channel=0 note=96 velocity=66 time=0\n",
      "note_off channel=0 note=63 velocity=64 time=1\n",
      "note_on channel=0 note=75 velocity=78 time=0\n",
      "note_on channel=0 note=80 velocity=86 time=0\n",
      "note_on channel=0 note=84 velocity=32 time=0\n",
      "note_on channel=0 note=97 velocity=27 time=0\n",
      "note_off channel=0 note=56 velocity=64 time=1\n",
      "note_off channel=0 note=62 velocity=64 time=0\n",
      "note_on channel=0 note=63 velocity=85 time=0\n",
      "note_on channel=0 note=70 velocity=35 time=0\n",
      "note_on channel=0 note=100 velocity=47 time=0\n",
      "note_on channel=0 note=56 velocity=62 time=1\n",
      "note_on channel=0 note=88 velocity=44 time=0\n",
      "note_on channel=0 note=93 velocity=22 time=0\n",
      "note_off channel=0 note=70 velocity=64 time=1\n",
      "note_off channel=0 note=78 velocity=64 time=0\n",
      "note_off channel=0 note=89 velocity=64 time=0\n",
      "note_off channel=0 note=91 velocity=64 time=0\n",
      "note_off channel=0 note=92 velocity=64 time=1\n",
      "note_off channel=0 note=93 velocity=64 time=3\n",
      "note_on channel=0 note=103 velocity=9 time=0\n",
      "note_on channel=0 note=71 velocity=17 time=3\n",
      "note_on channel=0 note=93 velocity=48 time=1\n",
      "note_off channel=0 note=103 velocity=64 time=1\n",
      "note_on channel=0 note=91 velocity=21 time=1\n",
      "note_off channel=0 note=97 velocity=64 time=0\n",
      "note_off channel=0 note=73 velocity=64 time=1\n",
      "note_off channel=0 note=56 velocity=64 time=2\n",
      "note_off channel=0 note=91 velocity=64 time=1\n",
      "note_off channel=0 note=100 velocity=64 time=0\n",
      "note_on channel=0 note=91 velocity=31 time=1\n",
      "note_on channel=0 note=56 velocity=52 time=1\n",
      "note_off channel=0 note=84 velocity=64 time=0\n",
      "note_off channel=0 note=68 velocity=64 time=2\n",
      "note_off channel=0 note=96 velocity=64 time=0\n",
      "note_off channel=0 note=88 velocity=64 time=2\n",
      "note_on channel=0 note=89 velocity=83 time=0\n",
      "note_off channel=0 note=91 velocity=64 time=1\n",
      "note_off channel=0 note=56 velocity=64 time=1\n",
      "note_off channel=0 note=90 velocity=64 time=0\n",
      "note_on channel=0 note=56 velocity=61 time=1\n",
      "note_off channel=0 note=71 velocity=64 time=0\n",
      "note_on channel=0 note=83 velocity=43 time=0\n",
      "note_on channel=0 note=68 velocity=78 time=1\n",
      "note_on channel=0 note=71 velocity=34 time=0\n",
      "note_on channel=0 note=91 velocity=40 time=0\n",
      "note_on channel=0 note=100 velocity=43 time=0\n",
      "note_on channel=0 note=73 velocity=34 time=1\n",
      "note_off channel=0 note=82 velocity=64 time=0\n",
      "note_off channel=0 note=83 velocity=64 time=0\n",
      "note_on channel=0 note=84 velocity=64 time=0\n",
      "note_on channel=0 note=102 velocity=16 time=0\n",
      "note_off channel=0 note=71 velocity=64 time=1\n",
      "note_on channel=0 note=82 velocity=35 time=0\n",
      "note_on channel=0 note=94 velocity=59 time=0\n",
      "note_off channel=0 note=56 velocity=64 time=1\n",
      "note_off channel=0 note=73 velocity=64 time=0\n",
      "note_off channel=0 note=93 velocity=64 time=0\n",
      "note_on channel=0 note=56 velocity=58 time=1\n",
      "note_on channel=0 note=73 velocity=37 time=0\n",
      "note_off channel=0 note=89 velocity=64 time=0\n",
      "note_on channel=0 note=90 velocity=71 time=0\n",
      "note_on channel=0 note=89 velocity=70 time=1\n",
      "note_off channel=0 note=90 velocity=64 time=0\n",
      "note_off channel=0 note=95 velocity=64 time=0\n",
      "note_off channel=0 note=102 velocity=64 time=0\n",
      "note_off channel=0 note=73 velocity=64 time=1\n",
      "note_on channel=0 note=73 velocity=38 time=1\n",
      "note_off channel=0 note=89 velocity=64 time=0\n",
      "note_on channel=0 note=95 velocity=14 time=0\n",
      "note_on channel=0 note=71 velocity=28 time=1\n",
      "note_on channel=0 note=89 velocity=54 time=0\n",
      "note_off channel=0 note=63 velocity=64 time=1\n",
      "note_off channel=0 note=73 velocity=64 time=0\n",
      "note_on channel=0 note=73 velocity=36 time=1\n",
      "note_on channel=0 note=102 velocity=33 time=0\n",
      "note_on channel=0 note=90 velocity=39 time=1\n",
      "note_off channel=0 note=73 velocity=64 time=1\n",
      "note_on channel=0 note=73 velocity=37 time=1\n",
      "note_off channel=0 note=95 velocity=64 time=0\n",
      "note_on channel=0 note=65 velocity=16 time=1\n",
      "note_off channel=0 note=87 velocity=64 time=0\n",
      "note_off channel=0 note=91 velocity=64 time=3\n",
      "note_off channel=0 note=65 velocity=64 time=5\n",
      "note_off channel=0 note=89 velocity=64 time=1\n",
      "note_on channel=0 note=101 velocity=20 time=2\n",
      "note_off channel=0 note=102 velocity=64 time=0\n",
      "note_off channel=0 note=82 velocity=64 time=1\n",
      "note_off channel=0 note=84 velocity=64 time=0\n",
      "note_off channel=0 note=100 velocity=64 time=0\n",
      "note_off channel=0 note=56 velocity=64 time=1\n",
      "note_off channel=0 note=90 velocity=64 time=0\n",
      "note_on channel=0 note=55 velocity=65 time=1\n",
      "note_off channel=0 note=71 velocity=64 time=0\n",
      "note_on channel=0 note=82 velocity=32 time=0\n",
      "note_off channel=0 note=101 velocity=64 time=0\n",
      "note_on channel=0 note=84 velocity=19 time=1\n",
      "note_off channel=0 note=55 velocity=64 time=1\n",
      "note_on channel=0 note=61 velocity=79 time=0\n",
      "note_on channel=0 note=71 velocity=46 time=0\n",
      "note_off channel=0 note=73 velocity=64 time=0\n",
      "note_off channel=0 note=80 velocity=64 time=0\n",
      "note_off channel=0 note=94 velocity=64 time=0\n",
      "note_on channel=0 note=95 velocity=31 time=0\n",
      "note_on channel=0 note=66 velocity=59 time=1\n",
      "note_off channel=0 note=77 velocity=64 time=0\n",
      "note_on channel=0 note=90 velocity=44 time=0\n",
      "note_on channel=0 note=54 velocity=57 time=1\n",
      "note_on channel=0 note=63 velocity=65 time=0\n",
      "note_off channel=0 note=68 velocity=64 time=0\n",
      "note_on channel=0 note=69 velocity=74 time=0\n",
      "note_off channel=0 note=71 velocity=64 time=0\n",
      "note_off channel=0 note=75 velocity=64 time=0\n",
      "note_on channel=0 note=76 velocity=78 time=0\n",
      "note_on channel=0 note=93 velocity=59 time=0\n",
      "note_off channel=0 note=63 velocity=64 time=1\n",
      "note_off channel=0 note=66 velocity=64 time=0\n",
      "note_off channel=0 note=90 velocity=64 time=0\n",
      "note_on channel=0 note=91 velocity=55 time=0\n",
      "note_off channel=0 note=54 velocity=64 time=1\n",
      "note_on channel=0 note=57 velocity=63 time=0\n",
      "note_off channel=0 note=61 velocity=64 time=0\n",
      "note_on channel=0 note=62 velocity=58 time=0\n",
      "note_on channel=0 note=73 velocity=29 time=0\n",
      "note_off channel=0 note=84 velocity=64 time=0\n",
      "note_off channel=0 note=62 velocity=64 time=2\n",
      "note_on channel=0 note=65 velocity=47 time=0\n",
      "note_on channel=0 note=87 velocity=31 time=0\n",
      "note_on channel=0 note=102 velocity=24 time=0\n",
      "note_off channel=0 note=82 velocity=64 time=2\n",
      "note_on channel=0 note=83 velocity=39 time=0\n",
      "note_on channel=0 note=89 velocity=32 time=0\n",
      "note_on channel=0 note=61 velocity=18 time=3\n",
      "note_off channel=0 note=102 velocity=64 time=1\n",
      "note_off channel=0 note=61 velocity=64 time=2\n",
      "note_on channel=0 note=62 velocity=48 time=0\n",
      "note_off channel=0 note=65 velocity=64 time=1\n",
      "note_off channel=0 note=73 velocity=64 time=0\n",
      "note_on channel=0 note=82 velocity=63 time=0\n",
      "note_off channel=0 note=83 velocity=64 time=0\n",
      "note_on channel=0 note=90 velocity=31 time=0\n",
      "note_on channel=0 note=61 velocity=39 time=1\n",
      "note_off channel=0 note=62 velocity=64 time=0\n",
      "note_on channel=0 note=64 velocity=47 time=0\n",
      "note_on channel=0 note=72 velocity=32 time=0\n",
      "note_on channel=0 note=80 velocity=36 time=0\n",
      "note_on channel=0 note=84 velocity=37 time=0\n",
      "note_on channel=0 note=83 velocity=50 time=1\n",
      "note_on channel=0 note=85 velocity=19 time=0\n",
      "note_off channel=0 note=90 velocity=64 time=0\n",
      "note_off channel=0 note=57 velocity=64 time=1\n",
      "note_off channel=0 note=61 velocity=64 time=0\n",
      "note_off channel=0 note=64 velocity=64 time=0\n",
      "note_on channel=0 note=65 velocity=57 time=0\n",
      "note_off channel=0 note=72 velocity=64 time=0\n",
      "note_on channel=0 note=73 velocity=33 time=0\n",
      "note_off channel=0 note=80 velocity=64 time=0\n",
      "note_off channel=0 note=82 velocity=64 time=0\n",
      "note_off channel=0 note=91 velocity=64 time=0\n",
      "note_off channel=0 note=95 velocity=64 time=0\n",
      "note_on channel=0 note=55 velocity=42 time=1\n",
      "note_on channel=0 note=61 velocity=13 time=1\n",
      "note_on channel=0 note=75 velocity=23 time=0\n",
      "note_off channel=0 note=76 velocity=64 time=0\n",
      "note_off channel=0 note=84 velocity=64 time=0\n",
      "note_on channel=0 note=91 velocity=49 time=0\n",
      "note_off channel=0 note=93 velocity=64 time=0\n",
      "note_off channel=0 note=55 velocity=64 time=1\n",
      "note_on channel=0 note=68 velocity=80 time=0\n",
      "note_off channel=0 note=69 velocity=64 time=0\n",
      "note_off channel=0 note=87 velocity=64 time=0\n",
      "note_on channel=0 note=56 velocity=47 time=1\n",
      "note_on channel=0 note=71 velocity=11 time=0\n",
      "note_off channel=0 note=75 velocity=64 time=1\n",
      "note_on channel=0 note=76 velocity=33 time=0\n",
      "note_off channel=0 note=89 velocity=64 time=1\n",
      "note_off channel=0 note=61 velocity=64 time=1\n",
      "note_on channel=0 note=87 velocity=44 time=0\n",
      "note_on channel=0 note=89 velocity=48 time=0\n",
      "note_on channel=0 note=92 velocity=51 time=0\n",
      "note_off channel=0 note=71 velocity=64 time=1\n",
      "note_on channel=0 note=90 velocity=50 time=0\n",
      "note_off channel=0 note=56 velocity=64 time=1\n",
      "note_on channel=0 note=61 velocity=33 time=0\n",
      "note_on channel=0 note=72 velocity=33 time=0\n",
      "note_off channel=0 note=73 velocity=64 time=0\n",
      "note_on channel=0 note=81 velocity=22 time=0\n",
      "note_on channel=0 note=56 velocity=65 time=1\n",
      "note_on channel=0 note=75 velocity=56 time=0\n",
      "note_on channel=0 note=94 velocity=24 time=0\n",
      "note_off channel=0 note=61 velocity=64 time=1\n",
      "note_off channel=0 note=72 velocity=64 time=0\n",
      "note_on channel=0 note=73 velocity=67 time=0\n",
      "note_off channel=0 note=76 velocity=64 time=0\n",
      "note_on channel=0 note=79 velocity=39 time=0\n",
      "note_on channel=0 note=84 velocity=34 time=0\n",
      "note_on channel=0 note=48 velocity=65 time=1\n",
      "note_on channel=0 note=64 velocity=81 time=0\n",
      "note_off channel=0 note=65 velocity=64 time=0\n",
      "note_off channel=0 note=81 velocity=64 time=0\n",
      "note_on channel=0 note=45 velocity=76 time=1\n",
      "note_off channel=0 note=48 velocity=64 time=0\n",
      "note_on channel=0 note=55 velocity=58 time=0\n",
      "note_off channel=0 note=56 velocity=64 time=0\n",
      "note_off channel=0 note=79 velocity=64 time=0\n",
      "note_off channel=0 note=85 velocity=64 time=0\n",
      "note_on channel=0 note=44 velocity=79 time=1\n",
      "note_off channel=0 note=45 velocity=64 time=0\n",
      "note_on channel=0 note=63 velocity=73 time=0\n",
      "note_off channel=0 note=64 velocity=64 time=0\n",
      "note_on channel=0 note=67 velocity=71 time=0\n",
      "note_off channel=0 note=68 velocity=64 time=0\n",
      "note_off channel=0 note=84 velocity=64 time=0\n",
      "note_on channel=0 note=93 velocity=25 time=0\n",
      "note_off channel=0 note=55 velocity=64 time=1\n",
      "note_off channel=0 note=94 velocity=64 time=0\n",
      "note_off channel=0 note=67 velocity=64 time=1\n",
      "note_on channel=0 note=77 velocity=31 time=0\n",
      "note_on channel=0 note=81 velocity=33 time=0\n",
      "note_off channel=0 note=63 velocity=64 time=1\n",
      "note_on channel=0 note=67 velocity=39 time=0\n",
      "note_off channel=0 note=44 velocity=64 time=1\n",
      "note_on channel=0 note=61 velocity=36 time=0\n",
      "note_on channel=0 note=41 velocity=58 time=1\n",
      "note_on channel=0 note=54 velocity=62 time=0\n",
      "note_off channel=0 note=67 velocity=64 time=0\n",
      "note_on channel=0 note=68 velocity=21 time=0\n",
      "note_off channel=0 note=77 velocity=64 time=0\n",
      "note_on channel=0 note=78 velocity=35 time=0\n",
      "note_off channel=0 note=81 velocity=64 time=0\n",
      "note_on channel=0 note=82 velocity=37 time=0\n",
      "note_off channel=0 note=93 velocity=64 time=0\n",
      "note_off channel=0 note=61 velocity=64 time=1\n",
      "note_off channel=0 note=41 velocity=64 time=1\n",
      "note_on channel=0 note=43 velocity=63 time=0\n",
      "note_on channel=0 note=61 velocity=61 time=0\n",
      "note_off channel=0 note=54 velocity=64 time=1\n",
      "note_on channel=0 note=66 velocity=39 time=0\n",
      "note_off channel=0 note=68 velocity=64 time=0\n",
      "note_on channel=0 note=81 velocity=39 time=0\n",
      "note_off channel=0 note=82 velocity=64 time=0\n",
      "note_off channel=0 note=92 velocity=64 time=0\n",
      "note_on channel=0 note=42 velocity=57 time=1\n",
      "note_off channel=0 note=43 velocity=64 time=0\n",
      "note_off channel=0 note=90 velocity=64 time=1\n",
      "note_on channel=0 note=54 velocity=63 time=1\n",
      "note_off channel=0 note=91 velocity=64 time=0\n",
      "note_off channel=0 note=42 velocity=64 time=1\n",
      "note_off channel=0 note=78 velocity=64 time=0\n",
      "note_off channel=0 note=81 velocity=64 time=0\n",
      "note_on channel=0 note=82 velocity=34 time=0\n",
      "note_on channel=0 note=90 velocity=20 time=0\n",
      "note_on channel=0 note=48 velocity=69 time=1\n",
      "note_off channel=0 note=54 velocity=64 time=0\n",
      "note_off channel=0 note=83 velocity=64 time=0\n",
      "note_on channel=0 note=91 velocity=19 time=0\n",
      "note_on channel=0 note=81 velocity=29 time=1\n",
      "note_off channel=0 note=82 velocity=64 time=0\n",
      "note_on channel=0 note=83 velocity=50 time=0\n",
      "note_on channel=0 note=47 velocity=74 time=1\n",
      "note_off channel=0 note=48 velocity=64 time=0\n",
      "note_off channel=0 note=66 velocity=64 time=0\n",
      "note_on channel=0 note=67 velocity=35 time=0\n",
      "note_off channel=0 note=75 velocity=64 time=0\n",
      "note_on channel=0 note=77 velocity=49 time=0\n",
      "note_off channel=0 note=47 velocity=64 time=1\n",
      "note_on channel=0 note=48 velocity=72 time=0\n",
      "note_off channel=0 note=81 velocity=64 time=0\n",
      "note_on channel=0 note=65 velocity=42 time=1\n",
      "note_on channel=0 note=71 velocity=37 time=0\n",
      "note_off channel=0 note=90 velocity=64 time=0\n",
      "note_off channel=0 note=48 velocity=64 time=1\n",
      "note_on channel=0 note=52 velocity=78 time=0\n",
      "note_off channel=0 note=52 velocity=64 time=1\n",
      "note_on channel=0 note=53 velocity=73 time=0\n",
      "note_off channel=0 note=67 velocity=64 time=0\n",
      "note_on channel=0 note=68 velocity=17 time=0\n",
      "note_off channel=0 note=87 velocity=64 time=0\n",
      "note_off channel=0 note=53 velocity=64 time=1\n",
      "note_off channel=0 note=68 velocity=64 time=2\n",
      "note_on channel=0 note=53 velocity=59 time=1\n",
      "note_on channel=0 note=64 velocity=83 time=3\n",
      "note_off channel=0 note=73 velocity=64 time=0\n",
      "note_on channel=0 note=90 velocity=38 time=0\n",
      "note_off channel=0 note=53 velocity=64 time=1\n",
      "note_off channel=0 note=61 velocity=64 time=0\n",
      "note_off channel=0 note=65 velocity=64 time=0\n",
      "note_on channel=0 note=73 velocity=46 time=0\n",
      "note_on channel=0 note=79 velocity=42 time=0\n",
      "note_on channel=0 note=87 velocity=23 time=0\n",
      "note_on channel=0 note=45 velocity=78 time=1\n",
      "note_on channel=0 note=53 velocity=50 time=0\n",
      "note_on channel=0 note=63 velocity=76 time=1\n",
      "note_off channel=0 note=64 velocity=64 time=0\n",
      "note_on channel=0 note=80 velocity=51 time=0\n",
      "note_on channel=0 note=44 velocity=79 time=1\n",
      "note_off channel=0 note=45 velocity=64 time=0\n",
      "note_off channel=0 note=53 velocity=64 time=0\n",
      "note_on channel=0 note=69 velocity=33 time=0\n",
      "note_off channel=0 note=71 velocity=64 time=0\n",
      "note_off channel=0 note=79 velocity=64 time=0\n",
      "note_off channel=0 note=90 velocity=64 time=0\n",
      "note_on channel=0 note=71 velocity=59 time=1\n",
      "note_off channel=0 note=87 velocity=64 time=0\n",
      "note_off channel=0 note=91 velocity=64 time=0\n",
      "note_off channel=0 note=69 velocity=64 time=1\n",
      "note_on channel=0 note=61 velocity=37 time=1\n",
      "note_off channel=0 note=63 velocity=64 time=0\n",
      "note_off channel=0 note=44 velocity=64 time=1\n",
      "note_off channel=0 note=73 velocity=64 time=1\n",
      "note_off channel=0 note=61 velocity=64 time=1\n",
      "note_on channel=0 note=73 velocity=73 time=0\n",
      "note_on channel=0 note=43 velocity=61 time=1\n",
      "note_on channel=0 note=61 velocity=73 time=0\n",
      "note_on channel=0 note=65 velocity=26 time=0\n",
      "note_on channel=0 note=42 velocity=57 time=3\n",
      "note_off channel=0 note=43 velocity=64 time=0\n",
      "note_on channel=0 note=87 velocity=35 time=2\n",
      "note_on channel=0 note=90 velocity=72 time=0\n",
      "note_off channel=0 note=42 velocity=64 time=1\n",
      "note_on channel=0 note=58 velocity=65 time=0\n",
      "note_on channel=0 note=42 velocity=53 time=1\n",
      "note_off channel=0 note=89 velocity=64 time=0\n",
      "note_off channel=0 note=58 velocity=64 time=1\n",
      "note_on channel=0 note=100 velocity=18 time=0\n",
      "note_on channel=0 note=59 velocity=65 time=1\n",
      "note_off channel=0 note=61 velocity=64 time=0\n",
      "note_on channel=0 note=62 velocity=68 time=0\n",
      "note_off channel=0 note=77 velocity=64 time=0\n",
      "note_on channel=0 note=78 velocity=57 time=0\n",
      "note_on channel=0 note=92 velocity=52 time=0\n",
      "note_on channel=0 note=58 velocity=66 time=1\n",
      "note_off channel=0 note=59 velocity=64 time=0\n",
      "note_on channel=0 note=61 velocity=71 time=0\n",
      "note_off channel=0 note=62 velocity=64 time=0\n",
      "note_off channel=0 note=65 velocity=64 time=0\n",
      "note_on channel=0 note=77 velocity=80 time=0\n",
      "note_on channel=0 note=82 velocity=45 time=0\n",
      "note_on channel=0 note=65 velocity=15 time=1\n",
      "note_on channel=0 note=70 velocity=69 time=0\n",
      "note_off channel=0 note=71 velocity=64 time=0\n",
      "note_off channel=0 note=78 velocity=64 time=0\n",
      "note_off channel=0 note=83 velocity=64 time=0\n",
      "note_on channel=0 note=86 velocity=43 time=0\n",
      "note_on channel=0 note=96 velocity=19 time=0\n",
      "note_on channel=0 note=91 velocity=73 time=1\n",
      "note_off channel=0 note=100 velocity=64 time=0\n",
      "note_on channel=0 note=57 velocity=66 time=1\n",
      "note_off channel=0 note=58 velocity=64 time=0\n",
      "note_on channel=0 note=69 velocity=67 time=0\n",
      "note_off channel=0 note=70 velocity=64 time=0\n",
      "note_on channel=0 note=76 velocity=78 time=0\n",
      "note_off channel=0 note=77 velocity=64 time=0\n",
      "note_off channel=0 note=82 velocity=64 time=0\n",
      "note_on channel=0 note=95 velocity=36 time=0\n",
      "note_off channel=0 note=65 velocity=64 time=1\n",
      "note_on channel=0 note=82 velocity=27 time=0\n",
      "note_off channel=0 note=87 velocity=64 time=0\n",
      "note_off channel=0 note=96 velocity=64 time=0\n",
      "note_on channel=0 note=101 velocity=41 time=0\n",
      "note_on channel=0 note=83 velocity=58 time=1\n",
      "note_off channel=0 note=86 velocity=64 time=0\n",
      "note_on channel=0 note=89 velocity=21 time=0\n",
      "note_off channel=0 note=91 velocity=64 time=0\n",
      "note_off channel=0 note=80 velocity=64 time=1\n",
      "note_on channel=0 note=91 velocity=56 time=0\n",
      "note_off channel=0 note=42 velocity=64 time=1\n",
      "note_off channel=0 note=82 velocity=64 time=0\n",
      "note_on channel=0 note=87 velocity=48 time=0\n",
      "note_off channel=0 note=90 velocity=64 time=0\n",
      "note_on channel=0 note=80 velocity=84 time=1\n",
      "note_off channel=0 note=89 velocity=64 time=0\n",
      "note_off channel=0 note=57 velocity=64 time=1\n",
      "note_on channel=0 note=89 velocity=71 time=0\n",
      "note_on channel=0 note=48 velocity=86 time=1\n",
      "note_on channel=0 note=64 velocity=67 time=0\n",
      "note_off channel=0 note=69 velocity=64 time=0\n",
      "note_on channel=0 note=70 velocity=56 time=0\n",
      "note_on channel=0 note=77 velocity=56 time=0\n",
      "note_off channel=0 note=101 velocity=64 time=0\n",
      "note_off channel=0 note=61 velocity=64 time=1\n",
      "note_off channel=0 note=76 velocity=64 time=0\n",
      "note_off channel=0 note=92 velocity=64 time=0\n",
      "note_off channel=0 note=64 velocity=64 time=1\n",
      "note_off channel=0 note=70 velocity=64 time=0\n",
      "note_on channel=0 note=84 velocity=47 time=0\n",
      "note_off channel=0 note=48 velocity=64 time=1\n",
      "note_on channel=0 note=62 velocity=65 time=0\n",
      "note_on channel=0 note=76 velocity=34 time=0\n",
      "note_on channel=0 note=61 velocity=77 time=1\n",
      "note_off channel=0 note=62 velocity=64 time=0\n",
      "note_on channel=0 note=65 velocity=48 time=0\n",
      "note_off channel=0 note=77 velocity=64 time=0\n",
      "note_on channel=0 note=94 velocity=27 time=0\n",
      "note_off channel=0 note=84 velocity=64 time=1\n",
      "note_off channel=0 note=87 velocity=64 time=0\n",
      "note_on channel=0 note=49 velocity=54 time=1\n",
      "note_on channel=0 note=84 velocity=57 time=0\n",
      "note_on channel=0 note=60 velocity=75 time=1\n",
      "note_off channel=0 note=61 velocity=64 time=0\n",
      "note_on channel=0 note=68 velocity=33 time=0\n",
      "note_on channel=0 note=72 velocity=77 time=0\n",
      "note_off channel=0 note=73 velocity=64 time=0\n",
      "note_on channel=0 note=75 velocity=48 time=0\n",
      "note_off channel=0 note=76 velocity=64 time=0\n",
      "note_off channel=0 note=83 velocity=64 time=0\n",
      "note_off channel=0 note=95 velocity=64 time=0\n",
      "note_off channel=0 note=89 velocity=64 time=1\n",
      "note_on channel=0 note=93 velocity=53 time=0\n",
      "note_off channel=0 note=49 velocity=64 time=1\n",
      "note_on channel=0 note=59 velocity=61 time=0\n",
      "note_off channel=0 note=60 velocity=64 time=0\n",
      "note_on channel=0 note=78 velocity=35 time=0\n",
      "note_on channel=0 note=83 velocity=58 time=0\n",
      "note_on channel=0 note=90 velocity=50 time=0\n",
      "note_off channel=0 note=91 velocity=64 time=0\n",
      "note_off channel=0 note=94 velocity=64 time=0\n",
      "note_on channel=0 note=71 velocity=68 time=1\n",
      "note_off channel=0 note=72 velocity=64 time=0\n",
      "note_on channel=0 note=79 velocity=38 time=0\n",
      "note_off channel=0 note=84 velocity=64 time=0\n",
      "note_off channel=0 note=93 velocity=64 time=0\n",
      "note_on channel=0 note=44 velocity=34 time=1\n",
      "note_off channel=0 note=78 velocity=64 time=0\n",
      "note_on channel=0 note=84 velocity=22 time=0\n",
      "note_on channel=0 note=78 velocity=60 time=1\n",
      "note_off channel=0 note=79 velocity=64 time=0\n",
      "note_off channel=0 note=83 velocity=64 time=0\n",
      "note_off channel=0 note=44 velocity=64 time=1\n",
      "note_on channel=0 note=44 velocity=32 time=1\n",
      "note_on channel=0 note=54 velocity=30 time=0\n",
      "note_off channel=0 note=84 velocity=64 time=0\n",
      "note_off channel=0 note=78 velocity=64 time=1\n",
      "note_on channel=0 note=82 velocity=23 time=0\n",
      "note_off channel=0 note=44 velocity=64 time=1\n",
      "note_off channel=0 note=54 velocity=64 time=0\n",
      "note_on channel=0 note=78 velocity=59 time=0\n",
      "note_on channel=0 note=84 velocity=43 time=0\n",
      "note_on channel=0 note=54 velocity=30 time=1\n",
      "note_off channel=0 note=68 velocity=64 time=0\n",
      "note_on channel=0 note=43 velocity=14 time=1\n",
      "note_off channel=0 note=82 velocity=64 time=0\n",
      "note_off channel=0 note=54 velocity=64 time=1\n",
      "note_on channel=0 note=70 velocity=68 time=0\n",
      "note_off channel=0 note=71 velocity=64 time=0\n",
      "note_off channel=0 note=59 velocity=64 time=1\n",
      "note_on channel=0 note=68 velocity=39 time=0\n",
      "note_on channel=0 note=73 velocity=83 time=0\n",
      "note_off channel=0 note=70 velocity=64 time=1\n",
      "note_on channel=0 note=71 velocity=51 time=0\n",
      "note_off channel=0 note=43 velocity=64 time=1\n",
      "note_on channel=0 note=53 velocity=28 time=0\n",
      "note_on channel=0 note=88 velocity=15 time=0\n",
      "note_off channel=0 note=78 velocity=64 time=1\n",
      "note_on channel=0 note=86 velocity=21 time=0\n",
      "note_off channel=0 note=53 velocity=64 time=3\n",
      "note_off channel=0 note=86 velocity=64 time=2\n",
      "note_off channel=0 note=88 velocity=64 time=0\n",
      "note_on channel=0 note=89 velocity=71 time=0\n",
      "note_on channel=0 note=93 velocity=15 time=0\n",
      "note_on channel=0 note=94 velocity=25 time=0\n",
      "note_on channel=0 note=95 velocity=38 time=0\n",
      "note_on channel=0 note=61 velocity=82 time=1\n",
      "note_off channel=0 note=90 velocity=64 time=0\n",
      "note_on channel=0 note=102 velocity=29 time=0\n",
      "note_on channel=0 note=45 velocity=75 time=1\n",
      "note_off channel=0 note=65 velocity=64 time=0\n",
      "note_off channel=0 note=68 velocity=64 time=0\n",
      "note_off channel=0 note=71 velocity=64 time=0\n",
      "note_on channel=0 note=44 velocity=77 time=1\n",
      "note_off channel=0 note=45 velocity=64 time=0\n",
      "note_on channel=0 note=67 velocity=35 time=0\n",
      "note_on channel=0 note=82 velocity=42 time=0\n",
      "note_off channel=0 note=94 velocity=64 time=1\n",
      "note_on channel=0 note=64 velocity=30 time=1\n",
      "note_off channel=0 note=67 velocity=64 time=0\n",
      "note_on channel=0 note=68 velocity=41 time=0\n",
      "note_off channel=0 note=93 velocity=64 time=0\n",
      "note_on channel=0 note=43 velocity=73 time=1\n",
      "note_off channel=0 note=44 velocity=64 time=0\n",
      "note_off channel=0 note=75 velocity=64 time=0\n",
      "note_on channel=0 note=54 velocity=21 time=1\n",
      "note_off channel=0 note=64 velocity=64 time=0\n",
      "note_on channel=0 note=75 velocity=17 time=0\n",
      "note_off channel=0 note=84 velocity=64 time=0\n",
      "note_off channel=0 note=95 velocity=64 time=0\n",
      "note_on channel=0 note=60 velocity=70 time=1\n",
      "note_off channel=0 note=61 velocity=64 time=0\n",
      "note_on channel=0 note=65 velocity=41 time=0\n",
      "note_off channel=0 note=60 velocity=64 time=1\n",
      "note_on channel=0 note=61 velocity=77 time=0\n",
      "note_off channel=0 note=54 velocity=64 time=2\n",
      "note_off channel=0 note=43 velocity=64 time=1\n",
      "note_off channel=0 note=82 velocity=64 time=0\n",
      "note_on channel=0 note=82 velocity=37 time=1\n",
      "note_on channel=0 note=71 velocity=39 time=3\n",
      "note_on channel=0 note=88 velocity=25 time=1\n",
      "note_off channel=0 note=89 velocity=64 time=0\n",
      "note_off channel=0 note=102 velocity=64 time=1\n",
      "note_on channel=0 note=60 velocity=69 time=3\n",
      "note_off channel=0 note=61 velocity=64 time=0\n",
      "note_on channel=0 note=78 velocity=13 time=0\n",
      "note_on channel=0 note=91 velocity=16 time=0\n",
      "note_off channel=0 note=71 velocity=64 time=1\n",
      "note_on channel=0 note=84 velocity=24 time=0\n",
      "note_off channel=0 note=88 velocity=64 time=0\n",
      "note_on channel=0 note=89 velocity=71 time=0\n",
      "note_off channel=0 note=73 velocity=64 time=1\n",
      "note_on channel=0 note=73 velocity=67 time=1\n",
      "note_on channel=0 note=90 velocity=43 time=0\n",
      "note_off channel=0 note=60 velocity=64 time=1\n",
      "note_on channel=0 note=61 velocity=82 time=0\n",
      "note_on channel=0 note=71 velocity=30 time=0\n",
      "note_off channel=0 note=78 velocity=64 time=1\n",
      "note_off channel=0 note=91 velocity=64 time=1\n",
      "note_on channel=0 note=95 velocity=47 time=0\n",
      "note_on channel=0 note=48 velocity=57 time=2\n",
      "note_off channel=0 note=65 velocity=64 time=0\n",
      "note_off channel=0 note=75 velocity=64 time=0\n",
      "note_on channel=0 note=88 velocity=35 time=0\n",
      "note_off channel=0 note=68 velocity=64 time=1\n",
      "note_off channel=0 note=71 velocity=64 time=0\n",
      "note_on channel=0 note=45 velocity=78 time=1\n",
      "note_off channel=0 note=48 velocity=64 time=0\n",
      "note_on channel=0 note=53 velocity=43 time=0\n",
      "note_on channel=0 note=64 velocity=82 time=0\n",
      "note_off channel=0 note=88 velocity=64 time=0\n",
      "note_off channel=0 note=61 velocity=64 time=1\n",
      "note_on channel=0 note=91 velocity=38 time=0\n",
      "note_on channel=0 note=97 velocity=22 time=0\n",
      "note_on channel=0 note=44 velocity=79 time=1\n",
      "note_off channel=0 note=45 velocity=64 time=0\n",
      "note_off channel=0 note=53 velocity=64 time=0\n",
      "note_on channel=0 note=61 velocity=86 time=0\n",
      "note_on channel=0 note=63 velocity=71 time=0\n",
      "note_off channel=0 note=64 velocity=64 time=0\n",
      "note_on channel=0 note=69 velocity=40 time=0\n",
      "note_on channel=0 note=78 velocity=30 time=0\n",
      "note_off channel=0 note=63 velocity=64 time=1\n",
      "note_on channel=0 note=71 velocity=28 time=0\n",
      "note_on channel=0 note=65 velocity=52 time=1\n",
      "note_on channel=0 note=68 velocity=29 time=0\n",
      "note_off channel=0 note=69 velocity=64 time=0\n",
      "note_on channel=0 note=43 velocity=70 time=3\n",
      "note_off channel=0 note=44 velocity=64 time=0\n",
      "note_off channel=0 note=68 velocity=64 time=0\n",
      "note_off channel=0 note=78 velocity=64 time=0\n",
      "note_on channel=0 note=78 velocity=27 time=1\n",
      "note_on channel=0 note=75 velocity=33 time=1\n",
      "note_on channel=0 note=87 velocity=43 time=0\n",
      "note_off channel=0 note=43 velocity=64 time=1\n",
      "note_on channel=0 note=43 velocity=61 time=1\n",
      "note_off channel=0 note=71 velocity=64 time=0\n",
      "note_off channel=0 note=78 velocity=64 time=1\n",
      "note_off channel=0 note=43 velocity=64 time=1\n",
      "note_on channel=0 note=48 velocity=65 time=1\n",
      "note_on channel=0 note=86 velocity=18 time=0\n",
      "note_on channel=0 note=47 velocity=72 time=2\n",
      "note_off channel=0 note=48 velocity=64 time=0\n",
      "note_off channel=0 note=65 velocity=64 time=0\n",
      "note_on channel=0 note=65 velocity=52 time=1\n",
      "note_on channel=0 note=68 velocity=41 time=0\n",
      "note_on channel=0 note=72 velocity=35 time=0\n",
      "note_off channel=0 note=73 velocity=64 time=0\n",
      "note_off channel=0 note=84 velocity=64 time=0\n",
      "note_off channel=0 note=97 velocity=64 time=0\n",
      "note_off channel=0 note=47 velocity=64 time=1\n",
      "note_on channel=0 note=48 velocity=67 time=0\n",
      "note_off channel=0 note=48 velocity=64 time=1\n",
      "note_on channel=0 note=49 velocity=76 time=0\n",
      "note_off channel=0 note=61 velocity=64 time=0\n",
      "note_off channel=0 note=72 velocity=64 time=0\n",
      "note_on channel=0 note=73 velocity=81 time=0\n",
      "note_off channel=0 note=86 velocity=64 time=0\n",
      "note_off channel=0 note=49 velocity=64 time=1\n",
      "note_on channel=0 note=53 velocity=75 time=0\n",
      "note_on channel=0 note=61 velocity=36 time=0\n",
      "note_on channel=0 note=83 velocity=52 time=1\n",
      "note_off channel=0 note=82 velocity=64 time=1\n",
      "note_off channel=0 note=53 velocity=64 time=1\n",
      "note_on channel=0 note=53 velocity=58 time=1\n",
      "note_on channel=0 note=71 velocity=24 time=1\n",
      "note_on channel=0 note=84 velocity=41 time=1\n",
      "note_off channel=0 note=61 velocity=64 time=1\n",
      "note_off channel=0 note=68 velocity=64 time=0\n",
      "note_on channel=0 note=61 velocity=85 time=1\n",
      "note_on channel=0 note=64 velocity=65 time=0\n",
      "note_off channel=0 note=65 velocity=64 time=0\n",
      "note_off channel=0 note=71 velocity=64 time=0\n",
      "note_on channel=0 note=79 velocity=44 time=0\n",
      "note_off channel=0 note=80 velocity=64 time=0\n",
      "note_off channel=0 note=90 velocity=64 time=0\n",
      "note_on channel=0 note=92 velocity=56 time=0\n",
      "note_on channel=0 note=102 velocity=30 time=0\n",
      "note_off channel=0 note=53 velocity=64 time=1\n",
      "note_off channel=0 note=64 velocity=64 time=0\n",
      "note_on channel=0 note=71 velocity=33 time=0\n",
      "note_on channel=0 note=77 velocity=43 time=0\n",
      "note_on channel=0 note=81 velocity=34 time=0\n",
      "note_on channel=0 note=45 velocity=75 time=1\n",
      "note_on channel=0 note=64 velocity=77 time=0\n",
      "note_on channel=0 note=67 velocity=46 time=0\n",
      "note_off channel=0 note=79 velocity=64 time=0\n",
      "note_on channel=0 note=80 velocity=85 time=0\n",
      "note_on channel=0 note=90 velocity=31 time=0\n",
      "note_off channel=0 note=102 velocity=64 time=0\n",
      "note_on channel=0 note=44 velocity=78 time=1\n",
      "note_off channel=0 note=45 velocity=64 time=0\n",
      "note_off channel=0 note=64 velocity=64 time=0\n",
      "note_off channel=0 note=71 velocity=64 time=0\n",
      "note_off channel=0 note=77 velocity=64 time=0\n",
      "note_off channel=0 note=81 velocity=64 time=0\n",
      "note_off channel=0 note=67 velocity=64 time=1\n",
      "note_on channel=0 note=77 velocity=30 time=0\n",
      "note_on channel=0 note=93 velocity=18 time=1\n",
      "note_off channel=0 note=44 velocity=64 time=1\n",
      "note_on channel=0 note=45 velocity=75 time=0\n",
      "note_on channel=0 note=65 velocity=37 time=1\n",
      "note_on channel=0 note=44 velocity=70 time=1\n",
      "note_off channel=0 note=45 velocity=64 time=0\n",
      "note_off channel=0 note=75 velocity=64 time=1\n",
      "note_on channel=0 note=43 velocity=63 time=1\n",
      "note_off channel=0 note=44 velocity=64 time=0\n",
      "note_off channel=0 note=65 velocity=64 time=0\n",
      "note_on channel=0 note=75 velocity=17 time=0\n",
      "note_off channel=0 note=43 velocity=64 time=2\n",
      "note_off channel=0 note=91 velocity=64 time=0\n",
      "note_off channel=0 note=75 velocity=64 time=1\n",
      "note_on channel=0 note=47 velocity=72 time=4\n",
      "note_on channel=0 note=82 velocity=44 time=1\n",
      "note_off channel=0 note=83 velocity=64 time=0\n",
      "note_off channel=0 note=47 velocity=64 time=1\n",
      "note_on channel=0 note=48 velocity=72 time=0\n",
      "note_on channel=0 note=71 velocity=16 time=1\n",
      "note_off channel=0 note=48 velocity=64 time=1\n",
      "note_on channel=0 note=53 velocity=75 time=0\n",
      "note_off channel=0 note=61 velocity=64 time=2\n",
      "note_on channel=0 note=62 velocity=52 time=0\n",
      "note_off channel=0 note=53 velocity=64 time=1\n",
      "note_on channel=0 note=54 velocity=59 time=0\n",
      "note_on channel=0 note=69 velocity=37 time=0\n",
      "note_off channel=0 note=71 velocity=64 time=0\n",
      "note_off channel=0 note=90 velocity=64 time=0\n",
      "note_on channel=0 note=61 velocity=86 time=1\n",
      "note_off channel=0 note=62 velocity=64 time=0\n",
      "note_on channel=0 note=90 velocity=27 time=0\n",
      "note_on channel=0 note=53 velocity=55 time=1\n",
      "note_off channel=0 note=54 velocity=64 time=0\n",
      "note_off channel=0 note=69 velocity=64 time=0\n",
      "note_on channel=0 note=83 velocity=50 time=2\n",
      "note_off channel=0 note=82 velocity=64 time=1\n",
      "note_on channel=0 note=48 velocity=87 time=1\n",
      "note_off channel=0 note=53 velocity=64 time=0\n",
      "note_off channel=0 note=77 velocity=64 time=0\n",
      "note_on channel=0 note=91 velocity=16 time=0\n",
      "note_on channel=0 note=66 velocity=55 time=1\n",
      "note_on channel=0 note=71 velocity=29 time=0\n",
      "note_on channel=0 note=77 velocity=28 time=1\n",
      "note_off channel=0 note=90 velocity=64 time=0\n",
      "note_on channel=0 note=47 velocity=71 time=1\n",
      "note_off channel=0 note=48 velocity=64 time=0\n",
      "note_off channel=0 note=66 velocity=64 time=0\n",
      "note_off channel=0 note=71 velocity=64 time=0\n",
      "note_off channel=0 note=47 velocity=64 time=1\n",
      "note_on channel=0 note=65 velocity=36 time=0\n",
      "note_on channel=0 note=71 velocity=26 time=0\n",
      "note_off channel=0 note=91 velocity=64 time=0\n",
      "note_off channel=0 note=93 velocity=64 time=0\n",
      "note_on channel=0 note=47 velocity=67 time=1\n",
      "note_off channel=0 note=47 velocity=64 time=1\n",
      "note_on channel=0 note=82 velocity=38 time=0\n",
      "note_on channel=0 note=90 velocity=30 time=0\n",
      "note_off channel=0 note=83 velocity=64 time=1\n",
      "note_on channel=0 note=45 velocity=60 time=1\n",
      "note_off channel=0 note=71 velocity=64 time=0\n",
      "note_off channel=0 note=82 velocity=64 time=0\n",
      "note_on channel=0 note=83 velocity=30 time=0\n"
     ]
    },
    {
     "name": "stdout",
     "output_type": "stream",
     "text": [
      "note_off channel=0 note=84 velocity=64 time=0\n",
      "note_on channel=0 note=91 velocity=25 time=0\n",
      "note_on channel=0 note=60 velocity=72 time=1\n",
      "note_off channel=0 note=61 velocity=64 time=0\n",
      "note_off channel=0 note=73 velocity=64 time=0\n",
      "note_on channel=0 note=75 velocity=9 time=0\n",
      "note_on channel=0 note=88 velocity=35 time=0\n",
      "note_on channel=0 note=93 velocity=40 time=0\n",
      "note_on channel=0 note=82 velocity=42 time=1\n",
      "note_off channel=0 note=83 velocity=64 time=0\n",
      "note_off channel=0 note=89 velocity=64 time=0\n",
      "note_on channel=0 note=44 velocity=50 time=1\n",
      "note_off channel=0 note=45 velocity=64 time=0\n",
      "note_on channel=0 note=59 velocity=56 time=0\n",
      "note_off channel=0 note=60 velocity=64 time=0\n",
      "note_on channel=0 note=71 velocity=62 time=0\n",
      "note_on channel=0 note=54 velocity=19 time=1\n",
      "note_on channel=0 note=73 velocity=35 time=0\n",
      "note_on channel=0 note=78 velocity=20 time=0\n",
      "note_off channel=0 note=77 velocity=64 time=1\n",
      "note_off channel=0 note=91 velocity=64 time=1\n",
      "note_off channel=0 note=54 velocity=64 time=1\n",
      "note_off channel=0 note=73 velocity=64 time=0\n",
      "note_off channel=0 note=75 velocity=64 time=0\n",
      "note_off channel=0 note=44 velocity=64 time=1\n",
      "note_on channel=0 note=54 velocity=24 time=0\n",
      "note_on channel=0 note=84 velocity=20 time=0\n",
      "note_on channel=0 note=91 velocity=45 time=0\n",
      "note_off channel=0 note=59 velocity=64 time=1\n",
      "note_on channel=0 note=60 velocity=61 time=0\n",
      "note_off channel=0 note=71 velocity=64 time=0\n",
      "note_on channel=0 note=72 velocity=71 time=0\n",
      "note_on channel=0 note=101 velocity=24 time=0\n",
      "note_off channel=0 note=65 velocity=64 time=1\n",
      "note_off channel=0 note=78 velocity=64 time=0\n",
      "note_off channel=0 note=54 velocity=64 time=1\n",
      "note_on channel=0 note=65 velocity=49 time=0\n",
      "note_on channel=0 note=68 velocity=37 time=0\n",
      "note_on channel=0 note=79 velocity=24 time=0\n",
      "note_on channel=0 note=83 velocity=29 time=0\n",
      "note_off channel=0 note=84 velocity=64 time=0\n",
      "note_off channel=0 note=88 velocity=64 time=0\n",
      "note_on channel=0 note=89 velocity=36 time=0\n",
      "note_on channel=0 note=88 velocity=35 time=1\n",
      "note_off channel=0 note=60 velocity=64 time=1\n",
      "note_on channel=0 note=61 velocity=56 time=0\n",
      "note_off channel=0 note=83 velocity=64 time=0\n",
      "note_off channel=0 note=89 velocity=64 time=0\n",
      "note_off channel=0 note=91 velocity=64 time=1\n",
      "note_off channel=0 note=92 velocity=64 time=0\n",
      "note_off channel=0 note=101 velocity=64 time=0\n",
      "note_on channel=0 note=60 velocity=64 time=1\n",
      "note_off channel=0 note=61 velocity=64 time=0\n",
      "note_off channel=0 note=72 velocity=64 time=0\n",
      "note_on channel=0 note=91 velocity=41 time=0\n",
      "note_on channel=0 note=73 velocity=84 time=1\n",
      "note_off channel=0 note=79 velocity=64 time=0\n",
      "note_off channel=0 note=88 velocity=64 time=1\n",
      "note_off channel=0 note=95 velocity=64 time=0\n",
      "note_off channel=0 note=60 velocity=64 time=1\n",
      "note_on channel=0 note=61 velocity=82 time=0\n",
      "note_on channel=0 note=95 velocity=36 time=0\n",
      "note_on channel=0 note=101 velocity=32 time=0\n",
      "note_on channel=0 note=89 velocity=72 time=1\n",
      "note_off channel=0 note=90 velocity=64 time=1\n",
      "note_on channel=0 note=76 velocity=43 time=1\n",
      "note_on channel=0 note=83 velocity=38 time=0\n",
      "note_on channel=0 note=94 velocity=42 time=0\n",
      "note_on channel=0 note=46 velocity=70 time=1\n",
      "note_off channel=0 note=68 velocity=64 time=0\n",
      "note_on channel=0 note=69 velocity=40 time=0\n",
      "note_off channel=0 note=82 velocity=64 time=0\n",
      "note_on channel=0 note=84 velocity=43 time=0\n",
      "note_on channel=0 note=45 velocity=76 time=1\n",
      "note_off channel=0 note=46 velocity=64 time=0\n",
      "note_off channel=0 note=65 velocity=64 time=0\n",
      "note_on channel=0 note=82 velocity=45 time=0\n",
      "note_off channel=0 note=83 velocity=64 time=0\n",
      "note_on channel=0 note=90 velocity=63 time=0\n",
      "note_on channel=0 note=44 velocity=77 time=1\n",
      "note_off channel=0 note=45 velocity=64 time=0\n",
      "note_on channel=0 note=65 velocity=46 time=0\n",
      "note_on channel=0 note=75 velocity=29 time=0\n",
      "note_off channel=0 note=76 velocity=64 time=0\n",
      "note_on channel=0 note=83 velocity=54 time=0\n",
      "note_off channel=0 note=91 velocity=64 time=0\n",
      "note_off channel=0 note=95 velocity=64 time=0\n",
      "note_off channel=0 note=69 velocity=64 time=1\n",
      "note_on channel=0 note=78 velocity=19 time=0\n",
      "note_off channel=0 note=82 velocity=64 time=0\n",
      "note_off channel=0 note=84 velocity=64 time=0\n",
      "note_on channel=0 note=43 velocity=72 time=2\n",
      "note_off channel=0 note=44 velocity=64 time=0\n",
      "note_on channel=0 note=91 velocity=45 time=1\n",
      "note_off channel=0 note=101 velocity=64 time=0\n",
      "note_off channel=0 note=78 velocity=64 time=1\n",
      "note_off channel=0 note=75 velocity=64 time=1\n",
      "note_off channel=0 note=94 velocity=64 time=0\n",
      "note_off channel=0 note=65 velocity=64 time=1\n",
      "note_off channel=0 note=73 velocity=64 time=0\n",
      "note_on channel=0 note=74 velocity=62 time=0\n",
      "note_on channel=0 note=81 velocity=65 time=0\n",
      "note_off channel=0 note=81 velocity=64 time=1\n",
      "note_on channel=0 note=82 velocity=63 time=0\n",
      "note_off channel=0 note=83 velocity=64 time=0\n",
      "note_off channel=0 note=91 velocity=64 time=0\n",
      "note_off channel=0 note=43 velocity=64 time=1\n",
      "note_on channel=0 note=44 velocity=33 time=0\n",
      "note_off channel=0 note=61 velocity=64 time=0\n",
      "note_on channel=0 note=73 velocity=38 time=0\n",
      "note_off channel=0 note=74 velocity=64 time=0\n",
      "note_on channel=0 note=76 velocity=78 time=0\n",
      "note_on channel=0 note=64 velocity=57 time=1\n",
      "note_on channel=0 note=71 velocity=12 time=0\n",
      "note_on channel=0 note=83 velocity=73 time=0\n",
      "note_on channel=0 note=91 velocity=41 time=1\n",
      "note_off channel=0 note=44 velocity=64 time=1\n",
      "note_off channel=0 note=89 velocity=64 time=0\n",
      "note_off channel=0 note=73 velocity=64 time=1\n",
      "note_on channel=0 note=89 velocity=60 time=0\n",
      "note_on channel=0 note=74 velocity=68 time=1\n",
      "note_off channel=0 note=82 velocity=64 time=0\n",
      "note_on channel=0 note=85 velocity=34 time=0\n",
      "note_off channel=0 note=64 velocity=64 time=1\n",
      "note_on channel=0 note=81 velocity=69 time=0\n",
      "note_off channel=0 note=80 velocity=64 time=1\n",
      "note_on channel=0 note=61 velocity=69 time=1\n",
      "note_on channel=0 note=82 velocity=41 time=0\n",
      "note_off channel=0 note=91 velocity=64 time=1\n",
      "note_off channel=0 note=61 velocity=64 time=1\n",
      "note_on channel=0 note=62 velocity=65 time=0\n",
      "note_off channel=0 note=71 velocity=64 time=0\n",
      "note_off channel=0 note=76 velocity=64 time=0\n",
      "note_off channel=0 note=82 velocity=64 time=0\n",
      "note_on channel=0 note=71 velocity=15 time=1\n",
      "note_on channel=0 note=92 velocity=44 time=0\n",
      "note_on channel=0 note=77 velocity=19 time=1\n",
      "note_on channel=0 note=80 velocity=50 time=0\n",
      "note_on channel=0 note=96 velocity=11 time=0\n",
      "note_on channel=0 note=100 velocity=9 time=0\n",
      "note_off channel=0 note=83 velocity=64 time=1\n",
      "note_off channel=0 note=80 velocity=64 time=1\n",
      "note_off channel=0 note=89 velocity=64 time=0\n",
      "note_on channel=0 note=73 velocity=79 time=1\n",
      "note_off channel=0 note=74 velocity=64 time=0\n",
      "note_on channel=0 note=80 velocity=63 time=0\n",
      "note_on channel=0 note=89 velocity=51 time=0\n",
      "note_off channel=0 note=90 velocity=64 time=0\n",
      "note_on channel=0 note=95 velocity=29 time=0\n",
      "note_off channel=0 note=100 velocity=64 time=0\n",
      "note_on channel=0 note=61 velocity=83 time=1\n",
      "note_off channel=0 note=62 velocity=64 time=0\n",
      "note_off channel=0 note=71 velocity=64 time=0\n",
      "note_on channel=0 note=90 velocity=39 time=0\n",
      "note_off channel=0 note=77 velocity=64 time=1\n",
      "note_on channel=0 note=88 velocity=31 time=0\n",
      "note_off channel=0 note=93 velocity=64 time=0\n",
      "note_on channel=0 note=46 velocity=68 time=1\n",
      "note_on channel=0 note=57 velocity=45 time=0\n",
      "note_on channel=0 note=77 velocity=38 time=0\n",
      "note_on channel=0 note=82 velocity=39 time=0\n",
      "note_off channel=0 note=96 velocity=64 time=0\n",
      "note_on channel=0 note=45 velocity=77 time=1\n",
      "note_off channel=0 note=46 velocity=64 time=0\n",
      "note_on channel=0 note=64 velocity=81 time=0\n",
      "note_off channel=0 note=80 velocity=64 time=0\n",
      "note_on channel=0 note=44 velocity=78 time=1\n",
      "note_off channel=0 note=45 velocity=64 time=0\n",
      "note_off channel=0 note=57 velocity=64 time=0\n",
      "note_on channel=0 note=63 velocity=71 time=0\n",
      "note_off channel=0 note=64 velocity=64 time=0\n",
      "note_off channel=0 note=73 velocity=64 time=0\n",
      "note_on channel=0 note=74 velocity=78 time=0\n",
      "note_off channel=0 note=85 velocity=64 time=0\n",
      "note_off channel=0 note=90 velocity=64 time=0\n",
      "note_on channel=0 note=91 velocity=21 time=0\n",
      "note_on channel=0 note=102 velocity=43 time=0\n",
      "note_off channel=0 note=61 velocity=64 time=1\n",
      "note_on channel=0 note=62 velocity=79 time=0\n",
      "note_off channel=0 note=63 velocity=64 time=0\n",
      "note_on channel=0 note=71 velocity=30 time=0\n",
      "note_on channel=0 note=80 velocity=56 time=0\n",
      "note_off channel=0 note=81 velocity=64 time=0\n",
      "note_on channel=0 note=83 velocity=45 time=0\n",
      "note_on channel=0 note=84 velocity=12 time=0\n",
      "note_off channel=0 note=88 velocity=64 time=0\n",
      "note_on channel=0 note=90 velocity=47 time=0\n",
      "note_on channel=0 note=81 velocity=62 time=1\n",
      "note_off channel=0 note=82 velocity=64 time=0\n",
      "note_on channel=0 note=67 velocity=25 time=1\n",
      "note_off channel=0 note=80 velocity=64 time=0\n",
      "note_off channel=0 note=44 velocity=64 time=1\n",
      "note_off channel=0 note=84 velocity=64 time=0\n",
      "note_off channel=0 note=90 velocity=64 time=0\n",
      "note_off channel=0 note=102 velocity=64 time=0\n",
      "note_on channel=0 note=61 velocity=75 time=1\n",
      "note_off channel=0 note=62 velocity=64 time=0\n",
      "note_on channel=0 note=73 velocity=87 time=0\n",
      "note_off channel=0 note=74 velocity=64 time=0\n",
      "note_on channel=0 note=80 velocity=57 time=0\n",
      "note_off channel=0 note=81 velocity=64 time=1\n",
      "note_on channel=0 note=43 velocity=62 time=1\n",
      "note_off channel=0 note=67 velocity=64 time=0\n",
      "note_on channel=0 note=94 velocity=56 time=0\n",
      "note_off channel=0 note=95 velocity=64 time=0\n",
      "note_on channel=0 note=65 velocity=30 time=1\n",
      "note_off channel=0 note=71 velocity=64 time=0\n",
      "note_off channel=0 note=80 velocity=64 time=0\n",
      "note_on channel=0 note=100 velocity=16 time=0\n",
      "note_on channel=0 note=42 velocity=56 time=1\n",
      "note_off channel=0 note=43 velocity=64 time=0\n",
      "note_on channel=0 note=80 velocity=59 time=0\n",
      "note_on channel=0 note=88 velocity=23 time=0\n",
      "note_off channel=0 note=89 velocity=64 time=1\n",
      "note_on channel=0 note=102 velocity=39 time=0\n",
      "note_on channel=0 note=89 velocity=39 time=1\n",
      "note_off channel=0 note=42 velocity=64 time=1\n",
      "note_on channel=0 note=71 velocity=37 time=0\n",
      "note_off channel=0 note=88 velocity=64 time=0\n",
      "note_off channel=0 note=91 velocity=64 time=0\n",
      "note_on channel=0 note=47 velocity=72 time=1\n",
      "note_off channel=0 note=100 velocity=64 time=0\n",
      "note_off channel=0 note=65 velocity=64 time=1\n",
      "note_off channel=0 note=71 velocity=64 time=0\n",
      "note_off channel=0 note=47 velocity=64 time=2\n",
      "note_on channel=0 note=48 velocity=71 time=0\n",
      "note_off channel=0 note=61 velocity=64 time=0\n",
      "note_off channel=0 note=48 velocity=64 time=1\n",
      "note_on channel=0 note=49 velocity=76 time=0\n",
      "note_off channel=0 note=49 velocity=64 time=1\n",
      "note_on channel=0 note=52 velocity=76 time=0\n",
      "note_on channel=0 note=75 velocity=14 time=0\n",
      "note_on channel=0 note=99 velocity=51 time=0\n",
      "note_on channel=0 note=101 velocity=40 time=0\n",
      "note_off channel=0 note=52 velocity=64 time=1\n",
      "note_on channel=0 note=53 velocity=68 time=0\n",
      "note_on channel=0 note=60 velocity=65 time=1\n",
      "note_off channel=0 note=53 velocity=64 time=1\n",
      "note_off channel=0 note=60 velocity=64 time=0\n",
      "note_on channel=0 note=61 velocity=75 time=0\n",
      "note_on channel=0 note=65 velocity=50 time=0\n",
      "note_on channel=0 note=68 velocity=13 time=0\n",
      "note_on channel=0 note=71 velocity=47 time=0\n",
      "note_on channel=0 note=53 velocity=57 time=1\n",
      "note_off channel=0 note=92 velocity=64 time=1\n",
      "note_off channel=0 note=94 velocity=64 time=1\n",
      "note_off channel=0 note=71 velocity=64 time=1\n",
      "note_off channel=0 note=68 velocity=64 time=1\n",
      "note_on channel=0 note=71 velocity=45 time=0\n",
      "note_off channel=0 note=75 velocity=64 time=0\n",
      "note_on channel=0 note=88 velocity=21 time=0\n",
      "note_on channel=0 note=90 velocity=38 time=0\n",
      "note_off channel=0 note=53 velocity=64 time=1\n",
      "note_on channel=0 note=60 velocity=72 time=0\n",
      "note_off channel=0 note=61 velocity=64 time=0\n",
      "note_on channel=0 note=64 velocity=82 time=0\n",
      "note_off channel=0 note=65 velocity=64 time=0\n",
      "note_on channel=0 note=79 velocity=43 time=0\n",
      "note_off channel=0 note=80 velocity=64 time=0\n",
      "note_on channel=0 note=81 velocity=32 time=0\n",
      "note_on channel=0 note=45 velocity=77 time=1\n",
      "note_on channel=0 note=53 velocity=47 time=0\n",
      "note_off channel=0 note=60 velocity=64 time=0\n",
      "note_on channel=0 note=68 velocity=58 time=0\n",
      "note_on channel=0 note=61 velocity=85 time=1\n",
      "note_on channel=0 note=63 velocity=74 time=0\n",
      "note_off channel=0 note=64 velocity=64 time=0\n",
      "note_off channel=0 note=88 velocity=64 time=0\n",
      "note_on channel=0 note=44 velocity=79 time=1\n",
      "note_off channel=0 note=45 velocity=64 time=0\n",
      "note_off channel=0 note=53 velocity=64 time=0\n",
      "note_off channel=0 note=63 velocity=64 time=0\n",
      "note_off channel=0 note=68 velocity=64 time=0\n",
      "note_off channel=0 note=71 velocity=64 time=0\n",
      "note_off channel=0 note=77 velocity=64 time=0\n",
      "note_off channel=0 note=79 velocity=64 time=0\n",
      "note_on channel=0 note=80 velocity=33 time=0\n",
      "note_off channel=0 note=81 velocity=64 time=0\n",
      "note_off channel=0 note=90 velocity=64 time=0\n",
      "note_on channel=0 note=68 velocity=27 time=1\n",
      "note_on channel=0 note=71 velocity=37 time=0\n",
      "note_on channel=0 note=77 velocity=18 time=0\n",
      "note_on channel=0 note=49 velocity=58 time=3\n",
      "note_off channel=0 note=44 velocity=64 time=1\n",
      "note_off channel=0 note=49 velocity=64 time=1\n",
      "note_off channel=0 note=68 velocity=64 time=0\n",
      "note_off channel=0 note=77 velocity=64 time=0\n",
      "note_on channel=0 note=43 velocity=61 time=1\n",
      "note_on channel=0 note=54 velocity=30 time=1\n",
      "note_off channel=0 note=87 velocity=64 time=1\n",
      "note_off channel=0 note=89 velocity=64 time=0\n",
      "note_off channel=0 note=43 velocity=64 time=2\n",
      "note_on channel=0 note=44 velocity=57 time=0\n",
      "note_off channel=0 note=54 velocity=64 time=0\n",
      "note_on channel=0 note=81 velocity=9 time=1\n",
      "note_on channel=0 note=89 velocity=18 time=0\n",
      "note_off channel=0 note=44 velocity=64 time=1\n",
      "note_on channel=0 note=48 velocity=69 time=0\n",
      "note_on channel=0 note=54 velocity=29 time=0\n",
      "note_on channel=0 note=67 velocity=33 time=0\n",
      "note_on channel=0 note=77 velocity=35 time=0\n",
      "note_on channel=0 note=47 velocity=76 time=1\n",
      "note_off channel=0 note=48 velocity=64 time=0\n",
      "note_off channel=0 note=80 velocity=64 time=0\n",
      "note_off channel=0 note=47 velocity=64 time=1\n",
      "note_on channel=0 note=48 velocity=73 time=0\n",
      "note_off channel=0 note=54 velocity=64 time=0\n",
      "note_on channel=0 note=70 velocity=33 time=0\n",
      "note_off channel=0 note=71 velocity=64 time=0\n",
      "note_off channel=0 note=48 velocity=64 time=1\n",
      "note_on channel=0 note=49 velocity=72 time=0\n",
      "note_on channel=0 note=68 velocity=43 time=0\n",
      "note_on channel=0 note=80 velocity=81 time=0\n",
      "note_off channel=0 note=81 velocity=64 time=0\n",
      "note_on channel=0 note=87 velocity=39 time=0\n",
      "note_off channel=0 note=49 velocity=64 time=1\n",
      "note_on channel=0 note=50 velocity=78 time=0\n",
      "note_on channel=0 note=65 velocity=60 time=0\n",
      "note_off channel=0 note=67 velocity=64 time=0\n",
      "note_on channel=0 note=75 velocity=43 time=0\n",
      "note_off channel=0 note=50 velocity=64 time=1\n",
      "note_on channel=0 note=53 velocity=71 time=0\n",
      "note_off channel=0 note=70 velocity=64 time=0\n",
      "note_on channel=0 note=71 velocity=43 time=0\n",
      "note_on channel=0 note=97 velocity=12 time=0\n",
      "note_off channel=0 note=89 velocity=64 time=1\n",
      "note_on channel=0 note=90 velocity=26 time=0\n",
      "note_off channel=0 note=53 velocity=64 time=2\n",
      "note_on channel=0 note=53 velocity=57 time=1\n",
      "note_on channel=0 note=79 velocity=9 time=0\n",
      "note_off channel=0 note=79 velocity=64 time=3\n",
      "note_on channel=0 note=89 velocity=66 time=0\n",
      "note_on channel=0 note=94 velocity=33 time=0\n",
      "note_on channel=0 note=48 velocity=88 time=1\n",
      "note_off channel=0 note=53 velocity=64 time=0\n",
      "note_off channel=0 note=68 velocity=64 time=1\n",
      "note_off channel=0 note=75 velocity=64 time=0\n",
      "note_off channel=0 note=77 velocity=64 time=0\n",
      "note_on channel=0 note=78 velocity=36 time=0\n",
      "note_on channel=0 note=82 velocity=39 time=0\n",
      "note_off channel=0 note=83 velocity=64 time=0\n",
      "note_off channel=0 note=97 velocity=64 time=0\n",
      "note_off channel=0 note=65 velocity=64 time=1\n",
      "note_on channel=0 note=77 velocity=17 time=1\n",
      "note_off channel=0 note=94 velocity=64 time=0\n",
      "note_off channel=0 note=48 velocity=64 time=1\n",
      "note_on channel=0 note=65 velocity=42 time=0\n",
      "note_on channel=0 note=68 velocity=35 time=0\n",
      "note_off channel=0 note=78 velocity=64 time=0\n",
      "note_on channel=0 note=93 velocity=13 time=0\n",
      "note_off channel=0 note=102 velocity=64 time=0\n",
      "note_off channel=0 note=90 velocity=64 time=1\n",
      "note_on channel=0 note=48 velocity=67 time=1\n",
      "note_off channel=0 note=48 velocity=64 time=1\n",
      "note_off channel=0 note=82 velocity=64 time=0\n",
      "note_off channel=0 note=99 velocity=64 time=0\n",
      "note_off channel=0 note=101 velocity=64 time=0\n",
      "note_on channel=0 note=45 velocity=60 time=1\n",
      "note_off channel=0 note=89 velocity=64 time=1\n",
      "note_on channel=0 note=54 velocity=35 time=1\n",
      "note_on channel=0 note=44 velocity=51 time=1\n",
      "note_off channel=0 note=45 velocity=64 time=0\n",
      "note_off channel=0 note=77 velocity=64 time=0\n",
      "note_off channel=0 note=61 velocity=64 time=2\n",
      "note_off channel=0 note=54 velocity=64 time=1\n",
      "note_on channel=0 note=54 velocity=31 time=1\n",
      "note_on channel=0 note=75 velocity=51 time=0\n",
      "note_off channel=0 note=93 velocity=64 time=0\n",
      "note_off channel=0 note=44 velocity=64 time=1\n",
      "note_on channel=0 note=43 velocity=28 time=2\n",
      "note_off channel=0 note=54 velocity=64 time=1\n",
      "note_on channel=0 note=54 velocity=27 time=1\n",
      "note_on channel=0 note=61 velocity=14 time=1\n",
      "note_off channel=0 note=43 velocity=64 time=2\n",
      "note_off channel=0 note=54 velocity=64 time=0\n",
      "note_on channel=0 note=43 velocity=22 time=1\n",
      "note_off channel=0 note=87 velocity=64 time=0\n",
      "note_on channel=0 note=53 velocity=26 time=2\n",
      "note_off channel=0 note=61 velocity=64 time=0\n",
      "note_on channel=0 note=91 velocity=26 time=0\n",
      "note_off channel=0 note=43 velocity=64 time=1\n",
      "note_on channel=0 note=94 velocity=36 time=1\n",
      "note_off channel=0 note=53 velocity=64 time=1\n",
      "note_off channel=0 note=73 velocity=64 time=0\n",
      "note_on channel=0 note=84 velocity=42 time=0\n",
      "note_on channel=0 note=89 velocity=69 time=0\n",
      "note_on channel=0 note=93 velocity=25 time=0\n",
      "note_on channel=0 note=95 velocity=40 time=0\n",
      "note_on channel=0 note=102 velocity=23 time=0\n",
      "note_on channel=0 note=47 velocity=66 time=1\n",
      "note_off channel=0 note=65 velocity=64 time=0\n",
      "note_on channel=0 note=66 velocity=50 time=0\n",
      "note_off channel=0 note=68 velocity=64 time=0\n",
      "note_on channel=0 note=45 velocity=76 time=1\n",
      "note_off channel=0 note=47 velocity=64 time=0\n",
      "note_on channel=0 note=56 velocity=39 time=0\n",
      "note_on channel=0 note=69 velocity=49 time=0\n",
      "note_on channel=0 note=73 velocity=41 time=0\n",
      "note_on channel=0 note=44 velocity=77 time=1\n",
      "note_off channel=0 note=45 velocity=64 time=0\n",
      "note_off channel=0 note=66 velocity=64 time=0\n",
      "note_off channel=0 note=71 velocity=64 time=0\n",
      "note_off channel=0 note=102 velocity=64 time=0\n",
      "note_off channel=0 note=56 velocity=64 time=1\n",
      "note_on channel=0 note=65 velocity=51 time=0\n",
      "note_on channel=0 note=68 velocity=39 time=0\n",
      "note_off channel=0 note=69 velocity=64 time=0\n",
      "note_on channel=0 note=71 velocity=33 time=0\n",
      "note_off channel=0 note=93 velocity=64 time=0\n",
      "note_off channel=0 note=84 velocity=64 time=1\n",
      "note_on channel=0 note=90 velocity=19 time=0\n",
      "note_off channel=0 note=94 velocity=64 time=0\n",
      "note_on channel=0 note=43 velocity=73 time=1\n",
      "note_off channel=0 note=44 velocity=64 time=0\n",
      "note_on channel=0 note=54 velocity=26 time=0\n",
      "note_on channel=0 note=62 velocity=39 time=0\n",
      "note_off channel=0 note=90 velocity=64 time=2\n",
      "note_on channel=0 note=61 velocity=34 time=1\n",
      "note_off channel=0 note=62 velocity=64 time=0\n",
      "note_off channel=0 note=75 velocity=64 time=0\n",
      "note_on channel=0 note=87 velocity=14 time=0\n",
      "note_off channel=0 note=91 velocity=64 time=1\n",
      "note_off channel=0 note=95 velocity=64 time=0\n",
      "note_off channel=0 note=61 velocity=64 time=1\n",
      "note_off channel=0 note=54 velocity=64 time=1\n",
      "note_on channel=0 note=91 velocity=34 time=0\n",
      "note_off channel=0 note=43 velocity=64 time=1\n",
      "note_on channel=0 note=44 velocity=24 time=0\n",
      "note_on channel=0 note=61 velocity=41 time=0\n",
      "note_off channel=0 note=44 velocity=64 time=3\n",
      "note_on channel=0 note=75 velocity=32 time=3\n",
      "note_off channel=0 note=87 velocity=64 time=0\n",
      "note_off channel=0 note=71 velocity=64 time=4\n",
      "note_on channel=0 note=90 velocity=42 time=3\n",
      "note_on channel=0 note=83 velocity=49 time=2\n",
      "note_on channel=0 note=88 velocity=80 time=0\n",
      "note_on channel=0 note=93 velocity=42 time=0\n",
      "note_on channel=0 note=55 velocity=70 time=1\n",
      "note_off channel=0 note=61 velocity=64 time=0\n",
      "note_off channel=0 note=65 velocity=64 time=0\n",
      "note_off channel=0 note=68 velocity=64 time=0\n",
      "note_off channel=0 note=73 velocity=64 time=0\n",
      "note_on channel=0 note=74 velocity=64 time=0\n",
      "note_off channel=0 note=75 velocity=64 time=0\n",
      "note_on channel=0 note=84 velocity=40 time=0\n",
      "note_on channel=0 note=94 velocity=40 time=0\n",
      "note_on channel=0 note=97 velocity=35 time=0\n",
      "note_on channel=0 note=99 velocity=50 time=0\n",
      "note_on channel=0 note=63 velocity=92 time=1\n",
      "note_on channel=0 note=69 velocity=47 time=0\n",
      "note_on channel=0 note=78 velocity=71 time=0\n",
      "note_on channel=0 note=82 velocity=64 time=0\n",
      "note_off channel=0 note=83 velocity=64 time=0\n",
      "note_on channel=0 note=85 velocity=74 time=0\n",
      "note_off channel=0 note=90 velocity=64 time=0\n",
      "note_on channel=0 note=54 velocity=75 time=1\n",
      "note_off channel=0 note=55 velocity=64 time=0\n",
      "note_on channel=0 note=73 velocity=69 time=0\n",
      "note_off channel=0 note=74 velocity=64 time=0\n",
      "note_on channel=0 note=77 velocity=36 time=0\n",
      "note_off channel=0 note=91 velocity=64 time=0\n",
      "note_on channel=0 note=98 velocity=17 time=0\n",
      "note_off channel=0 note=80 velocity=64 time=1\n",
      "note_off channel=0 note=84 velocity=64 time=0\n",
      "note_on channel=0 note=67 velocity=67 time=1\n",
      "note_off channel=0 note=69 velocity=64 time=0\n",
      "note_on channel=0 note=80 velocity=44 time=0\n",
      "note_off channel=0 note=89 velocity=64 time=0\n",
      "note_on channel=0 note=91 velocity=50 time=0\n",
      "note_off channel=0 note=67 velocity=64 time=1\n",
      "note_off channel=0 note=73 velocity=64 time=0\n",
      "note_on channel=0 note=74 velocity=73 time=0\n",
      "note_off channel=0 note=82 velocity=64 time=0\n",
      "note_on channel=0 note=83 velocity=68 time=0\n",
      "note_on channel=0 note=67 velocity=68 time=1\n",
      "note_off channel=0 note=78 velocity=64 time=0\n",
      "note_off channel=0 note=54 velocity=64 time=1\n",
      "note_on channel=0 note=55 velocity=73 time=0\n",
      "note_off channel=0 note=85 velocity=64 time=0\n",
      "note_on channel=0 note=87 velocity=20 time=0\n",
      "note_off channel=0 note=97 velocity=64 time=1\n",
      "note_off channel=0 note=98 velocity=64 time=0\n",
      "note_on channel=0 note=89 velocity=68 time=1\n",
      "note_off channel=0 note=88 velocity=64 time=1\n",
      "note_off channel=0 note=94 velocity=64 time=0\n",
      "note_on channel=0 note=97 velocity=28 time=0\n",
      "note_off channel=0 note=80 velocity=64 time=1\n",
      "note_on channel=0 note=85 velocity=22 time=0\n",
      "note_off channel=0 note=87 velocity=64 time=0\n",
      "note_off channel=0 note=99 velocity=64 time=1\n",
      "note_on channel=0 note=71 velocity=13 time=1\n",
      "note_on channel=0 note=80 velocity=88 time=1\n",
      "note_on channel=0 note=90 velocity=32 time=0\n",
      "note_on channel=0 note=99 velocity=35 time=0\n",
      "note_off channel=0 note=90 velocity=64 time=2\n",
      "note_off channel=0 note=99 velocity=64 time=0\n",
      "note_on channel=0 note=100 velocity=25 time=0\n",
      "note_off channel=0 note=55 velocity=64 time=2\n",
      "note_on channel=0 note=56 velocity=65 time=0\n",
      "note_on channel=0 note=90 velocity=48 time=0\n",
      "note_off channel=0 note=93 velocity=64 time=0\n",
      "note_on channel=0 note=94 velocity=39 time=0\n",
      "note_off channel=0 note=67 velocity=64 time=1\n",
      "note_on channel=0 note=79 velocity=32 time=0\n",
      "note_on channel=0 note=84 velocity=55 time=0\n",
      "note_off channel=0 note=91 velocity=64 time=0\n",
      "note_off channel=0 note=97 velocity=64 time=0\n",
      "note_off channel=0 note=74 velocity=64 time=1\n",
      "note_off channel=0 note=85 velocity=64 time=0\n",
      "note_off channel=0 note=100 velocity=64 time=1\n",
      "note_on channel=0 note=55 velocity=74 time=2\n",
      "note_off channel=0 note=56 velocity=64 time=0\n",
      "note_off channel=0 note=90 velocity=64 time=0\n",
      "note_on channel=0 note=73 velocity=22 time=1\n",
      "note_off channel=0 note=84 velocity=64 time=0\n",
      "note_on channel=0 note=66 velocity=33 time=1\n",
      "note_on channel=0 note=54 velocity=69 time=1\n",
      "note_off channel=0 note=55 velocity=64 time=0\n",
      "note_off channel=0 note=71 velocity=64 time=0\n",
      "note_off channel=0 note=79 velocity=64 time=0\n",
      "note_on channel=0 note=86 velocity=15 time=0\n",
      "note_on channel=0 note=53 velocity=69 time=1\n",
      "note_off channel=0 note=54 velocity=64 time=0\n",
      "note_off channel=0 note=66 velocity=64 time=0\n",
      "note_off channel=0 note=73 velocity=64 time=0\n",
      "note_on channel=0 note=79 velocity=24 time=0\n",
      "note_on channel=0 note=96 velocity=12 time=0\n",
      "note_off channel=0 note=53 velocity=64 time=1\n",
      "note_on channel=0 note=54 velocity=74 time=0\n",
      "note_on channel=0 note=84 velocity=19 time=0\n",
      "note_off channel=0 note=54 velocity=64 time=1\n",
      "note_on channel=0 note=55 velocity=76 time=0\n",
      "note_on channel=0 note=62 velocity=80 time=1\n",
      "note_off channel=0 note=63 velocity=64 time=0\n",
      "note_on channel=0 note=73 velocity=53 time=0\n",
      "note_off channel=0 note=86 velocity=64 time=0\n",
      "note_off channel=0 note=96 velocity=64 time=0\n",
      "note_on channel=0 note=97 velocity=39 time=0\n",
      "note_off channel=0 note=55 velocity=64 time=1\n",
      "note_on channel=0 note=56 velocity=77 time=0\n",
      "note_off channel=0 note=77 velocity=64 time=0\n",
      "note_on channel=0 note=78 velocity=30 time=0\n",
      "note_off channel=0 note=79 velocity=64 time=0\n",
      "note_off channel=0 note=84 velocity=64 time=0\n",
      "note_on channel=0 note=91 velocity=37 time=0\n",
      "note_on channel=0 note=55 velocity=74 time=1\n",
      "note_off channel=0 note=56 velocity=64 time=0\n",
      "note_on channel=0 note=82 velocity=60 time=0\n",
      "note_off channel=0 note=83 velocity=64 time=0\n",
      "note_on channel=0 note=96 velocity=58 time=0\n",
      "note_off channel=0 note=62 velocity=64 time=1\n",
      "note_on channel=0 note=63 velocity=86 time=0\n",
      "note_on channel=0 note=70 velocity=42 time=0\n",
      "note_off channel=0 note=73 velocity=64 time=0\n",
      "note_off channel=0 note=78 velocity=64 time=0\n",
      "note_on channel=0 note=99 velocity=36 time=0\n",
      "note_on channel=0 note=100 velocity=39 time=0\n",
      "note_on channel=0 note=77 velocity=30 time=1\n",
      "note_on channel=0 note=84 velocity=37 time=0\n",
      "note_on channel=0 note=90 velocity=43 time=0\n",
      "note_off channel=0 note=91 velocity=64 time=0\n",
      "note_off channel=0 note=55 velocity=64 time=1\n",
      "note_off channel=0 note=70 velocity=64 time=0\n",
      "note_on channel=0 note=73 velocity=32 time=0\n",
      "note_on channel=0 note=71 velocity=28 time=1\n",
      "note_on channel=0 note=56 velocity=63 time=1\n",
      "note_on channel=0 note=103 velocity=18 time=0\n",
      "note_off channel=0 note=82 velocity=64 time=6\n",
      "note_on channel=0 note=82 velocity=34 time=1\n",
      "note_on channel=0 note=83 velocity=35 time=1\n",
      "note_on channel=0 note=88 velocity=32 time=0\n",
      "note_off channel=0 note=82 velocity=64 time=1\n",
      "note_off channel=0 note=89 velocity=64 time=0\n",
      "note_on channel=0 note=55 velocity=65 time=3\n",
      "note_off channel=0 note=56 velocity=64 time=0\n",
      "note_off channel=0 note=94 velocity=64 time=0\n",
      "note_off channel=0 note=103 velocity=64 time=0\n",
      "note_off channel=0 note=77 velocity=64 time=1\n",
      "note_off channel=0 note=96 velocity=64 time=0\n",
      "note_off channel=0 note=99 velocity=64 time=0\n",
      "note_off channel=0 note=100 velocity=64 time=0\n",
      "note_off channel=0 note=55 velocity=64 time=2\n",
      "note_on channel=0 note=56 velocity=50 time=0\n",
      "note_on channel=0 note=78 velocity=24 time=0\n",
      "note_on channel=0 note=82 velocity=35 time=0\n",
      "note_off channel=0 note=83 velocity=64 time=0\n",
      "note_off channel=0 note=97 velocity=64 time=0\n",
      "note_off channel=0 note=88 velocity=64 time=1\n",
      "note_on channel=0 note=89 velocity=76 time=0\n",
      "note_on channel=0 note=68 velocity=76 time=1\n",
      "note_on channel=0 note=91 velocity=32 time=0\n",
      "note_off channel=0 note=84 velocity=64 time=1\n",
      "note_on channel=0 note=77 velocity=20 time=1\n",
      "note_on channel=0 note=93 velocity=23 time=0\n",
      "note_on channel=0 note=95 velocity=47 time=0\n",
      "note_on channel=0 note=55 velocity=48 time=1\n",
      "note_off channel=0 note=56 velocity=64 time=0\n",
      "note_off channel=0 note=78 velocity=64 time=0\n",
      "note_on channel=0 note=94 velocity=55 time=1\n",
      "note_on channel=0 note=96 velocity=36 time=0\n",
      "note_off channel=0 note=55 velocity=64 time=1\n",
      "note_on channel=0 note=56 velocity=60 time=0\n",
      "note_off channel=0 note=71 velocity=64 time=0\n",
      "note_on channel=0 note=72 velocity=30 time=0\n",
      "note_off channel=0 note=73 velocity=64 time=0\n",
      "note_off channel=0 note=77 velocity=64 time=0\n",
      "note_on channel=0 note=84 velocity=62 time=0\n",
      "note_on channel=0 note=97 velocity=25 time=0\n",
      "note_on channel=0 note=77 velocity=32 time=1\n",
      "note_off channel=0 note=82 velocity=64 time=0\n",
      "note_on channel=0 note=85 velocity=38 time=0\n",
      "note_on channel=0 note=71 velocity=28 time=1\n",
      "note_off channel=0 note=72 velocity=64 time=0\n",
      "note_on channel=0 note=82 velocity=32 time=0\n",
      "note_off channel=0 note=90 velocity=64 time=0\n",
      "note_on channel=0 note=100 velocity=37 time=0\n",
      "note_off channel=0 note=77 velocity=64 time=2\n",
      "note_off channel=0 note=93 velocity=64 time=0\n",
      "note_off channel=0 note=63 velocity=64 time=1\n",
      "note_on channel=0 note=65 velocity=51 time=0\n",
      "note_on channel=0 note=70 velocity=25 time=0\n",
      "note_off channel=0 note=71 velocity=64 time=0\n",
      "note_off channel=0 note=95 velocity=64 time=0\n",
      "note_off channel=0 note=82 velocity=64 time=1\n",
      "note_on channel=0 note=83 velocity=51 time=0\n",
      "note_on channel=0 note=90 velocity=51 time=0\n",
      "note_off channel=0 note=91 velocity=64 time=0\n",
      "note_off channel=0 note=89 velocity=64 time=1\n",
      "note_on channel=0 note=91 velocity=28 time=0\n",
      "note_off channel=0 note=70 velocity=64 time=1\n",
      "note_on channel=0 note=61 velocity=16 time=1\n",
      "note_on channel=0 note=88 velocity=20 time=0\n",
      "note_off channel=0 note=90 velocity=64 time=0\n",
      "note_on channel=0 note=90 velocity=55 time=1\n",
      "note_off channel=0 note=91 velocity=64 time=0\n",
      "note_on channel=0 note=73 velocity=36 time=1\n",
      "note_off channel=0 note=85 velocity=64 time=0\n",
      "note_on channel=0 note=101 velocity=27 time=0\n",
      "note_on channel=0 note=71 velocity=15 time=2\n",
      "note_off channel=0 note=73 velocity=64 time=0\n",
      "note_on channel=0 note=85 velocity=26 time=0\n",
      "note_off channel=0 note=88 velocity=64 time=0\n",
      "note_on channel=0 note=73 velocity=36 time=1\n",
      "note_on channel=0 note=88 velocity=19 time=0\n",
      "note_off channel=0 note=101 velocity=64 time=0\n",
      "note_on channel=0 note=78 velocity=41 time=1\n",
      "note_on channel=0 note=91 velocity=33 time=0\n",
      "note_off channel=0 note=97 velocity=64 time=1\n",
      "note_on channel=0 note=93 velocity=22 time=1\n",
      "note_off channel=0 note=71 velocity=64 time=2\n",
      "note_on channel=0 note=98 velocity=16 time=0\n",
      "note_on channel=0 note=71 velocity=17 time=1\n",
      "note_off channel=0 note=88 velocity=64 time=0\n",
      "note_on channel=0 note=89 velocity=55 time=0\n",
      "note_off channel=0 note=85 velocity=64 time=1\n",
      "note_on channel=0 note=86 velocity=14 time=2\n",
      "note_on channel=0 note=55 velocity=69 time=1\n",
      "note_off channel=0 note=56 velocity=64 time=0\n",
      "note_off channel=0 note=61 velocity=64 time=0\n",
      "note_off channel=0 note=65 velocity=64 time=0\n",
      "note_off channel=0 note=71 velocity=64 time=0\n",
      "note_off channel=0 note=73 velocity=64 time=0\n",
      "note_off channel=0 note=93 velocity=64 time=0\n",
      "note_off channel=0 note=98 velocity=64 time=0\n",
      "note_off channel=0 note=96 velocity=64 time=2\n",
      "note_off channel=0 note=100 velocity=64 time=0\n",
      "note_off channel=0 note=86 velocity=64 time=1\n",
      "note_on channel=0 note=93 velocity=66 time=0\n",
      "note_off channel=0 note=55 velocity=64 time=1\n",
      "note_on channel=0 note=56 velocity=68 time=0\n",
      "note_on channel=0 note=82 velocity=63 time=0\n",
      "note_off channel=0 note=91 velocity=64 time=0\n",
      "note_on channel=0 note=73 velocity=41 time=1\n",
      "note_off channel=0 note=83 velocity=64 time=0\n",
      "note_off channel=0 note=56 velocity=64 time=1\n",
      "note_on channel=0 note=61 velocity=80 time=0\n",
      "note_off channel=0 note=68 velocity=64 time=0\n",
      "note_on channel=0 note=69 velocity=78 time=0\n",
      "note_on channel=0 note=76 velocity=70 time=0\n",
      "note_on channel=0 note=79 velocity=45 time=0\n",
      "note_off channel=0 note=80 velocity=64 time=0\n",
      "note_on channel=0 note=98 velocity=9 time=0\n",
      "note_on channel=0 note=53 velocity=62 time=1\n",
      "note_off channel=0 note=73 velocity=64 time=0\n",
      "note_on channel=0 note=75 velocity=43 time=0\n",
      "note_off channel=0 note=78 velocity=64 time=0\n",
      "note_off channel=0 note=84 velocity=64 time=0\n",
      "note_on channel=0 note=85 velocity=32 time=0\n",
      "note_on channel=0 note=91 velocity=53 time=0\n",
      "note_off channel=0 note=94 velocity=64 time=0\n",
      "note_on channel=0 note=100 velocity=14 time=0\n",
      "note_on channel=0 note=63 velocity=65 time=1\n",
      "note_on channel=0 note=83 velocity=37 time=0\n",
      "note_on channel=0 note=84 velocity=28 time=0\n",
      "note_off channel=0 note=90 velocity=64 time=0\n",
      "note_off channel=0 note=53 velocity=64 time=1\n",
      "note_off channel=0 note=63 velocity=64 time=0\n",
      "note_off channel=0 note=75 velocity=64 time=0\n",
      "note_on channel=0 note=78 velocity=16 time=0\n",
      "note_off channel=0 note=79 velocity=64 time=0\n",
      "note_off channel=0 note=98 velocity=64 time=0\n",
      "note_on channel=0 note=56 velocity=68 time=1\n",
      "note_off channel=0 note=61 velocity=64 time=0\n",
      "note_on channel=0 note=62 velocity=56 time=0\n",
      "note_off channel=0 note=83 velocity=64 time=0\n",
      "note_off channel=0 note=56 velocity=64 time=1\n",
      "note_on channel=0 note=57 velocity=66 time=0\n",
      "note_off channel=0 note=62 velocity=64 time=1\n",
      "note_off channel=0 note=100 velocity=64 time=0\n",
      "note_on channel=0 note=61 velocity=51 time=3\n",
      "note_on channel=0 note=65 velocity=38 time=0\n",
      "note_off channel=0 note=78 velocity=64 time=0\n",
      "note_on channel=0 note=92 velocity=13 time=1\n",
      "note_off channel=0 note=85 velocity=64 time=4\n",
      "note_off channel=0 note=65 velocity=64 time=1\n",
      "note_on channel=0 note=80 velocity=45 time=0\n",
      "note_off channel=0 note=84 velocity=64 time=0\n",
      "note_on channel=0 note=85 velocity=20 time=0\n",
      "note_off channel=0 note=92 velocity=64 time=0\n",
      "note_on channel=0 note=84 velocity=36 time=1\n",
      "note_on channel=0 note=90 velocity=58 time=0\n",
      "note_off channel=0 note=91 velocity=64 time=0\n",
      "note_on channel=0 note=55 velocity=53 time=1\n",
      "note_off channel=0 note=57 velocity=64 time=0\n",
      "note_off channel=0 note=82 velocity=64 time=1\n",
      "note_on channel=0 note=83 velocity=36 time=0\n",
      "note_off channel=0 note=55 velocity=64 time=1\n",
      "note_on channel=0 note=65 velocity=34 time=0\n",
      "note_on channel=0 note=71 velocity=34 time=1\n",
      "note_off channel=0 note=76 velocity=64 time=0\n",
      "note_on channel=0 note=82 velocity=30 time=0\n",
      "note_off channel=0 note=85 velocity=64 time=0\n",
      "note_on channel=0 note=88 velocity=47 time=0\n",
      "note_on channel=0 note=56 velocity=34 time=1\n",
      "note_off channel=0 note=83 velocity=64 time=0\n",
      "note_off channel=0 note=89 velocity=64 time=0\n",
      "note_off channel=0 note=69 velocity=64 time=1\n",
      "note_on channel=0 note=83 velocity=50 time=0\n",
      "note_off channel=0 note=82 velocity=64 time=1\n",
      "note_off channel=0 note=84 velocity=64 time=0\n",
      "note_on channel=0 note=91 velocity=14 time=0\n",
      "note_off channel=0 note=56 velocity=64 time=2\n",
      "note_on channel=0 note=68 velocity=57 time=0\n",
      "note_on channel=0 note=75 velocity=66 time=1\n",
      "note_off channel=0 note=71 velocity=64 time=1\n",
      "note_on channel=0 note=84 velocity=30 time=0\n",
      "note_on channel=0 note=57 velocity=59 time=1\n",
      "note_off channel=0 note=68 velocity=64 time=0\n",
      "note_on channel=0 note=69 velocity=72 time=0\n",
      "note_on channel=0 note=94 velocity=25 time=0\n",
      "note_off channel=0 note=61 velocity=64 time=1\n",
      "note_on channel=0 note=64 velocity=83 time=0\n",
      "note_off channel=0 note=65 velocity=64 time=0\n",
      "note_on channel=0 note=68 velocity=69 time=0\n",
      "note_off channel=0 note=69 velocity=64 time=0\n",
      "note_on channel=0 note=73 velocity=48 time=0\n",
      "note_on channel=0 note=45 velocity=77 time=1\n",
      "note_off channel=0 note=57 velocity=64 time=0\n",
      "note_on channel=0 note=71 velocity=49 time=0\n",
      "note_on channel=0 note=55 velocity=69 time=1\n",
      "note_on channel=0 note=79 velocity=28 time=0\n",
      "note_off channel=0 note=80 velocity=64 time=0\n",
      "note_off channel=0 note=84 velocity=64 time=0\n",
      "note_on channel=0 note=44 velocity=79 time=1\n",
      "note_off channel=0 note=45 velocity=64 time=0\n",
      "note_on channel=0 note=63 velocity=72 time=0\n",
      "note_off channel=0 note=64 velocity=64 time=0\n",
      "note_on channel=0 note=77 velocity=29 time=0\n",
      "note_off channel=0 note=91 velocity=64 time=0\n",
      "note_off channel=0 note=73 velocity=64 time=1\n",
      "note_on channel=0 note=74 velocity=64 time=0\n",
      "note_on channel=0 note=89 velocity=38 time=0\n",
      "note_on channel=0 note=91 velocity=33 time=0\n",
      "note_off channel=0 note=94 velocity=64 time=0\n",
      "note_on channel=0 note=66 velocity=57 time=1\n",
      "note_off channel=0 note=93 velocity=64 time=0\n",
      "note_on channel=0 note=94 velocity=25 time=0\n",
      "note_off channel=0 note=63 velocity=64 time=1\n",
      "note_off channel=0 note=68 velocity=64 time=0\n",
      "note_on channel=0 note=73 velocity=62 time=0\n",
      "note_off channel=0 note=74 velocity=64 time=0\n",
      "note_off channel=0 note=79 velocity=64 time=0\n",
      "note_off channel=0 note=88 velocity=64 time=0\n",
      "note_on channel=0 note=93 velocity=25 time=0\n",
      "note_on channel=0 note=96 velocity=13 time=0\n",
      "note_on channel=0 note=97 velocity=17 time=0\n",
      "note_off channel=0 note=44 velocity=64 time=1\n",
      "note_on channel=0 note=61 velocity=46 time=0\n",
      "note_off channel=0 note=66 velocity=64 time=0\n",
      "note_off channel=0 note=77 velocity=64 time=0\n",
      "note_off channel=0 note=55 velocity=64 time=1\n",
      "note_on channel=0 note=66 velocity=52 time=0\n",
      "note_on channel=0 note=77 velocity=31 time=0\n",
      "note_on channel=0 note=88 velocity=37 time=0\n",
      "note_off channel=0 note=89 velocity=64 time=0\n",
      "note_off channel=0 note=94 velocity=64 time=0\n",
      "note_off channel=0 note=61 velocity=64 time=1\n",
      "note_on channel=0 note=94 velocity=18 time=0\n",
      "note_off channel=0 note=96 velocity=64 time=0\n",
      "note_on channel=0 note=43 velocity=62 time=1\n",
      "note_on channel=0 note=54 velocity=63 time=0\n",
      "note_on channel=0 note=61 velocity=65 time=0\n",
      "note_off channel=0 note=75 velocity=64 time=0\n",
      "note_on channel=0 note=89 velocity=38 time=0\n",
      "note_on channel=0 note=96 velocity=14 time=0\n",
      "note_on channel=0 note=82 velocity=44 time=1\n",
      "note_off channel=0 note=88 velocity=64 time=0\n",
      "note_on channel=0 note=42 velocity=56 time=1\n",
      "note_off channel=0 note=43 velocity=64 time=0\n",
      "note_on channel=0 note=75 velocity=13 time=0\n",
      "note_off channel=0 note=77 velocity=64 time=0\n",
      "note_off channel=0 note=83 velocity=64 time=0\n",
      "note_on channel=0 note=88 velocity=46 time=0\n",
      "note_off channel=0 note=94 velocity=64 time=0\n",
      "note_on channel=0 note=68 velocity=37 time=1\n",
      "note_off channel=0 note=89 velocity=64 time=0\n",
      "note_off channel=0 note=96 velocity=64 time=0\n",
      "note_on channel=0 note=77 velocity=45 time=1\n",
      "note_off channel=0 note=91 velocity=64 time=0\n",
      "note_off channel=0 note=93 velocity=64 time=0\n",
      "note_off channel=0 note=42 velocity=64 time=1\n",
      "note_off channel=0 note=71 velocity=64 time=0\n",
      "note_off channel=0 note=75 velocity=64 time=0\n",
      "note_on channel=0 note=48 velocity=70 time=1\n",
      "note_off channel=0 note=54 velocity=64 time=0\n",
      "note_on channel=0 note=71 velocity=42 time=0\n",
      "note_on channel=0 note=54 velocity=56 time=1\n",
      "note_off channel=0 note=97 velocity=64 time=0\n",
      "note_on channel=0 note=47 velocity=73 time=1\n",
      "note_off channel=0 note=48 velocity=64 time=0\n",
      "note_off channel=0 note=68 velocity=64 time=0\n",
      "note_on channel=0 note=93 velocity=35 time=0\n",
      "note_off channel=0 note=47 velocity=64 time=1\n",
      "note_on channel=0 note=48 velocity=70 time=0\n",
      "note_off channel=0 note=66 velocity=64 time=0\n",
      "note_on channel=0 note=67 velocity=48 time=0\n",
      "note_off channel=0 note=48 velocity=64 time=1\n",
      "note_on channel=0 note=49 velocity=76 time=0\n",
      "note_off channel=0 note=54 velocity=64 time=0\n",
      "note_off channel=0 note=49 velocity=64 time=1\n",
      "note_on channel=0 note=53 velocity=80 time=0\n",
      "note_on channel=0 note=66 velocity=45 time=0\n",
      "note_off channel=0 note=67 velocity=64 time=0\n",
      "note_off channel=0 note=53 velocity=64 time=1\n",
      "note_on channel=0 note=54 velocity=75 time=0\n",
      "note_off channel=0 note=54 velocity=64 time=1\n",
      "note_on channel=0 note=55 velocity=70 time=0\n",
      "note_on channel=0 note=68 velocity=49 time=1\n",
      "note_off channel=0 note=66 velocity=64 time=1\n",
      "note_on channel=0 note=91 velocity=24 time=0\n",
      "note_off channel=0 note=55 velocity=64 time=1\n",
      "note_off channel=0 note=61 velocity=64 time=0\n",
      "note_on channel=0 note=58 velocity=65 time=1\n",
      "note_on channel=0 note=65 velocity=54 time=0\n",
      "note_off channel=0 note=68 velocity=64 time=0\n",
      "note_off channel=0 note=71 velocity=64 time=0\n",
      "note_on channel=0 note=54 velocity=49 time=1\n",
      "note_on channel=0 note=68 velocity=39 time=0\n",
      "note_off channel=0 note=82 velocity=64 time=0\n",
      "note_off channel=0 note=58 velocity=64 time=1\n",
      "note_off channel=0 note=73 velocity=64 time=0\n",
      "note_on channel=0 note=76 velocity=37 time=0\n",
      "note_on channel=0 note=79 velocity=55 time=0\n",
      "note_off channel=0 note=91 velocity=64 time=0\n",
      "note_off channel=0 note=54 velocity=64 time=1\n",
      "note_on channel=0 note=64 velocity=82 time=0\n",
      "note_off channel=0 note=65 velocity=64 time=0\n",
      "note_off channel=0 note=68 velocity=64 time=0\n",
      "note_on channel=0 note=72 velocity=67 time=0\n",
      "note_off channel=0 note=77 velocity=64 time=0\n",
      "note_on channel=0 note=45 velocity=75 time=1\n",
      "note_on channel=0 note=60 velocity=68 time=0\n",
      "note_on channel=0 note=68 velocity=58 time=0\n",
      "note_on channel=0 note=44 velocity=79 time=1\n",
      "note_off channel=0 note=45 velocity=64 time=0\n",
      "note_on channel=0 note=63 velocity=74 time=0\n",
      "note_off channel=0 note=64 velocity=64 time=0\n",
      "note_on channel=0 note=85 velocity=18 time=0\n",
      "note_on channel=0 note=59 velocity=56 time=1\n",
      "note_off channel=0 note=60 velocity=64 time=0\n",
      "note_off channel=0 note=68 velocity=64 time=0\n",
      "note_on channel=0 note=71 velocity=66 time=0\n",
      "note_off channel=0 note=72 velocity=64 time=0\n",
      "note_on channel=0 note=73 velocity=47 time=0\n",
      "note_off channel=0 note=76 velocity=64 time=0\n",
      "note_on channel=0 note=78 velocity=59 time=0\n",
      "note_off channel=0 note=79 velocity=64 time=0\n",
      "note_on channel=0 note=87 velocity=42 time=0\n",
      "note_on channel=0 note=79 velocity=44 time=1\n",
      "note_on channel=0 note=58 velocity=62 time=1\n",
      "note_off channel=0 note=59 velocity=64 time=0\n",
      "note_off channel=0 note=63 velocity=64 time=0\n",
      "note_on channel=0 note=65 velocity=53 time=0\n",
      "note_on channel=0 note=70 velocity=68 time=0\n",
      "note_off channel=0 note=71 velocity=64 time=0\n",
      "note_on channel=0 note=77 velocity=72 time=0\n",
      "note_off channel=0 note=78 velocity=64 time=0\n",
      "note_off channel=0 note=85 velocity=64 time=1\n",
      "note_on channel=0 note=86 velocity=21 time=0\n",
      "note_off channel=0 note=87 velocity=64 time=0\n",
      "note_on channel=0 note=91 velocity=52 time=0\n",
      "note_on channel=0 note=49 velocity=59 time=1\n",
      "note_on channel=0 note=57 velocity=63 time=0\n",
      "note_off channel=0 note=58 velocity=64 time=0\n",
      "note_off channel=0 note=44 velocity=64 time=1\n",
      "note_on channel=0 note=69 velocity=69 time=0\n",
      "note_off channel=0 note=70 velocity=64 time=0\n",
      "note_on channel=0 note=76 velocity=72 time=0\n",
      "note_off channel=0 note=77 velocity=64 time=0\n",
      "note_off channel=0 note=79 velocity=64 time=0\n",
      "note_off channel=0 note=49 velocity=64 time=1\n",
      "note_on channel=0 note=61 velocity=76 time=0\n",
      "note_on channel=0 note=43 velocity=60 time=1\n",
      "note_on channel=0 note=82 velocity=29 time=0\n",
      "note_off channel=0 note=86 velocity=64 time=0\n",
      "note_off channel=0 note=90 velocity=64 time=0\n",
      "note_on channel=0 note=87 velocity=9 time=2\n",
      "note_on channel=0 note=42 velocity=57 time=1\n",
      "note_off channel=0 note=43 velocity=64 time=0\n",
      "note_off channel=0 note=82 velocity=64 time=0\n",
      "note_off channel=0 note=42 velocity=64 time=2\n",
      "note_on channel=0 note=42 velocity=54 time=1\n",
      "note_on channel=0 note=90 velocity=12 time=0\n",
      "note_on channel=0 note=82 velocity=23 time=1\n",
      "note_off channel=0 note=57 velocity=64 time=1\n",
      "note_on channel=0 note=58 velocity=58 time=0\n",
      "note_off channel=0 note=69 velocity=64 time=1\n",
      "note_off channel=0 note=76 velocity=64 time=0\n",
      "note_off channel=0 note=58 velocity=64 time=1\n",
      "note_on channel=0 note=69 velocity=46 time=0\n",
      "note_off channel=0 note=82 velocity=64 time=1\n",
      "note_off channel=0 note=88 velocity=64 time=0\n",
      "note_off channel=0 note=61 velocity=64 time=1\n",
      "note_on channel=0 note=62 velocity=71 time=0\n",
      "note_on channel=0 note=82 velocity=30 time=0\n",
      "note_on channel=0 note=84 velocity=33 time=0\n",
      "note_off channel=0 note=87 velocity=64 time=0\n",
      "note_on channel=0 note=61 velocity=87 time=1\n",
      "note_off channel=0 note=62 velocity=64 time=0\n",
      "note_off channel=0 note=69 velocity=64 time=0\n",
      "note_on channel=0 note=71 velocity=50 time=0\n",
      "note_off channel=0 note=73 velocity=64 time=0\n",
      "note_off channel=0 note=82 velocity=64 time=1\n",
      "note_on channel=0 note=89 velocity=72 time=0\n",
      "note_off channel=0 note=91 velocity=64 time=0\n",
      "note_on channel=0 note=68 velocity=28 time=1\n",
      "note_off channel=0 note=84 velocity=64 time=0\n",
      "note_on channel=0 note=85 velocity=52 time=0\n",
      "note_off channel=0 note=90 velocity=64 time=0\n",
      "note_off channel=0 note=42 velocity=64 time=1\n",
      "note_on channel=0 note=43 velocity=48 time=0\n",
      "note_on channel=0 note=92 velocity=20 time=0\n",
      "note_on channel=0 note=80 velocity=84 time=1\n",
      "note_off channel=0 note=43 velocity=64 time=1\n",
      "note_on channel=0 note=75 velocity=53 time=0\n",
      "note_on channel=0 note=47 velocity=82 time=1\n",
      "note_off channel=0 note=68 velocity=64 time=0\n",
      "note_off channel=0 note=71 velocity=64 time=0\n",
      "note_on channel=0 note=91 velocity=50 time=0\n",
      "note_off channel=0 note=93 velocity=64 time=0\n",
      "note_on channel=0 note=94 velocity=41 time=0\n",
      "note_on channel=0 note=102 velocity=19 time=0\n",
      "note_on channel=0 note=60 velocity=66 time=1\n",
      "note_off channel=0 note=61 velocity=64 time=0\n",
      "note_on channel=0 note=64 velocity=68 time=0\n",
      "note_off channel=0 note=65 velocity=64 time=0\n",
      "note_on channel=0 note=72 velocity=73 time=0\n",
      "note_on channel=0 note=82 velocity=48 time=0\n",
      "note_off channel=0 note=92 velocity=64 time=0\n",
      "note_on channel=0 note=93 velocity=62 time=0\n",
      "note_on channel=0 note=96 velocity=22 time=0\n",
      "note_off channel=0 note=47 velocity=64 time=1\n",
      "note_on channel=0 note=48 velocity=85 time=0\n",
      "note_off channel=0 note=64 velocity=64 time=1\n",
      "note_on channel=0 note=65 velocity=52 time=0\n",
      "note_on channel=0 note=68 velocity=33 time=0\n",
      "note_on channel=0 note=79 velocity=56 time=0\n",
      "note_off channel=0 note=94 velocity=64 time=0\n",
      "note_off channel=0 note=102 velocity=64 time=0\n",
      "note_off channel=0 note=48 velocity=64 time=1\n",
      "note_on channel=0 note=59 velocity=56 time=1\n",
      "note_on channel=0 note=71 velocity=71 time=0\n",
      "note_off channel=0 note=72 velocity=64 time=0\n",
      "note_off channel=0 note=82 velocity=64 time=0\n",
      "note_on channel=0 note=90 velocity=41 time=0\n",
      "note_on channel=0 note=95 velocity=23 time=0\n",
      "note_off channel=0 note=96 velocity=64 time=0\n",
      "note_off channel=0 note=60 velocity=64 time=1\n",
      "note_on channel=0 note=78 velocity=53 time=0\n",
      "note_off channel=0 note=79 velocity=64 time=0\n",
      "note_on channel=0 note=49 velocity=50 time=1\n",
      "note_off channel=0 note=59 velocity=64 time=0\n",
      "note_on channel=0 note=73 velocity=28 time=0\n",
      "note_on channel=0 note=59 velocity=57 time=1\n",
      "note_off channel=0 note=91 velocity=64 time=0\n",
      "note_off channel=0 note=49 velocity=64 time=1\n",
      "note_on channel=0 note=54 velocity=34 time=1\n",
      "note_off channel=0 note=89 velocity=64 time=0\n",
      "note_on channel=0 note=44 velocity=38 time=2\n",
      "note_off channel=0 note=73 velocity=64 time=0\n",
      "note_off channel=0 note=59 velocity=64 time=1\n",
      "note_on channel=0 note=89 velocity=66 time=0\n",
      "note_off channel=0 note=44 velocity=64 time=1\n",
      "note_on channel=0 note=59 velocity=50 time=0\n",
      "note_on channel=0 note=43 velocity=23 time=2\n",
      "note_off channel=0 note=95 velocity=64 time=0\n",
      "note_off channel=0 note=85 velocity=64 time=1\n",
      "note_off channel=0 note=54 velocity=64 time=1\n",
      "note_off channel=0 note=43 velocity=64 time=1\n",
      "note_on channel=0 note=54 velocity=40 time=0\n",
      "note_off channel=0 note=59 velocity=64 time=0\n",
      "note_on channel=0 note=73 velocity=68 time=0\n",
      "note_on channel=0 note=43 velocity=12 time=1\n",
      "note_off channel=0 note=71 velocity=64 time=0\n",
      "note_off channel=0 note=90 velocity=64 time=0\n",
      "note_on channel=0 note=91 velocity=34 time=0\n",
      "note_off channel=0 note=54 velocity=64 time=1\n",
      "note_on channel=0 note=71 velocity=27 time=0\n",
      "note_on channel=0 note=54 velocity=27 time=1\n",
      "note_off channel=0 note=43 velocity=64 time=1\n",
      "note_off channel=0 note=78 velocity=64 time=1\n",
      "note_on channel=0 note=53 velocity=31 time=1\n",
      "note_off channel=0 note=54 velocity=64 time=0\n",
      "note_off channel=0 note=53 velocity=64 time=2\n",
      "note_off channel=0 note=93 velocity=64 time=0\n",
      "note_on channel=0 note=61 velocity=86 time=1\n",
      "note_on channel=0 note=90 velocity=34 time=0\n",
      "note_on channel=0 note=93 velocity=16 time=0\n",
      "note_on channel=0 note=95 velocity=42 time=0\n",
      "note_on channel=0 note=57 velocity=41 time=1\n",
      "note_off channel=0 note=68 velocity=64 time=0\n",
      "note_off channel=0 note=71 velocity=64 time=0\n",
      "note_on channel=0 note=84 velocity=43 time=0\n",
      "note_off channel=0 note=91 velocity=64 time=0\n",
      "note_on channel=0 note=46 velocity=66 time=1\n",
      "note_off channel=0 note=65 velocity=64 time=0\n",
      "note_on channel=0 note=67 velocity=45 time=0\n",
      "note_off channel=0 note=90 velocity=64 time=0\n",
      "note_on channel=0 note=45 velocity=76 time=1\n",
      "note_off channel=0 note=46 velocity=64 time=0\n",
      "note_on channel=0 note=90 velocity=35 time=0\n",
      "note_on channel=0 note=44 velocity=78 time=1\n",
      "note_off channel=0 note=45 velocity=64 time=0\n",
      "note_off channel=0 note=57 velocity=64 time=0\n",
      "note_on channel=0 note=77 velocity=45 time=0\n",
      "note_on channel=0 note=91 velocity=37 time=0\n",
      "note_on channel=0 note=65 velocity=52 time=1\n",
      "note_off channel=0 note=67 velocity=64 time=0\n",
      "note_on channel=0 note=82 velocity=19 time=0\n",
      "note_off channel=0 note=95 velocity=64 time=0\n",
      "note_on channel=0 note=43 velocity=74 time=2\n",
      "note_off channel=0 note=44 velocity=64 time=0\n",
      "note_off channel=0 note=84 velocity=64 time=0\n",
      "note_off channel=0 note=90 velocity=64 time=0\n",
      "note_on channel=0 note=54 velocity=26 time=1\n",
      "note_off channel=0 note=82 velocity=64 time=0\n",
      "note_off channel=0 note=54 velocity=64 time=3\n",
      "note_on channel=0 note=68 velocity=15 time=0\n",
      "note_off channel=0 note=43 velocity=64 time=2\n",
      "note_on channel=0 note=44 velocity=38 time=0\n",
      "note_on channel=0 note=71 velocity=15 time=1\n",
      "note_on channel=0 note=83 velocity=20 time=0\n",
      "note_off channel=0 note=93 velocity=64 time=1\n",
      "note_off channel=0 note=44 velocity=64 time=2\n",
      "note_off channel=0 note=71 velocity=64 time=3\n",
      "note_on channel=0 note=90 velocity=17 time=0\n",
      "note_off channel=0 note=91 velocity=64 time=0\n",
      "note_on channel=0 note=60 velocity=69 time=2\n",
      "note_off channel=0 note=61 velocity=64 time=0\n",
      "note_off channel=0 note=73 velocity=64 time=2\n",
      "note_off channel=0 note=90 velocity=64 time=0\n",
      "note_on channel=0 note=91 velocity=34 time=0\n",
      "note_off channel=0 note=60 velocity=64 time=1\n",
      "note_on channel=0 note=61 velocity=78 time=0\n",
      "note_off channel=0 note=89 velocity=64 time=0\n",
      "note_on channel=0 note=89 velocity=45 time=2\n",
      "note_off channel=0 note=68 velocity=64 time=1\n",
      "note_off channel=0 note=83 velocity=64 time=1\n",
      "note_off channel=0 note=65 velocity=64 time=1\n",
      "note_on channel=0 note=83 velocity=24 time=0\n",
      "note_on channel=0 note=95 velocity=49 time=0\n",
      "note_on channel=0 note=64 velocity=78 time=1\n",
      "note_off channel=0 note=75 velocity=64 time=0\n",
      "note_on channel=0 note=90 velocity=36 time=0\n",
      "note_on channel=0 note=45 velocity=75 time=1\n",
      "note_on channel=0 note=53 velocity=41 time=0\n",
      "note_off channel=0 note=61 velocity=64 time=0\n",
      "note_on channel=0 note=63 velocity=84 time=0\n",
      "note_off channel=0 note=64 velocity=64 time=0\n",
      "note_on channel=0 note=44 velocity=78 time=1\n",
      "note_off channel=0 note=45 velocity=64 time=0\n",
      "note_on channel=0 note=61 velocity=89 time=0\n",
      "note_off channel=0 note=91 velocity=64 time=0\n",
      "note_off channel=0 note=53 velocity=64 time=1\n",
      "note_off channel=0 note=63 velocity=64 time=0\n",
      "note_on channel=0 note=69 velocity=33 time=0\n",
      "note_on channel=0 note=91 velocity=32 time=0\n",
      "note_off channel=0 note=90 velocity=64 time=1\n",
      "note_off channel=0 note=69 velocity=64 time=1\n",
      "note_on channel=0 note=97 velocity=15 time=1\n",
      "note_on channel=0 note=66 velocity=23 time=1\n",
      "note_on channel=0 note=43 velocity=70 time=1\n",
      "note_off channel=0 note=44 velocity=64 time=0\n",
      "note_on channel=0 note=42 velocity=60 time=3\n",
      "note_off channel=0 note=43 velocity=64 time=0\n",
      "note_off channel=0 note=66 velocity=64 time=1\n",
      "note_on channel=0 note=71 velocity=14 time=0\n",
      "note_off channel=0 note=42 velocity=64 time=1\n",
      "note_on channel=0 note=46 velocity=65 time=1\n",
      "note_off channel=0 note=46 velocity=64 time=1\n",
      "note_on channel=0 note=48 velocity=65 time=0\n",
      "note_on channel=0 note=67 velocity=35 time=0\n",
      "note_off channel=0 note=71 velocity=64 time=0\n",
      "note_off channel=0 note=80 velocity=64 time=0\n",
      "note_off channel=0 note=97 velocity=64 time=0\n",
      "note_on channel=0 note=80 velocity=85 time=1\n",
      "note_off channel=0 note=83 velocity=64 time=0\n",
      "note_on channel=0 note=47 velocity=71 time=1\n",
      "note_off channel=0 note=48 velocity=64 time=0\n",
      "note_off channel=0 note=61 velocity=64 time=0\n",
      "note_on channel=0 note=61 velocity=51 time=1\n",
      "note_on channel=0 note=71 velocity=29 time=0\n",
      "note_off channel=0 note=91 velocity=64 time=0\n",
      "note_off channel=0 note=95 velocity=64 time=0\n",
      "note_off channel=0 note=47 velocity=64 time=1\n",
      "note_on channel=0 note=48 velocity=67 time=0\n",
      "note_off channel=0 note=48 velocity=64 time=1\n",
      "note_on channel=0 note=50 velocity=76 time=0\n",
      "note_on channel=0 note=65 velocity=21 time=0\n",
      "note_off channel=0 note=50 velocity=64 time=1\n",
      "note_on channel=0 note=53 velocity=73 time=0\n",
      "note_off channel=0 note=67 velocity=64 time=0\n",
      "note_on channel=0 note=68 velocity=21 time=0\n",
      "note_off channel=0 note=53 velocity=64 time=3\n",
      "note_off channel=0 note=61 velocity=64 time=0\n",
      "note_off channel=0 note=68 velocity=64 time=0\n",
      "note_on channel=0 note=53 velocity=58 time=1\n",
      "note_off channel=0 note=65 velocity=64 time=3\n",
      "note_off channel=0 note=53 velocity=64 time=1\n",
      "note_on channel=0 note=63 velocity=67 time=0\n",
      "note_off channel=0 note=71 velocity=64 time=0\n",
      "note_on channel=0 note=73 velocity=83 time=0\n",
      "note_on channel=0 note=83 velocity=34 time=0\n",
      "note_on channel=0 note=94 velocity=20 time=0\n",
      "note_on channel=0 note=102 velocity=36 time=0\n",
      "note_on channel=0 note=45 velocity=77 time=1\n",
      "note_off channel=0 note=63 velocity=64 time=0\n",
      "note_on channel=0 note=64 velocity=83 time=0\n",
      "note_on channel=0 note=71 velocity=35 time=0\n",
      "note_on channel=0 note=75 velocity=31 time=0\n",
      "note_on channel=0 note=90 velocity=36 time=0\n",
      "note_on channel=0 note=61 velocity=86 time=1\n",
      "note_off channel=0 note=64 velocity=64 time=0\n",
      "note_on channel=0 note=44 velocity=77 time=1\n",
      "note_off channel=0 note=45 velocity=64 time=0\n",
      "note_on channel=0 note=63 velocity=69 time=0\n",
      "note_off channel=0 note=71 velocity=64 time=0\n",
      "note_off channel=0 note=83 velocity=64 time=0\n",
      "note_off channel=0 note=90 velocity=64 time=0\n",
      "note_on channel=0 note=91 velocity=33 time=0\n",
      "note_off channel=0 note=94 velocity=64 time=0\n",
      "note_off channel=0 note=63 velocity=64 time=1\n",
      "note_on channel=0 note=68 velocity=21 time=1\n",
      "note_on channel=0 note=87 velocity=51 time=0\n",
      "note_off channel=0 note=44 velocity=64 time=1\n",
      "note_on channel=0 note=45 velocity=75 time=0\n",
      "note_off channel=0 note=75 velocity=64 time=1\n",
      "note_on channel=0 note=44 velocity=71 time=1\n",
      "note_off channel=0 note=45 velocity=64 time=0\n",
      "note_on channel=0 note=65 velocity=47 time=0\n",
      "note_off channel=0 note=68 velocity=64 time=0\n",
      "note_on channel=0 note=75 velocity=16 time=0\n",
      "note_on channel=0 note=82 velocity=25 time=1\n",
      "note_on channel=0 note=95 velocity=12 time=0\n",
      "note_off channel=0 note=44 velocity=64 time=1\n",
      "note_on channel=0 note=54 velocity=19 time=0\n",
      "note_on channel=0 note=68 velocity=43 time=0\n",
      "note_on channel=0 note=71 velocity=27 time=0\n",
      "note_on channel=0 note=42 velocity=58 time=1\n",
      "note_on channel=0 note=93 velocity=11 time=0\n",
      "note_off channel=0 note=102 velocity=64 time=0\n",
      "note_off channel=0 note=42 velocity=64 time=2\n",
      "note_off channel=0 note=75 velocity=64 time=0\n",
      "note_off channel=0 note=54 velocity=64 time=1\n",
      "note_on channel=0 note=60 velocity=62 time=0\n",
      "note_off channel=0 note=61 velocity=64 time=0\n",
      "note_off channel=0 note=71 velocity=64 time=0\n",
      "note_off channel=0 note=95 velocity=64 time=0\n",
      "note_off channel=0 note=73 velocity=64 time=1\n",
      "note_on channel=0 note=75 velocity=14 time=0\n",
      "note_off channel=0 note=93 velocity=64 time=0\n",
      "note_on channel=0 note=73 velocity=77 time=1\n",
      "note_on channel=0 note=84 velocity=34 time=0\n",
      "note_on channel=0 note=47 velocity=72 time=1\n",
      "note_off channel=0 note=60 velocity=64 time=0\n",
      "note_on channel=0 note=61 velocity=56 time=0\n",
      "note_on channel=0 note=71 velocity=9 time=0\n",
      "note_on channel=0 note=88 velocity=27 time=0\n",
      "note_off channel=0 note=82 velocity=64 time=1\n",
      "note_off channel=0 note=89 velocity=64 time=0\n",
      "note_off channel=0 note=47 velocity=64 time=1\n",
      "note_on channel=0 note=48 velocity=67 time=0\n",
      "note_on channel=0 note=82 velocity=27 time=0\n",
      "note_off channel=0 note=48 velocity=64 time=1\n",
      "note_on channel=0 note=49 velocity=75 time=0\n",
      "note_off channel=0 note=49 velocity=64 time=1\n",
      "note_on channel=0 note=52 velocity=76 time=0\n",
      "note_off channel=0 note=71 velocity=64 time=0\n",
      "note_on channel=0 note=83 velocity=57 time=0\n",
      "note_off channel=0 note=52 velocity=64 time=1\n",
      "note_on channel=0 note=53 velocity=66 time=0\n",
      "note_off channel=0 note=82 velocity=64 time=0\n",
      "note_off channel=0 note=75 velocity=64 time=1\n",
      "note_off channel=0 note=77 velocity=64 time=0\n",
      "note_off channel=0 note=53 velocity=64 time=1\n",
      "note_on channel=0 note=90 velocity=22 time=0\n",
      "note_on channel=0 note=53 velocity=58 time=1\n",
      "note_off channel=0 note=61 velocity=64 time=0\n",
      "note_on channel=0 note=89 velocity=68 time=0\n",
      "note_off channel=0 note=65 velocity=64 time=1\n",
      "note_off channel=0 note=68 velocity=64 time=0\n",
      "note_on channel=0 note=69 velocity=32 time=0\n",
      "note_off channel=0 note=88 velocity=64 time=0\n",
      "note_on channel=0 note=61 velocity=79 time=1\n",
      "note_on channel=0 note=78 velocity=24 time=0\n",
      "note_on channel=0 note=65 velocity=58 time=1\n",
      "note_off channel=0 note=53 velocity=64 time=1\n",
      "note_on channel=0 note=76 velocity=44 time=0\n",
      "note_on channel=0 note=48 velocity=87 time=1\n",
      "note_off channel=0 note=69 velocity=64 time=0\n",
      "note_off channel=0 note=78 velocity=64 time=0\n",
      "note_off channel=0 note=90 velocity=64 time=0\n",
      "note_on channel=0 note=93 velocity=15 time=0\n",
      "note_on channel=0 note=94 velocity=40 time=0\n",
      "note_on channel=0 note=78 velocity=32 time=1\n",
      "note_off channel=0 note=65 velocity=64 time=1\n",
      "note_on channel=0 note=67 velocity=32 time=0\n",
      "note_on channel=0 note=72 velocity=80 time=0\n",
      "note_off channel=0 note=73 velocity=64 time=0\n",
      "note_off channel=0 note=76 velocity=64 time=0\n",
      "note_off channel=0 note=84 velocity=64 time=0\n",
      "note_on channel=0 note=88 velocity=38 time=0\n",
      "note_off channel=0 note=91 velocity=64 time=0\n",
      "note_on channel=0 note=46 velocity=67 time=1\n",
      "note_off channel=0 note=48 velocity=64 time=0\n",
      "note_on channel=0 note=60 velocity=75 time=0\n",
      "note_off channel=0 note=61 velocity=64 time=0\n",
      "note_off channel=0 note=78 velocity=64 time=0\n",
      "note_on channel=0 note=91 velocity=32 time=0\n",
      "note_off channel=0 note=93 velocity=64 time=0\n",
      "note_off channel=0 note=94 velocity=64 time=0\n",
      "note_on channel=0 note=65 velocity=33 time=1\n",
      "note_off channel=0 note=67 velocity=64 time=0\n",
      "note_on channel=0 note=68 velocity=14 time=0\n",
      "note_off channel=0 note=46 velocity=64 time=1\n",
      "note_on channel=0 note=47 velocity=67 time=0\n",
      "note_off channel=0 note=60 velocity=64 time=0\n",
      "note_on channel=0 note=61 velocity=85 time=0\n",
      "note_off channel=0 note=72 velocity=64 time=0\n",
      "note_off channel=0 note=47 velocity=64 time=1\n",
      "note_off channel=0 note=65 velocity=64 time=0\n",
      "note_on channel=0 note=84 velocity=12 time=0\n",
      "note_off channel=0 note=88 velocity=64 time=0\n",
      "note_on channel=0 note=45 velocity=59 time=1\n",
      "note_off channel=0 note=68 velocity=64 time=0\n",
      "note_on channel=0 note=75 velocity=17 time=3\n",
      "note_off channel=0 note=84 velocity=64 time=0\n",
      "note_on channel=0 note=44 velocity=49 time=1\n",
      "note_off channel=0 note=45 velocity=64 time=0\n",
      "note_on channel=0 note=54 velocity=21 time=1\n",
      "note_on channel=0 note=60 velocity=70 time=0\n",
      "note_off channel=0 note=61 velocity=64 time=0\n",
      "note_on channel=0 note=78 velocity=20 time=0\n",
      "note_on channel=0 note=59 velocity=59 time=1\n",
      "note_off channel=0 note=60 velocity=64 time=0\n",
      "note_on channel=0 note=71 velocity=60 time=0\n",
      "note_on channel=0 note=73 velocity=41 time=1\n",
      "note_on channel=0 note=79 velocity=17 time=0\n",
      "note_on channel=0 note=90 velocity=29 time=0\n",
      "note_on channel=0 note=43 velocity=36 time=1\n",
      "note_off channel=0 note=44 velocity=64 time=0\n",
      "note_off channel=0 note=54 velocity=64 time=0\n",
      "note_off channel=0 note=71 velocity=64 time=0\n",
      "note_on channel=0 note=82 velocity=34 time=0\n",
      "note_off channel=0 note=83 velocity=64 time=0\n",
      "note_off channel=0 note=78 velocity=64 time=1\n",
      "note_on channel=0 note=84 velocity=26 time=0\n",
      "note_on channel=0 note=53 velocity=21 time=2\n",
      "note_on channel=0 note=78 velocity=27 time=0\n",
      "note_off channel=0 note=79 velocity=64 time=0\n",
      "note_on channel=0 note=42 velocity=24 time=1\n",
      "note_off channel=0 note=43 velocity=64 time=0\n",
      "note_off channel=0 note=91 velocity=64 time=0\n",
      "note_off channel=0 note=53 velocity=64 time=2\n",
      "note_on channel=0 note=71 velocity=64 time=0\n",
      "note_off channel=0 note=42 velocity=64 time=1\n",
      "note_on channel=0 note=43 velocity=21 time=0\n",
      "note_off channel=0 note=73 velocity=64 time=0\n",
      "note_on channel=0 note=77 velocity=28 time=0\n",
      "note_on channel=0 note=53 velocity=15 time=1\n",
      "note_off channel=0 note=59 velocity=64 time=0\n",
      "note_off channel=0 note=71 velocity=64 time=0\n",
      "note_on channel=0 note=72 velocity=63 time=0\n",
      "note_off channel=0 note=78 velocity=64 time=0\n",
      "note_on channel=0 note=61 velocity=70 time=1\n",
      "note_on channel=0 note=65 velocity=42 time=0\n",
      "note_on channel=0 note=71 velocity=52 time=1\n",
      "note_off channel=0 note=72 velocity=64 time=0\n",
      "note_on channel=0 note=73 velocity=86 time=0\n",
      "note_off channel=0 note=82 velocity=64 time=0\n",
      "note_off channel=0 note=75 velocity=64 time=1\n",
      "note_on channel=0 note=91 velocity=35 time=0\n",
      "note_on channel=0 note=94 velocity=43 time=0\n",
      "note_off channel=0 note=53 velocity=64 time=1\n",
      "note_off channel=0 note=71 velocity=64 time=0\n",
      "note_on channel=0 note=76 velocity=46 time=0\n",
      "note_off channel=0 note=77 velocity=64 time=0\n",
      "note_off channel=0 note=84 velocity=64 time=0\n",
      "note_on channel=0 note=96 velocity=9 time=0\n",
      "note_on channel=0 note=100 velocity=35 time=0\n",
      "note_off channel=0 note=43 velocity=64 time=1\n",
      "note_on channel=0 note=60 velocity=71 time=0\n",
      "note_off channel=0 note=61 velocity=64 time=0\n",
      "note_on channel=0 note=77 velocity=42 time=0\n",
      "note_on channel=0 note=84 velocity=46 time=0\n",
      "note_off channel=0 note=90 velocity=64 time=1\n",
      "note_on channel=0 note=95 velocity=40 time=0\n",
      "note_on channel=0 note=45 velocity=76 time=1\n",
      "note_off channel=0 note=65 velocity=64 time=0\n",
      "note_on channel=0 note=69 velocity=40 time=0\n",
      "note_off channel=0 note=84 velocity=64 time=0\n",
      "note_on channel=0 note=90 velocity=41 time=0\n",
      "note_off channel=0 note=60 velocity=64 time=1\n",
      "note_on channel=0 note=61 velocity=74 time=0\n",
      "note_on channel=0 note=67 velocity=41 time=0\n",
      "note_on channel=0 note=75 velocity=41 time=0\n",
      "note_off channel=0 note=76 velocity=64 time=0\n",
      "note_off channel=0 note=91 velocity=64 time=0\n",
      "note_off channel=0 note=95 velocity=64 time=0\n",
      "note_off channel=0 note=100 velocity=64 time=0\n",
      "note_on channel=0 note=44 velocity=77 time=1\n",
      "note_off channel=0 note=45 velocity=64 time=0\n",
      "note_on channel=0 note=78 velocity=30 time=0\n",
      "note_on channel=0 note=65 velocity=29 time=1\n",
      "note_off channel=0 note=69 velocity=64 time=0\n",
      "note_off channel=0 note=96 velocity=64 time=0\n",
      "note_off channel=0 note=94 velocity=64 time=1\n",
      "note_on channel=0 note=95 velocity=54 time=0\n",
      "note_on channel=0 note=43 velocity=72 time=1\n",
      "note_off channel=0 note=44 velocity=64 time=0\n",
      "note_off channel=0 note=65 velocity=64 time=0\n",
      "note_off channel=0 note=78 velocity=64 time=0\n",
      "note_on channel=0 note=71 velocity=46 time=1\n",
      "note_off channel=0 note=90 velocity=64 time=0\n",
      "note_off channel=0 note=67 velocity=64 time=1\n",
      "note_off channel=0 note=75 velocity=64 time=0\n",
      "note_on channel=0 note=74 velocity=62 time=1\n",
      "note_off channel=0 note=87 velocity=64 time=0\n",
      "note_on channel=0 note=90 velocity=57 time=0\n",
      "note_on channel=0 note=93 velocity=26 time=0\n",
      "note_off channel=0 note=61 velocity=64 time=1\n",
      "note_on channel=0 note=62 velocity=54 time=0\n",
      "note_off channel=0 note=73 velocity=64 time=0\n",
      "note_on channel=0 note=81 velocity=70 time=0\n",
      "note_on channel=0 note=87 velocity=37 time=0\n",
      "note_on channel=0 note=63 velocity=52 time=1\n",
      "note_off channel=0 note=74 velocity=64 time=0\n",
      "note_on channel=0 note=75 velocity=69 time=0\n",
      "note_off channel=0 note=81 velocity=64 time=0\n",
      "note_on channel=0 note=82 velocity=77 time=0\n",
      "note_on channel=0 note=91 velocity=50 time=0\n",
      "note_off channel=0 note=62 velocity=64 time=1\n",
      "note_off channel=0 note=43 velocity=64 time=2\n",
      "note_off channel=0 note=90 velocity=64 time=0\n",
      "note_on channel=0 note=68 velocity=15 time=1\n",
      "note_on channel=0 note=90 velocity=67 time=0\n",
      "note_off channel=0 note=91 velocity=64 time=0\n",
      "note_on channel=0 note=61 velocity=76 time=1\n",
      "note_off channel=0 note=63 velocity=64 time=0\n",
      "note_off channel=0 note=82 velocity=64 time=0\n",
      "note_on channel=0 note=83 velocity=49 time=0\n",
      "note_off channel=0 note=89 velocity=64 time=0\n",
      "note_on channel=0 note=91 velocity=29 time=0\n",
      "note_on channel=0 note=82 velocity=58 time=1\n",
      "note_on channel=0 note=89 velocity=55 time=0\n",
      "note_off channel=0 note=93 velocity=64 time=0\n",
      "note_off channel=0 note=83 velocity=64 time=1\n",
      "note_off channel=0 note=75 velocity=64 time=2\n",
      "note_off channel=0 note=80 velocity=64 time=0\n",
      "note_off channel=0 note=89 velocity=64 time=0\n",
      "note_on channel=0 note=74 velocity=62 time=1\n",
      "note_on channel=0 note=80 velocity=69 time=0\n",
      "note_off channel=0 note=82 velocity=64 time=0\n",
      "note_on channel=0 note=89 velocity=48 time=0\n",
      "note_off channel=0 note=91 velocity=64 time=0\n",
      "note_on channel=0 note=93 velocity=44 time=0\n",
      "note_off channel=0 note=61 velocity=64 time=1\n",
      "note_on channel=0 note=62 velocity=62 time=0\n",
      "note_on channel=0 note=81 velocity=53 time=0\n",
      "note_on channel=0 note=65 velocity=16 time=3\n",
      "note_off channel=0 note=81 velocity=64 time=0\n",
      "note_on channel=0 note=85 velocity=45 time=0\n",
      "note_on channel=0 note=61 velocity=79 time=1\n",
      "note_off channel=0 note=62 velocity=64 time=0\n",
      "note_off channel=0 note=74 velocity=64 time=0\n",
      "note_on channel=0 note=75 velocity=28 time=0\n",
      "note_on channel=0 note=91 velocity=12 time=0\n",
      "note_on channel=0 note=81 velocity=39 time=1\n",
      "note_off channel=0 note=65 velocity=64 time=1\n",
      "note_off channel=0 note=71 velocity=64 time=0\n",
      "note_on channel=0 note=84 velocity=16 time=0\n",
      "note_on channel=0 note=64 velocity=68 time=1\n",
      "note_off channel=0 note=68 velocity=64 time=0\n",
      "note_on channel=0 note=71 velocity=39 time=0\n",
      "note_off channel=0 note=75 velocity=64 time=0\n",
      "note_off channel=0 note=77 velocity=64 time=0\n",
      "note_off channel=0 note=91 velocity=64 time=0\n",
      "note_on channel=0 note=45 velocity=77 time=1\n",
      "note_off channel=0 note=61 velocity=64 time=0\n",
      "note_on channel=0 note=62 velocity=84 time=0\n",
      "note_off channel=0 note=64 velocity=64 time=0\n",
      "note_on channel=0 note=67 velocity=62 time=0\n",
      "note_on channel=0 note=77 velocity=34 time=0\n",
      "note_off channel=0 note=81 velocity=64 time=0\n",
      "note_on channel=0 note=61 velocity=78 time=1\n",
      "note_off channel=0 note=62 velocity=64 time=0\n",
      "note_on channel=0 note=64 velocity=79 time=0\n",
      "note_on channel=0 note=82 velocity=27 time=0\n",
      "note_on channel=0 note=44 velocity=79 time=1\n",
      "note_off channel=0 note=45 velocity=64 time=0\n",
      "note_off channel=0 note=64 velocity=64 time=0\n",
      "note_off channel=0 note=67 velocity=64 time=0\n",
      "note_on channel=0 note=78 velocity=21 time=0\n",
      "note_off channel=0 note=90 velocity=64 time=0\n",
      "note_off channel=0 note=61 velocity=64 time=1\n",
      "note_on channel=0 note=62 velocity=79 time=0\n",
      "note_off channel=0 note=77 velocity=64 time=0\n",
      "note_off channel=0 note=82 velocity=64 time=1\n",
      "note_on channel=0 note=61 velocity=78 time=1\n",
      "note_off channel=0 note=62 velocity=64 time=0\n",
      "note_on channel=0 note=67 velocity=21 time=0\n",
      "note_on channel=0 note=82 velocity=39 time=0\n",
      "note_off channel=0 note=44 velocity=64 time=1\n",
      "note_off channel=0 note=84 velocity=64 time=1\n",
      "note_on channel=0 note=102 velocity=25 time=0\n",
      "note_off channel=0 note=67 velocity=64 time=1\n",
      "note_off channel=0 note=71 velocity=64 time=0\n",
      "note_off channel=0 note=78 velocity=64 time=0\n",
      "note_on channel=0 note=43 velocity=62 time=1\n",
      "note_on channel=0 note=78 velocity=18 time=0\n",
      "note_on channel=0 note=71 velocity=36 time=1\n",
      "note_off channel=0 note=87 velocity=64 time=0\n",
      "note_on channel=0 note=42 velocity=56 time=1\n",
      "note_off channel=0 note=43 velocity=64 time=0\n",
      "note_on channel=0 note=91 velocity=14 time=0\n",
      "note_on channel=0 note=65 velocity=61 time=1\n",
      "note_on channel=0 note=70 velocity=31 time=0\n",
      "note_off channel=0 note=71 velocity=64 time=0\n",
      "note_on channel=0 note=84 velocity=33 time=0\n",
      "note_off channel=0 note=102 velocity=64 time=0\n",
      "note_off channel=0 note=42 velocity=64 time=1\n",
      "note_on channel=0 note=68 velocity=36 time=0\n",
      "note_on channel=0 note=75 velocity=30 time=0\n",
      "note_off channel=0 note=78 velocity=64 time=0\n",
      "note_on channel=0 note=90 velocity=39 time=0\n",
      "note_on channel=0 note=48 velocity=66 time=1\n",
      "note_off channel=0 note=70 velocity=64 time=1\n",
      "note_on channel=0 note=71 velocity=34 time=0\n",
      "note_off channel=0 note=91 velocity=64 time=0\n",
      "note_on channel=0 note=47 velocity=72 time=1\n",
      "note_off channel=0 note=48 velocity=64 time=0\n",
      "note_off channel=0 note=71 velocity=64 time=1\n",
      "note_on channel=0 note=99 velocity=37 time=0\n",
      "note_off channel=0 note=47 velocity=64 time=1\n",
      "note_on channel=0 note=48 velocity=70 time=0\n",
      "note_off channel=0 note=48 velocity=64 time=1\n",
      "note_on channel=0 note=49 velocity=77 time=0\n",
      "note_on channel=0 note=71 velocity=46 time=0\n",
      "note_off channel=0 note=82 velocity=64 time=0\n",
      "note_off channel=0 note=49 velocity=64 time=1\n",
      "note_on channel=0 note=52 velocity=75 time=0\n",
      "note_off channel=0 note=80 velocity=64 time=0\n",
      "note_on channel=0 note=82 velocity=37 time=0\n",
      "note_on channel=0 note=88 velocity=21 time=0\n",
      "note_off channel=0 note=89 velocity=64 time=0\n",
      "note_off channel=0 note=52 velocity=64 time=1\n",
      "note_on channel=0 note=53 velocity=66 time=0\n",
      "note_on channel=0 note=80 velocity=49 time=0\n",
      "note_off channel=0 note=95 velocity=64 time=0\n",
      "note_on channel=0 note=102 velocity=42 time=0\n",
      "note_off channel=0 note=53 velocity=64 time=1\n",
      "note_on channel=0 note=53 velocity=59 time=2\n",
      "note_off channel=0 note=82 velocity=64 time=0\n",
      "note_off channel=0 note=85 velocity=64 time=0\n",
      "note_on channel=0 note=95 velocity=34 time=2\n",
      "note_on channel=0 note=82 velocity=38 time=1\n",
      "note_on channel=0 note=46 velocity=64 time=1\n",
      "note_off channel=0 note=68 velocity=64 time=0\n",
      "note_off channel=0 note=53 velocity=64 time=1\n",
      "note_on channel=0 note=64 velocity=82 time=0\n",
      "note_off channel=0 note=65 velocity=64 time=0\n",
      "note_off channel=0 note=75 velocity=64 time=0\n",
      "note_off channel=0 note=88 velocity=64 time=0\n",
      "note_on channel=0 note=45 velocity=76 time=1\n",
      "note_off channel=0 note=46 velocity=64 time=0\n",
      "note_on channel=0 note=53 velocity=47 time=0\n",
      "note_off channel=0 note=61 velocity=64 time=0\n",
      "note_on channel=0 note=88 velocity=37 time=0\n",
      "note_on channel=0 note=44 velocity=79 time=1\n",
      "note_off channel=0 note=45 velocity=64 time=0\n",
      "note_on channel=0 note=61 velocity=82 time=0\n",
      "note_on channel=0 note=63 velocity=71 time=0\n",
      "note_off channel=0 note=82 velocity=64 time=0\n",
      "note_off channel=0 note=53 velocity=64 time=1\n",
      "note_off channel=0 note=63 velocity=64 time=0\n",
      "note_off channel=0 note=64 velocity=64 time=0\n",
      "note_on channel=0 note=101 velocity=29 time=0\n",
      "note_off channel=0 note=102 velocity=64 time=0\n",
      "note_on channel=0 note=103 velocity=29 time=0\n",
      "note_on channel=0 note=68 velocity=39 time=1\n",
      "note_on channel=0 note=97 velocity=15 time=0\n",
      "note_on channel=0 note=65 velocity=50 time=1\n",
      "note_off channel=0 note=103 velocity=64 time=1\n",
      "note_off channel=0 note=44 velocity=64 time=1\n",
      "note_on channel=0 note=103 velocity=19 time=0\n",
      "note_on channel=0 note=43 velocity=61 time=3\n",
      "note_off channel=0 note=84 velocity=64 time=0\n",
      "note_on channel=0 note=54 velocity=25 time=1\n",
      "note_off channel=0 note=43 velocity=64 time=3\n",
      "note_off channel=0 note=54 velocity=64 time=0\n",
      "note_on channel=0 note=48 velocity=70 time=2\n",
      "note_on channel=0 note=54 velocity=30 time=0\n",
      "note_off channel=0 note=68 velocity=64 time=0\n",
      "note_off channel=0 note=80 velocity=64 time=0\n",
      "note_off channel=0 note=103 velocity=64 time=0\n",
      "note_on channel=0 note=47 velocity=75 time=1\n",
      "note_off channel=0 note=48 velocity=64 time=0\n",
      "note_on channel=0 note=82 velocity=47 time=0\n"
     ]
    },
    {
     "name": "stdout",
     "output_type": "stream",
     "text": [
      "note_off channel=0 note=99 velocity=64 time=0\n",
      "note_off channel=0 note=47 velocity=64 time=1\n",
      "note_on channel=0 note=48 velocity=74 time=0\n",
      "note_off channel=0 note=54 velocity=64 time=0\n",
      "note_on channel=0 note=68 velocity=38 time=0\n",
      "note_off channel=0 note=97 velocity=64 time=0\n",
      "note_on channel=0 note=80 velocity=89 time=1\n",
      "note_off channel=0 note=48 velocity=64 time=1\n",
      "note_on channel=0 note=50 velocity=76 time=0\n",
      "note_off channel=0 note=101 velocity=64 time=0\n",
      "note_off channel=0 note=50 velocity=64 time=1\n",
      "note_on channel=0 note=53 velocity=69 time=0\n",
      "note_on channel=0 note=87 velocity=42 time=2\n",
      "note_off channel=0 note=53 velocity=64 time=1\n",
      "note_on channel=0 note=53 velocity=55 time=1\n",
      "note_off channel=0 note=61 velocity=64 time=0\n",
      "note_on channel=0 note=78 velocity=38 time=1\n",
      "note_on channel=0 note=75 velocity=40 time=2\n",
      "note_on channel=0 note=89 velocity=68 time=0\n",
      "note_on channel=0 note=48 velocity=88 time=1\n",
      "note_off channel=0 note=53 velocity=64 time=0\n",
      "note_on channel=0 note=74 velocity=39 time=0\n",
      "note_off channel=0 note=88 velocity=64 time=0\n",
      "note_on channel=0 note=64 velocity=60 time=1\n",
      "note_off channel=0 note=65 velocity=64 time=0\n",
      "note_off channel=0 note=68 velocity=64 time=0\n",
      "note_off channel=0 note=75 velocity=64 time=0\n",
      "note_off channel=0 note=82 velocity=64 time=0\n",
      "note_on channel=0 note=91 velocity=20 time=0\n",
      "note_on channel=0 note=68 velocity=35 time=1\n",
      "note_on channel=0 note=77 velocity=19 time=0\n",
      "note_on channel=0 note=63 velocity=47 time=1\n",
      "note_off channel=0 note=64 velocity=64 time=0\n",
      "note_on channel=0 note=73 velocity=32 time=0\n",
      "note_off channel=0 note=78 velocity=64 time=0\n",
      "note_off channel=0 note=48 velocity=64 time=1\n",
      "note_on channel=0 note=82 velocity=39 time=0\n",
      "note_on channel=0 note=44 velocity=65 time=1\n",
      "note_off channel=0 note=63 velocity=64 time=0\n",
      "note_on channel=0 note=65 velocity=51 time=0\n",
      "note_off channel=0 note=74 velocity=64 time=0\n",
      "note_on channel=0 note=75 velocity=15 time=0\n",
      "note_off channel=0 note=90 velocity=64 time=0\n",
      "note_off channel=0 note=44 velocity=64 time=1\n",
      "note_on channel=0 note=48 velocity=65 time=0\n",
      "note_off channel=0 note=77 velocity=64 time=0\n",
      "note_off channel=0 note=82 velocity=64 time=0\n",
      "note_off channel=0 note=87 velocity=64 time=0\n",
      "note_on channel=0 note=88 velocity=35 time=0\n",
      "note_on channel=0 note=90 velocity=30 time=0\n",
      "note_off channel=0 note=48 velocity=64 time=1\n",
      "note_on channel=0 note=61 velocity=19 time=0\n",
      "note_off channel=0 note=89 velocity=64 time=0\n",
      "note_on channel=0 note=45 velocity=61 time=1\n",
      "note_on channel=0 note=87 velocity=50 time=0\n",
      "note_off channel=0 note=88 velocity=64 time=0\n",
      "note_on channel=0 note=89 velocity=71 time=0\n",
      "note_off channel=0 note=91 velocity=64 time=1\n",
      "note_on channel=0 note=54 velocity=33 time=1\n",
      "note_on channel=0 note=44 velocity=49 time=1\n",
      "note_off channel=0 note=45 velocity=64 time=0\n",
      "note_off channel=0 note=61 velocity=64 time=0\n",
      "note_on channel=0 note=91 velocity=32 time=1\n",
      "note_on channel=0 note=61 velocity=28 time=1\n",
      "note_off channel=0 note=75 velocity=64 time=0\n",
      "note_off channel=0 note=68 velocity=64 time=1\n",
      "note_off channel=0 note=44 velocity=64 time=2\n",
      "note_off channel=0 note=71 velocity=64 time=0\n",
      "note_on channel=0 note=43 velocity=28 time=2\n",
      "note_off channel=0 note=54 velocity=64 time=0\n",
      "note_on channel=0 note=82 velocity=25 time=0\n",
      "note_on channel=0 note=54 velocity=29 time=1\n",
      "note_off channel=0 note=54 velocity=64 time=2\n",
      "note_off channel=0 note=43 velocity=64 time=1\n",
      "note_on channel=0 note=68 velocity=14 time=0\n",
      "note_off channel=0 note=95 velocity=64 time=0\n",
      "note_off channel=0 note=91 velocity=64 time=1\n",
      "note_on channel=0 note=42 velocity=20 time=1\n",
      "note_on channel=0 note=91 velocity=28 time=0\n",
      "note_off channel=0 note=42 velocity=64 time=4\n",
      "note_off channel=0 note=61 velocity=64 time=1\n",
      "note_off channel=0 note=68 velocity=64 time=0\n",
      "note_on channel=0 note=69 velocity=43 time=0\n",
      "note_on channel=0 note=76 velocity=48 time=0\n",
      "note_on channel=0 note=84 velocity=43 time=0\n",
      "note_off channel=0 note=90 velocity=64 time=0\n",
      "note_on channel=0 note=95 velocity=43 time=0\n",
      "note_on channel=0 note=102 velocity=25 time=0\n",
      "note_on channel=0 note=46 velocity=68 time=1\n",
      "note_off channel=0 note=65 velocity=64 time=0\n",
      "note_on channel=0 note=67 velocity=47 time=0\n",
      "note_off channel=0 note=73 velocity=64 time=0\n",
      "note_off channel=0 note=82 velocity=64 time=0\n",
      "note_on channel=0 note=45 velocity=76 time=1\n",
      "note_off channel=0 note=46 velocity=64 time=0\n",
      "note_on channel=0 note=75 velocity=46 time=0\n",
      "note_off channel=0 note=76 velocity=64 time=0\n",
      "note_on channel=0 note=78 velocity=32 time=0\n",
      "note_on channel=0 note=82 velocity=32 time=0\n",
      "note_on channel=0 note=85 velocity=29 time=0\n",
      "note_on channel=0 note=44 velocity=77 time=1\n",
      "note_off channel=0 note=45 velocity=64 time=0\n",
      "note_on channel=0 note=73 velocity=55 time=0\n",
      "note_on channel=0 note=86 velocity=30 time=0\n",
      "note_off channel=0 note=87 velocity=64 time=0\n",
      "note_off channel=0 note=102 velocity=64 time=0\n",
      "note_off channel=0 note=69 velocity=64 time=1\n",
      "note_on channel=0 note=71 velocity=39 time=0\n",
      "note_off channel=0 note=78 velocity=64 time=0\n",
      "note_on channel=0 note=61 velocity=42 time=1\n",
      "note_off channel=0 note=67 velocity=64 time=0\n",
      "note_off channel=0 note=86 velocity=64 time=0\n",
      "note_on channel=0 note=43 velocity=73 time=1\n",
      "note_off channel=0 note=44 velocity=64 time=0\n",
      "note_on channel=0 note=65 velocity=40 time=0\n",
      "note_off channel=0 note=95 velocity=64 time=0\n",
      "note_on channel=0 note=90 velocity=25 time=1\n",
      "note_off channel=0 note=91 velocity=64 time=0\n",
      "note_off channel=0 note=61 velocity=64 time=1\n",
      "note_on channel=0 note=91 velocity=31 time=0\n",
      "note_on channel=0 note=54 velocity=17 time=1\n",
      "note_off channel=0 note=84 velocity=64 time=0\n",
      "note_off channel=0 note=82 velocity=64 time=1\n",
      "note_on channel=0 note=82 velocity=20 time=1\n",
      "note_off channel=0 note=54 velocity=64 time=1\n",
      "note_on channel=0 note=61 velocity=21 time=0\n",
      "note_off channel=0 note=43 velocity=64 time=1\n",
      "note_on channel=0 note=44 velocity=26 time=0\n",
      "note_off channel=0 note=90 velocity=64 time=0\n",
      "note_off channel=0 note=82 velocity=64 time=1\n",
      "note_off channel=0 note=85 velocity=64 time=1\n",
      "note_off channel=0 note=93 velocity=64 time=0\n",
      "note_off channel=0 note=44 velocity=64 time=2\n",
      "note_off channel=0 note=65 velocity=64 time=1\n",
      "note_off channel=0 note=91 velocity=64 time=3\n",
      "note_on channel=0 note=91 velocity=19 time=1\n",
      "note_off channel=0 note=61 velocity=64 time=4\n",
      "note_off channel=0 note=91 velocity=64 time=1\n",
      "note_on channel=0 note=68 velocity=49 time=2\n",
      "note_off channel=0 note=75 velocity=64 time=0\n",
      "note_on channel=0 note=78 velocity=35 time=0\n",
      "note_on channel=0 note=82 velocity=63 time=0\n",
      "note_on channel=0 note=91 velocity=24 time=0\n",
      "note_on channel=0 note=93 velocity=12 time=0\n",
      "note_on channel=0 note=62 velocity=85 time=1\n",
      "note_off channel=0 note=71 velocity=64 time=0\n",
      "note_on channel=0 note=75 velocity=45 time=0\n",
      "note_on channel=0 note=57 velocity=50 time=1\n",
      "note_off channel=0 note=62 velocity=64 time=0\n",
      "note_on channel=0 note=63 velocity=95 time=0\n",
      "note_off channel=0 note=68 velocity=64 time=0\n",
      "note_on channel=0 note=77 velocity=26 time=0\n",
      "note_off channel=0 note=78 velocity=64 time=0\n",
      "note_on channel=0 note=90 velocity=35 time=0\n",
      "note_on channel=0 note=70 velocity=40 time=1\n",
      "note_off channel=0 note=93 velocity=64 time=0\n",
      "note_off channel=0 note=57 velocity=64 time=1\n",
      "note_off channel=0 note=70 velocity=64 time=1\n",
      "note_off channel=0 note=90 velocity=64 time=0\n",
      "note_off channel=0 note=82 velocity=64 time=1\n",
      "note_on channel=0 note=71 velocity=25 time=2\n",
      "note_off channel=0 note=89 velocity=64 time=4\n",
      "note_off channel=0 note=75 velocity=64 time=3\n",
      "note_on channel=0 note=89 velocity=45 time=0\n",
      "note_on channel=0 note=90 velocity=26 time=8\n",
      "note_on channel=0 note=83 velocity=65 time=1\n",
      "note_on channel=0 note=56 velocity=73 time=2\n",
      "note_on channel=0 note=69 velocity=74 time=1\n",
      "note_off channel=0 note=71 velocity=64 time=0\n",
      "note_off channel=0 note=73 velocity=64 time=0\n",
      "note_on channel=0 note=87 velocity=64 time=0\n",
      "note_off channel=0 note=91 velocity=64 time=0\n",
      "note_on channel=0 note=94 velocity=49 time=0\n",
      "note_on channel=0 note=96 velocity=30 time=0\n",
      "note_on channel=0 note=100 velocity=37 time=0\n",
      "note_on channel=0 note=103 velocity=47 time=0\n",
      "note_on channel=0 note=72 velocity=49 time=1\n",
      "note_off channel=0 note=90 velocity=64 time=0\n",
      "note_on channel=0 note=91 velocity=46 time=0\n",
      "note_on channel=0 note=93 velocity=21 time=0\n",
      "note_on channel=0 note=97 velocity=53 time=0\n",
      "note_on channel=0 note=68 velocity=79 time=1\n",
      "note_off channel=0 note=69 velocity=64 time=0\n",
      "note_on channel=0 note=84 velocity=51 time=0\n",
      "note_on channel=0 note=90 velocity=47 time=0\n",
      "note_off channel=0 note=77 velocity=64 time=1\n",
      "note_on channel=0 note=78 velocity=35 time=0\n",
      "note_on channel=0 note=62 velocity=79 time=1\n",
      "note_off channel=0 note=63 velocity=64 time=0\n",
      "note_on channel=0 note=85 velocity=19 time=0\n",
      "note_off channel=0 note=91 velocity=64 time=0\n",
      "note_off channel=0 note=93 velocity=64 time=0\n",
      "note_off channel=0 note=56 velocity=64 time=1\n",
      "note_off channel=0 note=96 velocity=64 time=0\n",
      "note_on channel=0 note=56 velocity=58 time=1\n",
      "note_off channel=0 note=62 velocity=64 time=0\n",
      "note_on channel=0 note=63 velocity=85 time=0\n",
      "note_on channel=0 note=70 velocity=34 time=0\n",
      "note_on channel=0 note=77 velocity=28 time=0\n",
      "note_off channel=0 note=78 velocity=64 time=0\n",
      "note_off channel=0 note=89 velocity=64 time=0\n",
      "note_on channel=0 note=91 velocity=31 time=0\n",
      "note_off channel=0 note=72 velocity=64 time=1\n",
      "note_off channel=0 note=70 velocity=64 time=1\n",
      "note_on channel=0 note=73 velocity=23 time=0\n",
      "note_off channel=0 note=85 velocity=64 time=0\n",
      "note_on channel=0 note=89 velocity=70 time=0\n",
      "note_off channel=0 note=91 velocity=64 time=1\n",
      "note_off channel=0 note=97 velocity=64 time=0\n",
      "note_on channel=0 note=98 velocity=36 time=0\n",
      "note_off channel=0 note=103 velocity=64 time=1\n",
      "note_off channel=0 note=56 velocity=64 time=1\n",
      "note_on channel=0 note=57 velocity=47 time=0\n",
      "note_off channel=0 note=73 velocity=64 time=0\n",
      "note_on channel=0 note=85 velocity=11 time=0\n",
      "note_off channel=0 note=100 velocity=64 time=0\n",
      "note_off channel=0 note=77 velocity=64 time=1\n",
      "note_off channel=0 note=90 velocity=64 time=0\n",
      "note_on channel=0 note=91 velocity=61 time=0\n",
      "note_off channel=0 note=57 velocity=64 time=1\n",
      "note_on channel=0 note=71 velocity=20 time=0\n",
      "note_on channel=0 note=77 velocity=19 time=0\n",
      "note_on channel=0 note=90 velocity=24 time=0\n",
      "note_on channel=0 note=73 velocity=20 time=2\n",
      "note_off channel=0 note=94 velocity=64 time=0\n",
      "note_off channel=0 note=98 velocity=64 time=0\n",
      "note_on channel=0 note=56 velocity=51 time=2\n",
      "note_off channel=0 note=90 velocity=64 time=0\n",
      "note_off channel=0 note=68 velocity=64 time=1\n",
      "note_off channel=0 note=84 velocity=64 time=0\n",
      "note_off channel=0 note=85 velocity=64 time=2\n",
      "note_on channel=0 note=96 velocity=9 time=0\n",
      "note_off channel=0 note=56 velocity=64 time=2\n",
      "note_on channel=0 note=56 velocity=31 time=1\n",
      "note_off channel=0 note=96 velocity=64 time=0\n",
      "note_off channel=0 note=73 velocity=64 time=1\n",
      "note_off channel=0 note=71 velocity=64 time=1\n",
      "note_off channel=0 note=56 velocity=64 time=1\n",
      "note_on channel=0 note=58 velocity=64 time=0\n",
      "note_on channel=0 note=85 velocity=38 time=0\n",
      "note_on channel=0 note=69 velocity=84 time=1\n",
      "note_off channel=0 note=77 velocity=64 time=0\n",
      "note_on channel=0 note=100 velocity=17 time=0\n",
      "note_on channel=0 note=102 velocity=19 time=0\n",
      "note_on channel=0 note=76 velocity=30 time=1\n",
      "note_on channel=0 note=57 velocity=65 time=1\n",
      "note_off channel=0 note=58 velocity=64 time=0\n",
      "note_off channel=0 note=76 velocity=64 time=1\n",
      "note_on channel=0 note=77 velocity=32 time=0\n",
      "note_off channel=0 note=57 velocity=64 time=1\n",
      "note_on channel=0 note=58 velocity=64 time=0\n",
      "note_off channel=0 note=100 velocity=64 time=0\n",
      "note_off channel=0 note=69 velocity=64 time=1\n",
      "note_on channel=0 note=70 velocity=82 time=0\n",
      "note_on channel=0 note=73 velocity=39 time=0\n",
      "note_off channel=0 note=77 velocity=64 time=0\n",
      "note_on channel=0 note=88 velocity=41 time=0\n",
      "note_on channel=0 note=69 velocity=89 time=1\n",
      "note_off channel=0 note=70 velocity=64 time=0\n",
      "note_on channel=0 note=57 velocity=62 time=1\n",
      "note_off channel=0 note=58 velocity=64 time=0\n",
      "note_on channel=0 note=76 velocity=31 time=0\n",
      "note_off channel=0 note=88 velocity=64 time=1\n",
      "note_on channel=0 note=96 velocity=14 time=0\n",
      "note_off channel=0 note=57 velocity=64 time=1\n",
      "note_on channel=0 note=59 velocity=35 time=1\n",
      "note_on channel=0 note=77 velocity=32 time=0\n",
      "note_off channel=0 note=102 velocity=64 time=0\n",
      "note_off channel=0 note=76 velocity=64 time=1\n",
      "note_off channel=0 note=96 velocity=64 time=0\n",
      "note_on channel=0 note=55 velocity=53 time=1\n",
      "note_off channel=0 note=59 velocity=64 time=0\n",
      "note_on channel=0 note=67 velocity=68 time=0\n",
      "note_off channel=0 note=69 velocity=64 time=0\n",
      "note_off channel=0 note=73 velocity=64 time=0\n",
      "note_on channel=0 note=74 velocity=85 time=0\n",
      "note_on channel=0 note=93 velocity=30 time=0\n",
      "note_on channel=0 note=96 velocity=29 time=0\n",
      "note_on channel=0 note=98 velocity=39 time=0\n",
      "note_on channel=0 note=102 velocity=18 time=0\n",
      "note_on channel=0 note=88 velocity=38 time=1\n",
      "note_on channel=0 note=61 velocity=26 time=1\n",
      "note_off channel=0 note=63 velocity=64 time=0\n",
      "note_on channel=0 note=94 velocity=28 time=0\n",
      "note_on channel=0 note=54 velocity=52 time=1\n",
      "note_off channel=0 note=55 velocity=64 time=0\n",
      "note_off channel=0 note=67 velocity=64 time=0\n",
      "note_on channel=0 note=70 velocity=33 time=0\n",
      "note_on channel=0 note=79 velocity=54 time=0\n",
      "note_off channel=0 note=83 velocity=64 time=0\n",
      "note_off channel=0 note=85 velocity=64 time=0\n",
      "note_on channel=0 note=90 velocity=51 time=0\n",
      "note_off channel=0 note=93 velocity=64 time=0\n",
      "note_on channel=0 note=97 velocity=35 time=0\n",
      "note_off channel=0 note=98 velocity=64 time=0\n",
      "note_on channel=0 note=67 velocity=59 time=1\n",
      "note_on channel=0 note=83 velocity=49 time=0\n",
      "note_on channel=0 note=85 velocity=36 time=0\n",
      "note_on channel=0 note=93 velocity=27 time=0\n",
      "note_off channel=0 note=54 velocity=64 time=1\n",
      "note_on channel=0 note=55 velocity=55 time=0\n",
      "note_off channel=0 note=70 velocity=64 time=0\n",
      "note_on channel=0 note=71 velocity=43 time=0\n",
      "note_off channel=0 note=88 velocity=64 time=0\n",
      "note_off channel=0 note=90 velocity=64 time=0\n",
      "note_off channel=0 note=94 velocity=64 time=0\n",
      "note_off channel=0 note=97 velocity=64 time=0\n",
      "note_off channel=0 note=102 velocity=64 time=0\n",
      "note_off channel=0 note=85 velocity=64 time=1\n",
      "note_on channel=0 note=88 velocity=28 time=0\n",
      "note_off channel=0 note=96 velocity=64 time=0\n",
      "note_on channel=0 note=68 velocity=53 time=1\n",
      "note_off channel=0 note=74 velocity=64 time=0\n",
      "note_on channel=0 note=75 velocity=81 time=0\n",
      "note_on channel=0 note=84 velocity=56 time=0\n",
      "note_on channel=0 note=90 velocity=29 time=0\n",
      "note_off channel=0 note=55 velocity=64 time=1\n",
      "note_on channel=0 note=56 velocity=53 time=0\n",
      "note_off channel=0 note=67 velocity=64 time=0\n",
      "note_off channel=0 note=80 velocity=64 time=0\n",
      "note_off channel=0 note=93 velocity=64 time=0\n",
      "note_on channel=0 note=94 velocity=21 time=0\n",
      "note_on channel=0 note=80 velocity=60 time=1\n",
      "note_off channel=0 note=89 velocity=64 time=0\n",
      "note_off channel=0 note=88 velocity=64 time=1\n",
      "note_on channel=0 note=89 velocity=54 time=0\n",
      "note_off channel=0 note=90 velocity=64 time=0\n",
      "note_on channel=0 note=55 velocity=59 time=1\n",
      "note_off channel=0 note=56 velocity=64 time=0\n",
      "note_off channel=0 note=79 velocity=64 time=0\n",
      "note_on channel=0 note=86 velocity=62 time=0\n",
      "note_on channel=0 note=93 velocity=35 time=0\n",
      "note_off channel=0 note=94 velocity=64 time=0\n",
      "note_on channel=0 note=100 velocity=49 time=0\n",
      "note_off channel=0 note=68 velocity=64 time=1\n",
      "note_on channel=0 note=74 velocity=77 time=0\n",
      "note_on channel=0 note=79 velocity=70 time=0\n",
      "note_off channel=0 note=75 velocity=64 time=1\n",
      "note_on channel=0 note=88 velocity=60 time=0\n",
      "note_off channel=0 note=89 velocity=64 time=0\n",
      "note_off channel=0 note=80 velocity=64 time=1\n",
      "note_off channel=0 note=84 velocity=64 time=0\n",
      "note_on channel=0 note=68 velocity=57 time=1\n",
      "note_on channel=0 note=80 velocity=73 time=0\n",
      "note_on channel=0 note=89 velocity=70 time=0\n",
      "note_off channel=0 note=55 velocity=64 time=1\n",
      "note_on channel=0 note=56 velocity=57 time=0\n",
      "note_off channel=0 note=74 velocity=64 time=0\n",
      "note_on channel=0 note=75 velocity=67 time=0\n",
      "note_off channel=0 note=77 velocity=64 time=0\n",
      "note_on channel=0 note=84 velocity=40 time=0\n",
      "note_off channel=0 note=88 velocity=64 time=0\n",
      "note_off channel=0 note=68 velocity=64 time=1\n",
      "note_on channel=0 note=69 velocity=63 time=0\n",
      "note_off channel=0 note=71 velocity=64 time=0\n",
      "note_on channel=0 note=76 velocity=69 time=0\n",
      "note_on channel=0 note=85 velocity=56 time=0\n",
      "note_off channel=0 note=56 velocity=64 time=1\n",
      "note_off channel=0 note=75 velocity=64 time=0\n",
      "note_off channel=0 note=76 velocity=64 time=0\n",
      "note_on channel=0 note=77 velocity=93 time=0\n",
      "note_on channel=0 note=88 velocity=61 time=0\n",
      "note_on channel=0 note=90 velocity=30 time=0\n",
      "note_on channel=0 note=58 velocity=56 time=1\n",
      "note_off channel=0 note=61 velocity=64 time=0\n",
      "note_on channel=0 note=65 velocity=14 time=0\n",
      "note_off channel=0 note=69 velocity=64 time=0\n",
      "note_on channel=0 note=70 velocity=65 time=0\n",
      "note_on channel=0 note=82 velocity=65 time=0\n",
      "note_off channel=0 note=83 velocity=64 time=0\n",
      "note_off channel=0 note=93 velocity=64 time=0\n",
      "note_on channel=0 note=83 velocity=44 time=1\n",
      "note_off channel=0 note=84 velocity=64 time=0\n",
      "note_off channel=0 note=87 velocity=64 time=0\n",
      "note_on channel=0 note=57 velocity=59 time=1\n",
      "note_off channel=0 note=58 velocity=64 time=0\n",
      "note_on channel=0 note=61 velocity=80 time=0\n",
      "note_off channel=0 note=90 velocity=64 time=0\n",
      "note_on channel=0 note=93 velocity=24 time=0\n",
      "note_off channel=0 note=65 velocity=64 time=1\n",
      "note_off channel=0 note=70 velocity=64 time=0\n",
      "note_on channel=0 note=90 velocity=66 time=0\n",
      "note_off channel=0 note=91 velocity=64 time=0\n",
      "note_on channel=0 note=56 velocity=72 time=1\n",
      "note_off channel=0 note=57 velocity=64 time=0\n",
      "note_on channel=0 note=71 velocity=59 time=0\n",
      "note_on channel=0 note=76 velocity=76 time=0\n",
      "note_off channel=0 note=77 velocity=64 time=0\n",
      "note_off channel=0 note=79 velocity=64 time=0\n",
      "note_on channel=0 note=87 velocity=64 time=0\n",
      "note_on channel=0 note=91 velocity=68 time=0\n",
      "note_off channel=0 note=56 velocity=64 time=1\n",
      "note_on channel=0 note=57 velocity=71 time=0\n",
      "note_off channel=0 note=86 velocity=64 time=0\n",
      "note_off channel=0 note=88 velocity=64 time=0\n",
      "note_off channel=0 note=93 velocity=64 time=0\n",
      "note_on channel=0 note=49 velocity=32 time=1\n",
      "note_off channel=0 note=71 velocity=64 time=0\n",
      "note_on channel=0 note=75 velocity=66 time=0\n",
      "note_off channel=0 note=76 velocity=64 time=0\n",
      "note_on channel=0 note=81 velocity=61 time=0\n",
      "note_off channel=0 note=82 velocity=64 time=0\n",
      "note_on channel=0 note=88 velocity=45 time=0\n",
      "note_off channel=0 note=61 velocity=64 time=1\n",
      "note_on channel=0 note=62 velocity=65 time=0\n",
      "note_on channel=0 note=71 velocity=64 time=0\n",
      "note_on channel=0 note=77 velocity=89 time=0\n",
      "note_off channel=0 note=83 velocity=64 time=0\n",
      "note_on channel=0 note=94 velocity=50 time=0\n",
      "note_on channel=0 note=98 velocity=19 time=0\n",
      "note_off channel=0 note=49 velocity=64 time=1\n",
      "note_off channel=0 note=57 velocity=64 time=0\n",
      "note_off channel=0 note=62 velocity=64 time=0\n",
      "note_off channel=0 note=81 velocity=64 time=0\n",
      "note_on channel=0 note=82 velocity=61 time=0\n",
      "note_on channel=0 note=86 velocity=45 time=0\n",
      "note_on channel=0 note=60 velocity=56 time=1\n",
      "note_on channel=0 note=68 velocity=38 time=0\n",
      "note_off channel=0 note=75 velocity=64 time=0\n",
      "note_off channel=0 note=85 velocity=64 time=0\n",
      "note_off channel=0 note=88 velocity=64 time=0\n",
      "note_on channel=0 note=65 velocity=16 time=1\n",
      "note_off channel=0 note=71 velocity=64 time=0\n",
      "note_on channel=0 note=72 velocity=80 time=0\n",
      "note_on channel=0 note=79 velocity=74 time=0\n",
      "note_on channel=0 note=85 velocity=35 time=0\n",
      "note_on channel=0 note=88 velocity=69 time=0\n",
      "note_off channel=0 note=90 velocity=64 time=0\n",
      "note_off channel=0 note=89 velocity=64 time=1\n",
      "note_on channel=0 note=90 velocity=44 time=0\n",
      "note_off channel=0 note=98 velocity=64 time=0\n",
      "note_off channel=0 note=60 velocity=64 time=1\n",
      "note_on channel=0 note=61 velocity=67 time=0\n",
      "note_on channel=0 note=76 velocity=39 time=0\n",
      "note_off channel=0 note=77 velocity=64 time=0\n",
      "note_off channel=0 note=79 velocity=64 time=0\n",
      "note_on channel=0 note=81 velocity=50 time=0\n",
      "note_off channel=0 note=82 velocity=64 time=0\n",
      "note_off channel=0 note=68 velocity=64 time=1\n",
      "note_off channel=0 note=72 velocity=64 time=0\n",
      "note_on channel=0 note=73 velocity=79 time=0\n",
      "note_on channel=0 note=79 velocity=82 time=0\n",
      "note_off channel=0 note=80 velocity=64 time=0\n",
      "note_off channel=0 note=91 velocity=64 time=0\n",
      "note_on channel=0 note=60 velocity=67 time=1\n",
      "note_off channel=0 note=61 velocity=64 time=0\n",
      "note_on channel=0 note=68 velocity=38 time=0\n",
      "note_off channel=0 note=76 velocity=64 time=0\n",
      "note_on channel=0 note=80 velocity=73 time=0\n",
      "note_on channel=0 note=82 velocity=44 time=0\n",
      "note_off channel=0 note=87 velocity=64 time=0\n",
      "note_on channel=0 note=89 velocity=39 time=0\n",
      "note_off channel=0 note=90 velocity=64 time=0\n",
      "note_on channel=0 note=72 velocity=73 time=1\n",
      "note_off channel=0 note=73 velocity=64 time=0\n",
      "note_off channel=0 note=81 velocity=64 time=0\n",
      "note_on channel=0 note=91 velocity=87 time=0\n",
      "note_on channel=0 note=101 velocity=48 time=0\n",
      "note_on channel=0 note=75 velocity=50 time=2\n",
      "note_off channel=0 note=80 velocity=64 time=0\n",
      "note_off channel=0 note=89 velocity=64 time=0\n",
      "note_off channel=0 note=65 velocity=64 time=1\n",
      "note_on channel=0 note=80 velocity=77 time=0\n",
      "note_on channel=0 note=83 velocity=62 time=0\n",
      "note_off channel=0 note=85 velocity=64 time=0\n",
      "note_off channel=0 note=86 velocity=64 time=0\n",
      "note_on channel=0 note=89 velocity=66 time=0\n",
      "note_on channel=0 note=97 velocity=20 time=0\n",
      "note_on channel=0 note=99 velocity=21 time=0\n",
      "note_on channel=0 note=53 velocity=42 time=1\n",
      "note_off channel=0 note=60 velocity=64 time=0\n",
      "note_on channel=0 note=61 velocity=71 time=0\n",
      "note_off channel=0 note=72 velocity=64 time=0\n",
      "note_on channel=0 note=73 velocity=77 time=0\n",
      "note_off channel=0 note=82 velocity=64 time=0\n",
      "note_on channel=0 note=86 velocity=33 time=0\n",
      "note_off channel=0 note=94 velocity=64 time=0\n",
      "note_off channel=0 note=75 velocity=64 time=1\n",
      "note_on channel=0 note=87 velocity=75 time=0\n",
      "note_off channel=0 note=53 velocity=64 time=1\n",
      "note_on channel=0 note=54 velocity=32 time=0\n",
      "note_off channel=0 note=68 velocity=64 time=0\n",
      "note_on channel=0 note=71 velocity=38 time=0\n",
      "note_off channel=0 note=73 velocity=64 time=0\n",
      "note_on channel=0 note=74 velocity=80 time=0\n",
      "note_on channel=0 note=81 velocity=76 time=0\n",
      "note_on channel=0 note=82 velocity=90 time=0\n",
      "note_off channel=0 note=83 velocity=64 time=0\n",
      "note_on channel=0 note=90 velocity=68 time=0\n",
      "note_off channel=0 note=97 velocity=64 time=0\n",
      "note_off channel=0 note=61 velocity=64 time=1\n",
      "note_on channel=0 note=62 velocity=67 time=0\n",
      "note_off channel=0 note=80 velocity=64 time=0\n",
      "note_off channel=0 note=91 velocity=64 time=0\n",
      "note_off channel=0 note=62 velocity=64 time=1\n",
      "note_on channel=0 note=63 velocity=56 time=0\n",
      "note_off channel=0 note=74 velocity=64 time=0\n",
      "note_on channel=0 note=75 velocity=82 time=0\n",
      "note_on channel=0 note=80 velocity=63 time=0\n",
      "note_off channel=0 note=81 velocity=64 time=0\n",
      "note_off channel=0 note=90 velocity=64 time=0\n",
      "note_on channel=0 note=91 velocity=85 time=0\n",
      "note_on channel=0 note=53 velocity=20 time=1\n",
      "note_off channel=0 note=54 velocity=64 time=0\n",
      "note_on channel=0 note=85 velocity=16 time=0\n",
      "note_off channel=0 note=88 velocity=64 time=0\n",
      "note_on channel=0 note=90 velocity=35 time=0\n",
      "note_on channel=0 note=97 velocity=29 time=0\n",
      "note_off channel=0 note=80 velocity=64 time=1\n",
      "note_off channel=0 note=86 velocity=64 time=0\n",
      "note_off channel=0 note=99 velocity=64 time=0\n",
      "note_off channel=0 note=100 velocity=64 time=0\n",
      "note_on channel=0 note=77 velocity=24 time=1\n",
      "note_off channel=0 note=90 velocity=64 time=0\n",
      "note_on channel=0 note=96 velocity=37 time=0\n",
      "note_off channel=0 note=97 velocity=64 time=0\n",
      "note_off channel=0 note=53 velocity=64 time=1\n",
      "note_on channel=0 note=70 velocity=33 time=0\n",
      "note_off channel=0 note=71 velocity=64 time=0\n",
      "note_on channel=0 note=84 velocity=22 time=0\n",
      "note_on channel=0 note=102 velocity=47 time=0\n",
      "note_on channel=0 note=62 velocity=66 time=1\n",
      "note_off channel=0 note=63 velocity=64 time=0\n",
      "note_on channel=0 note=74 velocity=85 time=0\n",
      "note_off channel=0 note=75 velocity=64 time=0\n",
      "note_off channel=0 note=79 velocity=64 time=0\n",
      "note_on channel=0 note=80 velocity=43 time=0\n",
      "note_off channel=0 note=85 velocity=64 time=0\n",
      "note_on channel=0 note=90 velocity=64 time=0\n",
      "note_off channel=0 note=91 velocity=64 time=0\n",
      "note_on channel=0 note=93 velocity=31 time=0\n",
      "note_on channel=0 note=100 velocity=34 time=0\n",
      "note_on channel=0 note=68 velocity=35 time=1\n",
      "note_on channel=0 note=88 velocity=23 time=0\n",
      "note_off channel=0 note=89 velocity=64 time=0\n",
      "note_on channel=0 note=91 velocity=71 time=0\n",
      "note_on channel=0 note=79 velocity=32 time=1\n",
      "note_off channel=0 note=80 velocity=64 time=0\n",
      "note_off channel=0 note=70 velocity=64 time=1\n",
      "note_on channel=0 note=71 velocity=36 time=0\n",
      "note_on channel=0 note=83 velocity=36 time=0\n",
      "note_off channel=0 note=87 velocity=64 time=0\n",
      "note_off channel=0 note=62 velocity=64 time=1\n",
      "note_on channel=0 note=63 velocity=76 time=0\n",
      "note_on channel=0 note=87 velocity=73 time=0\n",
      "note_off channel=0 note=90 velocity=64 time=0\n",
      "note_off channel=0 note=93 velocity=64 time=0\n",
      "note_off channel=0 note=100 velocity=64 time=0\n",
      "note_off channel=0 note=68 velocity=64 time=1\n",
      "note_off channel=0 note=71 velocity=64 time=0\n",
      "note_on channel=0 note=73 velocity=51 time=0\n",
      "note_off channel=0 note=74 velocity=64 time=0\n",
      "note_on channel=0 note=75 velocity=79 time=0\n",
      "note_off channel=0 note=77 velocity=64 time=0\n",
      "note_off channel=0 note=83 velocity=64 time=0\n",
      "note_off channel=0 note=88 velocity=64 time=0\n",
      "note_on channel=0 note=89 velocity=36 time=0\n",
      "note_on channel=0 note=90 velocity=52 time=0\n",
      "note_on channel=0 note=97 velocity=38 time=0\n",
      "note_on channel=0 note=45 velocity=75 time=1\n",
      "note_off channel=0 note=63 velocity=64 time=0\n",
      "note_on channel=0 note=64 velocity=85 time=0\n",
      "note_on channel=0 note=67 velocity=58 time=0\n",
      "note_off channel=0 note=79 velocity=64 time=0\n",
      "note_on channel=0 note=80 velocity=47 time=0\n",
      "note_on channel=0 note=86 velocity=44 time=0\n",
      "note_on channel=0 note=93 velocity=16 time=0\n",
      "note_on channel=0 note=95 velocity=52 time=0\n",
      "note_on channel=0 note=71 velocity=46 time=1\n",
      "note_on channel=0 note=81 velocity=71 time=0\n",
      "note_off channel=0 note=82 velocity=64 time=0\n",
      "note_on channel=0 note=83 velocity=81 time=0\n",
      "note_on channel=0 note=44 velocity=78 time=1\n",
      "note_off channel=0 note=45 velocity=64 time=0\n",
      "note_on channel=0 note=63 velocity=80 time=0\n",
      "note_off channel=0 note=64 velocity=64 time=0\n",
      "note_off channel=0 note=67 velocity=64 time=0\n",
      "note_on channel=0 note=76 velocity=82 time=0\n",
      "note_off channel=0 note=89 velocity=64 time=0\n",
      "note_on channel=0 note=92 velocity=77 time=0\n",
      "note_off channel=0 note=96 velocity=64 time=0\n",
      "note_off channel=0 note=63 velocity=64 time=1\n",
      "note_on channel=0 note=64 velocity=68 time=0\n",
      "note_off channel=0 note=73 velocity=64 time=0\n",
      "note_off channel=0 note=84 velocity=64 time=0\n",
      "note_off channel=0 note=87 velocity=64 time=0\n",
      "note_off channel=0 note=97 velocity=64 time=0\n",
      "note_off channel=0 note=101 velocity=64 time=0\n",
      "note_on channel=0 note=68 velocity=48 time=1\n",
      "note_on channel=0 note=73 velocity=42 time=0\n",
      "note_off channel=0 note=93 velocity=64 time=0\n",
      "note_off channel=0 note=75 velocity=64 time=1\n",
      "note_off channel=0 note=80 velocity=64 time=0\n",
      "note_on channel=0 note=97 velocity=36 time=0\n",
      "note_off channel=0 note=44 velocity=64 time=1\n",
      "note_off channel=0 note=81 velocity=64 time=0\n",
      "note_on channel=0 note=82 velocity=74 time=0\n",
      "note_off channel=0 note=83 velocity=64 time=0\n",
      "note_off channel=0 note=91 velocity=64 time=0\n",
      "note_off channel=0 note=82 velocity=64 time=1\n",
      "note_on channel=0 note=83 velocity=87 time=0\n",
      "note_on channel=0 note=87 velocity=75 time=0\n",
      "note_on channel=0 note=94 velocity=47 time=0\n",
      "note_off channel=0 note=95 velocity=64 time=0\n",
      "note_on channel=0 note=101 velocity=47 time=0\n",
      "note_on channel=0 note=63 velocity=61 time=1\n",
      "note_off channel=0 note=73 velocity=64 time=0\n",
      "note_on channel=0 note=75 velocity=86 time=0\n",
      "note_off channel=0 note=76 velocity=64 time=0\n",
      "note_on channel=0 note=82 velocity=85 time=0\n",
      "note_off channel=0 note=83 velocity=64 time=0\n",
      "note_on channel=0 note=89 velocity=29 time=0\n",
      "note_on channel=0 note=91 velocity=69 time=0\n",
      "note_on channel=0 note=43 velocity=61 time=1\n",
      "note_on channel=0 note=54 velocity=20 time=0\n",
      "note_off channel=0 note=64 velocity=64 time=0\n",
      "note_off channel=0 note=86 velocity=64 time=0\n",
      "note_off channel=0 note=90 velocity=64 time=0\n",
      "note_off channel=0 note=92 velocity=64 time=0\n",
      "note_off channel=0 note=102 velocity=64 time=0\n",
      "note_off channel=0 note=63 velocity=64 time=1\n",
      "note_on channel=0 note=84 velocity=25 time=0\n",
      "note_on channel=0 note=88 velocity=69 time=0\n",
      "note_off channel=0 note=89 velocity=64 time=0\n",
      "note_on channel=0 note=96 velocity=28 time=0\n",
      "note_off channel=0 note=97 velocity=64 time=1\n",
      "note_on channel=0 note=42 velocity=53 time=1\n",
      "note_off channel=0 note=43 velocity=64 time=0\n",
      "note_on channel=0 note=62 velocity=65 time=0\n",
      "note_on channel=0 note=90 velocity=38 time=0\n",
      "note_off channel=0 note=54 velocity=64 time=1\n",
      "note_on channel=0 note=61 velocity=58 time=0\n",
      "note_off channel=0 note=62 velocity=64 time=0\n",
      "note_on channel=0 note=78 velocity=30 time=0\n",
      "note_off channel=0 note=96 velocity=64 time=0\n",
      "note_on channel=0 note=97 velocity=27 time=0\n",
      "note_off channel=0 note=42 velocity=64 time=1\n",
      "note_on channel=0 note=48 velocity=64 time=0\n",
      "note_off channel=0 note=101 velocity=64 time=0\n",
      "note_on channel=0 note=102 velocity=59 time=0\n",
      "note_on channel=0 note=83 velocity=77 time=1\n",
      "note_on channel=0 note=92 velocity=88 time=0\n",
      "note_on channel=0 note=93 velocity=12 time=0\n",
      "note_off channel=0 note=94 velocity=64 time=0\n",
      "note_on channel=0 note=47 velocity=73 time=1\n",
      "note_off channel=0 note=48 velocity=64 time=0\n",
      "note_off channel=0 note=61 velocity=64 time=0\n",
      "note_on channel=0 note=64 velocity=67 time=0\n",
      "note_off channel=0 note=82 velocity=64 time=0\n",
      "note_off channel=0 note=84 velocity=64 time=0\n",
      "note_on channel=0 note=82 velocity=54 time=1\n",
      "note_off channel=0 note=47 velocity=64 time=1\n",
      "note_on channel=0 note=48 velocity=70 time=0\n",
      "note_on channel=0 note=77 velocity=36 time=0\n",
      "note_off channel=0 note=93 velocity=64 time=0\n",
      "note_off channel=0 note=97 velocity=64 time=0\n",
      "note_on channel=0 note=98 velocity=35 time=0\n",
      "note_off channel=0 note=48 velocity=64 time=1\n",
      "note_on channel=0 note=49 velocity=77 time=0\n",
      "note_off channel=0 note=78 velocity=64 time=0\n",
      "note_off channel=0 note=49 velocity=64 time=1\n",
      "note_on channel=0 note=52 velocity=76 time=0\n",
      "note_on channel=0 note=76 velocity=83 time=0\n",
      "note_off channel=0 note=77 velocity=64 time=0\n",
      "note_off channel=0 note=87 velocity=64 time=0\n",
      "note_off channel=0 note=52 velocity=64 time=1\n",
      "note_on channel=0 note=53 velocity=68 time=0\n",
      "note_off channel=0 note=75 velocity=64 time=0\n",
      "note_off channel=0 note=82 velocity=64 time=0\n",
      "note_on channel=0 note=82 velocity=40 time=1\n",
      "note_on channel=0 note=97 velocity=54 time=3\n",
      "note_off channel=0 note=98 velocity=64 time=0\n",
      "note_off channel=0 note=82 velocity=64 time=1\n",
      "note_off channel=0 note=53 velocity=64 time=1\n",
      "note_on channel=0 note=54 velocity=37 time=0\n",
      "note_on channel=0 note=87 velocity=54 time=0\n",
      "note_off channel=0 note=91 velocity=64 time=0\n",
      "note_on channel=0 note=63 velocity=86 time=1\n",
      "note_on channel=0 note=75 velocity=90 time=0\n",
      "note_off channel=0 note=76 velocity=64 time=0\n",
      "note_on channel=0 note=89 velocity=36 time=0\n",
      "note_on channel=0 note=91 velocity=59 time=0\n",
      "note_on channel=0 note=94 velocity=76 time=0\n",
      "note_on channel=0 note=101 velocity=46 time=0\n",
      "note_off channel=0 note=54 velocity=64 time=1\n",
      "note_off channel=0 note=64 velocity=64 time=0\n",
      "note_off channel=0 note=68 velocity=64 time=0\n",
      "note_on channel=0 note=76 velocity=47 time=0\n",
      "note_on channel=0 note=82 velocity=51 time=0\n",
      "note_on channel=0 note=45 velocity=76 time=1\n",
      "note_on channel=0 note=68 velocity=49 time=0\n",
      "note_on channel=0 note=44 velocity=79 time=1\n",
      "note_off channel=0 note=45 velocity=64 time=0\n",
      "note_off channel=0 note=76 velocity=64 time=0\n",
      "note_off channel=0 note=89 velocity=64 time=0\n",
      "note_off channel=0 note=92 velocity=64 time=0\n",
      "note_on channel=0 note=93 velocity=37 time=0\n",
      "note_off channel=0 note=68 velocity=64 time=1\n",
      "note_off channel=0 note=87 velocity=64 time=0\n",
      "note_on channel=0 note=62 velocity=82 time=1\n",
      "note_off channel=0 note=63 velocity=64 time=0\n",
      "note_on channel=0 note=68 velocity=42 time=0\n",
      "note_on channel=0 note=96 velocity=65 time=0\n",
      "note_on channel=0 note=98 velocity=42 time=0\n",
      "note_off channel=0 note=101 velocity=64 time=1\n",
      "note_off channel=0 note=75 velocity=64 time=1\n",
      "note_on channel=0 note=76 velocity=50 time=0\n",
      "note_off channel=0 note=82 velocity=64 time=0\n",
      "note_on channel=0 note=84 velocity=28 time=0\n",
      "note_off channel=0 note=44 velocity=64 time=1\n",
      "note_on channel=0 note=73 velocity=32 time=0\n",
      "note_on channel=0 note=82 velocity=31 time=0\n",
      "note_off channel=0 note=97 velocity=64 time=0\n",
      "note_off channel=0 note=83 velocity=64 time=1\n",
      "note_off channel=0 note=88 velocity=64 time=0\n",
      "note_on channel=0 note=89 velocity=31 time=0\n",
      "note_off channel=0 note=94 velocity=64 time=0\n",
      "note_off channel=0 note=62 velocity=64 time=1\n",
      "note_on channel=0 note=63 velocity=79 time=0\n",
      "note_off channel=0 note=73 velocity=64 time=0\n",
      "note_on channel=0 note=43 velocity=60 time=1\n",
      "note_off channel=0 note=76 velocity=64 time=0\n",
      "note_off channel=0 note=98 velocity=64 time=0\n",
      "note_on channel=0 note=99 velocity=55 time=0\n",
      "note_on channel=0 note=101 velocity=57 time=0\n",
      "note_off channel=0 note=82 velocity=64 time=1\n",
      "note_on channel=0 note=54 velocity=24 time=1\n",
      "note_off channel=0 note=102 velocity=64 time=0\n",
      "note_on channel=0 note=42 velocity=56 time=1\n",
      "note_off channel=0 note=43 velocity=64 time=0\n",
      "note_on channel=0 note=62 velocity=81 time=0\n",
      "note_off channel=0 note=63 velocity=64 time=0\n",
      "note_on channel=0 note=73 velocity=41 time=0\n",
      "note_on channel=0 note=78 velocity=19 time=0\n",
      "note_on channel=0 note=82 velocity=31 time=0\n",
      "note_off channel=0 note=93 velocity=64 time=0\n",
      "note_on channel=0 note=94 velocity=31 time=0\n",
      "note_on channel=0 note=80 velocity=85 time=1\n",
      "note_off channel=0 note=89 velocity=64 time=0\n",
      "note_off channel=0 note=91 velocity=64 time=0\n",
      "note_off channel=0 note=62 velocity=64 time=1\n",
      "note_on channel=0 note=63 velocity=77 time=0\n",
      "note_off channel=0 note=82 velocity=64 time=0\n",
      "note_on channel=0 note=89 velocity=66 time=0\n",
      "note_on channel=0 note=62 velocity=79 time=2\n",
      "note_off channel=0 note=63 velocity=64 time=0\n",
      "note_off channel=0 note=78 velocity=64 time=0\n",
      "note_on channel=0 note=91 velocity=37 time=0\n",
      "note_on channel=0 note=61 velocity=69 time=1\n",
      "note_off channel=0 note=62 velocity=64 time=0\n",
      "note_on channel=0 note=78 velocity=18 time=0\n",
      "note_on channel=0 note=82 velocity=58 time=0\n",
      "note_off channel=0 note=54 velocity=64 time=2\n",
      "note_off channel=0 note=61 velocity=64 time=0\n",
      "note_on channel=0 note=62 velocity=79 time=0\n",
      "note_on channel=0 note=77 velocity=24 time=0\n",
      "note_on channel=0 note=61 velocity=68 time=2\n",
      "note_off channel=0 note=62 velocity=64 time=0\n",
      "note_off channel=0 note=78 velocity=64 time=0\n",
      "note_on channel=0 note=78 velocity=21 time=1\n",
      "note_off channel=0 note=61 velocity=64 time=1\n",
      "note_on channel=0 note=62 velocity=76 time=0\n",
      "note_off channel=0 note=77 velocity=64 time=0\n",
      "note_off channel=0 note=68 velocity=64 time=1\n",
      "note_off channel=0 note=96 velocity=64 time=0\n",
      "note_on channel=0 note=97 velocity=65 time=0\n",
      "note_on channel=0 note=61 velocity=69 time=1\n",
      "note_off channel=0 note=62 velocity=64 time=0\n",
      "note_on channel=0 note=63 velocity=70 time=0\n",
      "note_off channel=0 note=71 velocity=64 time=0\n",
      "note_on channel=0 note=77 velocity=25 time=0\n",
      "note_off channel=0 note=91 velocity=64 time=0\n",
      "note_off channel=0 note=42 velocity=64 time=1\n",
      "note_off channel=0 note=61 velocity=64 time=0\n",
      "note_on channel=0 note=62 velocity=75 time=0\n",
      "note_off channel=0 note=63 velocity=64 time=0\n",
      "note_off channel=0 note=78 velocity=64 time=0\n",
      "note_on channel=0 note=61 velocity=67 time=1\n",
      "note_off channel=0 note=62 velocity=64 time=0\n",
      "note_on channel=0 note=63 velocity=83 time=0\n",
      "note_on channel=0 note=78 velocity=38 time=0\n",
      "note_on channel=0 note=88 velocity=35 time=0\n",
      "note_on channel=0 note=91 velocity=38 time=0\n",
      "note_on channel=0 note=93 velocity=22 time=0\n",
      "note_on channel=0 note=95 velocity=52 time=0\n",
      "note_on channel=0 note=102 velocity=47 time=0\n",
      "note_on channel=0 note=47 velocity=67 time=1\n",
      "note_off channel=0 note=61 velocity=64 time=0\n",
      "note_on channel=0 note=76 velocity=57 time=0\n",
      "note_off channel=0 note=77 velocity=64 time=0\n",
      "note_off channel=0 note=94 velocity=64 time=0\n",
      "note_on channel=0 note=100 velocity=37 time=0\n",
      "note_off channel=0 note=47 velocity=64 time=1\n",
      "note_on channel=0 note=48 velocity=84 time=0\n",
      "note_on channel=0 note=67 velocity=49 time=0\n",
      "note_off channel=0 note=101 velocity=64 time=0\n",
      "note_off channel=0 note=63 velocity=64 time=1\n",
      "note_on channel=0 note=64 velocity=79 time=0\n",
      "note_off channel=0 note=76 velocity=64 time=0\n",
      "note_on channel=0 note=77 velocity=33 time=0\n",
      "note_off channel=0 note=88 velocity=64 time=0\n",
      "note_off channel=0 note=90 velocity=64 time=0\n",
      "note_off channel=0 note=67 velocity=64 time=1\n",
      "note_off channel=0 note=78 velocity=64 time=0\n",
      "note_off channel=0 note=82 velocity=64 time=0\n",
      "note_on channel=0 note=90 velocity=35 time=0\n",
      "note_off channel=0 note=99 velocity=64 time=0\n",
      "note_off channel=0 note=48 velocity=64 time=1\n",
      "note_on channel=0 note=68 velocity=21 time=0\n",
      "note_off channel=0 note=77 velocity=64 time=0\n",
      "note_on channel=0 note=82 velocity=35 time=0\n",
      "note_off channel=0 note=91 velocity=64 time=1\n",
      "note_on channel=0 note=63 velocity=73 time=1\n",
      "note_off channel=0 note=64 velocity=64 time=0\n",
      "note_on channel=0 note=71 velocity=28 time=0\n",
      "note_on channel=0 note=91 velocity=36 time=0\n",
      "note_off channel=0 note=63 velocity=64 time=1\n",
      "note_on channel=0 note=64 velocity=77 time=0\n",
      "note_on channel=0 note=88 velocity=29 time=1\n",
      "note_on channel=0 note=63 velocity=73 time=1\n",
      "note_off channel=0 note=64 velocity=64 time=0\n",
      "note_on channel=0 note=76 velocity=48 time=0\n",
      "note_on channel=0 note=87 velocity=26 time=0\n",
      "note_off channel=0 note=89 velocity=64 time=0\n",
      "note_off channel=0 note=100 velocity=64 time=0\n",
      "note_on channel=0 note=54 velocity=32 time=1\n",
      "note_off channel=0 note=63 velocity=64 time=0\n",
      "note_on channel=0 note=64 velocity=76 time=0\n",
      "note_off channel=0 note=91 velocity=64 time=0\n",
      "note_on channel=0 note=100 velocity=29 time=0\n",
      "note_on channel=0 note=75 velocity=48 time=1\n",
      "note_off channel=0 note=76 velocity=64 time=0\n",
      "note_on channel=0 note=44 velocity=35 time=1\n",
      "note_on channel=0 note=63 velocity=72 time=0\n",
      "note_off channel=0 note=64 velocity=64 time=0\n",
      "note_on channel=0 note=77 velocity=29 time=0\n",
      "note_on channel=0 note=94 velocity=36 time=0\n",
      "note_off channel=0 note=95 velocity=64 time=0\n",
      "note_on channel=0 note=99 velocity=27 time=0\n",
      "note_off channel=0 note=100 velocity=64 time=0\n",
      "note_off channel=0 note=63 velocity=64 time=1\n",
      "note_on channel=0 note=64 velocity=75 time=0\n",
      "note_off channel=0 note=102 velocity=64 time=0\n",
      "note_off channel=0 note=54 velocity=64 time=1\n",
      "note_off channel=0 note=77 velocity=64 time=0\n",
      "note_off channel=0 note=94 velocity=64 time=0\n",
      "note_on channel=0 note=95 velocity=48 time=0\n",
      "note_on channel=0 note=102 velocity=40 time=0\n",
      "note_on channel=0 note=54 velocity=30 time=1\n",
      "note_on channel=0 note=63 velocity=72 time=0\n",
      "note_off channel=0 note=64 velocity=64 time=0\n",
      "note_off channel=0 note=75 velocity=64 time=0\n",
      "note_on channel=0 note=76 velocity=52 time=0\n",
      "note_off channel=0 note=99 velocity=64 time=0\n",
      "note_on channel=0 note=43 velocity=23 time=1\n",
      "note_off channel=0 note=44 velocity=64 time=0\n",
      "note_off channel=0 note=63 velocity=64 time=0\n",
      "note_on channel=0 note=64 velocity=78 time=0\n",
      "note_off channel=0 note=54 velocity=64 time=1\n",
      "note_on channel=0 note=54 velocity=32 time=1\n",
      "note_off channel=0 note=43 velocity=64 time=1\n",
      "note_off channel=0 note=87 velocity=64 time=0\n",
      "note_off channel=0 note=54 velocity=64 time=1\n",
      "note_on channel=0 note=91 velocity=26 time=0\n",
      "note_off channel=0 note=68 velocity=64 time=1\n",
      "note_off channel=0 note=84 velocity=64 time=1\n",
      "note_on channel=0 note=87 velocity=40 time=0\n",
      "note_off channel=0 note=88 velocity=64 time=0\n",
      "note_on channel=0 note=89 velocity=71 time=0\n",
      "note_off channel=0 note=80 velocity=64 time=1\n",
      "note_off channel=0 note=82 velocity=64 time=1\n",
      "note_off channel=0 note=91 velocity=64 time=0\n",
      "note_on channel=0 note=82 velocity=34 time=2\n",
      "note_on channel=0 note=100 velocity=31 time=0\n",
      "note_on channel=0 note=91 velocity=33 time=1\n",
      "note_on channel=0 note=94 velocity=52 time=0\n",
      "note_off channel=0 note=102 velocity=64 time=0\n",
      "note_on channel=0 note=63 velocity=73 time=1\n",
      "note_off channel=0 note=64 velocity=64 time=0\n",
      "note_on channel=0 note=80 velocity=81 time=0\n",
      "note_off channel=0 note=95 velocity=64 time=0\n",
      "note_off channel=0 note=63 velocity=64 time=1\n",
      "note_on channel=0 note=64 velocity=68 time=0\n",
      "note_off channel=0 note=73 velocity=64 time=0\n",
      "note_on channel=0 note=84 velocity=42 time=0\n",
      "note_off channel=0 note=90 velocity=64 time=0\n",
      "note_off channel=0 note=100 velocity=64 time=0\n",
      "note_on channel=0 note=102 velocity=44 time=0\n",
      "note_on channel=0 note=46 velocity=69 time=1\n",
      "note_on channel=0 note=57 velocity=39 time=0\n",
      "note_on channel=0 note=63 velocity=72 time=0\n",
      "note_off channel=0 note=64 velocity=64 time=0\n",
      "note_on channel=0 note=69 velocity=43 time=0\n",
      "note_off channel=0 note=71 velocity=64 time=0\n",
      "note_on channel=0 note=77 velocity=42 time=0\n",
      "note_off channel=0 note=82 velocity=64 time=0\n",
      "note_on channel=0 note=90 velocity=49 time=0\n",
      "note_on channel=0 note=95 velocity=56 time=0\n",
      "note_on channel=0 note=45 velocity=76 time=1\n",
      "note_off channel=0 note=46 velocity=64 time=0\n",
      "note_off channel=0 note=63 velocity=64 time=0\n",
      "note_on channel=0 note=64 velocity=79 time=0\n",
      "note_on channel=0 note=67 velocity=44 time=0\n",
      "note_on channel=0 note=75 velocity=51 time=0\n",
      "note_off channel=0 note=76 velocity=64 time=0\n",
      "note_on channel=0 note=82 velocity=36 time=0\n",
      "note_on channel=0 note=85 velocity=31 time=0\n",
      "note_off channel=0 note=94 velocity=64 time=0\n",
      "note_on channel=0 note=44 velocity=77 time=1\n",
      "note_off channel=0 note=45 velocity=64 time=0\n",
      "note_off channel=0 note=57 velocity=64 time=0\n",
      "note_on channel=0 note=73 velocity=26 time=0\n",
      "note_off channel=0 note=77 velocity=64 time=0\n",
      "note_on channel=0 note=78 velocity=27 time=0\n",
      "note_off channel=0 note=93 velocity=64 time=0\n",
      "note_off channel=0 note=69 velocity=64 time=1\n",
      "note_off channel=0 note=75 velocity=64 time=0\n",
      "note_off channel=0 note=91 velocity=64 time=0\n",
      "note_on channel=0 note=91 velocity=24 time=1\n",
      "note_on channel=0 note=43 velocity=74 time=1\n",
      "note_off channel=0 note=44 velocity=64 time=0\n",
      "note_on channel=0 note=71 velocity=29 time=0\n",
      "note_off channel=0 note=90 velocity=64 time=0\n",
      "note_on channel=0 note=90 velocity=42 time=1\n",
      "note_off channel=0 note=67 velocity=64 time=1\n",
      "note_off channel=0 note=84 velocity=64 time=0\n",
      "note_on channel=0 note=54 velocity=14 time=1\n",
      "note_on channel=0 note=63 velocity=74 time=0\n",
      "note_off channel=0 note=64 velocity=64 time=0\n",
      "note_on channel=0 note=94 velocity=41 time=0\n",
      "note_off channel=0 note=95 velocity=64 time=0\n",
      "note_off channel=0 note=102 velocity=64 time=0\n",
      "note_off channel=0 note=54 velocity=64 time=3\n",
      "note_off channel=0 note=43 velocity=64 time=1\n",
      "note_on channel=0 note=44 velocity=28 time=0\n",
      "note_off channel=0 note=78 velocity=64 time=0\n",
      "note_off channel=0 note=94 velocity=64 time=0\n",
      "note_on channel=0 note=95 velocity=56 time=0\n",
      "note_on channel=0 note=102 velocity=52 time=0\n",
      "note_off channel=0 note=63 velocity=64 time=1\n",
      "note_on channel=0 note=64 velocity=91 time=0\n",
      "note_on channel=0 note=93 velocity=12 time=0\n",
      "note_off channel=0 note=44 velocity=64 time=2\n",
      "note_off channel=0 note=89 velocity=64 time=4\n",
      "note_off channel=0 note=97 velocity=64 time=4\n",
      "note_on channel=0 note=98 velocity=52 time=0\n",
      "note_off channel=0 note=73 velocity=64 time=2\n",
      "note_on channel=0 note=97 velocity=52 time=0\n",
      "note_off channel=0 note=98 velocity=64 time=0\n",
      "note_on channel=0 note=68 velocity=37 time=2\n",
      "note_on channel=0 note=47 velocity=63 time=1\n",
      "note_on channel=0 note=77 velocity=35 time=0\n",
      "note_on channel=0 note=89 velocity=61 time=0\n",
      "note_off channel=0 note=91 velocity=64 time=0\n",
      "note_on channel=0 note=57 velocity=41 time=1\n",
      "note_off channel=0 note=68 velocity=64 time=0\n",
      "note_on channel=0 note=73 velocity=36 time=0\n",
      "note_off channel=0 note=82 velocity=64 time=0\n",
      "note_on channel=0 note=83 velocity=35 time=0\n",
      "note_on channel=0 note=91 velocity=28 time=0\n",
      "note_on channel=0 note=45 velocity=76 time=1\n",
      "note_off channel=0 note=47 velocity=64 time=0\n",
      "note_on channel=0 note=68 velocity=57 time=0\n",
      "note_off channel=0 note=77 velocity=64 time=0\n",
      "note_on channel=0 note=82 velocity=35 time=0\n",
      "note_on channel=0 note=44 velocity=78 time=1\n",
      "note_off channel=0 note=45 velocity=64 time=0\n",
      "note_off channel=0 note=57 velocity=64 time=0\n",
      "note_off channel=0 note=83 velocity=64 time=0\n",
      "note_off channel=0 note=97 velocity=64 time=0\n",
      "note_on channel=0 note=98 velocity=47 time=0\n",
      "note_off channel=0 note=68 velocity=64 time=1\n",
      "note_off channel=0 note=93 velocity=64 time=1\n",
      "note_on channel=0 note=97 velocity=35 time=0\n",
      "note_off channel=0 note=98 velocity=64 time=0\n",
      "note_on channel=0 note=68 velocity=30 time=2\n",
      "note_off channel=0 note=91 velocity=64 time=0\n",
      "note_off channel=0 note=64 velocity=64 time=1\n",
      "note_on channel=0 note=65 velocity=53 time=0\n",
      "note_on channel=0 note=91 velocity=25 time=0\n",
      "note_off channel=0 note=95 velocity=64 time=0\n",
      "note_on channel=0 note=43 velocity=69 time=1\n",
      "note_off channel=0 note=44 velocity=64 time=0\n",
      "note_off channel=0 note=73 velocity=64 time=0\n",
      "note_off channel=0 note=97 velocity=64 time=0\n",
      "note_on channel=0 note=73 velocity=67 time=1\n",
      "note_off channel=0 note=102 velocity=64 time=0\n",
      "note_on channel=0 note=42 velocity=61 time=1\n",
      "note_off channel=0 note=43 velocity=64 time=0\n",
      "note_on channel=0 note=61 velocity=63 time=0\n",
      "note_on channel=0 note=75 velocity=30 time=0\n",
      "note_off channel=0 note=71 velocity=64 time=1\n",
      "note_off channel=0 note=91 velocity=64 time=0\n",
      "note_off channel=0 note=42 velocity=64 time=1\n",
      "note_off channel=0 note=82 velocity=64 time=1\n",
      "note_on channel=0 note=83 velocity=52 time=0\n",
      "note_on channel=0 note=47 velocity=65 time=1\n",
      "note_off channel=0 note=47 velocity=64 time=1\n",
      "note_on channel=0 note=48 velocity=66 time=0\n",
      "note_on channel=0 note=47 velocity=71 time=2\n",
      "note_off channel=0 note=48 velocity=64 time=0\n",
      "note_off channel=0 note=68 velocity=64 time=0\n",
      "note_off channel=0 note=47 velocity=64 time=1\n",
      "note_on channel=0 note=48 velocity=68 time=0\n",
      "note_on channel=0 note=68 velocity=38 time=0\n",
      "note_on channel=0 note=91 velocity=33 time=0\n",
      "note_on channel=0 note=93 velocity=11 time=0\n",
      "note_off channel=0 note=48 velocity=64 time=1\n",
      "note_on channel=0 note=49 velocity=68 time=0\n",
      "note_off channel=0 note=80 velocity=64 time=0\n",
      "note_off channel=0 note=49 velocity=64 time=1\n",
      "note_on channel=0 note=50 velocity=76 time=0\n",
      "note_off channel=0 note=50 velocity=64 time=1\n",
      "note_on channel=0 note=53 velocity=72 time=0\n",
      "note_off channel=0 note=68 velocity=64 time=0\n",
      "note_on channel=0 note=71 velocity=21 time=0\n",
      "note_off channel=0 note=90 velocity=64 time=0\n",
      "note_off channel=0 note=53 velocity=64 time=3\n",
      "note_off channel=0 note=61 velocity=64 time=0\n",
      "note_on channel=0 note=53 velocity=57 time=1\n",
      "note_off channel=0 note=93 velocity=64 time=0\n",
      "note_on channel=0 note=64 velocity=82 time=3\n",
      "note_off channel=0 note=65 velocity=64 time=0\n",
      "note_off channel=0 note=75 velocity=64 time=0\n",
      "note_off channel=0 note=53 velocity=64 time=1\n",
      "note_off channel=0 note=71 velocity=64 time=0\n",
      "note_on channel=0 note=80 velocity=46 time=0\n",
      "note_on channel=0 note=90 velocity=36 time=0\n",
      "note_on channel=0 note=45 velocity=77 time=1\n",
      "note_on channel=0 note=53 velocity=49 time=0\n",
      "note_on channel=0 note=67 velocity=60 time=0\n",
      "note_on channel=0 note=71 velocity=29 time=0\n",
      "note_off channel=0 note=85 velocity=64 time=0\n",
      "note_off channel=0 note=91 velocity=64 time=1\n",
      "note_on channel=0 note=44 velocity=78 time=1\n",
      "note_off channel=0 note=45 velocity=64 time=0\n",
      "note_off channel=0 note=53 velocity=64 time=0\n",
      "note_on channel=0 note=55 velocity=44 time=0\n",
      "note_on channel=0 note=63 velocity=68 time=0\n",
      "note_off channel=0 note=64 velocity=64 time=0\n",
      "note_off channel=0 note=67 velocity=64 time=1\n",
      "note_on channel=0 note=77 velocity=36 time=0\n",
      "note_off channel=0 note=55 velocity=64 time=1\n",
      "note_off channel=0 note=90 velocity=64 time=0\n",
      "note_on channel=0 note=91 velocity=59 time=0\n",
      "note_off channel=0 note=44 velocity=64 time=1\n",
      "note_on channel=0 note=45 velocity=75 time=0\n",
      "note_off channel=0 note=63 velocity=64 time=0\n",
      "note_off channel=0 note=71 velocity=64 time=0\n",
      "note_on channel=0 note=44 velocity=70 time=2\n",
      "note_off channel=0 note=45 velocity=64 time=0\n",
      "note_on channel=0 note=61 velocity=75 time=0\n",
      "note_on channel=0 note=71 velocity=20 time=0\n",
      "note_off channel=0 note=44 velocity=64 time=2\n",
      "note_on channel=0 note=42 velocity=58 time=1\n",
      "note_on channel=0 note=75 velocity=17 time=0\n",
      "note_off channel=0 note=42 velocity=64 time=2\n",
      "note_off channel=0 note=87 velocity=64 time=1\n",
      "note_on channel=0 note=48 velocity=66 time=1\n",
      "note_on channel=0 note=67 velocity=33 time=1\n",
      "note_off channel=0 note=75 velocity=64 time=0\n",
      "note_on channel=0 note=79 velocity=103 time=0\n",
      "note_on channel=0 note=87 velocity=14 time=0\n",
      "note_on channel=0 note=47 velocity=72 time=1\n",
      "note_off channel=0 note=48 velocity=64 time=0\n",
      "note_off channel=0 note=71 velocity=64 time=0\n",
      "note_on channel=0 note=82 velocity=31 time=0\n",
      "note_off channel=0 note=83 velocity=64 time=0\n",
      "note_on channel=0 note=84 velocity=54 time=0\n",
      "note_on channel=0 note=100 velocity=26 time=0\n",
      "note_on channel=0 note=60 velocity=73 time=1\n",
      "note_off channel=0 note=61 velocity=64 time=0\n",
      "note_off channel=0 note=80 velocity=64 time=0\n",
      "note_on channel=0 note=81 velocity=26 time=0\n",
      "note_on channel=0 note=83 velocity=37 time=0\n",
      "note_on channel=0 note=88 velocity=65 time=0\n",
      "note_off channel=0 note=47 velocity=64 time=1\n",
      "note_on channel=0 note=48 velocity=67 time=0\n",
      "note_on channel=0 note=65 velocity=21 time=0\n",
      "note_on channel=0 note=72 velocity=81 time=0\n",
      "note_off channel=0 note=73 velocity=64 time=0\n",
      "note_on channel=0 note=75 velocity=13 time=0\n",
      "note_on channel=0 note=94 velocity=42 time=0\n",
      "note_off channel=0 note=48 velocity=64 time=1\n",
      "note_on channel=0 note=50 velocity=76 time=0\n",
      "note_off channel=0 note=67 velocity=64 time=0\n",
      "note_off channel=0 note=82 velocity=64 time=0\n",
      "note_off channel=0 note=50 velocity=64 time=1\n",
      "note_on channel=0 note=53 velocity=74 time=0\n",
      "note_off channel=0 note=87 velocity=64 time=0\n",
      "note_on channel=0 note=98 velocity=33 time=0\n",
      "note_off channel=0 note=65 velocity=64 time=1\n",
      "note_on channel=0 note=93 velocity=52 time=0\n",
      "note_off channel=0 note=94 velocity=64 time=0\n",
      "note_off channel=0 note=100 velocity=64 time=0\n",
      "note_on channel=0 note=59 velocity=51 time=1\n",
      "note_off channel=0 note=60 velocity=64 time=0\n",
      "note_off channel=0 note=83 velocity=64 time=0\n",
      "note_on channel=0 note=87 velocity=64 time=0\n",
      "note_off channel=0 note=88 velocity=64 time=0\n",
      "note_on channel=0 note=90 velocity=14 time=0\n",
      "note_off channel=0 note=53 velocity=64 time=1\n",
      "note_on channel=0 note=65 velocity=23 time=0\n",
      "note_off channel=0 note=75 velocity=64 time=0\n",
      "note_off channel=0 note=81 velocity=64 time=0\n",
      "note_on channel=0 note=53 velocity=55 time=1\n",
      "note_off channel=0 note=59 velocity=64 time=0\n",
      "note_on channel=0 note=60 velocity=68 time=0\n",
      "note_off channel=0 note=77 velocity=64 time=0\n",
      "note_on channel=0 note=88 velocity=63 time=0\n",
      "note_on channel=0 note=77 velocity=36 time=1\n",
      "note_on channel=0 note=82 velocity=26 time=0\n",
      "note_off channel=0 note=87 velocity=64 time=0\n",
      "note_off channel=0 note=90 velocity=64 time=0\n",
      "note_on channel=0 note=94 velocity=54 time=0\n",
      "note_on channel=0 note=102 velocity=55 time=0\n",
      "note_off channel=0 note=53 velocity=64 time=1\n",
      "note_off channel=0 note=65 velocity=64 time=0\n",
      "note_off channel=0 note=72 velocity=64 time=0\n",
      "note_on channel=0 note=73 velocity=88 time=0\n",
      "note_on channel=0 note=80 velocity=63 time=0\n",
      "note_on channel=0 note=87 velocity=45 time=0\n",
      "note_on channel=0 note=95 velocity=56 time=0\n",
      "note_off channel=0 note=60 velocity=64 time=1\n",
      "note_on channel=0 note=61 velocity=78 time=0\n",
      "note_on channel=0 note=67 velocity=43 time=0\n",
      "note_on channel=0 note=71 velocity=38 time=0\n",
      "note_off channel=0 note=88 velocity=64 time=0\n",
      "note_on channel=0 note=90 velocity=64 time=0\n",
      "note_on channel=0 note=48 velocity=82 time=1\n",
      "note_off channel=0 note=73 velocity=64 time=0\n",
      "note_on channel=0 note=74 velocity=93 time=0\n",
      "note_off channel=0 note=80 velocity=64 time=0\n",
      "note_on channel=0 note=81 velocity=80 time=0\n",
      "note_off channel=0 note=82 velocity=64 time=0\n",
      "note_off channel=0 note=84 velocity=64 time=0\n",
      "note_off channel=0 note=87 velocity=64 time=0\n",
      "note_on channel=0 note=88 velocity=45 time=0\n",
      "note_off channel=0 note=61 velocity=64 time=1\n",
      "note_on channel=0 note=62 velocity=75 time=0\n",
      "note_off channel=0 note=77 velocity=64 time=0\n",
      "note_on channel=0 note=82 velocity=77 time=0\n",
      "note_on channel=0 note=84 velocity=52 time=0\n",
      "note_on channel=0 note=87 velocity=86 time=0\n",
      "note_off channel=0 note=91 velocity=64 time=0\n",
      "note_on channel=0 note=56 velocity=38 time=1\n",
      "note_off channel=0 note=62 velocity=64 time=0\n",
      "note_on channel=0 note=63 velocity=62 time=0\n",
      "note_off channel=0 note=67 velocity=64 time=0\n",
      "note_off channel=0 note=74 velocity=64 time=0\n",
      "note_on channel=0 note=75 velocity=88 time=0\n",
      "note_on channel=0 note=80 velocity=83 time=0\n",
      "note_off channel=0 note=81 velocity=64 time=0\n",
      "note_off channel=0 note=90 velocity=64 time=0\n",
      "note_on channel=0 note=38 velocity=38 time=1\n",
      "note_on channel=0 note=47 velocity=79 time=0\n",
      "note_off channel=0 note=48 velocity=64 time=0\n",
      "note_on channel=0 note=86 velocity=52 time=0\n",
      "note_on channel=0 note=90 velocity=38 time=0\n",
      "note_off channel=0 note=56 velocity=64 time=1\n",
      "note_off channel=0 note=71 velocity=64 time=0\n",
      "note_off channel=0 note=88 velocity=64 time=0\n",
      "note_off channel=0 note=38 velocity=64 time=1\n",
      "note_off channel=0 note=47 velocity=64 time=0\n",
      "note_off channel=0 note=82 velocity=64 time=0\n",
      "note_on channel=0 note=83 velocity=81 time=0\n",
      "note_off channel=0 note=84 velocity=64 time=0\n",
      "note_on channel=0 note=85 velocity=38 time=0\n",
      "note_off channel=0 note=98 velocity=64 time=0\n",
      "note_on channel=0 note=47 velocity=65 time=1\n",
      "note_on channel=0 note=71 velocity=49 time=0\n",
      "note_off channel=0 note=75 velocity=64 time=0\n",
      "note_on channel=0 note=76 velocity=84 time=0\n",
      "note_off channel=0 note=79 velocity=64 time=0\n",
      "note_off channel=0 note=87 velocity=64 time=0\n",
      "note_off channel=0 note=94 velocity=64 time=0\n",
      "note_off channel=0 note=47 velocity=64 time=1\n",
      "note_on channel=0 note=68 velocity=39 time=0\n",
      "note_on channel=0 note=75 velocity=92 time=0\n",
      "note_off channel=0 note=76 velocity=64 time=0\n",
      "note_on channel=0 note=82 velocity=81 time=0\n",
      "note_off channel=0 note=83 velocity=64 time=0\n",
      "note_off channel=0 note=90 velocity=64 time=0\n",
      "note_off channel=0 note=95 velocity=64 time=0\n",
      "note_on channel=0 note=45 velocity=58 time=1\n",
      "note_off channel=0 note=85 velocity=64 time=0\n",
      "note_on channel=0 note=95 velocity=12 time=1\n",
      "note_on channel=0 note=100 velocity=46 time=0\n",
      "note_on channel=0 note=62 velocity=66 time=1\n",
      "note_off channel=0 note=63 velocity=64 time=0\n",
      "note_on channel=0 note=74 velocity=93 time=0\n",
      "note_off channel=0 note=75 velocity=64 time=0\n",
      "note_on channel=0 note=77 velocity=32 time=0\n",
      "note_off channel=0 note=86 velocity=64 time=0\n",
      "note_on channel=0 note=90 velocity=70 time=0\n",
      "note_on channel=0 note=96 velocity=31 time=0\n",
      "note_on channel=0 note=81 velocity=78 time=1\n",
      "note_on channel=0 note=88 velocity=32 time=0\n",
      "note_on channel=0 note=44 velocity=47 time=1\n",
      "note_off channel=0 note=45 velocity=64 time=0\n",
      "note_on channel=0 note=55 velocity=32 time=0\n",
      "note_off channel=0 note=77 velocity=64 time=0\n",
      "note_off channel=0 note=82 velocity=64 time=0\n",
      "note_on channel=0 note=83 velocity=59 time=0\n",
      "note_on channel=0 note=85 velocity=13 time=0\n",
      "note_off channel=0 note=95 velocity=64 time=0\n",
      "note_off channel=0 note=62 velocity=64 time=1\n",
      "note_on channel=0 note=63 velocity=55 time=0\n",
      "note_off channel=0 note=74 velocity=64 time=0\n",
      "note_on channel=0 note=75 velocity=90 time=0\n",
      "note_off channel=0 note=81 velocity=64 time=0\n",
      "note_on channel=0 note=82 velocity=83 time=0\n",
      "note_off channel=0 note=88 velocity=64 time=0\n",
      "note_off channel=0 note=93 velocity=64 time=0\n",
      "note_off channel=0 note=55 velocity=64 time=1\n",
      "note_off channel=0 note=83 velocity=64 time=0\n",
      "note_on channel=0 note=91 velocity=76 time=0\n",
      "note_on channel=0 note=54 velocity=23 time=1\n",
      "note_off channel=0 note=63 velocity=64 time=0\n",
      "note_on channel=0 note=64 velocity=57 time=0\n",
      "note_on channel=0 note=83 velocity=86 time=0\n",
      "note_on channel=0 note=88 velocity=79 time=0\n",
      "note_off channel=0 note=44 velocity=64 time=1\n",
      "note_on channel=0 note=76 velocity=95 time=0\n",
      "note_on channel=0 note=81 velocity=78 time=0\n",
      "note_off channel=0 note=82 velocity=64 time=0\n",
      "note_off channel=0 note=85 velocity=64 time=0\n",
      "note_off channel=0 note=90 velocity=64 time=0\n",
      "note_off channel=0 note=96 velocity=64 time=0\n",
      "note_on channel=0 note=42 velocity=33 time=1\n",
      "note_off channel=0 note=64 velocity=64 time=0\n",
      "note_off channel=0 note=81 velocity=64 time=0\n",
      "note_on channel=0 note=82 velocity=68 time=0\n",
      "note_off channel=0 note=89 velocity=64 time=0\n",
      "note_on channel=0 note=74 velocity=55 time=1\n",
      "note_off channel=0 note=75 velocity=64 time=0\n",
      "note_on channel=0 note=84 velocity=89 time=0\n",
      "note_off channel=0 note=42 velocity=64 time=1\n",
      "note_off channel=0 note=54 velocity=64 time=0\n",
      "note_on channel=0 note=90 velocity=25 time=0\n",
      "note_off channel=0 note=82 velocity=64 time=1\n",
      "note_off channel=0 note=83 velocity=64 time=0\n",
      "note_on channel=0 note=73 velocity=29 time=1\n",
      "note_off channel=0 note=74 velocity=64 time=0\n",
      "note_on channel=0 note=83 velocity=93 time=0\n",
      "note_off channel=0 note=84 velocity=64 time=0\n",
      "note_off channel=0 note=91 velocity=64 time=0\n",
      "note_on channel=0 note=64 velocity=55 time=1\n",
      "note_on channel=0 note=75 velocity=89 time=1\n",
      "note_off channel=0 note=90 velocity=64 time=0\n",
      "note_on channel=0 note=97 velocity=39 time=0\n",
      "note_on channel=0 note=63 velocity=63 time=1\n",
      "note_off channel=0 note=64 velocity=64 time=0\n",
      "note_off channel=0 note=73 velocity=64 time=0\n",
      "note_off channel=0 note=76 velocity=64 time=0\n",
      "note_on channel=0 note=82 velocity=79 time=0\n",
      "note_on channel=0 note=91 velocity=90 time=0\n",
      "note_on channel=0 note=101 velocity=43 time=0\n",
      "note_on channel=0 note=42 velocity=15 time=1\n",
      "note_off channel=0 note=83 velocity=64 time=1\n",
      "note_off channel=0 note=88 velocity=64 time=0\n",
      "note_on channel=0 note=89 velocity=37 time=0\n",
      "note_on channel=0 note=73 velocity=24 time=1\n",
      "note_on channel=0 note=88 velocity=66 time=0\n",
      "note_off channel=0 note=42 velocity=64 time=1\n",
      "note_off channel=0 note=89 velocity=64 time=0\n",
      "note_off channel=0 note=63 velocity=64 time=1\n",
      "note_on channel=0 note=64 velocity=50 time=0\n",
      "note_off channel=0 note=82 velocity=64 time=0\n",
      "note_on channel=0 note=83 velocity=80 time=0\n",
      "note_on channel=0 note=85 velocity=41 time=0\n",
      "note_on channel=0 note=89 velocity=79 time=0\n",
      "note_off channel=0 note=101 velocity=64 time=0\n",
      "note_on channel=0 note=62 velocity=57 time=1\n",
      "note_off channel=0 note=73 velocity=64 time=0\n",
      "note_on channel=0 note=77 velocity=99 time=0\n",
      "note_on channel=0 note=96 velocity=46 time=0\n",
      "note_off channel=0 note=97 velocity=64 time=0\n",
      "note_on channel=0 note=98 velocity=45 time=0\n",
      "note_on channel=0 note=45 velocity=70 time=1\n",
      "note_off channel=0 note=64 velocity=64 time=0\n",
      "note_off channel=0 note=68 velocity=64 time=0\n",
      "note_on channel=0 note=69 velocity=50 time=0\n",
      "note_off channel=0 note=75 velocity=64 time=0\n",
      "note_on channel=0 note=82 velocity=47 time=0\n",
      "note_on channel=0 note=90 velocity=36 time=0\n",
      "note_on channel=0 note=93 velocity=64 time=0\n",
      "note_on channel=0 note=44 velocity=73 time=1\n",
      "note_off channel=0 note=45 velocity=64 time=0\n",
      "note_off channel=0 note=62 velocity=64 time=0\n",
      "note_off channel=0 note=71 velocity=64 time=0\n",
      "note_off channel=0 note=85 velocity=64 time=0\n",
      "note_on channel=0 note=64 velocity=40 time=1\n",
      "note_on channel=0 note=71 velocity=39 time=0\n",
      "note_on channel=0 note=74 velocity=38 time=0\n",
      "note_off channel=0 note=82 velocity=64 time=0\n",
      "note_on channel=0 note=85 velocity=62 time=0\n",
      "note_off channel=0 note=90 velocity=64 time=0\n",
      "note_on channel=0 note=65 velocity=42 time=1\n",
      "note_off channel=0 note=69 velocity=64 time=0\n",
      "note_on channel=0 note=81 velocity=35 time=0\n",
      "note_on channel=0 note=84 velocity=47 time=0\n",
      "note_off channel=0 note=88 velocity=64 time=0\n",
      "note_on channel=0 note=90 velocity=77 time=0\n",
      "note_off channel=0 note=91 velocity=64 time=0\n",
      "note_on channel=0 note=103 velocity=34 time=0\n",
      "note_on channel=0 note=61 velocity=35 time=1\n",
      "note_off channel=0 note=64 velocity=64 time=0\n",
      "note_on channel=0 note=67 velocity=62 time=0\n",
      "note_on channel=0 note=70 velocity=40 time=0\n",
      "note_off channel=0 note=71 velocity=64 time=0\n",
      "note_off channel=0 note=74 velocity=64 time=0\n",
      "note_on channel=0 note=79 velocity=96 time=0\n",
      "note_on channel=0 note=86 velocity=61 time=0\n",
      "note_on channel=0 note=88 velocity=33 time=0\n",
      "note_off channel=0 note=89 velocity=64 time=0\n",
      "note_on channel=0 note=94 velocity=35 time=0\n",
      "note_off channel=0 note=65 velocity=64 time=1\n",
      "note_off channel=0 note=81 velocity=64 time=0\n",
      "note_on channel=0 note=87 velocity=30 time=0\n",
      "note_off channel=0 note=96 velocity=64 time=0\n",
      "note_on channel=0 note=43 velocity=66 time=1\n",
      "note_off channel=0 note=44 velocity=64 time=0\n",
      "note_off channel=0 note=61 velocity=64 time=0\n",
      "note_off channel=0 note=70 velocity=64 time=0\n",
      "note_on channel=0 note=71 velocity=49 time=0\n",
      "note_off channel=0 note=77 velocity=64 time=0\n",
      "note_off channel=0 note=88 velocity=64 time=0\n",
      "note_off channel=0 note=93 velocity=64 time=0\n",
      "note_on channel=0 note=61 velocity=33 time=1\n",
      "note_off channel=0 note=84 velocity=64 time=0\n",
      "note_off channel=0 note=85 velocity=64 time=0\n",
      "note_on channel=0 note=93 velocity=49 time=0\n",
      "note_off channel=0 note=102 velocity=64 time=0\n",
      "note_off channel=0 note=67 velocity=64 time=1\n",
      "note_on channel=0 note=85 velocity=58 time=0\n",
      "note_on channel=0 note=96 velocity=21 time=0\n",
      "note_on channel=0 note=65 velocity=58 time=1\n",
      "note_on channel=0 note=77 velocity=87 time=0\n",
      "note_off channel=0 note=94 velocity=64 time=0\n",
      "note_off channel=0 note=98 velocity=64 time=0\n",
      "note_on channel=0 note=101 velocity=38 time=0\n",
      "note_off channel=0 note=103 velocity=64 time=0\n",
      "note_off channel=0 note=43 velocity=64 time=1\n",
      "note_off channel=0 note=61 velocity=64 time=0\n",
      "note_on channel=0 note=67 velocity=49 time=0\n",
      "note_off channel=0 note=87 velocity=64 time=0\n",
      "note_on channel=0 note=88 velocity=42 time=0\n",
      "note_on channel=0 note=94 velocity=46 time=0\n",
      "note_off channel=0 note=65 velocity=64 time=1\n",
      "note_on channel=0 note=75 velocity=89 time=0\n",
      "note_on channel=0 note=82 velocity=77 time=0\n",
      "note_off channel=0 note=86 velocity=64 time=0\n",
      "note_on channel=0 note=63 velocity=53 time=1\n",
      "note_off channel=0 note=77 velocity=64 time=0\n",
      "note_on channel=0 note=78 velocity=63 time=0\n",
      "note_off channel=0 note=83 velocity=64 time=0\n",
      "note_off channel=0 note=96 velocity=64 time=0\n",
      "note_off channel=0 note=67 velocity=64 time=1\n",
      "note_on channel=0 note=68 velocity=59 time=0\n",
      "note_off channel=0 note=79 velocity=64 time=0\n",
      "note_on channel=0 note=83 velocity=50 time=0\n",
      "note_on channel=0 note=84 velocity=32 time=0\n",
      "note_off channel=0 note=93 velocity=64 time=0\n",
      "note_off channel=0 note=100 velocity=64 time=1\n",
      "note_off channel=0 note=84 velocity=64 time=1\n",
      "note_off channel=0 note=88 velocity=64 time=0\n",
      "note_off channel=0 note=83 velocity=64 time=1\n",
      "note_on channel=0 note=89 velocity=12 time=0\n",
      "note_off channel=0 note=90 velocity=64 time=0\n",
      "note_off channel=0 note=78 velocity=64 time=1\n",
      "note_off channel=0 note=63 velocity=64 time=1\n",
      "note_on channel=0 note=64 velocity=61 time=0\n",
      "note_on channel=0 note=78 velocity=27 time=0\n",
      "note_on channel=0 note=102 velocity=48 time=0\n",
      "note_on channel=0 note=73 velocity=18 time=1\n",
      "note_on channel=0 note=76 velocity=73 time=0\n",
      "note_off channel=0 note=82 velocity=64 time=0\n",
      "note_on channel=0 note=83 velocity=68 time=0\n",
      "note_off channel=0 note=94 velocity=64 time=0\n",
      "note_off channel=0 note=101 velocity=64 time=0\n",
      "note_on channel=0 note=63 velocity=58 time=1\n",
      "note_off channel=0 note=64 velocity=64 time=0\n",
      "note_off channel=0 note=76 velocity=64 time=0\n",
      "note_on channel=0 note=82 velocity=78 time=0\n",
      "note_off channel=0 note=83 velocity=64 time=0\n",
      "note_on channel=0 note=101 velocity=50 time=0\n",
      "note_off channel=0 note=102 velocity=64 time=0\n",
      "note_off channel=0 note=78 velocity=64 time=1\n",
      "note_off channel=0 note=89 velocity=64 time=0\n",
      "note_off channel=0 note=73 velocity=64 time=1\n",
      "note_on channel=0 note=102 velocity=20 time=0\n",
      "note_off channel=0 note=63 velocity=64 time=2\n",
      "note_on channel=0 note=73 velocity=35 time=0\n",
      "note_on channel=0 note=88 velocity=59 time=0\n",
      "note_off channel=0 note=82 velocity=64 time=1\n",
      "note_on channel=0 note=83 velocity=72 time=0\n",
      "note_on channel=0 note=64 velocity=49 time=1\n",
      "note_on channel=0 note=77 velocity=87 time=0\n",
      "note_off channel=0 note=85 velocity=64 time=0\n",
      "note_on channel=0 note=98 velocity=12 time=0\n",
      "note_on channel=0 note=65 velocity=72 time=1\n",
      "note_off channel=0 note=80 velocity=64 time=0\n",
      "note_on channel=0 note=82 velocity=35 time=0\n",
      "note_on channel=0 note=93 velocity=51 time=0\n",
      "note_on channel=0 note=96 velocity=28 time=0\n",
      "note_off channel=0 note=102 velocity=64 time=0\n",
      "note_off channel=0 note=64 velocity=64 time=1\n",
      "note_off channel=0 note=75 velocity=64 time=0\n",
      "note_on channel=0 note=85 velocity=66 time=0\n",
      "note_on channel=0 note=45 velocity=77 time=1\n",
      "note_on channel=0 note=64 velocity=84 time=0\n",
      "note_off channel=0 note=65 velocity=64 time=0\n",
      "note_on channel=0 note=90 velocity=68 time=0\n",
      "note_on channel=0 note=94 velocity=39 time=0\n",
      "note_off channel=0 note=101 velocity=64 time=0\n",
      "note_off channel=0 note=68 velocity=64 time=1\n",
      "note_on channel=0 note=78 velocity=82 time=0\n",
      "note_off channel=0 note=82 velocity=64 time=0\n",
      "note_on channel=0 note=84 velocity=59 time=0\n",
      "note_off channel=0 note=93 velocity=64 time=0\n",
      "note_off channel=0 note=98 velocity=64 time=0\n",
      "note_on channel=0 note=44 velocity=78 time=1\n",
      "note_off channel=0 note=45 velocity=64 time=0\n",
      "note_on channel=0 note=63 velocity=68 time=0\n",
      "note_off channel=0 note=64 velocity=64 time=0\n",
      "note_on channel=0 note=67 velocity=51 time=0\n",
      "note_on channel=0 note=76 velocity=40 time=0\n",
      "note_off channel=0 note=77 velocity=64 time=0\n",
      "note_on channel=0 note=80 velocity=29 time=0\n",
      "note_on channel=0 note=91 velocity=58 time=0\n",
      "note_off channel=0 note=96 velocity=64 time=0\n",
      "note_on channel=0 note=82 velocity=43 time=1\n",
      "note_off channel=0 note=83 velocity=64 time=0\n",
      "note_off channel=0 note=88 velocity=64 time=0\n",
      "note_off channel=0 note=63 velocity=64 time=1\n",
      "note_off channel=0 note=67 velocity=64 time=0\n",
      "note_off channel=0 note=76 velocity=64 time=0\n",
      "note_on channel=0 note=89 velocity=54 time=0\n",
      "note_on channel=0 note=92 velocity=47 time=0\n",
      "note_on channel=0 note=93 velocity=44 time=0\n",
      "note_off channel=0 note=94 velocity=64 time=0\n",
      "note_on channel=0 note=99 velocity=19 time=0\n",
      "note_on channel=0 note=77 velocity=82 time=1\n",
      "note_off channel=0 note=80 velocity=64 time=0\n",
      "note_off channel=0 note=82 velocity=64 time=0\n",
      "note_on channel=0 note=87 velocity=58 time=0\n",
      "note_on channel=0 note=88 velocity=42 time=0\n",
      "note_off channel=0 note=90 velocity=64 time=0\n",
      "note_on channel=0 note=94 velocity=39 time=0\n",
      "note_off channel=0 note=44 velocity=64 time=1\n",
      "note_on channel=0 note=63 velocity=57 time=0\n",
      "note_on channel=0 note=68 velocity=39 time=0\n",
      "note_on channel=0 note=75 velocity=74 time=0\n",
      "note_off channel=0 note=78 velocity=64 time=0\n",
      "note_on channel=0 note=82 velocity=63 time=0\n",
      "note_on channel=0 note=83 velocity=63 time=0\n",
      "note_off channel=0 note=77 velocity=64 time=1\n",
      "note_on channel=0 note=78 velocity=48 time=0\n",
      "note_off channel=0 note=84 velocity=64 time=0\n",
      "note_off channel=0 note=93 velocity=64 time=0\n",
      "note_off channel=0 note=75 velocity=64 time=1\n",
      "note_on channel=0 note=76 velocity=76 time=0\n",
      "note_off channel=0 note=82 velocity=64 time=0\n",
      "note_on channel=0 note=84 velocity=31 time=0\n",
      "note_off channel=0 note=92 velocity=64 time=0\n",
      "note_on channel=0 note=61 velocity=61 time=1\n",
      "note_off channel=0 note=88 velocity=64 time=0\n",
      "note_off channel=0 note=94 velocity=64 time=0\n",
      "note_off channel=0 note=99 velocity=64 time=0\n",
      "note_on channel=0 note=102 velocity=48 time=0\n",
      "note_off channel=0 note=63 velocity=64 time=1\n",
      "note_on channel=0 note=64 velocity=57 time=0\n",
      "note_off channel=0 note=84 velocity=64 time=0\n",
      "note_on channel=0 note=92 velocity=67 time=0\n",
      "note_on channel=0 note=42 velocity=56 time=1\n",
      "note_on channel=0 note=75 velocity=49 time=0\n",
      "note_off channel=0 note=76 velocity=64 time=0\n",
      "note_off channel=0 note=78 velocity=64 time=0\n",
      "note_off channel=0 note=91 velocity=64 time=0\n",
      "note_on channel=0 note=98 velocity=17 time=0\n",
      "note_off channel=0 note=64 velocity=64 time=1\n",
      "note_on channel=0 note=78 velocity=25 time=0\n",
      "note_off channel=0 note=87 velocity=64 time=0\n",
      "note_off channel=0 note=42 velocity=64 time=1\n",
      "note_on channel=0 note=64 velocity=58 time=0\n",
      "note_off channel=0 note=75 velocity=64 time=0\n",
      "note_on channel=0 note=76 velocity=72 time=0\n",
      "note_off channel=0 note=85 velocity=64 time=0\n",
      "note_on channel=0 note=82 velocity=63 time=1\n",
      "note_off channel=0 note=89 velocity=64 time=0\n",
      "note_off channel=0 note=98 velocity=64 time=0\n",
      "note_on channel=0 note=48 velocity=72 time=1\n",
      "note_off channel=0 note=78 velocity=64 time=0\n",
      "note_off channel=0 note=83 velocity=64 time=0\n",
      "note_on channel=0 note=87 velocity=36 time=0\n",
      "note_off channel=0 note=61 velocity=64 time=1\n",
      "note_off channel=0 note=64 velocity=64 time=0\n",
      "note_off channel=0 note=82 velocity=64 time=0\n",
      "note_on channel=0 note=83 velocity=59 time=0\n",
      "note_on channel=0 note=64 velocity=58 time=1\n",
      "note_on channel=0 note=75 velocity=59 time=0\n",
      "note_off channel=0 note=76 velocity=64 time=0\n",
      "note_on channel=0 note=82 velocity=44 time=0\n",
      "note_off channel=0 note=83 velocity=64 time=1\n",
      "note_off channel=0 note=87 velocity=64 time=0\n",
      "note_on channel=0 note=89 velocity=32 time=0\n",
      "note_on channel=0 note=91 velocity=24 time=0\n",
      "note_off channel=0 note=48 velocity=64 time=1\n",
      "note_on channel=0 note=50 velocity=78 time=0\n",
      "note_off channel=0 note=82 velocity=64 time=0\n",
      "note_on channel=0 note=83 velocity=66 time=0\n",
      "note_off channel=0 note=50 velocity=64 time=1\n",
      "note_on channel=0 note=52 velocity=74 time=0\n",
      "note_off channel=0 note=75 velocity=64 time=0\n",
      "note_on channel=0 note=76 velocity=78 time=0\n",
      "note_off channel=0 note=52 velocity=64 time=1\n",
      "note_on channel=0 note=53 velocity=64 time=0\n",
      "note_off channel=0 note=89 velocity=64 time=0\n",
      "note_off channel=0 note=53 velocity=64 time=2\n",
      "note_on channel=0 note=82 velocity=61 time=0\n",
      "note_on channel=0 note=53 velocity=58 time=1\n",
      "note_off channel=0 note=91 velocity=64 time=0\n",
      "note_off channel=0 note=73 velocity=64 time=1\n",
      "note_on channel=0 note=75 velocity=80 time=0\n",
      "note_off channel=0 note=76 velocity=64 time=0\n",
      "note_on channel=0 note=91 velocity=86 time=0\n",
      "note_on channel=0 note=97 velocity=24 time=0\n",
      "note_on channel=0 note=63 velocity=55 time=1\n",
      "note_off channel=0 note=64 velocity=64 time=0\n",
      "note_off channel=0 note=83 velocity=64 time=0\n",
      "note_on channel=0 note=89 velocity=41 time=0\n",
      "note_off channel=0 note=102 velocity=64 time=0\n",
      "note_on channel=0 note=76 velocity=43 time=1\n",
      "note_on channel=0 note=84 velocity=28 time=0\n",
      "note_off channel=0 note=53 velocity=64 time=1\n",
      "note_on channel=0 note=62 velocity=68 time=0\n",
      "note_off channel=0 note=63 velocity=64 time=0\n",
      "note_off channel=0 note=68 velocity=64 time=0\n",
      "note_on channel=0 note=80 velocity=43 time=0\n",
      "note_on channel=0 note=90 velocity=40 time=0\n",
      "note_off channel=0 note=97 velocity=64 time=0\n",
      "note_on channel=0 note=45 velocity=76 time=1\n",
      "note_off channel=0 note=62 velocity=64 time=0\n",
      "note_on channel=0 note=64 velocity=84 time=0\n",
      "note_off channel=0 note=76 velocity=64 time=0\n",
      "note_on channel=0 note=63 velocity=84 time=1\n",
      "note_off channel=0 note=64 velocity=64 time=0\n",
      "note_on channel=0 note=68 velocity=50 time=0\n",
      "note_on channel=0 note=97 velocity=27 time=0\n",
      "note_on channel=0 note=44 velocity=79 time=1\n",
      "note_off channel=0 note=45 velocity=64 time=0\n",
      "note_off channel=0 note=71 velocity=64 time=0\n",
      "note_off channel=0 note=84 velocity=64 time=0\n",
      "note_off channel=0 note=92 velocity=64 time=0\n",
      "note_off channel=0 note=68 velocity=64 time=1\n",
      "note_on channel=0 note=68 velocity=33 time=1\n",
      "note_off channel=0 note=90 velocity=64 time=0\n",
      "note_on channel=0 note=77 velocity=39 time=1\n",
      "note_on channel=0 note=73 velocity=41 time=1\n",
      "note_on channel=0 note=84 velocity=22 time=0\n",
      "note_off channel=0 note=44 velocity=64 time=1\n",
      "note_off channel=0 note=68 velocity=64 time=0\n",
      "note_off channel=0 note=63 velocity=64 time=2\n",
      "note_on channel=0 note=43 velocity=61 time=1\n",
      "note_on channel=0 note=61 velocity=68 time=0\n",
      "note_on channel=0 note=65 velocity=49 time=0\n",
      "note_on channel=0 note=54 velocity=28 time=1\n",
      "note_off channel=0 note=65 velocity=64 time=1\n",
      "note_off channel=0 note=43 velocity=64 time=1\n",
      "note_off channel=0 note=54 velocity=64 time=1\n"
     ]
    },
    {
     "name": "stdout",
     "output_type": "stream",
     "text": [
      "note_off channel=0 note=61 velocity=64 time=0\n",
      "note_on channel=0 note=68 velocity=37 time=0\n",
      "note_on channel=0 note=61 velocity=67 time=1\n",
      "note_on channel=0 note=65 velocity=61 time=0\n",
      "note_off channel=0 note=97 velocity=64 time=0\n",
      "note_on channel=0 note=48 velocity=72 time=1\n",
      "note_off channel=0 note=61 velocity=64 time=0\n",
      "note_on channel=0 note=62 velocity=69 time=0\n",
      "note_off channel=0 note=73 velocity=64 time=0\n",
      "note_on channel=0 note=74 velocity=79 time=0\n",
      "note_off channel=0 note=75 velocity=64 time=0\n",
      "note_on channel=0 note=90 velocity=65 time=0\n",
      "note_on channel=0 note=47 velocity=75 time=1\n",
      "note_off channel=0 note=48 velocity=64 time=0\n",
      "note_on channel=0 note=81 velocity=58 time=0\n",
      "note_off channel=0 note=82 velocity=64 time=0\n",
      "note_on channel=0 note=88 velocity=36 time=0\n",
      "note_off channel=0 note=89 velocity=64 time=0\n",
      "note_on channel=0 note=95 velocity=21 time=0\n",
      "note_off channel=0 note=47 velocity=64 time=1\n",
      "note_on channel=0 note=48 velocity=71 time=0\n",
      "note_off channel=0 note=80 velocity=64 time=0\n",
      "note_on channel=0 note=82 velocity=40 time=0\n",
      "note_on channel=0 note=89 velocity=67 time=0\n",
      "note_off channel=0 note=90 velocity=64 time=0\n",
      "note_on channel=0 note=92 velocity=30 time=0\n",
      "note_off channel=0 note=48 velocity=64 time=1\n",
      "note_on channel=0 note=49 velocity=76 time=0\n",
      "note_on channel=0 note=75 velocity=44 time=0\n",
      "note_on channel=0 note=80 velocity=81 time=0\n",
      "note_off channel=0 note=81 velocity=64 time=0\n",
      "note_on channel=0 note=85 velocity=39 time=0\n",
      "note_off channel=0 note=88 velocity=64 time=0\n",
      "note_on channel=0 note=90 velocity=30 time=0\n",
      "note_off channel=0 note=49 velocity=64 time=1\n",
      "note_on channel=0 note=52 velocity=76 time=0\n",
      "note_on channel=0 note=61 velocity=76 time=0\n",
      "note_off channel=0 note=62 velocity=64 time=0\n",
      "note_off channel=0 note=74 velocity=64 time=0\n",
      "note_off channel=0 note=82 velocity=64 time=0\n",
      "note_off channel=0 note=52 velocity=64 time=1\n",
      "note_on channel=0 note=53 velocity=68 time=0\n",
      "note_off channel=0 note=75 velocity=64 time=0\n",
      "note_on channel=0 note=82 velocity=33 time=0\n",
      "note_off channel=0 note=90 velocity=64 time=0\n",
      "note_off channel=0 note=53 velocity=64 time=2\n",
      "note_on channel=0 note=90 velocity=50 time=0\n",
      "note_on channel=0 note=53 velocity=59 time=1\n",
      "note_off channel=0 note=95 velocity=64 time=0\n",
      "note_off channel=0 note=61 velocity=64 time=1\n",
      "note_on channel=0 note=83 velocity=44 time=0\n",
      "note_off channel=0 note=84 velocity=64 time=0\n",
      "note_on channel=0 note=88 velocity=43 time=0\n",
      "note_on channel=0 note=96 velocity=12 time=0\n",
      "note_on channel=0 note=59 velocity=57 time=1\n",
      "note_on channel=0 note=73 velocity=45 time=0\n",
      "note_off channel=0 note=77 velocity=64 time=0\n",
      "note_on channel=0 note=78 velocity=62 time=0\n",
      "note_off channel=0 note=82 velocity=64 time=0\n",
      "note_off channel=0 note=89 velocity=64 time=0\n",
      "note_on channel=0 note=93 velocity=30 time=0\n",
      "note_on channel=0 note=75 velocity=43 time=1\n",
      "note_on channel=0 note=89 velocity=67 time=0\n",
      "note_off channel=0 note=92 velocity=64 time=1\n",
      "note_on channel=0 note=48 velocity=87 time=1\n",
      "note_off channel=0 note=53 velocity=64 time=0\n",
      "note_off channel=0 note=59 velocity=64 time=0\n",
      "note_off channel=0 note=68 velocity=64 time=0\n",
      "note_off channel=0 note=73 velocity=64 time=0\n",
      "note_off channel=0 note=88 velocity=64 time=0\n",
      "note_on channel=0 note=100 velocity=12 time=0\n",
      "note_on channel=0 note=59 velocity=53 time=1\n",
      "note_on channel=0 note=72 velocity=49 time=0\n",
      "note_on channel=0 note=74 velocity=32 time=0\n",
      "note_on channel=0 note=94 velocity=19 time=0\n",
      "note_off channel=0 note=65 velocity=64 time=1\n",
      "note_on channel=0 note=67 velocity=29 time=0\n",
      "note_off channel=0 note=91 velocity=64 time=0\n",
      "note_off channel=0 note=59 velocity=64 time=1\n",
      "note_on channel=0 note=71 velocity=59 time=0\n",
      "note_off channel=0 note=72 velocity=64 time=0\n",
      "note_off channel=0 note=74 velocity=64 time=0\n",
      "note_off channel=0 note=78 velocity=64 time=0\n",
      "note_on channel=0 note=79 velocity=54 time=0\n",
      "note_on channel=0 note=82 velocity=45 time=0\n",
      "note_off channel=0 note=83 velocity=64 time=0\n",
      "note_on channel=0 note=84 velocity=34 time=0\n",
      "note_off channel=0 note=90 velocity=64 time=0\n",
      "note_off channel=0 note=96 velocity=64 time=0\n",
      "note_off channel=0 note=100 velocity=64 time=0\n",
      "note_off channel=0 note=48 velocity=64 time=1\n",
      "note_on channel=0 note=65 velocity=40 time=0\n",
      "note_off channel=0 note=67 velocity=64 time=0\n",
      "note_on channel=0 note=68 velocity=15 time=0\n",
      "note_off channel=0 note=75 velocity=64 time=0\n",
      "note_on channel=0 note=90 velocity=44 time=0\n",
      "note_on channel=0 note=47 velocity=67 time=1\n",
      "note_on channel=0 note=73 velocity=35 time=0\n",
      "note_on channel=0 note=78 velocity=61 time=0\n",
      "note_off channel=0 note=79 velocity=64 time=0\n",
      "note_off channel=0 note=94 velocity=64 time=0\n",
      "note_off channel=0 note=47 velocity=64 time=1\n",
      "note_off channel=0 note=84 velocity=64 time=0\n",
      "note_on channel=0 note=91 velocity=36 time=0\n",
      "note_off channel=0 note=68 velocity=64 time=1\n",
      "note_on channel=0 note=75 velocity=48 time=0\n",
      "note_off channel=0 note=89 velocity=64 time=0\n",
      "note_on channel=0 note=45 velocity=60 time=1\n",
      "note_on channel=0 note=70 velocity=68 time=0\n",
      "note_off channel=0 note=71 velocity=64 time=0\n",
      "note_on channel=0 note=77 velocity=73 time=0\n",
      "note_off channel=0 note=78 velocity=64 time=0\n",
      "note_on channel=0 note=58 velocity=58 time=1\n",
      "note_off channel=0 note=90 velocity=64 time=0\n",
      "note_on channel=0 note=90 velocity=55 time=1\n",
      "note_on channel=0 note=44 velocity=51 time=1\n",
      "note_off channel=0 note=45 velocity=64 time=0\n",
      "note_on channel=0 note=54 velocity=36 time=0\n",
      "note_off channel=0 note=58 velocity=64 time=0\n",
      "note_on channel=0 note=59 velocity=60 time=0\n",
      "note_off channel=0 note=65 velocity=64 time=0\n",
      "note_off channel=0 note=70 velocity=64 time=0\n",
      "note_on channel=0 note=71 velocity=67 time=0\n",
      "note_off channel=0 note=77 velocity=64 time=0\n",
      "note_on channel=0 note=78 velocity=69 time=0\n",
      "note_off channel=0 note=82 velocity=64 time=0\n",
      "note_off channel=0 note=85 velocity=64 time=0\n",
      "note_on channel=0 note=43 velocity=36 time=4\n",
      "note_off channel=0 note=44 velocity=64 time=0\n",
      "note_on channel=0 note=70 velocity=41 time=0\n",
      "note_off channel=0 note=71 velocity=64 time=1\n",
      "note_off channel=0 note=54 velocity=64 time=1\n",
      "note_off channel=0 note=70 velocity=64 time=0\n",
      "note_on channel=0 note=71 velocity=69 time=0\n",
      "note_on channel=0 note=54 velocity=29 time=1\n",
      "note_on channel=0 note=84 velocity=46 time=0\n",
      "note_off channel=0 note=43 velocity=64 time=2\n",
      "note_on channel=0 note=53 velocity=30 time=0\n",
      "note_off channel=0 note=54 velocity=64 time=0\n",
      "note_on channel=0 note=42 velocity=22 time=3\n",
      "note_off channel=0 note=53 velocity=64 time=0\n",
      "note_on channel=0 note=58 velocity=61 time=1\n",
      "note_off channel=0 note=59 velocity=64 time=0\n",
      "note_on channel=0 note=70 velocity=71 time=0\n",
      "note_off channel=0 note=71 velocity=64 time=0\n",
      "note_on channel=0 note=77 velocity=73 time=1\n",
      "note_off channel=0 note=78 velocity=64 time=0\n",
      "note_on channel=0 note=86 velocity=12 time=0\n",
      "note_off channel=0 note=90 velocity=64 time=0\n",
      "note_on channel=0 note=65 velocity=41 time=1\n",
      "note_off channel=0 note=42 velocity=64 time=1\n",
      "note_on channel=0 note=62 velocity=45 time=1\n",
      "note_off channel=0 note=86 velocity=64 time=0\n",
      "note_on channel=0 note=95 velocity=47 time=0\n",
      "note_on channel=0 note=102 velocity=27 time=1\n",
      "note_on channel=0 note=46 velocity=70 time=1\n",
      "note_off channel=0 note=62 velocity=64 time=0\n",
      "note_off channel=0 note=65 velocity=64 time=0\n",
      "note_on channel=0 note=85 velocity=35 time=0\n",
      "note_on channel=0 note=45 velocity=76 time=1\n",
      "note_off channel=0 note=46 velocity=64 time=0\n",
      "note_on channel=0 note=67 velocity=43 time=0\n",
      "note_off channel=0 note=73 velocity=64 time=0\n",
      "note_on channel=0 note=90 velocity=54 time=0\n",
      "note_on channel=0 note=44 velocity=77 time=1\n",
      "note_off channel=0 note=45 velocity=64 time=0\n",
      "note_on channel=0 note=63 velocity=36 time=0\n",
      "note_off channel=0 note=70 velocity=64 time=0\n",
      "note_on channel=0 note=71 velocity=66 time=0\n",
      "note_off channel=0 note=91 velocity=64 time=0\n",
      "note_off channel=0 note=58 velocity=64 time=1\n",
      "note_on channel=0 note=59 velocity=56 time=0\n",
      "note_off channel=0 note=77 velocity=64 time=0\n",
      "note_on channel=0 note=78 velocity=55 time=0\n",
      "note_off channel=0 note=95 velocity=64 time=0\n",
      "note_off channel=0 note=102 velocity=64 time=0\n",
      "note_off channel=0 note=63 velocity=64 time=1\n",
      "note_on channel=0 note=65 velocity=45 time=0\n",
      "note_on channel=0 note=73 velocity=41 time=0\n",
      "note_on channel=0 note=43 velocity=73 time=1\n",
      "note_off channel=0 note=44 velocity=64 time=0\n",
      "note_off channel=0 note=75 velocity=64 time=0\n",
      "note_off channel=0 note=84 velocity=64 time=1\n",
      "note_on channel=0 note=54 velocity=23 time=1\n",
      "note_off channel=0 note=67 velocity=64 time=0\n",
      "note_off channel=0 note=71 velocity=64 time=0\n",
      "note_on channel=0 note=71 velocity=70 time=1\n",
      "note_off channel=0 note=85 velocity=64 time=1\n",
      "note_off channel=0 note=54 velocity=64 time=1\n",
      "note_off channel=0 note=43 velocity=64 time=2\n",
      "note_on channel=0 note=44 velocity=23 time=0\n",
      "note_off channel=0 note=78 velocity=64 time=0\n",
      "note_on channel=0 note=84 velocity=37 time=0\n",
      "note_on channel=0 note=91 velocity=24 time=1\n",
      "note_on channel=0 note=77 velocity=52 time=2\n",
      "note_off channel=0 note=44 velocity=64 time=1\n",
      "note_on channel=0 note=78 velocity=60 time=0\n",
      "note_on channel=0 note=58 velocity=57 time=1\n",
      "note_off channel=0 note=59 velocity=64 time=0\n",
      "note_on channel=0 note=70 velocity=75 time=0\n",
      "note_off channel=0 note=71 velocity=64 time=0\n",
      "note_off channel=0 note=77 velocity=64 time=0\n",
      "note_off channel=0 note=90 velocity=64 time=0\n",
      "note_on channel=0 note=77 velocity=60 time=1\n",
      "note_off channel=0 note=78 velocity=64 time=0\n",
      "note_on channel=0 note=90 velocity=40 time=1\n",
      "note_on channel=0 note=75 velocity=38 time=1\n",
      "note_off channel=0 note=91 velocity=64 time=0\n",
      "note_off channel=0 note=93 velocity=64 time=0\n",
      "note_on channel=0 note=88 velocity=30 time=3\n",
      "note_on channel=0 note=91 velocity=47 time=0\n",
      "note_on channel=0 note=83 velocity=34 time=2\n",
      "note_on channel=0 note=57 velocity=51 time=1\n",
      "note_off channel=0 note=58 velocity=64 time=0\n",
      "note_on channel=0 note=69 velocity=71 time=0\n",
      "note_off channel=0 note=70 velocity=64 time=0\n",
      "note_on channel=0 note=56 velocity=53 time=2\n",
      "note_off channel=0 note=57 velocity=64 time=0\n",
      "note_off channel=0 note=65 velocity=64 time=0\n",
      "note_on channel=0 note=76 velocity=46 time=0\n",
      "note_off channel=0 note=77 velocity=64 time=0\n",
      "note_on channel=0 note=82 velocity=58 time=0\n",
      "note_off channel=0 note=83 velocity=64 time=0\n",
      "note_off channel=0 note=88 velocity=64 time=0\n",
      "note_on channel=0 note=62 velocity=88 time=1\n",
      "note_on channel=0 note=72 velocity=49 time=0\n",
      "note_off channel=0 note=73 velocity=64 time=0\n",
      "note_off channel=0 note=75 velocity=64 time=0\n",
      "note_on channel=0 note=78 velocity=34 time=0\n",
      "note_off channel=0 note=84 velocity=64 time=0\n",
      "note_on channel=0 note=93 velocity=11 time=0\n",
      "note_off channel=0 note=56 velocity=64 time=1\n",
      "note_on channel=0 note=57 velocity=56 time=0\n",
      "note_off channel=0 note=62 velocity=64 time=0\n",
      "note_on channel=0 note=63 velocity=94 time=0\n",
      "note_on channel=0 note=83 velocity=50 time=0\n",
      "note_off channel=0 note=78 velocity=64 time=1\n",
      "note_off channel=0 note=72 velocity=64 time=1\n",
      "note_on channel=0 note=73 velocity=21 time=0\n",
      "note_on channel=0 note=77 velocity=32 time=0\n",
      "note_off channel=0 note=82 velocity=64 time=0\n",
      "note_off channel=0 note=93 velocity=64 time=0\n",
      "note_on channel=0 note=68 velocity=65 time=1\n",
      "note_off channel=0 note=69 velocity=64 time=0\n",
      "note_on channel=0 note=81 velocity=33 time=0\n",
      "note_on channel=0 note=56 velocity=56 time=1\n",
      "note_off channel=0 note=57 velocity=64 time=0\n",
      "note_off channel=0 note=76 velocity=64 time=0\n",
      "note_off channel=0 note=80 velocity=64 time=0\n",
      "note_on channel=0 note=80 velocity=89 time=1\n",
      "note_off channel=0 note=81 velocity=64 time=0\n",
      "note_on channel=0 note=71 velocity=15 time=1\n",
      "note_on channel=0 note=93 velocity=28 time=0\n",
      "note_on channel=0 note=89 velocity=52 time=1\n",
      "note_off channel=0 note=71 velocity=64 time=3\n",
      "note_on channel=0 note=84 velocity=11 time=0\n",
      "note_on channel=0 note=71 velocity=14 time=1\n",
      "note_off channel=0 note=73 velocity=64 time=1\n",
      "note_off channel=0 note=71 velocity=64 time=2\n",
      "note_off channel=0 note=91 velocity=64 time=1\n",
      "note_off channel=0 note=84 velocity=64 time=1\n",
      "note_on channel=0 note=91 velocity=23 time=0\n",
      "note_on channel=0 note=82 velocity=35 time=4\n",
      "note_off channel=0 note=83 velocity=64 time=0\n",
      "note_on channel=0 note=71 velocity=28 time=2\n",
      "note_off channel=0 note=71 velocity=64 time=5\n",
      "note_on channel=0 note=72 velocity=53 time=0\n",
      "note_on channel=0 note=83 velocity=59 time=0\n",
      "note_off channel=0 note=91 velocity=64 time=0\n",
      "note_on channel=0 note=62 velocity=79 time=1\n",
      "note_off channel=0 note=63 velocity=64 time=0\n",
      "note_off channel=0 note=77 velocity=64 time=0\n",
      "note_on channel=0 note=78 velocity=39 time=0\n",
      "note_off channel=0 note=82 velocity=64 time=0\n",
      "note_on channel=0 note=94 velocity=12 time=0\n",
      "note_on channel=0 note=71 velocity=45 time=1\n",
      "note_on channel=0 note=82 velocity=65 time=0\n",
      "note_off channel=0 note=83 velocity=64 time=0\n",
      "note_off channel=0 note=90 velocity=64 time=0\n",
      "note_on channel=0 note=91 velocity=16 time=0\n",
      "note_off channel=0 note=56 velocity=64 time=1\n",
      "note_off channel=0 note=72 velocity=64 time=0\n",
      "note_off channel=0 note=78 velocity=64 time=0\n",
      "note_on channel=0 note=85 velocity=14 time=0\n",
      "note_on channel=0 note=49 velocity=26 time=1\n",
      "note_on channel=0 note=56 velocity=48 time=0\n",
      "note_off channel=0 note=62 velocity=64 time=0\n",
      "note_on channel=0 note=63 velocity=85 time=0\n",
      "note_on channel=0 note=77 velocity=36 time=0\n",
      "note_off channel=0 note=82 velocity=64 time=1\n",
      "note_off channel=0 note=94 velocity=64 time=0\n",
      "note_on channel=0 note=82 velocity=34 time=1\n",
      "note_off channel=0 note=49 velocity=64 time=1\n",
      "note_on channel=0 note=90 velocity=20 time=0\n",
      "note_off channel=0 note=85 velocity=64 time=1\n",
      "note_on channel=0 note=88 velocity=22 time=0\n",
      "note_off channel=0 note=89 velocity=64 time=0\n",
      "note_off channel=0 note=82 velocity=64 time=4\n",
      "note_off channel=0 note=90 velocity=64 time=0\n",
      "note_off channel=0 note=88 velocity=64 time=3\n",
      "note_on channel=0 note=90 velocity=13 time=0\n",
      "note_off channel=0 note=90 velocity=64 time=3\n",
      "note_on channel=0 note=90 velocity=35 time=1\n",
      "note_off channel=0 note=91 velocity=64 time=0\n",
      "note_on channel=0 note=89 velocity=75 time=1\n",
      "note_on channel=0 note=91 velocity=26 time=0\n",
      "note_off channel=0 note=93 velocity=64 time=0\n",
      "note_on channel=0 note=55 velocity=34 time=4\n",
      "note_off channel=0 note=56 velocity=64 time=0\n",
      "note_off channel=0 note=68 velocity=64 time=1\n",
      "note_on channel=0 note=68 velocity=24 time=1\n",
      "note_off channel=0 note=55 velocity=64 time=1\n",
      "note_on channel=0 note=56 velocity=33 time=0\n",
      "note_on channel=0 note=82 velocity=33 time=1\n",
      "note_on channel=0 note=95 velocity=47 time=1\n",
      "note_off channel=0 note=56 velocity=64 time=1\n",
      "note_on channel=0 note=73 velocity=75 time=0\n",
      "note_off channel=0 note=77 velocity=64 time=0\n",
      "note_off channel=0 note=90 velocity=64 time=0\n",
      "note_on channel=0 note=102 velocity=28 time=0\n",
      "note_off channel=0 note=68 velocity=64 time=1\n",
      "note_on channel=0 note=77 velocity=28 time=0\n",
      "note_on channel=0 note=68 velocity=19 time=1\n",
      "note_off channel=0 note=82 velocity=64 time=0\n",
      "note_off channel=0 note=91 velocity=64 time=0\n",
      "note_on channel=0 note=91 velocity=16 time=1\n",
      "note_off channel=0 note=102 velocity=64 time=0\n",
      "note_off channel=0 note=95 velocity=64 time=3\n",
      "note_off channel=0 note=91 velocity=64 time=1\n",
      "note_on channel=0 note=61 velocity=20 time=1\n",
      "note_off channel=0 note=63 velocity=64 time=0\n",
      "note_off channel=0 note=77 velocity=64 time=1\n",
      "note_on channel=0 note=77 velocity=45 time=6\n",
      "note_on channel=0 note=65 velocity=38 time=2\n",
      "note_off channel=0 note=68 velocity=64 time=0\n",
      "note_off channel=0 note=61 velocity=64 time=1\n",
      "note_on channel=0 note=70 velocity=33 time=0\n",
      "note_off channel=0 note=71 velocity=64 time=0\n",
      "note_on channel=0 note=90 velocity=46 time=0\n",
      "note_on channel=0 note=91 velocity=47 time=0\n",
      "note_on channel=0 note=93 velocity=11 time=0\n",
      "note_on channel=0 note=68 velocity=28 time=1\n",
      "note_on channel=0 note=75 velocity=32 time=0\n",
      "note_on channel=0 note=83 velocity=66 time=0\n",
      "note_off channel=0 note=89 velocity=64 time=0\n",
      "note_off channel=0 note=70 velocity=64 time=2\n",
      "note_on channel=0 note=71 velocity=36 time=0\n",
      "note_on channel=0 note=78 velocity=10 time=0\n",
      "note_off channel=0 note=93 velocity=64 time=1\n",
      "note_off channel=0 note=78 velocity=64 time=2\n",
      "note_off channel=0 note=65 velocity=64 time=5\n",
      "note_on channel=0 note=67 velocity=55 time=0\n",
      "note_off channel=0 note=68 velocity=64 time=0\n",
      "note_off channel=0 note=71 velocity=64 time=0\n",
      "note_on channel=0 note=96 velocity=20 time=0\n",
      "note_on channel=0 note=97 velocity=18 time=0\n",
      "note_on channel=0 note=57 velocity=68 time=1\n",
      "note_on channel=0 note=61 velocity=78 time=0\n",
      "note_on channel=0 note=71 velocity=47 time=0\n",
      "note_off channel=0 note=75 velocity=64 time=0\n",
      "note_on channel=0 note=89 velocity=58 time=0\n",
      "note_on channel=0 note=63 velocity=69 time=1\n",
      "note_off channel=0 note=67 velocity=64 time=0\n",
      "note_on channel=0 note=87 velocity=54 time=0\n",
      "note_off channel=0 note=63 velocity=64 time=1\n",
      "note_on channel=0 note=75 velocity=28 time=0\n",
      "note_off channel=0 note=96 velocity=64 time=0\n",
      "note_off channel=0 note=97 velocity=64 time=0\n",
      "note_off channel=0 note=57 velocity=64 time=1\n",
      "note_off channel=0 note=61 velocity=64 time=0\n",
      "note_on channel=0 note=62 velocity=63 time=0\n",
      "note_on channel=0 note=68 velocity=35 time=0\n",
      "note_off channel=0 note=90 velocity=64 time=0\n",
      "note_on channel=0 note=65 velocity=55 time=1\n",
      "note_on channel=0 note=90 velocity=16 time=0\n",
      "note_on channel=0 note=93 velocity=24 time=0\n",
      "note_on channel=0 note=53 velocity=65 time=1\n",
      "note_off channel=0 note=62 velocity=64 time=0\n",
      "note_off channel=0 note=68 velocity=64 time=2\n",
      "note_off channel=0 note=77 velocity=64 time=0\n",
      "note_off channel=0 note=71 velocity=64 time=1\n",
      "note_on channel=0 note=77 velocity=70 time=0\n",
      "note_on channel=0 note=84 velocity=16 time=0\n",
      "note_off channel=0 note=90 velocity=64 time=0\n",
      "note_off channel=0 note=75 velocity=64 time=1\n",
      "note_on channel=0 note=98 velocity=15 time=0\n",
      "note_on channel=0 note=100 velocity=18 time=0\n",
      "note_off channel=0 note=53 velocity=64 time=2\n",
      "note_on channel=0 note=68 velocity=64 time=0\n",
      "note_on channel=0 note=71 velocity=50 time=0\n",
      "note_off channel=0 note=84 velocity=64 time=0\n",
      "note_off channel=0 note=65 velocity=64 time=1\n",
      "note_off channel=0 note=73 velocity=64 time=0\n",
      "note_on channel=0 note=74 velocity=70 time=0\n",
      "note_off channel=0 note=77 velocity=64 time=0\n",
      "note_on channel=0 note=78 velocity=32 time=0\n",
      "note_on channel=0 note=79 velocity=37 time=0\n",
      "note_off channel=0 note=80 velocity=64 time=0\n",
      "note_on channel=0 note=56 velocity=67 time=1\n",
      "note_on channel=0 note=65 velocity=53 time=0\n",
      "note_off channel=0 note=93 velocity=64 time=0\n",
      "note_on channel=0 note=94 velocity=23 time=0\n",
      "note_off channel=0 note=98 velocity=64 time=0\n",
      "note_on channel=0 note=75 velocity=74 time=1\n",
      "note_on channel=0 note=84 velocity=49 time=0\n",
      "note_on channel=0 note=90 velocity=49 time=0\n",
      "note_off channel=0 note=91 velocity=64 time=0\n",
      "note_on channel=0 note=55 velocity=68 time=1\n",
      "note_off channel=0 note=56 velocity=64 time=0\n",
      "note_on channel=0 note=61 velocity=45 time=0\n",
      "note_off channel=0 note=74 velocity=64 time=0\n",
      "note_off channel=0 note=55 velocity=64 time=1\n",
      "note_on channel=0 note=56 velocity=52 time=0\n",
      "note_off channel=0 note=79 velocity=64 time=0\n",
      "note_on channel=0 note=82 velocity=56 time=0\n",
      "note_off channel=0 note=83 velocity=64 time=0\n",
      "note_off channel=0 note=90 velocity=64 time=0\n",
      "note_off channel=0 note=61 velocity=64 time=1\n",
      "note_on channel=0 note=62 velocity=34 time=0\n",
      "note_off channel=0 note=78 velocity=64 time=0\n",
      "note_on channel=0 note=93 velocity=22 time=0\n",
      "note_off channel=0 note=100 velocity=64 time=0\n",
      "note_on channel=0 note=55 velocity=63 time=1\n",
      "note_off channel=0 note=56 velocity=64 time=0\n",
      "note_off channel=0 note=68 velocity=64 time=0\n",
      "note_on channel=0 note=74 velocity=58 time=0\n",
      "note_off channel=0 note=75 velocity=64 time=0\n",
      "note_off channel=0 note=84 velocity=64 time=0\n",
      "note_on channel=0 note=91 velocity=37 time=0\n",
      "note_off channel=0 note=94 velocity=64 time=0\n",
      "note_off channel=0 note=62 velocity=64 time=1\n",
      "note_off channel=0 note=82 velocity=64 time=0\n",
      "note_off channel=0 note=55 velocity=64 time=1\n",
      "note_on channel=0 note=56 velocity=58 time=0\n",
      "note_on channel=0 note=69 velocity=63 time=0\n",
      "note_on channel=0 note=73 velocity=21 time=0\n",
      "note_off channel=0 note=74 velocity=64 time=0\n",
      "note_on channel=0 note=85 velocity=26 time=0\n",
      "note_off channel=0 note=71 velocity=64 time=1\n",
      "note_on channel=0 note=77 velocity=60 time=0\n",
      "note_on channel=0 note=80 velocity=33 time=0\n",
      "note_on channel=0 note=86 velocity=12 time=0\n",
      "note_off channel=0 note=56 velocity=64 time=1\n",
      "note_on channel=0 note=59 velocity=55 time=0\n",
      "note_off channel=0 note=69 velocity=64 time=0\n",
      "note_off channel=0 note=93 velocity=64 time=0\n",
      "note_on channel=0 note=56 velocity=44 time=1\n",
      "note_on channel=0 note=68 velocity=46 time=0\n",
      "note_off channel=0 note=73 velocity=64 time=0\n",
      "note_on channel=0 note=75 velocity=59 time=0\n",
      "note_on channel=0 note=93 velocity=21 time=0\n",
      "note_off channel=0 note=59 velocity=64 time=1\n",
      "note_on channel=0 note=60 velocity=56 time=0\n",
      "note_on channel=0 note=72 velocity=57 time=0\n",
      "note_on channel=0 note=79 velocity=46 time=0\n",
      "note_off channel=0 note=85 velocity=64 time=0\n",
      "note_on channel=0 note=88 velocity=30 time=0\n",
      "note_on channel=0 note=78 velocity=47 time=1\n",
      "note_off channel=0 note=86 velocity=64 time=0\n",
      "note_off channel=0 note=87 velocity=64 time=0\n",
      "note_off channel=0 note=56 velocity=64 time=1\n",
      "note_off channel=0 note=60 velocity=64 time=0\n",
      "note_off channel=0 note=72 velocity=64 time=0\n",
      "note_off channel=0 note=77 velocity=64 time=0\n",
      "note_on channel=0 note=87 velocity=68 time=0\n",
      "note_on channel=0 note=70 velocity=58 time=1\n",
      "note_on channel=0 note=77 velocity=53 time=0\n",
      "note_off channel=0 note=78 velocity=64 time=0\n",
      "note_off channel=0 note=80 velocity=64 time=0\n",
      "note_on channel=0 note=85 velocity=27 time=0\n",
      "note_on channel=0 note=57 velocity=59 time=1\n",
      "note_off channel=0 note=68 velocity=64 time=0\n",
      "note_on channel=0 note=92 velocity=22 time=0\n",
      "note_on channel=0 note=63 velocity=73 time=1\n",
      "note_off channel=0 note=65 velocity=64 time=0\n",
      "note_off channel=0 note=88 velocity=64 time=0\n",
      "note_on channel=0 note=45 velocity=77 time=1\n",
      "note_on channel=0 note=55 velocity=61 time=0\n",
      "note_off channel=0 note=57 velocity=64 time=0\n",
      "note_off channel=0 note=63 velocity=64 time=0\n",
      "note_on channel=0 note=64 velocity=83 time=0\n",
      "note_on channel=0 note=84 velocity=30 time=0\n",
      "note_off channel=0 note=93 velocity=64 time=0\n",
      "note_off channel=0 note=79 velocity=64 time=1\n",
      "note_on channel=0 note=80 velocity=42 time=0\n",
      "note_off channel=0 note=85 velocity=64 time=0\n",
      "note_on channel=0 note=90 velocity=43 time=0\n",
      "note_on channel=0 note=44 velocity=79 time=1\n",
      "note_off channel=0 note=45 velocity=64 time=0\n",
      "note_off channel=0 note=55 velocity=64 time=0\n",
      "note_on channel=0 note=63 velocity=69 time=0\n",
      "note_off channel=0 note=64 velocity=64 time=0\n",
      "note_on channel=0 note=68 velocity=59 time=0\n",
      "note_off channel=0 note=70 velocity=64 time=0\n",
      "note_on channel=0 note=71 velocity=37 time=0\n",
      "note_on channel=0 note=73 velocity=35 time=0\n",
      "note_off channel=0 note=77 velocity=64 time=0\n",
      "note_on channel=0 note=78 velocity=25 time=0\n",
      "note_off channel=0 note=89 velocity=64 time=0\n",
      "note_on channel=0 note=89 velocity=30 time=1\n",
      "note_off channel=0 note=63 velocity=64 time=1\n",
      "note_on channel=0 note=65 velocity=69 time=0\n",
      "note_on channel=0 note=83 velocity=50 time=0\n",
      "note_off channel=0 note=92 velocity=64 time=0\n",
      "note_off channel=0 note=78 velocity=64 time=1\n",
      "note_on channel=0 note=41 velocity=54 time=1\n",
      "note_off channel=0 note=44 velocity=64 time=0\n",
      "note_on channel=0 note=61 velocity=53 time=1\n",
      "note_off channel=0 note=89 velocity=64 time=0\n",
      "note_off channel=0 note=41 velocity=64 time=1\n",
      "note_on channel=0 note=89 velocity=48 time=0\n",
      "note_off channel=0 note=90 velocity=64 time=0\n",
      "note_on channel=0 note=56 velocity=42 time=1\n",
      "note_off channel=0 note=84 velocity=64 time=0\n",
      "note_on channel=0 note=90 velocity=42 time=0\n",
      "note_off channel=0 note=71 velocity=64 time=1\n",
      "note_on channel=0 note=42 velocity=53 time=1\n",
      "note_off channel=0 note=56 velocity=64 time=0\n",
      "note_off channel=0 note=61 velocity=64 time=0\n",
      "note_off channel=0 note=68 velocity=64 time=0\n",
      "note_on channel=0 note=88 velocity=27 time=0\n",
      "note_off channel=0 note=90 velocity=64 time=0\n",
      "note_on channel=0 note=61 velocity=59 time=1\n",
      "note_off channel=0 note=75 velocity=64 time=0\n",
      "note_on channel=0 note=82 velocity=30 time=0\n",
      "note_on channel=0 note=90 velocity=46 time=0\n",
      "note_off channel=0 note=42 velocity=64 time=1\n",
      "note_on channel=0 note=68 velocity=29 time=0\n",
      "note_off channel=0 note=73 velocity=64 time=0\n",
      "note_on channel=0 note=75 velocity=24 time=0\n",
      "note_off channel=0 note=80 velocity=64 time=0\n",
      "note_on channel=0 note=93 velocity=24 time=0\n",
      "note_on channel=0 note=72 velocity=63 time=1\n",
      "note_off channel=0 note=88 velocity=64 time=0\n",
      "note_on channel=0 note=48 velocity=66 time=1\n",
      "note_off channel=0 note=61 velocity=64 time=0\n",
      "note_off channel=0 note=68 velocity=64 time=0\n",
      "note_on channel=0 note=79 velocity=47 time=0\n",
      "note_off channel=0 note=82 velocity=64 time=0\n",
      "note_on channel=0 note=47 velocity=73 time=1\n",
      "note_off channel=0 note=48 velocity=64 time=0\n",
      "note_on channel=0 note=61 velocity=57 time=0\n",
      "note_on channel=0 note=68 velocity=39 time=0\n",
      "note_on channel=0 note=71 velocity=62 time=0\n",
      "note_off channel=0 note=72 velocity=64 time=0\n",
      "note_on channel=0 note=78 velocity=57 time=0\n",
      "note_off channel=0 note=47 velocity=64 time=1\n",
      "note_on channel=0 note=48 velocity=72 time=0\n",
      "note_on channel=0 note=59 velocity=56 time=0\n",
      "note_off channel=0 note=79 velocity=64 time=0\n",
      "note_off channel=0 note=48 velocity=64 time=1\n",
      "note_on channel=0 note=49 velocity=71 time=0\n",
      "note_off channel=0 note=61 velocity=64 time=0\n",
      "note_off channel=0 note=49 velocity=64 time=1\n",
      "note_on channel=0 note=50 velocity=78 time=0\n",
      "note_off channel=0 note=68 velocity=64 time=0\n",
      "note_off channel=0 note=50 velocity=64 time=1\n",
      "note_on channel=0 note=53 velocity=75 time=0\n",
      "note_on channel=0 note=68 velocity=28 time=0\n",
      "note_off channel=0 note=78 velocity=64 time=0\n",
      "note_off channel=0 note=59 velocity=64 time=1\n",
      "note_on channel=0 note=60 velocity=52 time=0\n",
      "note_off channel=0 note=71 velocity=64 time=0\n",
      "note_on channel=0 note=72 velocity=68 time=0\n",
      "note_off channel=0 note=53 velocity=64 time=1\n",
      "note_on channel=0 note=78 velocity=40 time=0\n",
      "note_on channel=0 note=85 velocity=49 time=0\n",
      "note_on channel=0 note=88 velocity=34 time=0\n",
      "note_off channel=0 note=93 velocity=64 time=0\n",
      "note_off channel=0 note=60 velocity=64 time=1\n",
      "note_on channel=0 note=61 velocity=63 time=0\n",
      "note_on channel=0 note=71 velocity=43 time=0\n",
      "note_off channel=0 note=72 velocity=64 time=0\n",
      "note_on channel=0 note=73 velocity=66 time=0\n",
      "note_off channel=0 note=75 velocity=64 time=0\n",
      "note_off channel=0 note=90 velocity=64 time=0\n",
      "note_on channel=0 note=53 velocity=60 time=1\n",
      "note_off channel=0 note=73 velocity=64 time=0\n",
      "note_on channel=0 note=74 velocity=62 time=0\n",
      "note_on channel=0 note=79 velocity=31 time=0\n",
      "note_on channel=0 note=81 velocity=39 time=0\n",
      "note_off channel=0 note=88 velocity=64 time=0\n",
      "note_on channel=0 note=90 velocity=46 time=0\n",
      "note_off channel=0 note=61 velocity=64 time=1\n",
      "note_on channel=0 note=62 velocity=69 time=0\n",
      "note_off channel=0 note=78 velocity=64 time=0\n",
      "note_off channel=0 note=85 velocity=64 time=0\n",
      "note_on channel=0 note=88 velocity=23 time=0\n",
      "note_off channel=0 note=71 velocity=64 time=1\n",
      "note_on channel=0 note=78 velocity=38 time=0\n",
      "note_off channel=0 note=79 velocity=64 time=0\n",
      "note_off channel=0 note=83 velocity=64 time=0\n",
      "note_on channel=0 note=85 velocity=40 time=0\n",
      "note_off channel=0 note=53 velocity=64 time=1\n",
      "note_on channel=0 note=61 velocity=73 time=0\n",
      "note_off channel=0 note=62 velocity=64 time=0\n",
      "note_off channel=0 note=74 velocity=64 time=0\n",
      "note_off channel=0 note=90 velocity=64 time=0\n",
      "note_on channel=0 note=60 velocity=66 time=1\n",
      "note_off channel=0 note=61 velocity=64 time=0\n",
      "note_on channel=0 note=62 velocity=67 time=0\n",
      "note_off channel=0 note=68 velocity=64 time=0\n",
      "note_on channel=0 note=83 velocity=54 time=0\n",
      "note_off channel=0 note=88 velocity=64 time=0\n",
      "note_off channel=0 note=91 velocity=64 time=0\n",
      "note_on channel=0 note=45 velocity=77 time=1\n",
      "note_on channel=0 note=53 velocity=51 time=0\n",
      "note_off channel=0 note=62 velocity=64 time=0\n",
      "note_on channel=0 note=64 velocity=83 time=0\n",
      "note_off channel=0 note=65 velocity=64 time=0\n",
      "note_on channel=0 note=71 velocity=61 time=0\n",
      "note_off channel=0 note=78 velocity=64 time=0\n",
      "note_on channel=0 note=79 velocity=49 time=0\n",
      "note_on channel=0 note=88 velocity=20 time=0\n",
      "note_on channel=0 note=73 velocity=47 time=1\n",
      "note_on channel=0 note=78 velocity=61 time=0\n",
      "note_off channel=0 note=89 velocity=64 time=0\n",
      "note_on channel=0 note=44 velocity=78 time=1\n",
      "note_off channel=0 note=45 velocity=64 time=0\n",
      "note_off channel=0 note=53 velocity=64 time=0\n",
      "note_on channel=0 note=59 velocity=58 time=0\n",
      "note_off channel=0 note=60 velocity=64 time=0\n",
      "note_on channel=0 note=63 velocity=67 time=0\n",
      "note_off channel=0 note=64 velocity=64 time=0\n",
      "note_on channel=0 note=69 velocity=30 time=0\n",
      "note_off channel=0 note=79 velocity=64 time=0\n",
      "note_off channel=0 note=85 velocity=64 time=0\n",
      "note_off channel=0 note=63 velocity=64 time=2\n",
      "note_on channel=0 note=65 velocity=55 time=0\n",
      "note_on channel=0 note=68 velocity=36 time=0\n",
      "note_off channel=0 note=69 velocity=64 time=0\n",
      "note_on channel=0 note=89 velocity=26 time=0\n",
      "note_off channel=0 note=59 velocity=64 time=1\n",
      "note_off channel=0 note=71 velocity=64 time=0\n",
      "note_on channel=0 note=80 velocity=40 time=0\n",
      "note_off channel=0 note=81 velocity=64 time=0\n",
      "note_off channel=0 note=88 velocity=64 time=0\n",
      "note_on channel=0 note=59 velocity=60 time=1\n",
      "note_on channel=0 note=71 velocity=64 time=0\n",
      "note_off channel=0 note=73 velocity=64 time=0\n",
      "note_off channel=0 note=44 velocity=64 time=1\n",
      "note_off channel=0 note=68 velocity=64 time=1\n",
      "note_on channel=0 note=73 velocity=25 time=0\n",
      "note_on channel=0 note=43 velocity=60 time=1\n",
      "note_off channel=0 note=89 velocity=64 time=0\n",
      "note_on channel=0 note=68 velocity=23 time=1\n",
      "note_off channel=0 note=73 velocity=64 time=1\n",
      "note_on channel=0 note=42 velocity=57 time=1\n",
      "note_off channel=0 note=43 velocity=64 time=0\n",
      "note_off channel=0 note=59 velocity=64 time=0\n",
      "note_on channel=0 note=62 velocity=67 time=0\n",
      "note_on channel=0 note=93 velocity=27 time=0\n",
      "note_on channel=0 note=61 velocity=69 time=1\n",
      "note_off channel=0 note=62 velocity=64 time=0\n",
      "note_off channel=0 note=68 velocity=64 time=0\n",
      "note_off channel=0 note=71 velocity=64 time=0\n",
      "note_on channel=0 note=72 velocity=73 time=0\n",
      "note_off channel=0 note=78 velocity=64 time=0\n",
      "note_on channel=0 note=88 velocity=46 time=0\n",
      "note_on channel=0 note=91 velocity=63 time=0\n",
      "note_on channel=0 note=78 velocity=50 time=1\n",
      "note_on channel=0 note=79 velocity=36 time=0\n",
      "note_on channel=0 note=85 velocity=54 time=0\n",
      "note_on channel=0 note=71 velocity=42 time=1\n",
      "note_off channel=0 note=72 velocity=64 time=0\n",
      "note_on channel=0 note=73 velocity=73 time=0\n",
      "note_off channel=0 note=88 velocity=64 time=0\n",
      "note_on channel=0 note=89 velocity=55 time=0\n",
      "note_on channel=0 note=86 velocity=51 time=1\n",
      "note_on channel=0 note=88 velocity=25 time=0\n",
      "note_off channel=0 note=61 velocity=64 time=1\n",
      "note_on channel=0 note=62 velocity=57 time=0\n",
      "note_off channel=0 note=65 velocity=64 time=0\n",
      "note_off channel=0 note=71 velocity=64 time=0\n",
      "note_off channel=0 note=73 velocity=64 time=0\n",
      "note_on channel=0 note=74 velocity=71 time=0\n",
      "note_on channel=0 note=77 velocity=23 time=0\n",
      "note_off channel=0 note=78 velocity=64 time=0\n",
      "note_off channel=0 note=80 velocity=64 time=0\n",
      "note_on channel=0 note=81 velocity=50 time=0\n",
      "note_off channel=0 note=89 velocity=64 time=0\n",
      "note_on channel=0 note=90 velocity=62 time=0\n",
      "note_on channel=0 note=84 velocity=19 time=1\n",
      "note_on channel=0 note=61 velocity=70 time=1\n",
      "note_off channel=0 note=62 velocity=64 time=0\n",
      "note_off channel=0 note=93 velocity=64 time=0\n",
      "note_on channel=0 note=73 velocity=71 time=1\n",
      "note_off channel=0 note=74 velocity=64 time=0\n",
      "note_off channel=0 note=79 velocity=64 time=0\n",
      "note_off channel=0 note=88 velocity=64 time=0\n",
      "note_on channel=0 note=89 velocity=76 time=0\n",
      "note_on channel=0 note=71 velocity=14 time=1\n",
      "note_on channel=0 note=80 velocity=83 time=0\n",
      "note_off channel=0 note=81 velocity=64 time=0\n",
      "note_off channel=0 note=86 velocity=64 time=0\n",
      "note_off channel=0 note=90 velocity=64 time=0\n",
      "note_off channel=0 note=84 velocity=64 time=1\n",
      "note_on channel=0 note=86 velocity=47 time=1\n",
      "note_on channel=0 note=93 velocity=31 time=0\n",
      "note_off channel=0 note=61 velocity=64 time=1\n",
      "note_on channel=0 note=62 velocity=68 time=0\n",
      "note_off channel=0 note=71 velocity=64 time=0\n",
      "note_off channel=0 note=73 velocity=64 time=0\n",
      "note_on channel=0 note=74 velocity=70 time=0\n",
      "note_off channel=0 note=85 velocity=64 time=0\n",
      "note_on channel=0 note=94 velocity=31 time=0\n",
      "note_on channel=0 note=71 velocity=14 time=1\n",
      "note_off channel=0 note=77 velocity=64 time=0\n",
      "note_off channel=0 note=93 velocity=64 time=0\n",
      "note_off channel=0 note=74 velocity=64 time=1\n",
      "note_on channel=0 note=75 velocity=68 time=0\n",
      "note_on channel=0 note=82 velocity=41 time=0\n",
      "note_off channel=0 note=42 velocity=64 time=1\n",
      "note_on channel=0 note=61 velocity=71 time=0\n",
      "note_off channel=0 note=62 velocity=64 time=0\n",
      "note_off channel=0 note=71 velocity=64 time=1\n",
      "note_on channel=0 note=85 velocity=45 time=0\n",
      "note_off channel=0 note=86 velocity=64 time=0\n",
      "note_on channel=0 note=47 velocity=75 time=1\n",
      "note_off channel=0 note=61 velocity=64 time=0\n",
      "note_on channel=0 note=62 velocity=74 time=0\n",
      "note_on channel=0 note=73 velocity=45 time=0\n",
      "note_off channel=0 note=82 velocity=64 time=0\n",
      "note_on channel=0 note=93 velocity=38 time=0\n",
      "note_off channel=0 note=94 velocity=64 time=0\n",
      "note_on channel=0 note=102 velocity=25 time=0\n",
      "note_off channel=0 note=47 velocity=64 time=1\n",
      "note_on channel=0 note=48 velocity=86 time=0\n",
      "note_off channel=0 note=62 velocity=64 time=0\n",
      "note_on channel=0 note=63 velocity=70 time=0\n",
      "note_on channel=0 note=78 velocity=34 time=0\n",
      "note_on channel=0 note=82 velocity=53 time=0\n",
      "note_on channel=0 note=90 velocity=66 time=0\n",
      "note_off channel=0 note=73 velocity=64 time=1\n",
      "note_on channel=0 note=74 velocity=77 time=0\n",
      "note_off channel=0 note=75 velocity=64 time=0\n",
      "note_off channel=0 note=83 velocity=64 time=0\n",
      "note_off channel=0 note=63 velocity=64 time=1\n",
      "note_off channel=0 note=48 velocity=64 time=1\n",
      "note_on channel=0 note=62 velocity=72 time=0\n",
      "note_on channel=0 note=68 velocity=17 time=0\n",
      "note_on channel=0 note=48 velocity=62 time=1\n",
      "note_on channel=0 note=73 velocity=77 time=1\n",
      "note_off channel=0 note=74 velocity=64 time=0\n",
      "note_off channel=0 note=85 velocity=64 time=0\n",
      "note_off channel=0 note=93 velocity=64 time=0\n",
      "note_off channel=0 note=48 velocity=64 time=1\n",
      "note_on channel=0 note=61 velocity=79 time=0\n",
      "note_off channel=0 note=62 velocity=64 time=0\n",
      "note_off channel=0 note=68 velocity=64 time=0\n",
      "note_on channel=0 note=77 velocity=19 time=0\n",
      "note_off channel=0 note=90 velocity=64 time=0\n",
      "note_off channel=0 note=102 velocity=64 time=0\n",
      "note_off channel=0 note=82 velocity=64 time=1\n",
      "note_on channel=0 note=83 velocity=33 time=0\n",
      "note_on channel=0 note=102 velocity=15 time=0\n",
      "note_off channel=0 note=78 velocity=64 time=1\n",
      "note_on channel=0 note=90 velocity=32 time=0\n",
      "note_on channel=0 note=54 velocity=33 time=1\n",
      "note_on channel=0 note=65 velocity=20 time=1\n",
      "note_on channel=0 note=71 velocity=35 time=0\n",
      "note_off channel=0 note=77 velocity=64 time=0\n",
      "note_off channel=0 note=90 velocity=64 time=0\n",
      "note_off channel=0 note=102 velocity=64 time=0\n",
      "note_on channel=0 note=44 velocity=31 time=3\n",
      "note_on channel=0 note=88 velocity=29 time=1\n",
      "note_off channel=0 note=44 velocity=64 time=1\n",
      "note_off channel=0 note=65 velocity=64 time=0\n",
      "note_off channel=0 note=73 velocity=64 time=0\n",
      "note_on channel=0 note=74 velocity=79 time=0\n",
      "note_on channel=0 note=93 velocity=41 time=0\n",
      "note_on channel=0 note=77 velocity=18 time=1\n",
      "note_off channel=0 note=88 velocity=64 time=0\n",
      "note_on channel=0 note=43 velocity=10 time=1\n",
      "note_off channel=0 note=61 velocity=64 time=0\n",
      "note_on channel=0 note=62 velocity=75 time=0\n",
      "note_on channel=0 note=88 velocity=32 time=0\n",
      "note_off channel=0 note=89 velocity=64 time=0\n",
      "note_on channel=0 note=90 velocity=76 time=0\n",
      "note_on channel=0 note=96 velocity=19 time=0\n",
      "note_on channel=0 note=81 velocity=41 time=1\n",
      "note_on channel=0 note=82 velocity=41 time=0\n",
      "note_off channel=0 note=83 velocity=64 time=1\n",
      "note_off channel=0 note=77 velocity=64 time=1\n",
      "note_off channel=0 note=91 velocity=64 time=0\n",
      "note_off channel=0 note=96 velocity=64 time=0\n",
      "note_off channel=0 note=62 velocity=64 time=1\n",
      "note_on channel=0 note=63 velocity=55 time=0\n",
      "note_off channel=0 note=74 velocity=64 time=0\n",
      "note_on channel=0 note=75 velocity=78 time=0\n",
      "note_off channel=0 note=81 velocity=64 time=0\n",
      "note_on channel=0 note=91 velocity=73 time=0\n",
      "note_off channel=0 note=43 velocity=64 time=1\n",
      "note_off channel=0 note=54 velocity=64 time=0\n",
      "note_on channel=0 note=86 velocity=34 time=0\n",
      "note_on channel=0 note=89 velocity=35 time=0\n",
      "note_off channel=0 note=90 velocity=64 time=0\n",
      "note_off channel=0 note=93 velocity=64 time=0\n",
      "note_on channel=0 note=90 velocity=28 time=1\n",
      "note_off channel=0 note=89 velocity=64 time=1\n",
      "note_on channel=0 note=73 velocity=29 time=1\n",
      "note_off channel=0 note=86 velocity=64 time=2\n",
      "note_on channel=0 note=89 velocity=68 time=0\n",
      "note_on channel=0 note=97 velocity=11 time=0\n",
      "note_off channel=0 note=73 velocity=64 time=1\n",
      "note_on channel=0 note=84 velocity=46 time=0\n",
      "note_off channel=0 note=88 velocity=64 time=0\n",
      "note_off channel=0 note=90 velocity=64 time=0\n",
      "note_on channel=0 note=95 velocity=41 time=0\n",
      "note_on channel=0 note=102 velocity=24 time=0\n",
      "note_on channel=0 note=45 velocity=76 time=1\n",
      "note_off channel=0 note=63 velocity=64 time=0\n",
      "note_on channel=0 note=69 velocity=39 time=0\n",
      "note_on channel=0 note=73 velocity=33 time=0\n",
      "note_on channel=0 note=77 velocity=33 time=0\n",
      "note_off channel=0 note=82 velocity=64 time=0\n",
      "note_on channel=0 note=67 velocity=41 time=1\n",
      "note_off channel=0 note=71 velocity=64 time=0\n",
      "note_on channel=0 note=82 velocity=42 time=0\n",
      "note_on channel=0 note=85 velocity=37 time=0\n",
      "note_off channel=0 note=97 velocity=64 time=0\n",
      "note_on channel=0 note=44 velocity=77 time=1\n",
      "note_off channel=0 note=45 velocity=64 time=0\n",
      "note_on channel=0 note=63 velocity=62 time=0\n",
      "note_off channel=0 note=77 velocity=64 time=0\n",
      "note_on channel=0 note=90 velocity=48 time=0\n",
      "note_on channel=0 note=88 velocity=56 time=1\n",
      "note_off channel=0 note=95 velocity=64 time=0\n",
      "note_off channel=0 note=63 velocity=64 time=1\n",
      "note_on channel=0 note=64 velocity=62 time=0\n",
      "note_off channel=0 note=67 velocity=64 time=0\n",
      "note_off channel=0 note=69 velocity=64 time=0\n",
      "note_off channel=0 note=84 velocity=64 time=0\n",
      "note_off channel=0 note=87 velocity=64 time=0\n",
      "note_on channel=0 note=95 velocity=33 time=0\n",
      "note_on channel=0 note=43 velocity=73 time=1\n",
      "note_off channel=0 note=44 velocity=64 time=0\n",
      "note_on channel=0 note=71 velocity=20 time=0\n",
      "note_off channel=0 note=75 velocity=64 time=0\n",
      "note_on channel=0 note=76 velocity=75 time=0\n",
      "note_on channel=0 note=78 velocity=27 time=0\n",
      "note_on channel=0 note=83 velocity=47 time=1\n",
      "note_off channel=0 note=82 velocity=64 time=1\n",
      "note_on channel=0 note=84 velocity=11 time=0\n",
      "note_off channel=0 note=89 velocity=64 time=0\n",
      "note_off channel=0 note=91 velocity=64 time=0\n",
      "note_on channel=0 note=91 velocity=73 time=1\n",
      "note_on channel=0 note=54 velocity=13 time=1\n",
      "note_on channel=0 note=63 velocity=55 time=0\n",
      "note_off channel=0 note=64 velocity=64 time=0\n",
      "note_on channel=0 note=87 velocity=65 time=0\n",
      "note_on channel=0 note=94 velocity=35 time=0\n",
      "note_off channel=0 note=95 velocity=64 time=0\n",
      "note_off channel=0 note=102 velocity=64 time=0\n",
      "note_on channel=0 note=75 velocity=76 time=1\n",
      "note_off channel=0 note=76 velocity=64 time=0\n",
      "note_off channel=0 note=43 velocity=64 time=2\n",
      "note_on channel=0 note=44 velocity=24 time=0\n",
      "note_off channel=0 note=54 velocity=64 time=0\n",
      "note_off channel=0 note=84 velocity=64 time=1\n",
      "note_off channel=0 note=73 velocity=64 time=1\n",
      "note_off channel=0 note=78 velocity=64 time=0\n",
      "note_off channel=0 note=44 velocity=64 time=1\n",
      "note_on channel=0 note=93 velocity=27 time=2\n",
      "note_on channel=0 note=77 velocity=18 time=1\n",
      "note_on channel=0 note=89 velocity=32 time=1\n",
      "note_off channel=0 note=88 velocity=64 time=1\n",
      "note_on channel=0 note=73 velocity=40 time=1\n",
      "note_on channel=0 note=96 velocity=10 time=0\n",
      "note_off channel=0 note=85 velocity=64 time=1\n",
      "note_off channel=0 note=96 velocity=64 time=2\n",
      "note_off channel=0 note=77 velocity=64 time=2\n",
      "note_off channel=0 note=63 velocity=64 time=2\n",
      "note_on channel=0 note=64 velocity=79 time=0\n",
      "note_off channel=0 note=71 velocity=64 time=0\n",
      "note_on channel=0 note=46 velocity=67 time=1\n",
      "note_on channel=0 note=57 velocity=43 time=0\n",
      "note_off channel=0 note=75 velocity=64 time=0\n",
      "note_on channel=0 note=82 velocity=25 time=0\n",
      "note_off channel=0 note=89 velocity=64 time=0\n",
      "note_on channel=0 note=45 velocity=77 time=1\n",
      "note_off channel=0 note=46 velocity=64 time=0\n",
      "note_off channel=0 note=83 velocity=64 time=0\n",
      "note_on channel=0 note=89 velocity=31 time=0\n",
      "note_off channel=0 note=94 velocity=64 time=0\n",
      "note_on channel=0 note=95 velocity=36 time=0\n",
      "note_on channel=0 note=44 velocity=78 time=1\n",
      "note_off channel=0 note=45 velocity=64 time=0\n",
      "note_off channel=0 note=57 velocity=64 time=0\n",
      "note_on channel=0 note=63 velocity=73 time=0\n",
      "note_off channel=0 note=64 velocity=64 time=0\n",
      "note_on channel=0 note=88 velocity=50 time=0\n",
      "note_on channel=0 note=76 velocity=71 time=1\n",
      "note_on channel=0 note=78 velocity=18 time=0\n",
      "note_on channel=0 note=84 velocity=11 time=1\n",
      "note_off channel=0 note=91 velocity=64 time=0\n",
      "note_off channel=0 note=63 velocity=64 time=1\n",
      "note_on channel=0 note=64 velocity=61 time=0\n",
      "note_off channel=0 note=44 velocity=64 time=1\n",
      "note_on channel=0 note=46 velocity=65 time=0\n",
      "note_off channel=0 note=87 velocity=64 time=0\n",
      "note_on channel=0 note=41 velocity=55 time=1\n",
      "note_off channel=0 note=46 velocity=64 time=0\n",
      "note_on channel=0 note=71 velocity=48 time=0\n",
      "note_off channel=0 note=78 velocity=64 time=1\n",
      "note_on channel=0 note=91 velocity=38 time=0\n",
      "note_off channel=0 note=41 velocity=64 time=1\n",
      "note_on channel=0 note=43 velocity=61 time=0\n",
      "note_on channel=0 note=87 velocity=34 time=0\n",
      "note_off channel=0 note=89 velocity=64 time=1\n",
      "note_off channel=0 note=64 velocity=64 time=1\n",
      "note_on channel=0 note=83 velocity=48 time=0\n",
      "note_off channel=0 note=88 velocity=64 time=0\n",
      "note_on channel=0 note=89 velocity=26 time=0\n",
      "note_on channel=0 note=61 velocity=62 time=1\n",
      "note_on channel=0 note=64 velocity=61 time=0\n",
      "note_off channel=0 note=82 velocity=64 time=0\n",
      "note_off channel=0 note=43 velocity=64 time=1\n",
      "note_on channel=0 note=48 velocity=65 time=1\n",
      "note_off channel=0 note=87 velocity=64 time=1\n",
      "note_off channel=0 note=95 velocity=64 time=0\n",
      "note_on channel=0 note=47 velocity=72 time=1\n",
      "note_off channel=0 note=48 velocity=64 time=0\n",
      "note_on channel=0 note=54 velocity=29 time=0\n",
      "note_off channel=0 note=64 velocity=64 time=1\n",
      "note_off channel=0 note=47 velocity=64 time=1\n",
      "note_on channel=0 note=48 velocity=67 time=0\n",
      "note_off channel=0 note=54 velocity=64 time=0\n",
      "note_off channel=0 note=61 velocity=64 time=0\n",
      "note_on channel=0 note=63 velocity=58 time=0\n",
      "note_off channel=0 note=89 velocity=64 time=0\n",
      "note_off channel=0 note=48 velocity=64 time=1\n",
      "note_on channel=0 note=49 velocity=69 time=0\n",
      "note_on channel=0 note=68 velocity=28 time=0\n",
      "note_off channel=0 note=76 velocity=64 time=0\n",
      "note_on channel=0 note=77 velocity=44 time=0\n",
      "note_off channel=0 note=49 velocity=64 time=1\n",
      "note_on channel=0 note=50 velocity=76 time=0\n",
      "note_off channel=0 note=50 velocity=64 time=1\n",
      "note_on channel=0 note=53 velocity=70 time=0\n",
      "note_off channel=0 note=84 velocity=64 time=0\n",
      "note_off channel=0 note=68 velocity=64 time=2\n",
      "note_off channel=0 note=53 velocity=64 time=1\n",
      "note_on channel=0 note=84 velocity=19 time=0\n",
      "note_on channel=0 note=53 velocity=56 time=1\n",
      "note_on channel=0 note=68 velocity=43 time=0\n",
      "note_on channel=0 note=92 velocity=85 time=0\n",
      "note_off channel=0 note=91 velocity=64 time=1\n",
      "note_off channel=0 note=63 velocity=64 time=1\n",
      "note_on channel=0 note=64 velocity=62 time=0\n",
      "note_on channel=0 note=76 velocity=79 time=0\n",
      "note_on channel=0 note=102 velocity=58 time=0\n",
      "note_off channel=0 note=73 velocity=64 time=1\n",
      "note_off channel=0 note=77 velocity=64 time=0\n",
      "note_off channel=0 note=80 velocity=64 time=0\n",
      "note_on channel=0 note=100 velocity=32 time=0\n",
      "note_off channel=0 note=53 velocity=64 time=1\n",
      "note_off channel=0 note=64 velocity=64 time=0\n",
      "note_on channel=0 note=65 velocity=80 time=0\n",
      "note_off channel=0 note=68 velocity=64 time=0\n",
      "note_on channel=0 note=73 velocity=40 time=0\n",
      "note_on channel=0 note=80 velocity=42 time=0\n",
      "note_on channel=0 note=45 velocity=76 time=1\n",
      "note_on channel=0 note=64 velocity=88 time=0\n",
      "note_off channel=0 note=65 velocity=64 time=0\n",
      "note_on channel=0 note=68 velocity=59 time=0\n",
      "note_on channel=0 note=82 velocity=43 time=0\n",
      "note_off channel=0 note=83 velocity=64 time=0\n",
      "note_on channel=0 note=87 velocity=32 time=0\n",
      "note_off channel=0 note=80 velocity=64 time=1\n",
      "note_on channel=0 note=83 velocity=51 time=0\n",
      "note_off channel=0 note=84 velocity=64 time=0\n",
      "note_on channel=0 note=91 velocity=23 time=0\n",
      "note_on channel=0 note=44 velocity=78 time=1\n",
      "note_off channel=0 note=45 velocity=64 time=0\n",
      "note_on channel=0 note=55 velocity=41 time=0\n",
      "note_off channel=0 note=82 velocity=64 time=0\n",
      "note_on channel=0 note=80 velocity=84 time=1\n",
      "note_on channel=0 note=98 velocity=15 time=0\n",
      "note_off channel=0 note=44 velocity=64 time=1\n",
      "note_on channel=0 note=45 velocity=77 time=0\n",
      "note_off channel=0 note=55 velocity=64 time=0\n",
      "note_on channel=0 note=82 velocity=33 time=1\n",
      "note_off channel=0 note=83 velocity=64 time=0\n",
      "note_off channel=0 note=93 velocity=64 time=0\n",
      "note_off channel=0 note=73 velocity=64 time=1\n",
      "note_on channel=0 note=44 velocity=70 time=1\n",
      "note_off channel=0 note=45 velocity=64 time=0\n",
      "note_on channel=0 note=73 velocity=36 time=0\n",
      "note_off channel=0 note=82 velocity=64 time=0\n",
      "note_off channel=0 note=91 velocity=64 time=1\n",
      "note_on channel=0 note=93 velocity=34 time=0\n",
      "note_on channel=0 note=97 velocity=20 time=0\n",
      "note_off channel=0 note=98 velocity=64 time=0\n",
      "note_off channel=0 note=44 velocity=64 time=1\n",
      "note_on channel=0 note=84 velocity=13 time=0\n",
      "note_off channel=0 note=87 velocity=64 time=0\n",
      "note_on channel=0 note=42 velocity=58 time=1\n",
      "note_on channel=0 note=61 velocity=64 time=0\n",
      "note_on channel=0 note=91 velocity=68 time=0\n",
      "note_off channel=0 note=42 velocity=64 time=2\n",
      "note_on channel=0 note=87 velocity=34 time=0\n",
      "note_off channel=0 note=92 velocity=64 time=0\n",
      "note_on channel=0 note=85 velocity=42 time=1\n",
      "note_on channel=0 note=92 velocity=88 time=0\n",
      "note_on channel=0 note=48 velocity=67 time=1\n",
      "note_on channel=0 note=53 velocity=42 time=1\n",
      "note_on channel=0 note=47 velocity=72 time=1\n",
      "note_off channel=0 note=48 velocity=64 time=0\n",
      "note_off channel=0 note=68 velocity=64 time=0\n",
      "note_off channel=0 note=84 velocity=64 time=0\n",
      "note_off channel=0 note=53 velocity=64 time=1\n",
      "note_on channel=0 note=68 velocity=35 time=0\n",
      "note_off channel=0 note=47 velocity=64 time=1\n",
      "note_on channel=0 note=48 velocity=68 time=0\n",
      "note_off channel=0 note=91 velocity=64 time=0\n",
      "note_off channel=0 note=48 velocity=64 time=1\n",
      "note_on channel=0 note=50 velocity=76 time=0\n",
      "note_off channel=0 note=61 velocity=64 time=0\n",
      "note_off channel=0 note=76 velocity=64 time=0\n",
      "note_on channel=0 note=82 velocity=26 time=0\n",
      "note_off channel=0 note=97 velocity=64 time=0\n",
      "note_off channel=0 note=50 velocity=64 time=1\n",
      "note_on channel=0 note=53 velocity=73 time=0\n",
      "note_off channel=0 note=100 velocity=64 time=0\n",
      "note_off channel=0 note=82 velocity=64 time=2\n",
      "note_off channel=0 note=53 velocity=64 time=1\n",
      "note_off channel=0 note=87 velocity=64 time=0\n",
      "note_on channel=0 note=53 velocity=58 time=1\n",
      "note_on channel=0 note=82 velocity=28 time=0\n",
      "note_on channel=0 note=91 velocity=18 time=0\n",
      "note_off channel=0 note=53 velocity=64 time=3\n",
      "note_off channel=0 note=73 velocity=64 time=0\n",
      "note_off channel=0 note=82 velocity=64 time=0\n",
      "note_off channel=0 note=64 velocity=64 time=1\n",
      "note_on channel=0 note=82 velocity=46 time=0\n",
      "note_on channel=0 note=84 velocity=33 time=0\n",
      "note_on channel=0 note=87 velocity=44 time=0\n",
      "note_on channel=0 note=89 velocity=68 time=0\n",
      "note_off channel=0 note=91 velocity=64 time=0\n",
      "note_on channel=0 note=48 velocity=88 time=1\n",
      "note_on channel=0 note=61 velocity=50 time=0\n",
      "note_off channel=0 note=68 velocity=64 time=0\n",
      "note_on channel=0 note=74 velocity=37 time=0\n",
      "note_on channel=0 note=78 velocity=39 time=0\n",
      "note_on channel=0 note=81 velocity=36 time=0\n",
      "note_on channel=0 note=91 velocity=18 time=0\n",
      "note_on channel=0 note=65 velocity=58 time=1\n",
      "note_off channel=0 note=82 velocity=64 time=0\n",
      "note_off channel=0 note=90 velocity=64 time=0\n",
      "note_on channel=0 note=68 velocity=40 time=1\n",
      "note_off channel=0 note=74 velocity=64 time=0\n",
      "note_off channel=0 note=78 velocity=64 time=0\n",
      "note_off channel=0 note=81 velocity=64 time=0\n",
      "note_off channel=0 note=84 velocity=64 time=0\n",
      "note_on channel=0 note=90 velocity=40 time=0\n",
      "note_off channel=0 note=48 velocity=64 time=1\n",
      "note_off channel=0 note=61 velocity=64 time=0\n",
      "note_on channel=0 note=64 velocity=65 time=0\n",
      "note_off channel=0 note=65 velocity=64 time=0\n",
      "note_off channel=0 note=87 velocity=64 time=1\n",
      "note_on channel=0 note=48 velocity=67 time=1\n",
      "note_on channel=0 note=82 velocity=27 time=0\n",
      "note_off channel=0 note=91 velocity=64 time=0\n",
      "note_off channel=0 note=48 velocity=64 time=1\n",
      "note_on channel=0 note=91 velocity=12 time=0\n",
      "note_on channel=0 note=45 velocity=59 time=1\n",
      "note_off channel=0 note=89 velocity=64 time=1\n",
      "note_on channel=0 note=44 velocity=52 time=2\n",
      "note_off channel=0 note=45 velocity=64 time=0\n",
      "note_off channel=0 note=82 velocity=64 time=1\n",
      "note_off channel=0 note=85 velocity=64 time=0\n",
      "note_off channel=0 note=91 velocity=64 time=2\n",
      "note_on channel=0 note=54 velocity=21 time=1\n",
      "note_on channel=0 note=75 velocity=70 time=0\n",
      "note_on channel=0 note=82 velocity=47 time=0\n",
      "note_on channel=0 note=43 velocity=31 time=1\n",
      "note_off channel=0 note=44 velocity=64 time=0\n",
      "note_on channel=0 note=63 velocity=55 time=0\n",
      "note_off channel=0 note=64 velocity=64 time=0\n",
      "note_on channel=0 note=91 velocity=82 time=0\n",
      "note_on channel=0 note=101 velocity=21 time=0\n",
      "note_off channel=0 note=102 velocity=64 time=0\n",
      "note_on channel=0 note=97 velocity=20 time=1\n",
      "note_off channel=0 note=54 velocity=64 time=1\n",
      "note_off channel=0 note=92 velocity=64 time=1\n",
      "note_off channel=0 note=43 velocity=64 time=1\n",
      "note_on channel=0 note=54 velocity=19 time=1\n",
      "note_off channel=0 note=82 velocity=64 time=0\n",
      "note_on channel=0 note=83 velocity=49 time=0\n",
      "note_off channel=0 note=97 velocity=64 time=0\n",
      "note_off channel=0 note=63 velocity=64 time=1\n",
      "note_on channel=0 note=64 velocity=59 time=0\n",
      "note_on channel=0 note=43 velocity=24 time=1\n",
      "note_off channel=0 note=101 velocity=64 time=0\n",
      "note_off channel=0 note=54 velocity=64 time=1\n",
      "note_off channel=0 note=64 velocity=64 time=0\n",
      "note_off channel=0 note=75 velocity=64 time=0\n",
      "note_on channel=0 note=76 velocity=68 time=0\n",
      "note_on channel=0 note=64 velocity=57 time=1\n",
      "note_on channel=0 note=87 velocity=52 time=1\n",
      "note_on channel=0 note=63 velocity=50 time=1\n",
      "note_off channel=0 note=64 velocity=64 time=0\n",
      "note_on channel=0 note=75 velocity=73 time=0\n",
      "note_off channel=0 note=76 velocity=64 time=0\n",
      "note_on channel=0 note=82 velocity=45 time=0\n",
      "note_off channel=0 note=83 velocity=64 time=0\n",
      "note_on channel=0 note=101 velocity=10 time=0\n",
      "note_off channel=0 note=43 velocity=64 time=2\n",
      "note_off channel=0 note=63 velocity=64 time=0\n",
      "note_on channel=0 note=84 velocity=44 time=0\n",
      "note_on channel=0 note=89 velocity=67 time=0\n",
      "note_on channel=0 note=95 velocity=44 time=0\n",
      "note_on channel=0 note=57 velocity=38 time=1\n",
      "note_off channel=0 note=90 velocity=64 time=0\n",
      "note_on channel=0 note=45 velocity=74 time=1\n",
      "note_on channel=0 note=63 velocity=59 time=0\n",
      "note_off channel=0 note=68 velocity=64 time=0\n",
      "note_on channel=0 note=77 velocity=33 time=0\n",
      "note_on channel=0 note=85 velocity=36 time=0\n",
      "note_off channel=0 note=101 velocity=64 time=0\n",
      "note_on channel=0 note=44 velocity=77 time=1\n",
      "note_off channel=0 note=45 velocity=64 time=0\n",
      "note_off channel=0 note=93 velocity=64 time=0\n",
      "note_off channel=0 note=57 velocity=64 time=1\n",
      "note_off channel=0 note=77 velocity=64 time=0\n",
      "note_on channel=0 note=78 velocity=18 time=0\n",
      "note_on channel=0 note=90 velocity=26 time=0\n",
      "note_off channel=0 note=95 velocity=64 time=0\n",
      "note_off channel=0 note=63 velocity=64 time=1\n",
      "note_on channel=0 note=64 velocity=63 time=0\n",
      "note_on channel=0 note=68 velocity=38 time=0\n",
      "note_on channel=0 note=73 velocity=29 time=0\n",
      "note_on channel=0 note=88 velocity=39 time=0\n",
      "note_on channel=0 note=93 velocity=13 time=0\n",
      "note_on channel=0 note=43 velocity=73 time=1\n",
      "note_off channel=0 note=44 velocity=64 time=0\n",
      "note_off channel=0 note=87 velocity=64 time=0\n",
      "note_on channel=0 note=95 velocity=17 time=0\n",
      "note_off channel=0 note=75 velocity=64 time=1\n",
      "note_on channel=0 note=76 velocity=72 time=0\n",
      "note_off channel=0 note=84 velocity=64 time=1\n",
      "note_off channel=0 note=78 velocity=64 time=1\n",
      "note_off channel=0 note=89 velocity=64 time=0\n",
      "note_off channel=0 note=82 velocity=64 time=1\n",
      "note_on channel=0 note=89 velocity=47 time=3\n",
      "note_off channel=0 note=43 velocity=64 time=1\n",
      "note_on channel=0 note=44 velocity=19 time=0\n",
      "note_off channel=0 note=91 velocity=64 time=0\n",
      "note_on channel=0 note=82 velocity=18 time=2\n",
      "note_off channel=0 note=44 velocity=64 time=1\n",
      "note_off channel=0 note=85 velocity=64 time=0\n",
      "note_off channel=0 note=64 velocity=64 time=2\n",
      "note_on channel=0 note=91 velocity=70 time=0\n",
      "note_on channel=0 note=64 velocity=62 time=1\n",
      "note_on channel=0 note=87 velocity=45 time=0\n",
      "note_off channel=0 note=95 velocity=64 time=0\n",
      "note_off channel=0 note=88 velocity=64 time=1\n",
      "note_on channel=0 note=94 velocity=24 time=0\n",
      "note_on channel=0 note=63 velocity=56 time=1\n",
      "note_off channel=0 note=64 velocity=64 time=0\n",
      "note_on channel=0 note=75 velocity=70 time=0\n",
      "note_off channel=0 note=76 velocity=64 time=0\n",
      "note_off channel=0 note=82 velocity=64 time=0\n",
      "note_on channel=0 note=65 velocity=48 time=1\n",
      "note_off channel=0 note=73 velocity=64 time=0\n",
      "note_on channel=0 note=82 velocity=44 time=0\n",
      "note_off channel=0 note=90 velocity=64 time=0\n",
      "note_off channel=0 note=93 velocity=64 time=0\n",
      "note_off channel=0 note=65 velocity=64 time=2\n",
      "note_on channel=0 note=73 velocity=44 time=1\n",
      "note_off channel=0 note=63 velocity=64 time=2\n",
      "note_on channel=0 note=65 velocity=66 time=1\n",
      "note_off channel=0 note=71 velocity=64 time=0\n",
      "note_off channel=0 note=82 velocity=64 time=0\n",
      "note_on channel=0 note=62 velocity=66 time=1\n",
      "note_off channel=0 note=68 velocity=64 time=0\n",
      "note_on channel=0 note=96 velocity=9 time=0\n",
      "note_on channel=0 note=45 velocity=77 time=1\n",
      "note_off channel=0 note=62 velocity=64 time=0\n",
      "note_on channel=0 note=64 velocity=78 time=0\n",
      "note_off channel=0 note=65 velocity=64 time=0\n",
      "note_on channel=0 note=67 velocity=58 time=0\n",
      "note_on channel=0 note=90 velocity=34 time=0\n",
      "note_on channel=0 note=44 velocity=79 time=2\n",
      "note_off channel=0 note=45 velocity=64 time=0\n",
      "note_on channel=0 note=55 velocity=38 time=0\n",
      "note_on channel=0 note=63 velocity=66 time=0\n",
      "note_off channel=0 note=64 velocity=64 time=0\n",
      "note_off channel=0 note=67 velocity=64 time=0\n",
      "note_on channel=0 note=69 velocity=30 time=0\n",
      "note_on channel=0 note=82 velocity=29 time=0\n",
      "note_off channel=0 note=55 velocity=64 time=2\n",
      "note_off channel=0 note=63 velocity=64 time=0\n",
      "note_on channel=0 note=64 velocity=58 time=0\n",
      "note_on channel=0 note=68 velocity=33 time=0\n",
      "note_off channel=0 note=69 velocity=64 time=0\n",
      "note_off channel=0 note=90 velocity=64 time=0\n",
      "note_off channel=0 note=96 velocity=64 time=0\n",
      "note_on channel=0 note=90 velocity=32 time=1\n",
      "note_off channel=0 note=44 velocity=64 time=1\n",
      "note_off channel=0 note=64 velocity=64 time=0\n",
      "note_off channel=0 note=75 velocity=64 time=0\n",
      "note_on channel=0 note=76 velocity=68 time=0\n",
      "note_off channel=0 note=82 velocity=64 time=0\n",
      "note_on channel=0 note=83 velocity=28 time=0\n",
      "note_off channel=0 note=87 velocity=64 time=0\n",
      "note_off channel=0 note=94 velocity=64 time=0\n",
      "note_on channel=0 note=87 velocity=41 time=1\n",
      "note_on channel=0 note=43 velocity=61 time=1\n",
      "note_off channel=0 note=91 velocity=64 time=0\n",
      "note_on channel=0 note=91 velocity=32 time=1\n",
      "note_on channel=0 note=63 velocity=57 time=1\n",
      "note_off channel=0 note=90 velocity=64 time=0\n",
      "note_on channel=0 note=42 velocity=55 time=1\n",
      "note_off channel=0 note=43 velocity=64 time=0\n",
      "note_on channel=0 note=61 velocity=59 time=0\n",
      "note_off channel=0 note=63 velocity=64 time=1\n",
      "note_on channel=0 note=64 velocity=64 time=0\n",
      "note_off channel=0 note=42 velocity=64 time=1\n",
      "note_off channel=0 note=64 velocity=64 time=1\n",
      "note_off channel=0 note=73 velocity=64 time=0\n",
      "note_on channel=0 note=48 velocity=67 time=1\n",
      "note_on channel=0 note=71 velocity=17 time=0\n",
      "note_on channel=0 note=90 velocity=10 time=0\n",
      "note_off channel=0 note=91 velocity=64 time=0\n",
      "note_on channel=0 note=47 velocity=72 time=1\n",
      "note_off channel=0 note=48 velocity=64 time=0\n",
      "note_off channel=0 note=61 velocity=64 time=0\n",
      "note_on channel=0 note=64 velocity=60 time=0\n",
      "note_off channel=0 note=47 velocity=64 time=1\n",
      "note_on channel=0 note=48 velocity=72 time=0\n",
      "note_on channel=0 note=96 velocity=12 time=0\n",
      "note_on channel=0 note=63 velocity=58 time=1\n",
      "note_off channel=0 note=64 velocity=64 time=0\n",
      "note_on channel=0 note=91 velocity=61 time=0\n",
      "note_off channel=0 note=48 velocity=64 time=1\n",
      "note_on channel=0 note=50 velocity=78 time=0\n",
      "note_on channel=0 note=82 velocity=33 time=0\n",
      "note_off channel=0 note=83 velocity=64 time=0\n",
      "note_off channel=0 note=50 velocity=64 time=1\n",
      "note_on channel=0 note=53 velocity=73 time=0\n",
      "note_off channel=0 note=63 velocity=64 time=0\n",
      "note_off channel=0 note=89 velocity=64 time=0\n",
      "note_off channel=0 note=90 velocity=64 time=0\n",
      "note_on channel=0 note=62 velocity=68 time=2\n",
      "note_on channel=0 note=74 velocity=68 time=0\n",
      "note_off channel=0 note=76 velocity=64 time=0\n",
      "note_on channel=0 note=83 velocity=18 time=0\n",
      "note_off channel=0 note=96 velocity=64 time=0\n",
      "note_off channel=0 note=53 velocity=64 time=1\n",
      "note_on channel=0 note=90 velocity=45 time=0\n",
      "note_on channel=0 note=53 velocity=58 time=1\n",
      "note_on channel=0 note=81 velocity=43 time=0\n",
      "note_off channel=0 note=82 velocity=64 time=0\n",
      "note_on channel=0 note=89 velocity=51 time=0\n",
      "note_off channel=0 note=80 velocity=64 time=1\n",
      "note_off channel=0 note=91 velocity=64 time=0\n",
      "note_off channel=0 note=83 velocity=64 time=1\n",
      "note_on channel=0 note=91 velocity=33 time=0\n",
      "note_on channel=0 note=65 velocity=67 time=1\n",
      "note_off channel=0 note=71 velocity=64 time=0\n",
      "note_on channel=0 note=83 velocity=40 time=0\n",
      "note_off channel=0 note=53 velocity=64 time=1\n",
      "note_off channel=0 note=68 velocity=64 time=0\n",
      "note_on channel=0 note=80 velocity=85 time=0\n",
      "note_off channel=0 note=81 velocity=64 time=0\n",
      "note_on channel=0 note=96 velocity=15 time=0\n",
      "note_on channel=0 note=45 velocity=77 time=1\n",
      "note_on channel=0 note=53 velocity=52 time=0\n",
      "note_off channel=0 note=62 velocity=64 time=0\n",
      "note_on channel=0 note=64 velocity=83 time=0\n",
      "note_off channel=0 note=65 velocity=64 time=0\n",
      "note_on channel=0 note=73 velocity=59 time=1\n",
      "note_off channel=0 note=74 velocity=64 time=0\n",
      "note_on channel=0 note=44 velocity=79 time=1\n",
      "note_off channel=0 note=45 velocity=64 time=0\n",
      "note_off channel=0 note=53 velocity=64 time=0\n",
      "note_on channel=0 note=61 velocity=74 time=0\n",
      "note_on channel=0 note=63 velocity=69 time=0\n",
      "note_off channel=0 note=64 velocity=64 time=0\n",
      "note_off channel=0 note=96 velocity=64 time=0\n",
      "note_off channel=0 note=63 velocity=64 time=1\n",
      "note_on channel=0 note=88 velocity=25 time=0\n",
      "note_on channel=0 note=72 velocity=59 time=1\n",
      "note_off channel=0 note=73 velocity=64 time=0\n",
      "note_off channel=0 note=90 velocity=64 time=0\n",
      "note_on channel=0 note=60 velocity=54 time=1\n",
      "note_off channel=0 note=91 velocity=64 time=0\n",
      "note_off channel=0 note=61 velocity=64 time=1\n",
      "note_on channel=0 note=79 velocity=33 time=0\n",
      "note_off channel=0 note=88 velocity=64 time=0\n",
      "note_off channel=0 note=44 velocity=64 time=1\n",
      "note_off channel=0 note=60 velocity=64 time=0\n",
      "note_off channel=0 note=72 velocity=64 time=1\n",
      "note_on channel=0 note=73 velocity=56 time=0\n",
      "note_on channel=0 note=43 velocity=61 time=1\n",
      "note_on channel=0 note=61 velocity=70 time=0\n",
      "note_off channel=0 note=79 velocity=64 time=1\n",
      "note_off channel=0 note=83 velocity=64 time=0\n",
      "note_off channel=0 note=73 velocity=64 time=1\n",
      "note_on channel=0 note=85 velocity=36 time=0\n",
      "note_off channel=0 note=43 velocity=64 time=1\n",
      "note_off channel=0 note=61 velocity=64 time=1\n",
      "note_on channel=0 note=71 velocity=26 time=0\n",
      "note_on channel=0 note=61 velocity=61 time=1\n",
      "note_on channel=0 note=67 velocity=33 time=0\n",
      "note_on channel=0 note=48 velocity=74 time=2\n",
      "note_off channel=0 note=85 velocity=64 time=0\n",
      "note_on channel=0 note=47 velocity=75 time=1\n",
      "note_off channel=0 note=48 velocity=64 time=0\n",
      "note_off channel=0 note=61 velocity=64 time=0\n",
      "note_on channel=0 note=62 velocity=39 time=0\n",
      "note_off channel=0 note=47 velocity=64 time=1\n",
      "note_on channel=0 note=48 velocity=71 time=0\n",
      "note_on channel=0 note=65 velocity=57 time=0\n",
      "note_off channel=0 note=48 velocity=64 time=1\n",
      "note_on channel=0 note=49 velocity=77 time=0\n",
      "note_off channel=0 note=62 velocity=64 time=0\n",
      "note_off channel=0 note=49 velocity=64 time=1\n",
      "note_on channel=0 note=52 velocity=75 time=0\n",
      "note_off channel=0 note=67 velocity=64 time=0\n",
      "note_on channel=0 note=68 velocity=19 time=0\n",
      "note_off channel=0 note=52 velocity=64 time=1\n",
      "note_on channel=0 note=53 velocity=66 time=0\n",
      "note_off channel=0 note=53 velocity=64 time=1\n",
      "note_on channel=0 note=53 velocity=59 time=2\n",
      "note_off channel=0 note=68 velocity=64 time=0\n",
      "note_off channel=0 note=89 velocity=64 time=2\n",
      "note_off channel=0 note=71 velocity=64 time=2\n",
      "note_on channel=0 note=89 velocity=69 time=0\n",
      "note_on channel=0 note=95 velocity=39 time=0\n",
      "note_on channel=0 note=102 velocity=24 time=0\n",
      "note_on channel=0 note=48 velocity=87 time=1\n",
      "note_off channel=0 note=53 velocity=64 time=0\n",
      "note_on channel=0 note=71 velocity=28 time=0\n",
      "note_on channel=0 note=74 velocity=38 time=0\n",
      "note_on channel=0 note=76 velocity=40 time=0\n",
      "note_on channel=0 note=82 velocity=36 time=0\n",
      "note_on channel=0 note=64 velocity=58 time=1\n",
      "note_off channel=0 note=65 velocity=64 time=0\n",
      "note_on channel=0 note=77 velocity=38 time=0\n",
      "note_on channel=0 note=78 velocity=30 time=0\n",
      "note_on channel=0 note=81 velocity=32 time=0\n",
      "note_on channel=0 note=73 velocity=35 time=1\n",
      "note_off channel=0 note=74 velocity=64 time=0\n",
      "note_off channel=0 note=76 velocity=64 time=0\n",
      "note_off channel=0 note=102 velocity=64 time=0\n",
      "note_on channel=0 note=46 velocity=70 time=1\n",
      "note_off channel=0 note=48 velocity=64 time=0\n",
      "note_off channel=0 note=64 velocity=64 time=0\n",
      "note_off channel=0 note=78 velocity=64 time=0\n",
      "note_off channel=0 note=81 velocity=64 time=0\n",
      "note_on channel=0 note=65 velocity=51 time=1\n",
      "note_off channel=0 note=46 velocity=64 time=1\n",
      "note_on channel=0 note=47 velocity=68 time=0\n",
      "note_off channel=0 note=95 velocity=64 time=0\n",
      "note_off channel=0 note=47 velocity=64 time=1\n",
      "note_on channel=0 note=91 velocity=61 time=0\n",
      "note_on channel=0 note=45 velocity=59 time=1\n",
      "note_on channel=0 note=61 velocity=19 time=0\n",
      "note_off channel=0 note=87 velocity=64 time=0\n",
      "note_off channel=0 note=82 velocity=64 time=2\n",
      "note_on channel=0 note=54 velocity=33 time=1\n",
      "note_off channel=0 note=61 velocity=64 time=0\n",
      "note_on channel=0 note=87 velocity=42 time=0\n",
      "note_on channel=0 note=44 velocity=51 time=1\n",
      "note_off channel=0 note=45 velocity=64 time=0\n",
      "note_on channel=0 note=68 velocity=16 time=0\n",
      "note_on channel=0 note=75 velocity=50 time=0\n",
      "note_on channel=0 note=83 velocity=49 time=0\n",
      "note_on channel=0 note=61 velocity=57 time=2\n",
      "note_on channel=0 note=43 velocity=34 time=2\n",
      "note_off channel=0 note=44 velocity=64 time=0\n",
      "note_off channel=0 note=43 velocity=64 time=2\n",
      "note_off channel=0 note=54 velocity=64 time=0\n",
      "note_on channel=0 note=43 velocity=27 time=1\n",
      "note_on channel=0 note=54 velocity=31 time=0\n",
      "note_off channel=0 note=71 velocity=64 time=2\n",
      "note_off channel=0 note=54 velocity=64 time=1\n",
      "note_off channel=0 note=43 velocity=64 time=2\n",
      "note_on channel=0 note=53 velocity=30 time=0\n",
      "note_on channel=0 note=71 velocity=27 time=1\n",
      "note_off channel=0 note=53 velocity=64 time=1\n",
      "note_on channel=0 note=84 velocity=44 time=3\n",
      "note_on channel=0 note=93 velocity=23 time=0\n",
      "note_off channel=0 note=68 velocity=64 time=1\n",
      "note_off channel=0 note=73 velocity=64 time=0\n",
      "note_on channel=0 note=102 velocity=26 time=0\n",
      "note_on channel=0 note=45 velocity=76 time=1\n",
      "note_off channel=0 note=65 velocity=64 time=0\n",
      "note_on channel=0 note=69 velocity=41 time=0\n",
      "note_off channel=0 note=71 velocity=64 time=0\n",
      "note_on channel=0 note=85 velocity=61 time=0\n",
      "note_on channel=0 note=90 velocity=36 time=0\n",
      "note_off channel=0 note=93 velocity=64 time=1\n",
      "note_on channel=0 note=94 velocity=14 time=0\n",
      "note_on channel=0 note=44 velocity=77 time=1\n",
      "note_off channel=0 note=45 velocity=64 time=0\n",
      "note_on channel=0 note=73 velocity=94 time=0\n",
      "note_off channel=0 note=102 velocity=64 time=0\n",
      "note_off channel=0 note=61 velocity=64 time=1\n",
      "note_on channel=0 note=65 velocity=35 time=0\n",
      "note_off channel=0 note=69 velocity=64 time=0\n",
      "note_on channel=0 note=62 velocity=37 time=1\n",
      "note_off channel=0 note=90 velocity=64 time=0\n",
      "note_off channel=0 note=94 velocity=64 time=0\n",
      "note_on channel=0 note=43 velocity=73 time=1\n",
      "note_off channel=0 note=44 velocity=64 time=0\n",
      "note_off channel=0 note=65 velocity=64 time=0\n",
      "note_on channel=0 note=71 velocity=18 time=0\n",
      "note_off channel=0 note=75 velocity=64 time=1\n",
      "note_on channel=0 note=90 velocity=14 time=1\n",
      "note_on channel=0 note=93 velocity=30 time=0\n",
      "note_off channel=0 note=62 velocity=64 time=1\n",
      "note_off channel=0 note=77 velocity=64 time=0\n",
      "note_off channel=0 note=84 velocity=64 time=0\n",
      "note_on channel=0 note=77 velocity=33 time=1\n",
      "note_on channel=0 note=61 velocity=86 time=1\n",
      "note_on channel=0 note=67 velocity=22 time=0\n",
      "note_off channel=0 note=71 velocity=64 time=0\n",
      "note_on channel=0 note=94 velocity=59 time=0\n",
      "note_on channel=0 note=100 velocity=13 time=1\n",
      "note_off channel=0 note=43 velocity=64 time=1\n",
      "note_off channel=0 note=67 velocity=64 time=1\n",
      "note_off channel=0 note=93 velocity=64 time=0\n",
      "note_on channel=0 note=102 velocity=26 time=0\n",
      "note_off channel=0 note=100 velocity=64 time=1\n",
      "note_on channel=0 note=82 velocity=29 time=1\n",
      "note_on channel=0 note=88 velocity=51 time=0\n",
      "note_off channel=0 note=83 velocity=64 time=1\n",
      "note_off channel=0 note=89 velocity=64 time=0\n",
      "note_off channel=0 note=80 velocity=64 time=1\n",
      "note_off channel=0 note=88 velocity=64 time=0\n",
      "note_on channel=0 note=89 velocity=52 time=0\n",
      "note_on channel=0 note=60 velocity=74 time=1\n",
      "note_off channel=0 note=61 velocity=64 time=0\n",
      "note_on channel=0 note=80 velocity=73 time=0\n",
      "note_on channel=0 note=65 velocity=14 time=2\n",
      "note_off channel=0 note=60 velocity=64 time=1\n",
      "note_on channel=0 note=61 velocity=91 time=0\n",
      "note_on channel=0 note=79 velocity=71 time=0\n",
      "note_off channel=0 note=80 velocity=64 time=0\n",
      "note_off channel=0 note=79 velocity=64 time=1\n",
      "note_on channel=0 note=80 velocity=73 time=0\n",
      "note_on channel=0 note=83 velocity=36 time=2\n",
      "note_off channel=0 note=87 velocity=64 time=0\n",
      "note_off channel=0 note=90 velocity=64 time=0\n",
      "note_off channel=0 note=65 velocity=64 time=1\n",
      "note_off channel=0 note=82 velocity=64 time=0\n",
      "note_off channel=0 note=91 velocity=64 time=0\n",
      "note_off channel=0 note=94 velocity=64 time=1\n",
      "note_on channel=0 note=95 velocity=54 time=0\n",
      "note_on channel=0 note=68 velocity=43 time=1\n",
      "note_on channel=0 note=79 velocity=32 time=0\n",
      "note_on channel=0 note=82 velocity=63 time=0\n",
      "note_off channel=0 note=102 velocity=64 time=0\n",
      "note_on channel=0 note=87 velocity=32 time=1\n",
      "note_off channel=0 note=61 velocity=64 time=1\n",
      "note_on channel=0 note=62 velocity=96 time=0\n",
      "note_off channel=0 note=80 velocity=64 time=0\n",
      "note_off channel=0 note=83 velocity=64 time=0\n",
      "note_on channel=0 note=84 velocity=37 time=0\n",
      "note_on channel=0 note=90 velocity=48 time=0\n",
      "note_off channel=0 note=62 velocity=64 time=1\n",
      "note_on channel=0 note=63 velocity=93 time=0\n",
      "note_off channel=0 note=68 velocity=64 time=0\n",
      "note_off channel=0 note=79 velocity=64 time=0\n",
      "note_on channel=0 note=80 velocity=89 time=0\n",
      "note_on channel=0 note=91 velocity=12 time=0\n",
      "note_on channel=0 note=93 velocity=29 time=0\n",
      "note_on channel=0 note=71 velocity=54 time=1\n",
      "note_off channel=0 note=90 velocity=64 time=0\n",
      "note_on channel=0 note=68 velocity=20 time=1\n",
      "note_off channel=0 note=82 velocity=64 time=0\n",
      "note_off channel=0 note=84 velocity=64 time=0\n"
     ]
    },
    {
     "name": "stdout",
     "output_type": "stream",
     "text": [
      "note_on channel=0 note=88 velocity=34 time=0\n",
      "note_off channel=0 note=89 velocity=64 time=0\n",
      "note_on channel=0 note=90 velocity=23 time=1\n",
      "note_off channel=0 note=91 velocity=64 time=0\n",
      "note_off channel=0 note=93 velocity=64 time=0\n",
      "note_off channel=0 note=95 velocity=64 time=0\n",
      "note_off channel=0 note=85 velocity=64 time=1\n",
      "note_on channel=0 note=84 velocity=15 time=5\n",
      "note_off channel=0 note=68 velocity=64 time=3\n",
      "note_off channel=0 note=90 velocity=64 time=0\n",
      "note_on channel=0 note=68 velocity=34 time=1\n",
      "note_off channel=0 note=73 velocity=64 time=0\n",
      "note_on channel=0 note=74 velocity=80 time=0\n",
      "note_on channel=0 note=90 velocity=45 time=0\n",
      "note_on channel=0 note=91 velocity=30 time=1\n",
      "note_on channel=0 note=62 velocity=87 time=5\n",
      "note_on channel=0 note=93 velocity=25 time=0\n",
      "note_off channel=0 note=63 velocity=64 time=1\n",
      "note_off channel=0 note=68 velocity=64 time=0\n",
      "note_on channel=0 note=82 velocity=66 time=0\n",
      "note_on channel=0 note=68 velocity=15 time=1\n",
      "note_off channel=0 note=62 velocity=64 time=1\n",
      "note_on channel=0 note=63 velocity=88 time=0\n",
      "note_on channel=0 note=62 velocity=85 time=1\n",
      "note_off channel=0 note=63 velocity=64 time=0\n",
      "note_off channel=0 note=84 velocity=64 time=0\n",
      "note_off channel=0 note=77 velocity=64 time=2\n",
      "note_on channel=0 note=78 velocity=42 time=1\n",
      "note_off channel=0 note=62 velocity=64 time=1\n",
      "note_on channel=0 note=63 velocity=89 time=0\n",
      "note_off channel=0 note=68 velocity=64 time=0\n",
      "note_off channel=0 note=88 velocity=64 time=0\n",
      "note_on channel=0 note=89 velocity=42 time=0\n",
      "note_on channel=0 note=95 velocity=21 time=0\n",
      "note_on channel=0 note=62 velocity=90 time=1\n",
      "note_off channel=0 note=63 velocity=64 time=0\n",
      "note_on channel=0 note=57 velocity=51 time=1\n",
      "note_on channel=0 note=85 velocity=20 time=0\n",
      "note_on channel=0 note=96 velocity=25 time=0\n",
      "note_off channel=0 note=62 velocity=64 time=1\n",
      "note_on channel=0 note=63 velocity=92 time=0\n",
      "note_off channel=0 note=78 velocity=64 time=0\n",
      "note_off channel=0 note=87 velocity=64 time=0\n",
      "note_on channel=0 note=68 velocity=26 time=1\n",
      "note_off channel=0 note=71 velocity=64 time=0\n",
      "note_on channel=0 note=88 velocity=22 time=0\n",
      "note_off channel=0 note=91 velocity=64 time=0\n",
      "note_off channel=0 note=57 velocity=64 time=1\n",
      "note_on channel=0 note=71 velocity=30 time=0\n",
      "note_on channel=0 note=73 velocity=29 time=0\n",
      "note_off channel=0 note=74 velocity=64 time=0\n",
      "note_off channel=0 note=82 velocity=64 time=0\n",
      "note_off channel=0 note=85 velocity=64 time=0\n",
      "note_off channel=0 note=89 velocity=64 time=0\n",
      "note_on channel=0 note=91 velocity=72 time=0\n",
      "note_off channel=0 note=93 velocity=64 time=0\n",
      "note_on channel=0 note=94 velocity=56 time=0\n",
      "note_on channel=0 note=101 velocity=39 time=0\n",
      "note_on channel=0 note=53 velocity=25 time=1\n",
      "note_off channel=0 note=71 velocity=64 time=1\n",
      "note_off channel=0 note=73 velocity=64 time=0\n",
      "note_on channel=0 note=93 velocity=66 time=0\n",
      "note_off channel=0 note=96 velocity=64 time=0\n",
      "note_on channel=0 note=97 velocity=26 time=0\n",
      "note_on channel=0 note=99 velocity=11 time=0\n",
      "note_off channel=0 note=68 velocity=64 time=1\n",
      "note_on channel=0 note=71 velocity=37 time=0\n",
      "note_on channel=0 note=77 velocity=17 time=0\n",
      "note_on channel=0 note=85 velocity=14 time=0\n",
      "note_off channel=0 note=53 velocity=64 time=1\n",
      "note_on channel=0 note=82 velocity=28 time=1\n",
      "note_on channel=0 note=96 velocity=38 time=0\n",
      "note_off channel=0 note=97 velocity=64 time=0\n",
      "note_on channel=0 note=70 velocity=37 time=1\n",
      "note_off channel=0 note=71 velocity=64 time=0\n",
      "note_off channel=0 note=88 velocity=64 time=0\n",
      "note_on channel=0 note=88 velocity=24 time=1\n",
      "note_off channel=0 note=90 velocity=64 time=0\n",
      "note_on channel=0 note=100 velocity=44 time=0\n",
      "note_off channel=0 note=101 velocity=64 time=0\n",
      "note_on channel=0 note=102 velocity=28 time=0\n",
      "note_on channel=0 note=68 velocity=29 time=1\n",
      "note_off channel=0 note=77 velocity=64 time=0\n",
      "note_on channel=0 note=78 velocity=18 time=0\n",
      "note_on channel=0 note=81 velocity=63 time=0\n",
      "note_off channel=0 note=85 velocity=64 time=0\n",
      "note_on channel=0 note=90 velocity=69 time=0\n",
      "note_off channel=0 note=91 velocity=64 time=0\n",
      "note_off channel=0 note=94 velocity=64 time=0\n",
      "note_off channel=0 note=99 velocity=64 time=0\n",
      "note_off channel=0 note=70 velocity=64 time=1\n",
      "note_on channel=0 note=71 velocity=52 time=0\n",
      "note_on channel=0 note=74 velocity=92 time=0\n",
      "note_off channel=0 note=82 velocity=64 time=0\n",
      "note_on channel=0 note=91 velocity=30 time=1\n",
      "note_off channel=0 note=78 velocity=64 time=1\n",
      "note_on channel=0 note=78 velocity=22 time=1\n",
      "note_on channel=0 note=84 velocity=30 time=1\n",
      "note_on channel=0 note=77 velocity=23 time=1\n",
      "note_off channel=0 note=78 velocity=64 time=2\n",
      "note_off channel=0 note=102 velocity=64 time=0\n",
      "note_on channel=0 note=78 velocity=44 time=1\n",
      "note_off channel=0 note=77 velocity=64 time=1\n",
      "note_off channel=0 note=91 velocity=64 time=2\n",
      "note_off channel=0 note=95 velocity=64 time=1\n",
      "note_off channel=0 note=63 velocity=64 time=1\n",
      "note_on channel=0 note=63 velocity=86 time=1\n",
      "note_on channel=0 note=85 velocity=34 time=1\n",
      "note_off channel=0 note=88 velocity=64 time=0\n",
      "note_on channel=0 note=89 velocity=74 time=0\n",
      "note_on channel=0 note=95 velocity=31 time=0\n",
      "note_on channel=0 note=94 velocity=21 time=1\n",
      "note_off channel=0 note=100 velocity=64 time=0\n",
      "note_off channel=0 note=68 velocity=64 time=1\n",
      "note_on channel=0 note=77 velocity=34 time=0\n",
      "note_off channel=0 note=78 velocity=64 time=0\n",
      "note_off channel=0 note=81 velocity=64 time=0\n",
      "note_on channel=0 note=87 velocity=42 time=0\n",
      "note_on channel=0 note=100 velocity=23 time=0\n",
      "note_off channel=0 note=63 velocity=64 time=1\n",
      "note_on channel=0 note=68 velocity=32 time=0\n",
      "note_on channel=0 note=78 velocity=16 time=0\n",
      "note_on channel=0 note=81 velocity=70 time=0\n",
      "note_off channel=0 note=77 velocity=64 time=1\n",
      "note_off channel=0 note=94 velocity=64 time=0\n",
      "note_on channel=0 note=63 velocity=68 time=1\n",
      "note_off channel=0 note=87 velocity=64 time=1\n",
      "note_on channel=0 note=62 velocity=65 time=1\n",
      "note_off channel=0 note=63 velocity=64 time=0\n",
      "note_on channel=0 note=88 velocity=23 time=2\n",
      "note_off channel=0 note=89 velocity=64 time=0\n",
      "note_off channel=0 note=95 velocity=64 time=0\n",
      "note_off channel=0 note=74 velocity=64 time=1\n",
      "note_on channel=0 note=75 velocity=81 time=0\n",
      "note_off channel=0 note=81 velocity=64 time=0\n",
      "note_on channel=0 note=82 velocity=94 time=0\n",
      "note_off channel=0 note=93 velocity=64 time=0\n",
      "note_off channel=0 note=100 velocity=64 time=0\n",
      "note_on channel=0 note=101 velocity=45 time=0\n",
      "note_off channel=0 note=62 velocity=64 time=1\n",
      "note_on channel=0 note=63 velocity=56 time=0\n",
      "note_on channel=0 note=87 velocity=83 time=0\n",
      "note_on channel=0 note=91 velocity=66 time=0\n",
      "note_off channel=0 note=88 velocity=64 time=2\n",
      "note_off channel=0 note=63 velocity=64 time=1\n",
      "note_on channel=0 note=64 velocity=58 time=0\n",
      "note_off channel=0 note=78 velocity=64 time=0\n",
      "note_on channel=0 note=88 velocity=75 time=0\n",
      "note_off channel=0 note=96 velocity=64 time=0\n",
      "note_on channel=0 note=76 velocity=86 time=1\n",
      "note_off channel=0 note=82 velocity=64 time=0\n",
      "note_on channel=0 note=83 velocity=82 time=0\n",
      "note_off channel=0 note=84 velocity=64 time=0\n",
      "note_off channel=0 note=64 velocity=64 time=2\n",
      "note_on channel=0 note=65 velocity=54 time=0\n",
      "note_on channel=0 note=73 velocity=33 time=0\n",
      "note_off channel=0 note=75 velocity=64 time=0\n",
      "note_on channel=0 note=98 velocity=32 time=0\n",
      "note_on channel=0 note=75 velocity=40 time=1\n",
      "note_off channel=0 note=76 velocity=64 time=0\n",
      "note_on channel=0 note=77 velocity=103 time=0\n",
      "note_on channel=0 note=82 velocity=43 time=0\n",
      "note_off channel=0 note=88 velocity=64 time=0\n",
      "note_on channel=0 note=93 velocity=65 time=0\n",
      "note_on channel=0 note=96 velocity=55 time=0\n",
      "note_off channel=0 note=73 velocity=64 time=1\n",
      "note_on channel=0 note=84 velocity=61 time=0\n",
      "note_off channel=0 note=85 velocity=64 time=0\n",
      "note_off channel=0 note=87 velocity=64 time=0\n",
      "note_off channel=0 note=90 velocity=64 time=0\n",
      "note_on channel=0 note=99 velocity=41 time=0\n",
      "note_off channel=0 note=68 velocity=64 time=1\n",
      "note_off channel=0 note=75 velocity=64 time=0\n",
      "note_off channel=0 note=82 velocity=64 time=0\n",
      "note_off channel=0 note=91 velocity=64 time=0\n",
      "note_on channel=0 note=73 velocity=37 time=1\n",
      "note_off channel=0 note=65 velocity=64 time=1\n",
      "note_on channel=0 note=66 velocity=55 time=0\n",
      "note_on channel=0 note=82 velocity=31 time=0\n",
      "note_off channel=0 note=83 velocity=64 time=0\n",
      "note_on channel=0 note=90 velocity=88 time=0\n",
      "note_on channel=0 note=97 velocity=57 time=0\n",
      "note_off channel=0 note=98 velocity=64 time=0\n",
      "note_on channel=0 note=78 velocity=97 time=1\n",
      "note_on channel=0 note=85 velocity=75 time=0\n",
      "note_on channel=0 note=94 velocity=68 time=0\n",
      "note_off channel=0 note=96 velocity=64 time=0\n",
      "note_off channel=0 note=77 velocity=64 time=1\n",
      "note_off channel=0 note=84 velocity=64 time=0\n",
      "note_off channel=0 note=93 velocity=64 time=0\n",
      "note_off channel=0 note=82 velocity=64 time=1\n",
      "note_on channel=0 note=87 velocity=41 time=0\n",
      "note_off channel=0 note=99 velocity=64 time=0\n",
      "note_on channel=0 note=100 velocity=36 time=0\n",
      "note_on channel=0 note=68 velocity=33 time=1\n",
      "note_off channel=0 note=101 velocity=64 time=0\n",
      "note_on channel=0 note=77 velocity=102 time=1\n",
      "note_off channel=0 note=100 velocity=64 time=0\n",
      "note_off channel=0 note=68 velocity=64 time=1\n",
      "note_on channel=0 note=75 velocity=46 time=0\n",
      "note_off channel=0 note=78 velocity=64 time=0\n",
      "note_on channel=0 note=93 velocity=57 time=0\n",
      "note_off channel=0 note=94 velocity=64 time=0\n",
      "note_on channel=0 note=101 velocity=57 time=0\n",
      "note_on channel=0 note=65 velocity=60 time=1\n",
      "note_off channel=0 note=66 velocity=64 time=0\n",
      "note_on channel=0 note=84 velocity=62 time=0\n",
      "note_off channel=0 note=90 velocity=64 time=0\n",
      "note_on channel=0 note=68 velocity=54 time=1\n",
      "note_off channel=0 note=85 velocity=64 time=0\n",
      "note_on channel=0 note=95 velocity=37 time=0\n",
      "note_off channel=0 note=97 velocity=64 time=0\n",
      "note_on channel=0 note=98 velocity=19 time=0\n",
      "note_on channel=0 note=102 velocity=67 time=0\n",
      "note_on channel=0 note=55 velocity=67 time=1\n",
      "note_on channel=0 note=61 velocity=78 time=0\n",
      "note_on channel=0 note=72 velocity=44 time=0\n",
      "note_off channel=0 note=73 velocity=64 time=0\n",
      "note_on channel=0 note=91 velocity=34 time=0\n",
      "note_on channel=0 note=100 velocity=29 time=0\n",
      "note_off channel=0 note=55 velocity=64 time=1\n",
      "note_on channel=0 note=57 velocity=60 time=0\n",
      "note_off channel=0 note=65 velocity=64 time=0\n",
      "note_off channel=0 note=75 velocity=64 time=0\n",
      "note_on channel=0 note=76 velocity=80 time=0\n",
      "note_on channel=0 note=78 velocity=37 time=0\n",
      "note_on channel=0 note=83 velocity=71 time=0\n",
      "note_off channel=0 note=84 velocity=64 time=0\n",
      "note_on channel=0 note=90 velocity=41 time=0\n",
      "note_off channel=0 note=71 velocity=64 time=1\n",
      "note_off channel=0 note=72 velocity=64 time=0\n",
      "note_off channel=0 note=77 velocity=64 time=0\n",
      "note_off channel=0 note=93 velocity=64 time=0\n",
      "note_off channel=0 note=101 velocity=64 time=0\n",
      "note_off channel=0 note=57 velocity=64 time=1\n",
      "note_off channel=0 note=61 velocity=64 time=0\n",
      "note_on channel=0 note=71 velocity=36 time=0\n",
      "note_off channel=0 note=78 velocity=64 time=0\n",
      "note_on channel=0 note=93 velocity=38 time=0\n",
      "note_on channel=0 note=64 velocity=65 time=1\n",
      "note_on channel=0 note=89 velocity=63 time=0\n",
      "note_off channel=0 note=91 velocity=64 time=0\n",
      "note_on channel=0 note=53 velocity=42 time=1\n",
      "note_on channel=0 note=78 velocity=35 time=1\n",
      "note_on channel=0 note=91 velocity=32 time=0\n",
      "note_off channel=0 note=80 velocity=64 time=1\n",
      "note_off channel=0 note=53 velocity=64 time=1\n",
      "note_off channel=0 note=78 velocity=64 time=1\n",
      "note_off channel=0 note=91 velocity=64 time=0\n",
      "note_off channel=0 note=98 velocity=64 time=0\n",
      "note_on channel=0 note=63 velocity=62 time=1\n",
      "note_off channel=0 note=64 velocity=64 time=0\n",
      "note_on channel=0 note=91 velocity=74 time=0\n",
      "note_off channel=0 note=95 velocity=64 time=0\n",
      "note_off channel=0 note=100 velocity=64 time=0\n",
      "note_on channel=0 note=75 velocity=73 time=1\n",
      "note_off channel=0 note=76 velocity=64 time=0\n",
      "note_on channel=0 note=82 velocity=71 time=0\n",
      "note_off channel=0 note=83 velocity=64 time=0\n",
      "note_on channel=0 note=62 velocity=73 time=1\n",
      "note_off channel=0 note=63 velocity=64 time=0\n",
      "note_on channel=0 note=76 velocity=42 time=0\n",
      "note_on channel=0 note=83 velocity=47 time=0\n",
      "note_off channel=0 note=90 velocity=64 time=0\n",
      "note_off channel=0 note=68 velocity=64 time=1\n",
      "note_on channel=0 note=74 velocity=84 time=0\n",
      "note_off channel=0 note=75 velocity=64 time=0\n",
      "note_on channel=0 note=90 velocity=72 time=0\n",
      "note_on channel=0 note=96 velocity=13 time=0\n",
      "note_on channel=0 note=53 velocity=42 time=1\n",
      "note_off channel=0 note=76 velocity=64 time=0\n",
      "note_on channel=0 note=88 velocity=32 time=0\n",
      "note_on channel=0 note=72 velocity=38 time=1\n",
      "note_on channel=0 note=78 velocity=24 time=0\n",
      "note_on channel=0 note=80 velocity=39 time=0\n",
      "note_off channel=0 note=83 velocity=64 time=0\n",
      "note_on channel=0 note=65 velocity=53 time=1\n",
      "note_off channel=0 note=91 velocity=64 time=0\n",
      "note_off channel=0 note=96 velocity=64 time=0\n",
      "note_off channel=0 note=53 velocity=64 time=1\n",
      "note_off channel=0 note=71 velocity=64 time=0\n",
      "note_off channel=0 note=65 velocity=64 time=1\n",
      "note_on channel=0 note=68 velocity=19 time=0\n",
      "note_off channel=0 note=72 velocity=64 time=0\n",
      "note_off channel=0 note=78 velocity=64 time=0\n",
      "note_off channel=0 note=80 velocity=64 time=0\n",
      "note_off channel=0 note=87 velocity=64 time=0\n",
      "note_off channel=0 note=88 velocity=64 time=0\n",
      "note_on channel=0 note=53 velocity=25 time=1\n",
      "note_on channel=0 note=65 velocity=52 time=0\n",
      "note_on channel=0 note=81 velocity=57 time=0\n",
      "note_off channel=0 note=82 velocity=64 time=0\n",
      "note_on channel=0 note=82 velocity=42 time=1\n",
      "note_on channel=0 note=87 velocity=27 time=0\n",
      "note_on channel=0 note=88 velocity=39 time=0\n",
      "note_off channel=0 note=102 velocity=64 time=0\n",
      "note_on channel=0 note=61 velocity=79 time=1\n",
      "note_off channel=0 note=62 velocity=64 time=0\n",
      "note_off channel=0 note=74 velocity=64 time=0\n",
      "note_on channel=0 note=80 velocity=65 time=0\n",
      "note_off channel=0 note=81 velocity=64 time=0\n",
      "note_off channel=0 note=53 velocity=64 time=1\n",
      "note_off channel=0 note=88 velocity=64 time=0\n",
      "note_off channel=0 note=90 velocity=64 time=1\n",
      "note_on channel=0 note=91 velocity=36 time=0\n",
      "note_on channel=0 note=71 velocity=36 time=2\n",
      "note_on channel=0 note=86 velocity=23 time=0\n",
      "note_on channel=0 note=88 velocity=38 time=0\n",
      "note_off channel=0 note=61 velocity=64 time=1\n",
      "note_on channel=0 note=62 velocity=82 time=0\n",
      "note_off channel=0 note=80 velocity=64 time=0\n",
      "note_on channel=0 note=81 velocity=64 time=0\n",
      "note_off channel=0 note=89 velocity=64 time=0\n",
      "note_on channel=0 note=90 velocity=68 time=0\n",
      "note_off channel=0 note=91 velocity=64 time=0\n",
      "note_off channel=0 note=68 velocity=64 time=2\n",
      "note_on channel=0 note=91 velocity=22 time=0\n",
      "note_on channel=0 note=96 velocity=17 time=0\n",
      "note_off channel=0 note=65 velocity=64 time=1\n",
      "note_on channel=0 note=84 velocity=9 time=0\n",
      "note_off channel=0 note=86 velocity=64 time=0\n",
      "note_on channel=0 note=92 velocity=49 time=0\n",
      "note_on channel=0 note=45 velocity=74 time=1\n",
      "note_on channel=0 note=53 velocity=42 time=0\n",
      "note_on channel=0 note=61 velocity=80 time=0\n",
      "note_off channel=0 note=62 velocity=64 time=0\n",
      "note_on channel=0 note=64 velocity=82 time=0\n",
      "note_on channel=0 note=67 velocity=55 time=0\n",
      "note_off channel=0 note=87 velocity=64 time=0\n",
      "note_on channel=0 note=89 velocity=65 time=0\n",
      "note_off channel=0 note=90 velocity=64 time=0\n",
      "note_on channel=0 note=44 velocity=78 time=1\n",
      "note_off channel=0 note=45 velocity=64 time=0\n",
      "note_off channel=0 note=64 velocity=64 time=0\n",
      "note_off channel=0 note=71 velocity=64 time=0\n",
      "note_on channel=0 note=87 velocity=52 time=0\n",
      "note_off channel=0 note=88 velocity=64 time=0\n",
      "note_off channel=0 note=96 velocity=64 time=0\n",
      "note_off channel=0 note=53 velocity=64 time=1\n",
      "note_on channel=0 note=80 velocity=54 time=0\n",
      "note_off channel=0 note=81 velocity=64 time=0\n",
      "note_off channel=0 note=84 velocity=64 time=0\n",
      "note_off channel=0 note=67 velocity=64 time=1\n",
      "note_on channel=0 note=68 velocity=37 time=0\n",
      "note_on channel=0 note=90 velocity=34 time=1\n",
      "note_off channel=0 note=91 velocity=64 time=0\n",
      "note_off channel=0 note=44 velocity=64 time=1\n",
      "note_on channel=0 note=65 velocity=41 time=0\n",
      "note_off channel=0 note=89 velocity=64 time=0\n",
      "note_on channel=0 note=91 velocity=34 time=0\n",
      "note_on channel=0 note=41 velocity=56 time=1\n",
      "note_off channel=0 note=68 velocity=64 time=0\n",
      "note_on channel=0 note=89 velocity=64 time=0\n",
      "note_off channel=0 note=41 velocity=64 time=2\n",
      "note_on channel=0 note=43 velocity=61 time=0\n",
      "note_on channel=0 note=42 velocity=54 time=3\n",
      "note_off channel=0 note=43 velocity=64 time=0\n",
      "note_off channel=0 note=65 velocity=64 time=0\n",
      "note_on channel=0 note=60 velocity=58 time=1\n",
      "note_off channel=0 note=61 velocity=64 time=0\n",
      "note_on channel=0 note=72 velocity=76 time=0\n",
      "note_on channel=0 note=88 velocity=36 time=0\n",
      "note_off channel=0 note=42 velocity=64 time=1\n",
      "note_off channel=0 note=93 velocity=64 time=0\n",
      "note_on channel=0 note=48 velocity=67 time=1\n",
      "note_off channel=0 note=60 velocity=64 time=0\n",
      "note_on channel=0 note=61 velocity=70 time=0\n",
      "note_on channel=0 note=79 velocity=68 time=0\n",
      "note_off channel=0 note=80 velocity=64 time=0\n",
      "note_off channel=0 note=88 velocity=64 time=0\n",
      "note_on channel=0 note=47 velocity=73 time=2\n",
      "note_off channel=0 note=48 velocity=64 time=0\n",
      "note_on channel=0 note=85 velocity=22 time=0\n",
      "note_off channel=0 note=47 velocity=64 time=1\n",
      "note_on channel=0 note=48 velocity=72 time=0\n",
      "note_off channel=0 note=61 velocity=64 time=0\n",
      "note_on channel=0 note=68 velocity=32 time=0\n",
      "note_on channel=0 note=88 velocity=29 time=0\n",
      "note_off channel=0 note=48 velocity=64 time=1\n",
      "note_on channel=0 note=49 velocity=72 time=0\n",
      "note_on channel=0 note=75 velocity=23 time=0\n",
      "note_off channel=0 note=49 velocity=64 time=1\n",
      "note_on channel=0 note=50 velocity=78 time=0\n",
      "note_off channel=0 note=91 velocity=64 time=0\n",
      "note_off channel=0 note=50 velocity=64 time=1\n",
      "note_on channel=0 note=53 velocity=74 time=0\n",
      "note_off channel=0 note=88 velocity=64 time=1\n",
      "note_on channel=0 note=93 velocity=37 time=0\n",
      "note_off channel=0 note=53 velocity=64 time=1\n",
      "note_off channel=0 note=68 velocity=64 time=0\n",
      "note_on channel=0 note=83 velocity=63 time=0\n",
      "note_off channel=0 note=90 velocity=64 time=0\n",
      "note_on channel=0 note=59 velocity=52 time=1\n",
      "note_off channel=0 note=72 velocity=64 time=0\n",
      "note_on channel=0 note=53 velocity=59 time=1\n",
      "note_on channel=0 note=73 velocity=45 time=0\n",
      "note_on channel=0 note=77 velocity=36 time=0\n",
      "note_on channel=0 note=78 velocity=65 time=0\n",
      "note_off channel=0 note=79 velocity=64 time=0\n",
      "note_on channel=0 note=80 velocity=85 time=0\n",
      "note_off channel=0 note=59 velocity=64 time=1\n",
      "note_off channel=0 note=82 velocity=64 time=0\n",
      "note_on channel=0 note=59 velocity=58 time=1\n",
      "note_off channel=0 note=53 velocity=64 time=1\n",
      "note_off channel=0 note=92 velocity=64 time=0\n",
      "note_off channel=0 note=59 velocity=64 time=1\n",
      "note_on channel=0 note=64 velocity=83 time=0\n",
      "note_off channel=0 note=75 velocity=64 time=0\n",
      "note_on channel=0 note=45 velocity=77 time=1\n",
      "note_on channel=0 note=53 velocity=51 time=0\n",
      "note_on channel=0 note=59 velocity=58 time=0\n",
      "note_on channel=0 note=72 velocity=39 time=0\n",
      "note_on channel=0 note=82 velocity=29 time=0\n",
      "note_off channel=0 note=77 velocity=64 time=1\n",
      "note_on channel=0 note=44 velocity=78 time=1\n",
      "note_off channel=0 note=45 velocity=64 time=0\n",
      "note_off channel=0 note=53 velocity=64 time=0\n",
      "note_off channel=0 note=59 velocity=64 time=0\n",
      "note_on channel=0 note=63 velocity=69 time=0\n",
      "note_off channel=0 note=64 velocity=64 time=0\n",
      "note_on channel=0 note=69 velocity=38 time=0\n",
      "note_on channel=0 note=71 velocity=62 time=0\n",
      "note_off channel=0 note=72 velocity=64 time=0\n",
      "note_on channel=0 note=59 velocity=55 time=1\n",
      "note_off channel=0 note=82 velocity=64 time=0\n",
      "note_off channel=0 note=63 velocity=64 time=1\n",
      "note_on channel=0 note=68 velocity=31 time=0\n",
      "note_off channel=0 note=69 velocity=64 time=0\n",
      "note_off channel=0 note=73 velocity=64 time=2\n",
      "note_off channel=0 note=85 velocity=64 time=0\n",
      "note_off channel=0 note=44 velocity=64 time=1\n",
      "note_off channel=0 note=89 velocity=64 time=0\n",
      "note_off channel=0 note=68 velocity=64 time=1\n",
      "note_on channel=0 note=73 velocity=41 time=0\n",
      "note_on channel=0 note=43 velocity=60 time=1\n",
      "note_on channel=0 note=61 velocity=74 time=0\n",
      "note_off channel=0 note=93 velocity=64 time=0\n",
      "note_on channel=0 note=65 velocity=27 time=1\n",
      "note_on channel=0 note=68 velocity=14 time=2\n",
      "note_off channel=0 note=78 velocity=64 time=0\n",
      "note_on channel=0 note=42 velocity=57 time=1\n",
      "note_off channel=0 note=43 velocity=64 time=0\n",
      "note_off channel=0 note=59 velocity=64 time=0\n",
      "note_on channel=0 note=78 velocity=64 time=0\n",
      "note_on channel=0 note=91 velocity=44 time=0\n",
      "note_off channel=0 note=42 velocity=64 time=2\n",
      "note_on channel=0 note=89 velocity=73 time=0\n",
      "note_on channel=0 note=42 velocity=54 time=1\n",
      "note_off channel=0 note=68 velocity=64 time=0\n",
      "note_on channel=0 note=75 velocity=22 time=3\n",
      "note_off channel=0 note=65 velocity=64 time=1\n",
      "note_on channel=0 note=77 velocity=28 time=1\n",
      "note_off channel=0 note=87 velocity=64 time=0\n",
      "note_on channel=0 note=65 velocity=51 time=1\n",
      "note_on channel=0 note=68 velocity=33 time=0\n",
      "note_on channel=0 note=87 velocity=50 time=0\n",
      "note_off channel=0 note=77 velocity=64 time=2\n",
      "note_on channel=0 note=93 velocity=37 time=1\n",
      "note_off channel=0 note=78 velocity=64 time=1\n",
      "note_off channel=0 note=42 velocity=64 time=1\n",
      "note_on channel=0 note=78 velocity=64 time=0\n",
      "note_off channel=0 note=75 velocity=64 time=1\n",
      "note_on channel=0 note=94 velocity=20 time=0\n",
      "note_on channel=0 note=47 velocity=77 time=1\n",
      "note_off channel=0 note=61 velocity=64 time=0\n",
      "note_on channel=0 note=62 velocity=68 time=0\n",
      "note_off channel=0 note=65 velocity=64 time=0\n",
      "note_off channel=0 note=68 velocity=64 time=0\n",
      "note_on channel=0 note=75 velocity=44 time=0\n",
      "note_off channel=0 note=47 velocity=64 time=1\n",
      "note_on channel=0 note=48 velocity=85 time=0\n",
      "note_off channel=0 note=62 velocity=64 time=0\n",
      "note_on channel=0 note=64 velocity=63 time=0\n",
      "note_on channel=0 note=82 velocity=64 time=0\n",
      "note_off channel=0 note=83 velocity=64 time=0\n",
      "note_on channel=0 note=58 velocity=53 time=1\n",
      "note_on channel=0 note=65 velocity=52 time=0\n",
      "note_on channel=0 note=70 velocity=64 time=0\n",
      "note_off channel=0 note=71 velocity=64 time=0\n",
      "note_on channel=0 note=77 velocity=79 time=0\n",
      "note_off channel=0 note=78 velocity=64 time=0\n",
      "note_off channel=0 note=93 velocity=64 time=0\n",
      "note_off channel=0 note=64 velocity=64 time=1\n",
      "note_on channel=0 note=68 velocity=31 time=0\n",
      "note_on channel=0 note=86 velocity=20 time=0\n",
      "note_off channel=0 note=48 velocity=64 time=1\n",
      "note_on channel=0 note=83 velocity=63 time=0\n",
      "note_on channel=0 note=48 velocity=63 time=1\n",
      "note_off channel=0 note=68 velocity=64 time=0\n",
      "note_off channel=0 note=82 velocity=64 time=0\n",
      "note_off channel=0 note=70 velocity=64 time=1\n",
      "note_on channel=0 note=71 velocity=61 time=0\n",
      "note_off channel=0 note=94 velocity=64 time=0\n",
      "note_off channel=0 note=48 velocity=64 time=1\n",
      "note_off channel=0 note=89 velocity=64 time=0\n",
      "note_on channel=0 note=90 velocity=49 time=0\n",
      "note_off channel=0 note=58 velocity=64 time=1\n",
      "note_on channel=0 note=59 velocity=54 time=0\n",
      "note_off channel=0 note=77 velocity=64 time=0\n",
      "note_on channel=0 note=78 velocity=54 time=0\n",
      "note_on channel=0 note=45 velocity=41 time=2\n",
      "note_off channel=0 note=86 velocity=64 time=0\n",
      "note_on channel=0 note=54 velocity=35 time=1\n",
      "note_off channel=0 note=45 velocity=64 time=1\n",
      "note_off channel=0 note=78 velocity=64 time=0\n",
      "note_on channel=0 note=89 velocity=71 time=0\n",
      "note_off channel=0 note=54 velocity=64 time=1\n",
      "note_on channel=0 note=44 velocity=32 time=1\n",
      "note_on channel=0 note=54 velocity=31 time=0\n",
      "note_on channel=0 note=93 velocity=14 time=0\n",
      "note_off channel=0 note=75 velocity=64 time=1\n",
      "note_on channel=0 note=58 velocity=55 time=1\n",
      "note_off channel=0 note=59 velocity=64 time=0\n",
      "note_on channel=0 note=78 velocity=61 time=0\n",
      "note_off channel=0 note=44 velocity=64 time=1\n",
      "note_on channel=0 note=70 velocity=70 time=0\n",
      "note_off channel=0 note=71 velocity=64 time=0\n",
      "note_off channel=0 note=90 velocity=64 time=0\n",
      "note_on channel=0 note=53 velocity=32 time=1\n",
      "note_off channel=0 note=54 velocity=64 time=0\n",
      "note_on channel=0 note=77 velocity=69 time=0\n",
      "note_off channel=0 note=78 velocity=64 time=0\n",
      "note_off channel=0 note=53 velocity=64 time=2\n",
      "note_off channel=0 note=65 velocity=64 time=0\n",
      "note_off channel=0 note=93 velocity=64 time=2\n",
      "note_on channel=0 note=94 velocity=15 time=0\n",
      "note_on channel=0 note=57 velocity=51 time=4\n",
      "note_off channel=0 note=58 velocity=64 time=0\n",
      "note_on channel=0 note=76 velocity=56 time=0\n",
      "note_off channel=0 note=77 velocity=64 time=0\n",
      "note_on channel=0 note=69 velocity=63 time=1\n",
      "note_off channel=0 note=70 velocity=64 time=0\n",
      "note_off channel=0 note=94 velocity=64 time=0\n",
      "note_off channel=0 note=57 velocity=64 time=1\n",
      "note_off channel=0 note=76 velocity=64 time=0\n",
      "note_off channel=0 note=83 velocity=64 time=0\n",
      "note_on channel=0 note=84 velocity=44 time=0\n",
      "note_on channel=0 note=95 velocity=30 time=0\n",
      "note_on channel=0 note=102 velocity=32 time=0\n",
      "note_on channel=0 note=57 velocity=59 time=1\n",
      "note_on channel=0 note=66 velocity=47 time=0\n",
      "note_off channel=0 note=73 velocity=64 time=0\n",
      "note_on channel=0 note=76 velocity=67 time=0\n",
      "note_on channel=0 note=93 velocity=18 time=0\n",
      "note_on channel=0 note=45 velocity=74 time=1\n",
      "note_on channel=0 note=85 velocity=45 time=0\n",
      "note_on channel=0 note=90 velocity=30 time=0\n",
      "note_on channel=0 note=44 velocity=77 time=1\n",
      "note_off channel=0 note=45 velocity=64 time=0\n",
      "note_off channel=0 note=66 velocity=64 time=0\n",
      "note_on channel=0 note=67 velocity=42 time=0\n",
      "note_on channel=0 note=73 velocity=24 time=0\n",
      "note_off channel=0 note=90 velocity=64 time=1\n",
      "note_off channel=0 note=95 velocity=64 time=0\n",
      "note_off channel=0 note=57 velocity=64 time=1\n",
      "note_on channel=0 note=62 velocity=39 time=0\n",
      "note_off channel=0 note=87 velocity=64 time=0\n",
      "note_on channel=0 note=43 velocity=74 time=1\n",
      "note_off channel=0 note=44 velocity=64 time=0\n",
      "note_on channel=0 note=57 velocity=48 time=0\n",
      "note_off channel=0 note=84 velocity=64 time=0\n",
      "note_off channel=0 note=62 velocity=64 time=1\n",
      "note_on channel=0 note=83 velocity=44 time=0\n",
      "note_on channel=0 note=62 velocity=32 time=1\n",
      "note_off channel=0 note=67 velocity=64 time=0\n",
      "note_off channel=0 note=73 velocity=64 time=0\n",
      "note_on channel=0 note=65 velocity=33 time=2\n",
      "note_off channel=0 note=89 velocity=64 time=1\n",
      "note_off channel=0 note=93 velocity=64 time=0\n",
      "note_off channel=0 note=57 velocity=64 time=1\n",
      "note_off channel=0 note=62 velocity=64 time=0\n",
      "note_on channel=0 note=73 velocity=28 time=0\n",
      "note_on channel=0 note=87 velocity=17 time=0\n",
      "note_off channel=0 note=43 velocity=64 time=1\n",
      "note_on channel=0 note=44 velocity=29 time=0\n",
      "note_on channel=0 note=57 velocity=47 time=0\n",
      "note_off channel=0 note=85 velocity=64 time=0\n",
      "note_off channel=0 note=44 velocity=64 time=3\n",
      "note_on channel=0 note=61 velocity=27 time=0\n",
      "note_on channel=0 note=71 velocity=49 time=7\n",
      "note_off channel=0 note=69 velocity=64 time=1\n",
      "note_off channel=0 note=102 velocity=64 time=0\n",
      "note_on channel=0 note=89 velocity=33 time=2\n",
      "note_off channel=0 note=57 velocity=64 time=1\n",
      "note_on channel=0 note=77 velocity=47 time=2\n",
      "note_off channel=0 note=61 velocity=64 time=1\n",
      "note_on channel=0 note=64 velocity=83 time=0\n",
      "note_off channel=0 note=65 velocity=64 time=0\n",
      "note_off channel=0 note=73 velocity=64 time=0\n",
      "note_off channel=0 note=76 velocity=64 time=0\n",
      "note_on channel=0 note=45 velocity=77 time=1\n",
      "note_on channel=0 note=73 velocity=49 time=0\n",
      "note_off channel=0 note=87 velocity=64 time=0\n",
      "note_off channel=0 note=89 velocity=64 time=0\n",
      "note_on channel=0 note=90 velocity=40 time=0\n",
      "note_on channel=0 note=68 velocity=47 time=1\n",
      "note_on channel=0 note=87 velocity=25 time=0\n",
      "note_on channel=0 note=44 velocity=79 time=1\n",
      "note_off channel=0 note=45 velocity=64 time=0\n",
      "note_on channel=0 note=63 velocity=72 time=0\n",
      "note_off channel=0 note=64 velocity=64 time=0\n",
      "note_off channel=0 note=68 velocity=64 time=1\n",
      "note_off channel=0 note=90 velocity=64 time=0\n",
      "note_on channel=0 note=68 velocity=34 time=1\n",
      "note_off channel=0 note=63 velocity=64 time=1\n",
      "note_off channel=0 note=44 velocity=64 time=1\n",
      "note_on channel=0 note=62 velocity=55 time=2\n",
      "note_off channel=0 note=68 velocity=64 time=0\n",
      "note_on channel=0 note=43 velocity=62 time=1\n",
      "note_on channel=0 note=68 velocity=41 time=0\n",
      "note_off channel=0 note=43 velocity=64 time=2\n",
      "note_off channel=0 note=77 velocity=64 time=0\n",
      "note_on channel=0 note=78 velocity=16 time=0\n",
      "note_on channel=0 note=61 velocity=57 time=1\n",
      "note_off channel=0 note=62 velocity=64 time=0\n",
      "note_on channel=0 note=88 velocity=28 time=0\n",
      "note_on channel=0 note=84 velocity=23 time=2\n",
      "note_on channel=0 note=48 velocity=67 time=1\n",
      "note_off channel=0 note=78 velocity=64 time=0\n",
      "note_on channel=0 note=47 velocity=71 time=1\n",
      "note_off channel=0 note=48 velocity=64 time=0\n",
      "note_off channel=0 note=47 velocity=64 time=2\n",
      "note_on channel=0 note=48 velocity=73 time=0\n",
      "note_off channel=0 note=48 velocity=64 time=2\n",
      "note_on channel=0 note=52 velocity=75 time=0\n",
      "note_on channel=0 note=65 velocity=53 time=0\n",
      "note_off channel=0 note=52 velocity=64 time=1\n",
      "note_on channel=0 note=53 velocity=65 time=0\n",
      "note_on channel=0 note=70 velocity=33 time=0\n",
      "note_off channel=0 note=71 velocity=64 time=0\n",
      "note_on channel=0 note=90 velocity=19 time=0\n",
      "note_off channel=0 note=68 velocity=64 time=1\n",
      "note_on channel=0 note=78 velocity=24 time=0\n",
      "note_off channel=0 note=53 velocity=64 time=1\n",
      "note_on channel=0 note=68 velocity=29 time=0\n",
      "note_on channel=0 note=75 velocity=37 time=0\n",
      "note_off channel=0 note=83 velocity=64 time=0\n",
      "note_on channel=0 note=86 velocity=19 time=0\n",
      "note_off channel=0 note=87 velocity=64 time=0\n",
      "note_on channel=0 note=53 velocity=59 time=1\n",
      "note_on channel=0 note=77 velocity=108 time=0\n",
      "note_on channel=0 note=79 velocity=24 time=0\n",
      "note_on channel=0 note=83 velocity=40 time=0\n",
      "note_off channel=0 note=70 velocity=64 time=1\n",
      "note_on channel=0 note=71 velocity=53 time=0\n",
      "note_off channel=0 note=78 velocity=64 time=0\n",
      "note_on channel=0 note=82 velocity=64 time=0\n",
      "note_off channel=0 note=53 velocity=64 time=1\n",
      "note_off channel=0 note=61 velocity=64 time=0\n",
      "note_off channel=0 note=86 velocity=64 time=0\n",
      "note_on channel=0 note=58 velocity=65 time=1\n",
      "note_off channel=0 note=83 velocity=64 time=0\n",
      "note_on channel=0 note=86 velocity=68 time=0\n",
      "note_off channel=0 note=68 velocity=64 time=1\n",
      "note_off channel=0 note=71 velocity=64 time=0\n",
      "note_off channel=0 note=79 velocity=64 time=0\n",
      "note_off channel=0 note=90 velocity=64 time=0\n",
      "note_on channel=0 note=45 velocity=72 time=1\n",
      "note_on channel=0 note=64 velocity=78 time=0\n",
      "note_off channel=0 note=65 velocity=64 time=0\n",
      "note_off channel=0 note=84 velocity=64 time=0\n",
      "note_off channel=0 note=88 velocity=64 time=0\n",
      "note_on channel=0 note=95 velocity=33 time=0\n",
      "note_on channel=0 note=96 velocity=53 time=0\n",
      "note_on channel=0 note=67 velocity=57 time=1\n",
      "note_on channel=0 note=88 velocity=39 time=0\n",
      "note_on channel=0 note=93 velocity=32 time=0\n",
      "note_on channel=0 note=44 velocity=72 time=1\n",
      "note_off channel=0 note=45 velocity=64 time=0\n",
      "note_on channel=0 note=63 velocity=68 time=0\n",
      "note_off channel=0 note=64 velocity=64 time=0\n",
      "note_on channel=0 note=84 velocity=24 time=1\n",
      "note_on channel=0 note=100 velocity=47 time=0\n",
      "note_off channel=0 note=67 velocity=64 time=1\n",
      "note_off channel=0 note=44 velocity=64 time=1\n",
      "note_on channel=0 note=45 velocity=65 time=0\n",
      "note_off channel=0 note=63 velocity=64 time=0\n",
      "note_off channel=0 note=73 velocity=64 time=0\n",
      "note_on channel=0 note=74 velocity=37 time=0\n",
      "note_off channel=0 note=75 velocity=64 time=0\n",
      "note_on channel=0 note=44 velocity=62 time=2\n",
      "note_off channel=0 note=45 velocity=64 time=0\n",
      "note_on channel=0 note=65 velocity=38 time=1\n",
      "note_on channel=0 note=73 velocity=34 time=0\n",
      "note_off channel=0 note=80 velocity=64 time=0\n",
      "note_on channel=0 note=87 velocity=54 time=0\n",
      "note_on channel=0 note=90 velocity=29 time=0\n",
      "note_off channel=0 note=91 velocity=64 time=0\n",
      "note_on channel=0 note=97 velocity=11 time=0\n",
      "note_on channel=0 note=43 velocity=54 time=1\n",
      "note_off channel=0 note=44 velocity=64 time=0\n",
      "note_on channel=0 note=61 velocity=55 time=0\n",
      "note_on channel=0 note=71 velocity=46 time=0\n",
      "note_off channel=0 note=74 velocity=64 time=0\n",
      "note_on channel=0 note=80 velocity=32 time=0\n",
      "note_off channel=0 note=93 velocity=64 time=0\n",
      "note_on channel=0 note=68 velocity=28 time=1\n",
      "note_off channel=0 note=84 velocity=64 time=0\n",
      "note_off channel=0 note=95 velocity=64 time=0\n",
      "note_off channel=0 note=43 velocity=64 time=1\n",
      "note_on channel=0 note=93 velocity=16 time=0\n",
      "note_on channel=0 note=43 velocity=53 time=1\n",
      "note_on channel=0 note=95 velocity=11 time=0\n",
      "note_off channel=0 note=97 velocity=64 time=0\n",
      "note_off channel=0 note=65 velocity=64 time=1\n",
      "note_off channel=0 note=68 velocity=64 time=0\n",
      "note_on channel=0 note=70 velocity=70 time=0\n",
      "note_off channel=0 note=71 velocity=64 time=0\n",
      "note_off channel=0 note=43 velocity=64 time=1\n",
      "note_off channel=0 note=61 velocity=64 time=0\n",
      "note_on channel=0 note=65 velocity=44 time=0\n",
      "note_on channel=0 note=68 velocity=37 time=0\n",
      "note_off channel=0 note=73 velocity=64 time=0\n",
      "note_off channel=0 note=90 velocity=64 time=0\n",
      "note_on channel=0 note=91 velocity=31 time=0\n",
      "note_on channel=0 note=97 velocity=15 time=0\n",
      "note_on channel=0 note=102 velocity=19 time=0\n",
      "note_on channel=0 note=48 velocity=66 time=1\n",
      "note_off channel=0 note=88 velocity=64 time=0\n",
      "note_off channel=0 note=100 velocity=64 time=0\n",
      "note_off channel=0 note=68 velocity=64 time=1\n",
      "note_on channel=0 note=73 velocity=45 time=0\n",
      "note_on channel=0 note=79 velocity=21 time=0\n",
      "note_on channel=0 note=84 velocity=16 time=0\n",
      "note_off channel=0 note=93 velocity=64 time=0\n",
      "note_off channel=0 note=95 velocity=64 time=0\n",
      "note_on channel=0 note=47 velocity=71 time=1\n",
      "note_off channel=0 note=48 velocity=64 time=0\n",
      "note_off channel=0 note=80 velocity=64 time=0\n",
      "note_on channel=0 note=83 velocity=30 time=0\n",
      "note_off channel=0 note=47 velocity=64 time=1\n",
      "note_on channel=0 note=48 velocity=67 time=0\n",
      "note_off channel=0 note=91 velocity=64 time=0\n",
      "note_off channel=0 note=102 velocity=64 time=0\n",
      "note_off channel=0 note=79 velocity=64 time=1\n",
      "note_off channel=0 note=83 velocity=64 time=0\n",
      "note_on channel=0 note=91 velocity=28 time=0\n",
      "note_off channel=0 note=97 velocity=64 time=0\n",
      "note_off channel=0 note=48 velocity=64 time=1\n",
      "note_on channel=0 note=50 velocity=73 time=0\n",
      "note_off channel=0 note=84 velocity=64 time=0\n",
      "note_on channel=0 note=93 velocity=13 time=0\n",
      "note_on channel=0 note=100 velocity=12 time=0\n",
      "note_off channel=0 note=50 velocity=64 time=1\n",
      "note_on channel=0 note=53 velocity=66 time=0\n",
      "note_on channel=0 note=68 velocity=41 time=0\n",
      "note_on channel=0 note=84 velocity=21 time=0\n",
      "note_on channel=0 note=95 velocity=9 time=0\n",
      "note_off channel=0 note=58 velocity=64 time=1\n",
      "note_on channel=0 note=75 velocity=24 time=0\n",
      "note_on channel=0 note=83 velocity=29 time=0\n",
      "note_off channel=0 note=53 velocity=64 time=1\n",
      "note_on channel=0 note=54 velocity=57 time=0\n",
      "note_off channel=0 note=70 velocity=64 time=0\n",
      "note_on channel=0 note=71 velocity=63 time=0\n",
      "note_off channel=0 note=77 velocity=64 time=0\n",
      "note_on channel=0 note=78 velocity=81 time=0\n",
      "note_off channel=0 note=93 velocity=64 time=0\n",
      "note_off channel=0 note=96 velocity=64 time=0\n",
      "note_off channel=0 note=100 velocity=64 time=0\n",
      "note_on channel=0 note=59 velocity=56 time=1\n",
      "note_on channel=0 note=77 velocity=66 time=0\n",
      "note_off channel=0 note=83 velocity=64 time=0\n",
      "note_off channel=0 note=86 velocity=64 time=0\n",
      "note_on channel=0 note=93 velocity=35 time=0\n",
      "note_off channel=0 note=95 velocity=64 time=0\n",
      "note_on channel=0 note=53 velocity=56 time=1\n",
      "note_off channel=0 note=54 velocity=64 time=0\n",
      "note_off channel=0 note=78 velocity=64 time=1\n",
      "note_on channel=0 note=80 velocity=84 time=0\n",
      "note_on channel=0 note=88 velocity=38 time=0\n",
      "note_off channel=0 note=93 velocity=64 time=1\n",
      "note_off channel=0 note=53 velocity=64 time=1\n",
      "note_off channel=0 note=77 velocity=64 time=0\n",
      "note_on channel=0 note=78 velocity=65 time=0\n",
      "note_on channel=0 note=48 velocity=87 time=1\n",
      "note_on channel=0 note=58 velocity=57 time=0\n",
      "note_off channel=0 note=59 velocity=64 time=0\n",
      "note_on channel=0 note=64 velocity=52 time=0\n",
      "note_off channel=0 note=65 velocity=64 time=0\n",
      "note_on channel=0 note=70 velocity=66 time=0\n",
      "note_off channel=0 note=71 velocity=64 time=0\n",
      "note_off channel=0 note=75 velocity=64 time=0\n",
      "note_on channel=0 note=77 velocity=91 time=0\n",
      "note_off channel=0 note=78 velocity=64 time=0\n",
      "note_off channel=0 note=82 velocity=64 time=0\n",
      "note_off channel=0 note=84 velocity=64 time=0\n",
      "note_on channel=0 note=85 velocity=73 time=0\n",
      "note_off channel=0 note=88 velocity=64 time=0\n",
      "note_on channel=0 note=93 velocity=20 time=0\n",
      "note_on channel=0 note=94 velocity=21 time=0\n",
      "note_on channel=0 note=66 velocity=48 time=1\n",
      "note_off channel=0 note=68 velocity=64 time=0\n",
      "note_on channel=0 note=74 velocity=41 time=0\n",
      "note_on channel=0 note=90 velocity=35 time=0\n",
      "note_on channel=0 note=63 velocity=48 time=1\n",
      "note_off channel=0 note=64 velocity=64 time=0\n",
      "note_off channel=0 note=73 velocity=64 time=0\n",
      "note_off channel=0 note=66 velocity=64 time=1\n",
      "note_on channel=0 note=73 velocity=37 time=0\n",
      "note_off channel=0 note=74 velocity=64 time=0\n",
      "note_on channel=0 note=84 velocity=12 time=0\n",
      "note_on channel=0 note=86 velocity=37 time=0\n",
      "note_off channel=0 note=87 velocity=64 time=0\n",
      "note_off channel=0 note=91 velocity=64 time=0\n",
      "note_off channel=0 note=93 velocity=64 time=0\n",
      "note_off channel=0 note=48 velocity=64 time=1\n",
      "note_off channel=0 note=58 velocity=64 time=0\n",
      "note_on channel=0 note=65 velocity=50 time=0\n",
      "note_on channel=0 note=91 velocity=56 time=0\n",
      "note_on channel=0 note=44 velocity=65 time=1\n",
      "note_on channel=0 note=58 velocity=52 time=0\n",
      "note_off channel=0 note=63 velocity=64 time=0\n",
      "note_off channel=0 note=90 velocity=64 time=0\n",
      "note_off channel=0 note=44 velocity=64 time=1\n",
      "note_on channel=0 note=48 velocity=65 time=0\n",
      "note_on channel=0 note=69 velocity=64 time=0\n",
      "note_off channel=0 note=70 velocity=64 time=0\n",
      "note_on channel=0 note=76 velocity=79 time=0\n",
      "note_off channel=0 note=86 velocity=64 time=0\n",
      "note_off channel=0 note=94 velocity=64 time=0\n",
      "note_off channel=0 note=48 velocity=64 time=1\n",
      "note_on channel=0 note=57 velocity=50 time=0\n",
      "note_off channel=0 note=58 velocity=64 time=0\n",
      "note_off channel=0 note=77 velocity=64 time=0\n",
      "note_on channel=0 note=45 velocity=60 time=1\n",
      "note_on channel=0 note=90 velocity=27 time=0\n",
      "note_on channel=0 note=78 velocity=27 time=1\n",
      "note_off channel=0 note=84 velocity=64 time=0\n",
      "note_on channel=0 note=101 velocity=14 time=0\n",
      "note_on channel=0 note=82 velocity=40 time=1\n",
      "note_on channel=0 note=87 velocity=54 time=0\n",
      "note_on channel=0 note=44 velocity=50 time=1\n",
      "note_off channel=0 note=45 velocity=64 time=0\n",
      "note_on channel=0 note=61 velocity=24 time=0\n",
      "note_off channel=0 note=78 velocity=64 time=1\n",
      "note_on channel=0 note=78 velocity=20 time=1\n",
      "note_on channel=0 note=89 velocity=37 time=1\n",
      "note_off channel=0 note=101 velocity=64 time=0\n",
      "note_on channel=0 note=43 velocity=38 time=1\n",
      "note_off channel=0 note=44 velocity=64 time=0\n",
      "note_off channel=0 note=78 velocity=64 time=1\n",
      "note_off channel=0 note=82 velocity=64 time=0\n",
      "note_on channel=0 note=83 velocity=39 time=0\n",
      "note_off channel=0 note=43 velocity=64 time=7\n",
      "note_off channel=0 note=89 velocity=64 time=1\n",
      "note_on channel=0 note=84 velocity=25 time=1\n",
      "note_on channel=0 note=43 velocity=24 time=1\n",
      "note_on channel=0 note=89 velocity=71 time=0\n",
      "note_off channel=0 note=83 velocity=64 time=1\n",
      "note_on channel=0 note=72 velocity=32 time=1\n",
      "note_on channel=0 note=78 velocity=47 time=0\n",
      "note_on channel=0 note=83 velocity=27 time=0\n",
      "note_off channel=0 note=84 velocity=64 time=0\n",
      "note_off channel=0 note=43 velocity=64 time=1\n",
      "note_on channel=0 note=46 velocity=66 time=0\n",
      "note_off channel=0 note=57 velocity=64 time=0\n",
      "note_off channel=0 note=61 velocity=64 time=0\n",
      "note_on channel=0 note=64 velocity=38 time=0\n",
      "note_off channel=0 note=65 velocity=64 time=0\n",
      "note_off channel=0 note=73 velocity=64 time=0\n",
      "note_off channel=0 note=90 velocity=64 time=0\n",
      "note_on channel=0 note=94 velocity=20 time=0\n",
      "note_on channel=0 note=57 velocity=50 time=1\n",
      "note_on channel=0 note=61 velocity=53 time=0\n",
      "note_on channel=0 note=45 velocity=75 time=1\n",
      "note_off channel=0 note=46 velocity=64 time=0\n",
      "note_off channel=0 note=64 velocity=64 time=0\n",
      "note_on channel=0 note=82 velocity=30 time=0\n",
      "note_off channel=0 note=83 velocity=64 time=0\n",
      "note_on channel=0 note=44 velocity=77 time=1\n",
      "note_off channel=0 note=45 velocity=64 time=0\n",
      "note_on channel=0 note=65 velocity=49 time=0\n",
      "note_off channel=0 note=72 velocity=64 time=0\n",
      "note_off channel=0 note=94 velocity=64 time=0\n",
      "note_off channel=0 note=78 velocity=64 time=1\n",
      "note_off channel=0 note=82 velocity=64 time=0\n",
      "note_on channel=0 note=43 velocity=73 time=2\n",
      "note_off channel=0 note=44 velocity=64 time=0\n",
      "note_off channel=0 note=61 velocity=64 time=0\n",
      "note_on channel=0 note=82 velocity=67 time=0\n",
      "note_off channel=0 note=89 velocity=64 time=0\n",
      "note_off channel=0 note=57 velocity=64 time=1\n",
      "note_on channel=0 note=58 velocity=52 time=0\n",
      "note_off channel=0 note=69 velocity=64 time=0\n",
      "note_on channel=0 note=70 velocity=58 time=0\n",
      "note_off channel=0 note=76 velocity=64 time=0\n",
      "note_on channel=0 note=77 velocity=85 time=0\n",
      "note_off channel=0 note=85 velocity=64 time=0\n",
      "note_on channel=0 note=86 velocity=39 time=0\n",
      "note_off channel=0 note=91 velocity=64 time=1\n",
      "note_on channel=0 note=91 velocity=31 time=1\n",
      "note_off channel=0 note=82 velocity=64 time=1\n",
      "note_on channel=0 note=83 velocity=61 time=0\n",
      "note_on channel=0 note=102 velocity=19 time=0\n",
      "note_off channel=0 note=58 velocity=64 time=1\n",
      "note_on channel=0 note=59 velocity=48 time=0\n",
      "note_on channel=0 note=68 velocity=19 time=0\n",
      "note_off channel=0 note=70 velocity=64 time=0\n",
      "note_on channel=0 note=90 velocity=47 time=0\n",
      "note_off channel=0 note=91 velocity=64 time=0\n",
      "note_on channel=0 note=78 velocity=62 time=1\n",
      "note_off channel=0 note=86 velocity=64 time=0\n",
      "note_off channel=0 note=43 velocity=64 time=1\n",
      "note_on channel=0 note=44 velocity=25 time=0\n",
      "note_on channel=0 note=72 velocity=71 time=0\n",
      "note_off channel=0 note=77 velocity=64 time=0\n",
      "note_off channel=0 note=59 velocity=64 time=1\n",
      "note_on channel=0 note=60 velocity=61 time=0\n",
      "note_on channel=0 note=82 velocity=49 time=0\n",
      "note_off channel=0 note=90 velocity=64 time=0\n",
      "note_on channel=0 note=91 velocity=51 time=0\n",
      "note_off channel=0 note=102 velocity=64 time=0\n",
      "note_on channel=0 note=79 velocity=65 time=1\n",
      "note_on channel=0 note=85 velocity=32 time=0\n",
      "note_off channel=0 note=78 velocity=64 time=1\n",
      "note_off channel=0 note=83 velocity=64 time=0\n",
      "note_on channel=0 note=88 velocity=35 time=0\n",
      "note_off channel=0 note=44 velocity=64 time=1\n",
      "note_off channel=0 note=68 velocity=64 time=2\n",
      "note_off channel=0 note=80 velocity=64 time=0\n",
      "note_on channel=0 note=83 velocity=55 time=0\n",
      "note_on channel=0 note=80 velocity=55 time=1\n",
      "note_off channel=0 note=82 velocity=64 time=0\n",
      "note_off channel=0 note=79 velocity=64 time=1\n",
      "note_off channel=0 note=88 velocity=64 time=0\n",
      "note_on channel=0 note=89 velocity=50 time=0\n",
      "note_off channel=0 note=60 velocity=64 time=3\n",
      "note_on channel=0 note=61 velocity=79 time=0\n",
      "note_off channel=0 note=72 velocity=64 time=0\n",
      "note_on channel=0 note=84 velocity=23 time=1\n",
      "note_off channel=0 note=91 velocity=64 time=1\n",
      "note_on channel=0 note=91 velocity=26 time=3\n",
      "note_on channel=0 note=64 velocity=82 time=1\n",
      "note_off channel=0 note=65 velocity=64 time=0\n",
      "note_off channel=0 note=84 velocity=64 time=0\n",
      "note_on channel=0 note=45 velocity=77 time=1\n",
      "note_on channel=0 note=53 velocity=43 time=0\n",
      "note_off channel=0 note=80 velocity=64 time=0\n",
      "note_on channel=0 note=63 velocity=74 time=1\n",
      "note_off channel=0 note=64 velocity=64 time=0\n",
      "note_on channel=0 note=68 velocity=40 time=0\n",
      "note_on channel=0 note=44 velocity=79 time=1\n",
      "note_off channel=0 note=45 velocity=64 time=0\n",
      "note_off channel=0 note=53 velocity=64 time=0\n",
      "note_off channel=0 note=63 velocity=64 time=0\n",
      "note_off channel=0 note=68 velocity=64 time=1\n",
      "note_on channel=0 note=84 velocity=11 time=0\n",
      "note_on channel=0 note=71 velocity=21 time=1\n",
      "note_on channel=0 note=82 velocity=29 time=0\n",
      "note_off channel=0 note=44 velocity=64 time=1\n",
      "note_on channel=0 note=80 velocity=46 time=0\n",
      "note_off channel=0 note=83 velocity=64 time=0\n",
      "note_on channel=0 note=93 velocity=28 time=0\n",
      "note_on channel=0 note=41 velocity=57 time=1\n",
      "note_off channel=0 note=71 velocity=64 time=1\n",
      "note_off channel=0 note=41 velocity=64 time=1\n",
      "note_on channel=0 note=43 velocity=62 time=0\n",
      "note_on channel=0 note=66 velocity=23 time=0\n",
      "note_on channel=0 note=71 velocity=36 time=0\n",
      "note_on channel=0 note=77 velocity=48 time=0\n",
      "note_off channel=0 note=82 velocity=64 time=1\n",
      "note_off channel=0 note=84 velocity=64 time=0\n",
      "note_on channel=0 note=42 velocity=55 time=2\n",
      "note_off channel=0 note=43 velocity=64 time=0\n",
      "note_off channel=0 note=66 velocity=64 time=1\n",
      "note_off channel=0 note=42 velocity=64 time=1\n",
      "note_on channel=0 note=95 velocity=42 time=0\n",
      "note_on channel=0 note=88 velocity=41 time=1\n",
      "note_on channel=0 note=48 velocity=67 time=1\n",
      "note_on channel=0 note=65 velocity=32 time=0\n",
      "note_off channel=0 note=89 velocity=64 time=0\n",
      "note_on channel=0 note=47 velocity=72 time=1\n",
      "note_off channel=0 note=48 velocity=64 time=0\n",
      "note_off channel=0 note=47 velocity=64 time=1\n",
      "note_on channel=0 note=48 velocity=72 time=0\n",
      "note_on channel=0 note=68 velocity=19 time=0\n",
      "note_off channel=0 note=48 velocity=64 time=1\n",
      "note_on channel=0 note=49 velocity=71 time=0\n",
      "note_on channel=0 note=82 velocity=35 time=0\n",
      "note_off channel=0 note=49 velocity=64 time=1\n",
      "note_on channel=0 note=50 velocity=78 time=0\n",
      "note_off channel=0 note=50 velocity=64 time=1\n",
      "note_on channel=0 note=53 velocity=72 time=0\n",
      "note_off channel=0 note=68 velocity=64 time=1\n",
      "note_off channel=0 note=91 velocity=64 time=1\n",
      "note_off channel=0 note=53 velocity=64 time=1\n",
      "note_on channel=0 note=91 velocity=18 time=0\n",
      "note_on channel=0 note=53 velocity=57 time=1\n",
      "note_off channel=0 note=91 velocity=64 time=3\n",
      "note_off channel=0 note=53 velocity=64 time=1\n",
      "note_off channel=0 note=61 velocity=64 time=0\n",
      "note_on channel=0 note=64 velocity=83 time=0\n",
      "note_off channel=0 note=65 velocity=64 time=0\n",
      "note_on channel=0 note=83 velocity=46 time=0\n",
      "note_on channel=0 note=45 velocity=77 time=1\n",
      "note_on channel=0 note=67 velocity=62 time=0\n",
      "note_off channel=0 note=82 velocity=64 time=0\n",
      "note_off channel=0 note=88 velocity=64 time=0\n",
      "note_on channel=0 note=82 velocity=40 time=1\n",
      "note_off channel=0 note=83 velocity=64 time=0\n",
      "note_off channel=0 note=85 velocity=64 time=0\n",
      "note_on channel=0 note=91 velocity=20 time=0\n",
      "note_on channel=0 note=44 velocity=79 time=1\n",
      "note_off channel=0 note=45 velocity=64 time=0\n",
      "note_on channel=0 note=55 velocity=43 time=0\n",
      "note_on channel=0 note=61 velocity=76 time=0\n",
      "note_on channel=0 note=63 velocity=68 time=0\n",
      "note_off channel=0 note=64 velocity=64 time=0\n",
      "note_on channel=0 note=69 velocity=34 time=0\n",
      "note_off channel=0 note=71 velocity=64 time=0\n",
      "note_off channel=0 note=63 velocity=64 time=1\n",
      "note_off channel=0 note=67 velocity=64 time=0\n",
      "note_off channel=0 note=55 velocity=64 time=1\n",
      "note_on channel=0 note=68 velocity=28 time=0\n",
      "note_off channel=0 note=69 velocity=64 time=0\n",
      "note_on channel=0 note=88 velocity=32 time=0\n",
      "note_off channel=0 note=91 velocity=64 time=1\n",
      "note_off channel=0 note=44 velocity=64 time=1\n",
      "note_on channel=0 note=65 velocity=33 time=0\n",
      "note_on channel=0 note=71 velocity=18 time=0\n",
      "note_off channel=0 note=68 velocity=64 time=2\n",
      "note_on channel=0 note=75 velocity=10 time=0\n",
      "note_off channel=0 note=80 velocity=64 time=0\n",
      "note_on channel=0 note=91 velocity=28 time=0\n",
      "note_on channel=0 note=43 velocity=61 time=1\n",
      "note_off channel=0 note=71 velocity=64 time=0\n",
      "note_on channel=0 note=71 velocity=22 time=2\n",
      "note_off channel=0 note=75 velocity=64 time=0\n",
      "note_on channel=0 note=92 velocity=10 time=0\n",
      "note_off channel=0 note=43 velocity=64 time=1\n",
      "note_off channel=0 note=61 velocity=64 time=0\n",
      "note_on channel=0 note=83 velocity=52 time=0\n",
      "note_off channel=0 note=91 velocity=64 time=0\n",
      "note_on channel=0 note=61 velocity=70 time=1\n",
      "note_on channel=0 note=75 velocity=15 time=0\n",
      "note_off channel=0 note=82 velocity=64 time=0\n",
      "note_on channel=0 note=91 velocity=13 time=0\n",
      "note_on channel=0 note=101 velocity=9 time=0\n",
      "note_on channel=0 note=80 velocity=25 time=1\n",
      "note_on channel=0 note=47 velocity=75 time=2\n",
      "note_off channel=0 note=65 velocity=64 time=0\n",
      "note_off channel=0 note=92 velocity=64 time=0\n",
      "note_on channel=0 note=67 velocity=33 time=1\n",
      "note_off channel=0 note=91 velocity=64 time=0\n",
      "note_off channel=0 note=47 velocity=64 time=1\n",
      "note_on channel=0 note=48 velocity=70 time=0\n",
      "note_on channel=0 note=65 velocity=29 time=0\n",
      "note_off channel=0 note=75 velocity=64 time=0\n",
      "note_on channel=0 note=91 velocity=40 time=0\n",
      "note_on channel=0 note=92 velocity=28 time=0\n",
      "note_off channel=0 note=48 velocity=64 time=1\n",
      "note_on channel=0 note=50 velocity=78 time=0\n",
      "note_off channel=0 note=67 velocity=64 time=0\n",
      "note_off channel=0 note=80 velocity=64 time=0\n",
      "note_off channel=0 note=50 velocity=64 time=1\n",
      "note_on channel=0 note=52 velocity=75 time=0\n",
      "note_off channel=0 note=52 velocity=64 time=1\n",
      "note_on channel=0 note=53 velocity=65 time=0\n",
      "note_off channel=0 note=71 velocity=64 time=0\n",
      "note_on channel=0 note=80 velocity=90 time=0\n",
      "note_off channel=0 note=93 velocity=64 time=0\n",
      "note_off channel=0 note=101 velocity=64 time=0\n",
      "note_off channel=0 note=53 velocity=64 time=1\n",
      "note_off channel=0 note=61 velocity=64 time=0\n",
      "note_on channel=0 note=73 velocity=39 time=1\n",
      "note_on channel=0 note=53 velocity=59 time=1\n",
      "note_on channel=0 note=58 velocity=53 time=0\n",
      "note_off channel=0 note=95 velocity=64 time=0\n",
      "note_off channel=0 note=88 velocity=64 time=1\n",
      "note_on channel=0 note=89 velocity=71 time=0\n",
      "note_off channel=0 note=58 velocity=64 time=2\n",
      "note_off channel=0 note=77 velocity=64 time=0\n",
      "note_on channel=0 note=84 velocity=34 time=0\n",
      "note_on channel=0 note=48 velocity=88 time=1\n",
      "note_off channel=0 note=53 velocity=64 time=0\n",
      "note_off channel=0 note=65 velocity=64 time=0\n",
      "note_on channel=0 note=102 velocity=22 time=0\n",
      "note_off channel=0 note=73 velocity=64 time=1\n",
      "note_on channel=0 note=76 velocity=41 time=0\n",
      "note_on channel=0 note=93 velocity=20 time=0\n",
      "note_on channel=0 note=61 velocity=79 time=1\n",
      "note_on channel=0 note=77 velocity=32 time=0\n",
      "note_on channel=0 note=78 velocity=22 time=0\n",
      "note_off channel=0 note=84 velocity=64 time=0\n",
      "note_off channel=0 note=76 velocity=64 time=1\n",
      "note_on channel=0 note=90 velocity=32 time=0\n",
      "note_off channel=0 note=102 velocity=64 time=0\n",
      "note_on channel=0 note=46 velocity=68 time=1\n",
      "note_off channel=0 note=48 velocity=64 time=0\n",
      "note_off channel=0 note=91 velocity=64 time=0\n",
      "note_on channel=0 note=65 velocity=21 time=1\n",
      "note_on channel=0 note=68 velocity=15 time=0\n",
      "note_on channel=0 note=71 velocity=42 time=0\n",
      "note_on channel=0 note=74 velocity=76 time=0\n",
      "note_off channel=0 note=78 velocity=64 time=0\n",
      "note_off channel=0 note=46 velocity=64 time=1\n",
      "note_on channel=0 note=48 velocity=69 time=0\n",
      "note_off channel=0 note=90 velocity=64 time=0\n",
      "note_on channel=0 note=91 velocity=27 time=0\n",
      "note_off channel=0 note=92 velocity=64 time=0\n",
      "note_on channel=0 note=85 velocity=44 time=1\n",
      "note_off channel=0 note=48 velocity=64 time=1\n",
      "note_off channel=0 note=61 velocity=64 time=0\n",
      "note_on channel=0 note=62 velocity=70 time=0\n",
      "note_off channel=0 note=65 velocity=64 time=0\n",
      "note_off channel=0 note=68 velocity=64 time=0\n",
      "note_off channel=0 note=89 velocity=64 time=0\n",
      "note_on channel=0 note=90 velocity=68 time=0\n",
      "note_on channel=0 note=82 velocity=19 time=1\n",
      "note_on channel=0 note=89 velocity=35 time=0\n",
      "note_on channel=0 note=45 velocity=59 time=1\n",
      "note_off channel=0 note=83 velocity=64 time=0\n",
      "note_off channel=0 note=85 velocity=64 time=0\n",
      "note_on channel=0 note=54 velocity=31 time=1\n",
      "note_on channel=0 note=44 velocity=51 time=1\n",
      "note_off channel=0 note=45 velocity=64 time=0\n",
      "note_off channel=0 note=91 velocity=64 time=0\n",
      "note_on channel=0 note=95 velocity=21 time=0\n",
      "note_off channel=0 note=89 velocity=64 time=1\n",
      "note_on channel=0 note=101 velocity=16 time=0\n",
      "note_on channel=0 note=53 velocity=32 time=1\n",
      "note_off channel=0 note=54 velocity=64 time=0\n",
      "note_on channel=0 note=73 velocity=78 time=0\n",
      "note_off channel=0 note=74 velocity=64 time=0\n",
      "note_on channel=0 note=89 velocity=76 time=0\n",
      "note_off channel=0 note=90 velocity=64 time=0\n",
      "note_off channel=0 note=93 velocity=64 time=0\n",
      "note_on channel=0 note=61 velocity=76 time=1\n",
      "note_off channel=0 note=62 velocity=64 time=0\n",
      "note_on channel=0 note=43 velocity=32 time=1\n",
      "note_off channel=0 note=44 velocity=64 time=0\n",
      "note_off channel=0 note=53 velocity=64 time=0\n",
      "note_on channel=0 note=54 velocity=30 time=0\n",
      "note_on channel=0 note=83 velocity=46 time=0\n",
      "note_on channel=0 note=75 velocity=33 time=1\n",
      "note_off channel=0 note=82 velocity=64 time=0\n",
      "note_off channel=0 note=87 velocity=64 time=1\n",
      "note_off channel=0 note=54 velocity=64 time=1\n",
      "note_off channel=0 note=73 velocity=64 time=0\n",
      "note_on channel=0 note=74 velocity=71 time=0\n",
      "note_off channel=0 note=75 velocity=64 time=0\n",
      "note_on channel=0 note=93 velocity=27 time=0\n",
      "note_off channel=0 note=43 velocity=64 time=1\n",
      "note_on channel=0 note=54 velocity=29 time=0\n",
      "note_off channel=0 note=101 velocity=64 time=0\n",
      "note_on channel=0 note=102 velocity=14 time=0\n",
      "note_off channel=0 note=61 velocity=64 time=1\n",
      "note_on channel=0 note=62 velocity=71 time=0\n",
      "note_on channel=0 note=65 velocity=31 time=0\n",
      "note_on channel=0 note=90 velocity=61 time=0\n",
      "note_off channel=0 note=89 velocity=64 time=1\n",
      "note_on channel=0 note=53 velocity=26 time=1\n",
      "note_off channel=0 note=54 velocity=64 time=0\n",
      "note_off channel=0 note=65 velocity=64 time=0\n",
      "note_off channel=0 note=95 velocity=64 time=0\n",
      "note_off channel=0 note=102 velocity=64 time=0\n",
      "note_on channel=0 note=65 velocity=32 time=1\n",
      "note_on channel=0 note=87 velocity=16 time=0\n",
      "note_on channel=0 note=61 velocity=73 time=1\n",
      "note_off channel=0 note=62 velocity=64 time=0\n",
      "note_on channel=0 note=68 velocity=11 time=0\n",
      "note_off channel=0 note=53 velocity=64 time=1\n",
      "note_on channel=0 note=89 velocity=71 time=0\n",
      "note_off channel=0 note=90 velocity=64 time=0\n",
      "note_off channel=0 note=68 velocity=64 time=2\n",
      "note_on channel=0 note=73 velocity=75 time=0\n",
      "note_off channel=0 note=93 velocity=64 time=0\n",
      "note_off channel=0 note=65 velocity=64 time=1\n",
      "note_on channel=0 note=66 velocity=48 time=0\n",
      "note_off channel=0 note=74 velocity=64 time=0\n",
      "note_on channel=0 note=75 velocity=54 time=0\n",
      "note_off channel=0 note=77 velocity=64 time=0\n",
      "note_on channel=0 note=84 velocity=44 time=0\n",
      "note_off channel=0 note=87 velocity=64 time=0\n",
      "note_on channel=0 note=91 velocity=24 time=1\n",
      "note_on channel=0 note=93 velocity=11 time=0\n",
      "note_on channel=0 note=102 velocity=21 time=0\n",
      "note_on channel=0 note=45 velocity=76 time=1\n",
      "note_off channel=0 note=61 velocity=64 time=0\n",
      "note_off channel=0 note=66 velocity=64 time=0\n",
      "note_on channel=0 note=67 velocity=50 time=0\n",
      "note_on channel=0 note=69 velocity=41 time=0\n",
      "note_on channel=0 note=77 velocity=41 time=0\n",
      "note_on channel=0 note=61 velocity=75 time=1\n",
      "note_on channel=0 note=44 velocity=77 time=1\n",
      "note_off channel=0 note=45 velocity=64 time=0\n",
      "note_off channel=0 note=69 velocity=64 time=0\n",
      "note_off channel=0 note=93 velocity=64 time=0\n",
      "note_off channel=0 note=102 velocity=64 time=0\n",
      "note_on channel=0 note=65 velocity=37 time=1\n",
      "note_on channel=0 note=94 velocity=23 time=0\n",
      "note_on channel=0 note=43 velocity=75 time=1\n",
      "note_off channel=0 note=44 velocity=64 time=0\n",
      "note_off channel=0 note=67 velocity=64 time=0\n",
      "note_on channel=0 note=68 velocity=43 time=0\n",
      "note_off channel=0 note=71 velocity=64 time=0\n",
      "note_on channel=0 note=71 velocity=45 time=1\n",
      "note_off channel=0 note=84 velocity=64 time=0\n",
      "note_on channel=0 note=54 velocity=25 time=2\n",
      "note_off channel=0 note=94 velocity=64 time=1\n",
      "note_off channel=0 note=75 velocity=64 time=1\n",
      "note_off channel=0 note=54 velocity=64 time=1\n",
      "note_off channel=0 note=43 velocity=64 time=1\n",
      "note_on channel=0 note=44 velocity=32 time=0\n",
      "note_off channel=0 note=44 velocity=64 time=3\n",
      "note_off channel=0 note=71 velocity=64 time=1\n",
      "note_off channel=0 note=89 velocity=64 time=1\n",
      "note_off channel=0 note=73 velocity=64 time=1\n",
      "note_on channel=0 note=87 velocity=27 time=0\n",
      "note_on channel=0 note=71 velocity=40 time=1\n",
      "note_off channel=0 note=91 velocity=64 time=0\n",
      "note_on channel=0 note=91 velocity=15 time=1\n",
      "note_off channel=0 note=61 velocity=64 time=1\n",
      "note_on channel=0 note=61 velocity=28 time=2\n",
      "note_on channel=0 note=89 velocity=47 time=0\n",
      "note_off channel=0 note=61 velocity=64 time=6\n",
      "note_on channel=0 note=63 velocity=69 time=0\n",
      "note_off channel=0 note=65 velocity=64 time=0\n",
      "note_off channel=0 note=68 velocity=64 time=0\n",
      "note_off channel=0 note=71 velocity=64 time=0\n",
      "note_on channel=0 note=82 velocity=61 time=0\n",
      "note_on channel=0 note=90 velocity=41 time=0\n",
      "note_off channel=0 note=91 velocity=64 time=0\n",
      "note_on channel=0 note=62 velocity=90 time=1\n",
      "note_off channel=0 note=63 velocity=64 time=0\n",
      "note_on channel=0 note=75 velocity=39 time=0\n",
      "note_off channel=0 note=83 velocity=64 time=0\n",
      "note_on channel=0 note=84 velocity=38 time=0\n",
      "note_off channel=0 note=87 velocity=64 time=0\n",
      "note_on channel=0 note=88 velocity=30 time=0\n",
      "note_on channel=0 note=91 velocity=51 time=0\n",
      "note_off channel=0 note=62 velocity=64 time=1\n",
      "note_on channel=0 note=63 velocity=93 time=0\n",
      "note_on channel=0 note=68 velocity=34 time=1\n",
      "note_on channel=0 note=72 velocity=58 time=0\n",
      "note_on channel=0 note=79 velocity=46 time=1\n",
      "note_off channel=0 note=82 velocity=64 time=0\n",
      "note_on channel=0 note=83 velocity=38 time=0\n",
      "note_off channel=0 note=88 velocity=64 time=0\n",
      "note_off channel=0 note=90 velocity=64 time=0\n",
      "note_off channel=0 note=89 velocity=64 time=1\n",
      "note_off channel=0 note=84 velocity=64 time=1\n",
      "note_on channel=0 note=71 velocity=67 time=2\n",
      "note_off channel=0 note=72 velocity=64 time=0\n",
      "note_on channel=0 note=59 velocity=46 time=1\n",
      "note_on channel=0 note=78 velocity=44 time=0\n",
      "note_off channel=0 note=79 velocity=64 time=0\n",
      "note_on channel=0 note=90 velocity=45 time=0\n",
      "note_off channel=0 note=91 velocity=64 time=0\n",
      "note_off channel=0 note=59 velocity=64 time=2\n",
      "note_on channel=0 note=73 velocity=21 time=0\n",
      "note_off channel=0 note=77 velocity=64 time=1\n",
      "note_on channel=0 note=59 velocity=56 time=1\n",
      "note_on channel=0 note=58 velocity=53 time=2\n",
      "note_off channel=0 note=59 velocity=64 time=0\n",
      "note_off channel=0 note=68 velocity=64 time=0\n",
      "note_on channel=0 note=77 velocity=62 time=0\n",
      "note_on channel=0 note=86 velocity=11 time=0\n",
      "note_on channel=0 note=70 velocity=71 time=1\n",
      "note_off channel=0 note=71 velocity=64 time=0\n",
      "note_off channel=0 note=78 velocity=64 time=0\n",
      "note_off channel=0 note=83 velocity=64 time=0\n",
      "note_off channel=0 note=90 velocity=64 time=0\n",
      "note_on channel=0 note=83 velocity=49 time=1\n",
      "note_on channel=0 note=91 velocity=36 time=1\n",
      "note_off channel=0 note=86 velocity=64 time=1\n",
      "note_off channel=0 note=75 velocity=64 time=1\n",
      "note_on channel=0 note=76 velocity=58 time=0\n",
      "note_off channel=0 note=77 velocity=64 time=0\n",
      "note_on channel=0 note=57 velocity=50 time=1\n",
      "note_off channel=0 note=58 velocity=64 time=0\n",
      "note_on channel=0 note=69 velocity=65 time=0\n",
      "note_off channel=0 note=70 velocity=64 time=0\n",
      "note_off channel=0 note=69 velocity=64 time=4\n",
      "note_on channel=0 note=69 velocity=71 time=1\n",
      "note_off channel=0 note=73 velocity=64 time=0\n",
      "note_on channel=0 note=73 velocity=51 time=3\n",
      "note_on channel=0 note=89 velocity=47 time=0\n",
      "note_off channel=0 note=57 velocity=64 time=1\n",
      "note_on channel=0 note=62 velocity=79 time=0\n",
      "note_on channel=0 note=78 velocity=35 time=0\n",
      "note_on channel=0 note=82 velocity=63 time=0\n",
      "note_off channel=0 note=83 velocity=64 time=0\n",
      "note_off channel=0 note=63 velocity=64 time=1\n",
      "note_off channel=0 note=62 velocity=64 time=1\n",
      "note_on channel=0 note=63 velocity=85 time=0\n",
      "note_on channel=0 note=71 velocity=43 time=0\n",
      "note_off channel=0 note=73 velocity=64 time=0\n",
      "note_off channel=0 note=78 velocity=64 time=0\n",
      "note_off channel=0 note=82 velocity=64 time=1\n",
      "note_off channel=0 note=71 velocity=64 time=1\n",
      "note_on channel=0 note=73 velocity=15 time=0\n",
      "note_on channel=0 note=90 velocity=29 time=0\n",
      "note_on channel=0 note=57 velocity=54 time=1\n",
      "note_off channel=0 note=91 velocity=64 time=0\n",
      "note_off channel=0 note=89 velocity=64 time=1\n",
      "note_off channel=0 note=90 velocity=64 time=1\n",
      "note_on channel=0 note=91 velocity=42 time=0\n",
      "note_off channel=0 note=57 velocity=64 time=5\n",
      "note_on channel=0 note=57 velocity=53 time=1\n",
      "note_on channel=0 note=102 velocity=10 time=0\n",
      "note_on channel=0 note=87 velocity=51 time=1\n",
      "note_on channel=0 note=89 velocity=79 time=2\n",
      "note_off channel=0 note=102 velocity=64 time=0\n",
      "note_on channel=0 note=85 velocity=40 time=1\n",
      "note_on channel=0 note=71 velocity=33 time=1\n",
      "note_off channel=0 note=71 velocity=64 time=2\n",
      "note_off channel=0 note=73 velocity=64 time=5\n",
      "note_on channel=0 note=78 velocity=26 time=1\n",
      "note_on channel=0 note=73 velocity=37 time=2\n",
      "note_on channel=0 note=84 velocity=38 time=0\n",
      "note_on channel=0 note=95 velocity=36 time=0\n",
      "note_off channel=0 note=78 velocity=64 time=1\n",
      "note_on channel=0 note=102 velocity=16 time=0\n",
      "note_on channel=0 note=77 velocity=33 time=1\n",
      "note_off channel=0 note=77 velocity=64 time=2\n",
      "note_on channel=0 note=78 velocity=24 time=0\n",
      "note_on channel=0 note=90 velocity=31 time=0\n",
      "note_off channel=0 note=102 velocity=64 time=0\n",
      "note_on channel=0 note=56 velocity=53 time=1\n",
      "note_off channel=0 note=57 velocity=64 time=0\n",
      "note_on channel=0 note=68 velocity=65 time=0\n",
      "note_off channel=0 note=69 velocity=64 time=0\n",
      "note_off channel=0 note=63 velocity=64 time=1\n",
      "note_on channel=0 note=65 velocity=51 time=0\n",
      "note_on channel=0 note=75 velocity=33 time=1\n",
      "note_off channel=0 note=76 velocity=64 time=0\n",
      "note_off channel=0 note=90 velocity=64 time=0\n",
      "note_on channel=0 note=61 velocity=27 time=1\n",
      "note_on channel=0 note=82 velocity=36 time=0\n",
      "note_on channel=0 note=90 velocity=31 time=0\n",
      "note_off channel=0 note=78 velocity=64 time=4\n",
      "note_off channel=0 note=85 velocity=64 time=0\n",
      "note_off channel=0 note=90 velocity=64 time=3\n",
      "note_off channel=0 note=95 velocity=64 time=0\n",
      "note_on channel=0 note=90 velocity=46 time=1\n",
      "note_on channel=0 note=71 velocity=41 time=2\n",
      "note_on channel=0 note=86 velocity=20 time=0\n",
      "note_off channel=0 note=75 velocity=64 time=2\n",
      "note_off channel=0 note=89 velocity=64 time=2\n",
      "note_on channel=0 note=75 velocity=55 time=1\n",
      "note_off channel=0 note=86 velocity=64 time=1\n",
      "note_off channel=0 note=91 velocity=64 time=0\n",
      "note_on channel=0 note=88 velocity=21 time=3\n",
      "note_off channel=0 note=61 velocity=64 time=2\n",
      "note_on channel=0 note=91 velocity=31 time=0\n",
      "note_off channel=0 note=56 velocity=64 time=1\n",
      "note_on channel=0 note=57 velocity=69 time=0\n",
      "note_on channel=0 note=62 velocity=66 time=0\n",
      "note_off channel=0 note=65 velocity=64 time=0\n",
      "note_off channel=0 note=73 velocity=64 time=0\n",
      "note_off channel=0 note=88 velocity=64 time=0\n",
      "note_on channel=0 note=95 velocity=20 time=0\n",
      "note_on channel=0 note=61 velocity=78 time=1\n",
      "note_off channel=0 note=62 velocity=64 time=0\n",
      "note_on channel=0 note=89 velocity=43 time=0\n",
      "note_on channel=0 note=63 velocity=67 time=1\n",
      "note_off channel=0 note=71 velocity=64 time=0\n",
      "note_off channel=0 note=63 velocity=64 time=1\n",
      "note_on channel=0 note=78 velocity=23 time=0\n",
      "note_off channel=0 note=57 velocity=64 time=1\n",
      "note_off channel=0 note=61 velocity=64 time=0\n",
      "note_on channel=0 note=62 velocity=58 time=0\n",
      "note_off channel=0 note=90 velocity=64 time=0\n",
      "note_off channel=0 note=95 velocity=64 time=0\n",
      "note_off channel=0 note=68 velocity=64 time=1\n",
      "note_on channel=0 note=69 velocity=62 time=0\n",
      "note_off channel=0 note=87 velocity=64 time=0\n",
      "note_on channel=0 note=88 velocity=52 time=0\n",
      "note_on channel=0 note=90 velocity=43 time=0\n",
      "note_off channel=0 note=91 velocity=64 time=0\n",
      "note_on channel=0 note=93 velocity=13 time=0\n",
      "note_on channel=0 note=57 velocity=57 time=1\n",
      "note_off channel=0 note=62 velocity=64 time=0\n",
      "note_on channel=0 note=65 velocity=24 time=0\n",
      "note_off channel=0 note=75 velocity=64 time=0\n",
      "note_on channel=0 note=76 velocity=68 time=0\n",
      "note_off channel=0 note=78 velocity=64 time=0\n",
      "note_off channel=0 note=84 velocity=64 time=0\n",
      "note_on channel=0 note=85 velocity=44 time=0\n",
      "note_on channel=0 note=87 velocity=32 time=1\n",
      "note_on channel=0 note=91 velocity=35 time=0\n",
      "note_off channel=0 note=80 velocity=64 time=1\n",
      "note_off channel=0 note=82 velocity=64 time=0\n",
      "note_off channel=0 note=89 velocity=64 time=0\n",
      "note_off channel=0 note=93 velocity=64 time=0\n",
      "note_on channel=0 note=80 velocity=49 time=1\n",
      "note_on channel=0 note=84 velocity=41 time=0\n",
      "note_on channel=0 note=89 velocity=52 time=0\n",
      "note_off channel=0 note=57 velocity=64 time=1\n",
      "note_on channel=0 note=58 velocity=52 time=0\n",
      "note_off channel=0 note=69 velocity=64 time=0\n",
      "note_on channel=0 note=70 velocity=59 time=0\n",
      "note_off channel=0 note=76 velocity=64 time=0\n",
      "note_on channel=0 note=77 velocity=65 time=0\n",
      "note_off channel=0 note=91 velocity=64 time=0\n",
      "note_off channel=0 note=65 velocity=64 time=1\n",
      "note_on channel=0 note=82 velocity=67 time=0\n",
      "note_off channel=0 note=88 velocity=64 time=0\n",
      "note_off channel=0 note=58 velocity=64 time=3\n",
      "note_on channel=0 note=68 velocity=41 time=0\n",
      "note_off channel=0 note=70 velocity=64 time=0\n",
      "note_on channel=0 note=71 velocity=52 time=0\n",
      "note_on channel=0 note=64 velocity=47 time=1\n",
      "note_on channel=0 note=75 velocity=48 time=0\n",
      "note_on channel=0 note=78 velocity=40 time=0\n",
      "note_on channel=0 note=53 velocity=43 time=1\n",
      "note_off channel=0 note=77 velocity=64 time=0\n",
      "note_on channel=0 note=60 velocity=51 time=1\n",
      "note_off channel=0 note=64 velocity=64 time=0\n",
      "note_off channel=0 note=68 velocity=64 time=0\n",
      "note_off channel=0 note=84 velocity=64 time=0\n",
      "note_off channel=0 note=53 velocity=64 time=1\n",
      "note_off channel=0 note=75 velocity=64 time=0\n",
      "note_on channel=0 note=77 velocity=29 time=0\n",
      "note_off channel=0 note=60 velocity=64 time=1\n",
      "note_on channel=0 note=65 velocity=56 time=0\n",
      "note_on channel=0 note=68 velocity=16 time=0\n",
      "note_off channel=0 note=71 velocity=64 time=0\n",
      "note_on channel=0 note=72 velocity=55 time=0\n",
      "note_on channel=0 note=91 velocity=26 time=0\n",
      "note_on channel=0 note=60 velocity=59 time=1\n",
      "note_on channel=0 note=75 velocity=32 time=0\n",
      "note_off channel=0 note=77 velocity=64 time=0\n",
      "note_off channel=0 note=78 velocity=64 time=1\n",
      "note_on channel=0 note=79 velocity=37 time=0\n",
      "note_off channel=0 note=68 velocity=64 time=1\n",
      "note_off channel=0 note=80 velocity=64 time=0\n",
      "note_on channel=0 note=78 velocity=29 time=1\n",
      "note_on channel=0 note=80 velocity=54 time=0\n",
      "note_off channel=0 note=79 velocity=64 time=1\n",
      "note_off channel=0 note=60 velocity=64 time=2\n",
      "note_on channel=0 note=61 velocity=79 time=0\n",
      "note_off channel=0 note=72 velocity=64 time=0\n",
      "note_off channel=0 note=78 velocity=64 time=0\n",
      "note_off channel=0 note=82 velocity=64 time=3\n",
      "note_on channel=0 note=83 velocity=36 time=0\n",
      "note_on channel=0 note=88 velocity=36 time=0\n",
      "note_off channel=0 note=89 velocity=64 time=0\n",
      "note_on channel=0 note=64 velocity=82 time=1\n",
      "note_off channel=0 note=65 velocity=64 time=0\n",
      "note_on channel=0 note=71 velocity=32 time=0\n",
      "note_on channel=0 note=45 velocity=76 time=1\n",
      "note_on channel=0 note=53 velocity=44 time=0\n",
      "note_on channel=0 note=84 velocity=18 time=0\n",
      "note_on channel=0 note=44 velocity=78 time=1\n",
      "note_off channel=0 note=45 velocity=64 time=0\n",
      "note_on channel=0 note=63 velocity=72 time=0\n",
      "note_off channel=0 note=64 velocity=64 time=0\n",
      "note_on channel=0 note=82 velocity=29 time=0\n",
      "note_off channel=0 note=83 velocity=64 time=0\n",
      "note_off channel=0 note=53 velocity=64 time=1\n",
      "note_off channel=0 note=63 velocity=64 time=0\n",
      "note_on channel=0 note=53 velocity=39 time=1\n",
      "note_off channel=0 note=71 velocity=64 time=0\n",
      "note_on channel=0 note=71 velocity=27 time=1\n",
      "note_off channel=0 note=88 velocity=64 time=0\n",
      "note_off channel=0 note=44 velocity=64 time=1\n",
      "note_on channel=0 note=45 velocity=75 time=0\n",
      "note_off channel=0 note=53 velocity=64 time=0\n",
      "note_on channel=0 note=44 velocity=70 time=2\n",
      "note_off channel=0 note=45 velocity=64 time=0\n",
      "note_on channel=0 note=65 velocity=32 time=0\n",
      "note_off channel=0 note=85 velocity=64 time=1\n",
      "note_off channel=0 note=44 velocity=64 time=1\n",
      "note_on channel=0 note=78 velocity=21 time=0\n",
      "note_off channel=0 note=80 velocity=64 time=0\n",
      "note_off channel=0 note=65 velocity=64 time=1\n",
      "note_on channel=0 note=43 velocity=60 time=1\n",
      "note_on channel=0 note=65 velocity=51 time=0\n",
      "note_on channel=0 note=80 velocity=86 time=0\n",
      "note_off channel=0 note=43 velocity=64 time=2\n",
      "note_on channel=0 note=48 velocity=71 time=2\n",
      "note_off channel=0 note=82 velocity=64 time=0\n",
      "note_on channel=0 note=47 velocity=76 time=1\n",
      "note_off channel=0 note=48 velocity=64 time=0\n",
      "note_on channel=0 note=54 velocity=33 time=0\n",
      "note_on channel=0 note=82 velocity=40 time=0\n",
      "note_off channel=0 note=47 velocity=64 time=1\n",
      "note_on channel=0 note=48 velocity=73 time=0\n",
      "note_off channel=0 note=75 velocity=64 time=0\n",
      "note_off channel=0 note=78 velocity=64 time=0\n",
      "note_off channel=0 note=54 velocity=64 time=1\n",
      "note_on channel=0 note=68 velocity=34 time=0\n",
      "note_off channel=0 note=91 velocity=64 time=0\n",
      "note_off channel=0 note=48 velocity=64 time=1\n",
      "note_on channel=0 note=50 velocity=76 time=0\n",
      "note_on channel=0 note=91 velocity=27 time=0\n",
      "note_off channel=0 note=50 velocity=64 time=1\n",
      "note_on channel=0 note=53 velocity=73 time=0\n",
      "note_off channel=0 note=71 velocity=64 time=0\n",
      "note_on channel=0 note=89 velocity=74 time=2\n",
      "note_off channel=0 note=53 velocity=64 time=1\n",
      "note_off channel=0 note=91 velocity=64 time=0\n",
      "note_on channel=0 note=53 velocity=58 time=1\n",
      "note_off channel=0 note=61 velocity=64 time=0\n",
      "note_on channel=0 note=83 velocity=42 time=0\n",
      "note_on channel=0 note=61 velocity=77 time=1\n",
      "note_on channel=0 note=71 velocity=17 time=0\n",
      "note_off channel=0 note=82 velocity=64 time=0\n",
      "note_off channel=0 note=53 velocity=64 time=2\n",
      "note_on channel=0 note=82 velocity=45 time=0\n",
      "note_off channel=0 note=65 velocity=64 time=1\n",
      "note_off channel=0 note=68 velocity=64 time=0\n",
      "note_off channel=0 note=71 velocity=64 time=0\n",
      "note_off channel=0 note=83 velocity=64 time=0\n",
      "note_on channel=0 note=45 velocity=77 time=1\n",
      "note_on channel=0 note=53 velocity=49 time=0\n",
      "note_on channel=0 note=64 velocity=82 time=0\n",
      "note_on channel=0 note=67 velocity=60 time=0\n",
      "note_on channel=0 note=77 velocity=34 time=0\n",
      "note_on channel=0 note=83 velocity=50 time=0\n",
      "note_off channel=0 note=61 velocity=64 time=1\n",
      "note_on channel=0 note=63 velocity=76 time=0\n",
      "note_off channel=0 note=64 velocity=64 time=0\n",
      "note_off channel=0 note=82 velocity=64 time=0\n",
      "note_on channel=0 note=44 velocity=78 time=1\n",
      "note_off channel=0 note=45 velocity=64 time=0\n",
      "note_off channel=0 note=53 velocity=64 time=0\n",
      "note_on channel=0 note=61 velocity=80 time=0\n",
      "note_off channel=0 note=67 velocity=64 time=0\n",
      "note_on channel=0 note=69 velocity=30 time=0\n",
      "note_off channel=0 note=87 velocity=64 time=0\n",
      "note_off channel=0 note=63 velocity=64 time=1\n",
      "note_on channel=0 note=71 velocity=24 time=0\n",
      "note_on channel=0 note=65 velocity=35 time=1\n",
      "note_off channel=0 note=69 velocity=64 time=0\n",
      "note_on channel=0 note=91 velocity=26 time=1\n",
      "note_off channel=0 note=71 velocity=64 time=1\n",
      "note_off channel=0 note=44 velocity=64 time=1\n",
      "note_off channel=0 note=65 velocity=64 time=1\n",
      "note_on channel=0 note=43 velocity=59 time=1\n",
      "note_off channel=0 note=91 velocity=64 time=0\n",
      "note_on channel=0 note=94 velocity=20 time=0\n",
      "note_on channel=0 note=54 velocity=25 time=1\n",
      "note_on channel=0 note=87 velocity=15 time=0\n",
      "note_on channel=0 note=91 velocity=26 time=0\n",
      "note_on channel=0 note=42 velocity=57 time=2\n",
      "note_off channel=0 note=43 velocity=64 time=0\n",
      "note_on channel=0 note=60 velocity=56 time=0\n",
      "note_off channel=0 note=61 velocity=64 time=0\n",
      "note_on channel=0 note=75 velocity=15 time=0\n",
      "note_off channel=0 note=54 velocity=64 time=2\n",
      "note_off channel=0 note=60 velocity=64 time=0\n",
      "note_on channel=0 note=61 velocity=85 time=0\n",
      "note_off channel=0 note=91 velocity=64 time=0\n",
      "note_off channel=0 note=94 velocity=64 time=2\n",
      "note_on channel=0 note=91 velocity=26 time=1\n",
      "note_on channel=0 note=71 velocity=20 time=2\n",
      "note_off channel=0 note=61 velocity=64 time=1\n",
      "note_on channel=0 note=62 velocity=71 time=0\n",
      "note_on channel=0 note=82 velocity=45 time=0\n",
      "note_off channel=0 note=83 velocity=64 time=0\n",
      "note_on channel=0 note=61 velocity=80 time=1\n",
      "note_off channel=0 note=62 velocity=64 time=0\n",
      "note_off channel=0 note=84 velocity=64 time=0\n",
      "note_off channel=0 note=87 velocity=64 time=0\n",
      "note_off channel=0 note=42 velocity=64 time=3\n",
      "note_on channel=0 note=42 velocity=49 time=1\n",
      "note_off channel=0 note=75 velocity=64 time=2\n",
      "note_on channel=0 note=87 velocity=44 time=0\n",
      "note_off channel=0 note=42 velocity=64 time=1\n",
      "note_off channel=0 note=71 velocity=64 time=0\n",
      "note_off channel=0 note=77 velocity=64 time=0\n",
      "note_off channel=0 note=90 velocity=64 time=0\n",
      "note_on channel=0 note=93 velocity=29 time=0\n",
      "note_on channel=0 note=102 velocity=20 time=0\n",
      "note_on channel=0 note=48 velocity=86 time=1\n",
      "note_on channel=0 note=78 velocity=40 time=0\n",
      "note_on channel=0 note=88 velocity=42 time=0\n",
      "note_off channel=0 note=91 velocity=64 time=0\n",
      "note_on channel=0 note=96 velocity=10 time=0\n",
      "note_on channel=0 note=64 velocity=63 time=1\n",
      "note_on channel=0 note=71 velocity=44 time=0\n",
      "note_on channel=0 note=91 velocity=21 time=0\n",
      "note_on channel=0 note=77 velocity=28 time=1\n",
      "note_off channel=0 note=78 velocity=64 time=0\n",
      "note_off channel=0 note=82 velocity=64 time=0\n",
      "note_off channel=0 note=93 velocity=64 time=0\n",
      "note_off channel=0 note=48 velocity=64 time=1\n",
      "note_on channel=0 note=74 velocity=71 time=0\n",
      "note_on channel=0 note=82 velocity=41 time=0\n",
      "note_off channel=0 note=96 velocity=64 time=0\n",
      "note_off channel=0 note=102 velocity=64 time=0\n",
      "note_off channel=0 note=64 velocity=64 time=1\n",
      "note_on channel=0 note=68 velocity=11 time=0\n",
      "note_off channel=0 note=74 velocity=64 time=0\n",
      "note_on channel=0 note=48 velocity=63 time=1\n",
      "note_off channel=0 note=82 velocity=64 time=0\n",
      "note_on channel=0 note=83 velocity=45 time=0\n",
      "note_on channel=0 note=93 velocity=34 time=1\n",
      "note_off channel=0 note=48 velocity=64 time=1\n",
      "note_on channel=0 note=49 velocity=51 time=0\n",
      "note_off channel=0 note=68 velocity=64 time=0\n",
      "note_on channel=0 note=74 velocity=78 time=0\n",
      "note_on channel=0 note=102 velocity=22 time=1\n",
      "note_off channel=0 note=49 velocity=64 time=1\n",
      "note_off channel=0 note=61 velocity=64 time=0\n",
      "note_on channel=0 note=62 velocity=69 time=0\n",
      "note_off channel=0 note=89 velocity=64 time=0\n",
      "note_on channel=0 note=90 velocity=63 time=0\n",
      "note_on channel=0 note=54 velocity=34 time=1\n",
      "note_on channel=0 note=44 velocity=36 time=1\n",
      "note_on channel=0 note=81 velocity=64 time=0\n",
      "note_off channel=0 note=80 velocity=64 time=1\n",
      "note_off channel=0 note=44 velocity=64 time=1\n",
      "note_off channel=0 note=54 velocity=64 time=0\n",
      "note_on channel=0 note=44 velocity=32 time=1\n",
      "note_on channel=0 note=54 velocity=31 time=0\n",
      "note_off channel=0 note=77 velocity=64 time=0\n",
      "note_on channel=0 note=80 velocity=78 time=0\n",
      "note_on channel=0 note=89 velocity=50 time=0\n",
      "note_off channel=0 note=102 velocity=64 time=0\n",
      "note_on channel=0 note=61 velocity=76 time=1\n",
      "note_off channel=0 note=62 velocity=64 time=0\n",
      "note_on channel=0 note=65 velocity=12 time=0\n",
      "note_on channel=0 note=68 velocity=18 time=0\n",
      "note_on channel=0 note=73 velocity=77 time=0\n",
      "note_off channel=0 note=74 velocity=64 time=0\n",
      "note_off channel=0 note=44 velocity=64 time=1\n",
      "note_off channel=0 note=81 velocity=64 time=0\n",
      "note_on channel=0 note=84 velocity=32 time=0\n",
      "note_off channel=0 note=89 velocity=64 time=0\n",
      "note_off channel=0 note=71 velocity=64 time=1\n",
      "note_on channel=0 note=60 velocity=70 time=1\n",
      "note_off channel=0 note=61 velocity=64 time=0\n",
      "note_off channel=0 note=65 velocity=64 time=0\n",
      "note_on channel=0 note=71 velocity=58 time=0\n",
      "note_off channel=0 note=73 velocity=64 time=0\n",
      "note_off channel=0 note=87 velocity=64 time=0\n",
      "note_on channel=0 note=65 velocity=16 time=1\n",
      "note_on channel=0 note=74 velocity=44 time=0\n",
      "note_on channel=0 note=79 velocity=41 time=0\n",
      "note_off channel=0 note=84 velocity=64 time=0\n",
      "note_on channel=0 note=89 velocity=23 time=0\n",
      "note_off channel=0 note=90 velocity=64 time=0\n",
      "note_off channel=0 note=60 velocity=64 time=1\n",
      "note_on channel=0 note=42 velocity=14 time=1\n",
      "note_on channel=0 note=53 velocity=30 time=0\n"
     ]
    },
    {
     "name": "stdout",
     "output_type": "stream",
     "text": [
      "note_off channel=0 note=54 velocity=64 time=0\n",
      "note_on channel=0 note=72 velocity=58 time=0\n",
      "note_on channel=0 note=75 velocity=28 time=0\n",
      "note_on channel=0 note=90 velocity=22 time=0\n",
      "note_on channel=0 note=61 velocity=79 time=1\n",
      "note_off channel=0 note=71 velocity=64 time=0\n",
      "note_off channel=0 note=74 velocity=64 time=0\n",
      "note_off channel=0 note=89 velocity=64 time=0\n",
      "note_off channel=0 note=93 velocity=64 time=0\n",
      "note_off channel=0 note=53 velocity=64 time=1\n",
      "note_on channel=0 note=71 velocity=51 time=0\n",
      "note_off channel=0 note=72 velocity=64 time=0\n",
      "note_on channel=0 note=93 velocity=13 time=0\n",
      "note_on channel=0 note=101 velocity=28 time=0\n",
      "note_on channel=0 note=53 velocity=32 time=1\n",
      "note_on channel=0 note=82 velocity=34 time=0\n",
      "note_off channel=0 note=42 velocity=64 time=1\n",
      "note_off channel=0 note=83 velocity=64 time=0\n",
      "note_on channel=0 note=97 velocity=36 time=0\n",
      "note_off channel=0 note=53 velocity=64 time=1\n",
      "note_on channel=0 note=77 velocity=27 time=0\n",
      "note_off channel=0 note=91 velocity=64 time=0\n",
      "note_on channel=0 note=94 velocity=37 time=0\n",
      "note_off channel=0 note=79 velocity=64 time=1\n",
      "note_off channel=0 note=93 velocity=64 time=0\n",
      "note_off channel=0 note=65 velocity=64 time=1\n",
      "note_off channel=0 note=68 velocity=64 time=0\n",
      "note_on channel=0 note=87 velocity=37 time=0\n",
      "note_on channel=0 note=89 velocity=69 time=0\n",
      "note_on channel=0 note=93 velocity=22 time=0\n",
      "note_on channel=0 note=95 velocity=41 time=0\n",
      "note_on channel=0 note=102 velocity=25 time=0\n",
      "note_off channel=0 note=75 velocity=64 time=1\n",
      "note_on channel=0 note=76 velocity=47 time=0\n",
      "note_off channel=0 note=77 velocity=64 time=0\n",
      "note_on channel=0 note=84 velocity=41 time=0\n",
      "note_off channel=0 note=88 velocity=64 time=0\n",
      "note_off channel=0 note=90 velocity=64 time=0\n",
      "note_off channel=0 note=94 velocity=64 time=0\n",
      "note_on channel=0 note=45 velocity=75 time=1\n",
      "note_on channel=0 note=69 velocity=45 time=0\n",
      "note_on channel=0 note=78 velocity=31 time=0\n",
      "note_off channel=0 note=82 velocity=64 time=0\n",
      "note_on channel=0 note=91 velocity=16 time=0\n",
      "note_on channel=0 note=94 velocity=41 time=0\n",
      "note_on channel=0 note=44 velocity=77 time=1\n",
      "note_off channel=0 note=45 velocity=64 time=0\n",
      "note_off channel=0 note=61 velocity=64 time=0\n",
      "note_off channel=0 note=71 velocity=64 time=0\n",
      "note_on channel=0 note=75 velocity=37 time=0\n",
      "note_on channel=0 note=82 velocity=35 time=0\n",
      "note_off channel=0 note=95 velocity=64 time=0\n",
      "note_on channel=0 note=61 velocity=78 time=1\n",
      "note_on channel=0 note=67 velocity=30 time=0\n",
      "note_off channel=0 note=76 velocity=64 time=0\n",
      "note_off channel=0 note=69 velocity=64 time=1\n",
      "note_on channel=0 note=43 velocity=74 time=1\n",
      "note_off channel=0 note=44 velocity=64 time=0\n",
      "note_on channel=0 note=71 velocity=39 time=0\n",
      "note_off channel=0 note=93 velocity=64 time=0\n",
      "note_on channel=0 note=88 velocity=29 time=1\n",
      "note_off channel=0 note=82 velocity=64 time=1\n",
      "note_off channel=0 note=84 velocity=64 time=0\n",
      "note_off channel=0 note=91 velocity=64 time=0\n",
      "note_off channel=0 note=102 velocity=64 time=0\n",
      "note_on channel=0 note=54 velocity=18 time=1\n",
      "note_off channel=0 note=67 velocity=64 time=0\n",
      "note_on channel=0 note=68 velocity=22 time=0\n",
      "note_off channel=0 note=75 velocity=64 time=0\n",
      "note_off channel=0 note=78 velocity=64 time=0\n",
      "note_off channel=0 note=89 velocity=64 time=0\n",
      "note_off channel=0 note=94 velocity=64 time=1\n",
      "note_on channel=0 note=95 velocity=39 time=0\n",
      "note_on channel=0 note=90 velocity=34 time=1\n",
      "note_on channel=0 note=75 velocity=35 time=1\n",
      "note_off channel=0 note=54 velocity=64 time=1\n",
      "note_off channel=0 note=43 velocity=64 time=1\n",
      "note_on channel=0 note=77 velocity=33 time=0\n",
      "note_on channel=0 note=91 velocity=13 time=1\n",
      "note_off channel=0 note=68 velocity=64 time=1\n",
      "note_on channel=0 note=65 velocity=75 time=1\n",
      "note_on channel=0 note=70 velocity=35 time=0\n",
      "note_off channel=0 note=71 velocity=64 time=0\n",
      "note_off channel=0 note=87 velocity=64 time=0\n",
      "note_on channel=0 note=68 velocity=35 time=1\n",
      "note_off channel=0 note=70 velocity=64 time=2\n",
      "note_on channel=0 note=71 velocity=46 time=0\n",
      "note_on channel=0 note=82 velocity=23 time=0\n",
      "note_on channel=0 note=50 velocity=13 time=2\n",
      "note_on channel=0 note=79 velocity=11 time=2\n",
      "note_off channel=0 note=91 velocity=64 time=0\n",
      "note_off channel=0 note=50 velocity=64 time=1\n",
      "note_off channel=0 note=101 velocity=64 time=0\n",
      "note_off channel=0 note=97 velocity=64 time=1\n",
      "note_off channel=0 note=79 velocity=64 time=1\n",
      "note_off channel=0 note=75 velocity=64 time=2\n",
      "note_on channel=0 note=87 velocity=23 time=0\n",
      "note_off channel=0 note=88 velocity=64 time=0\n",
      "note_off channel=0 note=95 velocity=64 time=0\n",
      "note_off channel=0 note=68 velocity=64 time=1\n",
      "note_on channel=0 note=74 velocity=33 time=0\n",
      "note_off channel=0 note=82 velocity=64 time=0\n",
      "note_on channel=0 note=45 velocity=78 time=1\n",
      "note_off channel=0 note=61 velocity=64 time=0\n",
      "note_on channel=0 note=64 velocity=83 time=0\n",
      "note_off channel=0 note=65 velocity=64 time=0\n",
      "note_on channel=0 note=67 velocity=62 time=0\n",
      "note_on channel=0 note=73 velocity=47 time=0\n",
      "note_on channel=0 note=82 velocity=35 time=0\n",
      "note_on channel=0 note=63 velocity=74 time=1\n",
      "note_off channel=0 note=64 velocity=64 time=0\n",
      "note_off channel=0 note=74 velocity=64 time=0\n",
      "note_on channel=0 note=44 velocity=78 time=1\n",
      "note_off channel=0 note=45 velocity=64 time=0\n",
      "note_off channel=0 note=67 velocity=64 time=0\n",
      "note_on channel=0 note=69 velocity=33 time=0\n",
      "note_off channel=0 note=77 velocity=64 time=0\n",
      "note_off channel=0 note=90 velocity=64 time=0\n",
      "note_on channel=0 note=77 velocity=18 time=1\n",
      "note_off channel=0 note=82 velocity=64 time=0\n",
      "note_on channel=0 note=88 velocity=11 time=0\n",
      "note_on channel=0 note=62 velocity=37 time=1\n",
      "note_off channel=0 note=63 velocity=64 time=0\n",
      "note_on channel=0 note=65 velocity=60 time=0\n",
      "note_on channel=0 note=68 velocity=35 time=0\n",
      "note_off channel=0 note=69 velocity=64 time=0\n",
      "note_on channel=0 note=75 velocity=32 time=0\n",
      "note_off channel=0 note=44 velocity=64 time=2\n",
      "note_on channel=0 note=61 velocity=34 time=0\n",
      "note_off channel=0 note=62 velocity=64 time=0\n",
      "note_off channel=0 note=68 velocity=64 time=1\n",
      "note_off channel=0 note=77 velocity=64 time=0\n",
      "note_off channel=0 note=61 velocity=64 time=1\n",
      "note_off channel=0 note=88 velocity=64 time=0\n",
      "note_on channel=0 note=89 velocity=18 time=0\n",
      "note_on channel=0 note=43 velocity=62 time=1\n",
      "note_on channel=0 note=61 velocity=60 time=0\n",
      "note_on channel=0 note=68 velocity=41 time=0\n",
      "note_off channel=0 note=43 velocity=64 time=2\n",
      "note_on channel=0 note=42 velocity=30 time=2\n",
      "note_on channel=0 note=88 velocity=13 time=0\n",
      "note_off channel=0 note=89 velocity=64 time=0\n",
      "note_off channel=0 note=42 velocity=64 time=2\n",
      "note_on channel=0 note=48 velocity=67 time=0\n",
      "note_on channel=0 note=47 velocity=72 time=1\n",
      "note_off channel=0 note=48 velocity=64 time=0\n",
      "note_on channel=0 note=93 velocity=10 time=0\n",
      "note_off channel=0 note=47 velocity=64 time=2\n",
      "note_on channel=0 note=48 velocity=67 time=0\n",
      "note_off channel=0 note=48 velocity=64 time=1\n",
      "note_on channel=0 note=49 velocity=75 time=0\n",
      "note_off channel=0 note=68 velocity=64 time=0\n",
      "note_off channel=0 note=88 velocity=64 time=0\n",
      "note_off channel=0 note=93 velocity=64 time=0\n",
      "note_off channel=0 note=49 velocity=64 time=1\n",
      "note_on channel=0 note=53 velocity=75 time=0\n",
      "note_on channel=0 note=68 velocity=53 time=0\n",
      "note_off channel=0 note=53 velocity=64 time=3\n",
      "note_on channel=0 note=53 velocity=58 time=1\n",
      "note_on channel=0 note=91 velocity=28 time=0\n",
      "note_off channel=0 note=61 velocity=64 time=2\n",
      "note_on channel=0 note=89 velocity=68 time=0\n",
      "note_off channel=0 note=53 velocity=64 time=2\n",
      "note_on channel=0 note=90 velocity=32 time=0\n",
      "note_on channel=0 note=46 velocity=65 time=1\n",
      "note_on channel=0 note=64 velocity=79 time=0\n",
      "note_off channel=0 note=65 velocity=64 time=0\n",
      "note_off channel=0 note=68 velocity=64 time=0\n",
      "note_off channel=0 note=75 velocity=64 time=0\n",
      "note_off channel=0 note=80 velocity=64 time=0\n",
      "note_on channel=0 note=82 velocity=27 time=0\n",
      "note_off channel=0 note=87 velocity=64 time=0\n",
      "note_on channel=0 note=45 velocity=76 time=1\n",
      "note_off channel=0 note=46 velocity=64 time=0\n",
      "note_on channel=0 note=67 velocity=52 time=0\n",
      "note_on channel=0 note=80 velocity=34 time=0\n",
      "note_on channel=0 note=87 velocity=21 time=0\n",
      "note_on channel=0 note=44 velocity=78 time=1\n",
      "note_off channel=0 note=45 velocity=64 time=0\n",
      "note_on channel=0 note=63 velocity=72 time=0\n",
      "note_off channel=0 note=64 velocity=64 time=0\n",
      "note_off channel=0 note=71 velocity=64 time=0\n",
      "note_on channel=0 note=71 velocity=31 time=1\n",
      "note_off channel=0 note=82 velocity=64 time=0\n",
      "note_on channel=0 note=83 velocity=37 time=0\n",
      "note_on channel=0 note=65 velocity=52 time=1\n",
      "note_off channel=0 note=67 velocity=64 time=0\n",
      "note_on channel=0 note=68 velocity=37 time=0\n",
      "note_off channel=0 note=44 velocity=64 time=1\n",
      "note_on channel=0 note=45 velocity=76 time=0\n",
      "note_on channel=0 note=61 velocity=59 time=0\n",
      "note_off channel=0 note=63 velocity=64 time=0\n",
      "note_on channel=0 note=44 velocity=70 time=2\n",
      "note_off channel=0 note=45 velocity=64 time=0\n",
      "note_off channel=0 note=90 velocity=64 time=0\n",
      "note_off channel=0 note=44 velocity=64 time=2\n",
      "note_off channel=0 note=68 velocity=64 time=0\n",
      "note_on channel=0 note=42 velocity=59 time=1\n",
      "note_on channel=0 note=68 velocity=21 time=0\n",
      "note_off channel=0 note=87 velocity=64 time=2\n",
      "note_on channel=0 note=93 velocity=18 time=0\n",
      "note_off channel=0 note=42 velocity=64 time=1\n",
      "note_on channel=0 note=47 velocity=65 time=1\n",
      "note_off channel=0 note=68 velocity=64 time=0\n",
      "note_off channel=0 note=47 velocity=64 time=1\n",
      "note_on channel=0 note=48 velocity=70 time=0\n",
      "note_off channel=0 note=91 velocity=64 time=1\n",
      "note_on channel=0 note=47 velocity=73 time=1\n",
      "note_off channel=0 note=48 velocity=64 time=0\n",
      "note_on channel=0 note=91 velocity=31 time=0\n",
      "note_off channel=0 note=47 velocity=64 time=1\n",
      "note_on channel=0 note=48 velocity=73 time=0\n",
      "note_off channel=0 note=71 velocity=64 time=0\n",
      "note_off channel=0 note=48 velocity=64 time=2\n",
      "note_on channel=0 note=52 velocity=76 time=0\n",
      "note_off channel=0 note=83 velocity=64 time=0\n",
      "note_off channel=0 note=52 velocity=64 time=1\n",
      "note_on channel=0 note=53 velocity=68 time=0\n",
      "note_off channel=0 note=61 velocity=64 time=0\n",
      "note_off channel=0 note=93 velocity=64 time=0\n",
      "note_off channel=0 note=53 velocity=64 time=2\n",
      "note_on channel=0 note=54 velocity=58 time=0\n",
      "note_on channel=0 note=90 velocity=31 time=1\n",
      "note_on channel=0 note=53 velocity=55 time=1\n",
      "note_off channel=0 note=54 velocity=64 time=0\n",
      "note_on channel=0 note=68 velocity=43 time=0\n",
      "note_on channel=0 note=87 velocity=50 time=0\n",
      "note_on channel=0 note=61 velocity=35 time=1\n",
      "note_off channel=0 note=65 velocity=64 time=0\n",
      "note_off channel=0 note=80 velocity=64 time=0\n",
      "note_on channel=0 note=83 velocity=29 time=0\n",
      "note_on channel=0 note=65 velocity=62 time=1\n",
      "note_on channel=0 note=48 velocity=87 time=1\n",
      "note_off channel=0 note=53 velocity=64 time=0\n",
      "note_off channel=0 note=73 velocity=64 time=0\n",
      "note_on channel=0 note=80 velocity=82 time=0\n",
      "note_on channel=0 note=84 velocity=32 time=0\n",
      "note_on channel=0 note=85 velocity=53 time=0\n",
      "note_off channel=0 note=91 velocity=64 time=0\n",
      "note_on channel=0 note=95 velocity=35 time=0\n",
      "note_off channel=0 note=61 velocity=64 time=1\n",
      "note_on channel=0 note=73 velocity=48 time=0\n",
      "note_on channel=0 note=76 velocity=41 time=0\n",
      "note_on channel=0 note=82 velocity=38 time=0\n",
      "note_off channel=0 note=83 velocity=64 time=0\n",
      "note_off channel=0 note=90 velocity=64 time=0\n",
      "note_on channel=0 note=91 velocity=26 time=0\n",
      "note_on channel=0 note=102 velocity=11 time=0\n",
      "note_off channel=0 note=68 velocity=64 time=1\n",
      "note_on channel=0 note=78 velocity=34 time=0\n",
      "note_on channel=0 note=90 velocity=46 time=0\n",
      "note_on channel=0 note=67 velocity=39 time=1\n",
      "note_off channel=0 note=84 velocity=64 time=0\n",
      "note_on channel=0 note=69 velocity=42 time=1\n",
      "note_on channel=0 note=72 velocity=88 time=0\n",
      "note_off channel=0 note=73 velocity=64 time=0\n",
      "note_on channel=0 note=75 velocity=22 time=0\n",
      "note_off channel=0 note=76 velocity=64 time=0\n",
      "note_on channel=0 note=88 velocity=57 time=0\n",
      "note_off channel=0 note=91 velocity=64 time=0\n",
      "note_off channel=0 note=102 velocity=64 time=0\n",
      "note_off channel=0 note=48 velocity=64 time=1\n",
      "note_off channel=0 note=67 velocity=64 time=0\n",
      "note_off channel=0 note=78 velocity=64 time=0\n",
      "note_on channel=0 note=79 velocity=64 time=0\n",
      "note_off channel=0 note=82 velocity=64 time=0\n",
      "note_on channel=0 note=83 velocity=49 time=0\n",
      "note_off channel=0 note=90 velocity=64 time=0\n",
      "note_off channel=0 note=95 velocity=64 time=0\n",
      "note_on channel=0 note=47 velocity=67 time=1\n",
      "note_on channel=0 note=68 velocity=29 time=0\n",
      "note_off channel=0 note=69 velocity=64 time=0\n",
      "note_on channel=0 note=94 velocity=37 time=0\n",
      "note_on channel=0 note=102 velocity=20 time=0\n",
      "note_off channel=0 note=47 velocity=64 time=1\n",
      "note_off channel=0 note=89 velocity=64 time=1\n",
      "note_on channel=0 note=45 velocity=59 time=1\n",
      "note_on channel=0 note=89 velocity=69 time=0\n",
      "note_on channel=0 note=61 velocity=81 time=1\n",
      "note_off channel=0 note=72 velocity=64 time=0\n",
      "note_on channel=0 note=73 velocity=89 time=0\n",
      "note_on channel=0 note=54 velocity=19 time=1\n",
      "note_off channel=0 note=75 velocity=64 time=0\n",
      "note_off channel=0 note=79 velocity=64 time=0\n",
      "note_on channel=0 note=91 velocity=27 time=0\n",
      "note_on channel=0 note=44 velocity=51 time=1\n",
      "note_off channel=0 note=45 velocity=64 time=0\n",
      "note_off channel=0 note=88 velocity=64 time=0\n",
      "note_off channel=0 note=94 velocity=64 time=0\n",
      "note_off channel=0 note=102 velocity=64 time=1\n",
      "note_off channel=0 note=54 velocity=64 time=1\n",
      "note_on channel=0 note=75 velocity=19 time=0\n",
      "note_off channel=0 note=91 velocity=64 time=0\n",
      "note_on channel=0 note=54 velocity=20 time=1\n",
      "note_on channel=0 note=91 velocity=32 time=0\n",
      "note_on channel=0 note=43 velocity=36 time=1\n",
      "note_off channel=0 note=44 velocity=64 time=0\n",
      "note_off channel=0 note=68 velocity=64 time=0\n",
      "note_off channel=0 note=43 velocity=64 time=2\n",
      "note_off channel=0 note=54 velocity=64 time=0\n",
      "note_off channel=0 note=75 velocity=64 time=0\n",
      "note_on channel=0 note=43 velocity=29 time=1\n",
      "note_on channel=0 note=102 velocity=14 time=0\n",
      "note_on channel=0 note=75 velocity=15 time=1\n",
      "note_off channel=0 note=91 velocity=64 time=1\n",
      "note_on channel=0 note=94 velocity=49 time=0\n",
      "note_on channel=0 note=100 velocity=37 time=0\n",
      "note_on channel=0 note=91 velocity=29 time=1\n",
      "note_off channel=0 note=43 velocity=64 time=1\n",
      "note_on channel=0 note=60 velocity=68 time=0\n",
      "note_off channel=0 note=61 velocity=64 time=0\n",
      "note_off channel=0 note=65 velocity=64 time=0\n",
      "note_on channel=0 note=93 velocity=61 time=0\n",
      "note_off channel=0 note=60 velocity=64 time=1\n",
      "note_on channel=0 note=61 velocity=77 time=0\n",
      "note_off channel=0 note=75 velocity=64 time=0\n",
      "note_off channel=0 note=94 velocity=64 time=0\n",
      "note_on channel=0 note=95 velocity=50 time=0\n",
      "note_off channel=0 note=102 velocity=64 time=0\n",
      "note_on channel=0 note=42 velocity=20 time=1\n",
      "note_on channel=0 note=71 velocity=18 time=1\n",
      "note_off channel=0 note=73 velocity=64 time=1\n",
      "note_on channel=0 note=74 velocity=79 time=0\n",
      "note_on channel=0 note=98 velocity=12 time=0\n",
      "note_on channel=0 note=102 velocity=38 time=0\n",
      "note_off channel=0 note=61 velocity=64 time=1\n",
      "note_on channel=0 note=62 velocity=75 time=0\n",
      "note_on channel=0 note=73 velocity=81 time=0\n",
      "note_off channel=0 note=74 velocity=64 time=0\n",
      "note_off channel=0 note=42 velocity=64 time=1\n",
      "note_off channel=0 note=100 velocity=64 time=0\n",
      "note_on channel=0 note=61 velocity=83 time=1\n",
      "note_off channel=0 note=62 velocity=64 time=0\n",
      "note_on channel=0 note=69 velocity=43 time=0\n",
      "note_off channel=0 note=71 velocity=64 time=0\n",
      "note_on channel=0 note=75 velocity=51 time=0\n",
      "note_off channel=0 note=83 velocity=64 time=0\n",
      "note_on channel=0 note=88 velocity=34 time=0\n",
      "note_off channel=0 note=98 velocity=64 time=0\n",
      "note_on channel=0 note=46 velocity=70 time=1\n",
      "note_on channel=0 note=57 velocity=38 time=0\n",
      "note_on channel=0 note=77 velocity=41 time=0\n",
      "note_on channel=0 note=82 velocity=31 time=0\n",
      "note_on channel=0 note=84 velocity=43 time=0\n",
      "note_off channel=0 note=85 velocity=64 time=0\n",
      "note_on channel=0 note=45 velocity=76 time=1\n",
      "note_off channel=0 note=46 velocity=64 time=0\n",
      "note_on channel=0 note=78 velocity=26 time=0\n",
      "note_off channel=0 note=88 velocity=64 time=0\n",
      "note_on channel=0 note=44 velocity=76 time=1\n",
      "note_off channel=0 note=45 velocity=64 time=0\n",
      "note_off channel=0 note=102 velocity=64 time=0\n",
      "note_on channel=0 note=67 velocity=29 time=1\n",
      "note_off channel=0 note=69 velocity=64 time=0\n",
      "note_off channel=0 note=84 velocity=64 time=0\n",
      "note_off channel=0 note=57 velocity=64 time=1\n",
      "note_off channel=0 note=93 velocity=64 time=0\n",
      "note_on channel=0 note=43 velocity=73 time=1\n",
      "note_off channel=0 note=44 velocity=64 time=0\n",
      "note_off channel=0 note=78 velocity=64 time=0\n",
      "note_on channel=0 note=65 velocity=37 time=2\n",
      "note_off channel=0 note=67 velocity=64 time=0\n",
      "note_on channel=0 note=71 velocity=29 time=0\n",
      "note_off channel=0 note=75 velocity=64 time=0\n",
      "note_on channel=0 note=83 velocity=32 time=0\n",
      "note_off channel=0 note=82 velocity=64 time=1\n",
      "note_off channel=0 note=71 velocity=64 time=1\n",
      "note_on channel=0 note=84 velocity=10 time=0\n",
      "note_on channel=0 note=71 velocity=28 time=1\n",
      "note_on channel=0 note=88 velocity=16 time=2\n",
      "note_off channel=0 note=43 velocity=64 time=1\n",
      "note_off channel=0 note=89 velocity=64 time=0\n",
      "note_off channel=0 note=71 velocity=64 time=1\n",
      "note_off channel=0 note=91 velocity=64 time=1\n",
      "note_off channel=0 note=84 velocity=64 time=1\n",
      "note_on channel=0 note=72 velocity=56 time=1\n",
      "note_off channel=0 note=73 velocity=64 time=0\n",
      "note_off channel=0 note=88 velocity=64 time=0\n",
      "note_on channel=0 note=71 velocity=39 time=1\n",
      "note_on channel=0 note=91 velocity=29 time=0\n",
      "note_off channel=0 note=61 velocity=64 time=1\n",
      "note_off channel=0 note=72 velocity=64 time=0\n",
      "note_on channel=0 note=73 velocity=85 time=0\n",
      "note_off channel=0 note=87 velocity=64 time=1\n",
      "note_on channel=0 note=61 velocity=14 time=1\n",
      "note_on channel=0 note=68 velocity=25 time=1\n",
      "note_off channel=0 note=95 velocity=64 time=0\n",
      "note_on channel=0 note=86 velocity=21 time=1\n",
      "note_on channel=0 note=88 velocity=14 time=0\n",
      "note_off channel=0 note=61 velocity=64 time=2\n",
      "note_on channel=0 note=82 velocity=42 time=0\n",
      "note_off channel=0 note=83 velocity=64 time=1\n",
      "note_off channel=0 note=88 velocity=64 time=0\n",
      "note_on channel=0 note=88 velocity=52 time=1\n",
      "note_on channel=0 note=90 velocity=33 time=0\n",
      "note_on channel=0 note=63 velocity=65 time=1\n",
      "note_off channel=0 note=65 velocity=64 time=0\n",
      "note_off channel=0 note=68 velocity=64 time=0\n",
      "note_off channel=0 note=71 velocity=64 time=0\n",
      "note_on channel=0 note=76 velocity=28 time=0\n",
      "note_on channel=0 note=95 velocity=15 time=0\n",
      "note_on channel=0 note=46 velocity=65 time=1\n",
      "note_off channel=0 note=63 velocity=64 time=0\n",
      "note_on channel=0 note=64 velocity=80 time=0\n",
      "note_on channel=0 note=67 velocity=63 time=0\n",
      "note_off channel=0 note=86 velocity=64 time=0\n",
      "note_on channel=0 note=45 velocity=76 time=1\n",
      "note_off channel=0 note=46 velocity=64 time=0\n",
      "note_off channel=0 note=77 velocity=64 time=0\n",
      "note_off channel=0 note=80 velocity=64 time=0\n",
      "note_on channel=0 note=87 velocity=21 time=0\n",
      "note_on channel=0 note=89 velocity=53 time=0\n",
      "note_off channel=0 note=91 velocity=64 time=0\n",
      "note_on channel=0 note=44 velocity=79 time=1\n",
      "note_off channel=0 note=45 velocity=64 time=0\n",
      "note_on channel=0 note=61 velocity=80 time=0\n",
      "note_on channel=0 note=63 velocity=73 time=0\n",
      "note_off channel=0 note=64 velocity=64 time=0\n",
      "note_off channel=0 note=67 velocity=64 time=0\n",
      "note_on channel=0 note=80 velocity=44 time=0\n",
      "note_off channel=0 note=88 velocity=64 time=0\n",
      "note_off channel=0 note=63 velocity=64 time=1\n",
      "note_off channel=0 note=76 velocity=64 time=0\n",
      "note_on channel=0 note=77 velocity=32 time=0\n",
      "note_on channel=0 note=71 velocity=32 time=1\n",
      "note_off channel=0 note=90 velocity=64 time=0\n",
      "note_on channel=0 note=91 velocity=30 time=0\n",
      "note_off channel=0 note=95 velocity=64 time=0\n",
      "note_off channel=0 note=82 velocity=64 time=1\n",
      "note_on channel=0 note=83 velocity=53 time=0\n",
      "note_off channel=0 note=44 velocity=64 time=1\n",
      "note_on channel=0 note=65 velocity=31 time=0\n",
      "note_off channel=0 note=71 velocity=64 time=0\n",
      "note_on channel=0 note=75 velocity=21 time=0\n",
      "note_on channel=0 note=94 velocity=20 time=1\n",
      "note_off channel=0 note=91 velocity=64 time=1\n",
      "note_on channel=0 note=43 velocity=62 time=1\n",
      "note_on channel=0 note=60 velocity=65 time=0\n",
      "note_off channel=0 note=61 velocity=64 time=0\n",
      "note_off channel=0 note=65 velocity=64 time=0\n",
      "note_on channel=0 note=66 velocity=30 time=0\n",
      "note_on channel=0 note=88 velocity=43 time=0\n",
      "note_off channel=0 note=89 velocity=64 time=0\n",
      "note_on channel=0 note=72 velocity=75 time=1\n",
      "note_off channel=0 note=73 velocity=64 time=0\n",
      "note_on channel=0 note=91 velocity=56 time=0\n",
      "note_on channel=0 note=42 velocity=56 time=1\n",
      "note_off channel=0 note=43 velocity=64 time=0\n",
      "note_on channel=0 note=65 velocity=31 time=0\n",
      "note_off channel=0 note=66 velocity=64 time=0\n",
      "note_off channel=0 note=60 velocity=64 time=1\n",
      "note_on channel=0 note=61 velocity=62 time=0\n",
      "note_off channel=0 note=77 velocity=64 time=0\n",
      "note_on channel=0 note=79 velocity=50 time=0\n",
      "note_off channel=0 note=80 velocity=64 time=0\n",
      "note_off channel=0 note=87 velocity=64 time=0\n",
      "note_on channel=0 note=93 velocity=25 time=0\n",
      "note_off channel=0 note=94 velocity=64 time=0\n",
      "note_on channel=0 note=71 velocity=49 time=1\n",
      "note_off channel=0 note=72 velocity=64 time=0\n",
      "note_on channel=0 note=87 velocity=33 time=0\n",
      "note_on channel=0 note=90 velocity=61 time=0\n",
      "note_off channel=0 note=42 velocity=64 time=1\n",
      "note_off channel=0 note=61 velocity=64 time=0\n",
      "note_on channel=0 note=78 velocity=53 time=0\n",
      "note_off channel=0 note=91 velocity=64 time=0\n",
      "note_on channel=0 note=47 velocity=68 time=1\n",
      "note_off channel=0 note=79 velocity=64 time=0\n",
      "note_off channel=0 note=65 velocity=64 time=1\n",
      "note_on channel=0 note=77 velocity=23 time=0\n",
      "note_off channel=0 note=47 velocity=64 time=1\n",
      "note_on channel=0 note=48 velocity=74 time=0\n",
      "note_on channel=0 note=73 velocity=37 time=0\n",
      "note_off channel=0 note=88 velocity=64 time=0\n",
      "note_on channel=0 note=89 velocity=47 time=0\n",
      "note_off channel=0 note=93 velocity=64 time=0\n",
      "note_on channel=0 note=59 velocity=61 time=1\n",
      "note_on channel=0 note=65 velocity=22 time=0\n",
      "note_off channel=0 note=77 velocity=64 time=1\n",
      "note_off channel=0 note=48 velocity=64 time=1\n",
      "note_on channel=0 note=52 velocity=76 time=0\n",
      "note_on channel=0 note=70 velocity=55 time=0\n",
      "note_off channel=0 note=71 velocity=64 time=0\n",
      "note_on channel=0 note=80 velocity=83 time=0\n",
      "note_off channel=0 note=52 velocity=64 time=1\n",
      "note_on channel=0 note=53 velocity=68 time=0\n",
      "note_off channel=0 note=75 velocity=64 time=0\n",
      "note_off channel=0 note=59 velocity=64 time=1\n",
      "note_on channel=0 note=77 velocity=59 time=0\n",
      "note_off channel=0 note=53 velocity=64 time=1\n",
      "note_on channel=0 note=57 velocity=64 time=0\n",
      "note_off channel=0 note=70 velocity=64 time=0\n",
      "note_off channel=0 note=78 velocity=64 time=0\n",
      "note_on channel=0 note=76 velocity=59 time=1\n",
      "note_off channel=0 note=77 velocity=64 time=0\n",
      "note_on channel=0 note=91 velocity=41 time=0\n",
      "note_on channel=0 note=53 velocity=55 time=1\n",
      "note_off channel=0 note=65 velocity=64 time=1\n",
      "note_off channel=0 note=91 velocity=64 time=0\n",
      "note_off channel=0 note=57 velocity=64 time=1\n",
      "note_off channel=0 note=89 velocity=64 time=0\n",
      "note_on channel=0 note=91 velocity=30 time=0\n",
      "note_off channel=0 note=53 velocity=64 time=1\n",
      "note_on channel=0 note=64 velocity=82 time=0\n",
      "note_off channel=0 note=73 velocity=64 time=0\n",
      "note_on channel=0 note=74 velocity=23 time=0\n",
      "note_on channel=0 note=89 velocity=50 time=0\n",
      "note_on channel=0 note=85 velocity=25 time=1\n",
      "note_on channel=0 note=45 velocity=78 time=1\n",
      "note_on channel=0 note=68 velocity=63 time=0\n",
      "note_off channel=0 note=91 velocity=64 time=0\n",
      "note_on channel=0 note=63 velocity=74 time=1\n",
      "note_off channel=0 note=64 velocity=64 time=0\n",
      "note_on channel=0 note=73 velocity=45 time=0\n",
      "note_off channel=0 note=74 velocity=64 time=0\n",
      "note_on channel=0 note=82 velocity=29 time=0\n",
      "note_off channel=0 note=83 velocity=64 time=0\n",
      "note_on channel=0 note=44 velocity=79 time=1\n",
      "note_off channel=0 note=45 velocity=64 time=0\n",
      "note_off channel=0 note=68 velocity=64 time=0\n",
      "note_on channel=0 note=78 velocity=24 time=0\n",
      "note_on channel=0 note=91 velocity=23 time=0\n",
      "note_off channel=0 note=76 velocity=64 time=1\n",
      "note_on channel=0 note=84 velocity=17 time=0\n",
      "note_on channel=0 note=62 velocity=32 time=1\n",
      "note_off channel=0 note=63 velocity=64 time=1\n",
      "note_off channel=0 note=91 velocity=64 time=0\n",
      "note_on channel=0 note=49 velocity=59 time=1\n",
      "note_on channel=0 note=57 velocity=56 time=0\n",
      "note_on channel=0 note=69 velocity=59 time=0\n",
      "note_off channel=0 note=78 velocity=64 time=0\n",
      "note_on channel=0 note=91 velocity=25 time=0\n",
      "note_off channel=0 note=44 velocity=64 time=1\n",
      "note_off channel=0 note=62 velocity=64 time=0\n",
      "note_on channel=0 note=77 velocity=55 time=0\n",
      "note_off channel=0 note=85 velocity=64 time=0\n",
      "note_off channel=0 note=49 velocity=64 time=1\n",
      "note_off channel=0 note=84 velocity=64 time=0\n",
      "note_on channel=0 note=43 velocity=60 time=1\n",
      "note_off channel=0 note=57 velocity=64 time=0\n",
      "note_on channel=0 note=58 velocity=49 time=0\n",
      "note_on channel=0 note=61 velocity=59 time=0\n",
      "note_off channel=0 note=69 velocity=64 time=0\n",
      "note_on channel=0 note=70 velocity=58 time=0\n",
      "note_off channel=0 note=82 velocity=64 time=1\n",
      "note_on channel=0 note=83 velocity=52 time=0\n",
      "note_on channel=0 note=69 velocity=56 time=1\n",
      "note_off channel=0 note=70 velocity=64 time=0\n",
      "note_on channel=0 note=76 velocity=40 time=0\n",
      "note_off channel=0 note=87 velocity=64 time=0\n",
      "note_on channel=0 note=57 velocity=50 time=1\n",
      "note_off channel=0 note=58 velocity=64 time=0\n",
      "note_off channel=0 note=77 velocity=64 time=0\n",
      "note_off channel=0 note=91 velocity=64 time=0\n",
      "note_off channel=0 note=43 velocity=64 time=1\n",
      "note_on channel=0 note=44 velocity=58 time=0\n",
      "note_on channel=0 note=71 velocity=52 time=0\n",
      "note_off channel=0 note=76 velocity=64 time=0\n",
      "note_on channel=0 note=77 velocity=40 time=0\n",
      "note_on channel=0 note=56 velocity=58 time=1\n",
      "note_off channel=0 note=57 velocity=64 time=0\n",
      "note_off channel=0 note=61 velocity=64 time=0\n",
      "note_off channel=0 note=69 velocity=64 time=0\n",
      "note_on channel=0 note=84 velocity=21 time=0\n",
      "note_on channel=0 note=87 velocity=39 time=0\n",
      "note_off channel=0 note=44 velocity=64 time=1\n",
      "note_on channel=0 note=49 velocity=68 time=0\n",
      "note_on channel=0 note=88 velocity=9 time=0\n",
      "note_on channel=0 note=47 velocity=76 time=1\n",
      "note_off channel=0 note=49 velocity=64 time=0\n",
      "note_on channel=0 note=75 velocity=40 time=0\n",
      "note_off channel=0 note=89 velocity=64 time=0\n",
      "note_off channel=0 note=47 velocity=64 time=1\n",
      "note_on channel=0 note=48 velocity=73 time=0\n",
      "note_off channel=0 note=48 velocity=64 time=1\n",
      "note_on channel=0 note=49 velocity=72 time=0\n",
      "note_off channel=0 note=56 velocity=64 time=0\n",
      "note_on channel=0 note=65 velocity=23 time=0\n",
      "note_off channel=0 note=49 velocity=64 time=1\n",
      "note_on channel=0 note=50 velocity=78 time=0\n",
      "note_off channel=0 note=50 velocity=64 time=1\n",
      "note_on channel=0 note=53 velocity=72 time=0\n",
      "note_off channel=0 note=88 velocity=64 time=0\n",
      "note_off channel=0 note=53 velocity=64 time=2\n",
      "note_on channel=0 note=61 velocity=26 time=0\n",
      "note_on channel=0 note=57 velocity=58 time=3\n",
      "note_off channel=0 note=61 velocity=64 time=1\n",
      "note_off channel=0 note=57 velocity=64 time=1\n",
      "note_on channel=0 note=58 velocity=55 time=0\n",
      "note_on channel=0 note=78 velocity=39 time=0\n",
      "note_on channel=0 note=89 velocity=65 time=0\n",
      "note_on channel=0 note=93 velocity=24 time=0\n",
      "note_on channel=0 note=64 velocity=56 time=1\n",
      "note_off channel=0 note=65 velocity=64 time=0\n",
      "note_off channel=0 note=77 velocity=64 time=0\n",
      "note_off channel=0 note=84 velocity=64 time=0\n",
      "note_on channel=0 note=85 velocity=46 time=0\n",
      "note_off channel=0 note=90 velocity=64 time=0\n",
      "note_on channel=0 note=94 velocity=26 time=0\n",
      "note_on channel=0 note=102 velocity=27 time=0\n",
      "note_on channel=0 note=48 velocity=89 time=1\n",
      "note_off channel=0 note=58 velocity=64 time=0\n",
      "note_on channel=0 note=72 velocity=74 time=0\n",
      "note_off channel=0 note=73 velocity=64 time=0\n",
      "note_off channel=0 note=75 velocity=64 time=0\n",
      "note_on channel=0 note=82 velocity=48 time=0\n",
      "note_off channel=0 note=83 velocity=64 time=0\n",
      "note_on channel=0 note=88 velocity=57 time=0\n",
      "note_on channel=0 note=61 velocity=58 time=1\n",
      "note_on channel=0 note=67 velocity=46 time=0\n",
      "note_off channel=0 note=71 velocity=64 time=0\n",
      "note_on channel=0 note=83 velocity=51 time=0\n",
      "note_on channel=0 note=91 velocity=29 time=0\n",
      "note_off channel=0 note=64 velocity=64 time=1\n",
      "note_on channel=0 note=46 velocity=65 time=1\n",
      "note_off channel=0 note=48 velocity=64 time=0\n",
      "note_on channel=0 note=60 velocity=62 time=0\n",
      "note_off channel=0 note=61 velocity=64 time=0\n",
      "note_on channel=0 note=77 velocity=47 time=0\n",
      "note_off channel=0 note=78 velocity=64 time=0\n",
      "note_off channel=0 note=82 velocity=64 time=0\n",
      "note_off channel=0 note=94 velocity=64 time=0\n",
      "note_off channel=0 note=46 velocity=64 time=1\n",
      "note_on channel=0 note=65 velocity=31 time=0\n",
      "note_off channel=0 note=67 velocity=64 time=0\n",
      "note_off channel=0 note=72 velocity=64 time=0\n",
      "note_on channel=0 note=73 velocity=76 time=0\n",
      "note_on channel=0 note=75 velocity=15 time=0\n",
      "note_off channel=0 note=102 velocity=64 time=0\n",
      "note_on channel=0 note=48 velocity=68 time=1\n",
      "note_off channel=0 note=85 velocity=64 time=0\n",
      "note_off channel=0 note=87 velocity=64 time=0\n",
      "note_off channel=0 note=48 velocity=64 time=1\n",
      "note_off channel=0 note=60 velocity=64 time=0\n",
      "note_on channel=0 note=61 velocity=69 time=0\n",
      "note_on channel=0 note=72 velocity=74 time=0\n",
      "note_off channel=0 note=73 velocity=64 time=0\n",
      "note_on channel=0 note=85 velocity=49 time=0\n",
      "note_off channel=0 note=89 velocity=64 time=0\n",
      "note_off channel=0 note=91 velocity=64 time=0\n",
      "note_on channel=0 note=45 velocity=60 time=1\n",
      "note_on channel=0 note=54 velocity=35 time=0\n",
      "note_off channel=0 note=72 velocity=64 time=0\n",
      "note_on channel=0 note=73 velocity=78 time=0\n",
      "note_off channel=0 note=75 velocity=64 time=0\n",
      "note_on channel=0 note=87 velocity=23 time=0\n",
      "note_on channel=0 note=91 velocity=20 time=0\n",
      "note_off channel=0 note=65 velocity=64 time=1\n",
      "note_on channel=0 note=68 velocity=34 time=0\n",
      "note_on channel=0 note=82 velocity=35 time=0\n",
      "note_on channel=0 note=65 velocity=15 time=1\n",
      "note_off channel=0 note=83 velocity=64 time=0\n",
      "note_on channel=0 note=44 velocity=52 time=1\n",
      "note_off channel=0 note=45 velocity=64 time=0\n",
      "note_off channel=0 note=88 velocity=64 time=0\n",
      "note_on channel=0 note=89 velocity=48 time=0\n",
      "note_on channel=0 note=88 velocity=41 time=2\n",
      "note_off channel=0 note=89 velocity=64 time=0\n",
      "note_on channel=0 note=53 velocity=31 time=1\n",
      "note_off channel=0 note=54 velocity=64 time=0\n",
      "note_on channel=0 note=71 velocity=39 time=0\n",
      "note_off channel=0 note=91 velocity=64 time=0\n",
      "note_off channel=0 note=61 velocity=64 time=1\n",
      "note_on channel=0 note=91 velocity=54 time=0\n",
      "note_on channel=0 note=43 velocity=31 time=1\n",
      "note_off channel=0 note=44 velocity=64 time=0\n",
      "note_off channel=0 note=53 velocity=64 time=0\n",
      "note_on channel=0 note=61 velocity=65 time=0\n",
      "note_off channel=0 note=71 velocity=64 time=0\n",
      "note_on channel=0 note=53 velocity=34 time=1\n",
      "note_off channel=0 note=88 velocity=64 time=0\n",
      "note_off channel=0 note=65 velocity=64 time=1\n",
      "note_on channel=0 note=60 velocity=64 time=1\n",
      "note_off channel=0 note=61 velocity=64 time=0\n",
      "note_on channel=0 note=72 velocity=78 time=0\n",
      "note_off channel=0 note=73 velocity=64 time=0\n",
      "note_off channel=0 note=93 velocity=64 time=0\n",
      "note_off channel=0 note=53 velocity=64 time=1\n",
      "note_on channel=0 note=93 velocity=31 time=0\n",
      "note_on channel=0 note=53 velocity=32 time=1\n",
      "note_on channel=0 note=79 velocity=49 time=0\n",
      "note_off channel=0 note=80 velocity=64 time=0\n",
      "note_off channel=0 note=82 velocity=64 time=0\n",
      "note_on channel=0 note=83 velocity=40 time=0\n",
      "note_off channel=0 note=85 velocity=64 time=0\n",
      "note_on channel=0 note=88 velocity=44 time=0\n",
      "note_on channel=0 note=42 velocity=22 time=1\n",
      "note_off channel=0 note=43 velocity=64 time=0\n",
      "note_off channel=0 note=87 velocity=64 time=0\n",
      "note_on channel=0 note=87 velocity=9 time=1\n",
      "note_off channel=0 note=53 velocity=64 time=1\n",
      "note_on channel=0 note=85 velocity=41 time=0\n",
      "note_off channel=0 note=93 velocity=64 time=0\n",
      "note_off channel=0 note=60 velocity=64 time=1\n",
      "note_on channel=0 note=61 velocity=74 time=0\n",
      "note_off channel=0 note=72 velocity=64 time=0\n",
      "note_on channel=0 note=80 velocity=36 time=1\n",
      "note_on channel=0 note=92 velocity=39 time=0\n",
      "note_on channel=0 note=71 velocity=36 time=1\n",
      "note_on channel=0 note=89 velocity=68 time=0\n",
      "note_on channel=0 note=75 velocity=31 time=1\n",
      "note_off channel=0 note=87 velocity=64 time=0\n",
      "note_off channel=0 note=88 velocity=64 time=0\n",
      "note_off channel=0 note=79 velocity=64 time=1\n",
      "note_off channel=0 note=80 velocity=64 time=0\n",
      "note_on channel=0 note=102 velocity=30 time=0\n",
      "note_off channel=0 note=42 velocity=64 time=1\n",
      "note_off channel=0 note=68 velocity=64 time=0\n",
      "note_off channel=0 note=75 velocity=64 time=0\n",
      "note_on channel=0 note=80 velocity=87 time=0\n",
      "note_on channel=0 note=87 velocity=34 time=0\n",
      "note_off channel=0 note=91 velocity=64 time=0\n",
      "note_on channel=0 note=93 velocity=20 time=0\n",
      "note_on channel=0 note=96 velocity=10 time=0\n",
      "note_on channel=0 note=45 velocity=74 time=1\n",
      "note_on channel=0 note=69 velocity=50 time=0\n",
      "note_off channel=0 note=71 velocity=64 time=0\n",
      "note_on channel=0 note=75 velocity=44 time=0\n",
      "note_on channel=0 note=84 velocity=37 time=0\n",
      "note_on channel=0 note=90 velocity=38 time=0\n",
      "note_on channel=0 note=44 velocity=77 time=1\n",
      "note_off channel=0 note=45 velocity=64 time=0\n",
      "note_on channel=0 note=72 velocity=62 time=0\n",
      "note_on channel=0 note=78 velocity=23 time=0\n",
      "note_on channel=0 note=88 velocity=33 time=0\n",
      "note_on channel=0 note=91 velocity=42 time=0\n",
      "note_off channel=0 note=92 velocity=64 time=0\n",
      "note_off channel=0 note=102 velocity=64 time=0\n",
      "note_on channel=0 note=60 velocity=64 time=1\n",
      "note_off channel=0 note=61 velocity=64 time=0\n",
      "note_on channel=0 note=65 velocity=43 time=1\n",
      "note_off channel=0 note=69 velocity=64 time=0\n",
      "note_off channel=0 note=96 velocity=64 time=0\n",
      "note_on channel=0 note=43 velocity=74 time=1\n",
      "note_off channel=0 note=44 velocity=64 time=0\n",
      "note_on channel=0 note=59 velocity=58 time=0\n",
      "note_off channel=0 note=60 velocity=64 time=0\n",
      "note_on channel=0 note=68 velocity=34 time=0\n",
      "note_off channel=0 note=75 velocity=64 time=0\n",
      "note_off channel=0 note=78 velocity=64 time=0\n",
      "note_off channel=0 note=72 velocity=64 time=1\n",
      "note_on channel=0 note=75 velocity=19 time=0\n",
      "note_off channel=0 note=89 velocity=64 time=1\n",
      "note_off channel=0 note=84 velocity=64 time=1\n",
      "note_off channel=0 note=91 velocity=64 time=0\n",
      "note_on channel=0 note=70 velocity=55 time=1\n",
      "note_on channel=0 note=58 velocity=60 time=1\n",
      "note_off channel=0 note=59 velocity=64 time=0\n",
      "note_on channel=0 note=73 velocity=18 time=0\n",
      "note_off channel=0 note=93 velocity=64 time=0\n",
      "note_off channel=0 note=43 velocity=64 time=1\n",
      "note_on channel=0 note=44 velocity=40 time=0\n",
      "note_off channel=0 note=68 velocity=64 time=0\n",
      "note_on channel=0 note=91 velocity=37 time=0\n",
      "note_on channel=0 note=57 velocity=56 time=1\n",
      "note_off channel=0 note=58 velocity=64 time=0\n",
      "note_on channel=0 note=69 velocity=63 time=0\n",
      "note_off channel=0 note=70 velocity=64 time=0\n",
      "note_off channel=0 note=75 velocity=64 time=0\n",
      "note_on channel=0 note=76 velocity=49 time=0\n",
      "note_off channel=0 note=77 velocity=64 time=0\n",
      "note_on channel=0 note=78 velocity=13 time=0\n",
      "note_off channel=0 note=87 velocity=64 time=0\n",
      "note_off channel=0 note=85 velocity=64 time=1\n",
      "note_off channel=0 note=44 velocity=64 time=1\n",
      "note_on channel=0 note=71 velocity=48 time=0\n",
      "note_on channel=0 note=85 velocity=18 time=0\n",
      "note_on channel=0 note=93 velocity=22 time=0\n",
      "note_on channel=0 note=56 velocity=60 time=1\n",
      "note_off channel=0 note=57 velocity=64 time=0\n",
      "note_off channel=0 note=91 velocity=64 time=1\n",
      "note_off channel=0 note=69 velocity=64 time=1\n",
      "note_off channel=0 note=78 velocity=64 time=0\n",
      "note_on channel=0 note=84 velocity=17 time=0\n",
      "note_on channel=0 note=75 velocity=32 time=1\n",
      "note_off channel=0 note=76 velocity=64 time=0\n",
      "note_off channel=0 note=90 velocity=64 time=0\n",
      "note_on channel=0 note=91 velocity=17 time=0\n",
      "note_on channel=0 note=90 velocity=63 time=2\n",
      "note_off channel=0 note=73 velocity=64 time=1\n",
      "note_off channel=0 note=91 velocity=64 time=0\n",
      "note_on channel=0 note=55 velocity=53 time=1\n",
      "note_off channel=0 note=56 velocity=64 time=0\n",
      "note_off channel=0 note=65 velocity=64 time=0\n",
      "note_on channel=0 note=91 velocity=31 time=0\n",
      "note_on channel=0 note=65 velocity=38 time=1\n",
      "note_on channel=0 note=82 velocity=58 time=1\n",
      "note_off channel=0 note=83 velocity=64 time=1\n",
      "note_off channel=0 note=84 velocity=64 time=0\n",
      "note_off channel=0 note=55 velocity=64 time=1\n",
      "note_on channel=0 note=56 velocity=40 time=0\n",
      "note_off channel=0 note=93 velocity=64 time=0\n",
      "note_on channel=0 note=61 velocity=35 time=1\n",
      "note_on channel=0 note=89 velocity=46 time=1\n",
      "note_off channel=0 note=56 velocity=64 time=1\n",
      "note_off channel=0 note=61 velocity=64 time=0\n",
      "note_on channel=0 note=62 velocity=93 time=0\n",
      "note_off channel=0 note=65 velocity=64 time=0\n",
      "note_off channel=0 note=71 velocity=64 time=0\n",
      "note_on channel=0 note=72 velocity=51 time=0\n",
      "note_off channel=0 note=75 velocity=64 time=0\n",
      "note_on channel=0 note=76 velocity=46 time=0\n",
      "note_off channel=0 note=85 velocity=64 time=0\n",
      "note_on channel=0 note=87 velocity=54 time=0\n",
      "note_off channel=0 note=88 velocity=64 time=0\n",
      "note_on channel=0 note=57 velocity=58 time=1\n",
      "note_on channel=0 note=69 velocity=66 time=0\n",
      "note_on channel=0 note=78 velocity=27 time=0\n",
      "note_on channel=0 note=84 velocity=57 time=0\n",
      "note_off channel=0 note=62 velocity=64 time=1\n",
      "note_on channel=0 note=63 velocity=93 time=0\n",
      "note_on channel=0 note=68 velocity=70 time=0\n",
      "note_off channel=0 note=69 velocity=64 time=0\n",
      "note_off channel=0 note=76 velocity=64 time=0\n",
      "note_on channel=0 note=86 velocity=20 time=0\n",
      "note_on channel=0 note=93 velocity=20 time=0\n",
      "note_on channel=0 note=56 velocity=61 time=1\n",
      "note_off channel=0 note=57 velocity=64 time=0\n",
      "note_on channel=0 note=71 velocity=46 time=0\n",
      "note_off channel=0 note=82 velocity=64 time=0\n",
      "note_on channel=0 note=88 velocity=27 time=0\n",
      "note_off channel=0 note=89 velocity=64 time=0\n",
      "note_off channel=0 note=91 velocity=64 time=0\n",
      "note_off channel=0 note=72 velocity=64 time=1\n",
      "note_on channel=0 note=82 velocity=40 time=0\n",
      "note_on channel=0 note=85 velocity=38 time=1\n",
      "note_on channel=0 note=91 velocity=14 time=0\n",
      "note_on channel=0 note=100 velocity=30 time=0\n",
      "note_off channel=0 note=78 velocity=64 time=1\n",
      "note_off channel=0 note=86 velocity=64 time=0\n",
      "note_on channel=0 note=89 velocity=67 time=0\n",
      "note_off channel=0 note=90 velocity=64 time=0\n",
      "note_off channel=0 note=56 velocity=64 time=1\n",
      "note_off channel=0 note=93 velocity=64 time=0\n",
      "note_on channel=0 note=56 velocity=55 time=1\n",
      "note_off channel=0 note=91 velocity=64 time=0\n",
      "note_off channel=0 note=88 velocity=64 time=3\n",
      "note_on channel=0 note=93 velocity=16 time=0\n",
      "note_on channel=0 note=88 velocity=26 time=1\n",
      "note_off channel=0 note=89 velocity=64 time=0\n",
      "note_on channel=0 note=90 velocity=68 time=0\n",
      "note_off channel=0 note=100 velocity=64 time=4\n",
      "note_on channel=0 note=101 velocity=29 time=0\n",
      "note_on channel=0 note=83 velocity=69 time=1\n",
      "note_on channel=0 note=77 velocity=18 time=1\n",
      "note_off channel=0 note=82 velocity=64 time=0\n",
      "note_on channel=0 note=100 velocity=33 time=1\n",
      "note_off channel=0 note=101 velocity=64 time=0\n",
      "note_on channel=0 note=91 velocity=35 time=1\n",
      "note_off channel=0 note=93 velocity=64 time=0\n",
      "note_on channel=0 note=93 velocity=55 time=1\n",
      "note_off channel=0 note=88 velocity=64 time=1\n",
      "note_on channel=0 note=89 velocity=48 time=0\n",
      "note_on channel=0 note=55 velocity=72 time=1\n",
      "note_off channel=0 note=56 velocity=64 time=0\n",
      "note_off channel=0 note=68 velocity=64 time=0\n",
      "note_on channel=0 note=66 velocity=51 time=2\n",
      "note_off channel=0 note=77 velocity=64 time=0\n",
      "note_off channel=0 note=84 velocity=64 time=0\n",
      "note_off channel=0 note=91 velocity=64 time=0\n",
      "note_on channel=0 note=91 velocity=48 time=1\n",
      "note_off channel=0 note=100 velocity=64 time=0\n",
      "note_off channel=0 note=66 velocity=64 time=1\n",
      "note_on channel=0 note=74 velocity=40 time=0\n",
      "note_off channel=0 note=90 velocity=64 time=1\n",
      "note_on channel=0 note=100 velocity=34 time=0\n",
      "note_off channel=0 note=71 velocity=64 time=1\n",
      "note_on channel=0 note=72 velocity=48 time=0\n",
      "note_off channel=0 note=74 velocity=64 time=0\n",
      "note_on channel=0 note=77 velocity=38 time=0\n",
      "note_on channel=0 note=62 velocity=80 time=1\n",
      "note_off channel=0 note=63 velocity=64 time=0\n",
      "note_on channel=0 note=71 velocity=44 time=0\n",
      "note_off channel=0 note=91 velocity=64 time=0\n",
      "note_off channel=0 note=93 velocity=64 time=0\n",
      "note_on channel=0 note=94 velocity=49 time=0\n",
      "note_off channel=0 note=55 velocity=64 time=1\n",
      "note_on channel=0 note=56 velocity=62 time=0\n",
      "note_on channel=0 note=68 velocity=73 time=0\n",
      "note_on channel=0 note=91 velocity=37 time=0\n",
      "note_off channel=0 note=62 velocity=64 time=1\n",
      "note_on channel=0 note=63 velocity=86 time=0\n",
      "note_off channel=0 note=71 velocity=64 time=0\n",
      "note_off channel=0 note=72 velocity=64 time=0\n",
      "note_off channel=0 note=87 velocity=64 time=0\n",
      "note_on channel=0 note=90 velocity=35 time=1\n",
      "note_off channel=0 note=91 velocity=64 time=2\n",
      "note_on channel=0 note=84 velocity=18 time=1\n",
      "note_on channel=0 note=82 velocity=25 time=3\n",
      "note_off channel=0 note=83 velocity=64 time=0\n",
      "note_on channel=0 note=96 velocity=20 time=0\n",
      "note_off channel=0 note=84 velocity=64 time=1\n",
      "note_off channel=0 note=90 velocity=64 time=0\n",
      "note_on channel=0 note=91 velocity=38 time=0\n",
      "note_off channel=0 note=100 velocity=64 time=0\n",
      "note_off channel=0 note=82 velocity=64 time=2\n",
      "note_on channel=0 note=83 velocity=51 time=0\n",
      "note_on channel=0 note=71 velocity=9 time=2\n",
      "note_on channel=0 note=73 velocity=37 time=0\n",
      "note_on channel=0 note=90 velocity=22 time=1\n",
      "note_off channel=0 note=91 velocity=64 time=2\n",
      "note_off channel=0 note=71 velocity=64 time=1\n",
      "note_on channel=0 note=55 velocity=33 time=1\n",
      "note_off channel=0 note=56 velocity=64 time=0\n",
      "note_on channel=0 note=71 velocity=12 time=0\n",
      "note_off channel=0 note=94 velocity=64 time=1\n",
      "note_off channel=0 note=96 velocity=64 time=0\n",
      "note_off channel=0 note=55 velocity=64 time=1\n",
      "note_on channel=0 note=56 velocity=35 time=0\n",
      "note_off channel=0 note=68 velocity=64 time=0\n",
      "note_off channel=0 note=89 velocity=64 time=0\n",
      "note_off channel=0 note=90 velocity=64 time=1\n",
      "note_on channel=0 note=89 velocity=79 time=1\n",
      "note_on channel=0 note=91 velocity=36 time=1\n",
      "note_off channel=0 note=71 velocity=64 time=2\n",
      "note_on channel=0 note=90 velocity=69 time=0\n",
      "note_off channel=0 note=56 velocity=64 time=1\n",
      "note_on channel=0 note=57 velocity=55 time=1\n",
      "note_on channel=0 note=69 velocity=66 time=0\n",
      "note_on channel=0 note=72 velocity=42 time=0\n",
      "note_off channel=0 note=73 velocity=64 time=0\n",
      "note_on channel=0 note=76 velocity=65 time=0\n",
      "note_off channel=0 note=77 velocity=64 time=0\n",
      "note_on channel=0 note=56 velocity=56 time=2\n",
      "note_off channel=0 note=57 velocity=64 time=0\n",
      "note_off channel=0 note=72 velocity=64 time=0\n",
      "note_on channel=0 note=73 velocity=37 time=0\n",
      "note_on channel=0 note=84 velocity=56 time=0\n",
      "note_off channel=0 note=85 velocity=64 time=0\n",
      "note_on channel=0 note=68 velocity=62 time=1\n",
      "note_off channel=0 note=69 velocity=64 time=0\n",
      "note_on channel=0 note=85 velocity=40 time=0\n",
      "note_off channel=0 note=76 velocity=64 time=1\n",
      "note_on channel=0 note=77 velocity=23 time=2\n",
      "note_on channel=0 note=94 velocity=23 time=2\n",
      "note_off channel=0 note=63 velocity=64 time=1\n",
      "note_on channel=0 note=71 velocity=18 time=0\n",
      "note_off channel=0 note=77 velocity=64 time=3\n",
      "note_off channel=0 note=85 velocity=64 time=1\n",
      "note_off channel=0 note=71 velocity=64 time=3\n",
      "note_on channel=0 note=93 velocity=34 time=1\n",
      "note_off channel=0 note=94 velocity=64 time=0\n",
      "note_off channel=0 note=56 velocity=64 time=1\n",
      "note_on channel=0 note=57 velocity=54 time=0\n",
      "note_on channel=0 note=65 velocity=39 time=0\n",
      "note_on channel=0 note=69 velocity=70 time=0\n",
      "note_off channel=0 note=68 velocity=64 time=1\n",
      "note_on channel=0 note=76 velocity=77 time=0\n",
      "note_off channel=0 note=57 velocity=64 time=1\n",
      "note_off channel=0 note=69 velocity=64 time=0\n",
      "note_on channel=0 note=70 velocity=67 time=0\n",
      "note_off channel=0 note=83 velocity=64 time=0\n",
      "note_on channel=0 note=59 velocity=51 time=1\n",
      "note_on channel=0 note=77 velocity=70 time=0\n",
      "note_off channel=0 note=93 velocity=64 time=0\n",
      "note_on channel=0 note=100 velocity=19 time=0\n",
      "note_off channel=0 note=70 velocity=64 time=1\n",
      "note_on channel=0 note=71 velocity=62 time=0\n",
      "note_on channel=0 note=75 velocity=37 time=0\n",
      "note_off channel=0 note=76 velocity=64 time=0\n",
      "note_off channel=0 note=84 velocity=64 time=0\n",
      "note_on channel=0 note=93 velocity=55 time=0\n",
      "note_off channel=0 note=100 velocity=64 time=2\n",
      "note_off channel=0 note=73 velocity=64 time=1\n",
      "note_off channel=0 note=75 velocity=64 time=0\n",
      "note_off channel=0 note=77 velocity=64 time=0\n",
      "note_on channel=0 note=78 velocity=52 time=0\n",
      "note_off channel=0 note=71 velocity=64 time=1\n",
      "note_on channel=0 note=72 velocity=48 time=0\n",
      "note_on channel=0 note=73 velocity=26 time=0\n",
      "note_off channel=0 note=89 velocity=64 time=0\n",
      "note_on channel=0 note=58 velocity=70 time=2\n",
      "note_off channel=0 note=59 velocity=64 time=0\n",
      "note_on channel=0 note=70 velocity=77 time=0\n",
      "note_off channel=0 note=72 velocity=64 time=0\n",
      "note_on channel=0 note=77 velocity=77 time=0\n",
      "note_off channel=0 note=78 velocity=64 time=0\n",
      "note_off channel=0 note=90 velocity=64 time=0\n",
      "note_on channel=0 note=61 velocity=78 time=1\n",
      "note_on channel=0 note=67 velocity=51 time=0\n",
      "note_off channel=0 note=73 velocity=64 time=0\n",
      "note_off channel=0 note=91 velocity=64 time=0\n",
      "note_on channel=0 note=94 velocity=30 time=0\n",
      "note_off channel=0 note=65 velocity=64 time=1\n",
      "note_off channel=0 note=80 velocity=64 time=0\n",
      "note_on channel=0 note=91 velocity=56 time=0\n",
      "note_on channel=0 note=57 velocity=73 time=1\n",
      "note_off channel=0 note=58 velocity=64 time=0\n",
      "note_off channel=0 note=67 velocity=64 time=0\n",
      "note_on channel=0 note=75 velocity=34 time=0\n",
      "note_on channel=0 note=80 velocity=50 time=0\n",
      "note_on channel=0 note=90 velocity=34 time=0\n",
      "note_on channel=0 note=63 velocity=66 time=1\n",
      "note_on channel=0 note=87 velocity=45 time=0\n",
      "note_off channel=0 note=93 velocity=64 time=0\n",
      "note_off channel=0 note=61 velocity=64 time=1\n",
      "note_off channel=0 note=63 velocity=64 time=0\n",
      "note_off channel=0 note=75 velocity=64 time=0\n",
      "note_off channel=0 note=90 velocity=64 time=0\n",
      "note_off channel=0 note=57 velocity=64 time=1\n",
      "note_on channel=0 note=58 velocity=49 time=0\n",
      "note_on channel=0 note=62 velocity=57 time=0\n",
      "note_on channel=0 note=73 velocity=14 time=0\n",
      "note_on channel=0 note=65 velocity=36 time=1\n",
      "note_off channel=0 note=80 velocity=64 time=0\n",
      "note_on channel=0 note=57 velocity=48 time=1\n",
      "note_off channel=0 note=58 velocity=64 time=0\n",
      "note_off channel=0 note=62 velocity=64 time=0\n",
      "note_on channel=0 note=69 velocity=77 time=0\n",
      "note_off channel=0 note=70 velocity=64 time=0\n",
      "note_on channel=0 note=76 velocity=56 time=0\n",
      "note_off channel=0 note=77 velocity=64 time=0\n",
      "note_on channel=0 note=83 velocity=62 time=0\n",
      "note_off channel=0 note=94 velocity=64 time=0\n",
      "note_on channel=0 note=80 velocity=26 time=1\n",
      "note_off channel=0 note=57 velocity=64 time=1\n",
      "note_on channel=0 note=70 velocity=52 time=0\n",
      "note_on channel=0 note=57 velocity=45 time=1\n",
      "note_off channel=0 note=73 velocity=64 time=0\n",
      "note_on channel=0 note=77 velocity=51 time=0\n",
      "note_off channel=0 note=70 velocity=64 time=1\n",
      "note_off channel=0 note=76 velocity=64 time=0\n",
      "note_off channel=0 note=57 velocity=64 time=1\n",
      "note_on channel=0 note=76 velocity=81 time=0\n",
      "note_off channel=0 note=77 velocity=64 time=0\n",
      "note_on channel=0 note=93 velocity=40 time=0\n",
      "note_on channel=0 note=100 velocity=11 time=0\n",
      "note_on channel=0 note=57 velocity=49 time=1\n",
      "note_on channel=0 note=102 velocity=25 time=1\n",
      "note_off channel=0 note=80 velocity=64 time=1\n",
      "note_on channel=0 note=85 velocity=34 time=0\n",
      "note_on channel=0 note=53 velocity=44 time=1\n",
      "note_off channel=0 note=57 velocity=64 time=0\n",
      "note_on channel=0 note=61 velocity=47 time=0\n",
      "note_off channel=0 note=65 velocity=64 time=0\n",
      "note_off channel=0 note=100 velocity=64 time=0\n",
      "note_on channel=0 note=64 velocity=42 time=1\n",
      "note_off channel=0 note=83 velocity=64 time=0\n",
      "note_on channel=0 note=84 velocity=36 time=0\n",
      "note_on channel=0 note=89 velocity=14 time=0\n",
      "note_on channel=0 note=57 velocity=50 time=1\n",
      "note_on channel=0 note=83 velocity=45 time=0\n",
      "note_off channel=0 note=53 velocity=64 time=1\n",
      "note_off channel=0 note=64 velocity=64 time=0\n",
      "note_on channel=0 note=65 velocity=24 time=0\n",
      "note_on channel=0 note=80 velocity=48 time=0\n",
      "note_off channel=0 note=84 velocity=64 time=0\n",
      "note_off channel=0 note=89 velocity=64 time=1\n",
      "note_on channel=0 note=101 velocity=25 time=1\n",
      "note_off channel=0 note=102 velocity=64 time=0\n",
      "note_on channel=0 note=90 velocity=35 time=2\n",
      "note_off channel=0 note=57 velocity=64 time=1\n",
      "note_on channel=0 note=92 velocity=49 time=0\n",
      "note_off channel=0 note=93 velocity=64 time=0\n",
      "note_on channel=0 note=57 velocity=53 time=1\n",
      "note_on channel=0 note=68 velocity=60 time=0\n",
      "note_off channel=0 note=69 velocity=64 time=0\n",
      "note_on channel=0 note=75 velocity=29 time=1\n",
      "note_off channel=0 note=76 velocity=64 time=0\n",
      "note_off channel=0 note=75 velocity=64 time=2\n",
      "note_on channel=0 note=76 velocity=30 time=0\n",
      "note_off channel=0 note=90 velocity=64 time=0\n",
      "note_off channel=0 note=57 velocity=64 time=1\n",
      "note_on channel=0 note=69 velocity=31 time=0\n",
      "note_on channel=0 note=77 velocity=45 time=0\n",
      "note_on channel=0 note=90 velocity=39 time=0\n",
      "note_off channel=0 note=101 velocity=64 time=0\n",
      "note_off channel=0 note=61 velocity=64 time=1\n",
      "note_on channel=0 note=64 velocity=81 time=0\n",
      "note_off channel=0 note=65 velocity=64 time=0\n",
      "note_off channel=0 note=68 velocity=64 time=0\n",
      "note_on channel=0 note=73 velocity=37 time=0\n",
      "note_off channel=0 note=76 velocity=64 time=0\n",
      "note_off channel=0 note=91 velocity=64 time=0\n",
      "note_on channel=0 note=46 velocity=66 time=1\n",
      "note_off channel=0 note=69 velocity=64 time=0\n",
      "note_on channel=0 note=45 velocity=77 time=1\n",
      "note_off channel=0 note=46 velocity=64 time=0\n",
      "note_on channel=0 note=68 velocity=58 time=0\n",
      "note_on channel=0 note=44 velocity=79 time=1\n",
      "note_off channel=0 note=45 velocity=64 time=0\n",
      "note_on channel=0 note=63 velocity=72 time=0\n",
      "note_off channel=0 note=64 velocity=64 time=0\n",
      "note_off channel=0 note=85 velocity=64 time=0\n",
      "note_off channel=0 note=92 velocity=64 time=0\n",
      "note_on channel=0 note=55 velocity=44 time=1\n",
      "note_on channel=0 note=69 velocity=74 time=0\n",
      "note_off channel=0 note=90 velocity=64 time=0\n",
      "note_on channel=0 note=91 velocity=34 time=0\n",
      "note_off channel=0 note=68 velocity=64 time=1\n",
      "note_off channel=0 note=44 velocity=64 time=1\n",
      "note_on channel=0 note=45 velocity=77 time=0\n",
      "note_off channel=0 note=55 velocity=64 time=0\n",
      "note_off channel=0 note=63 velocity=64 time=0\n",
      "note_on channel=0 note=76 velocity=26 time=1\n",
      "note_off channel=0 note=77 velocity=64 time=0\n",
      "note_on channel=0 note=44 velocity=71 time=1\n",
      "note_off channel=0 note=45 velocity=64 time=0\n",
      "note_on channel=0 note=61 velocity=60 time=0\n",
      "note_on channel=0 note=43 velocity=64 time=2\n",
      "note_off channel=0 note=44 velocity=64 time=0\n",
      "note_on channel=0 note=68 velocity=65 time=0\n",
      "note_off channel=0 note=69 velocity=64 time=0\n",
      "note_on channel=0 note=77 velocity=44 time=0\n",
      "note_on channel=0 note=75 velocity=36 time=1\n",
      "note_off channel=0 note=76 velocity=64 time=0\n",
      "note_on channel=0 note=42 velocity=58 time=1\n",
      "note_off channel=0 note=43 velocity=64 time=0\n",
      "note_on channel=0 note=55 velocity=65 time=1\n",
      "note_off channel=0 note=73 velocity=64 time=0\n",
      "note_on channel=0 note=74 velocity=49 time=0\n",
      "note_off channel=0 note=75 velocity=64 time=0\n",
      "note_off channel=0 note=42 velocity=64 time=1\n",
      "note_off channel=0 note=68 velocity=64 time=0\n",
      "note_on channel=0 note=71 velocity=21 time=0\n",
      "note_on channel=0 note=100 velocity=13 time=1\n",
      "note_on channel=0 note=48 velocity=72 time=2\n",
      "note_off channel=0 note=55 velocity=64 time=0\n",
      "note_on channel=0 note=66 velocity=51 time=0\n",
      "note_on channel=0 note=82 velocity=27 time=0\n",
      "note_off channel=0 note=83 velocity=64 time=0\n",
      "note_on channel=0 note=90 velocity=14 time=0\n",
      "note_on channel=0 note=47 velocity=75 time=1\n",
      "note_off channel=0 note=48 velocity=64 time=0\n",
      "note_on channel=0 note=73 velocity=67 time=0\n",
      "note_off channel=0 note=74 velocity=64 time=0\n",
      "note_off channel=0 note=100 velocity=64 time=0\n",
      "note_off channel=0 note=47 velocity=64 time=1\n",
      "note_on channel=0 note=48 velocity=76 time=0\n",
      "note_on channel=0 note=75 velocity=33 time=0\n",
      "note_on channel=0 note=65 velocity=39 time=1\n",
      "note_off channel=0 note=66 velocity=64 time=0\n",
      "note_off channel=0 note=71 velocity=64 time=0\n",
      "note_on channel=0 note=83 velocity=38 time=0\n",
      "note_off channel=0 note=48 velocity=64 time=1\n",
      "note_on channel=0 note=52 velocity=76 time=0\n",
      "note_off channel=0 note=82 velocity=64 time=0\n",
      "note_off channel=0 note=52 velocity=64 time=1\n",
      "note_on channel=0 note=54 velocity=70 time=0\n",
      "note_off channel=0 note=65 velocity=64 time=1\n",
      "note_off channel=0 note=90 velocity=64 time=0\n",
      "note_on channel=0 note=100 velocity=15 time=0\n",
      "note_on channel=0 note=90 velocity=15 time=1\n",
      "note_on channel=0 note=53 velocity=70 time=1\n",
      "note_off channel=0 note=54 velocity=64 time=0\n",
      "note_on channel=0 note=72 velocity=50 time=0\n",
      "note_off channel=0 note=73 velocity=64 time=0\n",
      "note_off channel=0 note=53 velocity=64 time=2\n",
      "note_on channel=0 note=54 velocity=55 time=0\n",
      "note_on channel=0 note=65 velocity=51 time=0\n",
      "note_on channel=0 note=71 velocity=53 time=0\n",
      "note_off channel=0 note=72 velocity=64 time=0\n",
      "note_on channel=0 note=84 velocity=14 time=0\n",
      "note_on channel=0 note=88 velocity=29 time=0\n",
      "note_off channel=0 note=100 velocity=64 time=0\n",
      "note_off channel=0 note=61 velocity=64 time=2\n",
      "note_off channel=0 note=90 velocity=64 time=0\n",
      "note_on channel=0 note=53 velocity=58 time=1\n",
      "note_off channel=0 note=54 velocity=64 time=0\n",
      "note_on channel=0 note=63 velocity=76 time=0\n",
      "note_off channel=0 note=65 velocity=64 time=0\n",
      "note_on channel=0 note=82 velocity=35 time=0\n",
      "note_off channel=0 note=84 velocity=64 time=0\n",
      "note_off channel=0 note=88 velocity=64 time=0\n",
      "note_on channel=0 note=45 velocity=77 time=1\n",
      "note_off channel=0 note=63 velocity=64 time=0\n",
      "note_on channel=0 note=64 velocity=83 time=0\n",
      "note_on channel=0 note=67 velocity=58 time=0\n",
      "note_on channel=0 note=73 velocity=41 time=0\n",
      "note_off channel=0 note=83 velocity=64 time=0\n",
      "note_on channel=0 note=86 velocity=21 time=0\n",
      "note_on channel=0 note=90 velocity=29 time=0\n",
      "note_on channel=0 note=63 velocity=75 time=1\n",
      "note_off channel=0 note=64 velocity=64 time=0\n",
      "note_on channel=0 note=44 velocity=79 time=1\n",
      "note_off channel=0 note=45 velocity=64 time=0\n",
      "note_off channel=0 note=53 velocity=64 time=0\n",
      "note_on channel=0 note=55 velocity=41 time=0\n",
      "note_off channel=0 note=67 velocity=64 time=0\n",
      "note_off channel=0 note=82 velocity=64 time=0\n",
      "note_on channel=0 note=68 velocity=35 time=1\n",
      "note_on channel=0 note=84 velocity=23 time=0\n",
      "note_off channel=0 note=86 velocity=64 time=0\n",
      "note_off channel=0 note=55 velocity=64 time=1\n",
      "note_off channel=0 note=63 velocity=64 time=0\n",
      "note_on channel=0 note=65 velocity=31 time=0\n",
      "note_on channel=0 note=61 velocity=74 time=1\n",
      "note_on channel=0 note=49 velocity=59 time=1\n",
      "note_off channel=0 note=44 velocity=64 time=1\n",
      "note_off channel=0 note=65 velocity=64 time=0\n",
      "note_off channel=0 note=90 velocity=64 time=0\n",
      "note_off channel=0 note=49 velocity=64 time=1\n",
      "note_on channel=0 note=65 velocity=37 time=0\n",
      "note_off channel=0 note=75 velocity=64 time=1\n",
      "note_on channel=0 note=86 velocity=22 time=0\n",
      "note_on channel=0 note=42 velocity=57 time=3\n",
      "note_off channel=0 note=86 velocity=64 time=1\n",
      "note_on channel=0 note=88 velocity=26 time=1\n",
      "note_off channel=0 note=80 velocity=64 time=2\n",
      "note_off channel=0 note=88 velocity=64 time=2\n",
      "note_on channel=0 note=82 velocity=29 time=2\n",
      "note_on channel=0 note=90 velocity=49 time=0\n",
      "note_on channel=0 note=78 velocity=52 time=1\n",
      "note_on channel=0 note=80 velocity=84 time=0\n",
      "note_on channel=0 note=83 velocity=58 time=0\n",
      "note_off channel=0 note=84 velocity=64 time=0\n",
      "note_off channel=0 note=61 velocity=64 time=1\n",
      "note_on channel=0 note=62 velocity=71 time=0\n",
      "note_on channel=0 note=86 velocity=41 time=0\n",
      "note_on channel=0 note=61 velocity=73 time=1\n",
      "note_off channel=0 note=62 velocity=64 time=0\n",
      "note_off channel=0 note=77 velocity=64 time=0\n",
      "note_off channel=0 note=82 velocity=64 time=0\n",
      "note_off channel=0 note=42 velocity=64 time=1\n",
      "note_on channel=0 note=58 velocity=65 time=0\n",
      "note_off channel=0 note=68 velocity=64 time=0\n",
      "note_on channel=0 note=70 velocity=68 time=0\n",
      "note_off channel=0 note=71 velocity=64 time=0\n",
      "note_on channel=0 note=77 velocity=79 time=0\n",
      "note_off channel=0 note=78 velocity=64 time=0\n",
      "note_on channel=0 note=84 velocity=33 time=0\n",
      "note_off channel=0 note=90 velocity=64 time=0\n",
      "note_off channel=0 note=91 velocity=64 time=0\n",
      "note_on channel=0 note=88 velocity=62 time=1\n",
      "note_on channel=0 note=91 velocity=65 time=0\n",
      "note_on channel=0 note=57 velocity=62 time=1\n",
      "note_off channel=0 note=58 velocity=64 time=0\n",
      "note_on channel=0 note=81 velocity=34 time=0\n",
      "note_on channel=0 note=85 velocity=47 time=0\n",
      "note_off channel=0 note=65 velocity=64 time=1\n",
      "note_on channel=0 note=69 velocity=63 time=0\n",
      "note_off channel=0 note=70 velocity=64 time=0\n",
      "note_on channel=0 note=76 velocity=81 time=0\n",
      "note_off channel=0 note=77 velocity=64 time=0\n",
      "note_on channel=0 note=47 velocity=81 time=1\n",
      "note_off channel=0 note=81 velocity=64 time=0\n",
      "note_on channel=0 note=89 velocity=69 time=0\n",
      "note_on channel=0 note=94 velocity=26 time=0\n",
      "note_off channel=0 note=57 velocity=64 time=1\n",
      "note_off channel=0 note=61 velocity=64 time=0\n",
      "note_on channel=0 note=64 velocity=68 time=0\n",
      "note_on channel=0 note=78 velocity=45 time=0\n",
      "note_on channel=0 note=102 velocity=28 time=0\n",
      "note_off channel=0 note=47 velocity=64 time=1\n",
      "note_on channel=0 note=48 velocity=85 time=0\n",
      "note_off channel=0 note=69 velocity=64 time=0\n",
      "note_on channel=0 note=70 velocity=61 time=0\n",
      "note_off channel=0 note=84 velocity=64 time=0\n",
      "note_off channel=0 note=88 velocity=64 time=0\n",
      "note_on channel=0 note=63 velocity=58 time=1\n",
      "note_off channel=0 note=64 velocity=64 time=0\n",
      "note_off channel=0 note=73 velocity=64 time=0\n",
      "note_off channel=0 note=76 velocity=64 time=0\n",
      "note_on channel=0 note=77 velocity=61 time=0\n",
      "note_off channel=0 note=78 velocity=64 time=0\n",
      "note_on channel=0 note=88 velocity=51 time=0\n",
      "note_on channel=0 note=90 velocity=39 time=0\n",
      "note_off channel=0 note=94 velocity=64 time=0\n",
      "note_off channel=0 note=48 velocity=64 time=1\n",
      "note_on channel=0 note=59 velocity=54 time=0\n",
      "note_off channel=0 note=86 velocity=64 time=0\n",
      "note_off channel=0 note=102 velocity=64 time=0\n",
      "note_off channel=0 note=63 velocity=64 time=1\n",
      "note_on channel=0 note=84 velocity=51 time=0\n",
      "note_off channel=0 note=90 velocity=64 time=0\n",
      "note_off channel=0 note=59 velocity=64 time=1\n",
      "note_on channel=0 note=60 velocity=60 time=0\n",
      "note_on channel=0 note=68 velocity=42 time=0\n",
      "note_off channel=0 note=70 velocity=64 time=0\n",
      "note_on channel=0 note=71 velocity=53 time=0\n",
      "note_on channel=0 note=90 velocity=32 time=0\n",
      "note_on channel=0 note=49 velocity=52 time=1\n",
      "note_on channel=0 note=75 velocity=43 time=0\n",
      "note_off channel=0 note=85 velocity=64 time=0\n",
      "note_off channel=0 note=60 velocity=64 time=1\n",
      "note_on channel=0 note=61 velocity=74 time=0\n",
      "note_on channel=0 note=65 velocity=40 time=0\n",
      "note_on channel=0 note=82 velocity=35 time=0\n",
      "note_off channel=0 note=84 velocity=64 time=0\n",
      "note_off channel=0 note=49 velocity=64 time=1\n",
      "note_off channel=0 note=83 velocity=64 time=0\n",
      "note_off channel=0 note=89 velocity=64 time=0\n",
      "note_off channel=0 note=71 velocity=64 time=1\n",
      "note_on channel=0 note=54 velocity=34 time=1\n",
      "note_on channel=0 note=60 velocity=69 time=0\n",
      "note_off channel=0 note=61 velocity=64 time=0\n",
      "note_on channel=0 note=72 velocity=70 time=0\n",
      "note_on channel=0 note=83 velocity=44 time=0\n",
      "note_on channel=0 note=44 velocity=36 time=1\n",
      "note_off channel=0 note=82 velocity=64 time=0\n",
      "note_on channel=0 note=93 velocity=68 time=0\n",
      "note_on channel=0 note=101 velocity=17 time=0\n",
      "note_on channel=0 note=53 velocity=31 time=1\n",
      "note_off channel=0 note=54 velocity=64 time=0\n",
      "note_on channel=0 note=59 velocity=55 time=0\n",
      "note_off channel=0 note=60 velocity=64 time=0\n",
      "note_on channel=0 note=71 velocity=66 time=0\n",
      "note_off channel=0 note=90 velocity=64 time=0\n",
      "note_off channel=0 note=44 velocity=64 time=1\n",
      "note_off channel=0 note=72 velocity=64 time=0\n",
      "note_on channel=0 note=78 velocity=57 time=0\n",
      "note_on channel=0 note=90 velocity=62 time=0\n",
      "note_on channel=0 note=44 velocity=32 time=1\n",
      "note_off channel=0 note=53 velocity=64 time=0\n",
      "note_on channel=0 note=54 velocity=32 time=0\n",
      "note_off channel=0 note=59 velocity=64 time=0\n",
      "note_off channel=0 note=71 velocity=64 time=0\n",
      "note_on channel=0 note=72 velocity=57 time=0\n",
      "note_off channel=0 note=77 velocity=64 time=0\n",
      "note_off channel=0 note=91 velocity=64 time=0\n",
      "note_on channel=0 note=59 velocity=53 time=1\n",
      "note_on channel=0 note=43 velocity=18 time=1\n",
      "note_off channel=0 note=44 velocity=64 time=0\n",
      "note_off channel=0 note=54 velocity=64 time=0\n",
      "note_on channel=0 note=71 velocity=62 time=0\n",
      "note_off channel=0 note=72 velocity=64 time=0\n",
      "note_on channel=0 note=73 velocity=30 time=0\n",
      "note_on channel=0 note=54 velocity=30 time=1\n",
      "note_on channel=0 note=82 velocity=29 time=0\n",
      "note_off channel=0 note=43 velocity=64 time=2\n",
      "note_off channel=0 note=54 velocity=64 time=0\n",
      "note_off channel=0 note=82 velocity=64 time=0\n",
      "note_on channel=0 note=91 velocity=24 time=0\n",
      "note_on channel=0 note=54 velocity=32 time=1\n",
      "note_on channel=0 note=82 velocity=32 time=0\n",
      "note_on channel=0 note=86 velocity=14 time=0\n",
      "note_off channel=0 note=101 velocity=64 time=0\n",
      "note_on channel=0 note=42 velocity=13 time=1\n",
      "note_off channel=0 note=71 velocity=64 time=0\n",
      "note_on channel=0 note=53 velocity=29 time=1\n",
      "note_off channel=0 note=54 velocity=64 time=0\n",
      "note_on channel=0 note=71 velocity=54 time=0\n",
      "note_off channel=0 note=82 velocity=64 time=1\n",
      "note_off channel=0 note=86 velocity=64 time=0\n",
      "note_off channel=0 note=53 velocity=64 time=1\n",
      "note_off channel=0 note=59 velocity=64 time=0\n",
      "note_off channel=0 note=93 velocity=64 time=2\n",
      "note_off channel=0 note=42 velocity=64 time=1\n",
      "note_off channel=0 note=78 velocity=64 time=0\n",
      "note_on channel=0 note=84 velocity=51 time=1\n",
      "note_off channel=0 note=88 velocity=64 time=0\n",
      "note_on channel=0 note=89 velocity=67 time=0\n",
      "note_off channel=0 note=90 velocity=64 time=0\n",
      "note_on channel=0 note=102 velocity=29 time=0\n",
      "note_on channel=0 note=47 velocity=67 time=1\n",
      "note_on channel=0 note=57 velocity=42 time=0\n",
      "note_off channel=0 note=65 velocity=64 time=0\n",
      "note_on channel=0 note=67 velocity=44 time=0\n",
      "note_off channel=0 note=73 velocity=64 time=0\n",
      "note_on channel=0 note=77 velocity=39 time=0\n",
      "note_on channel=0 note=45 velocity=76 time=1\n",
      "note_off channel=0 note=47 velocity=64 time=0\n",
      "note_on channel=0 note=62 velocity=65 time=0\n",
      "note_off channel=0 note=68 velocity=64 time=0\n",
      "note_on channel=0 note=85 velocity=39 time=0\n",
      "note_on channel=0 note=90 velocity=38 time=0\n",
      "note_on channel=0 note=44 velocity=77 time=1\n",
      "note_off channel=0 note=45 velocity=64 time=0\n",
      "note_off channel=0 note=57 velocity=64 time=0\n",
      "note_on channel=0 note=73 velocity=65 time=0\n",
      "note_on channel=0 note=78 velocity=21 time=0\n",
      "note_on channel=0 note=93 velocity=12 time=0\n",
      "note_off channel=0 note=75 velocity=64 time=1\n",
      "note_off channel=0 note=77 velocity=64 time=0\n",
      "note_off channel=0 note=90 velocity=64 time=0\n",
      "note_off channel=0 note=102 velocity=64 time=0\n",
      "note_on channel=0 note=61 velocity=82 time=1\n",
      "note_off channel=0 note=62 velocity=64 time=0\n",
      "note_off channel=0 note=67 velocity=64 time=0\n",
      "note_on channel=0 note=90 velocity=40 time=0\n",
      "note_on channel=0 note=43 velocity=74 time=1\n",
      "note_off channel=0 note=44 velocity=64 time=0\n",
      "note_off channel=0 note=91 velocity=64 time=0\n",
      "note_on channel=0 note=68 velocity=37 time=1\n",
      "note_on channel=0 note=75 velocity=14 time=0\n",
      "note_on channel=0 note=65 velocity=39 time=1\n",
      "note_off channel=0 note=75 velocity=64 time=2\n",
      "note_off channel=0 note=78 velocity=64 time=0\n",
      "note_on channel=0 note=78 velocity=17 time=1\n",
      "note_on channel=0 note=82 velocity=45 time=1\n",
      "note_off channel=0 note=93 velocity=64 time=0\n",
      "note_off channel=0 note=43 velocity=64 time=1\n",
      "note_on channel=0 note=44 velocity=25 time=0\n",
      "note_off channel=0 note=83 velocity=64 time=0\n",
      "note_off channel=0 note=85 velocity=64 time=0\n",
      "note_on channel=0 note=88 velocity=13 time=2\n",
      "note_off channel=0 note=44 velocity=64 time=2\n",
      "note_off channel=0 note=78 velocity=64 time=0\n",
      "note_on channel=0 note=95 velocity=62 time=0\n",
      "note_on channel=0 note=78 velocity=17 time=1\n",
      "note_off channel=0 note=87 velocity=64 time=0\n",
      "note_off channel=0 note=88 velocity=64 time=0\n",
      "note_on channel=0 note=87 velocity=48 time=4\n",
      "note_on channel=0 note=91 velocity=25 time=2\n",
      "note_off channel=0 note=73 velocity=64 time=2\n",
      "note_on channel=0 note=86 velocity=18 time=0\n",
      "note_on channel=0 note=73 velocity=92 time=1\n",
      "note_on channel=0 note=60 velocity=71 time=2\n",
      "note_off channel=0 note=61 velocity=64 time=0\n",
      "note_off channel=0 note=65 velocity=64 time=0\n",
      "note_off channel=0 note=68 velocity=64 time=0\n",
      "note_off channel=0 note=71 velocity=64 time=0\n",
      "note_on channel=0 note=77 velocity=37 time=0\n",
      "note_off channel=0 note=60 velocity=64 time=1\n",
      "note_on channel=0 note=61 velocity=86 time=0\n",
      "note_off channel=0 note=78 velocity=64 time=0\n",
      "note_off channel=0 note=86 velocity=64 time=0\n",
      "note_on channel=0 note=45 velocity=77 time=1\n",
      "note_on channel=0 note=64 velocity=81 time=0\n",
      "note_on channel=0 note=63 velocity=77 time=1\n",
      "note_off channel=0 note=64 velocity=64 time=0\n",
      "note_on channel=0 note=44 velocity=78 time=1\n",
      "note_off channel=0 note=45 velocity=64 time=0\n",
      "note_off channel=0 note=63 velocity=64 time=0\n",
      "note_on channel=0 note=69 velocity=35 time=0\n",
      "note_on channel=0 note=71 velocity=32 time=0\n",
      "note_on channel=0 note=64 velocity=47 time=1\n",
      "note_off channel=0 note=77 velocity=64 time=0\n",
      "note_on channel=0 note=68 velocity=34 time=1\n",
      "note_off channel=0 note=69 velocity=64 time=0\n",
      "note_on channel=0 note=83 velocity=40 time=0\n",
      "note_off channel=0 note=91 velocity=64 time=0\n",
      "note_off channel=0 note=64 velocity=64 time=1\n",
      "note_on channel=0 note=65 velocity=54 time=0\n",
      "note_off channel=0 note=71 velocity=64 time=0\n",
      "note_off channel=0 note=82 velocity=64 time=0\n",
      "note_on channel=0 note=91 velocity=38 time=0\n",
      "note_off channel=0 note=44 velocity=64 time=1\n",
      "note_on channel=0 note=56 velocity=20 time=0\n",
      "note_off channel=0 note=68 velocity=64 time=1\n",
      "note_on channel=0 note=43 velocity=61 time=2\n",
      "note_off channel=0 note=56 velocity=64 time=0\n",
      "note_on channel=0 note=75 velocity=12 time=0\n",
      "note_off channel=0 note=43 velocity=64 time=2\n",
      "note_off channel=0 note=75 velocity=64 time=2\n",
      "note_on channel=0 note=48 velocity=69 time=2\n",
      "note_on channel=0 note=47 velocity=72 time=1\n",
      "note_off channel=0 note=48 velocity=64 time=0\n",
      "note_on channel=0 note=75 velocity=15 time=0\n",
      "note_off channel=0 note=80 velocity=64 time=0\n",
      "note_on channel=0 note=82 velocity=39 time=1\n",
      "note_off channel=0 note=47 velocity=64 time=1\n",
      "note_on channel=0 note=48 velocity=66 time=0\n",
      "note_off channel=0 note=83 velocity=64 time=0\n",
      "note_off channel=0 note=48 velocity=64 time=1\n",
      "note_on channel=0 note=50 velocity=76 time=0\n",
      "note_off channel=0 note=84 velocity=64 time=0\n",
      "note_on channel=0 note=88 velocity=37 time=0\n",
      "note_on channel=0 note=93 velocity=15 time=0\n",
      "note_off channel=0 note=50 velocity=64 time=1\n",
      "note_on channel=0 note=53 velocity=74 time=0\n",
      "note_on channel=0 note=68 velocity=25 time=0\n",
      "note_off channel=0 note=89 velocity=64 time=0\n",
      "note_off channel=0 note=91 velocity=64 time=0\n",
      "note_off channel=0 note=88 velocity=64 time=1\n",
      "note_on channel=0 note=88 velocity=41 time=1\n",
      "note_off channel=0 note=53 velocity=64 time=1\n",
      "note_on channel=0 note=71 velocity=16 time=0\n",
      "note_on channel=0 note=53 velocity=59 time=1\n",
      "note_off channel=0 note=71 velocity=64 time=3\n",
      "note_on channel=0 note=80 velocity=54 time=0\n",
      "note_on channel=0 note=91 velocity=36 time=0\n",
      "note_off channel=0 note=53 velocity=64 time=1\n",
      "note_off channel=0 note=61 velocity=64 time=0\n",
      "note_on channel=0 note=64 velocity=80 time=0\n",
      "note_off channel=0 note=65 velocity=64 time=0\n",
      "note_off channel=0 note=68 velocity=64 time=0\n",
      "note_off channel=0 note=75 velocity=64 time=0\n",
      "note_on channel=0 note=84 velocity=17 time=0\n",
      "note_on channel=0 note=45 velocity=76 time=1\n",
      "note_on channel=0 note=63 velocity=81 time=1\n",
      "note_off channel=0 note=64 velocity=64 time=0\n",
      "note_on channel=0 note=68 velocity=53 time=0\n",
      "note_on channel=0 note=44 velocity=78 time=1\n",
      "note_off channel=0 note=45 velocity=64 time=0\n",
      "note_on channel=0 note=61 velocity=84 time=0\n",
      "note_off channel=0 note=84 velocity=64 time=0\n",
      "note_off channel=0 note=63 velocity=64 time=1\n",
      "note_off channel=0 note=68 velocity=64 time=0\n",
      "note_off channel=0 note=88 velocity=64 time=1\n",
      "note_off channel=0 note=44 velocity=64 time=1\n",
      "note_on channel=0 note=45 velocity=76 time=0\n",
      "note_on channel=0 note=65 velocity=36 time=1\n",
      "note_on channel=0 note=44 velocity=70 time=1\n",
      "note_off channel=0 note=45 velocity=64 time=0\n",
      "note_on channel=0 note=88 velocity=34 time=0\n",
      "note_off channel=0 note=44 velocity=64 time=2\n",
      "note_off channel=0 note=91 velocity=64 time=0\n",
      "note_on channel=0 note=42 velocity=59 time=1\n",
      "note_on channel=0 note=91 velocity=33 time=0\n",
      "note_off channel=0 note=93 velocity=64 time=0\n",
      "note_off channel=0 note=88 velocity=64 time=1\n",
      "note_on channel=0 note=89 velocity=65 time=0\n",
      "note_off channel=0 note=42 velocity=64 time=1\n",
      "note_on channel=0 note=54 velocity=31 time=0\n",
      "note_off channel=0 note=65 velocity=64 time=0\n",
      "note_on channel=0 note=48 velocity=65 time=2\n",
      "note_off channel=0 note=54 velocity=64 time=0\n",
      "note_off channel=0 note=91 velocity=64 time=0\n",
      "note_on channel=0 note=67 velocity=37 time=1\n",
      "note_on channel=0 note=75 velocity=16 time=0\n",
      "note_on channel=0 note=47 velocity=71 time=1\n",
      "note_off channel=0 note=48 velocity=64 time=0\n",
      "note_on channel=0 note=71 velocity=16 time=1\n",
      "note_on channel=0 note=91 velocity=30 time=0\n",
      "note_on channel=0 note=93 velocity=25 time=0\n",
      "note_off channel=0 note=47 velocity=64 time=1\n",
      "note_on channel=0 note=48 velocity=66 time=0\n",
      "note_off channel=0 note=48 velocity=64 time=1\n",
      "note_on channel=0 note=49 velocity=75 time=0\n",
      "note_off channel=0 note=49 velocity=64 time=1\n",
      "note_on channel=0 note=52 velocity=75 time=0\n",
      "note_off channel=0 note=80 velocity=64 time=0\n",
      "note_off channel=0 note=52 velocity=64 time=1\n",
      "note_on channel=0 note=53 velocity=66 time=0\n",
      "note_off channel=0 note=67 velocity=64 time=0\n",
      "note_on channel=0 note=68 velocity=13 time=0\n",
      "note_off channel=0 note=75 velocity=64 time=0\n",
      "note_off channel=0 note=53 velocity=64 time=1\n",
      "note_off channel=0 note=61 velocity=64 time=1\n",
      "note_on channel=0 note=53 velocity=58 time=1\n",
      "note_off channel=0 note=68 velocity=64 time=0\n",
      "note_on channel=0 note=69 velocity=38 time=0\n",
      "note_off channel=0 note=71 velocity=64 time=0\n",
      "note_off channel=0 note=91 velocity=64 time=0\n",
      "note_off channel=0 note=95 velocity=64 time=0\n",
      "note_on channel=0 note=61 velocity=77 time=1\n",
      "note_on channel=0 note=80 velocity=97 time=0\n",
      "note_off channel=0 note=90 velocity=64 time=0\n",
      "note_on channel=0 note=91 velocity=24 time=0\n",
      "note_off channel=0 note=69 velocity=64 time=1\n",
      "note_on channel=0 note=77 velocity=32 time=0\n",
      "note_on channel=0 note=88 velocity=65 time=1\n",
      "note_off channel=0 note=53 velocity=64 time=1\n",
      "note_on channel=0 note=67 velocity=50 time=0\n"
     ]
    },
    {
     "name": "stdout",
     "output_type": "stream",
     "text": [
      "note_off channel=0 note=82 velocity=64 time=0\n",
      "note_on channel=0 note=83 velocity=29 time=0\n",
      "note_on channel=0 note=90 velocity=28 time=0\n",
      "note_on channel=0 note=48 velocity=86 time=1\n",
      "note_on channel=0 note=76 velocity=40 time=0\n",
      "note_off channel=0 note=77 velocity=64 time=0\n",
      "note_on channel=0 note=82 velocity=41 time=0\n",
      "note_on channel=0 note=95 velocity=36 time=0\n",
      "note_off channel=0 note=61 velocity=64 time=1\n",
      "note_on channel=0 note=66 velocity=52 time=0\n",
      "note_off channel=0 note=67 velocity=64 time=0\n",
      "note_on channel=0 note=61 velocity=85 time=1\n",
      "note_off channel=0 note=76 velocity=64 time=0\n",
      "note_on channel=0 note=77 velocity=26 time=0\n",
      "note_off channel=0 note=83 velocity=64 time=0\n",
      "note_off channel=0 note=88 velocity=64 time=0\n",
      "note_on channel=0 note=47 velocity=68 time=1\n",
      "note_off channel=0 note=48 velocity=64 time=0\n",
      "note_off channel=0 note=66 velocity=64 time=0\n",
      "note_off channel=0 note=82 velocity=64 time=0\n",
      "note_on channel=0 note=83 velocity=36 time=0\n",
      "note_off channel=0 note=91 velocity=64 time=0\n",
      "note_off channel=0 note=47 velocity=64 time=1\n",
      "note_on channel=0 note=65 velocity=30 time=0\n",
      "note_on channel=0 note=74 velocity=70 time=0\n",
      "note_off channel=0 note=90 velocity=64 time=0\n",
      "note_on channel=0 note=91 velocity=18 time=0\n",
      "note_off channel=0 note=95 velocity=64 time=0\n",
      "note_on channel=0 note=47 velocity=65 time=1\n",
      "note_off channel=0 note=73 velocity=64 time=0\n",
      "note_on channel=0 note=82 velocity=30 time=0\n",
      "note_off channel=0 note=83 velocity=64 time=0\n",
      "note_off channel=0 note=47 velocity=64 time=1\n",
      "note_off channel=0 note=65 velocity=64 time=0\n",
      "note_off channel=0 note=74 velocity=64 time=0\n",
      "note_on channel=0 note=45 velocity=59 time=1\n",
      "note_on channel=0 note=88 velocity=32 time=0\n",
      "note_on channel=0 note=75 velocity=14 time=1\n",
      "note_off channel=0 note=89 velocity=64 time=0\n",
      "note_on channel=0 note=90 velocity=29 time=0\n",
      "note_on channel=0 note=72 velocity=69 time=1\n",
      "note_off channel=0 note=82 velocity=64 time=0\n",
      "note_off channel=0 note=88 velocity=64 time=0\n",
      "note_on channel=0 note=89 velocity=84 time=0\n",
      "note_on channel=0 note=60 velocity=67 time=1\n",
      "note_off channel=0 note=61 velocity=64 time=0\n",
      "note_on channel=0 note=65 velocity=47 time=0\n",
      "note_on channel=0 note=82 velocity=25 time=0\n",
      "note_on channel=0 note=44 velocity=50 time=1\n",
      "note_off channel=0 note=45 velocity=64 time=0\n",
      "note_off channel=0 note=75 velocity=64 time=0\n",
      "note_on channel=0 note=54 velocity=22 time=1\n",
      "note_on channel=0 note=59 velocity=54 time=0\n",
      "note_off channel=0 note=60 velocity=64 time=0\n",
      "note_on channel=0 note=71 velocity=67 time=0\n",
      "note_off channel=0 note=72 velocity=64 time=0\n",
      "note_on channel=0 note=75 velocity=19 time=0\n",
      "note_on channel=0 note=73 velocity=34 time=1\n",
      "note_on channel=0 note=78 velocity=30 time=0\n",
      "note_on channel=0 note=88 velocity=22 time=0\n",
      "note_off channel=0 note=91 velocity=64 time=0\n",
      "note_on channel=0 note=43 velocity=32 time=2\n",
      "note_off channel=0 note=44 velocity=64 time=0\n",
      "note_on channel=0 note=53 velocity=25 time=0\n",
      "note_off channel=0 note=54 velocity=64 time=0\n",
      "note_off channel=0 note=88 velocity=64 time=1\n",
      "note_off channel=0 note=59 velocity=64 time=1\n",
      "note_on channel=0 note=60 velocity=64 time=0\n",
      "note_on channel=0 note=91 velocity=40 time=0\n",
      "note_off channel=0 note=53 velocity=64 time=1\n",
      "note_on channel=0 note=54 velocity=21 time=0\n",
      "note_off channel=0 note=71 velocity=64 time=0\n",
      "note_on channel=0 note=72 velocity=70 time=0\n",
      "note_off channel=0 note=73 velocity=64 time=0\n",
      "note_off channel=0 note=78 velocity=64 time=0\n",
      "note_off channel=0 note=87 velocity=64 time=0\n",
      "note_on channel=0 note=68 velocity=36 time=1\n",
      "note_off channel=0 note=93 velocity=64 time=1\n",
      "note_on channel=0 note=53 velocity=20 time=1\n",
      "note_off channel=0 note=54 velocity=64 time=0\n",
      "note_off channel=0 note=43 velocity=64 time=1\n",
      "note_off channel=0 note=72 velocity=64 time=0\n",
      "note_on channel=0 note=73 velocity=85 time=0\n",
      "note_on channel=0 note=83 velocity=38 time=0\n",
      "note_on channel=0 note=43 velocity=23 time=1\n",
      "note_off channel=0 note=75 velocity=64 time=0\n",
      "note_off channel=0 note=82 velocity=64 time=0\n",
      "note_off channel=0 note=90 velocity=64 time=0\n",
      "note_off channel=0 note=60 velocity=64 time=1\n",
      "note_on channel=0 note=61 velocity=85 time=0\n",
      "note_on channel=0 note=95 velocity=43 time=0\n",
      "note_on channel=0 note=87 velocity=65 time=2\n",
      "note_off channel=0 note=53 velocity=64 time=1\n",
      "note_off channel=0 note=43 velocity=64 time=1\n",
      "note_on channel=0 note=75 velocity=41 time=0\n",
      "note_on channel=0 note=94 velocity=26 time=0\n",
      "note_on channel=0 note=57 velocity=37 time=1\n",
      "note_off channel=0 note=65 velocity=64 time=0\n",
      "note_on channel=0 note=66 velocity=30 time=0\n",
      "note_off channel=0 note=77 velocity=64 time=0\n",
      "note_on channel=0 note=90 velocity=31 time=0\n",
      "note_off channel=0 note=91 velocity=64 time=0\n",
      "note_on channel=0 note=98 velocity=21 time=0\n",
      "note_on channel=0 note=45 velocity=72 time=1\n",
      "note_off channel=0 note=68 velocity=64 time=0\n",
      "note_on channel=0 note=69 velocity=41 time=0\n",
      "note_on channel=0 note=77 velocity=40 time=0\n",
      "note_on channel=0 note=84 velocity=32 time=0\n",
      "note_on channel=0 note=88 velocity=30 time=0\n",
      "note_on channel=0 note=93 velocity=45 time=0\n",
      "note_on channel=0 note=91 velocity=69 time=1\n",
      "note_on channel=0 note=44 velocity=74 time=1\n",
      "note_off channel=0 note=45 velocity=64 time=0\n",
      "note_off channel=0 note=57 velocity=64 time=0\n",
      "note_off channel=0 note=66 velocity=64 time=0\n",
      "note_off channel=0 note=69 velocity=64 time=1\n",
      "note_on channel=0 note=70 velocity=20 time=0\n",
      "note_off channel=0 note=75 velocity=64 time=0\n",
      "note_off channel=0 note=84 velocity=64 time=0\n",
      "note_off channel=0 note=73 velocity=64 time=1\n",
      "note_on channel=0 note=74 velocity=80 time=0\n",
      "note_off channel=0 note=90 velocity=64 time=0\n",
      "note_off channel=0 note=94 velocity=64 time=0\n",
      "note_on channel=0 note=43 velocity=72 time=1\n",
      "note_off channel=0 note=44 velocity=64 time=0\n",
      "note_off channel=0 note=61 velocity=64 time=0\n",
      "note_on channel=0 note=62 velocity=72 time=0\n",
      "note_on channel=0 note=81 velocity=71 time=0\n",
      "note_off channel=0 note=83 velocity=64 time=0\n",
      "note_off channel=0 note=88 velocity=64 time=0\n",
      "note_off channel=0 note=95 velocity=64 time=0\n",
      "note_off channel=0 note=98 velocity=64 time=0\n",
      "note_on channel=0 note=68 velocity=29 time=1\n",
      "note_off channel=0 note=70 velocity=64 time=0\n",
      "note_on channel=0 note=71 velocity=18 time=0\n",
      "note_off channel=0 note=80 velocity=64 time=0\n",
      "note_on channel=0 note=82 velocity=80 time=0\n",
      "note_on channel=0 note=54 velocity=12 time=1\n",
      "note_on channel=0 note=75 velocity=80 time=0\n",
      "note_on channel=0 note=80 velocity=73 time=0\n",
      "note_off channel=0 note=81 velocity=64 time=0\n",
      "note_off channel=0 note=89 velocity=64 time=0\n",
      "note_on channel=0 note=90 velocity=31 time=0\n",
      "note_off channel=0 note=62 velocity=64 time=1\n",
      "note_off channel=0 note=68 velocity=64 time=0\n",
      "note_off channel=0 note=74 velocity=64 time=0\n",
      "note_on channel=0 note=63 velocity=56 time=1\n",
      "note_off channel=0 note=77 velocity=64 time=0\n",
      "note_off channel=0 note=54 velocity=64 time=1\n",
      "note_off channel=0 note=90 velocity=64 time=0\n",
      "note_on channel=0 note=83 velocity=58 time=1\n",
      "note_on channel=0 note=102 velocity=41 time=0\n",
      "note_off channel=0 note=43 velocity=64 time=1\n",
      "note_on channel=0 note=44 velocity=23 time=0\n",
      "note_on channel=0 note=62 velocity=68 time=0\n",
      "note_off channel=0 note=63 velocity=64 time=0\n",
      "note_on channel=0 note=65 velocity=31 time=0\n",
      "note_on channel=0 note=74 velocity=80 time=0\n",
      "note_off channel=0 note=75 velocity=64 time=0\n",
      "note_on channel=0 note=90 velocity=63 time=1\n",
      "note_off channel=0 note=65 velocity=64 time=1\n",
      "note_on channel=0 note=81 velocity=58 time=0\n",
      "note_off channel=0 note=44 velocity=64 time=1\n",
      "note_off channel=0 note=80 velocity=64 time=0\n",
      "note_off channel=0 note=82 velocity=64 time=0\n",
      "note_on channel=0 note=89 velocity=62 time=0\n",
      "note_on channel=0 note=49 velocity=9 time=1\n",
      "note_on channel=0 note=80 velocity=75 time=0\n",
      "note_on channel=0 note=100 velocity=15 time=0\n",
      "note_off channel=0 note=49 velocity=64 time=4\n",
      "note_off channel=0 note=100 velocity=64 time=0\n",
      "note_off channel=0 note=81 velocity=64 time=1\n",
      "note_on channel=0 note=61 velocity=75 time=1\n",
      "note_off channel=0 note=62 velocity=64 time=0\n",
      "note_off channel=0 note=74 velocity=64 time=0\n",
      "note_on channel=0 note=81 velocity=67 time=0\n",
      "note_off channel=0 note=102 velocity=64 time=0\n",
      "note_off channel=0 note=90 velocity=64 time=1\n",
      "note_off channel=0 note=71 velocity=64 time=1\n",
      "note_on channel=0 note=71 velocity=21 time=1\n",
      "note_on channel=0 note=74 velocity=78 time=0\n",
      "note_off channel=0 note=81 velocity=64 time=0\n",
      "note_on channel=0 note=102 velocity=35 time=0\n",
      "note_off channel=0 note=61 velocity=64 time=1\n",
      "note_on channel=0 note=62 velocity=85 time=0\n",
      "note_off channel=0 note=80 velocity=64 time=0\n",
      "note_on channel=0 note=81 velocity=70 time=0\n",
      "note_on channel=0 note=90 velocity=60 time=0\n",
      "note_on channel=0 note=96 velocity=20 time=0\n",
      "note_off channel=0 note=71 velocity=64 time=2\n",
      "note_on channel=0 note=77 velocity=40 time=0\n",
      "note_on channel=0 note=46 velocity=69 time=1\n",
      "note_on channel=0 note=57 velocity=43 time=0\n",
      "note_on channel=0 note=71 velocity=33 time=0\n",
      "note_off channel=0 note=81 velocity=64 time=0\n",
      "note_on channel=0 note=45 velocity=77 time=1\n",
      "note_off channel=0 note=46 velocity=64 time=0\n",
      "note_on channel=0 note=64 velocity=78 time=0\n",
      "note_on channel=0 note=68 velocity=48 time=0\n",
      "note_on channel=0 note=81 velocity=59 time=0\n",
      "note_on channel=0 note=85 velocity=36 time=0\n",
      "note_off channel=0 note=96 velocity=64 time=0\n",
      "note_on channel=0 note=44 velocity=79 time=1\n",
      "note_off channel=0 note=45 velocity=64 time=0\n",
      "note_off channel=0 note=57 velocity=64 time=0\n",
      "note_off channel=0 note=62 velocity=64 time=0\n",
      "note_off channel=0 note=64 velocity=64 time=0\n",
      "note_on channel=0 note=65 velocity=75 time=0\n",
      "note_on channel=0 note=73 velocity=77 time=0\n",
      "note_off channel=0 note=74 velocity=64 time=0\n",
      "note_on channel=0 note=80 velocity=64 time=0\n",
      "note_off channel=0 note=90 velocity=64 time=0\n",
      "note_off channel=0 note=93 velocity=64 time=0\n",
      "note_on channel=0 note=62 velocity=79 time=1\n",
      "note_off channel=0 note=65 velocity=64 time=0\n",
      "note_off channel=0 note=68 velocity=64 time=0\n",
      "note_off channel=0 note=81 velocity=64 time=0\n",
      "note_off channel=0 note=102 velocity=64 time=0\n",
      "note_on channel=0 note=61 velocity=86 time=1\n",
      "note_off channel=0 note=62 velocity=64 time=0\n",
      "note_off channel=0 note=71 velocity=64 time=0\n",
      "note_off channel=0 note=44 velocity=64 time=2\n",
      "note_on channel=0 note=71 velocity=50 time=0\n",
      "note_off channel=0 note=91 velocity=64 time=0\n",
      "note_on channel=0 note=43 velocity=62 time=3\n",
      "note_on channel=0 note=66 velocity=26 time=0\n",
      "note_on channel=0 note=91 velocity=25 time=0\n",
      "note_on channel=0 note=97 velocity=43 time=0\n",
      "note_on channel=0 note=42 velocity=55 time=2\n",
      "note_off channel=0 note=43 velocity=64 time=0\n",
      "note_on channel=0 note=65 velocity=29 time=1\n",
      "note_off channel=0 note=66 velocity=64 time=0\n",
      "note_on channel=0 note=93 velocity=10 time=0\n",
      "note_off channel=0 note=42 velocity=64 time=2\n",
      "note_on channel=0 note=48 velocity=66 time=1\n",
      "note_on channel=0 note=68 velocity=12 time=0\n",
      "note_on channel=0 note=47 velocity=73 time=1\n",
      "note_off channel=0 note=48 velocity=64 time=0\n",
      "note_off channel=0 note=65 velocity=64 time=0\n",
      "note_off channel=0 note=93 velocity=64 time=0\n",
      "note_on channel=0 note=65 velocity=50 time=1\n",
      "note_off channel=0 note=85 velocity=64 time=0\n",
      "note_off channel=0 note=47 velocity=64 time=1\n",
      "note_on channel=0 note=48 velocity=71 time=0\n",
      "note_off channel=0 note=68 velocity=64 time=0\n",
      "note_off channel=0 note=89 velocity=64 time=0\n",
      "note_off channel=0 note=48 velocity=64 time=1\n",
      "note_on channel=0 note=49 velocity=76 time=0\n",
      "note_on channel=0 note=68 velocity=18 time=0\n",
      "note_off channel=0 note=49 velocity=64 time=1\n",
      "note_on channel=0 note=52 velocity=75 time=0\n",
      "note_off channel=0 note=52 velocity=64 time=1\n",
      "note_on channel=0 note=53 velocity=67 time=0\n",
      "note_off channel=0 note=68 velocity=64 time=1\n",
      "note_off channel=0 note=53 velocity=64 time=1\n",
      "note_on channel=0 note=53 velocity=58 time=1\n",
      "note_on channel=0 note=88 velocity=24 time=4\n",
      "note_off channel=0 note=53 velocity=64 time=1\n",
      "note_on channel=0 note=64 velocity=83 time=0\n",
      "note_off channel=0 note=65 velocity=64 time=0\n",
      "note_off channel=0 note=80 velocity=64 time=0\n",
      "note_on channel=0 note=81 velocity=30 time=0\n",
      "note_on channel=0 note=90 velocity=37 time=0\n",
      "note_on channel=0 note=45 velocity=75 time=1\n",
      "note_on channel=0 note=53 velocity=50 time=0\n",
      "note_on channel=0 note=80 velocity=42 time=0\n",
      "note_on channel=0 note=44 velocity=78 time=1\n",
      "note_off channel=0 note=45 velocity=64 time=0\n",
      "note_on channel=0 note=63 velocity=74 time=0\n",
      "note_off channel=0 note=64 velocity=64 time=0\n",
      "note_off channel=0 note=81 velocity=64 time=0\n",
      "note_off channel=0 note=53 velocity=64 time=1\n",
      "note_off channel=0 note=63 velocity=64 time=0\n",
      "note_off channel=0 note=88 velocity=64 time=0\n",
      "note_off channel=0 note=90 velocity=64 time=0\n",
      "note_off channel=0 note=44 velocity=64 time=4\n",
      "note_on channel=0 note=49 velocity=60 time=0\n",
      "note_off channel=0 note=49 velocity=64 time=2\n",
      "note_on channel=0 note=43 velocity=60 time=1\n",
      "note_off channel=0 note=97 velocity=64 time=3\n",
      "note_off channel=0 note=43 velocity=64 time=1\n",
      "note_off channel=0 note=87 velocity=64 time=0\n",
      "note_on channel=0 note=48 velocity=71 time=2\n",
      "note_off channel=0 note=61 velocity=64 time=0\n",
      "note_on channel=0 note=62 velocity=44 time=0\n",
      "note_on channel=0 note=47 velocity=76 time=1\n",
      "note_off channel=0 note=48 velocity=64 time=0\n",
      "note_on channel=0 note=67 velocity=34 time=0\n",
      "note_off channel=0 note=47 velocity=64 time=1\n",
      "note_on channel=0 note=48 velocity=72 time=0\n",
      "note_on channel=0 note=61 velocity=44 time=0\n",
      "note_off channel=0 note=62 velocity=64 time=0\n",
      "note_off channel=0 note=48 velocity=64 time=2\n",
      "note_on channel=0 note=50 velocity=77 time=0\n",
      "note_off channel=0 note=83 velocity=64 time=0\n",
      "note_off channel=0 note=50 velocity=64 time=1\n",
      "note_on channel=0 note=53 velocity=70 time=0\n",
      "note_off channel=0 note=67 velocity=64 time=0\n",
      "note_on channel=0 note=68 velocity=44 time=0\n",
      "note_on channel=0 note=70 velocity=34 time=0\n",
      "note_off channel=0 note=71 velocity=64 time=0\n",
      "note_on channel=0 note=75 velocity=9 time=1\n",
      "note_off channel=0 note=80 velocity=64 time=0\n",
      "note_on channel=0 note=83 velocity=28 time=0\n",
      "note_on channel=0 note=87 velocity=48 time=0\n",
      "note_on channel=0 note=93 velocity=26 time=0\n",
      "note_off channel=0 note=61 velocity=64 time=1\n",
      "note_off channel=0 note=53 velocity=64 time=1\n",
      "note_off channel=0 note=70 velocity=64 time=0\n",
      "note_on channel=0 note=71 velocity=45 time=0\n",
      "note_on channel=0 note=53 velocity=56 time=1\n",
      "note_on channel=0 note=61 velocity=16 time=0\n",
      "note_off channel=0 note=75 velocity=64 time=1\n",
      "note_off channel=0 note=53 velocity=64 time=2\n",
      "note_on channel=0 note=72 velocity=34 time=0\n",
      "note_on channel=0 note=75 velocity=44 time=0\n",
      "note_on channel=0 note=82 velocity=42 time=0\n",
      "note_on channel=0 note=89 velocity=67 time=0\n",
      "note_on channel=0 note=48 velocity=88 time=1\n",
      "note_off channel=0 note=61 velocity=64 time=0\n",
      "note_off channel=0 note=73 velocity=64 time=0\n",
      "note_off channel=0 note=77 velocity=64 time=0\n",
      "note_on channel=0 note=80 velocity=83 time=0\n",
      "note_off channel=0 note=83 velocity=64 time=0\n",
      "note_on channel=0 note=85 velocity=34 time=0\n",
      "note_on channel=0 note=102 velocity=17 time=0\n",
      "note_on channel=0 note=63 velocity=56 time=1\n",
      "note_off channel=0 note=68 velocity=64 time=0\n",
      "note_on channel=0 note=74 velocity=33 time=0\n",
      "note_off channel=0 note=75 velocity=64 time=0\n",
      "note_on channel=0 note=78 velocity=33 time=0\n",
      "note_on channel=0 note=81 velocity=30 time=0\n",
      "note_on channel=0 note=88 velocity=24 time=0\n",
      "note_off channel=0 note=72 velocity=64 time=1\n",
      "note_on channel=0 note=77 velocity=27 time=0\n",
      "note_off channel=0 note=63 velocity=64 time=1\n",
      "note_on channel=0 note=73 velocity=32 time=0\n",
      "note_off channel=0 note=74 velocity=64 time=0\n",
      "note_off channel=0 note=78 velocity=64 time=0\n",
      "note_off channel=0 note=81 velocity=64 time=0\n",
      "note_off channel=0 note=82 velocity=64 time=0\n",
      "note_off channel=0 note=87 velocity=64 time=0\n",
      "note_off channel=0 note=102 velocity=64 time=0\n",
      "note_off channel=0 note=48 velocity=64 time=1\n",
      "note_on channel=0 note=65 velocity=40 time=0\n",
      "note_on channel=0 note=68 velocity=33 time=0\n",
      "note_on channel=0 note=82 velocity=35 time=0\n",
      "note_off channel=0 note=93 velocity=64 time=0\n",
      "note_on channel=0 note=87 velocity=42 time=1\n",
      "note_off channel=0 note=88 velocity=64 time=0\n",
      "note_on channel=0 note=48 velocity=65 time=1\n",
      "note_off channel=0 note=48 velocity=64 time=1\n",
      "note_on channel=0 note=45 velocity=60 time=1\n",
      "note_off channel=0 note=77 velocity=64 time=0\n",
      "note_off channel=0 note=82 velocity=64 time=1\n",
      "note_on channel=0 note=88 velocity=30 time=0\n",
      "note_on channel=0 note=61 velocity=18 time=1\n",
      "note_on channel=0 note=44 velocity=52 time=1\n",
      "note_off channel=0 note=45 velocity=64 time=0\n",
      "note_on channel=0 note=54 velocity=34 time=0\n",
      "note_off channel=0 note=89 velocity=64 time=0\n",
      "note_off channel=0 note=85 velocity=64 time=1\n",
      "note_off channel=0 note=61 velocity=64 time=3\n",
      "note_on channel=0 note=43 velocity=32 time=1\n",
      "note_off channel=0 note=44 velocity=64 time=0\n",
      "note_off channel=0 note=54 velocity=64 time=0\n",
      "note_on channel=0 note=84 velocity=43 time=0\n",
      "note_on channel=0 note=54 velocity=32 time=1\n",
      "note_on channel=0 note=53 velocity=32 time=2\n",
      "note_off channel=0 note=54 velocity=64 time=0\n",
      "note_on channel=0 note=95 velocity=37 time=0\n",
      "note_off channel=0 note=43 velocity=64 time=2\n",
      "note_off channel=0 note=53 velocity=64 time=0\n",
      "note_on channel=0 note=75 velocity=27 time=0\n",
      "note_on channel=0 note=43 velocity=21 time=1\n",
      "note_on channel=0 note=53 velocity=28 time=0\n",
      "note_on channel=0 note=61 velocity=14 time=2\n",
      "note_off channel=0 note=53 velocity=64 time=1\n",
      "note_off channel=0 note=43 velocity=64 time=1\n",
      "note_on channel=0 note=53 velocity=31 time=0\n",
      "note_off channel=0 note=53 velocity=64 time=3\n",
      "note_off channel=0 note=61 velocity=64 time=0\n",
      "note_off channel=0 note=65 velocity=64 time=0\n",
      "note_off channel=0 note=73 velocity=64 time=0\n",
      "note_on channel=0 note=76 velocity=45 time=0\n",
      "note_on channel=0 note=89 velocity=68 time=0\n",
      "note_on channel=0 note=93 velocity=18 time=0\n",
      "note_on channel=0 note=46 velocity=67 time=1\n",
      "note_off channel=0 note=68 velocity=64 time=0\n",
      "note_off channel=0 note=75 velocity=64 time=0\n",
      "note_off channel=0 note=88 velocity=64 time=0\n",
      "note_on channel=0 note=94 velocity=23 time=0\n",
      "note_on channel=0 note=45 velocity=75 time=1\n",
      "note_off channel=0 note=46 velocity=64 time=0\n",
      "note_on channel=0 note=69 velocity=47 time=0\n",
      "note_on channel=0 note=75 velocity=44 time=0\n",
      "note_off channel=0 note=76 velocity=64 time=0\n",
      "note_on channel=0 note=78 velocity=29 time=0\n",
      "note_on channel=0 note=82 velocity=35 time=0\n",
      "note_on channel=0 note=85 velocity=27 time=0\n",
      "note_off channel=0 note=91 velocity=64 time=0\n",
      "note_off channel=0 note=95 velocity=64 time=0\n",
      "note_on channel=0 note=44 velocity=77 time=1\n",
      "note_off channel=0 note=45 velocity=64 time=0\n",
      "note_on channel=0 note=63 velocity=39 time=0\n",
      "note_on channel=0 note=73 velocity=40 time=0\n",
      "note_on channel=0 note=68 velocity=33 time=1\n",
      "note_off channel=0 note=69 velocity=64 time=0\n",
      "note_off channel=0 note=78 velocity=64 time=0\n",
      "note_on channel=0 note=79 velocity=21 time=0\n",
      "note_on channel=0 note=62 velocity=38 time=1\n",
      "note_off channel=0 note=63 velocity=64 time=0\n",
      "note_on channel=0 note=65 velocity=55 time=0\n",
      "note_off channel=0 note=93 velocity=64 time=0\n",
      "note_on channel=0 note=43 velocity=73 time=1\n",
      "note_off channel=0 note=44 velocity=64 time=0\n",
      "note_off channel=0 note=94 velocity=64 time=0\n",
      "note_on channel=0 note=53 velocity=29 time=1\n",
      "note_off channel=0 note=79 velocity=64 time=0\n",
      "note_on channel=0 note=78 velocity=25 time=1\n",
      "note_off channel=0 note=53 velocity=64 time=1\n",
      "note_on channel=0 note=61 velocity=35 time=0\n",
      "note_off channel=0 note=62 velocity=64 time=0\n",
      "note_off channel=0 note=89 velocity=64 time=0\n",
      "note_on channel=0 note=89 velocity=34 time=2\n",
      "note_on channel=0 note=90 velocity=42 time=0\n",
      "note_off channel=0 note=61 velocity=64 time=1\n",
      "note_off channel=0 note=85 velocity=64 time=0\n",
      "note_on channel=0 note=88 velocity=31 time=0\n",
      "note_off channel=0 note=43 velocity=64 time=1\n",
      "note_on channel=0 note=44 velocity=28 time=0\n",
      "note_off channel=0 note=89 velocity=64 time=0\n",
      "note_off channel=0 note=88 velocity=64 time=1\n",
      "note_on channel=0 note=89 velocity=33 time=0\n",
      "note_on channel=0 note=91 velocity=27 time=0\n",
      "note_on channel=0 note=88 velocity=36 time=1\n",
      "note_off channel=0 note=75 velocity=64 time=1\n",
      "note_off channel=0 note=89 velocity=64 time=0\n",
      "note_off channel=0 note=44 velocity=64 time=1\n",
      "note_on channel=0 note=61 velocity=25 time=0\n",
      "note_off channel=0 note=82 velocity=64 time=0\n",
      "note_off channel=0 note=88 velocity=64 time=2\n",
      "note_on channel=0 note=89 velocity=48 time=0\n",
      "note_off channel=0 note=87 velocity=64 time=1\n",
      "note_off channel=0 note=68 velocity=64 time=1\n",
      "note_on channel=0 note=82 velocity=59 time=2\n",
      "note_on channel=0 note=93 velocity=9 time=0\n",
      "note_on channel=0 note=56 velocity=52 time=1\n",
      "note_off channel=0 note=61 velocity=64 time=1\n",
      "note_off channel=0 note=78 velocity=64 time=0\n",
      "note_on channel=0 note=87 velocity=12 time=0\n",
      "note_off channel=0 note=56 velocity=64 time=1\n",
      "note_on channel=0 note=57 velocity=70 time=0\n",
      "note_on channel=0 note=61 velocity=34 time=0\n",
      "note_off channel=0 note=71 velocity=64 time=0\n",
      "note_on channel=0 note=75 velocity=12 time=0\n",
      "note_off channel=0 note=93 velocity=64 time=0\n",
      "note_on channel=0 note=95 velocity=64 time=1\n",
      "note_on channel=0 note=78 velocity=41 time=1\n",
      "note_off channel=0 note=84 velocity=64 time=0\n",
      "note_on channel=0 note=88 velocity=29 time=0\n",
      "note_on channel=0 note=56 velocity=66 time=1\n",
      "note_off channel=0 note=57 velocity=64 time=0\n",
      "note_off channel=0 note=61 velocity=64 time=0\n",
      "note_off channel=0 note=75 velocity=64 time=0\n",
      "note_on channel=0 note=48 velocity=39 time=1\n",
      "note_on channel=0 note=55 velocity=66 time=0\n",
      "note_off channel=0 note=56 velocity=64 time=0\n",
      "note_on channel=0 note=63 velocity=94 time=0\n",
      "note_off channel=0 note=65 velocity=64 time=0\n",
      "note_on channel=0 note=72 velocity=49 time=0\n",
      "note_off channel=0 note=73 velocity=64 time=0\n",
      "note_on channel=0 note=74 velocity=42 time=0\n",
      "note_off channel=0 note=87 velocity=64 time=0\n",
      "note_off channel=0 note=91 velocity=64 time=0\n",
      "note_on channel=0 note=68 velocity=70 time=1\n",
      "note_off channel=0 note=78 velocity=64 time=0\n",
      "note_on channel=0 note=85 velocity=41 time=0\n",
      "note_off channel=0 note=88 velocity=64 time=0\n",
      "note_on channel=0 note=91 velocity=49 time=0\n",
      "note_off channel=0 note=55 velocity=64 time=1\n",
      "note_on channel=0 note=56 velocity=71 time=0\n",
      "note_off channel=0 note=72 velocity=64 time=0\n",
      "note_off channel=0 note=74 velocity=64 time=0\n",
      "note_off channel=0 note=90 velocity=64 time=0\n",
      "note_on channel=0 note=93 velocity=78 time=0\n",
      "note_on channel=0 note=96 velocity=62 time=0\n",
      "note_on channel=0 note=98 velocity=55 time=0\n",
      "note_on channel=0 note=102 velocity=43 time=0\n",
      "note_off channel=0 note=48 velocity=64 time=1\n",
      "note_off channel=0 note=68 velocity=64 time=0\n",
      "note_on channel=0 note=69 velocity=83 time=0\n",
      "note_on channel=0 note=72 velocity=53 time=0\n",
      "note_on channel=0 note=76 velocity=65 time=0\n",
      "note_on channel=0 note=90 velocity=82 time=0\n",
      "note_off channel=0 note=91 velocity=64 time=0\n",
      "note_on channel=0 note=100 velocity=55 time=0\n",
      "note_off channel=0 note=85 velocity=64 time=1\n",
      "note_off channel=0 note=56 velocity=64 time=1\n",
      "note_on channel=0 note=57 velocity=70 time=0\n",
      "note_off channel=0 note=72 velocity=64 time=0\n",
      "note_on channel=0 note=73 velocity=29 time=0\n",
      "note_off channel=0 note=76 velocity=64 time=0\n",
      "note_off channel=0 note=89 velocity=64 time=1\n",
      "note_on channel=0 note=101 velocity=36 time=0\n",
      "note_on channel=0 note=76 velocity=66 time=1\n",
      "note_on channel=0 note=83 velocity=44 time=0\n",
      "note_off channel=0 note=82 velocity=64 time=1\n",
      "note_on channel=0 note=56 velocity=74 time=1\n",
      "note_off channel=0 note=57 velocity=64 time=0\n",
      "note_on channel=0 note=68 velocity=79 time=0\n",
      "note_off channel=0 note=69 velocity=64 time=0\n",
      "note_off channel=0 note=73 velocity=64 time=0\n",
      "note_on channel=0 note=85 velocity=30 time=0\n",
      "note_off channel=0 note=56 velocity=64 time=1\n",
      "note_on channel=0 note=57 velocity=74 time=0\n",
      "note_off channel=0 note=68 velocity=64 time=0\n",
      "note_on channel=0 note=69 velocity=90 time=0\n",
      "note_on channel=0 note=84 velocity=29 time=0\n",
      "note_off channel=0 note=85 velocity=64 time=1\n",
      "note_off channel=0 note=96 velocity=64 time=0\n",
      "note_on channel=0 note=97 velocity=51 time=0\n",
      "note_off channel=0 note=84 velocity=64 time=1\n",
      "note_on channel=0 note=85 velocity=31 time=0\n",
      "note_on channel=0 note=96 velocity=58 time=0\n",
      "note_on channel=0 note=73 velocity=10 time=1\n",
      "note_off channel=0 note=76 velocity=64 time=0\n",
      "note_on channel=0 note=84 velocity=34 time=0\n",
      "note_off channel=0 note=90 velocity=64 time=0\n",
      "note_on channel=0 note=91 velocity=33 time=0\n",
      "note_on channel=0 note=94 velocity=40 time=0\n",
      "note_on channel=0 note=99 velocity=33 time=0\n",
      "note_off channel=0 note=57 velocity=64 time=1\n",
      "note_on channel=0 note=58 velocity=62 time=0\n",
      "note_on channel=0 note=76 velocity=47 time=0\n",
      "note_on channel=0 note=90 velocity=45 time=0\n",
      "note_off channel=0 note=100 velocity=64 time=1\n",
      "note_off channel=0 note=69 velocity=64 time=1\n",
      "note_on channel=0 note=70 velocity=75 time=0\n",
      "note_off channel=0 note=73 velocity=64 time=0\n",
      "note_off channel=0 note=76 velocity=64 time=0\n",
      "note_on channel=0 note=89 velocity=44 time=0\n",
      "note_off channel=0 note=98 velocity=64 time=0\n",
      "note_on channel=0 note=69 velocity=72 time=1\n",
      "note_off channel=0 note=70 velocity=64 time=0\n",
      "note_on channel=0 note=77 velocity=35 time=0\n",
      "note_on channel=0 note=57 velocity=63 time=1\n",
      "note_off channel=0 note=58 velocity=64 time=0\n",
      "note_off channel=0 note=93 velocity=64 time=1\n",
      "note_on channel=0 note=93 velocity=23 time=1\n",
      "note_off channel=0 note=94 velocity=64 time=0\n",
      "note_off channel=0 note=99 velocity=64 time=0\n",
      "note_off channel=0 note=85 velocity=64 time=2\n",
      "note_on channel=0 note=87 velocity=46 time=1\n",
      "note_off channel=0 note=96 velocity=64 time=0\n",
      "note_on channel=0 note=78 velocity=29 time=1\n",
      "note_on channel=0 note=86 velocity=13 time=0\n",
      "note_off channel=0 note=97 velocity=64 time=0\n",
      "note_off channel=0 note=102 velocity=64 time=0\n",
      "note_off channel=0 note=77 velocity=64 time=1\n",
      "note_off channel=0 note=101 velocity=64 time=0\n",
      "note_off channel=0 note=57 velocity=64 time=1\n",
      "note_off channel=0 note=69 velocity=64 time=0\n",
      "note_on channel=0 note=59 velocity=66 time=1\n",
      "note_off channel=0 note=91 velocity=64 time=0\n",
      "note_off channel=0 note=59 velocity=64 time=1\n",
      "note_on channel=0 note=77 velocity=38 time=0\n",
      "note_off channel=0 note=78 velocity=64 time=0\n",
      "note_on channel=0 note=82 velocity=68 time=0\n",
      "note_off channel=0 note=86 velocity=64 time=0\n",
      "note_on channel=0 note=96 velocity=50 time=0\n",
      "note_on channel=0 note=98 velocity=15 time=0\n",
      "note_on channel=0 note=60 velocity=65 time=1\n",
      "note_off channel=0 note=63 velocity=64 time=0\n",
      "note_on channel=0 note=68 velocity=48 time=0\n",
      "note_on channel=0 note=73 velocity=90 time=0\n",
      "note_on channel=0 note=79 velocity=41 time=0\n",
      "note_off channel=0 note=83 velocity=64 time=0\n",
      "note_on channel=0 note=91 velocity=42 time=0\n",
      "note_off channel=0 note=95 velocity=64 time=0\n",
      "note_on channel=0 note=56 velocity=48 time=1\n",
      "note_on channel=0 note=59 velocity=67 time=0\n",
      "note_off channel=0 note=60 velocity=64 time=0\n",
      "note_off channel=0 note=84 velocity=64 time=0\n",
      "note_off channel=0 note=89 velocity=64 time=0\n",
      "note_off channel=0 note=59 velocity=64 time=1\n",
      "note_on channel=0 note=61 velocity=83 time=0\n",
      "note_off channel=0 note=68 velocity=64 time=0\n",
      "note_on channel=0 note=69 velocity=33 time=0\n",
      "note_off channel=0 note=80 velocity=64 time=0\n",
      "note_on channel=0 note=89 velocity=78 time=0\n",
      "note_off channel=0 note=93 velocity=64 time=0\n",
      "note_off channel=0 note=96 velocity=64 time=0\n",
      "note_off channel=0 note=98 velocity=64 time=0\n",
      "note_off channel=0 note=56 velocity=64 time=1\n",
      "note_on channel=0 note=63 velocity=78 time=0\n",
      "note_on channel=0 note=78 velocity=18 time=0\n",
      "note_off channel=0 note=79 velocity=64 time=0\n",
      "note_on channel=0 note=80 velocity=87 time=0\n",
      "note_off channel=0 note=90 velocity=64 time=0\n",
      "note_on channel=0 note=60 velocity=83 time=1\n",
      "note_off channel=0 note=61 velocity=64 time=0\n",
      "note_off channel=0 note=63 velocity=64 time=0\n",
      "note_off channel=0 note=69 velocity=64 time=0\n",
      "note_off channel=0 note=77 velocity=64 time=0\n",
      "note_off channel=0 note=60 velocity=64 time=1\n",
      "note_on channel=0 note=63 velocity=88 time=0\n",
      "note_on channel=0 note=61 velocity=73 time=1\n",
      "note_on channel=0 note=77 velocity=25 time=0\n",
      "note_off channel=0 note=78 velocity=64 time=0\n",
      "note_on channel=0 note=93 velocity=13 time=0\n",
      "note_off channel=0 note=61 velocity=64 time=1\n",
      "note_off channel=0 note=91 velocity=64 time=0\n",
      "note_on channel=0 note=61 velocity=74 time=1\n",
      "note_on channel=0 note=91 velocity=9 time=0\n",
      "note_off channel=0 note=61 velocity=64 time=1\n",
      "note_on channel=0 note=49 velocity=20 time=1\n",
      "note_on channel=0 note=55 velocity=17 time=0\n",
      "note_off channel=0 note=49 velocity=64 time=3\n",
      "note_off channel=0 note=55 velocity=64 time=0\n",
      "note_on channel=0 note=61 velocity=70 time=0\n",
      "note_on channel=0 note=95 velocity=57 time=0\n",
      "note_off channel=0 note=61 velocity=64 time=1\n",
      "note_off channel=0 note=91 velocity=64 time=0\n",
      "note_on channel=0 note=61 velocity=84 time=1\n",
      "note_off channel=0 note=63 velocity=64 time=0\n",
      "note_on channel=0 note=71 velocity=26 time=1\n",
      "note_on channel=0 note=84 velocity=22 time=0\n",
      "note_off channel=0 note=93 velocity=64 time=1\n",
      "note_on channel=0 note=63 velocity=69 time=1\n",
      "note_off channel=0 note=63 velocity=64 time=1\n",
      "note_off channel=0 note=71 velocity=64 time=1\n",
      "note_on channel=0 note=63 velocity=69 time=1\n",
      "note_on channel=0 note=83 velocity=33 time=0\n",
      "note_off channel=0 note=63 velocity=64 time=1\n",
      "note_on channel=0 note=71 velocity=27 time=0\n",
      "note_off channel=0 note=82 velocity=64 time=0\n",
      "note_on channel=0 note=63 velocity=66 time=1\n",
      "note_off channel=0 note=84 velocity=64 time=0\n",
      "note_on channel=0 note=90 velocity=21 time=0\n",
      "note_on channel=0 note=60 velocity=78 time=1\n",
      "note_off channel=0 note=61 velocity=64 time=0\n",
      "note_off channel=0 note=63 velocity=64 time=0\n",
      "note_on channel=0 note=84 velocity=25 time=0\n",
      "note_off channel=0 note=60 velocity=64 time=1\n",
      "note_on channel=0 note=61 velocity=77 time=0\n",
      "note_off channel=0 note=71 velocity=64 time=0\n",
      "note_on channel=0 note=88 velocity=54 time=0\n",
      "note_on channel=0 note=93 velocity=20 time=0\n",
      "note_on channel=0 note=71 velocity=37 time=1\n",
      "note_off channel=0 note=89 velocity=64 time=0\n",
      "note_on channel=0 note=60 velocity=71 time=2\n",
      "note_off channel=0 note=61 velocity=64 time=0\n",
      "note_off channel=0 note=84 velocity=64 time=0\n",
      "note_off channel=0 note=60 velocity=64 time=1\n",
      "note_on channel=0 note=61 velocity=83 time=0\n",
      "note_off channel=0 note=71 velocity=64 time=0\n",
      "note_off channel=0 note=77 velocity=64 time=0\n",
      "note_on channel=0 note=89 velocity=67 time=0\n",
      "note_on channel=0 note=71 velocity=31 time=1\n",
      "note_off channel=0 note=88 velocity=64 time=0\n",
      "note_on channel=0 note=103 velocity=20 time=0\n",
      "note_on channel=0 note=63 velocity=69 time=1\n",
      "note_on channel=0 note=78 velocity=31 time=0\n",
      "note_off channel=0 note=90 velocity=64 time=0\n",
      "note_on channel=0 note=91 velocity=25 time=0\n",
      "note_off channel=0 note=63 velocity=64 time=1\n",
      "note_on channel=0 note=77 velocity=25 time=1\n",
      "note_off channel=0 note=78 velocity=64 time=0\n",
      "note_off channel=0 note=87 velocity=64 time=1\n",
      "note_on channel=0 note=90 velocity=26 time=0\n",
      "note_off channel=0 note=91 velocity=64 time=0\n",
      "note_on channel=0 note=88 velocity=43 time=1\n",
      "note_on channel=0 note=65 velocity=29 time=1\n",
      "note_on channel=0 note=82 velocity=36 time=0\n",
      "note_on channel=0 note=91 velocity=28 time=0\n",
      "note_off channel=0 note=83 velocity=64 time=1\n",
      "note_off channel=0 note=90 velocity=64 time=0\n",
      "note_off channel=0 note=88 velocity=64 time=2\n",
      "note_on channel=0 note=99 velocity=16 time=0\n",
      "note_off channel=0 note=71 velocity=64 time=1\n",
      "note_on channel=0 note=87 velocity=34 time=0\n",
      "note_on channel=0 note=90 velocity=63 time=0\n",
      "note_off channel=0 note=91 velocity=64 time=0\n",
      "note_off channel=0 note=103 velocity=64 time=0\n",
      "note_on channel=0 note=71 velocity=13 time=1\n",
      "note_on channel=0 note=88 velocity=39 time=1\n",
      "note_off channel=0 note=93 velocity=64 time=0\n",
      "note_off channel=0 note=89 velocity=64 time=1\n",
      "note_off channel=0 note=99 velocity=64 time=0\n",
      "note_off channel=0 note=71 velocity=64 time=1\n",
      "note_on channel=0 note=83 velocity=49 time=0\n",
      "note_on channel=0 note=89 velocity=27 time=0\n",
      "note_on channel=0 note=91 velocity=29 time=0\n",
      "note_off channel=0 note=82 velocity=64 time=1\n",
      "note_off channel=0 note=88 velocity=64 time=0\n",
      "note_on channel=0 note=94 velocity=47 time=0\n",
      "note_on channel=0 note=100 velocity=17 time=1\n",
      "note_on channel=0 note=51 velocity=11 time=1\n",
      "note_on channel=0 note=60 velocity=69 time=0\n",
      "note_off channel=0 note=61 velocity=64 time=0\n",
      "note_on channel=0 note=72 velocity=86 time=0\n",
      "note_off channel=0 note=73 velocity=64 time=0\n",
      "note_on channel=0 note=96 velocity=27 time=0\n",
      "note_on channel=0 note=88 velocity=37 time=1\n",
      "note_off channel=0 note=89 velocity=64 time=1\n",
      "note_off channel=0 note=51 velocity=64 time=1\n",
      "note_off channel=0 note=60 velocity=64 time=1\n",
      "note_on channel=0 note=61 velocity=80 time=0\n",
      "note_off channel=0 note=77 velocity=64 time=0\n",
      "note_on channel=0 note=78 velocity=11 time=0\n",
      "note_off channel=0 note=88 velocity=64 time=0\n",
      "note_off channel=0 note=65 velocity=64 time=1\n",
      "note_off channel=0 note=72 velocity=64 time=0\n",
      "note_on channel=0 note=73 velocity=85 time=0\n",
      "note_on channel=0 note=88 velocity=39 time=0\n",
      "note_off channel=0 note=91 velocity=64 time=0\n",
      "note_off channel=0 note=94 velocity=64 time=0\n",
      "note_off channel=0 note=96 velocity=64 time=0\n",
      "note_on channel=0 note=101 velocity=15 time=0\n",
      "note_on channel=0 note=91 velocity=29 time=1\n",
      "note_on channel=0 note=93 velocity=53 time=0\n",
      "note_off channel=0 note=100 velocity=64 time=0\n",
      "note_on channel=0 note=71 velocity=26 time=1\n",
      "note_off channel=0 note=78 velocity=64 time=0\n",
      "note_on channel=0 note=89 velocity=32 time=0\n",
      "note_on channel=0 note=72 velocity=47 time=2\n",
      "note_off channel=0 note=73 velocity=64 time=0\n",
      "note_on channel=0 note=74 velocity=79 time=0\n",
      "note_off channel=0 note=89 velocity=64 time=0\n",
      "note_off channel=0 note=71 velocity=64 time=1\n",
      "note_on channel=0 note=77 velocity=40 time=0\n",
      "note_off channel=0 note=91 velocity=64 time=0\n",
      "note_off channel=0 note=61 velocity=64 time=1\n",
      "note_on channel=0 note=62 velocity=86 time=0\n",
      "note_on channel=0 note=67 velocity=56 time=0\n",
      "note_on channel=0 note=71 velocity=45 time=0\n",
      "note_off channel=0 note=72 velocity=64 time=0\n",
      "note_on channel=0 note=91 velocity=13 time=0\n",
      "note_off channel=0 note=101 velocity=64 time=0\n",
      "note_off channel=0 note=80 velocity=64 time=1\n",
      "note_on channel=0 note=57 velocity=66 time=1\n",
      "note_off channel=0 note=67 velocity=64 time=0\n",
      "note_on channel=0 note=61 velocity=78 time=1\n",
      "note_off channel=0 note=62 velocity=64 time=0\n",
      "note_on channel=0 note=80 velocity=48 time=0\n",
      "note_off channel=0 note=88 velocity=64 time=0\n",
      "note_on channel=0 note=55 velocity=57 time=1\n",
      "note_off channel=0 note=57 velocity=64 time=0\n",
      "note_off channel=0 note=61 velocity=64 time=0\n",
      "note_on channel=0 note=62 velocity=67 time=0\n",
      "note_on channel=0 note=70 velocity=37 time=0\n",
      "note_off channel=0 note=71 velocity=64 time=0\n",
      "note_on channel=0 note=81 velocity=33 time=0\n",
      "note_off channel=0 note=87 velocity=64 time=0\n",
      "note_off channel=0 note=91 velocity=64 time=0\n",
      "note_off channel=0 note=62 velocity=64 time=1\n",
      "note_on channel=0 note=63 velocity=62 time=0\n",
      "note_on channel=0 note=68 velocity=28 time=0\n",
      "note_on channel=0 note=87 velocity=46 time=0\n",
      "note_on channel=0 note=89 velocity=40 time=0\n",
      "note_on channel=0 note=53 velocity=45 time=1\n",
      "note_off channel=0 note=55 velocity=64 time=0\n",
      "note_off channel=0 note=70 velocity=64 time=0\n",
      "note_off channel=0 note=81 velocity=64 time=0\n",
      "note_on channel=0 note=82 velocity=50 time=0\n",
      "note_on channel=0 note=91 velocity=18 time=1\n",
      "note_off channel=0 note=68 velocity=64 time=1\n",
      "note_off channel=0 note=74 velocity=64 time=0\n",
      "note_on channel=0 note=75 velocity=65 time=0\n",
      "note_off channel=0 note=53 velocity=64 time=1\n",
      "note_on channel=0 note=71 velocity=48 time=0\n",
      "note_off channel=0 note=77 velocity=64 time=0\n",
      "note_off channel=0 note=83 velocity=64 time=0\n",
      "note_off channel=0 note=63 velocity=64 time=1\n",
      "note_on channel=0 note=64 velocity=62 time=0\n",
      "note_on channel=0 note=68 velocity=42 time=0\n",
      "note_on channel=0 note=86 velocity=30 time=0\n",
      "note_off channel=0 note=75 velocity=64 time=1\n",
      "note_on channel=0 note=76 velocity=71 time=0\n",
      "note_off channel=0 note=82 velocity=64 time=0\n",
      "note_on channel=0 note=83 velocity=66 time=0\n",
      "note_on channel=0 note=75 velocity=56 time=1\n",
      "note_off channel=0 note=86 velocity=64 time=0\n",
      "note_off channel=0 note=93 velocity=64 time=0\n",
      "note_off channel=0 note=91 velocity=64 time=1\n",
      "note_off channel=0 note=75 velocity=64 time=1\n",
      "note_on channel=0 note=91 velocity=20 time=1\n",
      "note_on channel=0 note=96 velocity=18 time=0\n",
      "note_on channel=0 note=53 velocity=45 time=1\n",
      "note_on channel=0 note=75 velocity=61 time=0\n",
      "note_off channel=0 note=90 velocity=64 time=0\n",
      "note_on channel=0 note=90 velocity=56 time=1\n",
      "note_on channel=0 note=49 velocity=32 time=1\n",
      "note_on channel=0 note=62 velocity=73 time=0\n",
      "note_off channel=0 note=64 velocity=64 time=0\n",
      "note_off channel=0 note=76 velocity=64 time=0\n",
      "note_on channel=0 note=77 velocity=47 time=0\n",
      "note_on channel=0 note=82 velocity=34 time=0\n",
      "note_off channel=0 note=96 velocity=64 time=0\n",
      "note_off channel=0 note=53 velocity=64 time=1\n",
      "note_off channel=0 note=68 velocity=64 time=0\n",
      "note_off channel=0 note=75 velocity=64 time=0\n",
      "note_on channel=0 note=93 velocity=14 time=0\n",
      "note_off channel=0 note=49 velocity=64 time=1\n",
      "note_off channel=0 note=91 velocity=64 time=0\n",
      "note_on channel=0 note=52 velocity=27 time=1\n",
      "note_on channel=0 note=68 velocity=22 time=1\n",
      "note_off channel=0 note=82 velocity=64 time=0\n",
      "note_on channel=0 note=88 velocity=15 time=1\n",
      "note_off channel=0 note=89 velocity=64 time=0\n",
      "note_off channel=0 note=52 velocity=64 time=1\n",
      "note_off channel=0 note=93 velocity=64 time=0\n",
      "note_on channel=0 note=65 velocity=37 time=2\n",
      "note_on channel=0 note=93 velocity=50 time=0\n",
      "note_off channel=0 note=65 velocity=64 time=2\n",
      "note_off channel=0 note=68 velocity=64 time=0\n",
      "note_on channel=0 note=81 velocity=30 time=2\n",
      "note_on channel=0 note=45 velocity=77 time=1\n",
      "note_off channel=0 note=62 velocity=64 time=0\n",
      "note_on channel=0 note=64 velocity=81 time=0\n",
      "note_on channel=0 note=73 velocity=60 time=0\n",
      "note_on channel=0 note=79 velocity=47 time=0\n",
      "note_off channel=0 note=80 velocity=64 time=0\n",
      "note_off channel=0 note=88 velocity=64 time=0\n",
      "note_on channel=0 note=84 velocity=25 time=1\n",
      "note_on channel=0 note=92 velocity=32 time=0\n",
      "note_on channel=0 note=44 velocity=77 time=1\n",
      "note_off channel=0 note=45 velocity=64 time=0\n",
      "note_on channel=0 note=55 velocity=43 time=0\n",
      "note_on channel=0 note=61 velocity=92 time=0\n",
      "note_on channel=0 note=63 velocity=67 time=0\n",
      "note_off channel=0 note=64 velocity=64 time=0\n",
      "note_on channel=0 note=97 velocity=46 time=0\n",
      "note_off channel=0 note=63 velocity=64 time=1\n",
      "note_on channel=0 note=75 velocity=23 time=0\n",
      "note_off channel=0 note=79 velocity=64 time=0\n",
      "note_on channel=0 note=80 velocity=23 time=0\n",
      "note_off channel=0 note=81 velocity=64 time=0\n",
      "note_off channel=0 note=87 velocity=64 time=0\n",
      "note_off channel=0 note=90 velocity=64 time=0\n",
      "note_off channel=0 note=93 velocity=64 time=0\n",
      "note_off channel=0 note=55 velocity=64 time=1\n",
      "note_on channel=0 note=68 velocity=45 time=0\n",
      "note_off channel=0 note=44 velocity=64 time=1\n",
      "note_on channel=0 note=45 velocity=77 time=0\n",
      "note_on channel=0 note=65 velocity=36 time=0\n",
      "note_off channel=0 note=92 velocity=64 time=0\n",
      "note_off channel=0 note=95 velocity=64 time=1\n",
      "note_on channel=0 note=44 velocity=70 time=1\n",
      "note_off channel=0 note=45 velocity=64 time=0\n",
      "note_on channel=0 note=99 velocity=18 time=0\n",
      "note_off channel=0 note=65 velocity=64 time=1\n",
      "note_off channel=0 note=75 velocity=64 time=0\n",
      "note_off channel=0 note=84 velocity=64 time=0\n",
      "note_on channel=0 note=43 velocity=62 time=1\n",
      "note_off channel=0 note=44 velocity=64 time=0\n",
      "note_on channel=0 note=65 velocity=36 time=0\n",
      "note_off channel=0 note=73 velocity=64 time=0\n",
      "note_on channel=0 note=74 velocity=50 time=0\n",
      "note_off channel=0 note=80 velocity=64 time=1\n",
      "note_on channel=0 note=42 velocity=58 time=1\n",
      "note_off channel=0 note=43 velocity=64 time=0\n",
      "note_off channel=0 note=65 velocity=64 time=0\n",
      "note_off channel=0 note=74 velocity=64 time=0\n",
      "note_on channel=0 note=80 velocity=55 time=0\n",
      "note_on channel=0 note=65 velocity=53 time=1\n",
      "note_off channel=0 note=42 velocity=64 time=1\n",
      "note_off channel=0 note=71 velocity=64 time=2\n",
      "note_on channel=0 note=79 velocity=32 time=0\n",
      "note_on channel=0 note=87 velocity=30 time=0\n",
      "note_off channel=0 note=97 velocity=64 time=0\n",
      "note_on channel=0 note=48 velocity=75 time=1\n",
      "note_on channel=0 note=71 velocity=61 time=0\n",
      "note_off channel=0 note=99 velocity=64 time=0\n",
      "note_on channel=0 note=47 velocity=76 time=1\n",
      "note_off channel=0 note=48 velocity=64 time=0\n",
      "note_off channel=0 note=68 velocity=64 time=0\n",
      "note_off channel=0 note=47 velocity=64 time=1\n",
      "note_on channel=0 note=48 velocity=71 time=0\n",
      "note_off channel=0 note=61 velocity=64 time=0\n",
      "note_on channel=0 note=68 velocity=37 time=0\n",
      "note_on channel=0 note=75 velocity=34 time=0\n",
      "note_on channel=0 note=78 velocity=30 time=0\n",
      "note_off channel=0 note=79 velocity=64 time=0\n",
      "note_on channel=0 note=97 velocity=18 time=0\n",
      "note_off channel=0 note=48 velocity=64 time=1\n",
      "note_on channel=0 note=49 velocity=77 time=0\n",
      "note_on channel=0 note=59 velocity=55 time=0\n",
      "note_off channel=0 note=77 velocity=64 time=0\n",
      "note_off channel=0 note=49 velocity=64 time=1\n",
      "note_on channel=0 note=52 velocity=77 time=0\n",
      "note_off channel=0 note=52 velocity=64 time=1\n",
      "note_on channel=0 note=53 velocity=71 time=0\n",
      "note_off channel=0 note=59 velocity=64 time=0\n",
      "note_on channel=0 note=89 velocity=19 time=0\n",
      "note_on channel=0 note=93 velocity=15 time=0\n",
      "note_off channel=0 note=97 velocity=64 time=0\n",
      "note_off channel=0 note=53 velocity=64 time=1\n",
      "note_off channel=0 note=71 velocity=64 time=0\n",
      "note_on channel=0 note=72 velocity=52 time=0\n",
      "note_off channel=0 note=78 velocity=64 time=0\n",
      "note_on channel=0 note=53 velocity=61 time=1\n",
      "note_on channel=0 note=73 velocity=41 time=0\n",
      "note_on channel=0 note=71 velocity=40 time=1\n",
      "note_off channel=0 note=72 velocity=64 time=0\n",
      "note_off channel=0 note=93 velocity=64 time=0\n",
      "note_on channel=0 note=58 velocity=67 time=1\n",
      "note_off channel=0 note=53 velocity=64 time=2\n",
      "note_off channel=0 note=71 velocity=64 time=0\n",
      "note_off channel=0 note=68 velocity=64 time=1\n",
      "note_off channel=0 note=73 velocity=64 time=0\n",
      "note_on channel=0 note=90 velocity=37 time=0\n",
      "note_on channel=0 note=64 velocity=82 time=1\n",
      "note_off channel=0 note=65 velocity=64 time=0\n",
      "note_on channel=0 note=73 velocity=45 time=0\n",
      "note_off channel=0 note=89 velocity=64 time=0\n",
      "note_on channel=0 note=45 velocity=75 time=1\n",
      "note_on channel=0 note=68 velocity=63 time=0\n",
      "note_off channel=0 note=75 velocity=64 time=0\n",
      "note_on channel=0 note=44 velocity=79 time=1\n",
      "note_off channel=0 note=45 velocity=64 time=0\n",
      "note_on channel=0 note=63 velocity=72 time=0\n",
      "note_off channel=0 note=64 velocity=64 time=0\n",
      "note_on channel=0 note=77 velocity=61 time=0\n",
      "note_off channel=0 note=68 velocity=64 time=1\n",
      "note_off channel=0 note=83 velocity=64 time=0\n",
      "note_on channel=0 note=83 velocity=49 time=1\n",
      "note_off channel=0 note=90 velocity=64 time=0\n",
      "note_on channel=0 note=91 velocity=11 time=0\n",
      "note_off channel=0 note=63 velocity=64 time=1\n",
      "note_on channel=0 note=57 velocity=61 time=1\n",
      "note_off channel=0 note=58 velocity=64 time=0\n",
      "note_on channel=0 note=61 velocity=73 time=0\n",
      "note_on channel=0 note=65 velocity=41 time=0\n",
      "note_on channel=0 note=76 velocity=57 time=0\n",
      "note_off channel=0 note=77 velocity=64 time=0\n",
      "note_off channel=0 note=44 velocity=64 time=1\n",
      "note_on channel=0 note=69 velocity=63 time=0\n",
      "note_on channel=0 note=89 velocity=24 time=1\n",
      "note_on channel=0 note=82 velocity=38 time=1\n",
      "note_on channel=0 note=43 velocity=60 time=1\n",
      "note_off channel=0 note=69 velocity=64 time=0\n",
      "note_on channel=0 note=70 velocity=69 time=0\n",
      "note_off channel=0 note=57 velocity=64 time=1\n",
      "note_on channel=0 note=58 velocity=54 time=0\n",
      "note_on channel=0 note=75 velocity=31 time=0\n",
      "note_off channel=0 note=76 velocity=64 time=0\n",
      "note_on channel=0 note=77 velocity=50 time=0\n",
      "note_on channel=0 note=42 velocity=57 time=2\n",
      "note_off channel=0 note=43 velocity=64 time=0\n",
      "note_on channel=0 note=57 velocity=55 time=1\n",
      "note_off channel=0 note=58 velocity=64 time=0\n",
      "note_off channel=0 note=75 velocity=64 time=0\n",
      "note_on channel=0 note=76 velocity=50 time=0\n",
      "note_off channel=0 note=77 velocity=64 time=0\n",
      "note_off channel=0 note=82 velocity=64 time=0\n",
      "note_off channel=0 note=87 velocity=64 time=0\n",
      "note_on channel=0 note=69 velocity=68 time=1\n",
      "note_off channel=0 note=70 velocity=64 time=0\n",
      "note_off channel=0 note=89 velocity=64 time=0\n",
      "note_off channel=0 note=91 velocity=64 time=1\n",
      "note_on channel=0 note=56 velocity=54 time=1\n",
      "note_off channel=0 note=57 velocity=64 time=0\n",
      "note_on channel=0 note=71 velocity=39 time=0\n",
      "note_on channel=0 note=75 velocity=29 time=0\n",
      "note_on channel=0 note=90 velocity=39 time=0\n",
      "note_on channel=0 note=68 velocity=67 time=1\n",
      "note_off channel=0 note=69 velocity=64 time=0\n",
      "note_off channel=0 note=56 velocity=64 time=1\n",
      "note_off channel=0 note=76 velocity=64 time=0\n",
      "note_on channel=0 note=56 velocity=56 time=1\n",
      "note_off channel=0 note=71 velocity=64 time=1\n",
      "note_off channel=0 note=75 velocity=64 time=0\n",
      "note_on channel=0 note=76 velocity=29 time=0\n",
      "note_off channel=0 note=56 velocity=64 time=1\n",
      "note_on channel=0 note=57 velocity=57 time=0\n",
      "note_off channel=0 note=68 velocity=64 time=0\n",
      "note_on channel=0 note=69 velocity=66 time=0\n",
      "note_on channel=0 note=71 velocity=45 time=0\n",
      "note_off channel=0 note=80 velocity=64 time=0\n",
      "note_on channel=0 note=93 velocity=9 time=0\n",
      "note_on channel=0 note=80 velocity=85 time=1\n",
      "note_off channel=0 note=42 velocity=64 time=1\n",
      "note_on channel=0 note=56 velocity=58 time=0\n",
      "note_off channel=0 note=57 velocity=64 time=0\n",
      "note_on channel=0 note=75 velocity=27 time=0\n",
      "note_off channel=0 note=76 velocity=64 time=0\n",
      "note_on channel=0 note=87 velocity=45 time=0\n",
      "note_on channel=0 note=42 velocity=51 time=1\n",
      "note_on channel=0 note=68 velocity=68 time=0\n",
      "note_off channel=0 note=69 velocity=64 time=0\n",
      "note_off channel=0 note=93 velocity=64 time=0\n",
      "note_off channel=0 note=42 velocity=64 time=2\n",
      "note_off channel=0 note=75 velocity=64 time=0\n",
      "note_on channel=0 note=88 velocity=38 time=1\n",
      "note_on channel=0 note=89 velocity=70 time=0\n",
      "note_on channel=0 note=47 velocity=66 time=1\n",
      "note_off channel=0 note=65 velocity=64 time=0\n",
      "note_off channel=0 note=47 velocity=64 time=1\n",
      "note_on channel=0 note=48 velocity=86 time=0\n",
      "note_on channel=0 note=64 velocity=67 time=0\n",
      "note_off channel=0 note=68 velocity=64 time=0\n",
      "note_on channel=0 note=93 velocity=19 time=0\n",
      "note_on channel=0 note=55 velocity=61 time=1\n",
      "note_off channel=0 note=56 velocity=64 time=0\n",
      "note_on channel=0 note=68 velocity=43 time=0\n",
      "note_off channel=0 note=90 velocity=64 time=0\n",
      "note_on channel=0 note=91 velocity=18 time=0\n",
      "note_off channel=0 note=61 velocity=64 time=1\n",
      "note_off channel=0 note=64 velocity=64 time=0\n",
      "note_off channel=0 note=88 velocity=64 time=0\n",
      "note_off channel=0 note=48 velocity=64 time=1\n",
      "note_off channel=0 note=55 velocity=64 time=0\n",
      "note_on channel=0 note=56 velocity=57 time=0\n",
      "note_off channel=0 note=68 velocity=64 time=0\n",
      "note_on channel=0 note=75 velocity=20 time=0\n",
      "note_off channel=0 note=93 velocity=64 time=0\n",
      "note_on channel=0 note=68 velocity=67 time=1\n",
      "note_off channel=0 note=83 velocity=64 time=0\n",
      "note_off channel=0 note=91 velocity=64 time=0\n",
      "note_on channel=0 note=96 velocity=29 time=0\n",
      "note_on channel=0 note=65 velocity=47 time=1\n",
      "note_on channel=0 note=94 velocity=11 time=0\n",
      "note_on channel=0 note=49 velocity=48 time=1\n",
      "note_off channel=0 note=49 velocity=64 time=2\n",
      "note_off channel=0 note=56 velocity=64 time=0\n",
      "note_on channel=0 note=57 velocity=56 time=0\n",
      "note_off channel=0 note=68 velocity=64 time=0\n",
      "note_on channel=0 note=69 velocity=60 time=0\n",
      "note_off channel=0 note=94 velocity=64 time=1\n",
      "note_off channel=0 note=96 velocity=64 time=0\n",
      "note_on channel=0 note=56 velocity=62 time=1\n",
      "note_off channel=0 note=57 velocity=64 time=0\n",
      "note_on channel=0 note=61 velocity=14 time=0\n",
      "note_on channel=0 note=68 velocity=69 time=0\n",
      "note_off channel=0 note=69 velocity=64 time=0\n",
      "note_on channel=0 note=44 velocity=35 time=1\n",
      "note_off channel=0 note=89 velocity=64 time=0\n",
      "note_off channel=0 note=56 velocity=64 time=1\n",
      "note_on channel=0 note=57 velocity=64 time=0\n",
      "note_off channel=0 note=68 velocity=64 time=0\n",
      "note_on channel=0 note=69 velocity=72 time=0\n",
      "note_off channel=0 note=71 velocity=64 time=0\n",
      "note_off channel=0 note=75 velocity=64 time=0\n",
      "note_on channel=0 note=100 velocity=12 time=0\n",
      "note_off channel=0 note=44 velocity=64 time=3\n",
      "note_on channel=0 note=89 velocity=67 time=0\n",
      "note_on channel=0 note=91 velocity=16 time=0\n",
      "note_off channel=0 note=100 velocity=64 time=0\n",
      "note_off channel=0 note=61 velocity=64 time=1\n",
      "note_on channel=0 note=71 velocity=35 time=1\n",
      "note_on channel=0 note=56 velocity=57 time=1\n",
      "note_off channel=0 note=57 velocity=64 time=0\n",
      "note_on channel=0 note=68 velocity=59 time=0\n",
      "note_off channel=0 note=69 velocity=64 time=0\n",
      "note_on channel=0 note=75 velocity=13 time=0\n",
      "note_off channel=0 note=91 velocity=64 time=2\n",
      "note_off channel=0 note=75 velocity=64 time=1\n",
      "note_off channel=0 note=56 velocity=64 time=1\n",
      "note_on channel=0 note=53 velocity=29 time=1\n",
      "note_off channel=0 note=53 velocity=64 time=2\n",
      "note_on channel=0 note=91 velocity=34 time=1\n",
      "note_on channel=0 note=61 velocity=59 time=2\n",
      "note_off channel=0 note=65 velocity=64 time=0\n",
      "note_off channel=0 note=73 velocity=64 time=0\n",
      "note_on channel=0 note=84 velocity=42 time=0\n",
      "note_on channel=0 note=94 velocity=36 time=0\n",
      "note_on channel=0 note=46 velocity=69 time=1\n",
      "note_off channel=0 note=68 velocity=64 time=0\n",
      "note_on channel=0 note=69 velocity=37 time=0\n",
      "note_on channel=0 note=77 velocity=75 time=0\n",
      "note_on channel=0 note=85 velocity=33 time=0\n",
      "note_on channel=0 note=95 velocity=44 time=0\n",
      "note_on channel=0 note=102 velocity=9 time=0\n",
      "note_on channel=0 note=45 velocity=77 time=1\n",
      "note_off channel=0 note=46 velocity=64 time=0\n",
      "note_on channel=0 note=56 velocity=39 time=0\n",
      "note_off channel=0 note=61 velocity=64 time=0\n",
      "note_off channel=0 note=71 velocity=64 time=0\n",
      "note_on channel=0 note=73 velocity=25 time=0\n",
      "note_on channel=0 note=75 velocity=48 time=0\n",
      "note_on channel=0 note=90 velocity=27 time=0\n",
      "note_off channel=0 note=94 velocity=64 time=0\n",
      "note_on channel=0 note=44 velocity=77 time=1\n",
      "note_off channel=0 note=45 velocity=64 time=0\n",
      "note_on channel=0 note=65 velocity=52 time=0\n",
      "note_off channel=0 note=56 velocity=64 time=1\n",
      "note_off channel=0 note=102 velocity=64 time=0\n",
      "note_off channel=0 note=87 velocity=64 time=1\n",
      "note_off channel=0 note=90 velocity=64 time=0\n",
      "note_off channel=0 note=95 velocity=64 time=0\n",
      "note_on channel=0 note=43 velocity=73 time=1\n",
      "note_off channel=0 note=44 velocity=64 time=0\n",
      "note_off channel=0 note=69 velocity=64 time=0\n",
      "note_on channel=0 note=71 velocity=9 time=0\n",
      "note_on channel=0 note=68 velocity=27 time=1\n",
      "note_on channel=0 note=61 velocity=51 time=1\n",
      "note_off channel=0 note=84 velocity=64 time=0\n",
      "note_off channel=0 note=71 velocity=64 time=2\n",
      "note_off channel=0 note=75 velocity=64 time=2\n",
      "note_off channel=0 note=43 velocity=64 time=1\n",
      "note_on channel=0 note=44 velocity=23 time=0\n",
      "note_on channel=0 note=82 velocity=31 time=0\n",
      "note_off channel=0 note=85 velocity=64 time=2\n",
      "note_on channel=0 note=71 velocity=20 time=2\n",
      "note_off channel=0 note=44 velocity=64 time=1\n",
      "note_on channel=0 note=84 velocity=21 time=0\n",
      "note_on channel=0 note=75 velocity=9 time=1\n",
      "note_on channel=0 note=88 velocity=29 time=0\n",
      "note_off channel=0 note=89 velocity=64 time=1\n",
      "note_on channel=0 note=55 velocity=66 time=3\n",
      "note_off channel=0 note=75 velocity=64 time=0\n",
      "note_off channel=0 note=68 velocity=64 time=1\n",
      "note_off channel=0 note=65 velocity=64 time=1\n",
      "note_on channel=0 note=65 velocity=62 time=1\n",
      "note_off channel=0 note=55 velocity=64 time=2\n",
      "note_on channel=0 note=53 velocity=66 time=1\n",
      "note_off channel=0 note=73 velocity=64 time=0\n",
      "note_on channel=0 note=74 velocity=29 time=0\n",
      "note_on channel=0 note=90 velocity=37 time=0\n",
      "note_on channel=0 note=52 velocity=71 time=1\n",
      "note_off channel=0 note=53 velocity=64 time=0\n",
      "note_off channel=0 note=61 velocity=64 time=0\n",
      "note_on channel=0 note=64 velocity=83 time=0\n",
      "note_off channel=0 note=65 velocity=64 time=0\n",
      "note_off channel=0 note=71 velocity=64 time=0\n",
      "note_on channel=0 note=87 velocity=20 time=0\n",
      "note_on channel=0 note=45 velocity=76 time=1\n",
      "note_off channel=0 note=52 velocity=64 time=0\n",
      "note_on channel=0 note=53 velocity=72 time=0\n",
      "note_on channel=0 note=73 velocity=36 time=0\n",
      "note_off channel=0 note=88 velocity=64 time=0\n",
      "note_on channel=0 note=44 velocity=78 time=1\n",
      "note_off channel=0 note=45 velocity=64 time=0\n",
      "note_on channel=0 note=63 velocity=75 time=0\n",
      "note_off channel=0 note=64 velocity=64 time=0\n",
      "note_off channel=0 note=74 velocity=64 time=0\n",
      "note_off channel=0 note=84 velocity=64 time=0\n",
      "note_on channel=0 note=95 velocity=61 time=0\n",
      "note_on channel=0 note=52 velocity=70 time=1\n",
      "note_off channel=0 note=53 velocity=64 time=0\n",
      "note_on channel=0 note=69 velocity=30 time=0\n",
      "note_off channel=0 note=52 velocity=64 time=1\n",
      "note_on channel=0 note=53 velocity=71 time=0\n",
      "note_on channel=0 note=66 velocity=59 time=0\n",
      "note_on channel=0 note=84 velocity=29 time=0\n",
      "note_off channel=0 note=53 velocity=64 time=1\n",
      "note_on channel=0 note=54 velocity=72 time=0\n",
      "note_off channel=0 note=63 velocity=64 time=0\n",
      "note_off channel=0 note=69 velocity=64 time=0\n",
      "note_off channel=0 note=90 velocity=64 time=0\n",
      "note_off channel=0 note=54 velocity=64 time=1\n",
      "note_on channel=0 note=55 velocity=76 time=0\n",
      "note_on channel=0 note=61 velocity=40 time=0\n",
      "note_off channel=0 note=66 velocity=64 time=0\n",
      "note_on channel=0 note=67 velocity=78 time=0\n",
      "note_on channel=0 note=75 velocity=21 time=0\n",
      "note_on channel=0 note=93 velocity=41 time=0\n",
      "note_on channel=0 note=97 velocity=40 time=0\n",
      "note_on channel=0 note=100 velocity=37 time=0\n",
      "note_off channel=0 note=44 velocity=64 time=1\n",
      "note_on channel=0 note=102 velocity=24 time=0\n",
      "note_on channel=0 note=86 velocity=10 time=1\n",
      "note_off channel=0 note=93 velocity=64 time=0\n",
      "note_on channel=0 note=94 velocity=48 time=0\n",
      "note_off channel=0 note=61 velocity=64 time=1\n",
      "note_off channel=0 note=67 velocity=64 time=0\n",
      "note_on channel=0 note=68 velocity=83 time=0\n",
      "note_off channel=0 note=87 velocity=64 time=0\n",
      "note_on channel=0 note=99 velocity=31 time=0\n",
      "note_on channel=0 note=61 velocity=61 time=1\n",
      "note_on channel=0 note=71 velocity=13 time=0\n",
      "note_off channel=0 note=75 velocity=64 time=0\n",
      "note_on channel=0 note=96 velocity=65 time=0\n",
      "note_on channel=0 note=43 velocity=58 time=1\n",
      "note_off channel=0 note=55 velocity=64 time=0\n",
      "note_on channel=0 note=56 velocity=72 time=0\n",
      "note_on channel=0 note=75 velocity=21 time=0\n",
      "note_off channel=0 note=102 velocity=64 time=0\n",
      "note_off channel=0 note=95 velocity=64 time=1\n",
      "note_off channel=0 note=43 velocity=64 time=1\n",
      "note_on channel=0 note=55 velocity=71 time=0\n",
      "note_off channel=0 note=56 velocity=64 time=0\n",
      "note_off channel=0 note=96 velocity=64 time=0\n",
      "note_on channel=0 note=48 velocity=70 time=1\n",
      "note_off channel=0 note=55 velocity=64 time=0\n",
      "note_on channel=0 note=56 velocity=77 time=0\n",
      "note_on channel=0 note=96 velocity=60 time=0\n",
      "note_off channel=0 note=86 velocity=64 time=1\n",
      "note_on channel=0 note=55 velocity=74 time=1\n",
      "note_off channel=0 note=56 velocity=64 time=0\n",
      "note_on channel=0 note=47 velocity=73 time=1\n",
      "note_off channel=0 note=48 velocity=64 time=0\n",
      "note_off channel=0 note=55 velocity=64 time=0\n",
      "note_on channel=0 note=56 velocity=70 time=0\n",
      "note_off channel=0 note=47 velocity=64 time=1\n",
      "note_on channel=0 note=48 velocity=68 time=0\n",
      "note_off channel=0 note=71 velocity=64 time=0\n",
      "note_off channel=0 note=48 velocity=64 time=1\n",
      "note_on channel=0 note=49 velocity=67 time=0\n",
      "note_on channel=0 note=55 velocity=66 time=0\n",
      "note_off channel=0 note=56 velocity=64 time=0\n",
      "note_off channel=0 note=100 velocity=64 time=0\n",
      "note_off channel=0 note=49 velocity=64 time=1\n",
      "note_on channel=0 note=50 velocity=75 time=0\n",
      "note_off channel=0 note=55 velocity=64 time=0\n",
      "note_on channel=0 note=87 velocity=24 time=0\n",
      "note_off channel=0 note=50 velocity=64 time=1\n",
      "note_on channel=0 note=53 velocity=71 time=0\n",
      "note_off channel=0 note=68 velocity=64 time=0\n",
      "note_on channel=0 note=69 velocity=65 time=0\n",
      "note_off channel=0 note=75 velocity=64 time=0\n",
      "note_off channel=0 note=96 velocity=64 time=0\n",
      "note_off channel=0 note=97 velocity=64 time=0\n",
      "note_off channel=0 note=99 velocity=64 time=0\n",
      "note_off channel=0 note=91 velocity=64 time=1\n",
      "note_off channel=0 note=53 velocity=64 time=1\n",
      "note_on channel=0 note=65 velocity=20 time=1\n",
      "note_on channel=0 note=55 velocity=63 time=1\n",
      "note_off channel=0 note=69 velocity=64 time=0\n",
      "note_on channel=0 note=93 velocity=61 time=0\n",
      "note_off channel=0 note=94 velocity=64 time=0\n",
      "note_on channel=0 note=95 velocity=34 time=0\n",
      "note_off channel=0 note=61 velocity=64 time=1\n",
      "note_on channel=0 note=69 velocity=81 time=0\n",
      "note_on channel=0 note=88 velocity=48 time=0\n",
      "note_on channel=0 note=91 velocity=48 time=0\n",
      "note_on channel=0 note=102 velocity=39 time=0\n",
      "note_off channel=0 note=55 velocity=64 time=1\n",
      "note_on channel=0 note=57 velocity=73 time=1\n",
      "note_off channel=0 note=73 velocity=64 time=0\n",
      "note_on channel=0 note=90 velocity=44 time=0\n",
      "note_on channel=0 note=99 velocity=33 time=0\n",
      "note_on channel=0 note=64 velocity=80 time=1\n",
      "note_off channel=0 note=65 velocity=64 time=0\n",
      "note_on channel=0 note=73 velocity=50 time=0\n",
      "note_on channel=0 note=83 velocity=35 time=0\n",
      "note_on channel=0 note=46 velocity=69 time=1\n",
      "note_off channel=0 note=77 velocity=64 time=0\n",
      "note_off channel=0 note=80 velocity=64 time=0\n",
      "note_off channel=0 note=82 velocity=64 time=0\n",
      "note_on channel=0 note=45 velocity=76 time=1\n",
      "note_off channel=0 note=46 velocity=64 time=0\n",
      "note_on channel=0 note=80 velocity=34 time=0\n",
      "note_off channel=0 note=83 velocity=64 time=0\n",
      "note_on channel=0 note=44 velocity=78 time=1\n",
      "note_off channel=0 note=45 velocity=64 time=0\n",
      "note_off channel=0 note=57 velocity=64 time=0\n",
      "note_on channel=0 note=58 velocity=57 time=0\n",
      "note_on channel=0 note=63 velocity=68 time=0\n",
      "note_off channel=0 note=64 velocity=64 time=0\n",
      "note_off channel=0 note=87 velocity=64 time=0\n",
      "note_off channel=0 note=95 velocity=64 time=0\n",
      "note_on channel=0 note=77 velocity=78 time=1\n",
      "note_off channel=0 note=93 velocity=64 time=0\n",
      "note_on channel=0 note=94 velocity=68 time=0\n",
      "note_on channel=0 note=57 velocity=58 time=1\n",
      "note_off channel=0 note=58 velocity=64 time=0\n",
      "note_off channel=0 note=69 velocity=64 time=0\n",
      "note_on channel=0 note=70 velocity=77 time=0\n",
      "note_on channel=0 note=76 velocity=76 time=0\n",
      "note_off channel=0 note=77 velocity=64 time=0\n",
      "note_on channel=0 note=87 velocity=10 time=0\n",
      "note_on channel=0 note=95 velocity=42 time=0\n",
      "note_off channel=0 note=44 velocity=64 time=1\n",
      "note_on channel=0 note=45 velocity=75 time=0\n",
      "note_on channel=0 note=61 velocity=41 time=0\n",
      "note_off channel=0 note=63 velocity=64 time=0\n",
      "note_on channel=0 note=69 velocity=78 time=0\n",
      "note_off channel=0 note=70 velocity=64 time=0\n",
      "note_on channel=0 note=65 velocity=34 time=1\n",
      "note_on channel=0 note=82 velocity=30 time=0\n",
      "note_on channel=0 note=93 velocity=61 time=0\n",
      "note_off channel=0 note=94 velocity=64 time=0\n",
      "note_on channel=0 note=44 velocity=70 time=1\n",
      "note_off channel=0 note=45 velocity=64 time=0\n",
      "note_off channel=0 note=87 velocity=64 time=0\n",
      "note_on channel=0 note=89 velocity=32 time=1\n",
      "note_off channel=0 note=44 velocity=64 time=1\n",
      "note_on channel=0 note=56 velocity=63 time=0\n",
      "note_off channel=0 note=57 velocity=64 time=0\n",
      "note_off channel=0 note=61 velocity=64 time=0\n",
      "note_off channel=0 note=76 velocity=64 time=0\n",
      "note_on channel=0 note=77 velocity=45 time=0\n",
      "note_off channel=0 note=88 velocity=64 time=0\n",
      "note_on channel=0 note=42 velocity=59 time=1\n",
      "note_on channel=0 note=61 velocity=60 time=0\n",
      "note_off channel=0 note=99 velocity=64 time=0\n",
      "note_off channel=0 note=102 velocity=64 time=0\n",
      "note_on channel=0 note=55 velocity=67 time=1\n",
      "note_off channel=0 note=56 velocity=64 time=0\n",
      "note_off channel=0 note=69 velocity=64 time=0\n",
      "note_off channel=0 note=80 velocity=64 time=0\n",
      "note_on channel=0 note=88 velocity=29 time=0\n",
      "note_off channel=0 note=89 velocity=64 time=0\n",
      "note_off channel=0 note=42 velocity=64 time=1\n",
      "note_off channel=0 note=65 velocity=64 time=0\n",
      "note_on channel=0 note=69 velocity=30 time=0\n",
      "note_on channel=0 note=71 velocity=27 time=0\n",
      "note_off channel=0 note=77 velocity=64 time=0\n",
      "note_on channel=0 note=78 velocity=16 time=0\n",
      "note_on channel=0 note=87 velocity=44 time=0\n",
      "note_on channel=0 note=54 velocity=66 time=1\n",
      "note_off channel=0 note=55 velocity=64 time=0\n",
      "note_on channel=0 note=65 velocity=45 time=0\n",
      "note_on channel=0 note=75 velocity=46 time=0\n",
      "note_on channel=0 note=77 velocity=48 time=0\n",
      "note_off channel=0 note=93 velocity=64 time=0\n",
      "note_on channel=0 note=68 velocity=53 time=1\n",
      "note_off channel=0 note=69 velocity=64 time=0\n",
      "note_off channel=0 note=54 velocity=64 time=1\n",
      "note_off channel=0 note=78 velocity=64 time=0\n",
      "note_on channel=0 note=86 velocity=12 time=0\n",
      "note_off channel=0 note=88 velocity=64 time=0\n",
      "note_on channel=0 note=47 velocity=71 time=1\n",
      "note_off channel=0 note=84 velocity=64 time=0\n",
      "note_on channel=0 note=88 velocity=29 time=0\n",
      "note_off channel=0 note=91 velocity=64 time=0\n",
      "note_off channel=0 note=71 velocity=64 time=1\n",
      "note_on channel=0 note=91 velocity=27 time=0\n",
      "note_off channel=0 note=47 velocity=64 time=1\n",
      "note_on channel=0 note=48 velocity=67 time=0\n",
      "note_off channel=0 note=86 velocity=64 time=0\n",
      "note_off channel=0 note=48 velocity=64 time=1\n",
      "note_on channel=0 note=49 velocity=75 time=0\n",
      "note_on channel=0 note=94 velocity=39 time=0\n",
      "note_on channel=0 note=96 velocity=10 time=0\n",
      "note_off channel=0 note=49 velocity=64 time=1\n",
      "note_on channel=0 note=53 velocity=75 time=0\n",
      "note_on channel=0 note=57 velocity=66 time=0\n",
      "note_off channel=0 note=61 velocity=64 time=0\n",
      "note_off channel=0 note=68 velocity=64 time=0\n",
      "note_on channel=0 note=101 velocity=22 time=0\n",
      "note_off channel=0 note=57 velocity=64 time=1\n",
      "note_on channel=0 note=58 velocity=72 time=0\n",
      "note_on channel=0 note=83 velocity=57 time=0\n",
      "note_off channel=0 note=82 velocity=64 time=1\n",
      "note_on channel=0 note=92 velocity=29 time=0\n",
      "note_off channel=0 note=95 velocity=64 time=0\n",
      "note_off channel=0 note=53 velocity=64 time=1\n",
      "note_on channel=0 note=68 velocity=33 time=0\n",
      "note_on channel=0 note=71 velocity=72 time=0\n",
      "note_off channel=0 note=96 velocity=64 time=0\n",
      "note_on channel=0 note=53 velocity=59 time=1\n",
      "note_off channel=0 note=58 velocity=64 time=0\n",
      "note_on channel=0 note=59 velocity=66 time=0\n",
      "note_on channel=0 note=89 velocity=68 time=0\n",
      "note_off channel=0 note=92 velocity=64 time=0\n",
      "note_on channel=0 note=93 velocity=73 time=0\n",
      "note_off channel=0 note=94 velocity=64 time=0\n",
      "note_off channel=0 note=88 velocity=64 time=1\n",
      "note_off channel=0 note=101 velocity=64 time=0\n",
      "note_off channel=0 note=53 velocity=64 time=1\n",
      "note_off channel=0 note=77 velocity=64 time=0\n",
      "note_on channel=0 note=78 velocity=55 time=0\n",
      "note_on channel=0 note=80 velocity=84 time=0\n",
      "note_on channel=0 note=96 velocity=29 time=0\n",
      "note_off channel=0 note=91 velocity=64 time=1\n",
      "note_on channel=0 note=48 velocity=88 time=1\n",
      "note_off channel=0 note=65 velocity=64 time=0\n",
      "note_on channel=0 note=88 velocity=37 time=0\n",
      "note_on channel=0 note=63 velocity=55 time=1\n",
      "note_on channel=0 note=67 velocity=49 time=0\n",
      "note_off channel=0 note=68 velocity=64 time=0\n",
      "note_off channel=0 note=73 velocity=64 time=0\n",
      "note_off channel=0 note=75 velocity=64 time=1\n",
      "note_off channel=0 note=88 velocity=64 time=1\n",
      "note_on channel=0 note=91 velocity=29 time=0\n",
      "note_on channel=0 note=46 velocity=68 time=1\n",
      "note_off channel=0 note=48 velocity=64 time=0\n",
      "note_off channel=0 note=63 velocity=64 time=0\n",
      "note_off channel=0 note=96 velocity=64 time=0\n",
      "note_off channel=0 note=59 velocity=64 time=1\n",
      "note_on channel=0 note=65 velocity=34 time=0\n",
      "note_off channel=0 note=67 velocity=64 time=0\n",
      "note_on channel=0 note=68 velocity=24 time=0\n",
      "note_off channel=0 note=91 velocity=64 time=0\n",
      "note_off channel=0 note=46 velocity=64 time=1\n",
      "note_on channel=0 note=48 velocity=69 time=0\n",
      "note_on channel=0 note=59 velocity=54 time=0\n",
      "note_off channel=0 note=48 velocity=64 time=2\n",
      "note_on channel=0 note=73 velocity=48 time=0\n",
      "note_on channel=0 note=84 velocity=20 time=0\n",
      "note_on channel=0 note=91 velocity=31 time=0\n",
      "note_off channel=0 note=59 velocity=64 time=1\n",
      "note_on channel=0 note=60 velocity=62 time=0\n",
      "note_off channel=0 note=68 velocity=64 time=0\n",
      "note_off channel=0 note=78 velocity=64 time=0\n",
      "note_on channel=0 note=45 velocity=58 time=1\n",
      "note_off channel=0 note=71 velocity=64 time=0\n",
      "note_on channel=0 note=72 velocity=77 time=0\n",
      "note_off channel=0 note=73 velocity=64 time=0\n",
      "note_on channel=0 note=85 velocity=39 time=0\n",
      "note_on channel=0 note=94 velocity=49 time=0\n",
      "note_off channel=0 note=60 velocity=64 time=1\n",
      "note_on channel=0 note=61 velocity=80 time=0\n",
      "note_on channel=0 note=44 velocity=49 time=1\n",
      "note_off channel=0 note=45 velocity=64 time=0\n",
      "note_off channel=0 note=72 velocity=64 time=0\n",
      "note_on channel=0 note=73 velocity=83 time=0\n",
      "note_off channel=0 note=65 velocity=64 time=2\n",
      "note_off channel=0 note=94 velocity=64 time=0\n",
      "note_on channel=0 note=95 velocity=59 time=0\n",
      "note_on channel=0 note=54 velocity=22 time=1\n",
      "note_off channel=0 note=91 velocity=64 time=0\n",
      "note_on channel=0 note=43 velocity=32 time=1\n",
      "note_off channel=0 note=44 velocity=64 time=0\n",
      "note_on channel=0 note=88 velocity=31 time=0\n",
      "note_on channel=0 note=91 velocity=52 time=0\n",
      "note_on channel=0 note=71 velocity=19 time=1\n",
      "note_on channel=0 note=77 velocity=19 time=0\n",
      "note_off channel=0 note=90 velocity=64 time=0\n",
      "note_off channel=0 note=88 velocity=64 time=1\n",
      "note_on channel=0 note=90 velocity=28 time=0\n",
      "note_off channel=0 note=54 velocity=64 time=1\n",
      "note_on channel=0 note=82 velocity=38 time=0\n",
      "note_on channel=0 note=54 velocity=23 time=1\n",
      "note_on channel=0 note=78 velocity=13 time=0\n",
      "note_off channel=0 note=83 velocity=64 time=0\n",
      "note_off channel=0 note=43 velocity=64 time=1\n",
      "note_off channel=0 note=71 velocity=64 time=0\n",
      "note_off channel=0 note=77 velocity=64 time=0\n",
      "note_on channel=0 note=42 velocity=22 time=2\n",
      "note_off channel=0 note=54 velocity=64 time=0\n",
      "note_on channel=0 note=72 velocity=66 time=0\n",
      "note_off channel=0 note=73 velocity=64 time=0\n",
      "note_off channel=0 note=61 velocity=64 time=1\n",
      "note_on channel=0 note=75 velocity=18 time=0\n",
      "note_on channel=0 note=77 velocity=40 time=0\n",
      "note_off channel=0 note=78 velocity=64 time=0\n",
      "note_on channel=0 note=59 velocity=62 time=1\n",
      "note_off channel=0 note=72 velocity=64 time=0\n",
      "note_on channel=0 note=73 velocity=43 time=0\n",
      "note_off channel=0 note=95 velocity=64 time=0\n",
      "note_off channel=0 note=42 velocity=64 time=2\n",
      "note_on channel=0 note=58 velocity=66 time=0\n",
      "note_off channel=0 note=59 velocity=64 time=0\n",
      "note_on channel=0 note=83 velocity=43 time=1\n",
      "note_off channel=0 note=58 velocity=64 time=1\n",
      "note_on channel=0 note=59 velocity=63 time=0\n",
      "note_off channel=0 note=75 velocity=64 time=0\n",
      "note_off channel=0 note=82 velocity=64 time=0\n",
      "note_on channel=0 note=66 velocity=45 time=1\n",
      "note_on channel=0 note=69 velocity=42 time=0\n",
      "note_off channel=0 note=73 velocity=64 time=0\n",
      "note_on channel=0 note=75 velocity=47 time=0\n",
      "note_off channel=0 note=84 velocity=64 time=0\n",
      "note_off channel=0 note=90 velocity=64 time=0\n",
      "note_on channel=0 note=94 velocity=43 time=0\n",
      "note_on channel=0 note=96 velocity=18 time=0\n",
      "note_on channel=0 note=102 velocity=10 time=0\n",
      "note_on channel=0 note=45 velocity=76 time=1\n",
      "note_on channel=0 note=84 velocity=44 time=0\n",
      "note_on channel=0 note=90 velocity=41 time=0\n",
      "note_off channel=0 note=59 velocity=64 time=1\n",
      "note_on channel=0 note=60 velocity=61 time=0\n",
      "note_on channel=0 note=63 velocity=40 time=0\n",
      "note_off channel=0 note=66 velocity=64 time=0\n",
      "note_on channel=0 note=67 velocity=43 time=0\n",
      "note_on channel=0 note=72 velocity=65 time=0\n",
      "note_off channel=0 note=93 velocity=64 time=0\n",
      "note_on channel=0 note=44 velocity=76 time=1\n",
      "note_off channel=0 note=45 velocity=64 time=0\n",
      "note_off channel=0 note=102 velocity=64 time=0\n",
      "note_off channel=0 note=63 velocity=64 time=1\n",
      "note_off channel=0 note=69 velocity=64 time=0\n",
      "note_off channel=0 note=90 velocity=64 time=0\n",
      "note_off channel=0 note=96 velocity=64 time=0\n",
      "note_on channel=0 note=43 velocity=74 time=1\n",
      "note_off channel=0 note=44 velocity=64 time=0\n",
      "note_on channel=0 note=88 velocity=50 time=0\n",
      "note_on channel=0 note=82 velocity=34 time=1\n",
      "note_off channel=0 note=84 velocity=64 time=0\n",
      "note_on channel=0 note=90 velocity=42 time=0\n",
      "note_off channel=0 note=94 velocity=64 time=0\n",
      "note_on channel=0 note=59 velocity=55 time=1\n",
      "note_off channel=0 note=60 velocity=64 time=0\n",
      "note_on channel=0 note=71 velocity=64 time=0\n",
      "note_off channel=0 note=72 velocity=64 time=0\n",
      "note_on channel=0 note=79 velocity=45 time=0\n",
      "note_off channel=0 note=91 velocity=64 time=0\n",
      "note_on channel=0 note=65 velocity=31 time=1\n",
      "note_off channel=0 note=67 velocity=64 time=0\n",
      "note_off channel=0 note=77 velocity=64 time=0\n",
      "note_on channel=0 note=58 velocity=62 time=1\n",
      "note_off channel=0 note=59 velocity=64 time=0\n",
      "note_on channel=0 note=77 velocity=58 time=0\n",
      "note_off channel=0 note=79 velocity=64 time=0\n",
      "note_off channel=0 note=90 velocity=64 time=0\n",
      "note_on channel=0 note=70 velocity=62 time=1\n",
      "note_off channel=0 note=71 velocity=64 time=0\n",
      "note_off channel=0 note=75 velocity=64 time=0\n",
      "note_on channel=0 note=79 velocity=33 time=0\n",
      "note_on channel=0 note=84 velocity=14 time=0\n",
      "note_on channel=0 note=86 velocity=11 time=0\n",
      "note_on channel=0 note=93 velocity=22 time=0\n",
      "note_on channel=0 note=73 velocity=20 time=1\n",
      "note_off channel=0 note=82 velocity=64 time=0\n",
      "note_off channel=0 note=85 velocity=64 time=0\n",
      "note_off channel=0 note=89 velocity=64 time=0\n",
      "note_on channel=0 note=57 velocity=59 time=1\n",
      "note_off channel=0 note=58 velocity=64 time=0\n",
      "note_off channel=0 note=79 velocity=64 time=0\n",
      "note_off channel=0 note=43 velocity=64 time=1\n",
      "note_on channel=0 note=69 velocity=63 time=0\n",
      "note_off channel=0 note=70 velocity=64 time=0\n",
      "note_on channel=0 note=76 velocity=60 time=0\n",
      "note_off channel=0 note=77 velocity=64 time=0\n",
      "note_on channel=0 note=85 velocity=44 time=0\n",
      "note_off channel=0 note=86 velocity=64 time=0\n",
      "note_on channel=0 note=90 velocity=60 time=0\n",
      "note_on channel=0 note=61 velocity=30 time=1\n",
      "note_on channel=0 note=71 velocity=49 time=0\n",
      "note_off channel=0 note=84 velocity=64 time=0\n",
      "note_off channel=0 note=57 velocity=64 time=2\n",
      "note_on channel=0 note=57 velocity=61 time=1\n",
      "note_off channel=0 note=76 velocity=64 time=0\n",
      "note_off channel=0 note=87 velocity=64 time=0\n",
      "note_off channel=0 note=85 velocity=64 time=1\n",
      "note_on channel=0 note=87 velocity=31 time=0\n",
      "note_on channel=0 note=85 velocity=44 time=1\n",
      "note_on channel=0 note=76 velocity=65 time=1\n",
      "note_off channel=0 note=71 velocity=64 time=1\n",
      "note_on channel=0 note=91 velocity=25 time=0\n",
      "note_off channel=0 note=61 velocity=64 time=1\n",
      "note_on channel=0 note=71 velocity=60 time=0\n",
      "note_on channel=0 note=89 velocity=34 time=0\n"
     ]
    },
    {
     "name": "stdout",
     "output_type": "stream",
     "text": [
      "note_off channel=0 note=57 velocity=64 time=1\n",
      "note_on channel=0 note=58 velocity=53 time=0\n",
      "note_off channel=0 note=69 velocity=64 time=0\n",
      "note_off channel=0 note=76 velocity=64 time=0\n",
      "note_on channel=0 note=77 velocity=66 time=0\n",
      "note_off channel=0 note=71 velocity=64 time=1\n",
      "note_off channel=0 note=85 velocity=64 time=0\n",
      "note_on channel=0 note=86 velocity=39 time=0\n",
      "note_off channel=0 note=58 velocity=64 time=1\n",
      "note_on channel=0 note=59 velocity=55 time=0\n",
      "note_on channel=0 note=71 velocity=57 time=0\n",
      "note_off channel=0 note=73 velocity=64 time=0\n",
      "note_off channel=0 note=89 velocity=64 time=0\n",
      "note_off channel=0 note=91 velocity=64 time=0\n",
      "note_on channel=0 note=82 velocity=43 time=1\n",
      "note_off channel=0 note=87 velocity=64 time=0\n",
      "note_off channel=0 note=59 velocity=64 time=1\n",
      "note_on channel=0 note=60 velocity=49 time=0\n",
      "note_on channel=0 note=78 velocity=44 time=0\n",
      "note_on channel=0 note=87 velocity=38 time=0\n",
      "note_off channel=0 note=71 velocity=64 time=1\n",
      "note_on channel=0 note=72 velocity=62 time=0\n",
      "note_off channel=0 note=77 velocity=64 time=0\n",
      "note_off channel=0 note=83 velocity=64 time=0\n",
      "note_on channel=0 note=91 velocity=38 time=0\n",
      "note_off channel=0 note=60 velocity=64 time=1\n",
      "note_on channel=0 note=64 velocity=83 time=0\n",
      "note_off channel=0 note=65 velocity=64 time=0\n",
      "note_on channel=0 note=77 velocity=56 time=0\n",
      "note_off channel=0 note=86 velocity=64 time=0\n",
      "note_on channel=0 note=45 velocity=78 time=1\n",
      "note_on channel=0 note=67 velocity=63 time=0\n",
      "note_on channel=0 note=71 velocity=58 time=0\n",
      "note_off channel=0 note=72 velocity=64 time=0\n",
      "note_off channel=0 note=78 velocity=64 time=0\n",
      "note_on channel=0 note=44 velocity=79 time=2\n",
      "note_off channel=0 note=45 velocity=64 time=0\n",
      "note_on channel=0 note=55 velocity=45 time=0\n",
      "note_on channel=0 note=59 velocity=53 time=0\n",
      "note_on channel=0 note=63 velocity=69 time=0\n",
      "note_off channel=0 note=64 velocity=64 time=0\n",
      "note_on channel=0 note=73 velocity=37 time=0\n",
      "note_off channel=0 note=82 velocity=64 time=0\n",
      "note_off channel=0 note=67 velocity=64 time=1\n",
      "note_on channel=0 note=82 velocity=39 time=0\n",
      "note_on channel=0 note=86 velocity=27 time=0\n",
      "note_off channel=0 note=55 velocity=64 time=1\n",
      "note_off channel=0 note=59 velocity=64 time=0\n",
      "note_off channel=0 note=63 velocity=64 time=0\n",
      "note_off channel=0 note=71 velocity=64 time=0\n",
      "note_on channel=0 note=59 velocity=53 time=1\n",
      "note_on channel=0 note=67 velocity=23 time=0\n",
      "note_on channel=0 note=71 velocity=54 time=0\n",
      "note_off channel=0 note=44 velocity=64 time=1\n",
      "note_on channel=0 note=72 velocity=63 time=0\n",
      "note_off channel=0 note=73 velocity=64 time=0\n",
      "note_off channel=0 note=86 velocity=64 time=0\n",
      "note_off channel=0 note=91 velocity=64 time=0\n",
      "note_off channel=0 note=71 velocity=64 time=1\n",
      "note_off channel=0 note=77 velocity=64 time=0\n",
      "note_on channel=0 note=78 velocity=46 time=0\n",
      "note_off channel=0 note=82 velocity=64 time=0\n",
      "note_on channel=0 note=89 velocity=31 time=0\n",
      "note_off channel=0 note=93 velocity=64 time=0\n",
      "note_on channel=0 note=43 velocity=62 time=1\n",
      "note_off channel=0 note=59 velocity=64 time=0\n",
      "note_on channel=0 note=61 velocity=82 time=0\n",
      "note_on channel=0 note=66 velocity=23 time=0\n",
      "note_off channel=0 note=67 velocity=64 time=0\n",
      "note_on channel=0 note=85 velocity=39 time=0\n",
      "note_on channel=0 note=93 velocity=29 time=0\n",
      "note_on channel=0 note=71 velocity=42 time=1\n",
      "note_off channel=0 note=72 velocity=64 time=0\n",
      "note_on channel=0 note=77 velocity=28 time=0\n",
      "note_off channel=0 note=78 velocity=64 time=0\n",
      "note_on channel=0 note=82 velocity=32 time=0\n",
      "note_on channel=0 note=79 velocity=29 time=1\n",
      "note_on channel=0 note=42 velocity=56 time=1\n",
      "note_off channel=0 note=43 velocity=64 time=0\n",
      "note_off channel=0 note=87 velocity=64 time=0\n",
      "note_off channel=0 note=79 velocity=64 time=1\n",
      "note_off channel=0 note=89 velocity=64 time=0\n",
      "note_off channel=0 note=42 velocity=64 time=1\n",
      "note_off channel=0 note=66 velocity=64 time=0\n",
      "note_on channel=0 note=70 velocity=33 time=0\n",
      "note_off channel=0 note=71 velocity=64 time=0\n",
      "note_on channel=0 note=68 velocity=41 time=1\n",
      "note_on channel=0 note=72 velocity=60 time=0\n",
      "note_on channel=0 note=79 velocity=34 time=0\n",
      "note_off channel=0 note=80 velocity=64 time=0\n",
      "note_on channel=0 note=48 velocity=67 time=1\n",
      "note_on channel=0 note=65 velocity=39 time=0\n",
      "note_off channel=0 note=70 velocity=64 time=0\n",
      "note_off channel=0 note=77 velocity=64 time=0\n",
      "note_on channel=0 note=78 velocity=47 time=0\n",
      "note_on channel=0 note=83 velocity=43 time=0\n",
      "note_off channel=0 note=85 velocity=64 time=0\n",
      "note_on channel=0 note=87 velocity=28 time=0\n",
      "note_on channel=0 note=47 velocity=72 time=1\n",
      "note_off channel=0 note=48 velocity=64 time=0\n",
      "note_off channel=0 note=72 velocity=64 time=0\n",
      "note_off channel=0 note=79 velocity=64 time=0\n",
      "note_on channel=0 note=80 velocity=45 time=0\n",
      "note_off channel=0 note=82 velocity=64 time=0\n",
      "note_off channel=0 note=47 velocity=64 time=1\n",
      "note_on channel=0 note=48 velocity=73 time=0\n",
      "note_off channel=0 note=61 velocity=64 time=0\n",
      "note_on channel=0 note=71 velocity=59 time=1\n",
      "note_on channel=0 note=82 velocity=32 time=0\n",
      "note_off channel=0 note=48 velocity=64 time=1\n",
      "note_on channel=0 note=49 velocity=78 time=0\n",
      "note_off channel=0 note=49 velocity=64 time=1\n",
      "note_on channel=0 note=52 velocity=75 time=0\n",
      "note_off channel=0 note=52 velocity=64 time=1\n",
      "note_on channel=0 note=53 velocity=65 time=0\n",
      "note_on channel=0 note=60 velocity=56 time=0\n",
      "note_off channel=0 note=82 velocity=64 time=0\n",
      "note_on channel=0 note=50 velocity=56 time=1\n",
      "note_off channel=0 note=53 velocity=64 time=0\n",
      "note_on channel=0 note=59 velocity=53 time=1\n",
      "note_off channel=0 note=60 velocity=64 time=0\n",
      "note_off channel=0 note=50 velocity=64 time=1\n",
      "note_on channel=0 note=53 velocity=59 time=0\n",
      "note_off channel=0 note=71 velocity=64 time=0\n",
      "note_on channel=0 note=58 velocity=58 time=2\n",
      "note_off channel=0 note=59 velocity=64 time=0\n",
      "note_on channel=0 note=77 velocity=44 time=0\n",
      "note_off channel=0 note=78 velocity=64 time=0\n",
      "note_off channel=0 note=87 velocity=64 time=0\n",
      "note_on channel=0 note=91 velocity=14 time=0\n",
      "note_off channel=0 note=90 velocity=64 time=1\n",
      "note_off channel=0 note=58 velocity=64 time=1\n",
      "note_on channel=0 note=59 velocity=60 time=0\n",
      "note_on channel=0 note=64 velocity=82 time=0\n",
      "note_off channel=0 note=65 velocity=64 time=0\n",
      "note_off channel=0 note=68 velocity=64 time=0\n",
      "note_off channel=0 note=83 velocity=64 time=0\n",
      "note_on channel=0 note=90 velocity=35 time=0\n",
      "note_on channel=0 note=46 velocity=65 time=1\n",
      "note_off channel=0 note=53 velocity=64 time=0\n",
      "note_on channel=0 note=67 velocity=65 time=0\n",
      "note_off channel=0 note=77 velocity=64 time=0\n",
      "note_off channel=0 note=91 velocity=64 time=0\n",
      "note_on channel=0 note=45 velocity=76 time=1\n",
      "note_off channel=0 note=46 velocity=64 time=0\n",
      "note_on channel=0 note=58 velocity=61 time=0\n",
      "note_off channel=0 note=59 velocity=64 time=0\n",
      "note_on channel=0 note=91 velocity=17 time=0\n",
      "note_on channel=0 note=44 velocity=79 time=1\n",
      "note_off channel=0 note=45 velocity=64 time=0\n",
      "note_on channel=0 note=63 velocity=72 time=0\n",
      "note_off channel=0 note=64 velocity=64 time=0\n",
      "note_off channel=0 note=67 velocity=64 time=0\n",
      "note_on channel=0 note=78 velocity=38 time=0\n",
      "note_off channel=0 note=88 velocity=64 time=0\n",
      "note_off channel=0 note=58 velocity=64 time=1\n",
      "note_on channel=0 note=88 velocity=22 time=0\n",
      "note_off channel=0 note=90 velocity=64 time=0\n",
      "note_on channel=0 note=58 velocity=54 time=1\n",
      "note_on channel=0 note=68 velocity=41 time=0\n",
      "note_off channel=0 note=63 velocity=64 time=1\n",
      "note_on channel=0 note=77 velocity=40 time=0\n",
      "note_off channel=0 note=78 velocity=64 time=0\n",
      "note_on channel=0 note=61 velocity=33 time=1\n",
      "note_on channel=0 note=65 velocity=41 time=0\n",
      "note_on channel=0 note=90 velocity=20 time=0\n",
      "note_off channel=0 note=91 velocity=64 time=0\n",
      "note_off channel=0 note=44 velocity=64 time=1\n",
      "note_on channel=0 note=57 velocity=58 time=0\n",
      "note_off channel=0 note=58 velocity=64 time=0\n",
      "note_off channel=0 note=68 velocity=64 time=0\n",
      "note_on channel=0 note=71 velocity=48 time=0\n",
      "note_on channel=0 note=76 velocity=39 time=0\n",
      "note_off channel=0 note=77 velocity=64 time=0\n",
      "note_on channel=0 note=91 velocity=19 time=0\n",
      "note_on channel=0 note=48 velocity=60 time=1\n",
      "note_off channel=0 note=61 velocity=64 time=0\n",
      "note_on channel=0 note=89 velocity=27 time=0\n",
      "note_on channel=0 note=61 velocity=61 time=1\n",
      "note_off channel=0 note=88 velocity=64 time=0\n",
      "note_on channel=0 note=43 velocity=61 time=1\n",
      "note_off channel=0 note=48 velocity=64 time=0\n",
      "note_off channel=0 note=91 velocity=64 time=0\n",
      "note_off channel=0 note=89 velocity=64 time=1\n",
      "note_off channel=0 note=93 velocity=64 time=0\n",
      "note_off channel=0 note=57 velocity=64 time=1\n",
      "note_on channel=0 note=70 velocity=55 time=0\n",
      "note_off channel=0 note=71 velocity=64 time=0\n",
      "note_off channel=0 note=76 velocity=64 time=0\n",
      "note_off channel=0 note=90 velocity=64 time=0\n",
      "note_off channel=0 note=43 velocity=64 time=2\n",
      "note_on channel=0 note=69 velocity=53 time=0\n",
      "note_off channel=0 note=70 velocity=64 time=0\n",
      "note_on channel=0 note=76 velocity=34 time=1\n",
      "note_on channel=0 note=48 velocity=72 time=1\n",
      "note_on channel=0 note=71 velocity=44 time=0\n",
      "note_on channel=0 note=47 velocity=77 time=1\n",
      "note_off channel=0 note=48 velocity=64 time=0\n",
      "note_on channel=0 note=56 velocity=60 time=0\n",
      "note_on channel=0 note=87 velocity=35 time=0\n",
      "note_on channel=0 note=90 velocity=26 time=0\n",
      "note_off channel=0 note=47 velocity=64 time=1\n",
      "note_on channel=0 note=48 velocity=72 time=0\n",
      "note_off channel=0 note=69 velocity=64 time=0\n",
      "note_off channel=0 note=80 velocity=64 time=0\n",
      "note_off channel=0 note=48 velocity=64 time=1\n",
      "note_on channel=0 note=49 velocity=76 time=0\n",
      "note_off channel=0 note=56 velocity=64 time=0\n",
      "note_off channel=0 note=49 velocity=64 time=1\n",
      "note_on channel=0 note=50 velocity=76 time=0\n",
      "note_off channel=0 note=50 velocity=64 time=1\n",
      "note_on channel=0 note=54 velocity=71 time=0\n",
      "note_off channel=0 note=76 velocity=64 time=0\n",
      "note_on channel=0 note=80 velocity=81 time=0\n",
      "note_off channel=0 note=54 velocity=64 time=1\n",
      "note_off channel=0 note=61 velocity=64 time=0\n",
      "note_off channel=0 note=71 velocity=64 time=0\n",
      "note_on channel=0 note=61 velocity=18 time=1\n",
      "note_on channel=0 note=69 velocity=47 time=0\n",
      "note_on channel=0 note=71 velocity=40 time=0\n",
      "note_on channel=0 note=56 velocity=67 time=1\n",
      "note_on channel=0 note=89 velocity=71 time=1\n",
      "note_off channel=0 note=90 velocity=64 time=0\n",
      "note_off channel=0 note=69 velocity=64 time=1\n",
      "note_off channel=0 note=61 velocity=64 time=2\n",
      "note_on channel=0 note=76 velocity=40 time=0\n",
      "note_on channel=0 note=82 velocity=39 time=0\n",
      "note_on channel=0 note=48 velocity=87 time=1\n",
      "note_on channel=0 note=64 velocity=57 time=0\n",
      "note_off channel=0 note=65 velocity=64 time=0\n",
      "note_on channel=0 note=93 velocity=10 time=0\n",
      "note_on channel=0 note=96 velocity=14 time=0\n",
      "note_on channel=0 note=81 velocity=35 time=1\n",
      "note_on channel=0 note=90 velocity=21 time=0\n",
      "note_off channel=0 note=64 velocity=64 time=1\n",
      "note_on channel=0 note=75 velocity=28 time=0\n",
      "note_off channel=0 note=76 velocity=64 time=0\n",
      "note_on channel=0 note=77 velocity=28 time=0\n",
      "note_off channel=0 note=71 velocity=64 time=1\n",
      "note_off channel=0 note=81 velocity=64 time=0\n",
      "note_off channel=0 note=82 velocity=64 time=0\n",
      "note_on channel=0 note=83 velocity=42 time=0\n",
      "note_off channel=0 note=96 velocity=64 time=0\n",
      "note_on channel=0 note=46 velocity=67 time=1\n",
      "note_off channel=0 note=48 velocity=64 time=0\n",
      "note_on channel=0 note=65 velocity=50 time=0\n",
      "note_on channel=0 note=71 velocity=33 time=0\n",
      "note_off channel=0 note=93 velocity=64 time=0\n",
      "note_on channel=0 note=102 velocity=26 time=0\n",
      "note_off channel=0 note=46 velocity=64 time=2\n",
      "note_off channel=0 note=90 velocity=64 time=2\n",
      "note_on channel=0 note=91 velocity=34 time=0\n",
      "note_on channel=0 note=45 velocity=60 time=1\n",
      "note_on channel=0 note=61 velocity=18 time=0\n",
      "note_on channel=0 note=44 velocity=52 time=2\n",
      "note_off channel=0 note=45 velocity=64 time=0\n",
      "note_off channel=0 note=61 velocity=64 time=3\n",
      "note_off channel=0 note=44 velocity=64 time=2\n",
      "note_on channel=0 note=61 velocity=24 time=0\n",
      "note_off channel=0 note=71 velocity=64 time=0\n",
      "note_on channel=0 note=42 velocity=30 time=1\n",
      "note_off channel=0 note=56 velocity=64 time=0\n",
      "note_on channel=0 note=71 velocity=18 time=0\n",
      "note_on channel=0 note=56 velocity=62 time=1\n",
      "note_off channel=0 note=75 velocity=64 time=1\n",
      "note_on channel=0 note=69 velocity=40 time=1\n",
      "note_off channel=0 note=42 velocity=64 time=1\n",
      "note_off channel=0 note=87 velocity=64 time=1\n",
      "note_off channel=0 note=102 velocity=64 time=0\n",
      "note_on channel=0 note=90 velocity=33 time=1\n",
      "note_off channel=0 note=56 velocity=64 time=1\n",
      "note_on channel=0 note=68 velocity=37 time=0\n",
      "note_off channel=0 note=69 velocity=64 time=0\n",
      "note_on channel=0 note=87 velocity=45 time=0\n",
      "note_off channel=0 note=65 velocity=64 time=1\n",
      "note_off channel=0 note=83 velocity=64 time=0\n",
      "note_on channel=0 note=65 velocity=58 time=1\n",
      "note_on channel=0 note=49 velocity=31 time=1\n",
      "note_off channel=0 note=90 velocity=64 time=0\n",
      "note_on channel=0 note=60 velocity=40 time=1\n",
      "note_off channel=0 note=61 velocity=64 time=0\n",
      "note_on channel=0 note=83 velocity=49 time=0\n",
      "note_off channel=0 note=49 velocity=64 time=1\n",
      "note_off channel=0 note=71 velocity=64 time=0\n",
      "note_on channel=0 note=76 velocity=48 time=0\n",
      "note_off channel=0 note=77 velocity=64 time=0\n",
      "note_on channel=0 note=102 velocity=14 time=0\n",
      "note_on channel=0 note=46 velocity=69 time=1\n",
      "note_on channel=0 note=57 velocity=38 time=0\n",
      "note_off channel=0 note=60 velocity=64 time=0\n",
      "note_off channel=0 note=68 velocity=64 time=0\n",
      "note_on channel=0 note=69 velocity=49 time=0\n",
      "note_on channel=0 note=84 velocity=41 time=0\n",
      "note_on channel=0 note=45 velocity=76 time=1\n",
      "note_off channel=0 note=46 velocity=64 time=0\n",
      "note_on channel=0 note=75 velocity=45 time=0\n",
      "note_off channel=0 note=76 velocity=64 time=0\n",
      "note_on channel=0 note=85 velocity=34 time=0\n",
      "note_on channel=0 note=90 velocity=18 time=0\n",
      "note_on channel=0 note=44 velocity=77 time=1\n",
      "note_off channel=0 note=45 velocity=64 time=0\n",
      "note_on channel=0 note=73 velocity=15 time=0\n",
      "note_off channel=0 note=87 velocity=64 time=0\n",
      "note_off channel=0 note=102 velocity=64 time=1\n",
      "note_off channel=0 note=57 velocity=64 time=1\n",
      "note_off channel=0 note=69 velocity=64 time=0\n",
      "note_off channel=0 note=84 velocity=64 time=0\n",
      "note_on channel=0 note=43 velocity=72 time=1\n",
      "note_off channel=0 note=44 velocity=64 time=0\n",
      "note_on channel=0 note=61 velocity=44 time=0\n",
      "note_on channel=0 note=71 velocity=20 time=0\n",
      "note_off channel=0 note=91 velocity=64 time=0\n",
      "note_off channel=0 note=90 velocity=64 time=1\n",
      "note_on channel=0 note=91 velocity=28 time=0\n",
      "note_off channel=0 note=73 velocity=64 time=1\n",
      "note_on channel=0 note=68 velocity=21 time=1\n",
      "note_off channel=0 note=61 velocity=64 time=2\n",
      "note_off channel=0 note=91 velocity=64 time=0\n",
      "note_on channel=0 note=61 velocity=26 time=1\n",
      "note_off channel=0 note=68 velocity=64 time=0\n",
      "note_on channel=0 note=73 velocity=50 time=0\n",
      "note_off channel=0 note=75 velocity=64 time=0\n",
      "note_on channel=0 note=91 velocity=68 time=1\n",
      "note_off channel=0 note=43 velocity=64 time=2\n",
      "note_on channel=0 note=50 velocity=23 time=1\n",
      "note_off channel=0 note=50 velocity=64 time=4\n",
      "note_off channel=0 note=65 velocity=64 time=0\n",
      "note_off channel=0 note=85 velocity=64 time=0\n",
      "note_on channel=0 note=50 velocity=9 time=4\n",
      "note_off channel=0 note=61 velocity=64 time=1\n",
      "note_on channel=0 note=57 velocity=74 time=1\n",
      "note_off channel=0 note=50 velocity=64 time=2\n",
      "note_on channel=0 note=61 velocity=55 time=0\n",
      "note_off channel=0 note=71 velocity=64 time=0\n",
      "note_on channel=0 note=75 velocity=44 time=0\n",
      "note_on channel=0 note=68 velocity=59 time=1\n",
      "note_on channel=0 note=56 velocity=76 time=1\n",
      "note_off channel=0 note=57 velocity=64 time=0\n",
      "note_off channel=0 note=61 velocity=64 time=0\n",
      "note_on channel=0 note=62 velocity=86 time=0\n",
      "note_on channel=0 note=78 velocity=31 time=0\n",
      "note_on channel=0 note=82 velocity=62 time=0\n",
      "note_off channel=0 note=83 velocity=64 time=0\n",
      "note_on channel=0 note=55 velocity=71 time=1\n",
      "note_off channel=0 note=56 velocity=64 time=0\n",
      "note_off channel=0 note=62 velocity=64 time=0\n",
      "note_on channel=0 note=63 velocity=94 time=0\n",
      "note_on channel=0 note=71 velocity=61 time=0\n",
      "note_off channel=0 note=55 velocity=64 time=1\n",
      "note_on channel=0 note=56 velocity=68 time=0\n",
      "note_off channel=0 note=75 velocity=64 time=0\n",
      "note_off channel=0 note=78 velocity=64 time=0\n",
      "note_off channel=0 note=56 velocity=64 time=1\n",
      "note_on channel=0 note=57 velocity=71 time=0\n",
      "note_off channel=0 note=68 velocity=64 time=0\n",
      "note_on channel=0 note=69 velocity=75 time=0\n",
      "note_off channel=0 note=71 velocity=64 time=0\n",
      "note_on channel=0 note=72 velocity=46 time=0\n",
      "note_off channel=0 note=73 velocity=64 time=0\n",
      "note_on channel=0 note=77 velocity=84 time=0\n",
      "note_off channel=0 note=82 velocity=64 time=0\n",
      "note_on channel=0 note=93 velocity=33 time=0\n",
      "note_on channel=0 note=94 velocity=73 time=0\n",
      "note_on channel=0 note=98 velocity=13 time=0\n",
      "note_on channel=0 note=100 velocity=20 time=0\n",
      "note_off channel=0 note=69 velocity=64 time=1\n",
      "note_on channel=0 note=70 velocity=80 time=0\n",
      "note_on channel=0 note=74 velocity=25 time=0\n",
      "note_on channel=0 note=96 velocity=47 time=0\n",
      "note_on channel=0 note=99 velocity=59 time=0\n",
      "note_on channel=0 note=102 velocity=28 time=0\n",
      "note_off channel=0 note=98 velocity=64 time=2\n",
      "note_off channel=0 note=57 velocity=64 time=1\n",
      "note_on channel=0 note=58 velocity=70 time=0\n",
      "note_on channel=0 note=69 velocity=81 time=0\n",
      "note_off channel=0 note=70 velocity=64 time=0\n",
      "note_off channel=0 note=74 velocity=64 time=0\n",
      "note_on channel=0 note=76 velocity=77 time=0\n",
      "note_off channel=0 note=77 velocity=64 time=0\n",
      "note_on channel=0 note=41 velocity=15 time=1\n",
      "note_off channel=0 note=72 velocity=64 time=0\n",
      "note_on channel=0 note=90 velocity=13 time=0\n",
      "note_off channel=0 note=76 velocity=64 time=1\n",
      "note_on channel=0 note=77 velocity=66 time=0\n",
      "note_off channel=0 note=102 velocity=64 time=0\n",
      "note_off channel=0 note=69 velocity=64 time=1\n",
      "note_on channel=0 note=70 velocity=78 time=0\n",
      "note_off channel=0 note=41 velocity=64 time=1\n",
      "note_off channel=0 note=58 velocity=64 time=0\n",
      "note_on channel=0 note=59 velocity=71 time=0\n",
      "note_off channel=0 note=90 velocity=64 time=0\n",
      "note_off channel=0 note=70 velocity=64 time=1\n",
      "note_on channel=0 note=72 velocity=67 time=0\n",
      "note_off channel=0 note=80 velocity=64 time=0\n",
      "note_off channel=0 note=100 velocity=64 time=0\n",
      "note_off channel=0 note=59 velocity=64 time=1\n",
      "note_off channel=0 note=93 velocity=64 time=0\n",
      "note_on channel=0 note=100 velocity=31 time=0\n",
      "note_on channel=0 note=71 velocity=52 time=1\n",
      "note_on channel=0 note=79 velocity=19 time=0\n",
      "note_off channel=0 note=89 velocity=64 time=0\n",
      "note_off channel=0 note=72 velocity=64 time=1\n",
      "note_on channel=0 note=73 velocity=57 time=0\n",
      "note_on channel=0 note=89 velocity=69 time=0\n",
      "note_on channel=0 note=95 velocity=56 time=0\n",
      "note_off channel=0 note=100 velocity=64 time=0\n",
      "note_on channel=0 note=61 velocity=88 time=1\n",
      "note_off channel=0 note=63 velocity=64 time=0\n",
      "note_on channel=0 note=70 velocity=34 time=0\n",
      "note_off channel=0 note=71 velocity=64 time=0\n",
      "note_on channel=0 note=80 velocity=74 time=0\n",
      "note_on channel=0 note=63 velocity=76 time=1\n",
      "note_off channel=0 note=94 velocity=64 time=0\n",
      "note_off channel=0 note=96 velocity=64 time=0\n",
      "note_off channel=0 note=63 velocity=64 time=1\n",
      "note_off channel=0 note=79 velocity=64 time=0\n",
      "note_off channel=0 note=61 velocity=64 time=1\n",
      "note_on channel=0 note=62 velocity=91 time=0\n",
      "note_off channel=0 note=99 velocity=64 time=0\n",
      "note_on channel=0 note=61 velocity=84 time=1\n",
      "note_off channel=0 note=62 velocity=64 time=0\n",
      "note_on channel=0 note=63 velocity=71 time=0\n",
      "note_off channel=0 note=70 velocity=64 time=0\n",
      "note_on channel=0 note=71 velocity=31 time=0\n",
      "note_off channel=0 note=73 velocity=64 time=0\n",
      "note_on channel=0 note=99 velocity=27 time=0\n",
      "note_off channel=0 note=63 velocity=64 time=1\n",
      "note_off channel=0 note=61 velocity=64 time=1\n",
      "note_on channel=0 note=62 velocity=92 time=0\n",
      "note_on channel=0 note=61 velocity=89 time=2\n",
      "note_off channel=0 note=62 velocity=64 time=0\n",
      "note_on channel=0 note=63 velocity=68 time=0\n",
      "note_off channel=0 note=63 velocity=64 time=1\n",
      "note_off channel=0 note=61 velocity=64 time=1\n",
      "note_on channel=0 note=62 velocity=88 time=0\n",
      "note_on channel=0 note=82 velocity=18 time=0\n",
      "note_on channel=0 note=61 velocity=89 time=1\n",
      "note_off channel=0 note=62 velocity=64 time=0\n",
      "note_on channel=0 note=63 velocity=71 time=0\n",
      "note_on channel=0 note=83 velocity=56 time=0\n",
      "note_on channel=0 note=87 velocity=49 time=0\n",
      "note_on channel=0 note=90 velocity=32 time=0\n",
      "note_off channel=0 note=63 velocity=64 time=1\n",
      "note_on channel=0 note=68 velocity=47 time=0\n",
      "note_off channel=0 note=61 velocity=64 time=1\n",
      "note_on channel=0 note=62 velocity=91 time=0\n",
      "note_off channel=0 note=71 velocity=64 time=0\n",
      "note_off channel=0 note=82 velocity=64 time=0\n",
      "note_off channel=0 note=91 velocity=64 time=0\n",
      "note_on channel=0 note=57 velocity=51 time=1\n",
      "note_on channel=0 note=61 velocity=88 time=0\n",
      "note_off channel=0 note=62 velocity=64 time=0\n",
      "note_off channel=0 note=68 velocity=64 time=0\n",
      "note_on channel=0 note=78 velocity=37 time=0\n",
      "note_on channel=0 note=82 velocity=61 time=0\n",
      "note_off channel=0 note=83 velocity=64 time=0\n",
      "note_off channel=0 note=90 velocity=64 time=0\n",
      "note_on channel=0 note=91 velocity=32 time=0\n",
      "note_on channel=0 note=63 velocity=74 time=1\n",
      "note_on channel=0 note=71 velocity=40 time=0\n",
      "note_off channel=0 note=61 velocity=64 time=1\n",
      "note_off channel=0 note=63 velocity=64 time=0\n",
      "note_on channel=0 note=64 velocity=85 time=0\n",
      "note_off channel=0 note=78 velocity=64 time=0\n",
      "note_off channel=0 note=57 velocity=64 time=1\n",
      "note_on channel=0 note=62 velocity=84 time=0\n",
      "note_off channel=0 note=64 velocity=64 time=0\n",
      "note_on channel=0 note=70 velocity=22 time=0\n",
      "note_on channel=0 note=84 velocity=16 time=0\n",
      "note_off channel=0 note=62 velocity=64 time=1\n",
      "note_on channel=0 note=63 velocity=91 time=0\n",
      "note_off channel=0 note=71 velocity=64 time=0\n",
      "note_off channel=0 note=82 velocity=64 time=0\n",
      "note_on channel=0 note=83 velocity=48 time=0\n",
      "note_on channel=0 note=90 velocity=19 time=0\n",
      "note_off channel=0 note=91 velocity=64 time=1\n",
      "note_on channel=0 note=62 velocity=84 time=1\n",
      "note_off channel=0 note=63 velocity=64 time=0\n",
      "note_off channel=0 note=70 velocity=64 time=0\n",
      "note_off channel=0 note=62 velocity=64 time=1\n",
      "note_on channel=0 note=63 velocity=89 time=0\n",
      "note_off channel=0 note=90 velocity=64 time=0\n",
      "note_on channel=0 note=91 velocity=58 time=0\n",
      "note_on channel=0 note=90 velocity=12 time=1\n",
      "note_on channel=0 note=62 velocity=80 time=1\n",
      "note_off channel=0 note=63 velocity=64 time=0\n",
      "note_off channel=0 note=62 velocity=64 time=1\n",
      "note_on channel=0 note=63 velocity=85 time=0\n",
      "note_off channel=0 note=84 velocity=64 time=0\n",
      "note_off channel=0 note=90 velocity=64 time=1\n",
      "note_off channel=0 note=99 velocity=64 time=0\n",
      "note_on channel=0 note=61 velocity=70 time=1\n",
      "note_on channel=0 note=88 velocity=69 time=0\n",
      "note_off channel=0 note=89 velocity=64 time=0\n",
      "note_on channel=0 note=94 velocity=31 time=0\n",
      "note_off channel=0 note=95 velocity=64 time=0\n",
      "note_off channel=0 note=61 velocity=64 time=1\n",
      "note_on channel=0 note=72 velocity=75 time=0\n",
      "note_on channel=0 note=79 velocity=60 time=0\n",
      "note_off channel=0 note=80 velocity=64 time=0\n",
      "note_on channel=0 note=60 velocity=67 time=1\n",
      "note_off channel=0 note=77 velocity=64 time=0\n",
      "note_on channel=0 note=89 velocity=75 time=0\n",
      "note_on channel=0 note=92 velocity=17 time=0\n",
      "note_off channel=0 note=60 velocity=64 time=1\n",
      "note_on channel=0 note=77 velocity=13 time=0\n",
      "note_on channel=0 note=80 velocity=46 time=0\n",
      "note_on channel=0 note=85 velocity=19 time=1\n",
      "note_off channel=0 note=88 velocity=64 time=0\n",
      "note_on channel=0 note=93 velocity=31 time=0\n",
      "note_off channel=0 note=94 velocity=64 time=0\n",
      "note_on channel=0 note=78 velocity=68 time=1\n",
      "note_off channel=0 note=79 velocity=64 time=0\n",
      "note_off channel=0 note=83 velocity=64 time=0\n",
      "note_off channel=0 note=92 velocity=64 time=0\n",
      "note_on channel=0 note=71 velocity=69 time=1\n",
      "note_off channel=0 note=72 velocity=64 time=0\n",
      "note_off channel=0 note=80 velocity=64 time=0\n",
      "note_on channel=0 note=88 velocity=35 time=0\n",
      "note_on channel=0 note=59 velocity=55 time=1\n",
      "note_on channel=0 note=80 velocity=88 time=0\n",
      "note_off channel=0 note=85 velocity=64 time=1\n",
      "note_off channel=0 note=88 velocity=64 time=0\n",
      "note_off channel=0 note=91 velocity=64 time=0\n",
      "note_off channel=0 note=59 velocity=64 time=1\n",
      "note_off channel=0 note=77 velocity=64 time=0\n",
      "note_on channel=0 note=91 velocity=51 time=0\n",
      "note_on channel=0 note=59 velocity=58 time=1\n",
      "note_off channel=0 note=71 velocity=64 time=0\n",
      "note_on channel=0 note=72 velocity=57 time=0\n",
      "note_off channel=0 note=78 velocity=64 time=0\n",
      "note_on channel=0 note=86 velocity=14 time=0\n",
      "note_on channel=0 note=78 velocity=37 time=1\n",
      "note_off channel=0 note=93 velocity=64 time=0\n",
      "note_off channel=0 note=59 velocity=64 time=1\n",
      "note_on channel=0 note=60 velocity=63 time=0\n",
      "note_off channel=0 note=72 velocity=64 time=0\n",
      "note_off channel=0 note=78 velocity=64 time=1\n",
      "note_on channel=0 note=79 velocity=41 time=0\n",
      "note_on channel=0 note=84 velocity=74 time=0\n",
      "note_off channel=0 note=86 velocity=64 time=1\n",
      "note_on channel=0 note=72 velocity=75 time=1\n",
      "note_on channel=0 note=77 velocity=30 time=0\n",
      "note_on channel=0 note=82 velocity=33 time=0\n",
      "note_off channel=0 note=60 velocity=64 time=1\n",
      "note_off channel=0 note=79 velocity=64 time=0\n",
      "note_on channel=0 note=102 velocity=21 time=0\n",
      "note_off channel=0 note=82 velocity=64 time=1\n",
      "note_on channel=0 note=60 velocity=66 time=1\n",
      "note_on channel=0 note=68 velocity=24 time=0\n",
      "note_on channel=0 note=82 velocity=36 time=0\n",
      "note_off channel=0 note=77 velocity=64 time=1\n",
      "note_on channel=0 note=85 velocity=47 time=0\n",
      "note_on channel=0 note=88 velocity=32 time=0\n",
      "note_off channel=0 note=102 velocity=64 time=1\n",
      "note_off channel=0 note=85 velocity=64 time=1\n",
      "note_off channel=0 note=88 velocity=64 time=0\n",
      "note_off channel=0 note=60 velocity=64 time=1\n",
      "note_on channel=0 note=61 velocity=70 time=0\n",
      "note_off channel=0 note=63 velocity=64 time=0\n",
      "note_off channel=0 note=72 velocity=64 time=0\n",
      "note_on channel=0 note=77 velocity=21 time=0\n",
      "note_off channel=0 note=84 velocity=64 time=0\n",
      "note_on channel=0 note=88 velocity=44 time=0\n",
      "note_on channel=0 note=79 velocity=40 time=1\n",
      "note_on channel=0 note=81 velocity=48 time=0\n",
      "note_on channel=0 note=90 velocity=44 time=0\n",
      "note_on channel=0 note=75 velocity=57 time=1\n",
      "note_on channel=0 note=84 velocity=31 time=0\n",
      "note_on channel=0 note=63 velocity=62 time=1\n",
      "note_off channel=0 note=77 velocity=64 time=0\n",
      "note_off channel=0 note=81 velocity=64 time=0\n",
      "note_off channel=0 note=90 velocity=64 time=0\n",
      "note_off channel=0 note=61 velocity=64 time=1\n",
      "note_off channel=0 note=75 velocity=64 time=0\n",
      "note_on channel=0 note=76 velocity=69 time=0\n",
      "note_off channel=0 note=79 velocity=64 time=0\n",
      "note_on channel=0 note=83 velocity=61 time=0\n",
      "note_off channel=0 note=88 velocity=64 time=0\n",
      "note_on channel=0 note=90 velocity=22 time=0\n",
      "note_off channel=0 note=63 velocity=64 time=1\n",
      "note_on channel=0 note=64 velocity=68 time=0\n",
      "note_on channel=0 note=71 velocity=54 time=0\n",
      "note_off channel=0 note=82 velocity=64 time=0\n",
      "note_off channel=0 note=91 velocity=64 time=0\n",
      "note_on channel=0 note=73 velocity=43 time=1\n",
      "note_off channel=0 note=84 velocity=64 time=0\n",
      "note_on channel=0 note=84 velocity=30 time=2\n",
      "note_on channel=0 note=75 velocity=55 time=1\n",
      "note_off channel=0 note=76 velocity=64 time=0\n",
      "note_on channel=0 note=82 velocity=51 time=0\n",
      "note_off channel=0 note=83 velocity=64 time=0\n",
      "note_off channel=0 note=89 velocity=64 time=0\n",
      "note_on channel=0 note=91 velocity=62 time=0\n",
      "note_on channel=0 note=94 velocity=54 time=0\n",
      "note_on channel=0 note=63 velocity=67 time=1\n",
      "note_off channel=0 note=64 velocity=64 time=0\n",
      "note_off channel=0 note=90 velocity=64 time=0\n",
      "note_on channel=0 note=62 velocity=60 time=1\n",
      "note_off channel=0 note=63 velocity=64 time=0\n",
      "note_off channel=0 note=73 velocity=64 time=0\n",
      "note_on channel=0 note=74 velocity=68 time=0\n",
      "note_off channel=0 note=75 velocity=64 time=0\n",
      "note_on channel=0 note=81 velocity=55 time=0\n",
      "note_off channel=0 note=82 velocity=64 time=0\n",
      "note_on channel=0 note=90 velocity=52 time=0\n",
      "note_on channel=0 note=93 velocity=76 time=0\n",
      "note_off channel=0 note=94 velocity=64 time=0\n",
      "note_on channel=0 note=65 velocity=37 time=2\n",
      "note_off channel=0 note=80 velocity=64 time=0\n",
      "note_on channel=0 note=80 velocity=35 time=1\n",
      "note_off channel=0 note=65 velocity=64 time=1\n",
      "note_on channel=0 note=76 velocity=33 time=0\n",
      "note_on channel=0 note=82 velocity=35 time=0\n",
      "note_off channel=0 note=68 velocity=64 time=1\n",
      "note_off channel=0 note=80 velocity=64 time=0\n",
      "note_on channel=0 note=68 velocity=61 time=1\n",
      "note_off channel=0 note=76 velocity=64 time=0\n",
      "note_on channel=0 note=77 velocity=29 time=0\n",
      "note_on channel=0 note=65 velocity=35 time=2\n",
      "note_off channel=0 note=82 velocity=64 time=0\n",
      "note_off channel=0 note=91 velocity=64 time=0\n",
      "note_off channel=0 note=84 velocity=64 time=1\n",
      "note_on channel=0 note=91 velocity=34 time=0\n",
      "note_on channel=0 note=61 velocity=69 time=1\n",
      "note_off channel=0 note=62 velocity=64 time=0\n",
      "note_off channel=0 note=74 velocity=64 time=0\n",
      "note_off channel=0 note=77 velocity=64 time=0\n",
      "note_on channel=0 note=85 velocity=12 time=0\n",
      "note_off channel=0 note=65 velocity=64 time=1\n",
      "note_on channel=0 note=74 velocity=67 time=0\n",
      "note_on channel=0 note=94 velocity=43 time=0\n",
      "note_off channel=0 note=61 velocity=64 time=1\n",
      "note_on channel=0 note=62 velocity=82 time=0\n",
      "note_on channel=0 note=76 velocity=34 time=0\n",
      "note_on channel=0 note=79 velocity=44 time=0\n",
      "note_off channel=0 note=90 velocity=64 time=0\n",
      "note_on channel=0 note=57 velocity=66 time=1\n",
      "note_off channel=0 note=85 velocity=64 time=0\n",
      "note_on channel=0 note=90 velocity=69 time=0\n",
      "note_on channel=0 note=61 velocity=80 time=1\n",
      "note_off channel=0 note=62 velocity=64 time=0\n",
      "note_off channel=0 note=76 velocity=64 time=0\n",
      "note_on channel=0 note=77 velocity=25 time=0\n",
      "note_off channel=0 note=79 velocity=64 time=0\n",
      "note_on channel=0 note=89 velocity=46 time=0\n",
      "note_off channel=0 note=91 velocity=64 time=0\n",
      "note_off channel=0 note=94 velocity=64 time=0\n",
      "note_on channel=0 note=96 velocity=22 time=0\n",
      "note_on channel=0 note=100 velocity=22 time=0\n",
      "note_on channel=0 note=49 velocity=35 time=1\n",
      "note_off channel=0 note=57 velocity=64 time=1\n",
      "note_off channel=0 note=61 velocity=64 time=0\n",
      "note_on channel=0 note=62 velocity=72 time=0\n",
      "note_off channel=0 note=49 velocity=64 time=1\n",
      "note_on channel=0 note=88 velocity=24 time=0\n",
      "note_off channel=0 note=89 velocity=64 time=0\n",
      "note_on channel=0 note=53 velocity=43 time=1\n",
      "note_off channel=0 note=96 velocity=64 time=0\n",
      "note_off channel=0 note=100 velocity=64 time=0\n",
      "note_off channel=0 note=53 velocity=64 time=3\n",
      "note_on channel=0 note=65 velocity=33 time=1\n",
      "note_on channel=0 note=84 velocity=18 time=0\n",
      "note_on channel=0 note=73 velocity=70 time=1\n",
      "note_off channel=0 note=74 velocity=64 time=0\n",
      "note_on channel=0 note=89 velocity=52 time=0\n",
      "note_off channel=0 note=90 velocity=64 time=0\n",
      "note_on channel=0 note=61 velocity=79 time=2\n",
      "note_off channel=0 note=62 velocity=64 time=0\n",
      "note_on channel=0 note=78 velocity=21 time=0\n",
      "note_off channel=0 note=88 velocity=64 time=0\n",
      "note_on channel=0 note=92 velocity=59 time=0\n",
      "note_off channel=0 note=77 velocity=64 time=1\n",
      "note_off channel=0 note=81 velocity=64 time=0\n",
      "note_on channel=0 note=82 velocity=63 time=0\n",
      "note_off channel=0 note=65 velocity=64 time=1\n",
      "note_off channel=0 note=68 velocity=64 time=0\n",
      "note_on channel=0 note=75 velocity=49 time=0\n",
      "note_off channel=0 note=84 velocity=64 time=0\n",
      "note_on channel=0 note=91 velocity=18 time=0\n",
      "note_on channel=0 note=84 velocity=28 time=2\n",
      "note_on channel=0 note=65 velocity=30 time=1\n",
      "note_on channel=0 note=68 velocity=42 time=0\n",
      "note_off channel=0 note=75 velocity=64 time=0\n",
      "note_on channel=0 note=90 velocity=40 time=0\n",
      "note_on channel=0 note=50 velocity=28 time=1\n",
      "note_off channel=0 note=82 velocity=64 time=0\n",
      "note_off channel=0 note=71 velocity=64 time=1\n",
      "note_off channel=0 note=91 velocity=64 time=0\n",
      "note_on channel=0 note=71 velocity=45 time=1\n",
      "note_on channel=0 note=82 velocity=37 time=0\n",
      "note_off channel=0 note=50 velocity=64 time=1\n",
      "note_off channel=0 note=82 velocity=64 time=2\n",
      "note_on channel=0 note=60 velocity=72 time=1\n",
      "note_off channel=0 note=61 velocity=64 time=0\n",
      "note_on channel=0 note=82 velocity=43 time=0\n",
      "note_on channel=0 note=91 velocity=16 time=0\n",
      "note_off channel=0 note=65 velocity=64 time=1\n",
      "note_off channel=0 note=73 velocity=64 time=0\n",
      "note_on channel=0 note=77 velocity=41 time=0\n",
      "note_off channel=0 note=87 velocity=64 time=0\n",
      "note_off channel=0 note=60 velocity=64 time=1\n",
      "note_on channel=0 note=61 velocity=83 time=0\n",
      "note_on channel=0 note=65 velocity=73 time=0\n",
      "note_on channel=0 note=88 velocity=17 time=0\n",
      "note_on channel=0 note=75 velocity=30 time=1\n",
      "note_off channel=0 note=92 velocity=64 time=0\n",
      "note_on channel=0 note=97 velocity=30 time=0\n",
      "note_off channel=0 note=91 velocity=64 time=1\n",
      "note_on channel=0 note=103 velocity=13 time=0\n",
      "note_on channel=0 note=57 velocity=43 time=1\n",
      "note_off channel=0 note=68 velocity=64 time=0\n",
      "note_off channel=0 note=78 velocity=64 time=0\n",
      "note_off channel=0 note=88 velocity=64 time=0\n",
      "note_on channel=0 note=91 velocity=20 time=0\n",
      "note_on channel=0 note=99 velocity=41 time=0\n",
      "note_on channel=0 note=45 velocity=77 time=1\n",
      "note_on channel=0 note=64 velocity=83 time=0\n",
      "note_off channel=0 note=65 velocity=64 time=0\n",
      "note_on channel=0 note=67 velocity=61 time=0\n",
      "note_off channel=0 note=64 velocity=64 time=1\n",
      "note_off channel=0 note=103 velocity=64 time=0\n",
      "note_on channel=0 note=44 velocity=78 time=1\n",
      "note_off channel=0 note=45 velocity=64 time=0\n",
      "note_off channel=0 note=57 velocity=64 time=0\n",
      "note_on channel=0 note=63 velocity=69 time=0\n",
      "note_off channel=0 note=67 velocity=64 time=0\n",
      "note_off channel=0 note=63 velocity=64 time=1\n",
      "note_on channel=0 note=68 velocity=44 time=0\n",
      "note_off channel=0 note=91 velocity=64 time=0\n",
      "note_off channel=0 note=97 velocity=64 time=0\n",
      "note_on channel=0 note=65 velocity=64 time=1\n",
      "note_on channel=0 note=88 velocity=43 time=0\n",
      "note_off channel=0 note=44 velocity=64 time=1\n",
      "note_on channel=0 note=45 velocity=76 time=0\n",
      "note_off channel=0 note=71 velocity=64 time=0\n",
      "note_off channel=0 note=89 velocity=64 time=0\n",
      "note_off channel=0 note=99 velocity=64 time=0\n",
      "note_on channel=0 note=60 velocity=75 time=1\n",
      "note_off channel=0 note=61 velocity=64 time=0\n",
      "note_on channel=0 note=44 velocity=70 time=1\n",
      "note_off channel=0 note=45 velocity=64 time=0\n",
      "note_on channel=0 note=59 velocity=63 time=1\n",
      "note_off channel=0 note=60 velocity=64 time=0\n",
      "note_off channel=0 note=68 velocity=64 time=0\n",
      "note_on channel=0 note=71 velocity=63 time=0\n",
      "note_on channel=0 note=85 velocity=16 time=0\n",
      "note_on channel=0 note=43 velocity=61 time=1\n",
      "note_off channel=0 note=44 velocity=64 time=0\n",
      "note_on channel=0 note=68 velocity=55 time=0\n",
      "note_on channel=0 note=73 velocity=44 time=0\n",
      "note_on channel=0 note=78 velocity=27 time=1\n",
      "note_off channel=0 note=43 velocity=64 time=1\n",
      "note_on channel=0 note=44 velocity=60 time=2\n",
      "note_off channel=0 note=59 velocity=64 time=0\n",
      "note_off channel=0 note=75 velocity=64 time=0\n",
      "note_off channel=0 note=82 velocity=64 time=0\n",
      "note_on channel=0 note=60 velocity=70 time=1\n",
      "note_on channel=0 note=82 velocity=30 time=0\n",
      "note_off channel=0 note=44 velocity=64 time=1\n",
      "note_on channel=0 note=49 velocity=65 time=0\n",
      "note_on channel=0 note=99 velocity=12 time=0\n",
      "note_on channel=0 note=47 velocity=74 time=1\n",
      "note_off channel=0 note=49 velocity=64 time=0\n",
      "note_off channel=0 note=60 velocity=64 time=0\n",
      "note_on channel=0 note=75 velocity=20 time=1\n",
      "note_off channel=0 note=47 velocity=64 time=1\n",
      "note_on channel=0 note=48 velocity=71 time=0\n",
      "note_off channel=0 note=82 velocity=64 time=0\n",
      "note_off channel=0 note=84 velocity=64 time=0\n",
      "note_off channel=0 note=85 velocity=64 time=0\n",
      "note_on channel=0 note=87 velocity=23 time=0\n",
      "note_on channel=0 note=91 velocity=18 time=0\n",
      "note_off channel=0 note=48 velocity=64 time=1\n",
      "note_on channel=0 note=50 velocity=79 time=0\n",
      "note_on channel=0 note=84 velocity=55 time=0\n",
      "note_on channel=0 note=95 velocity=44 time=0\n",
      "note_off channel=0 note=99 velocity=64 time=0\n",
      "note_off channel=0 note=50 velocity=64 time=1\n",
      "note_on channel=0 note=52 velocity=76 time=0\n",
      "note_off channel=0 note=52 velocity=64 time=1\n",
      "note_on channel=0 note=53 velocity=66 time=0\n",
      "note_off channel=0 note=78 velocity=64 time=0\n",
      "note_off channel=0 note=53 velocity=64 time=1\n",
      "note_off channel=0 note=73 velocity=64 time=0\n",
      "note_on channel=0 note=82 velocity=25 time=0\n",
      "note_on channel=0 note=60 velocity=62 time=1\n",
      "note_on channel=0 note=73 velocity=43 time=0\n",
      "note_on channel=0 note=53 velocity=60 time=1\n",
      "note_off channel=0 note=91 velocity=64 time=0\n",
      "note_on channel=0 note=79 velocity=36 time=1\n",
      "note_off channel=0 note=60 velocity=64 time=1\n",
      "note_on channel=0 note=61 velocity=65 time=0\n",
      "note_off channel=0 note=82 velocity=64 time=0\n",
      "note_on channel=0 note=60 velocity=65 time=1\n",
      "note_off channel=0 note=61 velocity=64 time=0\n",
      "note_off channel=0 note=73 velocity=64 time=0\n",
      "note_off channel=0 note=60 velocity=64 time=1\n",
      "note_on channel=0 note=61 velocity=70 time=0\n",
      "note_off channel=0 note=71 velocity=64 time=0\n",
      "note_on channel=0 note=45 velocity=77 time=1\n",
      "note_off channel=0 note=53 velocity=64 time=0\n",
      "note_on channel=0 note=64 velocity=81 time=0\n",
      "note_off channel=0 note=65 velocity=64 time=0\n",
      "note_on channel=0 note=67 velocity=65 time=0\n",
      "note_off channel=0 note=68 velocity=64 time=0\n",
      "note_off channel=0 note=75 velocity=64 time=0\n",
      "note_on channel=0 note=80 velocity=48 time=0\n",
      "note_off channel=0 note=87 velocity=64 time=0\n",
      "note_off channel=0 note=90 velocity=64 time=0\n",
      "note_off channel=0 note=61 velocity=64 time=1\n",
      "note_off channel=0 note=67 velocity=64 time=0\n",
      "note_on channel=0 note=68 velocity=53 time=0\n",
      "note_on channel=0 note=78 velocity=48 time=0\n",
      "note_off channel=0 note=79 velocity=64 time=0\n",
      "note_on channel=0 note=83 velocity=61 time=0\n",
      "note_off channel=0 note=84 velocity=64 time=0\n",
      "note_on channel=0 note=44 velocity=79 time=1\n",
      "note_off channel=0 note=45 velocity=64 time=0\n",
      "note_on channel=0 note=63 velocity=72 time=0\n",
      "note_off channel=0 note=64 velocity=64 time=0\n",
      "note_on channel=0 note=71 velocity=59 time=0\n",
      "note_off channel=0 note=77 velocity=64 time=0\n",
      "note_on channel=0 note=59 velocity=58 time=1\n",
      "note_off channel=0 note=68 velocity=64 time=0\n",
      "note_on channel=0 note=87 velocity=26 time=0\n",
      "note_off channel=0 note=63 velocity=64 time=1\n",
      "note_on channel=0 note=68 velocity=43 time=0\n",
      "note_on channel=0 note=82 velocity=45 time=1\n",
      "note_off channel=0 note=44 velocity=64 time=1\n",
      "note_on channel=0 note=65 velocity=51 time=0\n",
      "note_on channel=0 note=73 velocity=39 time=2\n",
      "note_on channel=0 note=43 velocity=61 time=1\n",
      "note_on channel=0 note=58 velocity=61 time=0\n",
      "note_off channel=0 note=59 velocity=64 time=0\n",
      "note_off channel=0 note=71 velocity=64 time=0\n",
      "note_on channel=0 note=91 velocity=21 time=0\n",
      "note_on channel=0 note=61 velocity=72 time=1\n",
      "note_off channel=0 note=68 velocity=64 time=0\n",
      "note_off channel=0 note=78 velocity=64 time=0\n",
      "note_on channel=0 note=68 velocity=36 time=1\n",
      "note_off channel=0 note=83 velocity=64 time=0\n",
      "note_on channel=0 note=42 velocity=57 time=2\n",
      "note_off channel=0 note=43 velocity=64 time=0\n",
      "note_on channel=0 note=83 velocity=50 time=0\n",
      "note_off channel=0 note=91 velocity=64 time=0\n",
      "note_off channel=0 note=58 velocity=64 time=1\n",
      "note_on channel=0 note=70 velocity=59 time=0\n",
      "note_off channel=0 note=82 velocity=64 time=0\n",
      "note_off channel=0 note=87 velocity=64 time=0\n",
      "note_on channel=0 note=91 velocity=22 time=0\n",
      "note_on channel=0 note=78 velocity=36 time=1\n",
      "note_on channel=0 note=87 velocity=43 time=0\n",
      "note_off channel=0 note=83 velocity=64 time=1\n",
      "note_off channel=0 note=68 velocity=64 time=2\n",
      "note_off channel=0 note=91 velocity=64 time=0\n",
      "note_off channel=0 note=78 velocity=64 time=1\n",
      "note_on channel=0 note=91 velocity=19 time=0\n",
      "note_on channel=0 note=57 velocity=59 time=1\n",
      "note_on channel=0 note=69 velocity=71 time=0\n",
      "note_off channel=0 note=70 velocity=64 time=0\n",
      "note_on channel=0 note=76 velocity=41 time=0\n",
      "note_off channel=0 note=91 velocity=64 time=2\n",
      "note_off channel=0 note=57 velocity=64 time=1\n",
      "note_off channel=0 note=76 velocity=64 time=0\n",
      "note_off channel=0 note=80 velocity=64 time=0\n",
      "note_on channel=0 note=57 velocity=63 time=1\n",
      "note_on channel=0 note=76 velocity=44 time=0\n",
      "note_on channel=0 note=85 velocity=42 time=2\n",
      "note_on channel=0 note=89 velocity=72 time=0\n",
      "note_off channel=0 note=42 velocity=64 time=1\n",
      "note_off channel=0 note=88 velocity=64 time=0\n",
      "note_on channel=0 note=91 velocity=40 time=0\n",
      "note_on channel=0 note=80 velocity=85 time=1\n",
      "note_on channel=0 note=47 velocity=71 time=1\n",
      "note_on channel=0 note=64 velocity=64 time=0\n",
      "note_off channel=0 note=65 velocity=64 time=0\n",
      "note_off channel=0 note=73 velocity=64 time=0\n",
      "note_on channel=0 note=75 velocity=46 time=0\n",
      "note_off channel=0 note=76 velocity=64 time=0\n",
      "note_on channel=0 note=78 velocity=40 time=0\n",
      "note_off channel=0 note=47 velocity=64 time=1\n",
      "note_on channel=0 note=48 velocity=85 time=0\n",
      "note_off channel=0 note=64 velocity=64 time=1\n",
      "note_off channel=0 note=75 velocity=64 time=0\n",
      "note_off channel=0 note=78 velocity=64 time=0\n",
      "note_on channel=0 note=82 velocity=40 time=0\n",
      "note_on channel=0 note=84 velocity=13 time=0\n",
      "note_off channel=0 note=61 velocity=64 time=1\n",
      "note_on channel=0 note=73 velocity=32 time=0\n",
      "note_off channel=0 note=48 velocity=64 time=1\n",
      "note_on channel=0 note=56 velocity=58 time=0\n",
      "note_off channel=0 note=57 velocity=64 time=0\n",
      "note_on channel=0 note=61 velocity=44 time=0\n",
      "note_on channel=0 note=65 velocity=56 time=0\n",
      "note_on channel=0 note=68 velocity=70 time=0\n",
      "note_off channel=0 note=69 velocity=64 time=0\n",
      "note_on channel=0 note=76 velocity=28 time=1\n",
      "note_on channel=0 note=90 velocity=21 time=1\n",
      "note_off channel=0 note=76 velocity=64 time=2\n",
      "note_off channel=0 note=56 velocity=64 time=1\n",
      "note_on channel=0 note=100 velocity=24 time=0\n",
      "note_on channel=0 note=56 velocity=64 time=1\n",
      "note_off channel=0 note=95 velocity=64 time=1\n",
      "note_on channel=0 note=83 velocity=35 time=1\n",
      "note_on channel=0 note=102 velocity=22 time=0\n",
      "note_on channel=0 note=75 velocity=20 time=1\n",
      "note_off channel=0 note=82 velocity=64 time=0\n",
      "note_off channel=0 note=100 velocity=64 time=0\n",
      "note_on channel=0 note=44 velocity=35 time=1\n",
      "note_off channel=0 note=84 velocity=64 time=1\n",
      "note_off channel=0 note=44 velocity=64 time=1\n",
      "note_off channel=0 note=91 velocity=64 time=1\n",
      "note_on channel=0 note=98 velocity=9 time=0\n",
      "note_on channel=0 note=88 velocity=15 time=2\n",
      "note_off channel=0 note=89 velocity=64 time=0\n",
      "note_on channel=0 note=91 velocity=35 time=2\n",
      "note_on channel=0 note=89 velocity=71 time=1\n",
      "note_off channel=0 note=98 velocity=64 time=0\n",
      "note_off channel=0 note=88 velocity=64 time=1\n",
      "note_off channel=0 note=90 velocity=64 time=2\n",
      "note_on channel=0 note=98 velocity=11 time=1\n",
      "note_off channel=0 note=61 velocity=64 time=2\n",
      "note_off channel=0 note=68 velocity=64 time=0\n",
      "note_on channel=0 note=69 velocity=42 time=0\n",
      "note_off channel=0 note=75 velocity=64 time=0\n",
      "note_on channel=0 note=62 velocity=55 time=1\n",
      "note_off channel=0 note=73 velocity=64 time=0\n",
      "note_on channel=0 note=76 velocity=46 time=0\n",
      "note_off channel=0 note=83 velocity=64 time=0\n",
      "note_on channel=0 note=95 velocity=39 time=0\n",
      "note_on channel=0 note=46 velocity=72 time=1\n",
      "note_off channel=0 note=65 velocity=64 time=0\n",
      "note_on channel=0 note=77 velocity=46 time=0\n",
      "note_on channel=0 note=84 velocity=44 time=0\n",
      "note_on channel=0 note=45 velocity=78 time=1\n",
      "note_off channel=0 note=46 velocity=64 time=0\n",
      "note_on channel=0 note=67 velocity=46 time=0\n",
      "note_on channel=0 note=73 velocity=29 time=0\n",
      "note_on channel=0 note=75 velocity=41 time=0\n",
      "note_off channel=0 note=76 velocity=64 time=0\n",
      "note_on channel=0 note=82 velocity=27 time=0\n",
      "note_off channel=0 note=98 velocity=64 time=0\n",
      "note_on channel=0 note=44 velocity=78 time=1\n",
      "note_off channel=0 note=45 velocity=64 time=0\n",
      "note_off channel=0 note=56 velocity=64 time=0\n",
      "note_on channel=0 note=57 velocity=43 time=0\n",
      "note_off channel=0 note=62 velocity=64 time=0\n",
      "note_on channel=0 note=63 velocity=35 time=0\n",
      "note_off channel=0 note=102 velocity=64 time=0\n",
      "note_off channel=0 note=69 velocity=64 time=1\n",
      "note_off channel=0 note=57 velocity=64 time=1\n",
      "note_on channel=0 note=62 velocity=37 time=0\n",
      "note_off channel=0 note=63 velocity=64 time=0\n",
      "note_on channel=0 note=71 velocity=31 time=0\n",
      "note_off channel=0 note=93 velocity=64 time=0\n",
      "note_on channel=0 note=43 velocity=73 time=1\n",
      "note_off channel=0 note=44 velocity=64 time=0\n",
      "note_off channel=0 note=75 velocity=64 time=0\n",
      "note_on channel=0 note=83 velocity=50 time=0\n",
      "note_off channel=0 note=95 velocity=64 time=0\n",
      "note_off channel=0 note=82 velocity=64 time=1\n",
      "note_off channel=0 note=84 velocity=64 time=1\n",
      "note_on channel=0 note=61 velocity=32 time=1\n",
      "note_off channel=0 note=62 velocity=64 time=0\n",
      "note_off channel=0 note=67 velocity=64 time=0\n",
      "note_on channel=0 note=75 velocity=26 time=0\n",
      "note_on channel=0 note=93 velocity=13 time=0\n",
      "note_off channel=0 note=61 velocity=64 time=2\n",
      "note_off channel=0 note=43 velocity=64 time=2\n",
      "note_off channel=0 note=91 velocity=64 time=0\n",
      "note_off channel=0 note=93 velocity=64 time=0\n",
      "note_off channel=0 note=87 velocity=64 time=1\n",
      "note_on channel=0 note=43 velocity=18 time=1\n",
      "note_on channel=0 note=65 velocity=61 time=0\n",
      "note_off channel=0 note=43 velocity=64 time=3\n",
      "note_off channel=0 note=85 velocity=64 time=3\n",
      "note_on channel=0 note=91 velocity=58 time=1\n",
      "note_off channel=0 note=89 velocity=64 time=2\n",
      "note_on channel=0 note=61 velocity=57 time=3\n",
      "note_on channel=0 note=55 velocity=67 time=1\n",
      "note_on channel=0 note=68 velocity=55 time=1\n",
      "note_off channel=0 note=71 velocity=64 time=0\n",
      "note_off channel=0 note=73 velocity=64 time=0\n",
      "note_on channel=0 note=90 velocity=41 time=0\n",
      "note_on channel=0 note=47 velocity=67 time=1\n",
      "note_off channel=0 note=61 velocity=64 time=0\n",
      "note_on channel=0 note=64 velocity=81 time=0\n",
      "note_off channel=0 note=65 velocity=64 time=0\n",
      "note_on channel=0 note=73 velocity=38 time=0\n",
      "note_on channel=0 note=45 velocity=77 time=1\n",
      "note_off channel=0 note=47 velocity=64 time=0\n",
      "note_off channel=0 note=75 velocity=64 time=0\n",
      "note_on channel=0 note=44 velocity=78 time=1\n",
      "note_off channel=0 note=45 velocity=64 time=0\n",
      "note_off channel=0 note=55 velocity=64 time=0\n",
      "note_on channel=0 note=63 velocity=71 time=0\n",
      "note_off channel=0 note=64 velocity=64 time=0\n",
      "note_on channel=0 note=53 velocity=66 time=1\n",
      "note_off channel=0 note=68 velocity=64 time=0\n",
      "note_off channel=0 note=63 velocity=64 time=1\n",
      "note_off channel=0 note=90 velocity=64 time=0\n",
      "note_off channel=0 note=53 velocity=64 time=1\n",
      "note_on channel=0 note=54 velocity=72 time=0\n",
      "note_on channel=0 note=71 velocity=28 time=0\n",
      "note_on channel=0 note=93 velocity=29 time=0\n",
      "note_on channel=0 note=100 velocity=41 time=0\n",
      "note_off channel=0 note=44 velocity=64 time=1\n",
      "note_on channel=0 note=45 velocity=67 time=0\n",
      "note_on channel=0 note=96 velocity=53 time=0\n",
      "note_on channel=0 note=99 velocity=41 time=0\n",
      "note_on channel=0 note=101 velocity=46 time=0\n",
      "note_on channel=0 note=41 velocity=56 time=1\n",
      "note_off channel=0 note=45 velocity=64 time=0\n",
      "note_off channel=0 note=54 velocity=64 time=0\n",
      "note_on channel=0 note=55 velocity=74 time=0\n",
      "note_on channel=0 note=67 velocity=81 time=0\n",
      "note_on channel=0 note=94 velocity=48 time=0\n",
      "note_on channel=0 note=65 velocity=70 time=1\n",
      "note_off channel=0 note=93 velocity=64 time=0\n",
      "note_off channel=0 note=41 velocity=64 time=1\n",
      "note_on channel=0 note=43 velocity=59 time=0\n",
      "note_off channel=0 note=55 velocity=64 time=0\n",
      "note_on channel=0 note=56 velocity=76 time=0\n",
      "note_on channel=0 note=61 velocity=59 time=0\n",
      "note_off channel=0 note=67 velocity=64 time=0\n",
      "note_on channel=0 note=68 velocity=83 time=0\n",
      "note_off channel=0 note=71 velocity=64 time=0\n",
      "note_on channel=0 note=102 velocity=31 time=0\n",
      "note_off channel=0 note=80 velocity=64 time=1\n",
      "note_on channel=0 note=98 velocity=23 time=0\n",
      "note_off channel=0 note=56 velocity=64 time=2\n",
      "note_on channel=0 note=57 velocity=78 time=0\n",
      "note_off channel=0 note=68 velocity=64 time=0\n",
      "note_on channel=0 note=90 velocity=35 time=0\n",
      "note_on channel=0 note=93 velocity=33 time=0\n",
      "note_off channel=0 note=94 velocity=64 time=0\n",
      "note_on channel=0 note=95 velocity=50 time=0\n",
      "note_off channel=0 note=99 velocity=64 time=0\n",
      "note_off channel=0 note=43 velocity=64 time=1\n",
      "note_on channel=0 note=80 velocity=26 time=0\n",
      "note_off channel=0 note=98 velocity=64 time=0\n",
      "note_on channel=0 note=48 velocity=71 time=1\n",
      "note_on channel=0 note=87 velocity=51 time=0\n",
      "note_on channel=0 note=56 velocity=81 time=2\n",
      "note_off channel=0 note=57 velocity=64 time=0\n",
      "note_on channel=0 note=92 velocity=27 time=0\n",
      "note_on channel=0 note=98 velocity=16 time=0\n",
      "note_on channel=0 note=47 velocity=73 time=1\n",
      "note_off channel=0 note=48 velocity=64 time=0\n",
      "note_on channel=0 note=94 velocity=48 time=0\n",
      "note_off channel=0 note=95 velocity=64 time=0\n",
      "note_off channel=0 note=100 velocity=64 time=0\n",
      "note_off channel=0 note=102 velocity=64 time=0\n",
      "note_off channel=0 note=47 velocity=64 time=1\n",
      "note_on channel=0 note=48 velocity=67 time=0\n",
      "note_on channel=0 note=75 velocity=37 time=0\n",
      "note_on channel=0 note=84 velocity=20 time=0\n",
      "note_off channel=0 note=90 velocity=64 time=0\n",
      "note_on channel=0 note=100 velocity=40 time=0\n",
      "note_off channel=0 note=48 velocity=64 time=1\n",
      "note_on channel=0 note=49 velocity=68 time=0\n",
      "note_off channel=0 note=93 velocity=64 time=0\n",
      "note_off channel=0 note=49 velocity=64 time=1\n",
      "note_on channel=0 note=53 velocity=76 time=0\n",
      "note_off channel=0 note=56 velocity=64 time=0\n",
      "note_off channel=0 note=80 velocity=64 time=0\n",
      "note_off channel=0 note=98 velocity=64 time=0\n",
      "note_on channel=0 note=52 velocity=68 time=1\n",
      "note_off channel=0 note=53 velocity=64 time=0\n",
      "note_off channel=0 note=101 velocity=64 time=0\n",
      "note_off channel=0 note=52 velocity=64 time=1\n",
      "note_on channel=0 note=54 velocity=66 time=0\n",
      "note_off channel=0 note=84 velocity=64 time=0\n",
      "note_on channel=0 note=80 velocity=82 time=1\n",
      "note_on channel=0 note=93 velocity=76 time=0\n",
      "note_off channel=0 note=61 velocity=64 time=1\n",
      "note_on channel=0 note=69 velocity=71 time=0\n",
      "note_off channel=0 note=75 velocity=64 time=0\n",
      "note_on channel=0 note=76 velocity=74 time=0\n",
      "note_off channel=0 note=77 velocity=64 time=0\n",
      "note_off channel=0 note=92 velocity=64 time=0\n",
      "note_off channel=0 note=96 velocity=64 time=0\n",
      "note_on channel=0 note=53 velocity=54 time=1\n",
      "note_off channel=0 note=54 velocity=64 time=0\n",
      "note_off channel=0 note=94 velocity=64 time=0\n",
      "note_on channel=0 note=57 velocity=71 time=1\n",
      "note_off channel=0 note=53 velocity=64 time=1\n",
      "note_off channel=0 note=73 velocity=64 time=1\n",
      "note_on channel=0 note=89 velocity=71 time=0\n",
      "note_off channel=0 note=57 velocity=64 time=1\n",
      "note_on channel=0 note=58 velocity=65 time=0\n",
      "note_off channel=0 note=69 velocity=64 time=0\n",
      "note_on channel=0 note=70 velocity=67 time=0\n",
      "note_on channel=0 note=73 velocity=40 time=0\n",
      "note_on channel=0 note=94 velocity=79 time=0\n",
      "note_on channel=0 note=96 velocity=46 time=0\n",
      "note_on channel=0 note=102 velocity=43 time=0\n",
      "note_on channel=0 note=45 velocity=76 time=1\n",
      "note_on channel=0 note=64 velocity=80 time=0\n",
      "note_off channel=0 note=65 velocity=64 time=0\n",
      "note_on channel=0 note=69 velocity=73 time=0\n",
      "note_off channel=0 note=70 velocity=64 time=0\n",
      "note_off channel=0 note=76 velocity=64 time=0\n",
      "note_on channel=0 note=77 velocity=73 time=0\n",
      "note_on channel=0 note=84 velocity=27 time=0\n",
      "note_on channel=0 note=90 velocity=30 time=0\n",
      "note_off channel=0 note=93 velocity=64 time=0\n",
      "note_on channel=0 note=98 velocity=12 time=0\n",
      "note_off channel=0 note=58 velocity=64 time=1\n",
      "note_on channel=0 note=63 velocity=73 time=0\n",
      "note_off channel=0 note=64 velocity=64 time=0\n",
      "note_on channel=0 note=44 velocity=78 time=1\n",
      "note_off channel=0 note=45 velocity=64 time=0\n",
      "note_on channel=0 note=76 velocity=73 time=1\n",
      "note_off channel=0 note=77 velocity=64 time=0\n",
      "note_off channel=0 note=84 velocity=64 time=0\n",
      "note_off channel=0 note=98 velocity=64 time=0\n",
      "note_off channel=0 note=90 velocity=64 time=1\n",
      "note_on channel=0 note=93 velocity=72 time=0\n",
      "note_on channel=0 note=95 velocity=53 time=0\n",
      "note_off channel=0 note=96 velocity=64 time=0\n",
      "note_off channel=0 note=44 velocity=64 time=1\n",
      "note_on channel=0 note=45 velocity=75 time=0\n",
      "note_off channel=0 note=63 velocity=64 time=0\n",
      "note_off channel=0 note=94 velocity=64 time=0\n",
      "note_on channel=0 note=44 velocity=71 time=2\n",
      "note_off channel=0 note=45 velocity=64 time=0\n",
      "note_off channel=0 note=69 velocity=64 time=1\n",
      "note_on channel=0 note=81 velocity=12 time=0\n",
      "note_off channel=0 note=102 velocity=64 time=0\n",
      "note_off channel=0 note=44 velocity=64 time=1\n",
      "note_on channel=0 note=55 velocity=66 time=0\n",
      "note_off channel=0 note=76 velocity=64 time=0\n",
      "note_off channel=0 note=100 velocity=64 time=0\n",
      "note_on channel=0 note=61 velocity=60 time=1\n",
      "note_on channel=0 note=43 velocity=63 time=1\n",
      "note_on channel=0 note=54 velocity=62 time=0\n",
      "note_off channel=0 note=55 velocity=64 time=0\n",
      "note_off channel=0 note=81 velocity=64 time=0\n",
      "note_off channel=0 note=93 velocity=64 time=1\n",
      "note_off channel=0 note=43 velocity=64 time=1\n",
      "note_off channel=0 note=95 velocity=64 time=0\n",
      "note_on channel=0 note=48 velocity=68 time=1\n",
      "note_off channel=0 note=54 velocity=64 time=0\n",
      "note_on channel=0 note=67 velocity=46 time=0\n",
      "note_on channel=0 note=77 velocity=21 time=0\n",
      "note_on channel=0 note=54 velocity=56 time=1\n",
      "note_off channel=0 note=91 velocity=64 time=0\n",
      "note_on channel=0 note=47 velocity=73 time=1\n",
      "note_off channel=0 note=48 velocity=64 time=0\n",
      "note_on channel=0 note=71 velocity=25 time=0\n",
      "note_off channel=0 note=73 velocity=64 time=0\n",
      "note_off channel=0 note=54 velocity=64 time=1\n",
      "note_on channel=0 note=56 velocity=73 time=0\n",
      "note_off channel=0 note=67 velocity=64 time=0\n",
      "note_on channel=0 note=94 velocity=45 time=0\n",
      "note_off channel=0 note=47 velocity=64 time=1\n",
      "note_on channel=0 note=48 velocity=68 time=0\n",
      "note_on channel=0 note=76 velocity=37 time=0\n",
      "note_off channel=0 note=77 velocity=64 time=0\n",
      "note_on channel=0 note=91 velocity=35 time=0\n",
      "note_on channel=0 note=93 velocity=45 time=0\n",
      "note_off channel=0 note=48 velocity=64 time=1\n",
      "note_on channel=0 note=50 velocity=76 time=0\n",
      "note_off channel=0 note=56 velocity=64 time=0\n",
      "note_on channel=0 note=57 velocity=71 time=0\n",
      "note_off channel=0 note=61 velocity=64 time=0\n",
      "note_off channel=0 note=71 velocity=64 time=0\n",
      "note_on channel=0 note=77 velocity=44 time=0\n",
      "note_off channel=0 note=50 velocity=64 time=1\n",
      "note_on channel=0 note=53 velocity=73 time=0\n",
      "note_off channel=0 note=57 velocity=64 time=0\n",
      "note_on channel=0 note=58 velocity=73 time=0\n",
      "note_off channel=0 note=76 velocity=64 time=0\n",
      "note_on channel=0 note=75 velocity=36 time=1\n",
      "note_off channel=0 note=53 velocity=64 time=1\n",
      "note_off channel=0 note=58 velocity=64 time=0\n",
      "note_on channel=0 note=59 velocity=70 time=0\n",
      "note_on channel=0 note=65 velocity=11 time=0\n",
      "note_on channel=0 note=78 velocity=64 time=0\n",
      "note_off channel=0 note=93 velocity=64 time=0\n",
      "note_off channel=0 note=77 velocity=64 time=1\n",
      "note_on channel=0 note=93 velocity=60 time=0\n",
      "note_on channel=0 note=100 velocity=25 time=0\n",
      "note_on channel=0 note=53 velocity=56 time=1\n",
      "note_off channel=0 note=83 velocity=64 time=0\n",
      "note_off channel=0 note=94 velocity=64 time=0\n",
      "note_off channel=0 note=53 velocity=64 time=2\n",
      "note_on channel=0 note=68 velocity=33 time=1\n",
      "note_off channel=0 note=100 velocity=64 time=0\n",
      "note_off channel=0 note=65 velocity=64 time=1\n",
      "note_on channel=0 note=94 velocity=33 time=0\n",
      "note_on channel=0 note=96 velocity=19 time=0\n",
      "note_on channel=0 note=48 velocity=89 time=1\n",
      "note_on channel=0 note=64 velocity=58 time=0\n",
      "note_off channel=0 note=68 velocity=64 time=0\n",
      "note_off channel=0 note=75 velocity=64 time=0\n",
      "note_on channel=0 note=73 velocity=33 time=1\n",
      "note_off channel=0 note=91 velocity=64 time=0\n",
      "note_on channel=0 note=63 velocity=49 time=1\n",
      "note_off channel=0 note=64 velocity=64 time=0\n",
      "note_on channel=0 note=69 velocity=39 time=0\n",
      "note_on channel=0 note=91 velocity=33 time=0\n",
      "note_off channel=0 note=94 velocity=64 time=0\n",
      "note_off channel=0 note=96 velocity=64 time=0\n",
      "note_on channel=0 note=46 velocity=65 time=1\n",
      "note_off channel=0 note=48 velocity=64 time=0\n",
      "note_on channel=0 note=65 velocity=46 time=0\n",
      "note_off channel=0 note=59 velocity=64 time=1\n",
      "note_off channel=0 note=63 velocity=64 time=0\n",
      "note_off channel=0 note=93 velocity=64 time=0\n",
      "note_off channel=0 note=46 velocity=64 time=1\n",
      "note_on channel=0 note=48 velocity=68 time=0\n",
      "note_off channel=0 note=69 velocity=64 time=0\n",
      "note_on channel=0 note=71 velocity=58 time=0\n",
      "note_off channel=0 note=78 velocity=64 time=0\n",
      "note_off channel=0 note=48 velocity=64 time=1\n",
      "note_on channel=0 note=68 velocity=42 time=0\n",
      "note_on channel=0 note=78 velocity=38 time=0\n",
      "note_on channel=0 note=45 velocity=59 time=1\n",
      "note_on channel=0 note=93 velocity=46 time=0\n",
      "note_off channel=0 note=71 velocity=64 time=1\n",
      "note_on channel=0 note=72 velocity=80 time=0\n",
      "note_off channel=0 note=73 velocity=64 time=0\n",
      "note_on channel=0 note=88 velocity=23 time=0\n",
      "note_on channel=0 note=60 velocity=64 time=1\n",
      "note_off channel=0 note=78 velocity=64 time=0\n",
      "note_off channel=0 note=89 velocity=64 time=1\n",
      "note_off channel=0 note=91 velocity=64 time=0\n",
      "note_off channel=0 note=93 velocity=64 time=0\n",
      "note_on channel=0 note=94 velocity=45 time=0\n",
      "note_off channel=0 note=45 velocity=64 time=1\n",
      "note_off channel=0 note=60 velocity=64 time=0\n",
      "note_on channel=0 note=61 velocity=79 time=0\n",
      "note_off channel=0 note=72 velocity=64 time=1\n",
      "note_on channel=0 note=91 velocity=26 time=0\n",
      "note_on channel=0 note=44 velocity=46 time=1\n",
      "note_on channel=0 note=54 velocity=19 time=0\n",
      "note_on channel=0 note=71 velocity=51 time=0\n",
      "note_off channel=0 note=88 velocity=64 time=0\n",
      "note_off channel=0 note=94 velocity=64 time=0\n",
      "note_on channel=0 note=88 velocity=33 time=1\n",
      "note_on channel=0 note=43 velocity=33 time=1\n",
      "note_off channel=0 note=44 velocity=64 time=0\n",
      "note_on channel=0 note=101 velocity=10 time=0\n",
      "note_off channel=0 note=54 velocity=64 time=1\n",
      "note_off channel=0 note=88 velocity=64 time=0\n",
      "note_off channel=0 note=43 velocity=64 time=1\n",
      "note_off channel=0 note=71 velocity=64 time=0\n",
      "note_on channel=0 note=94 velocity=50 time=0\n",
      "note_on channel=0 note=88 velocity=38 time=1\n",
      "note_off channel=0 note=91 velocity=64 time=0\n",
      "note_off channel=0 note=101 velocity=64 time=0\n",
      "note_on channel=0 note=75 velocity=29 time=1\n",
      "note_on channel=0 note=79 velocity=41 time=0\n",
      "note_off channel=0 note=80 velocity=64 time=0\n",
      "note_on channel=0 note=82 velocity=30 time=0\n",
      "note_on channel=0 note=42 velocity=21 time=1\n",
      "note_off channel=0 note=61 velocity=64 time=0\n",
      "note_on channel=0 note=71 velocity=57 time=0\n",
      "note_on channel=0 note=72 velocity=69 time=0\n",
      "note_on channel=0 note=59 velocity=62 time=1\n",
      "note_off channel=0 note=72 velocity=64 time=0\n",
      "note_on channel=0 note=73 velocity=50 time=0\n",
      "note_off channel=0 note=79 velocity=64 time=0\n",
      "note_on channel=0 note=84 velocity=49 time=0\n",
      "note_off channel=0 note=94 velocity=64 time=0\n",
      "note_on channel=0 note=86 velocity=16 time=1\n",
      "note_off channel=0 note=42 velocity=64 time=1\n",
      "note_on channel=0 note=58 velocity=67 time=0\n",
      "note_off channel=0 note=59 velocity=64 time=0\n",
      "note_off channel=0 note=82 velocity=64 time=3\n",
      "note_on channel=0 note=80 velocity=81 time=1\n",
      "note_on channel=0 note=82 velocity=32 time=0\n",
      "note_on channel=0 note=89 velocity=70 time=0\n",
      "note_off channel=0 note=86 velocity=64 time=1\n",
      "note_on channel=0 note=95 velocity=45 time=0\n",
      "note_off channel=0 note=58 velocity=64 time=1\n",
      "note_on channel=0 note=59 velocity=58 time=0\n",
      "note_off channel=0 note=73 velocity=64 time=0\n",
      "note_off channel=0 note=75 velocity=64 time=0\n",
      "note_on channel=0 note=76 velocity=45 time=0\n",
      "note_on channel=0 note=78 velocity=48 time=0\n",
      "note_on channel=0 note=45 velocity=75 time=1\n",
      "note_off channel=0 note=65 velocity=64 time=0\n",
      "note_off channel=0 note=68 velocity=64 time=0\n",
      "note_on channel=0 note=69 velocity=51 time=0\n",
      "note_off channel=0 note=82 velocity=64 time=0\n",
      "note_on channel=0 note=85 velocity=43 time=0\n",
      "note_off channel=0 note=88 velocity=64 time=0\n",
      "note_on channel=0 note=44 velocity=77 time=1\n",
      "note_off channel=0 note=45 velocity=64 time=0\n",
      "note_on channel=0 note=58 velocity=59 time=0\n",
      "note_off channel=0 note=59 velocity=64 time=0\n",
      "note_on channel=0 note=75 velocity=37 time=0\n",
      "note_off channel=0 note=76 velocity=64 time=0\n",
      "note_on channel=0 note=82 velocity=42 time=0\n",
      "note_off channel=0 note=69 velocity=64 time=1\n",
      "note_off channel=0 note=58 velocity=64 time=1\n",
      "note_on channel=0 note=65 velocity=42 time=0\n",
      "note_on channel=0 note=70 velocity=54 time=0\n",
      "note_off channel=0 note=71 velocity=64 time=0\n",
      "note_on channel=0 note=43 velocity=74 time=1\n",
      "note_off channel=0 note=44 velocity=64 time=0\n",
      "note_on channel=0 note=58 velocity=60 time=0\n",
      "note_on channel=0 note=77 velocity=55 time=0\n",
      "note_off channel=0 note=78 velocity=64 time=0\n",
      "note_on channel=0 note=91 velocity=36 time=0\n",
      "note_off channel=0 note=95 velocity=64 time=0\n",
      "note_on channel=0 note=62 velocity=34 time=1\n",
      "note_on channel=0 note=83 velocity=33 time=0\n",
      "note_on channel=0 note=88 velocity=46 time=0\n",
      "note_on channel=0 note=57 velocity=64 time=1\n",
      "note_off channel=0 note=58 velocity=64 time=0\n",
      "note_on channel=0 note=69 velocity=67 time=0\n",
      "note_off channel=0 note=70 velocity=64 time=0\n",
      "note_on channel=0 note=76 velocity=53 time=0\n",
      "note_off channel=0 note=77 velocity=64 time=0\n",
      "note_off channel=0 note=82 velocity=64 time=0\n",
      "note_on channel=0 note=73 velocity=27 time=1\n",
      "note_off channel=0 note=75 velocity=64 time=0\n",
      "note_off channel=0 note=62 velocity=64 time=1\n",
      "note_off channel=0 note=84 velocity=64 time=0\n",
      "note_off channel=0 note=89 velocity=64 time=0\n",
      "note_on channel=0 note=90 velocity=40 time=1\n",
      "note_on channel=0 note=56 velocity=68 time=1\n",
      "note_off channel=0 note=57 velocity=64 time=0\n",
      "note_on channel=0 note=75 velocity=55 time=0\n",
      "note_off channel=0 note=76 velocity=64 time=0\n",
      "note_on channel=0 note=84 velocity=47 time=0\n",
      "note_off channel=0 note=91 velocity=64 time=0\n",
      "note_off channel=0 note=43 velocity=64 time=1\n",
      "note_on channel=0 note=44 velocity=28 time=0\n",
      "note_off channel=0 note=69 velocity=64 time=1\n",
      "note_on channel=0 note=71 velocity=38 time=0\n",
      "note_on channel=0 note=82 velocity=31 time=0\n",
      "note_off channel=0 note=44 velocity=64 time=2\n",
      "note_off channel=0 note=56 velocity=64 time=0\n",
      "note_on channel=0 note=57 velocity=67 time=0\n",
      "note_on channel=0 note=76 velocity=61 time=0\n",
      "note_off channel=0 note=83 velocity=64 time=0\n",
      "note_off channel=0 note=71 velocity=64 time=1\n",
      "note_off channel=0 note=75 velocity=64 time=0\n",
      "note_on channel=0 note=83 velocity=53 time=0\n",
      "note_off channel=0 note=85 velocity=64 time=0\n",
      "note_off channel=0 note=82 velocity=64 time=1\n",
      "note_on channel=0 note=85 velocity=36 time=0\n",
      "note_off channel=0 note=90 velocity=64 time=0\n",
      "note_on channel=0 note=91 velocity=22 time=0\n",
      "note_off channel=0 note=57 velocity=64 time=1\n",
      "note_on channel=0 note=58 velocity=59 time=0\n",
      "note_on channel=0 note=75 velocity=37 time=0\n",
      "note_off channel=0 note=76 velocity=64 time=0\n",
      "note_on channel=0 note=77 velocity=61 time=0\n",
      "note_on channel=0 note=86 velocity=43 time=0\n",
      "note_on channel=0 note=71 velocity=45 time=1\n",
      "note_off channel=0 note=84 velocity=64 time=0\n",
      "note_off channel=0 note=85 velocity=64 time=0\n",
      "note_on channel=0 note=90 velocity=31 time=0\n",
      "note_off channel=0 note=58 velocity=64 time=1\n",
      "note_on channel=0 note=59 velocity=54 time=0\n",
      "note_on channel=0 note=68 velocity=40 time=0\n",
      "note_off channel=0 note=73 velocity=64 time=0\n",
      "note_off channel=0 note=77 velocity=64 time=0\n",
      "note_on channel=0 note=78 velocity=53 time=0\n",
      "note_off channel=0 note=86 velocity=64 time=0\n",
      "note_off channel=0 note=91 velocity=64 time=0\n",
      "note_off channel=0 note=71 velocity=64 time=1\n",
      "note_on channel=0 note=82 velocity=26 time=0\n",
      "note_on channel=0 note=86 velocity=22 time=0\n",
      "note_on channel=0 note=91 velocity=37 time=0\n",
      "note_off channel=0 note=59 velocity=64 time=1\n",
      "note_on channel=0 note=60 velocity=53 time=0\n",
      "note_on channel=0 note=71 velocity=64 time=0\n",
      "note_off channel=0 note=83 velocity=64 time=1\n",
      "note_on channel=0 note=59 velocity=52 time=1\n",
      "note_off channel=0 note=60 velocity=64 time=0\n",
      "note_off channel=0 note=82 velocity=64 time=0\n",
      "note_off channel=0 note=91 velocity=64 time=0\n",
      "note_on channel=0 note=72 velocity=40 time=1\n",
      "note_on channel=0 note=73 velocity=39 time=0\n",
      "note_on channel=0 note=82 velocity=40 time=0\n",
      "note_off channel=0 note=86 velocity=64 time=0\n",
      "note_on channel=0 note=58 velocity=57 time=1\n",
      "note_off channel=0 note=59 velocity=64 time=0\n",
      "note_off channel=0 note=71 velocity=64 time=0\n",
      "note_on channel=0 note=89 velocity=42 time=0\n",
      "note_off channel=0 note=90 velocity=64 time=0\n",
      "note_off channel=0 note=72 velocity=64 time=1\n",
      "note_on channel=0 note=77 velocity=48 time=0\n",
      "note_on channel=0 note=86 velocity=42 time=0\n",
      "note_on channel=0 note=48 velocity=58 time=1\n",
      "note_off channel=0 note=58 velocity=64 time=0\n",
      "note_on channel=0 note=59 velocity=58 time=0\n",
      "note_on channel=0 note=64 velocity=82 time=0\n",
      "note_off channel=0 note=75 velocity=64 time=0\n",
      "note_off channel=0 note=78 velocity=64 time=0\n",
      "note_off channel=0 note=88 velocity=64 time=0\n",
      "note_on channel=0 note=90 velocity=54 time=0\n",
      "note_off channel=0 note=65 velocity=64 time=1\n",
      "note_off channel=0 note=68 velocity=64 time=0\n",
      "note_off channel=0 note=87 velocity=64 time=0\n",
      "note_off channel=0 note=89 velocity=64 time=0\n",
      "note_on channel=0 note=91 velocity=43 time=0\n",
      "note_on channel=0 note=45 velocity=78 time=1\n",
      "note_off channel=0 note=48 velocity=64 time=0\n",
      "note_off channel=0 note=59 velocity=64 time=0\n",
      "note_on channel=0 note=78 velocity=50 time=0\n",
      "note_off channel=0 note=80 velocity=64 time=0\n",
      "note_on channel=0 note=84 velocity=44 time=0\n",
      "note_on channel=0 note=87 velocity=42 time=0\n",
      "note_on channel=0 note=72 velocity=54 time=1\n",
      "note_off channel=0 note=73 velocity=64 time=0\n",
      "note_off channel=0 note=77 velocity=64 time=0\n",
      "note_on channel=0 note=81 velocity=30 time=0\n",
      "note_off channel=0 note=86 velocity=64 time=0\n",
      "note_on channel=0 note=88 velocity=36 time=0\n",
      "note_on channel=0 note=44 velocity=79 time=1\n",
      "note_off channel=0 note=45 velocity=64 time=0\n",
      "note_on channel=0 note=63 velocity=70 time=0\n",
      "note_off channel=0 note=64 velocity=64 time=0\n",
      "note_off channel=0 note=82 velocity=64 time=0\n",
      "note_on channel=0 note=83 velocity=35 time=0\n",
      "note_on channel=0 note=61 velocity=59 time=1\n",
      "note_on channel=0 note=68 velocity=42 time=0\n",
      "note_on channel=0 note=71 velocity=53 time=0\n",
      "note_off channel=0 note=72 velocity=64 time=0\n",
      "note_off channel=0 note=81 velocity=64 time=0\n",
      "note_off channel=0 note=63 velocity=64 time=1\n",
      "note_on channel=0 note=74 velocity=37 time=0\n",
      "note_on channel=0 note=82 velocity=34 time=0\n",
      "note_off channel=0 note=88 velocity=64 time=0\n",
      "note_on channel=0 note=65 velocity=69 time=1\n",
      "note_on channel=0 note=81 velocity=37 time=0\n",
      "note_off channel=0 note=83 velocity=64 time=0\n",
      "note_off channel=0 note=84 velocity=64 time=0\n",
      "note_off channel=0 note=87 velocity=64 time=0\n",
      "note_on channel=0 note=88 velocity=25 time=0\n",
      "note_off channel=0 note=44 velocity=64 time=1\n",
      "note_off channel=0 note=61 velocity=64 time=0\n",
      "note_on channel=0 note=62 velocity=59 time=0\n",
      "note_off channel=0 note=78 velocity=64 time=1\n",
      "note_on channel=0 note=80 velocity=45 time=0\n",
      "note_off channel=0 note=81 velocity=64 time=0\n",
      "note_on channel=0 note=89 velocity=40 time=0\n",
      "note_off channel=0 note=90 velocity=64 time=0\n",
      "note_on channel=0 note=61 velocity=78 time=1\n",
      "note_off channel=0 note=62 velocity=64 time=0\n",
      "note_off channel=0 note=74 velocity=64 time=0\n",
      "note_off channel=0 note=88 velocity=64 time=0\n",
      "note_on channel=0 note=90 velocity=64 time=1\n",
      "note_on channel=0 note=75 velocity=26 time=1\n",
      "note_off channel=0 note=82 velocity=64 time=0\n",
      "note_on channel=0 note=84 velocity=31 time=0\n",
      "note_on channel=0 note=87 velocity=47 time=0\n",
      "note_on channel=0 note=88 velocity=35 time=0\n",
      "note_on channel=0 note=42 velocity=55 time=1\n",
      "note_off channel=0 note=71 velocity=64 time=0\n",
      "note_on channel=0 note=72 velocity=55 time=0\n",
      "note_on channel=0 note=78 velocity=58 time=0\n",
      "note_on channel=0 note=82 velocity=32 time=0\n",
      "note_off channel=0 note=89 velocity=64 time=0\n",
      "note_off channel=0 note=61 velocity=64 time=1\n",
      "note_off channel=0 note=84 velocity=64 time=0\n",
      "note_off channel=0 note=91 velocity=64 time=0\n",
      "note_off channel=0 note=42 velocity=64 time=1\n",
      "note_on channel=0 note=47 velocity=72 time=1\n",
      "note_on channel=0 note=71 velocity=64 time=0\n",
      "note_off channel=0 note=72 velocity=64 time=0\n",
      "note_off channel=0 note=80 velocity=64 time=0\n",
      "note_off channel=0 note=82 velocity=64 time=0\n",
      "note_on channel=0 note=73 velocity=26 time=1\n",
      "note_on channel=0 note=80 velocity=47 time=0\n",
      "note_on channel=0 note=93 velocity=40 time=1\n",
      "note_off channel=0 note=47 velocity=64 time=1\n",
      "note_on channel=0 note=48 velocity=72 time=0\n",
      "note_on channel=0 note=59 velocity=55 time=0\n",
      "note_off channel=0 note=88 velocity=64 time=0\n",
      "note_off channel=0 note=73 velocity=64 time=1\n",
      "note_off channel=0 note=48 velocity=64 time=1\n",
      "note_on channel=0 note=50 velocity=78 time=0\n",
      "note_on channel=0 note=73 velocity=34 time=0\n",
      "note_off channel=0 note=50 velocity=64 time=1\n",
      "note_on channel=0 note=53 velocity=74 time=0\n",
      "note_on channel=0 note=82 velocity=29 time=0\n",
      "note_on channel=0 note=89 velocity=27 time=0\n",
      "note_on channel=0 note=84 velocity=33 time=1\n",
      "note_off channel=0 note=59 velocity=64 time=1\n",
      "note_off channel=0 note=53 velocity=64 time=1\n",
      "note_on channel=0 note=70 velocity=39 time=0\n",
      "note_off channel=0 note=71 velocity=64 time=0\n",
      "note_off channel=0 note=89 velocity=64 time=0\n",
      "note_on channel=0 note=53 velocity=59 time=1\n",
      "note_on channel=0 note=58 velocity=61 time=0\n",
      "note_off channel=0 note=78 velocity=64 time=0\n",
      "note_off channel=0 note=82 velocity=64 time=0\n",
      "note_on channel=0 note=83 velocity=40 time=0\n",
      "note_on channel=0 note=89 velocity=48 time=0\n",
      "note_off channel=0 note=90 velocity=64 time=1\n",
      "note_off channel=0 note=53 velocity=64 time=2\n",
      "note_off channel=0 note=58 velocity=64 time=0\n",
      "note_off channel=0 note=70 velocity=64 time=0\n",
      "note_on channel=0 note=71 velocity=46 time=0\n",
      "note_on channel=0 note=90 velocity=45 time=0\n",
      "note_off channel=0 note=68 velocity=64 time=1\n",
      "note_off channel=0 note=73 velocity=64 time=0\n",
      "note_on channel=0 note=46 velocity=68 time=1\n",
      "note_on channel=0 note=64 velocity=83 time=0\n",
      "note_off channel=0 note=65 velocity=64 time=0\n",
      "note_off channel=0 note=75 velocity=64 time=0\n",
      "note_on channel=0 note=78 velocity=51 time=0\n",
      "note_on channel=0 note=79 velocity=43 time=0\n",
      "note_off channel=0 note=80 velocity=64 time=0\n",
      "note_on channel=0 note=88 velocity=35 time=0\n",
      "note_off channel=0 note=89 velocity=64 time=0\n",
      "note_on channel=0 note=45 velocity=77 time=1\n",
      "note_off channel=0 note=46 velocity=64 time=0\n",
      "note_on channel=0 note=58 velocity=61 time=0\n",
      "note_on channel=0 note=82 velocity=40 time=0\n",
      "note_on channel=0 note=44 velocity=79 time=1\n",
      "note_off channel=0 note=45 velocity=64 time=0\n",
      "note_on channel=0 note=63 velocity=68 time=0\n",
      "note_on channel=0 note=73 velocity=29 time=0\n",
      "note_on channel=0 note=77 velocity=51 time=0\n",
      "note_off channel=0 note=78 velocity=64 time=0\n",
      "note_off channel=0 note=79 velocity=64 time=0\n",
      "note_on channel=0 note=80 velocity=87 time=0\n",
      "note_off channel=0 note=83 velocity=64 time=0\n",
      "note_on channel=0 note=86 velocity=17 time=0\n",
      "note_off channel=0 note=64 velocity=64 time=1\n",
      "note_on channel=0 note=69 velocity=51 time=0\n",
      "note_off channel=0 note=71 velocity=64 time=0\n",
      "note_off channel=0 note=88 velocity=64 time=0\n",
      "note_off channel=0 note=90 velocity=64 time=0\n",
      "note_off channel=0 note=63 velocity=64 time=1\n",
      "note_on channel=0 note=65 velocity=56 time=0\n",
      "note_on channel=0 note=76 velocity=51 time=0\n",
      "note_off channel=0 note=77 velocity=64 time=0\n",
      "note_on channel=0 note=57 velocity=59 time=1\n",
      "note_off channel=0 note=58 velocity=64 time=0\n",
      "note_on channel=0 note=61 velocity=41 time=0\n",
      "note_off channel=0 note=86 velocity=64 time=0\n",
      "note_on channel=0 note=91 velocity=33 time=0\n",
      "note_off channel=0 note=44 velocity=64 time=1\n",
      "note_on channel=0 note=90 velocity=55 time=0\n",
      "note_off channel=0 note=57 velocity=64 time=1\n",
      "note_on channel=0 note=58 velocity=53 time=0\n",
      "note_off channel=0 note=61 velocity=64 time=0\n",
      "note_off channel=0 note=76 velocity=64 time=0\n",
      "note_off channel=0 note=69 velocity=64 time=1\n",
      "note_off channel=0 note=87 velocity=64 time=0\n",
      "note_on channel=0 note=43 velocity=63 time=1\n",
      "note_on channel=0 note=61 velocity=50 time=0\n",
      "note_on channel=0 note=57 velocity=55 time=1\n",
      "note_off channel=0 note=58 velocity=64 time=0\n",
      "note_on channel=0 note=42 velocity=56 time=1\n",
      "note_off channel=0 note=43 velocity=64 time=0\n",
      "note_off channel=0 note=61 velocity=64 time=0\n",
      "note_on channel=0 note=76 velocity=50 time=0\n",
      "note_on channel=0 note=61 velocity=55 time=1\n",
      "note_off channel=0 note=91 velocity=64 time=0\n",
      "note_on channel=0 note=87 velocity=43 time=1\n",
      "note_on channel=0 note=91 velocity=31 time=0\n",
      "note_off channel=0 note=42 velocity=64 time=1\n",
      "note_on channel=0 note=56 velocity=60 time=0\n",
      "note_off channel=0 note=57 velocity=64 time=0\n",
      "note_off channel=0 note=73 velocity=64 time=0\n",
      "note_on channel=0 note=75 velocity=47 time=0\n",
      "note_off channel=0 note=76 velocity=64 time=0\n",
      "note_on channel=0 note=86 velocity=13 time=0\n",
      "note_on channel=0 note=48 velocity=72 time=1\n",
      "note_on channel=0 note=88 velocity=20 time=0\n",
      "note_off channel=0 note=91 velocity=64 time=1\n",
      "note_on channel=0 note=47 velocity=74 time=1\n",
      "note_off channel=0 note=48 velocity=64 time=0\n",
      "note_off channel=0 note=84 velocity=64 time=0\n",
      "note_off channel=0 note=47 velocity=64 time=1\n",
      "note_on channel=0 note=48 velocity=71 time=0\n",
      "note_on channel=0 note=85 velocity=44 time=0\n",
      "note_off channel=0 note=86 velocity=64 time=0\n",
      "note_off channel=0 note=88 velocity=64 time=0\n",
      "note_on channel=0 note=91 velocity=34 time=0\n",
      "note_off channel=0 note=48 velocity=64 time=1\n",
      "note_on channel=0 note=49 velocity=76 time=0\n",
      "note_off channel=0 note=56 velocity=64 time=0\n",
      "note_on channel=0 note=84 velocity=27 time=0\n",
      "note_off channel=0 note=49 velocity=64 time=1\n",
      "note_on channel=0 note=52 velocity=76 time=0\n",
      "note_on channel=0 note=69 velocity=53 time=0\n",
      "note_on channel=0 note=76 velocity=40 time=0\n",
      "note_off channel=0 note=91 velocity=64 time=0\n",
      "note_off channel=0 note=52 velocity=64 time=1\n",
      "note_on channel=0 note=54 velocity=70 time=0\n",
      "note_off channel=0 note=61 velocity=64 time=0\n",
      "note_off channel=0 note=75 velocity=64 time=0\n",
      "note_off channel=0 note=54 velocity=64 time=1\n",
      "note_on channel=0 note=56 velocity=65 time=0\n",
      "note_on channel=0 note=61 velocity=29 time=0\n",
      "note_off channel=0 note=69 velocity=64 time=0\n",
      "note_on channel=0 note=75 velocity=36 time=0\n",
      "note_off channel=0 note=76 velocity=64 time=0\n",
      "note_off channel=0 note=56 velocity=64 time=1\n",
      "note_on channel=0 note=57 velocity=70 time=0\n",
      "note_on channel=0 note=56 velocity=72 time=1\n",
      "note_off channel=0 note=57 velocity=64 time=0\n",
      "note_on channel=0 note=88 velocity=38 time=1\n",
      "note_off channel=0 note=93 velocity=64 time=0\n",
      "note_off channel=0 note=75 velocity=64 time=2\n",
      "note_off channel=0 note=61 velocity=64 time=1\n",
      "note_off channel=0 note=82 velocity=64 time=0\n",
      "note_on channel=0 note=83 velocity=43 time=0\n",
      "note_on channel=0 note=89 velocity=70 time=0\n",
      "note_on channel=0 note=93 velocity=23 time=0\n",
      "note_on channel=0 note=95 velocity=45 time=0\n",
      "note_on channel=0 note=48 velocity=87 time=1\n",
      "note_on channel=0 note=63 velocity=56 time=0\n",
      "note_off channel=0 note=65 velocity=64 time=0\n",
      "note_off channel=0 note=84 velocity=64 time=0\n",
      "note_off channel=0 note=88 velocity=64 time=0\n",
      "note_on channel=0 note=98 velocity=23 time=0\n",
      "note_on channel=0 note=73 velocity=34 time=1\n",
      "note_on channel=0 note=78 velocity=35 time=0\n",
      "note_on channel=0 note=82 velocity=42 time=0\n",
      "note_off channel=0 note=83 velocity=64 time=0\n",
      "note_on channel=0 note=91 velocity=22 time=0\n",
      "note_off channel=0 note=93 velocity=64 time=1\n",
      "note_on channel=0 note=77 velocity=26 time=1\n",
      "note_off channel=0 note=78 velocity=64 time=0\n",
      "note_on channel=0 note=84 velocity=13 time=0\n",
      "note_off channel=0 note=87 velocity=64 time=0\n",
      "note_off channel=0 note=90 velocity=64 time=0\n",
      "note_off channel=0 note=98 velocity=64 time=0\n",
      "note_off channel=0 note=48 velocity=64 time=1\n",
      "note_off channel=0 note=63 velocity=64 time=0\n",
      "note_on channel=0 note=65 velocity=33 time=0\n",
      "note_off channel=0 note=82 velocity=64 time=0\n",
      "note_on channel=0 note=83 velocity=34 time=0\n",
      "note_on channel=0 note=90 velocity=34 time=0\n",
      "note_on channel=0 note=93 velocity=31 time=0\n",
      "note_on channel=0 note=47 velocity=68 time=1\n",
      "note_on channel=0 note=61 velocity=27 time=0\n",
      "note_off channel=0 note=91 velocity=64 time=0\n",
      "note_off channel=0 note=47 velocity=64 time=1\n",
      "note_on channel=0 note=71 velocity=14 time=0\n",
      "note_on channel=0 note=91 velocity=27 time=0\n",
      "note_on channel=0 note=82 velocity=36 time=1\n",
      "note_on channel=0 note=87 velocity=48 time=0\n",
      "note_on channel=0 note=45 velocity=60 time=1\n",
      "note_on channel=0 note=75 velocity=15 time=0\n",
      "note_off channel=0 note=83 velocity=64 time=0\n",
      "note_off channel=0 note=91 velocity=64 time=2\n",
      "note_on channel=0 note=44 velocity=50 time=1\n",
      "note_off channel=0 note=45 velocity=64 time=0\n",
      "note_off channel=0 note=65 velocity=64 time=0\n",
      "note_off channel=0 note=84 velocity=64 time=0\n",
      "note_on channel=0 note=55 velocity=71 time=2\n",
      "note_off channel=0 note=56 velocity=64 time=0\n",
      "note_off channel=0 note=61 velocity=64 time=2\n",
      "note_off channel=0 note=75 velocity=64 time=0\n",
      "note_on channel=0 note=91 velocity=22 time=0\n",
      "note_on channel=0 note=43 velocity=30 time=1\n",
      "note_off channel=0 note=44 velocity=64 time=0\n",
      "note_on channel=0 note=66 velocity=59 time=0\n",
      "note_on channel=0 note=54 velocity=59 time=1\n",
      "note_off channel=0 note=55 velocity=64 time=0\n",
      "note_off channel=0 note=43 velocity=64 time=1\n",
      "note_on channel=0 note=43 velocity=27 time=1\n",
      "note_off channel=0 note=91 velocity=64 time=0\n",
      "note_off channel=0 note=54 velocity=64 time=1\n",
      "note_off channel=0 note=77 velocity=64 time=0\n",
      "note_on channel=0 note=91 velocity=22 time=0\n",
      "note_on channel=0 note=54 velocity=53 time=1\n",
      "note_on channel=0 note=75 velocity=47 time=1\n",
      "note_off channel=0 note=43 velocity=64 time=1\n",
      "note_on channel=0 note=53 velocity=69 time=0\n",
      "note_off channel=0 note=54 velocity=64 time=0\n",
      "note_off channel=0 note=71 velocity=64 time=0\n",
      "note_off channel=0 note=66 velocity=64 time=1\n",
      "note_off channel=0 note=73 velocity=64 time=1\n",
      "note_on channel=0 note=84 velocity=13 time=0\n",
      "note_on channel=0 note=71 velocity=32 time=1\n",
      "note_on channel=0 note=100 velocity=11 time=0\n",
      "note_off channel=0 note=71 velocity=64 time=2\n",
      "note_on channel=0 note=66 velocity=47 time=1\n",
      "note_off channel=0 note=84 velocity=64 time=0\n",
      "note_off channel=0 note=90 velocity=64 time=0\n",
      "note_on channel=0 note=102 velocity=19 time=0\n",
      "note_on channel=0 note=46 velocity=72 time=1\n",
      "note_off channel=0 note=53 velocity=64 time=0\n",
      "note_on channel=0 note=69 velocity=47 time=0\n"
     ]
    },
    {
     "name": "stdout",
     "output_type": "stream",
     "text": [
      "note_on channel=0 note=73 velocity=44 time=0\n",
      "note_on channel=0 note=84 velocity=43 time=0\n",
      "note_on channel=0 note=90 velocity=39 time=0\n",
      "note_on channel=0 note=98 velocity=15 time=0\n",
      "note_off channel=0 note=100 velocity=64 time=0\n",
      "note_on channel=0 note=45 velocity=76 time=1\n",
      "note_off channel=0 note=46 velocity=64 time=0\n",
      "note_off channel=0 note=66 velocity=64 time=0\n",
      "note_on channel=0 note=67 velocity=45 time=0\n",
      "note_on channel=0 note=44 velocity=77 time=1\n",
      "note_off channel=0 note=45 velocity=64 time=0\n",
      "note_on channel=0 note=52 velocity=58 time=0\n",
      "note_on channel=0 note=63 velocity=39 time=0\n",
      "note_off channel=0 note=102 velocity=64 time=0\n",
      "note_off channel=0 note=69 velocity=64 time=1\n",
      "note_off channel=0 note=84 velocity=64 time=0\n",
      "note_off channel=0 note=90 velocity=64 time=0\n",
      "note_off channel=0 note=98 velocity=64 time=0\n",
      "note_off channel=0 note=52 velocity=64 time=1\n",
      "note_on channel=0 note=62 velocity=37 time=0\n",
      "note_on channel=0 note=71 velocity=27 time=0\n",
      "note_on channel=0 note=77 velocity=38 time=0\n",
      "note_on channel=0 note=43 velocity=73 time=1\n",
      "note_off channel=0 note=44 velocity=64 time=0\n",
      "note_off channel=0 note=63 velocity=64 time=0\n",
      "note_on channel=0 note=65 velocity=64 time=1\n",
      "note_off channel=0 note=67 velocity=64 time=0\n",
      "note_on channel=0 note=88 velocity=31 time=0\n",
      "note_on channel=0 note=52 velocity=39 time=1\n",
      "note_on channel=0 note=90 velocity=42 time=0\n",
      "note_on channel=0 note=61 velocity=32 time=1\n",
      "note_off channel=0 note=62 velocity=64 time=0\n",
      "note_off channel=0 note=89 velocity=64 time=0\n",
      "note_off channel=0 note=52 velocity=64 time=1\n",
      "note_off channel=0 note=61 velocity=64 time=2\n",
      "note_off channel=0 note=43 velocity=64 time=1\n",
      "note_on channel=0 note=61 velocity=14 time=0\n",
      "note_off channel=0 note=75 velocity=64 time=0\n",
      "note_on channel=0 note=53 velocity=15 time=1\n",
      "note_on channel=0 note=68 velocity=49 time=0\n",
      "note_off channel=0 note=88 velocity=64 time=1\n",
      "note_off channel=0 note=91 velocity=64 time=0\n",
      "note_on channel=0 note=91 velocity=35 time=1\n",
      "note_off channel=0 note=53 velocity=64 time=1\n",
      "note_off channel=0 note=85 velocity=64 time=2\n",
      "note_on channel=0 note=89 velocity=48 time=0\n",
      "note_off channel=0 note=95 velocity=64 time=2\n",
      "note_off channel=0 note=93 velocity=64 time=2\n",
      "note_on channel=0 note=75 velocity=49 time=3\n",
      "note_on channel=0 note=83 velocity=52 time=2\n",
      "note_on channel=0 note=50 velocity=41 time=1\n",
      "note_off channel=0 note=61 velocity=64 time=0\n",
      "note_off channel=0 note=71 velocity=64 time=0\n",
      "note_off channel=0 note=82 velocity=64 time=0\n",
      "note_on channel=0 note=93 velocity=60 time=0\n",
      "note_on channel=0 note=95 velocity=67 time=0\n",
      "note_on channel=0 note=96 velocity=42 time=0\n",
      "note_on channel=0 note=62 velocity=90 time=1\n",
      "note_off channel=0 note=65 velocity=64 time=0\n",
      "note_on channel=0 note=72 velocity=49 time=0\n",
      "note_off channel=0 note=73 velocity=64 time=0\n",
      "note_on channel=0 note=82 velocity=66 time=0\n",
      "note_off channel=0 note=83 velocity=64 time=0\n",
      "note_on channel=0 note=97 velocity=33 time=0\n",
      "note_on channel=0 note=100 velocity=41 time=0\n",
      "note_off channel=0 note=50 velocity=64 time=1\n",
      "note_on channel=0 note=51 velocity=60 time=0\n",
      "note_on channel=0 note=57 velocity=43 time=0\n",
      "note_off channel=0 note=62 velocity=64 time=0\n",
      "note_on channel=0 note=63 velocity=96 time=0\n",
      "note_off channel=0 note=68 velocity=64 time=0\n",
      "note_on channel=0 note=69 velocity=63 time=0\n",
      "note_on channel=0 note=85 velocity=27 time=0\n",
      "note_on channel=0 note=98 velocity=13 time=0\n",
      "note_off channel=0 note=72 velocity=64 time=1\n",
      "note_on channel=0 note=78 velocity=28 time=0\n",
      "note_on channel=0 note=83 velocity=51 time=0\n",
      "note_off channel=0 note=91 velocity=64 time=0\n",
      "note_on channel=0 note=50 velocity=67 time=1\n",
      "note_off channel=0 note=51 velocity=64 time=0\n",
      "note_off channel=0 note=57 velocity=64 time=0\n",
      "note_on channel=0 note=74 velocity=43 time=0\n",
      "note_off channel=0 note=77 velocity=64 time=0\n",
      "note_off channel=0 note=82 velocity=64 time=0\n",
      "note_on channel=0 note=88 velocity=25 time=0\n",
      "note_off channel=0 note=75 velocity=64 time=1\n",
      "note_on channel=0 note=77 velocity=20 time=0\n",
      "note_off channel=0 note=89 velocity=64 time=0\n",
      "note_off channel=0 note=98 velocity=64 time=0\n",
      "note_off channel=0 note=69 velocity=64 time=1\n",
      "note_on channel=0 note=70 velocity=53 time=0\n",
      "note_on channel=0 note=91 velocity=34 time=0\n",
      "note_off channel=0 note=93 velocity=64 time=0\n",
      "note_on channel=0 note=94 velocity=57 time=0\n",
      "note_off channel=0 note=50 velocity=64 time=1\n",
      "note_off channel=0 note=74 velocity=64 time=0\n",
      "note_on channel=0 note=93 velocity=43 time=0\n",
      "note_on channel=0 note=98 velocity=15 time=0\n",
      "note_on channel=0 note=52 velocity=50 time=1\n",
      "note_on channel=0 note=76 velocity=31 time=0\n",
      "note_off channel=0 note=77 velocity=64 time=0\n",
      "note_off channel=0 note=88 velocity=64 time=0\n",
      "note_on channel=0 note=89 velocity=57 time=0\n",
      "note_off channel=0 note=95 velocity=64 time=0\n",
      "note_off channel=0 note=100 velocity=64 time=0\n",
      "note_off channel=0 note=70 velocity=64 time=1\n",
      "note_on channel=0 note=77 velocity=26 time=0\n",
      "note_off channel=0 note=78 velocity=64 time=0\n",
      "note_off channel=0 note=94 velocity=64 time=0\n",
      "note_on channel=0 note=100 velocity=36 time=0\n",
      "note_on channel=0 note=51 velocity=52 time=1\n",
      "note_off channel=0 note=52 velocity=64 time=0\n",
      "note_on channel=0 note=70 velocity=50 time=0\n",
      "note_off channel=0 note=76 velocity=64 time=0\n",
      "note_off channel=0 note=90 velocity=64 time=0\n",
      "note_on channel=0 note=94 velocity=68 time=0\n",
      "note_off channel=0 note=98 velocity=64 time=0\n",
      "note_on channel=0 note=50 velocity=38 time=2\n",
      "note_off channel=0 note=51 velocity=64 time=0\n",
      "note_on channel=0 note=73 velocity=14 time=0\n",
      "note_off channel=0 note=93 velocity=64 time=0\n",
      "note_off channel=0 note=91 velocity=64 time=1\n",
      "note_off channel=0 note=96 velocity=64 time=0\n",
      "note_on channel=0 note=91 velocity=40 time=1\n",
      "note_off channel=0 note=50 velocity=64 time=1\n",
      "note_on channel=0 note=52 velocity=45 time=0\n",
      "note_on channel=0 note=93 velocity=49 time=0\n",
      "note_off channel=0 note=70 velocity=64 time=1\n",
      "note_on channel=0 note=71 velocity=36 time=0\n",
      "note_off channel=0 note=85 velocity=64 time=0\n",
      "note_on channel=0 note=90 velocity=17 time=0\n",
      "note_on channel=0 note=96 velocity=16 time=0\n",
      "note_off channel=0 note=94 velocity=64 time=1\n",
      "note_on channel=0 note=102 velocity=25 time=0\n",
      "note_on channel=0 note=70 velocity=35 time=1\n",
      "note_off channel=0 note=71 velocity=64 time=0\n",
      "note_off channel=0 note=97 velocity=64 time=0\n",
      "note_off channel=0 note=100 velocity=64 time=0\n",
      "note_off channel=0 note=90 velocity=64 time=1\n",
      "note_off channel=0 note=96 velocity=64 time=0\n",
      "note_off channel=0 note=52 velocity=64 time=1\n",
      "note_off channel=0 note=70 velocity=64 time=0\n",
      "note_on channel=0 note=85 velocity=34 time=0\n",
      "note_off channel=0 note=102 velocity=64 time=0\n",
      "note_on channel=0 note=70 velocity=46 time=1\n",
      "note_on channel=0 note=51 velocity=51 time=1\n",
      "note_off channel=0 note=93 velocity=64 time=0\n",
      "note_off channel=0 note=70 velocity=64 time=3\n",
      "note_off channel=0 note=77 velocity=64 time=0\n",
      "note_off channel=0 note=51 velocity=64 time=1\n",
      "note_off channel=0 note=83 velocity=64 time=0\n",
      "note_off channel=0 note=73 velocity=64 time=1\n",
      "note_on channel=0 note=77 velocity=45 time=1\n",
      "note_on channel=0 note=83 velocity=30 time=0\n",
      "note_on channel=0 note=82 velocity=64 time=1\n",
      "note_on channel=0 note=62 velocity=80 time=1\n",
      "note_off channel=0 note=63 velocity=64 time=0\n",
      "note_off channel=0 note=83 velocity=64 time=0\n",
      "note_on channel=0 note=69 velocity=70 time=1\n",
      "note_on channel=0 note=72 velocity=50 time=0\n",
      "note_on channel=0 note=75 velocity=65 time=0\n",
      "note_on channel=0 note=78 velocity=30 time=0\n",
      "note_on channel=0 note=90 velocity=46 time=0\n",
      "note_on channel=0 note=93 velocity=30 time=0\n",
      "note_on channel=0 note=94 velocity=71 time=0\n",
      "note_on channel=0 note=96 velocity=46 time=0\n",
      "note_off channel=0 note=62 velocity=64 time=1\n",
      "note_on channel=0 note=63 velocity=85 time=0\n",
      "note_on channel=0 note=100 velocity=32 time=0\n",
      "note_on channel=0 note=56 velocity=58 time=1\n",
      "note_on channel=0 note=68 velocity=76 time=0\n",
      "note_off channel=0 note=69 velocity=64 time=0\n",
      "note_off channel=0 note=78 velocity=64 time=0\n",
      "note_off channel=0 note=72 velocity=64 time=1\n",
      "note_on channel=0 note=73 velocity=30 time=0\n",
      "note_on channel=0 note=98 velocity=34 time=0\n",
      "note_off channel=0 note=100 velocity=64 time=0\n",
      "note_on channel=0 note=71 velocity=46 time=1\n",
      "note_off channel=0 note=82 velocity=64 time=0\n",
      "note_off channel=0 note=93 velocity=64 time=1\n",
      "note_on channel=0 note=100 velocity=49 time=1\n",
      "note_off channel=0 note=85 velocity=64 time=1\n",
      "note_on channel=0 note=97 velocity=35 time=1\n",
      "note_off channel=0 note=98 velocity=64 time=0\n",
      "note_off channel=0 note=89 velocity=64 time=1\n",
      "note_on channel=0 note=101 velocity=30 time=0\n",
      "note_on channel=0 note=89 velocity=77 time=1\n",
      "note_off channel=0 note=90 velocity=64 time=1\n",
      "note_off channel=0 note=101 velocity=64 time=0\n",
      "note_on channel=0 note=102 velocity=32 time=0\n",
      "note_on channel=0 note=90 velocity=14 time=1\n",
      "note_off channel=0 note=97 velocity=64 time=2\n",
      "note_on channel=0 note=98 velocity=22 time=0\n",
      "note_off channel=0 note=56 velocity=64 time=1\n",
      "note_on channel=0 note=57 velocity=41 time=0\n",
      "note_off channel=0 note=100 velocity=64 time=0\n",
      "note_off channel=0 note=98 velocity=64 time=2\n",
      "note_off channel=0 note=90 velocity=64 time=1\n",
      "note_off channel=0 note=102 velocity=64 time=0\n",
      "note_on channel=0 note=55 velocity=45 time=1\n",
      "note_off channel=0 note=57 velocity=64 time=0\n",
      "note_off channel=0 note=94 velocity=64 time=0\n",
      "note_off channel=0 note=55 velocity=64 time=2\n",
      "note_on channel=0 note=56 velocity=43 time=0\n",
      "note_off channel=0 note=96 velocity=64 time=0\n",
      "note_off channel=0 note=75 velocity=64 time=1\n",
      "note_off channel=0 note=91 velocity=64 time=3\n",
      "note_off channel=0 note=56 velocity=64 time=1\n",
      "note_on channel=0 note=93 velocity=30 time=0\n",
      "note_on channel=0 note=94 velocity=40 time=0\n",
      "note_on channel=0 note=56 velocity=45 time=1\n",
      "note_on channel=0 note=84 velocity=28 time=1\n",
      "note_on channel=0 note=102 velocity=24 time=0\n",
      "note_off channel=0 note=56 velocity=64 time=1\n",
      "note_off channel=0 note=68 velocity=64 time=0\n",
      "note_on channel=0 note=69 velocity=70 time=0\n",
      "note_off channel=0 note=71 velocity=64 time=0\n",
      "note_off channel=0 note=73 velocity=64 time=0\n",
      "note_on channel=0 note=85 velocity=43 time=0\n",
      "note_on channel=0 note=95 velocity=44 time=0\n",
      "note_on channel=0 note=56 velocity=57 time=1\n",
      "note_on channel=0 note=68 velocity=75 time=0\n",
      "note_off channel=0 note=69 velocity=64 time=0\n",
      "note_on channel=0 note=71 velocity=45 time=0\n",
      "note_on channel=0 note=73 velocity=38 time=0\n",
      "note_off channel=0 note=94 velocity=64 time=0\n",
      "note_on channel=0 note=90 velocity=67 time=1\n",
      "note_off channel=0 note=93 velocity=64 time=0\n",
      "note_on channel=0 note=76 velocity=63 time=1\n",
      "note_off channel=0 note=77 velocity=64 time=0\n",
      "note_off channel=0 note=95 velocity=64 time=0\n",
      "note_off channel=0 note=68 velocity=64 time=1\n",
      "note_on channel=0 note=69 velocity=72 time=0\n",
      "note_off channel=0 note=71 velocity=64 time=0\n",
      "note_off channel=0 note=84 velocity=64 time=0\n",
      "note_on channel=0 note=100 velocity=20 time=0\n",
      "note_off channel=0 note=56 velocity=64 time=1\n",
      "note_on channel=0 note=57 velocity=67 time=0\n",
      "note_on channel=0 note=71 velocity=39 time=0\n",
      "note_on channel=0 note=93 velocity=40 time=0\n",
      "note_off channel=0 note=102 velocity=64 time=0\n",
      "note_off channel=0 note=63 velocity=64 time=2\n",
      "note_off channel=0 note=71 velocity=64 time=1\n",
      "note_off channel=0 note=90 velocity=64 time=0\n",
      "note_on channel=0 note=91 velocity=57 time=0\n",
      "note_on channel=0 note=102 velocity=30 time=1\n",
      "note_off channel=0 note=89 velocity=64 time=1\n",
      "note_on channel=0 note=61 velocity=17 time=2\n",
      "note_on channel=0 note=89 velocity=13 time=1\n",
      "note_off channel=0 note=100 velocity=64 time=0\n",
      "note_on channel=0 note=101 velocity=21 time=0\n",
      "note_off channel=0 note=102 velocity=64 time=0\n",
      "note_on channel=0 note=71 velocity=33 time=2\n",
      "note_off channel=0 note=80 velocity=64 time=1\n",
      "note_off channel=0 note=87 velocity=64 time=0\n",
      "note_off channel=0 note=61 velocity=64 time=1\n",
      "note_off channel=0 note=71 velocity=64 time=0\n",
      "note_on channel=0 note=65 velocity=32 time=1\n",
      "note_off channel=0 note=89 velocity=64 time=0\n",
      "note_off channel=0 note=101 velocity=64 time=0\n",
      "note_on channel=0 note=90 velocity=40 time=1\n",
      "note_off channel=0 note=91 velocity=64 time=0\n",
      "note_on channel=0 note=80 velocity=51 time=1\n",
      "note_on channel=0 note=83 velocity=35 time=0\n",
      "note_off channel=0 note=85 velocity=64 time=0\n",
      "note_on channel=0 note=56 velocity=66 time=1\n",
      "note_off channel=0 note=57 velocity=64 time=0\n",
      "note_off channel=0 note=69 velocity=64 time=0\n",
      "note_on channel=0 note=71 velocity=37 time=0\n",
      "note_on channel=0 note=75 velocity=29 time=0\n",
      "note_off channel=0 note=93 velocity=64 time=0\n",
      "note_off channel=0 note=76 velocity=64 time=1\n",
      "note_on channel=0 note=77 velocity=35 time=0\n",
      "note_on channel=0 note=91 velocity=25 time=0\n",
      "note_on channel=0 note=55 velocity=74 time=1\n",
      "note_off channel=0 note=56 velocity=64 time=0\n",
      "note_off channel=0 note=65 velocity=64 time=0\n",
      "note_off channel=0 note=75 velocity=64 time=0\n",
      "note_on channel=0 note=76 velocity=22 time=0\n",
      "note_on channel=0 note=65 velocity=41 time=3\n",
      "note_off channel=0 note=91 velocity=64 time=0\n",
      "note_off channel=0 note=76 velocity=64 time=1\n",
      "note_off channel=0 note=55 velocity=64 time=1\n",
      "note_on channel=0 note=56 velocity=76 time=0\n",
      "note_on channel=0 note=61 velocity=78 time=0\n",
      "note_off channel=0 note=65 velocity=64 time=0\n",
      "note_on channel=0 note=75 velocity=36 time=0\n",
      "note_on channel=0 note=79 velocity=42 time=0\n",
      "note_on channel=0 note=84 velocity=43 time=0\n",
      "note_off channel=0 note=90 velocity=64 time=0\n",
      "note_on channel=0 note=55 velocity=81 time=1\n",
      "note_off channel=0 note=56 velocity=64 time=0\n",
      "note_off channel=0 note=71 velocity=64 time=0\n",
      "note_on channel=0 note=72 velocity=37 time=0\n",
      "note_off channel=0 note=73 velocity=64 time=0\n",
      "note_off channel=0 note=83 velocity=64 time=0\n",
      "note_on channel=0 note=90 velocity=46 time=0\n",
      "note_off channel=0 note=55 velocity=64 time=1\n",
      "note_on channel=0 note=56 velocity=73 time=0\n",
      "note_on channel=0 note=63 velocity=67 time=0\n",
      "note_on channel=0 note=67 velocity=62 time=0\n",
      "note_off channel=0 note=75 velocity=64 time=0\n",
      "note_on channel=0 note=83 velocity=51 time=0\n",
      "note_off channel=0 note=84 velocity=64 time=0\n",
      "note_on channel=0 note=87 velocity=21 time=0\n",
      "note_off channel=0 note=63 velocity=64 time=1\n",
      "note_on channel=0 note=70 velocity=40 time=0\n",
      "note_off channel=0 note=72 velocity=64 time=0\n",
      "note_on channel=0 note=75 velocity=26 time=0\n",
      "note_off channel=0 note=90 velocity=64 time=0\n",
      "note_off channel=0 note=56 velocity=64 time=1\n",
      "note_off channel=0 note=61 velocity=64 time=0\n",
      "note_on channel=0 note=62 velocity=62 time=0\n",
      "note_on channel=0 note=66 velocity=54 time=0\n",
      "note_off channel=0 note=67 velocity=64 time=0\n",
      "note_off channel=0 note=79 velocity=64 time=1\n",
      "note_on channel=0 note=90 velocity=17 time=0\n",
      "note_on channel=0 note=53 velocity=65 time=1\n",
      "note_off channel=0 note=62 velocity=64 time=0\n",
      "note_on channel=0 note=68 velocity=35 time=0\n",
      "note_off channel=0 note=70 velocity=64 time=0\n",
      "note_on channel=0 note=71 velocity=47 time=0\n",
      "note_off channel=0 note=75 velocity=64 time=0\n",
      "note_on channel=0 note=81 velocity=31 time=0\n",
      "note_off channel=0 note=66 velocity=64 time=1\n",
      "note_off channel=0 note=68 velocity=64 time=1\n",
      "note_on channel=0 note=72 velocity=39 time=0\n",
      "note_off channel=0 note=90 velocity=64 time=0\n",
      "note_off channel=0 note=77 velocity=64 time=1\n",
      "note_on channel=0 note=85 velocity=25 time=0\n",
      "note_on channel=0 note=89 velocity=25 time=0\n",
      "note_off channel=0 note=53 velocity=64 time=1\n",
      "note_on channel=0 note=54 velocity=66 time=0\n",
      "note_off channel=0 note=72 velocity=64 time=0\n",
      "note_on channel=0 note=73 velocity=35 time=0\n",
      "note_on channel=0 note=90 velocity=39 time=0\n",
      "note_off channel=0 note=81 velocity=64 time=1\n",
      "note_on channel=0 note=82 velocity=28 time=0\n",
      "note_on channel=0 note=68 velocity=38 time=1\n",
      "note_off channel=0 note=87 velocity=64 time=0\n",
      "note_on channel=0 note=75 velocity=51 time=2\n",
      "note_on channel=0 note=81 velocity=37 time=0\n",
      "note_off channel=0 note=82 velocity=64 time=0\n",
      "note_on channel=0 note=66 velocity=76 time=1\n",
      "note_off channel=0 note=73 velocity=64 time=0\n",
      "note_off channel=0 note=80 velocity=64 time=0\n",
      "note_on channel=0 note=82 velocity=60 time=0\n",
      "note_on channel=0 note=53 velocity=66 time=1\n",
      "note_off channel=0 note=54 velocity=64 time=0\n",
      "note_on channel=0 note=61 velocity=41 time=0\n",
      "note_off channel=0 note=68 velocity=64 time=0\n",
      "note_off channel=0 note=83 velocity=64 time=0\n",
      "note_off channel=0 note=53 velocity=64 time=1\n",
      "note_on channel=0 note=54 velocity=69 time=0\n",
      "note_on channel=0 note=77 velocity=27 time=0\n",
      "note_off channel=0 note=81 velocity=64 time=0\n",
      "note_off channel=0 note=61 velocity=64 time=1\n",
      "note_off channel=0 note=89 velocity=64 time=0\n",
      "note_on channel=0 note=73 velocity=18 time=1\n",
      "note_on channel=0 note=80 velocity=48 time=0\n",
      "note_off channel=0 note=77 velocity=64 time=1\n",
      "note_on channel=0 note=61 velocity=31 time=1\n",
      "note_off channel=0 note=85 velocity=64 time=0\n",
      "note_off channel=0 note=82 velocity=64 time=1\n",
      "note_on channel=0 note=88 velocity=34 time=0\n",
      "note_on channel=0 note=82 velocity=44 time=1\n",
      "note_on channel=0 note=84 velocity=11 time=2\n",
      "note_on channel=0 note=48 velocity=59 time=4\n",
      "note_on channel=0 note=77 velocity=44 time=0\n",
      "note_off channel=0 note=61 velocity=64 time=1\n",
      "note_on channel=0 note=64 velocity=82 time=0\n",
      "note_off channel=0 note=73 velocity=64 time=0\n",
      "note_on channel=0 note=74 velocity=32 time=0\n",
      "note_off channel=0 note=75 velocity=64 time=0\n",
      "note_off channel=0 note=84 velocity=64 time=0\n",
      "note_on channel=0 note=45 velocity=78 time=1\n",
      "note_off channel=0 note=48 velocity=64 time=0\n",
      "note_off channel=0 note=54 velocity=64 time=0\n",
      "note_on channel=0 note=55 velocity=65 time=0\n",
      "note_off channel=0 note=66 velocity=64 time=0\n",
      "note_on channel=0 note=67 velocity=79 time=0\n",
      "note_on channel=0 note=73 velocity=33 time=0\n",
      "note_off channel=0 note=82 velocity=64 time=0\n",
      "note_off channel=0 note=88 velocity=64 time=0\n",
      "note_on channel=0 note=63 velocity=76 time=1\n",
      "note_off channel=0 note=64 velocity=64 time=0\n",
      "note_off channel=0 note=74 velocity=64 time=0\n",
      "note_on channel=0 note=82 velocity=30 time=0\n",
      "note_on channel=0 note=44 velocity=78 time=1\n",
      "note_off channel=0 note=45 velocity=64 time=0\n",
      "note_off channel=0 note=55 velocity=64 time=0\n",
      "note_off channel=0 note=67 velocity=64 time=0\n",
      "note_on channel=0 note=68 velocity=73 time=0\n",
      "note_on channel=0 note=84 velocity=32 time=0\n",
      "note_off channel=0 note=71 velocity=64 time=1\n",
      "note_on channel=0 note=86 velocity=16 time=0\n",
      "note_on channel=0 note=78 velocity=11 time=1\n",
      "note_on channel=0 note=88 velocity=29 time=0\n",
      "note_off channel=0 note=44 velocity=64 time=1\n",
      "note_on channel=0 note=45 velocity=75 time=0\n",
      "note_off channel=0 note=68 velocity=64 time=0\n",
      "note_off channel=0 note=77 velocity=64 time=0\n",
      "note_off channel=0 note=80 velocity=64 time=0\n",
      "note_on channel=0 note=56 velocity=64 time=1\n",
      "note_on channel=0 note=61 velocity=58 time=0\n",
      "note_off channel=0 note=63 velocity=64 time=0\n",
      "note_on channel=0 note=65 velocity=52 time=0\n",
      "note_on channel=0 note=68 velocity=72 time=0\n",
      "note_on channel=0 note=71 velocity=32 time=0\n",
      "note_off channel=0 note=86 velocity=64 time=0\n",
      "note_on channel=0 note=89 velocity=44 time=0\n",
      "note_on channel=0 note=44 velocity=70 time=1\n",
      "note_off channel=0 note=45 velocity=64 time=0\n",
      "note_off channel=0 note=78 velocity=64 time=0\n",
      "note_off channel=0 note=88 velocity=64 time=0\n",
      "note_on channel=0 note=83 velocity=54 time=1\n",
      "note_off channel=0 note=44 velocity=64 time=1\n",
      "note_on channel=0 note=42 velocity=59 time=1\n",
      "note_off channel=0 note=82 velocity=64 time=0\n",
      "note_off channel=0 note=42 velocity=64 time=2\n",
      "note_off channel=0 note=71 velocity=64 time=0\n",
      "note_on channel=0 note=71 velocity=23 time=1\n",
      "note_off channel=0 note=73 velocity=64 time=0\n",
      "note_off channel=0 note=84 velocity=64 time=0\n",
      "note_on channel=0 note=75 velocity=12 time=1\n",
      "note_on channel=0 note=84 velocity=37 time=0\n",
      "note_on channel=0 note=49 velocity=69 time=1\n",
      "note_on channel=0 note=47 velocity=76 time=1\n",
      "note_off channel=0 note=49 velocity=64 time=0\n",
      "note_on channel=0 note=86 velocity=14 time=0\n",
      "note_off channel=0 note=47 velocity=64 time=1\n",
      "note_on channel=0 note=48 velocity=73 time=0\n",
      "note_off channel=0 note=75 velocity=64 time=0\n",
      "note_off channel=0 note=84 velocity=64 time=0\n",
      "note_off channel=0 note=90 velocity=64 time=0\n",
      "note_off channel=0 note=48 velocity=64 time=1\n",
      "note_on channel=0 note=49 velocity=71 time=0\n",
      "note_off channel=0 note=49 velocity=64 time=1\n",
      "note_on channel=0 note=53 velocity=79 time=0\n",
      "note_off channel=0 note=56 velocity=64 time=0\n",
      "note_on channel=0 note=67 velocity=66 time=0\n",
      "note_off channel=0 note=68 velocity=64 time=0\n",
      "note_on channel=0 note=74 velocity=41 time=0\n",
      "note_off channel=0 note=53 velocity=64 time=1\n",
      "note_on channel=0 note=54 velocity=79 time=0\n",
      "note_off channel=0 note=65 velocity=64 time=0\n",
      "note_off channel=0 note=54 velocity=64 time=1\n",
      "note_on channel=0 note=55 velocity=67 time=0\n",
      "note_off channel=0 note=61 velocity=64 time=0\n",
      "note_on channel=0 note=65 velocity=52 time=0\n",
      "note_off channel=0 note=71 velocity=64 time=0\n",
      "note_off channel=0 note=55 velocity=64 time=1\n",
      "note_on channel=0 note=56 velocity=69 time=0\n",
      "note_on channel=0 note=61 velocity=26 time=1\n",
      "note_on channel=0 note=73 velocity=48 time=0\n",
      "note_off channel=0 note=74 velocity=64 time=0\n",
      "note_off channel=0 note=86 velocity=64 time=0\n",
      "note_on channel=0 note=53 velocity=71 time=1\n",
      "note_off channel=0 note=56 velocity=64 time=0\n",
      "note_off channel=0 note=65 velocity=64 time=0\n",
      "note_off channel=0 note=67 velocity=64 time=0\n",
      "note_on channel=0 note=78 velocity=22 time=0\n",
      "note_on channel=0 note=84 velocity=29 time=0\n",
      "note_on channel=0 note=90 velocity=52 time=0\n",
      "note_on channel=0 note=82 velocity=37 time=1\n",
      "note_off channel=0 note=83 velocity=64 time=0\n",
      "note_on channel=0 note=68 velocity=34 time=1\n",
      "note_off channel=0 note=73 velocity=64 time=0\n",
      "note_on channel=0 note=83 velocity=36 time=0\n",
      "note_off channel=0 note=84 velocity=64 time=0\n",
      "note_on channel=0 note=86 velocity=14 time=0\n",
      "note_on channel=0 note=52 velocity=70 time=1\n",
      "note_off channel=0 note=53 velocity=64 time=0\n",
      "note_on channel=0 note=71 velocity=53 time=0\n",
      "note_off channel=0 note=78 velocity=64 time=0\n",
      "note_on channel=0 note=87 velocity=45 time=0\n",
      "note_off channel=0 note=61 velocity=64 time=1\n",
      "note_on channel=0 note=64 velocity=81 time=0\n",
      "note_off channel=0 note=68 velocity=64 time=0\n",
      "note_on channel=0 note=91 velocity=37 time=0\n",
      "note_on channel=0 note=45 velocity=77 time=1\n",
      "note_off channel=0 note=52 velocity=64 time=0\n",
      "note_on channel=0 note=53 velocity=73 time=0\n",
      "note_on channel=0 note=75 velocity=26 time=0\n",
      "note_on channel=0 note=79 velocity=45 time=0\n",
      "note_on channel=0 note=81 velocity=32 time=0\n",
      "note_off channel=0 note=83 velocity=64 time=0\n",
      "note_on channel=0 note=85 velocity=29 time=0\n",
      "note_off channel=0 note=89 velocity=64 time=0\n",
      "note_on channel=0 note=63 velocity=75 time=1\n",
      "note_off channel=0 note=64 velocity=64 time=0\n",
      "note_off channel=0 note=71 velocity=64 time=0\n",
      "note_on channel=0 note=72 velocity=60 time=0\n",
      "note_on channel=0 note=44 velocity=79 time=1\n",
      "note_off channel=0 note=45 velocity=64 time=0\n",
      "note_on channel=0 note=69 velocity=39 time=0\n",
      "note_off channel=0 note=79 velocity=64 time=0\n",
      "note_off channel=0 note=86 velocity=64 time=0\n",
      "note_on channel=0 note=83 velocity=45 time=1\n",
      "note_off channel=0 note=63 velocity=64 time=1\n",
      "note_on channel=0 note=68 velocity=39 time=0\n",
      "note_off channel=0 note=69 velocity=64 time=0\n",
      "note_on channel=0 note=61 velocity=74 time=1\n",
      "note_off channel=0 note=91 velocity=64 time=0\n",
      "note_off channel=0 note=44 velocity=64 time=1\n",
      "note_off channel=0 note=82 velocity=64 time=0\n",
      "note_on channel=0 note=88 velocity=36 time=0\n",
      "note_on channel=0 note=50 velocity=66 time=1\n",
      "note_off channel=0 note=53 velocity=64 time=0\n",
      "note_on channel=0 note=71 velocity=54 time=0\n",
      "note_off channel=0 note=72 velocity=64 time=0\n",
      "note_off channel=0 note=75 velocity=64 time=0\n",
      "note_on channel=0 note=76 velocity=42 time=0\n",
      "note_off channel=0 note=81 velocity=64 time=0\n",
      "note_off channel=0 note=50 velocity=64 time=1\n",
      "note_on channel=0 note=52 velocity=70 time=0\n",
      "note_on channel=0 note=82 velocity=40 time=0\n",
      "note_off channel=0 note=88 velocity=64 time=0\n",
      "note_on channel=0 note=43 velocity=61 time=1\n",
      "note_off channel=0 note=68 velocity=64 time=0\n",
      "note_off channel=0 note=83 velocity=64 time=0\n",
      "note_on channel=0 note=86 velocity=17 time=0\n",
      "note_on channel=0 note=68 velocity=23 time=1\n",
      "note_off channel=0 note=43 velocity=64 time=1\n",
      "note_on channel=0 note=78 velocity=25 time=0\n",
      "note_on channel=0 note=43 velocity=57 time=1\n",
      "note_off channel=0 note=82 velocity=64 time=0\n",
      "note_off channel=0 note=86 velocity=64 time=1\n",
      "note_on channel=0 note=42 velocity=56 time=1\n",
      "note_off channel=0 note=43 velocity=64 time=0\n",
      "note_off channel=0 note=78 velocity=64 time=1\n",
      "note_on channel=0 note=78 velocity=23 time=1\n",
      "note_off channel=0 note=68 velocity=64 time=1\n",
      "note_off channel=0 note=71 velocity=64 time=0\n",
      "note_on channel=0 note=75 velocity=23 time=0\n",
      "note_off channel=0 note=76 velocity=64 time=0\n",
      "note_on channel=0 note=84 velocity=13 time=0\n",
      "note_on channel=0 note=91 velocity=35 time=0\n",
      "note_on channel=0 note=77 velocity=23 time=1\n",
      "note_on channel=0 note=89 velocity=73 time=0\n",
      "note_off channel=0 note=42 velocity=64 time=2\n",
      "note_off channel=0 note=78 velocity=64 time=0\n",
      "note_on channel=0 note=42 velocity=52 time=1\n",
      "note_on channel=0 note=51 velocity=55 time=0\n",
      "note_off channel=0 note=52 velocity=64 time=0\n",
      "note_off channel=0 note=85 velocity=64 time=1\n",
      "note_on channel=0 note=86 velocity=17 time=0\n",
      "note_on channel=0 note=80 velocity=84 time=1\n",
      "note_off channel=0 note=84 velocity=64 time=0\n",
      "note_off channel=0 note=51 velocity=64 time=1\n",
      "note_on channel=0 note=67 velocity=30 time=1\n",
      "note_on channel=0 note=52 velocity=56 time=1\n",
      "note_on channel=0 note=71 velocity=46 time=0\n",
      "note_on channel=0 note=85 velocity=49 time=0\n",
      "note_on channel=0 note=93 velocity=31 time=0\n",
      "note_off channel=0 note=42 velocity=64 time=1\n",
      "note_off channel=0 note=75 velocity=64 time=0\n",
      "note_on channel=0 note=76 velocity=34 time=0\n",
      "note_off channel=0 note=77 velocity=64 time=0\n",
      "note_on channel=0 note=75 velocity=47 time=1\n",
      "note_on channel=0 note=82 velocity=41 time=0\n",
      "note_on channel=0 note=47 velocity=77 time=1\n",
      "note_off channel=0 note=52 velocity=64 time=0\n",
      "note_off channel=0 note=67 velocity=64 time=0\n",
      "note_off channel=0 note=76 velocity=64 time=0\n",
      "note_off channel=0 note=86 velocity=64 time=0\n",
      "note_off channel=0 note=90 velocity=64 time=0\n",
      "note_off channel=0 note=47 velocity=64 time=1\n",
      "note_on channel=0 note=48 velocity=85 time=0\n",
      "note_on channel=0 note=64 velocity=60 time=0\n",
      "note_on channel=0 note=70 velocity=35 time=0\n",
      "note_off channel=0 note=71 velocity=64 time=0\n",
      "note_on channel=0 note=78 velocity=24 time=0\n",
      "note_off channel=0 note=82 velocity=64 time=0\n",
      "note_on channel=0 note=84 velocity=48 time=0\n",
      "note_off channel=0 note=61 velocity=64 time=1\n",
      "note_off channel=0 note=48 velocity=64 time=1\n",
      "note_on channel=0 note=49 velocity=72 time=0\n",
      "note_off channel=0 note=64 velocity=64 time=0\n",
      "note_off channel=0 note=70 velocity=64 time=0\n",
      "note_on channel=0 note=82 velocity=41 time=0\n",
      "note_on channel=0 note=90 velocity=24 time=0\n",
      "note_off channel=0 note=49 velocity=64 time=1\n",
      "note_on channel=0 note=65 velocity=46 time=0\n",
      "note_on channel=0 note=71 velocity=45 time=0\n",
      "note_off channel=0 note=75 velocity=64 time=0\n",
      "note_off channel=0 note=78 velocity=64 time=1\n",
      "note_on channel=0 note=50 velocity=59 time=1\n",
      "note_on channel=0 note=73 velocity=31 time=0\n",
      "note_off channel=0 note=82 velocity=64 time=0\n",
      "note_off channel=0 note=91 velocity=64 time=0\n",
      "note_on channel=0 note=75 velocity=19 time=1\n",
      "note_off channel=0 note=50 velocity=64 time=2\n",
      "note_on channel=0 note=53 velocity=42 time=0\n",
      "note_on channel=0 note=44 velocity=35 time=2\n",
      "note_off channel=0 note=53 velocity=64 time=1\n",
      "note_on channel=0 note=54 velocity=34 time=0\n",
      "note_off channel=0 note=44 velocity=64 time=1\n",
      "note_on channel=0 note=44 velocity=30 time=1\n",
      "note_on channel=0 note=61 velocity=9 time=0\n",
      "note_off channel=0 note=85 velocity=64 time=0\n",
      "note_on channel=0 note=53 velocity=36 time=1\n",
      "note_off channel=0 note=54 velocity=64 time=0\n",
      "note_on channel=0 note=82 velocity=36 time=0\n",
      "note_off channel=0 note=44 velocity=64 time=1\n",
      "note_off channel=0 note=53 velocity=64 time=1\n",
      "note_on channel=0 note=54 velocity=29 time=0\n",
      "note_on channel=0 note=86 velocity=22 time=0\n",
      "note_on channel=0 note=88 velocity=17 time=0\n",
      "note_off channel=0 note=89 velocity=64 time=0\n",
      "note_off channel=0 note=61 velocity=64 time=1\n",
      "note_off channel=0 note=82 velocity=64 time=0\n",
      "note_on channel=0 note=82 velocity=44 time=1\n",
      "note_on channel=0 note=91 velocity=16 time=0\n",
      "note_on channel=0 note=42 velocity=13 time=1\n",
      "note_on channel=0 note=53 velocity=34 time=0\n",
      "note_off channel=0 note=54 velocity=64 time=0\n",
      "note_off channel=0 note=86 velocity=64 time=0\n",
      "note_off channel=0 note=53 velocity=64 time=2\n",
      "note_off channel=0 note=87 velocity=64 time=0\n",
      "note_on channel=0 note=78 velocity=17 time=1\n",
      "note_off channel=0 note=91 velocity=64 time=0\n",
      "note_off channel=0 note=42 velocity=64 time=2\n",
      "note_on channel=0 note=87 velocity=36 time=0\n",
      "note_on channel=0 note=91 velocity=40 time=0\n",
      "note_off channel=0 note=75 velocity=64 time=1\n",
      "note_on channel=0 note=86 velocity=16 time=0\n",
      "note_off channel=0 note=88 velocity=64 time=0\n",
      "note_on channel=0 note=89 velocity=68 time=0\n",
      "note_off channel=0 note=78 velocity=64 time=1\n",
      "note_on channel=0 note=75 velocity=50 time=1\n",
      "note_on channel=0 note=95 velocity=46 time=0\n",
      "note_on channel=0 note=61 velocity=59 time=1\n",
      "note_off channel=0 note=73 velocity=64 time=0\n",
      "note_off channel=0 note=86 velocity=64 time=0\n",
      "note_off channel=0 note=90 velocity=64 time=0\n",
      "note_on channel=0 note=102 velocity=15 time=0\n",
      "note_on channel=0 note=45 velocity=77 time=1\n",
      "note_off channel=0 note=65 velocity=64 time=0\n",
      "note_on channel=0 note=69 velocity=45 time=0\n",
      "note_on channel=0 note=85 velocity=41 time=0\n",
      "note_on channel=0 note=67 velocity=44 time=1\n",
      "note_off channel=0 note=71 velocity=64 time=0\n",
      "note_on channel=0 note=44 velocity=77 time=1\n",
      "note_off channel=0 note=45 velocity=64 time=0\n",
      "note_off channel=0 note=93 velocity=64 time=0\n",
      "note_off channel=0 note=102 velocity=64 time=0\n",
      "note_off channel=0 note=61 velocity=64 time=1\n",
      "note_on channel=0 note=62 velocity=40 time=0\n",
      "note_off channel=0 note=69 velocity=64 time=0\n",
      "note_on channel=0 note=93 velocity=55 time=0\n",
      "note_on channel=0 note=43 velocity=74 time=1\n",
      "note_off channel=0 note=44 velocity=64 time=0\n",
      "note_on channel=0 note=65 velocity=37 time=0\n",
      "note_off channel=0 note=67 velocity=64 time=0\n",
      "note_on channel=0 note=71 velocity=14 time=0\n",
      "note_off channel=0 note=95 velocity=64 time=0\n",
      "note_off channel=0 note=62 velocity=64 time=1\n",
      "note_on channel=0 note=62 velocity=30 time=1\n",
      "note_off channel=0 note=75 velocity=64 time=0\n",
      "note_on channel=0 note=88 velocity=41 time=0\n",
      "note_on channel=0 note=90 velocity=30 time=0\n",
      "note_off channel=0 note=91 velocity=64 time=0\n",
      "note_on channel=0 note=54 velocity=21 time=1\n",
      "note_on channel=0 note=91 velocity=28 time=0\n",
      "note_off channel=0 note=71 velocity=64 time=1\n",
      "note_off channel=0 note=89 velocity=64 time=0\n",
      "note_on channel=0 note=75 velocity=15 time=1\n",
      "note_off channel=0 note=54 velocity=64 time=1\n",
      "note_on channel=0 note=71 velocity=66 time=0\n",
      "note_off channel=0 note=91 velocity=64 time=0\n",
      "note_off channel=0 note=62 velocity=64 time=1\n",
      "note_off channel=0 note=82 velocity=64 time=0\n",
      "note_off channel=0 note=43 velocity=64 time=1\n",
      "note_on channel=0 note=44 velocity=24 time=0\n",
      "note_on channel=0 note=61 velocity=15 time=2\n",
      "note_off channel=0 note=44 velocity=64 time=1\n",
      "note_on channel=0 note=91 velocity=57 time=1\n",
      "note_off channel=0 note=84 velocity=64 time=4\n",
      "note_off channel=0 note=61 velocity=64 time=1\n",
      "note_off channel=0 note=75 velocity=64 time=1\n",
      "note_on channel=0 note=96 velocity=10 time=2\n",
      "note_off channel=0 note=65 velocity=64 time=1\n",
      "note_on channel=0 note=94 velocity=17 time=1\n",
      "note_on channel=0 note=66 velocity=63 time=1\n",
      "note_off channel=0 note=96 velocity=64 time=0\n",
      "note_on channel=0 note=76 velocity=59 time=1\n",
      "note_on channel=0 note=89 velocity=49 time=0\n",
      "note_off channel=0 note=90 velocity=64 time=0\n",
      "note_on channel=0 note=45 velocity=77 time=1\n",
      "note_on channel=0 note=52 velocity=75 time=0\n",
      "note_on channel=0 note=64 velocity=79 time=0\n",
      "note_off channel=0 note=66 velocity=64 time=0\n",
      "note_on channel=0 note=67 velocity=65 time=0\n",
      "note_on channel=0 note=73 velocity=39 time=0\n",
      "note_off channel=0 note=87 velocity=64 time=0\n",
      "note_on channel=0 note=90 velocity=64 time=0\n",
      "note_off channel=0 note=94 velocity=64 time=0\n",
      "note_on channel=0 note=99 velocity=9 time=0\n",
      "note_off channel=0 note=67 velocity=64 time=1\n",
      "note_on channel=0 note=68 velocity=54 time=0\n",
      "note_on channel=0 note=87 velocity=30 time=0\n",
      "note_off channel=0 note=88 velocity=64 time=0\n",
      "note_on channel=0 note=100 velocity=43 time=0\n",
      "note_on channel=0 note=44 velocity=79 time=1\n",
      "note_off channel=0 note=45 velocity=64 time=0\n",
      "note_on channel=0 note=63 velocity=64 time=0\n",
      "note_off channel=0 note=64 velocity=64 time=0\n",
      "note_off channel=0 note=89 velocity=64 time=0\n",
      "note_on channel=0 note=96 velocity=28 time=0\n",
      "note_off channel=0 note=68 velocity=64 time=1\n",
      "note_off channel=0 note=99 velocity=64 time=0\n",
      "note_on channel=0 note=99 velocity=37 time=1\n",
      "note_off channel=0 note=63 velocity=64 time=1\n",
      "note_off channel=0 note=91 velocity=64 time=0\n",
      "note_on channel=0 note=98 velocity=17 time=0\n",
      "note_off channel=0 note=44 velocity=64 time=1\n",
      "note_off channel=0 note=73 velocity=64 time=0\n",
      "note_on channel=0 note=86 velocity=29 time=0\n",
      "note_on channel=0 note=73 velocity=25 time=1\n",
      "note_off channel=0 note=93 velocity=64 time=0\n",
      "note_on channel=0 note=94 velocity=50 time=0\n",
      "note_on channel=0 note=82 velocity=45 time=1\n",
      "note_off channel=0 note=85 velocity=64 time=0\n",
      "note_off channel=0 note=96 velocity=64 time=0\n",
      "note_on channel=0 note=43 velocity=62 time=1\n",
      "note_on channel=0 note=61 velocity=53 time=0\n",
      "note_on channel=0 note=89 velocity=37 time=0\n",
      "note_on channel=0 note=96 velocity=34 time=0\n",
      "note_off channel=0 note=73 velocity=64 time=1\n",
      "note_on channel=0 note=93 velocity=64 time=0\n",
      "note_off channel=0 note=94 velocity=64 time=0\n",
      "note_on channel=0 note=97 velocity=26 time=0\n",
      "note_off channel=0 note=98 velocity=64 time=0\n",
      "note_off channel=0 note=43 velocity=64 time=1\n",
      "note_off channel=0 note=61 velocity=64 time=0\n",
      "note_on channel=0 note=85 velocity=22 time=0\n",
      "note_off channel=0 note=86 velocity=64 time=0\n",
      "note_on channel=0 note=70 velocity=46 time=1\n",
      "note_off channel=0 note=71 velocity=64 time=0\n",
      "note_on channel=0 note=75 velocity=44 time=0\n",
      "note_off channel=0 note=76 velocity=64 time=0\n",
      "note_on channel=0 note=77 velocity=36 time=0\n",
      "note_on channel=0 note=88 velocity=38 time=0\n",
      "note_on channel=0 note=91 velocity=54 time=0\n",
      "note_on channel=0 note=94 velocity=45 time=0\n",
      "note_on channel=0 note=51 velocity=67 time=1\n",
      "note_off channel=0 note=52 velocity=64 time=0\n",
      "note_off channel=0 note=82 velocity=64 time=0\n",
      "note_on channel=0 note=83 velocity=38 time=0\n",
      "note_off channel=0 note=89 velocity=64 time=0\n",
      "note_off channel=0 note=51 velocity=64 time=1\n",
      "note_on channel=0 note=63 velocity=61 time=0\n",
      "note_on channel=0 note=73 velocity=34 time=0\n",
      "note_on channel=0 note=82 velocity=48 time=0\n",
      "note_on channel=0 note=98 velocity=18 time=0\n",
      "note_on channel=0 note=48 velocity=73 time=1\n",
      "note_off channel=0 note=63 velocity=64 time=1\n",
      "note_off channel=0 note=83 velocity=64 time=0\n",
      "note_off channel=0 note=85 velocity=64 time=0\n",
      "note_off channel=0 note=90 velocity=64 time=0\n",
      "note_on channel=0 note=47 velocity=70 time=1\n",
      "note_off channel=0 note=48 velocity=64 time=0\n",
      "note_on channel=0 note=63 velocity=58 time=0\n",
      "note_off channel=0 note=75 velocity=64 time=0\n",
      "note_on channel=0 note=76 velocity=53 time=0\n",
      "note_off channel=0 note=77 velocity=64 time=0\n",
      "note_on channel=0 note=95 velocity=48 time=0\n",
      "note_off channel=0 note=47 velocity=64 time=1\n",
      "note_on channel=0 note=48 velocity=68 time=0\n",
      "note_off channel=0 note=70 velocity=64 time=0\n",
      "note_on channel=0 note=71 velocity=73 time=0\n",
      "note_off channel=0 note=82 velocity=64 time=0\n",
      "note_on channel=0 note=90 velocity=44 time=0\n",
      "note_off channel=0 note=94 velocity=64 time=0\n",
      "note_off channel=0 note=48 velocity=64 time=1\n",
      "note_on channel=0 note=49 velocity=75 time=0\n",
      "note_off channel=0 note=63 velocity=64 time=0\n",
      "note_off channel=0 note=49 velocity=64 time=1\n",
      "note_on channel=0 note=52 velocity=77 time=0\n",
      "note_on channel=0 note=65 velocity=53 time=0\n",
      "note_off channel=0 note=73 velocity=64 time=0\n",
      "note_on channel=0 note=82 velocity=36 time=0\n",
      "note_off channel=0 note=91 velocity=64 time=0\n",
      "note_on channel=0 note=94 velocity=46 time=0\n",
      "note_off channel=0 note=96 velocity=64 time=0\n",
      "note_on channel=0 note=103 velocity=9 time=0\n",
      "note_off channel=0 note=52 velocity=64 time=1\n",
      "note_on channel=0 note=53 velocity=81 time=0\n",
      "note_on channel=0 note=91 velocity=64 time=0\n",
      "note_off channel=0 note=93 velocity=64 time=0\n",
      "note_on channel=0 note=96 velocity=33 time=0\n",
      "note_off channel=0 note=98 velocity=64 time=0\n",
      "note_off channel=0 note=100 velocity=64 time=0\n",
      "note_on channel=0 note=84 velocity=23 time=1\n",
      "note_on channel=0 note=93 velocity=60 time=0\n",
      "note_off channel=0 note=97 velocity=64 time=0\n",
      "note_on channel=0 note=63 velocity=47 time=1\n",
      "note_off channel=0 note=71 velocity=64 time=0\n",
      "note_on channel=0 note=72 velocity=58 time=0\n",
      "note_off channel=0 note=76 velocity=64 time=0\n",
      "note_off channel=0 note=82 velocity=64 time=0\n",
      "note_on channel=0 note=83 velocity=33 time=0\n",
      "note_off channel=0 note=96 velocity=64 time=0\n",
      "note_off channel=0 note=103 velocity=64 time=0\n",
      "note_off channel=0 note=53 velocity=64 time=1\n",
      "note_off channel=0 note=65 velocity=64 time=0\n",
      "note_on channel=0 note=82 velocity=32 time=0\n",
      "note_off channel=0 note=94 velocity=64 time=0\n",
      "note_on channel=0 note=73 velocity=50 time=1\n",
      "note_off channel=0 note=83 velocity=64 time=0\n",
      "note_off channel=0 note=84 velocity=64 time=0\n",
      "note_off channel=0 note=99 velocity=64 time=0\n",
      "note_on channel=0 note=51 velocity=55 time=1\n",
      "note_on channel=0 note=71 velocity=60 time=0\n",
      "note_off channel=0 note=72 velocity=64 time=0\n",
      "note_on channel=0 note=100 velocity=41 time=0\n",
      "note_on channel=0 note=101 velocity=47 time=0\n",
      "note_off channel=0 note=82 velocity=64 time=1\n",
      "note_on channel=0 note=96 velocity=27 time=0\n",
      "note_off channel=0 note=51 velocity=64 time=1\n",
      "note_off channel=0 note=63 velocity=64 time=0\n",
      "note_on channel=0 note=64 velocity=84 time=0\n",
      "note_on channel=0 note=77 velocity=71 time=1\n",
      "note_off channel=0 note=87 velocity=64 time=0\n",
      "note_off channel=0 note=88 velocity=64 time=0\n",
      "note_on channel=0 note=99 velocity=27 time=0\n",
      "note_on channel=0 note=45 velocity=74 time=1\n",
      "note_on channel=0 note=53 velocity=73 time=0\n",
      "note_on channel=0 note=82 velocity=40 time=0\n",
      "note_on channel=0 note=86 velocity=27 time=0\n",
      "note_on channel=0 note=87 velocity=15 time=0\n",
      "note_on channel=0 note=88 velocity=20 time=0\n",
      "note_off channel=0 note=90 velocity=64 time=0\n",
      "note_on channel=0 note=44 velocity=78 time=1\n",
      "note_off channel=0 note=45 velocity=64 time=0\n",
      "note_on channel=0 note=63 velocity=75 time=0\n",
      "note_on channel=0 note=68 velocity=62 time=0\n",
      "note_off channel=0 note=71 velocity=64 time=0\n",
      "note_on channel=0 note=72 velocity=73 time=0\n",
      "note_off channel=0 note=73 velocity=64 time=0\n",
      "note_on channel=0 note=94 velocity=40 time=0\n",
      "note_off channel=0 note=64 velocity=64 time=1\n",
      "note_off channel=0 note=53 velocity=64 time=1\n",
      "note_off channel=0 note=72 velocity=64 time=0\n",
      "note_on channel=0 note=73 velocity=60 time=0\n",
      "note_off channel=0 note=82 velocity=64 time=0\n",
      "note_on channel=0 note=83 velocity=41 time=0\n",
      "note_off channel=0 note=86 velocity=64 time=0\n",
      "note_off channel=0 note=88 velocity=64 time=0\n",
      "note_on channel=0 note=90 velocity=45 time=0\n",
      "note_off channel=0 note=99 velocity=64 time=0\n",
      "note_on channel=0 note=88 velocity=39 time=1\n",
      "note_off channel=0 note=44 velocity=64 time=1\n",
      "note_on channel=0 note=45 velocity=76 time=0\n",
      "note_off channel=0 note=63 velocity=64 time=0\n",
      "note_on channel=0 note=65 velocity=61 time=0\n",
      "note_off channel=0 note=68 velocity=64 time=0\n",
      "note_on channel=0 note=69 velocity=62 time=0\n",
      "note_off channel=0 note=73 velocity=64 time=0\n",
      "note_on channel=0 note=76 velocity=71 time=0\n",
      "note_off channel=0 note=77 velocity=64 time=0\n",
      "note_off channel=0 note=90 velocity=64 time=0\n",
      "note_on channel=0 note=75 velocity=52 time=1\n",
      "note_off channel=0 note=96 velocity=64 time=0\n",
      "note_off channel=0 note=101 velocity=64 time=0\n",
      "note_on channel=0 note=43 velocity=71 time=1\n",
      "note_off channel=0 note=45 velocity=64 time=0\n",
      "note_on channel=0 note=62 velocity=53 time=0\n",
      "note_off channel=0 note=69 velocity=64 time=0\n",
      "note_off channel=0 note=76 velocity=64 time=0\n",
      "note_on channel=0 note=77 velocity=72 time=0\n",
      "note_on channel=0 note=79 velocity=15 time=0\n",
      "note_off channel=0 note=100 velocity=64 time=0\n",
      "note_off channel=0 note=43 velocity=64 time=1\n",
      "note_on channel=0 note=44 velocity=66 time=0\n",
      "note_on channel=0 note=57 velocity=61 time=0\n",
      "note_on channel=0 note=73 velocity=43 time=0\n",
      "note_off channel=0 note=88 velocity=64 time=0\n",
      "note_off channel=0 note=44 velocity=64 time=1\n",
      "note_off channel=0 note=75 velocity=64 time=0\n",
      "note_on channel=0 note=76 velocity=62 time=0\n",
      "note_off channel=0 note=80 velocity=64 time=0\n",
      "note_off channel=0 note=94 velocity=64 time=0\n",
      "note_on channel=0 note=56 velocity=62 time=1\n",
      "note_off channel=0 note=57 velocity=64 time=0\n",
      "note_on channel=0 note=71 velocity=43 time=0\n",
      "note_on channel=0 note=75 velocity=62 time=0\n",
      "note_off channel=0 note=77 velocity=64 time=0\n",
      "note_off channel=0 note=87 velocity=64 time=0\n",
      "note_on channel=0 note=90 velocity=48 time=0\n",
      "note_off channel=0 note=91 velocity=64 time=0\n",
      "note_on channel=0 note=94 velocity=30 time=0\n",
      "note_on channel=0 note=61 velocity=56 time=1\n",
      "note_off channel=0 note=62 velocity=64 time=0\n",
      "note_off channel=0 note=73 velocity=64 time=0\n",
      "note_off channel=0 note=76 velocity=64 time=0\n",
      "note_off channel=0 note=79 velocity=64 time=0\n",
      "note_on channel=0 note=82 velocity=31 time=0\n",
      "note_off channel=0 note=83 velocity=64 time=0\n",
      "note_on channel=0 note=85 velocity=15 time=0\n",
      "note_on channel=0 note=67 velocity=60 time=1\n",
      "note_on channel=0 note=83 velocity=54 time=0\n",
      "note_off channel=0 note=90 velocity=64 time=0\n",
      "note_off channel=0 note=93 velocity=64 time=0\n",
      "note_off channel=0 note=82 velocity=64 time=1\n",
      "note_on channel=0 note=91 velocity=60 time=0\n",
      "note_on channel=0 note=93 velocity=30 time=0\n",
      "note_off channel=0 note=94 velocity=64 time=0\n",
      "note_on channel=0 note=48 velocity=67 time=1\n",
      "note_on channel=0 note=55 velocity=68 time=0\n",
      "note_off channel=0 note=56 velocity=64 time=0\n",
      "note_off channel=0 note=67 velocity=64 time=0\n",
      "note_on channel=0 note=68 velocity=67 time=0\n",
      "note_on channel=0 note=82 velocity=27 time=0\n",
      "note_off channel=0 note=83 velocity=64 time=1\n",
      "note_on channel=0 note=84 velocity=48 time=0\n",
      "note_off channel=0 note=85 velocity=64 time=0\n",
      "note_on channel=0 note=90 velocity=59 time=0\n",
      "note_off channel=0 note=91 velocity=64 time=0\n",
      "note_off channel=0 note=93 velocity=64 time=0\n",
      "note_on channel=0 note=47 velocity=73 time=1\n",
      "note_off channel=0 note=48 velocity=64 time=0\n",
      "note_off channel=0 note=55 velocity=64 time=0\n",
      "note_off channel=0 note=75 velocity=64 time=0\n",
      "note_on channel=0 note=76 velocity=66 time=0\n",
      "note_on channel=0 note=83 velocity=47 time=0\n",
      "note_on channel=0 note=93 velocity=36 time=0\n",
      "note_off channel=0 note=47 velocity=64 time=1\n",
      "note_on channel=0 note=48 velocity=69 time=0\n",
      "note_on channel=0 note=57 velocity=59 time=0\n",
      "note_off channel=0 note=68 velocity=64 time=0\n",
      "note_on channel=0 note=69 velocity=67 time=0\n",
      "note_off channel=0 note=71 velocity=64 time=0\n",
      "note_off channel=0 note=82 velocity=64 time=0\n",
      "note_on channel=0 note=85 velocity=43 time=0\n",
      "note_off channel=0 note=90 velocity=64 time=0\n",
      "note_on channel=0 note=91 velocity=72 time=0\n",
      "note_off channel=0 note=48 velocity=64 time=1\n",
      "note_on channel=0 note=49 velocity=68 time=0\n",
      "note_off channel=0 note=84 velocity=64 time=0\n",
      "note_off channel=0 note=49 velocity=64 time=1\n",
      "note_on channel=0 note=50 velocity=76 time=0\n",
      "note_off channel=0 note=57 velocity=64 time=0\n",
      "note_off channel=0 note=50 velocity=64 time=1\n",
      "note_on channel=0 note=53 velocity=72 time=0\n",
      "note_on channel=0 note=57 velocity=70 time=0\n",
      "note_off channel=0 note=61 velocity=64 time=1\n",
      "note_off channel=0 note=53 velocity=64 time=1\n",
      "note_off channel=0 note=57 velocity=64 time=0\n",
      "note_on channel=0 note=61 velocity=21 time=0\n",
      "note_on channel=0 note=80 velocity=82 time=0\n",
      "note_on channel=0 note=90 velocity=65 time=0\n",
      "note_off channel=0 note=91 velocity=64 time=0\n",
      "note_on channel=0 note=68 velocity=61 time=1\n",
      "note_off channel=0 note=69 velocity=64 time=0\n",
      "note_on channel=0 note=71 velocity=37 time=0\n",
      "note_on channel=0 note=75 velocity=56 time=0\n",
      "note_on channel=0 note=84 velocity=52 time=0\n",
      "note_off channel=0 note=93 velocity=64 time=0\n",
      "note_off channel=0 note=95 velocity=64 time=0\n",
      "note_on channel=0 note=89 velocity=66 time=1\n",
      "note_on channel=0 note=94 velocity=19 time=0\n",
      "note_off channel=0 note=76 velocity=64 time=1\n",
      "note_off channel=0 note=90 velocity=64 time=0\n",
      "note_on channel=0 note=91 velocity=46 time=0\n",
      "note_on channel=0 note=56 velocity=60 time=1\n",
      "note_off channel=0 note=61 velocity=64 time=0\n",
      "note_on channel=0 note=90 velocity=46 time=0\n",
      "note_off channel=0 note=85 velocity=64 time=1\n",
      "note_off channel=0 note=56 velocity=64 time=1\n",
      "note_on channel=0 note=69 velocity=54 time=0\n",
      "note_off channel=0 note=71 velocity=64 time=0\n",
      "note_off channel=0 note=90 velocity=64 time=0\n",
      "note_on channel=0 note=93 velocity=17 time=0\n",
      "note_off channel=0 note=94 velocity=64 time=0\n",
      "note_on channel=0 note=102 velocity=9 time=0\n",
      "note_on channel=0 note=48 velocity=89 time=1\n",
      "note_off channel=0 note=68 velocity=64 time=0\n",
      "note_off channel=0 note=75 velocity=64 time=0\n",
      "note_off channel=0 note=83 velocity=64 time=0\n",
      "note_on channel=0 note=88 velocity=42 time=0\n",
      "note_on channel=0 note=90 velocity=42 time=0\n",
      "note_on channel=0 note=94 velocity=17 time=0\n",
      "note_off channel=0 note=65 velocity=64 time=1\n",
      "note_on channel=0 note=67 velocity=49 time=0\n",
      "note_on channel=0 note=75 velocity=46 time=0\n",
      "note_on channel=0 note=83 velocity=47 time=0\n",
      "note_on channel=0 note=56 velocity=50 time=1\n",
      "note_off channel=0 note=69 velocity=64 time=0\n",
      "note_on channel=0 note=72 velocity=62 time=0\n",
      "note_off channel=0 note=90 velocity=64 time=0\n",
      "note_off channel=0 note=102 velocity=64 time=0\n",
      "note_off channel=0 note=48 velocity=64 time=1\n",
      "note_on channel=0 note=61 velocity=78 time=0\n",
      "note_off channel=0 note=67 velocity=64 time=0\n",
      "note_on channel=0 note=68 velocity=71 time=0\n",
      "note_off channel=0 note=88 velocity=64 time=0\n",
      "note_off channel=0 note=93 velocity=64 time=0\n",
      "note_on channel=0 note=65 velocity=39 time=1\n",
      "note_on channel=0 note=71 velocity=43 time=0\n",
      "note_off channel=0 note=72 velocity=64 time=0\n",
      "note_on channel=0 note=48 velocity=68 time=1\n",
      "note_off channel=0 note=84 velocity=64 time=0\n",
      "note_off channel=0 note=94 velocity=64 time=0\n",
      "note_off channel=0 note=48 velocity=64 time=1\n",
      "note_on channel=0 note=45 velocity=60 time=1\n",
      "note_on channel=0 note=55 velocity=35 time=0\n",
      "note_off channel=0 note=56 velocity=64 time=0\n",
      "note_on channel=0 note=72 velocity=64 time=1\n",
      "note_off channel=0 note=91 velocity=64 time=0\n",
      "note_off channel=0 note=55 velocity=64 time=1\n",
      "note_on channel=0 note=44 velocity=52 time=1\n",
      "note_off channel=0 note=45 velocity=64 time=0\n",
      "note_on channel=0 note=88 velocity=27 time=0\n",
      "note_on channel=0 note=91 velocity=61 time=0\n",
      "note_on channel=0 note=60 velocity=68 time=1\n",
      "note_off channel=0 note=61 velocity=64 time=0\n",
      "note_off channel=0 note=71 velocity=64 time=0\n",
      "note_off channel=0 note=89 velocity=64 time=0\n",
      "note_on channel=0 note=93 velocity=54 time=0\n",
      "note_on channel=0 note=71 velocity=66 time=1\n",
      "note_off channel=0 note=72 velocity=64 time=0\n",
      "note_on channel=0 note=78 velocity=44 time=0\n",
      "note_off channel=0 note=60 velocity=64 time=1\n",
      "note_off channel=0 note=83 velocity=64 time=0\n",
      "note_on channel=0 note=60 velocity=59 time=1\n",
      "note_off channel=0 note=71 velocity=64 time=0\n",
      "note_on channel=0 note=72 velocity=73 time=0\n",
      "note_off channel=0 note=78 velocity=64 time=0\n",
      "note_on channel=0 note=79 velocity=48 time=0\n",
      "note_on channel=0 note=83 velocity=39 time=0\n",
      "note_on channel=0 note=96 velocity=17 time=0\n",
      "note_off channel=0 note=44 velocity=64 time=1\n",
      "note_off channel=0 note=88 velocity=64 time=0\n",
      "note_on channel=0 note=43 velocity=33 time=2\n",
      "note_off channel=0 note=60 velocity=64 time=2\n",
      "note_on channel=0 note=71 velocity=63 time=0\n",
      "note_off channel=0 note=72 velocity=64 time=0\n",
      "note_off channel=0 note=79 velocity=64 time=0\n",
      "note_off channel=0 note=96 velocity=64 time=0\n",
      "note_off channel=0 note=43 velocity=64 time=1\n",
      "note_on channel=0 note=58 velocity=48 time=0\n",
      "note_on channel=0 note=79 velocity=43 time=0\n",
      "note_off channel=0 note=93 velocity=64 time=0\n",
      "note_off channel=0 note=58 velocity=64 time=2\n",
      "note_on channel=0 note=53 velocity=34 time=1\n",
      "note_on channel=0 note=77 velocity=40 time=2\n",
      "note_off channel=0 note=79 velocity=64 time=1\n",
      "note_on channel=0 note=93 velocity=33 time=0\n",
      "note_on channel=0 note=95 velocity=47 time=0\n",
      "note_off channel=0 note=53 velocity=64 time=1\n",
      "note_on channel=0 note=61 velocity=58 time=0\n",
      "note_on channel=0 note=55 velocity=59 time=1\n",
      "note_on channel=0 note=89 velocity=71 time=0\n",
      "note_on channel=0 note=46 velocity=65 time=1\n",
      "note_off channel=0 note=65 velocity=64 time=0\n",
      "note_off channel=0 note=71 velocity=64 time=0\n",
      "note_off channel=0 note=75 velocity=64 time=0\n",
      "note_off channel=0 note=83 velocity=64 time=0\n",
      "note_on channel=0 note=84 velocity=39 time=0\n",
      "note_on channel=0 note=88 velocity=33 time=0\n",
      "note_on channel=0 note=45 velocity=75 time=1\n",
      "note_off channel=0 note=46 velocity=64 time=0\n",
      "note_off channel=0 note=55 velocity=64 time=0\n",
      "note_on channel=0 note=56 velocity=67 time=0\n",
      "note_on channel=0 note=85 velocity=39 time=0\n",
      "note_on channel=0 note=90 velocity=56 time=0\n",
      "note_on channel=0 note=94 velocity=24 time=0\n",
      "note_on channel=0 note=98 velocity=13 time=0\n",
      "note_on channel=0 note=44 velocity=77 time=1\n",
      "note_off channel=0 note=45 velocity=64 time=0\n",
      "note_on channel=0 note=64 velocity=46 time=0\n",
      "note_on channel=0 note=76 velocity=70 time=0\n",
      "note_off channel=0 note=77 velocity=64 time=0\n",
      "note_on channel=0 note=83 velocity=43 time=0\n",
      "note_off channel=0 note=84 velocity=64 time=0\n",
      "note_off channel=0 note=88 velocity=64 time=0\n",
      "note_off channel=0 note=93 velocity=64 time=0\n",
      "note_off channel=0 note=56 velocity=64 time=1\n",
      "note_on channel=0 note=57 velocity=62 time=0\n",
      "note_off channel=0 note=61 velocity=64 time=0\n",
      "note_on channel=0 note=65 velocity=38 time=0\n",
      "note_off channel=0 note=68 velocity=64 time=0\n",
      "note_on channel=0 note=69 velocity=66 time=0\n",
      "note_off channel=0 note=90 velocity=64 time=0\n",
      "note_on channel=0 note=93 velocity=45 time=0\n",
      "note_off channel=0 note=64 velocity=64 time=1\n",
      "note_on channel=0 note=82 velocity=36 time=0\n",
      "note_off channel=0 note=94 velocity=64 time=0\n",
      "note_off channel=0 note=98 velocity=64 time=0\n",
      "note_on channel=0 note=43 velocity=74 time=1\n",
      "note_off channel=0 note=44 velocity=64 time=0\n",
      "note_on channel=0 note=84 velocity=16 time=0\n",
      "note_on channel=0 note=96 velocity=19 time=0\n",
      "note_on channel=0 note=62 velocity=34 time=1\n",
      "note_off channel=0 note=93 velocity=64 time=0\n",
      "note_on channel=0 note=94 velocity=41 time=0\n",
      "note_off channel=0 note=95 velocity=64 time=0\n",
      "note_off channel=0 note=57 velocity=64 time=1\n",
      "note_on channel=0 note=58 velocity=55 time=0\n",
      "note_off channel=0 note=69 velocity=64 time=0\n",
      "note_off channel=0 note=76 velocity=64 time=0\n",
      "note_on channel=0 note=93 velocity=35 time=0\n",
      "note_off channel=0 note=62 velocity=64 time=1\n",
      "note_on channel=0 note=69 velocity=59 time=0\n",
      "note_on channel=0 note=76 velocity=59 time=0\n",
      "note_off channel=0 note=82 velocity=64 time=0\n",
      "note_off channel=0 note=84 velocity=64 time=0\n",
      "note_off channel=0 note=94 velocity=64 time=0\n",
      "note_off channel=0 note=96 velocity=64 time=0\n",
      "note_on channel=0 note=57 velocity=64 time=1\n",
      "note_off channel=0 note=58 velocity=64 time=0\n",
      "note_on channel=0 note=82 velocity=29 time=0\n",
      "note_off channel=0 note=89 velocity=64 time=0\n",
      "note_on channel=0 note=71 velocity=38 time=1\n",
      "note_on channel=0 note=90 velocity=41 time=0\n",
      "note_off channel=0 note=91 velocity=64 time=0\n",
      "note_on channel=0 note=56 velocity=67 time=1\n",
      "note_off channel=0 note=57 velocity=64 time=0\n",
      "note_off channel=0 note=69 velocity=64 time=0\n",
      "note_on channel=0 note=75 velocity=62 time=0\n",
      "note_off channel=0 note=82 velocity=64 time=0\n",
      "note_on channel=0 note=84 velocity=40 time=0\n",
      "note_on channel=0 note=91 velocity=22 time=0\n",
      "note_on channel=0 note=94 velocity=44 time=0\n",
      "note_off channel=0 note=76 velocity=64 time=1\n",
      "note_off channel=0 note=93 velocity=64 time=0\n",
      "note_on channel=0 note=101 velocity=26 time=0\n",
      "note_on channel=0 note=89 velocity=37 time=1\n",
      "note_off channel=0 note=90 velocity=64 time=0\n",
      "note_off channel=0 note=43 velocity=64 time=1\n",
      "note_on channel=0 note=90 velocity=34 time=0\n",
      "note_on channel=0 note=100 velocity=17 time=1\n",
      "note_off channel=0 note=101 velocity=64 time=0\n",
      "note_off channel=0 note=91 velocity=64 time=1\n",
      "note_on channel=0 note=55 velocity=59 time=2\n",
      "note_off channel=0 note=56 velocity=64 time=0\n",
      "note_on channel=0 note=91 velocity=19 time=0\n",
      "note_off channel=0 note=65 velocity=64 time=1\n",
      "note_off channel=0 note=85 velocity=64 time=0\n",
      "note_off channel=0 note=100 velocity=64 time=0\n",
      "note_on channel=0 note=65 velocity=47 time=1\n",
      "note_off channel=0 note=84 velocity=64 time=0\n",
      "note_off channel=0 note=94 velocity=64 time=0\n",
      "note_off channel=0 note=55 velocity=64 time=1\n",
      "note_on channel=0 note=56 velocity=51 time=0\n",
      "note_off channel=0 note=91 velocity=64 time=0\n",
      "note_off channel=0 note=90 velocity=64 time=1\n",
      "note_off channel=0 note=75 velocity=64 time=4\n",
      "note_on channel=0 note=91 velocity=43 time=1\n",
      "note_off channel=0 note=56 velocity=64 time=1\n",
      "note_on channel=0 note=66 velocity=73 time=0\n",
      "note_off channel=0 note=71 velocity=64 time=0\n",
      "note_on channel=0 note=73 velocity=72 time=0\n",
      "note_on channel=0 note=77 velocity=48 time=0\n",
      "note_on channel=0 note=90 velocity=45 time=0\n",
      "note_on channel=0 note=53 velocity=68 time=1\n",
      "note_on channel=0 note=64 velocity=80 time=0\n",
      "note_off channel=0 note=65 velocity=64 time=0\n",
      "note_on channel=0 note=94 velocity=33 time=0\n",
      "note_on channel=0 note=45 velocity=78 time=1\n",
      "note_off channel=0 note=53 velocity=64 time=1\n",
      "note_on channel=0 note=54 velocity=65 time=0\n",
      "note_on channel=0 note=63 velocity=74 time=0\n",
      "note_off channel=0 note=64 velocity=64 time=0\n",
      "note_off channel=0 note=66 velocity=64 time=0\n",
      "note_on channel=0 note=78 velocity=42 time=0\n",
      "note_on channel=0 note=82 velocity=35 time=0\n",
      "note_on channel=0 note=44 velocity=79 time=1\n",
      "note_off channel=0 note=45 velocity=64 time=0\n",
      "note_on channel=0 note=69 velocity=32 time=0\n",
      "note_off channel=0 note=77 velocity=64 time=0\n",
      "note_on channel=0 note=100 velocity=23 time=0\n",
      "note_off channel=0 note=91 velocity=64 time=1\n",
      "note_off channel=0 note=63 velocity=64 time=1\n",
      "note_off channel=0 note=69 velocity=64 time=0\n",
      "note_off channel=0 note=82 velocity=64 time=0\n",
      "note_on channel=0 note=61 velocity=40 time=1\n",
      "note_on channel=0 note=65 velocity=61 time=0\n",
      "note_on channel=0 note=41 velocity=55 time=1\n",
      "note_off channel=0 note=44 velocity=64 time=0\n",
      "note_off channel=0 note=78 velocity=64 time=0\n",
      "note_on channel=0 note=87 velocity=42 time=0\n",
      "note_on channel=0 note=91 velocity=44 time=0\n",
      "note_on channel=0 note=93 velocity=26 time=0\n",
      "note_off channel=0 note=94 velocity=64 time=0\n",
      "note_off channel=0 note=61 velocity=64 time=1\n",
      "note_on channel=0 note=72 velocity=63 time=0\n",
      "note_off channel=0 note=73 velocity=64 time=0\n",
      "note_off channel=0 note=100 velocity=64 time=0\n",
      "note_off channel=0 note=41 velocity=64 time=1\n",
      "note_on channel=0 note=43 velocity=60 time=0\n",
      "note_on channel=0 note=53 velocity=68 time=0\n",
      "note_off channel=0 note=54 velocity=64 time=0\n",
      "note_on channel=0 note=61 velocity=57 time=0\n",
      "note_off channel=0 note=90 velocity=64 time=0\n",
      "note_on channel=0 note=94 velocity=17 time=0\n",
      "note_on channel=0 note=76 velocity=44 time=1\n",
      "note_on channel=0 note=90 velocity=44 time=0\n",
      "note_on channel=0 note=52 velocity=76 time=1\n",
      "note_off channel=0 note=53 velocity=64 time=0\n",
      "note_on channel=0 note=71 velocity=39 time=0\n",
      "note_off channel=0 note=72 velocity=64 time=0\n",
      "note_on channel=0 note=42 velocity=54 time=1\n",
      "note_off channel=0 note=43 velocity=64 time=0\n",
      "note_off channel=0 note=94 velocity=64 time=0\n",
      "note_on channel=0 note=96 velocity=12 time=0\n",
      "note_off channel=0 note=71 velocity=64 time=1\n",
      "note_off channel=0 note=91 velocity=64 time=0\n",
      "note_off channel=0 note=42 velocity=64 time=1\n",
      "note_on channel=0 note=68 velocity=30 time=0\n",
      "note_on channel=0 note=71 velocity=49 time=0\n",
      "note_off channel=0 note=76 velocity=64 time=1\n",
      "note_on channel=0 note=85 velocity=20 time=0\n",
      "note_off channel=0 note=89 velocity=64 time=0\n",
      "note_off channel=0 note=93 velocity=64 time=0\n",
      "note_on channel=0 note=94 velocity=19 time=0\n",
      "note_off channel=0 note=96 velocity=64 time=0\n",
      "note_on channel=0 note=48 velocity=67 time=1\n",
      "note_off channel=0 note=71 velocity=64 time=0\n",
      "note_on channel=0 note=72 velocity=57 time=0\n",
      "note_off channel=0 note=90 velocity=64 time=0\n",
      "note_on channel=0 note=91 velocity=48 time=0\n",
      "note_on channel=0 note=93 velocity=18 time=0\n",
      "note_on channel=0 note=47 velocity=72 time=1\n",
      "note_off channel=0 note=48 velocity=64 time=0\n",
      "note_off channel=0 note=47 velocity=64 time=1\n",
      "note_on channel=0 note=48 velocity=72 time=0\n",
      "note_off channel=0 note=61 velocity=64 time=0\n",
      "note_off channel=0 note=52 velocity=64 time=1\n",
      "note_on channel=0 note=53 velocity=80 time=0\n",
      "note_on channel=0 note=71 velocity=52 time=0\n",
      "note_off channel=0 note=72 velocity=64 time=0\n",
      "note_off channel=0 note=83 velocity=64 time=0\n",
      "note_off channel=0 note=93 velocity=64 time=0\n",
      "note_off channel=0 note=48 velocity=64 time=1\n",
      "note_on channel=0 note=52 velocity=87 time=0\n",
      "note_off channel=0 note=53 velocity=64 time=0\n",
      "note_on channel=0 note=61 velocity=46 time=0\n",
      "note_on channel=0 note=90 velocity=47 time=0\n",
      "note_off channel=0 note=94 velocity=64 time=0\n",
      "note_off channel=0 note=65 velocity=64 time=1\n",
      "note_off channel=0 note=68 velocity=64 time=0\n",
      "note_on channel=0 note=93 velocity=22 time=0\n",
      "note_off channel=0 note=61 velocity=64 time=1\n",
      "note_on channel=0 note=70 velocity=46 time=0\n",
      "note_off channel=0 note=71 velocity=64 time=0\n",
      "note_on channel=0 note=73 velocity=35 time=0\n",
      "note_off channel=0 note=52 velocity=64 time=1\n",
      "note_on channel=0 note=65 velocity=43 time=0\n",
      "note_on channel=0 note=78 velocity=17 time=0\n"
     ]
    },
    {
     "name": "stdout",
     "output_type": "stream",
     "text": [
      "note_on channel=0 note=81 velocity=22 time=0\n",
      "note_on channel=0 note=84 velocity=34 time=0\n",
      "note_off channel=0 note=91 velocity=64 time=0\n",
      "note_on channel=0 note=69 velocity=49 time=1\n",
      "note_off channel=0 note=70 velocity=64 time=0\n",
      "note_on channel=0 note=74 velocity=40 time=0\n",
      "note_off channel=0 note=80 velocity=64 time=0\n",
      "note_on channel=0 note=88 velocity=25 time=0\n",
      "note_on channel=0 note=62 velocity=39 time=1\n",
      "note_off channel=0 note=73 velocity=64 time=0\n",
      "note_on channel=0 note=51 velocity=72 time=1\n",
      "note_on channel=0 note=80 velocity=82 time=0\n",
      "note_on channel=0 note=91 velocity=52 time=0\n",
      "note_on channel=0 note=61 velocity=59 time=1\n",
      "note_off channel=0 note=62 velocity=64 time=0\n",
      "note_off channel=0 note=81 velocity=64 time=0\n",
      "note_off channel=0 note=85 velocity=64 time=0\n",
      "note_off channel=0 note=90 velocity=64 time=0\n",
      "note_off channel=0 note=93 velocity=64 time=0\n",
      "note_on channel=0 note=94 velocity=25 time=0\n",
      "note_on channel=0 note=64 velocity=79 time=1\n",
      "note_off channel=0 note=69 velocity=64 time=0\n",
      "note_on channel=0 note=70 velocity=52 time=0\n",
      "note_off channel=0 note=74 velocity=64 time=0\n",
      "note_on channel=0 note=75 velocity=51 time=0\n",
      "note_off channel=0 note=78 velocity=64 time=0\n",
      "note_on channel=0 note=85 velocity=33 time=0\n",
      "note_off channel=0 note=88 velocity=64 time=0\n",
      "note_off channel=0 note=65 velocity=64 time=1\n",
      "note_off channel=0 note=84 velocity=64 time=0\n",
      "note_on channel=0 note=88 velocity=24 time=0\n",
      "note_on channel=0 note=46 velocity=71 time=1\n",
      "note_off channel=0 note=51 velocity=64 time=0\n",
      "note_off channel=0 note=61 velocity=64 time=0\n",
      "note_on channel=0 note=67 velocity=65 time=0\n",
      "note_on channel=0 note=93 velocity=33 time=0\n",
      "note_on channel=0 note=45 velocity=78 time=1\n",
      "note_off channel=0 note=46 velocity=64 time=0\n",
      "note_on channel=0 note=84 velocity=23 time=0\n",
      "note_on channel=0 note=44 velocity=78 time=1\n",
      "note_off channel=0 note=45 velocity=64 time=0\n",
      "note_off channel=0 note=67 velocity=64 time=0\n",
      "note_off channel=0 note=88 velocity=64 time=0\n",
      "note_off channel=0 note=64 velocity=64 time=1\n",
      "note_off channel=0 note=70 velocity=64 time=0\n",
      "note_on channel=0 note=73 velocity=32 time=0\n",
      "note_on channel=0 note=95 velocity=15 time=0\n",
      "note_on channel=0 note=70 velocity=43 time=1\n",
      "note_off channel=0 note=84 velocity=64 time=1\n",
      "note_off channel=0 note=44 velocity=64 time=1\n",
      "note_on channel=0 note=50 velocity=63 time=0\n",
      "note_on channel=0 note=63 velocity=36 time=0\n",
      "note_on channel=0 note=84 velocity=48 time=0\n",
      "note_on channel=0 note=79 velocity=19 time=1\n",
      "note_off channel=0 note=95 velocity=64 time=0\n",
      "note_off channel=0 note=50 velocity=64 time=1\n",
      "note_off channel=0 note=63 velocity=64 time=0\n",
      "note_on channel=0 note=71 velocity=46 time=0\n",
      "note_on channel=0 note=43 velocity=61 time=1\n",
      "note_on channel=0 note=53 velocity=66 time=0\n",
      "note_off channel=0 note=70 velocity=64 time=0\n",
      "note_off channel=0 note=85 velocity=64 time=0\n",
      "note_on channel=0 note=90 velocity=33 time=0\n",
      "note_off channel=0 note=94 velocity=64 time=0\n",
      "note_on channel=0 note=61 velocity=62 time=1\n",
      "note_on channel=0 note=64 velocity=37 time=0\n",
      "note_off channel=0 note=79 velocity=64 time=0\n",
      "note_off channel=0 note=93 velocity=64 time=0\n",
      "note_off channel=0 note=71 velocity=64 time=1\n",
      "note_on channel=0 note=72 velocity=47 time=0\n",
      "note_off channel=0 note=73 velocity=64 time=0\n",
      "note_on channel=0 note=77 velocity=34 time=0\n",
      "note_on channel=0 note=85 velocity=25 time=0\n",
      "note_off channel=0 note=90 velocity=64 time=0\n",
      "note_on channel=0 note=93 velocity=30 time=0\n",
      "note_off channel=0 note=43 velocity=64 time=1\n",
      "note_on channel=0 note=52 velocity=67 time=0\n",
      "note_off channel=0 note=53 velocity=64 time=0\n",
      "note_off channel=0 note=75 velocity=64 time=0\n",
      "note_on channel=0 note=78 velocity=19 time=0\n",
      "note_off channel=0 note=64 velocity=64 time=1\n",
      "note_on channel=0 note=70 velocity=22 time=0\n",
      "note_off channel=0 note=72 velocity=64 time=0\n",
      "note_on channel=0 note=75 velocity=12 time=0\n",
      "note_off channel=0 note=93 velocity=64 time=0\n",
      "note_on channel=0 note=51 velocity=68 time=1\n",
      "note_off channel=0 note=52 velocity=64 time=0\n",
      "note_off channel=0 note=77 velocity=64 time=0\n",
      "note_on channel=0 note=49 velocity=65 time=1\n",
      "note_off channel=0 note=51 velocity=64 time=0\n",
      "note_on channel=0 note=47 velocity=75 time=1\n",
      "note_off channel=0 note=49 velocity=64 time=0\n",
      "note_off channel=0 note=70 velocity=64 time=0\n",
      "note_on channel=0 note=71 velocity=26 time=0\n",
      "note_on channel=0 note=67 velocity=35 time=1\n",
      "note_off channel=0 note=75 velocity=64 time=0\n",
      "note_off channel=0 note=47 velocity=64 time=1\n",
      "note_on channel=0 note=48 velocity=70 time=0\n",
      "note_off channel=0 note=48 velocity=64 time=1\n",
      "note_on channel=0 note=50 velocity=79 time=0\n",
      "note_on channel=0 note=77 velocity=38 time=0\n",
      "note_off channel=0 note=50 velocity=64 time=1\n",
      "note_on channel=0 note=52 velocity=77 time=0\n",
      "note_on channel=0 note=65 velocity=15 time=0\n",
      "note_off channel=0 note=52 velocity=64 time=1\n",
      "note_on channel=0 note=53 velocity=67 time=0\n",
      "note_off channel=0 note=67 velocity=64 time=0\n",
      "note_off channel=0 note=78 velocity=64 time=0\n",
      "note_off channel=0 note=53 velocity=64 time=1\n",
      "note_on channel=0 note=53 velocity=59 time=2\n",
      "note_off channel=0 note=85 velocity=64 time=1\n",
      "note_on channel=0 note=93 velocity=33 time=0\n",
      "note_off channel=0 note=65 velocity=64 time=2\n",
      "note_on channel=0 note=89 velocity=67 time=0\n",
      "note_off channel=0 note=53 velocity=64 time=1\n",
      "note_off channel=0 note=61 velocity=64 time=0\n",
      "note_on channel=0 note=64 velocity=57 time=0\n",
      "note_on channel=0 note=68 velocity=64 time=0\n",
      "note_on channel=0 note=88 velocity=42 time=0\n",
      "note_on channel=0 note=53 velocity=77 time=1\n",
      "note_off channel=0 note=71 velocity=64 time=0\n",
      "note_on channel=0 note=74 velocity=54 time=0\n",
      "note_on channel=0 note=85 velocity=39 time=0\n",
      "note_on channel=0 note=95 velocity=33 time=0\n",
      "note_on channel=0 note=102 velocity=52 time=0\n",
      "note_on channel=0 note=48 velocity=87 time=1\n",
      "note_off channel=0 note=53 velocity=64 time=0\n",
      "note_on channel=0 note=54 velocity=67 time=0\n",
      "note_on channel=0 note=71 velocity=29 time=0\n",
      "note_on channel=0 note=83 velocity=34 time=0\n",
      "note_on channel=0 note=98 velocity=19 time=0\n",
      "note_off channel=0 note=54 velocity=64 time=1\n",
      "note_on channel=0 note=63 velocity=50 time=0\n",
      "note_off channel=0 note=64 velocity=64 time=0\n",
      "note_off channel=0 note=77 velocity=64 time=0\n",
      "note_off channel=0 note=88 velocity=64 time=0\n",
      "note_on channel=0 note=90 velocity=53 time=0\n",
      "note_on channel=0 note=56 velocity=59 time=1\n",
      "note_off channel=0 note=71 velocity=64 time=0\n",
      "note_on channel=0 note=73 velocity=31 time=0\n",
      "note_off channel=0 note=74 velocity=64 time=0\n",
      "note_off channel=0 note=93 velocity=64 time=0\n",
      "note_off channel=0 note=48 velocity=64 time=1\n",
      "note_off channel=0 note=83 velocity=64 time=0\n",
      "note_off channel=0 note=95 velocity=64 time=0\n",
      "note_off channel=0 note=98 velocity=64 time=0\n",
      "note_on channel=0 note=47 velocity=68 time=1\n",
      "note_off channel=0 note=63 velocity=64 time=0\n",
      "note_on channel=0 note=77 velocity=21 time=0\n",
      "note_on channel=0 note=83 velocity=33 time=0\n",
      "note_off channel=0 note=47 velocity=64 time=1\n",
      "note_on channel=0 note=65 velocity=43 time=0\n",
      "note_off channel=0 note=73 velocity=64 time=0\n",
      "note_on channel=0 note=74 velocity=42 time=0\n",
      "note_on channel=0 note=93 velocity=49 time=0\n",
      "note_on channel=0 note=45 velocity=60 time=1\n",
      "note_on channel=0 note=55 velocity=71 time=0\n",
      "note_off channel=0 note=56 velocity=64 time=0\n",
      "note_on channel=0 note=71 velocity=25 time=0\n",
      "note_off channel=0 note=91 velocity=64 time=0\n",
      "note_off channel=0 note=65 velocity=64 time=1\n",
      "note_off channel=0 note=68 velocity=64 time=0\n",
      "note_on channel=0 note=75 velocity=43 time=0\n",
      "note_on channel=0 note=82 velocity=43 time=0\n",
      "note_on channel=0 note=91 velocity=45 time=0\n",
      "note_on channel=0 note=61 velocity=24 time=1\n",
      "note_on channel=0 note=73 velocity=64 time=0\n",
      "note_off channel=0 note=74 velocity=64 time=0\n",
      "note_on channel=0 note=78 velocity=37 time=0\n",
      "note_off channel=0 note=83 velocity=64 time=0\n",
      "note_on channel=0 note=86 velocity=13 time=0\n",
      "note_off channel=0 note=90 velocity=64 time=0\n",
      "note_off channel=0 note=93 velocity=64 time=0\n",
      "note_on channel=0 note=94 velocity=63 time=0\n",
      "note_on channel=0 note=100 velocity=27 time=0\n",
      "note_on channel=0 note=54 velocity=75 time=1\n",
      "note_off channel=0 note=55 velocity=64 time=0\n",
      "note_off channel=0 note=85 velocity=64 time=0\n",
      "note_on channel=0 note=90 velocity=48 time=0\n",
      "note_on channel=0 note=97 velocity=25 time=0\n",
      "note_on channel=0 note=44 velocity=50 time=1\n",
      "note_off channel=0 note=45 velocity=64 time=0\n",
      "note_off channel=0 note=75 velocity=64 time=0\n",
      "note_on channel=0 note=75 velocity=31 time=1\n",
      "note_off channel=0 note=86 velocity=64 time=0\n",
      "note_on channel=0 note=88 velocity=39 time=0\n",
      "note_off channel=0 note=77 velocity=64 time=1\n",
      "note_off channel=0 note=89 velocity=64 time=0\n",
      "note_on channel=0 note=95 velocity=31 time=0\n",
      "note_off channel=0 note=71 velocity=64 time=1\n",
      "note_on channel=0 note=43 velocity=36 time=1\n",
      "note_off channel=0 note=44 velocity=64 time=0\n",
      "note_on channel=0 note=65 velocity=50 time=0\n",
      "note_off channel=0 note=75 velocity=64 time=0\n",
      "note_off channel=0 note=91 velocity=64 time=0\n",
      "note_on channel=0 note=93 velocity=66 time=0\n",
      "note_off channel=0 note=94 velocity=64 time=0\n",
      "note_on channel=0 note=53 velocity=63 time=1\n",
      "note_off channel=0 note=54 velocity=64 time=0\n",
      "note_off channel=0 note=61 velocity=64 time=0\n",
      "note_on channel=0 note=72 velocity=64 time=0\n",
      "note_off channel=0 note=73 velocity=64 time=0\n",
      "note_off channel=0 note=78 velocity=64 time=0\n",
      "note_off channel=0 note=87 velocity=64 time=0\n",
      "note_off channel=0 note=102 velocity=64 time=0\n",
      "note_on channel=0 note=78 velocity=35 time=1\n",
      "note_on channel=0 note=91 velocity=29 time=0\n",
      "note_off channel=0 note=97 velocity=64 time=0\n",
      "note_off channel=0 note=100 velocity=64 time=0\n",
      "note_on channel=0 note=61 velocity=21 time=1\n",
      "note_on channel=0 note=68 velocity=23 time=0\n",
      "note_on channel=0 note=73 velocity=36 time=0\n",
      "note_off channel=0 note=82 velocity=64 time=0\n",
      "note_on channel=0 note=83 velocity=49 time=0\n",
      "note_off channel=0 note=93 velocity=64 time=0\n",
      "note_on channel=0 note=94 velocity=21 time=0\n",
      "note_off channel=0 note=95 velocity=64 time=0\n",
      "note_on channel=0 note=42 velocity=27 time=1\n",
      "note_off channel=0 note=43 velocity=64 time=0\n",
      "note_on channel=0 note=71 velocity=22 time=0\n",
      "note_off channel=0 note=72 velocity=64 time=0\n",
      "note_off channel=0 note=53 velocity=64 time=1\n",
      "note_on channel=0 note=87 velocity=41 time=0\n",
      "note_off channel=0 note=91 velocity=64 time=0\n",
      "note_off channel=0 note=42 velocity=64 time=2\n",
      "note_on channel=0 note=53 velocity=41 time=0\n",
      "note_off channel=0 note=94 velocity=64 time=0\n",
      "note_off channel=0 note=78 velocity=64 time=1\n",
      "note_on channel=0 note=78 velocity=36 time=1\n",
      "note_on channel=0 note=75 velocity=42 time=1\n",
      "note_off channel=0 note=80 velocity=64 time=1\n",
      "note_off channel=0 note=53 velocity=64 time=1\n",
      "note_off channel=0 note=61 velocity=64 time=0\n",
      "note_off channel=0 note=68 velocity=64 time=0\n",
      "note_off channel=0 note=71 velocity=64 time=0\n",
      "note_on channel=0 note=96 velocity=52 time=0\n",
      "note_on channel=0 note=97 velocity=41 time=0\n",
      "note_on channel=0 note=101 velocity=59 time=0\n",
      "note_on channel=0 note=52 velocity=72 time=1\n",
      "note_on channel=0 note=58 velocity=32 time=0\n",
      "note_on channel=0 note=64 velocity=74 time=0\n",
      "note_off channel=0 note=65 velocity=64 time=0\n",
      "note_on channel=0 note=69 velocity=44 time=0\n",
      "note_on channel=0 note=80 velocity=80 time=0\n",
      "note_on channel=0 note=89 velocity=70 time=0\n",
      "note_on channel=0 note=94 velocity=37 time=0\n",
      "note_on channel=0 note=100 velocity=41 time=0\n",
      "note_off channel=0 note=73 velocity=64 time=1\n",
      "note_off channel=0 note=78 velocity=64 time=0\n",
      "note_off channel=0 note=88 velocity=64 time=0\n",
      "note_on channel=0 note=91 velocity=34 time=0\n",
      "note_on channel=0 note=45 velocity=76 time=1\n",
      "note_off channel=0 note=58 velocity=64 time=0\n",
      "note_off channel=0 note=75 velocity=64 time=0\n",
      "note_on channel=0 note=77 velocity=42 time=0\n",
      "note_on channel=0 note=85 velocity=46 time=0\n",
      "note_on channel=0 note=61 velocity=41 time=1\n",
      "note_on channel=0 note=75 velocity=36 time=0\n",
      "note_on channel=0 note=98 velocity=48 time=0\n",
      "note_on channel=0 note=44 velocity=77 time=1\n",
      "note_off channel=0 note=45 velocity=64 time=0\n",
      "note_off channel=0 note=64 velocity=64 time=0\n",
      "note_on channel=0 note=65 velocity=61 time=0\n",
      "note_on channel=0 note=78 velocity=26 time=0\n",
      "note_off channel=0 note=69 velocity=64 time=1\n",
      "note_on channel=0 note=72 velocity=34 time=0\n",
      "note_off channel=0 note=75 velocity=64 time=0\n",
      "note_off channel=0 note=77 velocity=64 time=0\n",
      "note_off channel=0 note=61 velocity=64 time=1\n",
      "note_off channel=0 note=65 velocity=64 time=0\n",
      "note_on channel=0 note=73 velocity=23 time=0\n",
      "note_off channel=0 note=94 velocity=64 time=0\n",
      "note_off channel=0 note=97 velocity=64 time=0\n",
      "note_on channel=0 note=43 velocity=73 time=1\n",
      "note_off channel=0 note=44 velocity=64 time=0\n",
      "note_on channel=0 note=67 velocity=32 time=0\n",
      "note_on channel=0 note=71 velocity=39 time=0\n",
      "note_off channel=0 note=72 velocity=64 time=0\n",
      "note_off channel=0 note=78 velocity=64 time=0\n",
      "note_on channel=0 note=93 velocity=17 time=1\n",
      "note_on channel=0 note=63 velocity=48 time=1\n",
      "note_off channel=0 note=67 velocity=64 time=0\n",
      "note_off channel=0 note=84 velocity=64 time=0\n",
      "note_off channel=0 note=91 velocity=64 time=0\n",
      "note_on channel=0 note=91 velocity=31 time=1\n",
      "note_off channel=0 note=63 velocity=64 time=1\n",
      "note_on channel=0 note=75 velocity=23 time=0\n",
      "note_on channel=0 note=77 velocity=14 time=0\n",
      "note_off channel=0 note=93 velocity=64 time=1\n",
      "note_on channel=0 note=97 velocity=52 time=0\n",
      "note_off channel=0 note=98 velocity=64 time=0\n",
      "note_off channel=0 note=43 velocity=64 time=2\n",
      "note_off channel=0 note=100 velocity=64 time=1\n",
      "note_on channel=0 note=63 velocity=62 time=1\n",
      "note_on channel=0 note=70 velocity=34 time=0\n",
      "note_off channel=0 note=71 velocity=64 time=0\n",
      "note_on channel=0 note=84 velocity=19 time=0\n",
      "note_on channel=0 note=94 velocity=15 time=0\n",
      "note_on channel=0 note=98 velocity=30 time=0\n",
      "note_on channel=0 note=100 velocity=50 time=0\n",
      "note_on channel=0 note=51 velocity=53 time=1\n",
      "note_off channel=0 note=52 velocity=64 time=0\n",
      "note_off channel=0 note=77 velocity=64 time=1\n",
      "note_on channel=0 note=78 velocity=15 time=0\n",
      "note_on channel=0 note=82 velocity=35 time=2\n",
      "note_on channel=0 note=50 velocity=45 time=1\n",
      "note_off channel=0 note=51 velocity=64 time=0\n",
      "note_off channel=0 note=96 velocity=64 time=0\n",
      "note_off channel=0 note=70 velocity=64 time=2\n",
      "note_off channel=0 note=75 velocity=64 time=0\n",
      "note_on channel=0 note=77 velocity=35 time=0\n",
      "note_off channel=0 note=78 velocity=64 time=0\n",
      "note_off channel=0 note=94 velocity=64 time=0\n",
      "note_on channel=0 note=96 velocity=47 time=0\n",
      "note_off channel=0 note=97 velocity=64 time=0\n",
      "note_off channel=0 note=50 velocity=64 time=1\n",
      "note_on channel=0 note=70 velocity=43 time=0\n",
      "note_off channel=0 note=91 velocity=64 time=0\n",
      "note_on channel=0 note=93 velocity=20 time=0\n",
      "note_on channel=0 note=50 velocity=56 time=1\n",
      "note_on channel=0 note=91 velocity=14 time=0\n",
      "note_off channel=0 note=98 velocity=64 time=0\n",
      "note_off channel=0 note=83 velocity=64 time=1\n",
      "note_off channel=0 note=50 velocity=64 time=2\n",
      "note_on channel=0 note=51 velocity=63 time=0\n",
      "note_on channel=0 note=71 velocity=43 time=0\n",
      "note_off channel=0 note=93 velocity=64 time=0\n",
      "note_off channel=0 note=63 velocity=64 time=1\n",
      "note_off channel=0 note=70 velocity=64 time=0\n",
      "note_on channel=0 note=83 velocity=55 time=0\n",
      "note_on channel=0 note=86 velocity=29 time=0\n",
      "note_on channel=0 note=93 velocity=23 time=0\n",
      "note_on channel=0 note=61 velocity=67 time=1\n",
      "note_on channel=0 note=68 velocity=50 time=0\n",
      "note_off channel=0 note=73 velocity=64 time=0\n",
      "note_off channel=0 note=82 velocity=64 time=0\n",
      "note_off channel=0 note=84 velocity=64 time=0\n",
      "note_off channel=0 note=85 velocity=64 time=0\n",
      "note_off channel=0 note=89 velocity=64 time=0\n",
      "note_off channel=0 note=91 velocity=64 time=0\n",
      "note_on channel=0 note=57 velocity=53 time=1\n",
      "note_off channel=0 note=61 velocity=64 time=0\n",
      "note_on channel=0 note=62 velocity=88 time=0\n",
      "note_on channel=0 note=73 velocity=41 time=0\n",
      "note_on channel=0 note=78 velocity=31 time=0\n",
      "note_on channel=0 note=82 velocity=64 time=0\n",
      "note_off channel=0 note=83 velocity=64 time=0\n",
      "note_on channel=0 note=84 velocity=45 time=0\n",
      "note_off channel=0 note=86 velocity=64 time=0\n",
      "note_on channel=0 note=91 velocity=33 time=0\n",
      "note_off channel=0 note=62 velocity=64 time=1\n",
      "note_on channel=0 note=63 velocity=94 time=0\n",
      "note_off channel=0 note=68 velocity=64 time=0\n",
      "note_off channel=0 note=71 velocity=64 time=0\n",
      "note_off channel=0 note=51 velocity=64 time=1\n",
      "note_on channel=0 note=70 velocity=43 time=0\n",
      "note_off channel=0 note=78 velocity=64 time=0\n",
      "note_off channel=0 note=91 velocity=64 time=0\n",
      "note_on channel=0 note=51 velocity=45 time=1\n",
      "note_off channel=0 note=57 velocity=64 time=0\n",
      "note_on channel=0 note=83 velocity=49 time=0\n",
      "note_off channel=0 note=93 velocity=64 time=0\n",
      "note_off channel=0 note=70 velocity=64 time=1\n",
      "note_off channel=0 note=73 velocity=64 time=0\n",
      "note_off channel=0 note=82 velocity=64 time=0\n",
      "note_off channel=0 note=87 velocity=64 time=0\n",
      "note_on channel=0 note=50 velocity=61 time=1\n",
      "note_off channel=0 note=51 velocity=64 time=0\n",
      "note_on channel=0 note=88 velocity=21 time=0\n",
      "note_on channel=0 note=74 velocity=12 time=1\n",
      "note_on channel=0 note=86 velocity=21 time=0\n",
      "note_on channel=0 note=94 velocity=12 time=0\n",
      "note_on channel=0 note=103 velocity=13 time=0\n",
      "note_on channel=0 note=71 velocity=55 time=1\n",
      "note_off channel=0 note=90 velocity=64 time=1\n",
      "note_on channel=0 note=91 velocity=13 time=0\n",
      "note_off channel=0 note=74 velocity=64 time=1\n",
      "note_off channel=0 note=86 velocity=64 time=0\n",
      "note_off channel=0 note=94 velocity=64 time=0\n",
      "note_on channel=0 note=74 velocity=29 time=1\n",
      "note_on channel=0 note=90 velocity=50 time=0\n",
      "note_off channel=0 note=103 velocity=64 time=0\n",
      "note_off channel=0 note=50 velocity=64 time=2\n",
      "note_on channel=0 note=51 velocity=50 time=0\n",
      "note_on channel=0 note=68 velocity=48 time=0\n",
      "note_off channel=0 note=74 velocity=64 time=0\n",
      "note_on channel=0 note=85 velocity=46 time=0\n",
      "note_off channel=0 note=88 velocity=64 time=1\n",
      "note_off channel=0 note=51 velocity=64 time=1\n",
      "note_off channel=0 note=96 velocity=64 time=1\n",
      "note_on channel=0 note=50 velocity=63 time=1\n",
      "note_on channel=0 note=88 velocity=42 time=1\n",
      "note_off channel=0 note=68 velocity=64 time=1\n",
      "note_on channel=0 note=69 velocity=40 time=0\n",
      "note_off channel=0 note=77 velocity=64 time=1\n",
      "note_off channel=0 note=69 velocity=64 time=1\n",
      "note_on channel=0 note=49 velocity=66 time=1\n",
      "note_off channel=0 note=50 velocity=64 time=0\n",
      "note_on channel=0 note=77 velocity=39 time=0\n",
      "note_off channel=0 note=91 velocity=64 time=0\n",
      "note_off channel=0 note=80 velocity=64 time=3\n",
      "note_on channel=0 note=68 velocity=64 time=1\n",
      "note_on channel=0 note=82 velocity=34 time=0\n",
      "note_on channel=0 note=91 velocity=15 time=0\n",
      "note_off channel=0 note=83 velocity=64 time=2\n",
      "note_off channel=0 note=84 velocity=64 time=0\n",
      "note_on channel=0 note=89 velocity=46 time=0\n",
      "note_on channel=0 note=83 velocity=62 time=1\n",
      "note_off channel=0 note=91 velocity=64 time=0\n",
      "note_on channel=0 note=98 velocity=15 time=0\n",
      "note_on channel=0 note=57 velocity=52 time=1\n",
      "note_on channel=0 note=62 velocity=82 time=0\n",
      "note_off channel=0 note=63 velocity=64 time=0\n",
      "note_off channel=0 note=82 velocity=64 time=0\n",
      "note_on channel=0 note=91 velocity=36 time=0\n",
      "note_on channel=0 note=96 velocity=44 time=0\n",
      "note_on channel=0 note=61 velocity=77 time=1\n",
      "note_off channel=0 note=62 velocity=64 time=0\n",
      "note_on channel=0 note=82 velocity=61 time=0\n",
      "note_off channel=0 note=83 velocity=64 time=0\n",
      "note_on channel=0 note=84 velocity=31 time=0\n",
      "note_off channel=0 note=61 velocity=64 time=1\n",
      "note_on channel=0 note=63 velocity=85 time=0\n",
      "note_off channel=0 note=57 velocity=64 time=1\n",
      "note_on channel=0 note=73 velocity=22 time=0\n",
      "note_off channel=0 note=84 velocity=64 time=1\n",
      "note_off channel=0 note=89 velocity=64 time=0\n",
      "note_off channel=0 note=98 velocity=64 time=0\n",
      "note_off channel=0 note=82 velocity=64 time=1\n",
      "note_on channel=0 note=94 velocity=51 time=0\n",
      "note_on channel=0 note=69 velocity=53 time=1\n",
      "note_off channel=0 note=73 velocity=64 time=0\n",
      "note_off channel=0 note=49 velocity=64 time=1\n",
      "note_on channel=0 note=50 velocity=65 time=0\n",
      "note_off channel=0 note=68 velocity=64 time=0\n",
      "note_off channel=0 note=71 velocity=64 time=0\n",
      "note_off channel=0 note=77 velocity=64 time=0\n",
      "note_on channel=0 note=49 velocity=65 time=1\n",
      "note_off channel=0 note=50 velocity=64 time=0\n",
      "note_on channel=0 note=71 velocity=50 time=0\n",
      "note_on channel=0 note=73 velocity=41 time=0\n",
      "note_on channel=0 note=68 velocity=55 time=1\n",
      "note_off channel=0 note=69 velocity=64 time=0\n",
      "note_on channel=0 note=77 velocity=36 time=0\n",
      "note_on channel=0 note=89 velocity=54 time=1\n",
      "note_off channel=0 note=88 velocity=64 time=1\n",
      "note_on channel=0 note=88 velocity=42 time=1\n",
      "note_off channel=0 note=90 velocity=64 time=1\n",
      "note_off channel=0 note=100 velocity=64 time=0\n",
      "note_on channel=0 note=82 velocity=30 time=1\n",
      "note_off channel=0 note=68 velocity=64 time=1\n",
      "note_on channel=0 note=80 velocity=29 time=1\n",
      "note_on channel=0 note=68 velocity=41 time=1\n",
      "note_off channel=0 note=82 velocity=64 time=0\n",
      "note_on channel=0 note=90 velocity=32 time=1\n",
      "note_off channel=0 note=94 velocity=64 time=2\n",
      "note_off channel=0 note=73 velocity=64 time=1\n",
      "note_off channel=0 note=80 velocity=64 time=0\n",
      "note_on channel=0 note=67 velocity=35 time=1\n",
      "note_off channel=0 note=68 velocity=64 time=0\n",
      "note_on channel=0 note=82 velocity=38 time=0\n",
      "note_off channel=0 note=96 velocity=64 time=0\n",
      "note_on channel=0 note=80 velocity=86 time=1\n",
      "note_on channel=0 note=93 velocity=15 time=0\n",
      "note_off channel=0 note=101 velocity=64 time=0\n",
      "note_off channel=0 note=89 velocity=64 time=1\n",
      "note_off channel=0 note=67 velocity=64 time=1\n",
      "note_on channel=0 note=68 velocity=39 time=0\n",
      "note_off channel=0 note=49 velocity=64 time=2\n",
      "note_on channel=0 note=73 velocity=31 time=1\n",
      "note_on channel=0 note=87 velocity=37 time=0\n",
      "note_on channel=0 note=89 velocity=77 time=0\n",
      "note_off channel=0 note=77 velocity=64 time=1\n",
      "note_off channel=0 note=90 velocity=64 time=0\n",
      "note_on channel=0 note=102 velocity=19 time=0\n",
      "note_on channel=0 note=90 velocity=44 time=1\n",
      "note_off channel=0 note=91 velocity=64 time=0\n",
      "note_off channel=0 note=93 velocity=64 time=0\n",
      "note_off channel=0 note=68 velocity=64 time=1\n",
      "note_off channel=0 note=73 velocity=64 time=0\n",
      "note_on channel=0 note=77 velocity=37 time=0\n",
      "note_off channel=0 note=88 velocity=64 time=0\n",
      "note_on channel=0 note=49 velocity=62 time=1\n",
      "note_on channel=0 note=68 velocity=58 time=0\n",
      "note_off channel=0 note=71 velocity=64 time=0\n",
      "note_on channel=0 note=72 velocity=71 time=0\n",
      "note_off channel=0 note=82 velocity=64 time=0\n",
      "note_on channel=0 note=83 velocity=51 time=0\n",
      "note_on channel=0 note=88 velocity=51 time=0\n",
      "note_on channel=0 note=93 velocity=34 time=0\n",
      "note_on channel=0 note=76 velocity=44 time=1\n",
      "note_off channel=0 note=77 velocity=64 time=0\n",
      "note_off channel=0 note=102 velocity=64 time=0\n",
      "note_off channel=0 note=63 velocity=64 time=1\n",
      "note_off channel=0 note=72 velocity=64 time=0\n",
      "note_on channel=0 note=73 velocity=75 time=0\n",
      "note_off channel=0 note=88 velocity=64 time=0\n",
      "note_on channel=0 note=65 velocity=42 time=1\n",
      "note_on channel=0 note=74 velocity=53 time=1\n",
      "note_off channel=0 note=76 velocity=64 time=0\n",
      "note_on channel=0 note=94 velocity=28 time=0\n",
      "note_off channel=0 note=49 velocity=64 time=1\n",
      "note_on channel=0 note=50 velocity=67 time=0\n",
      "note_off channel=0 note=68 velocity=64 time=0\n",
      "note_on channel=0 note=82 velocity=29 time=0\n",
      "note_on channel=0 note=84 velocity=31 time=0\n",
      "note_on channel=0 note=63 velocity=49 time=1\n",
      "note_off channel=0 note=65 velocity=64 time=0\n",
      "note_on channel=0 note=71 velocity=51 time=0\n",
      "note_off channel=0 note=73 velocity=64 time=0\n",
      "note_off channel=0 note=74 velocity=64 time=0\n",
      "note_on channel=0 note=75 velocity=49 time=0\n",
      "note_on channel=0 note=77 velocity=23 time=0\n",
      "note_off channel=0 note=83 velocity=64 time=0\n",
      "note_on channel=0 note=91 velocity=33 time=0\n",
      "note_on channel=0 note=68 velocity=32 time=1\n",
      "note_on channel=0 note=74 velocity=39 time=0\n",
      "note_off channel=0 note=84 velocity=64 time=0\n",
      "note_off channel=0 note=50 velocity=64 time=1\n",
      "note_off channel=0 note=68 velocity=64 time=1\n",
      "note_on channel=0 note=73 velocity=40 time=0\n",
      "note_off channel=0 note=74 velocity=64 time=0\n",
      "note_off channel=0 note=93 velocity=64 time=0\n",
      "note_on channel=0 note=50 velocity=65 time=1\n",
      "note_on channel=0 note=78 velocity=15 time=0\n",
      "note_off channel=0 note=82 velocity=64 time=0\n",
      "note_on channel=0 note=84 velocity=23 time=0\n",
      "note_off channel=0 note=89 velocity=64 time=0\n",
      "note_on channel=0 note=93 velocity=46 time=0\n",
      "note_off channel=0 note=94 velocity=64 time=0\n",
      "note_off channel=0 note=63 velocity=64 time=1\n",
      "note_on channel=0 note=65 velocity=35 time=0\n",
      "note_off channel=0 note=73 velocity=64 time=0\n",
      "note_off channel=0 note=91 velocity=64 time=0\n",
      "note_on channel=0 note=94 velocity=18 time=0\n",
      "note_on channel=0 note=69 velocity=51 time=1\n",
      "note_on channel=0 note=73 velocity=40 time=0\n",
      "note_off channel=0 note=77 velocity=64 time=0\n",
      "note_on channel=0 note=88 velocity=21 time=0\n",
      "note_on channel=0 note=91 velocity=40 time=0\n",
      "note_off channel=0 note=75 velocity=64 time=1\n",
      "note_off channel=0 note=84 velocity=64 time=0\n",
      "note_off channel=0 note=87 velocity=64 time=0\n",
      "note_off channel=0 note=78 velocity=64 time=1\n",
      "note_on channel=0 note=82 velocity=29 time=0\n",
      "note_on channel=0 note=84 velocity=29 time=0\n",
      "note_off channel=0 note=90 velocity=64 time=0\n",
      "note_off channel=0 note=71 velocity=64 time=1\n",
      "note_on channel=0 note=90 velocity=43 time=0\n",
      "note_on channel=0 note=74 velocity=46 time=1\n",
      "note_on channel=0 note=78 velocity=19 time=0\n",
      "note_on channel=0 note=83 velocity=24 time=0\n",
      "note_off channel=0 note=85 velocity=64 time=0\n",
      "note_off channel=0 note=88 velocity=64 time=0\n",
      "note_off channel=0 note=91 velocity=64 time=0\n",
      "note_off channel=0 note=94 velocity=64 time=0\n",
      "note_off channel=0 note=69 velocity=64 time=1\n",
      "note_on channel=0 note=70 velocity=48 time=0\n",
      "note_off channel=0 note=73 velocity=64 time=0\n",
      "note_off channel=0 note=82 velocity=64 time=0\n",
      "note_on channel=0 note=88 velocity=21 time=1\n",
      "note_off channel=0 note=70 velocity=64 time=1\n",
      "note_on channel=0 note=82 velocity=37 time=0\n",
      "note_on channel=0 note=68 velocity=50 time=1\n",
      "note_on channel=0 note=71 velocity=41 time=0\n",
      "note_off channel=0 note=83 velocity=64 time=0\n",
      "note_on channel=0 note=49 velocity=55 time=1\n",
      "note_off channel=0 note=50 velocity=64 time=0\n",
      "note_on channel=0 note=60 velocity=41 time=0\n",
      "note_off channel=0 note=65 velocity=64 time=0\n",
      "note_on channel=0 note=73 velocity=31 time=0\n",
      "note_off channel=0 note=78 velocity=64 time=0\n",
      "note_off channel=0 note=84 velocity=64 time=0\n",
      "note_off channel=0 note=74 velocity=64 time=1\n",
      "note_off channel=0 note=88 velocity=64 time=0\n",
      "note_on channel=0 note=89 velocity=35 time=0\n",
      "note_off channel=0 note=49 velocity=64 time=1\n",
      "note_on channel=0 note=50 velocity=38 time=0\n",
      "note_off channel=0 note=60 velocity=64 time=0\n",
      "note_on channel=0 note=60 velocity=39 time=1\n",
      "note_on channel=0 note=65 velocity=35 time=0\n",
      "note_on channel=0 note=67 velocity=50 time=0\n",
      "note_off channel=0 note=68 velocity=64 time=0\n",
      "note_off channel=0 note=73 velocity=64 time=0\n",
      "note_on channel=0 note=91 velocity=45 time=0\n",
      "note_off channel=0 note=71 velocity=64 time=1\n",
      "note_off channel=0 note=93 velocity=64 time=0\n",
      "note_on channel=0 note=95 velocity=19 time=0\n",
      "note_on channel=0 note=100 velocity=23 time=0\n",
      "note_off channel=0 note=50 velocity=64 time=1\n",
      "note_off channel=0 note=60 velocity=64 time=0\n",
      "note_on channel=0 note=61 velocity=76 time=0\n",
      "note_off channel=0 note=65 velocity=64 time=0\n",
      "note_on channel=0 note=69 velocity=41 time=0\n",
      "note_on channel=0 note=77 velocity=47 time=0\n",
      "note_off channel=0 note=80 velocity=64 time=0\n",
      "note_on channel=0 note=87 velocity=46 time=0\n",
      "note_on channel=0 note=93 velocity=34 time=0\n",
      "note_on channel=0 note=96 velocity=19 time=0\n",
      "note_on channel=0 note=57 velocity=69 time=1\n",
      "note_off channel=0 note=67 velocity=64 time=0\n",
      "note_on channel=0 note=75 velocity=43 time=0\n",
      "note_on channel=0 note=83 velocity=40 time=0\n",
      "note_off channel=0 note=89 velocity=64 time=0\n",
      "note_on channel=0 note=63 velocity=67 time=1\n",
      "note_on channel=0 note=80 velocity=36 time=0\n",
      "note_on channel=0 note=49 velocity=50 time=1\n",
      "note_off channel=0 note=61 velocity=64 time=0\n",
      "note_off channel=0 note=63 velocity=64 time=0\n",
      "note_on channel=0 note=68 velocity=57 time=0\n",
      "note_off channel=0 note=69 velocity=64 time=0\n",
      "note_on channel=0 note=70 velocity=31 time=0\n",
      "note_off channel=0 note=82 velocity=64 time=0\n",
      "note_off channel=0 note=90 velocity=64 time=0\n",
      "note_off channel=0 note=57 velocity=64 time=1\n",
      "note_off channel=0 note=75 velocity=64 time=0\n",
      "note_on channel=0 note=90 velocity=27 time=0\n",
      "note_on channel=0 note=94 velocity=28 time=0\n",
      "note_on channel=0 note=65 velocity=51 time=1\n",
      "note_off channel=0 note=70 velocity=64 time=0\n",
      "note_on channel=0 note=72 velocity=55 time=0\n",
      "note_on channel=0 note=76 velocity=32 time=0\n",
      "note_off channel=0 note=77 velocity=64 time=0\n",
      "note_off channel=0 note=93 velocity=64 time=0\n",
      "note_off channel=0 note=49 velocity=64 time=1\n",
      "note_off channel=0 note=68 velocity=64 time=0\n",
      "note_on channel=0 note=46 velocity=33 time=1\n",
      "note_on channel=0 note=59 velocity=39 time=0\n",
      "note_off channel=0 note=76 velocity=64 time=0\n",
      "note_off channel=0 note=90 velocity=64 time=0\n",
      "note_on channel=0 note=71 velocity=48 time=1\n",
      "note_off channel=0 note=72 velocity=64 time=0\n",
      "note_on channel=0 note=90 velocity=34 time=0\n",
      "note_off channel=0 note=46 velocity=64 time=1\n",
      "note_off channel=0 note=100 velocity=64 time=0\n",
      "note_on channel=0 note=68 velocity=19 time=1\n",
      "note_on channel=0 note=75 velocity=40 time=0\n",
      "note_on channel=0 note=93 velocity=27 time=0\n",
      "note_on channel=0 note=47 velocity=40 time=1\n",
      "note_off channel=0 note=65 velocity=64 time=1\n",
      "note_off channel=0 note=47 velocity=64 time=1\n",
      "note_on channel=0 note=65 velocity=59 time=0\n",
      "note_on channel=0 note=92 velocity=42 time=0\n",
      "note_off channel=0 note=68 velocity=64 time=1\n",
      "note_off channel=0 note=90 velocity=64 time=0\n",
      "note_off channel=0 note=59 velocity=64 time=1\n",
      "note_on channel=0 note=68 velocity=44 time=0\n",
      "note_on channel=0 note=74 velocity=45 time=0\n",
      "note_off channel=0 note=75 velocity=64 time=0\n",
      "note_on channel=0 note=76 velocity=41 time=0\n",
      "note_off channel=0 note=80 velocity=64 time=0\n",
      "note_on channel=0 note=82 velocity=63 time=0\n",
      "note_off channel=0 note=83 velocity=64 time=0\n",
      "note_on channel=0 note=90 velocity=38 time=0\n",
      "note_off channel=0 note=91 velocity=64 time=0\n",
      "note_off channel=0 note=96 velocity=64 time=0\n",
      "note_on channel=0 note=53 velocity=43 time=1\n",
      "note_on channel=0 note=80 velocity=52 time=0\n",
      "note_on channel=0 note=85 velocity=25 time=0\n",
      "note_on channel=0 note=60 velocity=42 time=1\n",
      "note_off channel=0 note=74 velocity=64 time=0\n",
      "note_on channel=0 note=91 velocity=36 time=0\n",
      "note_on channel=0 note=96 velocity=16 time=0\n",
      "note_on channel=0 note=47 velocity=29 time=1\n",
      "note_off channel=0 note=53 velocity=64 time=0\n",
      "note_off channel=0 note=68 velocity=64 time=0\n",
      "note_on channel=0 note=75 velocity=30 time=0\n",
      "note_off channel=0 note=76 velocity=64 time=0\n",
      "note_off channel=0 note=82 velocity=64 time=0\n",
      "note_off channel=0 note=90 velocity=64 time=0\n",
      "note_on channel=0 note=100 velocity=13 time=0\n",
      "note_off channel=0 note=85 velocity=64 time=1\n",
      "note_on channel=0 note=90 velocity=44 time=0\n",
      "note_off channel=0 note=91 velocity=64 time=0\n",
      "note_off channel=0 note=47 velocity=64 time=1\n",
      "note_on channel=0 note=48 velocity=45 time=0\n",
      "note_on channel=0 note=53 velocity=30 time=0\n",
      "note_on channel=0 note=59 velocity=39 time=0\n",
      "note_off channel=0 note=60 velocity=64 time=0\n",
      "note_off channel=0 note=95 velocity=64 time=0\n",
      "note_off channel=0 note=96 velocity=64 time=1\n",
      "note_off channel=0 note=100 velocity=64 time=0\n",
      "note_off channel=0 note=53 velocity=64 time=1\n",
      "note_off channel=0 note=59 velocity=64 time=0\n",
      "note_on channel=0 note=60 velocity=51 time=0\n",
      "note_on channel=0 note=91 velocity=40 time=0\n",
      "note_off channel=0 note=92 velocity=64 time=0\n",
      "note_off channel=0 note=94 velocity=64 time=0\n",
      "note_off channel=0 note=90 velocity=64 time=1\n",
      "note_off channel=0 note=93 velocity=64 time=1\n",
      "note_off channel=0 note=71 velocity=64 time=1\n",
      "note_on channel=0 note=90 velocity=60 time=0\n",
      "note_off channel=0 note=91 velocity=64 time=0\n",
      "note_on channel=0 note=91 velocity=34 time=1\n",
      "note_off channel=0 note=60 velocity=64 time=1\n",
      "note_on channel=0 note=61 velocity=61 time=0\n",
      "note_on channel=0 note=68 velocity=47 time=0\n",
      "note_on channel=0 note=93 velocity=33 time=0\n",
      "note_off channel=0 note=48 velocity=64 time=1\n",
      "note_off channel=0 note=91 velocity=64 time=0\n",
      "note_off channel=0 note=65 velocity=64 time=1\n",
      "note_off channel=0 note=68 velocity=64 time=0\n",
      "note_off channel=0 note=75 velocity=64 time=0\n",
      "note_on channel=0 note=83 velocity=43 time=0\n",
      "note_on channel=0 note=96 velocity=14 time=0\n",
      "note_off channel=0 note=61 velocity=64 time=1\n",
      "note_on channel=0 note=63 velocity=77 time=0\n",
      "note_on channel=0 note=45 velocity=72 time=1\n",
      "note_off channel=0 note=63 velocity=64 time=0\n",
      "note_on channel=0 note=64 velocity=83 time=0\n",
      "note_on channel=0 note=67 velocity=58 time=0\n",
      "note_on channel=0 note=89 velocity=41 time=0\n",
      "note_on channel=0 note=91 velocity=65 time=0\n",
      "note_on channel=0 note=44 velocity=79 time=1\n",
      "note_off channel=0 note=45 velocity=64 time=0\n",
      "note_on channel=0 note=61 velocity=65 time=0\n",
      "note_on channel=0 note=63 velocity=75 time=0\n",
      "note_off channel=0 note=64 velocity=64 time=0\n",
      "note_off channel=0 note=61 velocity=64 time=1\n",
      "note_on channel=0 note=69 velocity=31 time=0\n",
      "note_on channel=0 note=82 velocity=20 time=0\n",
      "note_off channel=0 note=83 velocity=64 time=0\n",
      "note_on channel=0 note=43 velocity=76 time=1\n",
      "note_off channel=0 note=44 velocity=64 time=0\n",
      "note_on channel=0 note=61 velocity=59 time=0\n",
      "note_on channel=0 note=72 velocity=46 time=0\n",
      "note_off channel=0 note=43 velocity=64 time=1\n",
      "note_on channel=0 note=44 velocity=79 time=0\n",
      "note_off channel=0 note=63 velocity=64 time=0\n",
      "note_off channel=0 note=67 velocity=64 time=0\n",
      "note_on channel=0 note=68 velocity=46 time=0\n",
      "note_off channel=0 note=69 velocity=64 time=0\n",
      "note_off channel=0 note=89 velocity=64 time=0\n",
      "note_off channel=0 note=93 velocity=64 time=0\n",
      "note_off channel=0 note=44 velocity=64 time=1\n",
      "note_on channel=0 note=45 velocity=74 time=0\n",
      "note_off channel=0 note=61 velocity=64 time=0\n",
      "note_on channel=0 note=65 velocity=39 time=0\n",
      "note_on channel=0 note=71 velocity=32 time=0\n",
      "note_off channel=0 note=72 velocity=64 time=0\n",
      "note_on channel=0 note=73 velocity=39 time=0\n",
      "note_on channel=0 note=89 velocity=51 time=0\n",
      "note_on channel=0 note=61 velocity=58 time=1\n",
      "note_off channel=0 note=68 velocity=64 time=0\n",
      "note_off channel=0 note=82 velocity=64 time=0\n",
      "note_off channel=0 note=96 velocity=64 time=0\n",
      "note_on channel=0 note=44 velocity=72 time=1\n",
      "note_off channel=0 note=45 velocity=64 time=0\n",
      "note_on channel=0 note=43 velocity=62 time=2\n",
      "note_off channel=0 note=44 velocity=64 time=0\n",
      "note_off channel=0 note=90 velocity=64 time=0\n",
      "note_off channel=0 note=43 velocity=64 time=4\n",
      "note_off channel=0 note=73 velocity=64 time=0\n",
      "note_on channel=0 note=48 velocity=69 time=1\n",
      "note_on channel=0 note=75 velocity=13 time=0\n",
      "note_off channel=0 note=65 velocity=64 time=1\n",
      "note_on channel=0 note=67 velocity=34 time=0\n",
      "note_on channel=0 note=93 velocity=11 time=0\n",
      "note_on channel=0 note=47 velocity=76 time=1\n",
      "note_off channel=0 note=48 velocity=64 time=0\n",
      "note_off channel=0 note=47 velocity=64 time=1\n",
      "note_on channel=0 note=48 velocity=73 time=0\n",
      "note_off channel=0 note=75 velocity=64 time=0\n",
      "note_on channel=0 note=90 velocity=30 time=0\n",
      "note_off channel=0 note=48 velocity=64 time=1\n",
      "note_on channel=0 note=49 velocity=72 time=0\n",
      "note_off channel=0 note=93 velocity=64 time=0\n",
      "note_off channel=0 note=49 velocity=64 time=1\n",
      "note_on channel=0 note=50 velocity=78 time=0\n",
      "note_off channel=0 note=67 velocity=64 time=0\n",
      "note_off channel=0 note=90 velocity=64 time=0\n",
      "note_off channel=0 note=50 velocity=64 time=1\n",
      "note_on channel=0 note=53 velocity=73 time=0\n",
      "note_on channel=0 note=93 velocity=14 time=0\n",
      "note_off channel=0 note=53 velocity=64 time=2\n",
      "note_on channel=0 note=54 velocity=59 time=0\n",
      "note_off channel=0 note=61 velocity=64 time=0\n",
      "note_on channel=0 note=53 velocity=59 time=2\n",
      "note_off channel=0 note=54 velocity=64 time=0\n",
      "note_on channel=0 note=83 velocity=34 time=0\n",
      "note_off channel=0 note=93 velocity=64 time=0\n",
      "note_off channel=0 note=53 velocity=64 time=3\n",
      "note_on channel=0 note=77 velocity=45 time=0\n",
      "note_on channel=0 note=64 velocity=84 time=1\n",
      "note_on channel=0 note=73 velocity=58 time=0\n",
      "note_on channel=0 note=45 velocity=78 time=1\n",
      "note_on channel=0 note=90 velocity=34 time=0\n",
      "note_on channel=0 note=94 velocity=13 time=0\n",
      "note_on channel=0 note=102 velocity=39 time=0\n",
      "note_off channel=0 note=71 velocity=64 time=1\n",
      "note_on channel=0 note=82 velocity=28 time=0\n",
      "note_off channel=0 note=83 velocity=64 time=0\n",
      "note_on channel=0 note=44 velocity=79 time=1\n",
      "note_off channel=0 note=45 velocity=64 time=0\n",
      "note_on channel=0 note=63 velocity=70 time=0\n",
      "note_off channel=0 note=64 velocity=64 time=0\n",
      "note_on channel=0 note=67 velocity=75 time=0\n",
      "note_on channel=0 note=83 velocity=51 time=0\n",
      "note_off channel=0 note=90 velocity=64 time=0\n",
      "note_on channel=0 note=93 velocity=18 time=0\n",
      "note_on channel=0 note=55 velocity=74 time=1\n",
      "note_off channel=0 note=77 velocity=64 time=0\n",
      "note_off channel=0 note=94 velocity=64 time=0\n",
      "note_on channel=0 note=62 velocity=35 time=1\n",
      "note_off channel=0 note=63 velocity=64 time=0\n",
      "note_on channel=0 note=77 velocity=23 time=0\n",
      "note_off channel=0 note=82 velocity=64 time=0\n",
      "note_on channel=0 note=71 velocity=24 time=1\n",
      "note_on channel=0 note=61 velocity=38 time=1\n",
      "note_off channel=0 note=62 velocity=64 time=0\n",
      "note_on channel=0 note=82 velocity=54 time=0\n",
      "note_off channel=0 note=83 velocity=64 time=0\n",
      "note_off channel=0 note=44 velocity=64 time=1\n",
      "note_on channel=0 note=54 velocity=72 time=0\n",
      "note_off channel=0 note=55 velocity=64 time=0\n",
      "note_off channel=0 note=67 velocity=64 time=0\n",
      "note_off channel=0 note=77 velocity=64 time=0\n",
      "note_on channel=0 note=90 velocity=32 time=0\n",
      "note_off channel=0 note=93 velocity=64 time=0\n",
      "note_off channel=0 note=61 velocity=64 time=1\n",
      "note_off channel=0 note=71 velocity=64 time=0\n",
      "note_on channel=0 note=77 velocity=52 time=0\n",
      "note_on channel=0 note=96 velocity=16 time=0\n",
      "note_on channel=0 note=43 velocity=61 time=1\n",
      "note_on channel=0 note=53 velocity=72 time=0\n",
      "note_off channel=0 note=54 velocity=64 time=0\n",
      "note_on channel=0 note=61 velocity=72 time=0\n",
      "note_on channel=0 note=72 velocity=67 time=0\n",
      "note_off channel=0 note=73 velocity=64 time=0\n",
      "note_off channel=0 note=80 velocity=64 time=0\n",
      "note_on channel=0 note=81 velocity=40 time=0\n",
      "note_off channel=0 note=90 velocity=64 time=0\n",
      "note_on channel=0 note=92 velocity=18 time=1\n",
      "note_on channel=0 note=71 velocity=62 time=1\n",
      "note_off channel=0 note=72 velocity=64 time=0\n",
      "note_on channel=0 note=76 velocity=48 time=0\n",
      "note_off channel=0 note=77 velocity=64 time=0\n",
      "note_on channel=0 note=86 velocity=38 time=0\n",
      "note_on channel=0 note=90 velocity=52 time=0\n",
      "note_on channel=0 note=95 velocity=25 time=0\n",
      "note_off channel=0 note=96 velocity=64 time=0\n",
      "note_on channel=0 note=42 velocity=58 time=1\n",
      "note_off channel=0 note=43 velocity=64 time=0\n",
      "note_on channel=0 note=52 velocity=72 time=0\n",
      "note_off channel=0 note=53 velocity=64 time=0\n",
      "note_on channel=0 note=80 velocity=85 time=0\n",
      "note_off channel=0 note=81 velocity=64 time=0\n",
      "note_on channel=0 note=96 velocity=19 time=0\n",
      "note_off channel=0 note=102 velocity=64 time=0\n",
      "note_off channel=0 note=91 velocity=64 time=1\n",
      "note_on channel=0 note=93 velocity=29 time=0\n",
      "note_off channel=0 note=89 velocity=64 time=2\n",
      "note_off channel=0 note=93 velocity=64 time=0\n",
      "note_off channel=0 note=42 velocity=64 time=1\n",
      "note_on channel=0 note=42 velocity=52 time=1\n",
      "note_off channel=0 note=95 velocity=64 time=0\n",
      "note_off channel=0 note=96 velocity=64 time=0\n",
      "note_off channel=0 note=82 velocity=64 time=1\n",
      "note_off channel=0 note=87 velocity=64 time=0\n",
      "note_on channel=0 note=89 velocity=70 time=0\n",
      "note_off channel=0 note=92 velocity=64 time=0\n",
      "note_off channel=0 note=86 velocity=64 time=1\n",
      "note_off channel=0 note=90 velocity=64 time=0\n",
      "note_on channel=0 note=91 velocity=33 time=0\n",
      "note_off channel=0 note=71 velocity=64 time=1\n",
      "note_off channel=0 note=76 velocity=64 time=0\n",
      "note_on channel=0 note=77 velocity=18 time=0\n",
      "note_on channel=0 note=65 velocity=37 time=1\n",
      "note_off channel=0 note=65 velocity=64 time=2\n",
      "note_on channel=0 note=71 velocity=23 time=0\n",
      "note_on channel=0 note=83 velocity=27 time=0\n",
      "note_on channel=0 note=65 velocity=60 time=1\n",
      "note_on channel=0 note=68 velocity=24 time=0\n",
      "note_off channel=0 note=52 velocity=64 time=1\n",
      "note_on channel=0 note=87 velocity=37 time=0\n",
      "note_off channel=0 note=42 velocity=64 time=2\n",
      "note_on channel=0 note=55 velocity=66 time=1\n",
      "note_off channel=0 note=68 velocity=64 time=0\n",
      "note_off channel=0 note=71 velocity=64 time=0\n",
      "note_off channel=0 note=77 velocity=64 time=0\n",
      "note_on channel=0 note=82 velocity=48 time=0\n",
      "note_off channel=0 note=83 velocity=64 time=0\n",
      "note_on channel=0 note=90 velocity=43 time=0\n",
      "note_off channel=0 note=91 velocity=64 time=0\n",
      "note_on channel=0 note=93 velocity=59 time=0\n",
      "note_on channel=0 note=95 velocity=45 time=0\n",
      "note_on channel=0 note=47 velocity=78 time=1\n",
      "note_off channel=0 note=61 velocity=64 time=0\n",
      "note_on channel=0 note=62 velocity=67 time=0\n",
      "note_off channel=0 note=65 velocity=64 time=0\n",
      "note_on channel=0 note=67 velocity=74 time=0\n",
      "note_on channel=0 note=78 velocity=37 time=0\n",
      "note_on channel=0 note=88 velocity=36 time=0\n",
      "note_on channel=0 note=94 velocity=70 time=0\n",
      "note_on channel=0 note=96 velocity=31 time=0\n",
      "note_on channel=0 note=97 velocity=33 time=0\n",
      "note_on channel=0 note=98 velocity=14 time=0\n",
      "note_on channel=0 note=100 velocity=39 time=0\n",
      "note_off channel=0 note=47 velocity=64 time=1\n",
      "note_on channel=0 note=48 velocity=85 time=0\n",
      "note_off channel=0 note=62 velocity=64 time=0\n",
      "note_on channel=0 note=65 velocity=69 time=0\n",
      "note_off channel=0 note=95 velocity=64 time=0\n",
      "note_on channel=0 note=54 velocity=64 time=1\n",
      "note_off channel=0 note=55 velocity=64 time=0\n",
      "note_off channel=0 note=65 velocity=64 time=0\n",
      "note_on channel=0 note=66 velocity=76 time=0\n",
      "note_off channel=0 note=67 velocity=64 time=0\n",
      "note_on channel=0 note=73 velocity=66 time=0\n",
      "note_on channel=0 note=77 velocity=30 time=0\n",
      "note_off channel=0 note=90 velocity=64 time=0\n",
      "note_on channel=0 note=91 velocity=36 time=0\n",
      "note_on channel=0 note=95 velocity=45 time=0\n",
      "note_off channel=0 note=48 velocity=64 time=1\n",
      "note_on channel=0 note=61 velocity=49 time=0\n",
      "note_off channel=0 note=78 velocity=64 time=0\n",
      "note_off channel=0 note=88 velocity=64 time=0\n",
      "note_on channel=0 note=90 velocity=22 time=0\n",
      "note_off channel=0 note=82 velocity=64 time=1\n",
      "note_on channel=0 note=83 velocity=51 time=0\n",
      "note_off channel=0 note=93 velocity=64 time=0\n",
      "note_on channel=0 note=48 velocity=62 time=1\n",
      "note_off channel=0 note=54 velocity=64 time=0\n",
      "note_off channel=0 note=91 velocity=64 time=0\n",
      "note_off channel=0 note=96 velocity=64 time=0\n",
      "note_off channel=0 note=61 velocity=64 time=1\n",
      "note_on channel=0 note=91 velocity=33 time=0\n",
      "note_off channel=0 note=48 velocity=64 time=1\n",
      "note_on channel=0 note=49 velocity=52 time=0\n",
      "note_off channel=0 note=66 velocity=64 time=0\n",
      "note_off channel=0 note=90 velocity=64 time=0\n",
      "note_off channel=0 note=98 velocity=64 time=0\n",
      "note_on channel=0 note=65 velocity=48 time=1\n",
      "note_off channel=0 note=73 velocity=64 time=0\n",
      "note_off channel=0 note=77 velocity=64 time=0\n",
      "note_off channel=0 note=94 velocity=64 time=0\n",
      "note_off channel=0 note=100 velocity=64 time=0\n",
      "note_off channel=0 note=49 velocity=64 time=1\n",
      "note_on channel=0 note=53 velocity=40 time=0\n",
      "note_on channel=0 note=71 velocity=19 time=0\n",
      "note_on channel=0 note=73 velocity=38 time=0\n",
      "note_off channel=0 note=97 velocity=64 time=0\n",
      "note_on channel=0 note=68 velocity=15 time=1\n",
      "note_off channel=0 note=95 velocity=64 time=0\n",
      "note_on channel=0 note=44 velocity=35 time=1\n",
      "note_off channel=0 note=53 velocity=64 time=0\n",
      "note_on channel=0 note=54 velocity=35 time=0\n",
      "note_off channel=0 note=87 velocity=64 time=1\n",
      "note_off channel=0 note=68 velocity=64 time=1\n",
      "note_on channel=0 note=61 velocity=12 time=1\n",
      "note_off channel=0 note=54 velocity=64 time=1\n",
      "note_on channel=0 note=87 velocity=55 time=0\n",
      "note_on channel=0 note=93 velocity=14 time=0\n",
      "note_off channel=0 note=44 velocity=64 time=1\n",
      "note_on channel=0 note=54 velocity=32 time=0\n",
      "note_on channel=0 note=43 velocity=17 time=2\n",
      "note_on channel=0 note=90 velocity=33 time=0\n",
      "note_off channel=0 note=93 velocity=64 time=0\n",
      "note_on channel=0 note=78 velocity=14 time=1\n",
      "note_on channel=0 note=53 velocity=30 time=1\n",
      "note_off channel=0 note=54 velocity=64 time=0\n",
      "note_off channel=0 note=61 velocity=64 time=0\n",
      "note_off channel=0 note=43 velocity=64 time=1\n",
      "note_off channel=0 note=65 velocity=64 time=1\n",
      "note_off channel=0 note=53 velocity=64 time=1\n",
      "note_off channel=0 note=78 velocity=64 time=0\n",
      "note_on channel=0 note=84 velocity=69 time=0\n",
      "note_on channel=0 note=78 velocity=16 time=1\n",
      "note_on channel=0 note=77 velocity=42 time=2\n",
      "note_off channel=0 note=71 velocity=64 time=2\n",
      "note_on channel=0 note=75 velocity=64 time=0\n",
      "note_off channel=0 note=78 velocity=64 time=0\n",
      "note_on channel=0 note=94 velocity=44 time=0\n",
      "note_on channel=0 note=55 velocity=58 time=1\n",
      "note_on channel=0 note=67 velocity=67 time=0\n",
      "note_off channel=0 note=73 velocity=64 time=0\n",
      "note_off channel=0 note=91 velocity=64 time=0\n",
      "note_on channel=0 note=45 velocity=76 time=1\n",
      "note_off channel=0 note=83 velocity=64 time=0\n",
      "note_on channel=0 note=85 velocity=34 time=0\n",
      "note_on channel=0 note=63 velocity=48 time=1\n",
      "note_off channel=0 note=67 velocity=64 time=0\n",
      "note_on channel=0 note=68 velocity=74 time=0\n",
      "note_on channel=0 note=73 velocity=34 time=0\n",
      "note_on channel=0 note=82 velocity=36 time=0\n",
      "note_off channel=0 note=90 velocity=64 time=0\n",
      "note_on channel=0 note=100 velocity=39 time=0\n",
      "note_on channel=0 note=44 velocity=77 time=1\n",
      "note_off channel=0 note=45 velocity=64 time=0\n",
      "note_off channel=0 note=55 velocity=64 time=0\n",
      "note_off channel=0 note=77 velocity=64 time=0\n",
      "note_on channel=0 note=90 velocity=77 time=0\n",
      "note_on channel=0 note=98 velocity=17 time=0\n",
      "note_on channel=0 note=71 velocity=30 time=1\n",
      "note_on channel=0 note=77 velocity=26 time=0\n",
      "note_on channel=0 note=43 velocity=74 time=1\n",
      "note_off channel=0 note=44 velocity=64 time=0\n",
      "note_off channel=0 note=63 velocity=64 time=0\n",
      "note_on channel=0 note=91 velocity=16 time=0\n",
      "note_off channel=0 note=100 velocity=64 time=0\n",
      "note_off channel=0 note=71 velocity=64 time=1\n",
      "note_off channel=0 note=77 velocity=64 time=1\n",
      "note_off channel=0 note=85 velocity=64 time=0\n",
      "note_off channel=0 note=98 velocity=64 time=0\n",
      "note_on channel=0 note=57 velocity=65 time=1\n",
      "note_on channel=0 note=61 velocity=38 time=0\n",
      "note_on channel=0 note=65 velocity=33 time=0\n",
      "note_on channel=0 note=71 velocity=29 time=0\n",
      "note_on channel=0 note=77 velocity=45 time=0\n",
      "note_on channel=0 note=83 velocity=46 time=0\n",
      "note_on channel=0 note=56 velocity=69 time=1\n",
      "note_off channel=0 note=57 velocity=64 time=0\n",
      "note_off channel=0 note=82 velocity=64 time=0\n",
      "note_off channel=0 note=43 velocity=64 time=3\n",
      "note_on channel=0 note=44 velocity=30 time=0\n",
      "note_off channel=0 note=71 velocity=64 time=2\n",
      "note_on channel=0 note=88 velocity=57 time=0\n",
      "note_off channel=0 note=44 velocity=64 time=1\n",
      "note_off channel=0 note=56 velocity=64 time=0\n",
      "note_on channel=0 note=57 velocity=67 time=0\n",
      "note_off channel=0 note=61 velocity=64 time=0\n",
      "note_on channel=0 note=76 velocity=70 time=0\n",
      "note_off channel=0 note=77 velocity=64 time=0\n",
      "note_on channel=0 note=85 velocity=54 time=0\n",
      "note_off channel=0 note=89 velocity=64 time=0\n",
      "note_off channel=0 note=91 velocity=64 time=0\n",
      "note_on channel=0 note=93 velocity=18 time=0\n",
      "note_off channel=0 note=94 velocity=64 time=0\n",
      "note_off channel=0 note=68 velocity=64 time=1\n",
      "note_off channel=0 note=75 velocity=64 time=0\n",
      "note_off channel=0 note=84 velocity=64 time=0\n",
      "note_off channel=0 note=57 velocity=64 time=1\n",
      "note_off channel=0 note=76 velocity=64 time=0\n",
      "note_on channel=0 note=77 velocity=71 time=0\n",
      "note_on channel=0 note=86 velocity=46 time=0\n",
      "note_on channel=0 note=59 velocity=60 time=1\n",
      "note_on channel=0 note=68 velocity=20 time=0\n",
      "note_on channel=0 note=78 velocity=50 time=0\n",
      "note_off channel=0 note=85 velocity=64 time=0\n",
      "note_off channel=0 note=93 velocity=64 time=0\n",
      "note_on channel=0 note=49 velocity=16 time=1\n",
      "note_off channel=0 note=73 velocity=64 time=0\n",
      "note_on channel=0 note=75 velocity=36 time=0\n",
      "note_off channel=0 note=77 velocity=64 time=0\n",
      "note_on channel=0 note=85 velocity=45 time=0\n",
      "note_on channel=0 note=89 velocity=41 time=0\n",
      "note_on channel=0 note=82 velocity=29 time=1\n",
      "note_off channel=0 note=68 velocity=64 time=2\n",
      "note_on channel=0 note=73 velocity=48 time=0\n",
      "note_on channel=0 note=77 velocity=65 time=0\n",
      "note_off channel=0 note=83 velocity=64 time=0\n",
      "note_on channel=0 note=84 velocity=23 time=0\n",
      "note_off channel=0 note=86 velocity=64 time=0\n",
      "note_off channel=0 note=88 velocity=64 time=0\n",
      "note_on channel=0 note=91 velocity=37 time=0\n",
      "note_off channel=0 note=59 velocity=64 time=1\n",
      "note_off channel=0 note=78 velocity=64 time=0\n",
      "note_on channel=0 note=57 velocity=63 time=1\n",
      "note_off channel=0 note=75 velocity=64 time=0\n",
      "note_on channel=0 note=81 velocity=36 time=0\n",
      "note_off channel=0 note=82 velocity=64 time=0\n",
      "note_off channel=0 note=49 velocity=64 time=1\n",
      "note_on channel=0 note=76 velocity=71 time=0\n",
      "note_off channel=0 note=89 velocity=64 time=0\n",
      "note_on channel=0 note=70 velocity=60 time=1\n",
      "note_off channel=0 note=77 velocity=64 time=0\n",
      "note_off channel=0 note=81 velocity=64 time=0\n",
      "note_off channel=0 note=57 velocity=64 time=1\n",
      "note_on channel=0 note=58 velocity=66 time=0\n",
      "note_on channel=0 note=61 velocity=34 time=0\n",
      "note_off channel=0 note=76 velocity=64 time=0\n",
      "note_on channel=0 note=77 velocity=77 time=0\n",
      "note_on channel=0 note=48 velocity=55 time=1\n",
      "note_off channel=0 note=85 velocity=64 time=0\n",
      "note_on channel=0 note=86 velocity=47 time=0\n",
      "note_off channel=0 note=61 velocity=64 time=1\n",
      "note_on channel=0 note=64 velocity=84 time=0\n",
      "note_off channel=0 note=65 velocity=64 time=0\n",
      "note_on channel=0 note=45 velocity=78 time=1\n",
      "note_off channel=0 note=48 velocity=64 time=0\n",
      "note_off channel=0 note=58 velocity=64 time=0\n",
      "note_on channel=0 note=81 velocity=40 time=0\n",
      "note_off channel=0 note=70 velocity=64 time=1\n",
      "note_off channel=0 note=84 velocity=64 time=0\n",
      "note_on channel=0 note=44 velocity=79 time=1\n",
      "note_off channel=0 note=45 velocity=64 time=0\n",
      "note_on channel=0 note=63 velocity=69 time=0\n",
      "note_off channel=0 note=64 velocity=64 time=0\n",
      "note_off channel=0 note=77 velocity=64 time=0\n",
      "note_off channel=0 note=80 velocity=64 time=0\n",
      "note_off channel=0 note=91 velocity=64 time=0\n",
      "note_on channel=0 note=71 velocity=49 time=1\n",
      "note_on channel=0 note=77 velocity=51 time=0\n",
      "note_on channel=0 note=80 velocity=42 time=0\n",
      "note_on channel=0 note=84 velocity=44 time=0\n",
      "note_off channel=0 note=86 velocity=64 time=0\n",
      "note_on channel=0 note=88 velocity=40 time=0\n",
      "note_off channel=0 note=63 velocity=64 time=1\n",
      "note_on channel=0 note=76 velocity=74 time=0\n",
      "note_off channel=0 note=81 velocity=64 time=0\n",
      "note_on channel=0 note=57 velocity=67 time=1\n",
      "note_on channel=0 note=61 velocity=60 time=0\n",
      "note_off channel=0 note=77 velocity=64 time=0\n",
      "note_off channel=0 note=80 velocity=64 time=0\n",
      "note_on channel=0 note=82 velocity=30 time=0\n",
      "note_off channel=0 note=44 velocity=64 time=1\n",
      "note_off channel=0 note=71 velocity=64 time=0\n",
      "note_on channel=0 note=80 velocity=46 time=0\n",
      "note_off channel=0 note=88 velocity=64 time=0\n",
      "note_on channel=0 note=89 velocity=39 time=0\n",
      "note_on channel=0 note=91 velocity=58 time=1\n",
      "note_off channel=0 note=89 velocity=64 time=1\n",
      "note_on channel=0 note=43 velocity=62 time=1\n",
      "note_off channel=0 note=43 velocity=64 time=2\n",
      "note_on channel=0 note=83 velocity=47 time=0\n",
      "note_on channel=0 note=78 velocity=21 time=1\n",
      "note_off channel=0 note=84 velocity=64 time=0\n",
      "note_off channel=0 note=91 velocity=64 time=0\n",
      "note_on channel=0 note=56 velocity=66 time=1\n",
      "note_off channel=0 note=57 velocity=64 time=0\n",
      "note_on channel=0 note=71 velocity=36 time=0\n",
      "note_on channel=0 note=75 velocity=61 time=0\n",
      "note_off channel=0 note=82 velocity=64 time=0\n",
      "note_on channel=0 note=84 velocity=46 time=0\n",
      "note_on channel=0 note=92 velocity=51 time=0\n",
      "note_on channel=0 note=68 velocity=69 time=1\n",
      "note_off channel=0 note=76 velocity=64 time=0\n",
      "note_on channel=0 note=91 velocity=19 time=0\n",
      "note_on channel=0 note=94 velocity=24 time=0\n",
      "note_on channel=0 note=48 velocity=67 time=1\n",
      "note_on channel=0 note=47 velocity=71 time=1\n",
      "note_off channel=0 note=48 velocity=64 time=0\n",
      "note_off channel=0 note=47 velocity=64 time=2\n",
      "note_on channel=0 note=48 velocity=67 time=0\n",
      "note_off channel=0 note=48 velocity=64 time=1\n",
      "note_on channel=0 note=49 velocity=75 time=0\n",
      "note_off channel=0 note=56 velocity=64 time=0\n",
      "note_off channel=0 note=78 velocity=64 time=0\n",
      "note_off channel=0 note=49 velocity=64 time=1\n",
      "note_on channel=0 note=53 velocity=76 time=0\n",
      "note_off channel=0 note=53 velocity=64 time=2\n",
      "note_on channel=0 note=55 velocity=66 time=1\n",
      "note_off channel=0 note=61 velocity=64 time=0\n",
      "note_on channel=0 note=70 velocity=33 time=0\n",
      "note_off channel=0 note=71 velocity=64 time=0\n",
      "note_on channel=0 note=77 velocity=37 time=0\n",
      "note_off channel=0 note=84 velocity=64 time=1\n",
      "note_on channel=0 note=93 velocity=29 time=0\n",
      "note_off channel=0 note=68 velocity=64 time=1\n",
      "note_off channel=0 note=94 velocity=64 time=0\n",
      "note_off channel=0 note=55 velocity=64 time=1\n",
      "note_off channel=0 note=80 velocity=64 time=0\n",
      "note_off channel=0 note=90 velocity=64 time=0\n",
      "note_on channel=0 note=55 velocity=69 time=1\n",
      "note_off channel=0 note=70 velocity=64 time=0\n",
      "note_on channel=0 note=90 velocity=32 time=1\n",
      "note_on channel=0 note=64 velocity=80 time=1\n",
      "note_on channel=0 note=71 velocity=27 time=0\n",
      "note_on channel=0 note=79 velocity=43 time=0\n",
      "note_on channel=0 note=81 velocity=31 time=0\n",
      "note_off channel=0 note=92 velocity=64 time=0\n",
      "note_on channel=0 note=45 velocity=76 time=1\n",
      "note_on channel=0 note=54 velocity=66 time=0\n",
      "note_off channel=0 note=55 velocity=64 time=0\n",
      "note_on channel=0 note=68 velocity=78 time=0\n",
      "note_off channel=0 note=75 velocity=64 time=0\n",
      "note_on channel=0 note=44 velocity=78 time=1\n",
      "note_off channel=0 note=45 velocity=64 time=0\n",
      "note_on channel=0 note=63 velocity=70 time=0\n",
      "note_off channel=0 note=64 velocity=64 time=0\n",
      "note_off channel=0 note=81 velocity=64 time=0\n",
      "note_off channel=0 note=54 velocity=64 time=1\n",
      "note_off channel=0 note=71 velocity=64 time=0\n",
      "note_on channel=0 note=80 velocity=82 time=0\n",
      "note_on channel=0 note=84 velocity=19 time=0\n",
      "note_on channel=0 note=88 velocity=21 time=0\n",
      "note_on channel=0 note=100 velocity=31 time=0\n",
      "note_on channel=0 note=71 velocity=38 time=1\n",
      "note_off channel=0 note=79 velocity=64 time=0\n",
      "note_on channel=0 note=86 velocity=11 time=0\n",
      "note_on channel=0 note=96 velocity=28 time=0\n",
      "note_off channel=0 note=44 velocity=64 time=1\n",
      "note_on channel=0 note=45 velocity=76 time=0\n",
      "note_off channel=0 note=63 velocity=64 time=0\n",
      "note_on channel=0 note=65 velocity=52 time=0\n",
      "note_on channel=0 note=82 velocity=39 time=0\n",
      "note_off channel=0 note=90 velocity=64 time=0\n",
      "note_on channel=0 note=102 velocity=11 time=0\n",
      "note_on channel=0 note=61 velocity=62 time=1\n",
      "note_off channel=0 note=83 velocity=64 time=0\n",
      "note_on channel=0 note=98 velocity=23 time=0\n",
      "note_on channel=0 note=44 velocity=71 time=1\n",
      "note_off channel=0 note=45 velocity=64 time=0\n",
      "note_off channel=0 note=73 velocity=64 time=0\n",
      "note_off channel=0 note=86 velocity=64 time=0\n",
      "note_on channel=0 note=86 velocity=15 time=1\n",
      "note_off channel=0 note=88 velocity=64 time=0\n",
      "note_on channel=0 note=43 velocity=63 time=1\n",
      "note_off channel=0 note=44 velocity=64 time=0\n",
      "note_off channel=0 note=77 velocity=64 time=0\n",
      "note_off channel=0 note=91 velocity=64 time=0\n",
      "note_off channel=0 note=100 velocity=64 time=1\n",
      "note_on channel=0 note=101 velocity=29 time=0\n",
      "note_off channel=0 note=102 velocity=64 time=0\n",
      "note_off channel=0 note=43 velocity=64 time=1\n",
      "note_on channel=0 note=88 velocity=38 time=0\n",
      "note_off channel=0 note=71 velocity=64 time=1\n",
      "note_on channel=0 note=71 velocity=44 time=1\n",
      "note_on channel=0 note=78 velocity=16 time=0\n",
      "note_off channel=0 note=87 velocity=64 time=0\n",
      "note_off channel=0 note=84 velocity=64 time=1\n",
      "note_on channel=0 note=90 velocity=28 time=0\n",
      "note_on channel=0 note=48 velocity=69 time=1\n",
      "note_off channel=0 note=98 velocity=64 time=0\n",
      "note_off channel=0 note=82 velocity=64 time=1\n",
      "note_on channel=0 note=47 velocity=73 time=1\n",
      "note_off channel=0 note=48 velocity=64 time=0\n",
      "note_on channel=0 note=82 velocity=45 time=0\n",
      "note_on channel=0 note=84 velocity=14 time=0\n",
      "note_off channel=0 note=47 velocity=64 time=1\n",
      "note_on channel=0 note=48 velocity=71 time=0\n",
      "note_on channel=0 note=87 velocity=36 time=1\n",
      "note_off channel=0 note=48 velocity=64 time=1\n",
      "note_on channel=0 note=52 velocity=76 time=0\n",
      "note_off channel=0 note=84 velocity=64 time=0\n",
      "note_on channel=0 note=91 velocity=14 time=0\n",
      "note_off channel=0 note=52 velocity=64 time=1\n",
      "note_on channel=0 note=55 velocity=76 time=0\n",
      "note_off channel=0 note=55 velocity=64 time=1\n",
      "note_on channel=0 note=56 velocity=68 time=0\n",
      "note_off channel=0 note=78 velocity=64 time=0\n",
      "note_on channel=0 note=98 velocity=25 time=0\n",
      "note_on channel=0 note=84 velocity=42 time=1\n",
      "note_on channel=0 note=55 velocity=69 time=1\n",
      "note_off channel=0 note=56 velocity=64 time=0\n",
      "note_off channel=0 note=101 velocity=64 time=0\n",
      "note_off channel=0 note=55 velocity=64 time=1\n",
      "note_on channel=0 note=56 velocity=61 time=0\n",
      "note_off channel=0 note=86 velocity=64 time=0\n",
      "note_on channel=0 note=101 velocity=22 time=1\n",
      "note_on channel=0 note=72 velocity=39 time=2\n",
      "note_on channel=0 note=95 velocity=33 time=0\n",
      "note_on channel=0 note=47 velocity=69 time=1\n",
      "note_off channel=0 note=61 velocity=64 time=0\n",
      "note_on channel=0 note=76 velocity=41 time=0\n",
      "note_on channel=0 note=85 velocity=37 time=0\n",
      "note_on channel=0 note=89 velocity=67 time=0\n",
      "note_off channel=0 note=90 velocity=64 time=0\n",
      "note_off channel=0 note=47 velocity=64 time=1\n",
      "note_on channel=0 note=48 velocity=88 time=0\n",
      "note_off channel=0 note=56 velocity=64 time=0\n",
      "note_on channel=0 note=64 velocity=61 time=0\n",
      "note_off channel=0 note=65 velocity=64 time=0\n",
      "note_off channel=0 note=72 velocity=64 time=0\n",
      "note_on channel=0 note=73 velocity=47 time=0\n",
      "note_on channel=0 note=74 velocity=37 time=0\n",
      "note_off channel=0 note=101 velocity=64 time=0\n",
      "note_on channel=0 note=56 velocity=57 time=1\n",
      "note_off channel=0 note=76 velocity=64 time=0\n",
      "note_off channel=0 note=82 velocity=64 time=0\n",
      "note_off channel=0 note=88 velocity=64 time=0\n",
      "note_off channel=0 note=64 velocity=64 time=1\n",
      "note_off channel=0 note=74 velocity=64 time=0\n",
      "note_on channel=0 note=75 velocity=39 time=0\n",
      "note_on channel=0 note=82 velocity=43 time=0\n",
      "note_off channel=0 note=95 velocity=64 time=0\n",
      "note_off channel=0 note=48 velocity=64 time=1\n",
      "note_on channel=0 note=95 velocity=11 time=0\n",
      "note_on channel=0 note=45 velocity=66 time=1\n",
      "note_on channel=0 note=65 velocity=44 time=0\n",
      "note_off channel=0 note=45 velocity=64 time=1\n",
      "note_on channel=0 note=48 velocity=66 time=0\n",
      "note_on channel=0 note=88 velocity=42 time=0\n",
      "note_off channel=0 note=93 velocity=64 time=0\n",
      "note_off channel=0 note=48 velocity=64 time=1\n",
      "note_off channel=0 note=96 velocity=64 time=0\n",
      "note_on channel=0 note=45 velocity=59 time=1\n",
      "note_on channel=0 note=90 velocity=40 time=0\n",
      "note_off channel=0 note=91 velocity=64 time=0\n",
      "note_on channel=0 note=93 velocity=31 time=0\n",
      "note_off channel=0 note=95 velocity=64 time=0\n",
      "note_off channel=0 note=89 velocity=64 time=2\n",
      "note_on channel=0 note=44 velocity=51 time=1\n",
      "note_off channel=0 note=45 velocity=64 time=0\n",
      "note_on channel=0 note=61 velocity=17 time=2\n",
      "note_off channel=0 note=85 velocity=64 time=0\n",
      "note_on channel=0 note=91 velocity=35 time=1\n",
      "note_on channel=0 note=97 velocity=11 time=0\n",
      "note_off channel=0 note=98 velocity=64 time=0\n",
      "note_on channel=0 note=55 velocity=71 time=1\n",
      "note_off channel=0 note=56 velocity=64 time=0\n",
      "note_on channel=0 note=43 velocity=35 time=1\n",
      "note_off channel=0 note=44 velocity=64 time=0\n",
      "note_on channel=0 note=95 velocity=45 time=0\n",
      "note_off channel=0 note=65 velocity=64 time=1\n",
      "note_off channel=0 note=68 velocity=64 time=0\n",
      "note_off channel=0 note=84 velocity=64 time=0\n",
      "note_off channel=0 note=97 velocity=64 time=0\n",
      "note_on channel=0 note=42 velocity=32 time=2\n",
      "note_off channel=0 note=43 velocity=64 time=0\n",
      "note_on channel=0 note=66 velocity=62 time=0\n",
      "note_off channel=0 note=82 velocity=64 time=0\n",
      "note_off channel=0 note=75 velocity=64 time=1\n",
      "note_off channel=0 note=42 velocity=64 time=1\n",
      "note_on channel=0 note=54 velocity=64 time=0\n",
      "note_off channel=0 note=55 velocity=64 time=0\n",
      "note_off channel=0 note=66 velocity=64 time=0\n",
      "note_on channel=0 note=79 velocity=12 time=0\n",
      "note_off channel=0 note=87 velocity=64 time=0\n",
      "note_on channel=0 note=42 velocity=21 time=1\n",
      "note_on channel=0 note=66 velocity=66 time=0\n",
      "note_on channel=0 note=101 velocity=16 time=1\n",
      "note_off channel=0 note=79 velocity=64 time=1\n",
      "note_off channel=0 note=88 velocity=64 time=0\n",
      "note_on channel=0 note=89 velocity=71 time=0\n",
      "note_on channel=0 note=65 velocity=56 time=1\n",
      "note_off channel=0 note=66 velocity=64 time=0\n",
      "note_off channel=0 note=71 velocity=64 time=0\n",
      "note_off channel=0 note=91 velocity=64 time=0\n",
      "note_on channel=0 note=100 velocity=9 time=0\n",
      "note_off channel=0 note=42 velocity=64 time=1\n",
      "note_off channel=0 note=54 velocity=64 time=0\n",
      "note_on channel=0 note=72 velocity=39 time=0\n",
      "note_on channel=0 note=91 velocity=35 time=0\n",
      "note_off channel=0 note=101 velocity=64 time=0\n",
      "note_on channel=0 note=52 velocity=66 time=1\n",
      "note_off channel=0 note=61 velocity=64 time=0\n",
      "note_on channel=0 note=82 velocity=42 time=0\n",
      "note_on channel=0 note=70 velocity=49 time=1\n",
      "note_off channel=0 note=72 velocity=64 time=0\n",
      "note_on channel=0 note=75 velocity=49 time=0\n",
      "note_off channel=0 note=100 velocity=64 time=0\n",
      "note_on channel=0 note=51 velocity=65 time=1\n",
      "note_off channel=0 note=52 velocity=64 time=0\n",
      "note_on channel=0 note=84 velocity=43 time=0\n",
      "note_on channel=0 note=88 velocity=38 time=0\n",
      "note_on channel=0 note=97 velocity=21 time=0\n",
      "note_on channel=0 note=48 velocity=71 time=1\n",
      "note_off channel=0 note=51 velocity=64 time=0\n",
      "note_on channel=0 note=61 velocity=51 time=0\n",
      "note_off channel=0 note=65 velocity=64 time=0\n",
      "note_off channel=0 note=73 velocity=64 time=0\n",
      "note_on channel=0 note=85 velocity=30 time=0\n",
      "note_off channel=0 note=90 velocity=64 time=0\n",
      "note_on channel=0 note=45 velocity=76 time=1\n",
      "note_off channel=0 note=48 velocity=64 time=0\n",
      "note_on channel=0 note=69 velocity=41 time=0\n",
      "note_off channel=0 note=88 velocity=64 time=0\n",
      "note_on channel=0 note=90 velocity=37 time=0\n",
      "note_on channel=0 note=44 velocity=77 time=1\n",
      "note_off channel=0 note=45 velocity=64 time=0\n",
      "note_off channel=0 note=61 velocity=64 time=0\n",
      "note_on channel=0 note=66 velocity=47 time=0\n",
      "note_off channel=0 note=70 velocity=64 time=0\n",
      "note_on channel=0 note=73 velocity=31 time=0\n",
      "note_on channel=0 note=88 velocity=38 time=0\n",
      "note_off channel=0 note=95 velocity=64 time=0\n",
      "note_off channel=0 note=91 velocity=64 time=1\n",
      "note_on channel=0 note=95 velocity=16 time=0\n",
      "note_on channel=0 note=64 velocity=57 time=1\n",
      "note_off channel=0 note=66 velocity=64 time=0\n",
      "note_off channel=0 note=69 velocity=64 time=0\n",
      "note_on channel=0 note=77 velocity=33 time=0\n",
      "note_off channel=0 note=88 velocity=64 time=0\n",
      "note_on channel=0 note=43 velocity=73 time=1\n",
      "note_off channel=0 note=44 velocity=64 time=0\n",
      "note_on channel=0 note=70 velocity=44 time=0\n",
      "note_off channel=0 note=75 velocity=64 time=0\n",
      "note_on channel=0 note=88 velocity=34 time=0\n",
      "note_off channel=0 note=97 velocity=64 time=0\n",
      "note_on channel=0 note=75 velocity=16 time=1\n",
      "note_off channel=0 note=89 velocity=64 time=0\n",
      "note_on channel=0 note=63 velocity=50 time=1\n",
      "note_off channel=0 note=64 velocity=64 time=0\n",
      "note_off channel=0 note=84 velocity=64 time=0\n",
      "note_off channel=0 note=88 velocity=64 time=0\n",
      "note_on channel=0 note=89 velocity=37 time=0\n",
      "note_on channel=0 note=91 velocity=35 time=0\n",
      "note_on channel=0 note=65 velocity=56 time=1\n",
      "note_on channel=0 note=83 velocity=51 time=0\n",
      "note_off channel=0 note=85 velocity=64 time=0\n",
      "note_on channel=0 note=88 velocity=36 time=0\n",
      "note_off channel=0 note=63 velocity=64 time=1\n",
      "note_off channel=0 note=82 velocity=64 time=0\n",
      "note_off channel=0 note=89 velocity=64 time=0\n",
      "note_on channel=0 note=51 velocity=52 time=1\n",
      "note_off channel=0 note=91 velocity=64 time=1\n",
      "note_off channel=0 note=43 velocity=64 time=1\n",
      "note_on channel=0 note=68 velocity=21 time=0\n",
      "note_on channel=0 note=91 velocity=35 time=0\n",
      "note_off channel=0 note=73 velocity=64 time=1\n",
      "note_off channel=0 note=51 velocity=64 time=1\n",
      "note_on channel=0 note=50 velocity=45 time=2\n",
      "note_off channel=0 note=68 velocity=64 time=0\n",
      "note_on channel=0 note=61 velocity=27 time=1\n",
      "note_on channel=0 note=68 velocity=14 time=0\n",
      "note_off channel=0 note=70 velocity=64 time=1\n",
      "note_on channel=0 note=73 velocity=37 time=0\n",
      "note_off channel=0 note=95 velocity=64 time=0\n",
      "note_off channel=0 note=50 velocity=64 time=2\n",
      "note_off channel=0 note=68 velocity=64 time=1\n",
      "note_on channel=0 note=51 velocity=21 time=1\n",
      "note_on channel=0 note=71 velocity=29 time=0\n",
      "note_off channel=0 note=88 velocity=64 time=0\n",
      "note_on channel=0 note=89 velocity=52 time=0\n",
      "note_off channel=0 note=51 velocity=64 time=3\n",
      "note_off channel=0 note=75 velocity=64 time=0\n",
      "note_off channel=0 note=91 velocity=64 time=0\n",
      "note_on channel=0 note=91 velocity=29 time=1\n",
      "note_off channel=0 note=61 velocity=64 time=2\n",
      "note_on channel=0 note=64 velocity=82 time=1\n",
      "note_off channel=0 note=65 velocity=64 time=0\n",
      "note_on channel=0 note=45 velocity=76 time=1\n",
      "note_on channel=0 note=53 velocity=41 time=0\n",
      "note_off channel=0 note=93 velocity=64 time=0\n",
      "note_on channel=0 note=44 velocity=79 time=1\n",
      "note_off channel=0 note=45 velocity=64 time=0\n",
      "note_on channel=0 note=63 velocity=73 time=0\n",
      "note_off channel=0 note=64 velocity=64 time=0\n",
      "note_off channel=0 note=53 velocity=64 time=1\n",
      "note_off channel=0 note=91 velocity=64 time=0\n",
      "note_on channel=0 note=68 velocity=29 time=1\n",
      "note_off channel=0 note=71 velocity=64 time=0\n",
      "note_off channel=0 note=63 velocity=64 time=1\n",
      "note_on channel=0 note=75 velocity=25 time=0\n",
      "note_off channel=0 note=44 velocity=64 time=1\n",
      "note_on channel=0 note=41 velocity=58 time=1\n",
      "note_off channel=0 note=68 velocity=64 time=0\n",
      "note_on channel=0 note=71 velocity=19 time=0\n",
      "note_off channel=0 note=77 velocity=64 time=0\n",
      "note_on channel=0 note=61 velocity=60 time=1\n",
      "note_off channel=0 note=41 velocity=64 time=1\n",
      "note_on channel=0 note=43 velocity=62 time=0\n",
      "note_off channel=0 note=83 velocity=64 time=0\n",
      "note_on channel=0 note=77 velocity=40 time=1\n",
      "note_on channel=0 note=83 velocity=53 time=0\n",
      "note_on channel=0 note=93 velocity=13 time=0\n",
      "note_on channel=0 note=42 velocity=56 time=1\n",
      "note_off channel=0 note=43 velocity=64 time=0\n",
      "note_off channel=0 note=42 velocity=64 time=3\n",
      "note_on channel=0 note=65 velocity=23 time=0\n",
      "note_off channel=0 note=71 velocity=64 time=0\n",
      "note_off channel=0 note=73 velocity=64 time=0\n",
      "note_on channel=0 note=47 velocity=65 time=1\n",
      "note_on channel=0 note=68 velocity=21 time=0\n",
      "note_on channel=0 note=71 velocity=35 time=0\n",
      "note_off channel=0 note=47 velocity=64 time=1\n",
      "note_on channel=0 note=48 velocity=72 time=0\n",
      "note_off channel=0 note=65 velocity=64 time=1\n",
      "note_on channel=0 note=62 velocity=38 time=1\n",
      "note_off channel=0 note=61 velocity=64 time=1\n",
      "note_off channel=0 note=48 velocity=64 time=1\n",
      "note_on channel=0 note=50 velocity=77 time=0\n",
      "note_on channel=0 note=65 velocity=39 time=0\n",
      "note_off channel=0 note=90 velocity=64 time=0\n",
      "note_off channel=0 note=93 velocity=64 time=0\n",
      "note_off channel=0 note=50 velocity=64 time=1\n",
      "note_on channel=0 note=53 velocity=70 time=0\n",
      "note_on channel=0 note=61 velocity=35 time=0\n",
      "note_off channel=0 note=62 velocity=64 time=0\n",
      "note_off channel=0 note=68 velocity=64 time=1\n",
      "note_off channel=0 note=89 velocity=64 time=0\n",
      "note_on channel=0 note=88 velocity=24 time=1\n",
      "note_off channel=0 note=53 velocity=64 time=1\n",
      "note_off channel=0 note=61 velocity=64 time=0\n",
      "note_on channel=0 note=53 velocity=57 time=1\n",
      "note_on channel=0 note=91 velocity=13 time=0\n",
      "note_on channel=0 note=68 velocity=30 time=2\n",
      "note_off channel=0 note=53 velocity=64 time=1\n",
      "note_off channel=0 note=91 velocity=64 time=0\n",
      "note_on channel=0 note=64 velocity=83 time=1\n",
      "note_off channel=0 note=65 velocity=64 time=0\n",
      "note_off channel=0 note=68 velocity=64 time=0\n",
      "note_on channel=0 note=74 velocity=26 time=0\n",
      "note_off channel=0 note=75 velocity=64 time=0\n",
      "note_on channel=0 note=79 velocity=39 time=0\n",
      "note_on channel=0 note=89 velocity=69 time=0\n",
      "note_on channel=0 note=45 velocity=78 time=1\n",
      "note_off channel=0 note=80 velocity=64 time=0\n",
      "note_on channel=0 note=90 velocity=40 time=0\n",
      "note_on channel=0 note=63 velocity=77 time=1\n",
      "note_off channel=0 note=64 velocity=64 time=0\n",
      "note_on channel=0 note=80 velocity=88 time=0\n",
      "note_off channel=0 note=88 velocity=64 time=0\n",
      "note_on channel=0 note=44 velocity=79 time=1\n",
      "note_off channel=0 note=45 velocity=64 time=0\n",
      "note_on channel=0 note=55 velocity=45 time=0\n",
      "note_on channel=0 note=69 velocity=30 time=0\n",
      "note_off channel=0 note=79 velocity=64 time=0\n",
      "note_on channel=0 note=93 velocity=12 time=0\n",
      "note_on channel=0 note=73 velocity=42 time=1\n",
      "note_off channel=0 note=74 velocity=64 time=0\n",
      "note_off channel=0 note=90 velocity=64 time=0\n",
      "note_on channel=0 note=91 velocity=48 time=0\n",
      "note_off channel=0 note=55 velocity=64 time=1\n",
      "note_on channel=0 note=62 velocity=36 time=0\n",
      "note_off channel=0 note=63 velocity=64 time=0\n",
      "note_off channel=0 note=69 velocity=64 time=0\n",
      "note_on channel=0 note=61 velocity=40 time=2\n",
      "note_off channel=0 note=62 velocity=64 time=0\n",
      "note_on channel=0 note=68 velocity=26 time=0\n",
      "note_off channel=0 note=71 velocity=64 time=0\n",
      "note_on channel=0 note=75 velocity=33 time=0\n",
      "note_off channel=0 note=44 velocity=64 time=1\n",
      "note_on channel=0 note=65 velocity=49 time=0\n",
      "note_off channel=0 note=61 velocity=64 time=1\n",
      "note_on channel=0 note=71 velocity=20 time=0\n",
      "note_off channel=0 note=93 velocity=64 time=0\n",
      "note_on channel=0 note=43 velocity=61 time=1\n",
      "note_on channel=0 note=61 velocity=65 time=0\n",
      "note_on channel=0 note=90 velocity=25 time=0\n",
      "note_off channel=0 note=71 velocity=64 time=2\n",
      "note_off channel=0 note=90 velocity=64 time=1\n",
      "note_off channel=0 note=43 velocity=64 time=1\n",
      "note_on channel=0 note=44 velocity=60 time=0\n",
      "note_off channel=0 note=44 velocity=64 time=2\n",
      "note_on channel=0 note=49 velocity=66 time=0\n",
      "note_on channel=0 note=90 velocity=30 time=0\n",
      "note_on channel=0 note=46 velocity=72 time=1\n",
      "note_off channel=0 note=49 velocity=64 time=0\n",
      "note_off channel=0 note=65 velocity=64 time=0\n",
      "note_off channel=0 note=68 velocity=64 time=0\n",
      "note_on channel=0 note=69 velocity=47 time=0\n",
      "note_on channel=0 note=74 velocity=54 time=0\n",
      "note_on channel=0 note=93 velocity=32 time=0\n",
      "note_on channel=0 note=94 velocity=55 time=0\n",
      "note_off channel=0 note=46 velocity=64 time=1\n",
      "note_on channel=0 note=47 velocity=74 time=0\n",
      "note_off channel=0 note=73 velocity=64 time=0\n",
      "note_off channel=0 note=75 velocity=64 time=0\n",
      "note_on channel=0 note=84 velocity=26 time=0\n",
      "note_on channel=0 note=102 velocity=37 time=0\n",
      "note_off channel=0 note=47 velocity=64 time=1\n",
      "note_on channel=0 note=48 velocity=76 time=0\n",
      "note_off channel=0 note=61 velocity=64 time=0\n",
      "note_on channel=0 note=68 velocity=59 time=0\n",
      "note_off channel=0 note=69 velocity=64 time=0\n",
      "note_on channel=0 note=73 velocity=63 time=0\n",
      "note_off channel=0 note=74 velocity=64 time=0\n",
      "note_on channel=0 note=75 velocity=44 time=0\n",
      "note_off channel=0 note=91 velocity=64 time=0\n",
      "note_on channel=0 note=96 velocity=63 time=0\n",
      "note_off channel=0 note=48 velocity=64 time=1\n",
      "note_on channel=0 note=50 velocity=81 time=0\n",
      "note_on channel=0 note=61 velocity=70 time=0\n",
      "note_on channel=0 note=95 velocity=62 time=0\n",
      "note_on channel=0 note=49 velocity=74 time=1\n",
      "note_off channel=0 note=50 velocity=64 time=0\n",
      "note_off channel=0 note=68 velocity=64 time=0\n",
      "note_off channel=0 note=84 velocity=64 time=0\n",
      "note_off channel=0 note=90 velocity=64 time=0\n",
      "note_on channel=0 note=91 velocity=35 time=0\n",
      "note_on channel=0 note=48 velocity=74 time=1\n",
      "note_off channel=0 note=49 velocity=64 time=0\n",
      "note_on channel=0 note=65 velocity=44 time=0\n",
      "note_on channel=0 note=69 velocity=74 time=0\n",
      "note_on channel=0 note=97 velocity=58 time=0\n",
      "note_off channel=0 note=48 velocity=64 time=1\n",
      "note_on channel=0 note=50 velocity=78 time=0\n",
      "note_on channel=0 note=98 velocity=39 time=0\n",
      "note_off channel=0 note=65 velocity=64 time=1\n",
      "note_off channel=0 note=77 velocity=64 time=0\n",
      "note_on channel=0 note=79 velocity=11 time=0\n",
      "note_on channel=0 note=49 velocity=60 time=1\n",
      "note_off channel=0 note=50 velocity=64 time=0\n",
      "note_on channel=0 note=52 velocity=69 time=0\n",
      "note_on channel=0 note=65 velocity=70 time=0\n",
      "note_on channel=0 note=72 velocity=60 time=0\n",
      "note_off channel=0 note=73 velocity=64 time=0\n",
      "note_on channel=0 note=100 velocity=31 time=0\n",
      "note_off channel=0 note=52 velocity=64 time=1\n",
      "note_on channel=0 note=54 velocity=69 time=0\n",
      "note_off channel=0 note=61 velocity=64 time=0\n",
      "note_off channel=0 note=65 velocity=64 time=0\n",
      "note_on channel=0 note=66 velocity=74 time=0\n",
      "note_off channel=0 note=69 velocity=64 time=0\n",
      "note_off channel=0 note=49 velocity=64 time=1\n",
      "note_on channel=0 note=51 velocity=61 time=0\n",
      "note_off channel=0 note=54 velocity=64 time=0\n",
      "note_on channel=0 note=56 velocity=67 time=0\n",
      "note_off channel=0 note=66 velocity=64 time=0\n",
      "note_on channel=0 note=67 velocity=76 time=0\n",
      "note_off channel=0 note=79 velocity=64 time=0\n",
      "note_off channel=0 note=56 velocity=64 time=1\n",
      "note_on channel=0 note=57 velocity=67 time=0\n",
      "note_off channel=0 note=67 velocity=64 time=0\n",
      "note_on channel=0 note=69 velocity=71 time=0\n",
      "note_off channel=0 note=72 velocity=64 time=0\n",
      "note_on channel=0 note=73 velocity=37 time=0\n",
      "note_on channel=0 note=77 velocity=36 time=0\n",
      "note_off channel=0 note=51 velocity=64 time=1\n",
      "note_on channel=0 note=72 velocity=41 time=0\n",
      "note_off channel=0 note=75 velocity=64 time=0\n",
      "note_on channel=0 note=48 velocity=88 time=1\n",
      "note_off channel=0 note=57 velocity=64 time=0\n",
      "note_on channel=0 note=58 velocity=65 time=0\n",
      "note_off channel=0 note=69 velocity=64 time=0\n",
      "note_off channel=0 note=73 velocity=64 time=0\n",
      "note_on channel=0 note=74 velocity=38 time=0\n",
      "note_on channel=0 note=76 velocity=44 time=0\n",
      "note_off channel=0 note=77 velocity=64 time=0\n",
      "note_on channel=0 note=85 velocity=28 time=0\n",
      "note_on channel=0 note=90 velocity=32 time=0\n",
      "note_off channel=0 note=95 velocity=64 time=0\n",
      "note_on channel=0 note=67 velocity=42 time=1\n",
      "note_off channel=0 note=72 velocity=64 time=0\n",
      "note_on channel=0 note=77 velocity=27 time=0\n",
      "note_on channel=0 note=63 velocity=49 time=1\n",
      "note_on channel=0 note=73 velocity=46 time=0\n",
      "note_off channel=0 note=74 velocity=64 time=0\n",
      "note_off channel=0 note=76 velocity=64 time=0\n",
      "note_off channel=0 note=90 velocity=64 time=0\n",
      "note_off channel=0 note=96 velocity=64 time=0\n",
      "note_off channel=0 note=98 velocity=64 time=0\n",
      "note_off channel=0 note=100 velocity=64 time=0\n",
      "note_on channel=0 note=46 velocity=66 time=1\n",
      "note_off channel=0 note=48 velocity=64 time=0\n",
      "note_off channel=0 note=67 velocity=64 time=0\n",
      "note_on channel=0 note=69 velocity=76 time=0\n",
      "note_off channel=0 note=94 velocity=64 time=0\n",
      "note_on channel=0 note=57 velocity=65 time=1\n",
      "note_off channel=0 note=58 velocity=64 time=0\n",
      "note_off channel=0 note=63 velocity=64 time=0\n",
      "note_on channel=0 note=75 velocity=22 time=0\n",
      "note_on channel=0 note=98 velocity=26 time=0\n",
      "note_off channel=0 note=102 velocity=64 time=0\n",
      "note_off channel=0 note=46 velocity=64 time=1\n",
      "note_on channel=0 note=48 velocity=68 time=0\n",
      "note_on channel=0 note=56 velocity=61 time=0\n",
      "note_off channel=0 note=57 velocity=64 time=0\n",
      "note_on channel=0 note=68 velocity=83 time=0\n",
      "note_off channel=0 note=69 velocity=64 time=0\n",
      "note_on channel=0 note=96 velocity=20 time=0\n",
      "note_off channel=0 note=48 velocity=64 time=1\n",
      "note_on channel=0 note=102 velocity=16 time=0\n",
      "note_off channel=0 note=56 velocity=64 time=1\n",
      "note_on channel=0 note=67 velocity=84 time=0\n",
      "note_off channel=0 note=68 velocity=64 time=0\n",
      "note_off channel=0 note=75 velocity=64 time=0\n",
      "note_off channel=0 note=97 velocity=64 time=0\n",
      "note_on channel=0 note=55 velocity=61 time=2\n",
      "note_on channel=0 note=61 velocity=9 time=0\n",
      "note_off channel=0 note=102 velocity=64 time=0\n",
      "note_on channel=0 note=44 velocity=51 time=1\n",
      "note_on channel=0 note=66 velocity=63 time=0\n",
      "note_off channel=0 note=67 velocity=64 time=0\n",
      "note_off channel=0 note=85 velocity=64 time=0\n",
      "note_off channel=0 note=96 velocity=64 time=1\n",
      "note_off channel=0 note=98 velocity=64 time=0\n",
      "note_off channel=0 note=55 velocity=64 time=1\n",
      "note_off channel=0 note=61 velocity=64 time=0\n",
      "note_on channel=0 note=71 velocity=24 time=0\n",
      "note_off channel=0 note=66 velocity=64 time=1\n",
      "note_on channel=0 note=67 velocity=47 time=0\n",
      "note_off channel=0 note=93 velocity=64 time=0\n",
      "note_on channel=0 note=53 velocity=39 time=1\n",
      "note_off channel=0 note=83 velocity=64 time=0\n",
      "note_on channel=0 note=94 velocity=50 time=0\n",
      "note_on channel=0 note=43 velocity=36 time=1\n",
      "note_off channel=0 note=44 velocity=64 time=0\n",
      "note_on channel=0 note=61 velocity=33 time=0\n",
      "note_off channel=0 note=67 velocity=64 time=0\n",
      "note_on channel=0 note=96 velocity=26 time=0\n",
      "note_off channel=0 note=53 velocity=64 time=1\n",
      "note_on channel=0 note=93 velocity=29 time=0\n",
      "note_on channel=0 note=55 velocity=57 time=1\n",
      "note_on channel=0 note=67 velocity=63 time=0\n",
      "note_off channel=0 note=71 velocity=64 time=0\n",
      "note_off channel=0 note=73 velocity=64 time=0\n",
      "note_on channel=0 note=74 velocity=61 time=0\n",
      "note_on channel=0 note=71 velocity=29 time=1\n",
      "note_on channel=0 note=82 velocity=44 time=0\n",
      "note_on channel=0 note=90 velocity=51 time=0\n",
      "note_off channel=0 note=55 velocity=64 time=1\n",
      "note_on channel=0 note=78 velocity=41 time=0\n",
      "note_on channel=0 note=88 velocity=30 time=0\n",
      "note_off channel=0 note=93 velocity=64 time=0\n",
      "note_on channel=0 note=66 velocity=63 time=1\n",
      "note_off channel=0 note=67 velocity=64 time=0\n",
      "note_on channel=0 note=73 velocity=72 time=0\n",
      "note_off channel=0 note=74 velocity=64 time=0\n",
      "note_on channel=0 note=54 velocity=63 time=1\n",
      "note_on channel=0 note=83 velocity=39 time=0\n",
      "note_on channel=0 note=42 velocity=21 time=3\n",
      "note_off channel=0 note=43 velocity=64 time=0\n",
      "note_off channel=0 note=77 velocity=64 time=0\n",
      "note_off channel=0 note=91 velocity=64 time=0\n",
      "note_on channel=0 note=95 velocity=41 time=0\n",
      "note_off channel=0 note=96 velocity=64 time=0\n",
      "note_on channel=0 note=77 velocity=31 time=1\n",
      "note_on channel=0 note=53 velocity=64 time=1\n",
      "note_off channel=0 note=54 velocity=64 time=0\n",
      "note_off channel=0 note=66 velocity=64 time=0\n",
      "note_off channel=0 note=71 velocity=64 time=0\n",
      "note_off channel=0 note=78 velocity=64 time=0\n",
      "note_on channel=0 note=81 velocity=29 time=0\n",
      "note_off channel=0 note=82 velocity=64 time=0\n",
      "note_on channel=0 note=93 velocity=45 time=0\n",
      "note_off channel=0 note=94 velocity=64 time=0\n",
      "note_on channel=0 note=72 velocity=58 time=1\n",
      "note_off channel=0 note=73 velocity=64 time=0\n",
      "note_on channel=0 note=91 velocity=59 time=0\n",
      "note_off channel=0 note=42 velocity=64 time=1\n",
      "note_on channel=0 note=52 velocity=67 time=0\n",
      "note_off channel=0 note=53 velocity=64 time=0\n",
      "note_off channel=0 note=61 velocity=64 time=0\n",
      "note_on channel=0 note=63 velocity=43 time=0\n",
      "note_off channel=0 note=81 velocity=64 time=0\n",
      "note_on channel=0 note=51 velocity=72 time=1\n",
      "note_off channel=0 note=52 velocity=64 time=0\n",
      "note_on channel=0 note=66 velocity=48 time=0\n",
      "note_on channel=0 note=69 velocity=39 time=0\n",
      "note_off channel=0 note=72 velocity=64 time=0\n",
      "note_on channel=0 note=84 velocity=41 time=0\n",
      "note_off channel=0 note=88 velocity=64 time=0\n",
      "note_off channel=0 note=90 velocity=64 time=0\n",
      "note_on channel=0 note=102 velocity=22 time=0\n",
      "note_on channel=0 note=45 velocity=74 time=1\n",
      "note_off channel=0 note=51 velocity=64 time=0\n",
      "note_off channel=0 note=63 velocity=64 time=0\n",
      "note_on channel=0 note=71 velocity=44 time=0\n",
      "note_on channel=0 note=75 velocity=53 time=0\n",
      "note_off channel=0 note=77 velocity=64 time=0\n",
      "note_on channel=0 note=85 velocity=46 time=0\n",
      "note_on channel=0 note=90 velocity=34 time=0\n",
      "note_on channel=0 note=44 velocity=77 time=1\n",
      "note_off channel=0 note=45 velocity=64 time=0\n",
      "note_on channel=0 note=57 velocity=33 time=0\n",
      "note_on channel=0 note=64 velocity=44 time=0\n"
     ]
    },
    {
     "name": "stdout",
     "output_type": "stream",
     "text": [
      "note_off channel=0 note=66 velocity=64 time=0\n",
      "note_on channel=0 note=67 velocity=42 time=0\n",
      "note_off channel=0 note=69 velocity=64 time=0\n",
      "note_on channel=0 note=77 velocity=32 time=0\n",
      "note_on channel=0 note=94 velocity=35 time=0\n",
      "note_off channel=0 note=90 velocity=64 time=1\n",
      "note_off channel=0 note=93 velocity=64 time=0\n",
      "note_off channel=0 note=102 velocity=64 time=0\n",
      "note_on channel=0 note=63 velocity=59 time=1\n",
      "note_off channel=0 note=64 velocity=64 time=0\n",
      "note_on channel=0 note=70 velocity=54 time=0\n",
      "note_off channel=0 note=71 velocity=64 time=0\n",
      "note_on channel=0 note=73 velocity=20 time=0\n",
      "note_off channel=0 note=84 velocity=64 time=0\n",
      "note_on channel=0 note=102 velocity=38 time=0\n",
      "note_on channel=0 note=51 velocity=64 time=1\n",
      "note_off channel=0 note=57 velocity=64 time=0\n",
      "note_on channel=0 note=43 velocity=72 time=1\n",
      "note_off channel=0 note=44 velocity=64 time=0\n",
      "note_off channel=0 note=67 velocity=64 time=0\n",
      "note_on channel=0 note=68 velocity=30 time=0\n",
      "note_off channel=0 note=83 velocity=64 time=0\n",
      "note_on channel=0 note=93 velocity=36 time=0\n",
      "note_off channel=0 note=95 velocity=64 time=0\n",
      "note_on channel=0 note=96 velocity=30 time=0\n",
      "note_off channel=0 note=51 velocity=64 time=1\n",
      "note_on channel=0 note=52 velocity=64 time=0\n",
      "note_off channel=0 note=70 velocity=64 time=0\n",
      "note_on channel=0 note=71 velocity=60 time=0\n",
      "note_off channel=0 note=94 velocity=64 time=0\n",
      "note_off channel=0 note=63 velocity=64 time=1\n",
      "note_off channel=0 note=68 velocity=64 time=0\n",
      "note_off channel=0 note=75 velocity=64 time=0\n",
      "note_on channel=0 note=76 velocity=57 time=0\n",
      "note_off channel=0 note=77 velocity=64 time=0\n",
      "note_on channel=0 note=88 velocity=61 time=0\n",
      "note_on channel=0 note=90 velocity=60 time=0\n",
      "note_on channel=0 note=68 velocity=19 time=1\n",
      "note_off channel=0 note=85 velocity=64 time=0\n",
      "note_on channel=0 note=86 velocity=53 time=0\n",
      "note_on channel=0 note=61 velocity=30 time=1\n",
      "note_off channel=0 note=91 velocity=64 time=0\n",
      "note_off channel=0 note=89 velocity=64 time=1\n",
      "note_off channel=0 note=43 velocity=64 time=1\n",
      "note_off channel=0 note=61 velocity=64 time=0\n",
      "note_on channel=0 note=91 velocity=42 time=0\n",
      "note_on channel=0 note=97 velocity=21 time=0\n",
      "note_on channel=0 note=70 velocity=52 time=1\n",
      "note_off channel=0 note=71 velocity=64 time=0\n",
      "note_on channel=0 note=75 velocity=57 time=0\n",
      "note_off channel=0 note=76 velocity=64 time=0\n",
      "note_on channel=0 note=77 velocity=24 time=0\n",
      "note_on channel=0 note=85 velocity=50 time=0\n",
      "note_on channel=0 note=89 velocity=54 time=0\n",
      "note_off channel=0 note=90 velocity=64 time=0\n",
      "note_on channel=0 note=94 velocity=32 time=0\n",
      "note_on channel=0 note=51 velocity=59 time=1\n",
      "note_off channel=0 note=52 velocity=64 time=0\n",
      "note_on channel=0 note=90 velocity=36 time=0\n",
      "note_off channel=0 note=68 velocity=64 time=1\n",
      "note_off channel=0 note=73 velocity=64 time=0\n",
      "note_off channel=0 note=86 velocity=64 time=0\n",
      "note_off channel=0 note=51 velocity=64 time=1\n",
      "note_on channel=0 note=86 velocity=32 time=0\n",
      "note_off channel=0 note=93 velocity=64 time=0\n",
      "note_off channel=0 note=96 velocity=64 time=0\n",
      "note_off channel=0 note=77 velocity=64 time=1\n",
      "note_on channel=0 note=78 velocity=39 time=0\n",
      "note_on channel=0 note=84 velocity=60 time=0\n",
      "note_off channel=0 note=85 velocity=64 time=0\n",
      "note_off channel=0 note=90 velocity=64 time=0\n",
      "note_off channel=0 note=97 velocity=64 time=0\n",
      "note_on channel=0 note=51 velocity=63 time=1\n",
      "note_on channel=0 note=62 velocity=47 time=0\n",
      "note_off channel=0 note=70 velocity=64 time=0\n",
      "note_on channel=0 note=81 velocity=36 time=0\n",
      "note_on channel=0 note=90 velocity=50 time=0\n",
      "note_off channel=0 note=94 velocity=64 time=0\n",
      "note_on channel=0 note=74 velocity=54 time=1\n",
      "note_off channel=0 note=86 velocity=64 time=0\n",
      "note_off channel=0 note=89 velocity=64 time=0\n",
      "note_on channel=0 note=101 velocity=20 time=0\n",
      "note_on channel=0 note=69 velocity=57 time=1\n",
      "note_off channel=0 note=75 velocity=64 time=0\n",
      "note_on channel=0 note=77 velocity=19 time=0\n",
      "note_on channel=0 note=89 velocity=29 time=0\n",
      "note_off channel=0 note=91 velocity=64 time=0\n",
      "note_on channel=0 note=97 velocity=12 time=0\n",
      "note_on channel=0 note=50 velocity=65 time=1\n",
      "note_off channel=0 note=51 velocity=64 time=0\n",
      "note_on channel=0 note=94 velocity=25 time=0\n",
      "note_on channel=0 note=103 velocity=13 time=0\n",
      "note_off channel=0 note=81 velocity=64 time=1\n",
      "note_off channel=0 note=101 velocity=64 time=0\n",
      "note_off channel=0 note=89 velocity=64 time=1\n",
      "note_on channel=0 note=91 velocity=37 time=0\n",
      "note_off channel=0 note=77 velocity=64 time=1\n",
      "note_off channel=0 note=97 velocity=64 time=1\n",
      "note_on channel=0 note=83 velocity=59 time=1\n",
      "note_on channel=0 note=71 velocity=50 time=2\n",
      "note_off channel=0 note=62 velocity=64 time=1\n",
      "note_on channel=0 note=63 velocity=95 time=0\n",
      "note_off channel=0 note=69 velocity=64 time=0\n",
      "note_on channel=0 note=57 velocity=54 time=1\n",
      "note_on channel=0 note=69 velocity=59 time=0\n",
      "note_off channel=0 note=71 velocity=64 time=0\n",
      "note_on channel=0 note=82 velocity=65 time=0\n",
      "note_off channel=0 note=83 velocity=64 time=0\n",
      "note_on channel=0 note=85 velocity=14 time=0\n",
      "note_on channel=0 note=87 velocity=31 time=0\n",
      "note_on channel=0 note=89 velocity=38 time=0\n",
      "note_off channel=0 note=103 velocity=64 time=0\n",
      "note_on channel=0 note=83 velocity=51 time=1\n",
      "note_off channel=0 note=102 velocity=64 time=0\n",
      "note_off channel=0 note=82 velocity=64 time=1\n",
      "note_on channel=0 note=56 velocity=31 time=1\n",
      "note_off channel=0 note=57 velocity=64 time=0\n",
      "note_on channel=0 note=82 velocity=30 time=0\n",
      "note_off channel=0 note=91 velocity=64 time=0\n",
      "note_off channel=0 note=94 velocity=64 time=0\n",
      "note_off channel=0 note=83 velocity=64 time=1\n",
      "note_off channel=0 note=56 velocity=64 time=1\n",
      "note_on channel=0 note=83 velocity=33 time=0\n",
      "note_off channel=0 note=82 velocity=64 time=1\n",
      "note_off channel=0 note=85 velocity=64 time=0\n",
      "note_off channel=0 note=89 velocity=64 time=0\n",
      "note_on channel=0 note=77 velocity=30 time=1\n",
      "note_on channel=0 note=94 velocity=24 time=0\n",
      "note_on channel=0 note=103 velocity=9 time=0\n",
      "note_off channel=0 note=87 velocity=64 time=2\n",
      "note_on channel=0 note=82 velocity=37 time=1\n",
      "note_on channel=0 note=91 velocity=52 time=0\n",
      "note_off channel=0 note=83 velocity=64 time=1\n",
      "note_off channel=0 note=94 velocity=64 time=0\n",
      "note_off channel=0 note=103 velocity=64 time=0\n",
      "note_off channel=0 note=50 velocity=64 time=2\n",
      "note_on channel=0 note=51 velocity=50 time=0\n",
      "note_off channel=0 note=69 velocity=64 time=0\n",
      "note_on channel=0 note=70 velocity=51 time=0\n",
      "note_on channel=0 note=73 velocity=21 time=0\n",
      "note_off channel=0 note=78 velocity=64 time=0\n",
      "note_on channel=0 note=89 velocity=49 time=0\n",
      "note_off channel=0 note=74 velocity=64 time=1\n",
      "note_on channel=0 note=85 velocity=27 time=0\n",
      "note_on channel=0 note=93 velocity=24 time=0\n",
      "note_off channel=0 note=51 velocity=64 time=1\n",
      "note_on channel=0 note=52 velocity=38 time=0\n",
      "note_off channel=0 note=88 velocity=64 time=0\n",
      "note_off channel=0 note=90 velocity=64 time=0\n",
      "note_on channel=0 note=87 velocity=39 time=1\n",
      "note_off channel=0 note=52 velocity=64 time=1\n",
      "note_on channel=0 note=88 velocity=38 time=0\n",
      "note_on channel=0 note=50 velocity=62 time=1\n",
      "note_off channel=0 note=89 velocity=64 time=0\n",
      "note_on channel=0 note=90 velocity=51 time=0\n",
      "note_off channel=0 note=93 velocity=64 time=0\n",
      "note_on channel=0 note=69 velocity=55 time=1\n",
      "note_off channel=0 note=70 velocity=64 time=0\n",
      "note_off channel=0 note=73 velocity=64 time=0\n",
      "note_on channel=0 note=93 velocity=49 time=0\n",
      "note_on channel=0 note=73 velocity=55 time=1\n",
      "note_on channel=0 note=83 velocity=33 time=0\n",
      "note_off channel=0 note=88 velocity=64 time=0\n",
      "note_on channel=0 note=89 velocity=37 time=0\n",
      "note_on channel=0 note=68 velocity=66 time=1\n",
      "note_off channel=0 note=69 velocity=64 time=0\n",
      "note_on channel=0 note=71 velocity=42 time=0\n",
      "note_off channel=0 note=82 velocity=64 time=0\n",
      "note_on channel=0 note=97 velocity=34 time=0\n",
      "note_off channel=0 note=83 velocity=64 time=1\n",
      "note_on channel=0 note=88 velocity=20 time=0\n",
      "note_off channel=0 note=91 velocity=64 time=0\n",
      "note_on channel=0 note=49 velocity=61 time=1\n",
      "note_off channel=0 note=50 velocity=64 time=0\n",
      "note_on channel=0 note=94 velocity=50 time=0\n",
      "note_off channel=0 note=77 velocity=64 time=1\n",
      "note_on channel=0 note=83 velocity=42 time=0\n",
      "note_off channel=0 note=89 velocity=64 time=0\n",
      "note_off channel=0 note=84 velocity=64 time=1\n",
      "note_off channel=0 note=71 velocity=64 time=1\n",
      "note_on channel=0 note=72 velocity=57 time=0\n",
      "note_off channel=0 note=73 velocity=64 time=0\n",
      "note_on channel=0 note=71 velocity=48 time=1\n",
      "note_on channel=0 note=82 velocity=60 time=0\n",
      "note_off channel=0 note=85 velocity=64 time=0\n",
      "note_on channel=0 note=78 velocity=35 time=1\n",
      "note_off channel=0 note=88 velocity=64 time=0\n",
      "note_on channel=0 note=96 velocity=43 time=0\n",
      "note_on channel=0 note=61 velocity=84 time=1\n",
      "note_off channel=0 note=63 velocity=64 time=0\n",
      "note_off channel=0 note=71 velocity=64 time=0\n",
      "note_off channel=0 note=83 velocity=64 time=0\n",
      "note_on channel=0 note=57 velocity=49 time=1\n",
      "note_off channel=0 note=61 velocity=64 time=0\n",
      "note_on channel=0 note=62 velocity=78 time=0\n",
      "note_on channel=0 note=71 velocity=46 time=0\n",
      "note_on channel=0 note=75 velocity=39 time=0\n",
      "note_on channel=0 note=77 velocity=21 time=0\n",
      "note_off channel=0 note=94 velocity=64 time=0\n",
      "note_on channel=0 note=95 velocity=40 time=0\n",
      "note_off channel=0 note=62 velocity=64 time=1\n",
      "note_on channel=0 note=63 velocity=88 time=0\n",
      "note_off channel=0 note=72 velocity=64 time=0\n",
      "note_on channel=0 note=73 velocity=28 time=0\n",
      "note_off channel=0 note=78 velocity=64 time=0\n",
      "note_on channel=0 note=88 velocity=36 time=0\n",
      "note_off channel=0 note=57 velocity=64 time=1\n",
      "note_off channel=0 note=82 velocity=64 time=0\n",
      "note_off channel=0 note=90 velocity=64 time=0\n",
      "note_off channel=0 note=93 velocity=64 time=0\n",
      "note_off channel=0 note=77 velocity=64 time=1\n",
      "note_on channel=0 note=90 velocity=47 time=0\n",
      "note_on channel=0 note=82 velocity=34 time=1\n",
      "note_on channel=0 note=84 velocity=18 time=0\n",
      "note_on channel=0 note=98 velocity=25 time=0\n",
      "note_on channel=0 note=91 velocity=12 time=1\n",
      "note_on channel=0 note=77 velocity=22 time=1\n",
      "note_off channel=0 note=95 velocity=64 time=0\n",
      "note_off channel=0 note=96 velocity=64 time=2\n",
      "note_on channel=0 note=78 velocity=21 time=2\n",
      "note_off channel=0 note=77 velocity=64 time=1\n",
      "note_off channel=0 note=87 velocity=64 time=1\n",
      "note_on channel=0 note=77 velocity=27 time=2\n",
      "note_off channel=0 note=78 velocity=64 time=0\n",
      "note_off channel=0 note=91 velocity=64 time=0\n",
      "note_off channel=0 note=98 velocity=64 time=1\n",
      "note_on channel=0 note=91 velocity=14 time=1\n",
      "note_off channel=0 note=97 velocity=64 time=0\n",
      "note_on channel=0 note=98 velocity=30 time=0\n",
      "note_off channel=0 note=75 velocity=64 time=1\n",
      "note_off channel=0 note=77 velocity=64 time=0\n",
      "note_on channel=0 note=78 velocity=27 time=0\n",
      "note_off channel=0 note=73 velocity=64 time=2\n",
      "note_off channel=0 note=98 velocity=64 time=0\n",
      "note_off channel=0 note=91 velocity=64 time=2\n",
      "note_off channel=0 note=88 velocity=64 time=1\n",
      "note_on channel=0 note=89 velocity=76 time=0\n",
      "note_on channel=0 note=91 velocity=28 time=0\n",
      "note_off channel=0 note=49 velocity=64 time=2\n",
      "note_off channel=0 note=84 velocity=64 time=1\n",
      "note_on channel=0 note=87 velocity=37 time=0\n",
      "note_on channel=0 note=49 velocity=55 time=1\n",
      "note_off channel=0 note=68 velocity=64 time=0\n",
      "note_off channel=0 note=71 velocity=64 time=1\n",
      "note_on channel=0 note=83 velocity=38 time=0\n",
      "note_on channel=0 note=84 velocity=24 time=0\n",
      "note_on channel=0 note=85 velocity=35 time=0\n",
      "note_on channel=0 note=68 velocity=59 time=1\n",
      "note_on channel=0 note=73 velocity=81 time=0\n",
      "note_off channel=0 note=78 velocity=64 time=0\n",
      "note_off channel=0 note=82 velocity=64 time=0\n",
      "note_on channel=0 note=93 velocity=23 time=0\n",
      "note_on channel=0 note=94 velocity=37 time=0\n",
      "note_on channel=0 note=61 velocity=67 time=1\n",
      "note_on channel=0 note=78 velocity=39 time=0\n",
      "note_on channel=0 note=82 velocity=42 time=0\n",
      "note_off channel=0 note=83 velocity=64 time=0\n",
      "note_on channel=0 note=95 velocity=33 time=0\n",
      "note_off channel=0 note=61 velocity=64 time=1\n",
      "note_on channel=0 note=83 velocity=31 time=0\n",
      "note_off channel=0 note=84 velocity=64 time=0\n",
      "note_off channel=0 note=91 velocity=64 time=0\n",
      "note_off channel=0 note=63 velocity=64 time=1\n",
      "note_on channel=0 note=77 velocity=53 time=0\n",
      "note_off channel=0 note=78 velocity=64 time=0\n",
      "note_on channel=0 note=88 velocity=30 time=0\n",
      "note_on channel=0 note=91 velocity=47 time=0\n",
      "note_off channel=0 note=95 velocity=64 time=0\n",
      "note_on channel=0 note=98 velocity=13 time=0\n",
      "note_off channel=0 note=93 velocity=64 time=1\n",
      "note_on channel=0 note=95 velocity=31 time=0\n",
      "note_on channel=0 note=61 velocity=64 time=1\n",
      "note_on channel=0 note=65 velocity=52 time=0\n",
      "note_off channel=0 note=88 velocity=64 time=0\n",
      "note_on channel=0 note=93 velocity=21 time=0\n",
      "note_off channel=0 note=49 velocity=64 time=1\n",
      "note_on channel=0 note=50 velocity=63 time=0\n",
      "note_off channel=0 note=68 velocity=64 time=0\n",
      "note_on channel=0 note=69 velocity=49 time=0\n",
      "note_off channel=0 note=73 velocity=64 time=0\n",
      "note_off channel=0 note=82 velocity=64 time=0\n",
      "note_on channel=0 note=84 velocity=32 time=0\n",
      "note_off channel=0 note=98 velocity=64 time=0\n",
      "note_on channel=0 note=82 velocity=30 time=1\n",
      "note_off channel=0 note=94 velocity=64 time=0\n",
      "note_off channel=0 note=69 velocity=64 time=1\n",
      "note_on channel=0 note=70 velocity=49 time=0\n",
      "note_on channel=0 note=75 velocity=35 time=0\n",
      "note_off channel=0 note=83 velocity=64 time=0\n",
      "note_off channel=0 note=85 velocity=64 time=0\n",
      "note_off channel=0 note=93 velocity=64 time=0\n",
      "note_off channel=0 note=61 velocity=64 time=1\n",
      "note_off channel=0 note=50 velocity=64 time=1\n",
      "note_on channel=0 note=51 velocity=48 time=0\n",
      "note_off channel=0 note=77 velocity=64 time=0\n",
      "note_on channel=0 note=93 velocity=34 time=0\n",
      "note_off channel=0 note=82 velocity=64 time=1\n",
      "note_off channel=0 note=91 velocity=64 time=0\n",
      "note_on channel=0 note=50 velocity=60 time=1\n",
      "note_off channel=0 note=51 velocity=64 time=0\n",
      "note_on channel=0 note=69 velocity=52 time=0\n",
      "note_off channel=0 note=70 velocity=64 time=0\n",
      "note_on channel=0 note=82 velocity=63 time=0\n",
      "note_off channel=0 note=75 velocity=64 time=1\n",
      "note_off channel=0 note=90 velocity=64 time=0\n",
      "note_on channel=0 note=91 velocity=31 time=0\n",
      "note_off channel=0 note=95 velocity=64 time=0\n",
      "note_on channel=0 note=61 velocity=36 time=1\n",
      "note_on channel=0 note=75 velocity=34 time=0\n",
      "note_on channel=0 note=90 velocity=35 time=0\n",
      "note_on channel=0 note=95 velocity=25 time=0\n",
      "note_on channel=0 note=74 velocity=29 time=1\n",
      "note_off channel=0 note=91 velocity=64 time=0\n",
      "note_off channel=0 note=61 velocity=64 time=1\n",
      "note_off channel=0 note=69 velocity=64 time=0\n",
      "note_on channel=0 note=70 velocity=52 time=0\n",
      "note_off channel=0 note=75 velocity=64 time=0\n",
      "note_off channel=0 note=90 velocity=64 time=0\n",
      "note_off channel=0 note=93 velocity=64 time=0\n",
      "note_off channel=0 note=50 velocity=64 time=1\n",
      "note_on channel=0 note=51 velocity=49 time=0\n",
      "note_off channel=0 note=74 velocity=64 time=0\n",
      "note_on channel=0 note=75 velocity=35 time=0\n",
      "note_on channel=0 note=90 velocity=37 time=0\n",
      "note_on channel=0 note=61 velocity=57 time=1\n",
      "note_on channel=0 note=91 velocity=36 time=0\n",
      "note_on channel=0 note=93 velocity=34 time=0\n",
      "note_on channel=0 note=50 velocity=55 time=1\n",
      "note_off channel=0 note=51 velocity=64 time=0\n",
      "note_on channel=0 note=69 velocity=52 time=0\n",
      "note_off channel=0 note=70 velocity=64 time=0\n",
      "note_on channel=0 note=86 velocity=9 time=0\n",
      "note_off channel=0 note=95 velocity=64 time=0\n",
      "note_off channel=0 note=75 velocity=64 time=1\n",
      "note_on channel=0 note=75 velocity=34 time=1\n",
      "note_on channel=0 note=78 velocity=21 time=0\n",
      "note_on channel=0 note=49 velocity=52 time=1\n",
      "note_off channel=0 note=50 velocity=64 time=0\n",
      "note_off channel=0 note=86 velocity=64 time=0\n",
      "note_off channel=0 note=91 velocity=64 time=0\n",
      "note_off channel=0 note=69 velocity=64 time=1\n",
      "note_on channel=0 note=91 velocity=31 time=0\n",
      "note_on channel=0 note=68 velocity=46 time=1\n",
      "note_off channel=0 note=78 velocity=64 time=0\n",
      "note_off channel=0 note=84 velocity=64 time=1\n",
      "note_on channel=0 note=60 velocity=41 time=1\n",
      "note_off channel=0 note=61 velocity=64 time=0\n",
      "note_off channel=0 note=49 velocity=64 time=1\n",
      "note_off channel=0 note=60 velocity=64 time=1\n",
      "note_on channel=0 note=79 velocity=36 time=0\n",
      "note_off channel=0 note=91 velocity=64 time=0\n",
      "note_on channel=0 note=60 velocity=74 time=1\n",
      "note_off channel=0 note=65 velocity=64 time=0\n",
      "note_off channel=0 note=68 velocity=64 time=0\n",
      "note_off channel=0 note=75 velocity=64 time=0\n",
      "note_on channel=0 note=96 velocity=27 time=0\n",
      "note_on channel=0 note=57 velocity=66 time=1\n",
      "note_off channel=0 note=60 velocity=64 time=0\n",
      "note_on channel=0 note=61 velocity=83 time=0\n",
      "note_on channel=0 note=68 velocity=59 time=0\n",
      "note_on channel=0 note=72 velocity=59 time=0\n",
      "note_on channel=0 note=75 velocity=39 time=0\n",
      "note_off channel=0 note=79 velocity=64 time=0\n",
      "note_on channel=0 note=86 velocity=14 time=0\n",
      "note_on channel=0 note=91 velocity=39 time=0\n",
      "note_on channel=0 note=95 velocity=25 time=0\n",
      "note_on channel=0 note=63 velocity=69 time=1\n",
      "note_on channel=0 note=77 velocity=30 time=0\n",
      "note_off channel=0 note=90 velocity=64 time=0\n",
      "note_off channel=0 note=63 velocity=64 time=1\n",
      "note_off channel=0 note=68 velocity=64 time=0\n",
      "note_on channel=0 note=90 velocity=65 time=0\n",
      "note_off channel=0 note=91 velocity=64 time=0\n",
      "note_off channel=0 note=57 velocity=64 time=1\n",
      "note_off channel=0 note=61 velocity=64 time=0\n",
      "note_on channel=0 note=65 velocity=42 time=0\n",
      "note_on channel=0 note=71 velocity=46 time=0\n",
      "note_off channel=0 note=72 velocity=64 time=0\n",
      "note_on channel=0 note=84 velocity=25 time=0\n",
      "note_on channel=0 note=91 velocity=46 time=0\n",
      "note_on channel=0 note=53 velocity=46 time=1\n",
      "note_on channel=0 note=59 velocity=51 time=0\n",
      "note_off channel=0 note=75 velocity=64 time=0\n",
      "note_off channel=0 note=93 velocity=64 time=0\n",
      "note_on channel=0 note=46 velocity=46 time=1\n",
      "note_off channel=0 note=86 velocity=64 time=0\n",
      "note_off channel=0 note=65 velocity=64 time=1\n",
      "note_on channel=0 note=75 velocity=49 time=0\n",
      "note_on channel=0 note=85 velocity=14 time=0\n",
      "note_on channel=0 note=93 velocity=36 time=0\n",
      "note_off channel=0 note=53 velocity=64 time=1\n",
      "note_on channel=0 note=65 velocity=29 time=0\n",
      "note_off channel=0 note=46 velocity=64 time=1\n",
      "note_on channel=0 note=47 velocity=43 time=0\n",
      "note_off channel=0 note=65 velocity=64 time=1\n",
      "note_on channel=0 note=66 velocity=32 time=0\n",
      "note_off channel=0 note=71 velocity=64 time=2\n",
      "note_off channel=0 note=85 velocity=64 time=0\n",
      "note_off channel=0 note=47 velocity=64 time=2\n",
      "note_off channel=0 note=77 velocity=64 time=0\n",
      "note_on channel=0 note=64 velocity=47 time=1\n",
      "note_off channel=0 note=66 velocity=64 time=0\n",
      "note_off channel=0 note=80 velocity=64 time=0\n",
      "note_on channel=0 note=81 velocity=45 time=0\n",
      "note_off channel=0 note=84 velocity=64 time=0\n",
      "note_on channel=0 note=53 velocity=44 time=1\n",
      "note_off channel=0 note=59 velocity=64 time=0\n",
      "note_on channel=0 note=60 velocity=42 time=0\n",
      "note_on channel=0 note=67 velocity=35 time=0\n",
      "note_on channel=0 note=73 velocity=38 time=0\n",
      "note_on channel=0 note=84 velocity=32 time=0\n",
      "note_off channel=0 note=64 velocity=64 time=1\n",
      "note_on channel=0 note=77 velocity=48 time=0\n",
      "note_off channel=0 note=53 velocity=64 time=1\n",
      "note_on channel=0 note=59 velocity=38 time=0\n",
      "note_off channel=0 note=60 velocity=64 time=0\n",
      "note_on channel=0 note=66 velocity=35 time=0\n",
      "note_off channel=0 note=67 velocity=64 time=0\n",
      "note_off channel=0 note=73 velocity=64 time=0\n",
      "note_on channel=0 note=80 velocity=48 time=0\n",
      "note_off channel=0 note=84 velocity=64 time=0\n",
      "note_off channel=0 note=91 velocity=64 time=0\n",
      "note_off channel=0 note=81 velocity=64 time=1\n",
      "note_on channel=0 note=84 velocity=16 time=0\n",
      "note_on channel=0 note=91 velocity=15 time=0\n",
      "note_on channel=0 note=47 velocity=42 time=3\n",
      "note_off channel=0 note=66 velocity=64 time=0\n",
      "note_off channel=0 note=91 velocity=64 time=1\n",
      "note_on channel=0 note=73 velocity=14 time=1\n",
      "note_off channel=0 note=95 velocity=64 time=0\n",
      "note_on channel=0 note=66 velocity=27 time=1\n",
      "note_off channel=0 note=96 velocity=64 time=1\n",
      "note_off channel=0 note=59 velocity=64 time=1\n",
      "note_on channel=0 note=60 velocity=39 time=0\n",
      "note_off channel=0 note=73 velocity=64 time=0\n",
      "note_off channel=0 note=84 velocity=64 time=0\n",
      "note_off channel=0 note=47 velocity=64 time=1\n",
      "note_off channel=0 note=66 velocity=64 time=0\n",
      "note_on channel=0 note=67 velocity=56 time=0\n",
      "note_on channel=0 note=72 velocity=47 time=0\n",
      "note_on channel=0 note=91 velocity=49 time=0\n",
      "note_off channel=0 note=60 velocity=64 time=1\n",
      "note_off channel=0 note=75 velocity=64 time=0\n",
      "note_on channel=0 note=83 velocity=31 time=0\n",
      "note_on channel=0 note=88 velocity=36 time=0\n",
      "note_on channel=0 note=48 velocity=69 time=1\n",
      "note_on channel=0 note=57 velocity=45 time=0\n",
      "note_on channel=0 note=64 velocity=82 time=0\n",
      "note_off channel=0 note=67 velocity=64 time=0\n",
      "note_off channel=0 note=72 velocity=64 time=0\n",
      "note_on channel=0 note=73 velocity=59 time=0\n",
      "note_off channel=0 note=82 velocity=64 time=0\n",
      "note_on channel=0 note=94 velocity=23 time=0\n",
      "note_on channel=0 note=45 velocity=78 time=1\n",
      "note_off channel=0 note=48 velocity=64 time=0\n",
      "note_on channel=0 note=68 velocity=59 time=0\n",
      "note_off channel=0 note=77 velocity=64 time=0\n",
      "note_on channel=0 note=82 velocity=38 time=0\n",
      "note_off channel=0 note=83 velocity=64 time=0\n",
      "note_off channel=0 note=88 velocity=64 time=0\n",
      "note_on channel=0 note=44 velocity=75 time=1\n",
      "note_off channel=0 note=45 velocity=64 time=0\n",
      "note_off channel=0 note=57 velocity=64 time=0\n",
      "note_on channel=0 note=63 velocity=73 time=0\n",
      "note_off channel=0 note=64 velocity=64 time=0\n",
      "note_off channel=0 note=91 velocity=64 time=0\n",
      "note_on channel=0 note=43 velocity=79 time=1\n",
      "note_off channel=0 note=44 velocity=64 time=0\n",
      "note_off channel=0 note=73 velocity=64 time=0\n",
      "note_on channel=0 note=91 velocity=27 time=0\n",
      "note_off channel=0 note=43 velocity=64 time=1\n",
      "note_on channel=0 note=44 velocity=79 time=0\n",
      "note_on channel=0 note=73 velocity=63 time=0\n",
      "note_on channel=0 note=60 velocity=47 time=1\n",
      "note_off channel=0 note=63 velocity=64 time=0\n",
      "note_off channel=0 note=89 velocity=64 time=0\n",
      "note_off channel=0 note=44 velocity=64 time=1\n",
      "note_on channel=0 note=45 velocity=75 time=0\n",
      "note_off channel=0 note=68 velocity=64 time=0\n",
      "note_off channel=0 note=60 velocity=64 time=1\n",
      "note_on channel=0 note=61 velocity=58 time=0\n",
      "note_on channel=0 note=66 velocity=29 time=0\n",
      "note_off channel=0 note=91 velocity=64 time=0\n",
      "note_off channel=0 note=94 velocity=64 time=0\n",
      "note_on channel=0 note=44 velocity=71 time=1\n",
      "note_off channel=0 note=45 velocity=64 time=0\n",
      "note_on channel=0 note=71 velocity=31 time=0\n",
      "note_on channel=0 note=65 velocity=33 time=1\n",
      "note_off channel=0 note=44 velocity=64 time=1\n",
      "note_off channel=0 note=66 velocity=64 time=0\n",
      "note_on channel=0 note=91 velocity=29 time=1\n",
      "note_off channel=0 note=73 velocity=64 time=3\n",
      "note_on channel=0 note=75 velocity=17 time=1\n",
      "note_on channel=0 note=48 velocity=70 time=1\n",
      "note_off channel=0 note=65 velocity=64 time=0\n",
      "note_on channel=0 note=66 velocity=29 time=0\n",
      "note_on channel=0 note=68 velocity=34 time=0\n",
      "note_on channel=0 note=47 velocity=75 time=1\n",
      "note_off channel=0 note=48 velocity=64 time=0\n",
      "note_off channel=0 note=47 velocity=64 time=1\n",
      "note_on channel=0 note=48 velocity=73 time=0\n",
      "note_on channel=0 note=65 velocity=77 time=0\n",
      "note_off channel=0 note=66 velocity=64 time=0\n",
      "note_off channel=0 note=68 velocity=64 time=0\n",
      "note_on channel=0 note=68 velocity=31 time=1\n",
      "note_off channel=0 note=48 velocity=64 time=1\n",
      "note_on channel=0 note=52 velocity=76 time=0\n",
      "note_off channel=0 note=91 velocity=64 time=0\n",
      "note_off channel=0 note=52 velocity=64 time=1\n",
      "note_on channel=0 note=53 velocity=71 time=0\n",
      "note_off channel=0 note=53 velocity=64 time=1\n",
      "note_off channel=0 note=61 velocity=64 time=0\n",
      "note_on channel=0 note=61 velocity=40 time=2\n",
      "note_on channel=0 note=53 velocity=57 time=1\n",
      "note_on channel=0 note=91 velocity=30 time=0\n",
      "note_off channel=0 note=53 velocity=64 time=2\n",
      "note_on channel=0 note=54 velocity=36 time=0\n",
      "note_off channel=0 note=71 velocity=64 time=0\n",
      "note_on channel=0 note=83 velocity=59 time=0\n",
      "note_off channel=0 note=91 velocity=64 time=0\n",
      "note_on channel=0 note=55 velocity=53 time=1\n",
      "note_off channel=0 note=68 velocity=64 time=0\n",
      "note_off channel=0 note=75 velocity=64 time=0\n",
      "note_off channel=0 note=82 velocity=64 time=0\n",
      "note_on channel=0 note=85 velocity=17 time=0\n",
      "note_off channel=0 note=54 velocity=64 time=1\n",
      "note_off channel=0 note=61 velocity=64 time=0\n",
      "note_on channel=0 note=73 velocity=56 time=0\n",
      "note_on channel=0 note=45 velocity=78 time=1\n",
      "note_on channel=0 note=64 velocity=85 time=0\n",
      "note_off channel=0 note=65 velocity=64 time=0\n",
      "note_on channel=0 note=67 velocity=59 time=0\n",
      "note_on channel=0 note=88 velocity=35 time=0\n",
      "note_on channel=0 note=54 velocity=67 time=1\n",
      "note_off channel=0 note=55 velocity=64 time=0\n",
      "note_on channel=0 note=63 velocity=75 time=0\n",
      "note_off channel=0 note=64 velocity=64 time=0\n",
      "note_on channel=0 note=84 velocity=22 time=0\n",
      "note_on channel=0 note=44 velocity=79 time=1\n",
      "note_off channel=0 note=45 velocity=64 time=0\n",
      "note_off channel=0 note=67 velocity=64 time=0\n",
      "note_off channel=0 note=63 velocity=64 time=1\n",
      "note_off channel=0 note=84 velocity=64 time=1\n",
      "note_on channel=0 note=101 velocity=20 time=0\n",
      "note_off channel=0 note=54 velocity=64 time=1\n",
      "note_on channel=0 note=55 velocity=65 time=0\n",
      "note_on channel=0 note=61 velocity=73 time=0\n",
      "note_on channel=0 note=67 velocity=69 time=0\n",
      "note_on channel=0 note=75 velocity=12 time=0\n",
      "note_off channel=0 note=44 velocity=64 time=1\n",
      "note_off channel=0 note=85 velocity=64 time=0\n",
      "note_on channel=0 note=54 velocity=64 time=1\n",
      "note_off channel=0 note=55 velocity=64 time=0\n",
      "note_on channel=0 note=66 velocity=65 time=0\n",
      "note_off channel=0 note=67 velocity=64 time=0\n",
      "note_on channel=0 note=82 velocity=54 time=0\n",
      "note_off channel=0 note=83 velocity=64 time=0\n",
      "note_off channel=0 note=75 velocity=64 time=1\n",
      "note_on channel=0 note=83 velocity=51 time=0\n",
      "note_off channel=0 note=88 velocity=64 time=0\n",
      "note_on channel=0 note=89 velocity=43 time=0\n",
      "note_on channel=0 note=43 velocity=61 time=1\n",
      "note_on channel=0 note=53 velocity=69 time=0\n",
      "note_off channel=0 note=54 velocity=64 time=0\n",
      "note_on channel=0 note=72 velocity=62 time=0\n",
      "note_off channel=0 note=73 velocity=64 time=0\n",
      "note_on channel=0 note=77 velocity=56 time=0\n",
      "note_on channel=0 note=81 velocity=36 time=0\n",
      "note_off channel=0 note=82 velocity=64 time=0\n",
      "note_on channel=0 note=91 velocity=36 time=0\n",
      "note_off channel=0 note=80 velocity=64 time=1\n",
      "note_on channel=0 note=86 velocity=19 time=0\n",
      "note_off channel=0 note=101 velocity=64 time=0\n",
      "note_off channel=0 note=66 velocity=64 time=1\n",
      "note_on channel=0 note=71 velocity=62 time=0\n",
      "note_off channel=0 note=72 velocity=64 time=0\n",
      "note_on channel=0 note=76 velocity=57 time=0\n",
      "note_off channel=0 note=77 velocity=64 time=0\n",
      "note_on channel=0 note=80 velocity=82 time=0\n",
      "note_off channel=0 note=81 velocity=64 time=0\n",
      "note_off channel=0 note=91 velocity=64 time=0\n",
      "note_off channel=0 note=43 velocity=64 time=1\n",
      "note_off channel=0 note=93 velocity=64 time=0\n",
      "note_on channel=0 note=94 velocity=32 time=0\n",
      "note_on channel=0 note=43 velocity=56 time=1\n",
      "note_on channel=0 note=52 velocity=70 time=0\n",
      "note_off channel=0 note=53 velocity=64 time=0\n",
      "note_off channel=0 note=89 velocity=64 time=1\n",
      "note_on channel=0 note=42 velocity=54 time=1\n",
      "note_off channel=0 note=43 velocity=64 time=0\n",
      "note_on channel=0 note=93 velocity=23 time=0\n",
      "note_on channel=0 note=89 velocity=68 time=1\n",
      "note_off channel=0 note=86 velocity=64 time=1\n",
      "note_off channel=0 note=94 velocity=64 time=0\n",
      "note_on channel=0 note=70 velocity=35 time=1\n",
      "note_off channel=0 note=71 velocity=64 time=1\n",
      "note_off channel=0 note=76 velocity=64 time=0\n",
      "note_on channel=0 note=77 velocity=18 time=0\n",
      "note_on channel=0 note=91 velocity=35 time=0\n",
      "note_off channel=0 note=70 velocity=64 time=1\n",
      "note_on channel=0 note=71 velocity=32 time=0\n",
      "note_on channel=0 note=82 velocity=46 time=3\n",
      "note_off channel=0 note=83 velocity=64 time=1\n",
      "note_off channel=0 note=42 velocity=64 time=2\n",
      "note_off channel=0 note=52 velocity=64 time=0\n",
      "note_on channel=0 note=46 velocity=61 time=1\n",
      "note_off channel=0 note=71 velocity=64 time=0\n",
      "note_off channel=0 note=77 velocity=64 time=0\n",
      "note_on channel=0 note=68 velocity=45 time=1\n",
      "note_on channel=0 note=88 velocity=39 time=0\n",
      "note_off channel=0 note=90 velocity=64 time=0\n",
      "note_on channel=0 note=95 velocity=42 time=0\n",
      "note_on channel=0 note=96 velocity=17 time=0\n",
      "note_on channel=0 note=102 velocity=23 time=0\n",
      "note_off channel=0 note=46 velocity=64 time=1\n",
      "note_on channel=0 note=47 velocity=80 time=0\n",
      "note_on channel=0 note=74 velocity=42 time=0\n",
      "note_on channel=0 note=75 velocity=42 time=0\n",
      "note_on channel=0 note=90 velocity=35 time=0\n",
      "note_off channel=0 note=91 velocity=64 time=0\n",
      "note_on channel=0 note=94 velocity=54 time=0\n",
      "note_off channel=0 note=47 velocity=64 time=1\n",
      "note_on channel=0 note=48 velocity=86 time=0\n",
      "note_off channel=0 note=68 velocity=64 time=0\n",
      "note_off channel=0 note=88 velocity=64 time=0\n",
      "note_off channel=0 note=61 velocity=64 time=1\n",
      "note_on channel=0 note=63 velocity=62 time=0\n",
      "note_on channel=0 note=66 velocity=60 time=0\n",
      "note_on channel=0 note=73 velocity=61 time=0\n",
      "note_off channel=0 note=75 velocity=64 time=0\n",
      "note_on channel=0 note=77 velocity=31 time=0\n",
      "note_off channel=0 note=102 velocity=64 time=0\n",
      "note_off channel=0 note=48 velocity=64 time=1\n",
      "note_on channel=0 note=61 velocity=50 time=0\n",
      "note_off channel=0 note=74 velocity=64 time=0\n",
      "note_off channel=0 note=93 velocity=64 time=0\n",
      "note_off channel=0 note=63 velocity=64 time=1\n",
      "note_off channel=0 note=82 velocity=64 time=0\n",
      "note_on channel=0 note=83 velocity=34 time=0\n",
      "note_off channel=0 note=87 velocity=64 time=1\n",
      "note_off channel=0 note=95 velocity=64 time=0\n",
      "note_off channel=0 note=61 velocity=64 time=1\n",
      "note_on channel=0 note=65 velocity=29 time=0\n",
      "note_on channel=0 note=82 velocity=31 time=0\n",
      "note_off channel=0 note=90 velocity=64 time=0\n",
      "note_on channel=0 note=61 velocity=38 time=1\n",
      "note_off channel=0 note=66 velocity=64 time=0\n",
      "note_off channel=0 note=83 velocity=64 time=0\n",
      "note_on channel=0 note=87 velocity=35 time=0\n",
      "note_off channel=0 note=94 velocity=64 time=0\n",
      "note_off channel=0 note=65 velocity=64 time=1\n",
      "note_on channel=0 note=66 velocity=31 time=0\n",
      "note_on channel=0 note=71 velocity=46 time=0\n",
      "note_off channel=0 note=89 velocity=64 time=0\n",
      "note_on channel=0 note=89 velocity=65 time=1\n",
      "note_off channel=0 note=96 velocity=64 time=0\n",
      "note_on channel=0 note=54 velocity=39 time=1\n",
      "note_on channel=0 note=44 velocity=36 time=1\n",
      "note_on channel=0 note=65 velocity=21 time=0\n",
      "note_off channel=0 note=66 velocity=64 time=0\n",
      "note_off channel=0 note=82 velocity=64 time=0\n",
      "note_off channel=0 note=54 velocity=64 time=1\n",
      "note_on channel=0 note=53 velocity=37 time=1\n",
      "note_off channel=0 note=53 velocity=64 time=2\n",
      "note_off channel=0 note=44 velocity=64 time=1\n",
      "note_on channel=0 note=91 velocity=24 time=0\n",
      "note_on channel=0 note=53 velocity=31 time=5\n",
      "note_off channel=0 note=53 velocity=64 time=2\n",
      "note_on channel=0 note=53 velocity=38 time=2\n",
      "note_on channel=0 note=68 velocity=74 time=1\n",
      "note_off channel=0 note=53 velocity=64 time=1\n",
      "note_on channel=0 note=56 velocity=71 time=0\n",
      "note_off channel=0 note=65 velocity=64 time=0\n",
      "note_off channel=0 note=61 velocity=64 time=1\n",
      "note_off channel=0 note=77 velocity=64 time=0\n",
      "note_on channel=0 note=84 velocity=50 time=0\n",
      "note_off channel=0 note=71 velocity=64 time=1\n",
      "note_on channel=0 note=72 velocity=41 time=0\n",
      "note_off channel=0 note=73 velocity=64 time=0\n",
      "note_on channel=0 note=88 velocity=58 time=0\n",
      "note_on channel=0 note=90 velocity=80 time=0\n",
      "note_on channel=0 note=95 velocity=48 time=0\n",
      "note_on channel=0 note=45 velocity=75 time=1\n",
      "note_off channel=0 note=56 velocity=64 time=0\n",
      "note_off channel=0 note=68 velocity=64 time=0\n",
      "note_on channel=0 note=69 velocity=77 time=0\n",
      "note_on channel=0 note=76 velocity=72 time=0\n",
      "note_off channel=0 note=91 velocity=64 time=0\n",
      "note_on channel=0 note=93 velocity=35 time=0\n",
      "note_on channel=0 note=98 velocity=19 time=0\n",
      "note_on channel=0 note=44 velocity=77 time=1\n",
      "note_off channel=0 note=45 velocity=64 time=0\n",
      "note_on channel=0 note=61 velocity=45 time=0\n",
      "note_off channel=0 note=72 velocity=64 time=0\n",
      "note_off channel=0 note=87 velocity=64 time=0\n",
      "note_off channel=0 note=84 velocity=64 time=1\n",
      "note_on channel=0 note=91 velocity=34 time=0\n",
      "note_on channel=0 note=84 velocity=61 time=1\n",
      "note_on channel=0 note=43 velocity=74 time=1\n",
      "note_off channel=0 note=44 velocity=64 time=0\n",
      "note_on channel=0 note=56 velocity=72 time=0\n",
      "note_off channel=0 note=93 velocity=64 time=0\n",
      "note_off channel=0 note=61 velocity=64 time=1\n",
      "note_on channel=0 note=62 velocity=39 time=0\n",
      "note_off channel=0 note=69 velocity=64 time=0\n",
      "note_on channel=0 note=87 velocity=61 time=0\n",
      "note_off channel=0 note=88 velocity=64 time=0\n",
      "note_on channel=0 note=94 velocity=40 time=0\n",
      "note_off channel=0 note=95 velocity=64 time=0\n",
      "note_on channel=0 note=75 velocity=58 time=1\n",
      "note_off channel=0 note=76 velocity=64 time=0\n",
      "note_off channel=0 note=62 velocity=64 time=1\n",
      "note_on channel=0 note=71 velocity=40 time=0\n",
      "note_on channel=0 note=65 velocity=48 time=2\n",
      "note_off channel=0 note=89 velocity=64 time=0\n",
      "note_on channel=0 note=61 velocity=20 time=1\n",
      "note_off channel=0 note=98 velocity=64 time=0\n",
      "note_on channel=0 note=76 velocity=73 time=1\n",
      "note_off channel=0 note=43 velocity=64 time=1\n",
      "note_off channel=0 note=56 velocity=64 time=0\n",
      "note_on channel=0 note=57 velocity=66 time=0\n",
      "note_off channel=0 note=75 velocity=64 time=0\n",
      "note_on channel=0 note=93 velocity=23 time=0\n",
      "note_off channel=0 note=94 velocity=64 time=0\n",
      "note_off channel=0 note=61 velocity=64 time=1\n",
      "note_on channel=0 note=85 velocity=49 time=0\n",
      "note_on channel=0 note=70 velocity=57 time=1\n",
      "note_off channel=0 note=71 velocity=64 time=0\n",
      "note_off channel=0 note=76 velocity=64 time=0\n",
      "note_on channel=0 note=77 velocity=79 time=0\n",
      "note_off channel=0 note=84 velocity=64 time=0\n",
      "note_on channel=0 note=86 velocity=40 time=0\n",
      "note_off channel=0 note=90 velocity=64 time=0\n",
      "note_off channel=0 note=57 velocity=64 time=1\n",
      "note_on channel=0 note=90 velocity=57 time=0\n",
      "note_on channel=0 note=59 velocity=55 time=1\n",
      "note_off channel=0 note=70 velocity=64 time=0\n",
      "note_on channel=0 note=71 velocity=56 time=0\n",
      "note_on channel=0 note=75 velocity=33 time=0\n",
      "note_on channel=0 note=82 velocity=32 time=0\n",
      "note_on channel=0 note=78 velocity=57 time=1\n",
      "note_on channel=0 note=68 velocity=33 time=1\n",
      "note_off channel=0 note=77 velocity=64 time=0\n",
      "note_off channel=0 note=85 velocity=64 time=0\n",
      "note_off channel=0 note=87 velocity=64 time=0\n",
      "note_off channel=0 note=91 velocity=64 time=0\n",
      "note_on channel=0 note=73 velocity=28 time=2\n",
      "note_on channel=0 note=77 velocity=69 time=0\n",
      "note_off channel=0 note=86 velocity=64 time=0\n",
      "note_on channel=0 note=58 velocity=60 time=1\n",
      "note_off channel=0 note=59 velocity=64 time=0\n",
      "note_off channel=0 note=78 velocity=64 time=0\n",
      "note_off channel=0 note=68 velocity=64 time=1\n",
      "note_off channel=0 note=71 velocity=64 time=0\n",
      "note_on channel=0 note=91 velocity=33 time=0\n",
      "note_off channel=0 note=75 velocity=64 time=1\n",
      "note_on channel=0 note=83 velocity=26 time=0\n",
      "note_off channel=0 note=58 velocity=64 time=1\n",
      "note_on channel=0 note=76 velocity=72 time=0\n",
      "note_off channel=0 note=82 velocity=64 time=0\n",
      "note_on channel=0 note=85 velocity=37 time=0\n",
      "note_on channel=0 note=58 velocity=67 time=1\n",
      "note_off channel=0 note=77 velocity=64 time=0\n",
      "note_on channel=0 note=82 velocity=37 time=0\n",
      "note_on channel=0 note=89 velocity=57 time=0\n",
      "note_on channel=0 note=68 velocity=38 time=1\n",
      "note_off channel=0 note=76 velocity=64 time=0\n",
      "note_on channel=0 note=77 velocity=79 time=0\n",
      "note_off channel=0 note=83 velocity=64 time=0\n",
      "note_on channel=0 note=83 velocity=37 time=1\n",
      "note_off channel=0 note=85 velocity=64 time=0\n",
      "note_on channel=0 note=86 velocity=31 time=0\n",
      "note_off channel=0 note=93 velocity=64 time=0\n",
      "note_on channel=0 note=63 velocity=73 time=1\n",
      "note_off channel=0 note=65 velocity=64 time=0\n",
      "note_off channel=0 note=68 velocity=64 time=0\n",
      "note_off channel=0 note=73 velocity=64 time=0\n",
      "note_off channel=0 note=82 velocity=64 time=0\n",
      "note_on channel=0 note=45 velocity=77 time=1\n",
      "note_off channel=0 note=58 velocity=64 time=0\n",
      "note_off channel=0 note=63 velocity=64 time=0\n",
      "note_on channel=0 note=64 velocity=83 time=0\n",
      "note_on channel=0 note=73 velocity=38 time=0\n",
      "note_on channel=0 note=88 velocity=49 time=0\n",
      "note_on channel=0 note=71 velocity=43 time=1\n",
      "note_off channel=0 note=77 velocity=64 time=0\n",
      "note_on channel=0 note=85 velocity=41 time=0\n",
      "note_off channel=0 note=89 velocity=64 time=0\n",
      "note_off channel=0 note=90 velocity=64 time=0\n",
      "note_on channel=0 note=44 velocity=79 time=1\n",
      "note_off channel=0 note=45 velocity=64 time=0\n",
      "note_on channel=0 note=63 velocity=70 time=0\n",
      "note_off channel=0 note=64 velocity=64 time=0\n",
      "note_on channel=0 note=89 velocity=38 time=0\n",
      "note_on channel=0 note=90 velocity=47 time=0\n",
      "note_off channel=0 note=91 velocity=64 time=0\n",
      "note_on channel=0 note=93 velocity=12 time=0\n",
      "note_off channel=0 note=86 velocity=64 time=1\n",
      "note_on channel=0 note=62 velocity=31 time=1\n",
      "note_off channel=0 note=63 velocity=64 time=0\n",
      "note_on channel=0 note=65 velocity=45 time=1\n",
      "note_off channel=0 note=71 velocity=64 time=0\n",
      "note_off channel=0 note=90 velocity=64 time=0\n",
      "note_on channel=0 note=91 velocity=48 time=0\n",
      "note_off channel=0 note=44 velocity=64 time=1\n",
      "note_off channel=0 note=62 velocity=64 time=0\n",
      "note_off channel=0 note=89 velocity=64 time=0\n",
      "note_on channel=0 note=43 velocity=61 time=2\n",
      "note_on channel=0 note=61 velocity=59 time=0\n",
      "note_on channel=0 note=57 velocity=53 time=2\n",
      "note_on channel=0 note=89 velocity=29 time=0\n",
      "note_off channel=0 note=43 velocity=64 time=1\n",
      "note_on channel=0 note=71 velocity=44 time=0\n",
      "note_on channel=0 note=56 velocity=61 time=1\n",
      "note_off channel=0 note=57 velocity=64 time=0\n",
      "note_off channel=0 note=89 velocity=64 time=0\n",
      "note_on channel=0 note=90 velocity=48 time=0\n",
      "note_off channel=0 note=93 velocity=64 time=0\n",
      "note_on channel=0 note=84 velocity=36 time=1\n",
      "note_on channel=0 note=75 velocity=57 time=1\n",
      "note_on channel=0 note=94 velocity=21 time=0\n",
      "note_on channel=0 note=48 velocity=68 time=1\n",
      "note_on channel=0 note=55 velocity=62 time=0\n",
      "note_off channel=0 note=56 velocity=64 time=0\n",
      "note_off channel=0 note=91 velocity=64 time=0\n",
      "note_on channel=0 note=47 velocity=72 time=1\n",
      "note_off channel=0 note=48 velocity=64 time=0\n",
      "note_off channel=0 note=65 velocity=64 time=0\n",
      "note_off channel=0 note=85 velocity=64 time=0\n",
      "note_off channel=0 note=47 velocity=64 time=1\n",
      "note_on channel=0 note=48 velocity=69 time=0\n",
      "note_off channel=0 note=55 velocity=64 time=0\n",
      "note_on channel=0 note=56 velocity=56 time=0\n",
      "note_on channel=0 note=65 velocity=32 time=0\n",
      "note_off channel=0 note=88 velocity=64 time=0\n",
      "note_off channel=0 note=48 velocity=64 time=2\n",
      "note_on channel=0 note=49 velocity=75 time=0\n",
      "note_off channel=0 note=56 velocity=64 time=0\n",
      "note_off channel=0 note=49 velocity=64 time=1\n",
      "note_on channel=0 note=53 velocity=74 time=0\n",
      "note_on channel=0 note=101 velocity=12 time=0\n",
      "note_off channel=0 note=84 velocity=64 time=2\n",
      "note_off channel=0 note=53 velocity=64 time=1\n",
      "note_off channel=0 note=101 velocity=64 time=0\n",
      "note_off channel=0 note=65 velocity=64 time=1\n",
      "note_off channel=0 note=80 velocity=64 time=1\n",
      "note_off channel=0 note=94 velocity=64 time=0\n",
      "note_on channel=0 note=55 velocity=60 time=1\n",
      "note_on channel=0 note=66 velocity=42 time=0\n",
      "note_off channel=0 note=73 velocity=64 time=1\n",
      "note_on channel=0 note=80 velocity=31 time=0\n",
      "note_off channel=0 note=90 velocity=64 time=0\n",
      "note_off channel=0 note=55 velocity=64 time=1\n",
      "note_off channel=0 note=61 velocity=64 time=0\n",
      "note_off channel=0 note=66 velocity=64 time=0\n",
      "note_off channel=0 note=71 velocity=64 time=0\n",
      "note_on channel=0 note=73 velocity=45 time=0\n",
      "note_on channel=0 note=77 velocity=43 time=0\n",
      "note_on channel=0 note=89 velocity=66 time=0\n",
      "note_on channel=0 note=90 velocity=35 time=0\n",
      "note_on channel=0 note=45 velocity=77 time=1\n",
      "note_on channel=0 note=64 velocity=82 time=0\n",
      "note_on channel=0 note=71 velocity=40 time=0\n",
      "note_off channel=0 note=75 velocity=64 time=0\n",
      "note_on channel=0 note=79 velocity=44 time=0\n",
      "note_off channel=0 note=80 velocity=64 time=0\n",
      "note_on channel=0 note=87 velocity=19 time=0\n",
      "note_on channel=0 note=67 velocity=59 time=1\n",
      "note_on channel=0 note=75 velocity=21 time=0\n",
      "note_on channel=0 note=44 velocity=78 time=1\n",
      "note_off channel=0 note=45 velocity=64 time=0\n",
      "note_on channel=0 note=63 velocity=69 time=0\n",
      "note_off channel=0 note=64 velocity=64 time=0\n",
      "note_off channel=0 note=90 velocity=64 time=0\n",
      "note_off channel=0 note=77 velocity=64 time=1\n",
      "note_off channel=0 note=79 velocity=64 time=0\n",
      "note_on channel=0 note=80 velocity=81 time=0\n",
      "note_on channel=0 note=55 velocity=68 time=1\n",
      "note_off channel=0 note=63 velocity=64 time=0\n",
      "note_off channel=0 note=75 velocity=64 time=0\n",
      "note_off channel=0 note=87 velocity=64 time=0\n",
      "note_off channel=0 note=44 velocity=64 time=1\n",
      "note_on channel=0 note=45 velocity=76 time=0\n",
      "note_on channel=0 note=61 velocity=63 time=0\n",
      "note_off channel=0 note=67 velocity=64 time=0\n",
      "note_on channel=0 note=68 velocity=69 time=0\n",
      "note_on channel=0 note=102 velocity=25 time=0\n",
      "note_off channel=0 note=55 velocity=64 time=1\n",
      "note_on channel=0 note=56 velocity=65 time=0\n",
      "note_on channel=0 note=65 velocity=50 time=0\n",
      "note_on channel=0 note=90 velocity=33 time=0\n",
      "note_on channel=0 note=96 velocity=24 time=0\n",
      "note_on channel=0 note=44 velocity=71 time=1\n",
      "note_off channel=0 note=45 velocity=64 time=0\n",
      "note_off channel=0 note=71 velocity=64 time=0\n",
      "note_on channel=0 note=75 velocity=48 time=0\n",
      "note_on channel=0 note=99 velocity=29 time=0\n",
      "note_on channel=0 note=71 velocity=32 time=1\n",
      "note_off channel=0 note=44 velocity=64 time=1\n",
      "note_on channel=0 note=42 velocity=58 time=1\n",
      "note_on channel=0 note=100 velocity=35 time=0\n",
      "note_off channel=0 note=42 velocity=64 time=2\n",
      "note_on channel=0 note=84 velocity=44 time=0\n",
      "note_off channel=0 note=56 velocity=64 time=2\n",
      "note_on channel=0 note=47 velocity=72 time=2\n",
      "note_on channel=0 note=56 velocity=53 time=0\n",
      "note_on channel=0 note=78 velocity=14 time=0\n",
      "note_off channel=0 note=96 velocity=64 time=0\n",
      "note_off channel=0 note=100 velocity=64 time=0\n",
      "note_off channel=0 note=47 velocity=64 time=2\n",
      "note_on channel=0 note=48 velocity=73 time=0\n",
      "note_on channel=0 note=100 velocity=38 time=0\n",
      "note_off channel=0 note=102 velocity=64 time=0\n",
      "note_off channel=0 note=56 velocity=64 time=1\n",
      "note_off channel=0 note=48 velocity=64 time=1\n",
      "note_on channel=0 note=52 velocity=76 time=0\n",
      "note_off channel=0 note=78 velocity=64 time=0\n",
      "note_on channel=0 note=82 velocity=46 time=0\n",
      "note_off channel=0 note=52 velocity=64 time=1\n",
      "note_on channel=0 note=54 velocity=71 time=0\n",
      "note_off channel=0 note=71 velocity=64 time=0\n",
      "note_on channel=0 note=78 velocity=17 time=0\n",
      "note_off channel=0 note=83 velocity=64 time=0\n",
      "note_off channel=0 note=54 velocity=64 time=1\n",
      "note_off channel=0 note=78 velocity=64 time=2\n",
      "note_on channel=0 note=53 velocity=54 time=1\n",
      "note_off channel=0 note=53 velocity=64 time=2\n",
      "note_on channel=0 note=55 velocity=51 time=0\n",
      "note_off channel=0 note=61 velocity=64 time=1\n",
      "note_on channel=0 note=64 velocity=54 time=0\n",
      "note_off channel=0 note=65 velocity=64 time=0\n",
      "note_off channel=0 note=73 velocity=64 time=0\n",
      "note_on channel=0 note=93 velocity=12 time=0\n",
      "note_on channel=0 note=48 velocity=87 time=1\n",
      "note_off channel=0 note=55 velocity=64 time=0\n",
      "note_on channel=0 note=85 velocity=30 time=0\n",
      "note_off channel=0 note=90 velocity=64 time=0\n",
      "note_on channel=0 note=63 velocity=57 time=1\n",
      "note_off channel=0 note=64 velocity=64 time=0\n",
      "note_on channel=0 note=77 velocity=33 time=0\n",
      "note_on channel=0 note=95 velocity=32 time=0\n",
      "note_off channel=0 note=82 velocity=64 time=1\n",
      "note_on channel=0 note=83 velocity=36 time=0\n",
      "note_on channel=0 note=56 velocity=47 time=1\n",
      "note_on channel=0 note=65 velocity=53 time=0\n",
      "note_on channel=0 note=73 velocity=33 time=0\n",
      "note_off channel=0 note=75 velocity=64 time=0\n",
      "note_off channel=0 note=48 velocity=64 time=1\n",
      "note_off channel=0 note=63 velocity=64 time=0\n",
      "note_on channel=0 note=82 velocity=39 time=0\n",
      "note_off channel=0 note=83 velocity=64 time=0\n",
      "note_off channel=0 note=93 velocity=64 time=0\n",
      "note_on channel=0 note=47 velocity=68 time=1\n",
      "note_on channel=0 note=61 velocity=56 time=0\n",
      "note_on channel=0 note=71 velocity=19 time=0\n",
      "note_on channel=0 note=88 velocity=35 time=0\n",
      "note_off channel=0 note=47 velocity=64 time=1\n",
      "note_on channel=0 note=75 velocity=19 time=0\n",
      "note_off channel=0 note=82 velocity=64 time=0\n",
      "note_on channel=0 note=83 velocity=50 time=0\n",
      "note_on channel=0 note=90 velocity=17 time=0\n",
      "note_on channel=0 note=45 velocity=60 time=1\n",
      "note_off channel=0 note=95 velocity=64 time=0\n",
      "note_on channel=0 note=55 velocity=67 time=2\n",
      "note_off channel=0 note=56 velocity=64 time=0\n",
      "note_off channel=0 note=89 velocity=64 time=0\n",
      "note_on channel=0 note=87 velocity=50 time=1\n",
      "note_off channel=0 note=90 velocity=64 time=0\n",
      "note_on channel=0 note=91 velocity=31 time=0\n",
      "note_off channel=0 note=99 velocity=64 time=0\n",
      "note_off channel=0 note=100 velocity=64 time=0\n",
      "note_on channel=0 note=44 velocity=50 time=1\n",
      "note_off channel=0 note=45 velocity=64 time=0\n",
      "note_off channel=0 note=65 velocity=64 time=0\n",
      "note_off channel=0 note=68 velocity=64 time=0\n",
      "note_off channel=0 note=75 velocity=64 time=1\n",
      "note_on channel=0 note=75 velocity=41 time=1\n",
      "note_off channel=0 note=85 velocity=64 time=0\n",
      "note_on channel=0 note=66 velocity=57 time=1\n",
      "note_on channel=0 note=101 velocity=20 time=0\n",
      "note_on channel=0 note=54 velocity=60 time=1\n",
      "note_off channel=0 note=55 velocity=64 time=0\n",
      "note_off channel=0 note=73 velocity=64 time=0\n",
      "note_on channel=0 note=43 velocity=30 time=1\n",
      "note_off channel=0 note=44 velocity=64 time=0\n",
      "note_off channel=0 note=88 velocity=64 time=1\n",
      "note_on channel=0 note=89 velocity=69 time=0\n",
      "note_off channel=0 note=66 velocity=64 time=1\n",
      "note_on channel=0 note=90 velocity=32 time=0\n",
      "note_on channel=0 note=53 velocity=67 time=1\n",
      "note_off channel=0 note=54 velocity=64 time=0\n",
      "note_off channel=0 note=71 velocity=64 time=0\n",
      "note_on channel=0 note=100 velocity=29 time=0\n",
      "note_off channel=0 note=101 velocity=64 time=0\n",
      "note_off channel=0 note=43 velocity=64 time=1\n",
      "note_on channel=0 note=64 velocity=39 time=2\n",
      "note_on channel=0 note=71 velocity=40 time=0\n",
      "note_on channel=0 note=97 velocity=19 time=0\n",
      "note_on channel=0 note=43 velocity=18 time=1\n",
      "note_off channel=0 note=91 velocity=64 time=0\n",
      "note_on channel=0 note=52 velocity=68 time=1\n",
      "note_off channel=0 note=53 velocity=64 time=0\n",
      "note_off channel=0 note=64 velocity=64 time=0\n",
      "note_on channel=0 note=65 velocity=47 time=0\n",
      "note_off channel=0 note=77 velocity=64 time=0\n",
      "note_on channel=0 note=91 velocity=28 time=0\n",
      "note_on channel=0 note=98 velocity=10 time=0\n",
      "note_off channel=0 note=52 velocity=64 time=1\n",
      "note_on channel=0 note=53 velocity=70 time=0\n",
      "note_off channel=0 note=71 velocity=64 time=0\n",
      "note_on channel=0 note=72 velocity=45 time=0\n",
      "note_off channel=0 note=43 velocity=64 time=1\n",
      "note_on channel=0 note=78 velocity=24 time=0\n",
      "note_off channel=0 note=97 velocity=64 time=1\n",
      "note_off channel=0 note=98 velocity=64 time=0\n",
      "note_off channel=0 note=53 velocity=64 time=1\n",
      "note_on channel=0 note=54 velocity=64 time=0\n",
      "note_off channel=0 note=65 velocity=64 time=0\n",
      "note_off channel=0 note=72 velocity=64 time=0\n",
      "note_on channel=0 note=88 velocity=42 time=0\n",
      "note_on channel=0 note=94 velocity=44 time=0\n",
      "note_off channel=0 note=78 velocity=64 time=1\n",
      "note_off channel=0 note=90 velocity=64 time=0\n",
      "note_on channel=0 note=102 velocity=17 time=0\n",
      "note_on channel=0 note=46 velocity=71 time=1\n",
      "note_on channel=0 note=69 velocity=45 time=0\n",
      "note_off channel=0 note=75 velocity=64 time=0\n",
      "note_on channel=0 note=90 velocity=39 time=0\n",
      "note_on channel=0 note=98 velocity=30 time=0\n",
      "note_on channel=0 note=45 velocity=76 time=1\n",
      "note_off channel=0 note=46 velocity=64 time=0\n",
      "note_off channel=0 note=61 velocity=64 time=0\n",
      "note_on channel=0 note=75 velocity=46 time=0\n",
      "note_on channel=0 note=82 velocity=35 time=0\n",
      "note_off channel=0 note=83 velocity=64 time=0\n",
      "note_off channel=0 note=88 velocity=64 time=0\n",
      "note_on channel=0 note=44 velocity=78 time=1\n",
      "note_off channel=0 note=45 velocity=64 time=0\n",
      "note_on channel=0 note=63 velocity=35 time=0\n",
      "note_on channel=0 note=77 velocity=20 time=0\n",
      "note_off channel=0 note=87 velocity=64 time=0\n",
      "note_off channel=0 note=102 velocity=64 time=0\n",
      "note_off channel=0 note=94 velocity=64 time=1\n",
      "note_on channel=0 note=95 velocity=10 time=0\n",
      "note_off channel=0 note=63 velocity=64 time=1\n",
      "note_off channel=0 note=69 velocity=64 time=0\n",
      "note_off channel=0 note=90 velocity=64 time=0\n",
      "note_on channel=0 note=43 velocity=73 time=1\n",
      "note_off channel=0 note=44 velocity=64 time=0\n",
      "note_on channel=0 note=71 velocity=27 time=0\n",
      "note_off channel=0 note=84 velocity=64 time=0\n",
      "note_on channel=0 note=90 velocity=39 time=0\n",
      "note_on channel=0 note=62 velocity=33 time=1\n",
      "note_off channel=0 note=91 velocity=64 time=0\n",
      "note_off channel=0 note=95 velocity=64 time=0\n",
      "note_off channel=0 note=77 velocity=64 time=1\n",
      "note_on channel=0 note=61 velocity=29 time=1\n",
      "note_off channel=0 note=62 velocity=64 time=0\n",
      "note_on channel=0 note=77 velocity=28 time=0\n",
      "note_off channel=0 note=61 velocity=64 time=2\n",
      "note_on channel=0 note=95 velocity=30 time=0\n",
      "note_off channel=0 note=43 velocity=64 time=2\n",
      "note_on channel=0 note=44 velocity=32 time=0\n",
      "note_off channel=0 note=44 velocity=64 time=2\n",
      "note_on channel=0 note=83 velocity=45 time=0\n",
      "note_on channel=0 note=88 velocity=26 time=0\n",
      "note_on channel=0 note=93 velocity=36 time=0\n",
      "note_off channel=0 note=82 velocity=64 time=1\n",
      "note_off channel=0 note=89 velocity=64 time=0\n",
      "note_off channel=0 note=98 velocity=64 time=1\n",
      "note_on channel=0 note=98 velocity=15 time=1\n",
      "note_on channel=0 note=53 velocity=60 time=2\n",
      "note_off channel=0 note=54 velocity=64 time=0\n",
      "note_off channel=0 note=71 velocity=64 time=1\n",
      "note_off channel=0 note=98 velocity=64 time=0\n",
      "note_on channel=0 note=72 velocity=38 time=1\n",
      "note_off channel=0 note=77 velocity=64 time=0\n",
      "note_off channel=0 note=88 velocity=64 time=0\n",
      "note_on channel=0 note=71 velocity=29 time=1\n",
      "note_on channel=0 note=61 velocity=18 time=1\n",
      "note_on channel=0 note=66 velocity=67 time=0\n"
     ]
    },
    {
     "name": "stdout",
     "output_type": "stream",
     "text": [
      "note_on channel=0 note=77 velocity=43 time=0\n",
      "note_off channel=0 note=53 velocity=64 time=1\n",
      "note_on channel=0 note=54 velocity=57 time=0\n",
      "note_off channel=0 note=72 velocity=64 time=0\n",
      "note_on channel=0 note=73 velocity=48 time=0\n",
      "note_on channel=0 note=91 velocity=25 time=3\n",
      "note_off channel=0 note=54 velocity=64 time=1\n",
      "note_off channel=0 note=61 velocity=64 time=0\n",
      "note_off channel=0 note=71 velocity=64 time=0\n",
      "note_off channel=0 note=75 velocity=64 time=0\n",
      "note_off channel=0 note=100 velocity=64 time=0\n",
      "note_on channel=0 note=46 velocity=67 time=1\n",
      "note_on channel=0 note=57 velocity=41 time=0\n",
      "note_on channel=0 note=64 velocity=83 time=0\n",
      "note_off channel=0 note=66 velocity=64 time=0\n",
      "note_on channel=0 note=79 velocity=40 time=0\n",
      "note_off channel=0 note=80 velocity=64 time=0\n",
      "note_on channel=0 note=81 velocity=33 time=0\n",
      "note_on channel=0 note=45 velocity=77 time=1\n",
      "note_off channel=0 note=46 velocity=64 time=0\n",
      "note_off channel=0 note=91 velocity=64 time=0\n",
      "note_on channel=0 note=100 velocity=40 time=0\n",
      "note_on channel=0 note=44 velocity=79 time=1\n",
      "note_off channel=0 note=45 velocity=64 time=0\n",
      "note_on channel=0 note=53 velocity=65 time=0\n",
      "note_off channel=0 note=57 velocity=64 time=0\n",
      "note_on channel=0 note=63 velocity=72 time=0\n",
      "note_off channel=0 note=79 velocity=64 time=0\n",
      "note_on channel=0 note=80 velocity=51 time=0\n",
      "note_off channel=0 note=81 velocity=64 time=0\n",
      "note_on channel=0 note=82 velocity=43 time=0\n",
      "note_on channel=0 note=91 velocity=31 time=0\n",
      "note_off channel=0 note=64 velocity=64 time=1\n",
      "note_off channel=0 note=83 velocity=64 time=0\n",
      "note_off channel=0 note=90 velocity=64 time=0\n",
      "note_on channel=0 note=86 velocity=17 time=1\n",
      "note_on channel=0 note=90 velocity=19 time=0\n",
      "note_on channel=0 note=97 velocity=20 time=0\n",
      "note_off channel=0 note=63 velocity=64 time=1\n",
      "note_on channel=0 note=99 velocity=34 time=0\n",
      "note_off channel=0 note=44 velocity=64 time=1\n",
      "note_on channel=0 note=61 velocity=41 time=0\n",
      "note_on channel=0 note=64 velocity=44 time=0\n",
      "note_on channel=0 note=72 velocity=40 time=0\n",
      "note_off channel=0 note=73 velocity=64 time=0\n",
      "note_on channel=0 note=52 velocity=66 time=1\n",
      "note_off channel=0 note=53 velocity=64 time=0\n",
      "note_off channel=0 note=61 velocity=64 time=1\n",
      "note_off channel=0 note=86 velocity=64 time=0\n",
      "note_on channel=0 note=87 velocity=41 time=0\n",
      "note_off channel=0 note=91 velocity=64 time=0\n",
      "note_on channel=0 note=43 velocity=62 time=1\n",
      "note_on channel=0 note=61 velocity=62 time=0\n",
      "note_on channel=0 note=71 velocity=34 time=0\n",
      "note_off channel=0 note=72 velocity=64 time=0\n",
      "note_off channel=0 note=64 velocity=64 time=1\n",
      "note_on channel=0 note=96 velocity=41 time=0\n",
      "note_off channel=0 note=97 velocity=64 time=0\n",
      "note_on channel=0 note=42 velocity=55 time=1\n",
      "note_off channel=0 note=43 velocity=64 time=0\n",
      "note_on channel=0 note=83 velocity=44 time=0\n",
      "note_on channel=0 note=86 velocity=17 time=0\n",
      "note_off channel=0 note=90 velocity=64 time=1\n",
      "note_on channel=0 note=101 velocity=22 time=0\n",
      "note_on channel=0 note=76 velocity=31 time=1\n",
      "note_off channel=0 note=77 velocity=64 time=0\n",
      "note_off channel=0 note=82 velocity=64 time=0\n",
      "note_on channel=0 note=89 velocity=51 time=0\n",
      "note_on channel=0 note=90 velocity=20 time=0\n",
      "note_off channel=0 note=42 velocity=64 time=1\n",
      "note_on channel=0 note=51 velocity=65 time=0\n",
      "note_off channel=0 note=52 velocity=64 time=0\n",
      "note_on channel=0 note=64 velocity=42 time=0\n",
      "note_on channel=0 note=82 velocity=45 time=0\n",
      "note_off channel=0 note=51 velocity=64 time=1\n",
      "note_on channel=0 note=52 velocity=65 time=0\n",
      "note_off channel=0 note=76 velocity=64 time=0\n",
      "note_off channel=0 note=83 velocity=64 time=0\n",
      "note_off channel=0 note=86 velocity=64 time=0\n",
      "note_on channel=0 note=48 velocity=71 time=1\n",
      "note_off channel=0 note=52 velocity=64 time=0\n",
      "note_off channel=0 note=64 velocity=64 time=0\n",
      "note_off channel=0 note=82 velocity=64 time=0\n",
      "note_on channel=0 note=83 velocity=43 time=0\n",
      "note_off channel=0 note=90 velocity=64 time=0\n",
      "note_on channel=0 note=91 velocity=30 time=0\n",
      "note_on channel=0 note=64 velocity=84 time=1\n",
      "note_off channel=0 note=71 velocity=64 time=0\n",
      "note_on channel=0 note=82 velocity=50 time=0\n",
      "note_on channel=0 note=90 velocity=41 time=0\n",
      "note_off channel=0 note=95 velocity=64 time=0\n",
      "note_off channel=0 note=61 velocity=64 time=1\n",
      "note_off channel=0 note=83 velocity=64 time=0\n",
      "note_on channel=0 note=95 velocity=24 time=0\n",
      "note_off channel=0 note=48 velocity=64 time=1\n",
      "note_on channel=0 note=50 velocity=81 time=0\n",
      "note_on channel=0 note=71 velocity=39 time=0\n",
      "note_off channel=0 note=50 velocity=64 time=1\n",
      "note_on channel=0 note=52 velocity=79 time=0\n",
      "note_on channel=0 note=83 velocity=53 time=0\n",
      "note_off channel=0 note=52 velocity=64 time=1\n",
      "note_on channel=0 note=53 velocity=78 time=0\n",
      "note_off channel=0 note=82 velocity=64 time=0\n",
      "note_off channel=0 note=53 velocity=64 time=2\n",
      "note_off channel=0 note=91 velocity=64 time=0\n",
      "note_on channel=0 note=91 velocity=25 time=1\n",
      "note_on channel=0 note=52 velocity=70 time=1\n",
      "note_on channel=0 note=77 velocity=41 time=3\n",
      "note_on channel=0 note=97 velocity=35 time=0\n",
      "note_off channel=0 note=95 velocity=64 time=1\n",
      "note_off channel=0 note=101 velocity=64 time=0\n",
      "note_on channel=0 note=45 velocity=74 time=1\n",
      "note_off channel=0 note=52 velocity=64 time=0\n",
      "note_off channel=0 note=71 velocity=64 time=0\n",
      "note_on channel=0 note=72 velocity=42 time=0\n",
      "note_off channel=0 note=91 velocity=64 time=0\n",
      "note_on channel=0 note=44 velocity=79 time=1\n",
      "note_off channel=0 note=45 velocity=64 time=0\n",
      "note_on channel=0 note=63 velocity=72 time=0\n",
      "note_on channel=0 note=85 velocity=18 time=0\n",
      "note_on channel=0 note=54 velocity=59 time=1\n",
      "note_off channel=0 note=64 velocity=64 time=0\n",
      "note_on channel=0 note=91 velocity=15 time=0\n",
      "note_off channel=0 note=72 velocity=64 time=1\n",
      "note_on channel=0 note=73 velocity=38 time=0\n",
      "note_off channel=0 note=63 velocity=64 time=1\n",
      "note_off channel=0 note=54 velocity=64 time=1\n",
      "note_on channel=0 note=55 velocity=64 time=0\n",
      "note_on channel=0 note=61 velocity=62 time=0\n",
      "note_on channel=0 note=67 velocity=66 time=0\n",
      "note_off channel=0 note=77 velocity=64 time=0\n",
      "note_on channel=0 note=82 velocity=29 time=0\n",
      "note_off channel=0 note=91 velocity=64 time=1\n",
      "note_off channel=0 note=96 velocity=64 time=0\n",
      "note_off channel=0 note=99 velocity=64 time=1\n",
      "note_off channel=0 note=44 velocity=64 time=1\n",
      "note_on channel=0 note=71 velocity=45 time=0\n",
      "note_off channel=0 note=83 velocity=64 time=0\n",
      "note_on channel=0 note=95 velocity=44 time=0\n",
      "note_on channel=0 note=43 velocity=63 time=1\n",
      "note_off channel=0 note=97 velocity=64 time=0\n",
      "note_on channel=0 note=98 velocity=11 time=0\n",
      "note_off channel=0 note=100 velocity=64 time=0\n",
      "note_on channel=0 note=77 velocity=31 time=1\n",
      "note_off channel=0 note=82 velocity=64 time=0\n",
      "note_off channel=0 note=55 velocity=64 time=1\n",
      "note_on channel=0 note=56 velocity=56 time=0\n",
      "note_on channel=0 note=100 velocity=23 time=0\n",
      "note_off channel=0 note=43 velocity=64 time=2\n",
      "note_on channel=0 note=55 velocity=64 time=0\n",
      "note_off channel=0 note=56 velocity=64 time=0\n",
      "note_on channel=0 note=48 velocity=69 time=1\n",
      "note_on channel=0 note=75 velocity=12 time=0\n",
      "note_off channel=0 note=67 velocity=64 time=1\n",
      "note_on channel=0 note=68 velocity=66 time=0\n",
      "note_off channel=0 note=80 velocity=64 time=0\n",
      "note_on channel=0 note=88 velocity=37 time=0\n",
      "note_on channel=0 note=97 velocity=18 time=0\n",
      "note_off channel=0 note=98 velocity=64 time=0\n",
      "note_on channel=0 note=47 velocity=76 time=1\n",
      "note_off channel=0 note=48 velocity=64 time=0\n",
      "note_off channel=0 note=55 velocity=64 time=0\n",
      "note_on channel=0 note=56 velocity=59 time=0\n",
      "note_off channel=0 note=89 velocity=64 time=0\n",
      "note_off channel=0 note=47 velocity=64 time=1\n",
      "note_on channel=0 note=48 velocity=72 time=0\n",
      "note_off channel=0 note=75 velocity=64 time=0\n",
      "note_on channel=0 note=82 velocity=40 time=0\n",
      "note_off channel=0 note=48 velocity=64 time=1\n",
      "note_on channel=0 note=49 velocity=72 time=0\n",
      "note_on channel=0 note=55 velocity=68 time=0\n",
      "note_off channel=0 note=56 velocity=64 time=0\n",
      "note_on channel=0 note=65 velocity=22 time=0\n",
      "note_off channel=0 note=49 velocity=64 time=1\n",
      "note_on channel=0 note=50 velocity=77 time=0\n",
      "note_off channel=0 note=55 velocity=64 time=0\n",
      "note_off channel=0 note=50 velocity=64 time=1\n",
      "note_on channel=0 note=52 velocity=69 time=0\n",
      "note_off channel=0 note=82 velocity=64 time=0\n",
      "note_on channel=0 note=91 velocity=23 time=0\n",
      "note_off channel=0 note=52 velocity=64 time=1\n",
      "note_on channel=0 note=54 velocity=70 time=0\n",
      "note_on channel=0 note=82 velocity=39 time=0\n",
      "note_off channel=0 note=54 velocity=64 time=1\n",
      "note_on channel=0 note=75 velocity=11 time=0\n",
      "note_on channel=0 note=84 velocity=30 time=0\n",
      "note_on channel=0 note=56 velocity=53 time=1\n",
      "note_off channel=0 note=61 velocity=64 time=0\n",
      "note_off channel=0 note=85 velocity=64 time=0\n",
      "note_on channel=0 note=61 velocity=25 time=1\n",
      "note_on channel=0 note=83 velocity=49 time=0\n",
      "note_off channel=0 note=56 velocity=64 time=1\n",
      "note_off channel=0 note=75 velocity=64 time=0\n",
      "note_off channel=0 note=97 velocity=64 time=0\n",
      "note_off channel=0 note=100 velocity=64 time=0\n",
      "note_on channel=0 note=101 velocity=24 time=0\n",
      "note_off channel=0 note=82 velocity=64 time=1\n",
      "note_on channel=0 note=85 velocity=38 time=0\n",
      "note_on channel=0 note=98 velocity=10 time=0\n",
      "note_off channel=0 note=73 velocity=64 time=1\n",
      "note_on channel=0 note=75 velocity=42 time=0\n",
      "note_on channel=0 note=48 velocity=88 time=1\n",
      "note_off channel=0 note=61 velocity=64 time=0\n",
      "note_on channel=0 note=64 velocity=60 time=0\n",
      "note_off channel=0 note=65 velocity=64 time=0\n",
      "note_on channel=0 note=73 velocity=43 time=0\n",
      "note_off channel=0 note=77 velocity=64 time=0\n",
      "note_on channel=0 note=81 velocity=63 time=0\n",
      "note_off channel=0 note=88 velocity=64 time=0\n",
      "note_on channel=0 note=89 velocity=69 time=0\n",
      "note_off channel=0 note=90 velocity=64 time=0\n",
      "note_on channel=0 note=102 velocity=20 time=0\n",
      "note_on channel=0 note=74 velocity=41 time=1\n",
      "note_off channel=0 note=75 velocity=64 time=0\n",
      "note_on channel=0 note=80 velocity=85 time=0\n",
      "note_on channel=0 note=63 velocity=52 time=1\n",
      "note_off channel=0 note=64 velocity=64 time=0\n",
      "note_off channel=0 note=73 velocity=64 time=0\n",
      "note_on channel=0 note=77 velocity=39 time=0\n",
      "note_on channel=0 note=56 velocity=62 time=1\n",
      "note_on channel=0 note=73 velocity=35 time=0\n",
      "note_off channel=0 note=74 velocity=64 time=0\n",
      "note_off channel=0 note=81 velocity=64 time=0\n",
      "note_off channel=0 note=84 velocity=64 time=0\n",
      "note_off channel=0 note=98 velocity=64 time=0\n",
      "note_off channel=0 note=102 velocity=64 time=0\n",
      "note_off channel=0 note=48 velocity=64 time=1\n",
      "note_on channel=0 note=88 velocity=34 time=0\n",
      "note_on channel=0 note=90 velocity=27 time=0\n",
      "note_on channel=0 note=43 velocity=65 time=1\n",
      "note_off channel=0 note=63 velocity=64 time=0\n",
      "note_on channel=0 note=65 velocity=31 time=0\n",
      "note_on channel=0 note=75 velocity=25 time=0\n",
      "note_off channel=0 note=43 velocity=64 time=1\n",
      "note_on channel=0 note=48 velocity=67 time=0\n",
      "note_on channel=0 note=61 velocity=54 time=0\n",
      "note_off channel=0 note=88 velocity=64 time=0\n",
      "note_off channel=0 note=48 velocity=64 time=1\n",
      "note_on channel=0 note=45 velocity=61 time=1\n",
      "note_off channel=0 note=90 velocity=64 time=0\n",
      "note_off channel=0 note=101 velocity=64 time=0\n",
      "note_off channel=0 note=85 velocity=64 time=1\n",
      "note_on channel=0 note=88 velocity=26 time=0\n",
      "note_off channel=0 note=89 velocity=64 time=0\n",
      "note_on channel=0 note=90 velocity=23 time=0\n",
      "note_on channel=0 note=101 velocity=19 time=1\n",
      "note_on channel=0 note=44 velocity=51 time=1\n",
      "note_off channel=0 note=45 velocity=64 time=0\n",
      "note_on channel=0 note=82 velocity=32 time=0\n",
      "note_off channel=0 note=83 velocity=64 time=0\n",
      "note_off channel=0 note=65 velocity=64 time=1\n",
      "note_off channel=0 note=75 velocity=64 time=0\n",
      "note_off channel=0 note=44 velocity=64 time=1\n",
      "note_on channel=0 note=65 velocity=14 time=0\n",
      "note_on channel=0 note=44 velocity=45 time=1\n",
      "note_on channel=0 note=75 velocity=17 time=1\n",
      "note_on channel=0 note=43 velocity=33 time=1\n",
      "note_off channel=0 note=44 velocity=64 time=0\n",
      "note_off channel=0 note=101 velocity=64 time=0\n",
      "note_on channel=0 note=101 velocity=19 time=1\n",
      "note_off channel=0 note=82 velocity=64 time=1\n",
      "note_off channel=0 note=43 velocity=64 time=1\n",
      "note_off channel=0 note=95 velocity=64 time=0\n",
      "note_off channel=0 note=101 velocity=64 time=2\n",
      "note_off channel=0 note=56 velocity=64 time=2\n",
      "note_on channel=0 note=57 velocity=44 time=0\n",
      "note_off channel=0 note=68 velocity=64 time=0\n",
      "note_off channel=0 note=87 velocity=64 time=0\n",
      "note_off channel=0 note=88 velocity=64 time=0\n",
      "note_off channel=0 note=91 velocity=64 time=0\n",
      "note_off channel=0 note=57 velocity=64 time=2\n",
      "note_on channel=0 note=88 velocity=15 time=0\n",
      "note_on channel=0 note=56 velocity=30 time=2\n",
      "note_off channel=0 note=88 velocity=64 time=1\n",
      "note_on channel=0 note=89 velocity=67 time=0\n",
      "note_off channel=0 note=56 velocity=64 time=1\n",
      "note_off channel=0 note=65 velocity=64 time=0\n",
      "note_off channel=0 note=71 velocity=64 time=0\n",
      "note_off channel=0 note=73 velocity=64 time=0\n",
      "note_off channel=0 note=75 velocity=64 time=0\n",
      "note_off channel=0 note=77 velocity=64 time=0\n",
      "note_on channel=0 note=84 velocity=39 time=0\n",
      "note_on channel=0 note=87 velocity=42 time=0\n",
      "note_on channel=0 note=95 velocity=45 time=0\n",
      "note_on channel=0 note=102 velocity=23 time=0\n",
      "note_on channel=0 note=47 velocity=66 time=1\n",
      "note_on channel=0 note=75 velocity=51 time=0\n",
      "note_on channel=0 note=77 velocity=38 time=0\n",
      "note_off channel=0 note=90 velocity=64 time=0\n",
      "note_on channel=0 note=45 velocity=76 time=1\n",
      "note_off channel=0 note=47 velocity=64 time=0\n",
      "note_off channel=0 note=61 velocity=64 time=0\n",
      "note_on channel=0 note=67 velocity=46 time=0\n",
      "note_on channel=0 note=69 velocity=42 time=0\n",
      "note_on channel=0 note=85 velocity=30 time=0\n",
      "note_on channel=0 note=88 velocity=14 time=0\n",
      "note_on channel=0 note=44 velocity=77 time=1\n",
      "note_off channel=0 note=45 velocity=64 time=0\n",
      "note_on channel=0 note=63 velocity=37 time=0\n",
      "note_on channel=0 note=73 velocity=53 time=0\n",
      "note_on channel=0 note=91 velocity=23 time=0\n",
      "note_off channel=0 note=93 velocity=64 time=0\n",
      "note_on channel=0 note=71 velocity=43 time=1\n",
      "note_on channel=0 note=90 velocity=12 time=0\n",
      "note_off channel=0 note=102 velocity=64 time=0\n",
      "note_on channel=0 note=62 velocity=35 time=1\n",
      "note_off channel=0 note=63 velocity=64 time=0\n",
      "note_off channel=0 note=67 velocity=64 time=0\n",
      "note_on channel=0 note=68 velocity=49 time=0\n",
      "note_off channel=0 note=69 velocity=64 time=0\n",
      "note_off channel=0 note=84 velocity=64 time=0\n",
      "note_off channel=0 note=87 velocity=64 time=0\n",
      "note_off channel=0 note=88 velocity=64 time=0\n",
      "note_off channel=0 note=95 velocity=64 time=0\n",
      "note_on channel=0 note=43 velocity=73 time=1\n",
      "note_off channel=0 note=44 velocity=64 time=0\n",
      "note_on channel=0 note=93 velocity=20 time=0\n",
      "note_on channel=0 note=65 velocity=46 time=1\n",
      "note_on channel=0 note=61 velocity=29 time=2\n",
      "note_off channel=0 note=62 velocity=64 time=0\n",
      "note_off channel=0 note=89 velocity=64 time=1\n",
      "note_off channel=0 note=91 velocity=64 time=0\n",
      "note_off channel=0 note=61 velocity=64 time=1\n",
      "note_off channel=0 note=90 velocity=64 time=2\n",
      "note_off channel=0 note=43 velocity=64 time=2\n",
      "note_off channel=0 note=85 velocity=64 time=2\n",
      "note_off channel=0 note=93 velocity=64 time=0\n",
      "note_on channel=0 note=49 velocity=16 time=3\n",
      "note_off channel=0 note=77 velocity=64 time=0\n",
      "note_off channel=0 note=49 velocity=64 time=3\n",
      "note_on channel=0 note=53 velocity=56 time=4\n",
      "note_off channel=0 note=53 velocity=64 time=2\n",
      "note_on channel=0 note=63 velocity=95 time=0\n",
      "note_on channel=0 note=79 velocity=31 time=0\n",
      "note_on channel=0 note=82 velocity=62 time=0\n",
      "note_off channel=0 note=65 velocity=64 time=1\n",
      "note_off channel=0 note=71 velocity=64 time=0\n",
      "note_off channel=0 note=75 velocity=64 time=0\n",
      "note_on channel=0 note=89 velocity=40 time=0\n",
      "note_on channel=0 note=57 velocity=51 time=1\n",
      "note_on channel=0 note=71 velocity=63 time=0\n",
      "note_off channel=0 note=79 velocity=64 time=0\n",
      "note_on channel=0 note=90 velocity=52 time=0\n",
      "note_off channel=0 note=73 velocity=64 time=1\n",
      "note_on channel=0 note=88 velocity=25 time=0\n",
      "note_on channel=0 note=93 velocity=56 time=0\n",
      "note_on channel=0 note=95 velocity=58 time=0\n",
      "note_on channel=0 note=52 velocity=78 time=1\n",
      "note_off channel=0 note=57 velocity=64 time=0\n",
      "note_on channel=0 note=76 velocity=42 time=0\n",
      "note_off channel=0 note=89 velocity=64 time=0\n",
      "note_on channel=0 note=96 velocity=36 time=0\n",
      "note_on channel=0 note=100 velocity=36 time=0\n",
      "note_on channel=0 note=73 velocity=28 time=1\n",
      "note_on channel=0 note=86 velocity=21 time=0\n",
      "note_on channel=0 note=89 velocity=24 time=0\n",
      "note_on channel=0 note=98 velocity=33 time=0\n",
      "note_on channel=0 note=99 velocity=36 time=0\n",
      "note_on channel=0 note=101 velocity=30 time=0\n",
      "note_off channel=0 note=68 velocity=64 time=1\n",
      "note_on channel=0 note=68 velocity=31 time=1\n",
      "note_off channel=0 note=82 velocity=64 time=0\n",
      "note_off channel=0 note=93 velocity=64 time=0\n",
      "note_on channel=0 note=94 velocity=63 time=0\n",
      "note_on channel=0 note=97 velocity=48 time=1\n",
      "note_off channel=0 note=73 velocity=64 time=1\n",
      "note_off channel=0 note=89 velocity=64 time=0\n",
      "note_off channel=0 note=96 velocity=64 time=0\n",
      "note_off channel=0 note=86 velocity=64 time=2\n",
      "note_on channel=0 note=87 velocity=26 time=0\n",
      "note_on channel=0 note=89 velocity=48 time=0\n",
      "note_on channel=0 note=103 velocity=15 time=0\n",
      "note_off channel=0 note=88 velocity=64 time=1\n",
      "note_on channel=0 note=96 velocity=50 time=0\n",
      "note_off channel=0 note=90 velocity=64 time=1\n",
      "note_on channel=0 note=91 velocity=27 time=0\n",
      "note_off channel=0 note=97 velocity=64 time=0\n",
      "note_off channel=0 note=96 velocity=64 time=1\n",
      "note_on channel=0 note=97 velocity=56 time=0\n",
      "note_off channel=0 note=103 velocity=64 time=0\n",
      "note_off channel=0 note=94 velocity=64 time=3\n",
      "note_off channel=0 note=99 velocity=64 time=1\n",
      "note_on channel=0 note=96 velocity=20 time=3\n",
      "note_off channel=0 note=97 velocity=64 time=0\n",
      "note_off channel=0 note=101 velocity=64 time=0\n",
      "note_off channel=0 note=76 velocity=64 time=1\n",
      "note_off channel=0 note=100 velocity=64 time=0\n",
      "note_on channel=0 note=90 velocity=17 time=1\n",
      "note_off channel=0 note=95 velocity=64 time=0\n",
      "note_off channel=0 note=98 velocity=64 time=0\n",
      "note_off channel=0 note=96 velocity=64 time=2\n",
      "note_on channel=0 note=102 velocity=17 time=0\n",
      "note_off channel=0 note=71 velocity=64 time=2\n",
      "note_on channel=0 note=72 velocity=30 time=0\n",
      "note_off channel=0 note=90 velocity=64 time=0\n",
      "note_on channel=0 note=93 velocity=22 time=0\n",
      "note_off channel=0 note=52 velocity=64 time=1\n",
      "note_on channel=0 note=53 velocity=79 time=0\n",
      "note_off channel=0 note=68 velocity=64 time=0\n",
      "note_off channel=0 note=53 velocity=64 time=1\n",
      "note_on channel=0 note=54 velocity=72 time=0\n",
      "note_on channel=0 note=67 velocity=74 time=0\n",
      "note_on channel=0 note=74 velocity=42 time=0\n",
      "note_off channel=0 note=87 velocity=64 time=0\n",
      "note_on channel=0 note=95 velocity=55 time=0\n",
      "note_on channel=0 note=97 velocity=41 time=0\n",
      "note_off channel=0 note=54 velocity=64 time=1\n",
      "note_on channel=0 note=55 velocity=66 time=0\n",
      "note_off channel=0 note=72 velocity=64 time=0\n",
      "note_on channel=0 note=73 velocity=54 time=0\n",
      "note_on channel=0 note=82 velocity=60 time=0\n",
      "note_on channel=0 note=87 velocity=52 time=0\n",
      "note_on channel=0 note=90 velocity=62 time=0\n",
      "note_on channel=0 note=62 velocity=79 time=1\n",
      "note_off channel=0 note=63 velocity=64 time=0\n",
      "note_off channel=0 note=67 velocity=64 time=0\n",
      "note_on channel=0 note=68 velocity=82 time=0\n",
      "note_off channel=0 note=74 velocity=64 time=0\n",
      "note_on channel=0 note=75 velocity=74 time=0\n",
      "note_on channel=0 note=77 velocity=51 time=0\n",
      "note_off channel=0 note=80 velocity=64 time=0\n",
      "note_off channel=0 note=91 velocity=64 time=0\n",
      "note_off channel=0 note=93 velocity=64 time=0\n",
      "note_on channel=0 note=94 velocity=63 time=0\n",
      "note_on channel=0 note=98 velocity=12 time=0\n",
      "note_on channel=0 note=100 velocity=35 time=0\n",
      "note_off channel=0 note=55 velocity=64 time=1\n",
      "note_on channel=0 note=56 velocity=70 time=0\n",
      "note_off channel=0 note=73 velocity=64 time=0\n",
      "note_on channel=0 note=80 velocity=91 time=0\n",
      "note_on channel=0 note=83 velocity=46 time=0\n",
      "note_on channel=0 note=84 velocity=72 time=0\n",
      "note_off channel=0 note=102 velocity=64 time=0\n",
      "note_on channel=0 note=103 velocity=16 time=0\n",
      "note_off channel=0 note=62 velocity=64 time=1\n",
      "note_on channel=0 note=63 velocity=86 time=0\n",
      "note_off channel=0 note=82 velocity=64 time=0\n",
      "note_on channel=0 note=91 velocity=33 time=1\n",
      "note_off channel=0 note=98 velocity=64 time=0\n",
      "note_on channel=0 note=73 velocity=22 time=1\n",
      "note_off channel=0 note=89 velocity=64 time=0\n",
      "note_off channel=0 note=95 velocity=64 time=0\n",
      "note_off channel=0 note=97 velocity=64 time=0\n",
      "note_off channel=0 note=83 velocity=64 time=4\n",
      "note_off channel=0 note=91 velocity=64 time=0\n",
      "note_off channel=0 note=103 velocity=64 time=0\n",
      "note_off channel=0 note=73 velocity=64 time=2\n",
      "note_off channel=0 note=100 velocity=64 time=0\n",
      "note_on channel=0 note=83 velocity=54 time=2\n",
      "note_on channel=0 note=91 velocity=32 time=0\n",
      "note_off channel=0 note=94 velocity=64 time=4\n",
      "note_on channel=0 note=55 velocity=64 time=1\n",
      "note_off channel=0 note=56 velocity=64 time=0\n",
      "note_off channel=0 note=68 velocity=64 time=0\n",
      "note_on channel=0 note=73 velocity=26 time=0\n",
      "note_off channel=0 note=91 velocity=64 time=0\n",
      "note_on channel=0 note=71 velocity=15 time=1\n",
      "note_on channel=0 note=68 velocity=24 time=1\n",
      "note_off channel=0 note=55 velocity=64 time=1\n",
      "note_on channel=0 note=56 velocity=53 time=0\n",
      "note_off channel=0 note=73 velocity=64 time=0\n",
      "note_off channel=0 note=84 velocity=64 time=1\n",
      "note_off channel=0 note=90 velocity=64 time=0\n",
      "note_on channel=0 note=91 velocity=55 time=0\n",
      "note_on channel=0 note=55 velocity=32 time=4\n",
      "note_off channel=0 note=56 velocity=64 time=0\n",
      "note_on channel=0 note=89 velocity=72 time=0\n",
      "note_off channel=0 note=68 velocity=64 time=1\n",
      "note_off channel=0 note=75 velocity=64 time=0\n",
      "note_off channel=0 note=55 velocity=64 time=2\n",
      "note_off channel=0 note=71 velocity=64 time=0\n",
      "note_on channel=0 note=84 velocity=68 time=0\n",
      "note_on channel=0 note=56 velocity=60 time=1\n",
      "note_on channel=0 note=68 velocity=76 time=0\n",
      "note_on channel=0 note=73 velocity=44 time=0\n",
      "note_on channel=0 note=100 velocity=32 time=0\n",
      "note_on channel=0 note=102 velocity=22 time=0\n",
      "note_on channel=0 note=90 velocity=68 time=1\n",
      "note_on channel=0 note=94 velocity=35 time=0\n",
      "note_on channel=0 note=71 velocity=19 time=1\n",
      "note_off channel=0 note=77 velocity=64 time=1\n",
      "note_off channel=0 note=102 velocity=64 time=0\n",
      "note_on channel=0 note=77 velocity=41 time=1\n",
      "note_off channel=0 note=63 velocity=64 time=4\n",
      "note_off channel=0 note=71 velocity=64 time=1\n",
      "note_on channel=0 note=98 velocity=12 time=2\n",
      "note_off channel=0 note=100 velocity=64 time=2\n",
      "note_off channel=0 note=98 velocity=64 time=3\n",
      "note_off channel=0 note=56 velocity=64 time=1\n",
      "note_on channel=0 note=57 velocity=44 time=0\n",
      "note_off channel=0 note=94 velocity=64 time=0\n",
      "note_off channel=0 note=57 velocity=64 time=2\n",
      "note_on channel=0 note=65 velocity=16 time=0\n",
      "note_on channel=0 note=71 velocity=43 time=0\n",
      "note_off channel=0 note=84 velocity=64 time=0\n",
      "note_on channel=0 note=56 velocity=48 time=1\n",
      "note_off channel=0 note=90 velocity=64 time=0\n",
      "note_off channel=0 note=68 velocity=64 time=1\n",
      "note_on channel=0 note=93 velocity=63 time=3\n",
      "note_on channel=0 note=94 velocity=33 time=0\n",
      "note_off channel=0 note=65 velocity=64 time=2\n",
      "note_on channel=0 note=84 velocity=13 time=0\n",
      "note_off channel=0 note=56 velocity=64 time=1\n",
      "note_on channel=0 note=57 velocity=65 time=0\n",
      "note_on channel=0 note=61 velocity=80 time=0\n",
      "note_on channel=0 note=69 velocity=84 time=0\n",
      "note_off channel=0 note=71 velocity=64 time=0\n",
      "note_off channel=0 note=73 velocity=64 time=0\n",
      "note_on channel=0 note=88 velocity=21 time=0\n",
      "note_off channel=0 note=89 velocity=64 time=0\n",
      "note_off channel=0 note=94 velocity=64 time=0\n",
      "note_on channel=0 note=72 velocity=44 time=1\n",
      "note_on channel=0 note=76 velocity=74 time=0\n",
      "note_off channel=0 note=77 velocity=64 time=0\n",
      "note_on channel=0 note=100 velocity=43 time=0\n",
      "note_on channel=0 note=56 velocity=69 time=1\n",
      "note_off channel=0 note=57 velocity=64 time=0\n",
      "note_off channel=0 note=84 velocity=64 time=0\n",
      "note_on channel=0 note=89 velocity=36 time=0\n",
      "note_on channel=0 note=53 velocity=63 time=1\n",
      "note_off channel=0 note=56 velocity=64 time=0\n",
      "note_on channel=0 note=57 velocity=64 time=0\n",
      "note_off channel=0 note=88 velocity=64 time=0\n",
      "note_off channel=0 note=53 velocity=64 time=2\n",
      "note_off channel=0 note=57 velocity=64 time=0\n",
      "note_on channel=0 note=58 velocity=55 time=0\n",
      "note_off channel=0 note=87 velocity=64 time=0\n",
      "note_off channel=0 note=61 velocity=64 time=1\n",
      "note_off channel=0 note=72 velocity=64 time=0\n",
      "note_on channel=0 note=57 velocity=67 time=1\n",
      "note_off channel=0 note=58 velocity=64 time=0\n",
      "note_on channel=0 note=65 velocity=30 time=1\n",
      "note_on channel=0 note=82 velocity=59 time=0\n",
      "note_off channel=0 note=89 velocity=64 time=0\n",
      "note_off channel=0 note=83 velocity=64 time=1\n",
      "note_on channel=0 note=95 velocity=18 time=0\n",
      "note_on channel=0 note=101 velocity=24 time=2\n",
      "note_off channel=0 note=95 velocity=64 time=2\n",
      "note_off channel=0 note=65 velocity=64 time=1\n",
      "note_on channel=0 note=73 velocity=34 time=0\n",
      "note_on channel=0 note=87 velocity=46 time=0\n",
      "note_on channel=0 note=65 velocity=62 time=1\n",
      "note_on channel=0 note=86 velocity=30 time=0\n",
      "note_off channel=0 note=80 velocity=64 time=1\n",
      "note_on channel=0 note=90 velocity=45 time=0\n",
      "note_off channel=0 note=91 velocity=64 time=0\n",
      "note_on channel=0 note=95 velocity=12 time=0\n",
      "note_off channel=0 note=73 velocity=64 time=1\n",
      "note_on channel=0 note=89 velocity=25 time=0\n",
      "note_on channel=0 note=61 velocity=35 time=1\n",
      "note_on channel=0 note=84 velocity=34 time=0\n",
      "note_on channel=0 note=91 velocity=45 time=0\n",
      "note_on channel=0 note=80 velocity=17 time=1\n",
      "note_off channel=0 note=86 velocity=64 time=0\n",
      "note_off channel=0 note=90 velocity=64 time=0\n",
      "note_off channel=0 note=95 velocity=64 time=0\n",
      "note_off channel=0 note=61 velocity=64 time=1\n",
      "note_off channel=0 note=84 velocity=64 time=0\n",
      "note_on channel=0 note=85 velocity=31 time=0\n",
      "note_off channel=0 note=89 velocity=64 time=1\n",
      "note_on channel=0 note=86 velocity=22 time=1\n",
      "note_on channel=0 note=95 velocity=24 time=0\n",
      "note_on channel=0 note=83 velocity=55 time=1\n",
      "note_on channel=0 note=84 velocity=15 time=0\n",
      "note_off channel=0 note=80 velocity=64 time=1\n",
      "note_off channel=0 note=82 velocity=64 time=0\n",
      "note_on channel=0 note=73 velocity=16 time=2\n",
      "note_off channel=0 note=86 velocity=64 time=0\n",
      "note_off channel=0 note=95 velocity=64 time=0\n",
      "note_on channel=0 note=80 velocity=47 time=1\n",
      "note_on channel=0 note=90 velocity=46 time=0\n",
      "note_off channel=0 note=91 velocity=64 time=0\n",
      "note_off channel=0 note=57 velocity=64 time=1\n",
      "note_on channel=0 note=61 velocity=30 time=0\n",
      "note_on channel=0 note=67 velocity=63 time=0\n",
      "note_off channel=0 note=100 velocity=64 time=0\n",
      "note_off channel=0 note=101 velocity=64 time=0\n",
      "note_on channel=0 note=55 velocity=55 time=1\n",
      "note_off channel=0 note=69 velocity=64 time=0\n",
      "note_off channel=0 note=67 velocity=64 time=1\n",
      "note_on channel=0 note=68 velocity=74 time=0\n",
      "note_on channel=0 note=75 velocity=71 time=0\n",
      "note_off channel=0 note=76 velocity=64 time=0\n",
      "note_off channel=0 note=84 velocity=64 time=0\n",
      "note_on channel=0 note=91 velocity=31 time=0\n",
      "note_on channel=0 note=92 velocity=51 time=0\n",
      "note_on channel=0 note=94 velocity=41 time=0\n",
      "note_off channel=0 note=55 velocity=64 time=1\n",
      "note_on channel=0 note=56 velocity=62 time=0\n",
      "note_off channel=0 note=61 velocity=64 time=0\n",
      "note_off channel=0 note=73 velocity=64 time=0\n",
      "note_on channel=0 note=101 velocity=25 time=0\n",
      "note_on channel=0 note=45 velocity=77 time=1\n",
      "note_on channel=0 note=64 velocity=82 time=0\n",
      "note_off channel=0 note=65 velocity=64 time=0\n",
      "note_on channel=0 note=73 velocity=63 time=0\n",
      "note_on channel=0 note=77 velocity=41 time=0\n",
      "note_off channel=0 note=93 velocity=64 time=0\n",
      "note_on channel=0 note=96 velocity=29 time=0\n",
      "note_on channel=0 note=55 velocity=61 time=1\n",
      "note_off channel=0 note=56 velocity=64 time=0\n",
      "note_on channel=0 note=84 velocity=56 time=0\n",
      "note_on channel=0 note=89 velocity=50 time=0\n",
      "note_off channel=0 note=91 velocity=64 time=0\n",
      "note_on channel=0 note=44 velocity=78 time=1\n",
      "note_off channel=0 note=45 velocity=64 time=0\n",
      "note_on channel=0 note=63 velocity=70 time=0\n",
      "note_off channel=0 note=64 velocity=64 time=0\n",
      "note_off channel=0 note=55 velocity=64 time=1\n",
      "note_off channel=0 note=85 velocity=64 time=0\n",
      "note_on channel=0 note=91 velocity=29 time=0\n",
      "note_off channel=0 note=101 velocity=64 time=0\n",
      "note_off channel=0 note=44 velocity=64 time=2\n",
      "note_on channel=0 note=45 velocity=77 time=0\n",
      "note_off channel=0 note=63 velocity=64 time=0\n",
      "note_on channel=0 note=78 velocity=23 time=1\n",
      "note_on channel=0 note=44 velocity=70 time=1\n",
      "note_off channel=0 note=45 velocity=64 time=0\n",
      "note_off channel=0 note=77 velocity=64 time=0\n",
      "note_on channel=0 note=55 velocity=74 time=1\n",
      "note_on channel=0 note=61 velocity=59 time=0\n",
      "note_on channel=0 note=77 velocity=32 time=0\n",
      "note_on channel=0 note=93 velocity=17 time=0\n",
      "note_off channel=0 note=94 velocity=64 time=0\n",
      "note_off channel=0 note=44 velocity=64 time=1\n",
      "note_off channel=0 note=68 velocity=64 time=0\n",
      "note_off channel=0 note=78 velocity=64 time=0\n",
      "note_on channel=0 note=42 velocity=60 time=1\n",
      "note_on channel=0 note=66 velocity=49 time=0\n",
      "note_off channel=0 note=91 velocity=64 time=1\n",
      "note_off channel=0 note=93 velocity=64 time=0\n",
      "note_on channel=0 note=94 velocity=13 time=0\n",
      "note_off channel=0 note=96 velocity=64 time=0\n",
      "note_on channel=0 note=54 velocity=66 time=1\n",
      "note_off channel=0 note=55 velocity=64 time=0\n",
      "note_off channel=0 note=77 velocity=64 time=0\n",
      "note_on channel=0 note=91 velocity=27 time=0\n",
      "note_off channel=0 note=42 velocity=64 time=1\n",
      "note_off channel=0 note=75 velocity=64 time=1\n",
      "note_off channel=0 note=54 velocity=64 time=1\n",
      "note_on channel=0 note=77 velocity=26 time=0\n",
      "note_on channel=0 note=48 velocity=74 time=1\n",
      "note_on channel=0 note=82 velocity=44 time=0\n",
      "note_off channel=0 note=83 velocity=64 time=0\n",
      "note_off channel=0 note=94 velocity=64 time=0\n",
      "note_on channel=0 note=47 velocity=76 time=1\n",
      "note_off channel=0 note=48 velocity=64 time=0\n",
      "note_on channel=0 note=65 velocity=34 time=0\n",
      "note_off channel=0 note=66 velocity=64 time=0\n",
      "note_on channel=0 note=68 velocity=33 time=0\n",
      "note_off channel=0 note=47 velocity=64 time=1\n",
      "note_on channel=0 note=48 velocity=72 time=0\n",
      "note_on channel=0 note=53 velocity=67 time=0\n",
      "note_on channel=0 note=72 velocity=43 time=0\n",
      "note_off channel=0 note=73 velocity=64 time=0\n",
      "note_off channel=0 note=77 velocity=64 time=0\n",
      "note_on channel=0 note=78 velocity=26 time=0\n",
      "note_off channel=0 note=48 velocity=64 time=1\n",
      "note_on channel=0 note=50 velocity=82 time=0\n",
      "note_off channel=0 note=53 velocity=64 time=0\n",
      "note_off channel=0 note=50 velocity=64 time=1\n",
      "note_on channel=0 note=52 velocity=82 time=0\n",
      "note_on channel=0 note=64 velocity=83 time=0\n",
      "note_off channel=0 note=65 velocity=64 time=0\n",
      "note_off channel=0 note=68 velocity=64 time=0\n",
      "note_on channel=0 note=71 velocity=43 time=0\n",
      "note_off channel=0 note=72 velocity=64 time=0\n",
      "note_on channel=0 note=75 velocity=20 time=0\n",
      "note_on channel=0 note=77 velocity=47 time=0\n",
      "note_on channel=0 note=86 velocity=21 time=0\n",
      "note_off channel=0 note=52 velocity=64 time=1\n",
      "note_on channel=0 note=53 velocity=82 time=0\n",
      "note_off channel=0 note=61 velocity=64 time=0\n",
      "note_off channel=0 note=78 velocity=64 time=1\n",
      "note_off channel=0 note=53 velocity=64 time=1\n",
      "note_on channel=0 note=53 velocity=72 time=2\n",
      "note_on channel=0 note=93 velocity=14 time=0\n",
      "note_on channel=0 note=52 velocity=75 time=1\n",
      "note_off channel=0 note=53 velocity=64 time=0\n",
      "note_off channel=0 note=84 velocity=64 time=0\n",
      "note_off channel=0 note=75 velocity=64 time=1\n",
      "note_off channel=0 note=86 velocity=64 time=0\n",
      "note_off channel=0 note=89 velocity=64 time=0\n",
      "note_on channel=0 note=70 velocity=59 time=1\n",
      "note_off channel=0 note=71 velocity=64 time=0\n",
      "note_off channel=0 note=82 velocity=64 time=0\n",
      "note_on channel=0 note=51 velocity=72 time=1\n",
      "note_off channel=0 note=52 velocity=64 time=0\n",
      "note_on channel=0 note=79 velocity=46 time=0\n",
      "note_off channel=0 note=80 velocity=64 time=0\n",
      "note_on channel=0 note=81 velocity=34 time=0\n",
      "note_on channel=0 note=45 velocity=75 time=1\n",
      "note_off channel=0 note=51 velocity=64 time=0\n",
      "note_on channel=0 note=84 velocity=19 time=0\n",
      "note_on channel=0 note=86 velocity=21 time=0\n",
      "note_on channel=0 note=44 velocity=79 time=1\n",
      "note_off channel=0 note=45 velocity=64 time=0\n",
      "note_on channel=0 note=63 velocity=72 time=0\n",
      "note_off channel=0 note=64 velocity=64 time=0\n",
      "note_off channel=0 note=81 velocity=64 time=0\n",
      "note_off channel=0 note=92 velocity=64 time=0\n",
      "note_off channel=0 note=79 velocity=64 time=1\n",
      "note_on channel=0 note=80 velocity=86 time=0\n",
      "note_on channel=0 note=88 velocity=32 time=0\n",
      "note_off channel=0 note=86 velocity=64 time=1\n",
      "note_on channel=0 note=52 velocity=36 time=1\n",
      "note_on channel=0 note=61 velocity=74 time=0\n",
      "note_off channel=0 note=63 velocity=64 time=0\n",
      "note_on channel=0 note=68 velocity=32 time=0\n",
      "note_off channel=0 note=70 velocity=64 time=0\n",
      "note_on channel=0 note=71 velocity=50 time=0\n",
      "note_on channel=0 note=83 velocity=52 time=0\n",
      "note_on channel=0 note=64 velocity=50 time=1\n",
      "note_off channel=0 note=84 velocity=64 time=0\n",
      "note_on channel=0 note=86 velocity=35 time=0\n",
      "note_off channel=0 note=44 velocity=64 time=1\n",
      "note_off channel=0 note=52 velocity=64 time=0\n",
      "note_on channel=0 note=51 velocity=67 time=1\n",
      "note_off channel=0 note=71 velocity=64 time=0\n",
      "note_off channel=0 note=77 velocity=64 time=0\n",
      "note_off channel=0 note=91 velocity=64 time=0\n",
      "note_off channel=0 note=51 velocity=64 time=1\n",
      "note_on channel=0 note=52 velocity=71 time=0\n",
      "note_off channel=0 note=64 velocity=64 time=0\n",
      "note_off channel=0 note=68 velocity=64 time=0\n",
      "note_on channel=0 note=71 velocity=60 time=0\n",
      "note_on channel=0 note=77 velocity=38 time=0\n",
      "note_off channel=0 note=93 velocity=64 time=0\n",
      "note_on channel=0 note=43 velocity=61 time=1\n",
      "note_off channel=0 note=90 velocity=64 time=0\n",
      "note_on channel=0 note=68 velocity=15 time=1\n",
      "note_on channel=0 note=90 velocity=35 time=0\n",
      "note_on channel=0 note=42 velocity=58 time=2\n",
      "note_off channel=0 note=43 velocity=64 time=0\n",
      "note_on channel=0 note=84 velocity=20 time=0\n",
      "note_on channel=0 note=94 velocity=11 time=0\n",
      "note_off channel=0 note=68 velocity=64 time=3\n",
      "note_off channel=0 note=94 velocity=64 time=1\n",
      "note_off channel=0 note=86 velocity=64 time=2\n",
      "note_off channel=0 note=88 velocity=64 time=0\n",
      "note_on channel=0 note=93 velocity=33 time=1\n",
      "note_on channel=0 note=82 velocity=55 time=1\n",
      "note_on channel=0 note=86 velocity=28 time=0\n",
      "note_on channel=0 note=70 velocity=32 time=1\n",
      "note_off channel=0 note=71 velocity=64 time=0\n",
      "note_off channel=0 note=83 velocity=64 time=0\n",
      "note_off channel=0 note=42 velocity=64 time=1\n",
      "note_off channel=0 note=52 velocity=64 time=0\n",
      "note_on channel=0 note=68 velocity=16 time=0\n",
      "note_on channel=0 note=42 velocity=51 time=1\n",
      "note_off channel=0 note=70 velocity=64 time=0\n",
      "note_on channel=0 note=53 velocity=46 time=1\n",
      "note_on channel=0 note=70 velocity=47 time=0\n",
      "note_on channel=0 note=75 velocity=46 time=0\n",
      "note_off channel=0 note=68 velocity=64 time=1\n",
      "note_off channel=0 note=86 velocity=64 time=0\n",
      "note_on channel=0 note=95 velocity=51 time=0\n",
      "note_off channel=0 note=42 velocity=64 time=1\n",
      "note_on channel=0 note=52 velocity=65 time=0\n",
      "note_off channel=0 note=53 velocity=64 time=0\n",
      "note_on channel=0 note=96 velocity=57 time=0\n",
      "note_on channel=0 note=47 velocity=68 time=1\n",
      "note_off channel=0 note=70 velocity=64 time=0\n",
      "note_on channel=0 note=78 velocity=36 time=0\n",
      "note_on channel=0 note=88 velocity=38 time=0\n",
      "note_on channel=0 note=89 velocity=69 time=0\n",
      "note_on channel=0 note=98 velocity=46 time=0\n",
      "note_on channel=0 note=100 velocity=40 time=0\n",
      "note_off channel=0 note=77 velocity=64 time=1\n",
      "note_off channel=0 note=84 velocity=64 time=0\n",
      "note_off channel=0 note=90 velocity=64 time=0\n",
      "note_on channel=0 note=102 velocity=20 time=0\n",
      "note_off channel=0 note=47 velocity=64 time=1\n",
      "note_on channel=0 note=48 velocity=85 time=0\n",
      "note_off channel=0 note=52 velocity=64 time=0\n",
      "note_on channel=0 note=84 velocity=30 time=0\n",
      "note_on channel=0 note=91 velocity=15 time=0\n",
      "note_on channel=0 note=71 velocity=47 time=1\n",
      "note_off channel=0 note=75 velocity=64 time=0\n",
      "note_on channel=0 note=76 velocity=30 time=0\n",
      "note_off channel=0 note=61 velocity=64 time=1\n",
      "note_off channel=0 note=48 velocity=64 time=1\n",
      "note_on channel=0 note=51 velocity=71 time=0\n",
      "note_on channel=0 note=64 velocity=60 time=0\n",
      "note_off channel=0 note=88 velocity=64 time=0\n",
      "note_off channel=0 note=51 velocity=64 time=1\n",
      "note_on channel=0 note=52 velocity=67 time=0\n",
      "note_off channel=0 note=78 velocity=64 time=0\n",
      "note_off channel=0 note=102 velocity=64 time=1\n",
      "note_on channel=0 note=51 velocity=73 time=1\n",
      "note_off channel=0 note=52 velocity=64 time=0\n",
      "note_on channel=0 note=90 velocity=21 time=0\n",
      "note_off channel=0 note=91 velocity=64 time=0\n",
      "note_off channel=0 note=96 velocity=64 time=0\n",
      "note_on channel=0 note=97 velocity=42 time=0\n",
      "note_on channel=0 note=68 velocity=13 time=1\n",
      "note_off channel=0 note=71 velocity=64 time=0\n",
      "note_off channel=0 note=82 velocity=64 time=0\n",
      "note_off channel=0 note=51 velocity=64 time=1\n",
      "note_on channel=0 note=52 velocity=72 time=0\n",
      "note_on channel=0 note=82 velocity=32 time=0\n",
      "note_on channel=0 note=71 velocity=40 time=1\n",
      "note_off channel=0 note=95 velocity=64 time=0\n",
      "note_on channel=0 note=96 velocity=33 time=0\n",
      "note_off channel=0 note=97 velocity=64 time=0\n",
      "note_off channel=0 note=68 velocity=64 time=1\n",
      "note_on channel=0 note=44 velocity=40 time=1\n",
      "note_on channel=0 note=75 velocity=52 time=0\n",
      "note_off channel=0 note=76 velocity=64 time=0\n",
      "note_off channel=0 note=89 velocity=64 time=0\n",
      "note_off channel=0 note=93 velocity=64 time=0\n",
      "note_on channel=0 note=68 velocity=31 time=1\n",
      "note_on channel=0 note=88 velocity=39 time=0\n",
      "note_off channel=0 note=64 velocity=64 time=1\n",
      "note_on channel=0 note=65 velocity=43 time=0\n",
      "note_off channel=0 note=71 velocity=64 time=0\n",
      "note_off channel=0 note=82 velocity=64 time=0\n",
      "note_off channel=0 note=96 velocity=64 time=0\n",
      "note_on channel=0 note=71 velocity=43 time=1\n",
      "note_on channel=0 note=43 velocity=29 time=1\n",
      "note_off channel=0 note=44 velocity=64 time=0\n",
      "note_on channel=0 note=93 velocity=17 time=0\n",
      "note_off channel=0 note=43 velocity=64 time=2\n",
      "note_off channel=0 note=98 velocity=64 time=0\n",
      "note_off channel=0 note=100 velocity=64 time=0\n",
      "note_off channel=0 note=52 velocity=64 time=2\n",
      "note_on channel=0 note=52 velocity=49 time=1\n",
      "note_off channel=0 note=84 velocity=64 time=2\n",
      "note_off channel=0 note=52 velocity=64 time=1\n",
      "note_on channel=0 note=82 velocity=33 time=2\n",
      "note_off channel=0 note=90 velocity=64 time=0\n",
      "note_off channel=0 note=93 velocity=64 time=0\n",
      "note_on channel=0 note=53 velocity=33 time=1\n",
      "note_on channel=0 note=73 velocity=22 time=0\n",
      "note_off channel=0 note=53 velocity=64 time=2\n",
      "note_on channel=0 note=61 velocity=58 time=0\n",
      "note_on channel=0 note=84 velocity=42 time=0\n",
      "note_off channel=0 note=88 velocity=64 time=0\n",
      "note_on channel=0 note=89 velocity=65 time=0\n",
      "note_on channel=0 note=102 velocity=21 time=0\n",
      "note_on channel=0 note=46 velocity=66 time=1\n",
      "note_on channel=0 note=57 velocity=39 time=0\n",
      "note_off channel=0 note=65 velocity=64 time=0\n",
      "note_off channel=0 note=68 velocity=64 time=0\n",
      "note_on channel=0 note=69 velocity=41 time=0\n",
      "note_off channel=0 note=73 velocity=64 time=0\n",
      "note_off channel=0 note=82 velocity=64 time=0\n",
      "note_on channel=0 note=91 velocity=10 time=0\n",
      "note_on channel=0 note=95 velocity=37 time=0\n",
      "note_on channel=0 note=45 velocity=76 time=1\n",
      "note_off channel=0 note=46 velocity=64 time=0\n",
      "note_off channel=0 note=61 velocity=64 time=0\n",
      "note_on channel=0 note=67 velocity=46 time=0\n",
      "note_on channel=0 note=73 velocity=63 time=0\n",
      "note_on channel=0 note=82 velocity=29 time=0\n",
      "note_on channel=0 note=44 velocity=78 time=1\n",
      "note_off channel=0 note=45 velocity=64 time=0\n",
      "note_off channel=0 note=57 velocity=64 time=0\n",
      "note_off channel=0 note=102 velocity=64 time=0\n",
      "note_on channel=0 note=62 velocity=35 time=2\n",
      "note_off channel=0 note=67 velocity=64 time=0\n",
      "note_off channel=0 note=69 velocity=64 time=0\n",
      "note_off channel=0 note=82 velocity=64 time=0\n",
      "note_off channel=0 note=84 velocity=64 time=0\n",
      "note_off channel=0 note=87 velocity=64 time=0\n",
      "note_on channel=0 note=88 velocity=35 time=0\n",
      "note_on channel=0 note=43 velocity=74 time=1\n",
      "note_off channel=0 note=44 velocity=64 time=0\n",
      "note_on channel=0 note=65 velocity=37 time=0\n",
      "note_on channel=0 note=68 velocity=68 time=0\n",
      "note_off channel=0 note=75 velocity=64 time=0\n",
      "note_on channel=0 note=87 velocity=11 time=0\n",
      "note_on channel=0 note=82 velocity=37 time=1\n",
      "note_on channel=0 note=90 velocity=17 time=0\n",
      "note_off channel=0 note=95 velocity=64 time=0\n",
      "note_on channel=0 note=53 velocity=29 time=1\n",
      "note_on channel=0 note=84 velocity=11 time=0\n",
      "note_off channel=0 note=43 velocity=64 time=1\n",
      "note_on channel=0 note=75 velocity=30 time=0\n",
      "note_off channel=0 note=89 velocity=64 time=0\n",
      "note_on channel=0 note=43 velocity=54 time=1\n",
      "note_off channel=0 note=53 velocity=64 time=0\n",
      "note_on channel=0 note=54 velocity=14 time=0\n",
      "note_off channel=0 note=82 velocity=64 time=1\n",
      "note_off channel=0 note=84 velocity=64 time=0\n",
      "note_off channel=0 note=62 velocity=64 time=1\n",
      "note_on channel=0 note=82 velocity=37 time=0\n",
      "note_off channel=0 note=43 velocity=64 time=1\n",
      "note_on channel=0 note=44 velocity=30 time=0\n",
      "note_on channel=0 note=93 velocity=43 time=0\n",
      "note_off channel=0 note=54 velocity=64 time=1\n",
      "note_off channel=0 note=91 velocity=64 time=1\n",
      "note_off channel=0 note=44 velocity=64 time=1\n",
      "note_off channel=0 note=87 velocity=64 time=0\n",
      "note_off channel=0 note=90 velocity=64 time=5\n",
      "note_on channel=0 note=49 velocity=79 time=3\n",
      "note_off channel=0 note=88 velocity=64 time=2\n",
      "note_on channel=0 note=89 velocity=50 time=0\n",
      "note_on channel=0 note=90 velocity=51 time=0\n",
      "note_on channel=0 note=64 velocity=83 time=3\n",
      "note_off channel=0 note=65 velocity=64 time=0\n",
      "note_off channel=0 note=75 velocity=64 time=0\n",
      "note_on channel=0 note=83 velocity=45 time=0\n",
      "note_on channel=0 note=96 velocity=38 time=0\n",
      "note_on channel=0 note=57 velocity=44 time=1\n",
      "note_on channel=0 note=60 velocity=74 time=0\n",
      "note_off channel=0 note=71 velocity=64 time=0\n",
      "note_off channel=0 note=82 velocity=64 time=0\n",
      "note_on channel=0 note=48 velocity=84 time=1\n",
      "note_off channel=0 note=49 velocity=64 time=0\n",
      "note_off channel=0 note=60 velocity=64 time=0\n",
      "note_on channel=0 note=71 velocity=37 time=0\n",
      "note_on channel=0 note=87 velocity=21 time=0\n",
      "note_on channel=0 note=45 velocity=75 time=1\n",
      "note_off channel=0 note=48 velocity=64 time=0\n",
      "note_on channel=0 note=49 velocity=70 time=0\n",
      "note_on channel=0 note=61 velocity=81 time=0\n",
      "note_on channel=0 note=63 velocity=76 time=0\n",
      "note_off channel=0 note=64 velocity=64 time=0\n",
      "note_on channel=0 note=43 velocity=80 time=1\n",
      "note_off channel=0 note=45 velocity=64 time=0\n",
      "note_off channel=0 note=49 velocity=64 time=0\n",
      "note_off channel=0 note=57 velocity=64 time=0\n",
      "note_off channel=0 note=63 velocity=64 time=0\n",
      "note_off channel=0 note=90 velocity=64 time=0\n",
      "note_on channel=0 note=91 velocity=59 time=0\n",
      "note_on channel=0 note=98 velocity=9 time=0\n",
      "note_off channel=0 note=43 velocity=64 time=1\n",
      "note_on channel=0 note=44 velocity=79 time=0\n",
      "note_off channel=0 note=93 velocity=64 time=0\n",
      "note_on channel=0 note=94 velocity=47 time=0\n",
      "note_on channel=0 note=43 velocity=76 time=1\n",
      "note_off channel=0 note=44 velocity=64 time=0\n",
      "note_on channel=0 note=49 velocity=73 time=0\n",
      "note_off channel=0 note=87 velocity=64 time=0\n",
      "note_off channel=0 note=43 velocity=64 time=1\n",
      "note_on channel=0 note=48 velocity=84 time=0\n",
      "note_off channel=0 note=49 velocity=64 time=0\n",
      "note_on channel=0 note=65 velocity=53 time=0\n",
      "note_on channel=0 note=90 velocity=43 time=0\n",
      "note_on channel=0 note=93 velocity=56 time=0\n",
      "note_off channel=0 note=94 velocity=64 time=0\n",
      "note_off channel=0 note=98 velocity=64 time=0\n",
      "note_off channel=0 note=71 velocity=64 time=1\n",
      "note_off channel=0 note=91 velocity=64 time=0\n",
      "note_off channel=0 note=48 velocity=64 time=1\n",
      "note_on channel=0 note=49 velocity=75 time=0\n",
      "note_on channel=0 note=94 velocity=49 time=0\n",
      "note_on channel=0 note=100 velocity=17 time=0\n",
      "note_on channel=0 note=98 velocity=19 time=1\n",
      "note_on channel=0 note=48 velocity=72 time=1\n",
      "note_off channel=0 note=49 velocity=64 time=0\n",
      "note_off channel=0 note=48 velocity=64 time=1\n",
      "note_on channel=0 note=49 velocity=73 time=0\n",
      "note_off channel=0 note=61 velocity=64 time=1\n",
      "note_on channel=0 note=91 velocity=39 time=0\n",
      "note_off channel=0 note=68 velocity=64 time=1\n",
      "note_on channel=0 note=69 velocity=60 time=0\n",
      "note_on channel=0 note=84 velocity=20 time=0\n",
      "note_on channel=0 note=99 velocity=14 time=0\n",
      "note_off channel=0 note=49 velocity=64 time=1\n",
      "note_on channel=0 note=50 velocity=81 time=0\n",
      "note_off channel=0 note=73 velocity=64 time=0\n",
      "note_on channel=0 note=75 velocity=66 time=0\n",
      "note_off channel=0 note=91 velocity=64 time=0\n",
      "note_on channel=0 note=61 velocity=54 time=1\n",
      "note_off channel=0 note=69 velocity=64 time=0\n",
      "note_on channel=0 note=70 velocity=53 time=0\n",
      "note_on channel=0 note=91 velocity=35 time=0\n",
      "note_on channel=0 note=48 velocity=77 time=1\n",
      "note_off channel=0 note=50 velocity=64 time=0\n",
      "note_on channel=0 note=53 velocity=70 time=0\n",
      "note_off channel=0 note=65 velocity=64 time=0\n",
      "note_on channel=0 note=72 velocity=67 time=0\n",
      "note_on channel=0 note=47 velocity=73 time=1\n",
      "note_off channel=0 note=48 velocity=64 time=0\n",
      "note_off channel=0 note=70 velocity=64 time=0\n",
      "note_on channel=0 note=78 velocity=23 time=0\n",
      "note_off channel=0 note=94 velocity=64 time=0\n",
      "note_off channel=0 note=53 velocity=64 time=1\n",
      "note_on channel=0 note=54 velocity=68 time=0\n",
      "note_on channel=0 note=71 velocity=44 time=0\n",
      "note_off channel=0 note=72 velocity=64 time=0\n",
      "note_on channel=0 note=73 velocity=56 time=0\n",
      "note_off channel=0 note=84 velocity=64 time=0\n",
      "note_off channel=0 note=90 velocity=64 time=0\n",
      "note_on channel=0 note=94 velocity=35 time=0\n",
      "note_off channel=0 note=98 velocity=64 time=0\n",
      "note_off channel=0 note=99 velocity=64 time=0\n",
      "note_off channel=0 note=47 velocity=64 time=1\n",
      "note_on channel=0 note=48 velocity=66 time=0\n",
      "note_on channel=0 note=65 velocity=55 time=0\n",
      "note_on channel=0 note=68 velocity=47 time=0\n",
      "note_on channel=0 note=82 velocity=23 time=0\n",
      "note_on channel=0 note=90 velocity=30 time=0\n",
      "note_off channel=0 note=91 velocity=64 time=0\n",
      "note_off channel=0 note=96 velocity=64 time=0\n",
      "note_off channel=0 note=100 velocity=64 time=0\n",
      "note_off channel=0 note=48 velocity=64 time=1\n",
      "note_on channel=0 note=53 velocity=80 time=0\n",
      "note_off channel=0 note=54 velocity=64 time=0\n",
      "note_off channel=0 note=71 velocity=64 time=0\n",
      "note_off channel=0 note=73 velocity=64 time=0\n",
      "note_on channel=0 note=77 velocity=60 time=0\n",
      "note_off channel=0 note=78 velocity=64 time=0\n",
      "note_off channel=0 note=83 velocity=64 time=0\n",
      "note_off channel=0 note=94 velocity=64 time=0\n",
      "note_off channel=0 note=68 velocity=64 time=1\n",
      "note_on channel=0 note=94 velocity=38 time=0\n",
      "note_off channel=0 note=65 velocity=64 time=1\n",
      "note_on channel=0 note=68 velocity=68 time=0\n",
      "note_off channel=0 note=53 velocity=64 time=1\n",
      "note_on channel=0 note=55 velocity=68 time=0\n",
      "note_on channel=0 note=65 velocity=50 time=0\n",
      "note_on channel=0 note=84 velocity=35 time=0\n",
      "note_off channel=0 note=93 velocity=64 time=0\n",
      "note_off channel=0 note=82 velocity=64 time=1\n",
      "note_on channel=0 note=91 velocity=36 time=0\n",
      "note_off channel=0 note=55 velocity=64 time=1\n",
      "note_on channel=0 note=56 velocity=62 time=0\n",
      "note_on channel=0 note=83 velocity=56 time=1\n",
      "note_off channel=0 note=90 velocity=64 time=0\n",
      "note_on channel=0 note=93 velocity=40 time=0\n",
      "note_on channel=0 note=54 velocity=73 time=1\n",
      "note_off channel=0 note=56 velocity=64 time=0\n",
      "note_off channel=0 note=68 velocity=64 time=0\n",
      "note_on channel=0 note=74 velocity=66 time=0\n",
      "note_on channel=0 note=90 velocity=42 time=0\n",
      "note_off channel=0 note=94 velocity=64 time=0\n",
      "note_on channel=0 note=98 velocity=17 time=0\n",
      "note_off channel=0 note=65 velocity=64 time=1\n",
      "note_on channel=0 note=73 velocity=73 time=0\n",
      "note_off channel=0 note=74 velocity=64 time=0\n",
      "note_off channel=0 note=84 velocity=64 time=0\n",
      "note_on channel=0 note=94 velocity=30 time=0\n",
      "note_off channel=0 note=61 velocity=64 time=1\n",
      "note_on channel=0 note=88 velocity=36 time=0\n",
      "note_off channel=0 note=91 velocity=64 time=0\n",
      "note_on channel=0 note=46 velocity=68 time=1\n",
      "note_on channel=0 note=53 velocity=72 time=0\n",
      "note_off channel=0 note=54 velocity=64 time=0\n",
      "note_on channel=0 note=63 velocity=82 time=0\n",
      "note_on channel=0 note=67 velocity=65 time=0\n",
      "note_on channel=0 note=72 velocity=68 time=0\n",
      "note_off channel=0 note=73 velocity=64 time=0\n",
      "note_on channel=0 note=86 velocity=30 time=0\n",
      "note_on channel=0 note=91 velocity=44 time=0\n",
      "note_on channel=0 note=45 velocity=76 time=1\n",
      "note_off channel=0 note=46 velocity=64 time=0\n",
      "note_off channel=0 note=63 velocity=64 time=0\n",
      "note_on channel=0 note=64 velocity=83 time=0\n",
      "note_on channel=0 note=85 velocity=16 time=0\n",
      "note_off channel=0 note=90 velocity=64 time=0\n",
      "note_off channel=0 note=98 velocity=64 time=0\n",
      "note_on channel=0 note=44 velocity=78 time=1\n",
      "note_off channel=0 note=45 velocity=64 time=0\n",
      "note_off channel=0 note=67 velocity=64 time=0\n",
      "note_off channel=0 note=75 velocity=64 time=0\n",
      "note_on channel=0 note=90 velocity=60 time=0\n",
      "note_off channel=0 note=93 velocity=64 time=0\n",
      "note_on channel=0 note=52 velocity=74 time=1\n",
      "note_off channel=0 note=53 velocity=64 time=0\n",
      "note_on channel=0 note=63 velocity=61 time=0\n",
      "note_off channel=0 note=64 velocity=64 time=0\n",
      "note_on channel=0 note=71 velocity=51 time=0\n",
      "note_off channel=0 note=72 velocity=64 time=0\n",
      "note_on channel=0 note=73 velocity=45 time=0\n",
      "note_on channel=0 note=76 velocity=55 time=0\n",
      "note_off channel=0 note=77 velocity=64 time=0\n",
      "note_off channel=0 note=91 velocity=64 time=0\n",
      "note_off channel=0 note=44 velocity=64 time=2\n",
      "note_on channel=0 note=45 velocity=75 time=0\n",
      "note_off channel=0 note=63 velocity=64 time=0\n",
      "note_off channel=0 note=85 velocity=64 time=0\n",
      "note_off channel=0 note=89 velocity=64 time=0\n",
      "note_on channel=0 note=65 velocity=39 time=1\n",
      "note_off channel=0 note=73 velocity=64 time=0\n",
      "note_on channel=0 note=87 velocity=49 time=0\n",
      "note_off channel=0 note=88 velocity=64 time=0\n",
      "note_on channel=0 note=44 velocity=71 time=1\n",
      "note_off channel=0 note=45 velocity=64 time=0\n",
      "note_off channel=0 note=71 velocity=64 time=0\n",
      "note_on channel=0 note=72 velocity=65 time=0\n",
      "note_on channel=0 note=91 velocity=34 time=0\n",
      "note_off channel=0 note=52 velocity=64 time=1\n",
      "note_on channel=0 note=53 velocity=73 time=0\n",
      "note_on channel=0 note=62 velocity=57 time=0\n",
      "note_off channel=0 note=65 velocity=64 time=0\n",
      "note_on channel=0 note=66 velocity=44 time=0\n",
      "note_off channel=0 note=76 velocity=64 time=0\n",
      "note_on channel=0 note=77 velocity=47 time=0\n",
      "note_on channel=0 note=81 velocity=37 time=0\n",
      "note_on channel=0 note=89 velocity=70 time=0\n",
      "note_off channel=0 note=94 velocity=64 time=0\n",
      "note_on channel=0 note=43 velocity=62 time=1\n",
      "note_off channel=0 note=44 velocity=64 time=0\n",
      "note_on channel=0 note=85 velocity=39 time=0\n",
      "note_off channel=0 note=53 velocity=64 time=1\n",
      "note_off channel=0 note=72 velocity=64 time=0\n",
      "note_on channel=0 note=73 velocity=50 time=0\n",
      "note_off channel=0 note=81 velocity=64 time=0\n",
      "note_off channel=0 note=86 velocity=64 time=0\n",
      "note_off channel=0 note=91 velocity=64 time=0\n",
      "note_off channel=0 note=43 velocity=64 time=1\n",
      "note_on channel=0 note=55 velocity=74 time=0\n",
      "note_on channel=0 note=61 velocity=60 time=1\n",
      "note_off channel=0 note=62 velocity=64 time=0\n",
      "note_off channel=0 note=66 velocity=64 time=0\n",
      "note_on channel=0 note=71 velocity=24 time=0\n",
      "note_on channel=0 note=91 velocity=36 time=0\n",
      "note_on channel=0 note=75 velocity=33 time=1\n",
      "note_off channel=0 note=90 velocity=64 time=0\n",
      "note_on channel=0 note=48 velocity=65 time=1\n",
      "note_on channel=0 note=68 velocity=63 time=1\n",
      "note_off channel=0 note=85 velocity=64 time=0\n",
      "note_on channel=0 note=47 velocity=71 time=1\n",
      "note_off channel=0 note=48 velocity=64 time=0\n",
      "note_off channel=0 note=55 velocity=64 time=0\n",
      "note_on channel=0 note=56 velocity=61 time=0\n",
      "note_off channel=0 note=71 velocity=64 time=1\n",
      "note_off channel=0 note=47 velocity=64 time=1\n",
      "note_on channel=0 note=48 velocity=67 time=0\n",
      "note_on channel=0 note=55 velocity=72 time=0\n",
      "note_off channel=0 note=56 velocity=64 time=0\n",
      "note_on channel=0 note=71 velocity=18 time=0\n",
      "note_off channel=0 note=75 velocity=64 time=0\n",
      "note_on channel=0 note=86 velocity=45 time=0\n",
      "note_off channel=0 note=48 velocity=64 time=1\n",
      "note_on channel=0 note=54 velocity=77 time=0\n",
      "note_off channel=0 note=55 velocity=64 time=0\n",
      "note_on channel=0 note=67 velocity=61 time=0\n",
      "note_off channel=0 note=68 velocity=64 time=0\n",
      "note_off channel=0 note=73 velocity=64 time=0\n",
      "note_on channel=0 note=74 velocity=50 time=0\n",
      "note_on channel=0 note=53 velocity=69 time=1\n",
      "note_off channel=0 note=54 velocity=64 time=0\n",
      "note_off channel=0 note=53 velocity=64 time=1\n",
      "note_on channel=0 note=66 velocity=52 time=0\n",
      "note_off channel=0 note=67 velocity=64 time=0\n",
      "note_on channel=0 note=85 velocity=46 time=0\n",
      "note_off channel=0 note=86 velocity=64 time=0\n",
      "note_on channel=0 note=90 velocity=46 time=0\n",
      "note_on channel=0 note=73 velocity=74 time=1\n",
      "note_off channel=0 note=74 velocity=64 time=0\n",
      "note_on channel=0 note=82 velocity=45 time=0\n",
      "note_on channel=0 note=86 velocity=36 time=0\n",
      "note_on channel=0 note=93 velocity=26 time=0\n",
      "note_off channel=0 note=71 velocity=64 time=1\n",
      "note_off channel=0 note=77 velocity=64 time=0\n",
      "note_on channel=0 note=65 velocity=43 time=1\n",
      "note_off channel=0 note=66 velocity=64 time=0\n",
      "note_off channel=0 note=82 velocity=64 time=0\n",
      "note_off channel=0 note=83 velocity=64 time=0\n",
      "note_off channel=0 note=91 velocity=64 time=0\n",
      "note_on channel=0 note=82 velocity=51 time=1\n",
      "note_off channel=0 note=86 velocity=64 time=0\n",
      "note_on channel=0 note=54 velocity=57 time=1\n",
      "note_off channel=0 note=65 velocity=64 time=0\n",
      "note_off channel=0 note=87 velocity=64 time=0\n",
      "note_on channel=0 note=96 velocity=19 time=0\n",
      "note_off channel=0 note=61 velocity=64 time=1\n",
      "note_on channel=0 note=67 velocity=61 time=0\n",
      "note_off channel=0 note=73 velocity=64 time=0\n",
      "note_on channel=0 note=74 velocity=58 time=0\n",
      "note_on channel=0 note=83 velocity=35 time=0\n",
      "note_on channel=0 note=87 velocity=35 time=0\n",
      "note_on channel=0 note=55 velocity=66 time=1\n",
      "note_on channel=0 note=64 velocity=57 time=0\n",
      "note_off channel=0 note=82 velocity=64 time=0\n",
      "note_on channel=0 note=84 velocity=39 time=0\n",
      "note_on channel=0 note=88 velocity=42 time=0\n",
      "note_on channel=0 note=48 velocity=88 time=1\n",
      "note_off channel=0 note=54 velocity=64 time=0\n",
      "note_off channel=0 note=67 velocity=64 time=0\n",
      "note_off channel=0 note=74 velocity=64 time=0\n",
      "note_on channel=0 note=75 velocity=54 time=0\n",
      "note_on channel=0 note=82 velocity=40 time=0\n",
      "note_off channel=0 note=83 velocity=64 time=0\n",
      "note_off channel=0 note=55 velocity=64 time=1\n",
      "note_on channel=0 note=69 velocity=54 time=0\n",
      "note_on channel=0 note=74 velocity=41 time=0\n",
      "note_on channel=0 note=91 velocity=34 time=0\n",
      "note_off channel=0 note=93 velocity=64 time=0\n",
      "note_on channel=0 note=63 velocity=51 time=1\n",
      "note_off channel=0 note=64 velocity=64 time=0\n",
      "note_off channel=0 note=75 velocity=64 time=0\n",
      "note_on channel=0 note=46 velocity=67 time=1\n",
      "note_off channel=0 note=48 velocity=64 time=0\n",
      "note_on channel=0 note=57 velocity=58 time=0\n",
      "note_on channel=0 note=73 velocity=33 time=0\n",
      "note_on channel=0 note=76 velocity=34 time=0\n",
      "note_off channel=0 note=84 velocity=64 time=0\n",
      "note_off channel=0 note=88 velocity=64 time=0\n",
      "note_off channel=0 note=96 velocity=64 time=0\n",
      "note_off channel=0 note=63 velocity=64 time=1\n",
      "note_on channel=0 note=65 velocity=25 time=0\n",
      "note_off channel=0 note=74 velocity=64 time=0\n",
      "note_off channel=0 note=91 velocity=64 time=0\n",
      "note_off channel=0 note=46 velocity=64 time=1\n",
      "note_on channel=0 note=47 velocity=67 time=0\n",
      "note_on channel=0 note=56 velocity=37 time=0\n",
      "note_off channel=0 note=57 velocity=64 time=0\n",
      "note_on channel=0 note=71 velocity=28 time=0\n",
      "note_off channel=0 note=90 velocity=64 time=0\n",
      "note_off channel=0 note=47 velocity=64 time=1\n",
      "note_off channel=0 note=69 velocity=64 time=0\n",
      "note_off channel=0 note=76 velocity=64 time=0\n",
      "note_on channel=0 note=45 velocity=59 time=1\n",
      "note_on channel=0 note=55 velocity=37 time=0\n",
      "note_off channel=0 note=56 velocity=64 time=0\n",
      "note_on channel=0 note=68 velocity=18 time=0\n",
      "note_off channel=0 note=87 velocity=64 time=0\n",
      "note_on channel=0 note=94 velocity=40 time=1\n",
      "note_on channel=0 note=95 velocity=48 time=0\n",
      "note_on channel=0 note=96 velocity=34 time=0\n",
      "note_off channel=0 note=55 velocity=64 time=1\n",
      "note_off channel=0 note=89 velocity=64 time=0\n",
      "note_on channel=0 note=57 velocity=63 time=1\n",
      "note_off channel=0 note=65 velocity=64 time=0\n",
      "note_off channel=0 note=68 velocity=64 time=0\n",
      "note_off channel=0 note=71 velocity=64 time=0\n",
      "note_on channel=0 note=83 velocity=36 time=0\n",
      "note_off channel=0 note=85 velocity=64 time=0\n",
      "note_on channel=0 note=44 velocity=50 time=1\n",
      "note_off channel=0 note=45 velocity=64 time=0\n",
      "note_on channel=0 note=61 velocity=29 time=0\n",
      "note_on channel=0 note=65 velocity=29 time=0\n",
      "note_on channel=0 note=69 velocity=74 time=0\n",
      "note_off channel=0 note=82 velocity=64 time=0\n",
      "note_on channel=0 note=84 velocity=33 time=0\n",
      "note_on channel=0 note=90 velocity=31 time=0\n",
      "note_on channel=0 note=98 velocity=29 time=0\n",
      "note_on channel=0 note=56 velocity=65 time=1\n",
      "note_off channel=0 note=57 velocity=64 time=0\n",
      "note_on channel=0 note=75 velocity=33 time=0\n",
      "note_off channel=0 note=94 velocity=64 time=1\n",
      "note_off channel=0 note=61 velocity=64 time=1\n",
      "note_off channel=0 note=75 velocity=64 time=0\n",
      "note_on channel=0 note=76 velocity=40 time=0\n",
      "note_on channel=0 note=93 velocity=40 time=0\n",
      "note_on channel=0 note=43 velocity=31 time=1\n",
      "note_off channel=0 note=44 velocity=64 time=0\n",
      "note_off channel=0 note=69 velocity=64 time=0\n",
      "note_on channel=0 note=89 velocity=68 time=0\n",
      "note_on channel=0 note=87 velocity=45 time=1\n",
      "note_on channel=0 note=94 velocity=59 time=0\n",
      "note_off channel=0 note=95 velocity=64 time=0\n",
      "note_on channel=0 note=42 velocity=30 time=1\n",
      "note_off channel=0 note=43 velocity=64 time=0\n",
      "note_off channel=0 note=65 velocity=64 time=0\n",
      "note_off channel=0 note=76 velocity=64 time=0\n",
      "note_on channel=0 note=77 velocity=32 time=0\n",
      "note_off channel=0 note=93 velocity=64 time=0\n",
      "note_off channel=0 note=98 velocity=64 time=0\n",
      "note_on channel=0 note=55 velocity=61 time=1\n",
      "note_off channel=0 note=56 velocity=64 time=0\n",
      "note_on channel=0 note=71 velocity=26 time=0\n",
      "note_off channel=0 note=73 velocity=64 time=0\n",
      "note_on channel=0 note=74 velocity=48 time=0\n",
      "note_off channel=0 note=84 velocity=64 time=0\n",
      "note_off channel=0 note=90 velocity=64 time=0\n",
      "note_on channel=0 note=93 velocity=34 time=0\n",
      "note_off channel=0 note=42 velocity=64 time=1\n",
      "note_on channel=0 note=43 velocity=27 time=0\n",
      "note_on channel=0 note=75 velocity=37 time=0\n",
      "note_on channel=0 note=54 velocity=70 time=1\n",
      "note_off channel=0 note=55 velocity=64 time=0\n",
      "note_on channel=0 note=73 velocity=52 time=0\n",
      "note_off channel=0 note=74 velocity=64 time=0\n",
      "note_off channel=0 note=54 velocity=64 time=1\n",
      "note_on channel=0 note=55 velocity=73 time=0\n",
      "note_off channel=0 note=75 velocity=64 time=0\n",
      "note_on channel=0 note=82 velocity=39 time=0\n",
      "note_off channel=0 note=83 velocity=64 time=0\n",
      "note_off channel=0 note=93 velocity=64 time=0\n",
      "note_on channel=0 note=97 velocity=14 time=0\n",
      "note_off channel=0 note=43 velocity=64 time=1\n",
      "note_off channel=0 note=71 velocity=64 time=0\n",
      "note_on channel=0 note=75 velocity=30 time=0\n",
      "note_on channel=0 note=91 velocity=44 time=0\n",
      "note_on channel=0 note=54 velocity=68 time=1\n",
      "note_off channel=0 note=55 velocity=64 time=0\n",
      "note_off channel=0 note=97 velocity=64 time=1\n",
      "note_off channel=0 note=96 velocity=64 time=1\n",
      "note_on channel=0 note=61 velocity=58 time=1\n",
      "note_on channel=0 note=65 velocity=60 time=0\n",
      "note_off channel=0 note=94 velocity=64 time=0\n",
      "note_on channel=0 note=53 velocity=64 time=1\n",
      "note_off channel=0 note=54 velocity=64 time=0\n",
      "note_on channel=0 note=83 velocity=58 time=0\n",
      "note_on channel=0 note=68 velocity=35 time=1\n",
      "note_on channel=0 note=72 velocity=36 time=0\n",
      "note_off channel=0 note=73 velocity=64 time=0\n",
      "note_off channel=0 note=75 velocity=64 time=0\n",
      "note_off channel=0 note=82 velocity=64 time=0\n",
      "note_on channel=0 note=84 velocity=40 time=0\n",
      "note_on channel=0 note=90 velocity=28 time=0\n",
      "note_off channel=0 note=77 velocity=64 time=1\n",
      "note_on channel=0 note=46 velocity=72 time=1\n",
      "note_off channel=0 note=53 velocity=64 time=0\n",
      "note_off channel=0 note=68 velocity=64 time=0\n",
      "note_on channel=0 note=76 velocity=48 time=0\n",
      "note_on channel=0 note=94 velocity=30 time=0\n",
      "note_on channel=0 note=45 velocity=76 time=1\n",
      "note_off channel=0 note=46 velocity=64 time=0\n",
      "note_off channel=0 note=61 velocity=64 time=0\n",
      "note_on channel=0 note=64 velocity=59 time=0\n",
      "note_off channel=0 note=65 velocity=64 time=0\n",
      "note_off channel=0 note=72 velocity=64 time=0\n",
      "note_on channel=0 note=75 velocity=42 time=0\n",
      "note_on channel=0 note=85 velocity=42 time=0\n",
      "note_on channel=0 note=44 velocity=76 time=1\n",
      "note_off channel=0 note=45 velocity=64 time=0\n",
      "note_on channel=0 note=52 velocity=57 time=0\n",
      "note_on channel=0 note=63 velocity=58 time=0\n",
      "note_on channel=0 note=72 velocity=47 time=0\n",
      "note_off channel=0 note=76 velocity=64 time=0\n",
      "note_off channel=0 note=90 velocity=64 time=0\n",
      "note_on channel=0 note=93 velocity=32 time=0\n",
      "note_off channel=0 note=64 velocity=64 time=1\n",
      "note_on channel=0 note=71 velocity=53 time=0\n",
      "note_on channel=0 note=77 velocity=28 time=0\n",
      "note_off channel=0 note=84 velocity=64 time=0\n",
      "note_on channel=0 note=88 velocity=31 time=0\n",
      "note_on channel=0 note=43 velocity=74 time=1\n",
      "note_off channel=0 note=44 velocity=64 time=0\n",
      "note_off channel=0 note=52 velocity=64 time=0\n",
      "note_off channel=0 note=63 velocity=64 time=0\n",
      "note_on channel=0 note=64 velocity=59 time=0\n",
      "note_off channel=0 note=72 velocity=64 time=0\n",
      "note_on channel=0 note=73 velocity=29 time=0\n",
      "note_off channel=0 note=87 velocity=64 time=0\n",
      "note_on channel=0 note=52 velocity=59 time=1\n",
      "note_off channel=0 note=75 velocity=64 time=0\n",
      "note_on channel=0 note=87 velocity=28 time=0\n",
      "note_off channel=0 note=88 velocity=64 time=0\n",
      "note_off channel=0 note=94 velocity=64 time=0\n",
      "note_off channel=0 note=64 velocity=64 time=1\n",
      "note_on channel=0 note=88 velocity=35 time=0\n",
      "note_on channel=0 note=75 velocity=30 time=1\n",
      "note_on channel=0 note=90 velocity=48 time=0\n",
      "note_off channel=0 note=75 velocity=64 time=2\n",
      "note_off channel=0 note=77 velocity=64 time=0\n",
      "note_off channel=0 note=89 velocity=64 time=0\n",
      "note_off channel=0 note=43 velocity=64 time=1\n",
      "note_off channel=0 note=87 velocity=64 time=0\n",
      "note_on channel=0 note=43 velocity=27 time=1\n",
      "note_off channel=0 note=52 velocity=64 time=0\n",
      "note_on channel=0 note=64 velocity=55 time=0\n",
      "note_on channel=0 note=87 velocity=33 time=0\n",
      "note_off channel=0 note=88 velocity=64 time=0\n",
      "note_on channel=0 note=89 velocity=50 time=0\n",
      "note_on channel=0 note=52 velocity=71 time=1\n",
      "note_on channel=0 note=75 velocity=35 time=0\n",
      "note_on channel=0 note=88 velocity=46 time=0\n",
      "note_off channel=0 note=87 velocity=64 time=1\n",
      "note_off channel=0 note=91 velocity=64 time=0\n",
      "note_off channel=0 note=43 velocity=64 time=1\n",
      "note_on channel=0 note=72 velocity=61 time=0\n",
      "note_off channel=0 note=73 velocity=64 time=0\n",
      "note_on channel=0 note=76 velocity=56 time=0\n",
      "note_off channel=0 note=85 velocity=64 time=0\n",
      "note_on channel=0 note=86 velocity=31 time=0\n",
      "note_on channel=0 note=87 velocity=43 time=0\n",
      "note_on channel=0 note=91 velocity=35 time=0\n",
      "note_off channel=0 note=93 velocity=64 time=0\n",
      "note_off channel=0 note=64 velocity=64 time=1\n",
      "note_on channel=0 note=66 velocity=51 time=0\n",
      "note_off channel=0 note=71 velocity=64 time=0\n",
      "note_off channel=0 note=75 velocity=64 time=0\n",
      "note_off channel=0 note=52 velocity=64 time=1\n",
      "note_on channel=0 note=53 velocity=70 time=0\n",
      "note_on channel=0 note=77 velocity=43 time=0\n",
      "note_on channel=0 note=85 velocity=36 time=0\n",
      "note_off channel=0 note=53 velocity=64 time=1\n",
      "note_off channel=0 note=72 velocity=64 time=0\n",
      "note_on channel=0 note=73 velocity=59 time=0\n",
      "note_off channel=0 note=76 velocity=64 time=0\n",
      "note_off channel=0 note=90 velocity=64 time=0\n",
      "note_on channel=0 note=55 velocity=65 time=1\n",
      "note_off channel=0 note=85 velocity=64 time=0\n",
      "note_off channel=0 note=73 velocity=64 time=1\n",
      "note_off channel=0 note=77 velocity=64 time=0\n",
      "note_on channel=0 note=85 velocity=25 time=0\n",
      "note_off channel=0 note=86 velocity=64 time=0\n",
      "note_on channel=0 note=90 velocity=31 time=0\n",
      "note_on channel=0 note=54 velocity=62 time=1\n",
      "note_off channel=0 note=55 velocity=64 time=0\n",
      "note_on channel=0 note=73 velocity=59 time=0\n",
      "note_on channel=0 note=53 velocity=62 time=2\n",
      "note_off channel=0 note=54 velocity=64 time=0\n",
      "note_off channel=0 note=66 velocity=64 time=0\n",
      "note_on channel=0 note=72 velocity=63 time=0\n",
      "note_off channel=0 note=73 velocity=64 time=0\n",
      "note_on channel=0 note=77 velocity=49 time=0\n",
      "note_on channel=0 note=93 velocity=10 time=1\n",
      "note_on channel=0 note=66 velocity=47 time=1\n",
      "note_off channel=0 note=88 velocity=64 time=0\n",
      "note_off channel=0 note=90 velocity=64 time=0\n",
      "note_on channel=0 note=88 velocity=38 time=1\n",
      "note_on channel=0 note=90 velocity=41 time=0\n",
      "note_off channel=0 note=53 velocity=64 time=1\n",
      "note_off channel=0 note=72 velocity=64 time=0\n",
      "note_on channel=0 note=73 velocity=55 time=0\n",
      "note_on channel=0 note=82 velocity=37 time=0\n",
      "note_on channel=0 note=67 velocity=63 time=1\n",
      "note_off channel=0 note=88 velocity=64 time=0\n",
      "note_on channel=0 note=64 velocity=82 time=1\n",
      "note_off channel=0 note=66 velocity=64 time=0\n",
      "note_off channel=0 note=73 velocity=64 time=0\n",
      "note_on channel=0 note=75 velocity=39 time=0\n",
      "note_off channel=0 note=83 velocity=64 time=0\n",
      "note_on channel=0 note=84 velocity=32 time=0\n",
      "note_on channel=0 note=88 velocity=35 time=0\n",
      "note_off channel=0 note=93 velocity=64 time=0\n",
      "note_on channel=0 note=45 velocity=77 time=1\n",
      "note_off channel=0 note=67 velocity=64 time=0\n",
      "note_on channel=0 note=69 velocity=61 time=0\n",
      "note_on channel=0 note=73 velocity=69 time=0\n",
      "note_off channel=0 note=85 velocity=64 time=0\n",
      "note_off channel=0 note=82 velocity=64 time=1\n",
      "note_on channel=0 note=83 velocity=46 time=0\n",
      "note_off channel=0 note=88 velocity=64 time=0\n",
      "note_on channel=0 note=44 velocity=78 time=1\n",
      "note_off channel=0 note=45 velocity=64 time=0\n",
      "note_on channel=0 note=63 velocity=70 time=0\n",
      "note_off channel=0 note=64 velocity=64 time=0\n",
      "note_off channel=0 note=75 velocity=64 time=0\n",
      "note_on channel=0 note=76 velocity=34 time=0\n",
      "note_off channel=0 note=77 velocity=64 time=0\n",
      "note_off channel=0 note=84 velocity=64 time=0\n",
      "note_off channel=0 note=69 velocity=64 time=2\n",
      "note_off channel=0 note=76 velocity=64 time=0\n",
      "note_on channel=0 note=84 velocity=22 time=0\n",
      "note_off channel=0 note=63 velocity=64 time=1\n",
      "note_on channel=0 note=77 velocity=33 time=0\n",
      "note_off channel=0 note=90 velocity=64 time=0\n",
      "note_off channel=0 note=44 velocity=64 time=1\n",
      "note_on channel=0 note=54 velocity=68 time=0\n",
      "note_on channel=0 note=82 velocity=47 time=0\n",
      "note_on channel=0 note=90 velocity=50 time=0\n",
      "note_on channel=0 note=43 velocity=61 time=2\n",
      "note_on channel=0 note=75 velocity=22 time=0\n",
      "note_off channel=0 note=84 velocity=64 time=0\n",
      "note_off channel=0 note=54 velocity=64 time=2\n",
      "note_on channel=0 note=71 velocity=32 time=0\n",
      "note_on channel=0 note=88 velocity=30 time=0\n",
      "note_on channel=0 note=42 velocity=57 time=1\n",
      "note_off channel=0 note=43 velocity=64 time=0\n",
      "note_on channel=0 note=54 velocity=65 time=0\n",
      "note_on channel=0 note=61 velocity=60 time=0\n",
      "note_off channel=0 note=75 velocity=64 time=0\n",
      "note_off channel=0 note=77 velocity=64 time=0\n",
      "note_off channel=0 note=89 velocity=64 time=0\n",
      "note_off channel=0 note=42 velocity=64 time=2\n",
      "note_on channel=0 note=77 velocity=41 time=0\n",
      "note_on channel=0 note=93 velocity=37 time=0\n",
      "note_on channel=0 note=65 velocity=45 time=1\n",
      "note_on channel=0 note=68 velocity=13 time=0\n",
      "note_off channel=0 note=71 velocity=64 time=0\n",
      "note_on channel=0 note=48 velocity=66 time=1\n",
      "note_off channel=0 note=54 velocity=64 time=0\n",
      "note_on channel=0 note=96 velocity=36 time=0\n",
      "note_on channel=0 note=47 velocity=71 time=1\n",
      "note_off channel=0 note=48 velocity=64 time=0\n",
      "note_on channel=0 note=52 velocity=66 time=0\n",
      "note_off channel=0 note=47 velocity=64 time=1\n",
      "note_on channel=0 note=50 velocity=75 time=0\n",
      "note_off channel=0 note=52 velocity=64 time=0\n",
      "note_off channel=0 note=61 velocity=64 time=0\n",
      "note_off channel=0 note=65 velocity=64 time=0\n",
      "note_off channel=0 note=68 velocity=64 time=0\n",
      "note_on channel=0 note=70 velocity=52 time=0\n",
      "note_off channel=0 note=82 velocity=64 time=0\n",
      "note_on channel=0 note=101 velocity=43 time=0\n",
      "note_on channel=0 note=48 velocity=65 time=1\n",
      "note_off channel=0 note=50 velocity=64 time=0\n",
      "note_on channel=0 note=52 velocity=71 time=0\n",
      "note_on channel=0 note=86 velocity=13 time=0\n",
      "note_on channel=0 note=97 velocity=52 time=0\n",
      "note_off channel=0 note=48 velocity=64 time=1\n",
      "note_off channel=0 note=52 velocity=64 time=0\n",
      "note_on channel=0 note=53 velocity=76 time=0\n",
      "note_on channel=0 note=63 velocity=49 time=0\n",
      "note_off channel=0 note=90 velocity=64 time=0\n",
      "note_off channel=0 note=93 velocity=64 time=0\n",
      "note_on channel=0 note=51 velocity=73 time=1\n",
      "note_off channel=0 note=53 velocity=64 time=0\n",
      "note_on channel=0 note=49 velocity=54 time=1\n",
      "note_off channel=0 note=51 velocity=64 time=0\n",
      "note_on channel=0 note=68 velocity=23 time=1\n",
      "note_off channel=0 note=70 velocity=64 time=0\n",
      "note_on channel=0 note=71 velocity=54 time=0\n",
      "note_off channel=0 note=86 velocity=64 time=0\n",
      "note_on channel=0 note=102 velocity=43 time=0\n",
      "note_off channel=0 note=49 velocity=64 time=1\n",
      "note_off channel=0 note=63 velocity=64 time=0\n",
      "note_on channel=0 note=64 velocity=63 time=0\n",
      "note_on channel=0 note=86 velocity=16 time=0\n",
      "note_on channel=0 note=51 velocity=47 time=2\n",
      "note_off channel=0 note=51 velocity=64 time=2\n",
      "note_on channel=0 note=52 velocity=59 time=0\n",
      "note_off channel=0 note=68 velocity=64 time=1\n",
      "note_off channel=0 note=86 velocity=64 time=0\n",
      "note_off channel=0 note=88 velocity=64 time=0\n",
      "note_on channel=0 note=90 velocity=37 time=0\n",
      "note_on channel=0 note=45 velocity=76 time=1\n",
      "note_off channel=0 note=52 velocity=64 time=0\n",
      "note_off channel=0 note=64 velocity=64 time=0\n",
      "note_on channel=0 note=65 velocity=72 time=0\n",
      "note_off channel=0 note=73 velocity=64 time=0\n",
      "note_on channel=0 note=75 velocity=33 time=0\n",
      "note_on channel=0 note=79 velocity=38 time=0\n",
      "note_off channel=0 note=80 velocity=64 time=0\n",
      "note_on channel=0 note=81 velocity=29 time=0\n",
      "note_on channel=0 note=64 velocity=73 time=1\n"
     ]
    },
    {
     "name": "stdout",
     "output_type": "stream",
     "text": [
      "note_off channel=0 note=65 velocity=64 time=0\n",
      "note_on channel=0 note=68 velocity=58 time=0\n",
      "note_on channel=0 note=73 velocity=37 time=0\n",
      "note_off channel=0 note=77 velocity=64 time=0\n",
      "note_off channel=0 note=83 velocity=64 time=0\n",
      "note_on channel=0 note=84 velocity=26 time=0\n",
      "note_on channel=0 note=88 velocity=27 time=0\n",
      "note_on channel=0 note=44 velocity=79 time=1\n",
      "note_off channel=0 note=45 velocity=64 time=0\n",
      "note_on channel=0 note=63 velocity=61 time=0\n",
      "note_off channel=0 note=64 velocity=64 time=0\n",
      "note_off channel=0 note=71 velocity=64 time=0\n",
      "note_on channel=0 note=80 velocity=89 time=0\n",
      "note_off channel=0 note=81 velocity=64 time=0\n",
      "note_on channel=0 note=83 velocity=30 time=0\n",
      "note_off channel=0 note=90 velocity=64 time=0\n",
      "note_on channel=0 note=100 velocity=39 time=0\n",
      "note_off channel=0 note=68 velocity=64 time=1\n",
      "note_on channel=0 note=71 velocity=46 time=0\n",
      "note_on channel=0 note=77 velocity=21 time=0\n",
      "note_off channel=0 note=79 velocity=64 time=0\n",
      "note_on channel=0 note=82 velocity=27 time=0\n",
      "note_on channel=0 note=86 velocity=16 time=0\n",
      "note_off channel=0 note=91 velocity=64 time=0\n",
      "note_on channel=0 note=66 velocity=32 time=1\n",
      "note_off channel=0 note=83 velocity=64 time=0\n",
      "note_on channel=0 note=103 velocity=17 time=0\n",
      "note_off channel=0 note=63 velocity=64 time=1\n",
      "note_off channel=0 note=75 velocity=64 time=0\n",
      "note_on channel=0 note=95 velocity=48 time=0\n",
      "note_off channel=0 note=96 velocity=64 time=0\n",
      "note_off channel=0 note=44 velocity=64 time=1\n",
      "note_on channel=0 note=63 velocity=51 time=0\n",
      "note_off channel=0 note=66 velocity=64 time=0\n",
      "note_on channel=0 note=70 velocity=58 time=0\n",
      "note_off channel=0 note=71 velocity=64 time=0\n",
      "note_off channel=0 note=82 velocity=64 time=0\n",
      "note_on channel=0 note=41 velocity=58 time=1\n",
      "note_off channel=0 note=86 velocity=64 time=0\n",
      "note_on channel=0 note=50 velocity=57 time=1\n",
      "note_on channel=0 note=96 velocity=62 time=0\n",
      "note_off channel=0 note=41 velocity=64 time=1\n",
      "note_on channel=0 note=43 velocity=62 time=0\n",
      "note_on channel=0 note=66 velocity=25 time=0\n",
      "note_off channel=0 note=88 velocity=64 time=0\n",
      "note_on channel=0 note=89 velocity=22 time=0\n",
      "note_off channel=0 note=97 velocity=64 time=0\n",
      "note_off channel=0 note=50 velocity=64 time=1\n",
      "note_on channel=0 note=51 velocity=60 time=0\n",
      "note_on channel=0 note=62 velocity=65 time=0\n",
      "note_off channel=0 note=63 velocity=64 time=0\n",
      "note_on channel=0 note=97 velocity=26 time=0\n",
      "note_off channel=0 note=103 velocity=64 time=0\n",
      "note_on channel=0 note=42 velocity=54 time=2\n",
      "note_off channel=0 note=43 velocity=64 time=0\n",
      "note_on channel=0 note=61 velocity=68 time=0\n",
      "note_off channel=0 note=62 velocity=64 time=0\n",
      "note_on channel=0 note=69 velocity=57 time=0\n",
      "note_off channel=0 note=70 velocity=64 time=0\n",
      "note_on channel=0 note=82 velocity=35 time=0\n",
      "note_on channel=0 note=93 velocity=11 time=0\n",
      "note_on channel=0 note=50 velocity=59 time=1\n",
      "note_off channel=0 note=51 velocity=64 time=0\n",
      "note_off channel=0 note=66 velocity=64 time=0\n",
      "note_on channel=0 note=88 velocity=33 time=0\n",
      "note_off channel=0 note=42 velocity=64 time=1\n",
      "note_off channel=0 note=73 velocity=64 time=0\n",
      "note_off channel=0 note=89 velocity=64 time=0\n",
      "note_on channel=0 note=103 velocity=11 time=0\n",
      "note_off channel=0 note=50 velocity=64 time=1\n",
      "note_on channel=0 note=83 velocity=36 time=0\n",
      "note_on channel=0 note=48 velocity=81 time=1\n",
      "note_off channel=0 note=77 velocity=64 time=0\n",
      "note_off channel=0 note=82 velocity=64 time=0\n",
      "note_on channel=0 note=98 velocity=13 time=0\n",
      "note_on channel=0 note=67 velocity=34 time=1\n",
      "note_on channel=0 note=77 velocity=23 time=0\n",
      "note_on channel=0 note=90 velocity=32 time=0\n",
      "note_off channel=0 note=61 velocity=64 time=1\n",
      "note_on channel=0 note=82 velocity=37 time=0\n",
      "note_off channel=0 note=93 velocity=64 time=0\n",
      "note_off channel=0 note=48 velocity=64 time=1\n",
      "note_on channel=0 note=49 velocity=65 time=0\n",
      "note_off channel=0 note=67 velocity=64 time=0\n",
      "note_on channel=0 note=75 velocity=51 time=0\n",
      "note_on channel=0 note=78 velocity=26 time=0\n",
      "note_off channel=0 note=83 velocity=64 time=0\n",
      "note_off channel=0 note=84 velocity=64 time=0\n",
      "note_off channel=0 note=98 velocity=64 time=0\n",
      "note_off channel=0 note=49 velocity=64 time=1\n",
      "note_on channel=0 note=53 velocity=73 time=0\n",
      "note_off channel=0 note=77 velocity=64 time=0\n",
      "note_off channel=0 note=82 velocity=64 time=0\n",
      "note_on channel=0 note=83 velocity=35 time=0\n",
      "note_on channel=0 note=77 velocity=30 time=1\n",
      "note_on channel=0 note=82 velocity=33 time=0\n",
      "note_off channel=0 note=87 velocity=64 time=0\n",
      "note_on channel=0 note=51 velocity=69 time=1\n",
      "note_off channel=0 note=53 velocity=64 time=0\n",
      "note_off channel=0 note=83 velocity=64 time=0\n",
      "note_off channel=0 note=103 velocity=64 time=0\n",
      "note_on channel=0 note=50 velocity=67 time=1\n",
      "note_off channel=0 note=51 velocity=64 time=0\n",
      "note_on channel=0 note=68 velocity=29 time=0\n",
      "note_off channel=0 note=78 velocity=64 time=0\n",
      "note_off channel=0 note=97 velocity=64 time=0\n",
      "note_on channel=0 note=98 velocity=14 time=0\n",
      "note_off channel=0 note=50 velocity=64 time=1\n",
      "note_on channel=0 note=52 velocity=67 time=0\n",
      "note_off channel=0 note=69 velocity=64 time=0\n",
      "note_on channel=0 note=70 velocity=47 time=0\n",
      "note_on channel=0 note=78 velocity=41 time=0\n",
      "note_on channel=0 note=84 velocity=10 time=0\n",
      "note_off channel=0 note=96 velocity=64 time=0\n",
      "note_on channel=0 note=97 velocity=26 time=0\n",
      "note_off channel=0 note=68 velocity=64 time=1\n",
      "note_off channel=0 note=77 velocity=64 time=0\n",
      "note_off channel=0 note=82 velocity=64 time=0\n",
      "note_on channel=0 note=96 velocity=52 time=0\n",
      "note_off channel=0 note=102 velocity=64 time=0\n",
      "note_on channel=0 note=68 velocity=45 time=1\n",
      "note_on channel=0 note=77 velocity=27 time=0\n",
      "note_on channel=0 note=99 velocity=24 time=0\n",
      "note_off channel=0 note=70 velocity=64 time=1\n",
      "note_on channel=0 note=71 velocity=50 time=0\n",
      "note_off channel=0 note=98 velocity=64 time=0\n",
      "note_off channel=0 note=100 velocity=64 time=0\n",
      "note_off channel=0 note=52 velocity=64 time=1\n",
      "note_on channel=0 note=64 velocity=63 time=0\n",
      "note_on channel=0 note=89 velocity=67 time=0\n",
      "note_on channel=0 note=52 velocity=67 time=1\n",
      "note_off channel=0 note=77 velocity=64 time=0\n",
      "note_off channel=0 note=84 velocity=64 time=0\n",
      "note_on channel=0 note=85 velocity=29 time=0\n",
      "note_off channel=0 note=88 velocity=64 time=0\n",
      "note_on channel=0 note=93 velocity=17 time=0\n",
      "note_off channel=0 note=101 velocity=64 time=0\n",
      "note_on channel=0 note=48 velocity=89 time=1\n",
      "note_off channel=0 note=52 velocity=64 time=0\n",
      "note_off channel=0 note=64 velocity=64 time=0\n",
      "note_on channel=0 note=65 velocity=59 time=0\n",
      "note_off channel=0 note=68 velocity=64 time=0\n",
      "note_on channel=0 note=70 velocity=56 time=0\n",
      "note_off channel=0 note=71 velocity=64 time=0\n",
      "note_on channel=0 note=83 velocity=35 time=0\n",
      "note_on channel=0 note=98 velocity=17 time=0\n",
      "note_on channel=0 note=100 velocity=11 time=0\n",
      "note_off channel=0 note=78 velocity=64 time=1\n",
      "note_on channel=0 note=69 velocity=56 time=1\n",
      "note_off channel=0 note=70 velocity=64 time=0\n",
      "note_on channel=0 note=73 velocity=49 time=0\n",
      "note_on channel=0 note=82 velocity=40 time=0\n",
      "note_off channel=0 note=90 velocity=64 time=0\n",
      "note_off channel=0 note=93 velocity=64 time=0\n",
      "note_off channel=0 note=99 velocity=64 time=0\n",
      "note_off channel=0 note=48 velocity=64 time=1\n",
      "note_on channel=0 note=50 velocity=77 time=0\n",
      "note_off channel=0 note=83 velocity=64 time=0\n",
      "note_on channel=0 note=84 velocity=12 time=0\n",
      "note_off channel=0 note=95 velocity=64 time=0\n",
      "note_on channel=0 note=71 velocity=45 time=1\n",
      "note_on channel=0 note=95 velocity=27 time=0\n",
      "note_off channel=0 note=98 velocity=64 time=0\n",
      "note_off channel=0 note=100 velocity=64 time=0\n",
      "note_on channel=0 note=61 velocity=67 time=1\n",
      "note_on channel=0 note=100 velocity=36 time=0\n",
      "note_on channel=0 note=49 velocity=71 time=1\n",
      "note_off channel=0 note=50 velocity=64 time=0\n",
      "note_on channel=0 note=68 velocity=51 time=0\n",
      "note_off channel=0 note=69 velocity=64 time=0\n",
      "note_off channel=0 note=75 velocity=64 time=0\n",
      "note_on channel=0 note=90 velocity=40 time=0\n",
      "note_on channel=0 note=75 velocity=48 time=1\n",
      "note_off channel=0 note=84 velocity=64 time=0\n",
      "note_off channel=0 note=49 velocity=64 time=1\n",
      "note_on channel=0 note=88 velocity=33 time=0\n",
      "note_off channel=0 note=89 velocity=64 time=0\n",
      "note_on channel=0 note=49 velocity=66 time=1\n",
      "note_off channel=0 note=85 velocity=64 time=0\n",
      "note_off channel=0 note=82 velocity=64 time=2\n",
      "note_off channel=0 note=95 velocity=64 time=0\n",
      "note_on channel=0 note=94 velocity=12 time=1\n",
      "note_off channel=0 note=49 velocity=64 time=1\n",
      "note_on channel=0 note=98 velocity=12 time=0\n",
      "note_on channel=0 note=49 velocity=60 time=1\n",
      "note_off channel=0 note=94 velocity=64 time=1\n",
      "note_on channel=0 note=95 velocity=49 time=0\n",
      "note_on channel=0 note=84 velocity=37 time=2\n",
      "note_off channel=0 note=98 velocity=64 time=2\n",
      "note_on channel=0 note=91 velocity=9 time=1\n",
      "note_on channel=0 note=93 velocity=23 time=1\n",
      "note_off channel=0 note=91 velocity=64 time=4\n",
      "note_on channel=0 note=89 velocity=66 time=1\n",
      "note_off channel=0 note=93 velocity=64 time=1\n",
      "note_on channel=0 note=94 velocity=30 time=0\n",
      "note_off channel=0 note=49 velocity=64 time=1\n",
      "note_on channel=0 note=93 velocity=21 time=0\n",
      "note_on channel=0 note=98 velocity=10 time=0\n",
      "note_on channel=0 note=45 velocity=77 time=1\n",
      "note_off channel=0 note=65 velocity=64 time=0\n",
      "note_off channel=0 note=68 velocity=64 time=0\n",
      "note_on channel=0 note=69 velocity=43 time=0\n",
      "note_off channel=0 note=88 velocity=64 time=0\n",
      "note_on channel=0 note=91 velocity=19 time=0\n",
      "note_on channel=0 note=67 velocity=45 time=1\n",
      "note_on channel=0 note=44 velocity=75 time=1\n",
      "note_off channel=0 note=45 velocity=64 time=0\n",
      "note_off channel=0 note=61 velocity=64 time=0\n",
      "note_on channel=0 note=65 velocity=37 time=0\n",
      "note_off channel=0 note=69 velocity=64 time=0\n",
      "note_off channel=0 note=98 velocity=64 time=0\n",
      "note_on channel=0 note=43 velocity=77 time=1\n",
      "note_off channel=0 note=44 velocity=64 time=0\n",
      "note_off channel=0 note=67 velocity=64 time=0\n",
      "note_off channel=0 note=71 velocity=64 time=0\n",
      "note_on channel=0 note=78 velocity=29 time=0\n",
      "note_on channel=0 note=82 velocity=41 time=0\n",
      "note_off channel=0 note=84 velocity=64 time=0\n",
      "note_off channel=0 note=90 velocity=64 time=0\n",
      "note_off channel=0 note=91 velocity=64 time=0\n",
      "note_off channel=0 note=97 velocity=64 time=0\n",
      "note_on channel=0 note=98 velocity=22 time=0\n",
      "note_off channel=0 note=43 velocity=64 time=1\n",
      "note_on channel=0 note=44 velocity=75 time=0\n",
      "note_on channel=0 note=50 velocity=64 time=0\n",
      "note_off channel=0 note=65 velocity=64 time=0\n",
      "note_on channel=0 note=69 velocity=51 time=0\n",
      "note_off channel=0 note=73 velocity=64 time=0\n",
      "note_off channel=0 note=93 velocity=64 time=0\n",
      "note_off channel=0 note=94 velocity=64 time=0\n",
      "note_on channel=0 note=43 velocity=72 time=1\n",
      "note_off channel=0 note=44 velocity=64 time=0\n",
      "note_on channel=0 note=63 velocity=50 time=0\n",
      "note_on channel=0 note=66 velocity=35 time=0\n",
      "note_on channel=0 note=73 velocity=23 time=0\n",
      "note_off channel=0 note=95 velocity=64 time=0\n",
      "note_off channel=0 note=50 velocity=64 time=1\n",
      "note_off channel=0 note=69 velocity=64 time=0\n",
      "note_on channel=0 note=95 velocity=26 time=0\n",
      "note_on channel=0 note=97 velocity=34 time=0\n",
      "note_off channel=0 note=63 velocity=64 time=1\n",
      "note_on channel=0 note=64 velocity=54 time=0\n",
      "note_off channel=0 note=66 velocity=64 time=0\n",
      "note_on channel=0 note=68 velocity=34 time=0\n",
      "note_on channel=0 note=71 velocity=40 time=0\n",
      "note_off channel=0 note=78 velocity=64 time=0\n",
      "note_on channel=0 note=84 velocity=44 time=0\n",
      "note_on channel=0 note=93 velocity=20 time=0\n",
      "note_on channel=0 note=78 velocity=21 time=1\n",
      "note_on channel=0 note=52 velocity=62 time=1\n",
      "note_off channel=0 note=64 velocity=64 time=0\n",
      "note_on channel=0 note=65 velocity=56 time=0\n",
      "note_off channel=0 note=71 velocity=64 time=0\n",
      "note_on channel=0 note=72 velocity=40 time=0\n",
      "note_off channel=0 note=73 velocity=64 time=0\n",
      "note_off channel=0 note=95 velocity=64 time=0\n",
      "note_on channel=0 note=71 velocity=37 time=1\n",
      "note_off channel=0 note=98 velocity=64 time=0\n",
      "note_off channel=0 note=52 velocity=64 time=1\n",
      "note_on channel=0 note=53 velocity=65 time=0\n",
      "note_off channel=0 note=97 velocity=64 time=0\n",
      "note_off channel=0 note=43 velocity=64 time=1\n",
      "note_off channel=0 note=68 velocity=64 time=0\n",
      "note_off channel=0 note=72 velocity=64 time=0\n",
      "note_on channel=0 note=73 velocity=55 time=0\n",
      "note_off channel=0 note=96 velocity=64 time=0\n",
      "note_on channel=0 note=97 velocity=33 time=0\n",
      "note_off channel=0 note=53 velocity=64 time=1\n",
      "note_on channel=0 note=54 velocity=59 time=0\n",
      "note_off channel=0 note=65 velocity=64 time=0\n",
      "note_off channel=0 note=100 velocity=64 time=0\n",
      "note_off channel=0 note=78 velocity=64 time=1\n",
      "note_on channel=0 note=91 velocity=32 time=0\n",
      "note_on channel=0 note=67 velocity=66 time=1\n",
      "note_off channel=0 note=75 velocity=64 time=0\n",
      "note_off channel=0 note=97 velocity=64 time=0\n",
      "note_off channel=0 note=54 velocity=64 time=1\n",
      "note_on channel=0 note=55 velocity=63 time=0\n",
      "note_on channel=0 note=61 velocity=25 time=0\n",
      "note_on channel=0 note=77 velocity=43 time=1\n",
      "note_on channel=0 note=65 velocity=50 time=1\n",
      "note_off channel=0 note=82 velocity=64 time=0\n",
      "note_on channel=0 note=83 velocity=40 time=0\n",
      "note_off channel=0 note=55 velocity=64 time=2\n",
      "note_on channel=0 note=56 velocity=56 time=0\n",
      "note_off channel=0 note=67 velocity=64 time=1\n",
      "note_on channel=0 note=68 velocity=69 time=0\n",
      "note_on channel=0 note=75 velocity=50 time=1\n",
      "note_on channel=0 note=94 velocity=15 time=0\n",
      "note_off channel=0 note=71 velocity=64 time=1\n",
      "note_on channel=0 note=82 velocity=65 time=1\n",
      "note_off channel=0 note=83 velocity=64 time=1\n",
      "note_on channel=0 note=90 velocity=45 time=0\n",
      "note_off channel=0 note=91 velocity=64 time=0\n",
      "note_off channel=0 note=94 velocity=64 time=0\n",
      "note_off channel=0 note=56 velocity=64 time=2\n",
      "note_on channel=0 note=56 velocity=70 time=1\n",
      "note_off channel=0 note=61 velocity=64 time=0\n",
      "note_on channel=0 note=62 velocity=86 time=0\n",
      "note_off channel=0 note=65 velocity=64 time=0\n",
      "note_on channel=0 note=78 velocity=29 time=0\n",
      "note_on channel=0 note=55 velocity=70 time=2\n",
      "note_off channel=0 note=56 velocity=64 time=0\n",
      "note_off channel=0 note=62 velocity=64 time=0\n",
      "note_on channel=0 note=63 velocity=94 time=0\n",
      "note_off channel=0 note=68 velocity=64 time=0\n",
      "note_on channel=0 note=69 velocity=40 time=0\n",
      "note_on channel=0 note=72 velocity=45 time=0\n",
      "note_off channel=0 note=73 velocity=64 time=0\n",
      "note_off channel=0 note=78 velocity=64 time=1\n",
      "note_off channel=0 note=90 velocity=64 time=0\n",
      "note_off channel=0 note=69 velocity=64 time=1\n",
      "note_off channel=0 note=84 velocity=64 time=0\n",
      "note_off channel=0 note=55 velocity=64 time=1\n",
      "note_on channel=0 note=68 velocity=78 time=0\n",
      "note_off channel=0 note=72 velocity=64 time=0\n",
      "note_on channel=0 note=91 velocity=32 time=0\n",
      "note_off channel=0 note=93 velocity=64 time=0\n",
      "note_on channel=0 note=55 velocity=65 time=1\n",
      "note_off channel=0 note=82 velocity=64 time=0\n",
      "note_on channel=0 note=83 velocity=63 time=0\n",
      "note_on channel=0 note=88 velocity=35 time=0\n",
      "note_on channel=0 note=94 velocity=54 time=0\n",
      "note_off channel=0 note=55 velocity=64 time=1\n",
      "note_on channel=0 note=56 velocity=60 time=0\n",
      "note_on channel=0 note=96 velocity=22 time=0\n",
      "note_off channel=0 note=89 velocity=64 time=2\n",
      "note_on channel=0 note=90 velocity=41 time=0\n",
      "note_off channel=0 note=96 velocity=64 time=1\n",
      "note_off channel=0 note=56 velocity=64 time=1\n",
      "note_on channel=0 note=96 velocity=46 time=0\n",
      "note_on channel=0 note=56 velocity=62 time=1\n",
      "note_on channel=0 note=71 velocity=13 time=0\n",
      "note_off channel=0 note=91 velocity=64 time=1\n",
      "note_on channel=0 note=97 velocity=31 time=2\n",
      "note_on channel=0 note=73 velocity=17 time=2\n",
      "note_on channel=0 note=93 velocity=33 time=3\n",
      "note_off channel=0 note=94 velocity=64 time=0\n",
      "note_off channel=0 note=96 velocity=64 time=0\n",
      "note_on channel=0 note=91 velocity=29 time=1\n",
      "note_off channel=0 note=88 velocity=64 time=1\n",
      "note_on channel=0 note=89 velocity=57 time=0\n",
      "note_on channel=0 note=96 velocity=16 time=0\n",
      "note_off channel=0 note=97 velocity=64 time=2\n",
      "note_off channel=0 note=73 velocity=64 time=1\n",
      "note_off channel=0 note=96 velocity=64 time=0\n",
      "note_on channel=0 note=84 velocity=10 time=1\n",
      "note_off channel=0 note=91 velocity=64 time=1\n",
      "note_on channel=0 note=97 velocity=16 time=0\n",
      "note_on channel=0 note=100 velocity=20 time=0\n",
      "note_off channel=0 note=71 velocity=64 time=1\n",
      "note_on channel=0 note=91 velocity=30 time=0\n",
      "note_on channel=0 note=96 velocity=34 time=0\n",
      "note_on channel=0 note=72 velocity=55 time=2\n",
      "note_off channel=0 note=75 velocity=64 time=0\n",
      "note_off channel=0 note=84 velocity=64 time=0\n",
      "note_off channel=0 note=91 velocity=64 time=0\n",
      "note_on channel=0 note=94 velocity=44 time=0\n",
      "note_on channel=0 note=62 velocity=81 time=1\n",
      "note_off channel=0 note=63 velocity=64 time=0\n",
      "note_on channel=0 note=75 velocity=44 time=0\n",
      "note_on channel=0 note=91 velocity=38 time=0\n",
      "note_off channel=0 note=93 velocity=64 time=0\n",
      "note_off channel=0 note=100 velocity=64 time=0\n",
      "note_off channel=0 note=56 velocity=64 time=1\n",
      "note_on channel=0 note=93 velocity=43 time=0\n",
      "note_off channel=0 note=97 velocity=64 time=0\n",
      "note_on channel=0 note=56 velocity=55 time=1\n",
      "note_off channel=0 note=62 velocity=64 time=0\n",
      "note_on channel=0 note=63 velocity=86 time=0\n",
      "note_off channel=0 note=94 velocity=64 time=0\n",
      "note_off channel=0 note=72 velocity=64 time=1\n",
      "note_on channel=0 note=82 velocity=37 time=0\n",
      "note_on channel=0 note=85 velocity=16 time=0\n",
      "note_on channel=0 note=55 velocity=47 time=1\n",
      "note_off channel=0 note=56 velocity=64 time=0\n",
      "note_off channel=0 note=83 velocity=64 time=0\n",
      "note_off channel=0 note=96 velocity=64 time=1\n",
      "note_on channel=0 note=71 velocity=25 time=1\n",
      "note_off channel=0 note=68 velocity=64 time=1\n",
      "note_off channel=0 note=55 velocity=64 time=1\n",
      "note_on channel=0 note=56 velocity=40 time=0\n",
      "note_on channel=0 note=73 velocity=32 time=3\n",
      "note_off channel=0 note=91 velocity=64 time=0\n",
      "note_off channel=0 note=75 velocity=64 time=1\n",
      "note_on channel=0 note=83 velocity=39 time=0\n",
      "note_on channel=0 note=91 velocity=17 time=0\n",
      "note_off channel=0 note=82 velocity=64 time=2\n",
      "note_off channel=0 note=56 velocity=64 time=1\n",
      "note_off channel=0 note=91 velocity=64 time=3\n",
      "note_off channel=0 note=89 velocity=64 time=2\n",
      "note_on channel=0 note=88 velocity=31 time=1\n",
      "note_off channel=0 note=85 velocity=64 time=1\n",
      "note_off channel=0 note=90 velocity=64 time=3\n",
      "note_off channel=0 note=71 velocity=64 time=2\n",
      "note_off channel=0 note=83 velocity=64 time=0\n",
      "note_on channel=0 note=86 velocity=52 time=0\n",
      "note_on channel=0 note=89 velocity=75 time=0\n",
      "note_on channel=0 note=91 velocity=40 time=0\n",
      "note_on channel=0 note=55 velocity=72 time=1\n",
      "note_on channel=0 note=72 velocity=42 time=0\n",
      "note_off channel=0 note=73 velocity=64 time=0\n",
      "note_on channel=0 note=74 velocity=68 time=0\n",
      "note_on channel=0 note=83 velocity=75 time=0\n",
      "note_on channel=0 note=99 velocity=38 time=0\n",
      "note_on channel=0 note=100 velocity=45 time=0\n",
      "note_on channel=0 note=102 velocity=47 time=0\n",
      "note_on channel=0 note=67 velocity=72 time=1\n",
      "note_off channel=0 note=88 velocity=64 time=0\n",
      "note_off channel=0 note=72 velocity=64 time=1\n",
      "note_on channel=0 note=97 velocity=23 time=0\n",
      "note_on channel=0 note=103 velocity=42 time=0\n",
      "note_on channel=0 note=85 velocity=49 time=1\n",
      "note_on channel=0 note=71 velocity=26 time=1\n",
      "note_off channel=0 note=97 velocity=64 time=1\n",
      "note_off channel=0 note=63 velocity=64 time=2\n",
      "note_off channel=0 note=103 velocity=64 time=1\n",
      "note_off channel=0 note=55 velocity=64 time=1\n",
      "note_on channel=0 note=65 velocity=29 time=0\n",
      "note_off channel=0 note=67 velocity=64 time=0\n",
      "note_on channel=0 note=68 velocity=74 time=0\n",
      "note_off channel=0 note=71 velocity=64 time=0\n",
      "note_off channel=0 note=74 velocity=64 time=0\n",
      "note_on channel=0 note=75 velocity=70 time=0\n",
      "note_off channel=0 note=77 velocity=64 time=0\n",
      "note_on channel=0 note=79 velocity=39 time=0\n",
      "note_off channel=0 note=83 velocity=64 time=0\n",
      "note_on channel=0 note=84 velocity=58 time=0\n",
      "note_on channel=0 note=90 velocity=74 time=0\n",
      "note_off channel=0 note=91 velocity=64 time=0\n",
      "note_off channel=0 note=93 velocity=64 time=0\n",
      "note_on channel=0 note=94 velocity=35 time=0\n",
      "note_on channel=0 note=103 velocity=28 time=0\n",
      "note_on channel=0 note=57 velocity=63 time=1\n",
      "note_on channel=0 note=76 velocity=81 time=0\n",
      "note_on channel=0 note=82 velocity=45 time=0\n",
      "note_on channel=0 note=83 velocity=30 time=0\n",
      "note_off channel=0 note=68 velocity=64 time=1\n",
      "note_on channel=0 note=69 velocity=73 time=0\n",
      "note_off channel=0 note=75 velocity=64 time=0\n",
      "note_off channel=0 note=79 velocity=64 time=0\n",
      "note_on channel=0 note=91 velocity=77 time=0\n",
      "note_off channel=0 note=57 velocity=64 time=1\n",
      "note_on channel=0 note=58 velocity=61 time=0\n",
      "note_off channel=0 note=69 velocity=64 time=0\n",
      "note_on channel=0 note=70 velocity=67 time=0\n",
      "note_on channel=0 note=73 velocity=32 time=0\n",
      "note_off channel=0 note=76 velocity=64 time=0\n",
      "note_on channel=0 note=77 velocity=80 time=0\n",
      "note_on channel=0 note=79 velocity=37 time=0\n",
      "note_off channel=0 note=83 velocity=64 time=0\n",
      "note_off channel=0 note=86 velocity=64 time=0\n",
      "note_off channel=0 note=89 velocity=64 time=0\n",
      "note_off channel=0 note=70 velocity=64 time=1\n",
      "note_on channel=0 note=71 velocity=64 time=0\n",
      "note_off channel=0 note=82 velocity=64 time=0\n",
      "note_off channel=0 note=84 velocity=64 time=0\n",
      "note_on channel=0 note=86 velocity=24 time=0\n",
      "note_off channel=0 note=103 velocity=64 time=0\n",
      "note_off channel=0 note=58 velocity=64 time=1\n",
      "note_on channel=0 note=59 velocity=60 time=0\n",
      "note_off channel=0 note=73 velocity=64 time=0\n",
      "note_on channel=0 note=75 velocity=54 time=0\n",
      "note_off channel=0 note=79 velocity=64 time=0\n",
      "note_on channel=0 note=82 velocity=36 time=0\n",
      "note_off channel=0 note=85 velocity=64 time=0\n",
      "note_on channel=0 note=88 velocity=19 time=0\n",
      "note_on channel=0 note=93 velocity=70 time=0\n",
      "note_off channel=0 note=94 velocity=64 time=0\n",
      "note_off channel=0 note=99 velocity=64 time=0\n",
      "note_on channel=0 note=73 velocity=50 time=1\n",
      "note_off channel=0 note=77 velocity=64 time=0\n",
      "note_on channel=0 note=78 velocity=59 time=0\n",
      "note_on channel=0 note=70 velocity=75 time=1\n",
      "note_off channel=0 note=71 velocity=64 time=0\n",
      "note_off channel=0 note=75 velocity=64 time=0\n",
      "note_off channel=0 note=82 velocity=64 time=0\n",
      "note_off channel=0 note=90 velocity=64 time=0\n",
      "note_off channel=0 note=93 velocity=64 time=0\n",
      "note_on channel=0 note=58 velocity=59 time=1\n",
      "note_off channel=0 note=59 velocity=64 time=0\n",
      "note_on channel=0 note=77 velocity=69 time=0\n",
      "note_off channel=0 note=86 velocity=64 time=0\n",
      "note_off channel=0 note=88 velocity=64 time=0\n",
      "note_on channel=0 note=94 velocity=52 time=0\n",
      "note_off channel=0 note=78 velocity=64 time=1\n",
      "note_on channel=0 note=83 velocity=55 time=0\n",
      "note_off channel=0 note=102 velocity=64 time=0\n",
      "note_on channel=0 note=69 velocity=78 time=1\n",
      "note_off channel=0 note=70 velocity=64 time=0\n",
      "note_on channel=0 note=88 velocity=16 time=0\n",
      "note_on channel=0 note=93 velocity=62 time=0\n",
      "note_off channel=0 note=94 velocity=64 time=0\n",
      "note_on channel=0 note=57 velocity=61 time=1\n",
      "note_off channel=0 note=58 velocity=64 time=0\n",
      "note_on channel=0 note=76 velocity=77 time=0\n",
      "note_off channel=0 note=77 velocity=64 time=0\n",
      "note_off channel=0 note=80 velocity=64 time=1\n",
      "note_on channel=0 note=80 velocity=55 time=3\n",
      "note_off channel=0 note=88 velocity=64 time=0\n",
      "note_off channel=0 note=65 velocity=64 time=1\n",
      "note_on channel=0 note=89 velocity=45 time=0\n",
      "note_off channel=0 note=100 velocity=64 time=0\n",
      "note_on channel=0 note=56 velocity=44 time=1\n",
      "note_off channel=0 note=57 velocity=64 time=0\n",
      "note_off channel=0 note=56 velocity=64 time=2\n",
      "note_on channel=0 note=57 velocity=69 time=0\n",
      "note_on channel=0 note=66 velocity=43 time=0\n",
      "note_on channel=0 note=71 velocity=31 time=0\n",
      "note_off channel=0 note=76 velocity=64 time=0\n",
      "note_on channel=0 note=77 velocity=38 time=0\n",
      "note_on channel=0 note=96 velocity=23 time=1\n",
      "note_on channel=0 note=61 velocity=78 time=1\n",
      "note_off channel=0 note=66 velocity=64 time=0\n",
      "note_off channel=0 note=69 velocity=64 time=0\n",
      "note_off channel=0 note=71 velocity=64 time=0\n",
      "note_on channel=0 note=84 velocity=12 time=0\n",
      "note_off channel=0 note=93 velocity=64 time=0\n",
      "note_on channel=0 note=94 velocity=14 time=0\n",
      "note_on channel=0 note=76 velocity=72 time=1\n",
      "note_on channel=0 note=90 velocity=59 time=0\n",
      "note_on channel=0 note=93 velocity=66 time=0\n",
      "note_on channel=0 note=49 velocity=34 time=1\n",
      "note_on channel=0 note=70 velocity=71 time=0\n",
      "note_off channel=0 note=73 velocity=64 time=0\n",
      "note_off channel=0 note=77 velocity=64 time=0\n",
      "note_off channel=0 note=96 velocity=64 time=0\n",
      "note_off channel=0 note=61 velocity=64 time=1\n",
      "note_on channel=0 note=62 velocity=63 time=0\n",
      "note_off channel=0 note=84 velocity=64 time=0\n",
      "note_off channel=0 note=49 velocity=64 time=1\n",
      "note_on channel=0 note=69 velocity=82 time=0\n",
      "note_off channel=0 note=70 velocity=64 time=0\n",
      "note_on channel=0 note=73 velocity=19 time=0\n",
      "note_off channel=0 note=94 velocity=64 time=0\n",
      "note_on channel=0 note=100 velocity=25 time=0\n",
      "note_off channel=0 note=80 velocity=64 time=1\n",
      "note_off channel=0 note=90 velocity=64 time=0\n",
      "note_off channel=0 note=62 velocity=64 time=1\n",
      "note_on channel=0 note=65 velocity=21 time=3\n",
      "note_on channel=0 note=90 velocity=38 time=3\n",
      "note_off channel=0 note=91 velocity=64 time=0\n",
      "note_off channel=0 note=100 velocity=64 time=0\n",
      "note_on channel=0 note=91 velocity=44 time=1\n",
      "note_off channel=0 note=65 velocity=64 time=1\n",
      "note_on channel=0 note=68 velocity=78 time=0\n",
      "note_off channel=0 note=69 velocity=64 time=0\n",
      "note_off channel=0 note=73 velocity=64 time=0\n",
      "note_on channel=0 note=75 velocity=60 time=0\n",
      "note_on channel=0 note=82 velocity=65 time=0\n",
      "note_off channel=0 note=83 velocity=64 time=0\n",
      "note_on channel=0 note=92 velocity=63 time=0\n",
      "note_off channel=0 note=93 velocity=64 time=0\n",
      "note_on channel=0 note=96 velocity=23 time=0\n",
      "note_off channel=0 note=57 velocity=64 time=1\n",
      "note_off channel=0 note=76 velocity=64 time=0\n",
      "note_on channel=0 note=77 velocity=38 time=0\n",
      "note_on channel=0 note=84 velocity=46 time=0\n",
      "note_on channel=0 note=55 velocity=59 time=1\n",
      "note_on channel=0 note=64 velocity=38 time=0\n",
      "note_off channel=0 note=82 velocity=64 time=0\n",
      "note_on channel=0 note=83 velocity=60 time=0\n",
      "note_off channel=0 note=77 velocity=64 time=1\n",
      "note_off channel=0 note=55 velocity=64 time=1\n",
      "note_off channel=0 note=64 velocity=64 time=0\n",
      "note_off channel=0 note=84 velocity=64 time=0\n",
      "note_off channel=0 note=96 velocity=64 time=0\n",
      "note_on channel=0 note=55 velocity=58 time=1\n",
      "note_on channel=0 note=71 velocity=46 time=0\n",
      "note_on channel=0 note=67 velocity=78 time=1\n",
      "note_off channel=0 note=68 velocity=64 time=0\n",
      "note_on channel=0 note=77 velocity=31 time=0\n",
      "note_on channel=0 note=61 velocity=34 time=1\n",
      "note_off channel=0 note=90 velocity=64 time=0\n",
      "note_off channel=0 note=92 velocity=64 time=0\n",
      "note_off channel=0 note=55 velocity=64 time=1\n",
      "note_on channel=0 note=93 velocity=58 time=0\n",
      "note_on channel=0 note=55 velocity=61 time=1\n",
      "note_on channel=0 note=74 velocity=46 time=0\n",
      "note_off channel=0 note=75 velocity=64 time=0\n",
      "note_on channel=0 note=75 velocity=47 time=1\n",
      "note_on channel=0 note=54 velocity=51 time=1\n",
      "note_off channel=0 note=55 velocity=64 time=0\n",
      "note_off channel=0 note=67 velocity=64 time=0\n",
      "note_off channel=0 note=74 velocity=64 time=0\n",
      "note_off channel=0 note=91 velocity=64 time=1\n",
      "note_on channel=0 note=67 velocity=71 time=1\n",
      "note_on channel=0 note=74 velocity=37 time=0\n",
      "note_off channel=0 note=75 velocity=64 time=0\n",
      "note_on channel=0 note=91 velocity=43 time=0\n",
      "note_on channel=0 note=92 velocity=63 time=0\n",
      "note_off channel=0 note=54 velocity=64 time=1\n",
      "note_on channel=0 note=75 velocity=53 time=0\n",
      "note_on channel=0 note=84 velocity=25 time=0\n",
      "note_on channel=0 note=100 velocity=32 time=0\n",
      "note_on channel=0 note=56 velocity=56 time=1\n",
      "note_off channel=0 note=61 velocity=64 time=0\n",
      "note_on channel=0 note=64 velocity=82 time=0\n",
      "note_off channel=0 note=77 velocity=64 time=0\n",
      "note_on channel=0 note=82 velocity=24 time=0\n",
      "note_off channel=0 note=83 velocity=64 time=0\n",
      "note_on channel=0 note=94 velocity=54 time=0\n",
      "note_on channel=0 note=45 velocity=77 time=1\n",
      "note_off channel=0 note=67 velocity=64 time=0\n",
      "note_on channel=0 note=68 velocity=75 time=0\n",
      "note_on channel=0 note=73 velocity=44 time=0\n",
      "note_off channel=0 note=74 velocity=64 time=0\n",
      "note_on channel=0 note=83 velocity=51 time=0\n",
      "note_off channel=0 note=91 velocity=64 time=0\n",
      "note_off channel=0 note=93 velocity=64 time=0\n",
      "note_on channel=0 note=96 velocity=31 time=0\n",
      "note_on channel=0 note=103 velocity=20 time=0\n",
      "note_on channel=0 note=55 velocity=65 time=1\n",
      "note_off channel=0 note=56 velocity=64 time=0\n",
      "note_on channel=0 note=77 velocity=29 time=0\n",
      "note_off channel=0 note=84 velocity=64 time=0\n",
      "note_on channel=0 note=44 velocity=78 time=1\n",
      "note_off channel=0 note=45 velocity=64 time=0\n",
      "note_on channel=0 note=63 velocity=71 time=0\n",
      "note_off channel=0 note=64 velocity=64 time=0\n",
      "note_off channel=0 note=82 velocity=64 time=0\n",
      "note_on channel=0 note=84 velocity=29 time=0\n",
      "note_off channel=0 note=55 velocity=64 time=1\n",
      "note_off channel=0 note=84 velocity=64 time=1\n",
      "note_off channel=0 note=96 velocity=64 time=0\n",
      "note_off channel=0 note=44 velocity=64 time=1\n",
      "note_on channel=0 note=45 velocity=76 time=0\n",
      "note_on channel=0 note=55 velocity=67 time=0\n",
      "note_on channel=0 note=61 velocity=61 time=0\n",
      "note_off channel=0 note=63 velocity=64 time=0\n",
      "note_off channel=0 note=103 velocity=64 time=0\n",
      "note_on channel=0 note=91 velocity=36 time=1\n",
      "note_off channel=0 note=92 velocity=64 time=0\n",
      "note_on channel=0 note=93 velocity=51 time=0\n",
      "note_off channel=0 note=94 velocity=64 time=0\n",
      "note_on channel=0 note=44 velocity=70 time=1\n",
      "note_off channel=0 note=45 velocity=64 time=0\n",
      "note_off channel=0 note=68 velocity=64 time=0\n",
      "note_off channel=0 note=73 velocity=64 time=0\n",
      "note_off channel=0 note=100 velocity=64 time=0\n",
      "note_off channel=0 note=75 velocity=64 time=1\n",
      "note_on channel=0 note=43 velocity=62 time=1\n",
      "note_off channel=0 note=44 velocity=64 time=0\n",
      "note_on channel=0 note=73 velocity=62 time=0\n",
      "note_off channel=0 note=89 velocity=64 time=0\n",
      "note_on channel=0 note=94 velocity=34 time=0\n",
      "note_on channel=0 note=66 velocity=58 time=1\n",
      "note_on channel=0 note=90 velocity=45 time=0\n",
      "note_off channel=0 note=93 velocity=64 time=0\n",
      "note_on channel=0 note=42 velocity=59 time=1\n",
      "note_off channel=0 note=43 velocity=64 time=0\n",
      "note_off channel=0 note=55 velocity=64 time=0\n",
      "note_off channel=0 note=91 velocity=64 time=0\n",
      "note_off channel=0 note=42 velocity=64 time=2\n",
      "note_on channel=0 note=68 velocity=47 time=0\n",
      "note_on channel=0 note=47 velocity=74 time=3\n",
      "note_off channel=0 note=68 velocity=64 time=0\n",
      "note_on channel=0 note=82 velocity=27 time=1\n",
      "note_off channel=0 note=47 velocity=64 time=1\n",
      "note_on channel=0 note=48 velocity=70 time=0\n",
      "note_on channel=0 note=65 velocity=51 time=0\n",
      "note_off channel=0 note=66 velocity=64 time=0\n",
      "note_off channel=0 note=83 velocity=64 time=0\n",
      "note_off channel=0 note=94 velocity=64 time=0\n",
      "note_off channel=0 note=48 velocity=64 time=1\n",
      "note_on channel=0 note=49 velocity=74 time=0\n",
      "note_off channel=0 note=49 velocity=64 time=1\n",
      "note_on channel=0 note=52 velocity=75 time=0\n",
      "note_off channel=0 note=65 velocity=64 time=0\n",
      "note_on channel=0 note=66 velocity=54 time=0\n",
      "note_on channel=0 note=87 velocity=28 time=0\n",
      "note_off channel=0 note=52 velocity=64 time=1\n",
      "note_on channel=0 note=53 velocity=71 time=0\n",
      "note_off channel=0 note=77 velocity=64 time=0\n",
      "note_off channel=0 note=53 velocity=64 time=1\n",
      "note_on channel=0 note=54 velocity=69 time=0\n",
      "note_off channel=0 note=61 velocity=64 time=1\n",
      "note_off channel=0 note=66 velocity=64 time=0\n",
      "note_on channel=0 note=81 velocity=19 time=0\n",
      "note_off channel=0 note=82 velocity=64 time=0\n",
      "note_off channel=0 note=90 velocity=64 time=0\n",
      "note_off channel=0 note=54 velocity=64 time=1\n",
      "note_on channel=0 note=56 velocity=66 time=0\n",
      "note_on channel=0 note=61 velocity=19 time=0\n",
      "note_on channel=0 note=76 velocity=38 time=0\n",
      "note_on channel=0 note=84 velocity=27 time=0\n",
      "note_on channel=0 note=89 velocity=32 time=1\n",
      "note_off channel=0 note=56 velocity=64 time=1\n",
      "note_on channel=0 note=57 velocity=66 time=0\n",
      "note_off channel=0 note=71 velocity=64 time=0\n",
      "note_on channel=0 note=65 velocity=59 time=1\n",
      "note_off channel=0 note=81 velocity=64 time=0\n",
      "note_off channel=0 note=84 velocity=64 time=0\n",
      "note_on channel=0 note=90 velocity=28 time=0\n",
      "note_on channel=0 note=56 velocity=70 time=1\n",
      "note_off channel=0 note=57 velocity=64 time=0\n",
      "note_off channel=0 note=61 velocity=64 time=0\n",
      "note_off channel=0 note=73 velocity=64 time=0\n",
      "note_on channel=0 note=84 velocity=40 time=0\n",
      "note_on channel=0 note=55 velocity=72 time=1\n",
      "note_off channel=0 note=56 velocity=64 time=0\n",
      "note_on channel=0 note=64 velocity=82 time=0\n",
      "note_off channel=0 note=65 velocity=64 time=0\n",
      "note_on channel=0 note=73 velocity=53 time=0\n",
      "note_off channel=0 note=76 velocity=64 time=0\n",
      "note_on channel=0 note=77 velocity=39 time=0\n",
      "note_on channel=0 note=91 velocity=19 time=0\n",
      "note_on channel=0 note=45 velocity=76 time=1\n",
      "note_on channel=0 note=71 velocity=41 time=0\n",
      "note_on channel=0 note=81 velocity=39 time=0\n",
      "note_off channel=0 note=84 velocity=64 time=0\n",
      "note_on channel=0 note=44 velocity=79 time=1\n",
      "note_off channel=0 note=45 velocity=64 time=0\n",
      "note_on channel=0 note=54 velocity=67 time=0\n",
      "note_off channel=0 note=55 velocity=64 time=0\n",
      "note_on channel=0 note=63 velocity=74 time=0\n",
      "note_off channel=0 note=64 velocity=64 time=0\n",
      "note_on channel=0 note=82 velocity=50 time=0\n",
      "note_off channel=0 note=54 velocity=64 time=1\n",
      "note_on channel=0 note=55 velocity=70 time=0\n",
      "note_on channel=0 note=66 velocity=51 time=0\n",
      "note_off channel=0 note=81 velocity=64 time=0\n",
      "note_on channel=0 note=54 velocity=59 time=2\n",
      "note_off channel=0 note=55 velocity=64 time=0\n",
      "note_on channel=0 note=61 velocity=72 time=1\n",
      "note_off channel=0 note=63 velocity=64 time=0\n",
      "note_off channel=0 note=44 velocity=64 time=1\n",
      "note_off channel=0 note=89 velocity=64 time=0\n",
      "note_on channel=0 note=53 velocity=70 time=1\n",
      "note_off channel=0 note=54 velocity=64 time=0\n",
      "note_off channel=0 note=66 velocity=64 time=0\n",
      "note_on channel=0 note=68 velocity=38 time=0\n",
      "note_on channel=0 note=72 velocity=52 time=1\n",
      "note_off channel=0 note=73 velocity=64 time=0\n",
      "note_off channel=0 note=82 velocity=64 time=0\n",
      "note_off channel=0 note=90 velocity=64 time=0\n",
      "note_on channel=0 note=43 velocity=60 time=1\n",
      "note_off channel=0 note=71 velocity=64 time=0\n",
      "note_on channel=0 note=82 velocity=34 time=0\n",
      "note_on channel=0 note=42 velocity=58 time=2\n",
      "note_off channel=0 note=43 velocity=64 time=0\n",
      "note_off channel=0 note=87 velocity=64 time=1\n",
      "note_on channel=0 note=90 velocity=14 time=0\n",
      "note_on channel=0 note=71 velocity=38 time=1\n",
      "note_off channel=0 note=72 velocity=64 time=0\n",
      "note_off channel=0 note=82 velocity=64 time=0\n",
      "note_on channel=0 note=85 velocity=48 time=0\n",
      "note_off channel=0 note=42 velocity=64 time=1\n",
      "note_off channel=0 note=53 velocity=64 time=0\n",
      "note_on channel=0 note=54 velocity=61 time=0\n",
      "note_on channel=0 note=65 velocity=51 time=0\n",
      "note_on channel=0 note=82 velocity=33 time=0\n",
      "note_on channel=0 note=88 velocity=40 time=0\n",
      "note_on channel=0 note=42 velocity=53 time=1\n",
      "note_on channel=0 note=53 velocity=67 time=1\n",
      "note_off channel=0 note=54 velocity=64 time=0\n",
      "note_off channel=0 note=77 velocity=64 time=1\n",
      "note_on channel=0 note=81 velocity=32 time=0\n",
      "note_off channel=0 note=82 velocity=64 time=0\n",
      "note_off channel=0 note=90 velocity=64 time=0\n",
      "note_off channel=0 note=71 velocity=64 time=1\n",
      "note_on channel=0 note=72 velocity=48 time=0\n",
      "note_on channel=0 note=82 velocity=20 time=0\n",
      "note_on channel=0 note=78 velocity=28 time=1\n",
      "note_on channel=0 note=80 velocity=86 time=0\n",
      "note_off channel=0 note=81 velocity=64 time=0\n",
      "note_on channel=0 note=87 velocity=46 time=0\n",
      "note_off channel=0 note=65 velocity=64 time=1\n",
      "note_on channel=0 note=76 velocity=49 time=0\n",
      "note_off channel=0 note=85 velocity=64 time=0\n",
      "note_on channel=0 note=86 velocity=13 time=0\n",
      "note_on channel=0 note=90 velocity=35 time=0\n",
      "note_on channel=0 note=52 velocity=68 time=1\n",
      "note_off channel=0 note=53 velocity=64 time=0\n",
      "note_on channel=0 note=65 velocity=51 time=0\n",
      "note_on channel=0 note=71 velocity=45 time=0\n",
      "note_off channel=0 note=72 velocity=64 time=0\n",
      "note_off channel=0 note=82 velocity=64 time=0\n",
      "note_on channel=0 note=83 velocity=54 time=0\n",
      "note_off channel=0 note=65 velocity=64 time=2\n",
      "note_off channel=0 note=78 velocity=64 time=0\n",
      "note_off channel=0 note=86 velocity=64 time=0\n",
      "note_on channel=0 note=78 velocity=22 time=1\n",
      "note_on channel=0 note=84 velocity=12 time=0\n",
      "note_off channel=0 note=42 velocity=64 time=2\n",
      "note_off channel=0 note=91 velocity=64 time=0\n",
      "note_on channel=0 note=81 velocity=41 time=1\n",
      "note_on channel=0 note=89 velocity=68 time=0\n",
      "note_on channel=0 note=47 velocity=84 time=1\n",
      "note_off channel=0 note=68 velocity=64 time=0\n",
      "note_on channel=0 note=70 velocity=50 time=0\n",
      "note_off channel=0 note=71 velocity=64 time=0\n",
      "note_off channel=0 note=78 velocity=64 time=0\n",
      "note_off channel=0 note=84 velocity=64 time=0\n",
      "note_off channel=0 note=52 velocity=64 time=1\n",
      "note_off channel=0 note=61 velocity=64 time=0\n",
      "note_on channel=0 note=64 velocity=73 time=0\n",
      "note_on channel=0 note=78 velocity=39 time=0\n",
      "note_off channel=0 note=81 velocity=64 time=0\n",
      "note_on channel=0 note=84 velocity=49 time=0\n",
      "note_off channel=0 note=88 velocity=64 time=0\n",
      "note_on channel=0 note=91 velocity=20 time=0\n",
      "note_off channel=0 note=47 velocity=64 time=1\n",
      "note_on channel=0 note=48 velocity=85 time=0\n",
      "note_on channel=0 note=63 velocity=66 time=0\n",
      "note_off channel=0 note=64 velocity=64 time=0\n",
      "note_on channel=0 note=77 velocity=31 time=0\n",
      "note_on channel=0 note=68 velocity=36 time=1\n",
      "note_off channel=0 note=76 velocity=64 time=0\n",
      "note_off channel=0 note=78 velocity=64 time=0\n",
      "note_off channel=0 note=48 velocity=64 time=1\n",
      "note_off channel=0 note=83 velocity=64 time=0\n",
      "note_off channel=0 note=90 velocity=64 time=0\n",
      "note_off channel=0 note=70 velocity=64 time=1\n",
      "note_on channel=0 note=71 velocity=51 time=0\n",
      "note_on channel=0 note=100 velocity=24 time=0\n",
      "note_off channel=0 note=63 velocity=64 time=1\n",
      "note_on channel=0 note=64 velocity=61 time=0\n",
      "note_off channel=0 note=91 velocity=64 time=0\n",
      "note_on channel=0 note=88 velocity=36 time=1\n",
      "note_off channel=0 note=64 velocity=64 time=1\n",
      "note_off channel=0 note=89 velocity=64 time=0\n",
      "note_on channel=0 note=64 velocity=60 time=1\n",
      "note_off channel=0 note=100 velocity=64 time=0\n",
      "note_on channel=0 note=52 velocity=59 time=2\n",
      "note_on channel=0 note=44 velocity=32 time=3\n",
      "note_on channel=0 note=82 velocity=35 time=0\n",
      "note_off channel=0 note=52 velocity=64 time=1\n",
      "note_off channel=0 note=44 velocity=64 time=1\n",
      "note_on channel=0 note=52 velocity=63 time=0\n",
      "note_off channel=0 note=77 velocity=64 time=0\n",
      "note_on channel=0 note=86 velocity=18 time=1\n",
      "note_on channel=0 note=75 velocity=52 time=1\n",
      "note_off channel=0 note=64 velocity=64 time=1\n",
      "note_on channel=0 note=65 velocity=59 time=0\n",
      "note_off channel=0 note=52 velocity=64 time=3\n",
      "note_on channel=0 note=52 velocity=45 time=1\n",
      "note_off channel=0 note=52 velocity=64 time=2\n",
      "note_on channel=0 note=78 velocity=42 time=1\n",
      "note_off channel=0 note=86 velocity=64 time=0\n",
      "note_on channel=0 note=53 velocity=33 time=1\n",
      "note_off channel=0 note=82 velocity=64 time=1\n",
      "note_off channel=0 note=88 velocity=64 time=0\n",
      "note_on channel=0 note=89 velocity=68 time=0\n",
      "note_off channel=0 note=53 velocity=64 time=1\n",
      "note_off channel=0 note=68 velocity=64 time=0\n",
      "note_on channel=0 note=69 velocity=43 time=0\n",
      "note_on channel=0 note=95 velocity=40 time=0\n",
      "note_on channel=0 note=102 velocity=23 time=0\n",
      "note_on channel=0 note=46 velocity=70 time=1\n",
      "note_off channel=0 note=71 velocity=64 time=0\n",
      "note_off channel=0 note=78 velocity=64 time=0\n",
      "note_on channel=0 note=90 velocity=36 time=0\n",
      "note_on channel=0 note=45 velocity=77 time=1\n",
      "note_off channel=0 note=46 velocity=64 time=0\n",
      "note_on channel=0 note=56 velocity=38 time=0\n",
      "note_on channel=0 note=82 velocity=42 time=0\n",
      "note_on channel=0 note=85 velocity=30 time=0\n",
      "note_on channel=0 note=91 velocity=20 time=0\n",
      "note_on channel=0 note=44 velocity=78 time=1\n",
      "note_off channel=0 note=45 velocity=64 time=0\n",
      "note_on channel=0 note=73 velocity=32 time=0\n",
      "note_on channel=0 note=78 velocity=28 time=0\n",
      "note_off channel=0 note=56 velocity=64 time=1\n",
      "note_on channel=0 note=71 velocity=16 time=0\n",
      "note_off channel=0 note=102 velocity=64 time=0\n",
      "note_off channel=0 note=91 velocity=64 time=1\n",
      "note_on channel=0 note=43 velocity=73 time=1\n",
      "note_off channel=0 note=44 velocity=64 time=0\n",
      "note_off channel=0 note=69 velocity=64 time=0\n",
      "note_on channel=0 note=88 velocity=43 time=0\n",
      "note_off channel=0 note=95 velocity=64 time=0\n",
      "note_off channel=0 note=75 velocity=64 time=1\n",
      "note_off channel=0 note=89 velocity=64 time=0\n",
      "note_off channel=0 note=88 velocity=64 time=1\n",
      "note_on channel=0 note=89 velocity=42 time=0\n",
      "note_on channel=0 note=91 velocity=34 time=0\n",
      "note_off channel=0 note=78 velocity=64 time=1\n",
      "note_on channel=0 note=68 velocity=24 time=2\n",
      "note_off channel=0 note=71 velocity=64 time=0\n",
      "note_off channel=0 note=91 velocity=64 time=0\n",
      "note_on channel=0 note=61 velocity=72 time=1\n",
      "note_on channel=0 note=75 velocity=34 time=0\n",
      "note_off channel=0 note=85 velocity=64 time=0\n",
      "note_on channel=0 note=91 velocity=34 time=1\n",
      "note_on channel=0 note=93 velocity=35 time=0\n",
      "note_off channel=0 note=43 velocity=64 time=2\n",
      "note_on channel=0 note=86 velocity=13 time=3\n",
      "note_off channel=0 note=84 velocity=64 time=1\n",
      "note_on channel=0 note=71 velocity=26 time=1\n",
      "note_off channel=0 note=89 velocity=64 time=0\n",
      "note_off channel=0 note=86 velocity=64 time=2\n",
      "note_on channel=0 note=88 velocity=30 time=0\n",
      "note_off channel=0 note=91 velocity=64 time=0\n",
      "note_on channel=0 note=91 velocity=75 time=1\n",
      "note_on channel=0 note=51 velocity=49 time=1\n",
      "note_on channel=0 note=95 velocity=43 time=1\n",
      "note_off channel=0 note=51 velocity=64 time=1\n",
      "note_on channel=0 note=49 velocity=67 time=1\n",
      "note_on channel=0 note=96 velocity=25 time=0\n",
      "note_off channel=0 note=68 velocity=64 time=2\n",
      "note_off channel=0 note=73 velocity=64 time=0\n",
      "note_on channel=0 note=83 velocity=33 time=0\n",
      "note_on channel=0 note=84 velocity=25 time=0\n",
      "note_on channel=0 note=89 velocity=54 time=0\n",
      "note_on channel=0 note=48 velocity=67 time=1\n",
      "note_off channel=0 note=49 velocity=64 time=0\n",
      "note_off channel=0 note=61 velocity=64 time=0\n",
      "note_on channel=0 note=62 velocity=81 time=0\n",
      "note_off channel=0 note=65 velocity=64 time=0\n",
      "note_off channel=0 note=82 velocity=64 time=0\n",
      "note_off channel=0 note=88 velocity=64 time=0\n",
      "note_off channel=0 note=90 velocity=64 time=0\n",
      "note_on channel=0 note=45 velocity=74 time=1\n",
      "note_off channel=0 note=48 velocity=64 time=0\n",
      "note_on channel=0 note=61 velocity=78 time=0\n",
      "note_off channel=0 note=62 velocity=64 time=0\n",
      "note_on channel=0 note=64 velocity=83 time=0\n",
      "note_on channel=0 note=67 velocity=55 time=0\n",
      "note_off channel=0 note=71 velocity=64 time=0\n",
      "note_off channel=0 note=75 velocity=64 time=0\n",
      "note_on channel=0 note=82 velocity=22 time=0\n",
      "note_on channel=0 note=44 velocity=80 time=1\n",
      "note_off channel=0 note=45 velocity=64 time=0\n",
      "note_on channel=0 note=63 velocity=72 time=0\n",
      "note_off channel=0 note=64 velocity=64 time=0\n",
      "note_off channel=0 note=63 velocity=64 time=1\n",
      "note_off channel=0 note=67 velocity=64 time=0\n",
      "note_on channel=0 note=68 velocity=55 time=0\n",
      "note_on channel=0 note=90 velocity=30 time=0\n",
      "note_on channel=0 note=43 velocity=79 time=1\n",
      "note_off channel=0 note=44 velocity=64 time=0\n",
      "note_off channel=0 note=82 velocity=64 time=0\n",
      "note_off channel=0 note=93 velocity=64 time=0\n",
      "note_on channel=0 note=94 velocity=35 time=0\n",
      "note_on channel=0 note=100 velocity=38 time=0\n",
      "note_off channel=0 note=43 velocity=64 time=1\n",
      "note_on channel=0 note=44 velocity=79 time=0\n",
      "note_off channel=0 note=90 velocity=64 time=0\n",
      "note_on channel=0 note=65 velocity=34 time=1\n",
      "note_on channel=0 note=90 velocity=64 time=0\n",
      "note_off channel=0 note=44 velocity=64 time=1\n",
      "note_off channel=0 note=89 velocity=64 time=0\n",
      "note_on channel=0 note=48 velocity=68 time=1\n",
      "note_off channel=0 note=65 velocity=64 time=0\n",
      "note_on channel=0 note=71 velocity=17 time=0\n",
      "note_on channel=0 note=89 velocity=57 time=0\n",
      "note_on channel=0 note=93 velocity=39 time=0\n",
      "note_off channel=0 note=94 velocity=64 time=0\n",
      "note_off channel=0 note=48 velocity=64 time=1\n",
      "note_on channel=0 note=49 velocity=67 time=0\n",
      "note_on channel=0 note=82 velocity=46 time=0\n",
      "note_on channel=0 note=86 velocity=16 time=1\n",
      "note_off channel=0 note=91 velocity=64 time=0\n",
      "note_on channel=0 note=94 velocity=52 time=0\n",
      "note_off channel=0 note=95 velocity=64 time=0\n",
      "note_off channel=0 note=49 velocity=64 time=1\n",
      "note_off channel=0 note=83 velocity=64 time=0\n",
      "note_on channel=0 note=95 velocity=41 time=0\n",
      "note_on channel=0 note=49 velocity=66 time=1\n",
      "note_on channel=0 note=60 velocity=45 time=0\n",
      "note_off channel=0 note=61 velocity=64 time=0\n",
      "note_on channel=0 note=76 velocity=29 time=0\n",
      "note_off channel=0 note=96 velocity=64 time=0\n",
      "note_on channel=0 note=48 velocity=69 time=1\n",
      "note_off channel=0 note=49 velocity=64 time=0\n",
      "note_off channel=0 note=71 velocity=64 time=0\n",
      "note_off channel=0 note=84 velocity=64 time=0\n",
      "note_off channel=0 note=90 velocity=64 time=0\n",
      "note_on channel=0 note=91 velocity=49 time=0\n",
      "note_on channel=0 note=96 velocity=27 time=0\n",
      "note_off channel=0 note=60 velocity=64 time=1\n",
      "note_on channel=0 note=61 velocity=49 time=0\n",
      "note_off channel=0 note=76 velocity=64 time=0\n",
      "note_on channel=0 note=77 velocity=32 time=0\n",
      "note_off channel=0 note=86 velocity=64 time=0\n",
      "note_off channel=0 note=48 velocity=64 time=1\n",
      "note_on channel=0 note=49 velocity=68 time=0\n",
      "note_off channel=0 note=93 velocity=64 time=0\n",
      "note_off channel=0 note=49 velocity=64 time=1\n",
      "note_on channel=0 note=51 velocity=72 time=0\n",
      "note_off channel=0 note=68 velocity=64 time=0\n",
      "note_on channel=0 note=69 velocity=60 time=0\n",
      "note_on channel=0 note=74 velocity=35 time=0\n",
      "note_on channel=0 note=93 velocity=50 time=0\n",
      "note_on channel=0 note=102 velocity=12 time=0\n",
      "note_off channel=0 note=61 velocity=64 time=1\n",
      "note_on channel=0 note=84 velocity=34 time=0\n",
      "note_off channel=0 note=94 velocity=64 time=0\n",
      "note_on channel=0 note=48 velocity=74 time=1\n",
      "note_off channel=0 note=51 velocity=64 time=0\n",
      "note_on channel=0 note=68 velocity=42 time=0\n",
      "note_off channel=0 note=69 velocity=64 time=0\n",
      "note_on channel=0 note=70 velocity=50 time=0\n",
      "note_on channel=0 note=73 velocity=41 time=0\n",
      "note_off channel=0 note=74 velocity=64 time=0\n",
      "note_off channel=0 note=48 velocity=64 time=1\n",
      "note_on channel=0 note=49 velocity=72 time=0\n",
      "note_on channel=0 note=72 velocity=64 time=0\n",
      "note_off channel=0 note=96 velocity=64 time=0\n",
      "note_off channel=0 note=102 velocity=64 time=0\n",
      "note_off channel=0 note=49 velocity=64 time=1\n",
      "note_on channel=0 note=50 velocity=79 time=0\n",
      "note_off channel=0 note=68 velocity=64 time=0\n",
      "note_off channel=0 note=70 velocity=64 time=0\n",
      "note_on channel=0 note=90 velocity=35 time=0\n",
      "note_off channel=0 note=50 velocity=64 time=1\n",
      "note_on channel=0 note=51 velocity=69 time=0\n",
      "note_on channel=0 note=65 velocity=52 time=0\n",
      "note_on channel=0 note=78 velocity=24 time=0\n",
      "note_off channel=0 note=91 velocity=64 time=0\n",
      "note_off channel=0 note=93 velocity=64 time=0\n",
      "note_off channel=0 note=51 velocity=64 time=1\n",
      "note_on channel=0 note=52 velocity=66 time=0\n",
      "note_on channel=0 note=62 velocity=17 time=0\n",
      "note_off channel=0 note=73 velocity=64 time=0\n",
      "note_off channel=0 note=77 velocity=64 time=0\n",
      "note_on channel=0 note=91 velocity=45 time=0\n",
      "note_on channel=0 note=93 velocity=62 time=0\n",
      "note_off channel=0 note=65 velocity=64 time=1\n",
      "note_off channel=0 note=72 velocity=64 time=0\n",
      "note_on channel=0 note=73 velocity=81 time=0\n",
      "note_on channel=0 note=77 velocity=64 time=0\n",
      "note_on channel=0 note=102 velocity=36 time=0\n",
      "note_on channel=0 note=65 velocity=34 time=1\n",
      "note_off channel=0 note=78 velocity=64 time=0\n",
      "note_off channel=0 note=52 velocity=64 time=1\n",
      "note_on channel=0 note=53 velocity=64 time=0\n",
      "note_off channel=0 note=62 velocity=64 time=0\n",
      "note_on channel=0 note=72 velocity=79 time=0\n",
      "note_off channel=0 note=73 velocity=64 time=0\n",
      "note_on channel=0 note=64 velocity=45 time=1\n",
      "note_off channel=0 note=65 velocity=64 time=0\n",
      "note_off channel=0 note=93 velocity=64 time=0\n",
      "note_on channel=0 note=71 velocity=64 time=1\n",
      "note_off channel=0 note=72 velocity=64 time=0\n",
      "note_on channel=0 note=76 velocity=59 time=0\n",
      "note_off channel=0 note=77 velocity=64 time=0\n",
      "note_on channel=0 note=85 velocity=23 time=0\n",
      "note_on channel=0 note=93 velocity=37 time=0\n",
      "note_off channel=0 note=53 velocity=64 time=1\n",
      "note_off channel=0 note=90 velocity=64 time=0\n",
      "note_off channel=0 note=91 velocity=64 time=0\n",
      "note_on channel=0 note=51 velocity=62 time=1\n",
      "note_off channel=0 note=64 velocity=64 time=0\n",
      "note_on channel=0 note=65 velocity=67 time=0\n",
      "note_on channel=0 note=73 velocity=48 time=0\n",
      "note_on channel=0 note=79 velocity=43 time=0\n",
      "note_on channel=0 note=91 velocity=49 time=0\n",
      "note_on channel=0 note=45 velocity=77 time=1\n",
      "note_on channel=0 note=64 velocity=76 time=0\n",
      "note_off channel=0 note=65 velocity=64 time=0\n",
      "note_off channel=0 note=80 velocity=64 time=0\n",
      "note_off channel=0 note=85 velocity=64 time=0\n",
      "note_off channel=0 note=51 velocity=64 time=1\n",
      "note_on channel=0 note=52 velocity=71 time=0\n",
      "note_on channel=0 note=63 velocity=68 time=0\n",
      "note_off channel=0 note=64 velocity=64 time=0\n",
      "note_off channel=0 note=79 velocity=64 time=0\n",
      "note_on channel=0 note=80 velocity=48 time=0\n",
      "note_off channel=0 note=84 velocity=64 time=0\n",
      "note_on channel=0 note=90 velocity=55 time=0\n",
      "note_on channel=0 note=44 velocity=79 time=1\n",
      "note_off channel=0 note=45 velocity=64 time=0\n",
      "note_off channel=0 note=52 velocity=64 time=0\n",
      "note_on channel=0 note=53 velocity=76 time=0\n",
      "note_off channel=0 note=71 velocity=64 time=0\n",
      "note_on channel=0 note=72 velocity=63 time=0\n",
      "note_off channel=0 note=73 velocity=64 time=0\n",
      "note_off channel=0 note=82 velocity=64 time=0\n",
      "note_off channel=0 note=89 velocity=64 time=0\n",
      "note_off channel=0 note=76 velocity=64 time=1\n",
      "note_on channel=0 note=77 velocity=44 time=0\n",
      "note_on channel=0 note=82 velocity=46 time=0\n",
      "note_off channel=0 note=90 velocity=64 time=0\n",
      "note_off channel=0 note=95 velocity=64 time=0\n",
      "note_off channel=0 note=100 velocity=64 time=0\n",
      "note_off channel=0 note=102 velocity=64 time=0\n",
      "note_off channel=0 note=63 velocity=64 time=1\n",
      "note_on channel=0 note=66 velocity=44 time=0\n",
      "note_off channel=0 note=44 velocity=64 time=1\n",
      "note_on channel=0 note=45 velocity=75 time=0\n",
      "note_off channel=0 note=53 velocity=64 time=0\n",
      "note_on channel=0 note=55 velocity=66 time=0\n",
      "note_on channel=0 note=61 velocity=64 time=0\n",
      "note_on channel=0 note=75 velocity=42 time=0\n",
      "note_on channel=0 note=90 velocity=38 time=0\n",
      "note_off channel=0 note=66 velocity=64 time=1\n",
      "note_on channel=0 note=71 velocity=37 time=0\n",
      "note_off channel=0 note=72 velocity=64 time=0\n",
      "note_on channel=0 note=88 velocity=44 time=0\n",
      "note_on channel=0 note=44 velocity=70 time=1\n",
      "note_off channel=0 note=45 velocity=64 time=0\n",
      "note_off channel=0 note=55 velocity=64 time=0\n",
      "note_off channel=0 note=87 velocity=64 time=0\n",
      "note_off channel=0 note=71 velocity=64 time=1\n",
      "note_off channel=0 note=44 velocity=64 time=1\n",
      "note_on channel=0 note=66 velocity=36 time=0\n",
      "note_on channel=0 note=69 velocity=58 time=0\n",
      "note_on channel=0 note=84 velocity=49 time=0\n",
      "note_off channel=0 note=91 velocity=64 time=0\n",
      "note_on channel=0 note=42 velocity=58 time=1\n",
      "note_on channel=0 note=56 velocity=61 time=1\n",
      "note_off channel=0 note=66 velocity=64 time=0\n",
      "note_on channel=0 note=68 velocity=65 time=0\n",
      "note_off channel=0 note=69 velocity=64 time=0\n",
      "note_off channel=0 note=42 velocity=64 time=1\n",
      "note_on channel=0 note=83 velocity=41 time=0\n",
      "note_on channel=0 note=91 velocity=39 time=0\n",
      "note_off channel=0 note=56 velocity=64 time=1\n",
      "note_on channel=0 note=67 velocity=62 time=0\n",
      "note_off channel=0 note=68 velocity=64 time=0\n",
      "note_on channel=0 note=73 velocity=67 time=0\n",
      "note_off channel=0 note=75 velocity=64 time=0\n",
      "note_off channel=0 note=82 velocity=64 time=0\n",
      "note_on channel=0 note=86 velocity=45 time=0\n",
      "note_on channel=0 note=48 velocity=65 time=1\n",
      "note_on channel=0 note=54 velocity=74 time=0\n",
      "note_on channel=0 note=82 velocity=42 time=0\n",
      "note_off channel=0 note=83 velocity=64 time=0\n",
      "note_off channel=0 note=67 velocity=64 time=1\n",
      "note_on channel=0 note=87 velocity=57 time=0\n",
      "note_on channel=0 note=95 velocity=22 time=0\n",
      "note_on channel=0 note=47 velocity=72 time=1\n",
      "note_off channel=0 note=48 velocity=64 time=0\n",
      "note_on channel=0 note=79 velocity=15 time=0\n",
      "note_off channel=0 note=84 velocity=64 time=0\n",
      "note_on channel=0 note=65 velocity=59 time=1\n",
      "note_on channel=0 note=78 velocity=34 time=0\n",
      "note_on channel=0 note=81 velocity=39 time=0\n",
      "note_off channel=0 note=82 velocity=64 time=0\n",
      "note_on channel=0 note=89 velocity=46 time=0\n",
      "note_off channel=0 note=90 velocity=64 time=0\n",
      "note_off channel=0 note=47 velocity=64 time=1\n",
      "note_on channel=0 note=48 velocity=69 time=0\n",
      "note_on channel=0 note=53 velocity=83 time=0\n",
      "note_off channel=0 note=54 velocity=64 time=0\n",
      "note_on channel=0 note=72 velocity=72 time=0\n",
      "note_off channel=0 note=73 velocity=64 time=0\n",
      "note_off channel=0 note=77 velocity=64 time=0\n",
      "note_off channel=0 note=86 velocity=64 time=0\n",
      "note_off channel=0 note=88 velocity=64 time=0\n",
      "note_off channel=0 note=48 velocity=64 time=1\n",
      "note_off channel=0 note=78 velocity=64 time=0\n",
      "note_on channel=0 note=88 velocity=40 time=0\n",
      "note_on channel=0 note=102 velocity=11 time=0\n",
      "note_on channel=0 note=68 velocity=35 time=1\n",
      "note_off channel=0 note=79 velocity=64 time=0\n",
      "note_off channel=0 note=80 velocity=64 time=0\n",
      "note_on channel=0 note=83 velocity=45 time=1\n",
      "note_off channel=0 note=53 velocity=64 time=1\n",
      "note_on channel=0 note=54 velocity=73 time=0\n",
      "note_off channel=0 note=68 velocity=64 time=0\n",
      "note_on channel=0 note=90 velocity=41 time=0\n",
      "note_off channel=0 note=102 velocity=64 time=0\n",
      "note_off channel=0 note=61 velocity=64 time=1\n",
      "note_off channel=0 note=65 velocity=64 time=0\n",
      "note_off channel=0 note=72 velocity=64 time=0\n",
      "note_on channel=0 note=73 velocity=65 time=0\n",
      "note_off channel=0 note=81 velocity=64 time=0\n",
      "note_on channel=0 note=80 velocity=84 time=1\n",
      "note_off channel=0 note=89 velocity=64 time=0\n",
      "note_off channel=0 note=54 velocity=64 time=1\n",
      "note_on channel=0 note=56 velocity=56 time=0\n",
      "note_on channel=0 note=65 velocity=43 time=0\n",
      "note_on channel=0 note=68 velocity=65 time=0\n",
      "note_on channel=0 note=75 velocity=28 time=0\n",
      "note_on channel=0 note=89 velocity=69 time=0\n",
      "note_off channel=0 note=95 velocity=64 time=0\n",
      "note_off channel=0 note=88 velocity=64 time=1\n",
      "note_off channel=0 note=56 velocity=64 time=1\n",
      "note_off channel=0 note=65 velocity=64 time=0\n",
      "note_on channel=0 note=88 velocity=53 time=0\n",
      "note_off channel=0 note=91 velocity=64 time=0\n",
      "note_on channel=0 note=65 velocity=62 time=1\n",
      "note_off channel=0 note=73 velocity=64 time=0\n",
      "note_on channel=0 note=74 velocity=40 time=0\n",
      "note_off channel=0 note=75 velocity=64 time=0\n",
      "note_on channel=0 note=76 velocity=43 time=0\n",
      "note_on channel=0 note=78 velocity=37 time=0\n",
      "note_on channel=0 note=82 velocity=48 time=0\n",
      "note_off channel=0 note=90 velocity=64 time=0\n",
      "note_on channel=0 note=96 velocity=17 time=0\n",
      "note_on channel=0 note=48 velocity=89 time=1\n",
      "note_off channel=0 note=68 velocity=64 time=0\n",
      "note_off channel=0 note=83 velocity=64 time=0\n",
      "note_off channel=0 note=88 velocity=64 time=0\n",
      "note_on channel=0 note=90 velocity=42 time=0\n",
      "note_off channel=0 note=65 velocity=64 time=1\n",
      "note_on channel=0 note=66 velocity=58 time=0\n",
      "note_on channel=0 note=73 velocity=37 time=0\n",
      "note_off channel=0 note=82 velocity=64 time=0\n",
      "note_on channel=0 note=83 velocity=55 time=0\n",
      "note_on channel=0 note=71 velocity=23 time=1\n",
      "note_off channel=0 note=74 velocity=64 time=0\n",
      "note_on channel=0 note=75 velocity=31 time=0\n",
      "note_off channel=0 note=76 velocity=64 time=0\n",
      "note_off channel=0 note=96 velocity=64 time=0\n",
      "note_on channel=0 note=46 velocity=66 time=1\n",
      "note_off channel=0 note=48 velocity=64 time=0\n",
      "note_on channel=0 note=65 velocity=52 time=0\n",
      "note_off channel=0 note=66 velocity=64 time=0\n",
      "note_on channel=0 note=56 velocity=33 time=1\n",
      "note_on channel=0 note=68 velocity=67 time=0\n",
      "note_on channel=0 note=88 velocity=41 time=0\n",
      "note_off channel=0 note=46 velocity=64 time=1\n",
      "note_on channel=0 note=48 velocity=67 time=0\n",
      "note_off channel=0 note=71 velocity=64 time=0\n",
      "note_on channel=0 note=91 velocity=55 time=0\n",
      "note_on channel=0 note=94 velocity=21 time=0\n",
      "note_off channel=0 note=48 velocity=64 time=1\n",
      "note_on channel=0 note=55 velocity=63 time=0\n",
      "note_off channel=0 note=56 velocity=64 time=0\n",
      "note_off channel=0 note=93 velocity=64 time=0\n",
      "note_on channel=0 note=45 velocity=59 time=1\n",
      "note_off channel=0 note=65 velocity=64 time=0\n",
      "note_off channel=0 note=73 velocity=64 time=0\n",
      "note_on channel=0 note=93 velocity=46 time=0\n",
      "note_on channel=0 note=74 velocity=42 time=1\n",
      "note_off channel=0 note=94 velocity=64 time=0\n",
      "note_on channel=0 note=67 velocity=68 time=1\n",
      "note_off channel=0 note=68 velocity=64 time=0\n",
      "note_on channel=0 note=73 velocity=36 time=0\n",
      "note_off channel=0 note=75 velocity=64 time=0\n",
      "note_off channel=0 note=89 velocity=64 time=0\n",
      "note_off channel=0 note=55 velocity=64 time=1\n",
      "note_on channel=0 note=56 velocity=63 time=0\n",
      "note_off channel=0 note=67 velocity=64 time=0\n",
      "note_on channel=0 note=68 velocity=69 time=0\n",
      "note_off channel=0 note=74 velocity=64 time=0\n",
      "note_on channel=0 note=75 velocity=47 time=0\n",
      "note_on channel=0 note=84 velocity=38 time=0\n",
      "note_on channel=0 note=94 velocity=40 time=0\n",
      "note_on channel=0 note=44 velocity=49 time=1\n",
      "note_off channel=0 note=45 velocity=64 time=0\n",
      "note_off channel=0 note=88 velocity=64 time=0\n",
      "note_on channel=0 note=89 velocity=73 time=0\n",
      "note_off channel=0 note=93 velocity=64 time=0\n",
      "note_on channel=0 note=93 velocity=50 time=1\n",
      "note_off channel=0 note=56 velocity=64 time=1\n",
      "note_off channel=0 note=78 velocity=64 time=0\n",
      "note_on channel=0 note=56 velocity=61 time=1\n",
      "note_off channel=0 note=94 velocity=64 time=0\n",
      "note_on channel=0 note=43 velocity=35 time=1\n",
      "note_off channel=0 note=44 velocity=64 time=0\n",
      "note_on channel=0 note=71 velocity=11 time=0\n",
      "note_off channel=0 note=73 velocity=64 time=0\n",
      "note_off channel=0 note=84 velocity=64 time=0\n",
      "note_on channel=0 note=55 velocity=61 time=1\n",
      "note_off channel=0 note=56 velocity=64 time=0\n",
      "note_off channel=0 note=68 velocity=64 time=0\n",
      "note_on channel=0 note=73 velocity=57 time=0\n",
      "note_on channel=0 note=82 velocity=40 time=1\n",
      "note_on channel=0 note=54 velocity=70 time=1\n",
      "note_off channel=0 note=55 velocity=64 time=0\n",
      "note_off channel=0 note=71 velocity=64 time=1\n",
      "note_off channel=0 note=83 velocity=64 time=0\n",
      "note_on channel=0 note=97 velocity=18 time=0\n",
      "note_off channel=0 note=43 velocity=64 time=1\n",
      "note_off channel=0 note=54 velocity=64 time=1\n",
      "note_on channel=0 note=54 velocity=60 time=1\n",
      "note_off channel=0 note=75 velocity=64 time=1\n",
      "note_on channel=0 note=77 velocity=20 time=0\n",
      "note_off channel=0 note=82 velocity=64 time=0\n",
      "note_off channel=0 note=97 velocity=64 time=0\n",
      "note_on channel=0 note=43 velocity=20 time=1\n",
      "note_on channel=0 note=82 velocity=33 time=0\n",
      "note_on channel=0 note=53 velocity=63 time=2\n",
      "note_off channel=0 note=54 velocity=64 time=0\n",
      "note_on channel=0 note=70 velocity=33 time=0\n",
      "note_off channel=0 note=73 velocity=64 time=0\n",
      "note_off channel=0 note=43 velocity=64 time=1\n",
      "note_off channel=0 note=53 velocity=64 time=1\n",
      "note_on channel=0 note=63 velocity=59 time=0\n",
      "note_on channel=0 note=71 velocity=45 time=0\n",
      "note_on channel=0 note=84 velocity=49 time=0\n",
      "note_on channel=0 note=95 velocity=37 time=0\n",
      "note_on channel=0 note=51 velocity=65 time=1\n",
      "note_off channel=0 note=70 velocity=64 time=0\n",
      "note_off channel=0 note=77 velocity=64 time=0\n",
      "note_off channel=0 note=90 velocity=64 time=0\n",
      "note_on channel=0 note=97 velocity=14 time=0\n",
      "note_on channel=0 note=48 velocity=74 time=1\n",
      "note_off channel=0 note=51 velocity=64 time=0\n",
      "note_on channel=0 note=57 velocity=37 time=0\n",
      "note_off channel=0 note=63 velocity=64 time=0\n",
      "note_on channel=0 note=70 velocity=51 time=0\n",
      "note_off channel=0 note=71 velocity=64 time=0\n",
      "note_on channel=0 note=85 velocity=43 time=0\n",
      "note_on channel=0 note=90 velocity=46 time=0\n",
      "note_on channel=0 note=44 velocity=77 time=1\n",
      "note_off channel=0 note=48 velocity=64 time=0\n",
      "note_on channel=0 note=63 velocity=56 time=0\n",
      "note_on channel=0 note=67 velocity=40 time=0\n",
      "note_on channel=0 note=100 velocity=26 time=0\n",
      "note_off channel=0 note=57 velocity=64 time=1\n",
      "note_off channel=0 note=70 velocity=64 time=0\n",
      "note_on channel=0 note=73 velocity=12 time=0\n",
      "note_off channel=0 note=82 velocity=64 time=0\n",
      "note_on channel=0 note=83 velocity=57 time=0\n",
      "note_off channel=0 note=90 velocity=64 time=0\n",
      "note_on channel=0 note=71 velocity=51 time=1\n",
      "note_off channel=0 note=89 velocity=64 time=0\n",
      "note_on channel=0 note=90 velocity=61 time=0\n",
      "note_off channel=0 note=95 velocity=64 time=0\n",
      "note_on channel=0 note=43 velocity=73 time=1\n",
      "note_off channel=0 note=44 velocity=64 time=0\n",
      "note_on channel=0 note=52 velocity=69 time=0\n",
      "note_off channel=0 note=63 velocity=64 time=0\n",
      "note_on channel=0 note=76 velocity=68 time=0\n",
      "note_on channel=0 note=82 velocity=33 time=0\n",
      "note_on channel=0 note=89 velocity=44 time=0\n",
      "note_off channel=0 note=97 velocity=64 time=0\n",
      "note_off channel=0 note=73 velocity=64 time=1\n",
      "note_off channel=0 note=84 velocity=64 time=0\n",
      "note_off channel=0 note=91 velocity=64 time=0\n",
      "note_off channel=0 note=82 velocity=64 time=1\n",
      "note_on channel=0 note=86 velocity=42 time=0\n",
      "note_on channel=0 note=94 velocity=33 time=0\n",
      "note_off channel=0 note=67 velocity=64 time=1\n",
      "note_off channel=0 note=85 velocity=64 time=0\n",
      "note_off channel=0 note=89 velocity=64 time=0\n",
      "note_off channel=0 note=93 velocity=64 time=0\n",
      "note_on channel=0 note=89 velocity=47 time=1\n",
      "note_on channel=0 note=70 velocity=48 time=1\n",
      "note_off channel=0 note=71 velocity=64 time=0\n",
      "note_on channel=0 note=73 velocity=15 time=0\n",
      "note_on channel=0 note=93 velocity=29 time=0\n",
      "note_off channel=0 note=94 velocity=64 time=0\n",
      "note_off channel=0 note=100 velocity=64 time=0\n",
      "note_off channel=0 note=43 velocity=64 time=1\n",
      "note_off channel=0 note=52 velocity=64 time=0\n",
      "note_on channel=0 note=63 velocity=52 time=0\n",
      "note_on channel=0 note=85 velocity=35 time=0\n",
      "note_off channel=0 note=90 velocity=64 time=0\n",
      "note_on channel=0 note=91 velocity=29 time=0\n",
      "note_on channel=0 note=94 velocity=17 time=0\n",
      "note_on channel=0 note=52 velocity=63 time=1\n",
      "note_off channel=0 note=63 velocity=64 time=1\n",
      "note_off channel=0 note=70 velocity=64 time=0\n",
      "note_on channel=0 note=71 velocity=53 time=0\n",
      "note_off channel=0 note=76 velocity=64 time=0\n",
      "note_off channel=0 note=86 velocity=64 time=0\n",
      "note_off channel=0 note=73 velocity=64 time=1\n",
      "note_off channel=0 note=87 velocity=64 time=0\n",
      "note_on channel=0 note=88 velocity=50 time=0\n",
      "note_off channel=0 note=89 velocity=64 time=0\n",
      "note_on channel=0 note=90 velocity=36 time=0\n",
      "note_on channel=0 note=61 velocity=37 time=1\n",
      "note_on channel=0 note=84 velocity=30 time=0\n",
      "note_on channel=0 note=87 velocity=48 time=0\n",
      "note_off channel=0 note=94 velocity=64 time=0\n",
      "note_off channel=0 note=52 velocity=64 time=1\n",
      "note_on channel=0 note=53 velocity=68 time=0\n",
      "note_on channel=0 note=72 velocity=49 time=0\n",
      "note_on channel=0 note=86 velocity=25 time=0\n",
      "note_on channel=0 note=89 velocity=27 time=0\n",
      "note_off channel=0 note=53 velocity=64 time=1\n",
      "note_on channel=0 note=67 velocity=45 time=0\n",
      "note_off channel=0 note=71 velocity=64 time=0\n",
      "note_on channel=0 note=77 velocity=42 time=0\n",
      "note_off channel=0 note=84 velocity=64 time=0\n",
      "note_on channel=0 note=55 velocity=64 time=1\n",
      "note_on channel=0 note=71 velocity=47 time=0\n",
      "note_off channel=0 note=72 velocity=64 time=0\n",
      "note_off channel=0 note=85 velocity=64 time=0\n",
      "note_off channel=0 note=90 velocity=64 time=0\n",
      "note_off channel=0 note=89 velocity=64 time=1\n",
      "note_on channel=0 note=90 velocity=22 time=0\n",
      "note_off channel=0 note=91 velocity=64 time=2\n",
      "note_off channel=0 note=93 velocity=64 time=0\n",
      "note_on channel=0 note=73 velocity=43 time=1\n",
      "note_off channel=0 note=55 velocity=64 time=1\n",
      "note_off channel=0 note=67 velocity=64 time=0\n",
      "note_off channel=0 note=86 velocity=64 time=0\n",
      "note_off channel=0 note=88 velocity=64 time=0\n",
      "note_on channel=0 note=53 velocity=59 time=1\n",
      "note_on channel=0 note=72 velocity=56 time=0\n",
      "note_off channel=0 note=73 velocity=64 time=0\n",
      "note_off channel=0 note=71 velocity=64 time=1\n",
      "note_off channel=0 note=90 velocity=64 time=0\n",
      "note_on channel=0 note=66 velocity=42 time=1\n",
      "note_on channel=0 note=71 velocity=44 time=0\n",
      "note_on channel=0 note=85 velocity=20 time=0\n",
      "note_on channel=0 note=90 velocity=39 time=0\n",
      "note_on channel=0 note=93 velocity=9 time=0\n",
      "note_off channel=0 note=53 velocity=64 time=1\n",
      "note_off channel=0 note=72 velocity=64 time=0\n",
      "note_on channel=0 note=73 velocity=51 time=0\n",
      "note_on channel=0 note=82 velocity=30 time=0\n",
      "note_off channel=0 note=83 velocity=64 time=0\n",
      "note_on channel=0 note=88 velocity=43 time=0\n",
      "note_on channel=0 note=55 velocity=61 time=1\n",
      "note_off channel=0 note=66 velocity=64 time=0\n",
      "note_off channel=0 note=90 velocity=64 time=0\n",
      "note_off channel=0 note=61 velocity=64 time=1\n",
      "note_on channel=0 note=64 velocity=83 time=0\n",
      "note_off channel=0 note=73 velocity=64 time=0\n",
      "note_off channel=0 note=82 velocity=64 time=0\n",
      "note_on channel=0 note=84 velocity=30 time=0\n",
      "note_on channel=0 note=89 velocity=46 time=0\n",
      "note_on channel=0 note=45 velocity=77 time=1\n",
      "note_off channel=0 note=55 velocity=64 time=0\n",
      "note_on channel=0 note=56 velocity=65 time=0\n",
      "note_on channel=0 note=73 velocity=59 time=0\n",
      "note_off channel=0 note=88 velocity=64 time=0\n",
      "note_on channel=0 note=90 velocity=27 time=0\n",
      "note_off channel=0 note=93 velocity=64 time=0\n",
      "note_off channel=0 note=56 velocity=64 time=1\n",
      "note_on channel=0 note=79 velocity=31 time=0\n",
      "note_on channel=0 note=44 velocity=78 time=1\n",
      "note_off channel=0 note=45 velocity=64 time=0\n",
      "note_on channel=0 note=63 velocity=70 time=0\n",
      "note_off channel=0 note=64 velocity=64 time=0\n",
      "note_off channel=0 note=77 velocity=64 time=0\n",
      "note_off channel=0 note=79 velocity=64 time=1\n",
      "note_off channel=0 note=84 velocity=64 time=0\n",
      "note_on channel=0 note=61 velocity=39 time=2\n",
      "note_off channel=0 note=63 velocity=64 time=0\n",
      "note_off channel=0 note=44 velocity=64 time=1\n",
      "note_on channel=0 note=75 velocity=26 time=0\n",
      "note_off channel=0 note=85 velocity=64 time=1\n",
      "note_off channel=0 note=90 velocity=64 time=0\n",
      "note_on channel=0 note=91 velocity=30 time=0\n",
      "note_on channel=0 note=43 velocity=61 time=1\n",
      "note_on channel=0 note=54 velocity=63 time=0\n",
      "note_off channel=0 note=61 velocity=64 time=0\n",
      "note_on channel=0 note=93 velocity=22 time=0\n",
      "note_on channel=0 note=61 velocity=62 time=1\n",
      "note_on channel=0 note=90 velocity=40 time=0\n",
      "note_off channel=0 note=75 velocity=64 time=1\n",
      "note_on channel=0 note=81 velocity=31 time=0\n",
      "note_off channel=0 note=91 velocity=64 time=0\n",
      "note_on channel=0 note=42 velocity=56 time=1\n",
      "note_off channel=0 note=43 velocity=64 time=0\n",
      "note_off channel=0 note=54 velocity=64 time=0\n",
      "note_on channel=0 note=65 velocity=34 time=0\n",
      "note_off channel=0 note=71 velocity=64 time=0\n",
      "note_on channel=0 note=54 velocity=60 time=1\n",
      "note_on channel=0 note=71 velocity=37 time=0\n",
      "note_on channel=0 note=78 velocity=24 time=0\n",
      "note_off channel=0 note=81 velocity=64 time=0\n",
      "note_on channel=0 note=82 velocity=29 time=0\n",
      "note_off channel=0 note=93 velocity=64 time=0\n",
      "note_off channel=0 note=42 velocity=64 time=1\n",
      "note_off channel=0 note=65 velocity=64 time=0\n",
      "note_on channel=0 note=75 velocity=30 time=0\n",
      "note_on channel=0 note=48 velocity=70 time=1\n",
      "note_off channel=0 note=54 velocity=64 time=0\n",
      "note_on channel=0 note=68 velocity=36 time=2\n",
      "note_off channel=0 note=71 velocity=64 time=0\n",
      "note_on channel=0 note=47 velocity=72 time=1\n",
      "note_off channel=0 note=48 velocity=64 time=0\n",
      "note_on channel=0 note=65 velocity=40 time=0\n",
      "note_off channel=0 note=82 velocity=64 time=0\n",
      "note_off channel=0 note=61 velocity=64 time=1\n",
      "note_on channel=0 note=62 velocity=38 time=0\n",
      "note_on channel=0 note=71 velocity=49 time=0\n",
      "note_off channel=0 note=89 velocity=64 time=0\n",
      "note_on channel=0 note=91 velocity=11 time=0\n",
      "note_off channel=0 note=47 velocity=64 time=1\n",
      "note_on channel=0 note=50 velocity=77 time=0\n",
      "note_off channel=0 note=65 velocity=64 time=0\n",
      "note_on channel=0 note=77 velocity=29 time=0\n",
      "note_off channel=0 note=50 velocity=64 time=1\n",
      "note_on channel=0 note=52 velocity=74 time=0\n",
      "note_off channel=0 note=78 velocity=64 time=0\n",
      "note_off channel=0 note=52 velocity=64 time=1\n",
      "note_on channel=0 note=53 velocity=75 time=0\n",
      "note_off channel=0 note=62 velocity=64 time=0\n",
      "note_on channel=0 note=64 velocity=46 time=0\n",
      "note_off channel=0 note=53 velocity=64 time=2\n",
      "note_on channel=0 note=52 velocity=73 time=2\n",
      "note_on channel=0 note=88 velocity=13 time=0\n",
      "note_off channel=0 note=64 velocity=64 time=1\n",
      "note_on channel=0 note=65 velocity=53 time=0\n",
      "note_off channel=0 note=77 velocity=64 time=0\n",
      "note_off channel=0 note=73 velocity=64 time=1\n",
      "note_on channel=0 note=101 velocity=29 time=0\n",
      "note_off channel=0 note=52 velocity=64 time=1\n",
      "note_on channel=0 note=53 velocity=69 time=0\n",
      "note_on channel=0 note=64 velocity=84 time=0\n",
      "note_off channel=0 note=65 velocity=64 time=0\n",
      "note_off channel=0 note=68 velocity=64 time=0\n",
      "note_on channel=0 note=45 velocity=76 time=1\n",
      "note_off channel=0 note=53 velocity=64 time=0\n",
      "note_off channel=0 note=75 velocity=64 time=0\n",
      "note_off channel=0 note=88 velocity=64 time=0\n",
      "note_on channel=0 note=51 velocity=69 time=1\n",
      "note_off channel=0 note=71 velocity=64 time=0\n",
      "note_on channel=0 note=73 velocity=39 time=0\n",
      "note_on channel=0 note=44 velocity=79 time=1\n",
      "note_off channel=0 note=45 velocity=64 time=0\n",
      "note_off channel=0 note=51 velocity=64 time=0\n",
      "note_on channel=0 note=52 velocity=67 time=0\n",
      "note_on channel=0 note=63 velocity=78 time=0\n",
      "note_off channel=0 note=64 velocity=64 time=0\n",
      "note_on channel=0 note=71 velocity=52 time=0\n",
      "note_on channel=0 note=82 velocity=22 time=0\n",
      "note_off channel=0 note=90 velocity=64 time=1\n",
      "note_off channel=0 note=91 velocity=64 time=0\n",
      "note_on channel=0 note=100 velocity=23 time=0\n",
      "note_on channel=0 note=68 velocity=38 time=1\n",
      "note_off channel=0 note=52 velocity=64 time=1\n",
      "note_off channel=0 note=44 velocity=64 time=1\n",
      "note_on channel=0 note=47 velocity=66 time=0\n",
      "note_on channel=0 note=70 velocity=44 time=0\n",
      "note_off channel=0 note=71 velocity=64 time=0\n",
      "note_off channel=0 note=82 velocity=64 time=0\n",
      "note_on channel=0 note=83 velocity=38 time=0\n",
      "note_off channel=0 note=47 velocity=64 time=1\n",
      "note_off channel=0 note=68 velocity=64 time=0\n",
      "note_on channel=0 note=71 velocity=53 time=0\n",
      "note_on channel=0 note=91 velocity=24 time=0\n",
      "note_on channel=0 note=65 velocity=42 time=1\n",
      "note_off channel=0 note=70 velocity=64 time=0\n",
      "note_on channel=0 note=43 velocity=63 time=1\n",
      "note_on channel=0 note=51 velocity=57 time=0\n",
      "note_off channel=0 note=63 velocity=64 time=0\n",
      "note_off channel=0 note=71 velocity=64 time=0\n",
      "note_on channel=0 note=81 velocity=27 time=0\n",
      "note_on channel=0 note=97 velocity=25 time=0\n",
      "note_on channel=0 note=61 velocity=65 time=1\n",
      "note_on channel=0 note=69 velocity=50 time=0\n",
      "note_on channel=0 note=42 velocity=56 time=1\n",
      "note_off channel=0 note=43 velocity=64 time=0\n",
      "note_on channel=0 note=50 velocity=62 time=0\n",
      "note_off channel=0 note=51 velocity=64 time=0\n",
      "note_on channel=0 note=75 velocity=25 time=1\n",
      "note_off channel=0 note=42 velocity=64 time=1\n",
      "note_off channel=0 note=81 velocity=64 time=0\n",
      "note_on channel=0 note=71 velocity=43 time=1\n",
      "note_on channel=0 note=49 velocity=78 time=2\n",
      "note_off channel=0 note=50 velocity=64 time=0\n",
      "note_off channel=0 note=71 velocity=64 time=0\n",
      "note_on channel=0 note=48 velocity=79 time=1\n",
      "note_off channel=0 note=49 velocity=64 time=0\n",
      "note_on channel=0 note=71 velocity=44 time=0\n",
      "note_off channel=0 note=101 velocity=64 time=0\n",
      "note_off channel=0 note=69 velocity=64 time=1\n",
      "note_on channel=0 note=47 velocity=69 time=1\n",
      "note_off channel=0 note=48 velocity=64 time=0\n",
      "note_off channel=0 note=61 velocity=64 time=0\n",
      "note_off channel=0 note=65 velocity=64 time=0\n",
      "note_off channel=0 note=71 velocity=64 time=0\n",
      "note_off channel=0 note=97 velocity=64 time=0\n",
      "note_off channel=0 note=47 velocity=64 time=1\n",
      "note_on channel=0 note=52 velocity=74 time=0\n",
      "note_on channel=0 note=68 velocity=32 time=0\n",
      "note_on channel=0 note=71 velocity=47 time=0\n",
      "note_off channel=0 note=52 velocity=64 time=1\n",
      "note_on channel=0 note=76 velocity=23 time=0\n",
      "note_off channel=0 note=75 velocity=64 time=1\n",
      "note_on channel=0 note=51 velocity=66 time=1\n",
      "note_off channel=0 note=100 velocity=64 time=0\n",
      "note_off channel=0 note=51 velocity=64 time=1\n",
      "note_on channel=0 note=52 velocity=74 time=0\n",
      "note_on channel=0 note=63 velocity=45 time=0\n",
      "note_off channel=0 note=76 velocity=64 time=1\n",
      "note_off channel=0 note=68 velocity=64 time=1\n",
      "note_off channel=0 note=87 velocity=64 time=0\n",
      "note_on channel=0 note=89 velocity=69 time=0\n",
      "note_on channel=0 note=50 velocity=82 time=1\n",
      "note_off channel=0 note=52 velocity=64 time=0\n",
      "note_off channel=0 note=63 velocity=64 time=0\n",
      "note_on channel=0 note=65 velocity=59 time=0\n",
      "note_on channel=0 note=69 velocity=41 time=0\n",
      "note_on channel=0 note=61 velocity=54 time=1\n",
      "note_off channel=0 note=73 velocity=64 time=0\n",
      "note_on channel=0 note=74 velocity=42 time=0\n",
      "note_on channel=0 note=84 velocity=27 time=0\n",
      "note_on channel=0 note=87 velocity=44 time=0\n",
      "note_on channel=0 note=93 velocity=20 time=0\n",
      "note_on channel=0 note=94 velocity=36 time=0\n",
      "note_on channel=0 note=82 velocity=36 time=1\n",
      "note_off channel=0 note=83 velocity=64 time=0\n",
      "note_on channel=0 note=48 velocity=92 time=1\n",
      "note_off channel=0 note=50 velocity=64 time=0\n",
      "note_off channel=0 note=61 velocity=64 time=0\n",
      "note_off channel=0 note=65 velocity=64 time=0\n",
      "note_on channel=0 note=68 velocity=50 time=0\n",
      "note_off channel=0 note=69 velocity=64 time=0\n",
      "note_on channel=0 note=81 velocity=38 time=0\n",
      "note_on channel=0 note=85 velocity=24 time=0\n",
      "note_on channel=0 note=90 velocity=31 time=0\n",
      "note_on channel=0 note=95 velocity=26 time=0\n",
      "note_on channel=0 note=98 velocity=12 time=0\n",
      "note_on channel=0 note=63 velocity=51 time=1\n",
      "note_off channel=0 note=71 velocity=64 time=0\n",
      "note_off channel=0 note=84 velocity=64 time=0\n",
      "note_off channel=0 note=94 velocity=64 time=0\n",
      "note_off channel=0 note=48 velocity=64 time=1\n",
      "note_on channel=0 note=49 velocity=75 time=0\n",
      "note_off channel=0 note=68 velocity=64 time=0\n",
      "note_on channel=0 note=69 velocity=51 time=0\n",
      "note_on channel=0 note=71 velocity=32 time=0\n",
      "note_on channel=0 note=73 velocity=39 time=0\n",
      "note_off channel=0 note=74 velocity=64 time=0\n",
      "note_off channel=0 note=81 velocity=64 time=0\n",
      "note_off channel=0 note=49 velocity=64 time=1\n",
      "note_on channel=0 note=50 velocity=74 time=0\n",
      "note_off channel=0 note=63 velocity=64 time=0\n",
      "note_on channel=0 note=65 velocity=57 time=0\n",
      "note_on channel=0 note=83 velocity=36 time=0\n",
      "note_off channel=0 note=91 velocity=64 time=0\n",
      "note_off channel=0 note=93 velocity=64 time=0\n",
      "note_off channel=0 note=98 velocity=64 time=0\n",
      "note_on channel=0 note=49 velocity=79 time=1\n",
      "note_off channel=0 note=50 velocity=64 time=0\n",
      "note_off channel=0 note=82 velocity=64 time=0\n",
      "note_off channel=0 note=87 velocity=64 time=0\n",
      "note_off channel=0 note=90 velocity=64 time=1\n"
     ]
    },
    {
     "name": "stdout",
     "output_type": "stream",
     "text": [
      "note_on channel=0 note=91 velocity=37 time=0\n",
      "note_off channel=0 note=95 velocity=64 time=0\n",
      "note_off channel=0 note=49 velocity=64 time=1\n",
      "note_on channel=0 note=50 velocity=69 time=0\n",
      "note_on channel=0 note=90 velocity=20 time=0\n",
      "note_on channel=0 note=49 velocity=71 time=1\n",
      "note_off channel=0 note=50 velocity=64 time=0\n",
      "note_off channel=0 note=49 velocity=64 time=1\n",
      "note_on channel=0 note=50 velocity=66 time=0\n",
      "note_off channel=0 note=85 velocity=64 time=1\n",
      "note_on channel=0 note=87 velocity=49 time=0\n",
      "note_off channel=0 note=71 velocity=64 time=2\n",
      "note_on channel=0 note=61 velocity=60 time=1\n",
      "note_on channel=0 note=71 velocity=20 time=0\n",
      "note_off channel=0 note=90 velocity=64 time=0\n",
      "note_on channel=0 note=68 velocity=34 time=1\n",
      "note_off channel=0 note=69 velocity=64 time=0\n",
      "note_off channel=0 note=50 velocity=64 time=1\n",
      "note_off channel=0 note=68 velocity=64 time=1\n",
      "note_on channel=0 note=49 velocity=40 time=1\n",
      "note_off channel=0 note=49 velocity=64 time=2\n",
      "note_on channel=0 note=54 velocity=30 time=0\n",
      "note_off channel=0 note=71 velocity=64 time=0\n",
      "note_on channel=0 note=75 velocity=13 time=0\n",
      "note_on channel=0 note=90 velocity=35 time=1\n",
      "note_off channel=0 note=54 velocity=64 time=1\n",
      "note_on channel=0 note=53 velocity=29 time=2\n",
      "note_off channel=0 note=75 velocity=64 time=1\n",
      "note_off channel=0 note=53 velocity=64 time=1\n",
      "note_off channel=0 note=83 velocity=64 time=1\n",
      "note_off channel=0 note=89 velocity=64 time=2\n",
      "note_off channel=0 note=73 velocity=64 time=1\n",
      "note_on channel=0 note=76 velocity=47 time=0\n",
      "note_on channel=0 note=84 velocity=41 time=0\n",
      "note_on channel=0 note=89 velocity=69 time=0\n",
      "note_off channel=0 note=90 velocity=64 time=0\n",
      "note_on channel=0 note=93 velocity=12 time=0\n",
      "note_on channel=0 note=95 velocity=41 time=0\n",
      "note_on channel=0 note=46 velocity=71 time=1\n",
      "note_off channel=0 note=65 velocity=64 time=0\n",
      "note_on channel=0 note=69 velocity=45 time=0\n",
      "note_on channel=0 note=85 velocity=35 time=0\n",
      "note_on channel=0 note=45 velocity=76 time=1\n",
      "note_off channel=0 note=46 velocity=64 time=0\n",
      "note_on channel=0 note=65 velocity=52 time=0\n",
      "note_on channel=0 note=75 velocity=45 time=0\n",
      "note_off channel=0 note=76 velocity=64 time=0\n",
      "note_on channel=0 note=82 velocity=69 time=0\n",
      "note_on channel=0 note=44 velocity=77 time=1\n",
      "note_off channel=0 note=45 velocity=64 time=0\n",
      "note_on channel=0 note=57 velocity=29 time=0\n",
      "note_off channel=0 note=87 velocity=64 time=0\n",
      "note_off channel=0 note=93 velocity=64 time=0\n",
      "note_off channel=0 note=61 velocity=64 time=1\n",
      "note_off channel=0 note=69 velocity=64 time=0\n",
      "note_on channel=0 note=87 velocity=49 time=0\n",
      "note_off channel=0 note=95 velocity=64 time=0\n",
      "note_off channel=0 note=57 velocity=64 time=1\n",
      "note_off channel=0 note=75 velocity=64 time=0\n",
      "note_on channel=0 note=43 velocity=73 time=1\n",
      "note_off channel=0 note=44 velocity=64 time=0\n",
      "note_on channel=0 note=75 velocity=19 time=0\n",
      "note_on channel=0 note=62 velocity=33 time=1\n",
      "note_on channel=0 note=71 velocity=16 time=0\n",
      "note_on channel=0 note=54 velocity=17 time=1\n",
      "note_on channel=0 note=78 velocity=21 time=0\n",
      "note_on channel=0 note=61 velocity=33 time=1\n",
      "note_off channel=0 note=62 velocity=64 time=0\n",
      "note_on channel=0 note=88 velocity=32 time=0\n",
      "note_off channel=0 note=89 velocity=64 time=0\n",
      "note_off channel=0 note=78 velocity=64 time=3\n",
      "note_off channel=0 note=43 velocity=64 time=2\n",
      "note_off channel=0 note=54 velocity=64 time=0\n",
      "note_off channel=0 note=88 velocity=64 time=1\n",
      "note_on channel=0 note=89 velocity=60 time=0\n",
      "note_off channel=0 note=71 velocity=64 time=2\n",
      "note_on channel=0 note=71 velocity=14 time=1\n",
      "note_off channel=0 note=85 velocity=64 time=2\n",
      "note_on channel=0 note=86 velocity=19 time=0\n",
      "note_off channel=0 note=61 velocity=64 time=1\n",
      "note_off channel=0 note=65 velocity=64 time=0\n",
      "note_on channel=0 note=61 velocity=54 time=1\n",
      "note_off channel=0 note=71 velocity=64 time=0\n",
      "note_on channel=0 note=49 velocity=58 time=1\n",
      "note_on channel=0 note=60 velocity=70 time=1\n",
      "note_off channel=0 note=61 velocity=64 time=0\n",
      "note_on channel=0 note=67 velocity=35 time=0\n",
      "note_on channel=0 note=72 velocity=70 time=0\n",
      "note_off channel=0 note=91 velocity=64 time=0\n",
      "note_off channel=0 note=86 velocity=64 time=1\n",
      "note_on channel=0 note=91 velocity=40 time=0\n",
      "note_on channel=0 note=48 velocity=53 time=1\n",
      "note_off channel=0 note=49 velocity=64 time=0\n",
      "note_on channel=0 note=88 velocity=70 time=0\n",
      "note_on channel=0 note=90 velocity=61 time=0\n",
      "note_off channel=0 note=67 velocity=64 time=1\n",
      "note_on channel=0 note=68 velocity=50 time=0\n",
      "note_off channel=0 note=75 velocity=64 time=0\n",
      "note_on channel=0 note=93 velocity=33 time=0\n",
      "note_on channel=0 note=95 velocity=31 time=0\n",
      "note_on channel=0 note=76 velocity=60 time=1\n",
      "note_on channel=0 note=79 velocity=39 time=0\n",
      "note_off channel=0 note=80 velocity=64 time=0\n",
      "note_off channel=0 note=60 velocity=64 time=2\n",
      "note_on channel=0 note=62 velocity=87 time=0\n",
      "note_off channel=0 note=68 velocity=64 time=0\n",
      "note_on channel=0 note=69 velocity=46 time=0\n",
      "note_on channel=0 note=78 velocity=31 time=0\n",
      "note_off channel=0 note=79 velocity=64 time=0\n",
      "note_off channel=0 note=84 velocity=64 time=0\n",
      "note_off channel=0 note=62 velocity=64 time=1\n",
      "note_on channel=0 note=63 velocity=95 time=0\n",
      "note_on channel=0 note=67 velocity=50 time=0\n",
      "note_off channel=0 note=48 velocity=64 time=1\n",
      "note_on channel=0 note=49 velocity=62 time=0\n",
      "note_off channel=0 note=69 velocity=64 time=0\n",
      "note_off channel=0 note=89 velocity=64 time=0\n",
      "note_off channel=0 note=67 velocity=64 time=1\n",
      "note_on channel=0 note=68 velocity=51 time=0\n",
      "note_off channel=0 note=78 velocity=64 time=0\n",
      "note_on channel=0 note=85 velocity=45 time=0\n",
      "note_on channel=0 note=92 velocity=33 time=0\n",
      "note_off channel=0 note=72 velocity=64 time=1\n",
      "note_on channel=0 note=73 velocity=65 time=0\n",
      "note_off channel=0 note=95 velocity=64 time=0\n",
      "note_on channel=0 note=96 velocity=17 time=0\n",
      "note_off channel=0 note=76 velocity=64 time=1\n",
      "note_on channel=0 note=77 velocity=55 time=0\n",
      "note_off channel=0 note=91 velocity=64 time=0\n",
      "note_off channel=0 note=88 velocity=64 time=1\n",
      "note_on channel=0 note=88 velocity=63 time=1\n",
      "note_on channel=0 note=95 velocity=24 time=1\n",
      "note_off channel=0 note=96 velocity=64 time=0\n",
      "note_on channel=0 note=72 velocity=64 time=1\n",
      "note_off channel=0 note=73 velocity=64 time=0\n",
      "note_on channel=0 note=76 velocity=60 time=0\n",
      "note_off channel=0 note=77 velocity=64 time=0\n",
      "note_on channel=0 note=48 velocity=55 time=1\n",
      "note_off channel=0 note=49 velocity=64 time=0\n",
      "note_on channel=0 note=67 velocity=46 time=0\n",
      "note_off channel=0 note=68 velocity=64 time=0\n",
      "note_on channel=0 note=89 velocity=31 time=0\n",
      "note_on channel=0 note=91 velocity=28 time=0\n",
      "note_off channel=0 note=85 velocity=64 time=1\n",
      "note_off channel=0 note=92 velocity=64 time=0\n",
      "note_on channel=0 note=78 velocity=20 time=1\n",
      "note_off channel=0 note=89 velocity=64 time=0\n",
      "note_on channel=0 note=86 velocity=30 time=1\n",
      "note_off channel=0 note=87 velocity=64 time=1\n",
      "note_off channel=0 note=95 velocity=64 time=0\n",
      "note_off channel=0 note=93 velocity=64 time=1\n",
      "note_on channel=0 note=71 velocity=33 time=1\n",
      "note_off channel=0 note=72 velocity=64 time=0\n",
      "note_on channel=0 note=77 velocity=49 time=0\n",
      "note_off channel=0 note=78 velocity=64 time=0\n",
      "note_off channel=0 note=76 velocity=64 time=1\n",
      "note_off channel=0 note=91 velocity=64 time=0\n",
      "note_off channel=0 note=86 velocity=64 time=1\n",
      "note_on channel=0 note=83 velocity=49 time=1\n",
      "note_off channel=0 note=88 velocity=64 time=0\n",
      "note_off channel=0 note=48 velocity=64 time=1\n",
      "note_off channel=0 note=71 velocity=64 time=0\n",
      "note_on channel=0 note=85 velocity=48 time=0\n",
      "note_on channel=0 note=88 velocity=50 time=0\n",
      "note_on channel=0 note=96 velocity=21 time=0\n",
      "note_on channel=0 note=66 velocity=33 time=1\n",
      "note_off channel=0 note=67 velocity=64 time=0\n",
      "note_on channel=0 note=71 velocity=43 time=0\n",
      "note_on channel=0 note=81 velocity=41 time=0\n",
      "note_on channel=0 note=84 velocity=49 time=1\n",
      "note_on channel=0 note=50 velocity=61 time=1\n",
      "note_off channel=0 note=66 velocity=64 time=0\n",
      "note_on channel=0 note=68 velocity=43 time=0\n",
      "note_off channel=0 note=71 velocity=64 time=0\n",
      "note_off channel=0 note=81 velocity=64 time=0\n",
      "note_on channel=0 note=91 velocity=28 time=0\n",
      "note_on channel=0 note=73 velocity=45 time=1\n",
      "note_on channel=0 note=81 velocity=26 time=0\n",
      "note_off channel=0 note=83 velocity=64 time=0\n",
      "note_off channel=0 note=68 velocity=64 time=1\n",
      "note_off channel=0 note=85 velocity=64 time=0\n",
      "note_on channel=0 note=86 velocity=40 time=0\n",
      "note_on channel=0 note=89 velocity=62 time=0\n",
      "note_off channel=0 note=50 velocity=64 time=1\n",
      "note_on channel=0 note=70 velocity=46 time=0\n",
      "note_off channel=0 note=73 velocity=64 time=0\n",
      "note_on channel=0 note=52 velocity=61 time=1\n",
      "note_on channel=0 note=78 velocity=33 time=0\n",
      "note_off channel=0 note=81 velocity=64 time=0\n",
      "note_on channel=0 note=83 velocity=38 time=0\n",
      "note_off channel=0 note=84 velocity=64 time=0\n",
      "note_on channel=0 note=85 velocity=38 time=0\n",
      "note_off channel=0 note=91 velocity=64 time=0\n",
      "note_on channel=0 note=91 velocity=36 time=1\n",
      "note_on channel=0 note=69 velocity=51 time=1\n",
      "note_off channel=0 note=70 velocity=64 time=0\n",
      "note_on channel=0 note=72 velocity=49 time=0\n",
      "note_off channel=0 note=83 velocity=64 time=0\n",
      "note_off channel=0 note=86 velocity=64 time=0\n",
      "note_on channel=0 note=57 velocity=52 time=1\n",
      "note_on channel=0 note=62 velocity=79 time=0\n",
      "note_off channel=0 note=63 velocity=64 time=0\n",
      "note_off channel=0 note=90 velocity=64 time=0\n",
      "note_off channel=0 note=96 velocity=64 time=0\n",
      "note_off channel=0 note=52 velocity=64 time=1\n",
      "note_off channel=0 note=62 velocity=64 time=0\n",
      "note_on channel=0 note=64 velocity=77 time=0\n",
      "note_off channel=0 note=69 velocity=64 time=0\n",
      "note_on channel=0 note=75 velocity=37 time=0\n",
      "note_off channel=0 note=78 velocity=64 time=0\n",
      "note_off channel=0 note=85 velocity=64 time=0\n",
      "note_on channel=0 note=87 velocity=49 time=0\n",
      "note_on channel=0 note=63 velocity=86 time=1\n",
      "note_off channel=0 note=64 velocity=64 time=0\n",
      "note_on channel=0 note=71 velocity=44 time=0\n",
      "note_on channel=0 note=79 velocity=23 time=0\n",
      "note_on channel=0 note=85 velocity=38 time=0\n",
      "note_on channel=0 note=93 velocity=25 time=0\n",
      "note_on channel=0 note=53 velocity=65 time=1\n",
      "note_off channel=0 note=57 velocity=64 time=0\n",
      "note_off channel=0 note=72 velocity=64 time=0\n",
      "note_off channel=0 note=77 velocity=64 time=0\n",
      "note_on channel=0 note=90 velocity=39 time=0\n",
      "note_on channel=0 note=68 velocity=19 time=1\n",
      "note_off channel=0 note=71 velocity=64 time=0\n",
      "note_on channel=0 note=72 velocity=56 time=0\n",
      "note_on channel=0 note=77 velocity=58 time=0\n",
      "note_on channel=0 note=80 velocity=44 time=0\n",
      "note_off channel=0 note=89 velocity=64 time=0\n",
      "note_on channel=0 note=52 velocity=72 time=1\n",
      "note_off channel=0 note=53 velocity=64 time=0\n",
      "note_off channel=0 note=90 velocity=64 time=0\n",
      "note_off channel=0 note=52 velocity=64 time=1\n",
      "note_on channel=0 note=53 velocity=73 time=0\n",
      "note_off channel=0 note=85 velocity=64 time=0\n",
      "note_off channel=0 note=88 velocity=64 time=0\n",
      "note_on channel=0 note=90 velocity=42 time=0\n",
      "note_off channel=0 note=79 velocity=64 time=1\n",
      "note_on channel=0 note=95 velocity=62 time=0\n",
      "note_on channel=0 note=52 velocity=66 time=1\n",
      "note_off channel=0 note=53 velocity=64 time=0\n",
      "note_on channel=0 note=70 velocity=44 time=0\n",
      "note_on channel=0 note=51 velocity=65 time=1\n",
      "note_off channel=0 note=52 velocity=64 time=0\n",
      "note_off channel=0 note=68 velocity=64 time=0\n",
      "note_off channel=0 note=72 velocity=64 time=0\n",
      "note_off channel=0 note=82 velocity=64 time=0\n",
      "note_on channel=0 note=83 velocity=56 time=0\n",
      "note_off channel=0 note=91 velocity=64 time=0\n",
      "note_off channel=0 note=51 velocity=64 time=1\n",
      "note_off channel=0 note=70 velocity=64 time=0\n",
      "note_on channel=0 note=73 velocity=55 time=0\n",
      "note_off channel=0 note=75 velocity=64 time=0\n",
      "note_off channel=0 note=77 velocity=64 time=0\n",
      "note_on channel=0 note=91 velocity=50 time=0\n",
      "note_on channel=0 note=49 velocity=70 time=1\n",
      "note_on channel=0 note=68 velocity=45 time=0\n",
      "note_on channel=0 note=77 velocity=54 time=0\n",
      "note_off channel=0 note=93 velocity=64 time=0\n",
      "note_on channel=0 note=93 velocity=35 time=1\n",
      "note_off channel=0 note=49 velocity=64 time=1\n",
      "note_on channel=0 note=50 velocity=70 time=0\n",
      "note_on channel=0 note=49 velocity=66 time=1\n",
      "note_off channel=0 note=50 velocity=64 time=0\n",
      "note_off channel=0 note=80 velocity=64 time=0\n",
      "note_on channel=0 note=80 velocity=90 time=1\n",
      "note_on channel=0 note=88 velocity=50 time=1\n",
      "note_on channel=0 note=72 velocity=52 time=1\n",
      "note_off channel=0 note=73 velocity=64 time=0\n",
      "note_off channel=0 note=68 velocity=64 time=1\n",
      "note_on channel=0 note=85 velocity=28 time=0\n",
      "note_off channel=0 note=88 velocity=64 time=0\n",
      "note_on channel=0 note=89 velocity=79 time=0\n",
      "note_on channel=0 note=70 velocity=35 time=1\n",
      "note_on channel=0 note=74 velocity=28 time=0\n",
      "note_on channel=0 note=76 velocity=30 time=0\n",
      "note_off channel=0 note=77 velocity=64 time=0\n",
      "note_off channel=0 note=49 velocity=64 time=1\n",
      "note_on channel=0 note=58 velocity=43 time=0\n",
      "note_off channel=0 note=72 velocity=64 time=0\n",
      "note_on channel=0 note=47 velocity=56 time=1\n",
      "note_off channel=0 note=90 velocity=64 time=0\n",
      "note_off channel=0 note=76 velocity=64 time=1\n",
      "note_on channel=0 note=77 velocity=46 time=0\n",
      "note_on channel=0 note=86 velocity=30 time=0\n",
      "note_on channel=0 note=90 velocity=43 time=0\n",
      "note_on channel=0 note=46 velocity=46 time=1\n",
      "note_off channel=0 note=47 velocity=64 time=0\n",
      "note_off channel=0 note=58 velocity=64 time=0\n",
      "note_on channel=0 note=59 velocity=39 time=0\n",
      "note_off channel=0 note=70 velocity=64 time=0\n",
      "note_off channel=0 note=74 velocity=64 time=0\n",
      "note_off channel=0 note=85 velocity=64 time=0\n",
      "note_off channel=0 note=93 velocity=64 time=0\n",
      "note_on channel=0 note=94 velocity=32 time=0\n",
      "note_on channel=0 note=93 velocity=35 time=1\n",
      "note_off channel=0 note=46 velocity=64 time=1\n",
      "note_on channel=0 note=47 velocity=47 time=0\n",
      "note_on channel=0 note=70 velocity=40 time=0\n",
      "note_off channel=0 note=94 velocity=64 time=0\n",
      "note_off channel=0 note=59 velocity=64 time=1\n",
      "note_off channel=0 note=47 velocity=64 time=1\n",
      "note_on channel=0 note=48 velocity=44 time=0\n",
      "note_off channel=0 note=70 velocity=64 time=0\n",
      "note_on channel=0 note=71 velocity=28 time=0\n",
      "note_on channel=0 note=85 velocity=38 time=1\n",
      "note_off channel=0 note=90 velocity=64 time=0\n",
      "note_on channel=0 note=100 velocity=48 time=0\n",
      "note_on channel=0 note=102 velocity=47 time=0\n",
      "note_on channel=0 note=73 velocity=65 time=1\n",
      "note_off channel=0 note=86 velocity=64 time=0\n",
      "note_on channel=0 note=60 velocity=50 time=1\n",
      "note_on channel=0 note=84 velocity=29 time=0\n",
      "note_on channel=0 note=90 velocity=23 time=0\n",
      "note_off channel=0 note=48 velocity=64 time=1\n",
      "note_on channel=0 note=49 velocity=67 time=0\n",
      "note_on channel=0 note=68 velocity=55 time=0\n",
      "note_off channel=0 note=71 velocity=64 time=0\n",
      "note_on channel=0 note=94 velocity=54 time=0\n",
      "note_on channel=0 note=96 velocity=56 time=0\n",
      "note_off channel=0 note=60 velocity=64 time=1\n",
      "note_on channel=0 note=98 velocity=14 time=0\n",
      "note_on channel=0 note=61 velocity=69 time=1\n",
      "note_on channel=0 note=82 velocity=41 time=0\n",
      "note_off channel=0 note=63 velocity=64 time=1\n",
      "note_off channel=0 note=90 velocity=64 time=0\n",
      "note_off channel=0 note=83 velocity=64 time=1\n",
      "note_on channel=0 note=90 velocity=47 time=0\n",
      "note_off channel=0 note=93 velocity=64 time=0\n",
      "note_off channel=0 note=98 velocity=64 time=0\n",
      "note_off channel=0 note=68 velocity=64 time=1\n",
      "note_on channel=0 note=69 velocity=53 time=0\n",
      "note_on channel=0 note=98 velocity=50 time=0\n",
      "note_on channel=0 note=97 velocity=44 time=1\n",
      "note_on channel=0 note=68 velocity=55 time=1\n",
      "note_off channel=0 note=69 velocity=64 time=0\n",
      "note_off channel=0 note=85 velocity=64 time=1\n",
      "note_on channel=0 note=93 velocity=70 time=0\n",
      "note_off channel=0 note=95 velocity=64 time=0\n",
      "note_on channel=0 note=83 velocity=46 time=1\n",
      "note_on channel=0 note=95 velocity=64 time=0\n",
      "note_off channel=0 note=96 velocity=64 time=0\n",
      "note_on channel=0 note=71 velocity=29 time=1\n",
      "note_off channel=0 note=82 velocity=64 time=0\n",
      "note_on channel=0 note=96 velocity=55 time=0\n",
      "note_off channel=0 note=68 velocity=64 time=2\n",
      "note_on channel=0 note=69 velocity=58 time=0\n",
      "note_on channel=0 note=88 velocity=45 time=0\n",
      "note_off channel=0 note=49 velocity=64 time=1\n",
      "note_on channel=0 note=50 velocity=68 time=0\n",
      "note_off channel=0 note=71 velocity=64 time=0\n",
      "note_off channel=0 note=89 velocity=64 time=0\n",
      "note_off channel=0 note=91 velocity=64 time=0\n",
      "note_off channel=0 note=94 velocity=64 time=0\n",
      "note_off channel=0 note=69 velocity=64 time=1\n",
      "note_on channel=0 note=70 velocity=60 time=0\n",
      "note_on channel=0 note=75 velocity=31 time=0\n",
      "note_on channel=0 note=91 velocity=19 time=0\n",
      "note_on channel=0 note=94 velocity=22 time=0\n",
      "note_off channel=0 note=97 velocity=64 time=0\n",
      "note_off channel=0 note=50 velocity=64 time=1\n",
      "note_off channel=0 note=61 velocity=64 time=0\n",
      "note_on channel=0 note=64 velocity=63 time=0\n",
      "note_off channel=0 note=95 velocity=64 time=0\n",
      "note_on channel=0 note=97 velocity=45 time=0\n",
      "note_on channel=0 note=52 velocity=62 time=1\n",
      "note_off channel=0 note=94 velocity=64 time=1\n",
      "note_off channel=0 note=91 velocity=64 time=1\n",
      "note_off channel=0 note=97 velocity=64 time=0\n",
      "note_on channel=0 note=91 velocity=21 time=3\n",
      "note_on channel=0 note=68 velocity=60 time=1\n",
      "note_off channel=0 note=75 velocity=64 time=0\n",
      "note_on channel=0 note=97 velocity=41 time=1\n",
      "note_on channel=0 note=51 velocity=55 time=2\n",
      "note_off channel=0 note=52 velocity=64 time=0\n",
      "note_off channel=0 note=84 velocity=64 time=0\n",
      "note_off channel=0 note=70 velocity=64 time=1\n",
      "note_on channel=0 note=79 velocity=41 time=0\n",
      "note_on channel=0 note=84 velocity=19 time=0\n",
      "note_off channel=0 note=100 velocity=64 time=0\n",
      "note_off channel=0 note=51 velocity=64 time=1\n",
      "note_on channel=0 note=56 velocity=67 time=0\n",
      "note_on channel=0 note=62 velocity=78 time=0\n",
      "note_off channel=0 note=64 velocity=64 time=0\n",
      "note_off channel=0 note=80 velocity=64 time=0\n",
      "note_on channel=0 note=89 velocity=46 time=0\n",
      "note_off channel=0 note=91 velocity=64 time=0\n",
      "note_on channel=0 note=53 velocity=69 time=1\n",
      "note_off channel=0 note=56 velocity=64 time=0\n",
      "note_on channel=0 note=61 velocity=74 time=0\n",
      "note_off channel=0 note=62 velocity=64 time=0\n",
      "note_on channel=0 note=63 velocity=70 time=0\n",
      "note_on channel=0 note=71 velocity=56 time=0\n",
      "note_off channel=0 note=79 velocity=64 time=0\n",
      "note_off channel=0 note=88 velocity=64 time=0\n",
      "note_off channel=0 note=98 velocity=64 time=0\n",
      "note_off channel=0 note=63 velocity=64 time=1\n",
      "note_off channel=0 note=73 velocity=64 time=0\n",
      "note_off channel=0 note=84 velocity=64 time=0\n",
      "note_on channel=0 note=88 velocity=48 time=0\n",
      "note_off channel=0 note=89 velocity=64 time=0\n",
      "note_off channel=0 note=96 velocity=64 time=0\n",
      "note_off channel=0 note=97 velocity=64 time=0\n",
      "note_off channel=0 note=53 velocity=64 time=1\n",
      "note_off channel=0 note=61 velocity=64 time=0\n",
      "note_on channel=0 note=62 velocity=63 time=0\n",
      "note_off channel=0 note=68 velocity=64 time=0\n",
      "note_off channel=0 note=71 velocity=64 time=0\n",
      "note_off channel=0 note=102 velocity=64 time=0\n",
      "note_on channel=0 note=68 velocity=25 time=1\n",
      "note_on channel=0 note=71 velocity=52 time=0\n",
      "note_on channel=0 note=73 velocity=15 time=0\n",
      "note_on channel=0 note=91 velocity=13 time=0\n",
      "note_on channel=0 note=61 velocity=49 time=2\n",
      "note_off channel=0 note=62 velocity=64 time=0\n",
      "note_on channel=0 note=52 velocity=43 time=1\n",
      "note_on channel=0 note=65 velocity=22 time=0\n",
      "note_on channel=0 note=82 velocity=61 time=0\n",
      "note_off channel=0 note=83 velocity=64 time=0\n",
      "note_off channel=0 note=73 velocity=64 time=1\n",
      "note_off channel=0 note=91 velocity=64 time=0\n",
      "note_on channel=0 note=91 velocity=16 time=1\n",
      "note_off channel=0 note=52 velocity=64 time=1\n",
      "note_on channel=0 note=75 velocity=51 time=3\n",
      "note_off channel=0 note=91 velocity=64 time=0\n",
      "note_off channel=0 note=65 velocity=64 time=1\n",
      "note_off channel=0 note=68 velocity=64 time=0\n",
      "note_off channel=0 note=77 velocity=64 time=0\n",
      "note_on channel=0 note=78 velocity=30 time=0\n",
      "note_on channel=0 note=91 velocity=18 time=0\n",
      "note_on channel=0 note=53 velocity=44 time=1\n",
      "note_on channel=0 note=69 velocity=36 time=0\n",
      "note_on channel=0 note=84 velocity=43 time=0\n",
      "note_off channel=0 note=78 velocity=64 time=1\n",
      "note_off channel=0 note=53 velocity=64 time=1\n",
      "note_on channel=0 note=68 velocity=26 time=0\n",
      "note_off channel=0 note=69 velocity=64 time=0\n",
      "note_off channel=0 note=84 velocity=64 time=0\n",
      "note_on channel=0 note=65 velocity=44 time=1\n",
      "note_on channel=0 note=78 velocity=13 time=0\n",
      "note_on channel=0 note=53 velocity=26 time=1\n",
      "note_off channel=0 note=91 velocity=64 time=0\n",
      "note_off channel=0 note=53 velocity=64 time=3\n",
      "note_off channel=0 note=78 velocity=64 time=3\n",
      "note_off channel=0 note=61 velocity=64 time=2\n",
      "note_off channel=0 note=68 velocity=64 time=0\n",
      "note_off channel=0 note=71 velocity=64 time=0\n",
      "note_on channel=0 note=77 velocity=59 time=0\n",
      "note_off channel=0 note=75 velocity=64 time=1\n",
      "note_on channel=0 note=64 velocity=81 time=1\n",
      "note_off channel=0 note=65 velocity=64 time=0\n",
      "note_on channel=0 note=70 velocity=52 time=0\n",
      "note_off channel=0 note=88 velocity=64 time=0\n",
      "note_on channel=0 note=45 velocity=77 time=1\n",
      "note_on channel=0 note=74 velocity=28 time=0\n",
      "note_on channel=0 note=83 velocity=31 time=0\n",
      "note_on channel=0 note=85 velocity=35 time=0\n",
      "note_on channel=0 note=88 velocity=42 time=0\n",
      "note_on channel=0 note=91 velocity=69 time=0\n",
      "note_on channel=0 note=63 velocity=74 time=1\n",
      "note_off channel=0 note=64 velocity=64 time=0\n",
      "note_on channel=0 note=81 velocity=40 time=0\n",
      "note_off channel=0 note=82 velocity=64 time=0\n",
      "note_on channel=0 note=100 velocity=46 time=0\n",
      "note_on channel=0 note=102 velocity=63 time=0\n",
      "note_on channel=0 note=44 velocity=78 time=1\n",
      "note_off channel=0 note=45 velocity=64 time=0\n",
      "note_on channel=0 note=57 velocity=60 time=0\n",
      "note_on channel=0 note=69 velocity=80 time=0\n",
      "note_off channel=0 note=70 velocity=64 time=0\n",
      "note_on channel=0 note=76 velocity=68 time=0\n",
      "note_off channel=0 note=77 velocity=64 time=0\n",
      "note_off channel=0 note=87 velocity=64 time=0\n",
      "note_on channel=0 note=101 velocity=52 time=0\n",
      "note_on channel=0 note=73 velocity=36 time=1\n",
      "note_off channel=0 note=74 velocity=64 time=0\n",
      "note_off channel=0 note=83 velocity=64 time=0\n",
      "note_off channel=0 note=90 velocity=64 time=0\n",
      "note_off channel=0 note=57 velocity=64 time=1\n",
      "note_on channel=0 note=71 velocity=44 time=0\n",
      "note_on channel=0 note=79 velocity=12 time=0\n",
      "note_on channel=0 note=83 velocity=48 time=0\n",
      "note_on channel=0 note=84 velocity=54 time=0\n",
      "note_on channel=0 note=90 velocity=63 time=0\n",
      "note_off channel=0 note=91 velocity=64 time=0\n",
      "note_on channel=0 note=92 velocity=70 time=0\n",
      "note_on channel=0 note=94 velocity=48 time=0\n",
      "note_off channel=0 note=44 velocity=64 time=1\n",
      "note_on channel=0 note=45 velocity=75 time=0\n",
      "note_off channel=0 note=63 velocity=64 time=0\n",
      "note_on channel=0 note=68 velocity=68 time=0\n",
      "note_off channel=0 note=69 velocity=64 time=0\n",
      "note_off channel=0 note=76 velocity=64 time=0\n",
      "note_on channel=0 note=91 velocity=39 time=0\n",
      "note_on channel=0 note=97 velocity=38 time=0\n",
      "note_on channel=0 note=99 velocity=24 time=0\n",
      "note_on channel=0 note=61 velocity=60 time=1\n",
      "note_off channel=0 note=81 velocity=64 time=0\n",
      "note_on channel=0 note=44 velocity=70 time=1\n",
      "note_off channel=0 note=45 velocity=64 time=0\n",
      "note_on channel=0 note=65 velocity=40 time=0\n",
      "note_off channel=0 note=79 velocity=64 time=0\n",
      "note_off channel=0 note=71 velocity=64 time=1\n",
      "note_off channel=0 note=85 velocity=64 time=0\n",
      "note_off channel=0 note=97 velocity=64 time=0\n",
      "note_on channel=0 note=98 velocity=29 time=0\n",
      "note_off channel=0 note=100 velocity=64 time=0\n",
      "note_off channel=0 note=44 velocity=64 time=1\n",
      "note_on channel=0 note=57 velocity=62 time=0\n",
      "note_on channel=0 note=71 velocity=41 time=0\n",
      "note_off channel=0 note=91 velocity=64 time=0\n",
      "note_off channel=0 note=92 velocity=64 time=0\n",
      "note_on channel=0 note=95 velocity=53 time=0\n",
      "note_on channel=0 note=42 velocity=59 time=1\n",
      "note_off channel=0 note=68 velocity=64 time=0\n",
      "note_off channel=0 note=99 velocity=64 time=0\n",
      "note_on channel=0 note=56 velocity=64 time=1\n",
      "note_off channel=0 note=57 velocity=64 time=0\n",
      "note_off channel=0 note=94 velocity=64 time=0\n",
      "note_off channel=0 note=42 velocity=64 time=1\n",
      "note_off channel=0 note=73 velocity=64 time=0\n",
      "note_on channel=0 note=94 velocity=54 time=0\n",
      "note_on channel=0 note=55 velocity=66 time=1\n",
      "note_off channel=0 note=56 velocity=64 time=0\n",
      "note_off channel=0 note=65 velocity=64 time=0\n",
      "note_on channel=0 note=79 velocity=14 time=0\n",
      "note_on channel=0 note=91 velocity=33 time=0\n",
      "note_on channel=0 note=103 velocity=33 time=0\n",
      "note_on channel=0 note=54 velocity=70 time=1\n",
      "note_off channel=0 note=55 velocity=64 time=0\n",
      "note_on channel=0 note=67 velocity=56 time=0\n",
      "note_on channel=0 note=73 velocity=71 time=0\n",
      "note_on channel=0 note=78 velocity=23 time=0\n",
      "note_on channel=0 note=49 velocity=68 time=1\n",
      "note_off channel=0 note=84 velocity=64 time=0\n",
      "note_on channel=0 note=47 velocity=76 time=1\n",
      "note_off channel=0 note=49 velocity=64 time=0\n",
      "note_on channel=0 note=65 velocity=58 time=0\n",
      "note_off channel=0 note=67 velocity=64 time=0\n",
      "note_off channel=0 note=71 velocity=64 time=0\n",
      "note_off channel=0 note=79 velocity=64 time=0\n",
      "note_off channel=0 note=103 velocity=64 time=0\n",
      "note_on channel=0 note=53 velocity=74 time=1\n",
      "note_off channel=0 note=54 velocity=64 time=0\n",
      "note_off channel=0 note=78 velocity=64 time=0\n",
      "note_off channel=0 note=94 velocity=64 time=0\n",
      "note_off channel=0 note=47 velocity=64 time=1\n",
      "note_on channel=0 note=49 velocity=70 time=0\n",
      "note_on channel=0 note=72 velocity=68 time=0\n",
      "note_off channel=0 note=73 velocity=64 time=0\n",
      "note_on channel=0 note=97 velocity=34 time=0\n",
      "note_off channel=0 note=101 velocity=64 time=0\n",
      "note_on channel=0 note=103 velocity=38 time=0\n",
      "note_off channel=0 note=49 velocity=64 time=1\n",
      "note_on channel=0 note=50 velocity=80 time=0\n",
      "note_off channel=0 note=53 velocity=64 time=0\n",
      "note_off channel=0 note=65 velocity=64 time=0\n",
      "note_on channel=0 note=66 velocity=48 time=0\n",
      "note_on channel=0 note=87 velocity=38 time=0\n",
      "note_off channel=0 note=50 velocity=64 time=1\n",
      "note_on channel=0 note=53 velocity=72 time=0\n",
      "note_on channel=0 note=68 velocity=44 time=0\n",
      "note_on channel=0 note=71 velocity=51 time=0\n",
      "note_off channel=0 note=72 velocity=64 time=0\n",
      "note_on channel=0 note=73 velocity=75 time=0\n",
      "note_off channel=0 note=53 velocity=64 time=1\n",
      "note_on channel=0 note=54 velocity=71 time=0\n",
      "note_on channel=0 note=65 velocity=39 time=0\n",
      "note_off channel=0 note=66 velocity=64 time=0\n",
      "note_on channel=0 note=77 velocity=44 time=0\n",
      "note_on channel=0 note=101 velocity=54 time=0\n",
      "note_off channel=0 note=61 velocity=64 time=1\n",
      "note_on channel=0 note=94 velocity=35 time=0\n",
      "note_off channel=0 note=97 velocity=64 time=0\n",
      "note_off channel=0 note=98 velocity=64 time=0\n",
      "note_off channel=0 note=103 velocity=64 time=0\n",
      "note_on channel=0 note=53 velocity=80 time=1\n",
      "note_off channel=0 note=54 velocity=64 time=0\n",
      "note_off channel=0 note=65 velocity=64 time=0\n",
      "note_on channel=0 note=66 velocity=29 time=0\n",
      "note_off channel=0 note=71 velocity=64 time=1\n",
      "note_on channel=0 note=84 velocity=19 time=0\n",
      "note_off channel=0 note=66 velocity=64 time=1\n",
      "note_on channel=0 note=71 velocity=50 time=0\n",
      "note_on channel=0 note=75 velocity=35 time=0\n",
      "note_off channel=0 note=95 velocity=64 time=0\n",
      "note_off channel=0 note=102 velocity=64 time=1\n",
      "note_on channel=0 note=92 velocity=58 time=1\n",
      "note_off channel=0 note=94 velocity=64 time=0\n",
      "note_off channel=0 note=53 velocity=64 time=1\n",
      "note_on channel=0 note=65 velocity=71 time=0\n",
      "note_off channel=0 note=68 velocity=64 time=0\n",
      "note_on channel=0 note=45 velocity=77 time=1\n",
      "note_on channel=0 note=64 velocity=82 time=0\n",
      "note_off channel=0 note=65 velocity=64 time=0\n",
      "note_on channel=0 note=67 velocity=68 time=0\n",
      "note_on channel=0 note=94 velocity=51 time=0\n",
      "note_on channel=0 note=54 velocity=66 time=1\n",
      "note_on channel=0 note=63 velocity=78 time=0\n",
      "note_off channel=0 note=64 velocity=64 time=0\n",
      "note_on channel=0 note=78 velocity=40 time=0\n",
      "note_off channel=0 note=83 velocity=64 time=0\n",
      "note_off channel=0 note=84 velocity=64 time=0\n",
      "note_off channel=0 note=88 velocity=64 time=0\n",
      "note_off channel=0 note=91 velocity=64 time=0\n",
      "note_on channel=0 note=96 velocity=38 time=0\n",
      "note_on channel=0 note=98 velocity=24 time=0\n",
      "note_on channel=0 note=44 velocity=79 time=1\n",
      "note_off channel=0 note=45 velocity=64 time=0\n",
      "note_on channel=0 note=53 velocity=67 time=0\n",
      "note_off channel=0 note=54 velocity=64 time=0\n",
      "note_off channel=0 note=67 velocity=64 time=0\n",
      "note_off channel=0 note=77 velocity=64 time=0\n",
      "note_on channel=0 note=83 velocity=52 time=0\n",
      "note_on channel=0 note=88 velocity=15 time=0\n",
      "note_off channel=0 note=93 velocity=64 time=0\n",
      "note_on channel=0 note=103 velocity=24 time=0\n",
      "note_off channel=0 note=96 velocity=64 time=1\n",
      "note_off channel=0 note=53 velocity=64 time=1\n",
      "note_on channel=0 note=54 velocity=63 time=0\n",
      "note_on channel=0 note=68 velocity=42 time=0\n",
      "note_on channel=0 note=62 velocity=34 time=1\n",
      "note_off channel=0 note=63 velocity=64 time=0\n",
      "note_on channel=0 note=82 velocity=39 time=0\n",
      "note_off channel=0 note=71 velocity=64 time=1\n",
      "note_on channel=0 note=77 velocity=38 time=0\n",
      "note_off channel=0 note=78 velocity=64 time=0\n",
      "note_on channel=0 note=93 velocity=59 time=0\n",
      "note_off channel=0 note=94 velocity=64 time=0\n",
      "note_off channel=0 note=44 velocity=64 time=1\n",
      "note_off channel=0 note=54 velocity=64 time=0\n",
      "note_off channel=0 note=62 velocity=64 time=0\n",
      "note_off channel=0 note=101 velocity=64 time=0\n",
      "note_on channel=0 note=54 velocity=60 time=1\n",
      "note_off channel=0 note=88 velocity=64 time=0\n",
      "note_off channel=0 note=93 velocity=64 time=0\n",
      "note_on channel=0 note=94 velocity=54 time=0\n",
      "note_on channel=0 note=101 velocity=46 time=0\n",
      "note_on channel=0 note=43 velocity=60 time=1\n",
      "note_on channel=0 note=61 velocity=77 time=0\n",
      "note_off channel=0 note=68 velocity=64 time=0\n",
      "note_on channel=0 note=71 velocity=38 time=0\n",
      "note_off channel=0 note=75 velocity=64 time=0\n",
      "note_off channel=0 note=103 velocity=64 time=0\n",
      "note_on channel=0 note=67 velocity=61 time=1\n",
      "note_off channel=0 note=77 velocity=64 time=0\n",
      "note_on channel=0 note=78 velocity=40 time=0\n",
      "note_on channel=0 note=91 velocity=39 time=0\n",
      "note_on channel=0 note=93 velocity=60 time=0\n",
      "note_off channel=0 note=54 velocity=64 time=1\n",
      "note_on channel=0 note=55 velocity=64 time=0\n",
      "note_on channel=0 note=74 velocity=53 time=0\n",
      "note_off channel=0 note=82 velocity=64 time=0\n",
      "note_off channel=0 note=94 velocity=64 time=0\n",
      "note_off channel=0 note=73 velocity=64 time=1\n",
      "note_off channel=0 note=98 velocity=64 time=0\n",
      "note_on channel=0 note=42 velocity=56 time=1\n",
      "note_off channel=0 note=43 velocity=64 time=0\n",
      "note_off channel=0 note=55 velocity=64 time=0\n",
      "note_off channel=0 note=67 velocity=64 time=0\n",
      "note_on channel=0 note=69 velocity=39 time=0\n",
      "note_off channel=0 note=74 velocity=64 time=0\n",
      "note_on channel=0 note=57 velocity=58 time=1\n",
      "note_off channel=0 note=71 velocity=64 time=0\n",
      "note_off channel=0 note=90 velocity=64 time=0\n",
      "note_on channel=0 note=65 velocity=52 time=1\n",
      "note_off channel=0 note=69 velocity=64 time=0\n",
      "note_on channel=0 note=71 velocity=44 time=0\n",
      "note_off channel=0 note=78 velocity=64 time=0\n",
      "note_off channel=0 note=57 velocity=64 time=1\n",
      "note_off channel=0 note=101 velocity=64 time=0\n",
      "note_on channel=0 note=68 velocity=32 time=1\n",
      "note_off channel=0 note=71 velocity=64 time=0\n",
      "note_on channel=0 note=79 velocity=45 time=0\n",
      "note_on channel=0 note=84 velocity=40 time=0\n",
      "note_on channel=0 note=101 velocity=36 time=0\n",
      "note_on channel=0 note=72 velocity=83 time=1\n",
      "note_off channel=0 note=92 velocity=64 time=1\n",
      "note_on channel=0 note=102 velocity=36 time=0\n",
      "note_off channel=0 note=61 velocity=64 time=1\n",
      "note_on channel=0 note=62 velocity=70 time=0\n",
      "note_on channel=0 note=78 velocity=67 time=0\n",
      "note_off channel=0 note=79 velocity=64 time=0\n",
      "note_off channel=0 note=91 velocity=64 time=0\n",
      "note_on channel=0 note=94 velocity=40 time=0\n",
      "note_on channel=0 note=61 velocity=73 time=1\n",
      "note_off channel=0 note=62 velocity=64 time=0\n",
      "note_on channel=0 note=70 velocity=73 time=0\n",
      "note_off channel=0 note=84 velocity=64 time=0\n",
      "note_on channel=0 note=92 velocity=51 time=0\n",
      "note_on channel=0 note=96 velocity=30 time=0\n",
      "note_on channel=0 note=100 velocity=22 time=0\n",
      "note_off channel=0 note=68 velocity=64 time=1\n",
      "note_off channel=0 note=72 velocity=64 time=0\n",
      "note_on channel=0 note=77 velocity=86 time=0\n",
      "note_off channel=0 note=78 velocity=64 time=0\n",
      "note_on channel=0 note=86 velocity=32 time=0\n",
      "note_on channel=0 note=88 velocity=47 time=1\n",
      "note_on channel=0 note=91 velocity=61 time=0\n",
      "note_on channel=0 note=57 velocity=60 time=1\n",
      "note_on channel=0 note=81 velocity=37 time=0\n",
      "note_on channel=0 note=85 velocity=63 time=0\n",
      "note_off channel=0 note=94 velocity=64 time=0\n",
      "note_on channel=0 note=69 velocity=71 time=1\n",
      "note_off channel=0 note=70 velocity=64 time=0\n",
      "note_on channel=0 note=76 velocity=80 time=0\n",
      "note_off channel=0 note=96 velocity=64 time=0\n",
      "note_off channel=0 note=42 velocity=64 time=1\n",
      "note_off channel=0 note=77 velocity=64 time=0\n",
      "note_off channel=0 note=86 velocity=64 time=0\n",
      "note_off channel=0 note=102 velocity=64 time=0\n",
      "note_on channel=0 note=80 velocity=84 time=1\n",
      "note_off channel=0 note=57 velocity=64 time=1\n",
      "note_off channel=0 note=81 velocity=64 time=0\n",
      "note_off channel=0 note=92 velocity=64 time=0\n",
      "note_on channel=0 note=94 velocity=27 time=0\n",
      "note_on channel=0 note=102 velocity=14 time=0\n",
      "note_on channel=0 note=47 velocity=75 time=1\n",
      "note_on channel=0 note=58 velocity=58 time=0\n",
      "note_on channel=0 note=64 velocity=65 time=0\n",
      "note_off channel=0 note=65 velocity=64 time=0\n",
      "note_off channel=0 note=69 velocity=64 time=0\n",
      "note_on channel=0 note=70 velocity=68 time=0\n",
      "note_off channel=0 note=101 velocity=64 time=0\n",
      "note_off channel=0 note=47 velocity=64 time=1\n",
      "note_on channel=0 note=48 velocity=86 time=0\n",
      "note_off channel=0 note=76 velocity=64 time=0\n",
      "note_on channel=0 note=77 velocity=63 time=0\n",
      "note_off channel=0 note=83 velocity=64 time=0\n",
      "note_off channel=0 note=64 velocity=64 time=1\n",
      "note_on channel=0 note=65 velocity=60 time=0\n",
      "note_off channel=0 note=88 velocity=64 time=0\n",
      "note_off channel=0 note=93 velocity=64 time=0\n",
      "note_off channel=0 note=94 velocity=64 time=0\n",
      "note_off channel=0 note=100 velocity=64 time=0\n",
      "note_off channel=0 note=102 velocity=64 time=0\n",
      "note_off channel=0 note=61 velocity=64 time=1\n",
      "note_on channel=0 note=73 velocity=64 time=0\n",
      "note_on channel=0 note=75 velocity=21 time=0\n",
      "note_on channel=0 note=76 velocity=32 time=0\n",
      "note_off channel=0 note=87 velocity=64 time=0\n",
      "note_off channel=0 note=48 velocity=64 time=1\n",
      "note_off channel=0 note=77 velocity=64 time=0\n",
      "note_on channel=0 note=68 velocity=24 time=1\n",
      "note_off channel=0 note=70 velocity=64 time=0\n",
      "note_off channel=0 note=76 velocity=64 time=0\n",
      "note_on channel=0 note=83 velocity=47 time=0\n",
      "note_on channel=0 note=87 velocity=49 time=3\n",
      "note_off channel=0 note=58 velocity=64 time=1\n",
      "note_off channel=0 note=68 velocity=64 time=0\n",
      "note_on channel=0 note=93 velocity=37 time=0\n",
      "note_on channel=0 note=54 velocity=33 time=1\n",
      "note_on channel=0 note=62 velocity=73 time=0\n",
      "note_on channel=0 note=68 velocity=26 time=0\n",
      "note_off channel=0 note=75 velocity=64 time=0\n",
      "note_on channel=0 note=95 velocity=58 time=0\n",
      "note_on channel=0 note=61 velocity=91 time=1\n",
      "note_off channel=0 note=62 velocity=64 time=0\n",
      "note_on channel=0 note=94 velocity=25 time=0\n",
      "note_on channel=0 note=75 velocity=19 time=2\n",
      "note_off channel=0 note=93 velocity=64 time=0\n",
      "note_on channel=0 note=100 velocity=41 time=0\n",
      "note_on channel=0 note=44 velocity=36 time=1\n",
      "note_on channel=0 note=72 velocity=64 time=0\n",
      "note_off channel=0 note=73 velocity=64 time=0\n",
      "note_on channel=0 note=96 velocity=48 time=0\n",
      "note_on channel=0 note=98 velocity=44 time=0\n",
      "note_off channel=0 note=54 velocity=64 time=1\n",
      "note_on channel=0 note=60 velocity=74 time=0\n",
      "note_off channel=0 note=61 velocity=64 time=0\n",
      "note_on channel=0 note=90 velocity=16 time=0\n",
      "note_off channel=0 note=91 velocity=64 time=0\n",
      "note_on channel=0 note=93 velocity=31 time=0\n",
      "note_on channel=0 note=43 velocity=23 time=1\n",
      "note_off channel=0 note=44 velocity=64 time=0\n",
      "note_on channel=0 note=59 velocity=62 time=0\n",
      "note_off channel=0 note=60 velocity=64 time=0\n",
      "note_off channel=0 note=94 velocity=64 time=0\n",
      "note_off channel=0 note=72 velocity=64 time=1\n",
      "note_on channel=0 note=73 velocity=34 time=0\n",
      "note_off channel=0 note=96 velocity=64 time=0\n",
      "note_on channel=0 note=54 velocity=30 time=1\n",
      "note_off channel=0 note=98 velocity=64 time=1\n",
      "note_off channel=0 note=43 velocity=64 time=2\n",
      "note_on channel=0 note=53 velocity=28 time=0\n",
      "note_off channel=0 note=54 velocity=64 time=0\n",
      "note_off channel=0 note=90 velocity=64 time=0\n",
      "note_on channel=0 note=91 velocity=33 time=0\n",
      "note_on channel=0 note=78 velocity=32 time=1\n",
      "note_off channel=0 note=95 velocity=64 time=1\n",
      "note_off channel=0 note=53 velocity=64 time=1\n",
      "note_on channel=0 note=54 velocity=25 time=0\n",
      "note_on channel=0 note=89 velocity=72 time=0\n",
      "note_off channel=0 note=100 velocity=64 time=0\n",
      "note_on channel=0 note=72 velocity=47 time=1\n",
      "note_off channel=0 note=59 velocity=64 time=1\n",
      "note_on channel=0 note=60 velocity=81 time=0\n",
      "note_off channel=0 note=68 velocity=64 time=0\n",
      "note_off channel=0 note=54 velocity=64 time=1\n",
      "note_off channel=0 note=73 velocity=64 time=0\n",
      "note_off channel=0 note=78 velocity=64 time=0\n",
      "note_on channel=0 note=79 velocity=30 time=0\n",
      "note_off channel=0 note=65 velocity=64 time=2\n",
      "note_on channel=0 note=69 velocity=46 time=0\n",
      "note_off channel=0 note=75 velocity=64 time=0\n",
      "note_on channel=0 note=76 velocity=46 time=0\n",
      "note_off channel=0 note=79 velocity=64 time=0\n",
      "note_on channel=0 note=96 velocity=15 time=0\n",
      "note_on channel=0 note=102 velocity=18 time=0\n",
      "note_on channel=0 note=45 velocity=77 time=1\n",
      "note_off channel=0 note=60 velocity=64 time=0\n",
      "note_on channel=0 note=61 velocity=90 time=0\n",
      "note_off channel=0 note=72 velocity=64 time=0\n",
      "note_on channel=0 note=77 velocity=36 time=0\n",
      "note_on channel=0 note=79 velocity=47 time=0\n",
      "note_on channel=0 note=84 velocity=47 time=0\n",
      "note_on channel=0 note=94 velocity=10 time=0\n",
      "note_on channel=0 note=67 velocity=45 time=1\n",
      "note_off channel=0 note=76 velocity=64 time=0\n",
      "note_on channel=0 note=44 velocity=77 time=1\n",
      "note_off channel=0 note=45 velocity=64 time=0\n",
      "note_on channel=0 note=74 velocity=76 time=0\n",
      "note_off channel=0 note=79 velocity=64 time=0\n",
      "note_off channel=0 note=87 velocity=64 time=0\n",
      "note_on channel=0 note=90 velocity=24 time=0\n",
      "note_off channel=0 note=93 velocity=64 time=0\n",
      "note_off channel=0 note=96 velocity=64 time=0\n",
      "note_off channel=0 note=102 velocity=64 time=0\n",
      "note_off channel=0 note=67 velocity=64 time=1\n",
      "note_off channel=0 note=69 velocity=64 time=0\n",
      "note_on channel=0 note=87 velocity=30 time=0\n",
      "note_off channel=0 note=94 velocity=64 time=0\n",
      "note_on channel=0 note=67 velocity=32 time=1\n",
      "note_off channel=0 note=74 velocity=64 time=0\n",
      "note_off channel=0 note=77 velocity=64 time=0\n",
      "note_on channel=0 note=78 velocity=21 time=0\n",
      "note_off channel=0 note=84 velocity=64 time=0\n",
      "note_off channel=0 note=91 velocity=64 time=0\n",
      "note_off channel=0 note=44 velocity=64 time=2\n",
      "note_on channel=0 note=82 velocity=35 time=0\n",
      "note_off channel=0 note=83 velocity=64 time=0\n",
      "note_on channel=0 note=91 velocity=25 time=0\n",
      "note_on channel=0 note=77 velocity=9 time=1\n",
      "note_off channel=0 note=78 velocity=64 time=0\n",
      "note_on channel=0 note=83 velocity=52 time=0\n",
      "note_off channel=0 note=90 velocity=64 time=0\n",
      "note_on channel=0 note=102 velocity=37 time=0\n",
      "note_on channel=0 note=44 velocity=67 time=1\n",
      "note_off channel=0 note=67 velocity=64 time=0\n",
      "note_off channel=0 note=82 velocity=64 time=0\n",
      "note_on channel=0 note=43 velocity=54 time=2\n",
      "note_off channel=0 note=44 velocity=64 time=0\n",
      "note_off channel=0 note=77 velocity=64 time=1\n",
      "note_off channel=0 note=43 velocity=64 time=2\n",
      "note_on channel=0 note=77 velocity=38 time=1\n",
      "note_off channel=0 note=89 velocity=64 time=2\n",
      "note_on channel=0 note=89 velocity=67 time=1\n",
      "note_off channel=0 note=91 velocity=64 time=1\n",
      "note_on channel=0 note=49 velocity=10 time=1\n",
      "note_on channel=0 note=65 velocity=21 time=0\n",
      "note_off channel=0 note=49 velocity=64 time=5\n",
      "note_on channel=0 note=50 velocity=35 time=4\n",
      "note_off channel=0 note=65 velocity=64 time=1\n",
      "note_on channel=0 note=91 velocity=10 time=0\n",
      "note_off channel=0 note=50 velocity=64 time=1\n",
      "note_on channel=0 note=75 velocity=24 time=0\n",
      "note_on channel=0 note=45 velocity=74 time=1\n",
      "note_on channel=0 note=64 velocity=83 time=0\n",
      "note_on channel=0 note=90 velocity=30 time=0\n",
      "note_on channel=0 note=44 velocity=79 time=1\n",
      "note_off channel=0 note=45 velocity=64 time=0\n",
      "note_off channel=0 note=61 velocity=64 time=0\n",
      "note_on channel=0 note=63 velocity=75 time=0\n",
      "note_off channel=0 note=64 velocity=64 time=0\n",
      "note_off channel=0 note=91 velocity=64 time=0\n",
      "note_on channel=0 note=61 velocity=78 time=1\n",
      "note_on channel=0 note=69 velocity=30 time=0\n",
      "note_off channel=0 note=77 velocity=64 time=0\n",
      "note_off channel=0 note=63 velocity=64 time=1\n",
      "note_off channel=0 note=90 velocity=64 time=0\n",
      "note_on channel=0 note=91 velocity=26 time=0\n",
      "note_off channel=0 note=69 velocity=64 time=1\n",
      "note_off channel=0 note=75 velocity=64 time=0\n",
      "note_on channel=0 note=77 velocity=21 time=0\n",
      "note_off channel=0 note=87 velocity=64 time=0\n",
      "note_on channel=0 note=65 velocity=48 time=1\n",
      "note_off channel=0 note=44 velocity=64 time=1\n",
      "note_on channel=0 note=68 velocity=29 time=1\n",
      "note_on channel=0 note=87 velocity=50 time=0\n",
      "note_on channel=0 note=94 velocity=27 time=0\n",
      "note_off channel=0 note=102 velocity=64 time=0\n",
      "note_on channel=0 note=96 velocity=14 time=1\n",
      "note_on channel=0 note=72 velocity=77 time=1\n",
      "note_off channel=0 note=85 velocity=64 time=0\n",
      "note_on channel=0 note=79 velocity=49 time=1\n",
      "note_off channel=0 note=80 velocity=64 time=0\n",
      "note_off channel=0 note=61 velocity=64 time=1\n",
      "note_on channel=0 note=71 velocity=62 time=0\n",
      "note_off channel=0 note=72 velocity=64 time=0\n",
      "note_on channel=0 note=73 velocity=47 time=0\n",
      "note_on channel=0 note=80 velocity=41 time=0\n",
      "note_on channel=0 note=90 velocity=43 time=0\n",
      "note_on channel=0 note=93 velocity=34 time=0\n",
      "note_off channel=0 note=94 velocity=64 time=0\n",
      "note_off channel=0 note=96 velocity=64 time=0\n",
      "note_on channel=0 note=61 velocity=57 time=1\n",
      "note_off channel=0 note=77 velocity=64 time=0\n",
      "note_on channel=0 note=78 velocity=57 time=0\n",
      "note_off channel=0 note=79 velocity=64 time=0\n",
      "note_on channel=0 note=82 velocity=27 time=0\n",
      "note_on channel=0 note=84 velocity=46 time=1\n",
      "note_off channel=0 note=61 velocity=64 time=1\n",
      "note_off channel=0 note=73 velocity=64 time=0\n",
      "note_on channel=0 note=85 velocity=22 time=0\n",
      "note_on channel=0 note=48 velocity=70 time=1\n",
      "note_off channel=0 note=68 velocity=64 time=0\n",
      "note_on channel=0 note=73 velocity=34 time=0\n",
      "note_on channel=0 note=88 velocity=39 time=0\n",
      "note_off channel=0 note=89 velocity=64 time=0\n",
      "note_on channel=0 note=47 velocity=73 time=1\n",
      "note_off channel=0 note=48 velocity=64 time=0\n",
      "note_off channel=0 note=82 velocity=64 time=0\n",
      "note_off channel=0 note=91 velocity=64 time=0\n",
      "note_off channel=0 note=47 velocity=64 time=1\n",
      "note_on channel=0 note=48 velocity=68 time=0\n",
      "note_on channel=0 note=61 velocity=56 time=0\n",
      "note_on channel=0 note=89 velocity=31 time=0\n",
      "note_off channel=0 note=90 velocity=64 time=0\n",
      "note_off channel=0 note=93 velocity=64 time=0\n",
      "note_off channel=0 note=48 velocity=64 time=1\n",
      "note_on channel=0 note=49 velocity=67 time=0\n",
      "note_off channel=0 note=71 velocity=64 time=0\n",
      "note_off channel=0 note=49 velocity=64 time=1\n",
      "note_on channel=0 note=50 velocity=76 time=0\n",
      "note_off channel=0 note=61 velocity=64 time=0\n",
      "note_on channel=0 note=69 velocity=51 time=0\n",
      "note_off channel=0 note=89 velocity=64 time=0\n",
      "note_off channel=0 note=50 velocity=64 time=1\n",
      "note_on channel=0 note=53 velocity=73 time=0\n",
      "note_off channel=0 note=85 velocity=64 time=0\n",
      "note_on channel=0 note=86 velocity=26 time=0\n",
      "note_off channel=0 note=53 velocity=64 time=1\n",
      "note_on channel=0 note=54 velocity=67 time=0\n",
      "note_on channel=0 note=77 velocity=55 time=0\n",
      "note_off channel=0 note=54 velocity=64 time=1\n",
      "note_on channel=0 note=57 velocity=64 time=0\n",
      "note_off channel=0 note=78 velocity=64 time=0\n",
      "note_on channel=0 note=53 velocity=59 time=2\n",
      "note_off channel=0 note=69 velocity=64 time=1\n",
      "note_on channel=0 note=70 velocity=66 time=0\n",
      "note_off channel=0 note=57 velocity=64 time=1\n",
      "note_off channel=0 note=86 velocity=64 time=0\n",
      "note_off channel=0 note=53 velocity=64 time=1\n",
      "note_on channel=0 note=69 velocity=69 time=0\n",
      "note_off channel=0 note=70 velocity=64 time=0\n",
      "note_off channel=0 note=73 velocity=64 time=0\n",
      "note_on channel=0 note=91 velocity=28 time=0\n",
      "note_on channel=0 note=63 velocity=65 time=1\n",
      "note_off channel=0 note=65 velocity=64 time=0\n",
      "note_on channel=0 note=73 velocity=46 time=0\n",
      "note_off channel=0 note=77 velocity=64 time=0\n",
      "note_on channel=0 note=82 velocity=49 time=0\n",
      "note_off channel=0 note=83 velocity=64 time=0\n",
      "note_on channel=0 note=90 velocity=36 time=0\n",
      "note_on channel=0 note=45 velocity=77 time=1\n",
      "note_off channel=0 note=63 velocity=64 time=0\n",
      "note_on channel=0 note=64 velocity=81 time=0\n",
      "note_on channel=0 note=79 velocity=42 time=0\n",
      "note_off channel=0 note=80 velocity=64 time=0\n",
      "note_on channel=0 note=83 velocity=51 time=0\n",
      "note_on channel=0 note=86 velocity=22 time=0\n",
      "note_off channel=0 note=82 velocity=64 time=1\n",
      "note_on channel=0 note=89 velocity=51 time=0\n",
      "note_on channel=0 note=44 velocity=78 time=1\n",
      "note_off channel=0 note=45 velocity=64 time=0\n",
      "note_on channel=0 note=63 velocity=69 time=0\n",
      "note_off channel=0 note=64 velocity=64 time=0\n",
      "note_on channel=0 note=77 velocity=29 time=0\n",
      "note_off channel=0 note=79 velocity=64 time=0\n",
      "note_off channel=0 note=88 velocity=64 time=0\n",
      "note_off channel=0 note=69 velocity=64 time=1\n",
      "note_off channel=0 note=86 velocity=64 time=1\n",
      "note_off channel=0 note=91 velocity=64 time=0\n",
      "note_off channel=0 note=44 velocity=64 time=1\n",
      "note_on channel=0 note=45 velocity=76 time=0\n",
      "note_off channel=0 note=63 velocity=64 time=0\n",
      "note_on channel=0 note=69 velocity=68 time=0\n",
      "note_on channel=0 note=76 velocity=48 time=1\n",
      "note_off channel=0 note=77 velocity=64 time=0\n",
      "note_off channel=0 note=84 velocity=64 time=0\n",
      "note_off channel=0 note=90 velocity=64 time=0\n",
      "note_on channel=0 note=44 velocity=70 time=1\n",
      "note_off channel=0 note=45 velocity=64 time=0\n",
      "note_on channel=0 note=66 velocity=23 time=0\n",
      "note_off channel=0 note=73 velocity=64 time=0\n",
      "note_on channel=0 note=61 velocity=62 time=1\n",
      "note_on channel=0 note=91 velocity=29 time=0\n",
      "note_off channel=0 note=44 velocity=64 time=1\n",
      "note_on channel=0 note=42 velocity=59 time=1\n",
      "note_on channel=0 note=56 velocity=64 time=0\n",
      "note_off channel=0 note=66 velocity=64 time=0\n",
      "note_off channel=0 note=69 velocity=64 time=1\n",
      "note_off channel=0 note=42 velocity=64 time=1\n",
      "note_on channel=0 note=75 velocity=34 time=0\n",
      "note_off channel=0 note=76 velocity=64 time=0\n",
      "note_on channel=0 note=77 velocity=21 time=0\n",
      "note_on channel=0 note=55 velocity=67 time=1\n",
      "note_off channel=0 note=56 velocity=64 time=0\n",
      "note_on channel=0 note=67 velocity=70 time=0\n",
      "note_on channel=0 note=71 velocity=46 time=0\n",
      "note_on channel=0 note=82 velocity=35 time=0\n",
      "note_on channel=0 note=48 velocity=65 time=1\n",
      "note_on channel=0 note=74 velocity=45 time=0\n",
      "note_off channel=0 note=83 velocity=64 time=0\n",
      "note_off channel=0 note=75 velocity=64 time=1\n",
      "note_on channel=0 note=47 velocity=71 time=1\n",
      "note_off channel=0 note=48 velocity=64 time=0\n",
      "note_off channel=0 note=55 velocity=64 time=0\n",
      "note_on channel=0 note=56 velocity=64 time=0\n",
      "note_off channel=0 note=74 velocity=64 time=0\n",
      "note_on channel=0 note=75 velocity=42 time=0\n",
      "note_on channel=0 note=84 velocity=29 time=0\n",
      "note_off channel=0 note=77 velocity=64 time=1\n",
      "note_off channel=0 note=47 velocity=64 time=1\n",
      "note_on channel=0 note=48 velocity=67 time=0\n",
      "note_on channel=0 note=55 velocity=69 time=0\n",
      "note_off channel=0 note=56 velocity=64 time=0\n",
      "note_off channel=0 note=67 velocity=64 time=0\n",
      "note_on channel=0 note=68 velocity=70 time=0\n",
      "note_on channel=0 note=77 velocity=44 time=0\n",
      "note_off channel=0 note=48 velocity=64 time=1\n",
      "note_on channel=0 note=49 velocity=75 time=0\n",
      "note_off channel=0 note=55 velocity=64 time=0\n",
      "note_on channel=0 note=80 velocity=84 time=0\n",
      "note_off channel=0 note=49 velocity=64 time=1\n",
      "note_on channel=0 note=52 velocity=74 time=0\n",
      "note_off channel=0 note=52 velocity=64 time=1\n",
      "note_on channel=0 note=55 velocity=77 time=0\n",
      "note_on channel=0 note=74 velocity=39 time=0\n",
      "note_off channel=0 note=75 velocity=64 time=0\n",
      "note_on channel=0 note=90 velocity=28 time=1\n",
      "note_off channel=0 note=91 velocity=64 time=0\n",
      "note_on channel=0 note=65 velocity=10 time=1\n",
      "note_off channel=0 note=55 velocity=64 time=1\n",
      "note_off channel=0 note=74 velocity=64 time=0\n",
      "note_on channel=0 note=88 velocity=45 time=0\n",
      "note_off channel=0 note=89 velocity=64 time=0\n",
      "note_on channel=0 note=55 velocity=69 time=1\n",
      "note_on channel=0 note=83 velocity=46 time=0\n",
      "note_off channel=0 note=90 velocity=64 time=0\n",
      "note_off channel=0 note=65 velocity=64 time=1\n",
      "note_off channel=0 note=82 velocity=64 time=0\n",
      "note_on channel=0 note=89 velocity=71 time=0\n",
      "note_on channel=0 note=90 velocity=29 time=0\n",
      "note_on channel=0 note=94 velocity=31 time=0\n",
      "note_off channel=0 note=55 velocity=64 time=1\n",
      "note_on channel=0 note=56 velocity=67 time=0\n",
      "note_on channel=0 note=67 velocity=50 time=0\n",
      "note_off channel=0 note=68 velocity=64 time=0\n",
      "note_on channel=0 note=48 velocity=88 time=1\n",
      "note_on channel=0 note=75 velocity=54 time=0\n",
      "note_off channel=0 note=90 velocity=64 time=0\n",
      "note_on channel=0 note=93 velocity=16 time=0\n",
      "note_off channel=0 note=61 velocity=64 time=1\n",
      "note_on channel=0 note=66 velocity=53 time=0\n",
      "note_off channel=0 note=67 velocity=64 time=0\n",
      "note_off channel=0 note=84 velocity=64 time=0\n",
      "note_on channel=0 note=85 velocity=33 time=0\n",
      "note_off channel=0 note=88 velocity=64 time=0\n",
      "note_off channel=0 note=94 velocity=64 time=0\n",
      "note_on channel=0 note=96 velocity=25 time=0\n",
      "note_on channel=0 note=55 velocity=70 time=1\n",
      "note_off channel=0 note=56 velocity=64 time=0\n",
      "note_on channel=0 note=64 velocity=57 time=0\n",
      "note_on channel=0 note=68 velocity=73 time=0\n",
      "note_on channel=0 note=73 velocity=42 time=0\n",
      "note_off channel=0 note=75 velocity=64 time=0\n",
      "note_on channel=0 note=102 velocity=30 time=0\n",
      "note_off channel=0 note=66 velocity=64 time=1\n",
      "note_on channel=0 note=84 velocity=22 time=0\n",
      "note_on channel=0 note=46 velocity=68 time=1\n",
      "note_off channel=0 note=48 velocity=64 time=0\n",
      "note_off channel=0 note=55 velocity=64 time=0\n",
      "note_on channel=0 note=56 velocity=64 time=0\n",
      "note_off channel=0 note=64 velocity=64 time=0\n",
      "note_on channel=0 note=75 velocity=35 time=0\n",
      "note_on channel=0 note=82 velocity=44 time=0\n",
      "note_off channel=0 note=83 velocity=64 time=0\n",
      "note_off channel=0 note=93 velocity=64 time=0\n",
      "note_on channel=0 note=78 velocity=29 time=1\n",
      "note_off channel=0 note=46 velocity=64 time=1\n",
      "note_on channel=0 note=47 velocity=67 time=0\n",
      "note_on channel=0 note=65 velocity=36 time=0\n",
      "note_off channel=0 note=47 velocity=64 time=1\n",
      "note_on channel=0 note=61 velocity=30 time=0\n",
      "note_off channel=0 note=78 velocity=64 time=0\n",
      "note_on channel=0 note=83 velocity=50 time=0\n",
      "note_on channel=0 note=45 velocity=59 time=1\n",
      "note_off channel=0 note=82 velocity=64 time=0\n",
      "note_on channel=0 note=103 velocity=13 time=0\n",
      "note_off channel=0 note=77 velocity=64 time=1\n",
      "note_on channel=0 note=100 velocity=20 time=0\n",
      "note_off channel=0 note=89 velocity=64 time=1\n",
      "note_off channel=0 note=45 velocity=64 time=2\n",
      "note_off channel=0 note=96 velocity=64 time=0\n",
      "note_on channel=0 note=55 velocity=51 time=1\n",
      "note_off channel=0 note=56 velocity=64 time=0\n",
      "note_off channel=0 note=85 velocity=64 time=0\n",
      "note_on channel=0 note=101 velocity=31 time=0\n",
      "note_off channel=0 note=102 velocity=64 time=0\n",
      "note_on channel=0 note=44 velocity=49 time=1\n",
      "note_off channel=0 note=100 velocity=64 time=0\n",
      "note_on channel=0 note=102 velocity=19 time=0\n",
      "note_off channel=0 note=103 velocity=64 time=0\n",
      "note_off channel=0 note=55 velocity=64 time=1\n",
      "note_off channel=0 note=75 velocity=64 time=0\n",
      "note_on channel=0 note=43 velocity=33 time=1\n",
      "note_off channel=0 note=44 velocity=64 time=0\n",
      "note_on channel=0 note=55 velocity=72 time=0\n",
      "note_off channel=0 note=68 velocity=64 time=0\n",
      "note_on channel=0 note=86 velocity=15 time=0\n",
      "note_off channel=0 note=65 velocity=64 time=1\n",
      "note_off channel=0 note=84 velocity=64 time=0\n",
      "note_on channel=0 note=75 velocity=54 time=1\n",
      "note_on channel=0 note=100 velocity=27 time=0\n",
      "note_off channel=0 note=86 velocity=64 time=1\n",
      "note_off channel=0 note=43 velocity=64 time=1\n",
      "note_on channel=0 note=66 velocity=63 time=0\n",
      "note_on channel=0 note=54 velocity=57 time=1\n",
      "note_off channel=0 note=55 velocity=64 time=0\n",
      "note_off channel=0 note=73 velocity=64 time=0\n",
      "note_on channel=0 note=42 velocity=25 time=1\n",
      "note_on channel=0 note=73 velocity=33 time=0\n",
      "note_off channel=0 note=54 velocity=64 time=1\n",
      "note_on channel=0 note=55 velocity=65 time=0\n",
      "note_off channel=0 note=66 velocity=64 time=0\n",
      "note_on channel=0 note=66 velocity=54 time=1\n",
      "note_on channel=0 note=84 velocity=39 time=0\n",
      "note_on channel=0 note=88 velocity=40 time=0\n",
      "note_off channel=0 note=42 velocity=64 time=1\n",
      "note_off channel=0 note=55 velocity=64 time=0\n",
      "note_off channel=0 note=102 velocity=64 time=0\n",
      "note_on channel=0 note=65 velocity=49 time=1\n",
      "note_off channel=0 note=66 velocity=64 time=0\n",
      "note_on channel=0 note=68 velocity=47 time=0\n",
      "note_off channel=0 note=73 velocity=64 time=0\n",
      "note_on channel=0 note=52 velocity=62 time=1\n",
      "note_on channel=0 note=98 velocity=27 time=0\n",
      "note_off channel=0 note=61 velocity=64 time=1\n",
      "note_off channel=0 note=65 velocity=64 time=0\n",
      "note_on channel=0 note=97 velocity=23 time=0\n",
      "note_on channel=0 note=61 velocity=49 time=1\n",
      "note_on channel=0 note=89 velocity=69 time=0\n",
      "note_off channel=0 note=83 velocity=64 time=1\n",
      "note_on channel=0 note=90 velocity=24 time=0\n",
      "note_on channel=0 note=91 velocity=19 time=0\n",
      "note_on channel=0 note=45 velocity=75 time=1\n",
      "note_off channel=0 note=52 velocity=64 time=0\n",
      "note_off channel=0 note=61 velocity=64 time=0\n",
      "note_on channel=0 note=62 velocity=61 time=0\n",
      "note_on channel=0 note=77 velocity=34 time=0\n",
      "note_off channel=0 note=88 velocity=64 time=0\n",
      "note_on channel=0 note=52 velocity=66 time=1\n",
      "note_off channel=0 note=68 velocity=64 time=0\n",
      "note_off channel=0 note=71 velocity=64 time=0\n",
      "note_on channel=0 note=73 velocity=32 time=0\n",
      "note_on channel=0 note=85 velocity=35 time=0\n",
      "note_off channel=0 note=97 velocity=64 time=0\n",
      "note_on channel=0 note=44 velocity=77 time=1\n",
      "note_off channel=0 note=45 velocity=64 time=0\n",
      "note_on channel=0 note=61 velocity=37 time=0\n",
      "note_off channel=0 note=62 velocity=64 time=0\n",
      "note_on channel=0 note=67 velocity=40 time=0\n",
      "note_on channel=0 note=70 velocity=32 time=0\n",
      "note_off channel=0 note=77 velocity=64 time=0\n",
      "note_on channel=0 note=78 velocity=27 time=0\n",
      "note_off channel=0 note=84 velocity=64 time=1\n",
      "note_on channel=0 note=43 velocity=74 time=1\n",
      "note_off channel=0 note=44 velocity=64 time=0\n",
      "note_off channel=0 note=61 velocity=64 time=0\n",
      "note_off channel=0 note=67 velocity=64 time=0\n",
      "note_on channel=0 note=68 velocity=36 time=0\n",
      "note_off channel=0 note=70 velocity=64 time=0\n",
      "note_on channel=0 note=71 velocity=38 time=0\n",
      "note_on channel=0 note=84 velocity=20 time=0\n",
      "note_off channel=0 note=100 velocity=64 time=0\n",
      "note_off channel=0 note=90 velocity=64 time=1\n",
      "note_off channel=0 note=91 velocity=64 time=0\n",
      "note_on channel=0 note=82 velocity=41 time=1\n",
      "note_off channel=0 note=52 velocity=64 time=1\n",
      "note_on channel=0 note=63 velocity=46 time=0\n",
      "note_off channel=0 note=68 velocity=64 time=0\n",
      "note_on channel=0 note=70 velocity=54 time=0\n",
      "note_off channel=0 note=71 velocity=64 time=0\n",
      "note_on channel=0 note=68 velocity=35 time=1\n",
      "note_on channel=0 note=90 velocity=34 time=0\n",
      "note_off channel=0 note=101 velocity=64 time=1\n",
      "note_on channel=0 note=51 velocity=50 time=1\n",
      "note_off channel=0 note=85 velocity=64 time=0\n",
      "note_on channel=0 note=86 velocity=13 time=0\n",
      "note_off channel=0 note=43 velocity=64 time=1\n",
      "note_off channel=0 note=89 velocity=64 time=1\n",
      "note_off channel=0 note=51 velocity=64 time=1\n",
      "note_on channel=0 note=52 velocity=56 time=0\n",
      "note_off channel=0 note=78 velocity=64 time=0\n",
      "note_off channel=0 note=86 velocity=64 time=0\n",
      "note_off channel=0 note=98 velocity=64 time=0\n",
      "note_off channel=0 note=63 velocity=64 time=1\n",
      "note_off channel=0 note=70 velocity=64 time=0\n",
      "note_on channel=0 note=71 velocity=48 time=0\n",
      "note_on channel=0 note=77 velocity=39 time=2\n",
      "note_off channel=0 note=73 velocity=64 time=2\n",
      "note_on channel=0 note=101 velocity=20 time=0\n",
      "note_on channel=0 note=91 velocity=17 time=1\n",
      "note_off channel=0 note=75 velocity=64 time=1\n",
      "note_off channel=0 note=52 velocity=64 time=1\n",
      "note_on channel=0 note=64 velocity=53 time=0\n",
      "note_on channel=0 note=52 velocity=51 time=1\n",
      "note_off channel=0 note=64 velocity=64 time=2\n",
      "note_off channel=0 note=80 velocity=64 time=0\n",
      "note_on channel=0 note=88 velocity=35 time=0\n",
      "note_on channel=0 note=51 velocity=49 time=1\n",
      "note_off channel=0 note=52 velocity=64 time=0\n",
      "note_on channel=0 note=64 velocity=52 time=0\n",
      "note_on channel=0 note=73 velocity=37 time=0\n",
      "note_on channel=0 note=75 velocity=15 time=0\n",
      "note_off channel=0 note=51 velocity=64 time=2\n",
      "note_off channel=0 note=64 velocity=64 time=0\n",
      "note_on channel=0 note=64 velocity=85 time=1\n",
      "note_off channel=0 note=68 velocity=64 time=0\n",
      "note_off channel=0 note=71 velocity=64 time=0\n",
      "note_off channel=0 note=75 velocity=64 time=0\n",
      "note_on channel=0 note=81 velocity=31 time=0\n",
      "note_off channel=0 note=82 velocity=64 time=0\n",
      "note_on channel=0 note=83 velocity=40 time=0\n",
      "note_on channel=0 note=45 velocity=77 time=1\n",
      "note_on channel=0 note=71 velocity=31 time=0\n",
      "note_off channel=0 note=88 velocity=64 time=0\n",
      "note_off channel=0 note=90 velocity=64 time=0\n",
      "note_on channel=0 note=63 velocity=79 time=1\n",
      "note_off channel=0 note=64 velocity=64 time=0\n",
      "note_on channel=0 note=68 velocity=45 time=0\n",
      "note_on channel=0 note=80 velocity=45 time=0\n",
      "note_on channel=0 note=88 velocity=30 time=0\n",
      "note_on channel=0 note=90 velocity=40 time=0\n",
      "note_off channel=0 note=101 velocity=64 time=0\n",
      "note_on channel=0 note=44 velocity=78 time=1\n",
      "note_off channel=0 note=45 velocity=64 time=0\n",
      "note_off channel=0 note=71 velocity=64 time=0\n",
      "note_off channel=0 note=81 velocity=64 time=0\n",
      "note_off channel=0 note=91 velocity=64 time=0\n",
      "note_off channel=0 note=68 velocity=64 time=1\n",
      "note_on channel=0 note=71 velocity=45 time=0\n",
      "note_on channel=0 note=91 velocity=17 time=0\n",
      "note_on channel=0 note=93 velocity=31 time=0\n",
      "note_on channel=0 note=62 velocity=34 time=1\n",
      "note_off channel=0 note=63 velocity=64 time=0\n",
      "note_on channel=0 note=65 velocity=40 time=0\n",
      "note_on channel=0 note=68 velocity=51 time=0\n",
      "note_off channel=0 note=44 velocity=64 time=2\n",
      "note_on channel=0 note=61 velocity=31 time=0\n",
      "note_off channel=0 note=62 velocity=64 time=0\n",
      "note_off channel=0 note=84 velocity=64 time=0\n",
      "note_off channel=0 note=61 velocity=64 time=2\n",
      "note_on channel=0 note=95 velocity=51 time=0\n",
      "note_on channel=0 note=43 velocity=61 time=1\n",
      "note_on channel=0 note=61 velocity=60 time=0\n",
      "note_on channel=0 note=42 velocity=56 time=2\n",
      "note_off channel=0 note=43 velocity=64 time=0\n",
      "note_on channel=0 note=14 velocity=20 time=1\n",
      "note_off channel=0 note=77 velocity=64 time=0\n",
      "note_off channel=0 note=73 velocity=64 time=1\n",
      "note_off channel=0 note=42 velocity=64 time=1\n",
      "note_off channel=0 note=14 velocity=64 time=1\n",
      "note_on channel=0 note=48 velocity=65 time=0\n",
      "note_on channel=0 note=47 velocity=70 time=1\n",
      "note_off channel=0 note=48 velocity=64 time=0\n",
      "note_off channel=0 note=47 velocity=64 time=1\n",
      "note_on channel=0 note=48 velocity=72 time=0\n",
      "note_on channel=0 note=75 velocity=12 time=0\n",
      "note_off channel=0 note=61 velocity=64 time=1\n",
      "note_on channel=0 note=62 velocity=38 time=0\n",
      "note_on channel=0 note=82 velocity=39 time=0\n",
      "note_off channel=0 note=48 velocity=64 time=1\n",
      "note_on channel=0 note=49 velocity=77 time=0\n",
      "note_off channel=0 note=83 velocity=64 time=0\n",
      "note_off channel=0 note=49 velocity=64 time=1\n",
      "note_on channel=0 note=52 velocity=75 time=0\n",
      "note_off channel=0 note=75 velocity=64 time=0\n",
      "note_off channel=0 note=91 velocity=64 time=0\n",
      "note_off channel=0 note=52 velocity=64 time=1\n",
      "note_on channel=0 note=53 velocity=65 time=0\n",
      "note_on channel=0 note=61 velocity=31 time=0\n",
      "note_off channel=0 note=62 velocity=64 time=0\n",
      "note_on channel=0 note=91 velocity=20 time=0\n",
      "note_off channel=0 note=53 velocity=64 time=1\n",
      "note_off channel=0 note=61 velocity=64 time=1\n",
      "note_on channel=0 note=53 velocity=58 time=1\n",
      "note_off channel=0 note=91 velocity=64 time=1\n",
      "note_on channel=0 note=91 velocity=18 time=1\n",
      "note_on channel=0 note=77 velocity=41 time=1\n",
      "note_off channel=0 note=88 velocity=64 time=0\n",
      "note_on channel=0 note=89 velocity=70 time=0\n",
      "note_on channel=0 note=64 velocity=80 time=1\n",
      "note_off channel=0 note=65 velocity=64 time=0\n",
      "note_off channel=0 note=71 velocity=64 time=0\n",
      "note_on channel=0 note=74 velocity=34 time=0\n",
      "note_off channel=0 note=53 velocity=64 time=1\n",
      "note_on channel=0 note=57 velocity=48 time=0\n",
      "note_off channel=0 note=68 velocity=64 time=0\n",
      "note_on channel=0 note=70 velocity=38 time=0\n",
      "note_on channel=0 note=79 velocity=40 time=0\n",
      "note_off channel=0 note=80 velocity=64 time=0\n",
      "note_off channel=0 note=87 velocity=64 time=0\n",
      "note_on channel=0 note=45 velocity=76 time=1\n",
      "note_on channel=0 note=68 velocity=53 time=0\n",
      "note_on channel=0 note=73 velocity=35 time=0\n",
      "note_off channel=0 note=74 velocity=64 time=0\n",
      "note_on channel=0 note=87 velocity=43 time=0\n",
      "note_on channel=0 note=96 velocity=60 time=0\n",
      "note_on channel=0 note=44 velocity=79 time=1\n",
      "note_off channel=0 note=45 velocity=64 time=0\n",
      "note_off channel=0 note=70 velocity=64 time=0\n",
      "note_on channel=0 note=71 velocity=41 time=0\n",
      "note_on channel=0 note=75 velocity=25 time=0\n",
      "note_on channel=0 note=100 velocity=40 time=0\n",
      "note_on channel=0 note=52 velocity=75 time=1\n",
      "note_off channel=0 note=57 velocity=64 time=0\n",
      "note_on channel=0 note=63 velocity=64 time=0\n",
      "note_off channel=0 note=64 velocity=64 time=0\n",
      "note_off channel=0 note=79 velocity=64 time=0\n",
      "note_on channel=0 note=80 velocity=83 time=0\n",
      "note_off channel=0 note=91 velocity=64 time=0\n",
      "note_on channel=0 note=103 velocity=27 time=0\n",
      "note_on channel=0 note=98 velocity=37 time=1\n",
      "note_off channel=0 note=82 velocity=64 time=1\n",
      "note_off channel=0 note=44 velocity=64 time=1\n",
      "note_off channel=0 note=63 velocity=64 time=0\n",
      "note_off channel=0 note=77 velocity=64 time=0\n",
      "note_off channel=0 note=93 velocity=64 time=0\n",
      "note_on channel=0 note=94 velocity=29 time=0\n",
      "note_on channel=0 note=97 velocity=55 time=0\n",
      "note_off channel=0 note=103 velocity=64 time=0\n",
      "note_on channel=0 note=41 velocity=57 time=1\n",
      "note_on channel=0 note=61 velocity=36 time=0\n",
      "note_off channel=0 note=68 velocity=64 time=0\n",
      "note_off channel=0 note=71 velocity=64 time=0\n",
      "note_on channel=0 note=93 velocity=22 time=0\n",
      "note_on channel=0 note=72 velocity=44 time=1\n",
      "note_off channel=0 note=75 velocity=64 time=0\n",
      "note_on channel=0 note=103 velocity=31 time=0\n",
      "note_off channel=0 note=41 velocity=64 time=1\n",
      "note_on channel=0 note=43 velocity=62 time=0\n",
      "note_off channel=0 note=52 velocity=64 time=0\n",
      "note_on channel=0 note=53 velocity=73 time=0\n",
      "note_off channel=0 note=61 velocity=64 time=0\n",
      "note_off channel=0 note=73 velocity=64 time=0\n",
      "note_on channel=0 note=91 velocity=34 time=0\n",
      "note_off channel=0 note=94 velocity=64 time=0\n",
      "note_off channel=0 note=53 velocity=64 time=1\n",
      "note_on channel=0 note=54 velocity=65 time=0\n",
      "note_on channel=0 note=61 velocity=63 time=0\n",
      "note_on channel=0 note=67 velocity=66 time=0\n",
      "note_off channel=0 note=72 velocity=64 time=0\n",
      "note_off channel=0 note=54 velocity=64 time=1\n",
      "note_on channel=0 note=56 velocity=66 time=0\n",
      "note_on channel=0 note=65 velocity=59 time=0\n",
      "note_off channel=0 note=67 velocity=64 time=0\n",
      "note_on channel=0 note=68 velocity=68 time=0\n",
      "note_on channel=0 note=75 velocity=27 time=0\n",
      "note_on channel=0 note=82 velocity=32 time=0\n",
      "note_on channel=0 note=42 velocity=56 time=1\n",
      "note_off channel=0 note=43 velocity=64 time=0\n",
      "note_off channel=0 note=100 velocity=64 time=0\n",
      "note_off channel=0 note=103 velocity=64 time=0\n",
      "note_off channel=0 note=56 velocity=64 time=1\n",
      "note_on channel=0 note=57 velocity=64 time=0\n",
      "note_off channel=0 note=68 velocity=64 time=0\n",
      "note_on channel=0 note=69 velocity=65 time=0\n",
      "note_off channel=0 note=97 velocity=64 time=0\n",
      "note_off channel=0 note=42 velocity=64 time=1\n",
      "note_off channel=0 note=98 velocity=64 time=0\n",
      "note_on channel=0 note=48 velocity=69 time=1\n",
      "note_off channel=0 note=57 velocity=64 time=1\n",
      "note_off channel=0 note=69 velocity=64 time=0\n",
      "note_off channel=0 note=91 velocity=64 time=0\n",
      "note_off channel=0 note=96 velocity=64 time=0\n",
      "note_on channel=0 note=47 velocity=74 time=1\n",
      "note_off channel=0 note=48 velocity=64 time=0\n",
      "note_off channel=0 note=65 velocity=64 time=0\n",
      "note_on channel=0 note=67 velocity=69 time=0\n",
      "note_on channel=0 note=91 velocity=35 time=0\n",
      "note_off channel=0 note=47 velocity=64 time=1\n",
      "note_on channel=0 note=48 velocity=72 time=0\n",
      "note_off channel=0 note=95 velocity=64 time=0\n",
      "note_off channel=0 note=48 velocity=64 time=1\n",
      "note_on channel=0 note=49 velocity=74 time=0\n",
      "note_on channel=0 note=68 velocity=40 time=0\n",
      "note_on channel=0 note=97 velocity=28 time=0\n",
      "note_on channel=0 note=98 velocity=32 time=0\n",
      "note_off channel=0 note=49 velocity=64 time=1\n",
      "note_on channel=0 note=50 velocity=72 time=0\n",
      "note_off channel=0 note=67 velocity=64 time=0\n",
      "note_off channel=0 note=93 velocity=64 time=0\n",
      "note_on channel=0 note=100 velocity=31 time=0\n",
      "note_off channel=0 note=50 velocity=64 time=1\n",
      "note_on channel=0 note=65 velocity=64 time=0\n",
      "note_off channel=0 note=91 velocity=64 time=0\n",
      "note_on channel=0 note=56 velocity=48 time=1\n",
      "note_off channel=0 note=68 velocity=64 time=0\n",
      "note_on channel=0 note=72 velocity=42 time=0\n",
      "note_on channel=0 note=83 velocity=43 time=0\n",
      "note_on channel=0 note=91 velocity=30 time=0\n",
      "note_on channel=0 note=51 velocity=59 time=1\n",
      "note_off channel=0 note=82 velocity=64 time=0\n",
      "note_off channel=0 note=72 velocity=64 time=1\n",
      "note_off channel=0 note=100 velocity=64 time=0\n",
      "note_off channel=0 note=51 velocity=64 time=1\n",
      "note_off channel=0 note=56 velocity=64 time=0\n",
      "note_off channel=0 note=91 velocity=64 time=1\n",
      "note_off channel=0 note=97 velocity=64 time=0\n",
      "note_on channel=0 note=53 velocity=75 time=1\n",
      "note_on channel=0 note=68 velocity=32 time=0\n",
      "note_off channel=0 note=98 velocity=64 time=0\n",
      "note_off channel=0 note=61 velocity=64 time=1\n",
      "note_off channel=0 note=75 velocity=64 time=0\n",
      "note_off channel=0 note=90 velocity=64 time=0\n",
      "note_on channel=0 note=93 velocity=28 time=0\n",
      "note_off channel=0 note=68 velocity=64 time=1\n",
      "note_on channel=0 note=74 velocity=38 time=0\n",
      "note_on channel=0 note=76 velocity=41 time=0\n",
      "note_on channel=0 note=85 velocity=37 time=0\n",
      "note_on channel=0 note=96 velocity=16 time=0\n",
      "note_on channel=0 note=48 velocity=88 time=1\n",
      "note_off channel=0 note=53 velocity=64 time=0\n",
      "note_on channel=0 note=73 velocity=41 time=0\n",
      "note_on channel=0 note=82 velocity=48 time=0\n",
      "note_off channel=0 note=74 velocity=64 time=1\n",
      "note_off channel=0 note=83 velocity=64 time=0\n",
      "note_on channel=0 note=75 velocity=30 time=1\n",
      "note_off channel=0 note=76 velocity=64 time=0\n",
      "note_off channel=0 note=82 velocity=64 time=0\n",
      "note_on channel=0 note=83 velocity=37 time=0\n",
      "note_off channel=0 note=96 velocity=64 time=0\n",
      "note_off channel=0 note=48 velocity=64 time=1\n",
      "note_on channel=0 note=52 velocity=66 time=0\n",
      "note_on channel=0 note=72 velocity=63 time=0\n",
      "note_off channel=0 note=73 velocity=64 time=0\n",
      "note_on channel=0 note=91 velocity=34 time=0\n",
      "note_on channel=0 note=45 velocity=66 time=1\n",
      "note_off channel=0 note=52 velocity=64 time=0\n",
      "note_off channel=0 note=45 velocity=64 time=1\n",
      "note_on channel=0 note=48 velocity=65 time=0\n",
      "note_on channel=0 note=61 velocity=22 time=0\n",
      "note_off channel=0 note=72 velocity=64 time=0\n",
      "note_on channel=0 note=73 velocity=75 time=0\n",
      "note_on channel=0 note=81 velocity=36 time=0\n",
      "note_on channel=0 note=100 velocity=30 time=0\n",
      "note_off channel=0 note=48 velocity=64 time=1\n",
      "note_on channel=0 note=54 velocity=59 time=0\n",
      "note_off channel=0 note=87 velocity=64 time=0\n",
      "note_on channel=0 note=45 velocity=61 time=1\n",
      "note_off channel=0 note=65 velocity=64 time=0\n",
      "note_on channel=0 note=77 velocity=33 time=0\n",
      "note_on channel=0 note=87 velocity=43 time=0\n",
      "note_on channel=0 note=53 velocity=67 time=1\n",
      "note_off channel=0 note=54 velocity=64 time=0\n",
      "note_off channel=0 note=61 velocity=64 time=0\n",
      "note_on channel=0 note=61 velocity=24 time=1\n",
      "note_off channel=0 note=77 velocity=64 time=0\n",
      "note_on channel=0 note=44 velocity=52 time=1\n",
      "note_off channel=0 note=45 velocity=64 time=0\n",
      "note_on channel=0 note=72 velocity=71 time=0\n",
      "note_off channel=0 note=73 velocity=64 time=0\n",
      "note_on channel=0 note=90 velocity=35 time=0\n",
      "note_off channel=0 note=53 velocity=64 time=1\n",
      "note_on channel=0 note=54 velocity=66 time=0\n",
      "note_off channel=0 note=72 velocity=64 time=0\n",
      "note_on channel=0 note=73 velocity=72 time=0\n",
      "note_off channel=0 note=93 velocity=64 time=1\n",
      "note_on channel=0 note=94 velocity=53 time=0\n",
      "note_off channel=0 note=100 velocity=64 time=0\n",
      "note_off channel=0 note=81 velocity=64 time=1\n",
      "note_on channel=0 note=82 velocity=37 time=0\n",
      "note_off channel=0 note=83 velocity=64 time=0\n",
      "note_on channel=0 note=43 velocity=34 time=1\n",
      "note_off channel=0 note=44 velocity=64 time=0\n",
      "note_on channel=0 note=77 velocity=32 time=0\n",
      "note_on channel=0 note=100 velocity=26 time=0\n",
      "note_off channel=0 note=77 velocity=64 time=2\n",
      "note_off channel=0 note=90 velocity=64 time=0\n",
      "note_on channel=0 note=98 velocity=9 time=0\n",
      "note_on channel=0 note=65 velocity=42 time=1\n",
      "note_on channel=0 note=53 velocity=70 time=1\n",
      "note_off channel=0 note=54 velocity=64 time=0\n",
      "note_off channel=0 note=61 velocity=64 time=0\n",
      "note_off channel=0 note=94 velocity=64 time=0\n",
      "note_off channel=0 note=43 velocity=64 time=1\n",
      "note_off channel=0 note=100 velocity=64 time=0\n",
      "note_off channel=0 note=65 velocity=64 time=1\n",
      "note_on channel=0 note=66 velocity=11 time=0\n",
      "note_off channel=0 note=98 velocity=64 time=0\n",
      "note_on channel=0 note=61 velocity=16 time=1\n",
      "note_on channel=0 note=71 velocity=18 time=0\n",
      "note_off channel=0 note=82 velocity=64 time=0\n",
      "note_on channel=0 note=83 velocity=35 time=0\n",
      "note_on channel=0 note=48 velocity=47 time=1\n",
      "note_off channel=0 note=53 velocity=64 time=0\n",
      "note_off channel=0 note=66 velocity=64 time=1\n",
      "note_off channel=0 note=48 velocity=64 time=1\n",
      "note_on channel=0 note=51 velocity=62 time=0\n",
      "note_off channel=0 note=61 velocity=64 time=0\n",
      "note_off channel=0 note=91 velocity=64 time=0\n",
      "note_off channel=0 note=71 velocity=64 time=2\n",
      "note_on channel=0 note=50 velocity=66 time=1\n",
      "note_off channel=0 note=51 velocity=64 time=0\n",
      "note_on channel=0 note=63 velocity=56 time=0\n",
      "note_on channel=0 note=70 velocity=32 time=0\n",
      "note_on channel=0 note=102 velocity=36 time=0\n",
      "note_off channel=0 note=50 velocity=64 time=1\n",
      "note_on channel=0 note=76 velocity=45 time=0\n",
      "note_on channel=0 note=84 velocity=43 time=0\n",
      "note_on channel=0 note=11 velocity=15 time=1\n",
      "note_on channel=0 note=46 velocity=70 time=0\n",
      "note_on channel=0 note=61 velocity=56 time=0\n",
      "note_off channel=0 note=63 velocity=64 time=0\n",
      "note_on channel=0 note=69 velocity=43 time=0\n",
      "note_off channel=0 note=70 velocity=64 time=0\n",
      "note_off channel=0 note=75 velocity=64 time=0\n",
      "note_off channel=0 note=85 velocity=64 time=0\n",
      "note_on channel=0 note=91 velocity=30 time=0\n",
      "note_on channel=0 note=95 velocity=41 time=0\n",
      "note_on channel=0 note=98 velocity=26 time=0\n",
      "note_on channel=0 note=45 velocity=76 time=1\n",
      "note_off channel=0 note=46 velocity=64 time=0\n",
      "note_on channel=0 note=67 velocity=45 time=0\n",
      "note_on channel=0 note=75 velocity=43 time=0\n",
      "note_off channel=0 note=76 velocity=64 time=0\n",
      "note_on channel=0 note=44 velocity=77 time=1\n",
      "note_off channel=0 note=45 velocity=64 time=0\n",
      "note_off channel=0 note=61 velocity=64 time=0\n",
      "note_on channel=0 note=63 velocity=53 time=0\n",
      "note_on channel=0 note=77 velocity=40 time=0\n",
      "note_off channel=0 note=11 velocity=64 time=1\n",
      "note_off channel=0 note=69 velocity=64 time=0\n",
      "note_on channel=0 note=71 velocity=46 time=0\n",
      "note_off channel=0 note=84 velocity=64 time=1\n",
      "note_off channel=0 note=95 velocity=64 time=0\n",
      "note_on channel=0 note=100 velocity=20 time=0\n",
      "note_on channel=0 note=43 velocity=73 time=1\n",
      "note_off channel=0 note=44 velocity=64 time=0\n",
      "note_off channel=0 note=67 velocity=64 time=0\n",
      "note_off channel=0 note=63 velocity=64 time=1\n",
      "note_off channel=0 note=73 velocity=64 time=0\n",
      "note_on channel=0 note=63 velocity=53 time=1\n",
      "note_on channel=0 note=70 velocity=50 time=1\n",
      "note_off channel=0 note=71 velocity=64 time=0\n",
      "note_off channel=0 note=89 velocity=64 time=0\n",
      "note_on channel=0 note=90 velocity=9 time=0\n",
      "note_on channel=0 note=51 velocity=42 time=1\n",
      "note_on channel=0 note=89 velocity=46 time=1\n",
      "note_off channel=0 note=51 velocity=64 time=1\n",
      "note_off channel=0 note=43 velocity=64 time=1\n",
      "note_off channel=0 note=83 velocity=64 time=0\n",
      "note_on channel=0 note=51 velocity=63 time=1\n",
      "note_on channel=0 note=83 velocity=19 time=0\n",
      "note_on channel=0 note=96 velocity=13 time=0\n",
      "note_off channel=0 note=100 velocity=64 time=0\n",
      "note_on channel=0 note=73 velocity=16 time=1\n",
      "note_on channel=0 note=97 velocity=26 time=1\n",
      "note_off channel=0 note=98 velocity=64 time=0\n"
     ]
    },
    {
     "name": "stdout",
     "output_type": "stream",
     "text": [
      "note_on channel=0 note=62 velocity=82 time=1\n",
      "note_off channel=0 note=63 velocity=64 time=0\n",
      "note_on channel=0 note=65 velocity=28 time=0\n",
      "note_off channel=0 note=90 velocity=64 time=0\n",
      "note_on channel=0 note=98 velocity=22 time=0\n",
      "note_on channel=0 note=69 velocity=51 time=1\n",
      "note_off channel=0 note=70 velocity=64 time=0\n",
      "note_off channel=0 note=75 velocity=64 time=0\n",
      "note_on channel=0 note=100 velocity=17 time=0\n",
      "note_on channel=0 note=50 velocity=65 time=1\n",
      "note_off channel=0 note=51 velocity=64 time=0\n",
      "note_off channel=0 note=96 velocity=64 time=0\n",
      "note_off channel=0 note=65 velocity=64 time=1\n",
      "note_on channel=0 note=65 velocity=57 time=1\n",
      "note_off channel=0 note=73 velocity=64 time=1\n",
      "note_off channel=0 note=83 velocity=64 time=0\n",
      "note_off channel=0 note=98 velocity=64 time=2\n",
      "note_on channel=0 note=98 velocity=16 time=2\n",
      "note_on channel=0 note=96 velocity=12 time=1\n",
      "note_on channel=0 note=71 velocity=39 time=1\n",
      "note_on channel=0 note=72 velocity=50 time=1\n",
      "note_on channel=0 note=82 velocity=61 time=0\n",
      "note_on channel=0 note=90 velocity=42 time=0\n",
      "note_on channel=0 note=57 velocity=52 time=1\n",
      "note_off channel=0 note=65 velocity=64 time=0\n",
      "note_off channel=0 note=69 velocity=64 time=0\n",
      "note_off channel=0 note=71 velocity=64 time=0\n",
      "note_on channel=0 note=75 velocity=42 time=0\n",
      "note_off channel=0 note=96 velocity=64 time=0\n",
      "note_off channel=0 note=62 velocity=64 time=1\n",
      "note_on channel=0 note=63 velocity=95 time=0\n",
      "note_off channel=0 note=91 velocity=64 time=0\n",
      "note_off channel=0 note=100 velocity=64 time=0\n",
      "note_off channel=0 note=102 velocity=64 time=0\n",
      "note_off channel=0 note=89 velocity=64 time=1\n",
      "note_on channel=0 note=91 velocity=29 time=0\n",
      "note_off channel=0 note=57 velocity=64 time=1\n",
      "note_off channel=0 note=72 velocity=64 time=0\n",
      "note_off channel=0 note=82 velocity=64 time=0\n",
      "note_on channel=0 note=83 velocity=57 time=0\n",
      "note_off channel=0 note=87 velocity=64 time=0\n",
      "note_on channel=0 note=89 velocity=45 time=0\n",
      "note_off channel=0 note=98 velocity=64 time=1\n",
      "note_off channel=0 note=50 velocity=64 time=1\n",
      "note_on channel=0 note=51 velocity=55 time=0\n",
      "note_on channel=0 note=69 velocity=49 time=0\n",
      "note_off channel=0 note=90 velocity=64 time=0\n",
      "note_on channel=0 note=50 velocity=62 time=2\n",
      "note_off channel=0 note=51 velocity=64 time=0\n",
      "note_on channel=0 note=85 velocity=10 time=0\n",
      "note_on channel=0 note=98 velocity=10 time=2\n",
      "note_off channel=0 note=97 velocity=64 time=4\n",
      "note_off channel=0 note=98 velocity=64 time=0\n",
      "note_off channel=0 note=85 velocity=64 time=1\n",
      "note_on channel=0 note=73 velocity=56 time=1\n",
      "note_off channel=0 note=75 velocity=64 time=0\n",
      "note_on channel=0 note=49 velocity=64 time=2\n",
      "note_off channel=0 note=50 velocity=64 time=0\n",
      "note_on channel=0 note=68 velocity=46 time=0\n",
      "note_off channel=0 note=69 velocity=64 time=0\n",
      "note_on channel=0 note=71 velocity=26 time=0\n",
      "note_on channel=0 note=100 velocity=21 time=4\n",
      "note_on channel=0 note=97 velocity=24 time=4\n",
      "note_on channel=0 note=102 velocity=18 time=0\n",
      "note_off channel=0 note=77 velocity=64 time=2\n",
      "note_on channel=0 note=61 velocity=88 time=2\n",
      "note_off channel=0 note=63 velocity=64 time=0\n",
      "note_off channel=0 note=68 velocity=64 time=0\n",
      "note_off channel=0 note=71 velocity=64 time=0\n",
      "note_on channel=0 note=77 velocity=50 time=0\n",
      "note_on channel=0 note=93 velocity=49 time=0\n",
      "note_on channel=0 note=96 velocity=42 time=0\n",
      "note_on channel=0 note=57 velocity=52 time=1\n",
      "note_on channel=0 note=68 velocity=50 time=0\n",
      "note_on channel=0 note=78 velocity=30 time=0\n",
      "note_on channel=0 note=82 velocity=66 time=0\n",
      "note_off channel=0 note=83 velocity=64 time=0\n",
      "note_off channel=0 note=89 velocity=64 time=0\n",
      "note_on channel=0 note=90 velocity=40 time=0\n",
      "note_off channel=0 note=61 velocity=64 time=1\n",
      "note_on channel=0 note=62 velocity=78 time=0\n",
      "note_on channel=0 note=89 velocity=77 time=0\n",
      "note_on channel=0 note=61 velocity=72 time=1\n",
      "note_off channel=0 note=62 velocity=64 time=0\n",
      "note_on channel=0 note=63 velocity=87 time=0\n",
      "note_on channel=0 note=70 velocity=39 time=0\n",
      "note_off channel=0 note=78 velocity=64 time=0\n",
      "note_on channel=0 note=83 velocity=39 time=0\n",
      "note_off channel=0 note=57 velocity=64 time=1\n",
      "note_off channel=0 note=61 velocity=64 time=0\n",
      "note_off channel=0 note=82 velocity=64 time=0\n",
      "note_off channel=0 note=91 velocity=64 time=0\n",
      "note_off channel=0 note=90 velocity=64 time=1\n",
      "note_off channel=0 note=70 velocity=64 time=1\n",
      "note_on channel=0 note=71 velocity=53 time=0\n",
      "note_off channel=0 note=97 velocity=64 time=0\n",
      "note_on channel=0 note=91 velocity=45 time=1\n",
      "note_off channel=0 note=93 velocity=64 time=0\n",
      "note_on channel=0 note=94 velocity=31 time=0\n",
      "note_off channel=0 note=100 velocity=64 time=0\n",
      "note_off channel=0 note=83 velocity=64 time=4\n",
      "note_off channel=0 note=80 velocity=64 time=2\n",
      "note_off channel=0 note=102 velocity=64 time=0\n",
      "note_on channel=0 note=80 velocity=90 time=1\n",
      "note_off channel=0 note=94 velocity=64 time=5\n",
      "note_off channel=0 note=96 velocity=64 time=0\n",
      "note_off channel=0 note=68 velocity=64 time=1\n",
      "note_on channel=0 note=68 velocity=30 time=1\n",
      "note_on channel=0 note=87 velocity=47 time=1\n",
      "note_off channel=0 note=68 velocity=64 time=1\n",
      "note_on channel=0 note=78 velocity=14 time=0\n",
      "note_off channel=0 note=73 velocity=64 time=1\n",
      "note_on channel=0 note=68 velocity=30 time=2\n",
      "note_off channel=0 note=78 velocity=64 time=1\n",
      "note_on channel=0 note=85 velocity=39 time=2\n",
      "note_on channel=0 note=102 velocity=21 time=0\n",
      "note_off channel=0 note=49 velocity=64 time=1\n",
      "note_off channel=0 note=71 velocity=64 time=0\n",
      "note_on channel=0 note=72 velocity=66 time=0\n",
      "note_off channel=0 note=68 velocity=64 time=1\n",
      "note_on channel=0 note=94 velocity=41 time=0\n",
      "note_on channel=0 note=71 velocity=70 time=1\n",
      "note_off channel=0 note=72 velocity=64 time=0\n",
      "note_on channel=0 note=73 velocity=42 time=0\n",
      "note_on channel=0 note=93 velocity=24 time=0\n",
      "note_on channel=0 note=98 velocity=11 time=0\n",
      "note_off channel=0 note=102 velocity=64 time=0\n",
      "note_on channel=0 note=88 velocity=40 time=1\n",
      "note_on channel=0 note=96 velocity=28 time=0\n",
      "note_on channel=0 note=13 velocity=31 time=1\n",
      "note_on channel=0 note=67 velocity=45 time=0\n",
      "note_off channel=0 note=71 velocity=64 time=0\n",
      "note_on channel=0 note=72 velocity=69 time=0\n",
      "note_off channel=0 note=73 velocity=64 time=0\n",
      "note_on channel=0 note=76 velocity=45 time=0\n",
      "note_off channel=0 note=77 velocity=64 time=0\n",
      "note_off channel=0 note=85 velocity=64 time=0\n",
      "note_on channel=0 note=86 velocity=29 time=0\n",
      "note_on channel=0 note=90 velocity=46 time=0\n",
      "note_on channel=0 note=50 velocity=63 time=1\n",
      "note_on channel=0 note=61 velocity=52 time=0\n",
      "note_on channel=0 note=85 velocity=34 time=0\n",
      "note_off channel=0 note=91 velocity=64 time=0\n",
      "note_off channel=0 note=63 velocity=64 time=1\n",
      "note_off channel=0 note=67 velocity=64 time=0\n",
      "note_on channel=0 note=69 velocity=52 time=0\n",
      "note_on channel=0 note=71 velocity=49 time=0\n",
      "note_off channel=0 note=72 velocity=64 time=0\n",
      "note_off channel=0 note=86 velocity=64 time=0\n",
      "note_off channel=0 note=88 velocity=64 time=0\n",
      "note_on channel=0 note=91 velocity=47 time=0\n",
      "note_off channel=0 note=98 velocity=64 time=0\n",
      "note_on channel=0 note=100 velocity=17 time=0\n",
      "note_off channel=0 note=61 velocity=64 time=1\n",
      "note_on channel=0 note=74 velocity=49 time=0\n",
      "note_off channel=0 note=76 velocity=64 time=0\n",
      "note_on channel=0 note=77 velocity=33 time=0\n",
      "note_on channel=0 note=82 velocity=38 time=0\n",
      "note_off channel=0 note=87 velocity=64 time=0\n",
      "note_off channel=0 note=93 velocity=64 time=0\n",
      "note_off channel=0 note=13 velocity=64 time=1\n",
      "note_on channel=0 note=63 velocity=48 time=0\n",
      "note_off channel=0 note=71 velocity=64 time=0\n",
      "note_on channel=0 note=75 velocity=50 time=0\n",
      "note_on channel=0 note=93 velocity=60 time=0\n",
      "note_on channel=0 note=13 velocity=31 time=1\n",
      "note_off channel=0 note=69 velocity=64 time=0\n",
      "note_on channel=0 note=70 velocity=59 time=0\n",
      "note_on channel=0 note=73 velocity=39 time=0\n",
      "note_off channel=0 note=74 velocity=64 time=0\n",
      "note_on channel=0 note=88 velocity=27 time=0\n",
      "note_off channel=0 note=89 velocity=64 time=0\n",
      "note_off channel=0 note=50 velocity=64 time=1\n",
      "note_off channel=0 note=13 velocity=64 time=1\n",
      "note_off channel=0 note=73 velocity=64 time=0\n",
      "note_off channel=0 note=77 velocity=64 time=0\n",
      "note_on channel=0 note=83 velocity=35 time=0\n",
      "note_on channel=0 note=84 velocity=25 time=0\n",
      "note_off channel=0 note=85 velocity=64 time=0\n",
      "note_on channel=0 note=97 velocity=17 time=0\n",
      "note_on channel=0 note=50 velocity=66 time=1\n",
      "note_off channel=0 note=63 velocity=64 time=0\n",
      "note_on channel=0 note=69 velocity=59 time=0\n",
      "note_off channel=0 note=70 velocity=64 time=0\n",
      "note_on channel=0 note=73 velocity=39 time=0\n",
      "note_on channel=0 note=77 velocity=27 time=0\n",
      "note_off channel=0 note=82 velocity=64 time=1\n",
      "note_on channel=0 note=86 velocity=13 time=0\n",
      "note_off channel=0 note=73 velocity=64 time=1\n",
      "note_off channel=0 note=75 velocity=64 time=0\n",
      "note_off channel=0 note=84 velocity=64 time=0\n",
      "note_off channel=0 note=96 velocity=64 time=0\n",
      "note_on channel=0 note=96 velocity=22 time=1\n",
      "note_on channel=0 note=84 velocity=23 time=1\n",
      "note_off channel=0 note=86 velocity=64 time=0\n",
      "note_on channel=0 note=95 velocity=40 time=0\n",
      "note_off channel=0 note=77 velocity=64 time=1\n",
      "note_off channel=0 note=90 velocity=64 time=0\n",
      "note_off channel=0 note=94 velocity=64 time=0\n",
      "note_off channel=0 note=97 velocity=64 time=0\n",
      "note_on channel=0 note=77 velocity=24 time=1\n",
      "note_on channel=0 note=90 velocity=13 time=0\n",
      "note_on channel=0 note=94 velocity=60 time=0\n",
      "note_off channel=0 note=100 velocity=64 time=0\n",
      "note_on channel=0 note=102 velocity=27 time=0\n",
      "note_off channel=0 note=69 velocity=64 time=1\n",
      "note_off channel=0 note=88 velocity=64 time=0\n",
      "note_off channel=0 note=93 velocity=64 time=0\n",
      "note_on channel=0 note=69 velocity=55 time=1\n",
      "note_off channel=0 note=84 velocity=64 time=0\n",
      "note_on channel=0 note=88 velocity=25 time=0\n",
      "note_on channel=0 note=93 velocity=50 time=0\n",
      "note_off channel=0 note=94 velocity=64 time=0\n",
      "note_on channel=0 note=70 velocity=32 time=1\n",
      "note_on channel=0 note=73 velocity=34 time=0\n",
      "note_off channel=0 note=90 velocity=64 time=0\n",
      "note_on channel=0 note=60 velocity=43 time=1\n",
      "note_off channel=0 note=69 velocity=64 time=0\n",
      "note_off channel=0 note=83 velocity=64 time=0\n",
      "note_off channel=0 note=95 velocity=64 time=0\n",
      "note_off channel=0 note=102 velocity=64 time=0\n",
      "note_on channel=0 note=83 velocity=42 time=1\n",
      "note_off channel=0 note=96 velocity=64 time=0\n",
      "note_on channel=0 note=59 velocity=40 time=1\n",
      "note_off channel=0 note=60 velocity=64 time=0\n",
      "note_on channel=0 note=68 velocity=50 time=0\n",
      "note_off channel=0 note=70 velocity=64 time=0\n",
      "note_off channel=0 note=50 velocity=64 time=1\n",
      "note_on channel=0 note=72 velocity=72 time=0\n",
      "note_off channel=0 note=73 velocity=64 time=0\n",
      "note_on channel=0 note=75 velocity=31 time=0\n",
      "note_on channel=0 note=94 velocity=42 time=0\n",
      "note_on channel=0 note=100 velocity=25 time=0\n",
      "note_on channel=0 note=101 velocity=42 time=0\n",
      "note_on channel=0 note=102 velocity=32 time=0\n",
      "note_on channel=0 note=50 velocity=37 time=1\n",
      "note_off channel=0 note=59 velocity=64 time=0\n",
      "note_on channel=0 note=60 velocity=67 time=0\n",
      "note_on channel=0 note=67 velocity=47 time=0\n",
      "note_off channel=0 note=68 velocity=64 time=0\n",
      "note_off channel=0 note=93 velocity=64 time=0\n",
      "note_on channel=0 note=65 velocity=48 time=1\n",
      "note_off channel=0 note=77 velocity=64 time=0\n",
      "note_on channel=0 note=78 velocity=33 time=0\n",
      "note_on channel=0 note=93 velocity=61 time=0\n",
      "note_off channel=0 note=50 velocity=64 time=1\n",
      "note_off channel=0 note=67 velocity=64 time=0\n",
      "note_on channel=0 note=68 velocity=47 time=0\n",
      "note_off channel=0 note=88 velocity=64 time=0\n",
      "note_on channel=0 note=89 velocity=40 time=0\n",
      "note_on channel=0 note=55 velocity=66 time=1\n",
      "note_off channel=0 note=60 velocity=64 time=0\n",
      "note_on channel=0 note=61 velocity=81 time=0\n",
      "note_off channel=0 note=65 velocity=64 time=0\n",
      "note_on channel=0 note=66 velocity=52 time=0\n",
      "note_off channel=0 note=75 velocity=64 time=0\n",
      "note_off channel=0 note=78 velocity=64 time=0\n",
      "note_off channel=0 note=80 velocity=64 time=0\n",
      "note_on channel=0 note=97 velocity=13 time=0\n",
      "note_on channel=0 note=48 velocity=57 time=1\n",
      "note_off channel=0 note=55 velocity=64 time=0\n",
      "note_off channel=0 note=68 velocity=64 time=0\n",
      "note_on channel=0 note=69 velocity=43 time=0\n",
      "note_on channel=0 note=75 velocity=37 time=0\n",
      "note_on channel=0 note=80 velocity=43 time=0\n",
      "note_on channel=0 note=90 velocity=54 time=0\n",
      "note_on channel=0 note=92 velocity=50 time=0\n",
      "note_off channel=0 note=72 velocity=64 time=1\n",
      "note_on channel=0 note=82 velocity=30 time=0\n",
      "note_off channel=0 note=61 velocity=64 time=1\n",
      "note_on channel=0 note=62 velocity=65 time=0\n",
      "note_off channel=0 note=66 velocity=64 time=0\n",
      "note_off channel=0 note=69 velocity=64 time=0\n",
      "note_on channel=0 note=71 velocity=58 time=0\n",
      "note_on channel=0 note=73 velocity=32 time=0\n",
      "note_on channel=0 note=77 velocity=31 time=0\n",
      "note_off channel=0 note=83 velocity=64 time=0\n",
      "note_off channel=0 note=97 velocity=64 time=0\n",
      "note_off channel=0 note=48 velocity=64 time=1\n",
      "note_on channel=0 note=68 velocity=33 time=0\n",
      "note_on channel=0 note=70 velocity=48 time=0\n",
      "note_on channel=0 note=88 velocity=33 time=0\n",
      "note_off channel=0 note=89 velocity=64 time=0\n",
      "note_off channel=0 note=100 velocity=64 time=0\n",
      "note_on channel=0 note=53 velocity=44 time=1\n",
      "note_on channel=0 note=58 velocity=47 time=0\n",
      "note_off channel=0 note=62 velocity=64 time=0\n",
      "note_on channel=0 note=65 velocity=45 time=0\n",
      "note_off channel=0 note=71 velocity=64 time=0\n",
      "note_on channel=0 note=84 velocity=15 time=1\n",
      "note_off channel=0 note=91 velocity=64 time=0\n",
      "note_off channel=0 note=102 velocity=64 time=0\n",
      "note_on channel=0 note=46 velocity=51 time=1\n",
      "note_off channel=0 note=53 velocity=64 time=1\n",
      "note_off channel=0 note=68 velocity=64 time=0\n",
      "note_off channel=0 note=77 velocity=64 time=0\n",
      "note_on channel=0 note=78 velocity=23 time=0\n",
      "note_off channel=0 note=80 velocity=64 time=0\n",
      "note_off channel=0 note=82 velocity=64 time=0\n",
      "note_on channel=0 note=83 velocity=71 time=0\n",
      "note_on channel=0 note=91 velocity=53 time=0\n",
      "note_off channel=0 note=46 velocity=64 time=1\n",
      "note_on channel=0 note=47 velocity=49 time=0\n",
      "note_off channel=0 note=70 velocity=64 time=0\n",
      "note_on channel=0 note=71 velocity=56 time=0\n",
      "note_on channel=0 note=80 velocity=29 time=0\n",
      "note_off channel=0 note=94 velocity=64 time=0\n",
      "note_off channel=0 note=58 velocity=64 time=1\n",
      "note_on channel=0 note=94 velocity=23 time=0\n",
      "note_on channel=0 note=96 velocity=23 time=0\n",
      "note_on channel=0 note=68 velocity=16 time=1\n",
      "note_off channel=0 note=75 velocity=64 time=0\n",
      "note_off channel=0 note=93 velocity=64 time=0\n",
      "note_off channel=0 note=73 velocity=64 time=1\n",
      "note_on channel=0 note=75 velocity=53 time=1\n",
      "note_on channel=0 note=93 velocity=24 time=0\n",
      "note_off channel=0 note=94 velocity=64 time=0\n",
      "note_off channel=0 note=65 velocity=64 time=1\n",
      "note_off channel=0 note=68 velocity=64 time=0\n",
      "note_off channel=0 note=80 velocity=64 time=0\n",
      "note_on channel=0 note=81 velocity=42 time=0\n",
      "note_off channel=0 note=84 velocity=64 time=0\n",
      "note_off channel=0 note=47 velocity=64 time=1\n",
      "note_on channel=0 note=61 velocity=47 time=0\n",
      "note_on channel=0 note=65 velocity=73 time=0\n",
      "note_off channel=0 note=78 velocity=64 time=0\n",
      "note_on channel=0 note=13 velocity=19 time=1\n",
      "note_on channel=0 note=47 velocity=52 time=0\n",
      "note_on channel=0 note=80 velocity=41 time=0\n",
      "note_off channel=0 note=81 velocity=64 time=0\n",
      "note_on channel=0 note=86 velocity=13 time=0\n",
      "note_on channel=0 note=94 velocity=28 time=0\n",
      "note_off channel=0 note=61 velocity=64 time=1\n",
      "note_off channel=0 note=88 velocity=64 time=0\n",
      "note_off channel=0 note=93 velocity=64 time=0\n",
      "note_on channel=0 note=68 velocity=43 time=1\n",
      "note_on channel=0 note=88 velocity=25 time=0\n",
      "note_off channel=0 note=101 velocity=64 time=0\n",
      "note_off channel=0 note=13 velocity=64 time=1\n",
      "note_off channel=0 note=47 velocity=64 time=0\n",
      "note_off channel=0 note=75 velocity=64 time=0\n",
      "note_off channel=0 note=86 velocity=64 time=0\n",
      "note_off channel=0 note=94 velocity=64 time=0\n",
      "note_on channel=0 note=47 velocity=42 time=1\n",
      "note_on channel=0 note=78 velocity=14 time=0\n",
      "note_off channel=0 note=80 velocity=64 time=0\n",
      "note_off channel=0 note=96 velocity=64 time=0\n",
      "note_on channel=0 note=101 velocity=12 time=1\n",
      "note_on channel=0 note=87 velocity=33 time=1\n",
      "note_off channel=0 note=47 velocity=64 time=2\n",
      "note_on channel=0 note=48 velocity=34 time=0\n",
      "note_off channel=0 note=78 velocity=64 time=0\n",
      "note_on channel=0 note=60 velocity=60 time=1\n",
      "note_off channel=0 note=101 velocity=64 time=0\n",
      "note_off channel=0 note=48 velocity=64 time=1\n",
      "note_on channel=0 note=49 velocity=31 time=0\n",
      "note_on channel=0 note=67 velocity=46 time=0\n",
      "note_off channel=0 note=68 velocity=64 time=0\n",
      "note_on channel=0 note=82 velocity=34 time=0\n",
      "note_on channel=0 note=93 velocity=35 time=0\n",
      "note_on channel=0 note=101 velocity=33 time=0\n",
      "note_off channel=0 note=71 velocity=64 time=1\n",
      "note_on channel=0 note=76 velocity=50 time=0\n",
      "note_off channel=0 note=83 velocity=64 time=0\n",
      "note_off channel=0 note=88 velocity=64 time=0\n",
      "note_off channel=0 note=49 velocity=64 time=1\n",
      "note_on channel=0 note=71 velocity=40 time=0\n",
      "note_off channel=0 note=92 velocity=64 time=0\n",
      "note_on channel=0 note=96 velocity=24 time=0\n",
      "note_off channel=0 note=67 velocity=64 time=1\n",
      "note_on channel=0 note=73 velocity=61 time=0\n",
      "note_off channel=0 note=91 velocity=64 time=0\n",
      "note_on channel=0 note=92 velocity=46 time=0\n",
      "note_on channel=0 note=45 velocity=70 time=1\n",
      "note_off channel=0 note=60 velocity=64 time=0\n",
      "note_on channel=0 note=64 velocity=83 time=0\n",
      "note_off channel=0 note=65 velocity=64 time=0\n",
      "note_off channel=0 note=71 velocity=64 time=0\n",
      "note_off channel=0 note=76 velocity=64 time=0\n",
      "note_on channel=0 note=77 velocity=52 time=0\n",
      "note_on channel=0 note=80 velocity=46 time=0\n",
      "note_on channel=0 note=83 velocity=32 time=0\n",
      "note_on channel=0 note=91 velocity=33 time=0\n",
      "note_on channel=0 note=44 velocity=80 time=1\n",
      "note_off channel=0 note=45 velocity=64 time=0\n",
      "note_on channel=0 note=71 velocity=41 time=0\n",
      "note_off channel=0 note=82 velocity=64 time=0\n",
      "note_on channel=0 note=63 velocity=72 time=1\n",
      "note_off channel=0 note=64 velocity=64 time=0\n",
      "note_on channel=0 note=68 velocity=60 time=0\n",
      "note_on channel=0 note=82 velocity=37 time=0\n",
      "note_off channel=0 note=83 velocity=64 time=0\n",
      "note_off channel=0 note=92 velocity=64 time=0\n",
      "note_on channel=0 note=61 velocity=60 time=1\n",
      "note_off channel=0 note=63 velocity=64 time=1\n",
      "note_on channel=0 note=65 velocity=54 time=0\n",
      "note_off channel=0 note=44 velocity=64 time=1\n",
      "note_on channel=0 note=47 velocity=73 time=0\n",
      "note_off channel=0 note=61 velocity=64 time=0\n",
      "note_off channel=0 note=47 velocity=64 time=1\n",
      "note_on channel=0 note=61 velocity=67 time=0\n",
      "note_off channel=0 note=96 velocity=64 time=0\n",
      "note_off channel=0 note=68 velocity=64 time=1\n",
      "note_off channel=0 note=71 velocity=64 time=0\n",
      "note_off channel=0 note=91 velocity=64 time=0\n",
      "note_on channel=0 note=68 velocity=54 time=1\n",
      "note_on channel=0 note=76 velocity=40 time=0\n",
      "note_off channel=0 note=77 velocity=64 time=0\n",
      "note_off channel=0 note=82 velocity=64 time=0\n",
      "note_on channel=0 note=83 velocity=44 time=0\n",
      "note_off channel=0 note=101 velocity=64 time=1\n",
      "note_on channel=0 note=72 velocity=51 time=1\n",
      "note_off channel=0 note=73 velocity=64 time=0\n",
      "note_on channel=0 note=91 velocity=51 time=0\n",
      "note_on channel=0 note=96 velocity=10 time=0\n",
      "note_on channel=0 note=42 velocity=56 time=1\n",
      "note_off channel=0 note=61 velocity=64 time=1\n",
      "note_off channel=0 note=42 velocity=64 time=1\n",
      "note_on channel=0 note=61 velocity=62 time=0\n",
      "note_off channel=0 note=72 velocity=64 time=0\n",
      "note_off channel=0 note=68 velocity=64 time=1\n",
      "note_on channel=0 note=72 velocity=51 time=0\n",
      "note_off channel=0 note=76 velocity=64 time=0\n",
      "note_on channel=0 note=94 velocity=15 time=0\n",
      "note_on channel=0 note=48 velocity=74 time=1\n",
      "note_on channel=0 note=68 velocity=47 time=0\n",
      "note_on channel=0 note=86 velocity=20 time=0\n",
      "note_off channel=0 note=72 velocity=64 time=2\n",
      "note_off channel=0 note=96 velocity=64 time=0\n",
      "note_off channel=0 note=48 velocity=64 time=2\n",
      "note_on channel=0 note=49 velocity=72 time=0\n",
      "note_off channel=0 note=68 velocity=64 time=0\n",
      "note_on channel=0 note=75 velocity=24 time=0\n",
      "note_on channel=0 note=78 velocity=23 time=0\n",
      "note_off channel=0 note=87 velocity=64 time=0\n",
      "note_off channel=0 note=49 velocity=64 time=1\n",
      "note_on channel=0 note=53 velocity=72 time=0\n",
      "note_on channel=0 note=68 velocity=32 time=0\n",
      "note_on channel=0 note=71 velocity=31 time=0\n",
      "note_off channel=0 note=94 velocity=64 time=0\n",
      "note_off channel=0 note=86 velocity=64 time=1\n",
      "note_off channel=0 note=53 velocity=64 time=1\n",
      "note_on channel=0 note=56 velocity=42 time=0\n",
      "note_off channel=0 note=68 velocity=64 time=0\n",
      "note_on channel=0 note=82 velocity=42 time=0\n",
      "note_off channel=0 note=83 velocity=64 time=0\n",
      "note_off channel=0 note=91 velocity=64 time=0\n",
      "note_on channel=0 note=51 velocity=57 time=1\n",
      "note_off channel=0 note=56 velocity=64 time=1\n",
      "note_on channel=0 note=67 velocity=56 time=0\n",
      "note_off channel=0 note=82 velocity=64 time=0\n",
      "note_on channel=0 note=83 velocity=55 time=0\n",
      "note_on channel=0 note=87 velocity=40 time=0\n",
      "note_on channel=0 note=91 velocity=34 time=0\n",
      "note_off channel=0 note=51 velocity=64 time=1\n",
      "note_off channel=0 note=71 velocity=64 time=0\n",
      "note_off channel=0 note=75 velocity=64 time=0\n",
      "note_off channel=0 note=78 velocity=64 time=0\n",
      "note_off channel=0 note=65 velocity=64 time=1\n",
      "note_on channel=0 note=86 velocity=20 time=0\n",
      "note_on channel=0 note=65 velocity=72 time=1\n",
      "note_on channel=0 note=54 velocity=62 time=1\n",
      "note_off channel=0 note=61 velocity=64 time=0\n",
      "note_on channel=0 note=72 velocity=53 time=0\n",
      "note_on channel=0 note=81 velocity=38 time=0\n",
      "note_off channel=0 note=91 velocity=64 time=0\n",
      "note_on channel=0 note=46 velocity=67 time=1\n",
      "note_on channel=0 note=64 velocity=83 time=0\n",
      "note_off channel=0 note=65 velocity=64 time=0\n",
      "note_off channel=0 note=67 velocity=64 time=0\n",
      "note_on channel=0 note=79 velocity=46 time=0\n",
      "note_off channel=0 note=80 velocity=64 time=0\n",
      "note_on channel=0 note=82 velocity=53 time=0\n",
      "note_off channel=0 note=83 velocity=64 time=0\n",
      "note_on channel=0 note=85 velocity=47 time=0\n",
      "note_off channel=0 note=86 velocity=64 time=0\n",
      "note_on channel=0 note=88 velocity=16 time=0\n",
      "note_on channel=0 note=45 velocity=77 time=1\n",
      "note_off channel=0 note=46 velocity=64 time=0\n",
      "note_off channel=0 note=81 velocity=64 time=0\n",
      "note_on channel=0 note=44 velocity=79 time=1\n",
      "note_off channel=0 note=45 velocity=64 time=0\n",
      "note_off channel=0 note=54 velocity=64 time=0\n",
      "note_on channel=0 note=63 velocity=71 time=0\n",
      "note_off channel=0 note=64 velocity=64 time=0\n",
      "note_on channel=0 note=81 velocity=49 time=0\n",
      "note_off channel=0 note=82 velocity=64 time=0\n",
      "note_off channel=0 note=88 velocity=64 time=1\n",
      "note_off channel=0 note=90 velocity=64 time=0\n",
      "note_on channel=0 note=53 velocity=62 time=1\n",
      "note_off channel=0 note=63 velocity=64 time=0\n",
      "note_on channel=0 note=68 velocity=36 time=0\n",
      "note_on channel=0 note=73 velocity=44 time=0\n",
      "note_off channel=0 note=79 velocity=64 time=0\n",
      "note_on channel=0 note=83 velocity=39 time=0\n",
      "note_on channel=0 note=80 velocity=85 time=1\n",
      "note_off channel=0 note=81 velocity=64 time=0\n",
      "note_on channel=0 note=82 velocity=43 time=0\n",
      "note_on channel=0 note=86 velocity=47 time=0\n",
      "note_off channel=0 note=93 velocity=64 time=0\n",
      "note_off channel=0 note=44 velocity=64 time=1\n",
      "note_on channel=0 note=71 velocity=56 time=0\n",
      "note_off channel=0 note=72 velocity=64 time=0\n",
      "note_on channel=0 note=76 velocity=49 time=0\n",
      "note_off channel=0 note=85 velocity=64 time=0\n",
      "note_on channel=0 note=90 velocity=49 time=0\n",
      "note_off channel=0 note=53 velocity=64 time=1\n",
      "note_on channel=0 note=93 velocity=40 time=0\n",
      "note_on channel=0 note=96 velocity=24 time=0\n",
      "note_on channel=0 note=52 velocity=61 time=1\n",
      "note_on channel=0 note=84 velocity=13 time=0\n",
      "note_on channel=0 note=61 velocity=73 time=1\n",
      "note_on channel=0 note=65 velocity=51 time=0\n",
      "note_off channel=0 note=68 velocity=64 time=0\n",
      "note_on channel=0 note=68 velocity=25 time=1\n",
      "note_off channel=0 note=82 velocity=64 time=0\n",
      "note_on channel=0 note=42 velocity=60 time=1\n",
      "note_on channel=0 note=82 velocity=21 time=0\n",
      "note_off channel=0 note=84 velocity=64 time=0\n",
      "note_off channel=0 note=65 velocity=64 time=2\n",
      "note_off channel=0 note=42 velocity=64 time=1\n",
      "note_on channel=0 note=43 velocity=55 time=0\n",
      "note_off channel=0 note=83 velocity=64 time=1\n",
      "note_on channel=0 note=42 velocity=53 time=1\n",
      "note_off channel=0 note=43 velocity=64 time=0\n",
      "note_off channel=0 note=68 velocity=64 time=0\n",
      "note_off channel=0 note=86 velocity=64 time=0\n",
      "note_on channel=0 note=91 velocity=34 time=0\n",
      "note_off channel=0 note=76 velocity=64 time=2\n",
      "note_on channel=0 note=76 velocity=41 time=1\n",
      "note_off channel=0 note=82 velocity=64 time=0\n",
      "note_on channel=0 note=82 velocity=26 time=1\n",
      "note_on channel=0 note=89 velocity=73 time=0\n",
      "note_on channel=0 note=95 velocity=50 time=0\n",
      "note_off channel=0 note=71 velocity=64 time=1\n",
      "note_off channel=0 note=52 velocity=64 time=1\n",
      "note_on channel=0 note=71 velocity=49 time=0\n",
      "note_on channel=0 note=52 velocity=62 time=1\n",
      "note_off channel=0 note=82 velocity=64 time=0\n",
      "note_on channel=0 note=94 velocity=32 time=0\n",
      "note_on channel=0 note=65 velocity=53 time=1\n",
      "note_off channel=0 note=71 velocity=64 time=0\n",
      "note_on channel=0 note=72 velocity=71 time=0\n",
      "note_off channel=0 note=73 velocity=64 time=0\n",
      "note_on channel=0 note=100 velocity=32 time=0\n",
      "note_off channel=0 note=52 velocity=64 time=1\n",
      "note_on channel=0 note=53 velocity=68 time=0\n",
      "note_off channel=0 note=94 velocity=64 time=0\n",
      "note_off channel=0 note=42 velocity=64 time=2\n",
      "note_off channel=0 note=65 velocity=64 time=0\n",
      "note_on channel=0 note=66 velocity=60 time=0\n",
      "note_off channel=0 note=72 velocity=64 time=0\n",
      "note_on channel=0 note=82 velocity=49 time=0\n",
      "note_off channel=0 note=96 velocity=64 time=0\n",
      "note_on channel=0 note=47 velocity=71 time=2\n",
      "note_off channel=0 note=53 velocity=64 time=0\n",
      "note_on channel=0 note=75 velocity=49 time=0\n",
      "note_off channel=0 note=76 velocity=64 time=0\n",
      "note_off channel=0 note=47 velocity=64 time=1\n",
      "note_on channel=0 note=48 velocity=85 time=0\n",
      "note_on channel=0 note=64 velocity=67 time=0\n",
      "note_off channel=0 note=66 velocity=64 time=0\n",
      "note_off channel=0 note=90 velocity=64 time=0\n",
      "note_on channel=0 note=70 velocity=23 time=1\n",
      "note_on channel=0 note=77 velocity=30 time=0\n",
      "note_on channel=0 note=90 velocity=75 time=0\n",
      "note_off channel=0 note=100 velocity=64 time=0\n",
      "note_off channel=0 note=64 velocity=64 time=1\n",
      "note_off channel=0 note=93 velocity=64 time=0\n",
      "note_off channel=0 note=48 velocity=64 time=1\n",
      "note_on channel=0 note=65 velocity=37 time=0\n",
      "note_on channel=0 note=68 velocity=13 time=0\n",
      "note_off channel=0 note=75 velocity=64 time=0\n",
      "note_on channel=0 note=15 velocity=18 time=1\n",
      "note_on channel=0 note=93 velocity=26 time=0\n",
      "note_off channel=0 note=70 velocity=64 time=1\n",
      "note_on channel=0 note=71 velocity=29 time=0\n",
      "note_off channel=0 note=68 velocity=64 time=1\n",
      "note_off channel=0 note=15 velocity=64 time=1\n",
      "note_on channel=0 note=75 velocity=71 time=1\n",
      "note_on channel=0 note=54 velocity=35 time=1\n",
      "note_off channel=0 note=65 velocity=64 time=1\n",
      "note_off channel=0 note=54 velocity=64 time=2\n",
      "note_off channel=0 note=61 velocity=64 time=0\n",
      "note_on channel=0 note=65 velocity=22 time=0\n",
      "note_on channel=0 note=44 velocity=34 time=1\n",
      "note_on channel=0 note=54 velocity=30 time=0\n",
      "note_on channel=0 note=15 velocity=23 time=1\n",
      "note_on channel=0 note=88 velocity=30 time=0\n",
      "note_on channel=0 note=43 velocity=22 time=1\n",
      "note_off channel=0 note=44 velocity=64 time=0\n",
      "note_off channel=0 note=89 velocity=64 time=0\n",
      "note_off channel=0 note=88 velocity=64 time=1\n",
      "note_off channel=0 note=91 velocity=64 time=0\n",
      "note_off channel=0 note=15 velocity=64 time=1\n",
      "note_on channel=0 note=88 velocity=29 time=0\n",
      "note_off channel=0 note=43 velocity=64 time=1\n",
      "note_on channel=0 note=53 velocity=32 time=0\n",
      "note_off channel=0 note=54 velocity=64 time=0\n",
      "note_on channel=0 note=91 velocity=18 time=0\n",
      "note_off channel=0 note=53 velocity=64 time=2\n",
      "note_off channel=0 note=87 velocity=64 time=1\n",
      "note_on channel=0 note=61 velocity=26 time=2\n",
      "note_on channel=0 note=54 velocity=47 time=1\n",
      "note_off channel=0 note=91 velocity=64 time=0\n",
      "note_on channel=0 note=91 velocity=23 time=1\n",
      "note_off channel=0 note=65 velocity=64 time=1\n",
      "note_off channel=0 note=54 velocity=64 time=1\n",
      "note_on channel=0 note=56 velocity=60 time=0\n",
      "note_off channel=0 note=61 velocity=64 time=0\n",
      "note_on channel=0 note=62 velocity=57 time=0\n",
      "note_on channel=0 note=68 velocity=63 time=0\n",
      "note_off channel=0 note=71 velocity=64 time=0\n",
      "note_off channel=0 note=77 velocity=64 time=1\n",
      "note_off channel=0 note=88 velocity=64 time=0\n",
      "note_off channel=0 note=93 velocity=64 time=0\n",
      "note_on channel=0 note=94 velocity=49 time=0\n",
      "note_off channel=0 note=95 velocity=64 time=0\n",
      "note_on channel=0 note=100 velocity=43 time=0\n",
      "note_on channel=0 note=46 velocity=72 time=1\n",
      "note_on channel=0 note=73 velocity=31 time=0\n",
      "note_off channel=0 note=82 velocity=64 time=0\n",
      "note_on channel=0 note=84 velocity=60 time=0\n",
      "note_on channel=0 note=89 velocity=65 time=0\n",
      "note_on channel=0 note=95 velocity=37 time=0\n",
      "note_on channel=0 note=103 velocity=29 time=0\n",
      "note_on channel=0 note=45 velocity=76 time=1\n",
      "note_off channel=0 note=46 velocity=64 time=0\n",
      "note_off channel=0 note=62 velocity=64 time=0\n",
      "note_on channel=0 note=63 velocity=49 time=0\n",
      "note_on channel=0 note=82 velocity=35 time=0\n",
      "note_on channel=0 note=85 velocity=32 time=0\n",
      "note_on channel=0 note=98 velocity=23 time=0\n",
      "note_on channel=0 note=44 velocity=78 time=1\n",
      "note_off channel=0 note=45 velocity=64 time=0\n",
      "note_off channel=0 note=91 velocity=64 time=0\n",
      "note_on channel=0 note=83 velocity=53 time=1\n",
      "note_off channel=0 note=95 velocity=64 time=0\n",
      "note_off channel=0 note=56 velocity=64 time=1\n",
      "note_on channel=0 note=57 velocity=70 time=0\n",
      "note_off channel=0 note=63 velocity=64 time=0\n",
      "note_on channel=0 note=65 velocity=47 time=0\n",
      "note_off channel=0 note=68 velocity=64 time=0\n",
      "note_off channel=0 note=82 velocity=64 time=0\n",
      "note_off channel=0 note=85 velocity=64 time=0\n",
      "note_on channel=0 note=88 velocity=49 time=0\n",
      "note_on channel=0 note=93 velocity=34 time=0\n",
      "note_on channel=0 note=43 velocity=73 time=1\n",
      "note_off channel=0 note=44 velocity=64 time=0\n",
      "note_off channel=0 note=73 velocity=64 time=0\n",
      "note_off channel=0 note=84 velocity=64 time=0\n",
      "note_on channel=0 note=85 velocity=64 time=0\n",
      "note_on channel=0 note=73 velocity=18 time=1\n",
      "note_off channel=0 note=94 velocity=64 time=0\n",
      "note_off channel=0 note=103 velocity=64 time=0\n",
      "note_on channel=0 note=61 velocity=40 time=1\n",
      "note_on channel=0 note=76 velocity=60 time=0\n",
      "note_off channel=0 note=100 velocity=64 time=0\n",
      "note_on channel=0 note=56 velocity=71 time=1\n",
      "note_off channel=0 note=57 velocity=64 time=0\n",
      "note_off channel=0 note=75 velocity=64 time=0\n",
      "note_on channel=0 note=84 velocity=57 time=0\n",
      "note_off channel=0 note=85 velocity=64 time=0\n",
      "note_off channel=0 note=98 velocity=64 time=0\n",
      "note_off channel=0 note=89 velocity=64 time=1\n",
      "note_off channel=0 note=93 velocity=64 time=0\n",
      "note_on channel=0 note=94 velocity=32 time=0\n",
      "note_off channel=0 note=73 velocity=64 time=1\n",
      "note_on channel=0 note=75 velocity=68 time=0\n",
      "note_off channel=0 note=76 velocity=64 time=0\n",
      "note_on channel=0 note=89 velocity=62 time=0\n",
      "note_off channel=0 note=43 velocity=64 time=2\n",
      "note_off channel=0 note=90 velocity=64 time=0\n",
      "note_off channel=0 note=61 velocity=64 time=1\n",
      "note_on channel=0 note=90 velocity=58 time=0\n",
      "note_on channel=0 note=93 velocity=29 time=0\n",
      "note_off channel=0 note=94 velocity=64 time=0\n",
      "note_off channel=0 note=56 velocity=64 time=1\n",
      "note_on channel=0 note=85 velocity=42 time=0\n",
      "note_on channel=0 note=91 velocity=31 time=0\n",
      "note_on channel=0 note=58 velocity=58 time=1\n",
      "note_on channel=0 note=77 velocity=68 time=0\n",
      "note_off channel=0 note=84 velocity=64 time=1\n",
      "note_off channel=0 note=58 velocity=64 time=1\n",
      "note_on channel=0 note=59 velocity=53 time=0\n",
      "note_off channel=0 note=75 velocity=64 time=0\n",
      "note_on channel=0 note=86 velocity=26 time=0\n",
      "note_off channel=0 note=91 velocity=64 time=0\n",
      "note_on channel=0 note=72 velocity=37 time=1\n",
      "note_off channel=0 note=85 velocity=64 time=0\n",
      "note_off channel=0 note=59 velocity=64 time=1\n",
      "note_on channel=0 note=58 velocity=54 time=1\n",
      "note_on channel=0 note=85 velocity=47 time=0\n",
      "note_off channel=0 note=86 velocity=64 time=0\n",
      "note_on channel=0 note=91 velocity=57 time=0\n",
      "note_off channel=0 note=72 velocity=64 time=1\n",
      "note_on channel=0 note=57 velocity=59 time=1\n",
      "note_off channel=0 note=58 velocity=64 time=0\n",
      "note_on channel=0 note=69 velocity=66 time=0\n",
      "note_on channel=0 note=76 velocity=76 time=1\n",
      "note_off channel=0 note=77 velocity=64 time=1\n",
      "note_on channel=0 note=78 velocity=24 time=0\n",
      "note_off channel=0 note=88 velocity=64 time=0\n",
      "note_off channel=0 note=90 velocity=64 time=1\n",
      "note_on channel=0 note=64 velocity=81 time=3\n",
      "note_off channel=0 note=65 velocity=64 time=0\n",
      "note_off channel=0 note=78 velocity=64 time=0\n",
      "note_on channel=0 note=47 velocity=67 time=1\n",
      "note_on channel=0 note=73 velocity=37 time=0\n",
      "note_on channel=0 note=45 velocity=77 time=1\n",
      "note_off channel=0 note=47 velocity=64 time=0\n",
      "note_on channel=0 note=56 velocity=60 time=0\n",
      "note_off channel=0 note=57 velocity=64 time=0\n",
      "note_on channel=0 note=84 velocity=35 time=0\n",
      "note_on channel=0 note=90 velocity=66 time=0\n",
      "note_off channel=0 note=93 velocity=64 time=0\n",
      "note_on channel=0 note=94 velocity=25 time=0\n",
      "note_on channel=0 note=44 velocity=78 time=1\n",
      "note_off channel=0 note=45 velocity=64 time=0\n",
      "note_on channel=0 note=63 velocity=72 time=0\n",
      "note_off channel=0 note=64 velocity=64 time=0\n",
      "note_off channel=0 note=91 velocity=64 time=0\n",
      "note_on channel=0 note=68 velocity=63 time=1\n",
      "note_off channel=0 note=69 velocity=64 time=0\n",
      "note_off channel=0 note=76 velocity=64 time=0\n",
      "note_off channel=0 note=63 velocity=64 time=2\n",
      "note_off channel=0 note=85 velocity=64 time=0\n",
      "note_off channel=0 note=44 velocity=64 time=1\n",
      "note_on channel=0 note=46 velocity=66 time=0\n",
      "note_off channel=0 note=56 velocity=64 time=0\n",
      "note_on channel=0 note=57 velocity=64 time=0\n",
      "note_on channel=0 note=61 velocity=37 time=0\n",
      "note_off channel=0 note=68 velocity=64 time=0\n",
      "note_on channel=0 note=69 velocity=71 time=0\n",
      "note_on channel=0 note=93 velocity=40 time=0\n",
      "note_off channel=0 note=94 velocity=64 time=0\n",
      "note_on channel=0 note=41 velocity=55 time=1\n",
      "note_off channel=0 note=46 velocity=64 time=0\n",
      "note_on channel=0 note=85 velocity=40 time=0\n",
      "note_off channel=0 note=61 velocity=64 time=1\n",
      "note_on channel=0 note=76 velocity=60 time=0\n",
      "note_off channel=0 note=84 velocity=64 time=0\n",
      "note_on channel=0 note=91 velocity=50 time=0\n",
      "note_off channel=0 note=41 velocity=64 time=1\n",
      "note_on channel=0 note=43 velocity=60 time=0\n",
      "note_on channel=0 note=61 velocity=61 time=0\n",
      "note_on channel=0 note=66 velocity=23 time=0\n",
      "note_off channel=0 note=80 velocity=64 time=0\n",
      "note_off channel=0 note=90 velocity=64 time=0\n",
      "note_on channel=0 note=56 velocity=62 time=2\n",
      "note_off channel=0 note=57 velocity=64 time=0\n",
      "note_on channel=0 note=80 velocity=52 time=0\n",
      "note_on channel=0 note=90 velocity=37 time=0\n",
      "note_off channel=0 note=93 velocity=64 time=0\n",
      "note_off channel=0 note=66 velocity=64 time=1\n",
      "note_on channel=0 note=68 velocity=71 time=0\n",
      "note_off channel=0 note=69 velocity=64 time=0\n",
      "note_on channel=0 note=94 velocity=44 time=0\n",
      "note_off channel=0 note=43 velocity=64 time=1\n",
      "note_on channel=0 note=71 velocity=32 time=0\n",
      "note_on channel=0 note=75 velocity=37 time=0\n",
      "note_off channel=0 note=76 velocity=64 time=0\n",
      "note_on channel=0 note=77 velocity=31 time=0\n",
      "note_off channel=0 note=91 velocity=64 time=0\n",
      "note_on channel=0 note=48 velocity=71 time=1\n",
      "note_on channel=0 note=55 velocity=63 time=1\n",
      "note_off channel=0 note=56 velocity=64 time=0\n",
      "note_off channel=0 note=90 velocity=64 time=0\n",
      "note_off channel=0 note=75 velocity=64 time=1\n",
      "note_on channel=0 note=47 velocity=73 time=1\n",
      "note_off channel=0 note=48 velocity=64 time=0\n",
      "note_off channel=0 note=55 velocity=64 time=0\n",
      "note_on channel=0 note=56 velocity=53 time=0\n",
      "note_off channel=0 note=85 velocity=64 time=0\n",
      "note_on channel=0 note=96 velocity=30 time=0\n",
      "note_on channel=0 note=102 velocity=50 time=0\n",
      "note_off channel=0 note=47 velocity=64 time=1\n",
      "note_on channel=0 note=48 velocity=67 time=0\n",
      "note_on channel=0 note=75 velocity=49 time=0\n",
      "note_off channel=0 note=48 velocity=64 time=1\n",
      "note_on channel=0 note=49 velocity=68 time=0\n",
      "note_off channel=0 note=56 velocity=64 time=0\n",
      "note_on channel=0 note=100 velocity=16 time=0\n",
      "note_off channel=0 note=49 velocity=64 time=1\n",
      "note_on channel=0 note=50 velocity=75 time=0\n",
      "note_off channel=0 note=50 velocity=64 time=1\n",
      "note_on channel=0 note=53 velocity=70 time=0\n",
      "note_on channel=0 note=91 velocity=31 time=0\n",
      "note_off channel=0 note=53 velocity=64 time=1\n",
      "note_on channel=0 note=50 velocity=53 time=1\n",
      "note_on channel=0 note=55 velocity=46 time=0\n",
      "note_off channel=0 note=100 velocity=64 time=0\n",
      "note_off channel=0 note=68 velocity=64 time=1\n",
      "note_off channel=0 note=94 velocity=64 time=0\n",
      "note_off channel=0 note=50 velocity=64 time=1\n",
      "note_off channel=0 note=55 velocity=64 time=0\n",
      "note_off channel=0 note=89 velocity=64 time=0\n",
      "note_off channel=0 note=102 velocity=64 time=0\n",
      "note_on channel=0 note=55 velocity=68 time=1\n",
      "note_on channel=0 note=66 velocity=47 time=0\n",
      "note_off channel=0 note=55 velocity=64 time=1\n",
      "note_off channel=0 note=73 velocity=64 time=1\n",
      "note_on channel=0 note=55 velocity=65 time=1\n",
      "note_off channel=0 note=61 velocity=64 time=0\n",
      "note_on channel=0 note=64 velocity=82 time=0\n",
      "note_off channel=0 note=66 velocity=64 time=0\n",
      "note_off channel=0 note=71 velocity=64 time=0\n",
      "note_on channel=0 note=73 velocity=49 time=0\n",
      "note_off channel=0 note=75 velocity=64 time=0\n",
      "note_off channel=0 note=77 velocity=64 time=0\n",
      "note_on channel=0 note=90 velocity=35 time=0\n",
      "note_off channel=0 note=96 velocity=64 time=0\n",
      "note_on channel=0 note=45 velocity=77 time=1\n",
      "note_on channel=0 note=68 velocity=75 time=0\n",
      "note_on channel=0 note=77 velocity=32 time=0\n",
      "note_off channel=0 note=80 velocity=64 time=0\n",
      "note_on channel=0 note=102 velocity=49 time=0\n",
      "note_on channel=0 note=103 velocity=33 time=0\n",
      "note_on channel=0 note=80 velocity=82 time=1\n",
      "note_on channel=0 note=97 velocity=30 time=0\n",
      "note_on channel=0 note=100 velocity=32 time=0\n",
      "note_on channel=0 note=44 velocity=78 time=1\n",
      "note_off channel=0 note=45 velocity=64 time=0\n",
      "note_off channel=0 note=55 velocity=64 time=0\n",
      "note_on channel=0 note=63 velocity=68 time=0\n",
      "note_off channel=0 note=77 velocity=64 time=0\n",
      "note_off channel=0 note=90 velocity=64 time=0\n",
      "note_on channel=0 note=96 velocity=28 time=0\n",
      "note_off channel=0 note=64 velocity=64 time=1\n",
      "note_on channel=0 note=71 velocity=46 time=0\n",
      "note_on channel=0 note=77 velocity=25 time=0\n",
      "note_off channel=0 note=44 velocity=64 time=1\n",
      "note_on channel=0 note=45 velocity=77 time=0\n",
      "note_on channel=0 note=61 velocity=59 time=0\n",
      "note_off channel=0 note=97 velocity=64 time=0\n",
      "note_on channel=0 note=98 velocity=41 time=0\n",
      "note_off channel=0 note=63 velocity=64 time=1\n",
      "note_on channel=0 note=89 velocity=69 time=0\n",
      "note_off channel=0 note=100 velocity=64 time=0\n",
      "note_on channel=0 note=44 velocity=71 time=2\n",
      "note_off channel=0 note=45 velocity=64 time=0\n",
      "note_on channel=0 note=75 velocity=25 time=1\n",
      "note_off channel=0 note=44 velocity=64 time=1\n",
      "note_on channel=0 note=43 velocity=62 time=2\n",
      "note_off channel=0 note=96 velocity=64 time=0\n",
      "note_on channel=0 note=100 velocity=48 time=0\n",
      "note_off channel=0 note=43 velocity=64 time=2\n",
      "note_off channel=0 note=73 velocity=64 time=0\n",
      "note_on channel=0 note=48 velocity=66 time=1\n",
      "note_on channel=0 note=56 velocity=42 time=1\n",
      "note_on channel=0 note=47 velocity=72 time=1\n",
      "note_off channel=0 note=48 velocity=64 time=0\n",
      "note_off channel=0 note=83 velocity=64 time=0\n",
      "note_off channel=0 note=47 velocity=64 time=2\n",
      "note_on channel=0 note=48 velocity=67 time=0\n",
      "note_off channel=0 note=56 velocity=64 time=0\n",
      "note_off channel=0 note=98 velocity=64 time=0\n",
      "note_off channel=0 note=48 velocity=64 time=1\n",
      "note_on channel=0 note=50 velocity=76 time=0\n",
      "note_on channel=0 note=97 velocity=28 time=0\n",
      "note_off channel=0 note=50 velocity=64 time=1\n",
      "note_on channel=0 note=53 velocity=74 time=0\n",
      "note_off channel=0 note=75 velocity=64 time=0\n",
      "note_on channel=0 note=96 velocity=24 time=0\n",
      "note_off channel=0 note=53 velocity=64 time=1\n",
      "note_on channel=0 note=54 velocity=65 time=0\n",
      "note_off channel=0 note=77 velocity=64 time=0\n",
      "note_off channel=0 note=54 velocity=64 time=1\n",
      "note_off channel=0 note=61 velocity=64 time=0\n",
      "note_on channel=0 note=53 velocity=60 time=2\n",
      "note_on channel=0 note=61 velocity=16 time=0\n",
      "note_on channel=0 note=75 velocity=50 time=1\n",
      "note_off channel=0 note=53 velocity=64 time=2\n",
      "note_on channel=0 note=55 velocity=54 time=0\n",
      "note_off channel=0 note=61 velocity=64 time=1\n",
      "note_on channel=0 note=84 velocity=26 time=0\n",
      "note_on channel=0 note=48 velocity=88 time=1\n",
      "note_off channel=0 note=55 velocity=64 time=0\n",
      "note_on channel=0 note=64 velocity=58 time=0\n",
      "note_on channel=0 note=82 velocity=39 time=0\n",
      "note_on channel=0 note=95 velocity=36 time=0\n",
      "note_on channel=0 note=56 velocity=43 time=1\n",
      "note_on channel=0 note=90 velocity=12 time=0\n",
      "note_on channel=0 note=63 velocity=50 time=1\n",
      "note_off channel=0 note=64 velocity=64 time=0\n",
      "note_off channel=0 note=82 velocity=64 time=0\n",
      "note_on channel=0 note=94 velocity=12 time=0\n",
      "note_off channel=0 note=95 velocity=64 time=0\n",
      "note_on channel=0 note=46 velocity=66 time=1\n",
      "note_off channel=0 note=48 velocity=64 time=0\n",
      "note_on channel=0 note=77 velocity=24 time=0\n",
      "note_off channel=0 note=63 velocity=64 time=1\n",
      "note_on channel=0 note=65 velocity=40 time=0\n",
      "note_off channel=0 note=71 velocity=64 time=0\n",
      "note_off channel=0 note=75 velocity=64 time=0\n",
      "note_off channel=0 note=97 velocity=64 time=0\n",
      "note_on channel=0 note=98 velocity=30 time=0\n",
      "note_off channel=0 note=46 velocity=64 time=1\n",
      "note_on channel=0 note=48 velocity=67 time=0\n",
      "note_on channel=0 note=75 velocity=18 time=0\n",
      "note_off channel=0 note=90 velocity=64 time=0\n",
      "note_off channel=0 note=96 velocity=64 time=0\n",
      "note_off channel=0 note=48 velocity=64 time=1\n",
      "note_on channel=0 note=71 velocity=46 time=0\n",
      "note_off channel=0 note=56 velocity=64 time=1\n",
      "note_off channel=0 note=94 velocity=64 time=0\n",
      "note_on channel=0 note=56 velocity=45 time=1\n",
      "note_on channel=0 note=90 velocity=11 time=0\n",
      "note_off channel=0 note=89 velocity=64 time=1\n",
      "note_off channel=0 note=100 velocity=64 time=0\n",
      "note_off channel=0 note=103 velocity=64 time=0\n",
      "note_on channel=0 note=44 velocity=53 time=1\n",
      "note_on channel=0 note=61 velocity=12 time=0\n",
      "note_on channel=0 note=100 velocity=41 time=0\n",
      "note_off channel=0 note=56 velocity=64 time=2\n",
      "note_off channel=0 note=61 velocity=64 time=2\n",
      "note_off channel=0 note=84 velocity=64 time=0\n",
      "note_on channel=0 note=101 velocity=20 time=0\n",
      "note_on channel=0 note=43 velocity=33 time=1\n",
      "note_off channel=0 note=44 velocity=64 time=0\n",
      "note_on channel=0 note=55 velocity=67 time=0\n",
      "note_off channel=0 note=75 velocity=64 time=0\n",
      "note_off channel=0 note=90 velocity=64 time=0\n",
      "note_off channel=0 note=65 velocity=64 time=1\n",
      "note_off channel=0 note=68 velocity=64 time=0\n",
      "note_off channel=0 note=98 velocity=64 time=0\n",
      "note_off channel=0 note=102 velocity=64 time=0\n",
      "note_off channel=0 note=43 velocity=64 time=1\n",
      "note_on channel=0 note=73 velocity=36 time=0\n",
      "note_on channel=0 note=43 velocity=27 time=1\n",
      "note_on channel=0 note=97 velocity=13 time=0\n",
      "note_on channel=0 note=54 velocity=55 time=1\n",
      "note_off channel=0 note=55 velocity=64 time=0\n",
      "note_on channel=0 note=66 velocity=62 time=0\n",
      "note_off channel=0 note=43 velocity=64 time=2\n",
      "note_off channel=0 note=97 velocity=64 time=0\n",
      "note_off channel=0 note=66 velocity=64 time=1\n",
      "note_on channel=0 note=68 velocity=37 time=0\n",
      "note_off channel=0 note=77 velocity=64 time=0\n",
      "note_off channel=0 note=101 velocity=64 time=0\n",
      "note_on channel=0 note=53 velocity=66 time=1\n",
      "note_off channel=0 note=54 velocity=64 time=0\n",
      "note_off channel=0 note=73 velocity=64 time=0\n",
      "note_off channel=0 note=100 velocity=64 time=0\n",
      "note_on channel=0 note=52 velocity=65 time=2\n",
      "note_off channel=0 note=53 velocity=64 time=0\n",
      "note_on channel=0 note=63 velocity=43 time=0\n",
      "note_off channel=0 note=68 velocity=64 time=0\n",
      "note_on channel=0 note=100 velocity=16 time=0\n",
      "note_on channel=0 note=51 velocity=57 time=1\n",
      "note_off channel=0 note=52 velocity=64 time=0\n",
      "note_on channel=0 note=70 velocity=58 time=0\n",
      "note_off channel=0 note=71 velocity=64 time=0\n",
      "note_on channel=0 note=73 velocity=28 time=0\n",
      "note_off channel=0 note=63 velocity=64 time=1\n",
      "note_on channel=0 note=75 velocity=48 time=0\n",
      "note_on channel=0 note=97 velocity=10 time=0\n",
      "note_off channel=0 note=51 velocity=64 time=1\n",
      "note_on channel=0 note=84 velocity=43 time=0\n",
      "note_on channel=0 note=89 velocity=69 time=0\n",
      "note_on channel=0 note=102 velocity=18 time=0\n",
      "note_on channel=0 note=65 velocity=56 time=1\n",
      "note_on channel=0 note=45 velocity=74 time=1\n",
      "note_off channel=0 note=73 velocity=64 time=0\n",
      "note_on channel=0 note=78 velocity=33 time=0\n",
      "note_on channel=0 note=85 velocity=34 time=0\n",
      "note_on channel=0 note=44 velocity=77 time=1\n",
      "note_off channel=0 note=45 velocity=64 time=0\n",
      "note_on channel=0 note=64 velocity=59 time=0\n",
      "note_off channel=0 note=65 velocity=64 time=0\n",
      "note_on channel=0 note=68 velocity=47 time=0\n",
      "note_off channel=0 note=70 velocity=64 time=0\n",
      "note_on channel=0 note=71 velocity=54 time=0\n",
      "note_off channel=0 note=100 velocity=64 time=0\n",
      "note_off channel=0 note=102 velocity=64 time=0\n",
      "note_on channel=0 note=63 velocity=52 time=1\n",
      "note_on channel=0 note=77 velocity=18 time=0\n",
      "note_off channel=0 note=78 velocity=64 time=0\n",
      "note_off channel=0 note=64 velocity=64 time=1\n",
      "note_on channel=0 note=70 velocity=51 time=0\n",
      "note_off channel=0 note=71 velocity=64 time=0\n",
      "note_off channel=0 note=84 velocity=64 time=0\n",
      "note_on channel=0 note=43 velocity=74 time=1\n",
      "note_off channel=0 note=44 velocity=64 time=0\n",
      "note_on channel=0 note=62 velocity=51 time=0\n",
      "note_off channel=0 note=63 velocity=64 time=0\n",
      "note_on channel=0 note=65 velocity=39 time=0\n",
      "note_on channel=0 note=73 velocity=45 time=0\n",
      "note_off channel=0 note=97 velocity=64 time=0\n",
      "note_off channel=0 note=68 velocity=64 time=1\n",
      "note_on channel=0 note=69 velocity=53 time=0\n",
      "note_off channel=0 note=70 velocity=64 time=0\n",
      "note_on channel=0 note=50 velocity=70 time=1\n",
      "note_off channel=0 note=77 velocity=64 time=0\n",
      "note_on channel=0 note=78 velocity=18 time=0\n",
      "note_off channel=0 note=43 velocity=64 time=1\n",
      "note_on channel=0 note=71 velocity=39 time=0\n",
      "note_on channel=0 note=88 velocity=22 time=0\n",
      "note_off channel=0 note=89 velocity=64 time=1\n",
      "note_off channel=0 note=78 velocity=64 time=1\n",
      "note_on channel=0 note=90 velocity=16 time=0\n",
      "note_off channel=0 note=62 velocity=64 time=2\n",
      "note_off channel=0 note=69 velocity=64 time=0\n",
      "note_on channel=0 note=70 velocity=52 time=0\n",
      "note_off channel=0 note=71 velocity=64 time=0\n",
      "note_on channel=0 note=78 velocity=17 time=0\n",
      "note_off channel=0 note=85 velocity=64 time=0\n",
      "note_off channel=0 note=65 velocity=64 time=1\n",
      "note_off channel=0 note=75 velocity=64 time=0\n",
      "note_off channel=0 note=50 velocity=64 time=1\n",
      "note_on channel=0 note=63 velocity=50 time=0\n",
      "note_on channel=0 note=68 velocity=29 time=0\n",
      "note_on channel=0 note=52 velocity=44 time=1\n",
      "note_off channel=0 note=63 velocity=64 time=1\n",
      "note_off channel=0 note=52 velocity=64 time=1\n",
      "note_off channel=0 note=70 velocity=64 time=0\n",
      "note_on channel=0 note=71 velocity=49 time=0\n",
      "note_on channel=0 note=98 velocity=12 time=0\n",
      "note_on channel=0 note=52 velocity=52 time=1\n",
      "note_on channel=0 note=64 velocity=54 time=0\n",
      "note_on channel=0 note=96 velocity=15 time=1\n",
      "note_on channel=0 note=63 velocity=52 time=1\n",
      "note_off channel=0 note=64 velocity=64 time=0\n",
      "note_off channel=0 note=78 velocity=64 time=0\n",
      "note_off channel=0 note=88 velocity=64 time=0\n",
      "note_on channel=0 note=89 velocity=40 time=0\n",
      "note_on channel=0 note=78 velocity=16 time=1\n",
      "note_off channel=0 note=63 velocity=64 time=1\n",
      "note_on channel=0 note=64 velocity=54 time=0\n",
      "note_on channel=0 note=77 velocity=16 time=1\n",
      "note_off channel=0 note=64 velocity=64 time=1\n",
      "note_off channel=0 note=96 velocity=64 time=0\n",
      "note_off channel=0 note=98 velocity=64 time=0\n",
      "note_on channel=0 note=64 velocity=54 time=1\n",
      "note_off channel=0 note=78 velocity=64 time=0\n",
      "note_off channel=0 note=80 velocity=64 time=0\n",
      "note_off channel=0 note=52 velocity=64 time=2\n",
      "note_off channel=0 note=64 velocity=64 time=0\n",
      "note_on channel=0 note=65 velocity=68 time=0\n",
      "note_off channel=0 note=77 velocity=64 time=0\n",
      "note_off channel=0 note=90 velocity=64 time=0\n",
      "note_on channel=0 note=52 velocity=60 time=1\n",
      "note_off channel=0 note=71 velocity=64 time=0\n",
      "note_on channel=0 note=87 velocity=24 time=0\n",
      "note_on channel=0 note=63 velocity=71 time=1\n",
      "note_off channel=0 note=68 velocity=64 time=0\n",
      "note_on channel=0 note=80 velocity=44 time=0\n",
      "note_on channel=0 note=90 velocity=35 time=0\n",
      "note_on channel=0 note=45 velocity=78 time=1\n",
      "note_off channel=0 note=63 velocity=64 time=0\n",
      "note_on channel=0 note=64 velocity=83 time=0\n",
      "note_off channel=0 note=65 velocity=64 time=0\n",
      "note_on channel=0 note=67 velocity=61 time=0\n",
      "note_on channel=0 note=84 velocity=19 time=0\n",
      "note_off channel=0 note=52 velocity=64 time=1\n",
      "note_on channel=0 note=44 velocity=79 time=1\n",
      "note_off channel=0 note=45 velocity=64 time=0\n",
      "note_on channel=0 note=63 velocity=70 time=0\n",
      "note_off channel=0 note=64 velocity=64 time=0\n",
      "note_off channel=0 note=67 velocity=64 time=0\n",
      "note_on channel=0 note=69 velocity=31 time=0\n",
      "note_off channel=0 note=90 velocity=64 time=1\n",
      "note_off channel=0 note=63 velocity=64 time=1\n",
      "note_off channel=0 note=69 velocity=64 time=0\n",
      "note_on channel=0 note=77 velocity=25 time=0\n",
      "note_off channel=0 note=84 velocity=64 time=0\n",
      "note_on channel=0 note=65 velocity=55 time=1\n",
      "note_off channel=0 note=44 velocity=64 time=1\n",
      "note_on channel=0 note=56 velocity=13 time=0\n",
      "note_on channel=0 note=82 velocity=31 time=0\n",
      "note_on channel=0 note=43 velocity=60 time=2\n",
      "note_off channel=0 note=56 velocity=64 time=1\n",
      "note_on channel=0 note=62 velocity=50 time=0\n",
      "note_on channel=0 note=90 velocity=32 time=1\n",
      "note_off channel=0 note=91 velocity=64 time=0\n",
      "note_on channel=0 note=42 velocity=55 time=1\n",
      "note_off channel=0 note=43 velocity=64 time=0\n",
      "note_on channel=0 note=61 velocity=62 time=0\n",
      "note_off channel=0 note=62 velocity=64 time=0\n",
      "note_on channel=0 note=84 velocity=17 time=1\n",
      "note_off channel=0 note=87 velocity=64 time=0\n",
      "note_on channel=0 note=91 velocity=29 time=0\n",
      "note_off channel=0 note=42 velocity=64 time=1\n",
      "note_on channel=0 note=74 velocity=29 time=0\n",
      "note_off channel=0 note=73 velocity=64 time=1\n",
      "note_on channel=0 note=48 velocity=66 time=1\n",
      "note_on channel=0 note=68 velocity=30 time=0\n",
      "note_off channel=0 note=74 velocity=64 time=0\n",
      "note_on channel=0 note=47 velocity=71 time=1\n",
      "note_off channel=0 note=48 velocity=64 time=0\n",
      "note_off channel=0 note=47 velocity=64 time=1\n",
      "note_on channel=0 note=48 velocity=72 time=0\n",
      "note_on channel=0 note=71 velocity=21 time=0\n",
      "note_off channel=0 note=82 velocity=64 time=0\n",
      "note_on channel=0 note=83 velocity=55 time=0\n",
      "note_on channel=0 note=87 velocity=43 time=0\n",
      "note_off channel=0 note=61 velocity=64 time=1\n",
      "note_off channel=0 note=48 velocity=64 time=1\n",
      "note_on channel=0 note=50 velocity=78 time=0\n",
      "note_off channel=0 note=50 velocity=64 time=1\n",
      "note_on channel=0 note=52 velocity=74 time=0\n",
      "note_off channel=0 note=91 velocity=64 time=0\n",
      "note_off channel=0 note=52 velocity=64 time=1\n",
      "note_on channel=0 note=53 velocity=64 time=0\n",
      "note_on channel=0 note=61 velocity=32 time=0\n",
      "note_off channel=0 note=89 velocity=64 time=0\n",
      "note_on channel=0 note=78 velocity=22 time=1\n",
      "note_off channel=0 note=53 velocity=64 time=1\n",
      "note_on channel=0 note=88 velocity=38 time=0\n",
      "note_on channel=0 note=53 velocity=58 time=1\n",
      "note_off channel=0 note=77 velocity=64 time=0\n",
      "note_on channel=0 note=91 velocity=29 time=2\n",
      "note_off channel=0 note=53 velocity=64 time=1\n",
      "note_on channel=0 note=54 velocity=54 time=0\n",
      "note_off channel=0 note=61 velocity=64 time=1\n",
      "note_off channel=0 note=65 velocity=64 time=0\n",
      "note_off channel=0 note=68 velocity=64 time=0\n",
      "note_off channel=0 note=71 velocity=64 time=0\n",
      "note_on channel=0 note=74 velocity=33 time=0\n",
      "note_off channel=0 note=84 velocity=64 time=0\n",
      "note_on channel=0 note=93 velocity=33 time=0\n",
      "note_on channel=0 note=94 velocity=49 time=0\n",
      "note_on channel=0 note=48 velocity=68 time=1\n",
      "note_off channel=0 note=54 velocity=64 time=0\n",
      "note_on channel=0 note=64 velocity=81 time=0\n",
      "note_on channel=0 note=77 velocity=36 time=0\n",
      "note_off channel=0 note=78 velocity=64 time=0\n",
      "note_on channel=0 note=79 velocity=41 time=0\n",
      "note_off channel=0 note=80 velocity=64 time=0\n",
      "note_off channel=0 note=88 velocity=64 time=0\n",
      "note_on channel=0 note=89 velocity=49 time=0\n",
      "note_off channel=0 note=90 velocity=64 time=0\n",
      "note_on channel=0 note=96 velocity=50 time=0\n",
      "note_on channel=0 note=45 velocity=77 time=1\n",
      "note_off channel=0 note=48 velocity=64 time=0\n",
      "note_on channel=0 note=70 velocity=42 time=0\n",
      "note_on channel=0 note=73 velocity=38 time=0\n",
      "note_on channel=0 note=80 velocity=38 time=0\n",
      "note_on channel=0 note=84 velocity=18 time=0\n",
      "note_on channel=0 note=44 velocity=79 time=1\n",
      "note_off channel=0 note=45 velocity=64 time=0\n",
      "note_off channel=0 note=74 velocity=64 time=0\n",
      "note_on channel=0 note=78 velocity=21 time=0\n",
      "note_off channel=0 note=79 velocity=64 time=0\n",
      "note_on channel=0 note=86 velocity=11 time=0\n",
      "note_on channel=0 note=90 velocity=36 time=0\n",
      "note_on channel=0 note=100 velocity=33 time=0\n",
      "note_on channel=0 note=63 velocity=67 time=1\n",
      "note_off channel=0 note=64 velocity=64 time=0\n",
      "note_on channel=0 note=97 velocity=34 time=0\n",
      "note_off channel=0 note=63 velocity=64 time=1\n",
      "note_on channel=0 note=64 velocity=65 time=0\n",
      "note_on channel=0 note=68 velocity=29 time=0\n",
      "note_off channel=0 note=77 velocity=64 time=0\n",
      "note_off channel=0 note=70 velocity=64 time=1\n",
      "note_on channel=0 note=71 velocity=43 time=0\n",
      "note_off channel=0 note=84 velocity=64 time=0\n",
      "note_off channel=0 note=86 velocity=64 time=0\n",
      "note_off channel=0 note=94 velocity=64 time=0\n",
      "note_off channel=0 note=44 velocity=64 time=1\n",
      "note_on channel=0 note=52 velocity=72 time=0\n",
      "note_on channel=0 note=75 velocity=20 time=0\n",
      "note_on channel=0 note=86 velocity=13 time=0\n",
      "note_off channel=0 note=93 velocity=64 time=0\n",
      "note_on channel=0 note=94 velocity=15 time=0\n",
      "note_on channel=0 note=98 velocity=28 time=0\n",
      "note_off channel=0 note=68 velocity=64 time=1\n",
      "note_on channel=0 note=77 velocity=21 time=1\n",
      "note_on channel=0 note=43 velocity=63 time=1\n",
      "note_on channel=0 note=61 velocity=60 time=0\n",
      "note_off channel=0 note=64 velocity=64 time=0\n",
      "note_off channel=0 note=71 velocity=64 time=0\n",
      "note_on channel=0 note=72 velocity=49 time=0\n",
      "note_off channel=0 note=73 velocity=64 time=0\n",
      "note_off channel=0 note=78 velocity=64 time=0\n",
      "note_on channel=0 note=93 velocity=43 time=0\n",
      "note_off channel=0 note=52 velocity=64 time=1\n",
      "note_on channel=0 note=53 velocity=69 time=0\n",
      "note_on channel=0 note=67 velocity=66 time=0\n",
      "note_on channel=0 note=42 velocity=57 time=1\n",
      "note_off channel=0 note=43 velocity=64 time=0\n",
      "note_off channel=0 note=53 velocity=64 time=0\n",
      "note_off channel=0 note=86 velocity=64 time=0\n",
      "note_off channel=0 note=67 velocity=64 time=1\n",
      "note_on channel=0 note=68 velocity=69 time=0\n",
      "note_off channel=0 note=72 velocity=64 time=0\n",
      "note_off channel=0 note=94 velocity=64 time=0\n",
      "note_on channel=0 note=57 velocity=67 time=1\n",
      "note_off channel=0 note=68 velocity=64 time=0\n",
      "note_on channel=0 note=69 velocity=73 time=0\n",
      "note_off channel=0 note=97 velocity=64 time=0\n",
      "note_off channel=0 note=42 velocity=64 time=1\n",
      "note_on channel=0 note=76 velocity=23 time=0\n",
      "note_off channel=0 note=77 velocity=64 time=0\n",
      "note_off channel=0 note=80 velocity=64 time=0\n",
      "note_off channel=0 note=75 velocity=64 time=1\n",
      "note_off channel=0 note=96 velocity=64 time=0\n",
      "note_on channel=0 note=47 velocity=74 time=1\n",
      "note_on channel=0 note=75 velocity=26 time=0\n",
      "note_on channel=0 note=80 velocity=84 time=0\n",
      "note_on channel=0 note=82 velocity=25 time=0\n",
      "note_on channel=0 note=56 velocity=66 time=1\n",
      "note_off channel=0 note=57 velocity=64 time=0\n",
      "note_on channel=0 note=68 velocity=71 time=0\n",
      "note_off channel=0 note=69 velocity=64 time=0\n",
      "note_off channel=0 note=76 velocity=64 time=0\n",
      "note_off channel=0 note=83 velocity=64 time=0\n",
      "note_on channel=0 note=84 velocity=28 time=0\n",
      "note_off channel=0 note=98 velocity=64 time=0\n",
      "note_off channel=0 note=100 velocity=64 time=0\n",
      "note_off channel=0 note=47 velocity=64 time=1\n",
      "note_on channel=0 note=48 velocity=72 time=0\n",
      "note_on channel=0 note=55 velocity=70 time=0\n",
      "note_off channel=0 note=56 velocity=64 time=0\n",
      "note_off channel=0 note=68 velocity=64 time=0\n",
      "note_on channel=0 note=78 velocity=18 time=0\n",
      "note_on channel=0 note=102 velocity=41 time=0\n",
      "note_off channel=0 note=48 velocity=64 time=1\n",
      "note_on channel=0 note=49 velocity=77 time=0\n",
      "note_off channel=0 note=55 velocity=64 time=0\n",
      "note_on channel=0 note=97 velocity=27 time=0\n",
      "note_on channel=0 note=98 velocity=22 time=0\n",
      "note_on channel=0 note=100 velocity=13 time=0\n",
      "note_off channel=0 note=49 velocity=64 time=1\n",
      "note_on channel=0 note=52 velocity=71 time=0\n",
      "note_on channel=0 note=66 velocity=63 time=0\n",
      "note_on channel=0 note=49 velocity=53 time=1\n",
      "note_off channel=0 note=52 velocity=64 time=0\n",
      "note_on channel=0 note=83 velocity=27 time=1\n",
      "note_off channel=0 note=100 velocity=64 time=0\n",
      "note_off channel=0 note=49 velocity=64 time=1\n",
      "note_off channel=0 note=61 velocity=64 time=0\n",
      "note_on channel=0 note=71 velocity=36 time=0\n",
      "note_on channel=0 note=77 velocity=24 time=1\n",
      "note_off channel=0 note=82 velocity=64 time=0\n",
      "note_on channel=0 note=100 velocity=24 time=0\n",
      "note_off channel=0 note=78 velocity=64 time=1\n",
      "note_on channel=0 note=82 velocity=28 time=0\n",
      "note_off channel=0 note=83 velocity=64 time=1\n",
      "note_off channel=0 note=102 velocity=64 time=0\n",
      "note_off channel=0 note=91 velocity=64 time=1\n",
      "note_off channel=0 note=75 velocity=64 time=1\n",
      "note_off channel=0 note=82 velocity=64 time=0\n",
      "note_on channel=0 note=85 velocity=43 time=0\n",
      "note_off channel=0 note=89 velocity=64 time=0\n",
      "note_off channel=0 note=97 velocity=64 time=0\n",
      "note_off channel=0 note=100 velocity=64 time=0\n",
      "note_on channel=0 note=51 velocity=74 time=1\n",
      "note_off channel=0 note=71 velocity=64 time=0\n",
      "note_on channel=0 note=73 velocity=76 time=0\n",
      "note_on channel=0 note=76 velocity=42 time=0\n",
      "note_off channel=0 note=77 velocity=64 time=0\n",
      "note_on channel=0 note=89 velocity=69 time=0\n",
      "note_on channel=0 note=94 velocity=64 time=0\n",
      "note_on channel=0 note=48 velocity=88 time=1\n",
      "note_off channel=0 note=51 velocity=64 time=0\n",
      "note_off channel=0 note=66 velocity=64 time=0\n",
      "note_on channel=0 note=71 velocity=33 time=0\n",
      "note_on channel=0 note=77 velocity=25 time=0\n",
      "note_on channel=0 note=82 velocity=49 time=0\n",
      "note_on channel=0 note=95 velocity=29 time=0\n",
      "note_on channel=0 note=63 velocity=49 time=1\n",
      "note_off channel=0 note=76 velocity=64 time=0\n",
      "note_off channel=0 note=98 velocity=64 time=0\n",
      "note_off channel=0 note=82 velocity=64 time=1\n",
      "note_on channel=0 note=83 velocity=38 time=0\n",
      "note_on channel=0 note=46 velocity=67 time=1\n",
      "note_off channel=0 note=48 velocity=64 time=0\n",
      "note_on channel=0 note=62 velocity=32 time=0\n",
      "note_off channel=0 note=63 velocity=64 time=0\n",
      "note_on channel=0 note=82 velocity=50 time=0\n",
      "note_off channel=0 note=95 velocity=64 time=0\n",
      "note_on channel=0 note=70 velocity=32 time=1\n",
      "note_off channel=0 note=71 velocity=64 time=0\n",
      "note_off channel=0 note=77 velocity=64 time=0\n",
      "note_off channel=0 note=83 velocity=64 time=0\n",
      "note_off channel=0 note=90 velocity=64 time=0\n",
      "note_off channel=0 note=46 velocity=64 time=1\n",
      "note_on channel=0 note=61 velocity=24 time=0\n",
      "note_off channel=0 note=62 velocity=64 time=0\n",
      "note_on channel=0 note=90 velocity=62 time=0\n",
      "note_on channel=0 note=100 velocity=32 time=0\n",
      "note_on channel=0 note=54 velocity=58 time=1\n",
      "note_on channel=0 note=66 velocity=62 time=0\n",
      "note_off channel=0 note=70 velocity=64 time=0\n",
      "note_on channel=0 note=95 velocity=31 time=0\n",
      "note_on channel=0 note=45 velocity=61 time=1\n",
      "note_off channel=0 note=87 velocity=64 time=0\n",
      "note_off channel=0 note=93 velocity=64 time=0\n",
      "note_on channel=0 note=98 velocity=11 time=0\n",
      "note_off channel=0 note=61 velocity=64 time=1\n",
      "note_off channel=0 note=89 velocity=64 time=0\n",
      "note_on channel=0 note=91 velocity=29 time=0\n",
      "note_on channel=0 note=99 velocity=22 time=0\n",
      "note_on channel=0 note=61 velocity=20 time=1\n",
      "note_on channel=0 note=87 velocity=54 time=0\n",
      "note_off channel=0 note=100 velocity=64 time=0\n",
      "note_on channel=0 note=44 velocity=51 time=1\n",
      "note_off channel=0 note=45 velocity=64 time=0\n",
      "note_off channel=0 note=54 velocity=64 time=0\n",
      "note_off channel=0 note=66 velocity=64 time=0\n",
      "note_off channel=0 note=98 velocity=64 time=0\n",
      "note_on channel=0 note=54 velocity=60 time=1\n",
      "note_off channel=0 note=84 velocity=64 time=1\n",
      "note_on channel=0 note=84 velocity=44 time=1\n",
      "note_off channel=0 note=44 velocity=64 time=1\n",
      "note_on channel=0 note=89 velocity=27 time=0\n",
      "note_on channel=0 note=42 velocity=31 time=1\n",
      "note_off channel=0 note=42 velocity=64 time=2\n",
      "note_on channel=0 note=43 velocity=33 time=0\n",
      "note_on channel=0 note=83 velocity=34 time=0\n",
      "note_on channel=0 note=65 velocity=50 time=2\n",
      "note_on channel=0 note=68 velocity=26 time=0\n",
      "note_off channel=0 note=83 velocity=64 time=0\n",
      "note_off channel=0 note=99 velocity=64 time=0\n",
      "note_on channel=0 note=72 velocity=60 time=1\n",
      "note_off channel=0 note=73 velocity=64 time=0\n",
      "note_on channel=0 note=83 velocity=62 time=0\n",
      "note_on channel=0 note=93 velocity=55 time=0\n",
      "note_off channel=0 note=94 velocity=64 time=0\n",
      "note_on channel=0 note=53 velocity=71 time=1\n",
      "note_off channel=0 note=54 velocity=64 time=0\n",
      "note_off channel=0 note=61 velocity=64 time=0\n",
      "note_off channel=0 note=82 velocity=64 time=0\n",
      "note_off channel=0 note=43 velocity=64 time=1\n",
      "note_on channel=0 note=71 velocity=39 time=0\n",
      "note_off channel=0 note=72 velocity=64 time=0\n",
      "note_on channel=0 note=73 velocity=34 time=0\n",
      "note_off channel=0 note=85 velocity=64 time=0\n",
      "note_off channel=0 note=89 velocity=64 time=0\n",
      "note_off channel=0 note=93 velocity=64 time=0\n",
      "note_off channel=0 note=95 velocity=64 time=0\n",
      "note_off channel=0 note=65 velocity=64 time=1\n",
      "note_on channel=0 note=89 velocity=68 time=0\n",
      "note_off channel=0 note=91 velocity=64 time=0\n",
      "note_on channel=0 note=93 velocity=29 time=0\n",
      "note_on channel=0 note=52 velocity=65 time=1\n",
      "note_off channel=0 note=53 velocity=64 time=0\n",
      "note_on channel=0 note=65 velocity=56 time=0\n",
      "note_on channel=0 note=70 velocity=36 time=0\n",
      "note_off channel=0 note=71 velocity=64 time=0\n",
      "note_off channel=0 note=52 velocity=64 time=1\n",
      "note_off channel=0 note=68 velocity=64 time=1\n",
      "note_on channel=0 note=88 velocity=53 time=0\n",
      "note_on channel=0 note=51 velocity=61 time=1\n",
      "note_on channel=0 note=76 velocity=64 time=0\n",
      "note_off channel=0 note=80 velocity=64 time=0\n",
      "note_on channel=0 note=94 velocity=43 time=0\n",
      "note_on channel=0 note=80 velocity=82 time=1\n",
      "note_on channel=0 note=45 velocity=77 time=1\n",
      "note_off channel=0 note=51 velocity=64 time=0\n",
      "note_on channel=0 note=61 velocity=56 time=0\n",
      "note_on channel=0 note=69 velocity=46 time=0\n",
      "note_off channel=0 note=70 velocity=64 time=0\n",
      "note_off channel=0 note=73 velocity=64 time=0\n",
      "note_on channel=0 note=53 velocity=66 time=1\n",
      "note_on channel=0 note=67 velocity=46 time=0\n",
      "note_on channel=0 note=71 velocity=58 time=0\n",
      "note_off channel=0 note=84 velocity=64 time=0\n",
      "note_off channel=0 note=93 velocity=64 time=0\n",
      "note_on channel=0 note=44 velocity=77 time=1\n",
      "note_off channel=0 note=45 velocity=64 time=0\n",
      "note_on channel=0 note=52 velocity=73 time=0\n",
      "note_off channel=0 note=53 velocity=64 time=0\n",
      "note_on channel=0 note=85 velocity=38 time=0\n",
      "note_off channel=0 note=61 velocity=64 time=1\n",
      "note_off channel=0 note=67 velocity=64 time=0\n",
      "note_off channel=0 note=69 velocity=64 time=0\n",
      "note_off channel=0 note=65 velocity=64 time=1\n",
      "note_on channel=0 note=86 velocity=50 time=0\n",
      "note_on channel=0 note=96 velocity=27 time=0\n",
      "note_on channel=0 note=103 velocity=11 time=0\n",
      "note_on channel=0 note=43 velocity=72 time=1\n",
      "note_off channel=0 note=44 velocity=64 time=0\n",
      "note_on channel=0 note=73 velocity=28 time=0\n",
      "note_off channel=0 note=85 velocity=64 time=0\n",
      "note_on channel=0 note=93 velocity=44 time=0\n",
      "note_off channel=0 note=94 velocity=64 time=0\n",
      "note_off channel=0 note=88 velocity=64 time=1\n",
      "note_on channel=0 note=91 velocity=40 time=0\n",
      "note_off channel=0 note=103 velocity=64 time=1\n",
      "note_on channel=0 note=70 velocity=55 time=1\n",
      "note_off channel=0 note=71 velocity=64 time=0\n",
      "note_on channel=0 note=85 velocity=45 time=0\n",
      "note_off channel=0 note=86 velocity=64 time=0\n",
      "note_on channel=0 note=51 velocity=62 time=1\n",
      "note_off channel=0 note=52 velocity=64 time=0\n",
      "note_on channel=0 note=75 velocity=49 time=0\n",
      "note_off channel=0 note=76 velocity=64 time=0\n",
      "note_off channel=0 note=90 velocity=64 time=0\n",
      "note_on channel=0 note=94 velocity=27 time=0\n",
      "note_off channel=0 note=43 velocity=64 time=2\n",
      "note_off channel=0 note=51 velocity=64 time=0\n",
      "note_on channel=0 note=52 velocity=47 time=0\n",
      "note_on channel=0 note=88 velocity=29 time=1\n",
      "note_on channel=0 note=90 velocity=53 time=0\n",
      "note_off channel=0 note=96 velocity=64 time=0\n",
      "note_off channel=0 note=52 velocity=64 time=1\n",
      "note_on channel=0 note=77 velocity=16 time=1\n",
      "note_off channel=0 note=94 velocity=64 time=0\n",
      "note_on channel=0 note=51 velocity=57 time=1\n",
      "note_off channel=0 note=88 velocity=64 time=0\n",
      "note_off channel=0 note=91 velocity=64 time=1\n",
      "note_off channel=0 note=73 velocity=64 time=1\n",
      "note_on channel=0 note=81 velocity=43 time=0\n",
      "note_on channel=0 note=62 velocity=58 time=1\n",
      "note_on channel=0 note=73 velocity=23 time=0\n",
      "note_off channel=0 note=83 velocity=64 time=0\n",
      "note_on channel=0 note=50 velocity=57 time=1\n",
      "note_off channel=0 note=51 velocity=64 time=0\n",
      "note_on channel=0 note=69 velocity=51 time=0\n",
      "note_off channel=0 note=70 velocity=64 time=0\n",
      "note_off channel=0 note=81 velocity=64 time=0\n",
      "note_on channel=0 note=82 velocity=50 time=0\n",
      "note_on channel=0 note=84 velocity=42 time=0\n",
      "note_on channel=0 note=78 velocity=22 time=1\n",
      "note_off channel=0 note=85 velocity=64 time=0\n",
      "note_off channel=0 note=73 velocity=64 time=1\n",
      "note_off channel=0 note=77 velocity=64 time=0\n",
      "note_on channel=0 note=85 velocity=28 time=0\n",
      "note_off channel=0 note=50 velocity=64 time=1\n",
      "note_off channel=0 note=69 velocity=64 time=0\n",
      "note_on channel=0 note=88 velocity=63 time=0\n",
      "note_on channel=0 note=50 velocity=60 time=1\n",
      "note_on channel=0 note=69 velocity=53 time=0\n",
      "note_off channel=0 note=75 velocity=64 time=0\n",
      "note_off channel=0 note=89 velocity=64 time=0\n",
      "note_off channel=0 note=82 velocity=64 time=1\n",
      "note_on channel=0 note=82 velocity=34 time=1\n",
      "note_on channel=0 note=77 velocity=61 time=1\n",
      "note_off channel=0 note=78 velocity=64 time=0\n",
      "note_on channel=0 note=83 velocity=49 time=0\n",
      "note_off channel=0 note=82 velocity=64 time=1\n",
      "note_on channel=0 note=72 velocity=53 time=1\n",
      "note_on channel=0 note=82 velocity=67 time=0\n",
      "note_off channel=0 note=84 velocity=64 time=0\n",
      "note_on channel=0 note=57 velocity=54 time=1\n",
      "note_off channel=0 note=62 velocity=64 time=0\n",
      "note_on channel=0 note=63 velocity=95 time=0\n",
      "note_on channel=0 note=68 velocity=45 time=0\n",
      "note_off channel=0 note=83 velocity=64 time=0\n",
      "note_on channel=0 note=91 velocity=30 time=0\n",
      "note_off channel=0 note=68 velocity=64 time=2\n",
      "note_on channel=0 note=83 velocity=54 time=0\n",
      "note_off channel=0 note=88 velocity=64 time=0\n",
      "note_off channel=0 note=57 velocity=64 time=1\n",
      "note_off channel=0 note=72 velocity=64 time=0\n",
      "note_on channel=0 note=74 velocity=34 time=0\n",
      "note_off channel=0 note=82 velocity=64 time=0\n",
      "note_on channel=0 note=88 velocity=46 time=0\n",
      "note_off channel=0 note=91 velocity=64 time=1\n",
      "note_off channel=0 note=69 velocity=64 time=2\n",
      "note_on channel=0 note=70 velocity=45 time=0\n",
      "note_off channel=0 note=50 velocity=64 time=1\n",
      "note_on channel=0 note=51 velocity=46 time=0\n",
      "note_on channel=0 note=73 velocity=25 time=0\n",
      "note_off channel=0 note=74 velocity=64 time=0\n",
      "note_on channel=0 note=91 velocity=51 time=0\n",
      "note_on channel=0 note=94 velocity=17 time=0\n",
      "note_off channel=0 note=70 velocity=64 time=1\n",
      "note_off channel=0 note=87 velocity=64 time=0\n",
      "note_off channel=0 note=90 velocity=64 time=0\n",
      "note_on channel=0 note=70 velocity=50 time=1\n",
      "note_on channel=0 note=90 velocity=45 time=0\n",
      "note_off channel=0 note=88 velocity=64 time=1\n",
      "note_off channel=0 note=94 velocity=64 time=0\n",
      "note_on channel=0 note=84 velocity=24 time=1\n",
      "note_on channel=0 note=50 velocity=57 time=1\n",
      "note_off channel=0 note=51 velocity=64 time=0\n",
      "note_on channel=0 note=69 velocity=51 time=0\n",
      "note_off channel=0 note=70 velocity=64 time=0\n",
      "note_off channel=0 note=73 velocity=64 time=0\n",
      "note_off channel=0 note=91 velocity=64 time=0\n",
      "note_on channel=0 note=79 velocity=13 time=1\n",
      "note_on channel=0 note=91 velocity=56 time=0\n",
      "note_on channel=0 note=71 velocity=46 time=1\n",
      "note_off channel=0 note=80 velocity=64 time=0\n",
      "note_on channel=0 note=68 velocity=51 time=1\n",
      "note_off channel=0 note=69 velocity=64 time=0\n",
      "note_on channel=0 note=73 velocity=40 time=0\n",
      "note_off channel=0 note=93 velocity=64 time=0\n",
      "note_on channel=0 note=94 velocity=45 time=0\n",
      "note_on channel=0 note=49 velocity=61 time=1\n",
      "note_off channel=0 note=50 velocity=64 time=0\n",
      "note_off channel=0 note=79 velocity=64 time=0\n",
      "note_on channel=0 note=88 velocity=21 time=0\n",
      "note_on channel=0 note=96 velocity=27 time=0\n",
      "note_on channel=0 note=87 velocity=44 time=2\n",
      "note_off channel=0 note=84 velocity=64 time=1\n",
      "note_off channel=0 note=88 velocity=64 time=1\n",
      "note_off channel=0 note=94 velocity=64 time=3\n",
      "note_on channel=0 note=94 velocity=42 time=1\n",
      "note_on channel=0 note=100 velocity=12 time=1\n",
      "note_on channel=0 note=93 velocity=31 time=1\n",
      "note_off channel=0 note=94 velocity=64 time=0\n",
      "note_on channel=0 note=82 velocity=63 time=1\n",
      "note_on channel=0 note=78 velocity=31 time=1\n",
      "note_off channel=0 note=91 velocity=64 time=0\n",
      "note_off channel=0 note=100 velocity=64 time=0\n"
     ]
    },
    {
     "name": "stdout",
     "output_type": "stream",
     "text": [
      "note_on channel=0 note=61 velocity=87 time=1\n",
      "note_off channel=0 note=63 velocity=64 time=0\n",
      "note_off channel=0 note=68 velocity=64 time=0\n",
      "note_off channel=0 note=71 velocity=64 time=0\n",
      "note_on channel=0 note=72 velocity=51 time=0\n",
      "note_off channel=0 note=73 velocity=64 time=0\n",
      "note_off channel=0 note=83 velocity=64 time=0\n",
      "note_on channel=0 note=57 velocity=52 time=1\n",
      "note_off channel=0 note=85 velocity=64 time=0\n",
      "note_on channel=0 note=91 velocity=30 time=0\n",
      "note_off channel=0 note=61 velocity=64 time=1\n",
      "note_on channel=0 note=63 velocity=86 time=0\n",
      "note_off channel=0 note=78 velocity=64 time=0\n",
      "note_on channel=0 note=68 velocity=52 time=1\n",
      "note_on channel=0 note=70 velocity=41 time=0\n",
      "note_off channel=0 note=72 velocity=64 time=0\n",
      "note_on channel=0 note=85 velocity=15 time=0\n",
      "note_off channel=0 note=90 velocity=64 time=0\n",
      "note_off channel=0 note=96 velocity=64 time=0\n",
      "note_off channel=0 note=57 velocity=64 time=1\n",
      "note_off channel=0 note=70 velocity=64 time=1\n",
      "note_on channel=0 note=71 velocity=38 time=0\n",
      "note_on channel=0 note=90 velocity=18 time=0\n",
      "note_on channel=0 note=73 velocity=30 time=1\n",
      "note_on channel=0 note=83 velocity=56 time=0\n",
      "note_off channel=0 note=82 velocity=64 time=1\n",
      "note_off channel=0 note=91 velocity=64 time=1\n",
      "note_off channel=0 note=93 velocity=64 time=2\n",
      "note_on channel=0 note=100 velocity=11 time=5\n",
      "note_on channel=0 note=70 velocity=29 time=1\n",
      "note_off channel=0 note=71 velocity=64 time=0\n",
      "note_off channel=0 note=85 velocity=64 time=0\n",
      "note_on channel=0 note=93 velocity=53 time=0\n",
      "note_off channel=0 note=70 velocity=64 time=2\n",
      "note_on channel=0 note=71 velocity=40 time=0\n",
      "note_off channel=0 note=100 velocity=64 time=0\n",
      "note_off channel=0 note=49 velocity=64 time=6\n",
      "note_on channel=0 note=50 velocity=41 time=0\n",
      "note_on channel=0 note=92 velocity=50 time=1\n",
      "note_off channel=0 note=50 velocity=64 time=2\n",
      "note_off channel=0 note=71 velocity=64 time=0\n",
      "note_on channel=0 note=91 velocity=38 time=0\n",
      "note_off channel=0 note=68 velocity=64 time=1\n",
      "note_on channel=0 note=69 velocity=53 time=0\n",
      "note_off channel=0 note=73 velocity=64 time=0\n",
      "note_on channel=0 note=80 velocity=88 time=0\n",
      "note_on channel=0 note=89 velocity=74 time=0\n",
      "note_off channel=0 note=90 velocity=64 time=0\n",
      "note_on channel=0 note=100 velocity=24 time=0\n",
      "note_on channel=0 note=49 velocity=60 time=1\n",
      "note_on channel=0 note=68 velocity=52 time=0\n",
      "note_on channel=0 note=73 velocity=66 time=0\n",
      "note_on channel=0 note=90 velocity=52 time=0\n",
      "note_off channel=0 note=91 velocity=64 time=0\n",
      "note_on channel=0 note=94 velocity=37 time=0\n",
      "note_off channel=0 note=69 velocity=64 time=1\n",
      "note_on channel=0 note=71 velocity=50 time=1\n",
      "note_on channel=0 note=96 velocity=21 time=0\n",
      "note_off channel=0 note=87 velocity=64 time=1\n",
      "note_on channel=0 note=88 velocity=22 time=0\n",
      "note_on channel=0 note=91 velocity=48 time=0\n",
      "note_off channel=0 note=73 velocity=64 time=1\n",
      "note_on channel=0 note=74 velocity=51 time=0\n",
      "note_off channel=0 note=49 velocity=64 time=1\n",
      "note_on channel=0 note=50 velocity=63 time=0\n",
      "note_on channel=0 note=84 velocity=14 time=0\n",
      "note_off channel=0 note=91 velocity=64 time=0\n",
      "note_off channel=0 note=68 velocity=64 time=1\n",
      "note_on channel=0 note=70 velocity=46 time=0\n",
      "note_off channel=0 note=71 velocity=64 time=0\n",
      "note_on channel=0 note=73 velocity=50 time=0\n",
      "note_off channel=0 note=74 velocity=64 time=0\n",
      "note_off channel=0 note=88 velocity=64 time=0\n",
      "note_off channel=0 note=90 velocity=64 time=0\n",
      "note_on channel=0 note=91 velocity=53 time=0\n",
      "note_on channel=0 note=99 velocity=15 time=0\n",
      "note_off channel=0 note=50 velocity=64 time=1\n",
      "note_on channel=0 note=51 velocity=50 time=0\n",
      "note_off channel=0 note=63 velocity=64 time=0\n",
      "note_on channel=0 note=71 velocity=50 time=0\n",
      "note_off channel=0 note=92 velocity=64 time=0\n",
      "note_off channel=0 note=70 velocity=64 time=1\n",
      "note_off channel=0 note=84 velocity=64 time=0\n",
      "note_on channel=0 note=65 velocity=41 time=1\n",
      "note_off channel=0 note=71 velocity=64 time=0\n",
      "note_on channel=0 note=90 velocity=18 time=0\n",
      "note_off channel=0 note=94 velocity=64 time=0\n",
      "note_on channel=0 note=50 velocity=63 time=1\n",
      "note_off channel=0 note=51 velocity=64 time=0\n",
      "note_on channel=0 note=69 velocity=62 time=0\n",
      "note_on channel=0 note=71 velocity=49 time=0\n",
      "note_off channel=0 note=89 velocity=64 time=0\n",
      "note_on channel=0 note=94 velocity=50 time=0\n",
      "note_off channel=0 note=99 velocity=64 time=0\n",
      "note_off channel=0 note=100 velocity=64 time=1\n",
      "note_on channel=0 note=61 velocity=58 time=1\n",
      "note_off channel=0 note=93 velocity=64 time=0\n",
      "note_on channel=0 note=100 velocity=21 time=0\n",
      "note_on channel=0 note=87 velocity=11 time=2\n",
      "note_on channel=0 note=93 velocity=58 time=0\n",
      "note_off channel=0 note=61 velocity=64 time=1\n",
      "note_off channel=0 note=100 velocity=64 time=0\n",
      "note_on channel=0 note=102 velocity=34 time=0\n",
      "note_off channel=0 note=65 velocity=64 time=1\n",
      "note_on channel=0 note=84 velocity=24 time=0\n",
      "note_on channel=0 note=100 velocity=20 time=0\n",
      "note_on channel=0 note=65 velocity=33 time=1\n",
      "note_off channel=0 note=71 velocity=64 time=0\n",
      "note_off channel=0 note=77 velocity=64 time=0\n",
      "note_on channel=0 note=71 velocity=45 time=1\n",
      "note_off channel=0 note=90 velocity=64 time=0\n",
      "note_off channel=0 note=91 velocity=64 time=0\n",
      "note_off channel=0 note=84 velocity=64 time=1\n",
      "note_off channel=0 note=96 velocity=64 time=0\n",
      "note_on channel=0 note=61 velocity=57 time=1\n",
      "note_on channel=0 note=91 velocity=38 time=0\n",
      "note_off channel=0 note=100 velocity=64 time=0\n",
      "note_on channel=0 note=49 velocity=60 time=1\n",
      "note_off channel=0 note=50 velocity=64 time=0\n",
      "note_on channel=0 note=68 velocity=69 time=0\n",
      "note_off channel=0 note=69 velocity=64 time=0\n",
      "note_off channel=0 note=94 velocity=64 time=0\n",
      "note_off channel=0 note=65 velocity=64 time=1\n",
      "note_off channel=0 note=73 velocity=64 time=0\n",
      "note_on channel=0 note=75 velocity=15 time=0\n",
      "note_off channel=0 note=102 velocity=64 time=0\n",
      "note_on channel=0 note=60 velocity=45 time=1\n",
      "note_off channel=0 note=61 velocity=64 time=0\n",
      "note_on channel=0 note=65 velocity=33 time=0\n",
      "note_off channel=0 note=87 velocity=64 time=0\n",
      "note_on channel=0 note=48 velocity=47 time=2\n",
      "note_off channel=0 note=49 velocity=64 time=0\n",
      "note_off channel=0 note=75 velocity=64 time=0\n",
      "note_on channel=0 note=94 velocity=31 time=0\n",
      "note_on channel=0 note=102 velocity=46 time=0\n",
      "note_off channel=0 note=60 velocity=64 time=1\n",
      "note_on channel=0 note=61 velocity=61 time=0\n",
      "note_on channel=0 note=73 velocity=67 time=0\n",
      "note_on channel=0 note=90 velocity=34 time=0\n",
      "note_on channel=0 note=96 velocity=20 time=0\n",
      "note_on channel=0 note=77 velocity=34 time=1\n",
      "note_on channel=0 note=87 velocity=22 time=0\n",
      "note_off channel=0 note=94 velocity=64 time=0\n",
      "note_off channel=0 note=48 velocity=64 time=1\n",
      "note_off channel=0 note=91 velocity=64 time=0\n",
      "note_on channel=0 note=48 velocity=60 time=1\n",
      "note_on channel=0 note=60 velocity=78 time=0\n",
      "note_off channel=0 note=61 velocity=64 time=0\n",
      "note_off channel=0 note=65 velocity=64 time=0\n",
      "note_off channel=0 note=71 velocity=64 time=0\n",
      "note_on channel=0 note=76 velocity=46 time=0\n",
      "note_on channel=0 note=84 velocity=22 time=0\n",
      "note_on channel=0 note=89 velocity=51 time=0\n",
      "note_on channel=0 note=94 velocity=29 time=0\n",
      "note_on channel=0 note=55 velocity=67 time=1\n",
      "note_off channel=0 note=77 velocity=64 time=0\n",
      "note_off channel=0 note=96 velocity=64 time=0\n",
      "note_off channel=0 note=48 velocity=64 time=1\n",
      "note_off channel=0 note=55 velocity=64 time=0\n",
      "note_on channel=0 note=57 velocity=61 time=0\n",
      "note_off channel=0 note=60 velocity=64 time=0\n",
      "note_on channel=0 note=61 velocity=80 time=0\n",
      "note_on channel=0 note=72 velocity=63 time=0\n",
      "note_off channel=0 note=73 velocity=64 time=0\n",
      "note_on channel=0 note=75 velocity=50 time=0\n",
      "note_on channel=0 note=79 velocity=36 time=0\n",
      "note_off channel=0 note=90 velocity=64 time=0\n",
      "note_on channel=0 note=48 velocity=48 time=1\n",
      "note_off channel=0 note=84 velocity=64 time=0\n",
      "note_off channel=0 note=87 velocity=64 time=0\n",
      "note_off channel=0 note=57 velocity=64 time=1\n",
      "note_off channel=0 note=61 velocity=64 time=0\n",
      "note_on channel=0 note=62 velocity=64 time=0\n",
      "note_on channel=0 note=65 velocity=76 time=0\n",
      "note_off channel=0 note=76 velocity=64 time=0\n",
      "note_off channel=0 note=79 velocity=64 time=0\n",
      "note_on channel=0 note=90 velocity=19 time=0\n",
      "note_off channel=0 note=48 velocity=64 time=1\n",
      "note_on channel=0 note=71 velocity=47 time=0\n",
      "note_off channel=0 note=72 velocity=64 time=0\n",
      "note_on channel=0 note=85 velocity=12 time=0\n",
      "note_on channel=0 note=91 velocity=32 time=0\n",
      "note_off channel=0 note=94 velocity=64 time=0\n",
      "note_on channel=0 note=96 velocity=20 time=0\n",
      "note_on channel=0 note=48 velocity=47 time=1\n",
      "note_on channel=0 note=53 velocity=43 time=0\n",
      "note_on channel=0 note=59 velocity=41 time=0\n",
      "note_off channel=0 note=62 velocity=64 time=0\n",
      "note_off channel=0 note=93 velocity=64 time=0\n",
      "note_on channel=0 note=94 velocity=35 time=0\n",
      "note_off channel=0 note=71 velocity=64 time=1\n",
      "note_off channel=0 note=102 velocity=64 time=0\n",
      "note_on channel=0 note=47 velocity=42 time=1\n",
      "note_off channel=0 note=48 velocity=64 time=0\n",
      "note_off channel=0 note=53 velocity=64 time=0\n",
      "note_off channel=0 note=85 velocity=64 time=0\n",
      "note_off channel=0 note=90 velocity=64 time=0\n",
      "note_on channel=0 note=93 velocity=52 time=0\n",
      "note_on channel=0 note=100 velocity=10 time=0\n",
      "note_off channel=0 note=96 velocity=64 time=2\n",
      "note_off channel=0 note=68 velocity=64 time=2\n",
      "note_on channel=0 note=96 velocity=17 time=2\n",
      "note_off channel=0 note=100 velocity=64 time=0\n",
      "note_off channel=0 note=47 velocity=64 time=1\n",
      "note_on channel=0 note=48 velocity=46 time=0\n",
      "note_off channel=0 note=59 velocity=64 time=0\n",
      "note_on channel=0 note=82 velocity=68 time=0\n",
      "note_on channel=0 note=90 velocity=30 time=0\n",
      "note_on channel=0 note=53 velocity=43 time=1\n",
      "note_off channel=0 note=83 velocity=64 time=0\n",
      "note_on channel=0 note=84 velocity=42 time=0\n",
      "note_on channel=0 note=85 velocity=28 time=0\n",
      "note_off channel=0 note=48 velocity=64 time=1\n",
      "note_off channel=0 note=82 velocity=64 time=0\n",
      "note_on channel=0 note=83 velocity=61 time=0\n",
      "note_off channel=0 note=91 velocity=64 time=0\n",
      "note_on channel=0 note=46 velocity=37 time=1\n",
      "note_off channel=0 note=53 velocity=64 time=0\n",
      "note_on channel=0 note=71 velocity=31 time=0\n",
      "note_on channel=0 note=59 velocity=40 time=1\n",
      "note_off channel=0 note=84 velocity=64 time=0\n",
      "note_off channel=0 note=85 velocity=64 time=0\n",
      "note_off channel=0 note=90 velocity=64 time=0\n",
      "note_on channel=0 note=91 velocity=57 time=0\n",
      "note_off channel=0 note=94 velocity=64 time=0\n",
      "note_off channel=0 note=96 velocity=64 time=0\n",
      "note_off channel=0 note=46 velocity=64 time=1\n",
      "note_on channel=0 note=48 velocity=42 time=0\n",
      "note_off channel=0 note=59 velocity=64 time=1\n",
      "note_on channel=0 note=60 velocity=46 time=0\n",
      "note_off channel=0 note=93 velocity=64 time=1\n",
      "note_off channel=0 note=60 velocity=64 time=1\n",
      "note_off channel=0 note=48 velocity=64 time=1\n",
      "note_off channel=0 note=71 velocity=64 time=0\n",
      "note_on channel=0 note=72 velocity=54 time=0\n",
      "note_on channel=0 note=49 velocity=30 time=1\n",
      "note_on channel=0 note=67 velocity=45 time=0\n",
      "note_on channel=0 note=90 velocity=57 time=0\n",
      "note_on channel=0 note=60 velocity=50 time=1\n",
      "note_on channel=0 note=82 velocity=30 time=0\n",
      "note_on channel=0 note=94 velocity=31 time=0\n",
      "note_off channel=0 note=49 velocity=64 time=1\n",
      "note_off channel=0 note=75 velocity=64 time=0\n",
      "note_on channel=0 note=76 velocity=38 time=0\n",
      "note_off channel=0 note=83 velocity=64 time=0\n",
      "note_on channel=0 note=93 velocity=34 time=0\n",
      "note_off channel=0 note=67 velocity=64 time=1\n",
      "note_on channel=0 note=68 velocity=57 time=0\n",
      "note_on channel=0 note=85 velocity=26 time=0\n",
      "note_on channel=0 note=48 velocity=64 time=1\n",
      "note_off channel=0 note=60 velocity=64 time=0\n",
      "note_off channel=0 note=72 velocity=64 time=0\n",
      "note_on channel=0 note=73 velocity=55 time=0\n",
      "note_off channel=0 note=91 velocity=64 time=0\n",
      "note_on channel=0 note=96 velocity=29 time=0\n",
      "note_off channel=0 note=68 velocity=64 time=1\n",
      "note_on channel=0 note=83 velocity=33 time=0\n",
      "note_on channel=0 note=45 velocity=73 time=1\n",
      "note_off channel=0 note=48 velocity=64 time=0\n",
      "note_on channel=0 note=64 velocity=84 time=0\n",
      "note_off channel=0 note=65 velocity=64 time=0\n",
      "note_on channel=0 note=71 velocity=24 time=0\n",
      "note_off channel=0 note=76 velocity=64 time=0\n",
      "note_on channel=0 note=91 velocity=24 time=0\n",
      "note_off channel=0 note=94 velocity=64 time=0\n",
      "note_on channel=0 note=44 velocity=79 time=1\n",
      "note_off channel=0 note=45 velocity=64 time=0\n",
      "note_on channel=0 note=68 velocity=54 time=0\n",
      "note_off channel=0 note=82 velocity=64 time=0\n",
      "note_on channel=0 note=63 velocity=71 time=1\n",
      "note_off channel=0 note=64 velocity=64 time=0\n",
      "note_off channel=0 note=63 velocity=64 time=1\n",
      "note_on channel=0 note=65 velocity=60 time=0\n",
      "note_off channel=0 note=71 velocity=64 time=0\n",
      "note_off channel=0 note=91 velocity=64 time=1\n",
      "note_off channel=0 note=44 velocity=64 time=1\n",
      "note_on channel=0 note=47 velocity=74 time=0\n",
      "note_on channel=0 note=61 velocity=53 time=0\n",
      "note_on channel=0 note=91 velocity=57 time=0\n",
      "note_on channel=0 note=41 velocity=56 time=1\n",
      "note_off channel=0 note=47 velocity=64 time=0\n",
      "note_on channel=0 note=49 velocity=60 time=0\n",
      "note_off channel=0 note=90 velocity=64 time=0\n",
      "note_on channel=0 note=71 velocity=17 time=1\n",
      "note_off channel=0 note=41 velocity=64 time=1\n",
      "note_on channel=0 note=43 velocity=64 time=0\n",
      "note_off channel=0 note=49 velocity=64 time=0\n",
      "note_off channel=0 note=93 velocity=64 time=0\n",
      "note_off channel=0 note=96 velocity=64 time=0\n",
      "note_off channel=0 note=61 velocity=64 time=1\n",
      "note_on channel=0 note=93 velocity=33 time=0\n",
      "note_on channel=0 note=42 velocity=57 time=1\n",
      "note_off channel=0 note=43 velocity=64 time=0\n",
      "note_on channel=0 note=61 velocity=68 time=0\n",
      "note_on channel=0 note=90 velocity=51 time=0\n",
      "note_on channel=0 note=96 velocity=13 time=0\n",
      "note_on channel=0 note=94 velocity=24 time=1\n",
      "note_off channel=0 note=71 velocity=64 time=1\n",
      "note_on channel=0 note=76 velocity=39 time=0\n",
      "note_off channel=0 note=42 velocity=64 time=1\n",
      "note_on channel=0 note=67 velocity=45 time=0\n",
      "note_off channel=0 note=68 velocity=64 time=0\n",
      "note_on channel=0 note=72 velocity=50 time=0\n",
      "note_off channel=0 note=73 velocity=64 time=0\n",
      "note_off channel=0 note=93 velocity=64 time=0\n",
      "note_off channel=0 note=85 velocity=64 time=1\n",
      "note_off channel=0 note=96 velocity=64 time=0\n",
      "note_off channel=0 note=65 velocity=64 time=1\n",
      "note_on channel=0 note=47 velocity=73 time=1\n",
      "note_off channel=0 note=67 velocity=64 time=0\n",
      "note_off channel=0 note=72 velocity=64 time=0\n",
      "note_off channel=0 note=76 velocity=64 time=0\n",
      "note_on channel=0 note=77 velocity=29 time=0\n",
      "note_off channel=0 note=47 velocity=64 time=1\n",
      "note_on channel=0 note=48 velocity=77 time=0\n",
      "note_on channel=0 note=69 velocity=50 time=0\n",
      "note_on channel=0 note=84 velocity=25 time=0\n",
      "note_off channel=0 note=48 velocity=64 time=1\n",
      "note_on channel=0 note=49 velocity=76 time=0\n",
      "note_off channel=0 note=49 velocity=64 time=1\n",
      "note_on channel=0 note=50 velocity=82 time=0\n",
      "note_off channel=0 note=94 velocity=64 time=0\n",
      "note_off channel=0 note=50 velocity=64 time=1\n",
      "note_on channel=0 note=53 velocity=78 time=0\n",
      "note_off channel=0 note=61 velocity=64 time=0\n",
      "note_off channel=0 note=69 velocity=64 time=0\n",
      "note_on channel=0 note=82 velocity=20 time=0\n",
      "note_on channel=0 note=61 velocity=21 time=1\n",
      "note_off channel=0 note=83 velocity=64 time=0\n",
      "note_on channel=0 note=75 velocity=10 time=1\n",
      "note_on channel=0 note=93 velocity=11 time=0\n",
      "note_off channel=0 note=82 velocity=64 time=1\n",
      "note_on channel=0 note=86 velocity=45 time=0\n",
      "note_off channel=0 note=90 velocity=64 time=0\n",
      "note_off channel=0 note=53 velocity=64 time=1\n",
      "note_on channel=0 note=54 velocity=69 time=0\n",
      "note_off channel=0 note=61 velocity=64 time=0\n",
      "note_on channel=0 note=67 velocity=57 time=0\n",
      "note_off channel=0 note=75 velocity=64 time=1\n",
      "note_off channel=0 note=77 velocity=64 time=0\n",
      "note_on channel=0 note=78 velocity=20 time=0\n",
      "note_on channel=0 note=83 velocity=49 time=0\n",
      "note_off channel=0 note=84 velocity=64 time=0\n",
      "note_off channel=0 note=54 velocity=64 time=1\n",
      "note_on channel=0 note=77 velocity=46 time=1\n",
      "note_on channel=0 note=82 velocity=55 time=0\n",
      "note_on channel=0 note=102 velocity=27 time=0\n",
      "note_on channel=0 note=64 velocity=82 time=1\n",
      "note_off channel=0 note=67 velocity=64 time=0\n",
      "note_off channel=0 note=78 velocity=64 time=0\n",
      "note_on channel=0 note=84 velocity=17 time=0\n",
      "note_on channel=0 note=90 velocity=37 time=0\n",
      "note_on channel=0 note=45 velocity=77 time=1\n",
      "note_on channel=0 note=67 velocity=64 time=0\n",
      "note_off channel=0 note=80 velocity=64 time=0\n",
      "note_off channel=0 note=83 velocity=64 time=0\n",
      "note_off channel=0 note=93 velocity=64 time=0\n",
      "note_off channel=0 note=86 velocity=64 time=1\n",
      "note_on channel=0 note=44 velocity=79 time=1\n",
      "note_off channel=0 note=45 velocity=64 time=0\n",
      "note_on channel=0 note=53 velocity=56 time=0\n",
      "note_on channel=0 note=63 velocity=70 time=0\n",
      "note_off channel=0 note=64 velocity=64 time=0\n",
      "note_off channel=0 note=67 velocity=64 time=0\n",
      "note_off channel=0 note=84 velocity=64 time=0\n",
      "note_on channel=0 note=93 velocity=11 time=0\n",
      "note_on channel=0 note=81 velocity=44 time=1\n",
      "note_off channel=0 note=90 velocity=64 time=0\n",
      "note_on channel=0 note=72 velocity=56 time=1\n",
      "note_off channel=0 note=53 velocity=64 time=1\n",
      "note_off channel=0 note=63 velocity=64 time=0\n",
      "note_on channel=0 note=90 velocity=35 time=0\n",
      "note_off channel=0 note=44 velocity=64 time=1\n",
      "note_on channel=0 note=61 velocity=36 time=0\n",
      "note_on channel=0 note=76 velocity=45 time=0\n",
      "note_off channel=0 note=77 velocity=64 time=0\n",
      "note_on channel=0 note=80 velocity=85 time=0\n",
      "note_off channel=0 note=93 velocity=64 time=0\n",
      "note_on channel=0 note=64 velocity=34 time=1\n",
      "note_off channel=0 note=81 velocity=64 time=0\n",
      "note_on channel=0 note=86 velocity=26 time=0\n",
      "note_off channel=0 note=61 velocity=64 time=1\n",
      "note_on channel=0 note=71 velocity=53 time=0\n",
      "note_off channel=0 note=72 velocity=64 time=0\n",
      "note_on channel=0 note=87 velocity=46 time=0\n",
      "note_on channel=0 note=43 velocity=61 time=1\n",
      "note_on channel=0 note=53 velocity=55 time=0\n",
      "note_on channel=0 note=61 velocity=72 time=0\n",
      "note_off channel=0 note=64 velocity=64 time=0\n",
      "note_off channel=0 note=76 velocity=64 time=0\n",
      "note_on channel=0 note=88 velocity=37 time=0\n",
      "note_off channel=0 note=89 velocity=64 time=0\n",
      "note_on channel=0 note=76 velocity=34 time=1\n",
      "note_off channel=0 note=90 velocity=64 time=0\n",
      "note_on channel=0 note=52 velocity=53 time=1\n",
      "note_off channel=0 note=53 velocity=64 time=0\n",
      "note_on channel=0 note=65 velocity=48 time=0\n",
      "note_off channel=0 note=71 velocity=64 time=0\n",
      "note_on channel=0 note=72 velocity=55 time=0\n",
      "note_off channel=0 note=86 velocity=64 time=1\n",
      "note_off channel=0 note=88 velocity=64 time=0\n",
      "note_on channel=0 note=42 velocity=56 time=1\n",
      "note_off channel=0 note=43 velocity=64 time=0\n",
      "note_off channel=0 note=52 velocity=64 time=0\n",
      "note_on channel=0 note=53 velocity=59 time=0\n",
      "note_off channel=0 note=76 velocity=64 time=0\n",
      "note_on channel=0 note=86 velocity=15 time=0\n",
      "note_on channel=0 note=75 velocity=51 time=1\n",
      "note_off channel=0 note=102 velocity=64 time=1\n",
      "note_on channel=0 note=52 velocity=50 time=1\n",
      "note_off channel=0 note=53 velocity=64 time=0\n",
      "note_off channel=0 note=65 velocity=64 time=0\n",
      "note_off channel=0 note=72 velocity=64 time=0\n",
      "note_on channel=0 note=65 velocity=29 time=1\n",
      "note_on channel=0 note=71 velocity=30 time=2\n",
      "note_off channel=0 note=86 velocity=64 time=0\n",
      "note_on channel=0 note=90 velocity=28 time=3\n",
      "note_off channel=0 note=91 velocity=64 time=0\n",
      "note_off channel=0 note=52 velocity=64 time=2\n",
      "note_off channel=0 note=65 velocity=64 time=0\n",
      "note_on channel=0 note=55 velocity=44 time=1\n",
      "note_off channel=0 note=71 velocity=64 time=1\n",
      "note_on channel=0 note=89 velocity=69 time=0\n",
      "note_off channel=0 note=42 velocity=64 time=1\n",
      "note_on channel=0 note=53 velocity=61 time=0\n",
      "note_off channel=0 note=55 velocity=64 time=0\n",
      "note_on channel=0 note=66 velocity=52 time=0\n",
      "note_on channel=0 note=91 velocity=22 time=0\n",
      "note_on channel=0 note=95 velocity=37 time=0\n",
      "note_off channel=0 note=82 velocity=64 time=1\n",
      "note_on channel=0 note=83 velocity=47 time=0\n",
      "note_on channel=0 note=47 velocity=75 time=1\n",
      "note_off channel=0 note=66 velocity=64 time=0\n",
      "note_on channel=0 note=67 velocity=49 time=0\n",
      "note_on channel=0 note=88 velocity=37 time=0\n",
      "note_on channel=0 note=96 velocity=13 time=0\n",
      "note_off channel=0 note=47 velocity=64 time=1\n",
      "note_on channel=0 note=48 velocity=85 time=0\n",
      "note_off channel=0 note=53 velocity=64 time=0\n",
      "note_on channel=0 note=63 velocity=66 time=0\n",
      "note_on channel=0 note=77 velocity=38 time=0\n",
      "note_on channel=0 note=78 velocity=31 time=0\n",
      "note_on channel=0 note=82 velocity=52 time=0\n",
      "note_off channel=0 note=83 velocity=64 time=0\n",
      "note_on channel=0 note=84 velocity=28 time=0\n",
      "note_off channel=0 note=61 velocity=64 time=1\n",
      "note_off channel=0 note=63 velocity=64 time=0\n",
      "note_off channel=0 note=67 velocity=64 time=0\n",
      "note_off channel=0 note=88 velocity=64 time=0\n",
      "note_on channel=0 note=61 velocity=55 time=1\n",
      "note_on channel=0 note=68 velocity=31 time=0\n",
      "note_off channel=0 note=96 velocity=64 time=0\n",
      "note_off channel=0 note=48 velocity=64 time=1\n",
      "note_on channel=0 note=72 velocity=50 time=0\n",
      "note_off channel=0 note=78 velocity=64 time=0\n",
      "note_off channel=0 note=90 velocity=64 time=0\n",
      "note_off channel=0 note=82 velocity=64 time=1\n",
      "note_on channel=0 note=83 velocity=55 time=0\n",
      "note_on channel=0 note=90 velocity=77 time=0\n",
      "note_on channel=0 note=65 velocity=45 time=1\n",
      "note_off channel=0 note=72 velocity=64 time=0\n",
      "note_off channel=0 note=95 velocity=64 time=0\n",
      "note_on channel=0 note=50 velocity=48 time=1\n",
      "note_on channel=0 note=71 velocity=13 time=0\n",
      "note_on channel=0 note=88 velocity=28 time=0\n",
      "note_off channel=0 note=89 velocity=64 time=0\n",
      "note_on channel=0 note=54 velocity=37 time=1\n",
      "note_off channel=0 note=75 velocity=64 time=0\n",
      "note_off channel=0 note=50 velocity=64 time=1\n",
      "note_on channel=0 note=44 velocity=34 time=2\n",
      "note_off channel=0 note=54 velocity=64 time=0\n",
      "note_off channel=0 note=88 velocity=64 time=0\n",
      "note_on channel=0 note=54 velocity=33 time=1\n",
      "note_on channel=0 note=88 velocity=15 time=0\n",
      "note_off channel=0 note=44 velocity=64 time=1\n",
      "note_on channel=0 note=44 velocity=36 time=1\n",
      "note_off channel=0 note=61 velocity=64 time=0\n",
      "note_on channel=0 note=89 velocity=66 time=0\n",
      "note_on channel=0 note=93 velocity=31 time=0\n",
      "note_off channel=0 note=54 velocity=64 time=1\n",
      "note_off channel=0 note=68 velocity=64 time=0\n",
      "note_off channel=0 note=88 velocity=64 time=0\n",
      "note_off channel=0 note=91 velocity=64 time=0\n",
      "note_on channel=0 note=54 velocity=32 time=1\n",
      "note_off channel=0 note=84 velocity=64 time=0\n",
      "note_on channel=0 note=91 velocity=26 time=0\n",
      "note_off channel=0 note=44 velocity=64 time=1\n",
      "note_on channel=0 note=43 velocity=9 time=3\n",
      "note_off channel=0 note=71 velocity=64 time=0\n",
      "note_on channel=0 note=75 velocity=79 time=0\n",
      "note_on channel=0 note=71 velocity=10 time=1\n",
      "note_off channel=0 note=54 velocity=64 time=1\n",
      "note_off channel=0 note=43 velocity=64 time=1\n",
      "note_off channel=0 note=65 velocity=64 time=1\n",
      "note_off channel=0 note=71 velocity=64 time=1\n",
      "note_on channel=0 note=68 velocity=71 time=1\n",
      "note_on channel=0 note=55 velocity=65 time=1\n",
      "note_on channel=0 note=72 velocity=38 time=0\n",
      "note_on channel=0 note=84 velocity=60 time=1\n",
      "note_off channel=0 note=55 velocity=64 time=1\n",
      "note_on channel=0 note=56 velocity=64 time=0\n",
      "note_off channel=0 note=77 velocity=64 time=0\n",
      "note_off channel=0 note=91 velocity=64 time=0\n",
      "note_on channel=0 note=94 velocity=53 time=0\n",
      "note_on channel=0 note=99 velocity=54 time=0\n",
      "note_on channel=0 note=100 velocity=59 time=0\n",
      "note_on channel=0 note=103 velocity=47 time=0\n",
      "note_on channel=0 note=45 velocity=77 time=1\n",
      "note_on channel=0 note=85 velocity=38 time=0\n",
      "note_off channel=0 note=93 velocity=64 time=0\n",
      "note_on channel=0 note=63 velocity=45 time=1\n",
      "note_off channel=0 note=72 velocity=64 time=0\n",
      "note_on channel=0 note=73 velocity=31 time=0\n",
      "note_on channel=0 note=44 velocity=76 time=1\n",
      "note_off channel=0 note=45 velocity=64 time=0\n",
      "note_off channel=0 note=89 velocity=64 time=0\n",
      "note_off channel=0 note=73 velocity=64 time=1\n",
      "note_off channel=0 note=83 velocity=64 time=0\n",
      "note_on channel=0 note=91 velocity=48 time=0\n",
      "note_on channel=0 note=43 velocity=74 time=1\n",
      "note_off channel=0 note=44 velocity=64 time=0\n",
      "note_on channel=0 note=62 velocity=38 time=0\n",
      "note_on channel=0 note=71 velocity=27 time=0\n",
      "note_on channel=0 note=77 velocity=36 time=0\n",
      "note_on channel=0 note=83 velocity=67 time=0\n",
      "note_off channel=0 note=84 velocity=64 time=0\n",
      "note_on channel=0 note=89 velocity=75 time=0\n",
      "note_off channel=0 note=103 velocity=64 time=0\n",
      "note_off channel=0 note=56 velocity=64 time=1\n",
      "note_off channel=0 note=63 velocity=64 time=0\n",
      "note_on channel=0 note=93 velocity=51 time=0\n",
      "note_off channel=0 note=68 velocity=64 time=1\n",
      "note_off channel=0 note=94 velocity=64 time=0\n",
      "note_on channel=0 note=96 velocity=21 time=0\n",
      "note_on channel=0 note=98 velocity=13 time=0\n",
      "note_on channel=0 note=61 velocity=40 time=1\n",
      "note_off channel=0 note=62 velocity=64 time=0\n",
      "note_on channel=0 note=56 velocity=69 time=2\n",
      "note_on channel=0 note=74 velocity=67 time=0\n",
      "note_off channel=0 note=75 velocity=64 time=0\n",
      "note_on channel=0 note=82 velocity=39 time=0\n",
      "note_off channel=0 note=90 velocity=64 time=0\n",
      "note_off channel=0 note=96 velocity=64 time=0\n",
      "note_off channel=0 note=99 velocity=64 time=0\n",
      "note_off channel=0 note=61 velocity=64 time=1\n",
      "note_off channel=0 note=83 velocity=64 time=0\n",
      "note_on channel=0 note=84 velocity=57 time=0\n",
      "note_off channel=0 note=91 velocity=64 time=0\n",
      "note_on channel=0 note=103 velocity=14 time=0\n",
      "note_on channel=0 note=61 velocity=26 time=1\n",
      "note_off channel=0 note=74 velocity=64 time=0\n",
      "note_off channel=0 note=85 velocity=64 time=0\n",
      "note_off channel=0 note=98 velocity=64 time=0\n",
      "note_on channel=0 note=102 velocity=32 time=0\n",
      "note_on channel=0 note=65 velocity=17 time=1\n",
      "note_on channel=0 note=76 velocity=66 time=0\n",
      "note_off channel=0 note=77 velocity=64 time=0\n",
      "note_off channel=0 note=80 velocity=64 time=0\n",
      "note_on channel=0 note=81 velocity=51 time=0\n",
      "note_on channel=0 note=90 velocity=54 time=0\n",
      "note_off channel=0 note=43 velocity=64 time=1\n",
      "note_on channel=0 note=44 velocity=18 time=0\n",
      "note_off channel=0 note=56 velocity=64 time=0\n",
      "note_off channel=0 note=71 velocity=64 time=0\n",
      "note_off channel=0 note=82 velocity=64 time=0\n",
      "note_on channel=0 note=85 velocity=41 time=0\n",
      "note_on channel=0 note=91 velocity=54 time=0\n",
      "note_off channel=0 note=102 velocity=64 time=0\n",
      "note_off channel=0 note=103 velocity=64 time=0\n",
      "note_off channel=0 note=61 velocity=64 time=1\n",
      "note_on channel=0 note=75 velocity=55 time=0\n",
      "note_off channel=0 note=76 velocity=64 time=0\n",
      "note_on channel=0 note=77 velocity=68 time=0\n",
      "note_on channel=0 note=80 velocity=51 time=0\n",
      "note_off channel=0 note=81 velocity=64 time=0\n",
      "note_on channel=0 note=82 velocity=51 time=0\n",
      "note_off channel=0 note=84 velocity=64 time=0\n",
      "note_on channel=0 note=59 velocity=55 time=1\n",
      "note_on channel=0 note=68 velocity=33 time=0\n",
      "note_on channel=0 note=78 velocity=50 time=0\n",
      "note_off channel=0 note=87 velocity=64 time=0\n",
      "note_off channel=0 note=89 velocity=64 time=0\n",
      "note_off channel=0 note=44 velocity=64 time=1\n",
      "note_on channel=0 note=56 velocity=42 time=0\n",
      "note_on channel=0 note=86 velocity=30 time=0\n",
      "note_off channel=0 note=100 velocity=64 time=0\n",
      "note_off channel=0 note=59 velocity=64 time=1\n",
      "note_on channel=0 note=60 velocity=55 time=0\n",
      "note_on channel=0 note=72 velocity=62 time=0\n",
      "note_off channel=0 note=78 velocity=64 time=0\n",
      "note_on channel=0 note=79 velocity=52 time=0\n",
      "note_off channel=0 note=85 velocity=64 time=0\n",
      "note_off channel=0 note=56 velocity=64 time=1\n",
      "note_off channel=0 note=68 velocity=64 time=0\n",
      "note_off channel=0 note=75 velocity=64 time=0\n",
      "note_on channel=0 note=87 velocity=34 time=0\n",
      "note_off channel=0 note=60 velocity=64 time=1\n",
      "note_on channel=0 note=71 velocity=59 time=0\n",
      "note_off channel=0 note=72 velocity=64 time=0\n",
      "note_off channel=0 note=77 velocity=64 time=0\n",
      "note_off channel=0 note=79 velocity=64 time=0\n",
      "note_off channel=0 note=82 velocity=64 time=0\n",
      "note_off channel=0 note=91 velocity=64 time=0\n",
      "note_on channel=0 note=58 velocity=58 time=1\n",
      "note_on channel=0 note=77 velocity=72 time=0\n",
      "note_on channel=0 note=79 velocity=50 time=0\n",
      "note_on channel=0 note=85 velocity=57 time=0\n",
      "note_on channel=0 note=91 velocity=61 time=0\n",
      "note_off channel=0 note=71 velocity=64 time=1\n",
      "note_off channel=0 note=87 velocity=64 time=0\n",
      "note_on channel=0 note=88 velocity=34 time=0\n",
      "note_on channel=0 note=57 velocity=66 time=1\n",
      "note_off channel=0 note=58 velocity=64 time=0\n",
      "note_on channel=0 note=61 velocity=31 time=0\n",
      "note_on channel=0 note=69 velocity=67 time=0\n",
      "note_on channel=0 note=76 velocity=71 time=0\n",
      "note_off channel=0 note=77 velocity=64 time=0\n",
      "note_on channel=0 note=95 velocity=25 time=0\n",
      "note_on channel=0 note=71 velocity=38 time=1\n",
      "note_on channel=0 note=78 velocity=37 time=0\n",
      "note_on channel=0 note=73 velocity=45 time=1\n",
      "note_off channel=0 note=80 velocity=64 time=0\n",
      "note_on channel=0 note=83 velocity=45 time=0\n",
      "note_off channel=0 note=86 velocity=64 time=0\n",
      "note_off channel=0 note=88 velocity=64 time=0\n",
      "note_off channel=0 note=71 velocity=64 time=1\n",
      "note_off channel=0 note=78 velocity=64 time=0\n",
      "note_off channel=0 note=79 velocity=64 time=0\n",
      "note_on channel=0 note=87 velocity=31 time=1\n",
      "note_on channel=0 note=80 velocity=54 time=1\n",
      "note_off channel=0 note=90 velocity=64 time=0\n",
      "note_off channel=0 note=61 velocity=64 time=1\n",
      "note_on channel=0 note=64 velocity=81 time=0\n",
      "note_off channel=0 note=65 velocity=64 time=0\n",
      "note_on channel=0 note=90 velocity=63 time=0\n",
      "note_off channel=0 note=91 velocity=64 time=0\n",
      "note_on channel=0 note=46 velocity=69 time=1\n",
      "note_on channel=0 note=68 velocity=72 time=0\n",
      "note_off channel=0 note=69 velocity=64 time=0\n",
      "note_on channel=0 note=71 velocity=49 time=0\n",
      "note_on channel=0 note=84 velocity=40 time=0\n",
      "note_on channel=0 note=94 velocity=28 time=0\n",
      "note_off channel=0 note=95 velocity=64 time=0\n",
      "note_on channel=0 note=45 velocity=78 time=1\n",
      "note_off channel=0 note=46 velocity=64 time=0\n",
      "note_on channel=0 note=56 velocity=55 time=0\n",
      "note_off channel=0 note=57 velocity=64 time=0\n",
      "note_on channel=0 note=75 velocity=52 time=0\n",
      "note_off channel=0 note=76 velocity=64 time=0\n",
      "note_on channel=0 note=91 velocity=35 time=0\n",
      "note_on channel=0 note=44 velocity=78 time=1\n",
      "note_off channel=0 note=45 velocity=64 time=0\n",
      "note_on channel=0 note=63 velocity=71 time=0\n",
      "note_off channel=0 note=64 velocity=64 time=0\n",
      "note_on channel=0 note=76 velocity=75 time=0\n",
      "note_on channel=0 note=78 velocity=19 time=0\n",
      "note_off channel=0 note=85 velocity=64 time=1\n",
      "note_on channel=0 note=89 velocity=27 time=0\n",
      "note_off channel=0 note=91 velocity=64 time=0\n",
      "note_off channel=0 note=56 velocity=64 time=1\n",
      "note_on channel=0 note=57 velocity=62 time=0\n",
      "note_off channel=0 note=80 velocity=64 time=0\n",
      "note_off channel=0 note=94 velocity=64 time=0\n",
      "note_off channel=0 note=63 velocity=64 time=1\n",
      "note_off channel=0 note=68 velocity=64 time=0\n",
      "note_off channel=0 note=71 velocity=64 time=0\n",
      "note_off channel=0 note=75 velocity=64 time=0\n",
      "note_off channel=0 note=78 velocity=64 time=0\n",
      "note_on channel=0 note=91 velocity=57 time=0\n",
      "note_off channel=0 note=44 velocity=64 time=1\n",
      "note_on channel=0 note=47 velocity=65 time=0\n",
      "note_on channel=0 note=61 velocity=46 time=0\n",
      "note_off channel=0 note=84 velocity=64 time=0\n",
      "note_off channel=0 note=89 velocity=64 time=0\n",
      "note_off channel=0 note=93 velocity=64 time=0\n",
      "note_on channel=0 note=41 velocity=56 time=1\n",
      "note_off channel=0 note=47 velocity=64 time=0\n",
      "note_on channel=0 note=80 velocity=43 time=0\n",
      "note_on channel=0 note=84 velocity=19 time=0\n",
      "note_on channel=0 note=89 velocity=26 time=0\n",
      "note_off channel=0 note=61 velocity=64 time=1\n",
      "note_off channel=0 note=90 velocity=64 time=0\n",
      "note_on channel=0 note=93 velocity=44 time=0\n",
      "note_off channel=0 note=41 velocity=64 time=1\n",
      "note_on channel=0 note=43 velocity=62 time=0\n",
      "note_off channel=0 note=57 velocity=64 time=0\n",
      "note_on channel=0 note=61 velocity=64 time=0\n",
      "note_on channel=0 note=69 velocity=58 time=0\n",
      "note_on channel=0 note=90 velocity=36 time=0\n",
      "note_off channel=0 note=84 velocity=64 time=1\n",
      "note_off channel=0 note=89 velocity=64 time=0\n",
      "note_on channel=0 note=56 velocity=57 time=1\n",
      "note_on channel=0 note=68 velocity=66 time=0\n",
      "note_off channel=0 note=69 velocity=64 time=0\n",
      "note_on channel=0 note=71 velocity=41 time=0\n",
      "note_on channel=0 note=84 velocity=41 time=0\n",
      "note_on channel=0 note=92 velocity=60 time=0\n",
      "note_on channel=0 note=75 velocity=55 time=1\n",
      "note_off channel=0 note=76 velocity=64 time=0\n",
      "note_on channel=0 note=89 velocity=30 time=0\n",
      "note_off channel=0 note=43 velocity=64 time=1\n",
      "note_off channel=0 note=56 velocity=64 time=0\n",
      "note_off channel=0 note=90 velocity=64 time=0\n",
      "note_off channel=0 note=91 velocity=64 time=0\n",
      "note_off channel=0 note=93 velocity=64 time=0\n",
      "note_on channel=0 note=94 velocity=49 time=0\n",
      "note_on channel=0 note=56 velocity=50 time=1\n",
      "note_off channel=0 note=80 velocity=64 time=0\n",
      "note_on channel=0 note=90 velocity=50 time=0\n",
      "note_on channel=0 note=48 velocity=67 time=1\n",
      "note_off channel=0 note=84 velocity=64 time=0\n",
      "note_off channel=0 note=89 velocity=64 time=0\n",
      "note_on channel=0 note=47 velocity=73 time=1\n",
      "note_off channel=0 note=48 velocity=64 time=0\n",
      "note_off channel=0 note=56 velocity=64 time=0\n",
      "note_on channel=0 note=84 velocity=36 time=0\n",
      "note_off channel=0 note=87 velocity=64 time=0\n",
      "note_on channel=0 note=56 velocity=55 time=1\n",
      "note_on channel=0 note=93 velocity=61 time=0\n",
      "note_off channel=0 note=47 velocity=64 time=1\n",
      "note_on channel=0 note=48 velocity=72 time=0\n",
      "note_off channel=0 note=56 velocity=64 time=1\n",
      "note_on channel=0 note=65 velocity=17 time=0\n",
      "note_off channel=0 note=48 velocity=64 time=1\n",
      "note_on channel=0 note=53 velocity=75 time=0\n",
      "note_on channel=0 note=77 velocity=49 time=0\n",
      "note_off channel=0 note=53 velocity=64 time=2\n",
      "note_on channel=0 note=54 velocity=63 time=0\n",
      "note_off channel=0 note=65 velocity=64 time=0\n",
      "note_on channel=0 note=50 velocity=52 time=1\n",
      "note_off channel=0 note=84 velocity=64 time=0\n",
      "note_off channel=0 note=54 velocity=64 time=1\n",
      "note_on channel=0 note=67 velocity=55 time=0\n",
      "note_off channel=0 note=68 velocity=64 time=0\n",
      "note_off channel=0 note=94 velocity=64 time=0\n",
      "note_off channel=0 note=50 velocity=64 time=1\n",
      "note_on channel=0 note=82 velocity=40 time=0\n",
      "note_on channel=0 note=91 velocity=17 time=0\n",
      "note_on channel=0 note=55 velocity=66 time=1\n",
      "note_off channel=0 note=61 velocity=64 time=0\n",
      "note_on channel=0 note=66 velocity=50 time=0\n",
      "note_off channel=0 note=67 velocity=64 time=0\n",
      "note_on channel=0 note=70 velocity=29 time=0\n",
      "note_off channel=0 note=71 velocity=64 time=0\n",
      "note_off channel=0 note=73 velocity=64 time=0\n",
      "note_on channel=0 note=54 velocity=66 time=1\n",
      "note_off channel=0 note=55 velocity=64 time=0\n",
      "note_on channel=0 note=73 velocity=55 time=0\n",
      "note_off channel=0 note=83 velocity=64 time=0\n",
      "note_off channel=0 note=70 velocity=64 time=1\n",
      "note_on channel=0 note=71 velocity=44 time=0\n",
      "note_on channel=0 note=95 velocity=16 time=0\n",
      "note_on channel=0 note=64 velocity=83 time=1\n",
      "note_off channel=0 note=66 velocity=64 time=0\n",
      "note_on channel=0 note=45 velocity=75 time=1\n",
      "note_on channel=0 note=68 velocity=81 time=0\n",
      "note_on channel=0 note=79 velocity=39 time=0\n",
      "note_on channel=0 note=98 velocity=29 time=0\n",
      "note_on channel=0 note=44 velocity=79 time=1\n",
      "note_off channel=0 note=45 velocity=64 time=0\n",
      "note_off channel=0 note=54 velocity=64 time=0\n",
      "note_on channel=0 note=55 velocity=68 time=0\n",
      "note_on channel=0 note=97 velocity=25 time=0\n",
      "note_on channel=0 note=101 velocity=40 time=0\n",
      "note_on channel=0 note=63 velocity=68 time=1\n",
      "note_off channel=0 note=64 velocity=64 time=0\n",
      "note_off channel=0 note=79 velocity=64 time=0\n",
      "note_off channel=0 note=55 velocity=64 time=1\n",
      "note_off channel=0 note=44 velocity=64 time=1\n",
      "note_on channel=0 note=45 velocity=77 time=0\n",
      "note_off channel=0 note=63 velocity=64 time=0\n",
      "note_on channel=0 note=64 velocity=39 time=0\n",
      "note_off channel=0 note=91 velocity=64 time=0\n",
      "note_on channel=0 note=56 velocity=59 time=2\n",
      "note_off channel=0 note=64 velocity=64 time=0\n",
      "note_on channel=0 note=65 velocity=43 time=0\n",
      "note_off channel=0 note=92 velocity=64 time=0\n",
      "note_off channel=0 note=98 velocity=64 time=0\n",
      "note_on channel=0 note=44 velocity=70 time=1\n",
      "note_off channel=0 note=45 velocity=64 time=0\n",
      "note_on channel=0 note=61 velocity=61 time=0\n",
      "note_off channel=0 note=73 velocity=64 time=0\n",
      "note_on channel=0 note=84 velocity=11 time=1\n",
      "note_on channel=0 note=92 velocity=40 time=0\n",
      "note_off channel=0 note=44 velocity=64 time=1\n",
      "note_off channel=0 note=97 velocity=64 time=0\n",
      "note_on channel=0 note=42 velocity=57 time=1\n",
      "note_on channel=0 note=55 velocity=56 time=0\n",
      "note_off channel=0 note=56 velocity=64 time=0\n",
      "note_off channel=0 note=101 velocity=64 time=1\n",
      "note_off channel=0 note=42 velocity=64 time=1\n",
      "note_on channel=0 note=47 velocity=65 time=1\n",
      "note_off channel=0 note=55 velocity=64 time=0\n",
      "note_off channel=0 note=68 velocity=64 time=0\n",
      "note_off channel=0 note=47 velocity=64 time=1\n",
      "note_on channel=0 note=48 velocity=68 time=0\n",
      "note_on channel=0 note=55 velocity=55 time=0\n",
      "note_on channel=0 note=68 velocity=52 time=0\n",
      "note_on channel=0 note=47 velocity=73 time=2\n",
      "note_off channel=0 note=48 velocity=64 time=0\n",
      "note_off channel=0 note=55 velocity=64 time=0\n",
      "note_on channel=0 note=56 velocity=30 time=0\n",
      "note_off channel=0 note=84 velocity=64 time=0\n",
      "note_off channel=0 note=82 velocity=64 time=1\n",
      "note_on channel=0 note=91 velocity=13 time=0\n",
      "note_off channel=0 note=95 velocity=64 time=0\n",
      "note_off channel=0 note=47 velocity=64 time=1\n",
      "note_on channel=0 note=49 velocity=68 time=0\n",
      "note_off channel=0 note=56 velocity=64 time=0\n",
      "note_off channel=0 note=49 velocity=64 time=1\n",
      "note_on channel=0 note=50 velocity=76 time=0\n",
      "note_off channel=0 note=50 velocity=64 time=1\n",
      "note_on channel=0 note=53 velocity=71 time=0\n",
      "note_off channel=0 note=53 velocity=64 time=2\n",
      "note_on channel=0 note=53 velocity=57 time=2\n",
      "note_off channel=0 note=91 velocity=64 time=2\n",
      "note_on channel=0 note=80 velocity=81 time=1\n",
      "note_on channel=0 note=84 velocity=30 time=0\n",
      "note_on channel=0 note=89 velocity=69 time=0\n",
      "note_off channel=0 note=53 velocity=64 time=1\n",
      "note_off channel=0 note=61 velocity=64 time=0\n",
      "note_on channel=0 note=64 velocity=56 time=0\n",
      "note_off channel=0 note=65 velocity=64 time=0\n",
      "note_on channel=0 note=73 velocity=38 time=0\n",
      "note_off channel=0 note=75 velocity=64 time=0\n",
      "note_off channel=0 note=77 velocity=64 time=0\n",
      "note_off channel=0 note=90 velocity=64 time=0\n",
      "note_on channel=0 note=102 velocity=15 time=0\n",
      "note_on channel=0 note=48 velocity=89 time=1\n",
      "note_off channel=0 note=68 velocity=64 time=0\n",
      "note_on channel=0 note=78 velocity=36 time=0\n",
      "note_on channel=0 note=63 velocity=54 time=1\n",
      "note_off channel=0 note=64 velocity=64 time=0\n",
      "note_on channel=0 note=66 velocity=43 time=0\n",
      "note_off channel=0 note=73 velocity=64 time=0\n",
      "note_on channel=0 note=82 velocity=38 time=0\n",
      "note_on channel=0 note=73 velocity=64 time=1\n",
      "note_on channel=0 note=91 velocity=29 time=0\n",
      "note_off channel=0 note=102 velocity=64 time=0\n",
      "note_on channel=0 note=46 velocity=65 time=1\n",
      "note_off channel=0 note=48 velocity=64 time=0\n",
      "note_on channel=0 note=61 velocity=68 time=0\n",
      "note_off channel=0 note=66 velocity=64 time=0\n",
      "note_on channel=0 note=68 velocity=37 time=0\n",
      "note_off channel=0 note=78 velocity=64 time=0\n",
      "note_off channel=0 note=84 velocity=64 time=0\n",
      "note_on channel=0 note=44 velocity=69 time=1\n",
      "note_off channel=0 note=46 velocity=64 time=0\n",
      "note_off channel=0 note=63 velocity=64 time=0\n",
      "note_on channel=0 note=77 velocity=41 time=0\n",
      "note_off channel=0 note=82 velocity=64 time=0\n",
      "note_on channel=0 note=83 velocity=49 time=0\n",
      "note_off channel=0 note=44 velocity=64 time=1\n",
      "note_on channel=0 note=48 velocity=69 time=0\n",
      "note_on channel=0 note=65 velocity=49 time=0\n",
      "note_on channel=0 note=87 velocity=31 time=0\n",
      "note_on channel=0 note=90 velocity=60 time=0\n",
      "note_on channel=0 note=96 velocity=30 time=0\n",
      "note_on channel=0 note=100 velocity=38 time=0\n",
      "note_off channel=0 note=48 velocity=64 time=1\n",
      "note_on channel=0 note=49 velocity=66 time=0\n",
      "note_off channel=0 note=91 velocity=64 time=0\n",
      "note_off channel=0 note=49 velocity=64 time=1\n",
      "note_on channel=0 note=50 velocity=71 time=0\n",
      "note_off channel=0 note=90 velocity=64 time=0\n",
      "note_on channel=0 note=91 velocity=65 time=0\n",
      "note_on channel=0 note=102 velocity=31 time=0\n",
      "note_on channel=0 note=48 velocity=71 time=1\n",
      "note_off channel=0 note=50 velocity=64 time=0\n",
      "note_off channel=0 note=68 velocity=64 time=0\n",
      "note_on channel=0 note=69 velocity=57 time=0\n",
      "note_on channel=0 note=82 velocity=23 time=0\n",
      "note_off channel=0 note=48 velocity=64 time=1\n",
      "note_on channel=0 note=49 velocity=69 time=0\n",
      "note_on channel=0 note=94 velocity=39 time=0\n",
      "note_off channel=0 note=49 velocity=64 time=1\n",
      "note_on channel=0 note=50 velocity=73 time=0\n",
      "note_off channel=0 note=71 velocity=64 time=0\n",
      "note_on channel=0 note=88 velocity=20 time=0\n",
      "note_off channel=0 note=92 velocity=64 time=0\n",
      "note_off channel=0 note=61 velocity=64 time=1\n",
      "note_off channel=0 note=83 velocity=64 time=0\n",
      "note_on channel=0 note=84 velocity=42 time=0\n",
      "note_off channel=0 note=87 velocity=64 time=0\n",
      "note_on channel=0 note=90 velocity=18 time=0\n",
      "note_on channel=0 note=75 velocity=28 time=1\n",
      "note_on channel=0 note=87 velocity=49 time=0\n",
      "note_on channel=0 note=95 velocity=37 time=0\n",
      "note_on channel=0 note=71 velocity=35 time=1\n",
      "note_off channel=0 note=77 velocity=64 time=0\n",
      "note_off channel=0 note=82 velocity=64 time=0\n",
      "note_on channel=0 note=83 velocity=40 time=0\n",
      "note_off channel=0 note=84 velocity=64 time=0\n",
      "note_off channel=0 note=88 velocity=64 time=0\n",
      "note_on channel=0 note=49 velocity=70 time=1\n",
      "note_off channel=0 note=50 velocity=64 time=0\n",
      "note_on channel=0 note=68 velocity=59 time=0\n",
      "note_off channel=0 note=69 velocity=64 time=0\n",
      "note_off channel=0 note=90 velocity=64 time=0\n",
      "note_off channel=0 note=94 velocity=64 time=0\n",
      "note_off channel=0 note=71 velocity=64 time=1\n",
      "note_on channel=0 note=88 velocity=9 time=0\n",
      "note_on channel=0 note=90 velocity=32 time=0\n",
      "note_on channel=0 note=94 velocity=39 time=0\n",
      "note_off channel=0 note=96 velocity=64 time=0\n",
      "note_off channel=0 note=83 velocity=64 time=1\n",
      "note_off channel=0 note=91 velocity=64 time=0\n",
      "note_off channel=0 note=73 velocity=64 time=1\n",
      "note_on channel=0 note=76 velocity=28 time=0\n",
      "note_on channel=0 note=83 velocity=36 time=0\n",
      "note_on channel=0 note=97 velocity=18 time=0\n",
      "note_off channel=0 note=75 velocity=64 time=1\n",
      "note_off channel=0 note=88 velocity=64 time=0\n",
      "note_off channel=0 note=90 velocity=64 time=0\n",
      "note_on channel=0 note=91 velocity=33 time=0\n",
      "note_off channel=0 note=94 velocity=64 time=0\n",
      "note_on channel=0 note=96 velocity=26 time=0\n",
      "note_on channel=0 note=71 velocity=30 time=1\n",
      "note_on channel=0 note=75 velocity=16 time=0\n",
      "note_off channel=0 note=93 velocity=64 time=0\n",
      "note_on channel=0 note=94 velocity=58 time=0\n",
      "note_off channel=0 note=76 velocity=64 time=1\n",
      "note_on channel=0 note=90 velocity=11 time=0\n",
      "note_off channel=0 note=97 velocity=64 time=1\n",
      "note_off channel=0 note=102 velocity=64 time=0\n",
      "note_on channel=0 note=60 velocity=55 time=1\n",
      "note_off channel=0 note=68 velocity=64 time=0\n",
      "note_off channel=0 note=91 velocity=64 time=0\n",
      "note_on channel=0 note=93 velocity=60 time=0\n",
      "note_off channel=0 note=95 velocity=64 time=0\n",
      "note_off channel=0 note=96 velocity=64 time=0\n",
      "note_off channel=0 note=100 velocity=64 time=0\n",
      "note_on channel=0 note=68 velocity=56 time=1\n",
      "note_on channel=0 note=91 velocity=47 time=0\n",
      "note_off channel=0 note=94 velocity=64 time=0\n",
      "note_off channel=0 note=71 velocity=64 time=1\n",
      "note_on channel=0 note=100 velocity=37 time=0\n",
      "note_on channel=0 note=102 velocity=48 time=0\n",
      "note_off channel=0 note=49 velocity=64 time=1\n",
      "note_on channel=0 note=73 velocity=59 time=0\n",
      "note_off channel=0 note=75 velocity=64 time=0\n",
      "note_on channel=0 note=94 velocity=41 time=0\n",
      "note_on channel=0 note=48 velocity=66 time=1\n",
      "note_on channel=0 note=82 velocity=34 time=0\n",
      "note_off channel=0 note=83 velocity=64 time=0\n",
      "note_off channel=0 note=90 velocity=64 time=0\n",
      "note_off channel=0 note=60 velocity=64 time=1\n",
      "note_on channel=0 note=61 velocity=73 time=0\n",
      "note_on channel=0 note=76 velocity=48 time=0\n",
      "note_on channel=0 note=90 velocity=41 time=0\n",
      "note_off channel=0 note=91 velocity=64 time=0\n",
      "note_on channel=0 note=96 velocity=25 time=0\n",
      "note_on channel=0 note=97 velocity=23 time=0\n",
      "note_off channel=0 note=65 velocity=64 time=1\n",
      "note_off channel=0 note=82 velocity=64 time=0\n",
      "note_on channel=0 note=83 velocity=52 time=0\n",
      "note_on channel=0 note=84 velocity=45 time=0\n",
      "note_on channel=0 note=46 velocity=67 time=1\n",
      "note_off channel=0 note=48 velocity=64 time=0\n",
      "note_on channel=0 note=77 velocity=41 time=0\n",
      "note_on channel=0 note=44 velocity=80 time=1\n",
      "note_off channel=0 note=46 velocity=64 time=0\n",
      "note_off channel=0 note=68 velocity=64 time=0\n",
      "note_on channel=0 note=78 velocity=33 time=0\n",
      "note_on channel=0 note=65 velocity=49 time=1\n",
      "note_on channel=0 note=75 velocity=38 time=0\n",
      "note_off channel=0 note=76 velocity=64 time=0\n",
      "note_off channel=0 note=90 velocity=64 time=0\n",
      "note_on channel=0 note=91 velocity=38 time=0\n",
      "note_off channel=0 note=94 velocity=64 time=0\n",
      "note_off channel=0 note=77 velocity=64 time=1\n",
      "note_on channel=0 note=90 velocity=44 time=0\n",
      "note_on channel=0 note=43 velocity=77 time=1\n",
      "note_off channel=0 note=44 velocity=64 time=0\n",
      "note_on channel=0 note=68 velocity=51 time=0\n",
      "note_off channel=0 note=91 velocity=64 time=0\n",
      "note_on channel=0 note=94 velocity=36 time=0\n",
      "note_off channel=0 note=43 velocity=64 time=1\n",
      "note_on channel=0 note=44 velocity=76 time=0\n",
      "note_off channel=0 note=78 velocity=64 time=0\n",
      "note_on channel=0 note=82 velocity=34 time=0\n",
      "note_off channel=0 note=83 velocity=64 time=0\n",
      "note_off channel=0 note=84 velocity=64 time=0\n",
      "note_off channel=0 note=97 velocity=64 time=0\n",
      "note_on channel=0 note=43 velocity=73 time=1\n",
      "note_off channel=0 note=44 velocity=64 time=0\n",
      "note_on channel=0 note=60 velocity=58 time=0\n",
      "note_off channel=0 note=61 velocity=64 time=0\n",
      "note_on channel=0 note=67 velocity=57 time=0\n",
      "note_off channel=0 note=68 velocity=64 time=0\n",
      "note_on channel=0 note=72 velocity=58 time=0\n",
      "note_off channel=0 note=73 velocity=64 time=0\n",
      "note_on channel=0 note=83 velocity=65 time=0\n",
      "note_on channel=0 note=91 velocity=45 time=0\n",
      "note_off channel=0 note=93 velocity=64 time=0\n",
      "note_off channel=0 note=100 velocity=64 time=0\n",
      "note_off channel=0 note=65 velocity=64 time=1\n",
      "note_off channel=0 note=82 velocity=64 time=0\n",
      "note_on channel=0 note=93 velocity=53 time=0\n",
      "note_off channel=0 note=94 velocity=64 time=0\n",
      "note_off channel=0 note=43 velocity=64 time=1\n",
      "note_on channel=0 note=66 velocity=54 time=0\n",
      "note_off channel=0 note=91 velocity=64 time=0\n",
      "note_on channel=0 note=94 velocity=34 time=0\n",
      "note_on channel=0 note=43 velocity=52 time=1\n",
      "note_on channel=0 note=59 velocity=45 time=0\n",
      "note_off channel=0 note=60 velocity=64 time=0\n",
      "note_off channel=0 note=67 velocity=64 time=0\n",
      "note_on channel=0 note=71 velocity=58 time=0\n",
      "note_off channel=0 note=72 velocity=64 time=0\n",
      "note_on channel=0 note=91 velocity=39 time=0\n",
      "note_on channel=0 note=100 velocity=16 time=0\n",
      "note_off channel=0 note=43 velocity=64 time=2\n",
      "note_off channel=0 note=59 velocity=64 time=0\n",
      "note_on channel=0 note=60 velocity=49 time=0\n",
      "note_off channel=0 note=90 velocity=64 time=0\n",
      "note_off channel=0 note=96 velocity=64 time=0\n",
      "note_off channel=0 note=66 velocity=64 time=1\n",
      "note_off channel=0 note=100 velocity=64 time=0\n",
      "note_on channel=0 note=59 velocity=42 time=1\n",
      "note_off channel=0 note=60 velocity=64 time=0\n",
      "note_on channel=0 note=66 velocity=55 time=0\n",
      "note_on channel=0 note=90 velocity=30 time=0\n",
      "note_off channel=0 note=91 velocity=64 time=0\n",
      "note_on channel=0 note=96 velocity=22 time=0\n",
      "note_off channel=0 note=66 velocity=64 time=2\n",
      "note_on channel=0 note=73 velocity=20 time=0\n",
      "note_on channel=0 note=91 velocity=41 time=0\n",
      "note_on channel=0 note=47 velocity=40 time=1\n",
      "note_off channel=0 note=93 velocity=64 time=0\n",
      "note_on channel=0 note=65 velocity=45 time=1\n",
      "note_on channel=0 note=66 velocity=47 time=1\n",
      "note_off channel=0 note=65 velocity=64 time=1\n",
      "note_off channel=0 note=75 velocity=64 time=0\n",
      "note_on channel=0 note=93 velocity=51 time=0\n",
      "note_on channel=0 note=75 velocity=36 time=1\n",
      "note_off channel=0 note=102 velocity=64 time=0\n",
      "note_on channel=0 note=65 velocity=39 time=1\n",
      "note_off channel=0 note=66 velocity=64 time=0\n",
      "note_off channel=0 note=90 velocity=64 time=0\n",
      "note_off channel=0 note=96 velocity=64 time=0\n",
      "note_off channel=0 note=47 velocity=64 time=1\n",
      "note_off channel=0 note=59 velocity=64 time=0\n",
      "note_on channel=0 note=60 velocity=55 time=0\n",
      "note_off channel=0 note=94 velocity=64 time=0\n",
      "note_on channel=0 note=49 velocity=51 time=1\n",
      "note_off channel=0 note=65 velocity=64 time=0\n",
      "note_on channel=0 note=67 velocity=44 time=0\n",
      "note_off channel=0 note=71 velocity=64 time=0\n",
      "note_on channel=0 note=71 velocity=38 time=1\n",
      "note_off channel=0 note=73 velocity=64 time=0\n",
      "note_on channel=0 note=90 velocity=64 time=0\n",
      "note_on channel=0 note=48 velocity=59 time=1\n",
      "note_off channel=0 note=49 velocity=64 time=0\n",
      "note_on channel=0 note=73 velocity=50 time=0\n",
      "note_off channel=0 note=60 velocity=64 time=1\n",
      "note_on channel=0 note=61 velocity=61 time=0\n",
      "note_off channel=0 note=67 velocity=64 time=0\n",
      "note_on channel=0 note=68 velocity=69 time=0\n",
      "note_off channel=0 note=48 velocity=64 time=1\n",
      "note_on channel=0 note=49 velocity=60 time=0\n",
      "note_off channel=0 note=91 velocity=64 time=0\n",
      "note_off channel=0 note=49 velocity=64 time=2\n",
      "note_off channel=0 note=61 velocity=64 time=0\n",
      "note_on channel=0 note=64 velocity=80 time=0\n",
      "note_off channel=0 note=75 velocity=64 time=0\n",
      "note_on channel=0 note=96 velocity=27 time=0\n",
      "note_on channel=0 note=44 velocity=75 time=1\n",
      "note_off channel=0 note=44 velocity=64 time=1\n",
      "note_on channel=0 note=45 velocity=80 time=0\n",
      "note_on channel=0 note=63 velocity=72 time=0\n",
      "note_off channel=0 note=64 velocity=64 time=0\n",
      "note_off channel=0 note=71 velocity=64 time=0\n",
      "note_on channel=0 note=44 velocity=75 time=1\n",
      "note_off channel=0 note=45 velocity=64 time=0\n",
      "note_on channel=0 note=43 velocity=81 time=1\n",
      "note_off channel=0 note=44 velocity=64 time=0\n",
      "note_off channel=0 note=43 velocity=64 time=1\n",
      "note_on channel=0 note=45 velocity=78 time=0\n",
      "note_on channel=0 note=61 velocity=62 time=0\n",
      "note_off channel=0 note=63 velocity=64 time=0\n",
      "note_off channel=0 note=45 velocity=64 time=1\n",
      "note_on channel=0 note=71 velocity=19 time=0\n",
      "note_on channel=0 note=94 velocity=24 time=1\n",
      "note_on channel=0 note=82 velocity=46 time=1\n",
      "note_on channel=0 note=42 velocity=62 time=1\n",
      "note_off channel=0 note=83 velocity=64 time=0\n",
      "note_off channel=0 note=82 velocity=64 time=1\n",
      "note_on channel=0 note=83 velocity=51 time=0\n",
      "note_off channel=0 note=71 velocity=64 time=1\n",
      "note_off channel=0 note=96 velocity=64 time=0\n",
      "note_off channel=0 note=61 velocity=64 time=1\n",
      "note_on channel=0 note=62 velocity=53 time=0\n",
      "note_on channel=0 note=67 velocity=51 time=0\n",
      "note_off channel=0 note=68 velocity=64 time=0\n",
      "note_on channel=0 note=76 velocity=30 time=0\n",
      "note_on channel=0 note=82 velocity=40 time=0\n",
      "note_on channel=0 note=84 velocity=32 time=0\n",
      "note_on channel=0 note=91 velocity=51 time=0\n",
      "note_on channel=0 note=72 velocity=46 time=1\n",
      "note_off channel=0 note=73 velocity=64 time=0\n",
      "note_off channel=0 note=42 velocity=64 time=1\n",
      "note_on channel=0 note=61 velocity=66 time=0\n",
      "note_off channel=0 note=62 velocity=64 time=0\n",
      "note_on channel=0 note=85 velocity=40 time=0\n",
      "note_on channel=0 note=48 velocity=82 time=1\n",
      "note_off channel=0 note=83 velocity=64 time=0\n",
      "note_off channel=0 note=67 velocity=64 time=1\n",
      "note_off channel=0 note=82 velocity=64 time=0\n",
      "note_on channel=0 note=83 velocity=41 time=0\n",
      "note_off channel=0 note=72 velocity=64 time=1\n",
      "note_on channel=0 note=74 velocity=48 time=0\n",
      "note_off channel=0 note=76 velocity=64 time=0\n",
      "note_on channel=0 note=77 velocity=32 time=0\n",
      "note_off channel=0 note=80 velocity=64 time=0\n",
      "note_off channel=0 note=84 velocity=64 time=0\n",
      "note_on channel=0 note=88 velocity=33 time=0\n",
      "note_on channel=0 note=96 velocity=20 time=0\n",
      "note_off channel=0 note=61 velocity=64 time=1\n",
      "note_on channel=0 note=62 velocity=51 time=0\n",
      "note_on channel=0 note=69 velocity=35 time=0\n",
      "note_on channel=0 note=84 velocity=30 time=0\n",
      "note_off channel=0 note=91 velocity=64 time=0\n",
      "note_off channel=0 note=48 velocity=64 time=1\n",
      "note_on channel=0 note=49 velocity=76 time=0\n",
      "note_on channel=0 note=71 velocity=34 time=0\n",
      "note_on channel=0 note=73 velocity=36 time=0\n",
      "note_on channel=0 note=80 velocity=42 time=0\n",
      "note_off channel=0 note=62 velocity=64 time=1\n",
      "note_on channel=0 note=68 velocity=30 time=0\n",
      "note_off channel=0 note=69 velocity=64 time=0\n",
      "note_off channel=0 note=74 velocity=64 time=0\n",
      "note_on channel=0 note=75 velocity=31 time=0\n",
      "note_off channel=0 note=49 velocity=64 time=1\n",
      "note_on channel=0 note=52 velocity=71 time=0\n",
      "note_on channel=0 note=65 velocity=48 time=0\n",
      "note_off channel=0 note=71 velocity=64 time=0\n",
      "note_off channel=0 note=80 velocity=64 time=0\n",
      "note_on channel=0 note=81 velocity=36 time=0\n",
      "note_on channel=0 note=86 velocity=20 time=0\n",
      "note_off channel=0 note=94 velocity=64 time=0\n",
      "note_on channel=0 note=61 velocity=30 time=1\n",
      "note_off channel=0 note=68 velocity=64 time=0\n",
      "note_on channel=0 note=71 velocity=40 time=0\n",
      "note_on channel=0 note=78 velocity=21 time=0\n",
      "note_off channel=0 note=87 velocity=64 time=0\n",
      "note_off channel=0 note=90 velocity=64 time=0\n",
      "note_off channel=0 note=96 velocity=64 time=0\n",
      "note_off channel=0 note=65 velocity=64 time=1\n",
      "note_on channel=0 note=66 velocity=73 time=0\n",
      "note_off channel=0 note=73 velocity=64 time=0\n",
      "note_off channel=0 note=81 velocity=64 time=0\n",
      "note_on channel=0 note=82 velocity=51 time=0\n",
      "note_off channel=0 note=83 velocity=64 time=0\n",
      "note_off channel=0 note=84 velocity=64 time=0\n",
      "note_off channel=0 note=88 velocity=64 time=0\n",
      "note_off channel=0 note=89 velocity=64 time=0\n",
      "note_on channel=0 note=90 velocity=25 time=0\n",
      "note_off channel=0 note=93 velocity=64 time=0\n",
      "note_off channel=0 note=52 velocity=64 time=1\n",
      "note_off channel=0 note=61 velocity=64 time=0\n",
      "note_on channel=0 note=73 velocity=42 time=0\n",
      "note_off channel=0 note=86 velocity=64 time=0\n",
      "note_on channel=0 note=53 velocity=66 time=1\n",
      "note_off channel=0 note=75 velocity=64 time=0\n",
      "note_off channel=0 note=53 velocity=64 time=1\n",
      "note_on channel=0 note=54 velocity=71 time=0\n",
      "note_off channel=0 note=78 velocity=64 time=0\n",
      "note_on channel=0 note=74 velocity=29 time=2\n",
      "note_off channel=0 note=77 velocity=64 time=0\n",
      "note_on channel=0 note=64 velocity=81 time=1\n",
      "note_off channel=0 note=71 velocity=64 time=0\n",
      "note_on channel=0 note=77 velocity=49 time=0\n",
      "note_on channel=0 note=81 velocity=58 time=0\n",
      "note_off channel=0 note=82 velocity=64 time=0\n",
      "note_on channel=0 note=83 velocity=53 time=0\n",
      "note_on channel=0 note=84 velocity=62 time=0\n",
      "note_off channel=0 note=85 velocity=64 time=0\n",
      "note_on channel=0 note=87 velocity=30 time=0\n",
      "note_off channel=0 note=90 velocity=64 time=0\n",
      "note_on channel=0 note=91 velocity=22 time=0\n",
      "note_on channel=0 note=97 velocity=12 time=0\n",
      "note_on channel=0 note=45 velocity=77 time=1\n",
      "note_on channel=0 note=53 velocity=71 time=0\n",
      "note_off channel=0 note=54 velocity=64 time=0\n",
      "note_off channel=0 note=66 velocity=64 time=0\n",
      "note_on channel=0 note=67 velocity=68 time=0\n",
      "note_on channel=0 note=72 velocity=58 time=0\n",
      "note_off channel=0 note=73 velocity=64 time=0\n",
      "note_off channel=0 note=74 velocity=64 time=0\n",
      "note_on channel=0 note=90 velocity=47 time=0\n",
      "note_on channel=0 note=44 velocity=79 time=2\n",
      "note_off channel=0 note=45 velocity=64 time=0\n",
      "note_on channel=0 note=63 velocity=68 time=0\n",
      "note_off channel=0 note=64 velocity=64 time=0\n",
      "note_off channel=0 note=67 velocity=64 time=0\n",
      "note_on channel=0 note=69 velocity=41 time=0\n",
      "note_off channel=0 note=83 velocity=64 time=0\n",
      "note_on channel=0 note=86 velocity=41 time=0\n",
      "note_on channel=0 note=88 velocity=50 time=0\n",
      "note_on channel=0 note=92 velocity=35 time=0\n",
      "note_on channel=0 note=52 velocity=62 time=1\n",
      "note_off channel=0 note=53 velocity=64 time=0\n",
      "note_on channel=0 note=76 velocity=42 time=0\n",
      "note_off channel=0 note=77 velocity=64 time=0\n",
      "note_on channel=0 note=80 velocity=62 time=0\n",
      "note_off channel=0 note=81 velocity=64 time=0\n",
      "note_on channel=0 note=83 velocity=66 time=0\n",
      "note_off channel=0 note=84 velocity=64 time=0\n",
      "note_off channel=0 note=91 velocity=64 time=0\n",
      "note_off channel=0 note=97 velocity=64 time=0\n",
      "note_on channel=0 note=71 velocity=58 time=1\n",
      "note_off channel=0 note=72 velocity=64 time=0\n",
      "note_on channel=0 note=89 velocity=24 time=0\n",
      "note_off channel=0 note=63 velocity=64 time=1\n",
      "note_off channel=0 note=69 velocity=64 time=0\n",
      "note_off channel=0 note=87 velocity=64 time=0\n",
      "note_on channel=0 note=93 velocity=33 time=0\n",
      "note_on channel=0 note=96 velocity=16 time=0\n",
      "note_on channel=0 note=103 velocity=14 time=0\n",
      "note_off channel=0 note=44 velocity=64 time=1\n",
      "note_on channel=0 note=51 velocity=69 time=0\n",
      "note_off channel=0 note=52 velocity=64 time=0\n",
      "note_on channel=0 note=67 velocity=29 time=0\n",
      "note_on channel=0 note=85 velocity=52 time=0\n",
      "note_off channel=0 note=86 velocity=64 time=0\n",
      "note_off channel=0 note=51 velocity=64 time=1\n",
      "note_on channel=0 note=52 velocity=65 time=0\n",
      "note_on channel=0 note=73 velocity=27 time=0\n",
      "note_on channel=0 note=43 velocity=61 time=1\n",
      "note_off channel=0 note=67 velocity=64 time=1\n",
      "note_on channel=0 note=68 velocity=14 time=1\n",
      "note_on channel=0 note=42 velocity=56 time=1\n",
      "note_off channel=0 note=43 velocity=64 time=0\n",
      "note_on channel=0 note=87 velocity=82 time=0\n",
      "note_off channel=0 note=89 velocity=64 time=0\n",
      "note_on channel=0 note=101 velocity=23 time=0\n",
      "note_on channel=0 note=61 velocity=59 time=1\n",
      "note_off channel=0 note=42 velocity=64 time=1\n",
      "note_off channel=0 note=68 velocity=64 time=0\n",
      "note_off channel=0 note=73 velocity=64 time=0\n",
      "note_off channel=0 note=85 velocity=64 time=0\n",
      "note_on channel=0 note=51 velocity=71 time=1\n",
      "note_off channel=0 note=52 velocity=64 time=0\n",
      "note_on channel=0 note=67 velocity=40 time=0\n",
      "note_on channel=0 note=85 velocity=49 time=0\n",
      "note_off channel=0 note=51 velocity=64 time=1\n",
      "note_on channel=0 note=52 velocity=68 time=0\n",
      "note_on channel=0 note=77 velocity=33 time=0\n",
      "note_on channel=0 note=91 velocity=29 time=0\n",
      "note_off channel=0 note=103 velocity=64 time=0\n",
      "note_on channel=0 note=47 velocity=73 time=1\n",
      "note_off channel=0 note=52 velocity=64 time=0\n",
      "note_off channel=0 note=71 velocity=64 time=0\n",
      "note_off channel=0 note=92 velocity=64 time=0\n",
      "note_off channel=0 note=96 velocity=64 time=0\n",
      "note_off channel=0 note=101 velocity=64 time=0\n",
      "note_off channel=0 note=47 velocity=64 time=1\n",
      "note_on channel=0 note=48 velocity=77 time=0\n",
      "note_on channel=0 note=71 velocity=26 time=0\n",
      "note_off channel=0 note=93 velocity=64 time=0\n",
      "note_off channel=0 note=76 velocity=64 time=1\n",
      "note_off channel=0 note=80 velocity=64 time=0\n",
      "note_off channel=0 note=88 velocity=64 time=0\n",
      "note_off channel=0 note=48 velocity=64 time=1\n",
      "note_on channel=0 note=50 velocity=82 time=0\n",
      "note_on channel=0 note=65 velocity=34 time=0\n",
      "note_off channel=0 note=90 velocity=64 time=0\n",
      "note_off channel=0 note=50 velocity=64 time=1\n",
      "note_on channel=0 note=52 velocity=80 time=0\n",
      "note_off channel=0 note=67 velocity=64 time=0\n",
      "note_on channel=0 note=68 velocity=32 time=0\n",
      "note_on channel=0 note=75 velocity=22 time=0\n",
      "note_off channel=0 note=52 velocity=64 time=1\n",
      "note_on channel=0 note=53 velocity=68 time=0\n",
      "note_off channel=0 note=53 velocity=64 time=2\n",
      "note_on channel=0 note=53 velocity=61 time=1\n",
      "note_off channel=0 note=61 velocity=64 time=1\n",
      "note_off channel=0 note=53 velocity=64 time=1\n",
      "note_off channel=0 note=65 velocity=64 time=0\n",
      "note_on channel=0 note=67 velocity=69 time=0\n",
      "note_on channel=0 note=90 velocity=37 time=0\n",
      "note_on channel=0 note=92 velocity=51 time=0\n",
      "note_off channel=0 note=68 velocity=64 time=1\n",
      "note_off channel=0 note=71 velocity=64 time=0\n",
      "note_off channel=0 note=75 velocity=64 time=0\n",
      "note_on channel=0 note=78 velocity=32 time=0\n",
      "note_on channel=0 note=89 velocity=79 time=0\n",
      "note_on channel=0 note=96 velocity=29 time=0\n",
      "note_on channel=0 note=100 velocity=27 time=0\n",
      "note_off channel=0 note=77 velocity=64 time=1\n",
      "note_on channel=0 note=84 velocity=22 time=0\n",
      "note_off channel=0 note=92 velocity=64 time=0\n",
      "note_on channel=0 note=93 velocity=57 time=0\n",
      "note_on channel=0 note=94 velocity=47 time=0\n",
      "note_on channel=0 note=48 velocity=88 time=1\n",
      "note_on channel=0 note=66 velocity=72 time=0\n",
      "note_off channel=0 note=67 velocity=64 time=0\n",
      "note_on channel=0 note=73 velocity=61 time=0\n",
      "note_on channel=0 note=76 velocity=48 time=0\n",
      "note_off channel=0 note=78 velocity=64 time=0\n",
      "note_on channel=0 note=80 velocity=81 time=0\n",
      "note_off channel=0 note=90 velocity=64 time=0\n",
      "note_off channel=0 note=93 velocity=64 time=1\n",
      "note_on channel=0 note=54 velocity=60 time=1\n",
      "note_on channel=0 note=63 velocity=45 time=0\n",
      "note_off channel=0 note=76 velocity=64 time=0\n",
      "note_on channel=0 note=46 velocity=69 time=1\n",
      "note_off channel=0 note=48 velocity=64 time=0\n",
      "note_off channel=0 note=54 velocity=64 time=1\n",
      "note_off channel=0 note=63 velocity=64 time=0\n",
      "note_on channel=0 note=93 velocity=16 time=0\n",
      "note_off channel=0 note=96 velocity=64 time=0\n",
      "note_off channel=0 note=100 velocity=64 time=0\n",
      "note_off channel=0 note=46 velocity=64 time=1\n",
      "note_on channel=0 note=47 velocity=69 time=0\n",
      "note_off channel=0 note=94 velocity=64 time=0\n",
      "note_off channel=0 note=47 velocity=64 time=1\n",
      "note_off channel=0 note=66 velocity=64 time=0\n",
      "note_on channel=0 note=68 velocity=27 time=0\n",
      "note_on channel=0 note=71 velocity=18 time=0\n",
      "note_on channel=0 note=77 velocity=34 time=0\n",
      "note_on channel=0 note=45 velocity=60 time=1\n",
      "note_off channel=0 note=73 velocity=64 time=0\n",
      "note_on channel=0 note=73 velocity=33 time=1\n",
      "note_off channel=0 note=77 velocity=64 time=0\n",
      "note_off channel=0 note=71 velocity=64 time=1\n",
      "note_off channel=0 note=93 velocity=64 time=0\n",
      "note_on channel=0 note=54 velocity=36 time=1\n",
      "note_on channel=0 note=61 velocity=16 time=0\n",
      "note_on channel=0 note=71 velocity=45 time=0\n",
      "note_on channel=0 note=78 velocity=21 time=0\n",
      "note_on channel=0 note=44 velocity=51 time=1\n",
      "note_off channel=0 note=45 velocity=64 time=0\n",
      "note_on channel=0 note=65 velocity=29 time=1\n",
      "note_on channel=0 note=77 velocity=49 time=0\n",
      "note_on channel=0 note=75 velocity=82 time=1\n",
      "note_off channel=0 note=78 velocity=64 time=0\n",
      "note_on channel=0 note=86 velocity=30 time=0\n",
      "note_off channel=0 note=54 velocity=64 time=1\n",
      "note_on channel=0 note=82 velocity=23 time=0\n",
      "note_off channel=0 note=83 velocity=64 time=0\n",
      "note_off channel=0 note=85 velocity=64 time=0\n",
      "note_on channel=0 note=43 velocity=36 time=1\n",
      "note_off channel=0 note=44 velocity=64 time=0\n",
      "note_on channel=0 note=54 velocity=30 time=0\n",
      "note_off channel=0 note=61 velocity=64 time=0\n",
      "note_on channel=0 note=85 velocity=33 time=0\n",
      "note_off channel=0 note=86 velocity=64 time=1\n",
      "note_off channel=0 note=43 velocity=64 time=1\n",
      "note_off channel=0 note=54 velocity=64 time=0\n",
      "note_on channel=0 note=86 velocity=29 time=0\n",
      "note_on channel=0 note=43 velocity=22 time=1\n",
      "note_on channel=0 note=54 velocity=33 time=0\n",
      "note_off channel=0 note=85 velocity=64 time=0\n",
      "note_on channel=0 note=85 velocity=33 time=1\n",
      "note_off channel=0 note=86 velocity=64 time=0\n",
      "note_off channel=0 note=54 velocity=64 time=1\n",
      "note_on channel=0 note=86 velocity=31 time=0\n",
      "note_off channel=0 note=43 velocity=64 time=1\n",
      "note_on channel=0 note=54 velocity=26 time=0\n",
      "note_on channel=0 note=61 velocity=53 time=0\n",
      "note_off channel=0 note=82 velocity=64 time=0\n",
      "note_off channel=0 note=85 velocity=64 time=0\n",
      "note_off channel=0 note=86 velocity=64 time=1\n",
      "note_on channel=0 note=42 velocity=26 time=1\n",
      "note_on channel=0 note=86 velocity=30 time=0\n",
      "note_off channel=0 note=91 velocity=64 time=1\n",
      "note_off channel=0 note=54 velocity=64 time=1\n",
      "note_on channel=0 note=56 velocity=53 time=0\n",
      "note_off channel=0 note=65 velocity=64 time=1\n",
      "note_on channel=0 note=67 velocity=64 time=0\n",
      "note_off channel=0 note=68 velocity=64 time=0\n",
      "note_on channel=0 note=88 velocity=35 time=0\n",
      "note_on channel=0 note=55 velocity=67 time=1\n",
      "note_off channel=0 note=56 velocity=64 time=0\n",
      "note_off channel=0 note=42 velocity=64 time=1\n",
      "note_off channel=0 note=67 velocity=64 time=0\n",
      "note_on channel=0 note=68 velocity=73 time=0\n",
      "note_off channel=0 note=73 velocity=64 time=0\n",
      "note_off channel=0 note=84 velocity=64 time=0\n",
      "note_on channel=0 note=85 velocity=42 time=0\n",
      "note_on channel=0 note=94 velocity=44 time=0\n",
      "note_on channel=0 note=95 velocity=41 time=0\n",
      "note_on channel=0 note=100 velocity=46 time=0\n",
      "note_on channel=0 note=102 velocity=57 time=0\n",
      "note_off channel=0 note=55 velocity=64 time=1\n",
      "note_on channel=0 note=56 velocity=62 time=0\n",
      "note_on channel=0 note=84 velocity=62 time=0\n",
      "note_off channel=0 note=86 velocity=64 time=0\n",
      "note_off channel=0 note=88 velocity=64 time=0\n",
      "note_on channel=0 note=103 velocity=47 time=0\n",
      "note_on channel=0 note=46 velocity=72 time=1\n",
      "note_off channel=0 note=71 velocity=64 time=0\n",
      "note_on channel=0 note=90 velocity=72 time=0\n",
      "note_on channel=0 note=91 velocity=20 time=0\n",
      "note_on channel=0 note=45 velocity=76 time=1\n",
      "note_off channel=0 note=46 velocity=64 time=0\n",
      "note_on channel=0 note=63 velocity=44 time=0\n",
      "note_off channel=0 note=90 velocity=64 time=0\n",
      "note_on channel=0 note=44 velocity=77 time=1\n",
      "note_off channel=0 note=45 velocity=64 time=0\n",
      "note_off channel=0 note=61 velocity=64 time=0\n",
      "note_on channel=0 note=90 velocity=76 time=0\n",
      "note_on channel=0 note=71 velocity=60 time=1\n",
      "note_on channel=0 note=82 velocity=41 time=0\n",
      "note_off channel=0 note=89 velocity=64 time=0\n",
      "note_off channel=0 note=91 velocity=64 time=0\n",
      "note_off channel=0 note=95 velocity=64 time=0\n",
      "note_off channel=0 note=63 velocity=64 time=1\n",
      "note_on channel=0 note=43 velocity=71 time=1\n",
      "note_off channel=0 note=44 velocity=64 time=0\n",
      "note_on channel=0 note=88 velocity=29 time=0\n",
      "note_off channel=0 note=56 velocity=64 time=1\n",
      "note_on channel=0 note=62 velocity=37 time=0\n",
      "note_off channel=0 note=85 velocity=64 time=0\n",
      "note_on channel=0 note=89 velocity=75 time=0\n",
      "note_off channel=0 note=90 velocity=64 time=0\n",
      "note_off channel=0 note=102 velocity=64 time=0\n",
      "note_on channel=0 note=56 velocity=58 time=1\n",
      "note_on channel=0 note=65 velocity=34 time=0\n",
      "note_off channel=0 note=82 velocity=64 time=0\n",
      "note_on channel=0 note=85 velocity=28 time=0\n",
      "note_off channel=0 note=103 velocity=64 time=0\n",
      "note_off channel=0 note=56 velocity=64 time=3\n",
      "note_on channel=0 note=61 velocity=26 time=0\n",
      "note_off channel=0 note=62 velocity=64 time=0\n",
      "note_off channel=0 note=80 velocity=64 time=0\n",
      "note_on channel=0 note=56 velocity=57 time=1\n",
      "note_off channel=0 note=88 velocity=64 time=1\n",
      "note_on channel=0 note=90 velocity=62 time=0\n",
      "note_off channel=0 note=43 velocity=64 time=1\n",
      "note_on channel=0 note=44 velocity=15 time=0\n",
      "note_off channel=0 note=56 velocity=64 time=0\n",
      "note_on channel=0 note=57 velocity=60 time=0\n",
      "note_off channel=0 note=77 velocity=64 time=0\n",
      "note_off channel=0 note=100 velocity=64 time=0\n",
      "note_off channel=0 note=68 velocity=64 time=1\n",
      "note_on channel=0 note=81 velocity=54 time=0\n",
      "note_off channel=0 note=85 velocity=64 time=0\n",
      "note_on channel=0 note=88 velocity=55 time=0\n",
      "note_off channel=0 note=89 velocity=64 time=0\n",
      "note_off channel=0 note=94 velocity=64 time=0\n",
      "note_off channel=0 note=61 velocity=64 time=1\n",
      "note_on channel=0 note=78 velocity=65 time=0\n",
      "note_on channel=0 note=85 velocity=40 time=0\n",
      "note_on channel=0 note=89 velocity=59 time=0\n",
      "note_on channel=0 note=91 velocity=41 time=0\n",
      "note_on channel=0 note=80 velocity=27 time=1\n",
      "note_off channel=0 note=81 velocity=64 time=0\n",
      "note_off channel=0 note=84 velocity=64 time=0\n",
      "note_off channel=0 note=44 velocity=64 time=1\n",
      "note_off channel=0 note=57 velocity=64 time=0\n",
      "note_on channel=0 note=68 velocity=45 time=0\n",
      "note_on channel=0 note=82 velocity=47 time=0\n",
      "note_off channel=0 note=88 velocity=64 time=0\n",
      "note_off channel=0 note=91 velocity=64 time=0\n",
      "note_on channel=0 note=93 velocity=28 time=0\n",
      "note_on channel=0 note=60 velocity=59 time=1\n",
      "note_off channel=0 note=71 velocity=64 time=0\n",
      "note_off channel=0 note=85 velocity=64 time=0\n",
      "note_on channel=0 note=86 velocity=31 time=0\n",
      "note_on channel=0 note=88 velocity=31 time=0\n",
      "note_off channel=0 note=90 velocity=64 time=0\n",
      "note_on channel=0 note=91 velocity=49 time=0\n",
      "note_on channel=0 note=71 velocity=70 time=1\n",
      "note_off channel=0 note=75 velocity=64 time=0\n",
      "note_on channel=0 note=84 velocity=41 time=0\n",
      "note_off channel=0 note=89 velocity=64 time=0\n",
      "note_off channel=0 note=60 velocity=64 time=1\n",
      "note_off channel=0 note=82 velocity=64 time=0\n",
      "note_on channel=0 note=85 velocity=42 time=0\n",
      "note_off channel=0 note=86 velocity=64 time=0\n",
      "note_on channel=0 note=89 velocity=47 time=0\n",
      "note_off channel=0 note=91 velocity=64 time=0\n",
      "note_off channel=0 note=93 velocity=64 time=0\n",
      "note_off channel=0 note=88 velocity=64 time=1\n",
      "note_on channel=0 note=91 velocity=73 time=0\n",
      "note_on channel=0 note=57 velocity=66 time=1\n",
      "note_off channel=0 note=71 velocity=64 time=0\n",
      "note_on channel=0 note=76 velocity=61 time=0\n",
      "note_off channel=0 note=84 velocity=64 time=0\n",
      "note_on channel=0 note=93 velocity=59 time=0\n",
      "note_on channel=0 note=61 velocity=23 time=1\n",
      "note_off channel=0 note=68 velocity=64 time=0\n",
      "note_on channel=0 note=71 velocity=43 time=0\n",
      "note_off channel=0 note=80 velocity=64 time=0\n",
      "note_off channel=0 note=78 velocity=64 time=1\n",
      "note_off channel=0 note=71 velocity=64 time=1\n",
      "note_off channel=0 note=89 velocity=64 time=1\n",
      "note_on channel=0 note=83 velocity=60 time=1\n",
      "note_on channel=0 note=86 velocity=24 time=0\n",
      "note_off channel=0 note=61 velocity=64 time=1\n",
      "note_on channel=0 note=62 velocity=87 time=0\n",
      "note_off channel=0 note=65 velocity=64 time=0\n",
      "note_on channel=0 note=67 velocity=42 time=0\n",
      "note_on channel=0 note=71 velocity=56 time=0\n",
      "note_on channel=0 note=72 velocity=44 time=0\n",
      "note_on channel=0 note=78 velocity=37 time=0\n",
      "note_off channel=0 note=85 velocity=64 time=0\n",
      "note_on channel=0 note=89 velocity=46 time=0\n",
      "note_on channel=0 note=84 velocity=45 time=1\n",
      "note_on channel=0 note=85 velocity=34 time=0\n",
      "note_on channel=0 note=48 velocity=32 time=1\n",
      "note_off channel=0 note=62 velocity=64 time=0\n",
      "note_on channel=0 note=63 velocity=92 time=0\n",
      "note_off channel=0 note=67 velocity=64 time=0\n",
      "note_off channel=0 note=72 velocity=64 time=0\n",
      "note_off channel=0 note=78 velocity=64 time=0\n",
      "note_off channel=0 note=86 velocity=64 time=0\n",
      "note_off channel=0 note=87 velocity=64 time=0\n",
      "note_on channel=0 note=90 velocity=62 time=0\n",
      "note_off channel=0 note=71 velocity=64 time=1\n",
      "note_off channel=0 note=85 velocity=64 time=0\n",
      "note_on channel=0 note=92 velocity=55 time=0\n",
      "note_off channel=0 note=48 velocity=64 time=1\n",
      "note_on channel=0 note=71 velocity=36 time=0\n",
      "note_on channel=0 note=73 velocity=24 time=0\n",
      "note_on channel=0 note=80 velocity=54 time=0\n",
      "note_on channel=0 note=85 velocity=41 time=0\n",
      "note_off channel=0 note=91 velocity=64 time=0\n",
      "note_off channel=0 note=76 velocity=64 time=2\n",
      "note_off channel=0 note=80 velocity=64 time=0\n",
      "note_off channel=0 note=84 velocity=64 time=0\n",
      "note_off channel=0 note=89 velocity=64 time=0\n",
      "note_off channel=0 note=71 velocity=64 time=1\n",
      "note_on channel=0 note=78 velocity=17 time=0\n",
      "note_on channel=0 note=91 velocity=55 time=0\n",
      "note_off channel=0 note=92 velocity=64 time=0\n",
      "note_on channel=0 note=76 velocity=54 time=1\n",
      "note_on channel=0 note=92 velocity=34 time=0\n",
      "note_on channel=0 note=80 velocity=33 time=1\n",
      "note_on channel=0 note=84 velocity=38 time=0\n",
      "note_off channel=0 note=92 velocity=64 time=1\n",
      "note_off channel=0 note=78 velocity=64 time=1\n",
      "note_on channel=0 note=79 velocity=16 time=0\n",
      "note_off channel=0 note=80 velocity=64 time=0\n",
      "note_on channel=0 note=71 velocity=61 time=2\n",
      "note_off channel=0 note=73 velocity=64 time=0\n",
      "note_off channel=0 note=85 velocity=64 time=0\n",
      "note_on channel=0 note=92 velocity=70 time=0\n",
      "note_on channel=0 note=94 velocity=50 time=0\n",
      "note_on channel=0 note=56 velocity=63 time=1\n",
      "note_off channel=0 note=57 velocity=64 time=0\n",
      "note_on channel=0 note=68 velocity=74 time=0\n",
      "note_off channel=0 note=76 velocity=64 time=0\n",
      "note_on channel=0 note=77 velocity=42 time=0\n",
      "note_on channel=0 note=85 velocity=13 time=0\n",
      "note_off channel=0 note=93 velocity=64 time=1\n",
      "note_on channel=0 note=101 velocity=37 time=0\n",
      "note_off channel=0 note=79 velocity=64 time=1\n",
      "note_off channel=0 note=85 velocity=64 time=1\n",
      "note_off channel=0 note=90 velocity=64 time=0\n",
      "note_off channel=0 note=91 velocity=64 time=0\n",
      "note_on channel=0 note=90 velocity=29 time=1\n",
      "note_off channel=0 note=101 velocity=64 time=1\n",
      "note_on channel=0 note=102 velocity=43 time=0\n",
      "note_on channel=0 note=73 velocity=16 time=1\n",
      "note_on channel=0 note=82 velocity=51 time=0\n",
      "note_on channel=0 note=86 velocity=33 time=0\n"
     ]
    },
    {
     "name": "stdout",
     "output_type": "stream",
     "text": [
      "note_on channel=0 note=93 velocity=21 time=0\n",
      "note_off channel=0 note=83 velocity=64 time=1\n",
      "note_off channel=0 note=93 velocity=64 time=2\n",
      "note_on channel=0 note=101 velocity=26 time=0\n",
      "note_on channel=0 note=55 velocity=69 time=1\n",
      "note_off channel=0 note=56 velocity=64 time=0\n",
      "note_off channel=0 note=73 velocity=64 time=0\n",
      "note_on channel=0 note=67 velocity=70 time=1\n",
      "note_off channel=0 note=68 velocity=64 time=0\n",
      "note_on channel=0 note=93 velocity=41 time=0\n",
      "note_on channel=0 note=73 velocity=32 time=1\n",
      "note_off channel=0 note=92 velocity=64 time=0\n",
      "note_off channel=0 note=101 velocity=64 time=0\n",
      "note_off channel=0 note=102 velocity=64 time=1\n",
      "note_off channel=0 note=67 velocity=64 time=1\n",
      "note_off channel=0 note=94 velocity=64 time=0\n",
      "note_on channel=0 note=99 velocity=29 time=0\n",
      "note_on channel=0 note=74 velocity=48 time=1\n",
      "note_on channel=0 note=89 velocity=48 time=0\n",
      "note_on channel=0 note=62 velocity=76 time=1\n",
      "note_off channel=0 note=63 velocity=64 time=0\n",
      "note_off channel=0 note=73 velocity=64 time=0\n",
      "note_off channel=0 note=84 velocity=64 time=0\n",
      "note_on channel=0 note=85 velocity=34 time=0\n",
      "note_off channel=0 note=86 velocity=64 time=0\n",
      "note_on channel=0 note=87 velocity=39 time=0\n",
      "note_off channel=0 note=90 velocity=64 time=0\n",
      "note_on channel=0 note=102 velocity=37 time=0\n",
      "note_on channel=0 note=68 velocity=78 time=1\n",
      "note_off channel=0 note=74 velocity=64 time=0\n",
      "note_on channel=0 note=75 velocity=48 time=0\n",
      "note_on channel=0 note=84 velocity=39 time=0\n",
      "note_on channel=0 note=86 velocity=32 time=0\n",
      "note_on channel=0 note=90 velocity=36 time=0\n",
      "note_on channel=0 note=100 velocity=38 time=0\n",
      "note_off channel=0 note=55 velocity=64 time=1\n",
      "note_on channel=0 note=56 velocity=55 time=0\n",
      "note_off channel=0 note=62 velocity=64 time=0\n",
      "note_on channel=0 note=63 velocity=83 time=0\n",
      "note_off channel=0 note=85 velocity=64 time=0\n",
      "note_off channel=0 note=102 velocity=64 time=0\n",
      "note_on channel=0 note=103 velocity=39 time=0\n",
      "note_on channel=0 note=55 velocity=54 time=2\n",
      "note_off channel=0 note=56 velocity=64 time=0\n",
      "note_on channel=0 note=73 velocity=21 time=0\n",
      "note_off channel=0 note=86 velocity=64 time=1\n",
      "note_off channel=0 note=55 velocity=64 time=1\n",
      "note_on channel=0 note=56 velocity=56 time=0\n",
      "note_on channel=0 note=86 velocity=26 time=0\n",
      "note_off channel=0 note=100 velocity=64 time=1\n",
      "note_on channel=0 note=55 velocity=60 time=1\n",
      "note_off channel=0 note=56 velocity=64 time=0\n",
      "note_off channel=0 note=73 velocity=64 time=0\n",
      "note_off channel=0 note=89 velocity=64 time=0\n",
      "note_off channel=0 note=99 velocity=64 time=0\n",
      "note_off channel=0 note=103 velocity=64 time=0\n",
      "note_off channel=0 note=68 velocity=64 time=1\n",
      "note_on channel=0 note=88 velocity=20 time=0\n",
      "note_on channel=0 note=73 velocity=13 time=1\n",
      "note_off channel=0 note=55 velocity=64 time=2\n",
      "note_on channel=0 note=56 velocity=37 time=0\n",
      "note_on channel=0 note=68 velocity=44 time=0\n",
      "note_off channel=0 note=82 velocity=64 time=0\n",
      "note_on channel=0 note=91 velocity=10 time=0\n",
      "note_off channel=0 note=77 velocity=64 time=1\n",
      "note_off channel=0 note=56 velocity=64 time=4\n",
      "note_off channel=0 note=73 velocity=64 time=1\n",
      "note_off channel=0 note=91 velocity=64 time=0\n",
      "note_on channel=0 note=56 velocity=13 time=1\n",
      "note_on channel=0 note=82 velocity=21 time=0\n",
      "note_off channel=0 note=86 velocity=64 time=0\n",
      "note_off channel=0 note=88 velocity=64 time=3\n",
      "note_on channel=0 note=89 velocity=78 time=0\n",
      "note_on channel=0 note=86 velocity=23 time=1\n",
      "note_off channel=0 note=56 velocity=64 time=1\n",
      "note_on channel=0 note=95 velocity=50 time=0\n",
      "note_on channel=0 note=77 velocity=38 time=3\n",
      "note_on channel=0 note=73 velocity=31 time=1\n",
      "note_on channel=0 note=80 velocity=87 time=0\n",
      "note_off channel=0 note=82 velocity=64 time=1\n",
      "note_on channel=0 note=85 velocity=47 time=0\n",
      "note_off channel=0 note=86 velocity=64 time=0\n",
      "note_off channel=0 note=71 velocity=64 time=1\n",
      "note_on channel=0 note=72 velocity=53 time=0\n",
      "note_off channel=0 note=73 velocity=64 time=0\n",
      "note_on channel=0 note=91 velocity=33 time=0\n",
      "note_off channel=0 note=68 velocity=64 time=1\n",
      "note_on channel=0 note=82 velocity=47 time=0\n",
      "note_off channel=0 note=90 velocity=64 time=0\n",
      "note_on channel=0 note=100 velocity=41 time=0\n",
      "note_on channel=0 note=49 velocity=75 time=1\n",
      "note_on channel=0 note=71 velocity=29 time=0\n",
      "note_off channel=0 note=84 velocity=64 time=0\n",
      "note_on channel=0 note=90 velocity=62 time=0\n",
      "note_off channel=0 note=72 velocity=64 time=1\n",
      "note_on channel=0 note=73 velocity=63 time=0\n",
      "note_off channel=0 note=91 velocity=64 time=0\n",
      "note_off channel=0 note=95 velocity=64 time=0\n",
      "note_off channel=0 note=63 velocity=64 time=1\n",
      "note_on channel=0 note=65 velocity=55 time=0\n",
      "note_on channel=0 note=68 velocity=47 time=0\n",
      "note_off channel=0 note=71 velocity=64 time=0\n",
      "note_off channel=0 note=82 velocity=64 time=0\n",
      "note_on channel=0 note=83 velocity=62 time=0\n",
      "note_on channel=0 note=88 velocity=23 time=0\n",
      "note_on channel=0 note=96 velocity=14 time=0\n",
      "note_off channel=0 note=75 velocity=64 time=1\n",
      "note_on channel=0 note=91 velocity=60 time=0\n",
      "note_off channel=0 note=93 velocity=64 time=1\n",
      "note_on channel=0 note=94 velocity=35 time=0\n",
      "note_off channel=0 note=68 velocity=64 time=1\n",
      "note_on channel=0 note=69 velocity=46 time=0\n",
      "note_off channel=0 note=88 velocity=64 time=0\n",
      "note_on channel=0 note=93 velocity=59 time=0\n",
      "note_on channel=0 note=62 velocity=52 time=1\n",
      "note_off channel=0 note=73 velocity=64 time=0\n",
      "note_on channel=0 note=74 velocity=65 time=0\n",
      "note_off channel=0 note=77 velocity=64 time=0\n",
      "note_off channel=0 note=87 velocity=64 time=0\n",
      "note_on channel=0 note=88 velocity=29 time=0\n",
      "note_off channel=0 note=62 velocity=64 time=2\n",
      "note_off channel=0 note=93 velocity=64 time=0\n",
      "note_on channel=0 note=68 velocity=41 time=1\n",
      "note_off channel=0 note=69 velocity=64 time=0\n",
      "note_on channel=0 note=73 velocity=65 time=0\n",
      "note_off channel=0 note=74 velocity=64 time=0\n",
      "note_on channel=0 note=93 velocity=55 time=1\n",
      "note_off channel=0 note=94 velocity=64 time=0\n",
      "note_on channel=0 note=67 velocity=54 time=1\n",
      "note_off channel=0 note=68 velocity=64 time=0\n",
      "note_on channel=0 note=72 velocity=54 time=0\n",
      "note_on channel=0 note=82 velocity=51 time=0\n",
      "note_off channel=0 note=83 velocity=64 time=0\n",
      "note_off channel=0 note=96 velocity=64 time=0\n",
      "note_off channel=0 note=73 velocity=64 time=1\n",
      "note_off channel=0 note=72 velocity=64 time=1\n",
      "note_on channel=0 note=73 velocity=70 time=0\n",
      "note_on channel=0 note=87 velocity=42 time=0\n",
      "note_off channel=0 note=88 velocity=64 time=0\n",
      "note_off channel=0 note=67 velocity=64 time=1\n",
      "note_on channel=0 note=68 velocity=54 time=0\n",
      "note_off channel=0 note=91 velocity=64 time=0\n",
      "note_on channel=0 note=96 velocity=10 time=0\n",
      "note_on channel=0 note=83 velocity=40 time=2\n",
      "note_on channel=0 note=91 velocity=34 time=0\n",
      "note_off channel=0 note=93 velocity=64 time=0\n",
      "note_off channel=0 note=96 velocity=64 time=2\n",
      "note_off channel=0 note=68 velocity=64 time=1\n",
      "note_on channel=0 note=75 velocity=15 time=0\n",
      "note_off channel=0 note=83 velocity=64 time=0\n",
      "note_off channel=0 note=91 velocity=64 time=0\n",
      "note_on channel=0 note=93 velocity=43 time=0\n",
      "note_off channel=0 note=100 velocity=64 time=0\n",
      "note_on channel=0 note=60 velocity=50 time=1\n",
      "note_off channel=0 note=89 velocity=64 time=0\n",
      "note_on channel=0 note=91 velocity=56 time=0\n",
      "note_on channel=0 note=83 velocity=46 time=1\n",
      "note_on channel=0 note=89 velocity=66 time=0\n",
      "note_on channel=0 note=48 velocity=57 time=1\n",
      "note_off channel=0 note=49 velocity=64 time=0\n",
      "note_on channel=0 note=68 velocity=54 time=0\n",
      "note_off channel=0 note=85 velocity=64 time=0\n",
      "note_on channel=0 note=100 velocity=33 time=0\n",
      "note_off channel=0 note=60 velocity=64 time=1\n",
      "note_on channel=0 note=61 velocity=60 time=0\n",
      "note_on channel=0 note=71 velocity=20 time=0\n",
      "note_off channel=0 note=75 velocity=64 time=0\n",
      "note_off channel=0 note=82 velocity=64 time=0\n",
      "note_on channel=0 note=96 velocity=19 time=0\n",
      "note_off channel=0 note=48 velocity=64 time=1\n",
      "note_on channel=0 note=49 velocity=69 time=0\n",
      "note_off channel=0 note=90 velocity=64 time=0\n",
      "note_off channel=0 note=93 velocity=64 time=0\n",
      "note_on channel=0 note=81 velocity=31 time=1\n",
      "note_on channel=0 note=82 velocity=25 time=0\n",
      "note_on channel=0 note=62 velocity=74 time=1\n",
      "note_off channel=0 note=68 velocity=64 time=0\n",
      "note_off channel=0 note=71 velocity=64 time=0\n",
      "note_on channel=0 note=79 velocity=49 time=0\n",
      "note_off channel=0 note=80 velocity=64 time=0\n",
      "note_off channel=0 note=49 velocity=64 time=1\n",
      "note_on channel=0 note=50 velocity=77 time=0\n",
      "note_on channel=0 note=57 velocity=68 time=0\n",
      "note_off channel=0 note=61 velocity=64 time=0\n",
      "note_off channel=0 note=65 velocity=64 time=0\n",
      "note_on channel=0 note=71 velocity=41 time=0\n",
      "note_off channel=0 note=81 velocity=64 time=0\n",
      "note_on channel=0 note=93 velocity=50 time=0\n",
      "note_on channel=0 note=49 velocity=72 time=1\n",
      "note_off channel=0 note=50 velocity=64 time=0\n",
      "note_on channel=0 note=61 velocity=72 time=0\n",
      "note_off channel=0 note=62 velocity=64 time=0\n",
      "note_off channel=0 note=73 velocity=64 time=0\n",
      "note_off channel=0 note=79 velocity=64 time=0\n",
      "note_on channel=0 note=80 velocity=47 time=0\n",
      "note_off channel=0 note=71 velocity=64 time=1\n",
      "note_on channel=0 note=92 velocity=58 time=0\n",
      "note_off channel=0 note=57 velocity=64 time=1\n",
      "note_on channel=0 note=68 velocity=52 time=0\n",
      "note_off channel=0 note=82 velocity=64 time=0\n",
      "note_on channel=0 note=90 velocity=36 time=0\n",
      "note_on channel=0 note=82 velocity=39 time=1\n",
      "note_off channel=0 note=83 velocity=64 time=0\n",
      "note_off channel=0 note=93 velocity=64 time=0\n",
      "note_on channel=0 note=60 velocity=50 time=1\n",
      "note_off channel=0 note=61 velocity=64 time=0\n",
      "note_on channel=0 note=67 velocity=55 time=0\n",
      "note_off channel=0 note=68 velocity=64 time=0\n",
      "note_on channel=0 note=72 velocity=56 time=0\n",
      "note_on channel=0 note=83 velocity=55 time=0\n",
      "note_on channel=0 note=88 velocity=18 time=0\n",
      "note_off channel=0 note=92 velocity=64 time=0\n",
      "note_on channel=0 note=93 velocity=57 time=0\n",
      "note_on channel=0 note=77 velocity=35 time=1\n",
      "note_off channel=0 note=80 velocity=64 time=0\n",
      "note_on channel=0 note=92 velocity=60 time=0\n",
      "note_off channel=0 note=96 velocity=64 time=0\n",
      "note_off channel=0 note=82 velocity=64 time=1\n",
      "note_off channel=0 note=49 velocity=64 time=1\n",
      "note_on channel=0 note=76 velocity=22 time=0\n",
      "note_off channel=0 note=90 velocity=64 time=0\n",
      "note_on channel=0 note=81 velocity=50 time=1\n",
      "note_on channel=0 note=90 velocity=41 time=0\n",
      "note_on channel=0 note=59 velocity=47 time=1\n",
      "note_off channel=0 note=60 velocity=64 time=0\n",
      "note_on channel=0 note=94 velocity=34 time=0\n",
      "note_on channel=0 note=47 velocity=45 time=1\n",
      "note_on channel=0 note=66 velocity=52 time=0\n",
      "note_off channel=0 note=67 velocity=64 time=0\n",
      "note_off channel=0 note=76 velocity=64 time=0\n",
      "note_off channel=0 note=88 velocity=64 time=0\n",
      "note_off channel=0 note=91 velocity=64 time=0\n",
      "note_off channel=0 note=59 velocity=64 time=1\n",
      "note_on channel=0 note=60 velocity=45 time=0\n",
      "note_on channel=0 note=75 velocity=57 time=0\n",
      "note_on channel=0 note=53 velocity=45 time=1\n",
      "note_on channel=0 note=59 velocity=50 time=0\n",
      "note_off channel=0 note=72 velocity=64 time=0\n",
      "note_on channel=0 note=84 velocity=40 time=0\n",
      "note_off channel=0 note=60 velocity=64 time=1\n",
      "note_on channel=0 note=72 velocity=47 time=0\n",
      "note_on channel=0 note=91 velocity=61 time=0\n",
      "note_off channel=0 note=92 velocity=64 time=0\n",
      "note_off channel=0 note=47 velocity=64 time=1\n",
      "note_on channel=0 note=58 velocity=46 time=0\n",
      "note_off channel=0 note=59 velocity=64 time=0\n",
      "note_on channel=0 note=69 velocity=42 time=0\n",
      "note_on channel=0 note=71 velocity=40 time=0\n",
      "note_off channel=0 note=77 velocity=64 time=0\n",
      "note_off channel=0 note=72 velocity=64 time=1\n",
      "note_on channel=0 note=77 velocity=41 time=0\n",
      "note_on channel=0 note=82 velocity=44 time=0\n",
      "note_off channel=0 note=83 velocity=64 time=0\n",
      "note_off channel=0 note=84 velocity=64 time=0\n",
      "note_off channel=0 note=53 velocity=64 time=1\n",
      "note_off channel=0 note=58 velocity=64 time=0\n",
      "note_off channel=0 note=69 velocity=64 time=0\n",
      "note_on channel=0 note=84 velocity=15 time=0\n",
      "note_off channel=0 note=87 velocity=64 time=0\n",
      "note_off channel=0 note=100 velocity=64 time=0\n",
      "note_on channel=0 note=59 velocity=41 time=1\n",
      "note_off channel=0 note=71 velocity=64 time=0\n",
      "note_on channel=0 note=72 velocity=34 time=0\n",
      "note_off channel=0 note=82 velocity=64 time=0\n",
      "note_on channel=0 note=83 velocity=65 time=0\n",
      "note_on channel=0 note=48 velocity=59 time=1\n",
      "note_off channel=0 note=94 velocity=64 time=0\n",
      "note_off channel=0 note=59 velocity=64 time=1\n",
      "note_on channel=0 note=71 velocity=31 time=0\n",
      "note_off channel=0 note=72 velocity=64 time=0\n",
      "note_off channel=0 note=81 velocity=64 time=0\n",
      "note_off channel=0 note=90 velocity=64 time=0\n",
      "note_off channel=0 note=66 velocity=64 time=1\n",
      "note_on channel=0 note=67 velocity=43 time=0\n",
      "note_off channel=0 note=84 velocity=64 time=0\n",
      "note_on channel=0 note=80 velocity=34 time=1\n",
      "note_off channel=0 note=75 velocity=64 time=1\n",
      "note_on channel=0 note=90 velocity=63 time=1\n",
      "note_off channel=0 note=67 velocity=64 time=1\n",
      "note_on channel=0 note=68 velocity=48 time=0\n",
      "note_on channel=0 note=73 velocity=36 time=0\n",
      "note_on channel=0 note=94 velocity=21 time=0\n",
      "note_off channel=0 note=71 velocity=64 time=1\n",
      "note_on channel=0 note=67 velocity=56 time=1\n",
      "note_off channel=0 note=68 velocity=64 time=0\n",
      "note_on channel=0 note=71 velocity=38 time=0\n",
      "note_off channel=0 note=73 velocity=64 time=0\n",
      "note_on channel=0 note=75 velocity=29 time=0\n",
      "note_on channel=0 note=64 velocity=79 time=1\n",
      "note_on channel=0 note=96 velocity=26 time=0\n",
      "note_on channel=0 note=47 velocity=65 time=1\n",
      "note_off channel=0 note=48 velocity=64 time=0\n",
      "note_off channel=0 note=67 velocity=64 time=0\n",
      "note_on channel=0 note=79 velocity=44 time=0\n",
      "note_off channel=0 note=80 velocity=64 time=0\n",
      "note_on channel=0 note=92 velocity=41 time=0\n",
      "note_off channel=0 note=94 velocity=64 time=0\n",
      "note_on channel=0 note=100 velocity=14 time=0\n",
      "note_on channel=0 note=45 velocity=72 time=1\n",
      "note_off channel=0 note=47 velocity=64 time=0\n",
      "note_on channel=0 note=67 velocity=57 time=0\n",
      "note_on channel=0 note=69 velocity=34 time=0\n",
      "note_on channel=0 note=73 velocity=59 time=0\n",
      "note_off channel=0 note=91 velocity=64 time=0\n",
      "note_on channel=0 note=44 velocity=78 time=1\n",
      "note_off channel=0 note=45 velocity=64 time=0\n",
      "note_on channel=0 note=63 velocity=72 time=0\n",
      "note_off channel=0 note=64 velocity=64 time=0\n",
      "note_off channel=0 note=71 velocity=64 time=0\n",
      "note_on channel=0 note=80 velocity=34 time=0\n",
      "note_off channel=0 note=69 velocity=64 time=1\n",
      "note_off channel=0 note=79 velocity=64 time=0\n",
      "note_off channel=0 note=100 velocity=64 time=0\n",
      "note_on channel=0 note=43 velocity=76 time=1\n",
      "note_off channel=0 note=44 velocity=64 time=0\n",
      "note_off channel=0 note=67 velocity=64 time=0\n",
      "note_on channel=0 note=68 velocity=56 time=0\n",
      "note_on channel=0 note=71 velocity=31 time=0\n",
      "note_off channel=0 note=43 velocity=64 time=1\n",
      "note_on channel=0 note=44 velocity=80 time=0\n",
      "note_off channel=0 note=63 velocity=64 time=0\n",
      "note_off channel=0 note=44 velocity=64 time=1\n",
      "note_on channel=0 note=48 velocity=75 time=0\n",
      "note_on channel=0 note=61 velocity=48 time=0\n",
      "note_off channel=0 note=48 velocity=64 time=1\n",
      "note_on channel=0 note=49 velocity=66 time=0\n",
      "note_on channel=0 note=103 velocity=27 time=0\n",
      "note_off channel=0 note=49 velocity=64 time=1\n",
      "note_on channel=0 note=50 velocity=67 time=0\n",
      "note_off channel=0 note=80 velocity=64 time=0\n",
      "note_off channel=0 note=90 velocity=64 time=0\n",
      "note_on channel=0 note=91 velocity=50 time=0\n",
      "note_off channel=0 note=96 velocity=64 time=0\n",
      "note_on channel=0 note=48 velocity=69 time=1\n",
      "note_off channel=0 note=50 velocity=64 time=0\n",
      "note_on channel=0 note=66 velocity=29 time=0\n",
      "note_off channel=0 note=48 velocity=64 time=1\n",
      "note_on channel=0 note=49 velocity=68 time=0\n",
      "note_off channel=0 note=61 velocity=64 time=1\n",
      "note_off channel=0 note=66 velocity=64 time=0\n",
      "note_on channel=0 note=90 velocity=56 time=0\n",
      "note_off channel=0 note=91 velocity=64 time=0\n",
      "note_on channel=0 note=96 velocity=12 time=0\n",
      "note_off channel=0 note=103 velocity=64 time=0\n",
      "note_on channel=0 note=79 velocity=25 time=1\n",
      "note_on channel=0 note=82 velocity=42 time=0\n",
      "note_off channel=0 note=83 velocity=64 time=0\n",
      "note_on channel=0 note=88 velocity=31 time=0\n",
      "note_on channel=0 note=67 velocity=59 time=1\n",
      "note_off channel=0 note=68 velocity=64 time=0\n",
      "note_off channel=0 note=71 velocity=64 time=0\n",
      "note_off channel=0 note=75 velocity=64 time=0\n",
      "note_on channel=0 note=83 velocity=49 time=0\n",
      "note_on channel=0 note=84 velocity=36 time=0\n",
      "note_on channel=0 note=91 velocity=54 time=0\n",
      "note_on channel=0 note=60 velocity=66 time=1\n",
      "note_on channel=0 note=76 velocity=34 time=0\n",
      "note_on channel=0 note=80 velocity=25 time=0\n",
      "note_on channel=0 note=86 velocity=18 time=0\n",
      "note_off channel=0 note=90 velocity=64 time=0\n",
      "note_off channel=0 note=49 velocity=64 time=1\n",
      "note_off channel=0 note=60 velocity=64 time=0\n",
      "note_on channel=0 note=61 velocity=61 time=0\n",
      "note_on channel=0 note=72 velocity=55 time=0\n",
      "note_off channel=0 note=73 velocity=64 time=0\n",
      "note_off channel=0 note=82 velocity=64 time=0\n",
      "note_on channel=0 note=48 velocity=65 time=1\n",
      "note_off channel=0 note=79 velocity=64 time=0\n",
      "note_on channel=0 note=47 velocity=74 time=1\n",
      "note_off channel=0 note=48 velocity=64 time=0\n",
      "note_on channel=0 note=54 velocity=30 time=0\n",
      "note_off channel=0 note=61 velocity=64 time=0\n",
      "note_off channel=0 note=76 velocity=64 time=0\n",
      "note_on channel=0 note=90 velocity=45 time=0\n",
      "note_on channel=0 note=94 velocity=24 time=0\n",
      "note_on channel=0 note=61 velocity=50 time=1\n",
      "note_off channel=0 note=67 velocity=64 time=0\n",
      "note_on channel=0 note=68 velocity=53 time=0\n",
      "note_off channel=0 note=72 velocity=64 time=0\n",
      "note_on channel=0 note=73 velocity=54 time=0\n",
      "note_off channel=0 note=47 velocity=64 time=1\n",
      "note_on channel=0 note=48 velocity=75 time=0\n",
      "note_off channel=0 note=54 velocity=64 time=0\n",
      "note_on channel=0 note=64 velocity=44 time=0\n",
      "note_on channel=0 note=71 velocity=39 time=0\n",
      "note_off channel=0 note=77 velocity=64 time=0\n",
      "note_on channel=0 note=78 velocity=33 time=0\n",
      "note_on channel=0 note=79 velocity=37 time=0\n",
      "note_on channel=0 note=82 velocity=27 time=0\n",
      "note_off channel=0 note=84 velocity=64 time=0\n",
      "note_on channel=0 note=87 velocity=42 time=0\n",
      "note_off channel=0 note=48 velocity=64 time=1\n",
      "note_on channel=0 note=50 velocity=80 time=0\n",
      "note_off channel=0 note=68 velocity=64 time=0\n",
      "note_off channel=0 note=73 velocity=64 time=0\n",
      "note_on channel=0 note=74 velocity=50 time=0\n",
      "note_off channel=0 note=80 velocity=64 time=0\n",
      "note_off channel=0 note=83 velocity=64 time=0\n",
      "note_off channel=0 note=86 velocity=64 time=0\n",
      "note_off channel=0 note=96 velocity=64 time=0\n",
      "note_on channel=0 note=49 velocity=67 time=1\n",
      "note_off channel=0 note=50 velocity=64 time=0\n",
      "note_on channel=0 note=54 velocity=68 time=0\n",
      "note_off channel=0 note=61 velocity=64 time=0\n",
      "note_on channel=0 note=63 velocity=45 time=0\n",
      "note_off channel=0 note=64 velocity=64 time=0\n",
      "note_on channel=0 note=68 velocity=32 time=0\n",
      "note_off channel=0 note=71 velocity=64 time=0\n",
      "note_on channel=0 note=73 velocity=40 time=0\n",
      "note_on channel=0 note=77 velocity=50 time=0\n",
      "note_on channel=0 note=83 velocity=28 time=0\n",
      "note_off channel=0 note=88 velocity=64 time=0\n",
      "note_off channel=0 note=89 velocity=64 time=0\n",
      "note_on channel=0 note=71 velocity=51 time=1\n",
      "note_off channel=0 note=74 velocity=64 time=0\n",
      "note_off channel=0 note=78 velocity=64 time=0\n",
      "note_off channel=0 note=79 velocity=64 time=0\n",
      "note_on channel=0 note=80 velocity=47 time=0\n",
      "note_off channel=0 note=82 velocity=64 time=0\n",
      "note_on channel=0 note=88 velocity=28 time=0\n",
      "note_off channel=0 note=91 velocity=64 time=0\n",
      "note_off channel=0 note=94 velocity=64 time=0\n",
      "note_off channel=0 note=63 velocity=64 time=1\n",
      "note_on channel=0 note=65 velocity=56 time=0\n",
      "note_on channel=0 note=84 velocity=30 time=0\n",
      "note_on channel=0 note=86 velocity=25 time=0\n",
      "note_off channel=0 note=49 velocity=64 time=1\n",
      "note_on channel=0 note=53 velocity=78 time=0\n",
      "note_off channel=0 note=54 velocity=64 time=0\n",
      "note_on channel=0 note=81 velocity=36 time=0\n",
      "note_off channel=0 note=87 velocity=64 time=0\n",
      "note_off channel=0 note=90 velocity=64 time=0\n",
      "note_on channel=0 note=102 velocity=28 time=0\n",
      "note_off channel=0 note=68 velocity=64 time=1\n",
      "note_off channel=0 note=71 velocity=64 time=0\n",
      "note_on channel=0 note=75 velocity=25 time=0\n",
      "note_on channel=0 note=87 velocity=40 time=0\n",
      "note_off channel=0 note=88 velocity=64 time=0\n",
      "note_off channel=0 note=92 velocity=64 time=0\n",
      "note_off channel=0 note=65 velocity=64 time=1\n",
      "note_on channel=0 note=66 velocity=79 time=0\n",
      "note_off channel=0 note=84 velocity=64 time=0\n",
      "note_on channel=0 note=88 velocity=9 time=0\n",
      "note_on channel=0 note=90 velocity=37 time=0\n",
      "note_off channel=0 note=53 velocity=64 time=1\n",
      "note_on channel=0 note=54 velocity=72 time=0\n",
      "note_off channel=0 note=81 velocity=64 time=0\n",
      "note_on channel=0 note=82 velocity=71 time=0\n",
      "note_off channel=0 note=83 velocity=64 time=0\n",
      "note_on channel=0 note=91 velocity=21 time=0\n",
      "note_off channel=0 note=93 velocity=64 time=0\n",
      "note_on channel=0 note=72 velocity=37 time=1\n",
      "note_off channel=0 note=75 velocity=64 time=0\n",
      "note_on channel=0 note=85 velocity=54 time=0\n",
      "note_off channel=0 note=86 velocity=64 time=0\n",
      "note_on channel=0 note=64 velocity=80 time=1\n",
      "note_off channel=0 note=73 velocity=64 time=0\n",
      "note_on channel=0 note=74 velocity=37 time=0\n",
      "note_off channel=0 note=88 velocity=64 time=0\n",
      "note_on channel=0 note=95 velocity=15 time=0\n",
      "note_on channel=0 note=45 velocity=78 time=1\n",
      "note_off channel=0 note=66 velocity=64 time=0\n",
      "note_on channel=0 note=67 velocity=82 time=0\n",
      "note_off channel=0 note=72 velocity=64 time=0\n",
      "note_on channel=0 note=73 velocity=60 time=0\n",
      "note_on channel=0 note=84 velocity=12 time=0\n",
      "note_on channel=0 note=96 velocity=18 time=0\n",
      "note_off channel=0 note=74 velocity=64 time=1\n",
      "note_on channel=0 note=44 velocity=79 time=1\n",
      "note_off channel=0 note=45 velocity=64 time=0\n",
      "note_on channel=0 note=63 velocity=69 time=0\n",
      "note_off channel=0 note=64 velocity=64 time=0\n",
      "note_off channel=0 note=67 velocity=64 time=0\n",
      "note_on channel=0 note=69 velocity=40 time=0\n",
      "note_off channel=0 note=95 velocity=64 time=0\n",
      "note_off channel=0 note=102 velocity=64 time=0\n",
      "note_off channel=0 note=77 velocity=64 time=1\n",
      "note_off channel=0 note=84 velocity=64 time=0\n",
      "note_on channel=0 note=93 velocity=17 time=0\n",
      "note_on channel=0 note=53 velocity=65 time=1\n",
      "note_off channel=0 note=54 velocity=64 time=0\n",
      "note_on channel=0 note=68 velocity=39 time=0\n",
      "note_off channel=0 note=69 velocity=64 time=0\n",
      "note_on channel=0 note=77 velocity=48 time=0\n",
      "note_on channel=0 note=81 velocity=56 time=0\n",
      "note_off channel=0 note=82 velocity=64 time=0\n",
      "note_on channel=0 note=83 velocity=52 time=0\n",
      "note_on channel=0 note=84 velocity=58 time=0\n",
      "note_off channel=0 note=91 velocity=64 time=0\n",
      "note_off channel=0 note=63 velocity=64 time=1\n",
      "note_off channel=0 note=80 velocity=64 time=0\n",
      "note_off channel=0 note=85 velocity=64 time=0\n",
      "note_on channel=0 note=72 velocity=60 time=1\n",
      "note_off channel=0 note=73 velocity=64 time=0\n",
      "note_on channel=0 note=85 velocity=29 time=0\n",
      "note_on channel=0 note=86 velocity=48 time=0\n",
      "note_off channel=0 note=87 velocity=64 time=0\n",
      "note_off channel=0 note=90 velocity=64 time=0\n",
      "note_on channel=0 note=91 velocity=35 time=0\n",
      "note_on channel=0 note=92 velocity=46 time=0\n",
      "note_off channel=0 note=93 velocity=64 time=0\n",
      "note_off channel=0 note=44 velocity=64 time=1\n",
      "note_on channel=0 note=80 velocity=88 time=0\n",
      "note_off channel=0 note=81 velocity=64 time=0\n",
      "note_on channel=0 note=88 velocity=51 time=0\n",
      "note_on channel=0 note=94 velocity=17 time=0\n",
      "note_off channel=0 note=53 velocity=64 time=1\n",
      "note_on channel=0 note=64 velocity=46 time=0\n",
      "note_off channel=0 note=68 velocity=64 time=0\n",
      "note_on channel=0 note=71 velocity=61 time=0\n",
      "note_off channel=0 note=72 velocity=64 time=0\n",
      "note_off channel=0 note=84 velocity=64 time=0\n",
      "note_on channel=0 note=90 velocity=56 time=0\n",
      "note_off channel=0 note=96 velocity=64 time=0\n",
      "note_on channel=0 note=43 velocity=61 time=1\n",
      "note_on channel=0 note=52 velocity=68 time=0\n",
      "note_on channel=0 note=61 velocity=72 time=0\n",
      "note_on channel=0 note=89 velocity=71 time=0\n",
      "note_off channel=0 note=91 velocity=64 time=0\n",
      "note_on channel=0 note=96 velocity=16 time=0\n",
      "note_on channel=0 note=68 velocity=16 time=1\n",
      "note_off channel=0 note=77 velocity=64 time=0\n",
      "note_off channel=0 note=85 velocity=64 time=0\n",
      "note_on channel=0 note=93 velocity=37 time=0\n",
      "note_off channel=0 note=94 velocity=64 time=0\n",
      "note_off channel=0 note=64 velocity=64 time=1\n",
      "note_on channel=0 note=85 velocity=42 time=0\n",
      "note_on channel=0 note=91 velocity=22 time=0\n",
      "note_off channel=0 note=86 velocity=64 time=1\n",
      "note_on channel=0 note=103 velocity=25 time=0\n",
      "note_on channel=0 note=42 velocity=56 time=1\n",
      "note_off channel=0 note=43 velocity=64 time=0\n",
      "note_on channel=0 note=87 velocity=45 time=0\n",
      "note_off channel=0 note=68 velocity=64 time=1\n",
      "note_off channel=0 note=91 velocity=64 time=0\n",
      "note_off channel=0 note=42 velocity=64 time=1\n",
      "note_off channel=0 note=85 velocity=64 time=0\n",
      "note_on channel=0 note=86 velocity=26 time=0\n",
      "note_on channel=0 note=42 velocity=55 time=1\n",
      "note_on channel=0 note=85 velocity=42 time=0\n",
      "note_on channel=0 note=70 velocity=33 time=2\n",
      "note_off channel=0 note=86 velocity=64 time=0\n",
      "note_off channel=0 note=93 velocity=64 time=0\n",
      "note_off channel=0 note=96 velocity=64 time=0\n",
      "note_off channel=0 note=71 velocity=64 time=1\n",
      "note_on channel=0 note=77 velocity=38 time=0\n",
      "note_off channel=0 note=103 velocity=64 time=0\n",
      "note_off channel=0 note=52 velocity=64 time=1\n",
      "note_off channel=0 note=70 velocity=64 time=0\n",
      "note_on channel=0 note=71 velocity=54 time=0\n",
      "note_on channel=0 note=91 velocity=24 time=0\n",
      "note_off channel=0 note=92 velocity=64 time=0\n",
      "note_on channel=0 note=52 velocity=49 time=1\n",
      "note_off channel=0 note=88 velocity=64 time=0\n",
      "note_off channel=0 note=90 velocity=64 time=0\n",
      "note_on channel=0 note=51 velocity=48 time=2\n",
      "note_off channel=0 note=52 velocity=64 time=0\n",
      "note_on channel=0 note=68 velocity=35 time=0\n",
      "note_off channel=0 note=42 velocity=64 time=3\n",
      "note_off channel=0 note=51 velocity=64 time=0\n",
      "note_on channel=0 note=75 velocity=45 time=2\n",
      "note_on channel=0 note=88 velocity=34 time=0\n",
      "note_off channel=0 note=91 velocity=64 time=0\n",
      "note_on channel=0 note=93 velocity=21 time=0\n",
      "note_on channel=0 note=96 velocity=16 time=0\n",
      "note_on channel=0 note=102 velocity=20 time=0\n",
      "note_on channel=0 note=47 velocity=79 time=1\n",
      "note_off channel=0 note=61 velocity=64 time=0\n",
      "note_on channel=0 note=62 velocity=66 time=0\n",
      "note_off channel=0 note=68 velocity=64 time=0\n",
      "note_on channel=0 note=78 velocity=44 time=0\n",
      "note_on channel=0 note=81 velocity=33 time=0\n",
      "note_on channel=0 note=94 velocity=70 time=0\n",
      "note_off channel=0 note=47 velocity=64 time=1\n",
      "note_on channel=0 note=48 velocity=87 time=0\n",
      "note_off channel=0 note=62 velocity=64 time=0\n",
      "note_on channel=0 note=64 velocity=64 time=0\n",
      "note_on channel=0 note=67 velocity=78 time=0\n",
      "note_off channel=0 note=75 velocity=64 time=0\n",
      "note_off channel=0 note=88 velocity=64 time=0\n",
      "note_on channel=0 note=74 velocity=31 time=1\n",
      "note_off channel=0 note=78 velocity=64 time=0\n",
      "note_on channel=0 note=91 velocity=18 time=0\n",
      "note_off channel=0 note=93 velocity=64 time=0\n",
      "note_off channel=0 note=96 velocity=64 time=0\n",
      "note_off channel=0 note=102 velocity=64 time=0\n",
      "note_on channel=0 note=61 velocity=54 time=1\n",
      "note_off channel=0 note=64 velocity=64 time=0\n",
      "note_off channel=0 note=81 velocity=64 time=0\n",
      "note_on channel=0 note=100 velocity=46 time=0\n",
      "note_off channel=0 note=48 velocity=64 time=1\n",
      "note_on channel=0 note=73 velocity=71 time=0\n",
      "note_off channel=0 note=74 velocity=64 time=0\n",
      "note_on channel=0 note=88 velocity=18 time=0\n",
      "note_on channel=0 note=96 velocity=31 time=0\n",
      "note_on channel=0 note=102 velocity=34 time=0\n",
      "note_on channel=0 note=54 velocity=66 time=1\n",
      "note_on channel=0 note=66 velocity=81 time=0\n",
      "note_off channel=0 note=67 velocity=64 time=0\n",
      "note_off channel=0 note=77 velocity=64 time=3\n",
      "note_on channel=0 note=82 velocity=41 time=0\n",
      "note_off channel=0 note=91 velocity=64 time=0\n",
      "note_on channel=0 note=103 velocity=37 time=0\n",
      "note_off channel=0 note=88 velocity=64 time=1\n",
      "note_on channel=0 note=88 velocity=19 time=1\n",
      "note_off channel=0 note=89 velocity=64 time=0\n",
      "note_on channel=0 note=98 velocity=15 time=0\n",
      "note_on channel=0 note=44 velocity=33 time=1\n",
      "note_off channel=0 note=96 velocity=64 time=0\n",
      "note_on channel=0 note=75 velocity=15 time=1\n",
      "note_off channel=0 note=44 velocity=64 time=1\n",
      "note_off channel=0 note=88 velocity=64 time=0\n",
      "note_on channel=0 note=44 velocity=33 time=1\n",
      "note_off channel=0 note=87 velocity=64 time=1\n",
      "note_on channel=0 note=88 velocity=22 time=0\n",
      "note_on channel=0 note=96 velocity=33 time=0\n",
      "note_off channel=0 note=44 velocity=64 time=1\n",
      "note_off channel=0 note=83 velocity=64 time=0\n",
      "note_off channel=0 note=75 velocity=64 time=1\n",
      "note_on channel=0 note=77 velocity=33 time=0\n",
      "note_off channel=0 note=103 velocity=64 time=0\n",
      "note_on channel=0 note=89 velocity=79 time=1\n",
      "note_on channel=0 note=43 velocity=14 time=1\n",
      "note_off channel=0 note=98 velocity=64 time=1\n",
      "note_off channel=0 note=43 velocity=64 time=2\n",
      "note_off channel=0 note=102 velocity=64 time=0\n",
      "note_off channel=0 note=82 velocity=64 time=1\n",
      "note_off channel=0 note=88 velocity=64 time=0\n",
      "note_off channel=0 note=96 velocity=64 time=0\n",
      "note_on channel=0 note=53 velocity=69 time=1\n",
      "note_off channel=0 note=54 velocity=64 time=0\n",
      "note_off channel=0 note=66 velocity=64 time=0\n",
      "note_on channel=0 note=78 velocity=18 time=0\n",
      "note_off channel=0 note=85 velocity=64 time=0\n",
      "note_on channel=0 note=91 velocity=56 time=2\n",
      "note_off channel=0 note=78 velocity=64 time=1\n",
      "note_off channel=0 note=100 velocity=64 time=0\n",
      "note_off channel=0 note=61 velocity=64 time=1\n",
      "note_on channel=0 note=62 velocity=54 time=0\n",
      "note_on channel=0 note=75 velocity=53 time=0\n",
      "note_off channel=0 note=77 velocity=64 time=0\n",
      "note_on channel=0 note=78 velocity=51 time=0\n",
      "note_on channel=0 note=84 velocity=59 time=0\n",
      "note_on channel=0 note=87 velocity=54 time=0\n",
      "note_on channel=0 note=102 velocity=25 time=0\n",
      "note_on channel=0 note=93 velocity=47 time=1\n",
      "note_on channel=0 note=95 velocity=45 time=0\n",
      "note_on channel=0 note=97 velocity=25 time=0\n",
      "note_on channel=0 note=100 velocity=45 time=0\n",
      "note_on channel=0 note=45 velocity=76 time=1\n",
      "note_on channel=0 note=67 velocity=59 time=0\n",
      "note_on channel=0 note=69 velocity=50 time=0\n",
      "note_off channel=0 note=71 velocity=64 time=0\n",
      "note_on channel=0 note=72 velocity=60 time=0\n",
      "note_on channel=0 note=77 velocity=62 time=0\n",
      "note_off channel=0 note=78 velocity=64 time=0\n",
      "note_on channel=0 note=90 velocity=46 time=0\n",
      "note_on channel=0 note=98 velocity=26 time=0\n",
      "note_off channel=0 note=73 velocity=64 time=1\n",
      "note_on channel=0 note=86 velocity=64 time=0\n",
      "note_off channel=0 note=87 velocity=64 time=0\n",
      "note_on channel=0 note=44 velocity=76 time=1\n",
      "note_off channel=0 note=45 velocity=64 time=0\n",
      "note_off channel=0 note=62 velocity=64 time=0\n",
      "note_off channel=0 note=69 velocity=64 time=1\n",
      "note_off channel=0 note=90 velocity=64 time=0\n",
      "note_on channel=0 note=43 velocity=73 time=1\n",
      "note_off channel=0 note=44 velocity=64 time=0\n",
      "note_off channel=0 note=67 velocity=64 time=0\n",
      "note_on channel=0 note=71 velocity=67 time=0\n",
      "note_on channel=0 note=81 velocity=68 time=0\n",
      "note_off channel=0 note=86 velocity=64 time=0\n",
      "note_on channel=0 note=87 velocity=69 time=0\n",
      "note_off channel=0 note=53 velocity=64 time=1\n",
      "note_on channel=0 note=54 velocity=70 time=0\n",
      "note_on channel=0 note=61 velocity=41 time=0\n",
      "note_off channel=0 note=72 velocity=64 time=0\n",
      "note_off channel=0 note=75 velocity=64 time=0\n",
      "note_off channel=0 note=77 velocity=64 time=0\n",
      "note_on channel=0 note=78 velocity=57 time=0\n",
      "note_off channel=0 note=81 velocity=64 time=0\n",
      "note_on channel=0 note=82 velocity=66 time=0\n",
      "note_on channel=0 note=88 velocity=62 time=0\n",
      "note_off channel=0 note=102 velocity=64 time=0\n",
      "note_on channel=0 note=67 velocity=62 time=1\n",
      "note_on channel=0 note=74 velocity=69 time=0\n",
      "note_off channel=0 note=82 velocity=64 time=0\n",
      "note_on channel=0 note=83 velocity=72 time=0\n",
      "note_off channel=0 note=84 velocity=64 time=0\n",
      "note_off channel=0 note=98 velocity=64 time=0\n",
      "note_off channel=0 note=54 velocity=64 time=1\n",
      "note_on channel=0 note=79 velocity=67 time=0\n",
      "note_off channel=0 note=94 velocity=64 time=0\n",
      "note_on channel=0 note=102 velocity=30 time=0\n",
      "note_on channel=0 note=56 velocity=63 time=1\n",
      "note_off channel=0 note=67 velocity=64 time=0\n",
      "note_off channel=0 note=79 velocity=64 time=0\n",
      "note_on channel=0 note=84 velocity=62 time=0\n",
      "note_on channel=0 note=90 velocity=58 time=0\n",
      "note_off channel=0 note=93 velocity=64 time=0\n",
      "note_off channel=0 note=95 velocity=64 time=0\n",
      "note_off channel=0 note=97 velocity=64 time=0\n",
      "note_off channel=0 note=61 velocity=64 time=1\n",
      "note_on channel=0 note=73 velocity=41 time=0\n",
      "note_off channel=0 note=74 velocity=64 time=0\n",
      "note_on channel=0 note=75 velocity=58 time=0\n",
      "note_on channel=0 note=81 velocity=59 time=0\n",
      "note_on channel=0 note=82 velocity=32 time=0\n",
      "note_off channel=0 note=83 velocity=64 time=0\n",
      "note_on channel=0 note=77 velocity=42 time=1\n",
      "note_on channel=0 note=61 velocity=22 time=1\n",
      "note_off channel=0 note=73 velocity=64 time=0\n",
      "note_off channel=0 note=81 velocity=64 time=0\n",
      "note_off channel=0 note=89 velocity=64 time=0\n",
      "note_off channel=0 note=43 velocity=64 time=1\n",
      "note_on channel=0 note=44 velocity=23 time=0\n",
      "note_off channel=0 note=78 velocity=64 time=0\n",
      "note_off channel=0 note=82 velocity=64 time=0\n",
      "note_off channel=0 note=88 velocity=64 time=0\n",
      "note_on channel=0 note=89 velocity=73 time=0\n",
      "note_off channel=0 note=90 velocity=64 time=0\n",
      "note_on channel=0 note=93 velocity=32 time=0\n",
      "note_on channel=0 note=55 velocity=63 time=1\n",
      "note_off channel=0 note=56 velocity=64 time=0\n",
      "note_on channel=0 note=67 velocity=68 time=0\n",
      "note_on channel=0 note=74 velocity=72 time=0\n",
      "note_off channel=0 note=75 velocity=64 time=0\n",
      "note_off channel=0 note=84 velocity=64 time=0\n",
      "note_off channel=0 note=100 velocity=64 time=0\n",
      "note_on channel=0 note=90 velocity=55 time=1\n",
      "note_off channel=0 note=44 velocity=64 time=1\n",
      "note_off channel=0 note=61 velocity=64 time=1\n",
      "note_on channel=0 note=94 velocity=16 time=0\n",
      "note_off channel=0 note=55 velocity=64 time=1\n",
      "note_off channel=0 note=67 velocity=64 time=0\n",
      "note_on channel=0 note=84 velocity=44 time=0\n",
      "note_on channel=0 note=88 velocity=49 time=0\n",
      "note_off channel=0 note=93 velocity=64 time=0\n",
      "note_on channel=0 note=67 velocity=32 time=1\n",
      "note_on channel=0 note=75 velocity=53 time=0\n",
      "note_off channel=0 note=77 velocity=64 time=0\n",
      "note_on channel=0 note=79 velocity=39 time=0\n",
      "note_on channel=0 note=85 velocity=31 time=0\n",
      "note_on channel=0 note=58 velocity=55 time=1\n",
      "note_on channel=0 note=65 velocity=33 time=0\n",
      "note_off channel=0 note=74 velocity=64 time=0\n",
      "note_on channel=0 note=77 velocity=55 time=0\n",
      "note_off channel=0 note=67 velocity=64 time=1\n",
      "note_off channel=0 note=79 velocity=64 time=0\n",
      "note_on channel=0 note=83 velocity=71 time=0\n",
      "note_off channel=0 note=84 velocity=64 time=0\n",
      "note_off channel=0 note=88 velocity=64 time=0\n",
      "note_off channel=0 note=94 velocity=64 time=0\n",
      "note_off channel=0 note=58 velocity=64 time=1\n",
      "note_on channel=0 note=59 velocity=58 time=0\n",
      "note_on channel=0 note=68 velocity=36 time=0\n",
      "note_on channel=0 note=78 velocity=55 time=0\n",
      "note_off channel=0 note=85 velocity=64 time=0\n",
      "note_on channel=0 note=86 velocity=29 time=0\n",
      "note_on channel=0 note=93 velocity=23 time=0\n",
      "note_off channel=0 note=102 velocity=64 time=0\n",
      "note_off channel=0 note=77 velocity=64 time=1\n",
      "note_off channel=0 note=78 velocity=64 time=1\n",
      "note_off channel=0 note=86 velocity=64 time=0\n",
      "note_on channel=0 note=88 velocity=34 time=0\n",
      "note_off channel=0 note=89 velocity=64 time=0\n",
      "note_on channel=0 note=76 velocity=46 time=1\n",
      "note_on channel=0 note=78 velocity=65 time=0\n",
      "note_on channel=0 note=86 velocity=39 time=0\n",
      "note_on channel=0 note=89 velocity=45 time=0\n",
      "note_off channel=0 note=93 velocity=64 time=0\n",
      "note_on channel=0 note=58 velocity=59 time=1\n",
      "note_off channel=0 note=59 velocity=64 time=0\n",
      "note_off channel=0 note=68 velocity=64 time=0\n",
      "note_off channel=0 note=71 velocity=64 time=0\n",
      "note_off channel=0 note=75 velocity=64 time=0\n",
      "note_off channel=0 note=88 velocity=64 time=0\n",
      "note_on channel=0 note=69 velocity=43 time=1\n",
      "note_on channel=0 note=77 velocity=52 time=0\n",
      "note_off channel=0 note=78 velocity=64 time=0\n",
      "note_on channel=0 note=81 velocity=51 time=0\n",
      "note_off channel=0 note=83 velocity=64 time=0\n",
      "note_on channel=0 note=85 velocity=44 time=0\n",
      "note_off channel=0 note=86 velocity=64 time=0\n",
      "note_on channel=0 note=57 velocity=63 time=1\n",
      "note_off channel=0 note=58 velocity=64 time=0\n",
      "note_on channel=0 note=64 velocity=79 time=0\n",
      "note_off channel=0 note=65 velocity=64 time=0\n",
      "note_on channel=0 note=71 velocity=38 time=0\n",
      "note_off channel=0 note=80 velocity=64 time=0\n",
      "note_on channel=0 note=88 velocity=52 time=0\n",
      "note_on channel=0 note=67 velocity=64 time=1\n",
      "note_off channel=0 note=69 velocity=64 time=0\n",
      "note_on channel=0 note=73 velocity=41 time=0\n",
      "note_off channel=0 note=76 velocity=64 time=0\n",
      "note_off channel=0 note=77 velocity=64 time=0\n",
      "note_on channel=0 note=86 velocity=32 time=0\n",
      "note_off channel=0 note=87 velocity=64 time=0\n",
      "note_on channel=0 note=95 velocity=15 time=0\n",
      "note_on channel=0 note=45 velocity=78 time=1\n",
      "note_off channel=0 note=71 velocity=64 time=0\n",
      "note_on channel=0 note=80 velocity=57 time=0\n",
      "note_off channel=0 note=90 velocity=64 time=0\n",
      "note_on channel=0 note=63 velocity=76 time=1\n",
      "note_off channel=0 note=64 velocity=64 time=0\n",
      "note_off channel=0 note=67 velocity=64 time=0\n",
      "note_on channel=0 note=79 velocity=34 time=0\n",
      "note_off channel=0 note=86 velocity=64 time=0\n",
      "note_on channel=0 note=90 velocity=58 time=0\n",
      "note_on channel=0 note=44 velocity=78 time=1\n",
      "note_off channel=0 note=45 velocity=64 time=0\n",
      "note_off channel=0 note=57 velocity=64 time=1\n",
      "note_on channel=0 note=71 velocity=45 time=0\n",
      "note_off channel=0 note=79 velocity=64 time=0\n",
      "note_off channel=0 note=81 velocity=64 time=0\n",
      "note_on channel=0 note=84 velocity=38 time=0\n",
      "note_off channel=0 note=85 velocity=64 time=0\n",
      "note_off channel=0 note=91 velocity=64 time=0\n",
      "note_on channel=0 note=65 velocity=39 time=1\n",
      "note_on channel=0 note=87 velocity=35 time=0\n",
      "note_off channel=0 note=95 velocity=64 time=0\n",
      "note_on channel=0 note=61 velocity=35 time=1\n",
      "note_off channel=0 note=63 velocity=64 time=0\n",
      "note_on channel=0 note=86 velocity=31 time=0\n",
      "note_off channel=0 note=89 velocity=64 time=0\n",
      "note_off channel=0 note=44 velocity=64 time=1\n",
      "note_on channel=0 note=75 velocity=51 time=0\n",
      "note_off channel=0 note=61 velocity=64 time=1\n",
      "note_on channel=0 note=57 velocity=67 time=1\n",
      "note_off channel=0 note=80 velocity=64 time=0\n",
      "note_on channel=0 note=81 velocity=54 time=0\n",
      "note_on channel=0 note=43 velocity=62 time=1\n",
      "note_on channel=0 note=61 velocity=57 time=0\n",
      "note_off channel=0 note=71 velocity=64 time=0\n",
      "note_off channel=0 note=75 velocity=64 time=0\n",
      "note_on channel=0 note=76 velocity=52 time=0\n",
      "note_off channel=0 note=86 velocity=64 time=0\n",
      "note_on channel=0 note=91 velocity=48 time=0\n",
      "note_on channel=0 note=71 velocity=51 time=1\n",
      "note_on channel=0 note=75 velocity=32 time=0\n",
      "note_on channel=0 note=80 velocity=35 time=0\n",
      "note_off channel=0 note=87 velocity=64 time=0\n",
      "note_off channel=0 note=43 velocity=64 time=1\n",
      "note_off channel=0 note=90 velocity=64 time=0\n",
      "note_off channel=0 note=76 velocity=64 time=1\n",
      "note_off channel=0 note=57 velocity=64 time=1\n",
      "note_off channel=0 note=75 velocity=64 time=0\n",
      "note_on channel=0 note=76 velocity=39 time=0\n",
      "note_on channel=0 note=87 velocity=36 time=0\n",
      "note_off channel=0 note=80 velocity=64 time=1\n",
      "note_on channel=0 note=48 velocity=68 time=1\n",
      "note_on channel=0 note=56 velocity=63 time=0\n",
      "note_on channel=0 note=68 velocity=70 time=0\n",
      "note_off channel=0 note=81 velocity=64 time=0\n",
      "note_on channel=0 note=86 velocity=24 time=0\n",
      "note_on channel=0 note=90 velocity=41 time=0\n",
      "note_on channel=0 note=92 velocity=63 time=0\n",
      "note_on channel=0 note=94 velocity=30 time=0\n",
      "note_on channel=0 note=47 velocity=71 time=1\n",
      "note_off channel=0 note=48 velocity=64 time=0\n",
      "note_on channel=0 note=75 velocity=53 time=0\n",
      "note_off channel=0 note=65 velocity=64 time=1\n",
      "note_off channel=0 note=73 velocity=64 time=0\n",
      "note_off channel=0 note=76 velocity=64 time=0\n",
      "note_off channel=0 note=47 velocity=64 time=1\n",
      "note_on channel=0 note=48 velocity=66 time=0\n",
      "note_off channel=0 note=56 velocity=64 time=0\n",
      "note_on channel=0 note=65 velocity=44 time=0\n",
      "note_off channel=0 note=48 velocity=64 time=1\n",
      "note_on channel=0 note=49 velocity=74 time=0\n",
      "note_off channel=0 note=88 velocity=64 time=0\n",
      "note_on channel=0 note=89 velocity=40 time=0\n",
      "note_off channel=0 note=91 velocity=64 time=0\n",
      "note_off channel=0 note=49 velocity=64 time=1\n",
      "note_on channel=0 note=52 velocity=76 time=0\n",
      "note_off channel=0 note=61 velocity=64 time=0\n",
      "note_off channel=0 note=86 velocity=64 time=0\n",
      "note_on channel=0 note=88 velocity=37 time=0\n",
      "note_off channel=0 note=52 velocity=64 time=1\n",
      "note_on channel=0 note=55 velocity=68 time=0\n",
      "note_on channel=0 note=61 velocity=29 time=0\n",
      "note_off channel=0 note=84 velocity=64 time=0\n",
      "note_on channel=0 note=86 velocity=23 time=0\n",
      "note_off channel=0 note=87 velocity=64 time=0\n",
      "note_on channel=0 note=91 velocity=29 time=0\n",
      "note_off channel=0 note=55 velocity=64 time=1\n",
      "note_off channel=0 note=65 velocity=64 time=0\n",
      "note_off channel=0 note=71 velocity=64 time=0\n",
      "note_on channel=0 note=82 velocity=35 time=0\n",
      "note_on channel=0 note=84 velocity=28 time=0\n",
      "note_on channel=0 note=55 velocity=64 time=1\n",
      "note_off channel=0 note=61 velocity=64 time=0\n",
      "note_on channel=0 note=78 velocity=23 time=0\n",
      "note_off channel=0 note=89 velocity=64 time=0\n",
      "note_off channel=0 note=55 velocity=64 time=2\n",
      "note_on channel=0 note=56 velocity=59 time=0\n",
      "note_off channel=0 note=86 velocity=64 time=0\n",
      "note_off channel=0 note=91 velocity=64 time=0\n",
      "note_on channel=0 note=55 velocity=68 time=2\n",
      "note_off channel=0 note=56 velocity=64 time=0\n",
      "note_off channel=0 note=68 velocity=64 time=0\n",
      "note_off channel=0 note=94 velocity=64 time=0\n",
      "note_off channel=0 note=92 velocity=64 time=2\n",
      "note_on channel=0 note=74 velocity=19 time=1\n",
      "note_off channel=0 note=75 velocity=64 time=0\n",
      "note_off channel=0 note=55 velocity=64 time=3\n",
      "note_on channel=0 note=56 velocity=65 time=0\n",
      "note_on channel=0 note=68 velocity=72 time=0\n",
      "note_on channel=0 note=86 velocity=26 time=0\n",
      "note_off channel=0 note=74 velocity=64 time=1\n",
      "note_on channel=0 note=99 velocity=21 time=0\n",
      "note_on channel=0 note=103 velocity=10 time=1\n",
      "note_on channel=0 note=75 velocity=41 time=2\n",
      "note_on channel=0 note=97 velocity=28 time=1\n",
      "note_off channel=0 note=97 velocity=64 time=3\n",
      "note_on channel=0 note=98 velocity=26 time=0\n",
      "note_on channel=0 note=95 velocity=21 time=1\n",
      "note_off channel=0 note=78 velocity=64 time=4\n",
      "note_on channel=0 note=93 velocity=31 time=2\n",
      "note_on channel=0 note=83 velocity=24 time=1\n",
      "note_off channel=0 note=82 velocity=64 time=1\n",
      "note_off channel=0 note=98 velocity=64 time=0\n",
      "note_off channel=0 note=103 velocity=64 time=0\n",
      "note_off channel=0 note=86 velocity=64 time=2\n",
      "note_off channel=0 note=99 velocity=64 time=2\n",
      "note_on channel=0 note=78 velocity=15 time=3\n",
      "note_on channel=0 note=97 velocity=22 time=0\n",
      "note_off channel=0 note=84 velocity=64 time=3\n",
      "note_off channel=0 note=97 velocity=64 time=1\n",
      "note_on channel=0 note=98 velocity=14 time=0\n",
      "note_on channel=0 note=82 velocity=42 time=3\n",
      "note_off channel=0 note=98 velocity=64 time=0\n",
      "note_on channel=0 note=86 velocity=32 time=1\n",
      "note_off channel=0 note=83 velocity=64 time=1\n",
      "note_on channel=0 note=84 velocity=16 time=1\n",
      "note_off channel=0 note=78 velocity=64 time=3\n",
      "note_on channel=0 note=78 velocity=15 time=1\n",
      "note_on channel=0 note=97 velocity=16 time=1\n",
      "note_off channel=0 note=84 velocity=64 time=1\n",
      "note_on channel=0 note=83 velocity=35 time=1\n",
      "note_off channel=0 note=88 velocity=64 time=0\n",
      "note_on channel=0 note=55 velocity=70 time=1\n",
      "note_off channel=0 note=56 velocity=64 time=0\n",
      "note_on channel=0 note=67 velocity=72 time=1\n",
      "note_off channel=0 note=68 velocity=64 time=0\n",
      "note_on channel=0 note=84 velocity=19 time=0\n",
      "note_off channel=0 note=75 velocity=64 time=1\n",
      "note_on channel=0 note=88 velocity=30 time=0\n",
      "note_off channel=0 note=95 velocity=64 time=0\n",
      "note_off channel=0 note=97 velocity=64 time=0\n",
      "note_off channel=0 note=78 velocity=64 time=1\n",
      "note_off channel=0 note=83 velocity=64 time=0\n",
      "note_on channel=0 note=73 velocity=25 time=1\n",
      "note_on channel=0 note=85 velocity=29 time=0\n",
      "note_off channel=0 note=86 velocity=64 time=0\n",
      "note_on channel=0 note=54 velocity=70 time=1\n",
      "note_off channel=0 note=55 velocity=64 time=0\n",
      "note_off channel=0 note=67 velocity=64 time=0\n",
      "note_off channel=0 note=85 velocity=64 time=1\n",
      "note_on channel=0 note=86 velocity=18 time=0\n",
      "note_on channel=0 note=72 velocity=37 time=4\n",
      "note_off channel=0 note=73 velocity=64 time=0\n",
      "note_on channel=0 note=91 velocity=11 time=0\n",
      "note_on channel=0 note=53 velocity=68 time=1\n",
      "note_off channel=0 note=54 velocity=64 time=0\n",
      "note_on channel=0 note=64 velocity=45 time=0\n",
      "note_on channel=0 note=52 velocity=66 time=1\n",
      "note_off channel=0 note=53 velocity=64 time=0\n",
      "note_on channel=0 note=71 velocity=34 time=0\n",
      "note_off channel=0 note=72 velocity=64 time=0\n",
      "note_on channel=0 note=75 velocity=29 time=1\n",
      "note_off channel=0 note=86 velocity=64 time=0\n",
      "note_on channel=0 note=97 velocity=10 time=0\n",
      "note_off channel=0 note=52 velocity=64 time=1\n",
      "note_off channel=0 note=64 velocity=64 time=0\n",
      "note_off channel=0 note=71 velocity=64 time=0\n",
      "note_on channel=0 note=83 velocity=32 time=0\n",
      "note_off channel=0 note=91 velocity=64 time=0\n",
      "note_on channel=0 note=52 velocity=67 time=1\n",
      "note_on channel=0 note=71 velocity=29 time=0\n",
      "note_off channel=0 note=82 velocity=64 time=0\n",
      "note_on channel=0 note=86 velocity=16 time=1\n",
      "note_on channel=0 note=101 velocity=15 time=0\n",
      "note_off channel=0 note=97 velocity=64 time=1\n",
      "note_on channel=0 note=82 velocity=31 time=1\n",
      "note_off channel=0 note=83 velocity=64 time=1\n",
      "note_on channel=0 note=95 velocity=26 time=1\n",
      "note_on channel=0 note=63 velocity=50 time=1\n",
      "note_off channel=0 note=71 velocity=64 time=0\n",
      "note_off channel=0 note=52 velocity=64 time=1\n",
      "note_on channel=0 note=69 velocity=38 time=1\n",
      "note_on channel=0 note=83 velocity=26 time=0\n",
      "note_off channel=0 note=101 velocity=64 time=0\n",
      "note_on channel=0 note=62 velocity=37 time=1\n",
      "note_off channel=0 note=63 velocity=64 time=0\n",
      "note_off channel=0 note=82 velocity=64 time=0\n",
      "note_on channel=0 note=97 velocity=17 time=0\n",
      "note_off channel=0 note=84 velocity=64 time=1\n",
      "note_on channel=0 note=51 velocity=66 time=1\n",
      "note_off channel=0 note=62 velocity=64 time=0\n",
      "note_off channel=0 note=69 velocity=64 time=0\n",
      "note_on channel=0 note=70 velocity=33 time=0\n",
      "note_off channel=0 note=83 velocity=64 time=1\n",
      "note_off channel=0 note=97 velocity=64 time=0\n",
      "note_off channel=0 note=70 velocity=64 time=1\n",
      "note_on channel=0 note=83 velocity=33 time=0\n",
      "note_off channel=0 note=51 velocity=64 time=1\n",
      "note_on channel=0 note=70 velocity=27 time=0\n",
      "note_on channel=0 note=52 velocity=68 time=2\n",
      "note_on channel=0 note=101 velocity=33 time=0\n",
      "note_off channel=0 note=70 velocity=64 time=1\n",
      "note_on channel=0 note=71 velocity=25 time=0\n",
      "note_off channel=0 note=75 velocity=64 time=0\n",
      "note_on channel=0 note=82 velocity=28 time=0\n",
      "note_off channel=0 note=86 velocity=64 time=0\n",
      "note_off channel=0 note=83 velocity=64 time=1\n",
      "note_on channel=0 note=86 velocity=16 time=0\n",
      "note_off channel=0 note=86 velocity=64 time=4\n",
      "note_on channel=0 note=77 velocity=17 time=3\n",
      "note_on channel=0 note=80 velocity=25 time=1\n",
      "note_off channel=0 note=77 velocity=64 time=2\n",
      "note_on channel=0 note=77 velocity=15 time=1\n",
      "note_on channel=0 note=85 velocity=23 time=0\n",
      "note_on channel=0 note=75 velocity=19 time=1\n",
      "note_on channel=0 note=83 velocity=27 time=0\n",
      "note_on channel=0 note=98 velocity=12 time=1\n",
      "note_off channel=0 note=98 velocity=64 time=7\n",
      "note_off channel=0 note=82 velocity=64 time=1\n",
      "note_on channel=0 note=82 velocity=24 time=1\n",
      "note_off channel=0 note=83 velocity=64 time=2\n",
      "note_off channel=0 note=71 velocity=64 time=1\n",
      "note_off channel=0 note=80 velocity=64 time=0\n",
      "note_off channel=0 note=101 velocity=64 time=1\n",
      "note_on channel=0 note=91 velocity=9 time=1\n",
      "note_off channel=0 note=95 velocity=64 time=1\n",
      "note_off channel=0 note=75 velocity=64 time=1\n",
      "note_off channel=0 note=77 velocity=64 time=0\n",
      "note_on channel=0 note=83 velocity=37 time=1\n",
      "note_off channel=0 note=82 velocity=64 time=1\n",
      "note_off channel=0 note=52 velocity=64 time=1\n",
      "note_on channel=0 note=52 velocity=35 time=1\n",
      "note_off channel=0 note=91 velocity=64 time=1\n",
      "note_off channel=0 note=52 velocity=64 time=2\n",
      "note_on channel=0 note=92 velocity=9 time=0\n",
      "note_on channel=0 note=75 velocity=27 time=3\n",
      "note_off channel=0 note=92 velocity=64 time=4\n",
      "note_off channel=0 note=88 velocity=64 time=4\n",
      "note_off channel=0 note=90 velocity=64 time=2\n",
      "note_off channel=0 note=93 velocity=64 time=4\n",
      "note_on channel=0 note=68 velocity=10 time=4\n",
      "note_off channel=0 note=85 velocity=64 time=0\n",
      "note_off channel=0 note=83 velocity=64 time=1\n",
      "note_on channel=0 note=83 velocity=43 time=3\n",
      "note_off channel=0 note=68 velocity=64 time=7\n",
      "note_on channel=0 note=50 velocity=56 time=7\n",
      "note_on channel=0 note=61 velocity=62 time=1\n",
      "note_on channel=0 note=80 velocity=27 time=0\n",
      "note_on channel=0 note=93 velocity=52 time=0\n",
      "note_on channel=0 note=49 velocity=77 time=1\n",
      "note_off channel=0 note=50 velocity=64 time=0\n",
      "note_on channel=0 note=68 velocity=67 time=0\n",
      "note_on channel=0 note=90 velocity=21 time=0\n",
      "note_on channel=0 note=92 velocity=32 time=0\n",
      "note_on channel=0 note=94 velocity=32 time=0\n",
      "note_on channel=0 note=100 velocity=50 time=0\n",
      "note_on channel=0 note=101 velocity=53 time=0\n",
      "note_on channel=0 note=72 velocity=48 time=2\n",
      "note_on channel=0 note=82 velocity=33 time=1\n",
      "note_off channel=0 note=83 velocity=64 time=0\n",
      "note_on channel=0 note=102 velocity=30 time=0\n",
      "note_on channel=0 note=95 velocity=17 time=1\n",
      "note_on channel=0 note=60 velocity=60 time=1\n",
      "note_off channel=0 note=61 velocity=64 time=0\n",
      "note_on channel=0 note=67 velocity=74 time=0\n",
      "note_off channel=0 note=68 velocity=64 time=0\n",
      "note_off channel=0 note=90 velocity=64 time=0\n",
      "note_on channel=0 note=91 velocity=22 time=0\n",
      "note_off channel=0 note=92 velocity=64 time=0\n",
      "note_on channel=0 note=99 velocity=29 time=0\n",
      "note_off channel=0 note=82 velocity=64 time=1\n",
      "note_on channel=0 note=83 velocity=39 time=0\n",
      "note_off channel=0 note=49 velocity=64 time=1\n",
      "note_off channel=0 note=60 velocity=64 time=0\n",
      "note_off channel=0 note=95 velocity=64 time=0\n",
      "note_on channel=0 note=96 velocity=46 time=0\n",
      "note_on channel=0 note=47 velocity=48 time=1\n",
      "note_on channel=0 note=60 velocity=62 time=0\n",
      "note_off channel=0 note=94 velocity=64 time=0\n",
      "note_on channel=0 note=95 velocity=47 time=0\n",
      "note_on channel=0 note=94 velocity=39 time=1\n",
      "note_off channel=0 note=47 velocity=64 time=1\n",
      "note_on channel=0 note=103 velocity=26 time=0\n",
      "note_on channel=0 note=49 velocity=71 time=1\n",
      "note_off channel=0 note=72 velocity=64 time=0\n",
      "note_off channel=0 note=95 velocity=64 time=0\n",
      "note_on channel=0 note=97 velocity=49 time=0\n",
      "note_off channel=0 note=60 velocity=64 time=1\n",
      "note_off channel=0 note=67 velocity=64 time=0\n",
      "note_on channel=0 note=68 velocity=73 time=0\n",
      "note_off channel=0 note=75 velocity=64 time=0\n",
      "note_on channel=0 note=60 velocity=62 time=1\n",
      "note_off channel=0 note=96 velocity=64 time=0\n",
      "note_on channel=0 note=67 velocity=69 time=1\n",
      "note_off channel=0 note=68 velocity=64 time=0\n",
      "note_off channel=0 note=93 velocity=64 time=0\n",
      "note_on channel=0 note=96 velocity=51 time=0\n",
      "note_off channel=0 note=97 velocity=64 time=0\n",
      "note_on channel=0 note=98 velocity=23 time=0\n",
      "note_on channel=0 note=48 velocity=71 time=1\n",
      "note_off channel=0 note=49 velocity=64 time=0\n",
      "note_on channel=0 note=97 velocity=32 time=0\n",
      "note_off channel=0 note=48 velocity=64 time=3\n",
      "note_on channel=0 note=49 velocity=73 time=0\n",
      "note_off channel=0 note=60 velocity=64 time=0\n",
      "note_off channel=0 note=67 velocity=64 time=0\n",
      "note_on channel=0 note=68 velocity=68 time=0\n",
      "note_off channel=0 note=91 velocity=64 time=0\n",
      "note_off channel=0 note=94 velocity=64 time=1\n",
      "note_off channel=0 note=49 velocity=64 time=2\n",
      "note_on channel=0 note=50 velocity=76 time=0\n",
      "note_off channel=0 note=68 velocity=64 time=0\n",
      "note_on channel=0 note=69 velocity=43 time=0\n",
      "note_off channel=0 note=50 velocity=64 time=2\n",
      "note_on channel=0 note=53 velocity=73 time=0\n",
      "note_off channel=0 note=69 velocity=64 time=0\n",
      "note_on channel=0 note=72 velocity=38 time=0\n",
      "note_on channel=0 note=78 velocity=20 time=0\n",
      "note_on channel=0 note=66 velocity=73 time=1\n",
      "note_off channel=0 note=96 velocity=64 time=0\n",
      "note_off channel=0 note=103 velocity=64 time=0\n",
      "note_off channel=0 note=53 velocity=64 time=1\n",
      "note_on channel=0 note=54 velocity=71 time=0\n",
      "note_off channel=0 note=72 velocity=64 time=1\n",
      "note_on channel=0 note=74 velocity=22 time=0\n",
      "note_on channel=0 note=96 velocity=13 time=0\n",
      "note_off channel=0 note=102 velocity=64 time=0\n",
      "note_on channel=0 note=103 velocity=16 time=0\n",
      "note_off channel=0 note=54 velocity=64 time=1\n",
      "note_on channel=0 note=55 velocity=73 time=0\n",
      "note_off channel=0 note=66 velocity=64 time=0\n",
      "note_on channel=0 note=67 velocity=77 time=0\n",
      "note_off channel=0 note=97 velocity=64 time=0\n",
      "note_on channel=0 note=54 velocity=72 time=1\n",
      "note_off channel=0 note=55 velocity=64 time=0\n",
      "note_on channel=0 note=87 velocity=16 time=0\n",
      "note_on channel=0 note=102 velocity=34 time=0\n",
      "note_on channel=0 note=66 velocity=72 time=1\n",
      "note_off channel=0 note=67 velocity=64 time=0\n",
      "note_off channel=0 note=74 velocity=64 time=0\n",
      "note_off channel=0 note=83 velocity=64 time=0\n",
      "note_off channel=0 note=96 velocity=64 time=0\n",
      "note_off channel=0 note=103 velocity=64 time=0\n",
      "note_on channel=0 note=72 velocity=46 time=1\n",
      "note_on channel=0 note=83 velocity=39 time=0\n",
      "note_on channel=0 note=53 velocity=71 time=1\n",
      "note_off channel=0 note=54 velocity=64 time=0\n",
      "note_off channel=0 note=66 velocity=64 time=0\n",
      "note_on channel=0 note=97 velocity=26 time=0\n",
      "note_on channel=0 note=103 velocity=30 time=0\n",
      "note_on channel=0 note=64 velocity=56 time=1\n",
      "note_on channel=0 note=52 velocity=77 time=1\n",
      "note_off channel=0 note=53 velocity=64 time=0\n",
      "note_on channel=0 note=71 velocity=46 time=0\n",
      "note_off channel=0 note=72 velocity=64 time=0\n",
      "note_off channel=0 note=78 velocity=64 time=0\n",
      "note_on channel=0 note=96 velocity=44 time=0\n",
      "note_on channel=0 note=68 velocity=20 time=1\n",
      "note_off channel=0 note=97 velocity=64 time=0\n",
      "note_on channel=0 note=97 velocity=31 time=1\n",
      "note_off channel=0 note=98 velocity=64 time=0\n",
      "note_off channel=0 note=80 velocity=64 time=3\n",
      "note_on channel=0 note=80 velocity=39 time=1\n",
      "note_off channel=0 note=87 velocity=64 time=0\n",
      "note_off channel=0 note=64 velocity=64 time=2\n",
      "note_on channel=0 note=65 velocity=49 time=0\n",
      "note_off channel=0 note=68 velocity=64 time=1\n",
      "note_off channel=0 note=71 velocity=64 time=0\n",
      "note_on channel=0 note=72 velocity=45 time=0\n",
      "note_off channel=0 note=103 velocity=64 time=0\n",
      "note_off channel=0 note=52 velocity=64 time=1\n",
      "note_on channel=0 note=53 velocity=72 time=0\n",
      "note_off channel=0 note=65 velocity=64 time=0\n",
      "note_on channel=0 note=66 velocity=63 time=0\n",
      "note_off channel=0 note=53 velocity=64 time=1\n",
      "note_on channel=0 note=74 velocity=25 time=0\n",
      "note_off channel=0 note=99 velocity=64 time=0\n",
      "note_off channel=0 note=102 velocity=64 time=0\n",
      "note_on channel=0 note=55 velocity=65 time=1\n",
      "note_off channel=0 note=66 velocity=64 time=0\n",
      "note_on channel=0 note=67 velocity=68 time=0\n",
      "note_off channel=0 note=72 velocity=64 time=0\n",
      "note_off channel=0 note=55 velocity=64 time=1\n",
      "note_on channel=0 note=56 velocity=65 time=0\n",
      "note_off channel=0 note=67 velocity=64 time=0\n",
      "note_on channel=0 note=68 velocity=67 time=0\n",
      "note_off channel=0 note=74 velocity=64 time=1\n",
      "note_off channel=0 note=96 velocity=64 time=0\n",
      "note_off channel=0 note=97 velocity=64 time=0\n",
      "note_off channel=0 note=100 velocity=64 time=0\n",
      "note_off channel=0 note=101 velocity=64 time=1\n",
      "note_on channel=0 note=55 velocity=65 time=4\n",
      "note_off channel=0 note=56 velocity=64 time=0\n",
      "note_on channel=0 note=67 velocity=70 time=0\n",
      "note_off channel=0 note=68 velocity=64 time=0\n",
      "note_on channel=0 note=54 velocity=70 time=1\n",
      "note_off channel=0 note=55 velocity=64 time=0\n",
      "note_on channel=0 note=78 velocity=41 time=0\n",
      "note_on channel=0 note=85 velocity=13 time=0\n",
      "note_on channel=0 note=97 velocity=32 time=0\n",
      "note_on channel=0 note=101 velocity=30 time=0\n",
      "note_off channel=0 note=54 velocity=64 time=1\n",
      "note_on channel=0 note=55 velocity=75 time=0\n",
      "note_on channel=0 note=66 velocity=68 time=0\n",
      "note_off channel=0 note=67 velocity=64 time=0\n",
      "note_on channel=0 note=73 velocity=34 time=0\n",
      "note_on channel=0 note=82 velocity=21 time=0\n",
      "note_off channel=0 note=83 velocity=64 time=0\n",
      "note_on channel=0 note=54 velocity=72 time=1\n",
      "note_off channel=0 note=55 velocity=64 time=0\n",
      "note_on channel=0 note=102 velocity=18 time=0\n",
      "note_on channel=0 note=99 velocity=25 time=1\n",
      "note_on channel=0 note=103 velocity=19 time=0\n",
      "note_on channel=0 note=75 velocity=23 time=1\n",
      "note_off channel=0 note=85 velocity=64 time=0\n",
      "note_off channel=0 note=82 velocity=64 time=1\n",
      "note_on channel=0 note=98 velocity=15 time=0\n",
      "note_on channel=0 note=100 velocity=41 time=0\n",
      "note_off channel=0 note=101 velocity=64 time=0\n",
      "note_on channel=0 note=95 velocity=20 time=1\n",
      "note_off channel=0 note=102 velocity=64 time=0\n",
      "note_on channel=0 note=81 velocity=23 time=1\n",
      "note_off channel=0 note=80 velocity=64 time=3\n",
      "note_off channel=0 note=100 velocity=64 time=0\n",
      "note_on channel=0 note=101 velocity=44 time=0\n",
      "note_off channel=0 note=81 velocity=64 time=1\n",
      "note_off channel=0 note=98 velocity=64 time=0\n",
      "note_on channel=0 note=102 velocity=30 time=0\n",
      "note_on channel=0 note=83 velocity=15 time=1\n",
      "note_on channel=0 note=91 velocity=16 time=0\n",
      "note_off channel=0 note=99 velocity=64 time=1\n",
      "note_on channel=0 note=100 velocity=26 time=0\n",
      "note_off channel=0 note=103 velocity=64 time=2\n",
      "note_on channel=0 note=82 velocity=22 time=1\n",
      "note_off channel=0 note=83 velocity=64 time=1\n",
      "note_off channel=0 note=95 velocity=64 time=0\n",
      "note_on channel=0 note=96 velocity=15 time=0\n",
      "note_on channel=0 note=83 velocity=25 time=1\n",
      "note_off channel=0 note=102 velocity=64 time=0\n",
      "note_off channel=0 note=54 velocity=64 time=1\n",
      "note_on channel=0 note=55 velocity=65 time=0\n",
      "note_off channel=0 note=66 velocity=64 time=0\n",
      "note_on channel=0 note=67 velocity=73 time=0\n",
      "note_off channel=0 note=73 velocity=64 time=0\n",
      "note_on channel=0 note=74 velocity=33 time=0\n",
      "note_off channel=0 note=75 velocity=64 time=0\n",
      "note_off channel=0 note=82 velocity=64 time=0\n",
      "note_off channel=0 note=78 velocity=64 time=1\n",
      "note_on channel=0 note=80 velocity=38 time=0\n",
      "note_on channel=0 note=84 velocity=21 time=0\n",
      "note_off channel=0 note=55 velocity=64 time=1\n",
      "note_off channel=0 note=67 velocity=64 time=0\n",
      "note_on channel=0 note=68 velocity=63 time=0\n",
      "note_on channel=0 note=78 velocity=18 time=0\n",
      "note_off channel=0 note=96 velocity=64 time=0\n",
      "note_on channel=0 note=57 velocity=67 time=1\n",
      "note_on channel=0 note=75 velocity=26 time=0\n",
      "note_off channel=0 note=80 velocity=64 time=0\n",
      "note_on channel=0 note=81 velocity=37 time=0\n",
      "note_off channel=0 note=97 velocity=64 time=0\n",
      "note_off channel=0 note=100 velocity=64 time=0\n",
      "note_off channel=0 note=68 velocity=64 time=1\n",
      "note_off channel=0 note=74 velocity=64 time=0\n",
      "note_on channel=0 note=82 velocity=11 time=0\n",
      "note_off channel=0 note=83 velocity=64 time=1\n",
      "note_on channel=0 note=86 velocity=29 time=0\n",
      "note_off channel=0 note=101 velocity=64 time=0\n",
      "note_on channel=0 note=56 velocity=68 time=1\n",
      "note_off channel=0 note=57 velocity=64 time=0\n",
      "note_off channel=0 note=75 velocity=64 time=0\n",
      "note_off channel=0 note=81 velocity=64 time=0\n",
      "note_on channel=0 note=87 velocity=13 time=0\n",
      "note_on channel=0 note=88 velocity=36 time=0\n",
      "note_on channel=0 note=75 velocity=36 time=1\n",
      "note_on channel=0 note=55 velocity=64 time=1\n",
      "note_off channel=0 note=56 velocity=64 time=0\n",
      "note_on channel=0 note=67 velocity=71 time=0\n",
      "note_off channel=0 note=82 velocity=64 time=0\n",
      "note_on channel=0 note=83 velocity=31 time=0\n",
      "note_on channel=0 note=74 velocity=38 time=1\n",
      "note_off channel=0 note=75 velocity=64 time=0\n",
      "note_off channel=0 note=55 velocity=64 time=2\n",
      "note_on channel=0 note=56 velocity=65 time=0\n",
      "note_on channel=0 note=82 velocity=31 time=0\n",
      "note_off channel=0 note=67 velocity=64 time=1\n",
      "note_off channel=0 note=83 velocity=64 time=0\n",
      "note_off channel=0 note=56 velocity=64 time=2\n",
      "note_on channel=0 note=57 velocity=68 time=0\n",
      "note_off channel=0 note=74 velocity=64 time=0\n",
      "note_on channel=0 note=68 velocity=58 time=2\n",
      "note_off channel=0 note=87 velocity=64 time=0\n",
      "note_on channel=0 note=101 velocity=12 time=0\n",
      "note_on channel=0 note=56 velocity=68 time=1\n",
      "note_off channel=0 note=57 velocity=64 time=0\n",
      "note_off channel=0 note=78 velocity=64 time=1\n",
      "note_off channel=0 note=84 velocity=64 time=0\n",
      "note_off channel=0 note=56 velocity=64 time=1\n",
      "note_on channel=0 note=67 velocity=65 time=0\n",
      "note_off channel=0 note=68 velocity=64 time=0\n",
      "note_on channel=0 note=84 velocity=22 time=0\n",
      "note_on channel=0 note=54 velocity=72 time=1\n",
      "note_off channel=0 note=67 velocity=64 time=1\n",
      "note_on channel=0 note=73 velocity=29 time=1\n",
      "note_on channel=0 note=87 velocity=21 time=2\n",
      "note_off channel=0 note=101 velocity=64 time=0\n",
      "note_on channel=0 note=75 velocity=24 time=2\n",
      "note_on channel=0 note=101 velocity=16 time=0\n",
      "note_off channel=0 note=91 velocity=64 time=3\n",
      "note_off channel=0 note=101 velocity=64 time=0\n",
      "note_on channel=0 note=101 velocity=23 time=3\n",
      "note_off channel=0 note=86 velocity=64 time=5\n",
      "note_on channel=0 note=90 velocity=37 time=3\n",
      "note_off channel=0 note=87 velocity=64 time=4\n",
      "note_on channel=0 note=80 velocity=20 time=1\n",
      "note_off channel=0 note=75 velocity=64 time=2\n",
      "note_off channel=0 note=101 velocity=64 time=0\n",
      "note_on channel=0 note=86 velocity=29 time=4\n",
      "note_off channel=0 note=82 velocity=64 time=1\n",
      "note_on channel=0 note=82 velocity=34 time=1\n",
      "note_off channel=0 note=54 velocity=64 time=1\n",
      "note_on channel=0 note=55 velocity=63 time=0\n",
      "note_on channel=0 note=67 velocity=67 time=0\n",
      "note_off channel=0 note=73 velocity=64 time=0\n",
      "note_on channel=0 note=74 velocity=21 time=0\n",
      "note_on channel=0 note=54 velocity=62 time=2\n",
      "note_off channel=0 note=55 velocity=64 time=0\n",
      "note_off channel=0 note=67 velocity=64 time=0\n",
      "note_on channel=0 note=73 velocity=31 time=1\n",
      "note_off channel=0 note=74 velocity=64 time=0\n",
      "note_on channel=0 note=53 velocity=63 time=2\n",
      "note_off channel=0 note=54 velocity=64 time=0\n",
      "note_on channel=0 note=75 velocity=27 time=0\n",
      "note_off channel=0 note=80 velocity=64 time=0\n",
      "note_on channel=0 note=64 velocity=40 time=1\n",
      "note_off channel=0 note=73 velocity=64 time=0\n",
      "note_on channel=0 note=52 velocity=69 time=1\n",
      "note_off channel=0 note=53 velocity=64 time=0\n",
      "note_on channel=0 note=71 velocity=30 time=0\n",
      "note_off channel=0 note=84 velocity=64 time=0\n",
      "note_on channel=0 note=95 velocity=24 time=0\n",
      "note_off channel=0 note=82 velocity=64 time=3\n",
      "note_on channel=0 note=82 velocity=16 time=1\n",
      "note_on channel=0 note=93 velocity=60 time=0\n",
      "note_on channel=0 note=80 velocity=10 time=1\n",
      "note_off channel=0 note=71 velocity=64 time=3\n",
      "note_on channel=0 note=72 velocity=28 time=0\n",
      "note_off channel=0 note=80 velocity=64 time=0\n",
      "note_off channel=0 note=82 velocity=64 time=0\n",
      "note_off channel=0 note=86 velocity=64 time=2\n",
      "note_off channel=0 note=72 velocity=64 time=1\n",
      "note_on channel=0 note=84 velocity=23 time=0\n",
      "note_off channel=0 note=64 velocity=64 time=2\n",
      "note_on channel=0 note=85 velocity=20 time=0\n",
      "note_on channel=0 note=80 velocity=46 time=1\n",
      "note_on channel=0 note=78 velocity=14 time=1\n",
      "note_off channel=0 note=52 velocity=64 time=3\n",
      "note_on channel=0 note=82 velocity=35 time=0\n",
      "note_off channel=0 note=85 velocity=64 time=2\n",
      "note_on channel=0 note=86 velocity=32 time=0\n",
      "note_off channel=0 note=78 velocity=64 time=5\n",
      "note_on channel=0 note=78 velocity=16 time=1\n",
      "note_on channel=0 note=35 velocity=14 time=6\n",
      "note_on channel=0 note=51 velocity=56 time=1\n",
      "note_on channel=0 note=69 velocity=37 time=1\n",
      "note_on channel=0 note=101 velocity=42 time=0\n",
      "note_off channel=0 note=35 velocity=64 time=1\n",
      "note_on channel=0 note=50 velocity=66 time=0\n",
      "note_off channel=0 note=51 velocity=64 time=0\n",
      "note_on channel=0 note=97 velocity=21 time=0\n",
      "note_on channel=0 note=99 velocity=38 time=0\n",
      "note_on channel=0 note=100 velocity=40 time=0\n",
      "note_off channel=0 note=75 velocity=64 time=1\n",
      "note_off channel=0 note=95 velocity=64 time=0\n",
      "note_on channel=0 note=103 velocity=25 time=0\n",
      "note_on channel=0 note=63 velocity=58 time=1\n",
      "note_off channel=0 note=50 velocity=64 time=1\n",
      "note_off channel=0 note=78 velocity=64 time=0\n",
      "note_on channel=0 note=52 velocity=71 time=1\n",
      "note_off channel=0 note=69 velocity=64 time=0\n",
      "note_on channel=0 note=71 velocity=34 time=0\n",
      "note_off channel=0 note=97 velocity=64 time=0\n",
      "note_off channel=0 note=63 velocity=64 time=1\n",
      "note_off channel=0 note=82 velocity=64 time=0\n",
      "note_off channel=0 note=86 velocity=64 time=0\n",
      "note_on channel=0 note=91 velocity=15 time=0\n",
      "note_on channel=0 note=86 velocity=17 time=1\n",
      "note_on channel=0 note=63 velocity=61 time=2\n",
      "note_on channel=0 note=70 velocity=29 time=0\n",
      "note_off channel=0 note=71 velocity=64 time=0\n",
      "note_on channel=0 note=51 velocity=65 time=1\n",
      "note_off channel=0 note=52 velocity=64 time=0\n",
      "note_off channel=0 note=103 velocity=64 time=0\n",
      "note_on channel=0 note=85 velocity=19 time=1\n",
      "note_off channel=0 note=86 velocity=64 time=0\n",
      "note_on channel=0 note=103 velocity=25 time=0\n",
      "note_off channel=0 note=51 velocity=64 time=2\n",
      "note_off channel=0 note=63 velocity=64 time=0\n",
      "note_off channel=0 note=70 velocity=64 time=0\n",
      "note_on channel=0 note=82 velocity=26 time=0\n",
      "note_on channel=0 note=53 velocity=72 time=1\n",
      "note_on channel=0 note=66 velocity=65 time=0\n",
      "note_on channel=0 note=72 velocity=29 time=0\n",
      "note_off channel=0 note=53 velocity=64 time=1\n",
      "note_on channel=0 note=54 velocity=71 time=0\n",
      "note_on channel=0 note=74 velocity=28 time=0\n",
      "note_off channel=0 note=54 velocity=64 time=1\n",
      "note_on channel=0 note=55 velocity=69 time=0\n",
      "note_off channel=0 note=66 velocity=64 time=0\n",
      "note_on channel=0 note=67 velocity=70 time=0\n",
      "note_off channel=0 note=72 velocity=64 time=0\n",
      "note_off channel=0 note=55 velocity=64 time=2\n",
      "note_on channel=0 note=56 velocity=62 time=0\n",
      "note_off channel=0 note=67 velocity=64 time=0\n",
      "note_on channel=0 note=68 velocity=65 time=0\n",
      "note_off channel=0 note=74 velocity=64 time=0\n",
      "note_on channel=0 note=75 velocity=41 time=0\n",
      "note_off channel=0 note=85 velocity=64 time=0\n",
      "note_on channel=0 note=95 velocity=36 time=1\n",
      "note_on channel=0 note=55 velocity=62 time=1\n",
      "note_off channel=0 note=56 velocity=64 time=0\n",
      "note_on channel=0 note=67 velocity=72 time=1\n",
      "note_off channel=0 note=68 velocity=64 time=0\n",
      "note_on channel=0 note=74 velocity=36 time=0\n",
      "note_off channel=0 note=75 velocity=64 time=0\n",
      "note_off channel=0 note=80 velocity=64 time=0\n",
      "note_on channel=0 note=98 velocity=36 time=0\n",
      "note_on channel=0 note=54 velocity=66 time=1\n",
      "note_off channel=0 note=55 velocity=64 time=0\n",
      "note_on channel=0 note=75 velocity=15 time=0\n",
      "note_on channel=0 note=80 velocity=23 time=0\n",
      "note_off channel=0 note=84 velocity=64 time=0\n",
      "note_on channel=0 note=66 velocity=66 time=1\n",
      "note_off channel=0 note=67 velocity=64 time=0\n",
      "note_on channel=0 note=72 velocity=39 time=0\n",
      "note_off channel=0 note=74 velocity=64 time=0\n",
      "note_on channel=0 note=53 velocity=66 time=1\n",
      "note_off channel=0 note=54 velocity=64 time=0\n",
      "note_on channel=0 note=83 velocity=28 time=0\n",
      "note_on channel=0 note=96 velocity=29 time=0\n",
      "note_off channel=0 note=103 velocity=64 time=0\n",
      "note_off channel=0 note=66 velocity=64 time=1\n",
      "note_off channel=0 note=75 velocity=64 time=0\n",
      "note_off channel=0 note=82 velocity=64 time=0\n",
      "note_on channel=0 note=103 velocity=25 time=0\n",
      "note_off channel=0 note=53 velocity=64 time=1\n",
      "note_on channel=0 note=54 velocity=68 time=0\n",
      "note_off channel=0 note=72 velocity=64 time=0\n",
      "note_on channel=0 note=73 velocity=34 time=0\n",
      "note_off channel=0 note=96 velocity=64 time=0\n",
      "note_on channel=0 note=97 velocity=30 time=0\n",
      "note_off channel=0 note=100 velocity=64 time=1\n",
      "note_off channel=0 note=98 velocity=64 time=2\n",
      "note_off channel=0 note=99 velocity=64 time=0\n",
      "note_off channel=0 note=103 velocity=64 time=0\n",
      "note_on channel=0 note=53 velocity=64 time=2\n",
      "note_off channel=0 note=54 velocity=64 time=0\n",
      "note_off channel=0 note=97 velocity=64 time=0\n",
      "note_off channel=0 note=101 velocity=64 time=0\n",
      "note_on channel=0 note=82 velocity=29 time=1\n",
      "note_on channel=0 note=86 velocity=13 time=0\n",
      "note_off channel=0 note=80 velocity=64 time=1\n",
      "note_off channel=0 note=83 velocity=64 time=0\n",
      "note_off channel=0 note=91 velocity=64 time=0\n",
      "note_off channel=0 note=53 velocity=64 time=1\n",
      "note_on channel=0 note=54 velocity=32 time=0\n",
      "note_on channel=0 note=53 velocity=35 time=2\n",
      "note_off channel=0 note=54 velocity=64 time=0\n",
      "note_off channel=0 note=73 velocity=64 time=0\n",
      "note_off channel=0 note=82 velocity=64 time=0\n",
      "note_on channel=0 note=83 velocity=31 time=0\n",
      "note_on channel=0 note=91 velocity=16 time=1\n",
      "note_on channel=0 note=82 velocity=44 time=2\n",
      "note_on channel=0 note=92 velocity=36 time=0\n",
      "note_off channel=0 note=53 velocity=64 time=1\n",
      "note_on channel=0 note=78 velocity=35 time=0\n",
      "note_off channel=0 note=83 velocity=64 time=0\n",
      "note_on channel=0 note=84 velocity=33 time=0\n",
      "note_on channel=0 note=70 velocity=52 time=1\n",
      "note_on channel=0 note=85 velocity=35 time=0\n",
      "note_off channel=0 note=91 velocity=64 time=0\n",
      "note_on channel=0 note=57 velocity=67 time=1\n",
      "note_off channel=0 note=78 velocity=64 time=0\n",
      "note_off channel=0 note=86 velocity=64 time=0\n",
      "note_on channel=0 note=91 velocity=42 time=0\n",
      "note_off channel=0 note=70 velocity=64 time=1\n",
      "note_on channel=0 note=75 velocity=57 time=0\n",
      "note_off channel=0 note=82 velocity=64 time=0\n",
      "note_on channel=0 note=83 velocity=53 time=0\n",
      "note_on channel=0 note=94 velocity=40 time=0\n",
      "note_on channel=0 note=56 velocity=67 time=1\n",
      "note_off channel=0 note=57 velocity=64 time=0\n",
      "note_off channel=0 note=84 velocity=64 time=0\n",
      "note_on channel=0 note=55 velocity=70 time=1\n",
      "note_off channel=0 note=56 velocity=64 time=0\n",
      "note_on channel=0 note=67 velocity=70 time=0\n",
      "note_on channel=0 note=70 velocity=32 time=0\n",
      "note_on channel=0 note=74 velocity=70 time=0\n",
      "note_off channel=0 note=75 velocity=64 time=0\n",
      "note_off channel=0 note=85 velocity=64 time=0\n",
      "note_on channel=0 note=89 velocity=42 time=0\n",
      "note_off channel=0 note=90 velocity=64 time=0\n",
      "note_off channel=0 note=94 velocity=64 time=0\n",
      "note_on channel=0 note=102 velocity=14 time=0\n",
      "note_on channel=0 note=90 velocity=41 time=1\n",
      "note_off channel=0 note=70 velocity=64 time=1\n",
      "note_off channel=0 note=88 velocity=64 time=0\n",
      "note_on channel=0 note=85 velocity=18 time=1\n",
      "note_off channel=0 note=92 velocity=64 time=0\n",
      "note_off channel=0 note=102 velocity=64 time=0\n",
      "note_on channel=0 note=80 velocity=47 time=4\n",
      "note_off channel=0 note=85 velocity=64 time=0\n",
      "note_on channel=0 note=88 velocity=52 time=0\n",
      "note_off channel=0 note=89 velocity=64 time=0\n",
      "note_on channel=0 note=54 velocity=70 time=1\n",
      "note_off channel=0 note=55 velocity=64 time=0\n",
      "note_on channel=0 note=78 velocity=27 time=0\n",
      "note_on channel=0 note=85 velocity=26 time=0\n",
      "note_off channel=0 note=91 velocity=64 time=0\n",
      "note_on channel=0 note=94 velocity=29 time=0\n",
      "note_off channel=0 note=67 velocity=64 time=1\n",
      "note_on channel=0 note=73 velocity=40 time=0\n",
      "note_on channel=0 note=65 velocity=50 time=1\n",
      "note_off channel=0 note=74 velocity=64 time=0\n",
      "note_on channel=0 note=81 velocity=17 time=0\n",
      "note_on channel=0 note=91 velocity=28 time=0\n",
      "note_off channel=0 note=93 velocity=64 time=0\n",
      "note_on channel=0 note=75 velocity=11 time=2\n",
      "note_off channel=0 note=85 velocity=64 time=0\n",
      "note_on channel=0 note=93 velocity=28 time=0\n",
      "note_off channel=0 note=94 velocity=64 time=0\n",
      "note_off channel=0 note=65 velocity=64 time=1\n",
      "note_off channel=0 note=81 velocity=64 time=0\n",
      "note_on channel=0 note=53 velocity=71 time=1\n",
      "note_off channel=0 note=54 velocity=64 time=0\n",
      "note_off channel=0 note=73 velocity=64 time=0\n",
      "note_off channel=0 note=53 velocity=64 time=1\n",
      "note_on channel=0 note=54 velocity=74 time=0\n",
      "note_off channel=0 note=75 velocity=64 time=0\n",
      "note_on channel=0 note=53 velocity=76 time=1\n",
      "note_off channel=0 note=54 velocity=64 time=0\n",
      "note_off channel=0 note=78 velocity=64 time=0\n",
      "note_on channel=0 note=82 velocity=22 time=0\n",
      "note_off channel=0 note=83 velocity=64 time=1\n",
      "note_on channel=0 note=72 velocity=41 time=1\n",
      "note_on channel=0 note=64 velocity=43 time=1\n",
      "note_on channel=0 note=83 velocity=59 time=0\n",
      "note_off channel=0 note=91 velocity=64 time=0\n",
      "note_on channel=0 note=52 velocity=74 time=1\n",
      "note_off channel=0 note=53 velocity=64 time=0\n",
      "note_on channel=0 note=71 velocity=50 time=0\n",
      "note_off channel=0 note=72 velocity=64 time=0\n",
      "note_off channel=0 note=82 velocity=64 time=0\n",
      "note_on channel=0 note=85 velocity=44 time=0\n",
      "note_on channel=0 note=91 velocity=13 time=1\n",
      "note_off channel=0 note=80 velocity=64 time=1\n",
      "note_on channel=0 note=80 velocity=50 time=1\n",
      "note_on channel=0 note=86 velocity=47 time=2\n",
      "note_on channel=0 note=96 velocity=21 time=0\n",
      "note_off channel=0 note=85 velocity=64 time=1\n",
      "note_off channel=0 note=91 velocity=64 time=1\n",
      "note_on channel=0 note=85 velocity=43 time=4\n",
      "note_off channel=0 note=93 velocity=64 time=0\n",
      "note_on channel=0 note=94 velocity=30 time=0\n",
      "note_off channel=0 note=86 velocity=64 time=2\n",
      "note_on channel=0 note=93 velocity=33 time=0\n",
      "note_off channel=0 note=94 velocity=64 time=0\n",
      "note_off channel=0 note=85 velocity=64 time=3\n",
      "note_on channel=0 note=86 velocity=34 time=2\n",
      "note_off channel=0 note=93 velocity=64 time=1\n",
      "note_off channel=0 note=95 velocity=64 time=0\n",
      "note_off channel=0 note=64 velocity=64 time=1\n",
      "note_on channel=0 note=65 velocity=51 time=0\n",
      "note_on channel=0 note=87 velocity=39 time=0\n",
      "note_off channel=0 note=96 velocity=64 time=0\n",
      "note_off channel=0 note=71 velocity=64 time=1\n",
      "note_on channel=0 note=72 velocity=57 time=0\n",
      "note_on channel=0 note=75 velocity=27 time=0\n",
      "note_off channel=0 note=80 velocity=64 time=0\n",
      "note_on channel=0 note=81 velocity=35 time=0\n",
      "note_off channel=0 note=83 velocity=64 time=0\n",
      "note_on channel=0 note=91 velocity=22 time=0\n",
      "note_off channel=0 note=52 velocity=64 time=1\n",
      "note_on channel=0 note=53 velocity=71 time=0\n",
      "note_on channel=0 note=80 velocity=32 time=0\n",
      "note_on channel=0 note=85 velocity=34 time=0\n",
      "note_off channel=0 note=90 velocity=64 time=0\n",
      "note_off channel=0 note=53 velocity=64 time=1\n",
      "note_on channel=0 note=54 velocity=71 time=0\n",
      "note_off channel=0 note=65 velocity=64 time=0\n",
      "note_off channel=0 note=81 velocity=64 time=0\n",
      "note_on channel=0 note=82 velocity=43 time=0\n",
      "note_off channel=0 note=72 velocity=64 time=1\n",
      "note_off channel=0 note=75 velocity=64 time=0\n",
      "note_off channel=0 note=86 velocity=64 time=0\n",
      "note_off channel=0 note=87 velocity=64 time=0\n",
      "note_off channel=0 note=91 velocity=64 time=0\n",
      "note_on channel=0 note=73 velocity=54 time=1\n",
      "note_on channel=0 note=75 velocity=31 time=0\n",
      "note_on channel=0 note=77 velocity=20 time=1\n",
      "note_on channel=0 note=93 velocity=34 time=2\n",
      "note_on channel=0 note=72 velocity=45 time=1\n",
      "note_off channel=0 note=77 velocity=64 time=0\n",
      "note_off channel=0 note=82 velocity=64 time=0\n",
      "note_on channel=0 note=83 velocity=38 time=0\n"
     ]
    },
    {
     "name": "stdout",
     "output_type": "stream",
     "text": [
      "note_on channel=0 note=89 velocity=29 time=0\n",
      "note_on channel=0 note=91 velocity=31 time=0\n",
      "note_on channel=0 note=36 velocity=15 time=1\n",
      "note_on channel=0 note=53 velocity=72 time=0\n",
      "note_off channel=0 note=54 velocity=64 time=0\n",
      "note_off channel=0 note=73 velocity=64 time=0\n",
      "note_on channel=0 note=77 velocity=23 time=0\n",
      "note_on channel=0 note=52 velocity=71 time=1\n",
      "note_off channel=0 note=53 velocity=64 time=0\n",
      "note_on channel=0 note=71 velocity=45 time=0\n",
      "note_off channel=0 note=72 velocity=64 time=0\n",
      "note_off channel=0 note=88 velocity=64 time=0\n",
      "note_on channel=0 note=63 velocity=53 time=1\n",
      "note_on channel=0 note=79 velocity=29 time=0\n",
      "note_on channel=0 note=82 velocity=38 time=0\n",
      "note_off channel=0 note=83 velocity=64 time=0\n",
      "note_on channel=0 note=88 velocity=16 time=0\n",
      "note_on channel=0 note=96 velocity=20 time=0\n",
      "note_off channel=0 note=36 velocity=64 time=1\n",
      "note_on channel=0 note=51 velocity=67 time=0\n",
      "note_off channel=0 note=52 velocity=64 time=0\n",
      "note_on channel=0 note=70 velocity=44 time=0\n",
      "note_off channel=0 note=71 velocity=64 time=0\n",
      "note_off channel=0 note=80 velocity=64 time=0\n",
      "note_off channel=0 note=85 velocity=64 time=0\n",
      "note_off channel=0 note=89 velocity=64 time=0\n",
      "note_off channel=0 note=51 velocity=64 time=1\n",
      "note_on channel=0 note=52 velocity=73 time=0\n",
      "note_off channel=0 note=77 velocity=64 time=0\n",
      "note_on channel=0 note=95 velocity=20 time=0\n",
      "note_off channel=0 note=63 velocity=64 time=1\n",
      "note_off channel=0 note=82 velocity=64 time=0\n",
      "note_on channel=0 note=83 velocity=36 time=0\n",
      "note_on channel=0 note=85 velocity=17 time=0\n",
      "note_off channel=0 note=91 velocity=64 time=0\n",
      "note_off channel=0 note=93 velocity=64 time=0\n",
      "note_on channel=0 note=101 velocity=40 time=0\n",
      "note_off channel=0 note=70 velocity=64 time=1\n",
      "note_on channel=0 note=71 velocity=34 time=0\n",
      "note_off channel=0 note=79 velocity=64 time=0\n",
      "note_on channel=0 note=80 velocity=29 time=0\n",
      "note_off channel=0 note=88 velocity=64 time=0\n",
      "note_on channel=0 note=90 velocity=17 time=0\n",
      "note_on channel=0 note=98 velocity=35 time=0\n",
      "note_off channel=0 note=75 velocity=64 time=1\n",
      "note_off channel=0 note=96 velocity=64 time=0\n",
      "note_on channel=0 note=75 velocity=21 time=1\n",
      "note_on channel=0 note=77 velocity=9 time=0\n",
      "note_on channel=0 note=102 velocity=40 time=0\n",
      "note_on channel=0 note=103 velocity=18 time=0\n",
      "note_off channel=0 note=95 velocity=64 time=2\n",
      "note_on channel=0 note=97 velocity=33 time=1\n",
      "note_off channel=0 note=98 velocity=64 time=0\n",
      "note_on channel=0 note=100 velocity=17 time=0\n",
      "note_off channel=0 note=75 velocity=64 time=1\n",
      "note_on channel=0 note=98 velocity=34 time=0\n",
      "note_on channel=0 note=63 velocity=58 time=1\n",
      "note_on channel=0 note=70 velocity=38 time=0\n",
      "note_off channel=0 note=71 velocity=64 time=0\n",
      "note_off channel=0 note=77 velocity=64 time=0\n",
      "note_off channel=0 note=90 velocity=64 time=0\n",
      "note_off channel=0 note=103 velocity=64 time=0\n",
      "note_on channel=0 note=82 velocity=38 time=1\n",
      "note_off channel=0 note=83 velocity=64 time=0\n",
      "note_on channel=0 note=51 velocity=61 time=1\n",
      "note_off channel=0 note=52 velocity=64 time=0\n",
      "note_on channel=0 note=91 velocity=11 time=0\n",
      "note_on channel=0 note=79 velocity=12 time=1\n",
      "note_on channel=0 note=89 velocity=21 time=0\n",
      "note_on channel=0 note=103 velocity=16 time=0\n",
      "note_on channel=0 note=83 velocity=20 time=1\n",
      "note_on channel=0 note=50 velocity=68 time=1\n",
      "note_off channel=0 note=51 velocity=64 time=0\n",
      "note_off channel=0 note=100 velocity=64 time=0\n",
      "note_on channel=0 note=96 velocity=34 time=1\n",
      "note_off channel=0 note=97 velocity=64 time=0\n",
      "note_off channel=0 note=103 velocity=64 time=0\n",
      "note_off channel=0 note=70 velocity=64 time=1\n",
      "note_off channel=0 note=79 velocity=64 time=0\n",
      "note_on channel=0 note=97 velocity=43 time=0\n",
      "note_off channel=0 note=98 velocity=64 time=0\n",
      "note_on channel=0 note=70 velocity=32 time=1\n",
      "note_off channel=0 note=82 velocity=64 time=0\n",
      "note_off channel=0 note=89 velocity=64 time=0\n",
      "note_on channel=0 note=98 velocity=18 time=0\n",
      "note_on channel=0 note=100 velocity=25 time=0\n",
      "note_off channel=0 note=63 velocity=64 time=1\n",
      "note_on channel=0 note=81 velocity=22 time=0\n",
      "note_on channel=0 note=84 velocity=18 time=0\n",
      "note_on channel=0 note=69 velocity=43 time=1\n",
      "note_off channel=0 note=70 velocity=64 time=0\n",
      "note_off channel=0 note=85 velocity=64 time=0\n",
      "note_on channel=0 note=103 velocity=20 time=0\n",
      "note_off channel=0 note=83 velocity=64 time=2\n",
      "note_on channel=0 note=78 velocity=22 time=1\n",
      "note_off channel=0 note=80 velocity=64 time=2\n",
      "note_on channel=0 note=83 velocity=34 time=0\n",
      "note_on channel=0 note=80 velocity=14 time=1\n",
      "note_off channel=0 note=100 velocity=64 time=4\n",
      "note_off channel=0 note=80 velocity=64 time=1\n",
      "note_off channel=0 note=84 velocity=64 time=0\n",
      "note_off channel=0 note=91 velocity=64 time=0\n",
      "note_off channel=0 note=98 velocity=64 time=0\n",
      "note_on channel=0 note=100 velocity=23 time=1\n",
      "note_on channel=0 note=84 velocity=19 time=1\n",
      "note_on channel=0 note=80 velocity=13 time=1\n",
      "note_on channel=0 note=94 velocity=19 time=0\n",
      "note_off channel=0 note=84 velocity=64 time=3\n",
      "note_on channel=0 note=87 velocity=10 time=2\n",
      "note_off channel=0 note=81 velocity=64 time=1\n",
      "note_off channel=0 note=96 velocity=64 time=1\n",
      "note_off channel=0 note=103 velocity=64 time=0\n",
      "note_off channel=0 note=80 velocity=64 time=1\n",
      "note_on channel=0 note=103 velocity=18 time=0\n",
      "note_on channel=0 note=84 velocity=21 time=1\n",
      "note_on channel=0 note=96 velocity=39 time=0\n",
      "note_on channel=0 note=80 velocity=9 time=1\n",
      "note_on channel=0 note=98 velocity=12 time=1\n",
      "note_off channel=0 note=83 velocity=64 time=4\n",
      "note_off channel=0 note=94 velocity=64 time=0\n",
      "note_on channel=0 note=95 velocity=19 time=0\n",
      "note_off channel=0 note=78 velocity=64 time=1\n",
      "note_off channel=0 note=84 velocity=64 time=0\n",
      "note_off channel=0 note=87 velocity=64 time=0\n",
      "note_off channel=0 note=98 velocity=64 time=0\n",
      "note_off channel=0 note=103 velocity=64 time=0\n",
      "note_on channel=0 note=63 velocity=49 time=1\n",
      "note_on channel=0 note=68 velocity=22 time=0\n",
      "note_off channel=0 note=69 velocity=64 time=0\n",
      "note_on channel=0 note=70 velocity=18 time=0\n",
      "note_on channel=0 note=89 velocity=11 time=0\n",
      "note_off channel=0 note=100 velocity=64 time=0\n",
      "note_off channel=0 note=50 velocity=64 time=1\n",
      "note_on channel=0 note=51 velocity=51 time=0\n",
      "note_on channel=0 note=79 velocity=14 time=0\n",
      "note_off channel=0 note=95 velocity=64 time=1\n",
      "note_off channel=0 note=102 velocity=64 time=0\n",
      "note_on channel=0 note=83 velocity=37 time=1\n",
      "note_off channel=0 note=96 velocity=64 time=0\n",
      "note_off channel=0 note=101 velocity=64 time=0\n",
      "note_off channel=0 note=79 velocity=64 time=1\n",
      "note_on channel=0 note=50 velocity=68 time=1\n",
      "note_off channel=0 note=51 velocity=64 time=0\n",
      "note_off channel=0 note=63 velocity=64 time=0\n",
      "note_off channel=0 note=70 velocity=64 time=0\n",
      "note_off channel=0 note=89 velocity=64 time=0\n",
      "note_off channel=0 note=97 velocity=64 time=0\n",
      "note_off channel=0 note=68 velocity=64 time=1\n",
      "note_on channel=0 note=69 velocity=29 time=0\n",
      "note_off channel=0 note=80 velocity=64 time=0\n",
      "note_on channel=0 note=97 velocity=15 time=0\n",
      "note_on channel=0 note=61 velocity=51 time=1\n",
      "note_on channel=0 note=80 velocity=23 time=0\n",
      "note_on channel=0 note=101 velocity=23 time=0\n",
      "note_on channel=0 note=68 velocity=38 time=2\n",
      "note_off channel=0 note=69 velocity=64 time=0\n",
      "note_on channel=0 note=49 velocity=74 time=1\n",
      "note_off channel=0 note=50 velocity=64 time=0\n",
      "note_on channel=0 note=100 velocity=13 time=0\n",
      "note_off channel=0 note=97 velocity=64 time=1\n",
      "note_on channel=0 note=91 velocity=20 time=2\n",
      "note_off channel=0 note=100 velocity=64 time=0\n",
      "note_on channel=0 note=98 velocity=14 time=3\n",
      "note_off channel=0 note=83 velocity=64 time=1\n",
      "note_on channel=0 note=83 velocity=29 time=3\n",
      "note_on channel=0 note=100 velocity=9 time=0\n",
      "note_on channel=0 note=77 velocity=12 time=1\n",
      "note_off channel=0 note=100 velocity=64 time=2\n",
      "note_off channel=0 note=98 velocity=64 time=1\n",
      "note_on channel=0 note=75 velocity=16 time=1\n",
      "note_off channel=0 note=77 velocity=64 time=5\n",
      "note_on channel=0 note=88 velocity=41 time=3\n",
      "note_on channel=0 note=98 velocity=11 time=1\n",
      "note_off channel=0 note=83 velocity=64 time=3\n",
      "note_on channel=0 note=87 velocity=32 time=0\n",
      "note_off channel=0 note=75 velocity=64 time=1\n",
      "note_on channel=0 note=78 velocity=9 time=0\n",
      "note_on channel=0 note=84 velocity=21 time=0\n",
      "note_on channel=0 note=86 velocity=24 time=1\n",
      "note_on channel=0 note=90 velocity=10 time=0\n",
      "note_off channel=0 note=98 velocity=64 time=0\n",
      "note_off channel=0 note=78 velocity=64 time=2\n",
      "note_off channel=0 note=101 velocity=64 time=0\n",
      "note_on channel=0 note=78 velocity=11 time=1\n",
      "note_on channel=0 note=83 velocity=28 time=1\n",
      "note_off channel=0 note=78 velocity=64 time=3\n",
      "note_on channel=0 note=78 velocity=10 time=1\n",
      "note_on channel=0 note=102 velocity=10 time=0\n",
      "note_off channel=0 note=102 velocity=64 time=3\n",
      "note_on channel=0 note=77 velocity=14 time=1\n",
      "note_off channel=0 note=78 velocity=64 time=0\n",
      "note_off channel=0 note=86 velocity=64 time=0\n",
      "note_on channel=0 note=86 velocity=23 time=1\n",
      "note_off channel=0 note=90 velocity=64 time=2\n",
      "note_on channel=0 note=75 velocity=22 time=7\n",
      "note_off channel=0 note=77 velocity=64 time=9\n",
      "note_on channel=0 note=90 velocity=39 time=0\n",
      "note_off channel=0 note=91 velocity=64 time=1\n",
      "note_on channel=0 note=77 velocity=21 time=3\n",
      "note_off channel=0 note=86 velocity=64 time=0\n",
      "note_off channel=0 note=83 velocity=64 time=2\n",
      "note_on channel=0 note=83 velocity=28 time=1\n",
      "note_off channel=0 note=87 velocity=64 time=1\n",
      "note_off channel=0 note=68 velocity=64 time=2\n",
      "note_on channel=0 note=91 velocity=11 time=0\n",
      "note_off channel=0 note=75 velocity=64 time=1\n",
      "note_on channel=0 note=78 velocity=19 time=1\n",
      "note_off channel=0 note=77 velocity=64 time=1\n",
      "note_off channel=0 note=91 velocity=64 time=0\n",
      "note_on channel=0 note=77 velocity=21 time=2\n",
      "note_on channel=0 note=86 velocity=21 time=0\n",
      "note_on channel=0 note=68 velocity=29 time=1\n",
      "note_off channel=0 note=78 velocity=64 time=0\n",
      "note_on channel=0 note=78 velocity=18 time=1\n",
      "note_on channel=0 note=82 velocity=17 time=0\n",
      "note_off channel=0 note=83 velocity=64 time=0\n",
      "note_off channel=0 note=77 velocity=64 time=1\n",
      "note_on channel=0 note=87 velocity=34 time=4\n",
      "note_on channel=0 note=91 velocity=18 time=0\n",
      "note_on channel=0 note=95 velocity=24 time=3\n",
      "note_on channel=0 note=75 velocity=21 time=1\n",
      "note_off channel=0 note=78 velocity=64 time=0\n",
      "note_off channel=0 note=84 velocity=64 time=0\n",
      "note_on channel=0 note=83 velocity=35 time=2\n",
      "note_on channel=0 note=93 velocity=27 time=0\n",
      "note_off channel=0 note=82 velocity=64 time=1\n",
      "note_off channel=0 note=91 velocity=64 time=1\n",
      "note_off channel=0 note=86 velocity=64 time=2\n",
      "note_on channel=0 note=91 velocity=11 time=2\n",
      "note_on channel=0 note=84 velocity=22 time=1\n",
      "note_off channel=0 note=91 velocity=64 time=6\n",
      "note_on channel=0 note=86 velocity=24 time=1\n",
      "note_on channel=0 note=78 velocity=13 time=1\n",
      "note_on channel=0 note=82 velocity=16 time=1\n",
      "note_on channel=0 note=91 velocity=17 time=0\n",
      "note_off channel=0 note=80 velocity=64 time=1\n",
      "note_off channel=0 note=83 velocity=64 time=0\n",
      "note_on channel=0 note=83 velocity=37 time=1\n",
      "note_off channel=0 note=86 velocity=64 time=0\n",
      "note_on channel=0 note=77 velocity=19 time=1\n",
      "note_off channel=0 note=78 velocity=64 time=0\n",
      "note_off channel=0 note=91 velocity=64 time=0\n",
      "note_off channel=0 note=82 velocity=64 time=1\n",
      "note_on channel=0 note=86 velocity=25 time=2\n",
      "note_off channel=0 note=87 velocity=64 time=0\n",
      "note_on channel=0 note=91 velocity=16 time=1\n",
      "note_off channel=0 note=77 velocity=64 time=3\n",
      "note_off channel=0 note=75 velocity=64 time=1\n",
      "note_on channel=0 note=77 velocity=16 time=0\n",
      "note_on channel=0 note=87 velocity=27 time=0\n",
      "note_off channel=0 note=91 velocity=64 time=3\n",
      "note_on channel=0 note=91 velocity=14 time=1\n",
      "note_off channel=0 note=95 velocity=64 time=2\n",
      "note_off channel=0 note=77 velocity=64 time=5\n",
      "note_off channel=0 note=86 velocity=64 time=0\n",
      "note_on channel=0 note=75 velocity=13 time=7\n",
      "note_off channel=0 note=91 velocity=64 time=1\n",
      "note_on channel=0 note=86 velocity=13 time=5\n",
      "note_on channel=0 note=91 velocity=19 time=0\n",
      "note_off channel=0 note=84 velocity=64 time=3\n",
      "note_on channel=0 note=85 velocity=24 time=2\n",
      "note_off channel=0 note=86 velocity=64 time=0\n",
      "note_off channel=0 note=75 velocity=64 time=2\n",
      "note_on channel=0 note=82 velocity=22 time=2\n",
      "note_off channel=0 note=83 velocity=64 time=0\n",
      "note_on channel=0 note=77 velocity=17 time=2\n",
      "note_off channel=0 note=87 velocity=64 time=3\n",
      "note_off channel=0 note=91 velocity=64 time=1\n",
      "note_on channel=0 note=91 velocity=16 time=1\n",
      "note_on channel=0 note=83 velocity=40 time=7\n",
      "note_on channel=0 note=75 velocity=12 time=1\n",
      "note_off channel=0 note=82 velocity=64 time=0\n",
      "note_off channel=0 note=75 velocity=64 time=15\n",
      "note_off channel=0 note=77 velocity=64 time=1\n",
      "note_off channel=0 note=68 velocity=64 time=7\n",
      "note_off channel=0 note=91 velocity=64 time=1\n",
      "note_on channel=0 note=91 velocity=20 time=1\n",
      "note_on channel=0 note=75 velocity=20 time=2\n",
      "note_on channel=0 note=68 velocity=25 time=9\n",
      "note_on channel=0 note=87 velocity=29 time=2\n",
      "note_off channel=0 note=93 velocity=64 time=1\n",
      "note_off channel=0 note=90 velocity=64 time=3\n",
      "note_off channel=0 note=85 velocity=64 time=3\n",
      "note_off channel=0 note=83 velocity=64 time=1\n",
      "note_off channel=0 note=91 velocity=64 time=0\n",
      "note_on channel=0 note=83 velocity=36 time=5\n",
      "note_off channel=0 note=61 velocity=64 time=8\n",
      "note_off channel=0 note=68 velocity=64 time=2\n",
      "note_off channel=0 note=88 velocity=64 time=3\n",
      "note_off channel=0 note=49 velocity=64 time=2\n",
      "note_off channel=0 note=75 velocity=64 time=10\n",
      "note_off channel=0 note=83 velocity=64 time=0\n",
      "note_off channel=0 note=87 velocity=64 time=0\n",
      "<meta message end_of_track time=0>\n"
     ]
    }
   ],
   "source": [
    "for msg in mid.tracks[0]:\n",
    "    print(msg)"
   ]
  },
  {
   "cell_type": "code",
   "execution_count": 14,
   "metadata": {},
   "outputs": [],
   "source": [
    "message_numbers = []\n",
    "duplicates = []\n",
    "\n",
    "for track in mid.tracks:\n",
    "    if len(track) in message_numbers:\n",
    "        duplicates.append(track)\n",
    "    else:\n",
    "        message_numbers.append(len(track))\n",
    "\n",
    "for track in duplicates:\n",
    "    mid.tracks.remove(track)\n",
    "\n",
    "mid.save('Bhairavi_removed_duplicates.mid')"
   ]
  },
  {
   "cell_type": "code",
   "execution_count": 15,
   "metadata": {},
   "outputs": [],
   "source": [
    "mid_modified = MidiFile('Bhairavi_removed_duplicates.mid', clip=True)"
   ]
  },
  {
   "cell_type": "code",
   "execution_count": 16,
   "metadata": {},
   "outputs": [
    {
     "name": "stdout",
     "output_type": "stream",
     "text": [
      "<midi file 'Bhairavi_removed_duplicates.mid' type 0, 1 tracks, 64097 messages>\n"
     ]
    }
   ],
   "source": [
    "print(mid_modified)"
   ]
  },
  {
   "cell_type": "code",
   "execution_count": 17,
   "metadata": {},
   "outputs": [],
   "source": [
    "ashwaryasavari = MidiFile('asavari01.wav.mid', clip=True)"
   ]
  },
  {
   "cell_type": "code",
   "execution_count": 18,
   "metadata": {},
   "outputs": [
    {
     "name": "stdout",
     "output_type": "stream",
     "text": [
      "<midi file 'asavari01.wav.mid' type 0, 1 tracks, 54449 messages>\n"
     ]
    }
   ],
   "source": [
    "print(ashwaryasavari)"
   ]
  },
  {
   "cell_type": "code",
   "execution_count": 19,
   "metadata": {},
   "outputs": [],
   "source": [
    "UstadAmirKhan = MidiFile('UstadAmirKhan.mp3.mid', clip=True)"
   ]
  },
  {
   "cell_type": "code",
   "execution_count": 20,
   "metadata": {},
   "outputs": [
    {
     "name": "stdout",
     "output_type": "stream",
     "text": [
      "<midi file 'UstadAmirKhan.mp3.mid' type 0, 1 tracks, 116493 messages>\n"
     ]
    }
   ],
   "source": [
    "print(UstadAmirKhan)"
   ]
  },
  {
   "cell_type": "markdown",
   "metadata": {},
   "source": [
    "Convert midi file to Pretty MIDI Instance"
   ]
  },
  {
   "cell_type": "code",
   "execution_count": 2,
   "metadata": {},
   "outputs": [],
   "source": [
    "pm = pretty_midi.PrettyMIDI('Bhairavi01.wav.mid')"
   ]
  },
  {
   "cell_type": "markdown",
   "metadata": {},
   "source": [
    "Return useful information from a pretty_midi.PrettyMIDI instance"
   ]
  },
  {
   "cell_type": "code",
   "execution_count": 14,
   "metadata": {},
   "outputs": [],
   "source": [
    "def get_midi_info(pm):\n",
    "    if pm.time_signature_changes:\n",
    "        pm.time_signature_changes.sort(key=lambda x: x.time)\n",
    "        first_beat_time = pm.time_signature_changes[0].time\n",
    "    else:\n",
    "        first_beat_time = pm.estimate_beat_start()\n",
    "\n",
    "    tc_times, tempi = pm.get_tempo_changes()\n",
    "\n",
    "    if len(pm.time_signature_changes) == 1:\n",
    "        time_sign = '{}/{}'.format(pm.time_signature_changes[0].numerator,\n",
    "                                   pm.time_signature_changes[0].denominator)\n",
    "    else:\n",
    "        time_sign = None\n",
    "\n",
    "    midi_info = {\n",
    "        'first_beat_time': first_beat_time,\n",
    "        'num_time_signature_change': len(pm.time_signature_changes),\n",
    "        'time_signature': time_sign,\n",
    "        'tempo': tempi[0] if len(tc_times) == 1 else None\n",
    "    }\n",
    "\n",
    "    return midi_info"
   ]
  },
  {
   "cell_type": "code",
   "execution_count": 15,
   "metadata": {},
   "outputs": [],
   "source": [
    "midi_data = {}\n",
    "midi_data = get_midi_info(pm)"
   ]
  },
  {
   "cell_type": "code",
   "execution_count": 16,
   "metadata": {},
   "outputs": [
    {
     "name": "stdout",
     "output_type": "stream",
     "text": [
      "{'first_beat_time': 0.5, 'num_time_signature_change': 0, 'time_signature': None, 'tempo': 120.0}\n"
     ]
    }
   ],
   "source": [
    "print(midi_data)"
   ]
  },
  {
   "cell_type": "markdown",
   "metadata": {},
   "source": [
    "Test for Asavari dataset"
   ]
  },
  {
   "cell_type": "code",
   "execution_count": 18,
   "metadata": {},
   "outputs": [],
   "source": [
    "asavari = pretty_midi.PrettyMIDI('asavari01.wav.mid')"
   ]
  },
  {
   "cell_type": "code",
   "execution_count": 19,
   "metadata": {},
   "outputs": [],
   "source": [
    "midi_data_asavari = {}\n",
    "midi_data_asavari = get_midi_info(asavari)"
   ]
  },
  {
   "cell_type": "code",
   "execution_count": 20,
   "metadata": {},
   "outputs": [
    {
     "name": "stdout",
     "output_type": "stream",
     "text": [
      "{'first_beat_time': 0.06976744186046512, 'num_time_signature_change': 0, 'time_signature': None, 'tempo': 120.0}\n"
     ]
    }
   ],
   "source": [
    "print(midi_data_asavari)"
   ]
  },
  {
   "cell_type": "code",
   "execution_count": 21,
   "metadata": {},
   "outputs": [],
   "source": [
    "amir_khan = pretty_midi.PrettyMIDI('UstadAmirKhan.mp3.mid')"
   ]
  },
  {
   "cell_type": "code",
   "execution_count": 23,
   "metadata": {},
   "outputs": [],
   "source": [
    "midi_data_amir_khan = {}\n",
    "midi_data_amir_khan = get_midi_info(amir_khan)"
   ]
  },
  {
   "cell_type": "code",
   "execution_count": 24,
   "metadata": {},
   "outputs": [
    {
     "name": "stdout",
     "output_type": "stream",
     "text": [
      "{'first_beat_time': 0.6395348837209303, 'num_time_signature_change': 0, 'time_signature': None, 'tempo': 120.0}\n"
     ]
    }
   ],
   "source": [
    "print(midi_data_amir_khan)"
   ]
  },
  {
   "cell_type": "code",
   "execution_count": 33,
   "metadata": {},
   "outputs": [],
   "source": [
    "def midi_filter(midi_info):\n",
    "    if midi_info['first_beat_time'] > 0.0:\n",
    "        return False\n",
    "    elif midi_info['num_time_signature_change'] > 1:\n",
    "        return False\n",
    "    elif midi_info['time_signature'] not in ['4/4']:\n",
    "        return False\n",
    "    return True"
   ]
  },
  {
   "cell_type": "code",
   "execution_count": 34,
   "metadata": {},
   "outputs": [],
   "source": [
    "amir_khan_filter = False\n",
    "amir_khan_filter = midi_filter(midi_data_amir_khan)"
   ]
  },
  {
   "cell_type": "code",
   "execution_count": 35,
   "metadata": {},
   "outputs": [
    {
     "name": "stdout",
     "output_type": "stream",
     "text": [
      "False\n"
     ]
    }
   ],
   "source": [
    "print (amir_khan_filter)"
   ]
  },
  {
   "cell_type": "code",
   "execution_count": null,
   "metadata": {},
   "outputs": [],
   "source": []
  }
 ],
 "metadata": {
  "kernelspec": {
   "display_name": "Python 3",
   "language": "python",
   "name": "python3"
  },
  "language_info": {
   "codemirror_mode": {
    "name": "ipython",
    "version": 3
   },
   "file_extension": ".py",
   "mimetype": "text/x-python",
   "name": "python",
   "nbconvert_exporter": "python",
   "pygments_lexer": "ipython3",
   "version": "3.8.5"
  }
 },
 "nbformat": 4,
 "nbformat_minor": 4
}
